<svg version="1.1" id="Layer_1" xmlns="http://www.w3.org/2000/svg" xmlns:xlink="http://www.w3.org/1999/xlink" x="0px" y="0px"
	 width="100%" viewBox="0 0 1024 1024" enable-background="new 0 0 1024 1024" xml:space="preserve">
<path fill="#000000" opacity="1.000000" stroke="none" 
	d="
M835.404663,598.320679 
	C832.306152,652.996582 818.377930,704.072632 791.234375,751.308289 
	C767.353455,792.866394 735.762024,827.342102 696.101929,854.320618 
	C656.318848,881.382874 612.424927,898.029114 564.920349,904.970825 
	C540.186584,908.585144 515.288574,910.278931 490.242554,908.256958 
	C422.102295,902.756042 360.851227,879.733093 307.744202,836.294189 
	C266.350739,802.436279 234.784729,761.038879 214.725449,711.332275 
	C202.397995,680.784912 194.850891,648.982605 191.427429,616.130554 
	C189.383530,596.516785 188.584702,576.898071 189.990036,557.320984 
	C193.734497,505.158295 205.356995,454.833191 225.890228,406.555542 
	C249.124374,351.927551 280.247131,302.760651 323.597595,261.799835 
	C355.237274,231.904266 390.971222,208.538940 432.429169,194.542969 
	C437.288483,192.902496 438.731598,191.100266 438.105774,185.408401 
	C433.076233,139.661774 464.043976,107.085732 503.456268,102.563538 
	C527.963318,99.751579 549.633118,105.690269 567.159180,123.181412 
	C584.753845,140.741028 591.218689,162.582993 588.545288,187.159988 
	C588.198547,190.348358 588.438965,192.297806 592.043396,193.530396 
	C643.434143,211.104034 685.964600,241.882996 722.059021,281.892212 
	C769.015869,333.942017 800.282288,394.678894 819.696045,461.679535 
	C827.434631,488.386597 832.466614,515.669312 834.538513,543.502441 
	C835.888123,561.632080 837.061462,579.703491 835.404663,598.320679 
M255.971405,724.594666 
	C267.287354,745.904114 281.299225,765.292419 297.595245,783.057922 
	C351.793182,842.143005 419.822235,871.300049 499.095581,875.533020 
	C524.912170,876.911560 550.664795,874.902832 576.039185,869.658691 
	C658.534424,852.609009 720.931274,807.370911 763.687988,734.997070 
	C790.722778,689.235535 802.600159,639.150208 804.599670,586.470093 
	C805.440979,564.305298 803.912781,542.174683 800.460327,520.295349 
	C793.062134,473.410675 778.173584,428.974152 756.342346,386.749817 
	C734.206726,343.936768 706.236328,305.673615 669.497070,274.363556 
	C619.188354,231.489212 561.395813,209.970490 494.621399,215.190033 
	C471.170593,217.023102 448.648407,222.494797 427.055939,231.615967 
	C385.148682,249.318604 349.972107,276.107452 320.666168,310.850250 
	C290.077911,347.113220 266.578033,387.496704 249.668320,431.741486 
	C234.801193,470.641785 225.028748,510.732788 222.055115,552.381592 
	C219.839783,583.409729 221.019135,614.235535 227.275452,644.765076 
	C232.957687,672.493286 242.499695,698.861877 255.971405,724.594666 
M554.593811,168.117096 
	C551.201965,148.056870 535.561951,135.502411 516.060608,134.949448 
	C491.161865,134.243423 470.265015,153.563339 470.231354,177.689728 
	C470.222717,183.874985 470.711365,184.282150 476.775726,183.448563 
	C487.324799,181.998520 497.912231,181.017334 508.564789,180.719543 
	C522.401367,180.332779 536.203491,180.819153 549.856018,183.092529 
	C554.256409,183.825241 555.220276,182.164612 555.066284,178.484756 
	C554.934082,175.325974 554.812012,172.166763 554.593811,168.117096 
z"/>
<path fill="#000000" opacity="1.000000" stroke="none" 
	d="
M311.168793,626.646118 
	C311.122589,548.180054 311.131927,470.183228 311.071136,392.186462 
	C311.053284,369.269745 319.192749,350.466614 338.924866,337.915710 
	C348.989777,331.513794 360.336243,329.053162 372.361511,330.274567 
	C375.502655,330.593628 378.681427,330.645935 381.842896,330.646118 
	C444.840637,330.650085 507.841949,331.014374 570.834473,330.432465 
	C598.155823,330.180084 625.503296,330.504120 652.797729,329.485260 
	C673.253174,328.721741 689.478333,335.805725 702.224487,351.383759 
	C710.482971,361.477020 713.970764,373.749512 714.028503,386.266815 
	C714.405090,467.928864 714.515198,549.595093 714.043457,631.256104 
	C713.910706,654.239807 704.472290,672.973633 682.539734,683.364258 
	C675.569336,686.666565 668.169250,688.380188 660.333801,688.375671 
	C562.837158,688.319092 465.340546,688.354614 367.843903,688.325195 
	C335.800720,688.315491 312.442963,665.302307 311.620056,633.096069 
	C311.569092,631.100220 311.342438,629.108887 311.168793,626.646118 
M522.396606,361.402161 
	C510.899017,361.388885 499.400879,361.443970 487.903961,361.349213 
	C456.595917,361.091248 425.285767,360.428436 393.982208,360.670410 
	C383.866455,360.748566 373.699890,359.354553 363.568604,361.212372 
	C354.092010,362.950104 345.211487,370.553131 343.701935,379.189911 
	C342.902649,383.762909 342.263580,388.426666 342.210846,393.056946 
	C341.935791,417.206665 341.881958,441.355560 341.504730,465.508148 
	C340.958466,500.482208 340.610596,535.484375 342.030884,570.459351 
	C342.875519,591.259827 341.146851,612.065125 342.273834,632.860352 
	C343.143463,648.906738 353.621124,658.501099 369.736633,657.857849 
	C380.382843,657.432983 391.053131,657.164795 401.683075,657.121338 
	C461.118774,656.878357 520.557861,655.991516 579.993103,657.599243 
	C605.800720,658.297363 631.624634,658.409546 657.441833,658.734009 
	C672.172485,658.919250 683.697632,647.909180 683.681335,633.207520 
	C683.638550,594.720276 684.229370,556.240417 684.536987,517.757690 
	C684.888611,473.778961 684.031616,429.790558 683.698730,385.806335 
	C683.579224,370.006500 673.784058,360.208069 657.759155,360.237946 
	C649.438660,360.253479 641.116943,361.119415 632.799622,361.059174 
	C596.319275,360.795044 559.846313,362.571503 522.396606,361.402161 
z"/>
<path fill="#000000" opacity="1.000000" stroke="none" 
	d="
M528.037964,732.627197 
	C562.286621,744.492920 566.891235,786.153259 548.390747,806.601318 
	C536.094299,820.192078 520.771240,826.065674 502.577972,821.408752 
	C483.818024,816.606689 471.702576,804.527283 467.843597,785.497253 
	C461.986603,756.614319 481.593018,731.700073 510.990448,730.033203 
	C516.625488,729.713745 522.253723,730.653381 528.037964,732.627197 
M508.382050,801.175659 
	C514.085266,802.627441 519.262756,800.937317 524.161072,798.274292 
	C534.675537,792.557922 540.429260,779.763428 537.197876,769.638855 
	C533.656921,758.544128 520.100708,749.863098 508.645264,751.354553 
	C499.077118,752.600220 488.786987,764.159912 488.172791,774.352844 
	C487.419098,786.861084 495.515747,797.946472 508.382050,801.175659 
z"/>
<path fill="#000000" opacity="1.000000" stroke="none" 
	d="
M616.103271,795.983765 
	C599.044128,783.285400 592.667847,761.589600 600.108948,742.370667 
	C607.687134,722.797485 627.112671,710.763672 647.912720,712.756958 
	C670.439148,714.915710 687.590881,734.071411 688.438782,756.769714 
	C689.499390,785.162720 670.013123,802.526550 645.456909,804.896729 
	C634.965332,805.909424 625.108276,802.368103 616.103271,795.983765 
M654.865112,737.570740 
	C650.130493,734.970276 645.192261,732.895325 639.667542,733.466492 
	C629.089172,734.560120 618.555054,746.012695 617.401855,757.437744 
	C616.449036,766.877075 625.191711,779.458252 634.824890,782.510437 
	C646.532776,786.219971 659.435059,780.327209 665.258911,768.610535 
	C670.779419,757.504150 667.093201,745.934082 654.865112,737.570740 
z"/>
<path fill="#000000" opacity="1.000000" stroke="none" 
	d="
M417.438171,789.398071 
	C404.622162,802.920044 389.484436,808.412781 371.557617,803.729004 
	C353.686554,799.059937 342.922668,787.105957 338.356720,769.330322 
	C331.999878,744.582397 348.714111,718.454529 373.965668,713.767395 
	C402.217560,708.523376 427.729950,729.667786 428.455353,758.391968 
	C428.754486,770.235413 425.033295,780.205322 417.438171,789.398071 
M360.463928,769.922302 
	C361.148438,771.060791 361.755402,772.255127 362.529510,773.329041 
	C369.755859,783.353149 381.423401,786.681580 392.009583,781.772156 
	C403.136566,776.612000 410.263885,763.847961 407.253632,753.301758 
	C404.357452,743.155396 396.854309,737.164612 386.970856,734.581909 
	C377.170959,732.020996 369.294281,736.158936 363.328552,743.740906 
	C357.254822,751.460205 355.185852,759.991516 360.463928,769.922302 
z"/>
<path fill="#000000" opacity="1.000000" stroke="none" 
	d="
M401.659454,480.411011 
	C403.653503,483.273621 404.377411,486.047699 404.402313,489.181091 
	C404.443146,494.314423 406.615356,496.465942 411.633575,496.728912 
	C414.098480,496.858093 416.575714,496.751343 419.532471,496.751343 
	C421.344727,487.843750 423.755676,478.886993 426.641998,470.078400 
	C432.324860,452.735260 436.370056,434.830627 445.306885,418.614166 
	C451.342743,407.661652 460.628204,400.775818 471.567413,395.780548 
	C480.744873,391.589722 490.451508,389.579407 500.638641,389.624054 
	C517.107544,389.696167 533.623352,388.911469 549.691650,393.672821 
	C564.003967,397.913879 577.193237,403.670502 585.077698,417.611725 
	C588.979797,424.511475 594.852783,429.287292 602.976074,430.843689 
	C604.902893,431.212891 606.813049,432.040222 608.543762,432.995697 
	C615.078613,436.603302 616.710693,443.314178 612.595215,449.367615 
	C611.568848,450.877319 610.513733,452.439850 609.177124,453.653595 
	C603.875366,458.467865 601.195435,463.135620 604.201233,471.109039 
	C606.486267,477.170349 605.036133,484.552368 606.311218,491.260712 
	C608.288330,501.662506 607.036377,512.177673 607.279907,522.638123 
	C607.365540,526.316284 607.713989,528.132202 612.317383,527.181274 
	C621.008667,525.385864 628.025513,530.277954 628.855286,539.455322 
	C629.879944,550.788818 625.439026,560.885742 618.764771,569.875610 
	C616.523376,572.894592 613.318726,573.860901 609.428955,572.152100 
	C606.405762,570.824036 598.880920,574.661316 597.766785,578.528076 
	C596.326843,583.525635 593.181824,586.928650 589.478943,590.070557 
	C585.999756,593.022705 584.877747,596.432434 586.851440,600.704468 
	C589.361938,606.138123 590.096069,612.157715 592.816162,617.596375 
	C595.627502,623.217468 593.519592,627.320007 587.487000,629.167114 
	C582.250244,630.770508 577.094421,632.700012 571.622742,633.508911 
	C568.120544,634.026672 564.619446,634.158081 563.121948,630.332397 
	C561.653381,626.580688 563.325500,622.977966 566.654602,621.368347 
	C571.855774,618.853516 571.587708,615.686951 569.373535,611.416626 
	C566.741577,606.340698 563.501404,604.401978 558.600952,606.135742 
	C528.717346,616.707458 498.452179,614.708374 468.032471,609.233337 
	C464.899078,608.669373 461.387512,606.000305 458.579529,608.572815 
	C455.018188,611.835571 452.869751,616.279480 452.237244,621.242004 
	C452.132324,622.065369 452.183502,622.907288 452.115448,623.736816 
	C451.500336,631.233948 449.107178,633.633667 441.733032,633.211609 
	C435.771484,632.870422 429.777161,632.275391 423.921783,631.147095 
	C418.447357,630.092041 416.967316,626.279602 421.208191,622.836060 
	C427.914459,617.390625 433.855560,611.795471 436.391937,603.302124 
	C436.434875,603.158386 436.607971,603.053711 436.719696,602.930176 
	C442.595337,596.433044 442.677765,596.360229 436.571198,589.445618 
	C427.822052,579.538757 424.937988,567.070068 421.931122,554.858948 
	C420.348175,548.430359 417.473877,543.568848 412.488007,539.615540 
	C411.053223,538.477844 409.748901,537.168762 408.273499,536.090454 
	C401.481781,531.126648 398.567932,524.911072 401.618317,516.572998 
	C402.346405,514.582947 402.710815,512.459900 403.221619,510.478973 
	C400.664490,508.562683 399.750092,510.251526 398.770172,511.895752 
	C397.409119,514.179504 396.178986,516.570801 394.575745,518.674316 
	C391.296051,522.977356 386.676819,524.143005 381.615021,523.101562 
	C376.786407,522.108093 373.910400,518.904236 372.627808,514.090881 
	C369.404144,501.992859 374.197388,491.802673 380.572693,482.257416 
	C383.442993,477.959869 397.512421,477.031555 401.659454,480.411011 
M578.797363,455.350830 
	C563.480530,454.999634 548.160706,454.742828 532.847717,454.267853 
	C520.221252,453.876251 507.599121,453.123260 494.989105,452.585663 
	C484.763489,452.149689 474.509216,450.769043 464.148956,451.867706 
	C459.227417,452.389618 454.031036,456.293579 448.458801,450.423401 
	C447.181061,458.133881 444.165405,463.795532 440.949982,469.372192 
	C437.492889,475.368073 435.334167,481.921143 434.669586,488.707184 
	C434.280975,492.675323 431.466003,497.174042 435.588806,500.939453 
	C439.795349,504.781372 440.153687,509.854401 439.064178,514.813354 
	C436.212952,527.791077 435.417084,540.789734 437.349670,553.941284 
	C440.352448,574.375732 447.762756,587.827393 468.574005,593.061157 
	C500.537292,601.099426 531.931580,598.579712 562.903076,588.347351 
	C573.403381,584.878296 581.401550,577.999878 586.890869,568.294861 
	C588.959412,564.637756 589.522522,560.927551 588.148926,556.989136 
	C582.874512,556.873169 582.874573,556.873230 580.340332,559.496460 
	C573.601501,566.471741 569.139832,567.038818 561.115845,561.682617 
	C556.739014,558.760986 552.522888,555.598511 548.226746,552.539246 
	C544.317444,558.471436 540.528564,559.856262 534.363281,557.990051 
	C532.773132,557.508850 531.166260,557.081726 529.582520,556.580872 
	C521.831360,554.129578 518.023499,548.303223 518.721069,540.280029 
	C519.408386,532.374817 521.879272,525.034729 525.440613,518.015869 
	C529.004944,510.991150 535.625305,509.686218 545.927124,513.940918 
	C551.422546,516.210510 552.834045,520.295471 550.692810,527.515015 
	C550.532898,528.053955 550.825623,528.727112 550.943115,529.598511 
	C551.994995,529.414673 552.849487,529.440125 553.542114,529.117737 
	C562.007629,525.177368 569.672119,526.262817 576.645142,532.535156 
	C578.620544,534.312134 580.751892,535.946655 582.957703,537.429260 
	C585.980225,539.460815 589.381531,539.281250 592.523254,537.963074 
	C595.618042,536.664612 595.724915,533.596802 595.742981,530.694397 
	C595.801086,521.367188 595.618286,512.030579 595.978455,502.714996 
	C596.533813,488.352905 592.297791,475.128021 587.079773,462.077881 
	C585.702881,458.634277 583.496460,456.097778 578.797363,455.350830 
M455.099274,434.781891 
	C481.371826,435.981873 507.662689,436.488586 533.954407,437.054810 
	C545.925171,437.312622 557.886780,438.255707 569.834717,439.131592 
	C572.767029,439.346619 575.632874,440.404572 576.526978,436.342621 
	C577.372375,432.501648 574.122192,425.494202 571.441406,424.846100 
	C560.238403,422.137482 548.757446,422.028625 537.365295,421.482117 
	C530.745239,421.164490 524.169128,420.340179 517.449219,420.628937 
	C499.336060,421.407227 481.191437,421.603729 463.058075,421.663879 
	C457.736694,421.681549 451.245605,428.550079 452.738770,433.673370 
	C452.872803,434.133240 453.759857,434.373627 455.099274,434.781891 
M569.402649,549.447876 
	C571.246094,549.375977 571.779480,548.462585 570.901062,546.880310 
	C569.424133,544.219971 562.892883,542.219299 559.644104,543.541382 
	C562.241272,546.317322 565.820374,547.309204 569.402649,549.447876 
M417.526093,523.073730 
	C418.167145,520.448364 418.331512,517.952087 415.822113,515.939148 
	C413.326294,520.580688 413.603943,521.964050 417.526093,523.073730 
z"/>
<path fill="#000000" opacity="1.000000" stroke="none" 
	d="
M630.418518,572.400391 
	C629.808838,565.884277 632.468018,560.349365 633.937622,554.624268 
	C635.463135,548.681641 637.354370,542.823547 638.572449,536.795227 
	C639.331482,533.038818 641.513062,530.605042 645.354004,530.839417 
	C649.364380,531.084229 650.083008,534.382507 650.322876,537.739929 
	C651.102234,548.647827 647.937988,558.858704 644.258728,568.828735 
	C641.694885,575.776123 635.650696,577.160095 630.418518,572.400391 
z"/>
<path fill="#000000" opacity="1.000000" stroke="none" 
	d="
M374.280151,471.259521 
	C372.896179,481.313354 369.495209,490.198761 364.346680,498.429443 
	C364.087433,498.843872 363.718536,499.213226 363.335510,499.522888 
	C361.066681,501.357300 358.878815,504.260345 355.597260,502.246552 
	C352.549744,500.376465 352.009430,496.755463 353.062805,493.781982 
	C355.828217,485.975708 358.783691,478.185730 362.405243,470.750580 
	C365.125092,465.166595 371.378967,465.483337 374.280151,471.259521 
z"/>
<path fill="#000000" opacity="1.000000" stroke="none" 
	d="
M646.960693,476.267944 
	C641.872437,475.728058 637.497681,474.282318 633.295166,472.227448 
	C630.209656,470.718719 628.462219,468.214752 627.901184,464.934479 
	C627.459839,462.354004 628.244385,460.119263 631.170349,459.767090 
	C638.534363,458.880768 645.419922,459.906830 650.862427,465.607147 
	C652.670288,467.500732 653.796204,469.696899 653.017090,472.371918 
	C652.216736,475.120026 650.222900,476.355072 646.960693,476.267944 
z"/>
<path fill="#000000" opacity="1.000000" stroke="none" 
	d="
M647.728516,512.070618 
	C642.365662,511.974670 637.914307,510.080292 633.654541,507.837555 
	C630.356506,506.101257 627.947937,503.231934 629.218018,499.313507 
	C630.511597,495.322632 633.963074,494.783295 637.815125,495.374329 
	C642.000244,496.016479 645.888489,497.360901 649.416443,499.631104 
	C651.905273,501.232574 653.595093,503.446960 653.246277,506.671387 
	C652.912720,509.755768 650.985962,511.330841 647.728516,512.070618 
z"/>
<path fill="#000000" opacity="1.000000" stroke="none" 
	d="
M394.791260,451.750732 
	C393.628357,449.014648 392.849701,446.489471 394.808289,444.368561 
	C396.872131,442.133636 399.557281,442.550781 402.252869,443.323456 
	C407.509338,444.830170 412.006653,447.503967 415.553497,451.670074 
	C417.016937,453.388977 417.980652,455.440643 416.746155,457.625641 
	C415.407471,459.994995 413.018738,460.385406 410.633026,459.736877 
	C404.946625,458.191162 398.622711,457.861847 394.791260,451.750732 
z"/>
<path fill="#000000" opacity="1.000000" stroke="none" 
	d="
M474.112976,492.379761 
	C477.155609,488.688782 481.102570,487.709198 485.110626,487.889648 
	C491.569183,488.180389 498.029572,488.862030 504.435272,489.762238 
	C509.817169,490.518585 511.950531,493.285980 511.272919,497.655609 
	C510.522430,502.495178 507.127869,504.758423 501.857117,504.132111 
	C494.120728,503.212830 486.331818,502.660400 478.639221,501.472626 
	C472.855560,500.579620 471.901031,498.360535 474.112976,492.379761 
z"/>
<path fill="#000000" opacity="1.000000" stroke="none" 
	d="
M466.722717,462.569153 
	C472.843933,460.398956 474.242584,461.360077 474.322174,467.381866 
	C474.375214,471.394501 474.269012,475.369385 471.958160,478.900208 
	C469.493225,482.666534 464.933105,484.505463 461.698364,482.762024 
	C457.797516,480.659637 458.164612,476.859009 459.042084,473.521393 
	C460.181427,469.187836 461.988770,464.995758 466.722717,462.569153 
z"/>
<path fill="#000000" opacity="1.000000" stroke="none" 
	d="
M526.273315,488.487854 
	C523.974487,483.379974 526.495911,474.085205 530.619507,471.188263 
	C534.349365,468.567932 539.246582,470.549438 540.133240,475.187134 
	C540.700500,478.153931 540.247192,481.117462 539.347229,484.019226 
	C537.162964,491.062500 533.038696,492.619507 526.273315,488.487854 
z"/>
</svg>