<svg preserveAspectRatio="xMidYMid meet" viewBox="0 82.806 743.0914127423823 971.292" xmlns="http://www.w3.org/2000/svg" version="1.0" style="max-height: 500px" width="743.0914127423823" height="971.292">
 <g fill="#a5cfe7">
  <path d="M319.20 1038.75 c-8.55 -1.80 -15.25 -3.65 -17.55 -4.90 -1.15 -0.60 -3.30 -2.55 -4.85 -4.35 -2.95 -3.40 -3.50 -5.35 -2.20 -7.45 0.50 -0.85 0.25 -1.35 -1.95 -3.75 -1.85 -2 -2.90 -3.75 -3.85 -6.40 -1.80 -5.05 -3.15 -10.85 -3.80 -16.15 -0.75 -6.65 -0.75 -6.65 1.25 -7.45 2.30 -1 2.45 -1.90 2.10 -11.25 -0.50 -11.20 -2.15 -25.60 -4.65 -40.30 -1.10 -6.35 -1.35 -9.30 -1.45 -19.25 -0.10 -12.10 -0.95 -21.45 -2.80 -30.75 -2.40 -12.30 -4.15 -19.60 -5 -21 -0.95 -1.60 -3.85 -12.20 -5.20 -19 -0.85 -4.35 -2.20 -6.25 -4.45 -6.25 -1 0 -1.40 -0.55 -2.45 -3.10 -0.70 -1.75 -2.10 -4.95 -3.10 -7.10 -1 -2.20 -2.70 -7.35 -3.80 -11.50 -2.50 -9.55 -2.70 -9.85 -5.90 -9.45 l-2.45 0.30 -3.50 -5.25 c-1.95 -2.90 -3.85 -5.40 -4.25 -5.55 -0.40 -0.15 -1.15 0.15 -1.65 0.70 -0.65 0.70 -1.50 0.95 -3.45 0.95 -2 0 -2.80 0.25 -3.50 1 -0.85 0.95 -0.90 1.25 -0.25 3.40 1 3.35 0.90 6.20 -0.50 11.25 -1.15 4.20 -1.20 4.35 -2.65 4.35 -1.15 0 -1.35 -0.15 -0.95 -0.65 0.45 -0.50 0 -1.10 -1.85 -2.50 -2.95 -2.25 -9.90 -9.55 -10.20 -10.75 -0.20 -0.80 -0.25 -0.80 -0.30 0.05 0 0.45 -0.40 0.85 -0.80 0.85 -1 0 -1 -4.05 -0.05 -12.50 0.80 -6.70 1.60 -17.20 2.25 -29.25 0.40 -7 0.40 -7.55 -0.50 -8.55 -1.45 -1.60 -1.30 -5.80 0.25 -7.40 l1.25 -1.20 -1 -2.60 c-0.55 -1.40 -1.65 -3.90 -2.45 -5.55 -0.85 -1.60 -1.50 -3.60 -1.50 -4.45 0 -1.60 0.70 -2.05 1.20 -0.75 0.45 1.15 1.05 0.90 2.05 -0.90 0.85 -1.65 0.85 -1.80 -0.15 -4.90 -1.55 -4.85 -2.40 -8.10 -3.90 -15.20 -1.55 -7.50 -4 -13.15 -16.55 -38.25 -8.35 -16.80 -17.40 -31.80 -18.25 -30.30 -0.60 1.05 -1.40 1.05 -1.40 0 0 -0.45 -1.10 -2.65 -2.50 -4.90 -2.95 -4.90 -6.30 -12.25 -11.30 -24.75 -3.65 -9.05 -4.30 -11.95 -3.25 -13.95 0.35 -0.65 -0.15 -1.65 -1.95 -4.10 -1.35 -1.75 -3.20 -4.80 -4.15 -6.75 -2.05 -4.15 -7.85 -21.20 -9.85 -29.05 -0.80 -3.05 -1.90 -6.45 -2.45 -7.50 -0.55 -1.10 -1.35 -3.75 -1.85 -5.90 -0.65 -3.05 -1.15 -4.30 -2.20 -5.25 -1.30 -1.20 -1.45 -1.80 -2.20 -8.30 -0.45 -3.85 -1.05 -11.10 -1.40 -16.15 -0.55 -8.25 -0.50 -9.30 0.20 -10.75 0.50 -0.95 0.95 -3.35 1.05 -5.85 0.15 -2.35 0.85 -7.85 1.55 -12.25 1.60 -9.95 3.05 -23 3.80 -33.50 1 -15.45 1.30 -17.20 5.05 -29.50 3.75 -12.15 12.95 -36.25 15.15 -39.45 0.70 -1.05 1.30 -2.30 1.30 -2.75 0 -1.30 5.55 -12.35 9.45 -18.75 4.50 -7.40 6.30 -10.90 8.05 -15.90 1.60 -4.45 2.35 -5.55 7.60 -11 3.10 -3.30 3.95 -3.90 5.30 -3.90 1.45 0 1.60 0.15 1.60 1.45 0 0.80 -0.35 2.40 -0.75 3.55 -1.05 2.90 -0.95 5.15 0.20 6.20 0.75 0.70 1.20 0.75 1.95 0.35 1.05 -0.55 2.10 -2.95 2.10 -4.80 0 -3.85 5.90 -10.55 18.90 -21.40 11.45 -9.55 13.10 -10.65 18.05 -12.15 5.20 -1.60 6.45 -2.60 6.65 -5.35 0.15 -2 0.30 -2.15 5.40 -5.70 3.95 -2.70 5.65 -3.60 6.95 -3.65 l1.70 0 -0.35 2.90 c-0.30 2.60 -0.20 3 0.80 3.95 1.95 1.75 2.40 1.80 3.70 0.60 0.90 -0.85 1.20 -1.65 1.20 -3.25 0 -1.95 0.20 -2.20 2.65 -4.05 3.95 -3.05 7 -4.65 8.75 -4.65 1.80 0 2 0.35 0.70 1.30 -0.70 0.55 -0.75 0.65 -0.10 0.90 5.30 1.75 7.35 2.50 7.85 2.90 0.40 0.30 3.40 -1.40 9.55 -5.45 4.95 -3.25 10.50 -6.85 12.40 -8.05 2.20 -1.35 2.95 -2 2.10 -1.80 -2.20 0.50 -1.75 -1.05 0.55 -2 5.90 -2.30 52.15 -15.80 54.35 -15.80 1.10 0 2.05 0.40 2.85 1.20 1.10 1.10 1.45 1.15 3.15 0.75 1.10 -0.20 5 -0.45 8.70 -0.45 5.95 0 6.95 0.15 8.45 1.05 l1.65 1 1.20 -1.10 c0.65 -0.60 1.20 -1.65 1.20 -2.30 0 -1.20 0.85 -1.60 1.25 -0.55 0.20 0.50 2.80 0.60 11.15 0.50 13.05 -0.20 21.80 0.45 29.85 2.20 3.30 0.75 7.35 1.40 9 1.50 16.45 1 22.70 2 31.20 4.95 2.65 0.90 6.25 1.90 8.05 2.25 19.55 3.40 28.40 5.80 41.50 11.10 4 1.65 9.75 3.90 12.75 5 10.20 3.75 20.50 9.05 30.75 15.90 2.35 1.55 6.40 3.85 9 5.10 5.65 2.75 13.85 8.10 18.75 12.25 1.95 1.60 6.20 4.85 9.50 7.15 7.30 5.05 12.05 8.90 16 12.95 2.90 3 4.15 3.80 3.55 2.30 -0.15 -0.50 0.05 -0.75 0.65 -0.75 1.65 0 2.75 4.10 5.55 20.85 1.75 10.55 2.15 12 3.25 13.10 1.20 1.20 1.25 1.20 2.25 0.30 1.25 -1.10 1.25 -2.05 0 -9.25 -1.50 -8.75 -1.20 -12.20 0.70 -8.60 0.55 0.95 0.75 1.10 0.80 0.50 0 -1.90 1.45 -0.75 2.55 1.95 1.60 4.15 4.60 10.10 10.40 20.65 5.15 9.35 12.85 24.45 15 29.50 0.65 1.50 1.60 3.65 2.10 4.75 1.55 3.45 8.95 31.25 8.95 33.65 0 1.75 -0.65 2.10 -1.45 0.75 -0.40 -0.70 -0.50 -0.45 -0.55 1.35 0 1.20 -0.25 6.40 -0.55 11.50 -0.50 8.70 -0.45 9.55 0.50 13.25 1.50 5.85 2.45 12.35 3.30 22.50 0.40 4.95 1.20 11.35 1.75 14.25 1.80 10 2.05 12.80 2.50 27 0.25 7.85 0.55 14.60 0.70 15 0.15 0.40 0.75 5.60 1.30 11.50 0.60 5.90 1.40 12.55 1.80 14.75 1.60 9.20 1.85 18.55 1.05 40 -0.40 11.30 -0.65 24.80 -0.55 30 0.10 5.25 0.20 9.75 0.20 10.10 0 0.35 1.70 1.70 3.80 3.05 10.50 6.75 19.25 18.95 22.95 32.10 1.95 6.80 2.30 18.50 0.80 25.75 -1.65 8.10 -5.10 15.95 -9.40 21.55 -1.45 2 -1.70 2.55 -1.20 3.30 0.50 0.80 0.40 0.90 -0.80 0.90 -1.10 -0.05 -1.80 -0.60 -3.40 -2.85 -3.10 -4.30 -4.50 -5.65 -6.05 -5.65 -0.70 0 -2.10 -0.45 -3 -1.05 -1.30 -0.80 -1.90 -0.90 -2.65 -0.50 -1.20 0.65 -1.35 1.10 -2.25 7.30 -0.45 2.75 -1.55 9.30 -2.50 14.50 -1.50 8.35 -1.95 10 -3.75 13.50 -1.50 2.90 -2.20 5 -2.55 7.75 -0.30 2.05 -0.95 5.40 -1.55 7.45 l-1 3.70 1.30 1.35 c1.45 1.55 1.55 2.85 0.45 6.85 -1.65 5.85 -1.45 38.20 0.35 57.90 0.90 9.80 4.10 27.70 6 33.65 0.30 0.95 0.65 6.10 0.70 11.50 0.10 5.45 0.40 11.45 0.70 13.35 0.30 1.95 0.55 8.45 0.55 14.50 0.05 6.05 0.25 14.05 0.50 17.75 1.20 17.65 1.20 19 0.35 19 -0.50 0 -0.85 -0.40 -0.85 -0.85 0 -0.45 -0.90 1 -2 3.25 -6.95 14.40 -19.45 25.40 -34.50 30.25 -2 0.65 -3.80 1.50 -3.90 1.85 -0.15 0.45 0.05 0.55 0.60 0.35 0.60 -0.25 0.80 -0.05 0.80 0.75 0 1.05 0 1.05 -11 0.70 -11.85 -0.35 -18.15 -1.10 -25.25 -2.90 -3.30 -0.85 -4.55 -1.40 -4.65 -2 -0.10 -0.60 0.15 -0.90 0.75 -0.90 0.50 0 -0.30 -0.70 -1.80 -1.50 -2.20 -1.25 -2.85 -1.40 -3.45 -0.85 -0.65 0.50 -0.75 0.30 -0.45 -1.75 0.30 -2.10 0.20 -2.45 -1 -3.35 -0.70 -0.60 -1.65 -1.05 -2.10 -1.05 -0.50 0 -1.25 -1.05 -1.95 -2.70 -1.65 -3.75 -3.80 -6.10 -10 -10.85 -6.75 -5.20 -14.60 -11.95 -14.60 -12.55 0 -0.30 -0.40 -1.10 -0.90 -1.80 -0.50 -0.75 -1.20 -2.35 -1.55 -3.60 -1.20 -4.10 -4.30 -10.70 -7.90 -16.80 -4.15 -7 -6.35 -9.55 -8.60 -10 -1.15 -0.25 -1.65 -0.65 -1.85 -1.65 -0.55 -2.30 -2.15 -3.55 -4.50 -3.55 -2.45 0 -3.20 -0.85 -3.20 -3.45 l0 -1.55 3.15 0 c2.70 0 3.35 -0.20 4.30 -1.15 2.10 -2.30 0.25 -3.75 -5.35 -4.15 -2.85 -0.25 -4.15 -0.60 -4.95 -1.35 -0.95 -0.85 -1.75 -0.95 -5.40 -0.90 -3.95 0.10 -4.25 0 -4.25 -0.90 0 -0.70 0.25 -0.95 0.75 -0.75 0.60 0.25 0.75 -0.25 0.75 -2.80 0 -2.70 -0.30 -3.70 -2.50 -8.15 -1.40 -2.80 -2.60 -5.15 -2.70 -5.20 -0.05 -0.10 -1.90 0.20 -4.05 0.60 -3.95 0.75 -16 1.10 -18.35 0.50 -1 -0.25 -1.65 0.25 -4.05 2.95 -1.60 1.80 -4.80 4.90 -7.10 6.90 -4.25 3.60 -4.90 4.40 -3.50 4.40 0.40 0 0.75 0.30 0.75 0.70 0 0.45 -1 0.75 -3.35 1 -4.75 0.45 -11.80 2.90 -19.05 6.60 -6.15 3.15 -8.75 3.85 -9.95 2.65 -0.40 -0.40 -1.80 -0.05 -5.05 1.25 -4.35 1.75 -7.10 2.25 -7.10 1.35 0 -0.25 0.30 -0.60 0.65 -0.70 0.30 -0.15 -0.40 -0.30 -1.65 -0.30 -5.65 -0.10 -14.40 -2.10 -21.75 -5 -2.20 -0.85 -4.15 -1.55 -4.30 -1.55 -0.15 0 -0.70 1.50 -1.20 3.40 -0.50 1.85 -3.10 9.65 -5.75 17.35 -2.70 7.70 -5.50 16.65 -6.30 19.85 l-1.40 5.90 0.60 9.35 c0.35 5.20 0.60 11.65 0.60 14.40 0 11.25 -3.55 22.95 -9.55 31.85 -2.05 3 -2.45 4.20 -1.20 3.70 0.50 -0.15 0.75 0.05 0.75 0.70 0 1 0 1 -7.50 2.25 -10.55 1.80 -15.75 3.20 -27.75 7.60 -6.65 2.45 -8.05 2.80 -12.30 3.05 -3.90 0.20 -5.05 0.05 -6.05 -0.60 -1.15 -0.75 -1.25 -0.75 -2.65 0.70 -1.75 1.80 -2.50 1.85 -10.05 0.25z m81.95 -239.10 c0.40 -0.50 0.90 -1.45 1.10 -2.15 0.15 -0.70 3.10 -5.15 6.55 -9.90 5.65 -7.80 6.40 -8.60 7.70 -8.60 0.85 0 1.90 -0.40 2.40 -0.90 1.35 -1.35 7.60 -24.65 7.60 -28.40 0 -1.30 0.50 -1.45 7.25 -2.20 16.85 -1.85 39.60 -8 58.35 -15.80 4.85 -2.05 9.50 -3.70 10.30 -3.70 1.25 0 2.65 1.35 10.30 9.95 4.90 5.45 10.05 11.55 11.50 13.60 l2.60 3.70 2.50 -0.15 c2.20 -0.15 2.90 0.10 6.65 2.35 2.30 1.40 4.55 2.55 4.90 2.55 1.25 0 2.70 -1.05 3.15 -2.30 0.65 -1.65 -2.70 -9.15 -9.45 -21.05 -4.15 -7.35 -5.05 -9.35 -5.05 -11.05 0 -1.10 0.20 -2.15 0.45 -2.30 0.20 -0.15 0.30 -1.90 0.15 -3.90 l-0.20 -3.65 3.25 -1.85 c1.75 -1 4.90 -3.20 6.90 -4.80 5.55 -4.40 14.55 -13.20 15.80 -15.45 l1.15 -2 -1 -1.30 c-0.55 -0.70 -1.85 -1.55 -2.85 -1.90 -1 -0.30 -2.30 -1.15 -2.90 -1.85 -1.55 -1.80 -3 -0.85 -4 2.55 -0.90 3.10 -4.75 7.85 -6.35 7.85 -0.60 0 -1.90 0.90 -2.95 2.05 -1.05 1.10 -3.30 3.05 -5 4.25 -2.55 1.80 -3.55 2.20 -5.30 2.20 -2 0 -2.45 0.25 -5.50 3.25 -3.05 3.05 -5.25 4.25 -7.75 4.25 -0.90 0 -2.90 2.25 -2.90 3.30 0 1.40 -12.20 6.20 -15.65 6.20 -1.50 0 -3.55 0.60 -6.40 1.95 -5.10 2.40 -10.35 4.10 -17.70 5.80 -3 0.70 -6.15 1.45 -7 1.70 -2.95 0.95 -13.60 3 -18.25 3.50 -4.40 0.50 -4.85 0.70 -6.10 2.10 -1.50 1.75 -5.55 2.90 -10.35 2.95 -2.20 0 -2.90 -0.20 -3.80 -1.20 -1.10 -1.20 -1.20 -1.20 -3.55 -0.50 -3.70 1.15 -10.90 2.60 -16.10 3.25 -5.15 0.65 -8.30 0.25 -12.05 -1.60 -1.10 -0.50 -2.25 -0.95 -2.55 -0.95 -0.25 0 -0.50 -0.30 -0.50 -0.65 0 -1.35 -1.75 -2.25 -4.50 -2.35 -3.85 -0.15 -3.95 -0.15 -4.60 1.25 -0.45 1.05 -0.90 1.25 -2.65 1.25 -2.20 0 -2.90 0.50 -4.50 3.35 -0.90 1.55 -0.90 1.65 0 2.65 1 1.15 6.40 2.85 11 3.55 1.65 0.25 7.35 0.45 12.70 0.50 l9.70 0 -0.30 3.35 c-0.60 6.45 -5 22.20 -7.05 25.25 -1.25 1.80 -1.25 1.80 -0.25 3.05 1.30 1.65 1.20 3.15 -0.50 8.50 -2.10 6.50 -2.40 9.10 -1.30 10.30 1.10 1.25 1.85 1.25 2.90 0.15z m-14.15 -148.05 c4.55 -1.10 10.85 -2.50 14 -3.10 7.70 -1.40 8.45 -1.60 7.40 -1.85 -0.50 -0.15 -0.90 -0.55 -0.90 -1 0 -0.65 0.50 -0.75 2.90 -0.50 10.40 1.10 19.05 1.45 30.30 1.20 17.30 -0.40 22.05 -1.35 22.95 -4.60 l0.40 -1.50 9.45 -1.65 c10.90 -1.90 21.35 -4.45 25.90 -6.35 1.70 -0.70 4.65 -1.60 6.50 -2.05 6 -1.35 11.20 -3.25 19.10 -7 7.20 -3.45 10.50 -4.45 10.50 -3.20 0 0.30 -0.30 0.50 -0.60 0.50 -0.35 0 -0.10 0.30 0.60 0.65 0.70 0.40 3.30 0.85 5.75 1 2.50 0.20 6.20 0.80 8.25 1.40 3.10 0.90 4.80 1.10 9.75 1 3.30 -0.10 6.05 -0.20 6.15 -0.30 0.05 -0.05 0.30 -5 0.55 -10.95 0.30 -9.05 0.25 -11.80 -0.45 -16.30 -0.45 -3 -0.95 -5.60 -1.15 -5.80 -0.20 -0.20 -0.35 -0.10 -0.35 0.20 0 0.35 -0.20 0.60 -0.50 0.60 -0.95 0 -0.50 -2.75 0.75 -5 1.35 -2.35 4.25 -8.25 6.40 -13.05 2.35 -5.20 2.75 -7.90 2.05 -15 -0.20 -2.25 0 -4.55 0.55 -7.25 0.50 -2.15 1.05 -4.95 1.25 -6.20 0.25 -1.25 0.85 -4.25 1.45 -6.75 1.15 -5.25 2.85 -16.35 3.35 -21.80 0.50 -5.65 -2.65 -27.95 -5.10 -36.10 -1.20 -4.05 -2 -7.30 -4.35 -17.35 -1.80 -7.55 -2.80 -9.90 -8.15 -18.80 -2.60 -4.35 -6.45 -11.20 -8.50 -15.20 -3.75 -7.35 -6.20 -11 -7.45 -11 -1.20 0 -2.25 1.55 -2.25 3.30 0 1.65 -0.05 1.70 -1.90 1.70 -1.90 0 -3.30 -1 -9.60 -6.90 -0.95 -0.90 -3.45 -2.95 -5.50 -4.50 -2.05 -1.55 -6.10 -5.20 -9 -8.05 -3.90 -3.90 -6.95 -6.35 -11.75 -9.45 -3.55 -2.30 -10.15 -6.65 -14.60 -9.65 -11.50 -7.70 -18.50 -11.05 -26.50 -12.70 -3.30 -0.70 -4.20 -1.10 -6.85 -3.35 -3.65 -3.05 -7.90 -5.15 -12.60 -6.20 -5.10 -1.10 -22.30 -1.50 -30.70 -0.65 -3.70 0.35 -10.70 0.65 -15.50 0.70 -4.80 0 -12.75 0.20 -17.65 0.45 -8.15 0.40 -8.95 0.55 -9.65 1.50 -0.35 0.55 -0.70 1.35 -0.70 1.80 0 0.55 -1.75 1.15 -6.85 2.40 -7.65 1.80 -10.90 2 -12.20 0.80 -0.75 -0.70 -1.35 -0.50 -7.20 2.50 -3.50 1.80 -7.55 4.15 -8.95 5.25 -2.55 1.90 -22.75 22.50 -30.50 31.05 -4.05 4.50 -10.05 12.15 -11.60 14.85 -0.90 1.60 -0.90 1.65 0.20 2.80 1.80 1.90 1.40 3.70 -2.40 10.65 -3.70 6.80 -6.50 13.05 -6.50 14.50 0 1.55 1.55 2.70 3.60 2.70 1.80 0 1.90 0.05 1.90 1.65 0 2.20 -1.20 6.20 -2.20 7.30 -0.60 0.65 -1.05 3 -1.55 8.10 -0.40 3.95 -1.15 10.60 -1.70 14.75 -1.60 11.70 -2.20 24.85 -1.55 32.05 0.60 6.75 1.40 10.35 3.35 14.85 0.80 2 1.60 5.40 2.20 9.80 2.30 16.85 4 21.50 14.70 40.50 3.75 6.75 7 12.50 7.25 12.75 0.20 0.30 0.95 2.05 1.65 3.90 0.70 1.85 2.50 5 4 7 3.60 4.75 7.85 12.40 7.85 14.05 0 1.35 -0.75 1.75 -1.15 0.70 -0.15 -0.35 -0.30 -0.20 -0.30 0.30 -0.05 0.55 1.20 3.45 2.70 6.50 2.65 5.40 3 5.80 12.15 15.25 l9.40 9.75 5.20 0.35 c2.90 0.20 10 0.30 15.75 0.20 10.45 -0.10 10.55 -0.10 18.75 -2.15z"/>
  <path d="M411 771.85 c0 -0.95 0.55 -3.30 1.20 -5.25 l1.25 -3.55 -1.25 -1.15 c-1.40 -1.35 -1.45 -2.25 -0.45 -7.05 0.45 -2 0.90 -4.10 1.05 -4.70 0.20 -1.10 0.45 -1.15 4.45 -1.15 l4.25 0 0 1.40 c0 1.60 -1.95 10.85 -3.55 16.60 -1.20 4.50 -2.85 6.50 -5.30 6.50 -1.55 0 -1.65 -0.10 -1.65 -1.65z"/>
  <path d="M527.45 744.75 c-3.55 -4.15 -4.25 -4.75 -5.65 -4.75 -1.80 0 -3.35 -1.45 -7.55 -6.85 -1.30 -1.70 -2.90 -3.45 -3.55 -3.90 -0.90 -0.55 -1.20 -1.25 -1.20 -2.50 0 -0.95 0.25 -1.75 0.55 -1.75 0.30 0 2.20 -0.65 4.30 -1.50 2.05 -0.80 4.60 -1.50 5.60 -1.50 1.85 0 2 0.15 3.55 3.15 0.90 1.70 3.85 7.05 6.55 11.90 3.75 6.70 4.95 9.20 4.95 10.60 0 1.80 -0.05 1.85 -1.75 1.85 -1.55 0 -2.10 -0.45 -5.80 -4.75z"/>
  <path d="M309.65 578.65 c-1.50 -3.30 -2.10 -7.80 -1.20 -8.85 0.50 -0.60 0.10 -1.25 -2 -3.60 -6.55 -7.20 -10.10 -21.05 -11.45 -44.25 -0.95 -16 0.40 -36.45 2.70 -40.90 0.45 -0.80 0.80 -2.30 0.80 -3.25 0 -1 0.45 -2.95 1 -4.40 1 -2.60 1 -2.60 0 -3.65 -0.80 -0.85 -1 -1.75 -1 -4.90 0 -10.75 5.20 -38.40 8.35 -44.50 0.95 -1.90 5.55 -8.05 10.10 -13.55 2.25 -2.75 3.90 -4.25 5.40 -4.90 2.45 -1.10 3.65 -2.55 3.65 -4.50 0 -1.10 0.70 -1.95 3.35 -4.15 1.90 -1.55 3.95 -2.90 4.65 -3.05 1.65 -0.35 4.50 -1.75 4.50 -2.25 0 -0.55 3.35 -1.45 5.40 -1.45 1.10 0 1.60 0.25 1.60 0.75 0 0.40 -0.30 0.75 -0.70 0.75 -0.45 0 -1.90 2.35 -3.50 5.65 -1.50 3.05 -4.65 9.20 -6.95 13.60 -3.75 7.05 -4.55 9.10 -6.85 17.15 -1.40 5.05 -2.90 11.55 -3.30 14.50 -0.35 2.95 -1.15 9.05 -1.70 13.60 -0.60 4.55 -1.70 12.10 -2.50 16.75 -0.80 4.70 -1.90 12.35 -2.50 17 -0.55 4.70 -1.35 10.65 -1.75 13.25 -2.50 16.10 -2.75 20.35 -2.75 49.25 0 15.20 0.15 28.35 0.30 29.20 0.20 0.85 0.65 1.55 1 1.55 0.40 0 0.70 0.45 0.70 1 0 0.85 -0.35 1 -2.05 1 -1.95 0 -2.05 -0.05 -3.30 -2.85z"/>
  <path d="M562.30 567.95 c-0.15 -0.85 -0.30 -2.35 -0.30 -3.30 0 -1.50 0.15 -1.70 1.15 -1.55 1 0.15 1.10 0.45 1.25 3.30 0.15 2.80 0.05 3.10 -0.80 3.10 -0.70 0 -1.05 -0.45 -1.30 -1.55z"/>
  <path d="M561.75 561.40 c-0.15 -0.65 -0.50 -6.55 -0.75 -13.15 -0.25 -8.95 -0.65 -13.25 -1.40 -17 -0.60 -2.75 -1.50 -9.95 -2.05 -16 -0.60 -6.40 -1.40 -12.35 -1.95 -14.25 -2.30 -7.90 -2.85 -12.70 -2.85 -25.50 0 -16.95 0.15 -19 1.35 -19 0.70 0 1.35 0.95 2.45 3.40 6.05 13.50 7.40 15.60 10.10 15.60 0.85 0 2.35 11.55 2.35 18 0 2.35 0.35 10.35 0.75 17.75 1.10 18.85 0.65 23.80 -4.20 43.50 -1.35 5.45 -2.05 7.55 -2.65 7.65 -0.45 0.10 -0.90 -0.30 -1.15 -1z"/>
  <path d="M290 451.55 c0 -1.05 0.50 -3.05 1.05 -4.50 1 -2.40 1.20 -2.55 2.85 -2.55 l1.75 0 -0.40 3.60 c-0.45 4.80 -0.80 5.40 -3.25 5.40 -2 0 -2 0 -2 -1.95z"/>
  <path d="M485 393.15 c-8.80 -4 -19.35 -7.65 -22.35 -7.65 -0.65 0 -0.65 0.15 -0.15 0.75 0.55 0.65 0.40 0.75 -0.80 0.75 -2.15 -0.05 -7.70 -6.40 -7.70 -8.80 l0 -1.70 3.25 0 c2.65 0 3.65 0.25 5.25 1.25 1.10 0.70 5.70 3.05 10.20 5.25 10.40 5.10 15.80 8.60 15.80 10.30 0 1.45 -0.05 1.45 -3.50 -0.15z"/>
  <path d="M348 384.60 c0 -0.50 -0.35 -1.35 -0.75 -1.90 -0.40 -0.50 -0.75 -1.65 -0.75 -2.50 0 -1.40 0.25 -1.70 2.05 -2.40 3.15 -1.25 11.35 -3.30 13.30 -3.30 2.60 0 1.90 0.85 -2.85 3.35 -6.65 3.55 -9 5.15 -9.30 6.45 -0.35 1.40 -1.70 1.65 -1.70 0.30z"/>
  <path d="M448.30 383.05 c-0.55 -0.60 -1.25 -1 -1.60 -0.85 -0.65 0.25 -8.55 -1.65 -12.15 -2.90 -1.20 -0.45 -3.20 -0.80 -4.50 -0.80 -4.60 0 -16.30 -1.50 -21.40 -2.75 -5 -1.20 -5.90 -1.25 -20.40 -1.25 -16.25 0 -18.25 -0.15 -18.25 -1.45 0 -1.10 15.90 -4.90 22.25 -5.30 6.70 -0.45 17.70 0.50 31.60 2.75 18.45 3 17.65 2.80 17.65 4.55 0 2.10 1.95 3.95 4.15 3.95 2.40 0 3.95 1.50 3.75 3.50 l-0.15 1.60 -0.95 -1.05z"/>
  <path d="M580 990.60 c0 -0.25 -1.60 -1.50 -3.50 -2.80 -3.15 -2.15 -9.50 -8 -11.50 -10.55 -0.70 -0.90 -0.75 -0.90 -0.90 -0.10 -0.25 1.25 -1.10 0.50 -1.10 -0.95 0 -1 0.25 -1.20 1.55 -1.20 0.85 0 1.80 0.30 2.15 0.65 0.40 0.30 3.40 2.70 6.75 5.25 3.30 2.60 6.40 5.15 6.80 5.75 0.85 1.20 1 4.35 0.25 4.35 -0.25 0 -0.50 -0.20 -0.50 -0.40z"/>
  <path d="M546.75 968.50 c-0.25 -0.25 -3 -2.85 -6.05 -5.85 -7.20 -7.05 -11.20 -13.20 -14.40 -22.05 -1.75 -4.90 -2.80 -9.55 -2.20 -9.90 0.25 -0.15 0.35 -0.60 0.20 -1 -0.60 -1.50 1.60 -0.70 2.20 0.85 0.35 0.85 2.10 3.10 3.80 5 4 4.30 11 13.10 11.90 14.85 0.35 0.75 1.80 4.45 3.25 8.20 2.85 7.65 3.40 11.75 1.30 9.90z"/>
  <path d="M680.35 890.90 c-0.20 -2.30 -0.35 -11.65 -0.35 -20.75 0 -14.05 0.10 -16.65 0.70 -16.65 0.90 0 1.40 2.25 1.05 4.65 -0.20 1.10 -0.10 2.20 0.25 2.60 0.30 0.35 0.55 2.75 0.55 5.55 0 2.75 0.05 8.80 0.05 13.45 0.05 15.40 0.10 15.25 -1 15.25 -0.85 0 -1 -0.50 -1.25 -4.10z"/>
  <path d="M203.55 763.65 c-1.10 -4.10 -1.25 -6.20 -0.50 -6.70 2.55 -1.60 5.10 1.65 4.85 6.15 -0.15 2.65 -0.15 2.65 -1.95 2.80 -1.75 0.15 -1.80 0.10 -2.40 -2.25z"/>
  <path d="M207.30 750.40 c-0.45 -0.60 -0.80 -1.85 -0.80 -2.75 0 -1.65 0.65 -2.20 1.20 -1 0.15 0.30 0.20 0 0.10 -0.75 -0.15 -1.15 0.05 -1.40 0.95 -1.40 1.30 0 2.75 2.75 2.75 5.25 0 1.65 -0.10 1.75 -1.70 1.75 -1.25 0 -1.95 -0.35 -2.50 -1.10z"/>
  <path d="M141.50 406.75 c0 -1 1.30 -5.05 2.85 -9 l2.85 -7.25 1.65 0 c1.55 0 1.65 0.10 1.65 1.85 0 1.10 -1.15 4.80 -2.85 9 l-2.85 7.15 -1.65 0 c-1.55 0 -1.65 -0.10 -1.65 -1.75z"/>
  <path d="M203 314.40 c0.05 -1.45 0.60 -2.15 4.05 -5.15 6 -5.20 9.70 -7.85 18.10 -13.05 7.05 -4.35 10.35 -5.70 10.35 -4.20 0 0.30 -0.25 0.50 -0.60 0.50 -0.30 0 -0.45 0.15 -0.25 0.30 0.15 0.15 1.05 0.05 1.95 -0.25 0.90 -0.30 2.45 -0.60 3.40 -0.75 0.95 -0.10 2.15 -0.35 2.65 -0.55 0.65 -0.30 0.85 -0.10 0.85 0.80 0 0.85 -0.60 1.60 -1.90 2.40 -1 0.65 -5.10 3.60 -9.10 6.55 -4 2.95 -8.05 5.65 -9 6 -2.90 1.10 -10.05 4.75 -13.65 6.95 -2.25 1.35 -3.95 2.05 -5.10 2.05 -1.65 0 -1.75 -0.10 -1.75 -1.60z"/>
 </g>
 <g fill="#000000">
  <path d="M322.55 1050.75 c-3.85 -0.85 -8.85 -2.50 -12.50 -4.05 -1.45 -0.65 -3.35 -1.20 -4.15 -1.20 -2.20 0 -8.70 -3.20 -12.75 -6.35 -4.45 -3.35 -7.80 -7.70 -11.40 -14.75 -1.55 -2.95 -4 -7.10 -5.50 -9.20 -5 -6.95 -8.05 -19.25 -10.55 -42.95 -0.90 -8.85 -0.75 -27.50 0.35 -37 0.65 -5.70 0.30 -17.65 -0.80 -25.75 -0.35 -2.90 -1.50 -9.30 -2.45 -14.25 -1 -4.95 -2.25 -12.50 -2.80 -16.75 -2.10 -15.60 -3.85 -22.15 -9.15 -34.10 -1.75 -3.95 -3.85 -8.80 -4.65 -10.75 -0.80 -2 -1.55 -3.65 -1.70 -3.65 -0.15 0 -0.55 2.65 -0.90 5.85 -0.70 6.35 -3.95 30.70 -4.35 32.55 -0.40 1.70 -2.05 3.10 -3.75 3.10 -1.70 0 -1.35 -1.60 -3.50 15.15 -0.85 6.60 -1.75 12.35 -2 12.85 -0.50 0.90 -3.35 2.30 -3.80 1.85 -0.15 -0.15 -1.20 0.05 -2.35 0.45 -2.50 0.90 -4.65 0.50 -5.65 -1.05 -0.40 -0.60 -0.95 -2.90 -1.20 -5.05 -0.50 -4.55 -3.50 -16.60 -6.45 -25.95 -1.15 -3.55 -2.05 -6.75 -2.05 -7.05 0 -0.30 -0.65 -1.25 -1.45 -2.05 -3 -3.15 -4.85 -10.15 -5.55 -20.90 -1.05 -15.75 -1.10 -19.15 -0.50 -29.25 1.30 -22.70 1.30 -21.20 -0.70 -31.90 -3.15 -16.50 -3.10 -16.30 -16.30 -43.30 -2.95 -6.10 -7.20 -15.55 -9.50 -21.05 -9.80 -23.85 -12.25 -29.35 -16.25 -36.70 -7.50 -13.90 -15.05 -30.20 -18.55 -40.20 -1.90 -5.55 -12.85 -43.45 -15.20 -52.95 -3.20 -12.50 -6.65 -34 -7.50 -46.60 -0.50 -7.30 -0.60 -7.65 -3 -13.70 -2.50 -6.25 -2.75 -7.30 -2.20 -8.85 0.40 -1 2.80 -2.25 4.35 -2.25 1.10 0 1.25 -0.25 1.55 -2.75 0.25 -2.35 -0.55 -9.45 -1.45 -12.30 -0.35 -1.05 -3.45 -2.70 -6.40 -3.40 -6.20 -1.50 -15.80 -7.45 -29.30 -18.15 -3 -2.45 -5.70 -4.40 -6 -4.40 -0.30 0 -1.70 -1.05 -3.10 -2.30 -1.45 -1.30 -3.75 -3.05 -5.15 -3.95 -1.40 -0.90 -3.70 -2.55 -5.15 -3.65 -2.15 -1.75 -2.85 -2 -4.25 -1.80 -4.35 0.70 -10.65 -6.50 -23.95 -27.35 -7.20 -11.20 -9.70 -15.75 -14.20 -25.95 -2.15 -4.80 -4.55 -10.20 -5.35 -12 -7.50 -16.30 -10.60 -24.60 -12.35 -33.35 -0.90 -4.30 -1.05 -6.95 -1.05 -17.65 l0 -12.60 1.50 -1.50 c1.35 -1.35 1.75 -1.50 3.50 -1.20 1.90 0.30 2 0.25 2 -1.05 0.05 -5 4.35 -23.05 6.40 -26.90 0.45 -0.80 1.10 -3 1.40 -4.85 0.70 -4.10 3.30 -9.45 6.80 -14.15 3 -4 16.20 -17.60 27 -27.80 7.75 -7.35 8.80 -7.90 11.20 -6.20 0.95 0.65 1.20 0.55 2.75 -1.05 2.85 -2.95 7.70 -6.30 18.40 -12.70 5.60 -3.35 11.90 -7.20 13.90 -8.60 2.05 -1.35 4.55 -2.80 5.50 -3.25 2.40 -0.95 4.80 -0.50 6.15 1.25 0.75 0.95 1.55 1.35 2.80 1.40 2.50 0.05 3.95 1.65 3.90 4.25 -0.05 1.60 0.25 2.30 1.35 3.45 1.75 1.75 1.80 2.35 0.20 5.75 -1 2.10 -2.15 3.35 -5.25 5.85 -3.90 3.05 -4 3.15 -4 5.30 0 1.75 -0.25 2.40 -1.35 3.25 -4.95 4.05 -5.95 5.45 -8.60 12.25 -2.70 6.90 -2.75 7 -2.25 10.40 0.25 1.80 0.10 2.30 -1.30 3.85 -1.95 2.25 -2.45 5 -1.40 7.70 1 2.55 0.50 4.15 -1.70 5.55 l-1.80 1.20 -0.35 13.70 c-0.55 19.40 -0.15 30.40 1.25 39.05 1.05 6.15 1.10 7.40 0.55 8.90 -0.60 1.70 -0.50 2.05 1.20 5.65 2.65 5.60 10.35 19.70 11.25 20.60 0.40 0.40 1.90 2.45 3.25 4.50 5.55 8.35 15.25 19.40 19.50 22.20 2.70 1.85 3.75 1.95 3.75 0.50 0 -0.40 1.15 -3.85 2.50 -7.60 2.10 -5.75 2.70 -8.20 3.75 -15.35 1.20 -8.50 3.55 -18.10 5.90 -24.25 2.60 -6.85 5.45 -12.80 6.50 -13.60 1.60 -1.25 3.70 -1.10 5.15 0.40 1.75 1.75 1.50 3.40 -1.95 11.45 -2.65 6.15 -4.85 12.80 -5.65 16.95 l-0.30 1.85 2.30 -1.60 c1.50 -1.10 3 -2.85 4.40 -5.15 3.20 -5.50 8.60 -13.45 13.60 -20.10 2.50 -3.30 5.20 -7.10 5.95 -8.40 0.80 -1.45 1.95 -2.60 2.75 -2.90 0.90 -0.35 2.70 -2.40 5.05 -5.70 11.35 -16 22.90 -28.55 33.50 -36.45 13.05 -9.70 52.90 -32 67.80 -37.90 12.60 -5 25.45 -7.50 47.25 -9.10 5.65 -0.45 14.65 -1.20 20 -1.75 5.35 -0.50 11.65 -1.10 14 -1.25 2.35 -0.15 9.30 -1.30 15.50 -2.50 20.85 -4.15 53.35 -9.70 59.80 -10.25 3.55 -0.35 7.25 -0.95 8.25 -1.35 1.65 -0.65 2 -0.65 3.50 0 1.30 0.60 4.55 0.80 13.95 1.05 20.65 0.45 36.65 3.15 58.40 9.80 l8.60 2.65 1.15 -1.05 c3.15 -2.95 5.60 -2.40 15.25 3.55 8.55 5.25 8 5 13.10 6.30 11 2.80 14.25 4.55 13.90 7.45 -0.15 1.05 0.65 1.55 9.35 5.55 5.25 2.40 11.05 5.20 12.95 6.30 6.95 3.90 15.15 10.75 18.70 15.65 l1.50 2.15 6.25 -9.15 c11.25 -16.55 14.30 -21.80 15.30 -26.30 0.70 -3.45 0.70 -16.60 -0.05 -20.40 -0.30 -1.60 -1 -3.50 -1.50 -4.15 -1.15 -1.55 -1.20 -4.65 0 -5.65 0.45 -0.40 1.55 -1.10 2.35 -1.45 l1.50 -0.70 0.15 -5 c0.10 -4.10 -0.10 -5.80 -1.10 -9.50 -0.70 -2.45 -1.85 -8.80 -2.55 -14 -0.90 -6.75 -1.70 -10.70 -2.75 -13.60 -0.80 -2.25 -2.05 -6.40 -2.80 -9.20 -1.65 -6.20 -3.20 -8.25 -11.65 -15.60 -3.05 -2.70 -5.90 -5.55 -6.30 -6.35 -0.95 -1.85 -0.55 -3.70 1.10 -5 l1.25 -0.95 -5.35 -6.40 c-2.95 -3.50 -5.70 -7.15 -6.10 -8.05 -0.35 -0.90 -1.40 -2.05 -2.25 -2.50 -4.05 -2.15 -5.05 -5 -2.60 -7.40 0.95 -1 1.65 -1.25 2.95 -1.10 1.65 0.20 1.65 0.20 1 -1.10 -1.40 -2.70 -6.65 -9.35 -9.35 -11.80 -1.50 -1.35 -4.45 -3.35 -6.45 -4.40 -5.15 -2.70 -6.80 -4 -7.20 -5.85 -0.25 -1.20 -0.10 -1.90 0.70 -3 0.60 -0.75 1.05 -1.75 1.05 -2.20 0 -1.05 0.95 -2.85 1.95 -3.60 1.40 -1.05 4.75 -0.75 6.75 0.60 1.95 1.35 21.65 10.55 23.55 11.05 0.60 0.15 1.30 0.05 1.45 -0.25 0.20 -0.30 1.15 -0.55 2.10 -0.55 1.45 0 2.30 0.55 5.10 3.15 2.10 2 6.10 4.80 10.70 7.50 8.65 5.10 11.40 7.45 11.40 9.75 0 1.70 1.45 2.90 2.80 2.40 1.35 -0.50 4.40 1.20 7.45 4.15 1.65 1.60 5.70 5.25 9 8.10 7.35 6.35 11.25 10.25 14.40 14.25 2 2.55 2.75 3.15 4.30 3.40 1.05 0.15 2.25 0.70 2.70 1.20 0.95 1.05 4.50 10.10 7.10 18.10 2.50 7.80 6.25 22.35 6.25 24.40 0 1.75 -1.40 3.55 -2.85 3.65 -3.90 0.25 -4.55 -0.75 -7.10 -10.85 -3.30 -12.95 -7.15 -24.70 -8.15 -24.70 -0.30 0 -1 -0.40 -1.55 -0.90 -1 -0.80 -1 -0.80 -0.65 0.10 0.15 0.50 1.20 4.45 2.30 8.75 2.85 11.35 4.90 18.05 9.15 29.95 4.20 11.70 5.60 17.30 4.90 19.25 -0.60 1.50 -2.40 2.85 -3.85 2.85 -2.20 0 -3.55 -1.75 -4.45 -5.85 -0.50 -2.15 -1.75 -6.35 -2.85 -9.40 -4.60 -12.70 -7.50 -21.85 -10.35 -32.55 -0.45 -1.70 -0.80 -2.15 -2.05 -2.35 -1.60 -0.35 -2.65 -1.90 -3.25 -4.85 -1.10 -5.20 -10.45 -21.40 -17.15 -29.75 -4 -4.95 -6.50 -7.15 -8.95 -7.70 -3.40 -0.85 -18.15 -3.40 -18.15 -3.20 0 0.10 0.30 0.70 0.70 1.30 0.40 0.60 1.40 3.55 2.30 6.55 0.85 3.05 2.15 6.20 2.80 7.05 0.65 0.85 1.65 2.65 2.25 4.05 0.60 1.35 1.55 3.05 2.10 3.80 0.70 0.95 0.90 1.80 0.70 3 -0.30 2.15 2.60 9.90 4.60 12.20 0.80 0.90 1.60 2.15 1.80 2.75 0.20 0.60 1.05 1.65 1.85 2.35 2.30 1.95 3.40 4.75 4.90 12.55 3.45 17.90 3.60 19.65 3.30 35.90 -0.50 30.25 -0.50 29.90 -3.80 39.40 -0.80 2.40 -1.85 6.45 -2.30 8.95 -1.50 8.65 -4.10 14.15 -8 16.75 -1.90 1.30 -4.70 5 -4.70 6.20 0 0.40 -3.05 4.15 -6.75 8.30 -5.55 6.25 -6.75 7.85 -6.45 8.70 0.75 2.65 10.70 21.40 18.85 35.65 8.80 15.30 8.95 15.50 10.35 15.30 2.15 -0.30 3.90 0.25 4.50 1.45 0.30 0.55 1.70 4.85 3.05 9.55 2.20 7.65 2.95 9.45 6.65 16.10 8.55 15.40 13.50 26.50 18 40.20 3 9.15 3.05 9.95 1 11.85 l-1.20 1.10 5.15 12.75 5.20 12.75 1.10 -0.95 c2.10 -1.65 4.65 -1.10 5.85 1.25 0.60 1.10 0.70 2.25 0.45 4.55 -0.40 3.75 0.50 16.35 1.50 20.80 0.65 2.85 1.70 8.25 4.50 22.25 0.35 1.95 1.60 7.90 2.65 13.25 1.10 5.35 2.95 14.95 4.05 21.25 1.15 6.35 2.85 15.55 3.85 20.50 1.80 9 1.80 9 2.05 26 0.20 14.60 0.15 17.45 -0.55 20.05 -1 3.85 -1 4.70 -0.05 4.70 0.45 0 1.40 0.60 2.10 1.30 1.20 1.20 1.25 1.45 0.90 4.85 -0.15 2 -0.90 7 -1.60 11.10 -0.65 4.15 -1.30 8.60 -1.45 9.95 -0.10 1.35 -1 5.40 -2 9 -1.50 5.45 -1.85 7.60 -2 12.80 -0.15 3.45 -0.30 7.55 -0.35 9.15 -0.15 2.85 -0.15 2.85 1.25 2.85 2.15 0 3.70 1.85 4.40 5.30 1.45 7.30 2.80 11.50 6.10 18.95 4.45 10.15 5.90 13.80 7.85 19.90 1.80 5.70 1.85 6.30 0.60 7.90 -0.95 1.20 -0.95 1.30 0.25 7.45 2.75 14.10 3.85 25.75 2.70 28.45 -0.45 1.20 -0.50 2.80 0 7.55 0.30 3.35 0.75 13.20 1 21.90 0.30 10.25 0.75 17.10 1.20 19.35 0.40 1.95 1.75 8.25 3 14.10 1.50 6.80 2.30 11.80 2.30 14 0 3.15 -0.15 3.60 -1.35 4.75 -0.80 0.70 -1.95 1.45 -2.65 1.65 -0.65 0.20 -1.85 1.05 -2.55 1.80 -1.70 1.85 -3.85 1.90 -5.85 0.20 -0.95 -0.75 -1.65 -1.05 -1.85 -0.75 -0.50 0.85 -3.05 0.55 -4.35 -0.50 -1.60 -1.20 -2 -3.55 -2.15 -11.75 -0.10 -6.85 -0.60 -9.05 -3.55 -16 -4.90 -11.60 -8.15 -16.80 -16.80 -27.25 -6.25 -7.55 -6.95 -9.10 -9.05 -21 l-0.65 -3.75 -1.35 4.20 c-0.75 2.30 -1.95 7.35 -2.65 11.25 -0.70 3.85 -1.80 9.85 -2.50 13.30 l-1.25 6.30 0.20 42.45 c0.20 46.80 0.05 44.30 3.50 58.30 1.90 7.45 1.80 8.95 -0.60 10.20 l-1.35 0.70 0.60 4.90 c0.35 2.70 0.90 6.25 1.20 7.90 1.70 9.25 2 12.55 2.30 23.25 0.35 12.90 -0.20 21.50 -1.85 27.95 -0.90 3.60 -2.45 7.10 -6 13.80 -0.90 1.65 -1.90 3.55 -2.25 4.25 -5.25 10.30 -6.65 11.35 -19.20 14.55 -4.70 1.20 -5.95 1.40 -7.05 0.90 -1.10 -0.40 -2.20 -0.30 -5.55 0.50 -4.80 1.20 -10.20 2.05 -13.30 2.05 -1.65 0 -2.40 0.25 -3.10 1.15 -0.80 1 -1.45 1.10 -6.85 1.35 -3.25 0.15 -10.85 0.10 -16.90 -0.05 l-11 -0.30 -4 -1.80 c-2.20 -1 -4.30 -1.85 -4.65 -1.85 -1.10 0 -6.55 -2.90 -8.65 -4.55 -1.05 -0.85 -2.20 -1.35 -2.50 -1.20 -0.30 0.20 -1.55 0.20 -2.75 0 -3.55 -0.50 -5.55 -2.95 -9.95 -11.90 -2 -4.15 -4.15 -9 -4.75 -10.75 -1.05 -3.25 -2.45 -11.85 -2.50 -15.30 0 -1.60 -0.15 -1.85 -0.85 -1.55 -2 0.85 -3.95 0.85 -5 -0.10 -0.55 -0.50 -1.50 -2.50 -2.10 -4.50 -0.60 -2 -2.20 -6.55 -3.60 -10.10 -2.25 -5.80 -2.90 -6.95 -7.05 -12.10 -2.50 -3.15 -5.70 -6.95 -7.15 -8.45 -2.65 -2.85 -3.85 -4.75 -4.40 -7.05 -0.25 -0.90 -1.35 -1.85 -4.10 -3.40 l-3.75 -2.15 -4.90 0.30 c-23.35 1.60 -36.40 4.20 -48.70 9.85 -4.85 2.25 -6.30 2.25 -8 -0.05 l-1 -1.40 -3.05 1.25 c-1.70 0.70 -4.60 2 -6.45 2.95 -1.85 0.95 -4 1.70 -4.75 1.70 -1.95 0 -6.40 3.10 -7.90 5.50 -1.65 2.60 -1.60 3 0.20 1.30 1.85 -1.75 4.10 -1.90 5.80 -0.30 2 1.85 1.70 3.90 -1.05 7.10 -5.25 6.15 -5.55 7.55 -6.20 30.40 -0.50 17.35 -0.95 22.45 -2.55 28.70 -1.30 5.20 -2.45 7.30 -5.30 9.75 -2.55 2.20 -13.05 7.75 -20.35 10.75 -2.45 1.05 -5.15 2.40 -6 3.05 -0.85 0.65 -3.30 1.75 -5.40 2.45 -5.20 1.75 -23.20 6.10 -27.90 6.75 -10.60 1.45 -11.85 1.70 -14.60 3.10 -5.35 2.70 -10.85 3.95 -17.10 3.90 -3.05 0 -7 -0.35 -8.75 -0.70z m8.25 -15.25 c0.80 0 2 0.35 2.65 0.80 2 1.45 6.75 0.65 15.30 -2.45 10.30 -3.80 14.90 -5.10 22.65 -6.60 20.20 -3.85 19.80 -3.75 21.10 -5 0.80 -0.75 2.35 -1.45 3.90 -1.75 4.50 -0.85 7.50 -2.40 8.05 -4.20 1.55 -4.85 4.60 -18.10 4.40 -19 -0.15 -0.60 -0.75 -2.75 -1.30 -4.80 -0.80 -2.80 -1.20 -6.40 -1.60 -14.25 -0.60 -12.35 -0.45 -14.30 1.45 -15.80 1.30 -1 1.40 -1.35 1.90 -7.65 0.70 -8.30 1.55 -10.30 6.15 -14.80 1.90 -1.80 3.90 -4.20 4.45 -5.30 0.55 -1.10 1.70 -2.75 2.60 -3.70 1.45 -1.55 1.65 -1.60 4.05 -1.35 2.30 0.30 2.85 0.10 7.65 -2.45 2.85 -1.50 7.05 -3.40 9.30 -4.25 3.80 -1.35 4.20 -1.40 5.55 -0.75 1.40 0.70 1.70 0.60 7.60 -2.40 9.20 -4.70 14.30 -6.25 22.40 -6.80 11.15 -0.75 31.45 -0.65 33.90 0.25 1.60 0.55 2.35 0.60 3.35 0.15 0.95 -0.45 1.80 -0.45 3.60 0 1.30 0.35 4.20 0.55 6.45 0.45 3.55 -0.10 4.20 0.05 5.25 0.95 0.85 0.80 2.05 1.15 5 1.40 4.40 0.35 5.65 0.90 6.35 2.95 0.60 1.60 0.30 2.65 -1.10 4.25 -0.85 0.90 -1.55 1.10 -4.20 1.10 -3 0 -3.15 0.05 -2.65 0.95 0.40 0.75 1 1 2.50 0.90 2.30 -0.05 4.25 1.40 4.65 3.60 0.25 1.10 0.65 1.50 1.90 1.75 2.25 0.45 4.45 3 8.60 10 3.60 6.10 6.70 12.70 7.90 16.80 0.35 1.25 1.05 2.85 1.55 3.60 0.50 0.70 0.90 1.50 0.90 1.80 0 0.60 7.85 7.35 14.60 12.55 6.20 4.75 8.35 7.10 10 10.85 0.80 1.85 1.45 2.70 2.05 2.70 0.50 0 1.60 0.70 2.45 1.50 1.25 1.30 1.45 1.80 1.20 3.15 -0.15 0.90 -0.90 2.10 -1.60 2.75 -1.35 1.20 -1.40 1.15 2.30 2.05 1.25 0.30 5.05 1.20 8.50 2 9.20 2.20 14 2.70 26.50 2.75 10.10 0 11.70 -0.10 15.75 -1.10 2.50 -0.65 5.35 -1.70 6.35 -2.35 2.55 -1.70 5 -1.65 6.35 0.05 0.60 0.75 1.05 1.65 1.05 2 0 0.95 0.05 0.95 3.95 -1.05 2.95 -1.45 3.70 -2.10 5 -4.40 1.05 -1.85 1.80 -4.15 2.30 -7.15 1.80 -10.35 3.75 -16.75 5.65 -18.65 0.80 -0.80 0.75 -2.50 -0.40 -19.55 -0.25 -3.70 -0.45 -11.70 -0.50 -17.75 0 -6.05 -0.25 -12.45 -0.45 -14.25 -1.45 -10.75 -1.60 -12.15 -1.10 -13.70 0.75 -2.30 -0.05 -10 -1.90 -17.80 -1.90 -8 -3.80 -19.60 -4.50 -27.25 -1.80 -19.65 -2 -55.05 -0.40 -60.75 0.75 -2.70 0.75 -2.75 -0.45 -4.05 -1.50 -1.55 -1.55 -3.25 -0.20 -8.05 0.55 -2 1.20 -5.35 1.50 -7.40 0.35 -2.75 1.05 -4.85 2.55 -7.75 1.85 -3.60 2.25 -5.10 3.95 -14.75 1.05 -5.90 2.20 -12.65 2.55 -14.95 0.60 -4.45 1.40 -5.75 3.70 -6.35 0.85 -0.20 1.90 0.10 3.45 1 1.25 0.70 2.80 1.30 3.55 1.30 1.50 0 2.85 1.30 6.50 6.25 1.40 1.90 3.10 4 3.85 4.65 0.75 0.65 1.50 1.80 1.65 2.55 0.15 0.70 1.75 3.75 3.50 6.80 7.15 12.05 12 23.45 16.70 38.80 2.55 8.45 2.65 9.80 1.10 11.60 -0.75 0.85 -0.60 1.25 1.55 5.25 1.25 2.40 2.70 5.65 3.20 7.20 0.50 1.60 0.95 2.80 1.05 2.75 0.35 -0.40 -2.25 -13.90 -5.85 -30.05 -3.15 -14.30 -5.25 -24.70 -6.75 -34.05 -1.70 -10.30 -3.75 -28.25 -3.75 -32.65 0 -3.25 0.15 -3.80 1.30 -4.95 1.05 -1.05 1.60 -1.25 3.25 -1 1.05 0.15 1.95 0.20 1.95 0.10 0 -1.05 -1.80 -6.80 -2.40 -7.75 -0.45 -0.70 -0.95 -2.50 -1.15 -4 -1.15 -8.20 -3.50 -14.30 -8.85 -22.85 l-2.60 -4.15 0 -5 c0 -3.80 -0.20 -5.35 -0.80 -6.25 -0.65 -1 -0.75 -1.95 -0.45 -4.85 0.20 -2 0.55 -4.10 0.75 -4.70 0.25 -0.55 0.55 -2.30 0.75 -3.90 l0.35 -2.85 -1.75 0.30 c-1.60 0.30 -2 0.15 -3.40 -1.20 -1.40 -1.45 -1.55 -1.80 -1.25 -3.70 1.55 -10.30 1.90 -14.15 2.15 -24.60 l0.30 -12 -1.35 -1.95 c-1.30 -1.90 -1.30 -2.10 -1.30 -10.30 0 -10.95 -1 -27.80 -3.05 -52.55 -0.60 -7 -0.60 -7.35 0.35 -8.55 0.95 -1.25 0.95 -1.55 0.35 -10.45 -0.90 -12.70 -2 -23.25 -2.80 -26.20 -1.25 -4.45 -9.55 -30.70 -9.70 -30.55 -0.05 0.05 0.15 1.80 0.55 3.85 0.40 2.05 0.85 5 1.05 6.60 0.30 2.70 0.25 2.95 -1.20 4.35 -1.75 1.80 -3.50 1.90 -5.30 0.40 -1.20 -1.05 -1.40 -1.95 -2.75 -10.90 -0.80 -5.35 -2.05 -12.55 -2.75 -16 -2.20 -10.80 -10.15 -40.80 -11.70 -44.25 -0.50 -1.10 -1.45 -3.25 -2.10 -4.75 -2.15 -5.05 -9.85 -20.15 -15 -29.50 -9.15 -16.70 -11.70 -22.30 -11.20 -24.80 0.20 -1.15 -0.10 -2.15 -1.05 -3.75 l-1.30 -2.20 0.30 1.75 c0.15 0.95 1 6.20 1.85 11.65 l1.60 9.90 -1 1.35 c-0.75 1 -1.50 1.40 -2.95 1.50 -3.60 0.25 -3.95 -0.55 -6.20 -14.05 -2.80 -16.90 -5.10 -25 -9.80 -34.60 -1.60 -3.35 -8.35 -13.70 -11.45 -17.65 -0.05 -0.05 -0.80 0.15 -1.65 0.45 -1.45 0.50 -1.95 0.35 -5.95 -1.95 -2.40 -1.35 -6.70 -3.75 -9.50 -5.30 -6.95 -3.85 -13.90 -8.50 -23.40 -15.65 -4.40 -3.30 -11.50 -8.55 -15.75 -11.70 -4.25 -3.20 -10.05 -7.70 -12.80 -10.10 -4.60 -3.95 -5.90 -5.45 -8.30 -9.35 -0.70 -1.15 -1.30 -1.30 -9.45 -2.40 -12.15 -1.65 -27.70 -4.30 -37.45 -6.45 -8.15 -1.75 -8.35 -1.75 -16.50 -1.45 -21.05 0.85 -60.10 4.90 -63.90 6.65 -1.05 0.50 -2.40 0.70 -3.75 0.50 -1.15 -0.15 -3.90 0.05 -6.10 0.40 -2.20 0.35 -3.75 0.65 -3.45 0.70 0.35 0 1.30 0.70 2.15 1.50 1.90 1.80 2.10 4.15 0.45 5.90 -1.35 1.45 -3.75 1.50 -6.15 0.10 -1.65 -1 -2.25 -1.05 -8.15 -0.75 -3.50 0.15 -7.30 0.45 -8.45 0.60 -1.80 0.25 -2.25 0.15 -3.40 -1 l-1.35 -1.35 -8.05 2.30 c-23.85 6.80 -57.70 17.30 -68.75 21.30 -7.40 2.65 -14.05 6 -17.95 9.05 -2.45 1.85 -2.65 2.20 -2.65 4.10 0 5.25 -6.20 6.05 -9 1.15 -0.55 -1.05 -0.60 -1.70 -0.20 -3.30 l0.55 -2 -5.30 3.60 c-5.10 3.55 -5.30 3.75 -5.35 5.55 -0.10 2.65 -1.65 3.90 -6.75 5.50 -4.95 1.50 -6.60 2.60 -18.05 12.15 -13 10.85 -18.90 17.55 -18.90 21.40 0 0.60 -0.25 1.85 -0.55 2.75 -1 2.80 -4.80 3.60 -6.80 1.40 -1.15 -1.25 -1.10 -5.65 0.05 -8.90 l0.85 -2.25 -3.85 4 c-5.35 5.65 -6.10 6.70 -7.70 11.15 -1.75 5 -3.55 8.50 -8.05 15.90 -3.90 6.40 -9.45 17.45 -9.45 18.75 0 0.45 -0.60 1.70 -1.30 2.75 -2.20 3.20 -11.40 27.30 -15.15 39.45 -3.75 12.30 -4.05 14.05 -5.05 29.50 -0.75 10.60 -2.20 23.65 -3.85 33.75 -0.75 4.55 -1.35 10.05 -1.40 12.25 0 3.05 -0.20 4.35 -0.95 5.40 -0.85 1.30 -0.90 1.85 -0.35 9.25 0.30 4.30 0.95 11 1.35 14.85 0.75 6.50 0.90 7.10 2.20 8.30 1.05 0.95 1.55 2.20 2.20 5.25 0.50 2.15 1.30 4.80 1.85 5.90 0.55 1.05 1.65 4.45 2.45 7.50 2 7.85 7.80 24.90 9.85 29.05 0.95 1.95 2.80 5 4.15 6.75 2.55 3.35 2.95 4.90 1.95 7.20 -0.50 1.10 -0.15 2.40 3.05 10.40 4.95 12.40 8.55 20.30 11.55 25.20 1.35 2.25 2.45 4.70 2.45 5.40 0 1.30 -1.95 3.80 -2.95 3.80 -0.25 0 0.55 2.30 1.80 5.15 2.60 5.90 8.45 20.55 10.20 25.55 0.90 2.60 1.80 4 3.75 6 2.15 2.15 2.65 2.95 2.95 5.05 0.55 3.95 1.75 6.65 13.35 29.90 6.05 12.15 11.45 23.25 11.95 24.60 1.30 3.40 1.20 5.05 -0.30 6.55 -1.50 1.50 -1.60 3 -0.25 4.50 1.05 1.05 1.05 1.30 0.50 10.75 -0.65 11.85 -1.85 27 -2.50 32.15 -0.85 6.60 -1.20 31.90 -0.55 38.30 1 9.75 3.95 23.35 5.60 26 0.30 0.50 0.35 -0.95 0.15 -4 -0.15 -2.60 -0.30 -9.60 -0.35 -15.50 -0.10 -13.95 0.65 -16.80 6 -22.55 1.40 -1.50 2.25 -3 2.60 -4.50 0.30 -1.20 0.85 -3.30 1.25 -4.60 0.65 -2.10 0.65 -2.70 0 -4.45 -0.40 -1.10 -0.70 -3.10 -0.70 -4.45 0 -2 0.20 -2.55 1.40 -3.45 1.05 -0.85 1.75 -1.05 3.40 -0.80 1.65 0.20 2.25 0.05 2.95 -0.70 0.90 -1 2.90 -1.30 4.50 -0.70 0.45 0.20 2.40 2.65 4.30 5.50 3.15 4.75 3.60 5.15 4.50 4.70 1.40 -0.75 3.85 -0.15 4.70 1.20 0.40 0.60 1.60 4.45 2.70 8.60 1.10 4.15 2.80 9.30 3.80 11.50 1 2.15 2.40 5.35 3.10 7.10 1.05 2.55 1.45 3.10 2.45 3.10 2.25 0 3.60 1.90 4.45 6.25 1.35 6.80 4.25 17.40 5.20 19 0.85 1.40 2.60 8.70 5 21 1.80 9.10 2.70 18.70 2.85 30.90 0.15 9.75 0.40 13.20 1.45 19.25 1.60 9.55 2.10 13 3.30 23.60 1.05 9.40 1.80 26.50 1.25 28.70 -0.20 0.90 -0.90 1.60 -2 2.05 -1.65 0.70 -1.65 0.80 -1.45 3.10 0.55 5.90 2.65 14.80 4.65 19.45 0.55 1.20 1.95 3.30 3.15 4.60 2.75 2.90 3.15 4.15 2.15 6.20 -0.80 1.50 -0.75 1.60 0.90 3.60 4.90 6 6.30 6.65 18.80 9.45 10.70 2.40 10.05 2.40 11.75 0.75 1 -0.90 2.10 -1.40 3.05 -1.40z m286.20 -22.45 c0 -0.20 -1.65 -0.60 -3.60 -0.75 -3.95 -0.40 -4.45 -0.50 -13.90 -2.75 -3.45 -0.80 -8.55 -1.85 -11.25 -2.25 -2.75 -0.40 -5.45 -0.90 -6 -1.05 -0.55 -0.20 0 0.35 1.25 1.20 1.30 0.90 2.90 1.55 3.75 1.55 0.85 0 2.90 0.65 4.60 1.50 5.10 2.50 7.60 2.95 16.80 2.95 4.60 0.05 8.35 -0.15 8.35 -0.40z m-199.35 -11.30 c1.25 -3.85 1.80 -8.35 1.90 -15.75 0.15 -6.10 0.05 -6.95 -0.95 -8.85 -0.60 -1.10 -1.20 -3 -1.40 -4.10 -0.35 -2.30 -0.50 -2.40 -2.10 -1.15 -1.05 0.80 -1.15 1.25 -1 4.30 0.15 3.40 0.15 3.40 1.90 4 2.75 0.85 3.05 2.15 2.50 9.35 -0.45 5.45 -0.95 8.80 -2.25 14.20 -0.60 2.40 0.50 0.85 1.40 -2z m162.65 -10.65 c-1.15 -2.30 -2.50 -4.10 -3.90 -5.20 -1.20 -0.95 -4.35 -3.45 -7.05 -5.60 -2.70 -2.15 -5.05 -3.75 -5.20 -3.60 -0.15 0.15 0.10 1.75 0.60 3.55 1 3.70 2.65 5.70 7.90 9.45 3.20 2.30 8.90 5.40 9.25 5.10 0.10 -0.10 -0.65 -1.75 -1.60 -3.70z m-344.05 -162.45 c0.35 -3.45 0.30 -3.65 -0.65 -3.65 -0.70 0 -1.10 0.40 -1.30 1.40 -0.40 1.85 -1.30 8.30 -1.15 8.40 1.80 1.20 2.10 1.10 2.40 -0.70 0.20 -1 0.50 -3.50 0.70 -5.45z m464.35 -45.25 c-0.10 -1.65 0.10 -3.50 0.60 -4.90 l0.75 -2.20 -2.80 -5.40 c-1.55 -2.95 -2.90 -5.30 -2.95 -5.25 -0.05 0.05 0.30 1.90 0.80 4.10 0.45 2.20 1.35 6.55 1.95 9.70 0.95 5.15 1.35 6.55 1.75 6.55 0.05 0 0.05 -1.20 -0.10 -2.60z m-20.10 -11.60 c0 -0.35 -0.15 -0.35 -0.45 0 -0.30 0.25 -0.65 1.45 -0.80 2.70 l-0.25 2.25 0.75 -2.25 c0.40 -1.25 0.75 -2.45 0.75 -2.70z m42.25 -7.10 c-0.15 -1.50 -0.55 -2.70 -0.80 -2.70 -0.30 0 -0.40 0.40 -0.25 0.90 0.15 0.45 0.40 2 0.60 3.35 0.50 3.35 0.90 1.95 0.45 -1.55z m-38.50 -1.20 c0.70 -1.35 1.25 -2.85 1.25 -3.35 -0.05 -0.90 -2.10 2.65 -2.70 4.75 -0.60 1.90 0.15 1.20 1.45 -1.40z m-477.75 -0.60 c0 -0.95 -2.80 -6.40 -3.25 -6.40 -0.15 0 0.20 1 0.75 2.25 0.50 1.20 1.10 3 1.30 4 0.30 1.80 1.20 1.95 1.20 0.15z m515.50 -7.55 c0 -1.80 -3.40 -21.95 -3.75 -22.30 -0.15 -0.10 -0.25 0.30 -0.25 0.95 0 1.40 2.40 20.75 2.75 22.40 0.40 1.60 1.25 0.85 1.25 -1.05z m-516.80 -15.30 c-2.75 -5.25 -5.10 -9.55 -5.35 -9.55 -0.35 0 8.30 17.70 9.30 18.90 0.25 0.35 0.60 0.50 0.70 0.40 0.15 -0.15 -1.95 -4.50 -4.65 -9.75z m-69.15 -147.40 c-1.10 -4.90 -2.80 -13.25 -3.80 -18.60 -1 -5.35 -2.15 -10.65 -2.55 -11.85 -0.85 -2.55 -2.15 -5.60 -2.20 -5.10 -0.05 1.50 3.95 21.35 5.75 28.15 3.55 13.55 4.45 16.75 4.65 16.55 0.10 -0.10 -0.75 -4.20 -1.85 -9.15z m566.90 -27 c0.05 -1.80 -0.15 -3.15 -0.45 -3.15 -0.30 0 -0.45 2.35 -0.45 6.15 0.10 5.25 0.15 5.65 0.45 3.10 0.20 -1.65 0.40 -4.40 0.45 -6.10z m-586 -92.25 c0.25 -0.75 1.05 -1.70 1.75 -2.15 1.60 -1.05 1.80 -2 2.10 -10.40 0.25 -8.05 1.90 -26.20 3 -33.45 0.35 -2.70 0.70 -5 0.70 -5.15 0 -0.10 -1.20 -1.10 -2.65 -2.15 -4.85 -3.60 -8.20 -7 -8.55 -8.65 -0.25 -1.35 -0.45 -1.50 -1.40 -1.20 -4.60 1.45 -6 0.65 -8.10 -4.75 -1.45 -3.60 -1.50 -3.70 -11.05 -12.50 -8.85 -8.20 -16.45 -17.55 -19.50 -24.10 -1.60 -3.45 -1.60 -5.25 0.05 -6.95 l1.25 -1.35 -1.50 -2.45 c-4.20 -6.80 -8.35 -17.25 -9.60 -24.15 -1 -5.55 -0.85 -22.75 0.25 -27 0.50 -1.80 1.20 -5.40 1.60 -8 1.10 -6.95 4.35 -16.15 9 -25.50 5.50 -11 8 -14.60 15.10 -21.75 3.25 -3.30 6.20 -6.50 6.55 -7.15 0.55 -1 0.50 -1.05 -0.65 -0.60 -3.40 1.25 -5.20 2.55 -5.70 3.95 -0.35 0.95 -1.60 2.20 -3.70 3.60 -12.85 8.65 -22.05 16.45 -28.65 24.25 -6.60 7.85 -20.60 23.55 -21.45 24.10 -2.15 1.30 -11.75 17.55 -16.05 27.10 -4.75 10.60 -5.35 13.85 -4.70 26.20 0.45 8.20 1.35 14.65 2.75 19.35 1.35 4.55 5.45 12.75 9 17.80 2.50 3.60 3.35 5.35 3.45 6.75 0.10 2 3.15 6.80 14 21.90 3.05 4.25 7.90 11.15 10.75 15.25 15.70 22.70 18.35 25.85 26.75 31.75 2.50 1.75 7.65 5.70 11.50 8.75 10.10 8 9.70 7.75 11.70 7.75 1 0 2.30 0.30 2.85 0.65 0.60 0.30 2.55 1.45 4.25 2.45 l3.20 1.85 0.60 -6.35 c0.30 -3.50 0.80 -6.95 1.10 -7.70z m-69.05 -34.85 c-0.35 -1 -12.20 -17.50 -12.55 -17.55 -0.20 0 0.40 1.20 1.30 2.65 6.45 10.05 10.15 15.35 10.75 15.35 0.35 0 0.60 -0.20 0.50 -0.45z m98.35 -38.95 c1.60 -3.95 2.80 -7.25 2.65 -7.35 -0.10 -0.10 -1.35 2.75 -2.80 6.40 -2.95 7.60 -3.35 8.70 -3 8.35 0.20 -0.15 1.60 -3.45 3.15 -7.40z m-66.60 -53.35 c-1.50 -6.75 -1.40 -51.70 0.10 -58.75 0.25 -1.10 0.20 -1.10 -0.20 -0.25 -0.25 0.55 -0.50 1.60 -0.50 2.35 -0.05 0.75 -0.70 2.10 -1.50 3 -1.40 1.60 -1.40 1.75 -0.70 3.10 0.95 1.85 0.50 3.55 -1.50 5.35 -1.60 1.45 -1.60 1.50 -1.60 6.20 0 4.55 -0.05 4.80 -1.35 6 -1.60 1.45 -1.70 2.55 -0.90 9.25 0.90 7.30 3.70 17.55 7.50 27.25 1.05 2.70 1.45 0.35 0.65 -3.50z m128.70 -33.80 c3.60 -2.20 10.75 -5.85 13.65 -6.95 0.95 -0.35 5 -3.10 9 -6 13.50 -9.95 27.60 -18.80 37.35 -23.30 5.10 -2.40 9.60 -4.20 10.50 -4.20 1.10 0 3.65 2.60 3.65 3.75 l0 1.15 3.90 -1.25 c9 -2.90 24.25 -7.65 29.50 -9.15 3.05 -0.90 5.50 -1.75 5.45 -1.85 -0.10 -0.10 -2.45 0.20 -5.25 0.65 -4.55 0.70 -5.15 0.70 -6.50 0 -1 -0.50 -1.65 -1.30 -1.85 -2.35 l-0.35 -1.55 -2.60 0.30 c-7.75 1.05 -19.80 4.70 -28.30 8.60 -16 7.30 -47.50 25.05 -58.75 33.10 -4.35 3.10 -13.75 11.10 -13.05 11.10 0.15 0 1.80 -0.95 3.65 -2.05z m-182.05 -13.70 c5.30 -8 13.25 -17.75 21.55 -26.25 7.05 -7.30 7.20 -7.50 6.45 -8.60 -0.45 -0.60 -0.80 -1.70 -0.80 -2.40 0 -1.05 -1.50 0.25 -9.25 8 -5.20 5.20 -9.40 9.80 -9.60 10.50 -0.15 0.70 -1.50 2.95 -2.90 5 -3.40 4.90 -6.75 11.10 -9.25 17.25 -2.30 5.60 -2.45 6.20 -0.90 3.75 0.60 -0.95 2.70 -4.20 4.70 -7.25z m562.75 0.85 c-4.55 -5.45 -17.30 -20.05 -19.70 -22.55 -3.40 -3.60 -8.50 -7.10 -14.85 -10.30 -7.05 -3.55 -7.15 -3.55 -8.70 -2 -2.15 2.10 -4.05 1.75 -7 -1.45 -1.85 -1.95 -3 -2.75 -4.15 -2.90 -0.90 -0.15 -1.65 -0.10 -1.60 0.05 0 0.55 9.10 7.85 16.20 13.05 3.85 2.85 10.05 7.45 13.75 10.25 9.65 7.25 14.20 10.40 21.40 14.55 3.45 2.05 6.40 3.70 6.50 3.70 0.10 0 -0.70 -1.10 -1.85 -2.40z m9.90 -9.90 c0.05 -0.65 -5.20 -4.50 -9.20 -6.75 l-2.95 -1.65 5.70 5.55 c5.95 5.75 6.15 5.85 6.45 2.85z m-500.45 -55.45 c3.10 -1 4 -1.55 4 -2.55 0 -1.15 -1.10 -0.80 -4.75 1.60 -1.90 1.25 -3.15 2.20 -2.75 2.05 0.40 -0.10 2 -0.60 3.50 -1.10z m573.90 -76.35 c-1.10 -1.60 -6.05 -7.65 -7.05 -8.65 -0.25 -0.25 0.35 0.95 1.35 2.75 1 1.80 2.35 4.20 2.95 5.40 0.85 1.75 1.30 2.10 2.50 2.10 l1.40 0 -1.15 -1.60z m-43.40 -36.90 c-0.45 -0.25 -2.25 -1.60 -4 -3 -5.40 -4.35 -6.95 -5.25 -15.75 -9.25 -4.70 -2.10 -8.80 -3.95 -9.20 -4.10 -0.95 -0.40 4.05 5.80 7.35 9.15 4 4.05 7.05 5.35 16.90 7.10 4.90 0.90 6.15 0.90 4.70 0.10z"/>
  <path d="M398.75 802.15 c-1.40 -0.35 -2.25 -1.15 -2.80 -2.50 -0.55 -1.45 0.60 -7.60 2.30 -12.65 l1.25 -3.60 -1 -1.30 c-1.35 -1.65 -1.25 -3.70 0.25 -5.90 1.75 -2.60 5.55 -15.40 7.05 -23.90 l0.35 -1.95 -3.95 0.30 c-2.15 0.15 -7.55 0.10 -11.95 -0.15 -8.75 -0.50 -15.50 -2.05 -17.40 -3.95 -1.45 -1.45 -1.30 -3.85 0.30 -6.45 1.50 -2.30 3.25 -3.25 5.10 -2.80 0.90 0.20 1.25 0.05 1.50 -0.75 0.40 -1.30 3.05 -2.75 4.15 -2.25 0.50 0.15 2.05 0.40 3.50 0.45 2.65 0.10 4.60 1.20 4.60 2.60 0 0.35 0.25 0.65 0.50 0.65 0.30 0 1.45 0.45 2.65 0.95 4.15 1.90 5.70 2.10 11.35 1.25 2.90 -0.40 7.50 -1.35 10.25 -2.05 7.50 -1.95 8.45 -2 9.90 -0.45 1.35 1.45 2.30 1.55 6.75 0.60 2.45 -0.55 3.50 -1.05 4.50 -2.25 1.25 -1.40 1.70 -1.60 6.10 -2.10 4.65 -0.50 15.30 -2.55 18.25 -3.50 0.85 -0.25 4 -1 7 -1.70 7.80 -1.80 12.80 -3.45 18.20 -6.05 3.75 -1.85 5 -2.20 6.35 -2 2.55 0.50 15.20 -4.40 15.20 -5.90 0 -1.05 2 -3.30 2.90 -3.30 2.50 0 4.70 -1.20 7.75 -4.25 3.05 -3 3.50 -3.25 5.50 -3.25 1.75 0 2.75 -0.40 5.30 -2.20 1.70 -1.20 3.95 -3.15 5 -4.25 1.05 -1.15 2.35 -2.05 2.95 -2.05 1.60 0 5.45 -4.75 6.35 -7.85 0.60 -2 1.10 -2.80 2.25 -3.40 2.05 -1.05 2.90 -0.95 4.55 0.70 0.80 0.80 2.25 1.75 3.20 2.05 3.80 1.25 4.75 4.75 2.35 8.55 -2.85 4.45 -16.15 16.25 -22.45 19.85 l-3.20 1.85 0.35 3.15 c0.20 2.20 0.15 3.55 -0.30 4.35 -0.60 1.10 -0.20 1.95 4.50 10.25 5.80 10.30 10 19.30 10 21.45 0 2.50 -0.90 4.05 -2.75 4.85 -2.35 0.95 -4.40 0.40 -9.10 -2.50 -3.20 -1.95 -3.80 -2.15 -5 -1.70 -2.20 0.80 -3.80 -0.15 -6.50 -4.05 -1.35 -1.95 -6.45 -8.05 -11.35 -13.50 -7.85 -8.80 -9 -9.95 -9.95 -9.55 -0.60 0.20 -4.60 1.85 -8.85 3.65 -17.50 7.30 -40.80 13.55 -57.25 15.35 -6.75 0.75 -7.25 0.90 -7.25 2.20 0 2.70 -5.75 25.45 -7.05 27.90 -0.45 0.85 -2.60 1.70 -3.80 1.50 -0.75 -0.15 -13.05 16.75 -13.40 18.45 -0.50 2.25 -2.75 3.60 -5 3.10z m17.70 -36.65 c0.60 -2.15 1.55 -6 2.10 -8.60 0.55 -2.55 1.10 -5.05 1.25 -5.50 0.25 -0.80 -0.10 -0.90 -2.50 -0.90 -2.50 0 -2.80 0.10 -3 1.15 -0.15 0.60 -0.55 2.60 -0.95 4.40 -0.70 3.25 -0.70 3.30 0.45 4.40 1.50 1.45 1.50 2.95 -0.05 7.55 -0.70 2 -1.25 3.80 -1.25 3.95 0 0.10 0.65 -0.40 1.45 -1.15 1.05 -1 1.75 -2.50 2.50 -5.30z m112.20 -26.85 c-2.75 -4.90 -5.75 -10.30 -6.65 -12 -0.90 -1.75 -1.80 -3.15 -2.05 -3.15 -0.20 0 -2.05 0.70 -4.10 1.50 -2.10 0.85 -4.05 1.50 -4.45 1.50 -0.35 0 0.15 0.75 1.15 1.65 1 0.85 2.70 2.75 3.75 4.10 3.65 4.80 5.30 6.25 7 6.25 1.40 0 2.10 0.60 5.70 4.80 2.25 2.60 4.20 4.65 4.35 4.50 0.15 -0.15 -1.95 -4.25 -4.70 -9.15z"/>
  <path d="M415 647.25 c-4 -0.35 -10.20 -0.65 -13.75 -0.70 -3.60 0 -10.20 -0.05 -14.75 -0.05 -11.40 -0.05 -23.55 -0.80 -27.85 -1.70 -10.20 -2.15 -20.85 -7.55 -27.55 -14 -3.85 -3.65 -6.50 -7.30 -10.85 -14.75 -1.75 -3.05 -4.30 -6.95 -5.60 -8.70 -1.35 -1.70 -2.95 -4.60 -3.60 -6.35 -0.65 -1.80 -1.35 -3.45 -1.55 -3.75 -0.20 -0.25 -3.50 -6 -7.25 -12.75 -10.70 -19 -12.40 -23.65 -14.70 -40.50 -0.60 -4.40 -1.40 -7.80 -2.20 -9.80 -2 -4.60 -2.80 -8.25 -3.40 -15.50 -0.70 -7.85 0 -22.65 1.60 -34.45 0.55 -4.10 1.30 -10.75 1.70 -14.70 0.50 -4.70 1 -7.50 1.45 -8 0.80 -0.85 1.45 -2.40 2 -4.65 0.30 -1.35 0.25 -1.40 -1.65 -1.40 -2.60 0 -4.25 -1.90 -3.90 -4.50 0.35 -2.60 2.85 -8.40 6.85 -15.70 3.50 -6.40 3.50 -6.45 2.55 -7.50 -1.60 -1.75 -1.75 -3.15 -0.55 -5.45 1.45 -2.85 7.10 -10.15 11.80 -15.35 7.75 -8.55 27.95 -29.15 30.50 -31.05 1.40 -1.10 5.40 -3.45 8.90 -5.20 6.50 -3.35 9.10 -4 10.30 -2.50 0.85 1 1.30 1 9.15 -0.85 5.35 -1.30 6.85 -1.80 6.85 -2.45 0 -0.45 0.45 -1.35 0.95 -2 0.90 -1.15 1.30 -1.20 7.15 -1.25 14.05 -0.15 29.05 -0.65 35.35 -1.25 8.85 -0.75 28.95 -0.35 33.75 0.75 4.70 1.05 8.95 3.15 12.60 6.20 2.65 2.25 3.55 2.65 6.85 3.35 8 1.65 15 5 26.50 12.70 4.45 3 11.05 7.35 14.60 9.65 4.80 3.10 7.85 5.55 11.75 9.45 2.90 2.85 6.95 6.50 9 8.05 2.05 1.55 4.55 3.60 5.50 4.50 3.70 3.45 7.70 6.90 8.10 6.90 0.20 0 0.25 -0.35 0.10 -0.75 -0.50 -1.20 0.75 -3.55 2.10 -4.20 3.45 -1.55 5.60 0.55 10.80 10.75 2.10 4.10 6 11.05 8.60 15.40 5.35 8.90 6.35 11.25 8.15 18.80 2.35 10.05 3.15 13.30 4.35 17.35 1.30 4.20 3.10 14.50 4.60 25.90 0.60 4.55 0.75 8.05 0.55 11.75 -0.35 5.60 -2.25 18.50 -3.60 24.25 -0.45 1.95 -1 4.50 -1.25 5.75 -0.20 1.25 -0.75 4.05 -1.25 6.25 -0.50 2.50 -0.70 4.60 -0.45 5.75 0.55 2.70 0.40 9 -0.30 11.45 -0.30 1.20 -1.10 3.35 -1.75 4.75 -0.65 1.40 -1.75 3.90 -2.50 5.55 -0.70 1.65 -2.65 5.30 -4.30 8.10 -1.65 2.80 -4.10 7.75 -5.50 11 -3.15 7.40 -4.95 10.25 -8.15 12.75 -3.10 2.45 -6.20 4.05 -12 6.15 -2.50 0.90 -8 3.35 -12.25 5.45 -7.80 3.80 -14 6.10 -20.15 7.50 -1.85 0.45 -4.80 1.35 -6.50 2.05 -4.55 1.90 -15 4.45 -25.90 6.35 l-9.45 1.65 -0.40 1.50 c-0.50 1.85 -2.65 3 -7.15 3.80 -4.90 0.85 -34.25 1 -43 0.20z m20.35 -9.25 c8.40 -0.65 8.50 -0.65 8.25 -2.75 -0.15 -1.40 0.10 -2 1.30 -3.25 1.80 -1.80 2.75 -1.85 5.10 -0.45 1.50 0.90 2.25 1.05 5.25 0.80 4.65 -0.35 8.85 -1.80 21.25 -7.35 11.95 -5.35 15.55 -6.80 24 -9.85 8.25 -2.95 9.55 -3.10 11.20 -1.45 2.20 2.15 1.65 4.65 -1.50 6.65 -0.50 0.35 0.55 -0.05 2.40 -0.85 1.80 -0.80 7.20 -2.80 12 -4.45 8.45 -2.90 13.30 -5.10 13.65 -6.25 0.10 -0.30 0.30 -1.15 0.45 -1.90 0.15 -0.75 0.70 -1.75 1.20 -2.20 0.80 -0.85 0.80 -0.85 -0.15 -0.50 -4.40 1.80 -7.90 2.25 -9.30 1.15 -2.20 -1.70 -2.35 -5.25 -0.30 -6.55 0.60 -0.35 2.20 -0.95 3.55 -1.25 5.60 -1.35 13.35 -6.45 21.60 -14.20 4.35 -4.10 4.60 -4.45 5.60 -7.95 1.85 -6.15 2.35 -9.40 1.70 -10.45 -0.90 -1.45 -0.75 -2.80 1.35 -11.30 4.80 -19.60 5.30 -24.05 4.30 -41.45 -0.40 -6.85 -0.75 -14.45 -0.75 -16.95 0 -6.45 -1.50 -18.25 -2.30 -18.25 -0.35 0 -1.25 -0.25 -1.95 -0.60 -1.60 -0.70 -2.65 -2.70 -9.30 -17.55 -2.70 -6 -5.80 -12.45 -6.90 -14.35 -7.45 -12.50 -20.05 -25.35 -31.05 -31.55 -11 -6.15 -20.65 -12.20 -23.70 -14.80 -7.25 -6.15 -11.20 -8.75 -20.30 -13.20 -5.10 -2.55 -10.10 -5.15 -11.15 -5.80 -1.30 -0.80 -2.50 -1.15 -3.70 -1.05 l-1.75 0.15 3.80 4.25 c4.20 4.65 4.70 5.80 3.80 8.05 -0.75 1.70 -1.85 2.45 -3.80 2.45 -1.40 0 -1.55 -0.15 -9.35 -8.40 -3.45 -3.60 -4.10 -4.10 -5.65 -4.10 -2.25 0 -4.20 -1.85 -4.20 -3.95 0 -1.40 -0.15 -1.50 -2.60 -2 -8.10 -1.65 -28.35 -4.60 -34.25 -5.05 -11.05 -0.80 -10.50 -0.85 -41.15 6.50 -4.80 1.15 -9.95 2.55 -11.40 3.10 -2.50 0.95 -2.60 1 -1.85 2.05 0.85 1.20 1 3.50 0.25 4.80 -0.55 1.10 -2.45 1.85 -5.55 2.30 -1.45 0.20 -2.90 0.80 -3.75 1.55 -0.80 0.65 -2 1.35 -2.70 1.50 -2.30 0.50 -3.30 1.10 -6.40 3.65 -2.40 2 -3.10 2.90 -3.10 3.95 0 1.95 -1.20 3.40 -3.65 4.50 -1.50 0.65 -3.15 2.15 -5.40 4.90 -4.55 5.50 -9.15 11.65 -10.10 13.55 -2.20 4.25 -5.65 19.70 -7.35 32.80 -1.25 9.70 -1.30 12.50 -0.20 13.40 1.65 1.35 1.75 2.75 0.45 6.20 -0.70 1.80 -1.25 4.05 -1.25 5.05 0 0.95 -0.35 2.45 -0.80 3.25 -1.05 2.05 -2.55 12.70 -2.95 21.20 -0.20 4 -0.10 11.25 0.25 17 1.35 22.90 4.95 36.75 11.45 43.90 2.70 3 3.20 4.80 1.95 6.85 -0.50 0.80 -0.35 1.55 0.85 4.60 1.50 3.60 1.50 3.60 3.45 3.70 1.45 0.05 2.25 0.40 3.15 1.40 1.10 1.30 1.15 1.65 0.85 5.30 l-0.35 3.95 3.80 5.65 c2.10 3.10 5.40 7.50 7.30 9.80 1.90 2.25 3.60 4.60 3.75 5.25 0.75 2.70 22.65 15.70 31.70 18.80 3.85 1.30 3.80 1.30 5.30 -0.20 1.85 -1.85 4.15 -1.70 6.30 0.50 2.05 2.10 5.70 3.05 15.40 4 5.40 0.50 6.85 0.80 7.75 1.65 1.20 1.10 6 2 11.85 2.25 7.90 0.35 18.75 0.30 24.35 -0.15z m-84.45 -5.15 c-3.35 -1.75 -7.60 -4.10 -9.40 -5.20 -1.75 -1.15 -3.35 -1.95 -3.50 -1.85 -0.70 0.75 7.50 5.70 13.65 8.25 2.50 1.05 4.80 1.95 5 1.95 0.25 0 -2.35 -1.40 -5.75 -3.15z m141.35 -5 c1.90 -1 -0.10 -0.85 -2.30 0.15 -2.15 1 -2.15 1.05 -0.45 0.70 0.95 -0.15 2.20 -0.55 2.75 -0.85z m11.60 -4.45 c1.60 -0.60 2.70 -1.15 2.40 -1.20 -0.25 -0.10 -1.95 0.35 -3.75 1.05 -1.80 0.65 -2.85 1.20 -2.40 1.20 0.50 0.05 2.15 -0.45 3.75 -1.05z m-210.95 -172.25 c0.25 -0.50 0.60 -1.90 0.70 -3.15 l0.30 -2.25 -1.20 2.50 c-0.60 1.40 -1.15 2.80 -1.15 3.15 -0.05 0.90 0.85 0.75 1.35 -0.25z"/>
  <path d="M441.30 589.65 c-0.20 -0.20 -5.65 -0.40 -12.20 -0.45 -6.50 -0.05 -14 -0.35 -16.60 -0.65 -2.60 -0.35 -8.60 -0.80 -13.35 -1.05 -4.75 -0.25 -9.70 -0.75 -11 -1.05 -12.05 -2.90 -25.55 -16.60 -37.35 -37.85 -3.85 -6.95 -5.65 -11.60 -8.20 -21.10 -1.60 -6.15 -1.75 -7.35 -1.80 -13.50 0 -10.30 1.45 -15.75 7 -26.75 2.40 -4.65 5.35 -9.95 6.60 -11.75 4.55 -6.50 11.25 -12.55 17.10 -15.50 1.25 -0.65 5.75 -2.30 10 -3.75 4.25 -1.45 9.90 -3.50 12.50 -4.55 l4.75 -1.95 9.25 -0.15 c5.10 -0.10 12.45 0.05 16.40 0.35 7.55 0.60 10.85 1.50 13.80 3.70 0.90 0.70 2.50 1.45 3.60 1.60 8 1.40 15.95 4.50 20.20 7.90 1.25 1 5.20 4.05 8.75 6.80 7.50 5.65 11.95 10.15 13.90 14.05 6.10 12.20 10.15 24.70 11.85 36.50 0.65 4.35 0.60 18.30 0 23.40 -0.75 6 -2.70 13.15 -4.75 17.35 -3.55 7.40 -10.10 14.55 -15.75 17.20 -0.95 0.45 -3.80 2.20 -6.40 3.90 -4.95 3.30 -10.80 5.80 -16.10 6.95 -3.40 0.70 -11.60 0.95 -12.20 0.35z m-48.55 -10.90 c-3.90 -1.25 -5.90 -1.75 -6.10 -1.55 -0.30 0.30 4.30 1.75 5.60 1.75 0.55 -0.05 0.80 -0.10 0.50 -0.20z"/>
  <path d="M642.75 352.25 c-1.20 -1.15 -1.55 -2.85 -0.95 -4.40 0.15 -0.40 2.05 -2.15 4.25 -3.90 3.25 -2.60 3.95 -3.40 3.65 -4.20 -0.95 -3 -0.80 -3.45 2.60 -8.50 1.85 -2.75 5.65 -7.90 8.45 -11.50 5.45 -6.95 9.80 -13.30 12 -17.70 1.90 -3.80 5.55 -13.35 6.50 -17.05 0.90 -3.55 1.40 -4.55 3.45 -7 2.70 -3.20 4.20 -7.30 4.80 -12.95 0.70 -7.10 0.65 -9.50 -0.25 -10.35 -1.35 -1.40 -1.40 -3 -0.05 -5.80 0.70 -1.50 1.30 -3.30 1.30 -4 0 -2.20 1.45 -6.20 2.95 -8.10 1.05 -1.30 1.70 -3 2.35 -6.20 0.80 -4 0.95 -7.45 1.20 -26.75 0 -1.25 2.95 -2.95 4.50 -2.60 0.70 0.15 1.80 0.90 2.45 1.60 l1.15 1.35 -0.25 12.25 c-0.20 10.35 -0.40 13.10 -1.35 17.30 -1.30 5.80 -1.35 6 -0.45 8.10 0.55 1.30 0.55 2.80 0.05 8 -0.70 7.80 -1.95 12.95 -4.60 19.75 -1.15 2.85 -2.40 6.75 -2.80 8.65 -1.65 7.75 -7.75 23.50 -9.75 25.05 -0.40 0.30 -1.30 0.70 -2 0.85 -1.10 0.30 -1.60 0.85 -2.85 3.50 -0.10 0.20 0.15 0.35 0.55 0.35 1.25 0 3.25 1.95 3.60 3.50 0.35 1.70 0.25 1.95 -4.45 9.05 -7.50 11.35 -13.55 18.05 -25 27.60 -5.40 4.50 -6.70 5.35 -8.15 5.35 -1.15 0 -2.10 -0.40 -2.90 -1.25z"/>
 </g>
</svg>