<svg preserveAspectRatio="xMidYMid meet" viewBox="39.03398058252427 52.762 785.2718446601941 1018.5360000000001" xmlns="http://www.w3.org/2000/svg" version="1.0" style="max-height: 500px" width="785.2718446601941" height="1018.5360000000001">
 <g fill="#d7a4e7">
  <path d="M386.75 1069.65 c-0.80 -0.15 -1.75 -0.45 -2.10 -0.75 -0.35 -0.25 -0.80 -0.35 -1.10 -0.20 -0.70 0.45 -7.35 -1.05 -9.20 -2.05 -0.90 -0.50 -1.80 -0.90 -2.10 -0.90 -1.25 -0.10 -4.25 -1.40 -4.25 -1.80 0 -0.30 -0.20 -0.40 -0.45 -0.25 -0.25 0.15 -0.70 -0.05 -1.05 -0.45 -0.35 -0.40 -1.05 -0.75 -1.55 -0.75 -0.50 0 -1.25 -0.50 -1.65 -1.10 -0.45 -0.60 -0.80 -0.95 -0.80 -0.75 0 0.20 -0.45 -0.10 -1 -0.65 -0.55 -0.55 -1 -1.10 -1 -1.25 0 -0.50 2.80 -0.20 5.20 0.50 1.35 0.40 3.10 0.75 3.85 0.75 0.80 0 2.15 0.40 3.10 0.95 1.70 0.95 9.85 3.60 13.85 4.50 4.60 1.05 13.60 0.55 17.25 -0.95 0.55 -0.20 2.25 -0.90 3.75 -1.50 1.50 -0.60 3.20 -1.45 3.75 -1.80 1.35 -0.90 8.65 -2.20 12.40 -2.20 2.20 0 2.85 0.15 2.85 0.75 0 0.40 -0.30 0.75 -0.70 0.75 -0.40 0 -0.80 0.15 -0.90 0.40 -0.20 0.50 -8.50 4.60 -9.30 4.60 -0.35 0 -0.75 0.35 -0.95 0.80 -0.20 0.50 -0.65 0.70 -1.40 0.50 -0.60 -0.15 -1.55 0.05 -2.15 0.50 -0.60 0.40 -1.35 0.60 -1.60 0.45 -0.30 -0.20 -0.85 -0.10 -1.20 0.25 -0.40 0.30 -1.70 0.60 -2.85 0.70 -1.20 0.10 -2.55 0.30 -2.95 0.45 -0.95 0.40 -13.80 0.75 -15.75 0.50z"/>
  <path d="M382.50 1054.45 c-5.90 -1.20 -12.05 -2.65 -14.85 -3.50 -1.70 -0.50 -3.45 -0.95 -3.85 -0.95 -1 0 -3.95 -2.60 -6.90 -6.15 -1.95 -2.35 -2.40 -3.25 -2.40 -4.85 0 -1.05 0.25 -2.10 0.50 -2.25 0.85 -0.55 0.55 -1.15 -1.80 -3.85 -1.30 -1.40 -2.90 -3.75 -3.55 -5.20 -2.90 -6.40 -6.15 -24.15 -4.70 -25.90 0.40 -0.45 0.95 -0.80 1.35 -0.80 0.35 0 1 -0.50 1.40 -1.10 2.20 -3.10 -0.20 -31.95 -4.70 -57.15 -0.80 -4.35 -1 -7.55 -0.95 -15.50 0.10 -14.35 -0.80 -23.35 -3.85 -38.25 -2.25 -11 -3.60 -16.30 -4.65 -18.05 -0.95 -1.60 -3.80 -12.15 -5.05 -18.70 -0.30 -1.65 -0.70 -3.40 -0.80 -3.90 -0.45 -1.55 -2.45 -3.25 -3.95 -3.45 -1.30 -0.15 -1.65 -0.55 -2.90 -3.65 -0.80 -1.90 -2.35 -5.50 -3.45 -7.95 -1.10 -2.45 -2.55 -6.75 -3.20 -9.50 -2.75 -11.15 -3.40 -12.30 -7.10 -11.90 l-2.40 0.20 -2.90 -4.40 c-4.65 -7.05 -5.65 -7.80 -7.50 -5.65 -0.75 0.90 -1.25 1.05 -3.30 0.80 -3.20 -0.40 -4.25 0.65 -3.80 3.75 0.95 6.55 0.90 7.85 -0.15 11.30 -0.55 1.95 -1.05 3.85 -1.05 4.30 0 0.40 -1.35 2.25 -3 4.15 -1.65 1.85 -3 3.55 -3 3.75 0 0.20 -0.60 0.40 -1.30 0.40 -0.70 0 -1.15 -0.20 -0.95 -0.50 0.15 -0.30 -0.45 -1.10 -1.35 -1.90 -0.90 -0.75 -2.85 -2.45 -4.25 -3.80 -1.80 -1.65 -2.65 -2.20 -2.65 -1.60 0 0.45 -0.35 0.80 -0.80 0.80 -0.70 0 -0.75 -1.05 -0.45 -10.10 0.15 -5.60 0.65 -13.05 1 -16.65 0.95 -8.75 1.75 -19.20 2.25 -29.75 0.35 -8.15 0.30 -8.85 -0.55 -10.10 -1.45 -2.10 -1.30 -5.75 0.35 -7.45 l1.30 -1.35 -1.05 -2.75 c-0.55 -1.55 -3.95 -8.65 -7.55 -15.80 -4 -8.05 -6.50 -13.60 -6.50 -14.55 0 -1.65 0.70 -2 1.20 -0.65 0.30 0.70 0.45 0.75 0.75 0.20 0.70 -1.05 0.30 -2.15 -4.10 -11.55 -1.05 -2.35 -2.45 -5.25 -3 -6.50 -0.60 -1.25 -1.50 -3.05 -2.05 -4 -0.55 -0.95 -1.10 -2.10 -1.15 -2.60 -0.10 -0.55 -0.65 -1.65 -1.25 -2.45 -0.85 -1.15 -1.20 -1.35 -1.30 -0.75 -0.35 1.60 -1.60 0.80 -2.20 -1.45 -0.35 -1.25 -0.90 -2.25 -1.25 -2.25 -0.35 0 -0.65 -0.45 -0.65 -1.05 0 -1.05 0.50 -0.95 2.15 0.45 0.55 0.50 0.85 0.55 0.85 0.15 0 -0.30 -0.35 -0.70 -0.75 -0.85 -0.45 -0.20 -0.75 -0.55 -0.70 -0.90 0.15 -0.65 -0.50 -2.30 -1.25 -3.25 -0.25 -0.35 -0.55 -0.90 -0.60 -1.25 -0.30 -1.65 -4.75 -10.20 -5.45 -10.50 -0.65 -0.20 -0.80 -0.10 -0.55 0.45 0.20 0.50 -0.05 0.75 -0.75 0.75 -0.55 0 -1.10 -0.40 -1.25 -0.85 -0.20 -0.50 -0.75 -1.85 -1.25 -3.05 -0.55 -1.20 -1.65 -3.80 -2.40 -5.75 -0.80 -2 -2.40 -5.60 -3.50 -8 -2.55 -5.55 -2.70 -7.80 -0.55 -9.35 0.80 -0.60 1.50 -1.25 1.50 -1.50 0 -0.20 -1.15 -2.35 -2.55 -4.75 -1.45 -2.40 -3.80 -7.05 -5.25 -10.25 -4.30 -9.70 -10.70 -25.85 -10.70 -27.20 0 -0.70 0.25 -1.85 0.60 -2.55 0.50 -1.10 0.40 -1.50 -0.50 -2.65 -5.45 -6.85 -11.05 -20.80 -15.85 -39.20 -0.90 -3.55 -2.10 -7.15 -2.65 -8 -0.55 -0.90 -1.35 -3.45 -1.85 -5.65 -0.95 -4.50 -1.40 -5.45 -3 -6.95 -0.95 -0.90 -1.20 -1.90 -1.75 -7.30 -0.30 -3.45 -0.90 -9.40 -1.30 -13.25 -1 -10.30 -0.90 -15.20 0.30 -16.75 0.80 -1 1 -2.05 1 -5.50 0 -2.35 0.35 -6.15 0.75 -8.50 1.45 -7.95 3.70 -27.35 4.50 -38.10 1.50 -20.60 1.35 -20 7.05 -37.90 3.25 -10.20 12.85 -34.80 14.20 -36.25 0.45 -0.55 1.25 -2.25 1.75 -3.75 1.05 -3.40 6.45 -13.85 11.10 -21.50 3.95 -6.50 6 -10.75 7.60 -15.60 0.90 -2.65 1.85 -4.15 4.90 -7.65 3.90 -4.45 5.10 -5.25 7.75 -5.25 l1.55 0 -0.35 2.65 c-0.20 1.40 -0.50 3.40 -0.60 4.35 -0.25 1.45 -0.05 1.95 1 2.95 l1.30 1.25 1.05 -1 c0.55 -0.55 1.35 -2.45 1.75 -4.15 0.40 -1.75 1.30 -4.20 2.05 -5.45 1.45 -2.60 10.35 -11.60 15.80 -16 1.90 -1.55 4.75 -3.90 6.30 -5.20 7.90 -6.60 9.70 -7.75 14.30 -9.20 6 -1.85 7.75 -3.15 7.75 -5.65 0 -2.20 0.85 -3.10 6.55 -6.95 2.85 -1.95 4.20 -2.60 5.60 -2.60 l1.85 0 0 2.90 c0 3 0.85 4.45 3.05 5.25 1.45 0.50 2.95 -1 2.95 -2.95 0 -0.95 0.35 -2.40 0.75 -3.20 0.65 -1.25 1.10 -1.50 2.55 -1.50 1.45 0 1.70 0.15 1.30 0.65 -0.65 0.75 0.65 1.40 4.55 2.30 1.35 0.35 3.50 1.10 4.85 1.75 l2.40 1.15 2.45 -1.90 c3.10 -2.55 3.15 -2.55 5.15 -3.65 0.95 -0.55 3.05 -1.95 4.65 -3.15 1.65 -1.15 3.25 -2.15 3.60 -2.15 0.35 0 0.90 -0.35 1.25 -0.75 0.35 -0.45 2.25 -1.60 4.20 -2.55 1.95 -1 3.90 -2.05 4.30 -2.40 0.40 -0.35 2.10 -1.25 3.75 -2.05 1.65 -0.80 3.80 -2.05 4.75 -2.85 0.95 -0.75 1.95 -1.40 2.25 -1.40 0.25 -0.05 1.20 -0.60 2 -1.25 1.40 -1.15 1.40 -1.20 0.35 -1 -0.85 0.15 -1.10 0 -1 -0.60 0.15 -0.90 3.50 -2.20 10.55 -4.10 3.25 -0.90 10.20 -3 13.10 -3.95 1.65 -0.55 3.80 -1.20 4.75 -1.35 0.95 -0.20 2 -0.55 2.25 -0.75 0.30 -0.20 1.20 -0.50 2 -0.65 1.45 -0.25 3 -0.70 7.15 -1.90 2.80 -0.85 7.10 -1.15 7.10 -0.50 0 0.30 -0.25 0.55 -0.55 0.55 -0.30 0 -0.20 0.35 0.25 0.75 0.45 0.45 1.70 0.75 3.25 0.75 2.60 0 3.05 -0.30 1.95 -1.40 -0.45 -0.45 0.30 -0.60 3.50 -0.60 4 0 5 0.45 3.25 1.45 -0.80 0.45 -0.80 0.50 0.20 0.55 0.60 0 1.25 0.20 1.40 0.50 0.15 0.25 1.85 0.50 3.75 0.50 1.90 0 3.60 0.20 3.75 0.50 0.15 0.30 7.75 0.50 19.70 0.50 14.55 0 20.65 0.20 24.35 0.75 2.75 0.40 5.60 0.75 6.35 0.75 0.80 0 1.90 0.30 2.50 0.60 2.40 1.35 5.85 1.85 12.95 1.90 4.35 0 7.45 0.20 7.65 0.50 0.15 0.30 1.95 0.50 4 0.50 2.05 0 3.85 0.20 4 0.50 0.15 0.25 1.05 0.50 1.95 0.50 0.85 0 1.80 0.20 2.10 0.40 0.25 0.25 1.75 0.75 3.35 1.10 1.60 0.35 3 0.85 3.15 1.10 0.15 0.20 0.70 0.40 1.25 0.40 0.50 0 1.35 0.20 1.85 0.45 2.20 1.15 3.65 1.50 7.60 2.05 4.10 0.55 7.90 1.30 9.50 1.85 0.40 0.20 1.55 0.30 2.50 0.25 0.95 0 2.40 0.25 3.25 0.60 0.80 0.40 3.10 0.95 5 1.30 1.95 0.35 3.85 0.80 4.25 1 0.40 0.20 1.55 0.60 2.50 0.90 3.30 1 13.75 4.70 16 5.70 3.55 1.55 4.15 1.80 5.50 2.20 0.70 0.15 1.60 0.60 2 0.90 0.40 0.35 1.75 0.90 3 1.30 1.25 0.35 3.20 1.05 4.35 1.55 1.20 0.55 2.45 0.95 2.80 0.95 0.40 0 0.85 0.15 1.05 0.35 0.20 0.25 0.55 0.40 0.70 0.45 1.40 0.15 6.25 2.55 12.50 6.05 2.55 1.45 4.80 2.65 5 2.65 0.25 0 0.85 0.35 1.35 0.75 3.30 2.50 10.85 7.40 12.75 8.25 4.35 2 8.50 4.25 8.50 4.65 0 0.20 0.35 0.35 0.75 0.35 1.25 0 8.40 5 17 11.95 2.75 2.20 6.70 5.05 7 5.05 0.30 0 6.70 4.90 7.60 5.80 0.40 0.40 0.85 0.70 1.05 0.70 0.20 0 1.05 0.65 1.85 1.40 0.85 0.75 2.55 2.25 3.90 3.30 1.30 1.05 4.25 4.10 6.55 6.75 2.30 2.65 5.20 5.85 6.40 7.10 1.25 1.25 2.50 2.70 2.80 3.25 0.50 0.85 0.55 0.85 0.60 0.10 0 -0.55 0.40 -0.90 1 -0.90 0.80 0 1 0.35 1 1.65 0 0.85 0.55 4.60 1.25 8.30 0.95 5.05 1.55 7.05 2.35 7.90 0.60 0.65 1.35 1.15 1.65 1.15 1.20 0 2.25 -1.85 2.25 -3.90 0 -1.55 0.20 -2.10 0.75 -2.10 0.40 0 0.75 0.30 0.75 0.70 0 0.40 0.30 0.80 0.65 0.90 0.35 0.10 2.55 2.25 4.80 4.75 4.20 4.75 5 5.45 4.05 3.65 -0.45 -0.85 -0.40 -1 0.40 -1 1.65 0 2.15 0.80 11 18 3.65 7.10 5.65 11.55 5.85 13.10 0.35 2.45 -0.35 3.40 -1 1.35 -0.20 -0.55 -0.40 -0.95 -0.50 -0.85 -0.10 0.10 0.35 2.20 1.05 4.65 3.65 13.60 3.75 14.15 5 27 0.75 8.30 0.75 23.25 -0.10 35.75 -0.20 3 -0.05 5.10 0.50 7.25 1.90 7.45 2.80 13.40 3.80 25.25 0.60 6.80 1.60 14.30 2.45 18.55 1.10 5.25 2.05 16.95 2.05 25.15 0 5.35 0.40 12.35 1 17.90 0.55 5.05 1.25 11.50 1.55 14.40 0.30 2.90 1 8.05 1.60 11.50 0.95 5.75 1.05 7.95 0.95 26.75 -0.10 11.30 -0.25 21.20 -0.40 22 -0.15 0.85 -0.35 9.05 -0.45 18.25 -0.25 18.60 -0.40 17.80 3.20 19.30 1 0.40 1.90 0.90 2.05 1.10 0.15 0.20 1.20 1 2.40 1.80 1.20 0.80 3.90 3.35 6.05 5.65 10.65 11.30 16.25 24.20 16.90 38.95 0.45 10.30 -0.95 17.85 -5.15 27.20 -1.25 2.90 -2.35 5.65 -2.35 6.15 -0.10 1.65 -2.05 0.95 -3.85 -1.45 -3.25 -4.30 -4.30 -5.20 -6.10 -5.20 -0.90 0 -2.20 -0.45 -2.90 -1 -2.90 -2.25 -4.30 -0.60 -5.25 6.10 -0.35 2.55 -1 6.55 -1.45 8.90 -0.45 2.35 -1.25 6.85 -1.85 10 -1.30 7.35 -1.35 7.50 -2.45 7.50 -0.60 0 -0.85 -0.25 -0.70 -0.70 0.45 -1.10 -1.40 -1.45 -2.40 -0.40 -0.85 0.80 -0.85 1.05 -0.25 2.25 0.50 1 0.85 1.15 1.25 0.75 0.90 -0.90 0.75 2.10 -0.20 4.40 -0.45 1.05 -1.10 3.95 -1.50 6.45 -0.35 2.45 -1.10 6.05 -1.65 7.95 l-0.95 3.45 1.20 1.20 c1.45 1.45 1.60 4.40 0.40 8.55 -0.70 2.30 -0.85 5.55 -0.90 17.85 -0.05 20.05 0.55 33.95 2 45.75 0.65 5.35 1.30 10.25 1.45 10.90 0.15 0.65 0.60 3.10 1.05 5.50 0.40 2.40 1.55 7.60 2.50 11.60 1.65 6.90 1.75 7.65 1.65 15.50 -0.05 4.60 0.20 9.90 0.55 12 0.30 2.15 0.65 10.25 0.75 18.75 0.10 8.25 0.35 16.85 0.55 19.15 0.30 3.60 0.20 4.10 -0.50 4.10 -0.45 0 -0.80 -0.40 -0.85 -0.85 -0.05 -0.50 -0.55 2.05 -1.20 5.60 -2.55 14.75 -8.15 25.90 -17.65 35.15 -2.60 2.50 -4.85 4.60 -5.05 4.60 -0.55 0.05 -2.55 1.90 -2.55 2.40 0 0.25 -0.50 0.85 -1.10 1.30 -1.10 0.75 -1.05 0.80 0.50 0.05 1.50 -0.70 1.60 -0.70 1.60 0.10 -0.05 1.40 -2.10 2.55 -6.30 3.50 -3.25 0.75 -6.30 0.85 -17.45 0.85 -16.35 -0.05 -20.55 -0.55 -32.50 -3.65 -1.10 -0.25 -3.25 -0.80 -4.75 -1.10 -3.55 -0.80 -4 -1.20 -4 -3.30 0 -1.30 0.35 -2.05 1.25 -2.75 1.55 -1.25 1.05 -2.50 -1.60 -3.80 -1.30 -0.60 -2.25 -1.65 -3.30 -3.60 -2.70 -5.10 -2.55 -4.95 -17.10 -16.40 -7.60 -5.95 -9.60 -8.50 -11.70 -14.85 -2.40 -7.25 -10.10 -21.20 -13.95 -25.25 -0.80 -0.80 -1.90 -1.50 -2.40 -1.50 -1.25 -0.05 -2.70 -1.15 -2.70 -2.15 0 -0.45 -0.55 -1.40 -1.20 -2.15 -0.85 -1.05 -1.75 -1.45 -3.60 -1.65 l-2.45 -0.30 -0.15 -2.35 -0.15 -2.40 3 0 c2.45 0 3.25 -0.20 4.35 -1.20 1.35 -1.10 1.35 -1.20 0.60 -2.40 -0.90 -1.35 -1.75 -1.60 -6.90 -2.20 -1.85 -0.15 -3.65 -0.70 -4.20 -1.15 -0.85 -0.75 -8.25 -1.55 -14.65 -1.50 -1.20 0 -2.15 -0.25 -2.15 -0.55 0 -0.25 0.25 -0.50 0.55 -0.50 0.70 0 0.10 -2.95 -0.80 -4 -0.40 -0.40 -0.70 -0.90 -0.75 -1.10 0 -0.20 -0.60 -1.60 -1.25 -3.10 -1.15 -2.60 -1.30 -2.75 -2.85 -2.65 -0.90 0.05 -1.95 0.30 -2.35 0.55 -0.40 0.25 -1.80 0.40 -3.10 0.35 -1.30 -0.05 -2.50 0.15 -2.70 0.45 -0.40 0.65 -12.75 0.70 -12.75 0 0 -0.25 -0.50 -0.50 -1.15 -0.50 -0.75 0 -2.45 1.30 -5 3.85 -3.80 3.80 -4.60 5.15 -3.10 5.15 0.40 0 0.75 0.30 0.75 0.70 0 0.45 -1.15 0.75 -4.25 1 -5.45 0.40 -11.55 2.40 -20.25 6.65 -6.40 3.10 -6.90 3.25 -9.60 3 -2.40 -0.20 -3.40 0 -6.85 1.40 -2.20 0.90 -6.20 2.80 -8.90 4.20 -4.05 2.15 -5.30 2.60 -7.40 2.55 -1.35 0 -3.40 0.15 -4.50 0.30 -1.75 0.30 -1.90 0.25 -1.35 -0.45 0.80 -0.95 -0.15 -1.35 -3.35 -1.25 -1.25 0 -2.35 -0.25 -2.55 -0.60 -0.20 -0.35 -0.65 -0.50 -0.95 -0.30 -0.30 0.20 -1.05 0.05 -1.65 -0.25 -0.65 -0.35 -1.70 -0.70 -2.35 -0.75 -0.65 -0.10 -1.40 -0.45 -1.60 -0.80 -0.25 -0.35 -0.45 -0.45 -0.45 -0.25 0 0.20 -0.50 0.10 -1.10 -0.25 -0.65 -0.35 -1.35 -0.55 -1.60 -0.50 -0.25 0.10 -0.60 -0.05 -0.75 -0.35 -0.15 -0.25 -0.65 -0.55 -1.05 -0.65 -0.40 -0.10 -1.05 -0.45 -1.50 -0.85 -0.65 -0.65 -0.80 -0.40 -1.40 1.75 -0.80 3.05 -5.10 16 -8.50 25.70 -5.50 15.60 -6.90 23.75 -5.60 31.85 0.30 1.95 0.55 7.70 0.55 12.75 0 7.30 -0.20 10.10 -1.05 13.90 -1.20 5.60 -3.65 12.70 -5.60 16.35 -1.60 2.95 -1.65 3.15 -0.65 3.15 0.90 0 1 1.30 0.15 1.80 -0.30 0.20 -2.85 0.75 -5.60 1.25 -11.65 2 -21.50 4.80 -31.55 8.90 -5.80 2.40 -14.20 3.25 -16.80 1.70 -1.40 -0.85 -1.45 -0.85 -2.85 0.50 -1.20 1.15 -1.80 1.35 -4.15 1.30 -1.45 -0.05 -3.70 -0.25 -4.95 -0.50z m86.25 -254.80 c0.30 -1.35 5.15 -8.50 10.40 -15.35 1.90 -2.55 3.10 -3.60 4.50 -4.05 1 -0.35 2.20 -0.90 2.55 -1.25 1.20 -0.95 4.05 -10.85 7.10 -24.50 0.75 -3.45 1.40 -6.30 1.45 -6.40 0.15 -0.15 4.80 -0.90 10.50 -1.60 5.30 -0.65 8.15 -1.20 15.25 -2.80 10.25 -2.30 14.05 -3.25 15.40 -3.75 0.75 -0.30 3.25 -1.10 5.60 -1.75 6.85 -1.95 8.20 -2.35 8.75 -2.70 0.30 -0.20 1.40 -0.65 2.50 -1 1.10 -0.35 2.70 -0.90 3.50 -1.25 2.30 -0.95 8.20 -3.50 11 -4.80 1.40 -0.60 3.85 -1.20 5.50 -1.35 l3 -0.20 3.75 3.95 c8.90 9.40 16 17.80 19.60 23.25 0.70 1 1.10 1.15 3.75 1 2.35 -0.10 3.20 0.05 4.20 0.85 1.80 1.40 7 4.05 8 4.05 1 0 3.45 -2.20 3.45 -3.10 0 -2 -4.60 -11.50 -10.95 -22.65 -3.90 -6.85 -4.55 -8.30 -4.55 -10.30 0 -1.25 0.15 -2.45 0.35 -2.65 0.20 -0.20 0.30 -2.10 0.25 -4.20 l-0.15 -3.85 2.60 -1.50 c5.05 -2.95 6.05 -3.70 14.10 -10.80 7.25 -6.35 9.55 -8.75 10.70 -11.25 0.75 -1.50 0.75 -1.75 -0.05 -2.95 -0.50 -0.70 -1.80 -1.75 -2.95 -2.25 -1.15 -0.50 -2.50 -1.35 -2.95 -1.95 -0.50 -0.60 -1.20 -1.05 -1.60 -1.05 -1.05 0 -2.25 1.35 -2.60 2.90 -0.90 3.70 -4.80 8.30 -8.10 9.60 -0.90 0.35 -1.85 1.05 -2.15 1.55 -0.25 0.50 -2.25 2.30 -4.45 3.95 -3.50 2.65 -4.20 3 -6.20 3 -2.15 0 -2.55 0.25 -6.35 3.75 -3.25 2.95 -4.40 3.75 -5.65 3.75 -2.15 0.05 -3.80 1.10 -4.75 3 -1.35 2.80 -10.85 7 -15.80 7 -2.35 0 -3.60 0.40 -7.90 2.50 -2.80 1.40 -5.45 2.50 -5.85 2.50 -0.45 0 -1 0.20 -1.30 0.45 -0.25 0.25 -1.80 0.80 -3.45 1.20 -1.65 0.45 -4.25 1.15 -5.75 1.55 -1.50 0.45 -3.50 0.80 -4.40 0.80 -0.90 0 -2.25 0.30 -3 0.70 -2.30 1.15 -15.55 3.85 -22.85 4.60 -2.95 0.30 -3.70 0.55 -4.95 1.85 -1.90 1.90 -4.45 2.75 -9.25 3.15 -3.65 0.30 -3.90 0.25 -5.45 -1.05 -1.40 -1.15 -1.80 -1.30 -3 -0.85 -4.80 1.85 -15.45 3.60 -22 3.60 -4.15 0 -5.55 -0.20 -7.20 -1 -1.15 -0.55 -2.35 -1 -2.70 -1 -0.30 0 -1.35 -0.85 -2.25 -1.85 -1.45 -1.70 -1.95 -1.90 -4.65 -2.20 -2.95 -0.25 -3.10 -0.25 -4.55 1.35 -1.20 1.30 -2 1.65 -3.70 1.80 -2.10 0.15 -2.35 0.30 -3.65 2.60 l-1.45 2.45 1.05 1.10 c0.55 0.60 2.45 1.50 4.15 2 1.70 0.45 3.65 1.05 4.35 1.30 2.10 0.70 16.40 1.55 20.05 1.20 1.85 -0.20 4.05 -0.20 4.90 0 1.40 0.30 1.55 0.50 1.55 2.15 0 2.25 -2.95 15.15 -5 21.60 -0.80 2.60 -2.05 5.50 -2.75 6.45 l-1.25 1.75 1 1.05 c1.40 1.50 1.25 4.05 -0.50 9.65 -2.25 6.90 -2.40 8.85 -1 10.35 l1.15 1.20 1.35 -0.95 c0.75 -0.55 1.55 -1.60 1.75 -2.35z m-33.45 -145.60 c0.25 -0.25 1.45 -0.55 2.70 -0.70 2.85 -0.30 8.95 -1.75 10.10 -2.35 0.50 -0.30 1.35 -0.50 1.95 -0.50 0.55 0 1.40 -0.20 1.90 -0.45 0.45 -0.25 1.75 -0.60 2.85 -0.75 1.05 -0.15 3.20 -0.50 4.70 -0.75 1.50 -0.30 4 -0.70 5.50 -0.85 1.50 -0.15 3.20 -0.50 3.75 -0.70 0.55 -0.25 2.15 -0.55 3.50 -0.70 1.40 -0.15 3.65 -0.50 5 -0.80 1.40 -0.30 3.85 -0.65 5.50 -0.85 1.65 -0.15 3.35 -0.55 3.75 -0.95 0.45 -0.35 1.30 -0.55 1.95 -0.35 0.60 0.15 1.60 0.05 2.20 -0.25 0.60 -0.25 1.55 -0.70 2.10 -0.90 0.90 -0.30 0.90 -0.40 0.15 -0.55 -0.50 -0.15 -0.90 -0.50 -0.90 -0.80 0 -0.45 3.45 -0.60 13.40 -0.65 20.30 0 26.30 -1.10 28.20 -5.05 0.50 -1.05 1.15 -1.45 2.65 -1.75 3.50 -0.60 5.75 -0.50 5.75 0.35 0 0.40 -0.40 0.80 -0.85 0.80 -0.50 0.05 -0.20 0.25 0.60 0.45 2.50 0.55 15.15 0.60 15.50 0 0.15 -0.25 0.80 -0.50 1.40 -0.50 2 -0.05 7.70 -2.30 9.35 -3.65 0.85 -0.75 1.80 -1.35 2.05 -1.35 0.70 0 5.40 -3.20 5.40 -3.70 0.05 -0.20 -0.30 -0.30 -0.70 -0.10 -0.50 0.15 -0.75 -0.05 -0.75 -0.70 0 -0.75 0.60 -1.05 2.90 -1.55 3.50 -0.70 9.45 -2.50 13 -3.90 2.80 -1.10 5.60 -1.40 5.60 -0.55 0 0.30 -0.20 0.50 -0.50 0.50 -0.25 0 -0.50 0.25 -0.50 0.50 0 0.30 3.50 0.50 9.45 0.50 5.80 0 9.60 0.20 9.80 0.50 0.15 0.30 0.90 0.50 1.60 0.50 1.35 0 4.20 0.80 5.75 1.55 1.40 0.70 12.75 0.55 13.20 -0.15 0.20 -0.35 0.35 -2.35 0.30 -4.50 -0.10 -2.60 0.05 -3.90 0.45 -3.90 0.40 0 0.50 -2.75 0.35 -9.85 -0.25 -9.95 -0.60 -12.60 -1.50 -10.95 -0.70 1.25 -1.40 0.95 -1.40 -0.65 0 -1.95 2.95 -8.45 7.10 -15.70 6.55 -11.45 10 -20.90 9.15 -25.20 -0.60 -3.05 -0.40 -8.60 0.50 -12.65 0.45 -2.05 1 -4.75 1.20 -6 0.25 -1.25 1 -5.05 1.70 -8.50 3.15 -15.20 3.85 -24.40 2.65 -33.25 -2.35 -16.90 -3.90 -24.65 -6.05 -30.75 -0.45 -1.25 -1.35 -5 -2 -8.30 -2.10 -10.40 -4.35 -16.50 -8.65 -23.20 -3.25 -5.10 -5.90 -9.75 -9.05 -16 -3.85 -7.55 -7.10 -12.75 -8.50 -13.50 -0.90 -0.45 -1.25 -0.35 -2.30 0.70 -0.70 0.70 -1.25 1.85 -1.25 2.55 0 1.15 -0.20 1.25 -2.20 1.25 -2.05 0 -2.45 -0.25 -7.40 -4.90 -2.90 -2.65 -6.35 -5.65 -7.65 -6.60 -1.35 -0.95 -5.25 -4.45 -8.70 -7.75 -7.70 -7.35 -8.90 -8.30 -15.95 -12.50 -0.45 -0.30 -2.50 -1.55 -4.50 -2.90 -2 -1.30 -3.80 -2.35 -4.05 -2.35 -0.25 0 -0.70 -0.35 -1.05 -0.75 -1.80 -2.15 -16.10 -10.80 -20.25 -12.25 -0.55 -0.20 -2.10 -0.80 -3.50 -1.35 -3.55 -1.45 -5.90 -2.15 -7.10 -2.15 -2.05 0 -5.45 -1.60 -7.40 -3.45 -3.80 -3.65 -8.10 -5.60 -14.95 -6.80 -5.80 -1.05 -19.90 -1.45 -28.05 -0.75 -6.20 0.50 -27.10 1.40 -41.70 1.70 -4.75 0.15 -5.30 0.25 -6.15 1.25 -0.50 0.65 -0.90 1.45 -0.90 1.85 0 0.70 -0.40 0.80 -8.75 2.95 -5.10 1.30 -10.45 1.65 -11 0.75 -0.65 -1 -2.50 -0.40 -9.40 3.05 l-7.10 3.55 -13.45 13.60 c-16.15 16.25 -25.25 26.35 -29.30 32.40 -3.10 4.65 -3.50 5.85 -2.25 6.90 0.45 0.35 0.75 1.45 0.75 2.75 0 1.70 -0.80 3.60 -4 9.55 -2.20 4.05 -4.60 9.10 -5.35 11.15 l-1.35 3.70 1.40 1.15 c0.85 0.75 2 1.20 3.10 1.20 1.65 0 1.70 0.05 1.70 1.90 0 2.25 -0.95 5.40 -2.15 7.15 -0.60 0.90 -1.10 3.45 -1.60 8.50 -0.45 3.95 -1.10 9.25 -1.45 11.70 -1.50 9.50 -2 16.45 -2 28.75 -0.05 14.35 0.45 18.10 3.40 25.25 1.20 2.80 1.85 5.50 2.30 9 1.85 15.65 4.80 24.75 12.45 38.20 9.10 16 10.05 17.85 10.05 19.50 0 1.45 -0.10 1.60 -0.75 1.05 -1.20 -1 -0.95 0.60 1.55 9.55 3.95 14.25 7.90 26.05 9.70 28.95 0.25 0.40 1 1.90 1.65 3.25 0.85 1.80 4.10 5.45 11.40 12.90 l10.20 10.35 5.40 0 c3.25 0 5.35 0.20 5.35 0.50 0 0.65 18.60 0.70 19.30 0.05z"/>
  <path d="M478.70 772.25 c-0.40 -0.95 -0.05 -3.90 0.80 -6.80 0.60 -2.15 0.60 -2.35 -0.50 -3.85 -0.95 -1.30 -1.10 -1.90 -0.80 -3.95 0.55 -4.05 1.55 -8.10 2.10 -8.65 0.35 -0.35 2.10 -0.50 4.25 -0.40 l3.70 0.15 0.15 2 c0.10 1.05 -0.05 2.85 -0.35 4 -0.25 1.10 -1.20 5.10 -2.10 8.90 -1.85 7.85 -2.65 9.35 -5.25 9.35 -1.10 0 -1.85 -0.30 -2 -0.75z"/>
  <path d="M600.20 743.40 c-3.25 -3.90 -3.60 -4.15 -5.60 -4.30 -2.10 -0.15 -2.30 -0.35 -6.70 -5.90 -2.50 -3.15 -4.70 -5.70 -4.95 -5.70 -0.25 0 -0.45 -1 -0.45 -2.20 l0 -2.20 3.25 -1.10 c1.80 -0.60 3.35 -1.30 3.50 -1.55 0.20 -0.25 1.40 -0.45 2.80 -0.45 2.45 0 2.45 0 3.85 2.55 3.40 6.25 10.70 19.25 11.15 19.80 0.30 0.30 0.45 1.55 0.35 2.75 -0.15 2.05 -0.20 2.15 -1.95 2.30 -1.70 0.15 -2 -0.05 -5.25 -4z"/>
  <path d="M409.50 626.55 c0 -0.50 0.45 -1.05 1 -1.20 1.35 -0.35 1.25 -1.25 -0.20 -1.65 -0.70 -0.15 -1.60 -0.70 -2.10 -1.25 -0.85 -0.90 -0.80 -0.95 0.95 -0.95 1.30 0 1.85 0.20 1.85 0.75 0 0.50 0.50 0.75 1.50 0.75 1.30 0 1.50 0.15 1.50 1.45 0 2.50 -0.45 3.05 -2.55 3.05 -1.60 0 -1.95 -0.20 -1.95 -0.95z"/>
  <path d="M631.70 568.05 c0 -2.45 -0.20 -4.75 -0.50 -5.10 -0.35 -0.40 -0.60 -3.55 -0.60 -7.65 -0.05 -4.60 -0.30 -7.10 -0.65 -7.35 -0.40 -0.25 -0.35 -0.40 0.10 -0.60 0.60 -0.25 0.60 -0.35 0.05 -0.75 -0.55 -0.35 -0.65 -2.15 -0.55 -8.20 0.15 -5.95 0 -7.95 -0.50 -8.60 -0.55 -0.65 -0.55 -0.80 -0.05 -0.80 0.45 0 0.35 -0.35 -0.25 -1 -0.50 -0.55 -0.65 -1 -0.35 -1 0.80 0 0.75 -1.45 -0.15 -3.20 -0.40 -0.75 -0.60 -1.90 -0.45 -2.55 0.15 -0.65 -0.05 -1.90 -0.45 -2.85 -0.55 -1.15 -0.75 -3.20 -0.75 -6.60 0 -2.70 -0.15 -5.05 -0.40 -5.25 -0.30 -0.15 -0.50 -2.35 -0.50 -4.85 0.05 -3.05 -0.20 -4.85 -0.65 -5.35 -0.35 -0.45 -0.50 -1.05 -0.30 -1.35 0.20 -0.30 -0.05 -1 -0.50 -1.50 -0.50 -0.55 -0.70 -1.30 -0.55 -1.90 0.20 -0.55 0.05 -1.60 -0.25 -2.40 -0.35 -0.80 -0.55 -1.80 -0.50 -2.25 0.05 -0.45 -0.15 -1.45 -0.50 -2.25 -0.30 -0.80 -0.60 -3 -0.70 -4.90 -0.10 -1.90 -0.40 -3.55 -0.65 -3.75 -0.70 -0.45 -0.75 -21.55 -0.05 -22.40 0.35 -0.40 0.65 -4.45 0.85 -10.30 l0.25 -9.60 -4.10 -4.25 c-4.15 -4.25 -9.90 -10.55 -15.10 -16.55 -1.55 -1.75 -3.45 -3.55 -4.25 -3.95 -0.80 -0.40 -1.55 -0.85 -1.70 -1 -0.15 -0.15 -1.60 -1.25 -3.25 -2.45 -1.65 -1.20 -4.90 -3.70 -7.25 -5.50 -2.35 -1.80 -4.35 -3.30 -4.50 -3.30 -0.75 -0.05 -5 -2.05 -5 -2.35 0 -0.25 -0.45 -0.40 -1 -0.40 -0.55 0 -1 -0.25 -1 -0.50 0 -0.30 -0.60 -0.80 -1.35 -1.10 -0.80 -0.35 -2.05 -1.10 -2.90 -1.70 -0.80 -0.60 -2.40 -1.55 -3.50 -2.10 -1.10 -0.55 -2.75 -1.65 -3.70 -2.45 -0.90 -0.75 -1.75 -1.30 -1.80 -1.15 -0.10 0.15 -0.70 -0.25 -1.35 -0.80 -0.65 -0.60 -1.65 -1.25 -2.25 -1.45 -0.65 -0.15 -1.15 -0.50 -1.15 -0.75 0 -0.25 -0.30 -0.35 -0.70 -0.20 -0.35 0.15 -1 -0.10 -1.45 -0.50 -0.40 -0.40 -0.85 -0.60 -1 -0.45 -0.15 0.15 -1.35 -0.25 -2.70 -0.90 -1.30 -0.65 -2.80 -1.20 -3.30 -1.20 -0.50 -0.05 -1.15 -0.40 -1.35 -0.80 -0.25 -0.35 -0.60 -0.50 -0.80 -0.35 -0.15 0.20 -1.25 -0.10 -2.40 -0.70 -1.10 -0.55 -2.05 -0.95 -2.05 -0.85 0 0.10 -1.05 -0.40 -2.30 -1.15 -1.30 -0.75 -2.45 -1.20 -2.65 -1.05 -0.15 0.15 -0.30 0.05 -0.30 -0.20 0 -0.60 -3.60 -1.45 -5.10 -1.25 -1.05 0.10 -1.25 -1.85 -0.30 -2.80 0.85 -0.85 0 -2.40 -3.80 -6.50 -2.90 -3.20 -3.30 -3.85 -3.30 -5.60 l0 -2 2.90 0 c1.65 0 3.45 0.35 4.35 0.80 2.35 1.25 11.70 5.95 14.75 7.40 6.50 3.10 12.55 7.05 17.25 11.30 3.65 3.30 8.45 6.65 13.80 9.60 2.55 1.40 4.90 2.75 5.15 3 0.95 0.80 7.25 4.40 7.65 4.40 0.55 0 4.80 2.75 7.35 4.75 11 8.55 20.35 19.05 26.70 30 1.10 1.95 4.20 8.45 6.85 14.50 2.70 6.05 5.50 12.25 6.30 13.80 1.50 3 3.45 4.95 5 4.95 0.95 0 1.10 0.50 2 6.25 0.60 3.95 1.35 21.90 1.75 41.75 l0.30 13.25 -1.55 7.50 c-0.85 4.15 -2.40 11 -3.50 15.25 -1.85 7.35 -1.90 7.80 -1.15 9.35 0.90 1.90 0.50 4.95 -1.70 12.50 -1.40 4.80 -2.70 6.65 -4.70 6.65 l-1.30 0 0 -4.45z"/>
  <path d="M365.05 552.50 c-5.80 -8 -10 -31.70 -10.05 -56.50 0 -11.85 1.70 -26.60 3.50 -30.65 0.55 -1.15 1 -3 1 -4.10 0 -1.10 0.45 -2.95 1 -4.10 l0.95 -2.15 -1.25 -1.45 c-1.55 -1.85 -1.55 -4.35 -0.20 -15.30 2.25 -18 6.10 -34.10 9.10 -38.45 2.20 -3.15 9.60 -12.60 11.35 -14.45 1 -1.05 2.85 -2.50 4.15 -3.15 2.45 -1.25 3.40 -2.40 3.40 -4.20 0 -1.20 3.50 -5.15 6 -6.75 1 -0.60 2.50 -1.30 3.40 -1.50 0.90 -0.15 2.25 -0.85 3.05 -1.50 2.35 -2 9.55 -3.10 9.55 -1.50 0 0.40 -0.35 0.75 -0.75 0.75 -0.40 0 -0.75 0.25 -0.75 0.50 0 0.30 -0.25 0.50 -0.50 0.50 -0.55 0 -2.75 1.50 -4.85 3.25 -0.65 0.55 -3.10 4.80 -5.40 9.50 -2.35 4.65 -5.95 11.75 -8 15.75 -2.05 4 -3.75 7.50 -3.75 7.85 0 0.30 -0.80 3.35 -1.80 6.75 -2.45 8.35 -3.10 11.15 -3.95 18.15 -1.95 15.30 -3.15 24 -4.25 30.25 -0.55 3.15 -1.45 9.25 -2 13.50 -0.55 4.25 -1.80 13.60 -2.75 20.75 -0.95 7.15 -2 14.80 -2.30 17 -0.35 2.45 -0.45 11.55 -0.35 23.65 l0.15 19.60 -1.10 0 c-0.75 0 -1.65 -0.70 -2.60 -2z"/>
  <path d="M350.50 433.55 l0 -2.55 2.30 0 2.25 0 -0.15 2.40 -0.15 2.35 -2.10 0.15 -2.15 0.15 0 -2.50z"/>
  <path d="M525 371.15 c0 -0.25 -0.95 -0.45 -2.10 -0.55 -1.15 -0.05 -2.25 -0.35 -2.40 -0.55 -0.15 -0.25 -1.40 -0.45 -2.85 -0.45 -1.40 0 -2.85 -0.15 -3.20 -0.40 -0.35 -0.20 -1.65 -0.45 -2.85 -0.50 -1.25 -0.05 -2.35 -0.25 -2.55 -0.50 -0.15 -0.25 -1.15 -0.50 -2.25 -0.50 -1.05 -0.05 -2.05 -0.30 -2.25 -0.55 -0.15 -0.30 -1.05 -0.50 -1.95 -0.50 -0.95 0 -1.85 -0.20 -2 -0.45 -0.20 -0.25 -1 -0.50 -1.80 -0.55 -0.80 -0.05 -1.60 -0.30 -1.75 -0.50 -0.15 -0.20 -0.75 -0.50 -1.30 -0.55 -0.55 -0.10 -1.10 -0.35 -1.25 -0.60 -0.15 -0.20 -3.50 -0.40 -7.50 -0.45 -4 -0.05 -7.35 -0.25 -7.50 -0.45 -0.15 -0.20 -1.35 -0.40 -2.75 -0.50 -1.35 -0.05 -2.55 -0.35 -2.65 -0.60 -0.10 -0.30 -0.75 -0.35 -1.40 -0.20 -0.65 0.15 -1.50 0.05 -1.90 -0.25 -0.35 -0.30 -1.05 -0.45 -1.50 -0.25 -0.45 0.15 -0.80 0.10 -0.80 -0.10 0 -0.25 -0.85 -0.50 -1.85 -0.60 -1 -0.05 -2 -0.35 -2.15 -0.65 -0.25 -0.30 -7.25 -0.45 -21.05 -0.35 -18.70 0.15 -20.85 0.25 -22.25 1.05 -0.90 0.45 -1.85 1.20 -2.20 1.60 -0.30 0.35 -0.90 0.55 -1.30 0.40 -0.40 -0.15 -0.70 0 -0.70 0.30 0 0.30 -0.40 0.55 -0.95 0.55 -0.50 0 -1.20 0.35 -1.55 0.75 -0.35 0.40 -0.90 0.75 -1.25 0.75 -0.35 0 -0.95 0.35 -1.30 0.85 -0.60 0.70 -0.75 0.50 -1.05 -1.90 -0.70 -5.85 -0.60 -6.35 1.40 -7.20 1.55 -0.65 14.65 -3.95 26.95 -6.75 7.40 -1.70 8.90 -2.10 11.25 -2.85 1.65 -0.55 4.75 -0.75 11.75 -0.75 10.20 0 12.35 0.20 28.75 2.90 20.15 3.25 18.15 2.75 18.65 4.70 0.65 2.60 2.20 4 4.35 4 1.70 0 2.30 0.45 6.95 5.25 4.10 4.30 5.05 5.55 5.05 6.75 0 0.85 -0.20 1.50 -0.50 1.50 -0.25 0 -0.50 -0.15 -0.50 -0.35z"/>
  <path d="M653 1007.90 c-6.45 -3.85 -11.35 -7.65 -12.90 -9.90 -1.50 -2.20 -2.70 -6.50 -2.50 -8.85 0.15 -1.80 0.25 -1.90 1.90 -2.05 1.50 -0.10 2.40 0.40 6.75 3.85 2.75 2.15 6.20 5.05 7.70 6.35 3.10 2.85 5.70 7.50 5.45 9.85 -0.15 1.50 -0.25 1.60 -2.40 1.70 -1.55 0.05 -2.80 -0.25 -4 -0.95z"/>
  <path d="M630 994.20 c0 -0.40 -0.20 -0.65 -0.45 -0.50 -0.25 0.15 -0.70 -0.05 -1.05 -0.45 -0.35 -0.45 -1 -0.75 -1.45 -0.70 -1 0.15 -2.60 -0.50 -3.45 -1.40 -0.40 -0.35 -0.90 -0.55 -1.15 -0.40 -0.25 0.20 -0.45 0.15 -0.45 -0.10 0 -0.20 -1.05 -0.95 -2.35 -1.65 -6.45 -3.35 -17.70 -14.15 -20.35 -19.50 -0.20 -0.40 -1.20 -2.30 -2.30 -4.25 -3.05 -5.45 -4.10 -7.80 -4.25 -9.20 -0.15 -2.40 -0.90 -5.30 -1.45 -6 -0.30 -0.40 -0.60 -1.80 -0.65 -3.10 -0.05 -1.35 -0.25 -2.70 -0.45 -3.05 -0.25 -0.35 -0.50 -2.55 -0.60 -4.90 -0.20 -5.70 -0.15 -5.50 -0.95 -5.50 -0.35 0 -0.65 -0.35 -0.65 -0.75 0 -1.25 2.85 -0.90 5.15 0.70 1.15 0.75 2.80 1.75 3.70 2.20 1.15 0.65 1.75 1.45 2.40 3.35 0.60 1.80 2.05 3.85 5.15 7.35 4.50 5.05 9.30 10.95 10.75 13.15 1.15 1.75 6.60 15.70 7.30 18.75 0.95 3.95 1.60 4.50 5 4.35 l2.90 -0.15 0.35 3.65 c0.15 2 0.45 4.85 0.65 6.30 0.25 2.20 0.15 2.60 -0.55 2.60 -0.45 0 -0.80 -0.35 -0.80 -0.80z"/>
  <path d="M318.30 886.40 c-0.60 -2.25 -0.35 -3.40 0.70 -3.40 0.85 0 1 0.35 1 2.25 0 2.45 -1.15 3.20 -1.70 1.15z"/>
  <path d="M317.70 880.25 c-0.20 -0.40 -0.50 -0.60 -0.75 -0.50 -0.25 0.15 -0.55 -0.35 -0.75 -1.10 -0.15 -0.75 -0.65 -1.65 -1.05 -2 -0.50 -0.40 -0.65 -1.05 -0.45 -1.80 0.15 -0.75 0.05 -1.45 -0.40 -1.80 -0.35 -0.30 -0.55 -1.10 -0.45 -1.70 0.15 -0.65 -0.20 -2 -0.80 -3 -0.55 -0.95 -0.80 -1.85 -0.55 -1.95 0.30 -0.10 0.15 -0.80 -0.25 -1.55 -0.40 -0.75 -0.60 -1.70 -0.40 -2.15 0.15 -0.40 -0.10 -1.15 -0.60 -1.70 -0.60 -0.65 -0.75 -1.35 -0.55 -2.25 0.20 -0.70 0.10 -1.25 -0.15 -1.25 -0.75 0 -1.10 -1.60 -0.50 -2.30 0.30 -0.35 0.40 -0.90 0.20 -1.20 -0.20 -0.35 -0.65 -1.70 -1 -3.05 -0.65 -2.40 -0.65 -2.45 0.40 -2.45 0.90 0 1.50 0.90 3.45 5.65 2.45 5.90 3.30 8.75 4.90 16.60 1.10 5.25 1.30 10.25 0.50 10.25 -0.30 0 -0.65 -0.35 -0.80 -0.75z"/>
  <path d="M299.50 840.15 c0 -0.70 0.25 -2.75 0.55 -4.50 0.55 -3.10 0.60 -3.15 2.15 -3.15 1.50 0 1.70 0.25 2.70 2.65 1.10 2.70 1.45 5.85 0.65 5.85 -0.25 0 -0.55 -0.25 -0.65 -0.60 -0.45 -1.25 -3.90 -0.90 -3.90 0.40 0 0.40 -0.35 0.70 -0.75 0.70 -0.50 0 -0.75 -0.50 -0.75 -1.35z"/>
  <path d="M292.80 837.75 c0.25 -0.55 -0.05 -0.75 -1.25 -0.75 -0.85 0 -1.55 0.25 -1.55 0.50 0 0.30 -0.25 0.50 -0.55 0.50 -0.75 0 -0.25 -8.55 0.55 -10.05 0.40 -0.70 1.05 -0.95 2.75 -0.95 l2.25 0 0 3.45 c0 5.55 -0.50 8.05 -1.55 8.05 -0.60 0 -0.80 -0.25 -0.65 -0.75z"/>
  <path d="M256.35 799 c-0.45 -1.10 -1.05 -2 -1.30 -2 -0.30 0 -0.40 -0.45 -0.30 -1 0.20 -1.15 -0.95 -7.10 -1.55 -8.10 -0.60 -0.85 -0.60 -17.90 0 -17.90 0.20 0 0.25 -0.35 0.10 -0.80 -0.20 -0.55 0 -0.75 0.80 -0.60 1.20 0.15 1.15 0.10 4.15 15.95 1.20 6.60 1.30 9.30 0.45 14.85 -0.35 2.15 -1.30 2 -2.35 -0.40z"/>
  <path d="M182 557 c-0.35 -1.10 -0.85 -2 -1.05 -2 -0.25 0 -0.30 -0.30 -0.15 -0.70 0.15 -0.40 0.05 -0.85 -0.25 -1.05 -0.30 -0.15 -0.55 0.05 -0.55 0.45 0 1.50 -1.50 0.80 -2.25 -1 -0.80 -2 -1 -5.55 -0.30 -6.60 0.25 -0.40 1.10 -0.60 2.10 -0.50 1.55 0.15 1.75 0.35 2.80 3.40 1.50 4.40 2.10 10 1.05 10 -0.40 0 -1.05 -0.85 -1.40 -2z"/>
  <path d="M167.95 496.40 c-0.30 -5.05 -0.05 -6.40 1.05 -6.40 0.90 0 1 0.35 1 3.75 0 3.40 -0.10 3.75 -1 3.75 -0.70 0 -1 -0.35 -1.05 -1.10z"/>
  <path d="M168.30 456.40 c0.20 -0.30 0.30 -1.65 0.25 -3 -0.10 -1.90 0.05 -2.40 0.70 -2.40 0.50 0 0.75 -0.35 0.70 -0.85 -0.20 -1.45 0.60 -6.80 1.20 -8.25 0.35 -0.80 0.90 -1.40 1.20 -1.40 0.50 0 0.65 1.40 0.60 5.40 0 6.35 -0.55 10.05 -1.50 10.65 -1.10 0.65 -3.60 0.55 -3.15 -0.15z"/>
  <path d="M261.65 289.15 c-0.35 -0.10 -0.65 -1 -0.65 -1.90 0 -1.30 0.35 -1.95 1.50 -2.75 0.80 -0.60 2.65 -2.05 4.10 -3.30 4.45 -3.80 10.55 -7.70 12.05 -7.70 1.40 0 1.85 0.70 0.75 1.20 -0.35 0.15 0.35 0.10 1.60 -0.05 1.25 -0.15 2.50 -0.45 2.75 -0.65 0.30 -0.25 1.70 -0.50 3.15 -0.55 2.40 -0.20 2.60 -0.10 2.60 0.90 0 1.80 -5 5.35 -12.75 9.10 -3.85 1.85 -7.95 3.95 -9.10 4.70 -2 1.25 -4.40 1.65 -6 1z"/>
  <path d="M145.35 206.65 c-0.20 -0.15 -0.35 -1 -0.35 -1.80 0 -1.90 1.65 -3.35 3.85 -3.35 2.35 0 2.10 0.65 -0.80 2.45 -1.20 0.75 -0.15 1.50 1.45 1.05 1.35 -0.40 1.50 -0.35 1.50 0.80 0 1.10 -0.20 1.20 -2.65 1.20 -1.50 0 -2.85 -0.15 -3 -0.35z"/>
 </g>
 <g fill="#000000">
  <path d="M384.75 1066.95 c-3.85 -0.90 -11.95 -3.60 -13.60 -4.50 -0.95 -0.55 -2.30 -0.95 -3.10 -0.95 -2.30 0 -5.65 -1.20 -9.45 -3.45 -7.90 -4.60 -12.45 -9.65 -17.40 -19.30 -1.55 -3 -3.65 -6.60 -4.65 -8 -2.90 -3.95 -3.85 -5.70 -5.25 -10 -2.85 -8.80 -4.55 -18.10 -6.90 -37.50 -0.75 -6.50 -0.75 -30.75 0.05 -35.10 0.70 -3.65 0.70 -22.65 0.05 -28.15 -0.45 -3.55 -1.65 -10.25 -4.95 -27.25 -0.30 -1.35 -0.85 -5.30 -1.30 -8.75 -1.95 -15.20 -3.50 -21.15 -8.90 -33.55 -2.35 -5.35 -4.85 -11.15 -5.60 -12.95 -0.75 -1.80 -1.40 -3.30 -1.50 -3.40 -0.20 -0.25 -1.05 5.55 -2 13.65 -0.45 3.85 -1.45 11.60 -2.25 17.25 -1.35 9.50 -1.55 10.35 -2.75 11.40 -0.70 0.60 -1.95 1.10 -2.75 1.10 -1.35 0 -1.40 0.15 -1.75 2.65 -0.80 6.40 -2.30 17.95 -2.85 21.80 -0.75 5.25 -1.85 6.80 -5.20 7.30 -1.30 0.20 -2.75 0.60 -3.20 0.90 -1.25 0.75 -3.95 -0.10 -5.10 -1.70 -0.65 -0.85 -1.10 -2.60 -1.40 -5.50 -0.50 -5.30 -2.70 -14.50 -5.90 -24.45 -1.35 -4.25 -2.60 -8.45 -2.80 -9.30 -0.20 -0.90 -1 -2.30 -1.80 -3.20 -1.45 -1.65 -3.50 -6.30 -4.55 -10.50 -0.30 -1.25 -0.70 -5.60 -0.95 -9.75 -0.20 -4.10 -0.65 -9.50 -1 -12 -0.75 -5.25 -0.40 -16.65 0.90 -32.05 0.55 -6.25 0.70 -10.85 0.45 -12.25 -2.60 -14.20 -4.90 -24.95 -5.95 -27.70 -0.90 -2.40 -8.45 -18.40 -12.40 -26.30 -5.05 -10.15 -7.05 -14.65 -14.95 -33.85 -8.25 -20 -8.75 -21.05 -12.85 -28.40 -5.85 -10.50 -14.35 -28.50 -18.30 -38.95 -2.85 -7.50 -15.20 -50.30 -18.35 -63.60 -2.70 -11.40 -6.25 -34.55 -7 -46.15 -0.45 -6.50 -0.55 -7 -3 -13.05 -1.40 -3.45 -2.55 -7 -2.55 -7.90 0 -2 1.95 -3.95 4.15 -4.15 1.50 -0.15 1.60 -0.30 2 -2.65 0.45 -2.50 -0.15 -8.65 -1.15 -12.25 -0.55 -2 -3.05 -3.70 -6.25 -4.30 -1.75 -0.30 -4.55 -1.40 -9 -3.50 -1.75 -0.80 -4.25 -2.35 -7.05 -4.30 -1.05 -0.75 -2.50 -1.75 -3.20 -2.25 -2.60 -1.75 -8.90 -6.50 -12.40 -9.40 -2 -1.65 -4.60 -3.50 -5.75 -4.15 -1.15 -0.65 -2.90 -1.95 -3.85 -2.85 -0.95 -0.90 -3.65 -2.95 -6 -4.50 -2.35 -1.60 -4.95 -3.50 -5.80 -4.30 -1.35 -1.30 -1.80 -1.45 -3.50 -1.20 -4.30 0.70 -8.45 -3.65 -20.15 -21 -11.70 -17.35 -15.70 -24.55 -21.95 -39.25 -1.10 -2.60 -3.10 -7 -4.35 -9.75 -10.90 -23.15 -14.05 -34.95 -14.55 -54.25 -0.20 -7.15 -0.15 -7.95 0.90 -10.50 1.35 -3.15 2.80 -4.15 5.45 -3.70 l1.85 0.25 0.30 -2.90 c0.55 -4.30 3.20 -17.20 4.40 -21.05 0.55 -1.85 1.50 -4.25 2.05 -5.35 0.60 -1.10 1.35 -3.50 1.65 -5.30 1.15 -6.40 4.80 -13 11.55 -20.75 8.35 -9.65 30.15 -30.45 32.45 -31 0.75 -0.20 2.10 -0.05 3.10 0.30 1.70 0.60 1.75 0.55 4.30 -1.90 2.45 -2.40 8.40 -6.60 14.55 -10.20 1.65 -1 5.05 -3 7.50 -4.45 2.50 -1.45 6.75 -4.10 9.50 -5.95 6.70 -4.45 8.20 -5.10 10.75 -4.70 1.45 0.25 2.30 0.75 3.05 1.75 0.75 1.05 1.45 1.45 3.05 1.55 2.60 0.20 4.10 1.95 4 4.70 -0.05 1.30 0.20 2.05 0.85 2.50 0.50 0.35 1.20 1.35 1.55 2.15 0.90 2.25 -1.30 6.90 -4.40 9.10 -5.05 3.60 -6.10 4.85 -6.10 7.20 0 1.95 -0.25 2.40 -2.10 3.95 -1.15 1 -2.25 1.80 -2.45 1.80 -1 0 -3.70 5.05 -6.25 11.60 -2.55 6.55 -2.75 7.30 -2.25 8.95 0.75 2.55 0.75 2.60 -1.15 4.90 -2.20 2.65 -2.80 5.85 -1.60 8.40 1.10 2.30 0.40 4.50 -1.85 6 l-1.70 1.05 -0.30 8.40 c-0.20 4.60 -0.35 14.70 -0.35 22.40 0 11.60 0.20 15.25 1 20.80 1.60 10.45 1.70 11.85 1 13.95 -0.60 1.80 -0.50 2.05 2 7.05 3.80 7.55 10.45 19.55 11.85 21.25 0.65 0.85 2.60 3.45 4.25 5.90 7.65 11 19.05 22.85 22.05 22.85 0.40 0 0.95 -0.95 1.30 -2.10 0.35 -1.20 1.60 -4.75 2.80 -7.95 1.30 -3.50 2.40 -7.50 2.75 -10 2.25 -16.80 4.25 -24.25 10.20 -38.35 2.55 -5.95 3.90 -7.60 6.40 -7.60 1.95 0 3.90 2 3.90 4 0 0.80 -1.05 3.95 -2.30 6.90 -4.35 10.10 -7.45 19.85 -6.75 21 0.60 1 4.45 -2 5.90 -4.65 2.45 -4.55 9.70 -15.40 14.35 -21.50 2.55 -3.30 5.40 -7.35 6.45 -9 1 -1.65 2.60 -3.50 3.55 -4.10 0.95 -0.60 2.80 -2.65 4.10 -4.50 6.95 -9.80 19.20 -24.60 25 -30.20 7.85 -7.50 14.15 -12 31.70 -22.55 15.20 -9.15 21 -12.30 36.25 -19.90 11.95 -5.90 20.40 -9.40 25.50 -10.50 1.10 -0.25 3 -0.75 4.25 -1.15 5.80 -1.95 21.60 -4.05 39.25 -5.35 4.15 -0.25 12.10 -0.95 17.75 -1.50 5.65 -0.55 12.50 -1.20 15.30 -1.45 2.75 -0.30 8.40 -1.20 12.50 -2 4.10 -0.80 11.95 -2.30 17.45 -3.30 9.50 -1.70 12.35 -2.20 22.25 -3.95 20.70 -3.70 24.70 -4.30 28.75 -4.30 1.50 0 3.80 -0.35 5.10 -0.80 1.95 -0.65 2.85 -0.70 4.65 -0.30 1.25 0.30 6.55 0.70 11.75 0.85 18.15 0.50 28 1.65 42.25 4.80 1.25 0.25 3.85 0.80 5.75 1.25 1.95 0.40 3.95 0.95 4.50 1.20 0.55 0.25 1.70 0.60 2.50 0.70 1.90 0.35 5.85 1.45 6.50 1.85 0.30 0.15 1.65 0.60 3 0.90 1.40 0.35 2.85 0.80 3.25 0.95 0.40 0.15 0.85 0.30 1 0.35 0.15 0.05 0.90 0.35 1.65 0.65 2.10 0.90 2.90 0.70 4.85 -0.90 1.20 -1.05 2.25 -1.50 3.50 -1.50 1.50 0 5.60 1.70 8.75 3.65 2.95 1.80 5.75 3.65 8 5.15 2.15 1.40 6 2.80 13 4.70 6.25 1.70 7.45 2.10 8.50 2.90 1.45 1.05 2.25 2.70 1.95 3.95 -0.20 0.70 0.25 1.15 1.90 1.90 23.90 10.50 31.25 15.20 40.90 26.20 1.35 1.50 2.55 2.65 2.65 2.55 0.10 -0.15 1.95 -2.85 4.10 -6 9.35 -13.60 13.50 -20.05 15.90 -24.95 l2.60 -5.20 0 -11.55 0 -11.55 -1.50 -3 c-0.80 -1.65 -1.40 -3.55 -1.30 -4.25 0.15 -1.35 1.85 -3.50 2.80 -3.50 0.35 0 1 -0.45 1.45 -0.95 0.75 -0.85 0.85 -1.80 0.65 -7.15 -0.15 -3.65 -0.55 -7.25 -1.05 -8.90 -0.85 -2.75 -1.85 -8.90 -2.85 -17 -0.65 -5.40 -0.60 -5.30 -3.50 -14.50 -1.35 -4.25 -2.65 -8.70 -2.95 -9.85 -0.65 -2.65 -3.35 -6.05 -8.30 -10.45 -8.80 -7.80 -10.20 -9.35 -10.20 -11.40 0 -1.30 0.35 -2.20 1.25 -3.10 0.70 -0.70 1.25 -1.40 1.25 -1.60 0 -0.20 -1.30 -1.85 -2.85 -3.65 -1.60 -1.80 -3.45 -4 -4.15 -4.90 -0.70 -0.90 -2 -2.55 -2.90 -3.65 -0.85 -1.10 -1.75 -2.50 -1.90 -3.10 -0.15 -0.60 -1.10 -1.60 -2.10 -2.30 -3.35 -2.20 -4.10 -3.05 -4.10 -4.85 0 -2.20 1.90 -4.15 4 -4.15 0.80 0 1.50 -0.25 1.50 -0.50 0 -1 -4.50 -7.35 -7.60 -10.70 -3.10 -3.40 -4.60 -4.55 -9.50 -7.25 -5.05 -2.75 -5.80 -3.30 -6.60 -4.60 -1.05 -1.80 -1 -3.60 0.15 -4.65 0.50 -0.50 1.10 -1.65 1.30 -2.65 0.65 -3.65 4.15 -5.15 7.65 -3.25 6.20 3.30 12.15 6.10 13.90 6.55 1.15 0.30 2.25 0.90 2.40 1.30 0.15 0.40 0.65 0.75 1.10 0.75 0.70 0 1.85 0.50 6.80 3.05 1.20 0.60 2.60 0.55 4.10 -0.10 1.95 -0.90 3.30 -0.25 7.55 3.80 2.20 2.05 4.45 3.90 5 4.05 0.55 0.20 1.10 0.45 1.25 0.65 0.15 0.15 1.50 0.95 3 1.75 1.50 0.85 4.90 2.90 7.50 4.60 4.80 3.10 6 4.50 6 6.95 0 1.50 1.30 2.25 3.90 2.25 1.15 0 2.25 0.30 2.60 0.75 0.35 0.40 0.85 0.75 1.15 0.75 0.30 0 2.60 1.95 5.10 4.35 2.55 2.45 7.35 6.90 10.75 9.90 5.80 5.20 11.90 11.55 13.75 14.45 0.60 0.95 1.30 1.30 2.45 1.30 2.50 0.05 3.75 1.55 6.10 7.50 4.35 11.15 11.20 34.45 11.20 38.30 0 2.05 -2.25 4.20 -4.35 4.20 -2.65 0 -3.70 -1.90 -5.80 -10.35 -3.10 -12.40 -7.70 -26.45 -8.95 -27.20 -1 -0.65 -1.90 -0.50 -1.90 0.30 0 0.45 0.45 2.40 0.95 4.40 0.55 1.95 1.70 6.30 2.55 9.60 2.40 9.10 3.35 12.10 7.40 23.50 6.45 18.10 7.15 21.55 4.75 24 -1.15 1.15 -1.70 1.30 -3.30 1.10 -1.05 -0.15 -2.20 -0.50 -2.60 -0.85 -0.40 -0.30 -1.10 -2.30 -1.55 -4.40 -0.45 -2.10 -2.75 -9.25 -5.05 -15.85 -3.70 -10.40 -5.25 -15.45 -8.95 -28.65 -0.55 -1.95 -0.95 -2.60 -1.65 -2.60 -1.70 0 -3.05 -1.65 -3.80 -4.65 -2.15 -8.30 -12.80 -25.95 -21.40 -35.50 -2.85 -3.20 -3.75 -3.90 -6 -4.55 -3.40 -1 -18.25 -3.55 -18.65 -3.15 -0.15 0.15 0.15 1.60 0.75 3.20 0.55 1.60 1.50 4.60 2.10 6.65 0.60 2.05 1.40 4.10 1.75 4.50 0.35 0.40 1.85 3.10 3.35 6 2.05 4 2.65 5.65 2.50 6.85 -0.30 1.95 3.25 10.55 5.35 12.95 0.80 0.95 1.50 2 1.50 2.35 0 0.35 0.90 1.50 1.95 2.55 3.30 3.25 3.55 4 7.90 27.30 1.70 9.05 0.75 52.20 -1.25 59.25 -0.60 1.95 -1.70 5.55 -2.55 8.05 -0.85 2.55 -1.55 5.15 -1.55 5.85 0 2.15 -2.35 10.60 -3.70 13.20 -0.75 1.55 -2.55 3.70 -4.55 5.45 -3.20 2.85 -4.75 4.90 -5.50 7.25 -0.20 0.65 -2 3 -4 5.20 -8.75 9.65 -10.25 11.35 -10.25 11.85 0 0.65 8.65 17.90 12 23.90 1.45 2.60 5.35 9.50 8.65 15.25 3.30 5.80 6.55 11.45 7.25 12.60 1.45 2.65 1.70 2.80 4.50 2.85 1.75 0.05 2.45 0.30 3.15 1.30 0.50 0.70 2.05 5.20 3.45 10 2.20 7.50 3.05 9.70 6.10 15.25 9.60 17.35 14.65 28.50 19.45 42.75 3.70 10.95 3.80 11.75 1.65 14 l-1.20 1.30 5.20 12.95 c4.40 11 5.35 12.95 6.10 12.85 3.90 -0.75 5.10 -0.65 6.05 0.35 0.90 0.95 1.05 2.10 1.35 10.95 0.35 11.15 0.40 11.25 3.20 24.60 1.10 5.35 2.50 12.10 3.05 15 0.55 2.90 1.60 7.95 2.30 11.25 0.70 3.30 2.40 12.20 3.75 19.75 1.35 7.55 3.35 18.50 4.50 24.25 l2.10 10.50 0.40 19.25 c0.40 16.25 0.35 19.70 -0.25 22.15 -1 3.85 -0.95 4.70 0.25 5.10 0.55 0.15 1.45 0.90 2 1.65 0.95 1.15 1.05 1.75 0.80 4.85 -0.60 7.25 -3.40 23.80 -5.35 31.75 -1.95 7.95 -2 8.60 -2.10 17.20 l-0.10 9 1.60 0.35 c3.05 0.60 3 0.45 5.45 10.95 1.20 5 3.30 10.60 7.70 20.25 3.10 6.75 7.15 18.80 7.10 20.90 0 0.80 -0.40 1.95 -0.80 2.65 -0.85 1.25 -0.75 2.10 1.40 13.35 1.85 9.45 2.70 21.35 1.75 24.20 -0.40 1.35 -0.40 3.25 0 8.10 0.35 3.45 0.65 12.85 0.80 20.80 0.20 16.20 0.30 17.15 4.35 35.50 1.40 6.35 2.65 13.30 2.75 15.55 0.25 4 0.25 4.05 -1.35 5.85 -0.90 1.05 -2.15 2 -2.85 2.15 -0.65 0.20 -1.85 0.95 -2.65 1.75 -1.75 1.80 -4.85 2 -6.25 0.45 -0.70 -0.80 -1.30 -0.90 -3.05 -0.65 -4.55 0.60 -5.70 -1.90 -5.65 -12.40 0 -6.75 -0.80 -10.95 -3.25 -16.40 -0.95 -2.10 -2.50 -5.70 -3.50 -8 -2.20 -5.05 -8.10 -13.75 -14.50 -21.55 -6.45 -7.80 -7.10 -9.15 -8.90 -17.90 -0.80 -4.05 -1.55 -7.40 -1.65 -7.50 -0.10 -0.10 -0.65 1.15 -1.25 2.75 -1.05 2.85 -1.50 4.90 -5.25 24.45 l-1.80 9.55 0.20 43.45 c0.15 48.10 0.05 46.35 3.65 60.75 0.90 3.80 1.70 7.60 1.70 8.45 0 1.45 -1 2.90 -2.80 3.90 -0.80 0.45 -0.80 0.75 -0.05 5.90 0.45 3 1.25 8.05 1.85 11.20 1.90 10.65 2.60 28.90 1.45 40.30 -0.90 9.70 -2.75 15.65 -7.05 23 -0.95 1.65 -2 3.75 -2.40 4.70 -0.70 1.80 -1.60 3.40 -5.05 8.90 -1.75 2.80 -2.30 3.30 -5.35 4.65 -4.20 1.90 -6.20 2.60 -11.80 3.95 -3.70 0.90 -4.80 1 -6.30 0.55 -1.45 -0.45 -2.40 -0.40 -4.45 0.25 -4 1.20 -10.45 2.20 -13.95 2.20 -2.70 0 -3.45 0.20 -4.95 1.40 l-1.80 1.35 -17.10 0 c-11.95 0 -17.45 -0.15 -18.30 -0.60 -3.30 -1.60 -5.85 -2.65 -7.20 -2.95 -2.30 -0.55 -6.90 -2.85 -9.60 -4.80 -2.05 -1.45 -3 -1.80 -5.55 -2 -2.80 -0.20 -3.30 -0.40 -5.15 -2.20 -2.05 -2 -7.50 -12.05 -10.10 -18.75 -1.65 -4.15 -3.20 -11 -3.60 -16.30 l-0.35 -4.05 -2.65 0.25 c-2.25 0.25 -2.75 0.10 -3.65 -0.85 -0.55 -0.60 -1.30 -2.25 -1.65 -3.70 -0.70 -3.05 -6.15 -17 -7.30 -18.80 -1.45 -2.20 -6.25 -8.10 -10.75 -13.15 -3.10 -3.50 -4.55 -5.55 -5.15 -7.35 -0.65 -1.90 -1.25 -2.70 -2.40 -3.35 -0.90 -0.45 -2.60 -1.45 -3.80 -2.30 l-2.20 -1.50 -8.30 0.60 c-9.15 0.70 -22.30 2.25 -25.65 3.05 -12 2.85 -20.85 5.70 -24.80 8.05 -2.45 1.40 -4.40 1.25 -6.20 -0.55 -1.45 -1.45 -1.60 -1.50 -3.35 -0.95 -1 0.30 -4.15 1.65 -7 3 -2.85 1.35 -5.80 2.45 -6.60 2.45 -1.60 0 -5.30 2.35 -7.15 4.55 -1.50 1.75 -1.25 2.85 0.35 1.70 2.75 -1.90 6.55 0.05 6.55 3.40 0 1.20 -0.60 2.40 -2.30 4.45 -4.35 5.35 -4.90 6.70 -5.70 13.75 -0.35 3.55 -0.90 13.95 -1.15 23.15 -0.65 22.90 -2.05 29.85 -6.90 34.60 -3.70 3.65 -12.25 8.35 -22.90 12.65 -2.25 0.90 -5.05 2.30 -6.15 3.15 -1.15 0.80 -3.25 1.85 -4.70 2.30 -1.45 0.45 -3.10 1.05 -3.65 1.30 -2 0.90 -18.10 4.60 -21.10 4.90 -1.70 0.10 -3 0.40 -2.90 0.60 0.25 0.45 -2.70 1 -5.50 1 -3 0.05 -10.30 1.40 -11.50 2.20 -0.55 0.35 -2.25 1.20 -3.75 1.80 -1.50 0.60 -3.20 1.30 -3.75 1.50 -3.60 1.50 -15.80 2.05 -20.50 0.95z m5.60 -14.95 c2 -1.75 2.80 -1.85 5.30 -0.50 1 0.55 2.60 1 3.45 1 1.80 0 8.25 -1.55 10.65 -2.55 6.20 -2.55 17.60 -6.20 22.75 -7.25 5 -1.05 13.60 -2.65 17 -3.20 4.80 -0.70 7.05 -1.40 8.15 -2.40 1.65 -1.50 2.95 -2 5.75 -2.40 1.55 -0.20 3.45 -0.90 4.95 -1.90 2.20 -1.45 2.45 -1.80 3.20 -4.80 0.45 -1.80 1.65 -6.35 2.65 -10.20 1.25 -5 1.65 -7.20 1.30 -7.85 -1.95 -3.60 -3.70 -18.05 -3.40 -28.05 l0.15 -6.35 1.60 -1.65 c1.50 -1.55 1.60 -1.95 1.90 -6.40 0.20 -2.60 0.65 -6.35 1.10 -8.35 0.60 -3.05 1.10 -4 3.45 -6.85 1.50 -1.80 3.25 -3.65 3.90 -4.05 0.65 -0.45 2.05 -2.25 3.10 -4.10 2.65 -4.45 3.80 -5.35 6.80 -5 2.10 0.25 2.85 0.05 8 -2.60 3.10 -1.60 7.50 -3.65 9.80 -4.55 3.80 -1.50 4.30 -1.60 6 -1.05 1.85 0.65 2.10 0.55 8.65 -2.60 10.50 -5.15 14.50 -6.30 23.85 -6.85 19.70 -1.15 34.15 -0.90 35.95 0.55 0.50 0.45 0.95 0.45 1.85 -0.05 0.80 -0.40 1.90 -0.50 3.15 -0.25 1.05 0.15 4.40 0.50 7.45 0.65 4 0.25 5.85 0.60 6.50 1.15 0.55 0.45 2.80 1 5.45 1.35 5.15 0.65 6.25 1.45 6.25 4.60 0 2.80 -1.70 4 -5.60 4 -2.55 0 -2.95 0.10 -2.80 0.90 0.10 0.60 0.80 0.95 2.60 1.15 1.85 0.20 2.75 0.60 3.60 1.65 0.65 0.75 1.20 1.70 1.20 2.15 0 1 1.45 2.10 2.70 2.15 0.50 0 1.60 0.70 2.40 1.50 3.85 4.05 11.55 18 13.95 25.25 2.10 6.35 4.10 8.90 11.70 14.85 14.55 11.45 14.40 11.30 17.10 16.40 1 1.85 2 3 3.15 3.55 2.15 1.05 3 2.25 3 4.25 0 1.15 -0.40 1.95 -1.30 2.65 -1.80 1.40 -1.05 2.15 2.90 3 1.75 0.35 3.85 0.85 4.65 1.05 4.05 1.15 5.60 1.50 6.75 1.65 0.70 0.10 1.60 0.30 2 0.50 2.25 0.85 11.65 1.50 22.25 1.50 13.80 0.05 17.85 -0.55 23.15 -3.45 1.70 -0.90 3.70 -1.70 4.40 -1.70 1.25 0 3.80 2.05 4.25 3.45 0.20 0.60 0.55 0.60 1.95 0.15 5.60 -1.95 8.50 -5.60 9.50 -11.85 0.80 -5.15 3 -14.70 3.90 -17 0.40 -1.10 1.20 -2.65 1.75 -3.45 0.95 -1.35 1 -1.95 0.70 -10 -0.20 -4.70 -0.45 -9.10 -0.60 -9.80 -0.15 -0.70 -0.40 -8.70 -0.50 -17.85 -0.15 -10.80 -0.50 -18.50 -1 -21.95 -0.55 -3.80 -0.65 -7.20 -0.45 -11.65 0.35 -6.05 0.25 -6.60 -1.45 -13.80 -1 -4.15 -2.15 -9.45 -2.55 -11.85 -0.45 -2.40 -0.90 -4.85 -1.05 -5.50 -0.15 -0.65 -0.80 -5.55 -1.45 -10.90 -1.50 -11.95 -2.05 -25.65 -2 -47.25 0.05 -13.75 0.20 -16.95 0.85 -19.35 1.10 -3.70 1.10 -4.15 -0.40 -5.60 -1.55 -1.55 -1.55 -2.55 -0.05 -8.40 0.70 -2.55 1.40 -6 1.60 -7.65 0.45 -3.75 1.30 -6.30 3.20 -9.25 1.20 -1.85 1.75 -3.75 2.75 -9.30 0.70 -3.80 1.70 -9.30 2.20 -12.20 0.55 -2.90 1.15 -6.50 1.30 -8 0.45 -3.90 1.15 -5.90 2.40 -6.75 1.55 -1.10 3.35 -0.90 5.45 0.50 1 0.70 2.55 1.25 3.40 1.25 1.70 0 2.90 1.05 6 5.25 0.95 1.30 2.80 3.55 4.05 5 1.30 1.45 2.60 3.45 2.95 4.50 0.35 1 1.70 3.65 3.10 5.85 2.90 4.70 9.15 17.05 11.60 22.95 3.40 8.30 8.80 25.70 8.80 28.50 0 0.50 -0.45 1.40 -1.05 2 l-1.05 1.05 3.30 6.60 c1.80 3.60 3.25 6.05 3.30 5.45 0 -1.50 -3 -16.60 -5.45 -27.15 -6 -26.10 -10.95 -57.05 -11.20 -70.35 -0.10 -4.75 0 -5.15 1.10 -6.35 0.95 -1 1.70 -1.30 3.40 -1.30 2.10 0 2.15 -0.05 1.85 -1.35 -0.55 -2.70 -1.35 -4.90 -2.25 -6.65 -0.50 -0.95 -1 -2.85 -1.15 -4.25 -0.70 -7.25 -3.10 -13.55 -8.50 -22.25 l-3.55 -5.75 0 -5.50 c0 -4.55 -0.15 -5.75 -0.95 -6.90 -0.75 -1.10 -0.85 -1.80 -0.55 -3.50 0.20 -1.15 0.45 -2.90 0.55 -3.85 0.05 -0.95 0.50 -3.30 0.90 -5.20 0.40 -1.90 0.65 -3.65 0.50 -3.90 -0.15 -0.20 -1.20 -0.35 -2.30 -0.30 -1.65 0.05 -2.25 -0.20 -3.25 -1.30 -1.25 -1.45 -1.45 -3.25 -0.65 -6.55 2.15 -9.35 2.60 -35.70 0.65 -37.85 -0.80 -0.90 -0.95 -2.45 -1.25 -13.10 -0.40 -15.30 -1.65 -35 -3.40 -55.05 -0.40 -4.45 -0.35 -5.20 0.45 -6.80 0.90 -1.70 0.95 -2.45 0.50 -10.25 -0.25 -4.65 -0.65 -10.80 -0.95 -13.70 -0.30 -2.90 -0.75 -7.15 -1 -9.50 -0.30 -3.05 -1.40 -7.30 -4 -15.25 -1.95 -6.05 -4.05 -12.65 -4.60 -14.60 -0.55 -2 -1.20 -3.65 -1.45 -3.65 -0.55 0 -0.55 0.15 0.05 4.65 0.80 5.45 -0.40 7.80 -3.90 7.85 -3.10 0 -3.70 -1.25 -5.05 -10.50 -2.15 -15.25 -4.40 -25.20 -11.55 -51.75 -2.30 -8.50 -3.85 -13.25 -6.10 -18.25 -3.40 -7.70 -10.85 -22.30 -17.60 -34.45 -7.85 -14.25 -10.35 -19.80 -10.45 -23.55 -0.10 -2.25 -0.25 -2.75 -1.05 -2.90 -0.75 -0.15 -0.90 0 -0.65 1 0.20 0.70 0.65 3.60 1.05 6.45 0.40 2.85 1.10 6.95 1.55 9.05 0.90 4.40 0.65 6 -1.10 7.40 -1.75 1.35 -3.35 1.25 -5.15 -0.35 -1.40 -1.30 -1.60 -2 -2.70 -8.15 -0.65 -3.70 -1.45 -8.65 -1.80 -11 -1.20 -8.90 -5.15 -21.95 -9.15 -30.50 -1.95 -4.20 -6.35 -11.15 -10.05 -15.85 -2.35 -3.05 -2.45 -3.10 -4.75 -3.05 -1.90 0.05 -2.85 -0.25 -4.70 -1.50 -1.25 -0.90 -2.40 -1.60 -2.60 -1.60 -0.45 0 -11 -5.85 -14 -7.75 -1.35 -0.90 -4.20 -2.70 -6.25 -4 -2.05 -1.35 -6.75 -4.70 -10.40 -7.45 -7.35 -5.55 -13.15 -9.85 -15.10 -11.20 -10.85 -7.45 -23.10 -18.15 -25.35 -22.05 -0.75 -1.25 -1.35 -2.35 -1.40 -2.45 -0.15 -0.15 -4.95 -0.95 -10.25 -1.60 -2.60 -0.35 -8.75 -1.25 -13.60 -2.05 -4.85 -0.80 -9.65 -1.55 -10.65 -1.70 -1.05 -0.10 -2.25 -0.35 -2.70 -0.50 -0.45 -0.10 -1.50 -0.35 -2.30 -0.45 -0.85 -0.15 -3.30 -0.60 -5.50 -1.05 -2.20 -0.45 -4.35 -0.85 -4.75 -0.95 -0.40 -0.05 -1.10 -0.25 -1.50 -0.40 -2.45 -0.90 -6.05 -1.40 -9.65 -1.40 -4.65 0 -24.85 1.20 -33.70 2 -11.60 1.05 -37.85 4.60 -39.15 5.25 -0.85 0.45 -3.05 0.70 -6.15 0.70 -7 -0.05 -8.30 0.60 -5.50 2.85 1.10 0.85 1.40 1.50 1.40 3.10 0 3.60 -3.55 5.20 -6.95 3.15 -0.90 -0.55 -3 -1.10 -5.05 -1.25 -3.15 -0.30 -5.35 -0.15 -12.75 0.95 -2.05 0.30 -2.50 0.20 -3.90 -1 -1.80 -1.50 -1.30 -1.55 -10.85 1.25 -3.75 1.10 -5.60 1.60 -7 1.85 -0.80 0.15 -1.70 0.45 -2 0.65 -0.25 0.20 -1.30 0.55 -2.25 0.75 -0.95 0.15 -3.30 0.85 -5.25 1.50 -3.45 1.10 -10.55 3.25 -14.50 4.30 -1.10 0.30 -2.70 0.85 -3.55 1.20 -0.90 0.40 -2.45 0.85 -3.50 1.05 -2.40 0.50 -2.30 0.45 -3.20 0.85 -0.40 0.20 -3.80 1.25 -7.50 2.35 -23.60 7.20 -36.55 12.45 -42 17.15 -2.20 1.90 -2.90 3.15 -2.60 4.65 0.30 1.55 -0.95 3.40 -2.75 4.15 -1.80 0.75 -4.55 -0.25 -6.15 -2.30 -0.90 -1.15 -1 -1.75 -0.75 -3.75 0.20 -1.30 0.15 -2.40 -0.05 -2.40 -0.55 0 -7.70 4.90 -9.30 6.40 -1.05 0.95 -1.40 1.75 -1.40 3.15 0 2.50 -1.75 3.80 -7.75 5.65 -4.60 1.45 -6.40 2.60 -14.30 9.20 -1.55 1.30 -4.40 3.65 -6.30 5.20 -5.45 4.40 -14.35 13.40 -15.80 16 -0.75 1.25 -1.65 3.70 -2.05 5.40 -0.90 3.85 -1.90 5 -4.30 5 -2.05 0 -3.70 -1.40 -4.25 -3.50 -0.25 -1.15 0.25 -4.65 1 -6.65 0.25 -0.60 0.10 -0.70 -0.75 -0.50 -0.60 0.15 -2.85 2.30 -5 4.75 -3.20 3.60 -4.15 5.05 -5.05 7.80 -1.60 4.85 -3.65 9.10 -7.60 15.60 -4.65 7.65 -10.05 18.10 -11.10 21.50 -0.50 1.50 -1.30 3.20 -1.75 3.75 -1.35 1.45 -10.95 26.05 -14.20 36.25 -5.70 17.90 -5.55 17.30 -7.05 37.90 -0.80 10.75 -3.05 30.15 -4.50 38.10 -0.40 2.35 -0.75 6.15 -0.75 8.50 0 3.45 -0.20 4.50 -1 5.50 -1.20 1.55 -1.25 3.95 -0.30 13.75 0.40 3.85 1 9.80 1.30 13.25 0.55 5.40 0.80 6.40 1.75 7.30 1.60 1.50 2.05 2.45 3 6.95 0.50 2.20 1.30 4.75 1.85 5.65 0.55 0.85 1.75 4.45 2.65 8 3.60 13.85 9.15 29.10 12.55 34.30 1.25 1.95 2.80 4.30 3.50 5.25 1.40 1.95 1.50 3.05 0.50 4.95 -0.65 1.30 -0.50 1.95 3.45 11.60 5.60 13.95 8.60 20.50 11.75 25.80 3.30 5.50 3.45 7.20 1 9.20 l-1.70 1.40 2.55 5.65 c1.45 3.15 3.05 6.85 3.60 8.25 0.55 1.40 1.45 3.55 1.95 4.75 1 2.20 4.50 11.65 5.55 15.05 0.35 1.05 1.80 3 3.35 4.55 2.35 2.35 2.80 3.05 3.15 5.40 0.75 4.35 2 7.20 14.10 31.55 6.35 12.75 11.95 24.30 12.50 25.65 1.35 3.50 1.25 5.80 -0.30 7.25 -1.60 1.50 -1.55 2.50 0.05 4.85 0.80 1.20 1.15 2.25 0.95 2.90 -0.20 0.55 -0.50 4.95 -0.75 9.75 -0.55 11.30 -1.40 22.75 -2.05 27.50 -1.50 11.20 -1.90 38.40 -0.70 47.85 1.10 8.35 3.55 20.35 4.70 22.55 0.90 1.70 0.90 1.40 0.85 -14.70 -0.05 -14.55 0.05 -16.75 0.85 -18.85 1.35 -3.75 2.05 -4.90 5.05 -8.25 1.55 -1.75 2.80 -3.50 2.80 -3.90 0 -0.45 0.50 -2.35 1.05 -4.30 1.05 -3.40 1.05 -3.60 0.20 -7.15 -1 -4.30 -0.70 -6.30 1.10 -7.75 1.40 -1.10 2.75 -1.25 4.15 -0.50 0.75 0.40 1.20 0.25 2 -0.60 1.30 -1.40 4.45 -1.55 5.90 -0.20 0.55 0.50 2.40 2.95 4.10 5.50 l3.05 4.65 2.35 -0.20 c3.75 -0.40 4.55 0.95 7.30 12.15 0.65 2.75 2.10 7.05 3.20 9.50 1.10 2.45 2.65 6.05 3.45 7.95 1.25 3.10 1.60 3.50 2.90 3.65 1.50 0.20 3.50 1.90 3.95 3.45 0.10 0.50 0.50 2.25 0.80 3.90 1.25 6.55 4.10 17.10 5.05 18.70 1.05 1.75 2.40 7.05 4.65 18.05 3.05 14.90 4 24.40 3.90 38.50 -0.05 7.65 0.15 10.95 0.90 15.25 3.40 19.30 5.50 38.60 5.50 50.65 0 6.75 -0.15 8.60 -0.80 9.50 -0.40 0.60 -1.05 1.10 -1.40 1.10 -2.15 0 -1.95 4.90 0.75 15.45 1.80 7.10 3.20 10.15 6.15 13.45 1.85 2.15 2.30 3 2.30 4.50 0 1.05 -0.25 2.15 -0.55 2.45 -0.45 0.45 -0.40 0.90 0.20 1.85 1.75 2.65 7.05 7.85 8.30 8.10 0.70 0.20 2.65 0.70 4.30 1.20 4.55 1.35 16.05 3.85 18.20 3.95 0.65 0.05 1.90 -0.60 2.90 -1.45z m304.60 -24.70 c0.65 -0.80 0.20 -0.90 -7.45 -1.80 -3.70 -0.45 -6.45 -0.95 -10.10 -1.90 -1.05 -0.30 -1.90 -0.35 -1.90 -0.20 0 0.15 -0.25 0.05 -0.60 -0.30 -0.35 -0.35 -1.30 -0.60 -2.15 -0.60 -0.85 0 -1.75 -0.20 -2.05 -0.45 -0.25 -0.25 -1.55 -0.60 -2.95 -0.75 -1.35 -0.15 -3.95 -0.60 -5.75 -1 -1.80 -0.40 -3.30 -0.65 -3.40 -0.55 -0.05 0.05 0 0.45 0.20 0.90 0.35 0.95 2.75 1.85 4.85 1.85 0.80 0 2.85 0.70 4.55 1.55 5.90 3 6.10 3.05 16.05 3.45 4.70 0.15 8.85 0.35 9.30 0.40 0.45 0.05 1.10 -0.20 1.40 -0.60z m-209.15 -15.95 c0.40 -2 0.85 -7.20 1.05 -11.60 0.25 -7.90 0.25 -8.05 -1 -10.35 -0.70 -1.30 -1.40 -3.30 -1.60 -4.40 -0.40 -2.25 -0.95 -2.45 -2.60 -0.90 -0.90 0.85 -1.15 1.60 -1.15 3.70 0 3.40 0.35 4.20 1.75 4.20 1.25 0 2.40 0.90 3.30 2.65 0.75 1.35 0.20 10.30 -1.10 17.25 -0.50 2.90 -0.95 5.55 -0.90 5.80 0.10 1.15 1.50 -2.95 2.25 -6.35z m171.85 -4.15 c0.70 -0.70 -2.65 -6.05 -5.20 -8.40 -5 -4.50 -12.70 -10.25 -13.10 -9.85 -0.60 0.60 0.85 5.45 2.25 7.55 1.55 2.25 6.65 6.20 12.90 9.90 1.85 1.10 2.65 1.30 3.15 0.80z m-364.35 -174.30 c0.30 -3.85 0.25 -4.40 -0.45 -4.40 -1.10 0 -1.65 1.20 -2.05 4.50 -0.20 1.50 -0.45 3.50 -0.60 4.35 -0.25 1.40 -0.15 1.70 0.85 2.10 1.05 0.35 1.25 0.25 1.55 -0.90 0.20 -0.70 0.55 -3.25 0.70 -5.65z m490.95 -54.90 c0.20 -0.90 -0.50 -2.60 -2.50 -6.25 -1.55 -2.75 -2.70 -4.45 -2.55 -3.75 0.15 0.70 0.60 3.50 1.05 6.25 0.45 2.75 1.20 6.35 1.65 8 l0.80 2.95 0.65 -2.95 c0.35 -1.65 0.75 -3.55 0.90 -4.25z m21.75 -22.35 c0 -1.35 -1.20 -8.95 -2.55 -16.25 -0.30 -1.90 -0.80 -3.40 -1 -3.40 -0.25 0 -0.35 0.30 -0.20 0.65 0.10 0.30 0.30 2.75 0.45 5.35 0.25 4.40 1.05 11.20 1.60 13.90 0.35 1.60 1.70 1.40 1.70 -0.25z m-618.55 -173.20 c-0.55 -2.60 -1.35 -6.25 -1.70 -8.20 -0.75 -4.15 -3.50 -18.05 -4.20 -21.25 -0.25 -1.25 -0.85 -3.15 -1.30 -4.25 -0.75 -1.70 -0.90 -1.85 -1.35 -1.05 -0.40 0.65 -0.30 1.65 0.30 3.50 0.45 1.40 1.40 5.70 2.10 9.55 0.70 3.85 1.70 8.70 2.25 10.75 1.45 5.60 4.60 16 4.80 15.80 0.10 -0.10 -0.30 -2.30 -0.90 -4.85z m-21.45 -113.60 c0 -6.10 1.80 -13.05 3.50 -13.60 0.50 -0.15 1.05 -0.65 1.25 -1.15 0.15 -0.45 0.55 -5 0.80 -10.10 0.50 -10.35 2.10 -27.65 3.25 -35.25 l0.75 -5 -1.40 -1.15 c-6.70 -5.45 -10.10 -8.75 -10.40 -10.10 -0.45 -1.95 -0.95 -2.20 -2.50 -1.20 -1.50 0.95 -4.25 0.65 -5.35 -0.70 -0.40 -0.45 -1.35 -2.40 -2.15 -4.35 -1.55 -3.75 -2.30 -4.65 -13 -14.50 -8.50 -7.85 -15.20 -16.20 -18.95 -23.60 -2.15 -4.30 -2.25 -5.55 -0.55 -7.55 0.70 -0.85 1.25 -1.60 1.25 -1.75 0 -0.15 -1.20 -2.55 -2.70 -5.35 -7.10 -13.20 -9.80 -23.35 -9.80 -36.90 0 -5.05 1.10 -13.65 2.25 -17.35 0.40 -1.35 0.75 -3.35 0.75 -4.35 0 -5.30 3.95 -16.85 9.70 -28.35 5.30 -10.60 8.40 -15.15 14.45 -21.30 5.95 -6 8.15 -8.60 7.70 -9.10 -0.20 -0.15 -1.40 0.15 -2.70 0.70 -1.70 0.65 -2.65 1.45 -3.25 2.60 -0.55 1.15 -3.25 3.40 -8.55 7.25 -14.55 10.50 -18.85 14.20 -24.70 21.15 -2.65 3.25 -7.45 8.80 -10.65 12.35 -3.15 3.55 -6.70 7.60 -7.90 9 -1.20 1.40 -3.25 3.60 -4.60 4.90 -4.70 4.60 -15.45 23.50 -19.95 35.15 -2.30 5.95 -3.35 12.40 -2.75 16.90 0.15 1.30 0.30 3.80 0.25 5.50 -0.05 4.95 1.90 16.15 3.75 21.75 2.10 6.20 4.45 10.75 8.90 17.10 2.60 3.70 3.30 5.15 3.30 6.55 0 2.15 1.70 4.90 13 20.70 4.30 6.05 10.95 15.50 14.75 21 14.30 20.65 18.10 25.30 23.95 29.25 2.20 1.50 14.95 11.15 18.80 14.30 5.40 4.35 6.90 5.20 9.20 5.20 1.50 0 2.60 0.35 3.60 1.15 2.15 1.70 4.85 3.25 5.85 3.30 0.70 0.05 0.85 -0.40 0.85 -3.10z m-71.50 -47.95 c0 -0.85 -9.15 -13.55 -9.90 -13.80 -0.60 -0.20 4.15 7.70 7.25 12.10 1.60 2.25 2.65 2.90 2.65 1.70z m33.40 -99.95 c-0.90 -5.35 -1.05 -8.35 -1.10 -21.70 -0.05 -8.50 0.10 -19.65 0.35 -24.75 l0.35 -9.25 -1.50 1.60 c-1.25 1.40 -1.40 1.85 -1 2.95 1 2.55 0.60 4.30 -1.35 6.35 l-1.90 1.90 0.15 4.55 c0.15 4.35 0.05 4.65 -1.20 5.95 -0.85 0.90 -1.40 2.10 -1.55 3.55 -0.50 4.55 3.15 21.25 6.85 31.35 1.90 5.15 2.05 5.40 2.55 4.45 0.25 -0.45 0 -3.35 -0.65 -6.95z m138.25 -34.30 c1.15 -0.75 5.25 -2.85 9.10 -4.70 4.05 -1.95 8.25 -4.35 10 -5.80 5 -4.05 17.85 -12.85 26.40 -18.10 8.30 -5.05 24 -12.55 26.30 -12.55 1.55 0 4.05 2 4.05 3.25 0 0.45 0.30 0.90 0.70 1.05 0.65 0.25 6.85 -1.50 16.05 -4.55 4.95 -1.65 14.65 -4.55 17 -5.05 1.30 -0.30 2.05 -0.75 2.15 -1.35 0.15 -0.80 -0.15 -0.85 -3.35 -0.55 -4 0.40 -4.70 0.05 -5.80 -2.65 -0.70 -1.60 -0.80 -1.65 -2.85 -1.35 -3.85 0.55 -16 3.70 -21.40 5.55 -16.25 5.50 -64.20 32.40 -76.40 42.85 -1.45 1.25 -3.30 2.75 -4.15 3.35 -1.15 0.80 -1.40 1.20 -0.85 1.50 0.85 0.55 0.65 0.65 3.05 -0.90z m-188.50 -21.40 c4.90 -6.50 10.05 -12.40 17.55 -20.10 6.55 -6.80 6.95 -7.30 6.30 -8.30 -0.35 -0.60 -0.80 -1.65 -1 -2.30 -0.30 -1.20 -0.90 -0.70 -9.90 8.15 -6.55 6.45 -9.65 9.85 -9.85 10.80 -0.20 0.80 -1 2.40 -1.90 3.60 -4.20 5.80 -10.85 18.45 -11.60 22 -0.25 1.25 0.60 0.25 3.50 -4.10 2.15 -3.15 5.25 -7.55 6.90 -9.75z m588.35 10.10 c0 -0.70 -2.75 -3.95 -16.75 -19.85 -4.95 -5.65 -5.55 -6.25 -7.60 -7.90 -5.55 -4.40 -17.50 -11.10 -19.75 -11.10 -0.50 0 -1.35 0.45 -1.90 1 -0.70 0.70 -1.65 1 -3.10 1 -1.85 0 -2.35 -0.25 -4.40 -2.50 -1.55 -1.70 -2.85 -2.60 -4 -2.85 -1.65 -0.30 -1.70 -0.25 -1 0.60 1.75 2.20 8.80 8 14.20 11.75 1.70 1.20 10.50 7.75 16.70 12.45 4.85 3.70 7.65 5.70 12.85 9.25 2.65 1.80 8.70 5.65 10.25 6.50 4.70 2.60 4.50 2.50 4.50 1.65z m9.75 -10.35 c0.45 -1.40 -0.20 -2.05 -5.20 -5.55 -3.10 -2.15 -4.35 -2.80 -4.45 -2.25 -0.15 0.75 7.75 8.75 8.75 8.80 0.30 0 0.75 -0.45 0.90 -1z m-525.25 -60.25 c1.45 -0.75 2.15 -2.75 1 -2.75 -0.75 0 -3.55 1.50 -4.35 2.25 -1.35 1.35 1 1.70 3.35 0.50z m603.25 -79.10 c0 -0.70 -5.75 -7.85 -6.05 -7.50 -0.10 0.10 0.70 2.05 1.85 4.30 1.75 3.35 2.30 4.05 3.15 3.95 0.60 -0.10 1.05 -0.40 1.05 -0.75z m-47.05 -39.55 c0.15 -0.25 -1.10 -1.55 -2.80 -2.90 -1.65 -1.35 -3.75 -3.05 -4.65 -3.80 -1.35 -1.15 -12.70 -6.90 -13.55 -6.90 -0.20 0 -1.40 -0.55 -2.70 -1.20 -1.30 -0.65 -3.10 -1.35 -4 -1.55 l-1.70 -0.35 1.60 1.95 c0.85 1.10 1.90 2.30 2.35 2.65 0.40 0.35 0.75 0.80 0.75 1.05 0 1.25 5.60 6 8.90 7.60 2 1 3.60 1.70 3.60 1.60 0 -0.10 0.85 0.05 1.90 0.35 1.60 0.50 7.65 1.65 9.45 1.85 0.30 0 0.70 -0.15 0.85 -0.35z"/>
  <path d="M462.80 802.95 c-0.70 -0.85 -1.30 -1.70 -1.30 -1.85 0 -1.70 1.25 -7.30 2.55 -11.50 l1.60 -5.10 -1.05 -1.15 c-1.45 -1.55 -1.40 -3.75 0.15 -5.90 0.70 -0.95 1.95 -3.80 2.75 -6.35 1.95 -6.20 5.15 -20.10 4.75 -20.55 -0.20 -0.15 -2.55 -0.25 -5.25 -0.15 -5.90 0.20 -18.45 -0.70 -21.25 -1.45 -7.90 -2.25 -9.25 -3.05 -9.25 -5.70 0 -1.55 2.05 -5.90 3.05 -6.55 0.30 -0.15 1.40 -0.35 2.45 -0.45 1.50 -0.10 2.35 -0.55 3.50 -1.75 1.45 -1.55 1.65 -1.60 4.15 -1.30 1.45 0.15 3.30 0.30 4.20 0.30 1.25 0 2.05 0.45 3.45 2 1.05 1.10 2.10 2 2.45 2 0.30 0 1.50 0.45 2.65 1 3.50 1.70 12.35 1.10 22.35 -1.55 6.50 -1.75 8 -1.75 9.80 -0.25 1.40 1.20 1.80 1.30 4.15 1 3.70 -0.50 5.90 -1.40 7.60 -3.05 1.25 -1.30 2 -1.55 4.95 -1.85 7.30 -0.75 20.55 -3.45 22.85 -4.60 0.75 -0.40 2.10 -0.70 3 -0.70 0.90 0 2.90 -0.35 4.40 -0.80 1.50 -0.40 4.10 -1.10 5.75 -1.55 1.65 -0.40 3.20 -0.95 3.45 -1.20 0.30 -0.25 0.85 -0.45 1.30 -0.45 0.40 0 3.05 -1.10 5.85 -2.50 4.30 -2.10 5.55 -2.50 7.90 -2.50 4.95 0 14.45 -4.20 15.80 -7 0.95 -1.90 2.60 -2.95 4.75 -3 1.25 0 2.40 -0.80 5.65 -3.75 3.80 -3.50 4.20 -3.75 6.35 -3.75 2 0 2.70 -0.35 6.20 -3 2.20 -1.65 4.20 -3.45 4.45 -3.95 0.30 -0.50 1.25 -1.20 2.15 -1.55 3.35 -1.30 7.20 -5.90 8.10 -9.60 0.40 -1.80 2.15 -3.40 3.70 -3.40 1.40 0 3.20 0.90 3.75 1.85 0.25 0.40 1.40 1.15 2.60 1.65 4.95 2.15 5.20 6.60 0.60 11.85 -0.85 1 -4.55 4.45 -8.20 7.60 -8.05 7.10 -9.05 7.85 -14.10 10.80 l-2.60 1.50 0.30 3.80 c0.25 2.60 0.15 3.95 -0.20 4.15 -1.10 0.70 -0.50 2.20 4 10.05 10.55 18.50 12.70 24.65 9.70 27.45 -2.75 2.55 -5.70 2.05 -12.10 -2.10 -2.40 -1.55 -2.75 -1.65 -4.35 -1.10 -1.40 0.45 -2 0.40 -3.25 -0.25 -0.85 -0.40 -1.55 -0.95 -1.55 -1.15 -0.05 -1.30 -10.45 -13.70 -19.50 -23.25 -4.20 -4.40 -4.50 -4.50 -9.30 -2.35 -8.75 3.90 -12 5.25 -14.45 6 -1.10 0.35 -2.20 0.80 -2.50 1 -0.55 0.35 -1.90 0.75 -8.75 2.70 -2.35 0.65 -4.85 1.45 -5.60 1.75 -1.35 0.50 -5.15 1.45 -15.40 3.75 -7.10 1.60 -9.95 2.15 -15.25 2.80 -5.70 0.70 -10.35 1.45 -10.50 1.60 -0.05 0.10 -0.70 2.95 -1.45 6.40 -3.05 13.65 -5.90 23.55 -7.10 24.50 -0.35 0.35 -1.55 0.90 -2.55 1.25 -1.40 0.45 -2.60 1.50 -4.50 4.05 -5.25 6.85 -10.10 14 -10.40 15.35 -0.45 1.70 -2.70 3.35 -4.65 3.35 -1.05 0 -1.90 -0.45 -2.80 -1.55z m21.65 -40.75 c0.90 -3.80 1.85 -7.90 2.15 -9.10 0.70 -2.70 0.25 -3.20 -2.60 -3 -2.50 0.15 -2.60 0.35 -3.70 5.15 -0.70 3.30 -0.70 3.55 0.15 4.75 1.60 2.20 1.70 3.35 0.55 7.05 -1.20 3.95 -0.90 5.25 0.75 3.35 0.70 -0.85 1.60 -3.55 2.70 -8.20z m121.10 -18.35 c-1.40 -2.20 -8.40 -14.65 -10.30 -18.25 -1.05 -2.05 -2.25 -3.80 -2.65 -3.95 -0.40 -0.20 -1.30 0.05 -2.05 0.45 -0.70 0.45 -2.50 1.15 -3.90 1.60 -1.55 0.50 -2.65 1.20 -2.65 1.60 0 0.40 0.20 0.70 0.45 0.70 0.25 0 2.45 2.55 4.95 5.70 4.40 5.55 4.60 5.75 6.70 5.90 2 0.15 2.35 0.40 5.60 4.30 2.45 2.95 3.60 4 4 3.60 0.35 -0.35 0.30 -0.85 -0.15 -1.65z"/>
  <path d="M489 641.55 c-3.15 -0.20 -10.40 -0.65 -16.10 -1.05 -8.05 -0.50 -10.85 -0.55 -12.35 -0.05 -1.10 0.30 -3.15 0.45 -4.65 0.30 -1.45 -0.15 -8.50 -0.50 -15.65 -0.80 -13.50 -0.55 -20.50 -1.45 -24.50 -3.20 -0.80 -0.35 -2.95 -1.25 -4.75 -2 -13.60 -5.55 -21.35 -12.80 -29.75 -27.75 -1.30 -2.35 -3.30 -5.50 -4.50 -7 -2.45 -3.20 -4.25 -6.20 -4.25 -7.20 0 -1 -1.80 -4.35 -12.55 -23.35 -7.65 -13.50 -10.60 -22.55 -12.45 -38.20 -0.45 -3.50 -1.15 -6.20 -2.30 -9 -2.90 -7.05 -3.35 -10.50 -3.50 -25 -0.10 -12.70 0.60 -23.35 2.25 -33.25 0.30 -1.80 0.85 -6.50 1.30 -10.45 0.50 -5.05 1 -7.60 1.60 -8.50 0.80 -1.15 2.10 -4.70 2.15 -5.65 0 -0.25 -0.75 -0.40 -1.70 -0.40 -2.45 0 -4.40 -1.80 -4.40 -4.05 0 -2.50 2.55 -8.70 6.85 -16.65 2.05 -3.80 3.75 -7.15 3.75 -7.40 0 -0.25 -0.45 -1.05 -1 -1.75 -1.90 -2.40 -1.20 -4.50 3.75 -11.35 4.10 -5.70 12.75 -15.15 28.05 -30.65 l13.45 -13.55 7.65 -3.80 c7.80 -3.85 9.65 -4.35 11.40 -3.05 1.35 1 2.75 0.95 8.45 -0.50 8.80 -2.25 8.50 -2.10 9.05 -3.70 0.35 -0.80 1.15 -1.85 1.90 -2.30 1.15 -0.75 1.60 -0.80 3.55 -0.25 1.45 0.40 3.20 0.50 4.90 0.25 1.40 -0.20 9 -0.55 16.85 -0.75 7.85 -0.25 17.40 -0.70 21.25 -1 8.45 -0.70 25.30 -0.30 31 0.70 6.95 1.30 11.15 3.20 15 6.85 1.95 1.85 5.35 3.45 7.40 3.45 1.20 0 3.55 0.70 7.10 2.15 1.40 0.55 2.95 1.15 3.50 1.35 4.15 1.45 18.45 10.10 20.25 12.25 0.35 0.40 0.80 0.75 1.05 0.75 0.25 0 2.05 1.05 4.05 2.35 2 1.35 4.05 2.60 4.50 2.90 7.05 4.20 8.25 5.15 15.95 12.50 3.45 3.30 7.35 6.80 8.70 7.75 1.30 0.95 4.75 3.95 7.65 6.65 2.85 2.65 5.55 4.85 5.90 4.85 0.40 0 0.70 -0.50 0.70 -1.15 0 -1.55 1.20 -3.10 2.95 -3.80 3.20 -1.35 5.90 1.75 12.10 13.95 3.15 6.25 5.80 10.90 9.05 16 4.30 6.70 6.55 12.80 8.65 23.20 0.65 3.30 1.55 7.05 2 8.30 2.95 8.35 6.75 31.15 6.75 40.60 0 6.90 -1.65 19.15 -4.05 30.15 -3.10 14.45 -3.60 17.55 -2.90 18.90 0.75 1.30 0.70 6 -0.05 9.60 -0.80 3.95 -4.80 12.95 -8.90 20.10 -1.90 3.25 -4.40 8.15 -5.55 10.90 -3.60 8.25 -4.85 10.40 -7.65 13 -4.60 4.35 -7.60 6.10 -14.65 8.35 -2.45 0.80 -7.30 2.95 -10.75 4.70 -9.40 4.90 -16.05 7.45 -23.50 9 -2.05 0.40 -5 1.35 -6.50 2.05 -1.50 0.70 -3.40 1.45 -4.25 1.65 -0.80 0.20 -3.30 0.85 -5.45 1.45 -4.30 1.20 -13.65 3.10 -20.05 4.05 -6.40 1 -6.95 1.20 -7.65 2.65 -1.10 2.30 -3.85 3.65 -8.85 4.30 -5.40 0.70 -29.15 1.10 -37.25 0.60z m20 -10.70 l2.75 -0.60 0.30 -2.20 c0.20 -1.65 0.65 -2.50 1.75 -3.40 1.80 -1.40 2.85 -1.45 5.05 -0.10 1.50 0.95 2.25 1.05 5.80 0.80 4.60 -0.30 8 -1.40 18.35 -6 17.60 -7.80 20.80 -9.10 28.80 -11.90 4.70 -1.60 9.10 -2.95 9.75 -2.95 2.45 0.05 4.15 2.60 3.45 5.10 -0.45 1.50 0.50 2.20 1.95 1.45 0.45 -0.25 4.80 -1.85 9.70 -3.50 8.40 -2.85 15.25 -6.05 15.60 -7.25 0.10 -0.30 0.30 -1.30 0.45 -2.25 0.30 -1.65 0.30 -1.65 -1.35 -1.30 -0.85 0.20 -2.85 0.45 -4.40 0.60 -2.60 0.20 -2.90 0.15 -3.90 -1.15 -1.25 -1.60 -1.35 -4.05 -0.15 -5.55 0.50 -0.65 2.05 -1.35 3.95 -1.85 1.70 -0.40 4.45 -1.45 6.10 -2.30 4.15 -2.10 12.40 -8.40 17.60 -13.45 4.10 -4 4.45 -4.55 5.40 -7.80 2.10 -7.15 2.50 -9.45 1.75 -10.80 -1 -1.80 -0.85 -3.05 1.30 -11.70 1.10 -4.40 2.70 -11.35 3.55 -15.50 1.55 -7.45 1.55 -7.55 1.25 -19.25 -0.50 -19.95 -1.20 -36.60 -1.75 -40.25 -0.90 -5.75 -1.05 -6.25 -2 -6.25 -1.55 0 -3.50 -1.95 -5 -4.95 -0.80 -1.55 -3.60 -7.75 -6.30 -13.80 -2.65 -6.05 -5.75 -12.55 -6.85 -14.50 -6.35 -10.95 -15.70 -21.45 -26.70 -30 -2.55 -2 -6.80 -4.75 -7.35 -4.75 -0.40 0 -6.70 -3.60 -7.65 -4.40 -0.25 -0.25 -2.60 -1.60 -5.15 -3 -5.35 -2.95 -10.15 -6.30 -13.80 -9.60 -4.70 -4.25 -10.75 -8.20 -17.25 -11.30 -3.05 -1.45 -12.40 -6.15 -14.75 -7.40 -1.70 -0.90 -4.25 -1.05 -4.25 -0.25 0 0.30 1.20 1.80 2.70 3.35 3.40 3.60 5.30 6.40 5.30 7.85 0 1.55 -1.75 3.60 -3.35 3.90 -1.85 0.35 -3.35 -0.30 -5 -2.25 -0.75 -0.90 -3.40 -3.75 -5.85 -6.25 -4.05 -4.20 -4.65 -4.65 -6.30 -4.65 -2.15 0 -3.70 -1.40 -4.35 -4 -0.50 -1.95 1.50 -1.45 -18.65 -4.70 -16.15 -2.65 -18.05 -2.85 -27.05 -2.85 -5.80 0 -8.95 0.20 -10.50 0.70 -2.30 0.75 -3.85 1.15 -11.20 2.85 -12.45 2.85 -25.40 6.10 -27 6.80 -1.55 0.65 -1.80 0.95 -1.50 1.85 1.55 4.75 0.30 6.60 -5.15 7.60 -2.40 0.45 -4.15 1.15 -5.10 1.95 -0.80 0.65 -2.20 1.40 -3.10 1.55 -0.90 0.20 -2.40 0.90 -3.40 1.50 -2.50 1.60 -6 5.55 -6 6.75 0 1.80 -0.95 2.95 -3.40 4.20 -1.30 0.65 -3.15 2.10 -4.15 3.15 -1.75 1.85 -9.15 11.30 -11.35 14.45 -3 4.35 -6.85 20.45 -9.10 38.45 -1.25 10.15 -1.25 10.55 0.25 12.35 1.50 1.80 1.60 3.55 0.25 6.45 -0.55 1.20 -1 3.10 -1 4.20 0 1.10 -0.45 2.95 -1 4.10 -1.70 3.80 -3.50 18.75 -3.50 29.15 0 6.30 1.15 21.95 2 28.25 0.90 6.30 2.95 15.65 4.25 19 1.80 4.75 3.05 7 5.95 10.45 3.25 3.80 3.55 4.70 2.60 7.05 -0.70 1.65 -0.70 2 0.25 4.40 1.55 3.95 2.25 4.85 3.95 4.85 3.80 0 4.90 1.90 4.30 7.50 -0.25 2.30 -0.15 3.35 0.50 4.60 1.60 3.15 6.75 10.40 10.45 14.85 2.05 2.45 3.75 4.65 3.75 4.95 0 1.25 2.65 3.50 9.15 7.75 3.90 2.60 7.80 5 8.60 5.45 0.85 0.40 3.65 1.85 6.25 3.20 5.20 2.70 7.40 3.65 11.40 4.95 l2.70 0.85 1.35 -1.30 c2.10 -2 4.60 -1.80 7.35 0.65 1.20 1.05 2.95 2.10 3.85 2.25 4.45 0.90 7.10 1.30 12.55 1.80 4.75 0.45 6.30 0.80 7.50 1.65 0.85 0.60 2.90 1.35 4.55 1.65 4.10 0.80 35.60 0.80 39.25 0.05z m-100.95 -8.50 c-2.35 -1.35 -4.65 -2.80 -5.10 -3.15 -0.70 -0.60 -0.90 -0.60 -1.40 -0.05 -0.45 0.60 0.05 1.10 2.55 2.75 1.75 1.10 4.15 2.55 5.40 3.20 1.95 1.10 2.30 1.15 2.55 0.45 0.20 -0.55 -0.80 -1.40 -4 -3.20z m-54.65 -189 c0.10 -0.50 -0.15 -0.85 -0.60 -0.85 -0.50 0 -0.80 0.45 -0.80 1.05 0 1.20 1.15 1.05 1.40 -0.20z"/>
  <path d="M507.35 580.15 c-0.20 -0.15 -6.05 -0.35 -13 -0.40 -6.90 -0.05 -14.35 -0.35 -16.45 -0.65 -2.15 -0.30 -8.25 -0.80 -13.55 -1.10 -8.25 -0.45 -10.15 -0.70 -12.65 -1.70 -5.30 -2.10 -7.50 -3.25 -8.45 -4.30 -0.50 -0.55 -1.20 -1 -1.60 -1 -1.15 0 -12.45 -11.35 -16.05 -16.20 -14.85 -19.65 -22.95 -41.05 -21.85 -57.90 0.50 -8.15 2.15 -13.95 6.35 -22.40 6.50 -13.25 9.20 -17.25 15.45 -23.30 6.25 -5.95 10.65 -8.40 19.95 -11.10 2.90 -0.85 7.30 -2.35 9.75 -3.40 2.50 -1 5.20 -2.10 6 -2.45 4.25 -1.75 6.15 -1.90 19.40 -1.60 7.20 0.20 14.70 0.55 16.70 0.80 3.50 0.50 7.65 1.95 7.65 2.65 0 0.25 0.25 0.40 0.60 0.40 0.30 0 1.05 0.40 1.60 0.90 0.60 0.50 2.65 1.20 4.55 1.55 1.95 0.35 4.50 1 5.75 1.40 1.25 0.40 2.80 0.85 3.50 1 3.35 0.60 8.10 3.45 14 8.40 1.80 1.50 3.50 2.75 3.80 2.75 0.25 0 1.25 0.80 2.20 1.75 0.95 0.95 1.90 1.75 2.15 1.75 1.05 0 9.70 8.55 11.25 11.10 0.90 1.50 2.60 5.10 3.80 7.95 1.20 2.85 2.90 6.80 3.80 8.70 0.90 1.95 2 5.20 2.50 7.25 0.50 2.05 1.55 6.35 2.30 9.50 1.40 5.55 1.45 6.20 1.45 18.75 0 13.95 -0.35 17.05 -3 25.50 -3.10 10.05 -10.65 19.15 -20 24.25 -2.75 1.45 -5.20 3 -5.50 3.35 -0.25 0.35 -2.85 1.90 -5.70 3.40 -7.10 3.70 -11.45 4.75 -19.80 4.75 -3.65 0 -6.75 -0.15 -6.90 -0.35z"/>
  <path d="M722.55 330.20 c-1.55 -1.25 -1.95 -3 -1.25 -4.90 0.15 -0.40 2.20 -2.40 4.50 -4.35 3.55 -3 4.10 -3.70 3.70 -4.45 -0.90 -1.65 -0.55 -3.60 1.10 -6.20 2.40 -3.80 7.60 -10.95 11.70 -16.05 9.10 -11.50 15.30 -23.20 18.40 -34.85 1.05 -3.85 2.10 -6.15 3.75 -8 3.55 -4.05 4.75 -8 5.35 -17.70 0.30 -4.65 0.25 -5.25 -0.75 -6.85 -1.35 -2.20 -1.35 -3.25 0.20 -6.15 0.70 -1.30 1.25 -2.95 1.25 -3.70 0 -2.30 1.50 -6.70 2.95 -8.50 2.60 -3.30 3.65 -10.10 3.60 -23.80 0 -9.50 0.10 -10.65 0.95 -12.10 1.65 -2.65 5.20 -2.80 6.85 -0.25 0.80 1.20 0.90 2.70 0.85 13.40 -0.05 10.65 -0.15 12.65 -1.20 17.50 -0.65 3.05 -1.15 6.30 -1.10 7.25 0.05 0.95 0.25 3.65 0.40 6 0.55 7.75 -1.25 17.30 -5.25 27.65 -1.05 2.80 -2.70 7.90 -3.55 11.35 -2 7.70 -6.95 20.15 -8.75 22 -0.75 0.75 -1.95 1.50 -2.70 1.65 -0.90 0.20 -1.60 0.85 -2.20 2.10 -0.85 1.75 -0.85 1.80 0.35 2.25 1.65 0.60 3.30 2.85 3.30 4.50 0 0.85 -1.90 4.15 -5.55 9.50 -7.60 11.30 -11.95 16.35 -19.40 22.70 -15.15 12.80 -14.55 12.50 -17.50 10z"/>
 </g>
</svg>