<svg preserveAspectRatio="xMidYMid meet" viewBox="75.87890625 23.477999999999998 670.263671875 868.6859999999999" xmlns="http://www.w3.org/2000/svg" version="1.0" style="max-height: 500px" width="670.263671875" height="868.6859999999999">
 <g fill="#000000">
  <path d="M372.20 889.95 c-2.50 -0.20 -5.90 -0.70 -7.50 -1.15 -3.75 -1.05 -9.70 -3.35 -9.70 -3.75 0 -0.20 -0.95 -0.40 -2.10 -0.40 -2.30 -0.10 -4.90 -1 -4.90 -1.70 0 -0.25 -0.40 -0.45 -0.85 -0.45 -1.90 -0.05 -7.80 -4.80 -11.35 -9.20 -0.95 -1.10 -3.15 -4.75 -4.90 -8.05 -1.75 -3.30 -4 -7.05 -5.05 -8.40 -3.95 -5.20 -7.05 -18.50 -9.15 -40 -0.80 -7.60 -0.80 -9.65 -0.20 -20.05 1.40 -23.85 1.20 -29 -1.55 -43.30 -1.95 -9.90 -2.65 -14.30 -3.70 -21.90 -1.65 -12.05 -3.55 -18.55 -9 -30.35 -1 -2.20 -2.30 -5.25 -2.85 -6.75 -0.55 -1.50 -1.20 -2.95 -1.40 -3.15 -0.20 -0.20 -0.60 1.90 -0.95 4.75 -1.80 15.40 -4.10 30.10 -4.75 31.15 -0.50 0.75 -1.35 1.25 -2.40 1.35 l-1.60 0.15 -1.45 11.50 c-0.80 6.35 -1.70 12.05 -2 12.70 -0.70 1.40 -1.10 1.60 -4.90 2.80 -2.55 0.80 -2.90 0.80 -4.35 0.05 -1.75 -0.90 -1.90 -1.30 -2.60 -6.05 -1.05 -7.60 -7.35 -30 -8.75 -31.05 -1.10 -0.85 -3.10 -5.55 -3.90 -9.20 -1.90 -8.45 -2.30 -34.25 -0.85 -48.75 0.55 -5.45 0.55 -5.60 -1.50 -16.20 -1.10 -5.90 -2.45 -12 -3 -13.50 -1 -3.05 -7.45 -16.95 -12.60 -27.30 -3.55 -7.10 -4.55 -9.35 -11.65 -26.75 -4.75 -11.65 -5.95 -14.15 -14.55 -31 -5.10 -9.85 -9.65 -19.80 -11.80 -25.75 -1.70 -4.60 -11.05 -36.90 -13.90 -48 -3.35 -13.10 -6.20 -30.15 -7.05 -42.25 -0.50 -7.40 -0.65 -8 -2.75 -13.25 -1.20 -3 -2.20 -6.10 -2.20 -6.85 0 -1.80 1.60 -3.40 3.45 -3.40 1.40 0 1.50 -0.15 1.85 -2.30 0.45 -3.25 -0.70 -11.10 -1.85 -12.15 -0.50 -0.45 -2.10 -1.15 -3.55 -1.50 -1.45 -0.40 -4.05 -1.35 -5.80 -2.10 -1.70 -0.80 -3.25 -1.45 -3.40 -1.45 -0.75 0 -13.45 -9.25 -20.05 -14.60 -1.95 -1.60 -3.90 -2.90 -4.25 -2.90 -0.40 0 -1.35 -0.70 -2.20 -1.55 -0.80 -0.85 -3 -2.65 -4.95 -3.95 -1.90 -1.30 -4.25 -3.05 -5.20 -3.85 -1.45 -1.30 -2 -1.50 -3.85 -1.25 -2.10 0.20 -2.20 0.15 -5.60 -3.35 -3.70 -3.80 -10.25 -12.90 -17.35 -24.25 -4.90 -7.75 -7.80 -13.35 -12.15 -23.30 -1.65 -3.70 -4.55 -10.25 -6.50 -14.50 -4.55 -10.10 -6.35 -15.30 -7.85 -22.70 -2.30 -11.60 -2.75 -22.95 -1 -27.10 0.90 -2.15 2.80 -3.40 4.65 -2.95 l1.45 0.30 0.35 -3.05 c0.35 -3.05 2.30 -12.85 3.35 -16.75 0.30 -1.10 1.15 -3.35 1.95 -5 0.75 -1.65 1.50 -4.05 1.65 -5.35 0.45 -3.35 3.70 -9.50 7.50 -14.15 1.80 -2.20 7.80 -8.50 13.40 -14.05 14.70 -14.45 15.50 -15.20 17.35 -15.20 0.85 0 1.70 0.25 1.85 0.50 0.55 0.85 1.10 0.55 4.10 -2.05 2.85 -2.50 6.75 -5.20 12.15 -8.35 3.25 -1.95 3.75 -2.20 8.15 -4.95 1.85 -1.20 3.50 -2.15 3.65 -2.15 0.15 0 1.40 -0.85 2.85 -1.95 5.95 -4.35 8.90 -5.05 11 -2.55 0.90 1.05 1.75 1.50 2.80 1.50 2.05 0 3.75 2.15 3.40 4.35 -0.20 1.20 -0.10 1.65 0.40 1.65 0.90 0 1.75 1.55 1.75 3.25 0 2.35 -1.90 5.15 -5.50 8 -3.15 2.50 -3.50 2.95 -3.50 4.60 0 1.55 -0.40 2.15 -3.25 4.85 -3 2.80 -3.45 3.50 -5.60 8.80 -2.05 4.95 -2.35 6.20 -2.25 8.80 0.10 2.65 -0.10 3.25 -1.15 4.40 -1.60 1.70 -2.05 4.35 -1.25 6.85 0.85 2.50 0.25 4.45 -1.55 5.30 -1.20 0.60 -1.30 0.95 -1.60 5.20 -0.20 2.55 -0.35 11.40 -0.35 19.65 0 13.05 0.15 16 1.10 22.15 0.80 5.40 0.95 7.60 0.60 9 -0.40 1.50 -0.30 2.35 0.40 4.05 1.40 3.45 9.90 18.75 11.15 20.10 0.60 0.70 1.40 1.80 1.75 2.50 3.25 6.25 18.65 23 21.20 23 0.10 0 0.40 -0.75 0.55 -1.60 0.20 -0.90 1.25 -4 2.35 -6.90 1.40 -3.75 2.25 -7.15 2.95 -12 1.10 -7.65 3.40 -17.45 5.15 -22.15 2.30 -6 5.35 -12.60 6.15 -13.20 1.45 -1.15 3.95 -0.80 5.10 0.65 1.25 1.60 1.15 2.20 -1.80 8.95 -2.10 4.80 -5.65 15.50 -5.65 17.05 0 0.95 4.40 -2 4.85 -3.20 0.60 -1.65 8.15 -13.15 11.80 -17.95 2 -2.70 4.65 -6.30 5.80 -8.05 1.15 -1.75 2.80 -3.55 3.60 -4.05 0.80 -0.50 2.70 -2.70 4.20 -4.85 3.90 -5.75 12.70 -16.60 17.15 -21.30 8.80 -9.25 14.25 -13.25 33.10 -24.40 4.80 -2.85 9.30 -5.55 10 -6 0.70 -0.45 3.65 -2 6.60 -3.50 3 -1.50 5.40 -2.90 5.40 -3.20 0 -0.25 0.10 -0.35 0.30 -0.20 0.30 0.35 13.40 -6.05 13.60 -6.65 0.10 -0.25 0.65 -0.45 1.15 -0.45 0.55 0 1.45 -0.25 2.05 -0.55 1.65 -0.85 12.50 -4.55 14.15 -4.80 0.85 -0.10 1.95 -0.40 2.50 -0.60 0.55 -0.25 2.45 -0.70 4.25 -1 3.30 -0.60 4.10 -0.75 7.75 -1.25 1.10 -0.15 2.70 -0.40 3.50 -0.55 0.85 -0.10 7.45 -0.70 14.75 -1.25 7.30 -0.55 14.05 -1.10 15 -1.25 0.95 -0.15 5 -0.50 9 -0.80 4 -0.25 8.40 -0.70 9.75 -1 3.80 -0.70 5.30 -0.95 7.50 -1.25 1.10 -0.15 2.20 -0.45 2.50 -0.70 0.25 -0.20 2.10 -0.55 4 -0.75 1.95 -0.20 3.75 -0.55 4 -0.75 0.30 -0.25 1.65 -0.50 3 -0.65 1.40 -0.15 2.85 -0.40 3.25 -0.55 0.40 -0.15 1.65 -0.40 2.75 -0.50 1.10 -0.15 3.80 -0.60 6 -1.05 2.20 -0.40 4.70 -0.85 5.50 -0.95 0.85 -0.10 4.55 -0.80 8.25 -1.50 3.70 -0.70 10 -1.65 14 -2.05 4 -0.45 7.65 -1 8.10 -1.25 1.10 -0.60 3.25 -0.65 3.60 -0.10 0.15 0.25 5.30 0.60 11.40 0.75 9.35 0.25 16.65 0.90 23.90 2.10 3.05 0.45 14 2.75 16.75 3.45 1.65 0.40 3.55 0.90 4.25 1 0.70 0.15 3.05 0.85 5.25 1.55 7.40 2.40 8.70 2.75 10.40 2.75 1.05 0 2.05 -0.35 2.60 -1 0.55 -0.60 1.55 -1 2.50 -1 1.70 0 5.85 1.85 9 4 6.85 4.70 10.75 6.35 19 8.25 1 0.20 2.55 0.80 4.20 1.65 1.30 0.65 1.85 1.35 2.25 2.85 0.55 1.90 0.70 2.05 6.55 4.65 12.55 5.60 17.95 8.60 23.45 13.15 2.85 2.35 6.75 6.55 7.80 8.40 0.30 0.50 0.60 0.65 0.90 0.30 1.85 -1.95 15.40 -22.90 17.15 -26.50 l2.20 -4.50 0 -9.50 c0 -9.40 0 -9.55 -1.40 -12.60 -0.85 -1.80 -1.30 -3.45 -1.15 -4 0.15 -0.55 1.20 -1.50 2.30 -2.10 l2 -1.10 0 -5.10 c0 -3.15 -0.30 -6.05 -0.80 -7.60 -0.40 -1.35 -1.30 -6.55 -2 -11.50 -0.75 -5.45 -1.80 -10.80 -2.70 -13.50 -0.80 -2.45 -2.05 -6.50 -2.75 -9 -1.60 -5.30 -3.40 -7.70 -10.35 -13.60 -2.50 -2.10 -4.90 -4.45 -5.40 -5.25 -1.05 -1.75 -0.75 -3.60 0.75 -4.80 l1.10 -0.85 -4.90 -5.90 c-2.65 -3.25 -5.10 -6.55 -5.45 -7.35 -0.35 -0.80 -1.35 -1.80 -2.30 -2.25 -1.85 -0.85 -3.20 -2.50 -3.20 -3.90 0 -1.55 1.50 -3.35 2.80 -3.35 2 0 1.95 -1.30 -0.10 -4.40 -3.20 -4.70 -8 -9.10 -12.55 -11.50 -5.90 -3.10 -7.45 -5.50 -5.15 -8.10 0.55 -0.65 1 -1.60 1 -2.20 0 -1.50 0.55 -2.15 2.20 -2.80 1.95 -0.70 4 -0.20 6.45 1.55 1.10 0.80 2.25 1.45 2.50 1.45 0.30 0 3.35 1.35 6.80 3.05 3.45 1.70 6.55 3.10 6.80 3.15 0.30 0.05 1.35 0.50 2.35 1 1.40 0.65 2.05 0.75 2.85 0.35 2.10 -1.15 3.40 -0.65 7.40 3 2.20 2 5.50 4.35 7.65 5.45 2.05 1.05 5.30 3.05 7.25 4.40 3.05 2.15 3.55 2.70 3.90 4.50 0.35 1.90 0.55 2.10 2.25 2.35 3.30 0.55 3.95 0.95 7.75 4.50 2.10 1.95 6.35 5.75 9.55 8.50 5.50 4.75 8.40 7.70 11.50 11.90 1.05 1.35 1.80 1.85 2.75 1.85 0.80 0 1.85 0.50 2.45 1.15 2.20 2.35 7.25 16.60 10.70 30.35 l2.15 8.45 -1.05 1.40 c-0.75 1 -1.55 1.45 -2.85 1.55 -1.60 0.15 -1.95 -0.05 -2.80 -1.40 -0.50 -0.90 -1.65 -4.45 -2.50 -7.95 -0.85 -3.45 -2.70 -9.80 -4.10 -14.15 -2.10 -6.35 -2.85 -8 -3.95 -8.85 l-1.40 -1 0.70 3.10 c2.65 11.35 5.10 19.55 11.15 36.85 3.15 9.10 3.55 11.75 2.05 13.65 -2.15 2.75 -6.50 1 -6.50 -2.60 0 -0.75 -1.50 -5.60 -3.30 -10.80 -4.45 -12.90 -6.05 -17.80 -7.25 -22.50 -1.60 -6.45 -1.95 -7.25 -2.95 -7.25 -1.25 0 -2.80 -2.10 -3.25 -4.35 -1.15 -6.15 -12.15 -24.05 -19 -30.95 -2.45 -2.45 -2.65 -2.55 -7.75 -3.60 -6.80 -1.35 -12.05 -2.20 -12.30 -1.95 -0.40 0.35 3.45 11.60 4.40 12.95 0.50 0.75 1.50 2.65 2.20 4.25 0.70 1.60 1.55 3.05 1.85 3.25 0.30 0.15 0.50 1.15 0.45 2.15 -0.10 2.35 2.50 9.10 4.40 11.50 0.85 1.05 1.50 2.10 1.50 2.30 0 0.25 0.80 1.15 1.75 2 2.30 2.10 2.90 4 5 15.20 2.45 13 3 21.80 2.30 34.20 -0.30 5.40 -0.55 11.65 -0.55 13.95 0 4.80 -1 10.05 -3 15.75 -0.75 2.25 -1.70 5.80 -2 7.85 -1.25 7.45 -3.70 12.55 -7.20 15 -1.55 1.05 -2.65 2.35 -3.60 4.30 -0.75 1.55 -2.75 4.30 -4.40 6.15 -6.65 7.30 -8.30 9.20 -8.30 9.55 0 1.70 9 18.70 19.35 36.60 l5.90 10.15 2.10 -0.15 c2.75 -0.20 3.10 0.35 5.90 9.85 1.75 6.10 2.85 8.85 5.45 13.50 7.60 13.70 12.45 24.45 16.35 36.05 2.70 8.05 2.95 9.90 1.45 11.25 -0.55 0.50 -1 1.15 -1 1.45 0 0.45 8.45 22.15 8.85 22.75 0.10 0.10 0.55 -0.15 1.05 -0.60 0.50 -0.50 1.60 -0.85 2.45 -0.85 2.80 0 3.05 0.85 3.35 10.75 0.20 4.95 0.50 10 0.75 11.25 1.30 6.55 4.30 21.40 6.05 29.75 1.10 5.25 2.90 14.55 4 20.75 1.10 6.20 2.80 15.40 3.80 20.50 1.75 9 1.80 9.65 2.05 23.90 0.25 13.65 0.05 17.60 -1.15 21.75 -0.20 0.60 0 0.85 0.75 0.85 1.85 0 2.70 2.10 2.45 5.90 -0.45 5.80 -2.95 20.60 -4.50 26.60 -0.80 3.15 -1.55 7.65 -1.70 10 -0.75 13.80 -0.80 12.50 0.55 12.50 2.45 0 3.50 1.80 5.20 8.75 1.10 4.65 2.50 8.70 5.05 14.35 3.80 8.60 7.55 18.85 7.60 21.05 0.05 0.75 -0.25 1.95 -0.60 2.60 -0.75 1.35 -0.65 2.15 1.55 13.75 0.90 4.65 1.10 7.95 1.20 17.25 0.20 14.40 1.10 41.65 1.45 43 1.35 4.80 5.30 25.30 5.30 27.30 0 2.25 -0.20 2.75 -1.70 4.25 -0.95 0.95 -2 1.70 -2.40 1.70 -0.40 0 -1.25 0.55 -1.90 1.25 -1.40 1.50 -3.70 1.65 -5.10 0.40 -0.65 -0.60 -1.65 -0.80 -3.05 -0.70 -3.70 0.20 -4.40 -1.50 -4.60 -11.20 -0.10 -5 -0.30 -6.65 -1.40 -9.85 -3.35 -9.85 -9 -19.55 -16.85 -28.90 -5.40 -6.50 -6 -7.70 -7.75 -16.75 l-1.05 -5.50 -1.15 3.50 c-1.05 3.35 -1.60 5.95 -4.25 20.25 l-1.30 6.80 -0.05 36.70 c-0.10 39.10 0 41.10 2.40 51.25 2.50 10.75 2.40 10.05 1.50 11.45 -0.50 0.70 -1.25 1.30 -1.70 1.30 -0.65 0 -0.75 0.45 -0.45 3.15 0.30 3.10 0.80 6.25 1.80 11.35 1.55 8 2.10 29.35 1 37.45 -0.80 5.75 -2.55 11.05 -5.20 15.75 -1.25 2.15 -2.40 4.40 -2.60 5 -0.30 1.05 -1.55 3.20 -4.45 7.70 -0.80 1.25 -2.25 2.80 -3.15 3.45 -1.55 1 -6.30 2.80 -9.10 3.40 -5.05 1.05 -6.40 1.20 -7.70 0.85 -0.95 -0.25 -2.65 -0.05 -5 0.55 -1.95 0.50 -5.80 1.05 -8.55 1.20 -4.35 0.25 -5.15 0.40 -6.10 1.40 -0.95 1 -1.70 1.15 -8.30 1.45 -4 0.20 -10.70 0.25 -14.95 0.05 -6.45 -0.30 -8.05 -0.50 -10.15 -1.45 -1.35 -0.65 -3.80 -1.55 -5.45 -2.05 -1.60 -0.50 -4.35 -1.85 -6.10 -3.05 -2.60 -1.75 -3.65 -2.20 -5.40 -2.20 -2.10 0 -4 -1 -5.70 -3 -1.30 -1.55 -7.50 -14.40 -8.50 -17.55 -1.15 -3.65 -2.60 -11.60 -2.60 -14.05 0 -1.25 -0.15 -1.45 -0.60 -1 -0.35 0.35 -1.40 0.60 -2.40 0.60 -2.20 0 -2.35 -0.25 -5.80 -10 -1.30 -3.70 -2.75 -7.55 -3.25 -8.55 -1.15 -2.30 -6.20 -8.75 -10.05 -12.80 -1.60 -1.70 -3.50 -4.35 -4.20 -5.90 -1 -2.10 -1.75 -3.05 -3.30 -3.90 -1.10 -0.60 -2.60 -1.40 -3.30 -1.80 -1.05 -0.55 -2.65 -0.60 -9.80 -0.05 -4.70 0.30 -9.80 0.80 -11.30 1.05 -1.50 0.30 -4 0.70 -5.50 0.95 -6.25 1.05 -7.20 1.25 -14.50 3.60 -2.60 0.85 -6.15 2.15 -7.80 2.95 -3.90 1.80 -5.80 1.85 -7.10 0.20 -0.55 -0.70 -1.20 -1.25 -1.50 -1.25 -0.55 0 -6.45 2.55 -9.20 4 -1 0.55 -2.50 1 -3.30 1 -1.80 0 -5.95 2.70 -7.15 4.70 -1.35 2.25 -1.20 2.45 0.90 1.05 2 -1.40 3.35 -1.30 4.80 0.35 1.25 1.50 1.05 3.40 -0.65 5.40 -5.20 6.05 -5.45 7 -6 26.15 -0.85 27.10 -2.20 32.95 -8.80 37.65 -1.70 1.20 -5.85 3.50 -9.25 5.15 -7.60 3.60 -12.35 5.90 -15.40 7.50 -1.25 0.65 -2.80 1.20 -3.40 1.25 -0.65 0 -1.15 0.20 -1.15 0.35 0 0.45 -15.35 4.10 -17.35 4.15 -0.90 0.05 -1.65 0.25 -1.65 0.45 0 0.25 -0.65 0.30 -1.50 0.10 -1 -0.20 -1.50 -0.15 -1.50 0.25 0 0.35 -0.40 0.50 -1 0.35 -0.55 -0.15 -0.90 -0.10 -0.80 0.10 0.15 0.20 -1.15 0.35 -2.90 0.40 -2.95 0.10 -9.20 1.95 -11.55 3.40 -1.60 1.05 -5.75 2.10 -8.70 2.20 -1.50 0.05 -2.85 0.15 -3 0.25 -0.15 0.05 -2.35 -0.05 -4.85 -0.25z m0.30 -12.90 c0.75 -1.45 3.25 -1.85 4.85 -0.80 1.10 0.75 2 0.85 5.05 0.55 2 -0.15 3.95 -0.45 4.25 -0.65 0.35 -0.20 1 -0.45 1.55 -0.50 0.50 -0.10 1.50 -0.50 2.25 -0.85 0.70 -0.40 3.20 -1.35 5.55 -2.15 2.35 -0.75 4.35 -1.55 4.40 -1.80 0.10 -0.20 0.35 -0.25 0.55 -0.15 0.20 0.15 2.05 -0.20 4.10 -0.75 3.90 -1.05 5.30 -1.35 12.95 -2.70 9.55 -1.65 10.60 -1.90 12.65 -3.25 1.15 -0.80 3.05 -1.55 4.20 -1.70 1.15 -0.15 3 -0.70 4.10 -1.25 2.20 -1.15 2.10 -0.90 4.85 -11.30 l1.85 -7 -1.10 -4.35 c-1.35 -5.40 -2 -12.30 -2.05 -20.30 0 -6.15 0 -6.20 1.45 -7.60 1.30 -1.35 1.45 -1.85 1.75 -6.35 0.55 -7.80 1.25 -9.50 5.50 -14.10 2.05 -2.15 4.05 -4.60 4.50 -5.45 0.40 -0.80 1.50 -2.10 2.35 -2.85 1.30 -1.05 2 -1.30 3.40 -1.10 1.80 0.25 2.05 0.15 15.20 -6.20 2.20 -1.10 3.95 -1.20 5.25 -0.40 0.75 0.45 1.75 0.15 5.35 -1.70 2.50 -1.25 5 -2.40 5.65 -2.60 0.60 -0.15 1.10 -0.55 1.10 -0.80 0 -0.25 0.15 -0.40 0.40 -0.35 0.20 0 0.70 -0.05 1.10 -0.25 5.90 -2.25 7.15 -2.45 20.50 -2.95 13.80 -0.50 22.20 -0.25 23.35 0.70 0.50 0.40 1.20 0.40 2.70 -0.10 1.60 -0.55 2.25 -0.55 3 -0.10 0.55 0.35 2.80 0.60 5.35 0.60 3.80 0 4.55 0.15 5.35 1 0.75 0.80 1.55 1 4.25 1 2.85 0 3.55 0.20 4.70 1.25 1.45 1.35 1.70 3.45 0.60 4.90 -0.50 0.65 -1.40 0.85 -3.75 0.85 -2.15 0 -3.05 0.20 -3.05 0.65 0 1.10 1.10 1.80 2.45 1.55 1.70 -0.35 3.80 1.25 4.20 3.20 0.20 1.10 0.65 1.55 1.70 1.75 0.75 0.15 1.95 0.80 2.60 1.40 2.95 2.80 10.05 15.60 12.25 22.20 0.45 1.40 1.25 3.20 1.70 4.10 1 1.85 6.70 7.10 12.40 11.40 5.40 4.05 8.75 7.55 10.10 10.40 0.80 1.75 1.55 2.55 2.65 2.95 2.55 0.90 3.25 3.75 1.45 6.05 -1 1.25 -1 1.30 -0.10 1.80 0.50 0.25 1.80 0.60 2.90 0.75 1.05 0.15 3.40 0.70 5.20 1.30 5.70 1.80 14.65 2.60 26.80 2.35 6 -0.10 11.70 -0.30 12.65 -0.50 0.90 -0.15 3.25 -1.10 5.20 -2.05 3.85 -1.95 4.60 -1.85 6.70 0.60 l1.05 1.25 2.60 -0.95 c3.60 -1.40 5.70 -4.75 6.75 -10.85 1.30 -7.20 3.20 -14 4.40 -15.60 1.30 -1.75 1.35 -3.45 0.45 -17.70 -0.35 -5.10 -0.60 -13.65 -0.60 -19 0 -5.70 -0.25 -10.75 -0.60 -12.05 -0.30 -1.25 -0.60 -6.20 -0.65 -11 -0.05 -8 -0.15 -9.30 -1.65 -15.40 -4.05 -16.95 -5.20 -28.65 -5.30 -55.85 -0.05 -15.55 0.10 -21.20 0.60 -23.40 0.65 -2.80 0.65 -3 -0.35 -4.05 -1.30 -1.35 -1.30 -2.45 -0.10 -7.25 0.55 -2.10 1.20 -5.35 1.55 -7.25 0.30 -2 1.25 -4.75 2.30 -6.75 1.45 -2.75 2 -4.85 3.40 -12.80 0.95 -5.20 1.85 -10.85 2.05 -12.50 0.45 -3.65 1 -5.20 2.15 -6.05 1.25 -0.95 2.50 -0.85 4.15 0.35 0.85 0.60 2.40 1.15 3.50 1.30 2 0.30 2.25 0.50 4.95 4.45 0.70 1 2.30 3 3.65 4.50 1.30 1.50 2.35 3.05 2.35 3.45 0 0.45 1.50 3.25 3.30 6.30 4.80 7.95 9.35 18.25 13 29.35 3.85 11.60 4.10 13 2.95 15 -0.85 1.45 -0.85 1.50 0.90 4.65 0.95 1.75 2.15 4.45 2.65 5.95 2.40 7.35 0.70 -2.80 -3.80 -23.25 -4.85 -21.90 -6.60 -31.95 -8.50 -48.25 -1.30 -11.45 -1.30 -14.45 0.05 -16.20 1.10 -1.40 3.30 -1.75 4.40 -0.65 0.75 0.75 0.40 -0.95 -1.05 -5.15 -1.10 -3.10 -2.20 -7.40 -2.90 -11.45 -0.55 -3.15 -3 -8.50 -6.55 -14.40 l-2.45 -4.10 0 -4.75 c0 -3.70 -0.20 -4.90 -0.80 -5.55 -0.65 -0.65 -0.75 -1.40 -0.50 -4.15 0.20 -1.85 0.55 -4 0.80 -4.85 0.20 -0.80 0.55 -2.40 0.70 -3.50 l0.30 -2 -2 0.15 c-2.75 0.25 -4.15 -1.25 -3.80 -4.15 0.15 -1.10 0.60 -4.70 1 -8 0.45 -3.50 0.80 -10.10 0.80 -15.90 0 -9.20 -0.05 -10.05 -1 -11.20 -0.90 -1.15 -1 -2.05 -1.05 -9.10 0 -4.30 -0.20 -10.70 -0.45 -14.30 -0.25 -3.55 -0.70 -10.50 -1 -15.40 -0.30 -4.90 -0.85 -12.05 -1.20 -15.95 -0.65 -6.65 -0.60 -7.20 0.25 -8.90 1 -1.95 0.90 -5.05 -0.80 -22.75 -0.95 -9.55 -0.75 -8.65 -3.75 -18 -1.35 -4.10 -3.15 -9.95 -4.05 -13 -0.90 -3 -1.75 -5.65 -1.95 -5.90 -0.20 -0.20 -0.05 1.35 0.30 3.50 0.90 5.30 0.85 7.45 -0.10 8.90 -1.20 1.85 -4.65 1.65 -5.70 -0.25 -0.25 -0.50 -1.05 -4.80 -1.75 -9.55 -1.60 -10.70 -2.95 -16.95 -6.75 -31.70 -6.20 -23.95 -7.40 -26.90 -21.15 -52 -8.20 -15 -10.45 -19.85 -10.55 -23 -0.05 -1.45 -0.45 -3 -0.95 -3.75 -1.15 -1.65 -1.15 -1.25 0.70 9.55 1.45 8.90 1.50 9.25 0.65 10.85 -0.70 1.30 -1.15 1.60 -2.40 1.60 -3.60 0 -3.85 -0.65 -6.05 -14.40 -1.60 -9.80 -3.60 -17.60 -6.35 -24.45 -2.35 -5.95 -3.95 -8.75 -8.90 -15.65 l-3.45 -4.85 -2.15 0.05 c-1.50 0 -2.75 -0.35 -4.15 -1.25 -1.10 -0.70 -4 -2.35 -6.50 -3.70 -7.60 -4.10 -14.25 -8.50 -24.25 -16 -3.70 -2.80 -10.35 -7.75 -14.75 -11 -8.85 -6.60 -16.45 -13.60 -17.50 -16.10 -0.40 -0.90 -1 -1.65 -1.35 -1.65 -4.40 -0.15 -36.55 -5.50 -42.90 -7.15 -3.55 -0.90 -5.45 -1.10 -11.60 -1 -9.15 0.10 -25.05 1.35 -38.15 3 -5.50 0.65 -12 1.45 -14.50 1.70 -2.45 0.25 -5.10 0.80 -5.80 1.20 -0.85 0.45 -2.85 0.70 -5.95 0.70 -4.80 0 -6.45 0.60 -4.95 1.70 1 0.80 1.95 2.55 1.95 3.70 0 2.60 -4.10 4.15 -6.05 2.35 -1.30 -1.15 -7.05 -1.50 -12.50 -0.70 -4.40 0.65 -4.55 0.60 -6 -0.45 -1.25 -0.95 -1.75 -1.05 -2.85 -0.65 -1.35 0.55 -24.95 7.40 -26.85 7.85 -0.55 0.10 -1.95 0.55 -3.10 0.95 -2.60 0.95 -13.85 4.30 -15.30 4.60 -0.60 0.10 -1.90 0.50 -2.85 0.90 -2.85 1.20 -16.05 5.30 -16.95 5.30 -0.45 0 -1.05 0.20 -1.35 0.45 -0.25 0.25 -3.05 1.50 -6.20 2.75 -8.05 3.25 -13.90 7.35 -13.25 9.30 0.45 1.40 -1.15 3.85 -2.70 4.15 -1.45 0.30 -4.20 -0.70 -4.85 -1.70 -0.25 -0.40 -0.55 -1.80 -0.70 -3.10 l-0.25 -2.40 -4.35 3.05 c-4 2.75 -4.40 3.20 -4.40 4.65 0 2.75 -1.10 3.70 -6.40 5.35 -4.70 1.50 -5.10 1.75 -12.35 7.65 -13.40 10.90 -19.70 17.60 -20.50 21.85 -0.80 4.35 -2.20 5.70 -5.05 4.90 -2.80 -0.70 -3.30 -3.90 -1.40 -9.15 0.45 -1.25 -6.50 5.45 -7.80 7.50 -0.50 0.85 -1.60 3.40 -2.45 5.75 -0.85 2.35 -3.45 7.40 -5.75 11.25 -5.10 8.55 -8.65 15.35 -9.35 18 -0.30 1.10 -0.95 2.55 -1.45 3.25 -1.50 2.10 -9.75 23.20 -12.45 31.85 -4.20 13.45 -4.50 15.05 -5.30 26.40 -1 14.05 -2.10 23.85 -4.45 39.15 -0.40 2.55 -0.60 5.40 -0.45 6.30 0.15 1.05 -0.05 2.35 -0.60 3.50 -0.80 1.60 -0.85 2.80 -0.60 8.45 0.20 3.65 0.70 9.65 1.10 13.35 0.70 5.80 0.95 6.90 1.95 7.85 0.75 0.70 1.50 2.55 2.25 5.50 0.60 2.40 1.40 4.75 1.80 5.15 0.35 0.40 0.90 2.10 1.25 3.75 0.75 3.70 7.05 23.10 8.80 27.10 0.70 1.60 2.50 4.75 4 7 2.90 4.35 2.95 4.55 2.15 6.85 -0.45 1.40 -0.15 2.50 3.50 11.45 3.90 9.55 8.40 19.05 10.50 22.10 1.50 2.20 1.40 4.90 -0.25 6.15 l-1.35 0.95 3.50 8.20 c1.95 4.50 4.70 11.40 6.15 15.30 2.25 6.05 3 7.45 4.80 9.30 1.75 1.70 2.30 2.70 2.70 4.70 0.70 3.75 2.05 6.80 12.30 27.30 11.90 23.70 12.40 25.10 10.20 27.10 -1.20 1.10 -1.30 3.10 -0.20 4.30 0.70 0.80 0.75 1.90 0.20 10.80 -0.30 5.45 -0.90 13.60 -1.30 18.15 -1.70 18.45 -2.15 36.70 -1.20 45.25 1.05 8.85 4.10 22.25 5.15 22.25 0.25 0 0.35 -0.50 0.20 -1.10 -0.15 -0.65 -0.45 -6 -0.65 -11.90 -0.50 -15.55 0.30 -19.45 5.05 -24.55 1.15 -1.25 2.25 -2.70 2.40 -3.25 1.80 -6.60 1.95 -7.65 1.40 -9.25 -0.85 -2.50 -0.70 -6.15 0.35 -7.05 1.30 -1.15 2.55 -1.45 3.65 -0.85 0.75 0.40 1.25 0.30 2.30 -0.50 1.70 -1.35 3.70 -1.35 5 0.10 0.55 0.60 2.15 2.85 3.60 4.95 2.35 3.50 2.65 3.85 3.55 3.30 1.30 -0.85 3.60 0 4.35 1.65 0.35 0.65 1.30 3.85 2.10 7.10 0.80 3.20 2.60 8.35 4 11.45 1.35 3.10 2.70 6.25 3 7.05 0.35 0.95 0.90 1.35 1.70 1.35 2.25 0 2.85 1.05 4.05 6.75 1.60 7.50 3.55 14.40 4.45 15.80 0.70 1.15 2.75 9.90 4.80 20.95 1.40 7.45 2.20 17.50 2.20 26.75 -0.05 6.80 0.20 9.55 1.65 18.50 2.85 17.70 4.85 41.50 3.75 44.40 -0.30 0.75 -1.10 1.60 -1.80 1.85 -1.10 0.40 -1.25 0.75 -1.25 2.85 0.05 6.20 3.45 17.55 6.35 21 2.90 3.40 3.25 4.20 2.55 6.05 -0.55 1.45 -0.45 1.70 1.65 4.45 1.25 1.60 2.95 3.35 3.80 3.95 1.30 0.85 7.30 2.60 15.90 4.65 3.55 0.80 6.15 0.65 6.75 -0.40z m257.65 -21.50 c-0.20 -0.75 -0.90 -1 -3.30 -1.25 -4.90 -0.55 -6.30 -0.80 -11.10 -1.90 -2.45 -0.55 -4.60 -1.20 -4.75 -1.40 -0.15 -0.20 -1.50 -0.50 -3 -0.70 -1.50 -0.15 -3.50 -0.45 -4.35 -0.60 -1.30 -0.25 -1.65 -0.15 -1.65 0.45 0 1.05 0.55 1.35 3.85 1.85 1.55 0.25 2.95 0.65 3.10 0.90 0.35 0.40 3.60 1.85 5.55 2.40 0.70 0.20 4.20 0.50 7.75 0.70 3.60 0.20 6.85 0.40 7.35 0.40 0.55 0.10 0.75 -0.20 0.55 -0.85z m-176.60 -10.90 c0.80 -2.65 1.10 -5.20 1.30 -11.25 0.25 -7.15 0.20 -8.05 -0.75 -10.25 -0.55 -1.30 -1.15 -3.20 -1.35 -4.20 l-0.35 -1.80 -1.20 1.10 c-1 0.95 -1.20 1.60 -1.20 4.20 0 2.85 0.05 3.05 1.15 3.05 0.65 0 1.60 0.50 2.15 1.05 0.80 0.95 0.95 1.75 0.80 6.10 -0.05 2.75 -0.55 7.20 -1.10 9.90 -1.10 5.30 -1.10 5.45 -0.75 5.45 0.10 0 0.70 -1.50 1.30 -3.35z m146.65 -6.75 c-1.20 -4 -2.15 -5 -11.15 -12.15 l-4.20 -3.35 0.30 2.30 c0.30 2.25 1.15 4.20 2.45 5.85 1.80 2.15 11.10 8.45 12.55 8.45 0.25 0 0.25 -0.50 0.05 -1.10z m-309.95 -147.35 c0.35 -3.50 0.25 -4.05 -0.40 -4.05 -0.90 0 -1.15 0.60 -1.85 5.20 -0.50 3.05 -0.45 3.50 0.35 4.05 1.20 0.90 1.45 0.15 1.90 -5.20z m417.95 -46.80 c0.25 -1.25 -0.15 -2.30 -2.25 -6 -1.40 -2.45 -2.40 -4.10 -2.25 -3.65 0.15 0.50 0.60 2.85 1.05 5.25 0.45 2.45 1.15 6.10 1.60 8.15 l0.85 3.75 0.35 -3 c0.15 -1.65 0.45 -3.65 0.65 -4.50z m-19 -4.20 c-0.35 -0.40 -0.70 0.30 -0.95 2 l-0.25 1.70 0.70 -1.75 c0.35 -0.95 0.60 -1.85 0.50 -1.95z m38.35 -5.55 l-0.50 -1.25 0 1.25 c-0.05 0.70 0.15 1.80 0.35 2.50 l0.35 1.25 0.15 -1.25 c0.10 -0.70 -0.10 -1.85 -0.35 -2.50z m-33.85 -4.85 c0.20 -0.65 0.15 -1.15 -0.05 -1.15 -0.45 0 -2.20 4.30 -2.15 5.25 0.05 0.60 1.75 -2.55 2.20 -4.10z m-430.70 -0.65 c-1.05 -1.95 -1.40 -1 -0.60 1.60 0.80 2.50 0.85 2.55 1 1.05 0.10 -0.90 -0.10 -2.05 -0.40 -2.65z m462.45 -13.05 c-2.25 -13.60 -2.75 -12.65 -0.90 1.95 0.95 7.25 1.25 8.55 1.80 7.95 0.55 -0.55 0.40 -2.15 -0.90 -9.90z m-462.25 -3.95 c-1.90 -3.55 -3.60 -6.50 -3.80 -6.50 -0.25 0 1.20 3.20 3.15 7.15 2 3.90 3.70 6.80 3.80 6.50 0.15 -0.35 -1.30 -3.55 -3.15 -7.15z m-63.65 -137.75 c-1.35 -6.35 -2.90 -14.05 -3.50 -17.15 -1.05 -5.50 -2.55 -10.30 -2.90 -9.25 -0.20 0.55 1.15 8.45 2.60 15.40 0.95 4.40 5.85 22.80 6.05 22.60 0.10 -0.10 -0.95 -5.30 -2.25 -11.60z m509.80 -21.35 c-0.10 -1.45 -0.15 -0.30 -0.15 2.60 0 2.90 0.05 4.05 0.15 2.65 0.10 -1.45 0.10 -3.85 0 -5.25z m-526.35 -81 c0.35 -1.25 0.95 -2.15 1.70 -2.50 1.35 -0.60 1.80 -2.35 1.80 -7.65 0 -5.80 1.95 -26.25 3.30 -34.80 0.25 -1.75 0.15 -1.90 -2.40 -3.75 -3.80 -2.75 -7.40 -6.40 -7.40 -7.60 0 -1.30 -0.85 -1.85 -1.70 -1.15 -1.15 0.95 -3.70 1 -4.55 0.10 -0.40 -0.50 -1.60 -2.55 -2.60 -4.65 -1.65 -3.25 -2.65 -4.45 -7.65 -9 -9.70 -8.85 -14.95 -14.95 -18.70 -21.90 -2.20 -4.05 -2.40 -6.05 -0.85 -7.70 l1.10 -1.15 -3.25 -6.20 c-3.75 -7.20 -6 -13.50 -6.85 -19.40 -0.65 -4.70 -0.35 -20.30 0.45 -22.90 0.30 -0.90 0.90 -3.85 1.35 -6.50 1.15 -6.95 4.10 -15.35 8.15 -23.45 4.95 -9.75 7 -12.75 13.85 -19.75 6 -6.20 6.65 -7.55 2.55 -5.50 -1.05 0.55 -2.35 1.70 -2.85 2.55 -0.55 0.85 -2 2.25 -3.30 3.15 -5.45 3.75 -16.15 11.95 -19.05 14.60 -1.70 1.55 -4.50 4.55 -6.25 6.65 -3.35 4.15 -12.90 15 -18.60 21.15 -5.15 5.55 -13.20 19.50 -17.70 30.70 l-1.80 4.50 0.10 9.75 c0.10 17.40 2.15 24.65 10.20 36.90 2.25 3.40 3.45 5.75 3.45 6.65 0 1.40 6.30 11.25 11.75 18.45 1.15 1.50 6 8.40 10.75 15.25 14 20.25 14.80 21.20 22 26.90 0.40 0.35 1.75 1.25 3 2.05 1.25 0.80 4.90 3.65 8.20 6.25 8.55 6.90 9.35 7.45 11.55 7.60 1.10 0.05 2.45 0.50 3 1 0.55 0.45 2.15 1.40 3.50 2.10 l2.50 1.25 0.35 -5 c0.20 -2.75 0.65 -5.90 0.90 -7z m-62 -32 c0 -0.90 -6.65 -10.05 -7.50 -10.30 -0.55 -0.20 -0.45 0.10 0.25 1.20 6 9.25 7.25 10.80 7.25 9.10z m28.25 -86.85 c-0.80 -6.30 -0.85 -9.75 -0.60 -25.05 0.20 -9.75 0.45 -19 0.55 -20.50 0.10 -1.50 0.10 -2.05 -0.05 -1.25 -0.10 0.85 -0.65 1.95 -1.20 2.50 -0.75 0.85 -0.85 1.50 -0.65 3.50 0.25 2.35 0.15 2.65 -1.55 4.50 l-1.80 2 0.30 3.55 c0.35 3.40 0.30 3.60 -1 5 -1.30 1.40 -1.35 1.60 -1.10 5.45 0.35 4.60 1.40 10.15 3.15 16.25 1.60 5.65 4.35 12.80 4.60 12 0.15 -0.35 -0.20 -3.90 -0.65 -7.95z m116.65 -26.45 c1.55 -1.05 4.65 -2.75 6.85 -3.80 6.65 -3.15 7.80 -3.80 12.85 -7.65 12.30 -9.30 23.35 -16 35.80 -21.70 7.25 -3.30 8.75 -3.35 10.25 -0.45 0.50 0.95 1.15 1.65 1.50 1.60 2.35 -0.70 10.25 -3.15 10.85 -3.45 0.40 -0.15 1 -0.35 1.25 -0.40 0.30 -0.10 2.55 -0.80 5 -1.65 2.50 -0.80 6.60 -2 9.15 -2.65 2.50 -0.65 4.60 -1.30 4.60 -1.55 0 -0.50 -1.80 -1.45 -2.10 -1.10 -0.15 0.15 -1.40 0.40 -2.80 0.65 -2.20 0.35 -2.75 0.25 -3.60 -0.55 -0.55 -0.50 -1 -1.40 -1 -1.90 0 -0.65 -0.35 -1 -1 -1 -3.30 0 -18.55 4.40 -25.50 7.35 -10.60 4.50 -29.10 14.50 -43.25 23.30 -2.45 1.55 -5.30 3.25 -6.30 3.80 -3.70 2.05 -14.70 10.65 -15.50 12.15 -0.70 1.30 -0.25 1.15 2.95 -1z m-157.90 -20.85 c4.10 -5.20 12.10 -14.20 15.95 -18 1.70 -1.65 3.05 -3.25 3.05 -3.60 0 -0.90 -1.10 -3.15 -1.55 -3.15 -0.20 0 -3.65 3.15 -7.65 7.05 -5.10 4.95 -7.65 7.80 -8.55 9.60 -0.75 1.45 -2.75 4.85 -4.55 7.60 -2.85 4.50 -6.50 11.95 -7.45 15.25 -0.20 0.70 1.45 -1.45 3.60 -4.75 2.20 -3.30 5.40 -7.80 7.15 -10z m499.80 10.50 c-0.15 -0.85 -17.40 -20.75 -20.15 -23.20 -2.80 -2.50 -7.85 -5.65 -12.40 -7.75 -2.20 -1 -4.40 -2.05 -4.90 -2.35 -0.75 -0.40 -1.10 -0.25 -1.90 0.75 -1.65 2.10 -3.55 1.75 -6.35 -1.20 -2.20 -2.30 -4.10 -3.25 -4.10 -2 0 0.90 4.30 4.60 11.50 9.80 1.80 1.30 7.65 5.65 13 9.70 11.40 8.50 14.65 10.75 20.75 14.35 2.50 1.45 4.55 2.65 4.60 2.65 0.05 0 0 -0.35 -0.05 -0.75z m8.20 -9.40 c0 -1.60 -7.35 -7.15 -8.25 -6.25 -0.40 0.35 7.40 7.85 7.85 7.60 0.20 -0.15 0.40 -0.75 0.40 -1.35z m-449 -50.20 c0.70 -0.30 1.65 -0.70 2.15 -0.85 0.75 -0.25 1.30 -2.80 0.65 -2.80 -0.80 0 -4.80 3.20 -4.80 3.80 0 0.40 0.15 0.70 0.40 0.60 0.20 -0.10 0.90 -0.45 1.60 -0.75z m515.50 -67.70 c0 -0.75 -3.10 -4.85 -4.95 -6.60 -0.85 -0.80 -1.55 -1.20 -1.55 -0.90 0 0.25 0.20 0.60 0.45 0.80 0.30 0.15 1.20 1.55 2.10 3.15 1.55 2.75 2.70 4.10 3.55 4.10 0.20 0 0.40 -0.25 0.40 -0.55z m-40.95 -35.40 c-1.10 -0.80 -4.80 -3.65 -5.95 -4.55 -1.25 -1.10 -9.95 -5.20 -15.80 -7.55 l-2.40 -1 1.85 2.65 c2.65 3.75 7.65 8.40 10.05 9.40 2 0.85 8.35 2.30 11.45 2.60 1.85 0.20 2.25 -0.55 0.80 -1.55z"/>
  <path d="M434.55 664.70 c-0.60 -0.75 -1.05 -1.60 -1.05 -1.90 0.05 -1.25 1.55 -7.75 2.55 -10.75 0.95 -2.85 1 -3.25 0.30 -3.60 -1.50 -0.85 -1.55 -3.35 -0.20 -5.35 0.70 -1 1.95 -4.10 2.80 -6.85 1.80 -5.90 4.15 -15.85 3.75 -16.20 -0.10 -0.15 -4.65 -0.30 -10.10 -0.35 -17.20 -0.15 -22.60 -2.50 -19.70 -8.50 1.25 -2.50 3.10 -3.95 4.60 -3.45 0.75 0.25 1.35 -0.05 2.25 -1.20 1.25 -1.45 1.35 -1.50 4.90 -1.20 3.05 0.20 3.80 0.45 4.85 1.55 0.75 0.75 2.25 1.90 3.45 2.55 1.90 1 2.75 1.15 7.65 1.15 3.30 -0.05 5.75 -0.30 6.15 -0.60 0.40 -0.35 0.90 -0.45 1.15 -0.30 0.25 0.15 1.50 -0.05 2.75 -0.45 1.30 -0.40 2.35 -0.60 2.35 -0.45 0 0.15 0.50 -0.05 1.10 -0.35 0.65 -0.35 1.60 -0.65 2.15 -0.75 0.55 -0.05 1.25 -0.15 1.50 -0.20 1.35 -0.30 2.85 0.10 3.80 1.05 0.85 0.85 1.45 1 3.15 0.80 4.55 -0.60 6.20 -1.20 6.55 -2.35 0.35 -1.15 2.50 -1.85 6.50 -2.20 2.65 -0.25 8.50 -1.25 11.65 -2 2.60 -0.65 3.40 -0.85 4.55 -1.10 0.70 -0.15 1.40 -0.35 1.60 -0.45 0.20 -0.15 1.35 -0.35 2.50 -0.50 2 -0.25 4.55 -0.90 6.45 -1.60 0.40 -0.15 1.30 -0.40 1.90 -0.50 1.75 -0.30 9.55 -3.50 12.70 -5.20 1.20 -0.60 3.25 -0.60 3.65 0.10 0.25 0.35 0.70 0.30 1.40 -0.20 0.60 -0.35 2.80 -1.30 4.85 -2.10 2.05 -0.80 4 -1.70 4.30 -2.10 0.30 -0.35 0.75 -0.65 1 -0.65 0.25 0 0.85 -0.70 1.30 -1.50 0.85 -1.50 1.95 -2.20 4.60 -2.75 0.80 -0.15 2.70 -1.50 4.25 -3 3.05 -2.90 4.85 -3.85 6.45 -3.40 1.10 0.25 5.45 -2.75 8.30 -5.80 0.85 -0.85 1.85 -1.55 2.35 -1.55 1.40 0 5.15 -4.60 6 -7.30 0.95 -3.05 2.65 -4.15 5 -3.20 0.80 0.35 1.70 1.05 2 1.55 0.25 0.55 0.85 0.95 1.25 0.95 1.40 0 3.60 1.95 3.95 3.45 0.20 1 0 2.10 -0.75 3.55 -1.90 3.70 -13.90 14.65 -20.40 18.60 l-3 1.85 0.25 2.95 c0.15 1.60 0.05 3.35 -0.25 3.90 -0.40 0.75 -0.10 1.65 1.50 4.45 7.95 13.85 11.40 21.20 11.40 24.15 0 5.25 -5.05 5.80 -11.60 1.25 -1.50 -1 -2.25 -1.20 -3.55 -0.95 -0.95 0.20 -2.10 0.20 -2.55 0 -0.45 -0.15 -2 -2.05 -3.50 -4.15 -3.15 -4.45 -17.15 -20.20 -18.15 -20.45 -0.40 -0.10 -0.95 0.05 -1.30 0.30 -1.20 0.95 -14.10 6.15 -21.25 8.55 -6.70 2.25 -19.50 5.70 -23.70 6.35 -2.25 0.35 -2.95 0.50 -4.40 0.85 -0.70 0.20 -2.15 0.45 -3.25 0.60 -1.10 0.10 -3.70 0.45 -5.75 0.75 -2.05 0.30 -4.30 0.45 -5 0.40 -1.20 -0.15 -1.30 0.05 -2.85 6.70 -2.35 10.25 -5 19.45 -5.85 20.30 -0.40 0.40 -1.30 0.75 -2.05 0.75 -0.85 0 -1.70 0.50 -2.50 1.55 -3.70 4.75 -9.35 12.80 -10.05 14.30 -1.25 2.70 -2.20 3.50 -4 3.50 -1.15 0 -1.90 -0.35 -2.65 -1.30z m17.45 -30.70 c0.60 -1.95 1.50 -5.60 2.05 -8.15 0.55 -2.50 1.10 -5 1.25 -5.45 0.25 -0.80 -0.10 -0.90 -2.25 -0.90 -2.80 0 -2.50 -0.45 -3.55 5.15 -0.50 2.60 -0.50 2.95 0.45 4.15 1.30 1.65 1.30 2.30 0.05 5.95 -1.25 3.60 -1.25 3.90 0 3.25 0.60 -0.30 1.35 -1.80 2 -4z m101.10 -24.80 c-2.20 -3.85 -4.65 -8.35 -5.50 -10.05 -0.90 -1.70 -1.80 -3.25 -2.10 -3.40 -0.30 -0.20 -1.25 0 -2.15 0.40 -0.90 0.40 -2.45 1.10 -3.45 1.55 -1.05 0.40 -1.90 0.85 -1.90 0.95 0 0.15 0.90 1.20 2.05 2.40 1.10 1.20 2.55 3 3.20 3.95 1.60 2.45 2.70 3.30 4.85 3.70 1.35 0.25 2.25 0.90 3.70 2.70 2.90 3.60 4.90 5.70 5.10 5.15 0.10 -0.25 -1.65 -3.55 -3.80 -7.35z"/>
  <path d="M451.75 526.95 c-1.90 -0.25 -11.95 -0.55 -22.30 -0.65 -24.45 -0.30 -30.55 -0.95 -37.75 -4.05 -6.55 -2.80 -10.05 -5 -15.85 -9.75 -2.10 -1.70 -6.85 -8.15 -9.80 -13.25 -1.75 -3.05 -3.90 -6.40 -4.80 -7.50 -1.65 -2.05 -4.25 -6.80 -4.25 -7.75 0 -0.25 -2.85 -5.50 -6.35 -11.60 -7.35 -13 -9.65 -17.70 -11.35 -23.55 -1.05 -3.75 -1.60 -6.60 -3.25 -17.60 -0.25 -1.65 -1 -4.35 -1.70 -6 -2.50 -5.90 -3.05 -10 -3 -22 0.05 -7.80 0.40 -13.50 1.10 -19.50 0.60 -4.65 1.40 -11.60 1.85 -15.40 0.55 -5.35 1 -7.40 1.95 -9.20 1.75 -3.25 1.65 -4.40 -0.35 -4.55 -2.15 -0.15 -3.40 -1.40 -3.40 -3.30 0 -2.05 2.70 -8.40 6.20 -14.80 1.55 -2.85 2.80 -5.40 2.80 -5.75 0 -0.35 -0.35 -0.90 -0.75 -1.25 -1.40 -1.15 -0.90 -3.85 1.35 -7.15 3.10 -4.65 6.10 -8.15 16.15 -18.85 14.45 -15.40 20.35 -20.90 24.75 -23.15 2.05 -1 4.10 -2.05 4.50 -2.30 4.35 -2.55 7.65 -3.25 8.20 -1.75 0.40 1 2.50 0.75 9.25 -0.95 3.50 -0.90 4.80 -1.45 5.10 -2.15 0.75 -2.10 2.15 -2.75 5.75 -2.65 5.20 0.15 33.05 -0.90 33.65 -1.25 0.60 -0.40 21.75 -0.40 25.05 -0.05 1.85 0.20 3.50 0.55 5 1 0.15 0.05 1.25 0.35 2.50 0.70 3.55 0.95 5.25 1.90 8.85 4.80 1.90 1.50 3.85 2.75 4.45 2.75 1.15 0 7.85 2 11.20 3.35 3 1.20 11.10 6.05 19.65 11.80 3.75 2.50 8.15 5.40 9.70 6.35 1.55 0.95 5.30 4.10 8.35 7 3.05 2.90 6.55 6.05 7.80 7 1.25 0.90 3.50 2.85 5 4.25 1.50 1.45 3.80 3.40 5.05 4.40 l2.30 1.85 0.55 -1.90 c0.55 -1.85 2.10 -3.10 3.80 -3.10 1.50 0 4.50 4.05 7.65 10.20 1.80 3.60 4.90 9.25 6.90 12.55 6.15 10.15 7.30 13.10 9.20 22.85 0.55 2.85 1.45 6.45 2 8 2.25 6.55 5.55 26.90 5.55 34.25 0 5.25 -1.55 15.55 -4.25 29.05 -1.85 9 -2.15 11.35 -1.70 12.20 0.75 1.35 0.30 7.90 -0.75 10.65 -1.90 5.25 -4.40 10.50 -6.80 14.45 -1.40 2.40 -3.45 6.35 -4.50 8.75 -5.30 12.25 -7.85 14.80 -18.45 18.85 -2.65 1 -7.15 3 -10.05 4.45 -7.30 3.65 -13.55 6.05 -19.35 7.50 -2.70 0.65 -5.95 1.65 -7.15 2.20 -1.25 0.55 -2.80 1.10 -3.50 1.25 -0.70 0.15 -2.05 0.50 -3 0.80 -2.50 0.75 -8.25 2 -11.75 2.50 -1.65 0.25 -3.35 0.55 -3.75 0.65 -0.40 0.10 -1.75 0.35 -3 0.55 -1.25 0.20 -2.70 0.45 -3.25 0.55 -0.55 0.10 -1.25 0.20 -1.60 0.20 -0.35 0.05 -0.95 0.80 -1.40 1.75 -0.85 1.80 -2.25 2.60 -5.50 3.10 -3.15 0.50 -34.60 0.65 -38.50 0.15z m23.40 -8.70 c1.10 -0.30 1.35 -0.65 1.35 -2 0 -2.45 1.45 -3.95 3.75 -3.85 1.05 0.05 2.10 0.35 2.30 0.70 0.25 0.35 1.65 0.55 4.15 0.50 3.70 -0.10 7.70 -1.20 13.05 -3.60 1.10 -0.50 4.95 -2.20 8.50 -3.75 3.60 -1.60 7.70 -3.40 9.20 -4.05 1.45 -0.65 2.95 -1.20 3.30 -1.20 0.40 0 1 -0.30 1.35 -0.60 0.35 -0.35 1 -0.75 1.40 -0.85 3.40 -0.80 8.70 -2.55 8.95 -2.95 0.15 -0.30 1.10 -0.65 2.05 -0.85 1.50 -0.25 2 -0.10 3.20 1 1.20 1.10 1.35 1.60 1.15 3 -0.15 0.90 -0.15 1.80 0 1.90 0.20 0.25 4.25 -1.10 7.65 -2.50 0.40 -0.15 1 -0.35 1.25 -0.40 3.05 -0.75 9.15 -3.10 11.25 -4.40 2.20 -1.30 2.80 -1.90 3.05 -3.35 0.20 -0.95 0.30 -1.80 0.25 -1.85 -0.05 -0.10 -1.40 0.10 -2.90 0.35 -4.15 0.80 -6.40 -0.45 -6.40 -3.50 0 -1.55 2.20 -3.50 3.90 -3.50 3.60 0 11.85 -5.30 20.25 -13 3.45 -3.15 4.40 -4.85 5.85 -10.65 0.90 -3.70 1 -4.70 0.50 -5.90 -0.75 -1.80 -0.65 -2.50 2.15 -14.20 2.55 -10.60 3.35 -15.60 3.35 -20.90 0.05 -5.55 -0.95 -27.35 -1.55 -34.35 -0.70 -8.65 -0.95 -9.60 -2.40 -9.85 -0.70 -0.10 -1.50 -0.40 -1.85 -0.70 -0.70 -0.55 -3 -5.25 -7.25 -14.80 -6.45 -14.50 -9.90 -19.95 -18.40 -28.80 -5.65 -5.80 -10.30 -9.55 -15.80 -12.70 -5.70 -3.20 -5.95 -3.40 -6.75 -3.95 -0.40 -0.35 -2.30 -1.45 -4.25 -2.45 -4.60 -2.50 -7.20 -4.30 -11.30 -7.85 -5.30 -4.55 -9.05 -6.90 -18.25 -11.50 -4.65 -2.35 -9.20 -4.65 -10.05 -5.10 -0.90 -0.50 -2.15 -0.80 -2.70 -0.70 -0.95 0.15 -0.70 0.60 2.25 4.05 1.80 2.15 3.45 4.45 3.60 5.15 0.50 1.90 -1.20 3.90 -3.35 4.10 -1.60 0.10 -2.05 -0.25 -6.85 -5.40 -4.45 -4.75 -5.40 -5.50 -6.75 -5.50 -2.10 -0.05 -3.20 -0.95 -4 -3.30 l-0.70 -1.90 -12.95 -2.20 c-12.35 -2.10 -13.45 -2.20 -23.45 -2.25 -10.10 -0.05 -10.70 0 -15 1.30 -2.45 0.75 -5.15 1.45 -6 1.55 -0.80 0.15 -2.75 0.55 -4.25 1 -1.50 0.40 -3.65 0.85 -4.70 1 -1.10 0.20 -3.45 0.75 -5.25 1.30 -1.80 0.55 -3.85 1.05 -4.55 1.20 -0.70 0.10 -1.80 0.45 -2.50 0.70 -0.70 0.30 -1.65 0.65 -2.20 0.80 -0.65 0.20 -0.75 0.50 -0.45 0.95 0.95 1.15 1.10 3 0.40 4.40 -0.80 1.45 -1.25 1.70 -4.75 2.20 -1.25 0.20 -2.90 0.85 -3.75 1.45 -0.80 0.60 -2.40 1.35 -3.50 1.70 -2.75 0.80 -7.10 4.65 -7.50 6.75 -0.45 2.05 -1.10 2.85 -3.05 3.65 -2.50 1.05 -12.75 13.55 -14.50 17.60 -2.25 5.35 -5.60 21.95 -6.75 33.45 -0.55 5.90 -0.55 6.10 0.50 7.20 1.25 1.35 1.35 3.15 0.30 5.60 -0.40 1 -0.75 2.50 -0.75 3.30 0 0.85 -0.45 2.60 -0.95 3.95 -1.80 4.60 -2.70 12.95 -2.70 25.10 0.05 11.95 0.55 18.80 2.15 27.85 1.80 10.25 4.25 16.40 8.35 21.10 2.20 2.55 2.65 4.25 1.60 5.95 -0.45 0.70 -0.25 1.60 0.85 4.25 1.40 3.25 1.50 3.35 3.25 3.35 2.90 0 3.65 1.30 3.55 5.90 l-0.15 3.85 3.35 5 c1.85 2.75 4.75 6.70 6.50 8.75 1.75 2.05 3.20 4.10 3.20 4.55 0 0.65 7.25 6 11.10 8.20 0.45 0.30 2.50 1.45 4.50 2.65 4.65 2.75 8.75 4.70 13 6.15 l3.35 1.15 1.05 -1.35 c1.60 -2 3.85 -1.85 6 0.40 2.30 2.40 3.70 2.75 14.25 3.50 3.05 0.25 4.90 0.65 5.75 1.25 1.85 1.25 3.25 1.60 8 2 5.35 0.40 29.30 0.20 31.15 -0.25z m-83.90 -4.80 c-0.05 -0.70 -0.95 -1.50 -2.80 -2.50 -1.50 -0.85 -2.90 -1.70 -3.15 -1.95 -0.60 -0.60 -2.15 -0.65 -2.50 -0.10 -0.20 0.35 7.80 5.60 8.45 5.60 0.05 0 0.05 -0.45 0 -1.05z m-49.55 -163.50 c0.60 -3.10 0.30 -3.85 -0.75 -1.70 -1.10 2.40 -1.20 3.25 -0.25 3.25 0.35 0 0.80 -0.70 1 -1.55z"/>
  <path d="M472 474.95 c-1.25 -0.30 -4.70 -0.35 -7.75 -0.20 -3 0.15 -8.20 0.05 -11.50 -0.25 -3.30 -0.30 -10.50 -0.85 -16 -1.25 -12.55 -0.85 -14 -1.30 -20.25 -6.05 -9.25 -7.10 -18.35 -18.90 -25.70 -33.45 -2.05 -4.10 -4.95 -13.85 -6.15 -20.65 -0.75 -4 -0.75 -5.40 -0.25 -10 0.85 -7.60 2.15 -11.85 6.20 -19.85 4.65 -9.20 6.15 -11.45 10.70 -16.25 3.60 -3.75 9.85 -8.50 11.15 -8.50 0.35 0 1.40 -0.45 2.45 -0.95 1 -0.50 2 -0.95 2.20 -1 0.20 -0.05 0.65 -0.15 1 -0.25 0.35 -0.15 1.35 -0.40 2.15 -0.60 2 -0.50 2.20 -0.55 2.50 -0.70 0.15 -0.05 0.40 -0.15 0.65 -0.20 1.10 -0.30 3.15 -1.05 5.60 -2.15 1.50 -0.70 3.15 -1.35 3.70 -1.45 0.50 -0.10 1.20 -0.40 1.50 -0.70 0.35 -0.25 0.80 -0.35 0.95 -0.15 0.20 0.15 0.35 0.10 0.35 -0.15 0 -0.70 1.30 -0.80 12.50 -0.75 8.65 0.05 14.80 0.45 18.50 1.25 1.50 0.30 3.80 1.40 5.25 2.50 1.40 1.10 2.45 1.45 5.75 2 5.75 0.95 13.40 4.25 16.65 7.25 1.15 1.05 3.35 2.80 4.90 3.85 6.25 4.35 10.85 8.40 13 11.50 1.25 1.85 2.15 3.80 7.20 15.95 0.95 2.20 2.45 7.15 3.35 11 1.65 6.95 1.65 7.10 1.60 19.25 0 11.70 -0.05 12.50 -1.35 17.20 -3.05 11.25 -9.15 19.90 -16.60 23.60 -1.50 0.70 -3.20 1.70 -3.75 2.20 -1.40 1.20 -7.75 5.05 -8.60 5.20 -0.35 0.05 -1.30 0.45 -2.15 0.90 -2.90 1.55 -6.50 2.20 -12 2.25 -3 0.05 -6.50 -0.15 -7.75 -0.40z"/>
  <path d="M655.50 262 c-0.55 -0.55 -1 -1.65 -1 -2.50 0 -1.65 0.60 -2.35 4.95 -5.75 2.20 -1.70 2.50 -2.20 2.20 -3.25 -0.15 -0.70 -0.30 -1.75 -0.30 -2.30 0.05 -1.35 3.90 -7.15 10.15 -15.20 9.20 -11.85 12 -16.90 15.80 -28.50 1.55 -4.60 2.85 -7.70 3.70 -8.70 3.40 -3.90 4.95 -9.35 5 -17.60 0 -2.60 -0.20 -3.75 -0.75 -4.20 -1 -0.85 -0.95 -2.25 0.25 -5.25 0.55 -1.35 1.20 -3.80 1.50 -5.40 0.35 -1.65 1.10 -3.45 1.75 -4.30 1.70 -1.95 2.10 -3.20 3 -9.40 0.55 -3.65 0.75 -7.95 0.70 -13.35 -0.15 -7.75 -0.15 -7.95 1 -8.85 1.50 -1.20 3.60 -1.20 4.90 0 2.15 2.05 2 18.65 -0.30 29.05 -0.70 3.10 -0.80 4.50 -0.45 5.20 0.80 1.50 0.10 12.90 -1.05 17.60 -0.55 2.25 -1.80 6.10 -2.75 8.50 -0.95 2.45 -2.35 6.80 -3.05 9.70 -1.35 5.45 -5.50 16.55 -7.25 19.40 -0.70 1.10 -1.35 1.60 -2.25 1.60 -0.90 0 -1.55 0.50 -2.25 1.65 -1.20 1.95 -1.25 2.35 -0.10 2.35 1.40 0.05 2.55 1.25 2.90 2.95 0.30 1.40 -0.15 2.35 -3.90 7.95 -7.50 11.25 -11.75 15.95 -22.90 25.20 -5.70 4.80 -7.50 5.40 -9.50 3.40z"/>
 </g>
</svg>