<svg preserveAspectRatio="xMidYMid meet" viewBox="44.60807600950119 80.208 773.9501187648456 1004.828" xmlns="http://www.w3.org/2000/svg" version="1.0" style="max-height: 500px" width="773.9501187648456" height="1004.828">
 <g fill="#b7da8c">
  <path d="M379.75 1073.50 c-5.75 -1.15 -12.15 -2.75 -16.10 -4.05 -2.70 -0.90 -3.60 -1.50 -6.90 -5.05 -3.15 -3.35 -3.75 -4.25 -3.75 -5.70 0 -0.95 0.25 -2.15 0.60 -2.65 0.50 -0.80 0.20 -1.35 -1.95 -3.80 -1.45 -1.60 -3 -4.05 -3.65 -5.65 -2.15 -5.70 -4.05 -14.20 -4.35 -19.65 -0.30 -5.10 -0.25 -5.35 0.75 -5.65 2.20 -0.70 3.10 -2.65 3.10 -6.60 0 -9.20 -2.40 -31.35 -5.10 -46.95 -1.40 -8.20 -1.55 -10.10 -1.65 -21.25 -0.10 -11.40 -0.85 -20.85 -2.25 -28.25 -0.25 -1.35 -0.65 -3.75 -0.95 -5.25 -1.25 -7.10 -4.10 -18.50 -5.25 -21 -0.70 -1.50 -2.20 -6.65 -3.30 -11.50 -3.10 -13.25 -2.85 -12.60 -5.60 -13.50 -2.10 -0.65 -2.45 -1 -3.20 -3 -0.45 -1.25 -1.35 -3.35 -2 -4.75 -2.80 -6.25 -3.80 -9.10 -5.45 -15.50 -1.75 -6.90 -2.45 -8.70 -3.45 -9.35 -0.30 -0.20 -1.65 -0.40 -3.05 -0.40 l-2.50 0 -2.90 -4.45 c-1.60 -2.40 -3.45 -4.95 -4.10 -5.55 l-1.25 -1.20 -1.40 1.35 c-1.40 1.35 -3.90 1.80 -4.90 0.90 -0.55 -0.55 -1.75 0.25 -2.55 1.65 -0.35 0.60 -0.35 1.55 -0.05 2.75 1 3.60 1 6.25 0.10 9.90 -0.70 2.85 -1.10 3.65 -1.80 3.65 -0.50 0 -0.90 -0.30 -0.90 -0.65 0 -0.35 -1.75 -2.40 -3.90 -4.60 -2.15 -2.20 -5.25 -5.90 -6.85 -8.20 -2.30 -3.30 -3 -4 -3.35 -3.35 -0.25 0.45 -0.70 0.80 -1 0.80 -0.60 0 -0.45 -2.75 0.80 -17 0.40 -4.55 1 -12.90 1.35 -18.60 0.55 -10.20 0.55 -10.35 -0.50 -11.70 -0.75 -0.95 -1.05 -2.05 -1.05 -3.80 0 -2.10 0.20 -2.65 1.30 -3.50 1.45 -1.15 1.40 -1.55 -0.25 -5.90 -1.10 -2.85 -1.40 -5.50 -0.60 -5.50 0.25 0 0.60 0.30 0.70 0.65 0.15 0.35 0.30 0.20 0.30 -0.35 0.05 -0.50 0.95 -2.25 2.05 -3.90 1.10 -1.65 2 -3.35 2 -3.70 0 -0.40 -0.90 -3.80 -1.95 -7.60 -1.10 -3.75 -2.35 -8.85 -2.80 -11.35 -1.15 -6.30 -1.40 -6.90 -6.05 -17.15 -8.80 -19.15 -18.55 -37.90 -25.15 -48.25 -7.50 -11.80 -14.55 -23 -17.90 -28.50 -1.30 -2.15 -2.80 -4.40 -3.30 -5 l-0.90 -1.10 0.55 1.15 c0.55 1.05 0.45 1.15 -0.55 1 -1.40 -0.20 -1.75 -0.85 -4.70 -8.55 -2.35 -6.15 -2.65 -7.95 -1.70 -10.05 0.50 -1.10 0.40 -1.45 -0.95 -3 -1.65 -1.90 -4.30 -6.20 -6 -9.90 -1.65 -3.55 -7.85 -22.40 -9.55 -28.95 -0.80 -3.20 -1.95 -6.55 -2.45 -7.50 -0.55 -0.95 -1.40 -3.60 -1.90 -5.95 -0.70 -3.35 -1.20 -4.55 -2.35 -5.70 -1.40 -1.40 -1.50 -1.90 -2.40 -9.50 -0.55 -4.45 -1.10 -12.25 -1.30 -17.35 -0.25 -8.15 -0.20 -9.40 0.55 -10.55 0.60 -0.90 0.75 -1.85 0.55 -3.20 -0.20 -1.10 0.10 -4.65 0.70 -8.20 2.85 -17.25 4.40 -31.30 5.60 -49.75 0.30 -4.75 0.90 -9.55 1.50 -11.95 1.15 -4.60 5.40 -18.25 7.45 -24.05 2.75 -7.85 10.20 -26.05 11.25 -27.50 0.60 -0.80 1.35 -2.50 1.70 -3.75 0.95 -3.25 5 -11.10 10.20 -19.75 4.80 -8 6.30 -10.95 8.15 -16.45 1.25 -3.55 2.75 -5.70 8.15 -11.40 2.75 -2.95 3.40 -3.40 4.90 -3.40 l1.75 0 -0.25 2.10 c-0.15 1.20 -0.60 3.30 -1 4.65 -0.80 2.75 -0.45 4.15 1.20 5.15 1.45 0.95 3.20 -1.05 3.70 -4.15 0.80 -5.40 4.40 -9.90 15.40 -19.40 7.35 -6.30 15.90 -13.25 17.90 -14.45 0.70 -0.45 3.30 -1.45 5.75 -2.20 2.45 -0.75 4.85 -1.70 5.30 -2.10 0.50 -0.40 0.90 -1.60 1 -3 l0.15 -2.25 5.70 -3.95 c4.35 -2.95 6.10 -3.90 7.40 -3.90 1.50 0 1.65 0.15 1.65 1.50 0 0.85 -0.30 1.95 -0.60 2.50 -0.80 1.30 0.25 3.35 2.20 4.50 1.25 0.70 1.45 0.65 2.60 -0.45 1 -0.95 1.30 -1.70 1.30 -3.35 0 -1.90 0.25 -2.35 2.15 -3.95 5.05 -4.40 12.05 -7.45 13.10 -5.75 0.15 0.30 -0.10 0.50 -0.55 0.50 -0.50 0 -0.70 0.15 -0.55 0.35 0.30 0.25 6 2.35 10.85 3.95 0.45 0.15 5.10 -2.65 10.80 -6.40 5.50 -3.65 11.50 -7.45 13.35 -8.40 1.85 -0.95 3.35 -1.90 3.35 -2.10 0 -0.20 -0.35 -0.25 -0.75 -0.10 -0.50 0.20 -0.75 0 -0.75 -0.70 0 -1.15 -1.20 -0.70 20 -7.05 22.65 -6.70 30.85 -9.05 32.05 -9.05 0.60 0 1.75 0.60 2.50 1.30 l1.35 1.30 4.50 -0.60 c6.50 -0.90 13.40 -0.50 15.65 0.90 1.60 1 1.85 1 2.85 0.30 0.85 -0.60 1.10 -1.25 1.10 -3.05 0 -2.20 0.05 -2.25 0.90 -1.50 0.80 0.75 2.70 0.85 16.20 0.85 17 0 22.80 0.45 31.65 2.35 3.30 0.70 7.35 1.35 9 1.45 18.40 1.15 23.20 1.95 32.75 5.20 3.15 1.05 6.65 2.10 7.75 2.25 3.65 0.60 17.45 3.30 22 4.30 5.75 1.30 14.45 4.25 22.85 7.75 3.65 1.55 9.70 3.90 13.40 5.30 8.70 3.25 19.60 8.80 27.50 14 3.45 2.25 9.05 5.50 12.50 7.30 7.30 3.70 14.15 8.15 19.75 12.85 2.20 1.85 6.80 5.30 10.25 7.65 3.40 2.35 7.60 5.45 9.25 6.85 4.90 4.05 4.70 3.95 4.40 2.80 -0.30 -1.20 0.90 -1.45 1.70 -0.40 1.55 1.90 5.10 15.60 6.65 25.60 0.55 3.60 1.35 8.45 1.80 10.85 1.10 5.80 2.85 7.75 4.95 5.40 0.85 -0.95 0.80 -1.40 -0.95 -12.35 -2.25 -14.15 -2.25 -13.65 -0.15 -13.65 1.40 0 1.80 0.30 3.05 2.35 1.10 1.85 1.35 2.75 1.15 4.30 -0.35 2.55 2.65 9.30 10.60 23.75 5.25 9.55 16.05 30.65 16.05 31.30 0 0.15 0.65 1.65 1.45 3.40 2.05 4.45 2.25 5.10 5 15.40 8.20 30.70 10.25 40.50 8.55 40.50 -0.25 0 -0.50 -0.20 -0.50 -0.50 0 -0.25 -0.40 -0.50 -0.90 -0.50 -0.75 0 -0.80 0.40 -0.55 4.15 0.20 2.25 0.80 6 1.40 8.35 1.25 5 2.30 12.95 3.05 23 0.30 4 1.10 10.05 1.75 13.50 1.75 9.30 2.20 14.05 2.50 26.75 0.20 6.35 0.65 14.55 1 18.25 1.50 13.90 2.85 25.30 3.25 27.50 1.35 7.20 1.65 17.30 0.95 34.25 -0.40 9.35 -0.70 23.85 -0.70 32.20 l0 15.25 3.90 2.60 c5.60 3.85 9.10 6.95 12.70 11.35 1.70 2.20 3.15 3.60 3.15 3.15 0 -0.45 0.35 -0.80 0.75 -0.80 0.55 0 0.75 0.60 0.75 2.50 0 2.05 0.35 3 2.20 5.85 5.45 8.45 7.65 14.05 8.65 21.80 0.25 1.90 -0.45 2.50 -1.25 1.05 -0.30 -0.50 -0.55 1.35 -0.75 5.40 -0.20 3.35 -0.55 7 -0.80 8 -0.35 1.45 -0.25 1.90 0.30 2.10 0.40 0.20 0.95 0.20 1.20 0 0.25 -0.15 0.45 0.30 0.45 1 0 0.70 -0.20 1.35 -0.45 1.55 -0.25 0.15 -0.60 0.95 -0.80 1.75 -0.35 1.60 -1.75 2.10 -1.80 0.65 0 -0.50 -0.55 0.55 -1.15 2.35 -2.35 6.70 -5.20 12 -9.40 17.35 -2.40 3.10 -2.85 4.15 -1.90 4.15 0.30 0 0.50 0.25 0.50 0.50 0 0.30 -0.60 0.50 -1.40 0.50 -1 0 -1.75 -0.55 -3.10 -2.30 -0.95 -1.25 -2.35 -3 -3.10 -3.95 -0.80 -0.90 -1.40 -1.85 -1.40 -2.10 0 -1 -1.85 -2.15 -4.35 -2.65 -1.45 -0.30 -2.85 -0.90 -3.20 -1.30 -0.30 -0.40 -0.95 -0.70 -1.45 -0.70 -1.90 0 -2.50 1.70 -4 11.05 -2.75 17.25 -3.85 22.45 -5.25 24.55 -1.80 2.75 -2.70 5.35 -3.55 10.65 -0.40 2.50 -1.05 5.60 -1.45 6.95 -1 3.40 -0.95 4.15 0.50 5.40 1.45 1.25 1.55 2.65 0.40 6.15 -1.75 5.30 -1.35 47.50 0.65 65.20 0.90 8.05 2.70 18.05 4.80 26.55 1.35 5.65 1.55 7.15 1.70 16 0.10 5.35 0.40 11.10 0.70 12.75 0.35 1.65 0.80 11.35 1 21.50 0.25 10.20 0.60 22.60 0.80 27.65 0.30 9.05 0.30 9.15 -0.80 10.35 -0.65 0.70 -1.70 3.20 -2.50 5.85 -0.95 3.45 -1.55 4.70 -2.25 4.80 -0.70 0.15 -0.85 -0.05 -0.65 -0.80 0.15 -0.55 -1.30 0.70 -3.30 2.75 -4.90 5.20 -11.05 9.70 -17.55 12.85 -5.70 2.80 -13.05 5.30 -15.60 5.30 -0.80 0 -1.90 0.35 -2.45 0.80 -0.85 0.70 -0.85 0.75 -0.05 0.50 0.60 -0.20 0.85 -0.10 0.70 0.30 -0.15 0.50 -2.45 0.65 -9.40 0.65 -10.80 0 -15.95 -0.50 -15.95 -1.55 0 -0.40 0.40 -0.70 0.85 -0.70 1.45 0 0.30 -0.60 -4.90 -2.55 -2.80 -1.10 -7 -2.95 -9.30 -4.20 -3.05 -1.65 -4.15 -2.05 -4.15 -1.50 0 0.40 -0.35 0.75 -0.75 0.75 -0.45 0 -0.75 -0.45 -0.75 -1.15 0 -1.40 -1.75 -3.15 -3.50 -3.60 -0.90 -0.20 -1.55 -1.05 -2.45 -3.05 -1.65 -3.75 -4.25 -6.55 -11 -11.65 -7.05 -5.40 -14.55 -11.90 -14.55 -12.65 0 -0.30 -0.30 -0.95 -0.70 -1.35 -0.40 -0.45 -1.05 -1.90 -1.50 -3.25 -2.40 -7.15 -6.45 -15.40 -11 -22.40 -2.80 -4.35 -4.40 -5.95 -6.30 -6.35 -1.40 -0.25 -1.85 -0.65 -2.30 -1.95 -0.85 -2.75 -1.95 -3.60 -4.35 -3.60 -2.75 0 -4 -1.20 -3.75 -3.60 l0.15 -1.65 3.40 -0.05 c2.75 0 3.60 -0.20 4.40 -1.05 1.30 -1.30 0.95 -2.75 -0.85 -3.60 -0.70 -0.30 -3 -0.70 -5.10 -0.90 -3 -0.25 -4.15 -0.55 -5.25 -1.50 -0.95 -0.75 -2.05 -1.15 -3.40 -1.15 -1.40 0 -1.95 -0.20 -1.95 -0.75 0 -0.40 0.35 -0.75 0.80 -0.75 0.65 0 0.70 -0.55 0.45 -3.60 -0.30 -2.95 -0.80 -4.60 -2.90 -8.80 -2.15 -4.45 -2.65 -5.15 -3.55 -4.90 -3.85 0.95 -9.10 1.35 -15.95 1.25 l-7.90 -0.15 -3.75 4.10 c-2.05 2.20 -5.45 5.45 -7.60 7.15 -4.10 3.25 -4.65 3.95 -3.40 3.95 0.45 0 0.80 0.35 0.80 0.75 0 0.80 -1.30 1.05 -6.85 1.45 -4.50 0.30 -11.10 2.50 -18.40 6.15 -3 1.50 -5.80 3 -6.15 3.25 -0.40 0.35 -1.90 0.40 -3.90 0.25 -2.85 -0.30 -3.70 -0.15 -7 1.15 -3.80 1.50 -6.20 1.90 -6.20 1 0 -0.25 0.25 -0.50 0.55 -0.50 0.40 0 0.40 -0.20 -0.05 -0.70 -0.30 -0.40 -0.90 -0.60 -1.25 -0.50 -1.95 0.80 -17.20 -3.20 -22.35 -5.85 -1.05 -0.55 -1.95 -0.95 -2.10 -0.95 -0.10 0 -0.50 1.20 -0.85 2.65 -0.65 2.75 -4.35 13.95 -8.10 24.40 -1.25 3.45 -3.10 9.40 -4.15 13.25 l-1.85 6.95 0.45 9 c0.70 14.45 0.55 24.35 -0.50 29 -2 8.65 -4.85 15.45 -9.35 22.05 -1.85 2.80 -2.20 3.55 -1.45 3.35 1.45 -0.40 1.30 1.25 -0.10 1.80 -0.65 0.25 -4.65 1 -8.90 1.75 -13.20 2.30 -17.55 3.50 -35 9.75 -3.60 1.30 -4.95 1.55 -9.10 1.55 -2.70 0 -5 -0.20 -5.15 -0.50 -0.55 -0.90 -2.20 -0.50 -3.05 0.75 -1 1.55 -3.30 1.60 -9.95 0.25z m84.60 -248.90 c0.30 -0.20 1 -1.40 1.55 -2.60 0.55 -1.25 3.70 -6 7.05 -10.60 5.30 -7.30 6.30 -8.40 7.50 -8.40 2.30 0 3.45 -1.25 4.60 -5.15 1.55 -5.20 4.75 -17.90 5.75 -22.95 l0.90 -4.40 1.65 0 c3.25 0 16.15 -2.10 24.80 -4.05 15.75 -3.55 27.45 -7.25 41.95 -13.25 4.85 -2.05 9.50 -3.70 10.25 -3.70 1.20 0 2.75 1.55 10.15 9.80 4.80 5.40 10.05 11.60 11.65 13.85 3.45 4.85 4.15 5.50 5.40 4.85 1.70 -0.90 3.30 -0.50 6.70 1.75 4.60 3 6.40 3.60 8 2.55 2.15 -1.40 2.10 -2.85 -0.25 -8.20 -1.15 -2.65 -3.80 -7.90 -5.90 -11.60 -2.05 -3.70 -4.65 -8.30 -5.70 -10.20 -1.90 -3.40 -2.55 -6.85 -1.40 -7.55 0.25 -0.15 0.35 -1.90 0.20 -4.15 l-0.25 -3.85 3.10 -1.75 c8.75 -4.95 24.95 -20.05 24.95 -23.35 0 -1.05 -2.25 -3.05 -3.85 -3.45 -0.75 -0.20 -2 -1.05 -2.80 -1.85 -1.25 -1.35 -1.45 -1.40 -2.50 -0.75 -0.65 0.45 -1.50 1.90 -2 3.55 -1.10 3.40 -4.70 7.60 -6.90 8.10 -0.80 0.20 -2 1 -2.60 1.85 -0.60 0.80 -2.80 2.70 -4.85 4.20 -3.25 2.35 -4 2.70 -6.10 2.70 -2.30 0 -2.55 0.15 -5.10 2.80 -3.30 3.45 -5.15 4.70 -7.05 4.70 -2 0 -3.60 1.15 -4.45 3.20 -0.50 1.15 -1.35 1.95 -3 2.70 -1.25 0.60 -2.50 1.10 -2.75 1.10 -0.20 0 -2.05 0.70 -4.05 1.50 -2.50 1.05 -4.50 1.50 -6.30 1.50 -2.10 0 -3.50 0.40 -6.05 1.70 -1.90 0.95 -4.50 2.15 -5.90 2.70 -2.90 1.15 -13 4 -16.25 4.60 -1.25 0.25 -4.65 1 -7.60 1.70 -6.45 1.60 -16.30 3.30 -18.75 3.30 -1.40 0 -2.15 0.40 -3.45 1.75 -1.35 1.45 -2.30 1.90 -5.20 2.50 -5.50 1.15 -8.20 1 -9.75 -0.55 -0.85 -0.85 -1.60 -1.20 -2.15 -0.95 -4 1.55 -18.65 4.25 -22.90 4.25 -3.05 0 -11.20 -2.90 -11.20 -4 0 -1.05 -1.70 -2 -3.65 -2 -1.15 0 -2.40 -0.20 -2.80 -0.45 -0.90 -0.55 -2.90 0.65 -3.30 2 -0.25 0.75 -0.80 0.95 -2.50 0.95 -2.45 0 -3.70 0.95 -4.80 3.60 -1.10 2.65 0.05 3.60 6.80 5.45 3.45 0.95 5.65 1.10 16.15 1.30 l12.10 0.25 0 1.60 c0 2 -3.10 15.20 -5 21.35 -0.80 2.60 -2.05 5.60 -2.75 6.65 -1 1.45 -1.15 2.05 -0.75 2.85 0.30 0.50 0.75 0.95 1 0.95 0.85 0 0.55 3.80 -0.45 6.60 -1.35 3.55 -2.55 8.50 -2.55 10.20 0 2.25 1.85 3.75 3.35 2.80z m-11.50 -155.25 c3.90 -1.05 9.15 -2.30 11.65 -2.80 4.20 -0.85 7 -2.05 4.85 -2.05 -0.45 0 -0.85 -0.35 -0.85 -0.75 0 -0.95 1.60 -0.95 12.60 0.05 11.25 1.05 37.20 0.75 42.65 -0.50 3.95 -0.90 5.85 -2.05 6.25 -3.85 0.25 -1.05 0.75 -1.30 4.75 -2.05 2.50 -0.45 7.55 -1.45 11.30 -2.15 9.20 -1.75 15.85 -3.50 20.40 -5.30 2.05 -0.80 6.05 -2.05 8.85 -2.70 6.50 -1.55 12.15 -3.70 20.55 -7.95 3.80 -1.90 7.30 -3.30 8.15 -3.30 1.70 0 1.90 0.35 0.65 1.30 -0.75 0.55 -0.10 0.65 4.35 0.70 5.45 0 12.45 1 16.05 2.25 1.40 0.50 4.10 0.75 8.45 0.75 l6.35 0 0.30 -4.10 c1 -13.50 1 -18.05 -0.10 -25.90 -1.50 -10.60 -1.50 -10.45 -2.25 -9.35 -2 2.65 -1.70 -1.10 0.40 -5.40 5.15 -10.55 7 -17.45 5.45 -20.40 -0.95 -1.90 -0.80 -3.15 2.35 -18.85 3 -14.70 4.50 -24.80 4.50 -30.40 0 -4.65 -2.55 -23.55 -4.05 -30.10 -0.55 -2.35 -1.60 -6.25 -2.40 -8.75 -0.80 -2.45 -1.80 -6.55 -2.25 -9.05 -1.75 -10.10 -3.80 -15.25 -9.60 -24.55 -1.75 -2.80 -5.40 -9.30 -8.05 -14.40 -4.45 -8.55 -7.55 -13.25 -8.70 -13.25 -1.10 0 -2.45 2.10 -2.45 3.75 0 1.65 -0.10 1.75 -1.65 1.75 -1.95 0 -3.30 -0.95 -9.20 -6.25 -2.40 -2.20 -5.75 -5 -7.40 -6.25 -1.65 -1.20 -5.70 -4.80 -9 -8.05 -4.05 -3.95 -7.70 -6.90 -11.25 -9.20 -2.90 -1.85 -9.75 -6.35 -15.25 -10 -14.55 -9.65 -19.45 -11.90 -31.60 -14.50 -0.60 -0.15 -2.40 -1.40 -3.95 -2.75 -3.60 -3.15 -7.65 -5.20 -12.60 -6.35 -3.25 -0.75 -6.05 -0.90 -18.10 -0.85 -7.85 0 -21.35 0.30 -30 0.70 -8.65 0.35 -18.40 0.70 -21.65 0.75 -6.30 0.15 -7.45 0.55 -8.05 2.95 -0.25 1 -1.15 1.35 -7.90 2.95 -8.35 2.05 -10.45 2.25 -11.40 1.10 -0.35 -0.40 -0.95 -0.75 -1.35 -0.75 -0.40 0 -3.80 1.60 -7.60 3.50 -5.20 2.65 -7.85 4.35 -10.70 6.90 -6.35 5.65 -30.30 30.75 -35.45 37.10 -2.85 3.55 -6.90 9.60 -6.90 10.35 0 0.35 0.45 1.05 1 1.50 1.75 1.50 1.30 3.75 -2.15 10.05 -4.15 7.70 -6.85 13.60 -7.15 15.70 -0.40 2.25 0.65 3.10 3.60 2.95 2.20 -0.10 2.20 -0.10 2.20 1.55 0 2.10 -1.10 5.65 -2.40 7.90 -0.65 1.15 -1.15 3.10 -1.35 5.75 -0.15 2.20 -0.85 8.05 -1.50 13 -3.85 28.70 -3.40 44.40 1.50 55.15 0.95 2.05 1.55 4.90 2.25 10.50 1.50 11.50 3.90 19.95 7.95 27.95 0.80 1.65 4.45 8.20 8.05 14.60 7.90 14.05 7.20 12.65 8.55 16.30 0.65 1.60 2.25 4.45 3.65 6.25 1.35 1.80 3.70 5.40 5.20 8 4.15 7.20 7.45 11.80 11.50 15.95 1.95 2.05 3.60 4.20 3.60 4.70 0 0.95 -0.05 0.95 -1.35 0.10 l-1.30 -0.90 1.15 1.70 c0.65 0.95 4.95 5.50 9.55 10.15 l8.35 8.50 5.15 0.35 c2.85 0.20 10.25 0.30 16.45 0.25 11.15 -0.15 11.30 -0.15 18.35 -1.95z"/>
  <path d="M475 795.40 c0 -0.90 0.60 -3.40 1.30 -5.55 l1.30 -3.90 -1.05 -1.15 c-1.25 -1.35 -1.35 -3.50 -0.30 -8.95 0.40 -2.15 0.75 -4.05 0.75 -4.15 0 -0.10 2.05 -0.20 4.50 -0.20 5.35 0 5.15 -0.55 3.25 8.05 -3.30 14.85 -4.50 17.40 -8.10 17.45 -1.55 0 -1.65 -0.10 -1.65 -1.60z"/>
  <path d="M598.95 769.65 c-1.25 -1.35 -3.20 -3.55 -4.40 -5 -1.85 -2.30 -2.35 -2.60 -4.20 -2.75 -2 -0.15 -2.25 -0.40 -6.10 -5.20 -2.20 -2.80 -4.50 -5.40 -5.10 -5.75 -0.85 -0.45 -1.15 -1.05 -1.15 -2.45 l0 -1.80 4.70 -1.85 c6.95 -2.75 7.15 -2.70 9.80 2.30 1.20 2.25 4.40 8 7.10 12.75 3.60 6.35 4.90 9.10 4.90 10.40 0 1.60 -0.10 1.70 -1.65 1.70 -1.30 0 -2.10 -0.50 -3.90 -2.35z"/>
  <path d="M375 597 c-0.40 -0.25 -1.55 -0.50 -2.55 -0.50 -1.70 0 -1.80 -0.10 -3.35 -3.60 -1.65 -3.80 -2 -6.75 -1 -8.35 0.50 -0.85 0.25 -1.35 -2.10 -3.90 -8 -8.75 -12.05 -28.15 -12.10 -58.15 0 -15.45 1.15 -26.50 3.20 -30.60 0.50 -1.05 0.90 -2.85 0.90 -4 0 -1.20 0.45 -3.15 1 -4.35 l1.05 -2.20 -1.30 -1.35 c-1.50 -1.55 -1.55 -2.45 -0.50 -12.15 1.85 -17.35 6.05 -36.10 9.10 -40.60 2 -2.95 10.05 -13.25 11.80 -15.10 0.85 -0.90 2.45 -2.05 3.65 -2.60 2.45 -1.20 3.70 -2.70 3.70 -4.60 0 -2.10 6.80 -7.95 9.20 -7.95 0.55 0 2 -0.65 3.25 -1.45 1.25 -0.80 3.10 -1.60 4.05 -1.80 6.60 -1.20 7.45 -1.80 5.75 -4.05 -0.40 -0.50 -0.75 -1.80 -0.75 -2.80 l0 -1.80 3.90 -1.30 c4.70 -1.55 16.05 -4.30 17.80 -4.30 1.80 0 1.65 1.35 -0.20 1.75 -0.80 0.20 -1.60 0.50 -1.70 0.70 -0.15 0.20 -2.10 1.35 -4.40 2.50 -2.30 1.15 -6.25 3.60 -8.85 5.45 l-4.70 3.35 -5.05 10 c-2.80 5.50 -6.25 12.25 -7.70 15 -1.85 3.60 -3.30 7.45 -5.05 13.75 -2.50 8.80 -3.15 12.25 -5.05 27.50 -0.55 4.55 -1.80 13.10 -2.75 19 -0.95 5.90 -2.10 13.55 -2.50 17 -0.45 3.45 -1.45 10.85 -2.25 16.50 -0.80 5.65 -1.70 12.75 -2 15.75 -0.65 6.45 -0.50 67.50 0.20 68.90 0.35 0.70 0.20 0.85 -0.75 0.85 -0.65 0 -1.55 -0.25 -1.95 -0.50z"/>
  <path d="M635.70 561.85 c0.15 -0.90 0.15 -1.80 0 -2 -0.20 -0.20 -0.30 -1.85 -0.25 -3.70 0.05 -1.90 -0.30 -5.30 -0.70 -7.65 -1.75 -9.20 -2.20 -12.65 -3 -22 -0.45 -5.35 -1.25 -11.35 -1.75 -13.25 -2.60 -9.80 -3.15 -13.75 -3.45 -25.65 -0.20 -7.55 -0.15 -11.65 0.20 -11.75 0.30 -0.15 0.30 -0.45 -0.05 -0.90 -1.25 -1.60 -1.20 -2.45 0.05 -2.45 0.90 0 1.25 0.25 1.25 0.95 0 0.55 0.15 1.05 0.40 1.15 0.20 0.10 1.25 2.05 2.35 4.35 2.55 5.45 3.90 7.05 5.80 7.05 0.80 0 1.45 0.25 1.45 0.65 0 0.30 0.35 3.30 0.75 6.60 0.95 7.40 2 31.15 2 44.25 0 9.80 -0.30 12.35 -2.35 21.40 -0.90 3.85 -1.20 4.60 -2.05 4.60 -0.80 0 -0.90 -0.25 -0.65 -1.65z"/>
  <path d="M349 460.95 c0 -1.10 0.50 -3.15 1.05 -4.50 1 -2.25 1.20 -2.45 2.80 -2.45 l1.75 0 -0.35 3.90 c-0.20 2.10 -0.60 4.15 -0.85 4.50 -0.30 0.30 -1.40 0.60 -2.45 0.60 -1.95 0 -1.95 0 -1.95 -2.05z"/>
  <path d="M541 393.45 c-1.50 -0.50 -5.50 -1.45 -8.90 -2.15 -5.80 -1.10 -6.10 -1.15 -5.30 -0.25 0.80 0.90 0.80 0.95 -0.45 0.95 -2.05 0 -6.85 -5.20 -6.85 -7.35 l0 -1.65 3.15 0 c3 0 3.65 0.25 12.15 4.60 4.90 2.50 9 4.60 9.10 4.70 0.10 0.05 0.10 0.55 0 1.05 -0.15 0.95 -0.20 0.95 -2.90 0.10z"/>
  <path d="M504.25 385.50 c-1.75 -0.70 -4.75 -1.15 -9.75 -1.50 -7.65 -0.50 -14.35 -1.50 -19.15 -2.75 -2.15 -0.55 -5.60 -0.75 -13.50 -0.75 -5.85 0 -14.50 -0.15 -19.20 -0.35 -7.45 -0.25 -8.65 -0.40 -8.65 -1.10 0 -0.60 2 -1.30 8.90 -2.95 8.55 -2.10 9.10 -2.15 16.75 -2.15 4.35 0.05 10.05 0.30 12.75 0.60 4.60 0.50 31.50 4.75 33.10 5.20 0.65 0.20 2 4.30 2 6.15 0 0.80 -0.25 0.75 -3.25 -0.40z"/>
  <path d="M612.40 992.10 c-6.20 -7.20 -10.60 -14.30 -12.65 -20.35 -0.55 -1.65 -1.20 -3.30 -1.40 -3.60 -0.30 -0.45 0 -0.65 1.05 -0.65 1.65 0 3.15 1.55 9.15 9.50 2.55 3.35 3.70 5.45 5.35 9.90 1.95 5.20 2.65 8.65 1.75 8.55 -0.25 0 -1.70 -1.50 -3.25 -3.35z"/>
  <path d="M758.75 961.15 c-0.15 -1.35 -0.50 -3.20 -0.75 -4.20 -0.30 -1 -0.50 -3.60 -0.50 -5.85 0 -3.70 0.10 -4.05 1.25 -4.80 1.70 -1.10 3.40 -1.05 3.05 0.10 -0.40 1.35 -1.05 12.65 -0.90 15 0.15 1.85 0.05 2.10 -0.85 2.10 -0.80 0 -1.05 -0.40 -1.30 -2.35z"/>
  <path d="M758.60 935.65 c-3.10 -13.30 -3.10 -13.20 -3.10 -61.15 0 -39.25 0.10 -44.20 0.85 -48.35 0.70 -3.85 1.05 -4.65 1.80 -4.65 0.75 0 0.90 0.40 0.80 2.40 -0.10 3.10 0.95 38.15 1.30 43.60 0.15 2.35 0.65 7.60 1.05 11.75 0.75 7.60 1.15 34 0.75 53.65 -0.15 8.60 -0.25 9.60 -1 9.60 -0.70 0 -1.20 -1.35 -2.45 -6.85z"/>
  <path d="M753 798.75 c0 -2.40 0.10 -2.75 1 -2.75 0.70 0 1 0.35 1.05 1.15 0.05 0.85 0.10 0.90 0.30 0.20 0.40 -1.55 1.15 -0.35 1.15 1.95 0 2.20 0 2.20 -1.75 2.20 l-1.75 0 0 -2.75z"/>
  <path d="M193.60 415.65 c0.15 -1.35 1.65 -5.95 3.40 -10.25 l3.10 -7.90 1.70 0 c1.65 0 1.70 0.10 1.70 1.85 0 1.15 -1.30 5.15 -3.35 10.25 l-3.40 8.40 -1.70 0 -1.70 0 0.25 -2.35z"/>
  <path d="M258.50 318.30 c0 -1.50 0.45 -2.15 3.80 -5.15 5.25 -4.75 9.95 -8.15 18.50 -13.50 5.65 -3.55 7.80 -4.65 9.10 -4.65 1.70 0 1.75 0.05 0.90 0.95 -0.85 0.95 -0.80 0.95 2.45 0 1.85 -0.55 3.45 -0.90 3.60 -0.75 0.15 0.15 0.75 -0.05 1.35 -0.45 1.45 -1.05 1.80 -0.95 1.80 0.50 0 0.70 -0.20 1.25 -0.45 1.25 -0.25 0 -1 0.45 -1.65 1 -0.60 0.55 -4.40 3.40 -8.40 6.35 -5.35 3.90 -8.70 6 -12.70 7.80 -3 1.35 -7.65 3.75 -10.35 5.40 -3.15 1.90 -5.45 2.95 -6.45 2.95 -1.40 0 -1.50 -0.15 -1.50 -1.70z"/>
 </g>
 <g fill="#000000">
  <path d="M384.40 1086.30 c-4.15 -0.75 -10.50 -2.75 -14.85 -4.60 -1.45 -0.65 -3.40 -1.20 -4.25 -1.20 -1.80 0 -7.65 -2.70 -11.20 -5.10 -5.90 -4.05 -9.90 -8.90 -14.30 -17.50 -1.45 -2.80 -3.90 -7 -5.45 -9.25 -5.05 -7.45 -7.65 -17.70 -10.70 -42.65 -1.05 -8.60 -1.10 -25.65 -0.15 -36.65 0.80 -8.65 0.40 -26.70 -0.65 -32.85 -0.45 -2.35 -1.55 -8.30 -2.55 -13.25 -0.95 -4.95 -2.20 -12.60 -2.80 -17 -2.20 -16.85 -3.75 -22.35 -10.40 -37.50 -2.20 -4.95 -4.25 -9.85 -4.55 -10.85 -0.95 -2.95 -1.40 -2.65 -1.75 1.20 -0.15 1.95 -1.35 11.10 -2.55 20.35 -2.50 18.70 -2.65 19.10 -6.05 19.55 -1.75 0.20 -1.95 0.40 -2.10 1.75 -0.60 7.15 -3.35 26.25 -3.90 27.30 -0.60 1.25 -3.30 2.70 -3.85 2.10 -0.15 -0.10 -1.30 0.15 -2.60 0.55 -1.25 0.45 -2.85 0.65 -3.55 0.50 -1.90 -0.50 -3.20 -2.50 -3.20 -4.95 0 -5.35 -8.55 -36.60 -10.50 -38.30 -2.75 -2.40 -5 -9.85 -5.50 -18.45 -0.25 -3.70 -0.70 -9.65 -1 -13.20 -0.65 -6.80 -0.10 -26.35 1.05 -36.25 0.60 -5.25 0.35 -7.35 -2.85 -23.30 -2.35 -12 -2 -11.05 -14.65 -37.15 -4.10 -8.45 -9.75 -20.95 -12.55 -27.85 -8.55 -20.95 -10.90 -26.25 -14.25 -32.50 -8.25 -15.20 -16.30 -32.25 -19.90 -42.25 -2.35 -6.50 -13.50 -45.10 -16.55 -57.25 -3.50 -14.10 -6.85 -34.85 -7.80 -48.50 -0.55 -7.90 -0.60 -8.05 -3.10 -14.25 -1.40 -3.45 -2.55 -6.90 -2.55 -7.65 0 -1.85 1.65 -3.40 4 -3.80 1.85 -0.30 1.90 -0.40 2.30 -2.80 0.25 -1.65 0.10 -4.30 -0.50 -7.90 -0.75 -5.05 -0.95 -5.50 -2.35 -6.60 -0.85 -0.65 -2.90 -1.50 -4.60 -1.95 -7.05 -1.80 -16.05 -7.20 -28.45 -17.05 -3.30 -2.60 -7 -5.35 -8.25 -6.05 -1.25 -0.75 -3.15 -2.20 -4.25 -3.20 -1.10 -1.05 -3.75 -3.05 -5.85 -4.45 -2.15 -1.40 -4.65 -3.25 -5.60 -4.10 -1.35 -1.15 -2 -1.40 -3 -1.15 -2.15 0.55 -3.80 -0.20 -6.95 -3.20 -3.70 -3.55 -7.15 -8.05 -14.20 -18.60 -10.80 -16.25 -14.35 -22.60 -20.30 -36.25 -1.80 -4.10 -4.05 -9.20 -5 -11.25 -5.90 -12.75 -8.25 -18.55 -10.30 -25.45 -2.70 -9.05 -3.75 -16.65 -3.75 -27.55 -0.05 -8.80 0.05 -9.95 0.95 -11.75 1.35 -2.65 3.20 -3.70 5.20 -2.90 1.50 0.55 1.55 0.55 1.80 -1.25 2.30 -15.60 5.55 -28 7.70 -29.30 0.20 -0.15 0.45 -1.35 0.45 -2.70 0.15 -4.55 3.05 -10.55 8.55 -17.60 3.65 -4.70 18.90 -20.25 28.40 -28.90 6.40 -5.85 7.70 -6.50 9.90 -4.90 0.85 0.60 1.25 0.40 4.25 -2.20 3.95 -3.45 7.75 -6 20.50 -13.70 5.35 -3.20 11.55 -7.05 13.70 -8.45 3.45 -2.25 4.30 -2.60 6.45 -2.60 2.15 0 2.60 0.20 3.80 1.65 1.10 1.25 1.75 1.60 3.20 1.60 2.40 0 3.95 1.90 3.80 4.60 -0.15 1.50 0.10 2.05 1.15 2.85 1.80 1.45 2.15 3.20 0.95 5.45 -0.50 1 -1.10 2.20 -1.20 2.70 -0.15 0.45 -2.20 2.35 -4.55 4.20 -4.20 3.40 -4.30 3.50 -4.30 5.65 0 1.80 -0.25 2.40 -1.55 3.50 -4.90 4.15 -5.85 5.35 -7.65 9.65 -3.15 7.45 -4.35 11.40 -3.80 12.40 0.95 1.75 0.55 3.75 -1 5.25 -1.95 1.90 -2.95 6.20 -1.80 7.85 0.90 1.25 1.05 3.50 0.30 4.85 -0.25 0.50 -1.15 1.20 -1.95 1.50 -1.40 0.60 -1.50 0.80 -1.80 4.70 -0.15 2.25 -0.35 12.90 -0.40 23.60 -0.10 19.35 -0.10 19.55 1.30 27.65 1.35 7.60 1.35 8.20 0.60 9.70 -0.75 1.60 -0.75 1.65 1.95 7.10 3.50 7.05 10.50 19.65 11.50 20.75 0.45 0.45 2.65 3.40 4.85 6.55 4.20 5.95 10.60 13.55 14.80 17.55 2.35 2.25 6 4.95 6.75 4.95 0.20 0 0.75 -1.25 1.15 -2.75 0.45 -1.50 1.80 -5.40 3 -8.60 1.65 -4.60 2.35 -7.35 2.95 -12.40 1.05 -8.10 2.85 -16.20 5.15 -23.15 2.30 -7.05 7.05 -17.50 8.20 -18.10 1.65 -0.90 4.20 -0.60 5.35 0.65 1.50 1.60 1.40 3.60 -0.45 7.65 -3.05 6.70 -5 12 -6.45 17.45 -0.85 3 -1.50 5.65 -1.50 5.85 0 0.20 1.05 -0.30 2.30 -1.10 1.85 -1.15 3 -2.60 5.90 -7.40 2 -3.30 5.50 -8.55 7.75 -11.65 7.30 -10.20 10.25 -14.35 11.70 -16.50 0.80 -1.15 2 -2.30 2.75 -2.60 0.85 -0.30 2.85 -2.60 5.45 -6.30 10.65 -15.05 22.60 -28.30 32.25 -35.80 13.30 -10.30 52.30 -32.55 71.40 -40.70 12.60 -5.35 28.25 -8.50 50.25 -10.05 4.15 -0.30 13.25 -1.10 20.25 -1.75 7 -0.65 14.55 -1.35 16.75 -1.55 2.20 -0.15 8.95 -1.30 15 -2.45 6.05 -1.20 15.60 -3 21.25 -4 5.65 -1 14.55 -2.55 19.75 -3.50 12.25 -2.20 18.45 -3.10 24 -3.50 2.50 -0.20 5.25 -0.70 6.20 -1.10 1.45 -0.65 1.90 -0.65 3.75 0 1.50 0.55 5.20 0.85 14.30 1.05 21.25 0.45 38.80 3.35 60.25 10 4.95 1.55 9.25 2.80 9.55 2.80 0.30 0 0.95 -0.45 1.40 -0.95 0.50 -0.55 1.55 -1.25 2.35 -1.60 2.30 -0.95 4.75 0.05 13.70 5.55 6.95 4.25 8.65 5.10 13 6.25 12.80 3.45 14.75 4.45 14.75 7.55 0 1.55 0.15 1.65 6.40 4.45 15.95 7.25 22 10.70 28.75 16.50 3.60 3.10 8.45 8.40 9 9.85 0.10 0.35 0.35 0.55 0.45 0.40 1.55 -1.50 18.30 -27.50 20.20 -31.25 l2.45 -5 0.20 -9.80 c0.15 -10.05 -0.45 -14.95 -2.15 -16.95 -1.95 -2.30 -1 -5.30 2.15 -6.70 l2.05 -0.95 0 -5.20 c0 -3.85 -0.30 -6.45 -1.20 -10.05 -0.70 -2.65 -1.85 -9.10 -2.55 -14.35 -1 -7.15 -1.80 -11 -3.25 -15.50 -1.10 -3.30 -2.40 -7.65 -2.95 -9.70 -0.55 -2 -1.40 -4.25 -1.90 -5 -1.05 -1.60 -6.55 -7.10 -12.25 -12.15 -4.55 -4.10 -5.50 -5.80 -4.35 -8 0.30 -0.65 1.05 -1.50 1.60 -1.95 1 -0.80 0.95 -0.90 -3.20 -5.75 -5.60 -6.50 -7.30 -8.80 -7.95 -10.40 -0.25 -0.75 -1.20 -1.75 -2.05 -2.20 -3.30 -1.85 -3.95 -2.55 -3.95 -4.65 0 -2.75 1.85 -4.65 4.30 -4.35 0.95 0.10 1.65 0.05 1.60 -0.20 -0.10 -0.20 -1.60 -2.40 -3.35 -4.90 -4.25 -6.05 -8.80 -10.20 -14.45 -13.25 -2.55 -1.35 -5.15 -3 -5.75 -3.65 -1.40 -1.50 -1.40 -4.20 0.05 -5.75 0.60 -0.65 1.10 -1.75 1.10 -2.40 0 -0.70 0.55 -1.80 1.30 -2.50 1.75 -1.65 5.05 -1.55 7.60 0.25 1.75 1.20 22.80 11.10 24.20 11.40 0.35 0.05 1.20 -0.20 1.85 -0.55 2 -1.10 3.95 -0.30 7.75 3.35 2.30 2.15 5.65 4.55 9.55 6.80 10.85 6.20 13.25 8.30 13.25 11.55 0 1.25 0.85 1.75 3.05 1.75 2.25 0 4.30 1.30 8.45 5.20 2.05 2 5.35 4.90 7.25 6.55 5.05 4.25 12.90 11.95 16.20 16 2.45 2.95 3.15 3.50 4.50 3.55 0.90 0.05 2.05 0.50 2.55 1 2.10 2.15 7.70 18.30 11.80 33.95 2.35 9.05 2.65 10.70 2.15 11.90 -0.70 1.70 -3 3 -4.65 2.55 -2.25 -0.55 -3.20 -2.25 -4.80 -8.70 -3.70 -14.85 -7.65 -26.90 -9.15 -28.10 -0.60 -0.50 -1.40 -1.15 -1.70 -1.40 -0.35 -0.30 -0.65 -0.40 -0.65 -0.20 0 0.90 5.70 22.30 7.10 26.65 0.85 2.65 3.15 9.45 5.20 15.10 5.45 15.45 6 19.15 3.10 21.15 -2.70 1.90 -6.05 0.15 -6.65 -3.50 -0.35 -2.35 -2.40 -8.70 -7.45 -23.45 -2.05 -6.05 -4.55 -13.90 -5.45 -17.45 -1.65 -6.35 -1.70 -6.45 -3.35 -7 -1.90 -0.60 -2.50 -1.60 -3.75 -6.05 -2.10 -7.50 -12.60 -24.55 -21 -34.05 -3.15 -3.55 -4.30 -4 -15.90 -6 -9.25 -1.55 -9.05 -1.55 -8.15 0.20 0.35 0.75 1.40 3.70 2.30 6.60 0.90 2.90 2.30 6.40 3.20 7.75 0.90 1.40 1.95 3.30 2.30 4.25 0.40 0.95 1.25 2.55 1.90 3.50 0.90 1.30 1.10 2.20 0.90 3.40 -0.40 2.60 2.50 9.90 5 12.75 0.95 1 1.70 2.25 1.70 2.75 0 0.45 0.75 1.45 1.70 2.20 3.20 2.55 4.30 6.40 7.60 26.35 1.45 8.85 1.75 19.25 1.05 39.05 -0.50 13.80 -1.15 18.20 -3.75 26.30 -1.10 3.25 -2.35 8.05 -2.80 10.60 -1.50 8.30 -4 13.30 -8.15 16.30 -1.65 1.20 -2.85 2.65 -3.90 4.65 -1.65 3.25 -2.25 3.95 -9.90 12.55 l-5.35 6.10 5.20 10.35 c4.65 9.35 15.30 28.60 21.90 39.55 l2.45 4.10 1.90 -0.30 c3.30 -0.55 4.25 0.80 6.80 9.80 2.85 9.95 3.30 11.10 6.60 16.90 7.25 12.75 14.30 27.95 18.35 39.60 4.50 12.90 4.75 14.60 2.20 16.55 -1.05 0.80 -1.05 0.80 3.85 13 2.65 6.70 5.05 12.75 5.30 13.40 0.45 1.15 0.50 1.15 1.50 0.25 1.55 -1.40 4.35 -1.20 5.75 0.50 1.15 1.30 1.20 1.65 1.20 9.45 0 9.30 0.50 14.25 2.30 21.75 0.70 2.95 1.90 9.05 2.70 13.60 0.85 4.55 2.15 11.20 3 14.75 0.80 3.60 2.35 11.70 3.45 18 1.10 6.35 3.20 17.45 4.60 24.75 2.90 15 3.40 20.65 3.40 38.75 0.05 8.70 -0.15 12.25 -0.70 14.40 -1.05 4 -0.95 4.80 0.45 5.35 0.70 0.25 1.65 1.05 2.10 1.75 0.75 1.15 0.80 1.80 0.30 5.90 -1.35 10.90 -3.30 22.15 -5.15 29.85 -1.75 7.40 -2 9.15 -2.30 17 l-0.30 8.80 2.10 0.45 c2.75 0.65 3.05 1.25 5.20 10.25 1.35 5.75 2.55 9.15 5.80 16.35 4.05 9.15 9.05 22.85 9.05 24.90 0 0.60 -0.45 1.70 -1 2.40 -0.90 1.10 -0.95 1.55 -0.50 3.45 2.60 11.10 4.25 24.20 3.80 30.40 -0.45 5.95 -0.40 7.85 0.20 15.20 0.25 3.60 0.50 10.65 0.50 15.75 0.05 12.15 0.65 20 2.25 27.35 4.15 19.20 4.75 22.50 4.75 25.50 0 3.85 -0.80 5.30 -3.45 6.40 -1.05 0.40 -2.60 1.40 -3.45 2.25 -1.95 1.95 -4.15 2.05 -5.85 0.35 -1.05 -1.05 -1.45 -1.20 -2.65 -0.75 -1.80 0.60 -3.80 -0.05 -4.75 -1.65 -1.15 -1.80 -1.95 -7.05 -1.35 -8.60 0.65 -1.70 -0.55 -11 -1.90 -14.85 -3.65 -10.30 -9.20 -20.20 -16.55 -29.35 -9.90 -12.45 -9.90 -12.40 -11.65 -22.40 -0.65 -3.40 -1.25 -6.20 -1.45 -6.20 -0.65 0 -3.05 9.20 -4.45 17 -0.80 4.55 -1.90 10.55 -2.50 13.40 -0.95 4.95 -1 6.95 -1 47.35 0 47.25 0 47.05 3.55 61.70 1.10 4.55 1.90 8.75 1.75 9.40 -0.20 0.60 -1 1.65 -1.80 2.25 -1.30 0.95 -1.50 1.40 -1.50 3.55 0 1.35 0.20 3.30 0.45 4.30 0.25 1 0.75 3.50 1.10 5.55 0.30 2.05 0.75 4.55 1 5.50 0.25 0.95 0.80 7 1.25 13.40 0.60 9.20 0.65 13.40 0.25 20.30 -0.95 15.40 -1.05 15.80 -13.05 38.40 -2.20 4.15 -4.10 6.10 -7.50 7.60 -4.40 2 -14.35 4.45 -16.50 4.05 -2.80 -0.45 -2.95 -0.45 -8.75 0.90 -3 0.75 -7.30 1.35 -9.50 1.45 -3.55 0.10 -4.20 0.25 -5.70 1.55 l-1.65 1.40 -17.10 -0.15 -17.05 -0.15 -3.35 -1.60 c-1.85 -0.90 -4 -1.75 -4.75 -1.95 -2.55 -0.65 -6.70 -2.65 -9.30 -4.55 -1.90 -1.40 -2.90 -1.80 -4.25 -1.75 -2.65 0.20 -4.85 -0.75 -6.80 -2.90 -1.90 -2.10 -7.30 -12.45 -9.80 -18.80 -1.50 -3.80 -3.50 -14.05 -3.50 -18.10 0 -2.15 0 -2.15 -1.10 -1.40 -2.80 2 -5.55 0.50 -6.70 -3.60 -0.45 -1.55 -2.05 -6.20 -3.60 -10.35 -2.50 -6.55 -3.30 -8.10 -6.45 -12.25 -1.95 -2.60 -5.50 -6.85 -7.85 -9.45 -2.95 -3.25 -4.60 -5.50 -5.25 -7.25 -0.85 -2.25 -1.35 -2.80 -4.35 -4.65 -4.05 -2.55 -4.85 -2.60 -18.45 -1.40 -18.20 1.60 -33.30 5.20 -43.15 10.20 -2.95 1.50 -4.90 1.35 -6.60 -0.45 l-1.40 -1.50 -3.95 1.50 c-2.15 0.85 -5.10 2.25 -6.50 3.05 -1.50 0.80 -3.40 1.45 -4.35 1.45 -2.30 0 -7.15 3.60 -8.75 6.55 l-1.25 2.20 1.85 -1.60 c2.25 -2 4.25 -2.15 6.15 -0.45 2.10 1.75 1.90 4.15 -0.45 6.75 -3.45 3.80 -5.25 7.10 -5.85 10.55 -0.30 1.80 -0.75 10.50 -1 19.40 -0.55 18.05 -1.10 24.90 -2.50 31 -2.30 9.65 -4.20 11.75 -16.45 17.85 -2.90 1.45 -7.55 3.60 -10.30 4.75 -2.70 1.15 -5.65 2.65 -6.50 3.30 -0.85 0.60 -3.60 1.85 -6.10 2.70 -7.95 2.65 -29.30 7.50 -33.10 7.50 -2.90 0 -8.40 1.35 -10.95 2.65 -1.30 0.70 -4.25 1.85 -6.60 2.60 -5.20 1.65 -12.70 2.05 -18.60 1.05z m4.10 -14.80 c1.55 -1.65 3.65 -2 5.30 -0.75 1.70 1.30 6.90 0.95 11.70 -0.80 17.50 -6.25 20.75 -7.20 33.25 -9.40 13.05 -2.35 15.65 -3 17.10 -4.35 0.75 -0.70 1.90 -1.35 2.60 -1.50 6.90 -1.40 9.40 -2.60 9.85 -4.60 0.15 -0.75 1.35 -5.30 2.55 -10.10 l2.25 -8.75 -1 -3.25 c-1.70 -5.30 -2.15 -9.15 -2.45 -20.85 l-0.30 -11.05 1.85 -1.90 c1.65 -1.70 1.80 -2.10 1.80 -4.90 0.05 -1.70 0.20 -4.50 0.45 -6.30 0.85 -6.30 1.30 -7.30 5.75 -11.95 2.25 -2.35 4.70 -5.35 5.45 -6.60 2.30 -4.05 5.55 -5.90 7.75 -4.50 0.45 0.25 3.15 -0.85 7.75 -3.20 9.25 -4.75 12.10 -5.65 14.80 -4.75 1.40 0.45 2.20 0.50 2.65 0.15 1.15 -0.95 10.60 -5.55 14.15 -6.90 6.50 -2.45 8.70 -2.70 26.05 -3.30 12.50 -0.40 17.45 -0.40 20.25 0.05 4.40 0.70 10.60 1.10 16.50 1 3.85 -0.05 4.45 0.05 5.75 1.15 1.15 0.95 2.25 1.25 5.30 1.50 4.60 0.40 6.15 1.05 6.90 2.85 0.75 1.80 0.20 3.80 -1.45 5.05 -1.10 0.90 -1.75 1 -4.15 0.75 -1.55 -0.15 -2.95 -0.10 -3.10 0.15 -0.45 0.70 1.60 2.20 2.50 1.85 0.45 -0.20 1.55 -0.10 2.45 0.20 1.55 0.50 1.95 1 3.20 4.20 0.35 0.80 0.70 1.30 0.85 1.15 0.65 -0.65 3.25 0.90 4.80 2.80 4.75 5.90 10.70 17.25 13.70 26.15 0.45 1.35 1.10 2.80 1.50 3.25 0.40 0.40 0.70 1.05 0.70 1.35 0 0.75 7.50 7.25 14.55 12.65 6.75 5.10 9.35 7.90 11 11.65 0.90 2 1.55 2.85 2.45 3.05 3.65 0.95 4.75 5.10 2 7.40 -1.75 1.50 -1.75 1.45 2.25 2.35 1.65 0.35 5.50 1.25 8.50 2 9.25 2.35 15.65 3 28.75 3.05 11.95 0 19.25 -1.30 22.95 -4.15 1.70 -1.30 4.35 -1.15 5.80 0.35 0.70 0.65 1.25 1.55 1.25 2 0 1.10 0.60 0.95 4.40 -0.95 2.80 -1.45 3.60 -2.15 4.95 -4.40 1.05 -1.80 1.80 -3.95 2.15 -6.20 0.75 -4.75 2.90 -14.30 3.80 -16.85 0.40 -1.15 1.20 -2.60 1.80 -3.20 1 -1.05 1 -1.40 0.70 -8.75 -0.20 -4.20 -0.55 -15.85 -0.75 -25.90 -0.35 -14.50 -0.65 -19.70 -1.45 -25.35 -0.85 -5.45 -0.95 -7.45 -0.55 -8.50 0.80 -2.10 0.05 -10 -1.55 -16.90 -4.85 -20.50 -6.50 -38.50 -6.55 -71.75 -0.05 -14.80 0.35 -20.60 1.50 -23.70 0.40 -0.95 0.25 -1.35 -0.70 -2.25 -1.85 -1.55 -1.95 -2.90 -0.55 -8.35 0.70 -2.70 1.40 -6.05 1.55 -7.45 0.50 -3.65 1.65 -7.20 3.35 -9.85 1.60 -2.50 2.60 -7.25 5.40 -24.90 1.35 -8.40 1.60 -9.35 2.75 -10.35 1.60 -1.40 3.70 -1.45 5.35 -0.15 0.70 0.50 2.35 1.20 3.70 1.50 2.50 0.55 4.20 1.70 4.20 2.75 0 0.35 0.35 0.95 0.80 1.30 0.45 0.40 1.35 1.50 1.95 2.45 0.65 0.95 2.20 2.90 3.45 4.25 1.25 1.40 2.30 2.90 2.30 3.40 0 0.50 1.30 3.05 2.95 5.75 8.05 13.30 14.05 27.60 19.50 46.40 1.30 4.45 1.30 5.25 0 6.90 l-1.05 1.30 2.35 4.60 c1.30 2.50 2.80 5.70 3.25 7.10 0.70 1.85 0.95 2.20 0.95 1.30 0.05 -1.35 -3.30 -17.90 -7.65 -38 -3.55 -16.40 -5 -24.40 -6.55 -35.90 -1.40 -10.60 -2.75 -23.20 -2.75 -25.85 0 -3.75 2.80 -6.35 5.65 -5.30 0.75 0.30 1.35 0.45 1.35 0.35 0 -1 -1.80 -6.95 -2.55 -8.40 -0.55 -1.05 -0.95 -2.45 -0.95 -3.20 0 -0.75 -0.30 -2.50 -0.70 -3.90 -0.40 -1.40 -1 -3.80 -1.30 -5.30 -0.70 -3.20 -4.60 -11.20 -7.95 -16.25 l-2.30 -3.50 0.15 -5.15 c0.15 -4.50 0.05 -5.35 -0.90 -6.85 -1.20 -1.95 -1.10 -4.25 0.55 -10.85 0.50 -2.10 0.95 -4.40 0.95 -5.05 0 -1.20 -0.10 -1.25 -1.40 -0.75 -1.80 0.70 -4.10 -0.30 -5 -2.20 -0.55 -1.15 -0.50 -2.10 0.10 -5.75 1.25 -7.30 1.80 -14.85 1.80 -25.55 0 -9.25 -0.10 -10.25 -0.95 -11.50 -0.90 -1.20 -1.05 -2.80 -1.50 -16.10 -0.60 -15.70 -1.65 -32.30 -2.80 -45 -1 -10.25 -0.95 -12.35 0.15 -13.75 0.85 -1.05 0.85 -1.70 0.25 -10 -0.90 -13.15 -2.10 -24.90 -2.85 -27.60 -1.40 -5.15 -9.50 -30.60 -9.70 -30.45 -0.10 0.10 0.20 2.65 0.65 5.65 0.80 5.75 0.65 7.30 -1 8.65 -1.35 1.15 -4.10 0.85 -5.45 -0.50 -1.05 -1.10 -1.40 -2.55 -2.80 -11.75 -2.30 -15.45 -4 -22.95 -11.05 -49.25 -2.75 -10.35 -2.95 -10.95 -5 -15.40 -0.80 -1.75 -1.45 -3.25 -1.45 -3.40 0 -0.65 -10.80 -21.75 -16.05 -31.30 -7.75 -14.05 -11.05 -21.45 -10.90 -24.20 0.10 -1.50 -0.20 -2.65 -1.20 -4.25 -1.20 -2.05 -1.30 -2.10 -1.05 -0.70 3.15 18.50 3.65 22.45 3.05 23.70 -0.75 1.60 -3 2.75 -4.60 2.35 -2.90 -0.75 -3.45 -2.40 -5.75 -17.50 -2.05 -13.05 -5.75 -25.55 -10.15 -34.20 -1.15 -2.25 -4.20 -7.10 -6.80 -10.80 l-4.75 -6.65 -2.15 0.25 c-1.45 0.15 -2.50 0 -3.35 -0.60 -0.70 -0.45 -4.60 -2.60 -8.65 -4.85 -11.90 -6.50 -24.40 -15.20 -50.15 -34.85 -7.45 -5.70 -14.70 -12.65 -15.85 -15.15 -1 -2.30 -0.10 -2.05 -12.40 -3.70 -13.10 -1.80 -28.20 -4.40 -37.85 -6.55 -9.15 -2 -9.75 -2 -32.65 -0.40 -18.65 1.30 -48.05 4.80 -50.40 6.05 -1 0.50 -2.15 0.65 -3.30 0.45 -1 -0.15 -3.75 -0.05 -6.15 0.25 l-4.30 0.55 1.95 1.90 c2.40 2.25 2.60 4.35 0.70 6.25 -1.55 1.55 -3.80 1.60 -6.15 0.15 -2.40 -1.45 -7.95 -1.75 -13.95 -0.70 -4.95 0.85 -5.75 0.75 -7.65 -0.95 l-1.25 -1.15 -19 5.65 c-58.90 17.35 -72.55 22.35 -80.40 29.25 -1.55 1.35 -1.85 1.90 -1.85 3.65 0 2.80 -1.50 4.35 -4.25 4.35 -1.10 0 -2.55 -0.35 -3.20 -0.80 -2.30 -1.65 -3 -5.50 -1.35 -7.70 0.70 -0.90 -0.80 0 -7 4.30 -4.35 3 -4.50 3.15 -4.30 4.85 0.30 2.60 -1.30 4 -6.60 5.60 -2.45 0.75 -5.05 1.70 -5.75 2.15 -2 1.20 -10.55 8.15 -17.90 14.45 -11 9.50 -14.60 14 -15.40 19.40 -0.50 3.05 -2.05 4.75 -4.35 4.75 -2.55 -0.05 -4.40 -2 -4.40 -4.60 0 -1.20 1 -5.25 1.75 -7.15 0.35 -0.85 0.25 -0.85 -1 0.25 -0.75 0.70 -3.15 3.25 -5.30 5.70 -3.15 3.60 -4.15 5.15 -5 7.75 -1.75 5.25 -3.50 8.80 -8.30 16.80 -5.20 8.65 -9.25 16.50 -10.20 19.75 -0.35 1.25 -1.10 2.95 -1.70 3.75 -1.05 1.45 -8.50 19.65 -11.25 27.50 -2.05 5.80 -6.30 19.45 -7.45 24.05 -0.60 2.40 -1.20 7.20 -1.50 11.95 -0.70 10.75 -0.95 13.45 -2.10 24.25 -1 9.30 -3.20 24.90 -3.75 26.70 -0.20 0.55 -0.30 2.80 -0.30 5 0.05 2.95 -0.15 4.35 -0.75 5.25 -0.70 1.05 -0.75 2.30 -0.45 9 0.15 4.30 0.75 11.40 1.25 15.85 0.90 7.60 1 8.10 2.40 9.50 1.15 1.15 1.65 2.35 2.35 5.70 0.50 2.35 1.35 5 1.90 5.95 0.50 0.95 1.65 4.30 2.45 7.50 2.20 8.60 8.25 26.25 10.50 30.70 2.05 4.15 4.40 7.75 5.65 8.80 1.20 1 1.45 3.30 0.60 5 -0.75 1.45 -0.70 1.70 1.50 7.40 4.95 12.75 9.75 23.45 13.55 30 1.45 2.55 2.65 5.20 2.65 5.85 0 1.40 -1.75 3.80 -2.85 3.80 -0.40 0 -0.65 0.30 -0.50 0.65 3.10 6.90 9.80 23.20 11.60 28.25 2.25 6.10 2.70 6.90 5.05 9.25 2.05 2 2.70 3.05 2.95 4.60 0.70 4.55 2.50 8.60 13.85 31.40 6.55 13.10 11.90 24.10 11.90 24.40 0 0.25 0.45 1.35 1 2.45 1.40 2.75 1.25 4.30 -0.50 6.10 -1.85 1.80 -1.85 2.70 -0.20 4.95 1.05 1.40 1.20 2.05 0.95 3.95 -0.15 1.25 -0.50 6.20 -0.75 11 -0.65 11.10 -1.95 27.50 -2.30 28.50 -0.45 1.30 -0.95 16.85 -0.90 29.25 0 8.85 0.25 13.45 0.90 17.50 1.20 7.50 2.65 14.35 3.90 18.25 1.25 3.95 2.15 5.15 1.75 2.25 -0.20 -1.10 -0.45 -7.65 -0.65 -14.50 -0.50 -17.85 0.40 -22 5.85 -28 2.25 -2.45 2.65 -3.25 3.80 -7.55 1.05 -4 1.20 -5.15 0.75 -6.40 -1.50 -4.30 -1.35 -7.05 0.50 -8.80 1.15 -1.05 3.85 -1.35 4.70 -0.50 0.35 0.35 0.90 0.10 1.70 -0.75 0.85 -0.90 1.70 -1.25 3.05 -1.25 2.15 0 3.30 1.10 7.20 7.15 2.40 3.70 2.55 3.85 4.15 3.55 2.10 -0.40 4.30 0.55 5.05 2.15 0.35 0.75 1.40 4.35 2.35 8.05 1.60 6.25 2.65 9.10 5.40 15.35 0.65 1.40 1.55 3.50 2 4.75 0.75 2 1.10 2.35 3.20 3 2.75 0.90 2.50 0.25 5.60 13.50 1.10 4.85 2.60 10 3.30 11.50 1.15 2.45 4 13.90 5.25 20.90 0.25 1.40 0.70 3.90 1 5.50 1.35 7.30 2.05 16.30 2.20 27.85 0.15 11.10 0.35 13.50 1.70 21.50 2.90 17.15 5.05 37.95 5.05 48.45 0 4.45 -0.15 5.35 -1 6.45 -0.55 0.70 -1.50 1.45 -2.10 1.65 -0.95 0.30 -1 0.55 -0.70 4.25 0.35 4.25 2.55 13.40 4.30 18 0.60 1.60 2.25 4.15 3.80 5.90 2.85 3.25 3.25 4.60 1.90 6.45 -0.90 1.25 -0.90 1.20 3.60 6.30 2.90 3.20 4.45 3.95 12.75 6.10 5.05 1.25 13.50 3.05 14.85 3.15 0.40 0.05 1.35 -0.60 2.10 -1.45z m301.25 -25 c-0.15 -0.25 -1.20 -0.50 -2.25 -0.50 -2.60 0 -9.05 -1.25 -17.50 -3.35 -2.60 -0.65 -7 -1.50 -9.75 -1.90 -2.75 -0.40 -5.55 -0.90 -6.25 -1.05 l-1.25 -0.35 1.30 1.05 c1.60 1.30 3.60 2.10 5.25 2.10 0.70 0 2.20 0.50 3.35 1.10 5.65 2.90 7.95 3.35 18 3.35 6.15 0.05 9.30 -0.10 9.10 -0.45z m-207.20 -13.90 c0.75 -2.75 1.10 -6.20 1.30 -12.20 0.30 -8.20 0.25 -8.45 -1 -11.25 -0.70 -1.60 -1.45 -3.75 -1.60 -4.75 l-0.35 -1.85 -1.45 1.05 c-1.35 1.05 -1.45 1.30 -1.45 4.75 0 3.60 0.05 3.65 1.25 3.65 0.75 0 1.90 0.60 2.60 1.30 l1.30 1.30 -0.35 6.60 c-0.20 4.05 -0.80 8.65 -1.55 12.05 -0.70 3 -1.25 5.60 -1.25 5.75 0.10 0.90 1.70 -3.15 2.55 -6.40z m169.65 -7.45 c-1.95 -4.40 -2.75 -5.25 -10.35 -11.15 -5 -3.90 -7.15 -5.30 -7.25 -4.80 -0.10 0.45 0.20 2.05 0.65 3.60 1 3.40 3.35 6.10 8.50 9.65 2.80 1.95 8.70 5.35 9.60 5.55 0.05 0 -0.45 -1.30 -1.15 -2.85z m-360.05 -165.50 c1 -7.60 1 -9.15 0.20 -9.15 -1.15 0 -1.65 1.20 -2.30 5.90 -0.55 3.85 -0.55 4.25 0.30 4.90 1.35 1 1.50 0.90 1.80 -1.65z m485.10 -50.25 c-0.50 -1.55 -0.40 -4.70 0.25 -7.45 0.60 -2.35 0.55 -2.40 -2.25 -7.95 -2.65 -5.15 -4 -6.95 -2.75 -3.80 0.25 0.75 1.05 4.55 1.75 8.45 1.20 6.75 2.55 11.85 3.05 11.85 0.15 0 0.10 -0.50 -0.05 -1.10z m-21.50 -12.75 c0.55 -1.70 0.55 -2.05 0 -1.85 -0.60 0.25 -1.30 2.95 -1.20 4.70 0.05 0.85 0 1 1.20 -2.85z m44.50 -6.75 c-0.20 -2.30 -0.60 -4.35 -0.85 -4.65 -0.35 -0.35 -0.45 0.15 -0.20 1.50 0.15 1.10 0.45 3.20 0.60 4.65 0.50 4.15 0.85 3.05 0.45 -1.50z m-40.55 -3.20 c1.55 -3.40 1.70 -5.30 0.20 -2.45 -0.95 1.80 -2.05 5.25 -1.65 5.25 0.10 0 0.75 -1.25 1.45 -2.80z m-499.40 -4.65 c-1.80 -3.50 -2.40 -3.60 -1.05 -0.15 0.65 1.55 1.35 3.75 1.60 4.85 l0.40 2 0.15 -2.10 c0.10 -1.45 -0.20 -2.80 -1.10 -4.60z m538.90 -2.65 c0.15 -0.65 -0.50 -5.85 -1.45 -11.65 -3 -17.85 -3.40 -16.65 -0.95 2.60 0.65 5.30 1.20 9.75 1.20 9.90 0 0.75 0.95 0.10 1.20 -0.85z m-538.65 -17.10 c-5.30 -10.05 -7.25 -13.05 -4.30 -6.55 3.10 6.80 8.45 16.75 8.85 16.35 0.20 -0.20 -1.85 -4.60 -4.55 -9.80z m-70.30 -145.30 c-1.05 -4.20 -4.50 -20.65 -6.50 -31.10 -1.10 -5.90 -2.25 -10.35 -3.05 -12 l-1.25 -2.65 0.30 2.25 c1.10 7.25 4.65 23.75 6.95 32.30 1.50 5.50 3 10.95 3.30 12.15 0.30 1.15 0.65 2.05 0.75 1.95 0.10 -0.10 -0.10 -1.40 -0.50 -2.90z m588.75 -40.40 c-0.30 -0.60 -0.45 0.95 -0.40 4.90 l0.05 5.75 0.40 -4.90 c0.30 -3.10 0.30 -5.25 -0.05 -5.75z m-611.85 -83.20 c0.45 -7.60 1.15 -10.35 2.90 -11.35 0.80 -0.45 1.55 -1.15 1.70 -1.55 0.10 -0.40 0.45 -5.35 0.70 -11 0.55 -10.35 2.05 -26.55 3.25 -34.60 l0.65 -4.40 -3.30 -2.45 c-4.85 -3.70 -7.95 -6.80 -8.35 -8.40 -0.50 -2.15 -0.70 -2.25 -2 -1.45 -1.75 1.20 -4.35 1 -5.55 -0.30 -0.60 -0.65 -1.75 -2.85 -2.60 -4.95 -1.50 -3.60 -1.95 -4.15 -7.30 -8.95 -11.75 -10.45 -19.55 -19.55 -23.80 -27.75 -2.30 -4.45 -2.45 -6.40 -0.70 -8.25 l1.25 -1.30 -4 -7.85 c-4.25 -8.40 -6.55 -14.85 -7.45 -20.80 -0.85 -5.45 -0.70 -22.55 0.20 -26.55 0.45 -1.80 1.20 -5.70 1.75 -8.75 1.80 -10.05 3.95 -16.25 9.80 -27.85 5.55 -11.10 8.05 -14.70 14.70 -21.15 4.10 -4 8.20 -8.70 7.85 -9.05 -0.10 -0.10 -1.65 0.45 -3.45 1.25 -2.75 1.25 -3.30 1.75 -3.55 3 -0.25 1.15 -1.15 2.05 -4.20 4.10 -7.95 5.35 -22.70 16.90 -24.90 19.60 -10.20 12.15 -23.75 27.55 -26.75 30.35 -4.85 4.60 -17.10 26.95 -20.50 37.55 l-1.65 5.05 0.30 10.05 c0.50 15.30 1.95 22.60 6.55 32.10 1.50 3.05 4.15 7.60 6 10.20 2.50 3.60 3.30 5.15 3.30 6.45 0 2.05 2 5.20 13.35 21.15 4.40 6.15 10.85 15.35 14.40 20.45 15.25 21.95 16.75 23.75 25 29.60 2.75 1.95 8.60 6.40 13 9.90 9.75 7.70 9.90 7.80 12.95 8.20 1.35 0.15 2.85 0.65 3.30 1.05 0.85 0.75 6.05 3.75 6.55 3.75 0.15 0 0.45 -2.30 0.60 -5.10z m-77.40 -55.35 c-3.70 -5.25 -6.90 -9.55 -7.05 -9.55 -0.40 0 0.40 1.30 6.80 10.95 4.05 6.15 6.25 9 6.55 8.70 0.35 -0.35 -1.70 -3.65 -6.30 -10.10z m109 -30.20 c1.85 -4.60 3.25 -8.50 3.15 -8.65 -0.25 -0.20 -5.85 13.50 -6.65 16.30 -0.80 2.70 0.25 0.40 3.50 -7.65z m-69.60 -58.55 c-0.75 -4.75 -0.90 -8.20 -0.85 -24.20 0.05 -10.25 0.20 -21.65 0.40 -25.25 0.25 -5.10 0.20 -6.35 -0.25 -5.60 -0.30 0.55 -1.05 1.35 -1.60 1.85 -0.90 0.70 -1 1 -0.45 2.15 1.10 2.40 0.75 4 -1.45 6.30 l-2.05 2.15 0.35 4.40 c0.30 4.30 0.30 4.40 -1.05 5.65 l-1.35 1.25 0.30 6.35 c0.30 6.90 1.35 12.10 4.65 22.15 3.75 11.60 5 12.70 3.35 2.80z m137.25 -34.65 c2.05 -1.20 6.10 -3.25 9 -4.55 3.95 -1.80 7.25 -3.80 12.60 -7.80 12 -8.95 25.50 -17.55 35.35 -22.45 5.80 -2.95 12 -5.35 13.65 -5.35 1.80 0 4 1.90 4 3.50 0 0.55 0.15 1 0.30 1 0.20 0 5.95 -1.80 12.90 -4 6.90 -2.15 16.10 -5 20.40 -6.30 4.35 -1.35 7.80 -2.45 7.75 -2.55 -0.10 -0.05 -2.05 0.20 -4.40 0.60 -7.70 1.40 -10 0.90 -10.70 -2.25 -0.20 -0.80 -0.55 -1.50 -0.75 -1.50 -1.65 0 -12.05 2.35 -17.65 4 -8.15 2.35 -13.55 4.75 -28.60 12.45 -12.25 6.30 -12.90 6.70 -27.25 15.20 -16.80 10 -27.40 17.50 -32 22.65 l-1.25 1.40 1.50 -0.95 c0.85 -0.50 3.15 -1.90 5.15 -3.10z m-189.45 -17.15 c4.65 -6.60 12.60 -15.95 20.30 -23.90 5.25 -5.40 6.60 -7.05 6.10 -7.55 -0.35 -0.30 -0.85 -1.25 -1.10 -2.10 l-0.50 -1.45 -9.35 9.10 c-6.50 6.35 -9.45 9.60 -9.70 10.65 -0.20 0.85 -1.55 3.20 -2.95 5.25 -3.85 5.50 -6.95 11.25 -9.50 17.45 -1.25 3.05 -2.25 5.65 -2.25 5.85 0 0.20 1.30 -1.70 2.90 -4.20 1.55 -2.55 4.30 -6.60 6.05 -9.10z m583.80 5.65 c-3.50 -4.55 -20.30 -23.60 -22.90 -25.90 -3.80 -3.40 -8.80 -6.55 -15.20 -9.65 l-5.70 -2.70 -1.20 1.30 c-0.65 0.70 -1.70 1.40 -2.40 1.55 -1.55 0.40 -3.90 -0.75 -5.05 -2.50 -1.55 -2.40 -2.75 -3.25 -4.40 -3.25 l-1.65 0.05 2.75 2.55 c1.50 1.35 6.70 5.45 11.50 9.05 4.80 3.60 13.05 9.70 18.25 13.65 5.25 3.90 11.40 8.30 13.75 9.85 3.60 2.30 13.45 8.20 13.90 8.30 0.10 0.05 -0.65 -1 -1.65 -2.30z m9.95 -11.25 c-0.45 -0.70 -6.35 -4.75 -9.45 -6.45 l-3 -1.65 6 5.80 6 5.80 0.35 -1.55 c0.15 -0.85 0.20 -1.75 0.10 -1.95z m-541.35 -1.75 c-0.15 -0.50 -0.25 -0.10 -0.25 0.85 0 0.95 0.10 1.35 0.25 0.90 0.10 -0.50 0.10 -1.30 0 -1.75z m23.75 -57.40 c0.35 -0.55 0.35 -1 0 -1.35 -0.30 -0.30 -1.70 0.30 -4.05 1.90 -1.95 1.30 -3.55 2.40 -3.55 2.45 0 0.55 7.25 -2.30 7.60 -3z m592.90 -79.70 c-1.60 -2.10 -3.65 -4.45 -4.50 -5.30 l-1.60 -1.50 1.70 3 c0.95 1.65 2.30 4 3 5.25 1.10 1.85 1.55 2.25 2.80 2.30 l1.55 0.05 -2.95 -3.80z m-47.30 -39.05 c-6.95 -5.45 -7.45 -5.75 -17.80 -10.45 l-9.75 -4.40 3.05 3.75 c6.35 7.75 8.65 9.65 13.50 11.45 1.80 0.65 12.90 3 14.75 3.10 0.40 0.05 -1.30 -1.50 -3.75 -3.45z"/>
  <path d="M460.45 825.55 c-0.80 -0.80 -1.45 -1.95 -1.45 -2.55 0 -1.85 1.55 -8.65 2.85 -12.35 l1.20 -3.60 -1 -1 c-1.45 -1.45 -1.35 -4.05 0.20 -6.35 1.85 -2.70 4.25 -10.95 7.50 -25.50 0.25 -1.05 0.15 -1.05 -9.40 -1.10 -10.35 -0.05 -15.10 -0.55 -20.60 -2.15 -5.75 -1.65 -6.90 -3.90 -4.45 -8.45 1.45 -2.65 3.35 -3.80 5.40 -3.30 0.95 0.25 1.30 0.05 1.55 -0.65 0.50 -1.60 2.65 -2.70 4.70 -2.35 1 0.15 2.45 0.30 3.30 0.30 2.05 -0.05 4.15 0.90 4.50 2.05 0.35 1 3.40 2.55 7.40 3.80 2.15 0.65 3.05 0.65 8 -0.10 3.10 -0.45 7.85 -1.40 10.60 -2.10 7.50 -1.95 8.95 -2 10.50 -0.45 1.50 1.50 2 1.55 6.75 0.55 2.90 -0.60 3.85 -1.05 5.20 -2.50 1.30 -1.35 2.05 -1.75 3.45 -1.75 2.45 0 12.30 -1.70 18.75 -3.30 2.95 -0.70 6.35 -1.45 7.60 -1.70 3.25 -0.60 13.35 -3.45 16.25 -4.60 1.40 -0.55 4.25 -1.85 6.40 -2.95 3.35 -1.70 4.25 -1.95 6 -1.70 1.65 0.25 2.85 0 5.80 -1.20 2.05 -0.85 3.90 -1.55 4.10 -1.55 0.25 0 1.50 -0.50 2.75 -1.10 1.65 -0.75 2.50 -1.55 3 -2.70 0.85 -2.05 2.45 -3.20 4.50 -3.20 1.80 0 5 -2.15 6.90 -4.65 1.65 -2.15 4.05 -3.30 6.05 -3 1.20 0.15 2.20 -0.30 5.25 -2.50 2.05 -1.50 4.25 -3.45 4.85 -4.25 0.60 -0.85 1.80 -1.65 2.60 -1.85 2.25 -0.50 5.90 -4.75 6.85 -8.05 0.85 -3.05 2.15 -4.20 4.60 -4.20 1.25 0 2.10 0.40 3.10 1.50 0.75 0.85 1.70 1.50 2.10 1.50 1.45 0 3.80 2 4.40 3.70 0.95 3 -0.60 5.65 -7.15 12 -6.70 6.50 -12.35 11.10 -17.10 13.90 -1.90 1.15 -3.60 2.15 -3.70 2.25 -0.10 0.05 0.10 1.50 0.40 3.15 0.50 2.60 0.50 3.20 -0.20 4.40 -0.90 1.50 -1.50 0.15 6.70 14.75 3.80 6.70 7.40 14.50 8.05 17.25 0.50 2.15 -0.25 4.85 -1.65 5.85 -2.45 1.70 -7.70 0.25 -12.65 -3.50 -1.05 -0.80 -1.75 -1.05 -2.25 -0.70 -0.40 0.25 -1.45 0.45 -2.40 0.45 -1.90 0 -2.35 -0.45 -7 -6.75 -3.85 -5.25 -19 -22.05 -19.75 -21.90 -0.35 0.10 -4.30 1.70 -8.80 3.60 -13.75 5.70 -25.75 9.50 -41.35 13 -8.65 1.95 -21.55 4.05 -24.80 4.05 l-1.65 0 -0.90 4.40 c-1 5.05 -4.20 17.75 -5.75 22.95 -1.15 3.90 -2.30 5.15 -4.60 5.15 -1.20 0 -2.20 1.10 -7.50 8.40 -3.35 4.60 -6.55 9.40 -7.05 10.65 -1.55 3.65 -4.45 4.50 -6.95 2z m20.25 -37.10 c0.70 -2.60 1.85 -7.15 2.45 -10.10 l1.20 -5.35 -2.90 0 c-3.25 0 -2.75 -0.65 -4 5.90 -0.55 3 -0.55 3.20 0.55 4.35 1.45 1.55 1.40 3.55 -0.20 8.20 -0.70 2.05 -1.30 3.80 -1.30 3.95 0 0.10 0.65 -0.35 1.45 -1 1.15 -0.90 1.70 -2.10 2.75 -5.95z m117.40 -27 c-2.70 -4.80 -5.90 -10.55 -7.10 -12.85 -1.20 -2.25 -2.30 -4.05 -2.50 -4 -0.15 0.10 -2.20 0.90 -4.60 1.85 -2.45 0.95 -4.40 1.85 -4.40 2.05 0 0.20 0.50 0.60 1.15 0.95 0.60 0.35 2.90 2.95 5.10 5.75 3.85 4.80 4.10 5.05 6 5.10 1.55 0.05 2.20 0.40 3.40 1.75 4.20 4.95 7.50 8.50 7.70 8.30 0.10 -0.15 -2.05 -4.15 -4.75 -8.90z"/>
  <path d="M478.50 665.25 c-3.70 -0.35 -9.80 -0.65 -13.50 -0.70 -20.60 -0.05 -25.45 -0.15 -32.75 -0.55 -12.25 -0.70 -18.80 -2.40 -28.35 -7.35 -10.10 -5.25 -15.95 -11.05 -22.50 -22.25 -1.75 -3 -4.50 -7.30 -6.20 -9.60 -1.65 -2.30 -3.55 -5.50 -4.15 -7.10 -1.35 -3.60 -0.65 -2.20 -8.55 -16.25 -3.60 -6.40 -7.25 -12.95 -8.05 -14.60 -4.05 -8 -6.45 -16.45 -7.95 -27.95 -0.70 -5.60 -1.30 -8.45 -2.25 -10.50 -5 -10.90 -5.45 -28.60 -1.50 -58.15 0.65 -4.95 1.35 -10.80 1.50 -13 0.25 -2.80 0.70 -4.60 1.45 -6 0.65 -1.10 1.30 -2.60 1.50 -3.35 0.15 -0.70 0.40 -1.60 0.55 -2 0.20 -0.50 -0.20 -0.65 -1.70 -0.50 -1.60 0.15 -2.25 -0.05 -3.25 -1.10 -1.55 -1.50 -1.60 -2.75 -0.35 -6.40 1 -2.95 5.20 -11.60 8.30 -17.15 l1.85 -3.30 -1.05 -1 c-1.65 -1.55 -1.85 -3.35 -0.60 -5.65 3.10 -5.85 10.50 -14.45 28.20 -32.80 14.45 -14.90 16.10 -16.30 24.90 -20.75 4.05 -2.05 7.95 -3.75 8.60 -3.75 0.65 0 1.80 0.45 2.50 1 l1.25 1 7.55 -1.85 c6.70 -1.60 7.60 -1.95 7.85 -2.95 0.65 -2.50 1.85 -2.95 8.15 -3 3.20 0 12.90 -0.35 21.55 -0.70 8.65 -0.40 22.85 -0.70 31.50 -0.70 13.50 -0.05 16.30 0.10 19.60 0.85 4.95 1.15 9 3.20 12.60 6.35 1.55 1.35 3.35 2.60 3.95 2.75 12.15 2.60 17.05 4.85 31.60 14.50 5.50 3.65 12.35 8.15 15.25 10 3.55 2.30 7.10 5.20 11 9 3.15 3.10 7.40 6.85 9.35 8.35 2 1.50 5.60 4.50 8 6.70 5.10 4.65 7.35 6.30 6.85 5 -0.55 -1.40 0.85 -3.85 2.60 -4.60 3.55 -1.50 5.25 0.40 11.85 13.10 2.65 5.10 6.30 11.55 8.05 14.35 5.80 9.30 7.85 14.45 9.60 24.55 0.45 2.50 1.45 6.60 2.25 9.05 2.20 6.90 3.25 12.05 4.95 24 2.45 17 2.05 23.35 -3 48.25 -2.80 13.90 -2.95 14.80 -2.05 16.45 0.45 0.85 0.55 2.25 0.30 5 -0.50 5.75 -3.75 14.20 -8.70 22.70 -1.65 2.80 -3.90 7.05 -5 9.50 -1.15 2.40 -2.95 6.25 -4.05 8.60 -3.40 7.35 -7.75 10.80 -18.40 14.70 -3.10 1.15 -8.65 3.55 -12.25 5.40 -8.40 4.20 -14.05 6.35 -20.55 7.90 -2.80 0.65 -6.80 1.90 -8.85 2.70 -4.55 1.80 -11.20 3.55 -20.40 5.30 -3.75 0.70 -8.80 1.70 -11.30 2.15 -4 0.75 -4.50 1 -4.75 2.05 -0.40 1.80 -2.30 2.95 -6.25 3.85 -4.85 1.10 -36.95 1.45 -46.75 0.45z m25.25 -9.75 c5.25 -0.75 5.25 -0.80 5.25 -3.05 0 -3.80 3.75 -5.75 6.65 -3.45 0.80 0.65 2 1 3.45 1 5.45 0 10.75 -1.80 26.15 -8.75 12.60 -5.70 27.70 -11.50 31.55 -12.10 3.45 -0.55 5.85 4.20 3.45 6.85 l-0.95 1.05 2.45 -1.05 c1.40 -0.60 6.45 -2.45 11.25 -4.05 4.80 -1.65 10.15 -3.80 11.90 -4.75 2.65 -1.50 3.10 -1.95 3.10 -3.15 0 -0.80 0.45 -2 1 -2.70 l1 -1.25 -2.55 0.95 c-1.45 0.55 -3.70 1.05 -5.05 1.10 -2.20 0.10 -2.65 -0.05 -3.75 -1.35 -1 -1.20 -1.20 -1.80 -0.95 -3.25 0.35 -2.25 1.65 -3.30 4.90 -4 5.85 -1.30 14.70 -7.05 23.25 -15.25 4.65 -4.45 5.20 -5.55 6.95 -13.85 0.70 -3.20 0.75 -4.25 0.30 -5 -0.95 -1.50 -0.75 -3.30 1.85 -14 3.90 -16.10 4.20 -18.20 4.25 -27.70 0.05 -11.70 -1.05 -35.75 -1.95 -43 -0.40 -3.30 -0.75 -6.30 -0.75 -6.60 0 -0.40 -0.60 -0.65 -1.40 -0.65 -2.55 0 -3.95 -2.35 -10.35 -17 -5.95 -13.65 -8.60 -18.40 -14.90 -26.75 -6.10 -8 -18.05 -18.85 -24.55 -22.30 -5.45 -2.90 -20 -11.55 -22.60 -13.50 -1.40 -1 -3.85 -3.05 -5.50 -4.50 -4.55 -4 -9.95 -7.30 -21.95 -13.40 -7.35 -3.70 -11.55 -5.55 -12.65 -5.55 l-1.65 0 4.30 4.80 c3.70 4.20 4.25 5.05 4.25 6.65 0 1.90 -1.20 3.55 -3.10 4.20 -1.50 0.55 -3.65 -0.60 -5.70 -3.05 -1.05 -1.30 -3.60 -4.10 -5.60 -6.20 -3.25 -3.40 -3.90 -3.85 -5.35 -3.80 -2.50 0.10 -4.20 -1.25 -4.55 -3.60 -0.20 -1.20 -0.65 -2.05 -1.15 -2.20 -1.65 -0.50 -28.45 -4.75 -33.15 -5.25 -2.70 -0.30 -7.90 -0.55 -11.55 -0.55 -6.05 0 -7.45 0.20 -13.40 1.70 -3.70 0.95 -11.30 2.75 -16.95 4.05 -10.45 2.40 -19.50 5 -19.50 5.65 0 0.20 0.35 0.80 0.75 1.30 0.40 0.55 0.75 1.70 0.75 2.55 0 2.25 -1.70 3.65 -5.30 4.30 -1.60 0.30 -4 1.20 -5.25 2 -1.25 0.80 -2.70 1.45 -3.25 1.45 -1.30 0 -3.40 1.40 -6.55 4.20 -1.95 1.75 -2.65 2.75 -2.65 3.75 0 1.90 -1.25 3.40 -3.70 4.60 -1.20 0.55 -2.80 1.70 -3.65 2.60 -1.75 1.85 -9.80 12.15 -11.80 15.10 -3.10 4.55 -7.30 23.35 -9.15 40.95 l-0.75 7.45 1.25 1.30 c1.60 1.65 1.65 3.60 0.30 6.60 -0.55 1.20 -1 3.15 -1 4.35 0 1.15 -0.40 2.95 -0.90 4 -1.95 3.95 -3.15 14.85 -3.15 29.05 0.05 28.35 4.15 48.10 11.90 56.55 3.10 3.40 3.45 4.45 2.35 6.75 -0.80 1.70 -0.80 1.80 0.85 5.50 1.60 3.75 1.65 3.75 3.55 3.75 1.40 0 2.30 0.35 3.20 1.25 1.25 1.25 1.25 1.45 0.95 5.50 l-0.35 4.25 3.85 5.80 c2.15 3.20 5.50 7.75 7.50 10.15 2 2.35 3.75 4.80 3.95 5.45 1 3.10 22.70 16.15 32.60 19.60 l4.55 1.55 1.60 -1.60 c1.40 -1.35 1.85 -1.55 3.45 -1.30 1.20 0.20 2.35 0.90 3.35 2 1.85 2.05 5.30 3 13.75 3.85 8.25 0.80 8.75 0.90 10.15 2 2.25 1.75 8.35 2.40 23.60 2.45 7.70 0 15.60 -0.20 17.50 -0.45z m-92 -5.40 c-3 -1.60 -7.35 -4.10 -9.60 -5.50 -4.45 -2.70 -5.50 -2.85 -2 -0.25 3.55 2.65 6.95 4.60 11.65 6.65 6.35 2.75 6.30 2.45 -0.05 -0.90z m148.65 -5.30 c0.15 -0.15 0.15 -0.40 0 -0.55 -0.30 -0.30 -4.90 1.55 -4.90 1.95 0 0.30 4.45 -1 4.90 -1.40z m11.35 -4.35 c1.55 -0.60 2.75 -1.15 2.65 -1.25 -0.20 -0.20 -6.45 1.70 -6.85 2.05 -0.55 0.60 1.65 0.15 4.20 -0.80z m-219.90 -179.55 c0.30 -0.35 0.65 -1.75 0.75 -3.15 l0.25 -2.50 -1.15 2.50 c-1.25 2.65 -1.50 3.75 -0.75 3.75 0.25 0 0.65 -0.30 0.90 -0.60z"/>
  <path d="M503.75 604.95 c-1.10 -0.25 -4.95 -0.30 -8.55 -0.15 -6.25 0.30 -10.55 0.05 -38.45 -2.25 -9.35 -0.80 -15.15 -3.70 -23.80 -11.95 -7.70 -7.30 -14.35 -16.45 -21.35 -29.35 -3.75 -6.85 -5.65 -11.95 -8.10 -21.60 -1.85 -7.25 -2.30 -12.95 -1.55 -18.90 1.20 -9.10 2.35 -12.65 7.25 -22.35 6.25 -12.45 10.95 -18.75 17.90 -24.05 4.75 -3.60 8.35 -5.35 15.50 -7.55 3.20 -1 8.25 -2.85 11.15 -4.05 7.85 -3.30 10.05 -3.75 18.30 -3.75 10 0 22.70 0.85 25.75 1.75 1.40 0.40 3.70 1.50 5 2.40 1.75 1.20 3.50 1.90 5.90 2.30 8.55 1.50 15.40 4.55 21.65 9.65 1.60 1.30 4.35 3.45 6.15 4.75 1.80 1.30 3.35 2.50 3.50 2.65 0.15 0.15 1.40 1.15 2.75 2.25 5.75 4.60 8.75 8.75 11.45 15.75 0.70 1.80 2.25 5.50 3.50 8.25 1.25 2.75 2.75 7.10 3.35 9.75 0.55 2.60 1.55 6.65 2.10 9 1 3.85 1.10 5.55 1.10 17.75 0 11.20 -0.15 14.20 -0.90 17.65 -2 9.05 -4.90 15.45 -9.85 21.60 -2.95 3.75 -7.95 7.95 -10.75 9.10 -0.80 0.30 -3.30 1.80 -5.50 3.35 -5.15 3.50 -11.30 6.35 -16.45 7.55 -4.35 1.05 -13.20 1.30 -17.05 0.45z m-49 -11.40 c-0.55 -0.25 -1.80 -0.55 -2.75 -0.75 l-1.75 -0.30 1.75 0.70 c0.95 0.40 2.20 0.75 2.75 0.75 l1 0 -1 -0.40z"/>
  <path d="M716.60 357.85 c-1.25 -1.30 -1.50 -4.20 -0.45 -5.40 0.30 -0.45 2.30 -2.20 4.40 -3.90 l3.85 -3.10 -0.75 -1.45 c-0.40 -0.90 -0.60 -1.95 -0.40 -2.60 0.60 -1.85 5.35 -8.75 11.30 -16.50 10.60 -13.60 14.65 -20.70 18.50 -32.60 3 -9.30 3 -9.35 4.45 -11 2.25 -2.65 4.30 -6.45 4.90 -9.05 0.35 -1.40 0.80 -5.30 1.05 -8.75 0.40 -5.75 0.40 -6.30 -0.50 -7.45 -1.25 -1.55 -1.20 -4.45 0.05 -6.05 0.55 -0.70 1 -1.70 1 -2.25 0.05 -3.15 1.60 -8.10 3.10 -9.95 2.65 -3.30 3.45 -8.20 3.75 -22.90 0.25 -12 0.30 -12.35 1.40 -13.40 1.25 -1.20 3.50 -1.45 5.15 -0.55 1.90 1.05 2.25 3.55 1.95 15.85 -0.20 9.80 -0.45 12.35 -1.55 17.60 -1.05 4.90 -1.20 6.35 -0.75 7.20 0.40 0.75 0.50 3.25 0.30 8.10 -0.35 8 -1.65 14.15 -4.60 21.55 -0.95 2.50 -2.45 7.10 -3.25 10.30 -2.50 9.75 -7.40 22.45 -9.60 24.80 -0.60 0.65 -1.60 1.15 -2.25 1.15 -0.80 0 -1.50 0.55 -2.15 1.65 -1.25 2.05 -1.25 2.85 0 2.85 1.45 0 3.50 2.35 3.50 4 0 1.40 -6.65 11.90 -11.65 18.40 -4.95 6.40 -12.95 14.15 -22.80 22 -3.80 3.05 -6.10 3.45 -7.95 1.45z"/>
 </g>
</svg>