<?xml version="1.0" encoding="utf-8"?>
<!DOCTYPE svg PUBLIC "-//W3C//DTD SVG 1.0//EN" "http://www.w3.org/TR/2001/REC-SVG-20010904/DTD/svg10.dtd">
<svg version="1.0" xmlns="http://www.w3.org/2000/svg" width="951px" height="1157px" viewBox="0 0 951 1157" preserveAspectRatio="xMidYMid meet">
 <g fill="#f5c3b8">
  <path d="M411 1105.05 c-3.70 -0.75 -9.40 -2.15 -12.70 -3.05 -6.55 -1.80 -7.60 -2.50 -11.90 -7.65 -2 -2.40 -2.40 -3.25 -2.40 -4.90 0 -1.05 0.25 -2.40 0.60 -2.90 0.50 -0.85 0.25 -1.35 -2.05 -3.80 -3 -3.35 -3.50 -4.20 -5.20 -9.25 -2.55 -7.70 -3.85 -14.45 -3.85 -20.35 0 -3.30 0.15 -4.15 0.70 -4.15 0.40 0 1.40 -0.55 2.15 -1.20 l1.40 -1.20 -0.15 -6.20 c-0.30 -12.65 -2.40 -32.05 -5.35 -49.75 -1.60 -9.35 -1.70 -10.85 -1.65 -20.25 0.05 -15.85 -0.70 -23.60 -4.20 -41.15 -2.80 -14.20 -3.80 -18.20 -4.85 -19.70 -0.95 -1.30 -5.20 -17.20 -5.85 -21.80 -0.35 -2.65 -1.30 -4.95 -2.30 -5.55 -0.35 -0.20 -1.40 -0.50 -2.35 -0.65 -1.65 -0.30 -1.80 -0.50 -3.80 -5.30 -1.15 -2.75 -2.65 -6.25 -3.35 -7.80 -1.35 -2.90 -2.35 -6.15 -4.65 -15.05 -1.75 -6.85 -2.60 -7.85 -6.10 -7.55 l-2.50 0.25 -3.70 -5.35 c-2.05 -2.95 -4.20 -5.70 -4.75 -6.10 -0.95 -0.60 -1.25 -0.55 -2.65 0.60 -1.30 1.10 -1.95 1.30 -4.10 1.15 -2.30 -0.15 -2.65 0 -3.60 1.20 -1 1.35 -1 1.45 -0.20 4.40 0.45 1.65 0.85 3.70 0.85 4.60 0 2.70 -2.60 12.05 -3.65 13.30 -1.20 1.30 -4.15 1.60 -3.65 0.35 0.15 -0.50 -0.90 -1.60 -3.35 -3.45 -2 -1.50 -4.60 -3.75 -5.85 -5 -2.35 -2.45 -3 -2.75 -3 -1.55 0 0.40 -0.35 0.75 -0.75 0.75 -1.05 0 -0.95 -9.50 0.25 -20.50 0.85 -7.80 1.80 -20.40 2.75 -36.75 0.30 -5.20 0.30 -5.55 -0.70 -6.45 -0.85 -0.75 -1.05 -1.55 -1.05 -3.95 0 -2.60 0.15 -3.10 1.30 -3.95 1.90 -1.50 1.40 -3.05 -5.30 -16.40 -2.70 -5.35 -4.50 -9.60 -4.50 -10.50 0 -1.75 0.50 -1.90 1.40 -0.45 1.05 1.65 1.15 0.85 0.30 -2 -0.40 -1.45 -1.50 -6.15 -2.40 -10.45 -1.40 -6.70 -2.15 -8.95 -5 -15.35 -5.20 -11.50 -20.60 -42.45 -23.65 -47.50 -5.45 -9.05 -7.55 -12 -8.35 -11.95 -0.55 0.05 -0.80 -0.30 -0.80 -1.10 0 -0.65 0.20 -1.20 0.40 -1.20 0.25 0 0.70 -0.55 1.05 -1.20 0.60 -1.05 0.40 -1.60 -2 -5.55 -3.25 -5.45 -7.15 -13.95 -12.70 -27.70 -4.30 -10.70 -4.95 -13.35 -3.70 -15.60 0.40 -0.75 0.35 -1.25 -0.15 -1.90 -2.45 -3.35 -4.95 -7.20 -6.25 -9.55 -2.55 -4.75 -9.60 -25.50 -12 -35.50 -0.70 -2.85 -1.65 -5.75 -2.20 -6.40 -0.50 -0.65 -1.40 -3.45 -2.05 -6.25 -0.95 -4.30 -1.40 -5.40 -2.75 -6.80 -0.90 -0.95 -1.65 -1.85 -1.65 -2.05 0 -0.20 -0.45 -4.35 -1 -9.30 -0.50 -4.90 -1.20 -13 -1.50 -17.90 -0.55 -8.70 -0.50 -9.05 0.50 -10.40 0.80 -1.10 1 -2.10 1 -5.25 0 -2.15 0.45 -6.50 1 -9.65 2.35 -13.55 4.55 -33.20 5.50 -49.25 0.30 -4.95 0.80 -10.35 1.10 -12 0.55 -3.15 3.60 -13.65 7 -24.25 2.50 -7.70 12.65 -33.20 13.95 -35.05 0.50 -0.70 1.50 -3 2.25 -5 1.60 -4.50 4.80 -10.60 11 -21 4.95 -8.30 6.85 -12.10 8.65 -17.50 1.30 -3.90 2.05 -5 7.85 -11.25 3.90 -4.15 4.60 -4.70 6.10 -4.70 l1.70 0 -0.25 2.15 c-0.10 1.15 -0.60 3.35 -1.05 4.85 -0.90 3.05 -0.55 4.80 1.25 5.90 0.85 0.55 1.25 0.55 2.20 -0.10 1.15 -0.75 1.80 -2.40 2.45 -6.40 0.80 -4.50 7.90 -12.15 22.65 -24.35 12.50 -10.30 13.10 -10.70 18.95 -12.55 2.85 -0.90 5.55 -1.90 6.05 -2.25 0.55 -0.40 0.95 -1.60 1.15 -3.30 l0.25 -2.65 6 -4.15 c4.55 -3.10 6.40 -4.10 7.70 -4.15 l1.70 0 -0.35 2.40 c-0.55 3.75 -0.45 4.25 1.20 5.75 1.85 1.65 3 1.70 4.40 0.20 0.80 -0.85 1.10 -1.80 1.10 -3.45 0 -2.10 0.20 -2.45 2.15 -4 3.50 -2.90 6.95 -4.90 8.45 -4.90 0.75 0 1.40 0.25 1.40 0.50 0 0.30 -0.20 0.50 -0.50 0.50 -1.50 0 -0.05 1 3 2.15 l3.55 1.30 9.35 -6.25 c10.20 -6.85 10.80 -7.30 9.10 -6.85 -0.90 0.25 -1.05 0.10 -0.95 -0.65 0.25 -1.10 3.60 -2.30 26.45 -9.25 26.65 -8.15 47.10 -13.95 49.10 -13.95 1.40 0 2.45 0.40 3.55 1.30 1.05 0.90 1.80 1.15 2.55 0.95 0.60 -0.20 4.80 -0.45 9.40 -0.60 7.85 -0.25 8.50 -0.20 10.40 0.80 1.10 0.55 2.35 1.05 2.75 1.05 1 0 2.75 -2.45 2.75 -3.80 0 -0.65 0.25 -1.20 0.50 -1.20 0.30 0 0.50 0.25 0.50 0.50 0 0.30 4.50 0.50 12.50 0.50 13.85 0 19.35 0.45 28.25 2.30 6.30 1.30 10.30 1.80 22.25 2.70 8.90 0.65 15.25 1.90 23.45 4.70 3.50 1.20 7.45 2.30 8.80 2.50 5.10 0.80 22.60 4.35 27.45 5.60 5.55 1.50 15.50 5.10 25.55 9.30 3.60 1.50 7.75 3.15 9.25 3.65 8.35 2.70 21.30 9.35 32.50 16.65 3.15 2.05 8.70 5.25 12.35 7.10 7.85 4 13.55 7.75 20.05 13.10 2.70 2.20 6.55 5.15 8.60 6.55 13.30 8.95 20 14.95 31.20 27.85 1.05 1.25 1.80 1.85 1.65 1.40 -0.25 -0.65 -0.05 -0.90 0.65 -0.90 0.65 0 1.10 0.45 1.30 1.40 0.15 0.75 0.40 1.70 0.50 2.10 0.10 0.40 0.75 4.60 1.45 9.25 1.85 11.85 2.55 14.90 4 16.25 0.90 0.85 1.35 1 2.10 0.55 2.20 -1.15 2.30 -1.60 1.20 -8.10 -1.20 -7.05 -1.30 -8.95 -0.40 -8.95 0.30 0 0.90 0.70 1.25 1.50 0.75 1.65 3.05 3.35 2.45 1.80 -0.25 -0.55 -0.05 -0.80 0.60 -0.80 0.70 0 1.70 1.45 3.85 5.65 1.55 3.05 5 9.45 7.60 14.10 6.50 11.80 17 32.95 19.55 39.40 2.40 6.15 3.15 10.35 1.90 10.35 -0.40 0 -0.90 -0.40 -1 -0.85 -0.10 -0.50 -0.20 0.15 -0.15 1.45 0.05 1.65 0.25 2.40 0.75 2.40 0.40 0 0.55 -0.30 0.35 -0.75 -0.20 -0.50 0.05 -0.75 0.70 -0.75 0.75 0 1 0.35 1 1.45 0 1.60 -1 2.70 -1.05 1.20 0 -0.70 -0.10 -0.65 -0.50 0.30 -0.30 0.75 -0.25 4.90 0.10 11.50 0.40 7.70 0.40 13.50 -0.05 23.05 -0.35 7 -0.65 12.85 -0.75 13 -0.10 0.15 0.25 1.85 0.80 3.75 1.90 6.85 2.95 14.05 4.50 31.25 0.30 3.45 1.20 9.95 2 14.50 1.70 9.90 2.45 18.85 2.45 29.95 0 4.60 0.35 11.10 0.75 14.55 0.40 3.45 1.10 9.85 1.50 14.25 0.45 4.40 1.25 10.95 1.75 14.50 2.20 14.55 2.40 22.70 1.30 46.50 -0.35 7.45 -0.60 20.65 -0.55 29.45 l0.05 15.95 4 2.60 c9.05 5.95 17 14.85 21.80 24.50 2.05 4.10 5.10 13.10 5.95 17.75 1 5.05 0.85 17.90 -0.25 22.90 -1.65 7.70 -4.75 15.65 -8.15 21.05 -1.25 1.90 -1.65 3.05 -1.45 3.85 0.25 1 0.15 1.20 -0.85 1.20 -1.30 0 -2.30 -0.95 -3.50 -3.30 -0.80 -1.60 -2.25 -2.40 -5.25 -2.90 -0.90 -0.15 -2.30 -0.80 -3.15 -1.40 l-1.55 -1.15 -1.40 1.55 c-1 1.15 -1.50 2.35 -1.75 4.25 -0.45 3.65 -3.20 20.50 -3.55 21.60 -0.35 1.05 -1.70 1.15 -1.70 0.10 0 -0.40 -0.10 -0.75 -0.20 -0.75 -0.20 0 -3.55 1.85 -4.20 2.30 -0.30 0.20 1.05 6.45 1.50 6.95 0.30 0.35 0.70 0.20 1.10 -0.35 0.95 -1.30 1.30 -1.10 1.30 0.80 0 0.95 -0.45 2.25 -1.05 3 -1.60 2 -2.80 5.65 -3.70 10.85 -0.40 2.60 -1.20 6.35 -1.70 8.40 -1.05 4 -0.90 5.05 1 6.10 1.20 0.60 1.15 1.70 -0.25 7.70 -1.30 5.70 -1.55 21.80 -0.60 43.25 0.45 10.30 1.20 21.90 1.60 25.75 0.85 8 3.55 22.80 5.75 31.40 1.40 5.60 1.45 6.30 1.40 16 -0.05 6.45 0.15 10.75 0.50 11.85 0.65 1.90 0.90 8.90 1.25 31.90 0.20 12.20 0.15 14.60 -0.45 14.60 -0.35 0 -0.75 -0.40 -0.90 -0.85 -0.25 -1.15 -0.35 -0.85 -2.10 5.35 -6.30 22.85 -23.15 40.10 -45.50 46.60 -2.20 0.60 -4.05 1.30 -4.15 1.50 -0.10 0.25 -0.55 0.40 -1 0.45 -0.70 0 -0.65 0.10 0.15 0.45 2.15 0.85 -0.95 1.15 -9.45 0.85 -9.80 -0.40 -12 -0.70 -23.30 -3.40 -12.95 -3.10 -12 -2.70 -12 -4.70 0 -1.10 0.25 -1.75 0.65 -1.75 0.40 0 1.20 -0.55 1.85 -1.25 1.05 -1.10 1.10 -1.40 0.55 -2.45 -0.65 -1.15 -2.45 -2.30 -3.75 -2.30 -0.35 0 -1.45 -1.65 -2.45 -3.70 -2.25 -4.50 -3.95 -6.30 -11.90 -12.40 -9.05 -6.95 -14.60 -12 -16.10 -14.55 -0.70 -1.20 -1.90 -4 -2.60 -6.15 -1.85 -5.55 -4.70 -11.40 -8.80 -18.30 -4.30 -7.15 -7.05 -10.35 -9.35 -10.80 -1.40 -0.30 -1.80 -0.70 -2.35 -2.30 -1 -2.90 -1.85 -3.50 -4.65 -3.35 -2.15 0.10 -2.55 -0.05 -3.30 -1.20 -0.50 -0.75 -0.80 -2 -0.70 -2.90 l0.15 -1.60 3.60 0 c3.25 0 3.75 -0.15 4.95 -1.30 1.10 -1.10 1.20 -1.50 0.75 -2.40 -0.90 -1.65 -2.45 -2.15 -7.10 -2.45 -3.80 -0.20 -4.55 -0.40 -5.50 -1.40 -1.05 -1.10 -1.55 -1.20 -5.90 -1.20 -6.55 0 -11.90 -1.30 -9.35 -2.30 0.50 -0.20 0.60 -1.05 0.45 -3.60 -0.20 -2.80 -0.75 -4.30 -3.10 -9 -1.75 -3.55 -3.05 -5.50 -3.45 -5.35 -2.90 1.10 -10.65 1.80 -17.95 1.70 l-8.10 -0.15 -5.65 5.60 c-3.10 3.05 -7.15 6.70 -9 8.10 -3.75 2.80 -4.40 3.55 -2.85 3.15 0.80 -0.25 1 -0.10 0.90 0.55 -0.15 0.55 -1.65 1.35 -4.70 2.35 -2.45 0.80 -7.90 3.15 -12 5.20 -7.55 3.75 -9.70 4.35 -11.80 3.25 -0.75 -0.45 -1.90 -0.15 -5.35 1.30 -4.45 1.85 -8.60 2.75 -8.60 1.80 0 -0.30 0.30 -0.65 0.65 -0.75 0.30 -0.15 -1.25 -0.30 -3.50 -0.30 -8.90 -0.10 -19.15 -2.20 -27.95 -5.70 -2.50 -1.05 -4.80 -1.85 -5.05 -1.85 -0.25 0 -0.75 1.05 -1.10 2.40 -1.50 5.25 -3.35 10.85 -7.05 21.35 -4.20 11.85 -5.25 15.20 -7.25 23.10 -1.20 5 -1.25 5.35 -0.75 13 1.35 21.35 1.20 26.45 -1.25 35.95 -2.05 7.85 -8.05 20 -11.50 23.30 -1.40 1.35 -1.55 1.90 -0.50 1.90 0.40 0 0.75 0.45 0.75 1 0 0.70 -0.35 1 -1.10 1 -0.65 0 -4.30 0.65 -8.15 1.45 -6.70 1.40 -12.65 3.20 -27 8.25 -6 2.10 -6.90 2.30 -11.30 2.30 -3.70 0 -5 -0.20 -5.45 -0.75 -0.95 -1.10 -1.75 -0.90 -3.15 0.75 -1.65 1.90 -3.25 1.90 -12.35 0.05z m93.85 -269.65 c0.55 -0.65 1.20 -1.70 1.40 -2.40 0.50 -1.55 3.05 -5.35 9.35 -13.85 4.05 -5.55 5.10 -6.65 6.20 -6.65 1.75 0 3.05 -0.80 3.85 -2.40 1.60 -3.10 7.85 -28.20 7.85 -31.35 0 -1.10 0.20 -1.25 1.65 -1.25 3.95 0 20.20 -2.75 31.10 -5.30 14.45 -3.35 27.40 -7.55 42.20 -13.70 11.55 -4.80 11.05 -4.85 17.05 1.85 2.60 2.95 6.65 7.45 9 10.05 2.35 2.60 6.05 7.10 8.25 10.05 l4 5.30 2.85 -0.15 c2.65 -0.20 3.10 0 7 2.35 5.45 3.30 6.30 3.45 8.30 1.80 1 -0.80 1.60 -1.80 1.60 -2.55 0 -2.05 -4.90 -12.35 -10.65 -22.40 -4.60 -8 -5.50 -10 -5.75 -12.15 -0.15 -1.65 0 -2.90 0.35 -3.35 0.40 -0.50 0.45 -1.30 0.10 -2.85 -1.10 -4.75 -1 -5 3.65 -7.85 5.80 -3.55 10.60 -7.45 18.15 -14.80 7.20 -6.95 8.80 -9.40 7.60 -11.60 -0.70 -1.40 -2.85 -2.70 -4.35 -2.70 -0.50 0 -1.25 -0.55 -1.60 -1.25 -0.90 -1.65 -2.75 -2.15 -4 -1 -0.55 0.50 -1.30 2.05 -1.70 3.45 -1.05 3.50 -4.90 8.15 -7.40 8.80 -1.15 0.35 -2.35 1.20 -3.15 2.20 -0.65 0.90 -3 2.90 -5.20 4.45 -3.55 2.60 -4.15 2.85 -6.50 2.85 -2.55 0 -2.65 0.05 -6.30 3.75 -2.05 2.05 -4.25 3.85 -4.85 3.95 -0.65 0.15 -1.95 0.35 -2.95 0.55 -2.05 0.30 -3.20 1.35 -3.70 3.40 -0.45 1.65 -1.35 2.15 -9.15 5.15 -4.50 1.70 -6.55 2.20 -8.80 2.20 -2.30 0 -3.45 0.30 -5.50 1.45 -4.70 2.70 -16.85 6.75 -23.95 8 -1.45 0.25 -4.90 1.05 -7.75 1.75 -7.10 1.80 -14.70 3.25 -18.85 3.60 -4.45 0.35 -6.10 1 -7 2.70 -0.60 1.20 -1.25 1.45 -4.85 2.20 -5.80 1.15 -9.20 1.10 -9.90 -0.15 -0.85 -1.60 -2.05 -1.65 -8.30 -0.10 -10.70 2.70 -20.50 3.70 -24.25 2.50 -3.30 -1.05 -6.20 -2.65 -7.70 -4.25 -1.35 -1.45 -1.85 -1.65 -5.10 -1.90 -3.60 -0.30 -3.65 -0.30 -4.75 1.20 -0.90 1.25 -1.45 1.50 -3.10 1.50 -2.50 0.05 -3.35 0.65 -5.05 3.70 -1.30 2.30 -1.30 2.40 -0.40 3.40 1.25 1.40 2.25 1.85 6.30 2.95 5.40 1.55 10.25 1.95 21.30 2 l10.20 0 -0.30 3.60 c-0.60 7.25 -5.95 26.25 -8.20 28.85 l-1.30 1.55 1.10 1.45 c1.40 1.90 1.35 4.45 -0.15 8.85 -0.65 1.95 -1.45 4.90 -1.80 6.50 -0.30 1.60 -0.65 3.25 -0.80 3.70 -0.30 1.05 1.65 3.45 2.75 3.45 0.50 0 1.35 -0.50 1.90 -1.10z m-35.55 -164.90 c2.75 -0.25 8.15 -1.25 12 -2.20 6.90 -1.75 19.65 -4.40 24.45 -5.10 1.40 -0.25 2.10 -0.50 1.65 -0.60 -0.50 -0.10 -0.90 -0.50 -0.90 -0.90 0 -0.95 4.25 -0.90 15.25 0.10 15.95 1.50 42.50 0.95 49.05 -1.05 2.65 -0.80 4.70 -2.50 4.70 -3.85 0 -0.50 0.30 -1.05 0.65 -1.15 0.30 -0.15 5.10 -1.05 10.60 -2 11.90 -2.10 20.85 -4.25 26.45 -6.35 2.20 -0.80 7.20 -2.35 11.05 -3.35 8.05 -2.15 14.05 -4.45 22.35 -8.60 5.45 -2.75 8.90 -3.70 8.90 -2.45 0 0.30 -0.25 0.50 -0.60 0.50 -1.70 0 0.55 0.60 5.65 1.50 3.15 0.55 6.80 1.35 8.15 1.75 2.95 0.90 15.55 1.05 16.10 0.20 0.15 -0.30 0.45 -6.70 0.60 -14.25 0.25 -12.50 0.20 -13.70 -0.60 -13.70 -0.45 0 -0.80 0.25 -0.80 0.50 0 0.30 -0.20 0.50 -0.50 0.50 -0.95 0 -0.50 -3.05 0.95 -6.20 0.80 -1.75 3.05 -5.95 5 -9.30 3.20 -5.45 4.90 -9.05 8.05 -17 0.50 -1.25 1.15 -3.90 1.45 -5.90 0.50 -3.10 0.45 -3.85 -0.25 -5.20 -0.90 -1.75 -0.75 -5.05 0.55 -11.15 6.20 -29.05 7.60 -40.25 6.30 -50.25 -2.45 -18.20 -3.85 -25.80 -6.30 -33.50 -0.90 -2.90 -2.15 -7.85 -2.75 -11 -2.10 -11.25 -4 -15.85 -11.75 -28.50 -1.60 -2.60 -4.85 -8.45 -7.15 -13 -5 -9.65 -7.65 -13.80 -9.20 -14.30 -1.55 -0.45 -3.40 1.75 -3.40 4.10 0 1.60 -0.10 1.70 -1.60 1.70 -1.75 0 -3.35 -1.15 -10.75 -7.80 -2.20 -1.95 -5.30 -4.50 -6.95 -5.70 -1.60 -1.20 -6 -5.15 -9.70 -8.75 -5.20 -5.05 -8.15 -7.45 -13 -10.50 -3.40 -2.20 -10.60 -6.95 -16 -10.50 -14.05 -9.40 -21.55 -13 -31.35 -15 -3.10 -0.65 -4.25 -1.15 -5.65 -2.45 -4.75 -4.45 -7.95 -6.15 -14.75 -7.90 -5.65 -1.45 -28.75 -1.90 -38.85 -0.70 -4.65 0.50 -8.80 0.70 -13.20 0.50 -4.30 -0.20 -9.65 -0.05 -15.95 0.50 -5.20 0.50 -10.60 0.70 -11.90 0.55 -2.10 -0.30 -2.60 -0.20 -3.65 0.80 -0.65 0.60 -1.20 1.55 -1.20 2.05 0 1.20 -0.80 1.50 -10 3.60 -9 2.10 -9.55 2.15 -10.75 0.80 -0.50 -0.55 -1.20 -1 -1.60 -1 -0.80 0 -8.55 3.85 -13.40 6.65 -4.85 2.80 -9.15 6.80 -24.15 22.50 -17.45 18.30 -22.10 23.70 -27.35 31.70 -1.45 2.20 -1.30 3.05 0.65 4.30 1.05 0.70 0.70 4.20 -0.65 6.35 -3.25 5.10 -10.25 20.10 -10.25 21.85 0 1.65 1.55 2.65 4.10 2.65 l2.40 0 0 1.90 c0 2.45 -1.20 6.20 -2.50 8 -0.80 1.10 -1.15 2.60 -1.50 6.85 -0.25 3.05 -0.70 7.20 -0.95 9.25 -2 14.95 -2.60 20.45 -3.10 29.35 -0.85 15.55 0.40 26.30 4.05 34.65 1.20 2.70 1.70 5.15 2.55 11.60 1.60 12.45 4.15 21.35 8.75 30.50 1 1.95 5.10 9.45 9.15 16.60 4.10 7.20 7.70 13.95 8.05 15.05 0.35 1.10 1.20 3.10 1.80 4.50 0.65 1.35 1.20 3.05 1.20 3.75 l-0.05 1.25 -1.05 -1.25 c-0.70 -0.80 -0.95 -0.95 -0.75 -0.35 0.20 0.45 1.05 3.30 1.90 6.25 2.15 7.40 4.65 14 7.45 19.60 2.15 4.30 3.25 5.70 10.60 13.50 4.55 4.80 9.50 9.85 11.10 11.20 l2.85 2.40 6.10 0.45 c13.05 0.95 17.95 1 24.15 0.45z"/>
  <path d="M516 804.15 c0 -1 0.60 -3.70 1.35 -6 l1.35 -4.15 -1.35 -1.40 c-1.65 -1.70 -1.65 -1.95 -0.30 -8.70 l1.10 -5.40 4.65 0 c5.60 0 5.35 -0.70 3.20 9.05 -2.70 12.35 -3.65 15.20 -5.45 16.90 -1.05 1 -2.20 1.55 -3.10 1.55 -1.35 0 -1.45 -0.15 -1.45 -1.85z"/>
  <path d="M647.75 773.50 c-4.60 -5.20 -4.95 -5.50 -6.75 -5.50 -1.65 0 -2.20 -0.30 -3.95 -2.35 -4.05 -4.75 -6.55 -7.85 -6.55 -8.20 0 -0.20 -0.80 -0.85 -1.75 -1.45 -1.40 -0.85 -1.75 -1.40 -1.75 -2.65 0.05 -1.55 0.15 -1.65 5.45 -3.70 7.45 -2.95 7.60 -2.90 9.85 1.25 2.75 5.10 7 12.70 10.50 19 2.20 3.90 3.20 6.20 3.20 7.40 0 1.60 -0.10 1.70 -1.75 1.70 -1.55 0 -2.15 -0.50 -6.50 -5.50z"/>
  <path d="M682.75 587 c0.20 -0.55 0.10 -1 -0.20 -1 -0.30 0 -0.40 -0.30 -0.25 -0.65 0.15 -0.40 -0.20 -4.25 -0.80 -8.65 -0.65 -4.90 -1.20 -13.55 -1.50 -22.45 -0.35 -10.25 -0.80 -16.05 -1.45 -19.75 -1.70 -9.15 -2 -11.55 -2.80 -21.75 -0.60 -7.45 -1.15 -11.40 -2.25 -15.50 -3.10 -11.75 -3.25 -13.50 -3.05 -31 0.10 -8.80 0.20 -19.20 0.25 -23.10 0.05 -6.95 0.10 -7.15 1.10 -7.15 0.90 0 1.55 1 3.60 5.65 1.40 3.05 4.25 9.40 6.30 14.05 5.15 11.45 5.85 12.65 8.25 13.35 1.30 0.40 2.05 0.95 2.25 1.65 0.70 2.85 1.80 17 2.35 29.30 1.45 34.75 1.50 34.15 -4.15 57.20 -2 8.35 -2.40 10.65 -1.95 11.35 0.90 1.45 0.65 5.30 -0.70 10.80 -1.75 7.25 -2.40 8.65 -4 8.65 -1.10 0 -1.25 -0.15 -1 -1z"/>
  <path d="M396.30 569.85 c-5.05 -6.15 -9.05 -20.35 -10.80 -38.35 -0.90 -9.60 -1.20 -28.95 -0.55 -37.25 0.70 -8.65 2.10 -16.85 3.25 -19 0.45 -0.80 0.80 -2.45 0.80 -3.60 0 -1.15 0.45 -3.25 1 -4.65 1.25 -3.20 1.25 -3.30 -0.30 -4.75 l-1.35 -1.25 0.60 -6.85 c1.45 -17.40 6.15 -41.05 9.30 -47.20 0.90 -1.70 11.20 -15 13.70 -17.65 1 -1.05 2.75 -2.35 3.90 -2.85 2.55 -1.20 4.15 -3.10 4.15 -5 0 -1.05 0.60 -2 2.30 -3.55 4.35 -4 5.85 -4.90 9.15 -5.20 3.25 -0.35 3.95 0.15 1.80 1.30 -0.70 0.35 -1.25 1 -1.25 1.40 0 0.70 -1.35 3.40 -10.05 19.85 -2.25 4.35 -3.45 7.50 -5.60 15 -3.50 12.20 -3.10 10.25 -4.85 23.85 -1.95 15.40 -2.25 17.50 -4 28.15 -0.80 4.95 -2.05 13.50 -2.75 19 -0.70 5.50 -1.70 12.95 -2.25 16.50 -2.60 17.20 -3 23.20 -3 48.20 -0.05 20.65 0.05 23.80 0.75 24.85 0.75 1.15 0.75 1.20 -0.70 1.20 -1.15 0 -1.90 -0.50 -3.25 -2.15z"/>
  <path d="M379 442.95 c0 -0.95 0.60 -3.35 1.35 -5.30 1.35 -3.50 1.45 -3.65 3 -3.65 1.55 0 1.65 0.10 1.65 1.90 0 2.10 -0.85 7.60 -1.20 8 -0.15 0.10 -1.25 0.35 -2.55 0.45 l-2.25 0.30 0 -1.70z"/>
  <path d="M660.70 422.90 c-2.20 -2.25 -5.25 -5.70 -6.80 -7.65 -3.70 -4.65 -5.95 -6.70 -10.20 -9.30 -3.80 -2.40 -11.10 -7.95 -11.15 -8.55 -0.10 -0.75 3 -0.40 4.85 0.55 2.90 1.50 11.10 8 11.10 8.80 0 0.40 0.40 0.75 0.90 0.75 1.05 0 9.15 8.15 13.05 13.10 2.10 2.70 2.60 3.70 2.45 4.95 l-0.15 1.55 -4.05 -4.20z"/>
  <path d="M606.50 381.70 c-1.80 -1.25 -5.40 -3.05 -8 -4.05 -2.60 -1 -8.90 -3.50 -14 -5.55 -5.10 -2.05 -9.55 -3.85 -9.95 -4 -0.50 -0.20 -0.55 0.05 -0.30 0.85 0.30 0.95 0.20 1.10 -0.85 0.95 -0.75 -0.10 -2.70 -1.85 -5.30 -4.75 -3.25 -3.65 -4.10 -4.90 -4.10 -6.10 l0 -1.55 3.40 0 c2.45 0 3.85 0.25 5.10 1 0.95 0.55 6.35 3.30 12 6.15 12.70 6.40 16.45 8.75 23.20 14.70 1.80 1.60 2.35 2.40 2.20 3.30 -0.15 1.20 -0.15 1.20 -3.40 -0.95z"/>
  <path d="M558.50 365.70 c-0.70 -0.35 -4.30 -1.20 -8 -1.90 -3.75 -0.70 -8.80 -1.95 -11.25 -2.75 -3.35 -1.10 -5.90 -1.55 -10 -1.80 -7.60 -0.45 -16.05 -1.60 -22.10 -3 -4.90 -1.15 -6 -1.25 -21.90 -1.25 -15.90 -0.05 -16.75 -0.10 -16.75 -0.95 0 -0.75 0.90 -1.15 4.90 -2 2.65 -0.65 7 -1.70 9.60 -2.45 4.30 -1.20 5.70 -1.35 15.25 -1.50 12.15 -0.20 16.85 0.30 37.75 3.80 l13.75 2.35 0.15 1.50 c0.30 3.20 2 4.75 5.30 4.75 2.10 0 4.95 2.80 4.70 4.60 -0.15 1.10 -0.25 1.15 -1.40 0.60z"/>
  <path d="M443 361.85 c0 -1.95 1.35 -2.85 4.25 -2.85 2.25 0 2.20 0.50 -0.20 2 -1.45 0.95 -1.80 1.40 -1.45 1.90 0.40 0.45 0.15 0.60 -1.05 0.60 -1.45 0 -1.55 -0.15 -1.55 -1.65z"/>
  <path d="M708.35 1054.85 c-0.15 -0.35 -1.60 -1.40 -3.25 -2.25 -3.30 -1.80 -12.40 -7.85 -12.85 -8.60 -0.15 -0.30 -0.55 -0.50 -0.85 -0.50 -0.35 0 -0.30 0.30 0.10 0.75 0.55 0.65 0.40 0.75 -0.70 0.75 -1.15 0 -1.55 -0.40 -2.40 -2.35 -0.60 -1.30 -1.15 -3.90 -1.30 -5.75 l-0.25 -3.40 1.70 0 c1.35 0 2.80 0.90 7.20 4.30 8.75 6.75 11.25 9.15 12.55 11.90 1.20 2.55 1.60 5.80 0.75 5.80 -0.25 0 -0.55 -0.30 -0.70 -0.65z"/>
  <path d="M678 1033.85 c0 -0.35 -1.10 -1.05 -2.50 -1.60 -2.70 -1.05 -3.20 -2 -1.30 -2.75 0.65 -0.25 1.35 -0.70 1.55 -0.95 0.15 -0.30 1.10 -0.55 2.05 -0.55 l1.70 0 0 3.25 c0 2.55 -0.15 3.25 -0.75 3.25 -0.40 0 -0.75 -0.30 -0.75 -0.65z"/>
  <path d="M668.70 1028.80 c-10.55 -6.45 -19.80 -16.40 -25.20 -27.30 -2.40 -4.80 -5.40 -14.40 -6.10 -19.55 -0.50 -3.40 -0.85 -4.65 -1.50 -5 -1.35 -0.75 -1.05 -1.45 0.60 -1.45 0.90 0 2.85 0.85 4.95 2.20 3.10 2 3.55 2.50 4.30 4.75 0.55 1.75 1.90 3.70 4.35 6.40 4.25 4.65 10.70 12.60 12.55 15.40 1.50 2.35 6.90 16.05 8.10 20.70 0.45 1.75 0.75 3.65 0.65 4.25 -0.15 1.10 -0.15 1.10 -2.70 -0.40z"/>
  <path d="M318.50 865.75 c0 -0.45 -0.45 -0.75 -1.25 -0.75 -0.70 0 -1.25 0.25 -1.25 0.50 0 0.30 -0.25 0.50 -0.55 0.50 -0.30 0 -0.45 -0.70 -0.35 -1.60 0.15 -1.60 0.25 -1.65 2.55 -1.80 l2.35 -0.15 0 2 c0 1.50 -0.20 2.05 -0.75 2.05 -0.40 0 -0.75 -0.35 -0.75 -0.75z"/>
  <path d="M280 825.90 c0 -0.30 -0.30 -0.95 -0.70 -1.35 -1.15 -1.30 -2.90 -10.35 -3.15 -16.40 -0.30 -5.35 -0.25 -5.65 0.70 -5.65 0.85 0 1.15 1.10 2.80 9.90 2.05 10.85 2.30 14.10 1.10 14.10 -0.40 0 -0.75 -0.25 -0.75 -0.60z"/>
  <path d="M281.55 794.15 c-0.60 -2.10 -1.55 -4.70 -2.10 -5.80 -0.50 -1.15 -0.95 -2.65 -0.95 -3.45 0 -1.25 0.15 -1.40 1.70 -1.40 1.65 0 1.85 0.20 3.75 3.70 1.85 3.35 2.05 4 2.05 7.25 l0 3.55 -1.65 0 c-1.60 0 -1.65 -0.05 -2.80 -3.85z"/>
  <path d="M283.85 775.85 c-2.25 -4.30 -3 -7.35 -1.85 -7.35 0.30 0 0.50 0.20 0.50 0.50 0 0.25 0.45 0.70 1.05 1 0.95 0.55 1 0.50 0.45 -0.50 -0.50 -0.95 -0.45 -1.05 0.55 -0.90 1.50 0.20 5.90 7.85 5.95 10.30 0 1.55 -0.05 1.60 -2.10 1.60 l-2.15 0 -2.40 -4.65z"/>
  <path d="M184.50 465.30 c0.30 -0.40 0.80 -3.15 1.05 -6.15 0.60 -6.80 2.30 -14.15 3.25 -14.15 1.40 0 0.65 19.60 -0.80 20.50 -0.40 0.30 -1.50 0.50 -2.45 0.50 -1.40 0 -1.60 -0.10 -1.05 -0.70z"/>
  <path d="M211.50 391.65 c0 -1.10 1.40 -5.35 3.55 -10.75 l3.60 -8.90 1.65 0 c1.65 0 1.70 0.10 1.70 1.90 0 1.15 -1.30 5.15 -3.60 10.75 l-3.60 8.85 -1.65 0 c-1.55 0 -1.65 -0.10 -1.65 -1.85z"/>
  <path d="M213.05 359.15 c0 -1.10 0.10 -1.20 0.40 -0.50 0.30 0.90 0.35 0.90 1.15 0 0.45 -0.50 1.35 -2.05 2.05 -3.45 1.90 -3.75 6.85 -10.95 10.30 -14.95 1.65 -1.90 3 -3.70 3.05 -3.90 0 -0.65 2.85 -3.35 3.45 -3.35 0.30 0 0.55 -0.45 0.55 -0.95 0 -0.55 0.20 -1.05 0.40 -1.15 0.25 -0.05 1.30 -1.70 2.35 -3.65 6.10 -11.20 8.70 -15.30 14.05 -22.05 6.65 -8.40 19.60 -21.10 20.75 -20.40 0.25 0.15 0.45 0 0.45 -0.25 0 -0.30 0.35 -0.55 0.75 -0.55 0.40 0 0.75 -0.20 0.75 -0.50 0 -0.25 0.25 -0.50 0.50 -0.50 0.30 0 0.50 0.55 0.50 1.25 0 0.85 -1.45 2.95 -4.65 6.65 -5.25 6.05 -13.80 17.10 -17.70 22.75 -1.85 2.65 -3.15 4.05 -4.35 4.55 -1.15 0.50 -2.20 1.55 -3.35 3.55 -1.45 2.40 -8.05 11.50 -8.95 12.25 -0.60 0.50 -10.45 15.40 -12.90 19.50 -2.75 4.65 -5.50 7 -8.15 7 -1.25 0 -1.45 -0.20 -1.40 -1.35z"/>
  <path d="M280.50 287.95 c0 -1.30 0.60 -2.10 3.35 -4.65 7.40 -6.80 14.25 -11.70 28.10 -20 4.60 -2.75 7.70 -4.30 8.60 -4.30 1.45 0 2 0.75 0.85 1.15 -0.35 0.10 0.70 0.15 2.35 0.05 1.65 -0.10 3.40 -0.30 3.90 -0.45 0.65 -0.30 0.85 -0.10 0.85 0.80 -0.05 0.95 -0.95 1.80 -3.90 3.80 -2.10 1.40 -7.35 5.20 -11.60 8.35 -4.25 3.20 -7.95 5.80 -8.25 5.80 -1.15 0 -10.65 4.65 -15.75 7.70 -3.50 2.10 -6 3.30 -7 3.30 -1.35 0 -1.50 -0.15 -1.50 -1.55z"/>
 </g>
 <g fill="#000000">
  <path d="M417.75 1119.50 c-4.05 -0.75 -11.20 -2.95 -15.50 -4.80 -2.25 -0.95 -4.80 -1.70 -5.70 -1.70 -2.35 0 -9.15 -3.35 -13.55 -6.65 -5 -3.75 -9.20 -9.10 -13.05 -16.50 -1.70 -3.35 -4.50 -8.10 -6.20 -10.60 -3.55 -5.10 -4.60 -7.65 -7 -16.95 -1.85 -7.25 -3.15 -14.90 -4.85 -28.80 -1.35 -11.40 -1.40 -27.35 -0.15 -42 1.45 -16.20 0.60 -27.35 -3.50 -48.50 -1.20 -6.20 -2.55 -14.15 -3 -17.75 -1 -8.25 -2.45 -16.15 -4.10 -22.50 -1.25 -4.85 -2.50 -8 -8.40 -21.50 -1.55 -3.55 -3.30 -7.70 -3.85 -9.15 -0.55 -1.45 -1.05 -2.60 -1.15 -2.50 -0.10 0.10 -1 6.60 -2 14.40 -3.40 26.55 -4 29.90 -5.25 31.25 -0.85 0.90 -1.70 1.25 -3 1.25 l-1.85 0 -0.35 3.65 c-0.75 7.80 -3.35 26.20 -3.90 27.50 -0.60 1.60 -3.05 3.05 -4.50 2.70 -0.50 -0.15 -1.55 0.05 -2.30 0.45 -3.65 1.90 -7.60 -0.30 -7.60 -4.25 0 -1.15 -0.60 -4.70 -1.30 -7.95 -0.70 -3.20 -1.50 -6.75 -1.75 -7.85 -0.45 -2.15 -1 -4.05 -4.90 -16.90 -1.95 -6.40 -2.90 -8.75 -3.95 -9.80 -2.55 -2.60 -5.55 -12.70 -5.60 -18.75 0 -1.60 -0.35 -6.80 -0.80 -11.50 -0.90 -9.80 -0.70 -22.50 0.60 -39.30 l0.85 -10.25 -2.10 -11 c-3.85 -20.15 -3.50 -19.30 -18.20 -49.50 -3.75 -7.70 -8.80 -18.85 -11.25 -24.75 -2.40 -5.90 -6.30 -15.35 -8.60 -20.95 -2.35 -5.60 -5.75 -13 -7.60 -16.50 -4.85 -8.95 -14.80 -29.15 -18.10 -36.65 -4.05 -9.20 -6.10 -15.55 -13.30 -40.75 -8.30 -29 -10 -35.55 -12.45 -48.65 -3 -16.20 -4.30 -25.85 -5 -37.50 -0.45 -6.60 -0.50 -6.90 -3.25 -13.75 -2.90 -7.15 -3.20 -8.60 -2.25 -10.35 0.65 -1.20 3.45 -2.45 4.75 -2.10 0.90 0.25 1.05 -0.10 1.50 -2.80 0.40 -2.40 0.35 -4.15 -0.35 -8.40 -0.50 -2.95 -0.90 -5.60 -0.95 -5.95 0 -0.95 -3.20 -2.65 -6.90 -3.65 -8.20 -2.25 -19.20 -9.05 -33.35 -20.50 -2.75 -2.25 -6 -4.60 -7.25 -5.25 -1.25 -0.65 -2.90 -1.90 -3.75 -2.75 -0.80 -0.90 -2.75 -2.40 -4.25 -3.40 -1.50 -0.95 -4.20 -2.90 -6 -4.30 -2.90 -2.25 -3.50 -2.55 -5.80 -2.55 -5.20 -0.10 -9.45 -4.70 -22.95 -25 -11.10 -16.70 -14.55 -22.80 -21.05 -37.50 -2.95 -6.60 -6.35 -14.15 -7.55 -16.75 -9.90 -21.20 -13.65 -36.10 -13.85 -55 -0.05 -6.10 0.10 -7.65 0.95 -9.95 1.30 -3.50 2.85 -4.70 5.65 -4.40 2.40 0.25 2.15 0.65 3.15 -5.65 1.95 -12.50 4.85 -23.65 6.95 -26.60 0.55 -0.75 1 -2.10 1 -3.05 0 -2.25 1.30 -6.45 3.10 -10.10 2.55 -5 6.15 -9.80 12.85 -17.10 7.75 -8.40 29.25 -28.90 31.20 -29.70 1.15 -0.50 1.75 -0.45 3.20 0.25 l1.75 0.85 2.75 -2.40 c4.50 -3.95 8.90 -6.95 19.15 -13 5.35 -3.20 12 -7.30 14.80 -9.15 7.20 -4.85 8.95 -5.65 11.40 -5.35 1.45 0.20 2.45 0.75 3.40 1.80 1.05 1.20 1.80 1.55 3.20 1.55 1.30 0 2.15 0.40 3.30 1.50 1.30 1.30 1.45 1.80 1.30 3.55 -0.15 1.80 0.05 2.30 1.45 3.70 2.05 2.05 2.05 2.95 0.15 6.70 -1.20 2.35 -2.40 3.65 -6.05 6.55 -4.15 3.35 -4.50 3.75 -4.25 5.05 0.45 2.30 -0.55 4.05 -3.55 6.20 -1.50 1.10 -3.30 2.80 -3.90 3.75 -1.55 2.35 -6.90 15.85 -6.80 17.20 0 0.55 0.15 2.05 0.35 3.30 0.25 2.05 0.10 2.40 -1.50 4.10 -2.15 2.25 -2.95 6.55 -1.60 8.50 0.45 0.60 0.80 1.75 0.80 2.45 0 1.65 -2.20 4.45 -3.50 4.45 -0.80 0 -0.95 0.65 -1.20 6.15 -0.60 13.60 -0.80 37.35 -0.30 42.90 0.25 3.15 0.95 8.35 1.50 11.50 1.10 6.30 1.25 9.75 0.50 10.20 -0.90 0.55 -0.50 2.30 1.40 6.45 2.65 5.55 11.85 22.10 13.40 24 0.70 0.85 3.20 4.25 5.55 7.55 7.40 10.40 16.45 20.10 21.05 22.65 l2.05 1.15 1.30 -4.25 c0.70 -2.30 2.05 -6.20 3.05 -8.65 1.40 -3.50 2.05 -6.40 3.20 -14.15 2.10 -14.55 4.50 -23.10 10.05 -35.85 2.75 -6.35 3.80 -7.90 5.80 -8.40 2.55 -0.60 5.65 1.85 5.65 4.50 0 0.45 -1.15 3.45 -2.55 6.65 -1.40 3.20 -3.05 7.20 -3.70 8.90 -1.50 3.95 -4.35 14.10 -4.15 14.70 0.10 0.25 1.25 -0.25 2.55 -1.15 1.85 -1.20 3.05 -2.60 4.95 -5.85 3.80 -6.25 10.70 -16.45 15.75 -23.10 2.40 -3.20 5.15 -7.10 6.10 -8.65 1.15 -2 2.20 -3.05 3.35 -3.55 1.20 -0.50 2.50 -1.90 4.35 -4.55 7.60 -11.10 22.05 -28.45 28.70 -34.45 8.80 -7.90 14.20 -11.70 32.65 -22.80 15.30 -9.25 22.90 -13.40 39 -21.35 24 -11.90 36.55 -15.10 68.75 -17.55 7.45 -0.55 18.10 -1.45 23.75 -2 5.65 -0.55 12.75 -1.20 15.75 -1.50 3.05 -0.25 10 -1.40 15.50 -2.50 9.45 -1.90 49.30 -9.10 59.55 -10.75 2.55 -0.45 7.30 -1 10.55 -1.25 3.25 -0.25 6.75 -0.80 7.80 -1.20 1.65 -0.75 2.05 -0.75 3.65 -0.05 1.30 0.55 3.65 0.75 8.15 0.75 26.15 0.05 48.70 3.65 75.25 11.95 l7.95 2.45 1.80 -1.45 c3.80 -3.05 6.10 -2.45 16.75 4.25 9.05 5.70 9.10 5.70 15.55 7.35 10.15 2.70 13.20 3.90 14.30 5.65 0.55 0.85 0.90 2.10 0.85 2.75 -0.15 1.10 0.75 1.60 11.35 6.50 12.80 5.95 16.90 8.20 22.70 12.55 4.60 3.50 10.55 9.25 12.40 12.05 0.70 1.05 1.40 1.95 1.60 1.95 0.35 -0.05 15.30 -21.95 17.90 -26.25 0.95 -1.65 2.75 -4.95 4 -7.30 2.70 -5.35 3.40 -10.15 3 -20.95 -0.30 -8.25 -1 -12 -2.40 -13.30 -0.65 -0.60 -0.95 -1.50 -0.95 -2.95 0 -2.25 1 -3.55 3.75 -4.80 l1.50 -0.70 0.15 -6.10 c0.10 -5.05 -0.05 -6.65 -0.85 -9.15 -1.25 -3.75 -1.70 -6.15 -3.30 -18 -0.90 -6.75 -1.75 -10.65 -3 -14.50 -1 -2.90 -2.45 -7.80 -3.35 -10.90 -1.50 -5.45 -1.60 -5.70 -4.80 -9.15 -1.85 -2 -5.90 -5.85 -9 -8.60 -7.50 -6.60 -8.60 -9.20 -4.95 -12.05 l1.50 -1.20 -3.70 -4.15 c-5.55 -6.30 -9 -10.80 -9.40 -12.35 -0.25 -0.95 -1.15 -1.80 -3.10 -2.85 -4.15 -2.35 -5.05 -5.05 -2.55 -7.80 1.15 -1.30 1.75 -1.55 3.50 -1.55 l2.10 0.05 -3.10 -4.60 c-4.85 -7.10 -10.10 -12.05 -16.30 -15.30 -2.85 -1.50 -5.70 -3.40 -6.40 -4.20 -1.50 -1.80 -1.55 -3.90 0 -5.70 0.65 -0.75 1.20 -2.05 1.20 -2.85 -0.05 -1.75 2.50 -4.30 4.25 -4.30 1.75 0 4.75 0.95 5.55 1.80 0.45 0.40 5.45 2.90 11.15 5.55 16.45 7.55 15.30 7.10 16.70 6.35 2.50 -1.40 3.70 -0.90 8.05 3.10 2.60 2.35 5.95 4.80 9.10 6.55 6.70 3.75 14.70 9.05 15.30 10.20 0.30 0.50 0.50 1.55 0.50 2.35 0 1.90 1.40 3.10 3.70 3.10 2.60 0 4.50 1.10 8.80 5.25 2.05 1.95 6.20 5.70 9.25 8.30 7.25 6.20 13.45 12.35 16.90 16.80 2.15 2.70 3.05 3.50 3.80 3.30 1.25 -0.30 3.70 1 4.45 2.45 4.55 8.95 15.15 44.35 14.35 47.90 -0.40 1.85 -1.75 3 -3.85 3.35 -1.45 0.20 -2.05 0 -3.35 -1.15 -1.40 -1.30 -1.80 -2.45 -4.30 -12.20 -1.55 -5.90 -3.95 -14.20 -5.40 -18.45 -2.40 -7.10 -2.75 -7.80 -4.35 -8.80 l-1.80 -1.15 3.20 12.35 c3.05 11.95 4.95 17.95 11.80 37.80 4.65 13.45 4.85 16.95 1 18.55 -1.45 0.60 -1.95 0.60 -3.40 0 -2.10 -0.90 -2.45 -1.50 -3.55 -6.55 -0.45 -2.20 -2.85 -9.50 -5.25 -16.25 -3.80 -10.65 -6.65 -19.65 -8.45 -26.75 -1.50 -6.05 -1.60 -6.25 -2.55 -6.25 -1.85 0 -3.45 -2.10 -4.50 -5.90 -2.45 -8.85 -14.15 -28 -23.20 -37.95 -3.45 -3.80 -4.65 -4.25 -17.40 -6.40 l-9.35 -1.60 0.70 1.30 c0.35 0.75 1.45 4 2.45 7.30 1.05 3.50 2.50 7.05 3.45 8.50 0.95 1.40 2.05 3.45 2.50 4.55 0.40 1.15 1.40 2.95 2.10 4 1 1.50 1.25 2.35 1.05 3.65 -0.25 1.70 0.50 4.65 2.25 8.40 0.50 1.20 0.95 2.35 0.95 2.60 0 0.30 0.90 1.55 2 2.80 1.10 1.25 2 2.60 2 2.90 0 0.35 1.10 1.80 2.45 3.20 1.55 1.60 2.75 3.45 3.25 5 0.75 2.30 4.05 19.90 5.35 28.40 1.25 8.15 0.30 49.20 -1.25 56.30 -0.40 1.80 -1.65 5.95 -2.75 9.25 -1.05 3.25 -2.10 7.10 -2.30 8.45 -0.55 4.25 -2.25 10.35 -3.80 13.55 -1.30 2.75 -2.45 4.10 -7.70 8.70 -0.60 0.50 -1.70 2.20 -2.50 3.80 -1.55 3.15 -2.05 3.75 -10.35 13.10 -3 3.35 -5.40 6.40 -5.40 6.85 0 2 15.15 30.35 27.15 50.75 l4.30 7.25 2.20 -0.15 c1.90 -0.15 2.50 0.05 3.75 1.25 1.25 1.20 1.90 2.85 4.05 10.65 2.75 9.65 3.15 10.60 9.05 21.25 8.40 15.20 14.25 28.45 19.25 43.75 3.15 9.55 3.25 10.65 0.90 12.80 l-1.25 1.15 5.60 14.15 c3.10 7.80 5.75 14.25 5.85 14.35 0.05 0.10 0.55 -0.15 1 -0.55 0.50 -0.40 1.45 -0.90 2.10 -1.05 1.50 -0.35 4.30 0.75 4.95 2 0.25 0.50 0.60 6.10 0.75 12.40 0.20 11.20 0.30 11.75 2.25 20.50 1.10 4.95 2.50 11.80 3.10 15.25 0.55 3.45 1.80 9.65 2.75 13.75 0.95 4.15 2.95 14.60 4.50 23.25 1.55 8.65 3.45 19.15 4.25 23.25 3.90 19.95 3.65 17.40 3.85 38.10 0.20 16.45 0.15 19.45 -0.55 21.80 -1.10 3.75 -1 4.80 0.35 5.30 0.60 0.25 1.55 0.95 2.10 1.55 1.35 1.50 1.15 5.50 -1 18.30 -0.95 5.75 -1.75 11.10 -1.75 11.85 0 0.80 -1 5.15 -2.20 9.75 -2.15 8.20 -2.20 8.55 -2.45 18 l-0.25 9.60 1.60 0 c0.85 0 2.05 0.35 2.65 0.75 1.25 0.85 1.40 1.45 3.70 11.25 1.10 4.80 2.40 8.50 4.30 12.75 5.85 12.75 11.65 28.30 11.65 31.25 0 0.75 -0.45 1.95 -1 2.65 l-1 1.25 1.30 6.95 c2.45 13.25 2.70 14.95 3.30 22.65 0.50 7.10 0.50 7.95 -0.30 9.60 -0.50 1 -0.75 2.25 -0.60 2.75 0.65 2.30 1.40 14.40 1.80 30.40 l0.45 17.50 2 9.50 c1.10 5.25 2.70 12.75 3.55 16.75 2 9.25 1.95 13.20 -0.20 15.45 -0.80 0.85 -2.10 1.65 -2.85 1.80 -0.80 0.20 -2.20 1.10 -3.15 2.05 -2.20 2.20 -4.30 2.30 -6.35 0.25 -0.80 -0.80 -1.55 -1.25 -1.75 -1 -0.15 0.25 -1.20 0.45 -2.40 0.45 -2.35 0 -4.10 -1.25 -4.55 -3.15 -0.90 -4.10 -1.10 -6.60 -0.65 -8.10 0.65 -2.05 -0.65 -12.35 -2.05 -16 -0.85 -2.35 -3.35 -8 -6.25 -14.40 -1.90 -4.15 -8.45 -13.65 -13.85 -20.10 -7.90 -9.50 -9.05 -11.90 -10.75 -22.65 -0.50 -3.10 -1.05 -5.60 -1.30 -5.60 -0.65 0 -2.85 7.90 -4.20 15 -0.65 3.70 -1.90 10.25 -2.70 14.55 l-1.50 7.75 -0.35 43.50 c-0.35 45.65 -0.25 48.25 1.90 60.70 0.55 3.15 1.65 8.25 2.45 11.35 0.85 3.10 1.50 6.35 1.50 7.30 0 1.75 -1.30 3.55 -2.95 4.10 -0.75 0.25 -0.95 0.65 -0.75 1.90 0.10 0.90 0.45 3.30 0.70 5.35 0.25 2.05 0.70 4.90 0.95 6.25 1.70 8.80 2.10 11.90 2.60 19.50 0.35 4.80 0.45 13.30 0.30 19.50 -0.40 16.60 -1.90 23.15 -7.65 33.35 -1.75 3.10 -3.20 5.95 -3.20 6.35 0 0.40 -0.55 1.40 -1.20 2.25 -0.65 0.85 -1.75 2.75 -2.50 4.20 -2.20 4.35 -4.85 6.60 -10.05 8.50 -8.10 2.90 -14.90 4.15 -17.50 3.15 -0.55 -0.20 -1.95 -0.10 -3.25 0.30 -4.30 1.35 -12.05 2.65 -15.75 2.65 -3 0 -3.80 0.15 -4.35 0.90 -1.60 2.30 -2.20 2.35 -20.40 2.30 -16.60 -0.05 -17.35 -0.10 -20.25 -1.20 -1.65 -0.60 -3.20 -1.30 -3.50 -1.50 -0.25 -0.20 -2.05 -0.90 -4 -1.50 -4.45 -1.45 -7.45 -2.95 -10.40 -5.20 -2 -1.50 -2.75 -1.80 -4.90 -1.80 -3.30 0 -5.70 -1.20 -7.55 -3.70 -2.20 -3 -8.55 -15.90 -10.30 -20.90 -1.70 -4.70 -3.10 -12.95 -3.10 -17.90 l0 -3.15 -1.05 0.95 c-1.40 1.30 -4.65 1.25 -5.95 -0.10 -0.55 -0.55 -1.45 -2.55 -1.95 -4.45 -1.45 -5.10 -6.40 -17.70 -7.90 -20 -1.80 -2.75 -8.30 -10.70 -12.55 -15.40 -2.45 -2.70 -3.80 -4.65 -4.35 -6.40 -0.75 -2.25 -1.20 -2.75 -4.30 -4.70 -1.85 -1.25 -4 -2.35 -4.65 -2.55 -0.70 -0.15 -4.90 -0.05 -9.40 0.25 -24.90 1.75 -37.10 4.45 -54.25 12.10 -2.55 1.10 -2.70 1.10 -4.45 0.30 -1 -0.50 -1.90 -1.35 -2.05 -1.85 -0.15 -0.55 -0.60 -1 -1 -1 -1 0 -9.25 3.55 -12.15 5.20 -1.25 0.70 -3.05 1.30 -4 1.30 -2.90 0 -7.80 3.70 -9.60 7.25 l-1.05 1.95 1.85 -1.60 c3.60 -3.15 8.30 -1.40 8.30 3.10 0 0.75 -0.95 2.30 -2.45 4.05 -3.70 4.35 -5.45 7.60 -6.05 11.25 -0.30 1.80 -0.75 10.90 -1 20.25 -0.80 27.95 -2.30 38.40 -6.50 44.15 -2.65 3.70 -14 10.15 -26.50 15.10 -2.35 0.95 -4.80 2.20 -5.55 2.85 -1.85 1.70 -8.15 3.80 -19.55 6.60 -13.40 3.30 -16.65 3.95 -22.90 4.55 -5.45 0.55 -10.25 1.80 -13.10 3.45 -0.90 0.55 -3.55 1.60 -5.90 2.35 -3.60 1.15 -5.25 1.35 -11 1.50 -3.70 0.05 -7.85 -0.05 -9.25 -0.30z m4.20 -16.10 c1.15 -1.30 1.80 -1.60 3.25 -1.55 1.05 0.05 2.25 0.40 2.75 0.85 1.75 1.55 6.55 1.05 13.80 -1.50 14.60 -5.10 16.70 -5.80 21.25 -6.95 2.60 -0.65 9.15 -2 14.55 -2.95 12.55 -2.25 15.90 -3.10 17.45 -4.55 0.80 -0.80 2.50 -1.45 4.80 -1.95 3.65 -0.75 7.10 -2.20 8.05 -3.40 0.25 -0.35 1.70 -5.30 3.15 -11 l2.65 -10.40 -1.05 -3.60 c-1.90 -6.45 -2.60 -12.90 -2.60 -24.55 l0 -10.90 1.30 -1.20 c0.75 -0.70 1.50 -1.25 1.70 -1.25 0.20 0 0.50 -2.65 0.70 -5.85 0.60 -10.65 1.30 -12.65 6.95 -18.55 2.30 -2.40 4.75 -5.35 5.50 -6.60 2.65 -4.60 4.95 -6.10 7.85 -5.05 1.40 0.45 2 0.25 6.40 -2.15 6.20 -3.35 13.20 -6.35 15.65 -6.65 1.05 -0.15 2.55 0 3.35 0.30 1.30 0.55 1.95 0.30 7.65 -2.65 7.60 -3.95 14.50 -6.50 19.45 -7.30 4.95 -0.75 34.60 -1.50 39.75 -1 2.20 0.20 4.65 0.65 5.45 0.95 1.10 0.45 1.80 0.45 3.10 -0.05 1.35 -0.45 2.20 -0.45 4.10 0.05 1.40 0.35 4.45 0.55 7 0.45 4.35 -0.15 4.60 -0.10 5.95 1.25 1.25 1.15 1.85 1.35 4.45 1.35 6.25 0.05 8.70 1.45 8.70 5 0 1.55 -0.30 2.20 -1.60 3.25 -1.35 1.15 -1.95 1.30 -4.60 1.25 -1.70 -0.05 -3.20 -0.05 -3.45 -0.05 -0.20 0.05 0 0.60 0.40 1.25 0.65 1 1.10 1.15 2.90 0.95 2.60 -0.30 4.10 0.75 5.05 3.60 0.60 1.65 1 2.05 2.40 2.35 2.30 0.45 5.05 3.65 9.35 10.80 4.10 6.90 6.95 12.75 8.80 18.30 0.70 2.15 1.90 4.95 2.60 6.15 1.50 2.55 7.05 7.60 16.10 14.55 7.95 6.10 9.65 7.90 11.90 12.40 1 2.05 2.10 3.70 2.45 3.70 2.45 0 4.95 3.15 4.35 5.55 -0.35 1.50 -1.60 2.95 -2.90 3.45 -1.20 0.45 -0.80 0.55 11.25 3.45 10.10 2.45 13.70 3 23 3.50 17.20 1 29.45 -0.50 34.50 -4.20 2.95 -2.15 6.20 -1.40 7.50 1.75 0.35 0.80 0.80 1.50 1.05 1.50 0.25 0 2 -0.80 3.90 -1.75 4.80 -2.40 6.65 -5.45 8.05 -13.20 2.10 -11.70 3.95 -18.10 5.80 -20.10 1.45 -1.55 1.55 -4 0.45 -17.20 -0.40 -5 -0.75 -15.35 -0.75 -23.25 -0.05 -7.85 -0.25 -15.80 -0.50 -17.75 -0.25 -1.90 -0.80 -6.05 -1.25 -9.15 -0.55 -3.95 -0.60 -5.90 -0.25 -6.60 1.05 -1.95 0.60 -9.75 -0.95 -15.90 -2.25 -8.75 -4.90 -23.40 -5.75 -31.60 -0.95 -8.95 -2.30 -38.75 -2.30 -50.80 0 -10.25 0.70 -19.45 1.65 -22.70 0.65 -2.20 0.65 -2.30 -0.75 -3.60 -1.75 -1.65 -1.80 -2.95 -0.20 -9.30 0.65 -2.65 1.45 -6.50 1.75 -8.50 0.65 -4.20 1.85 -7.60 3.60 -10.15 0.90 -1.30 1.65 -3.70 2.60 -8.75 1.45 -7.60 3.60 -20.40 4.10 -24.60 0.45 -3.60 2.15 -5.60 4.75 -5.60 1.10 0 2.40 0.40 3.15 1 0.70 0.55 2 1.15 2.95 1.30 3.15 0.55 4.45 1.30 5.40 3.25 0.55 1.05 1.20 2.05 1.50 2.20 0.30 0.20 1.05 1.15 1.70 2.15 0.65 1.05 2.20 2.90 3.50 4.20 1.25 1.35 2.45 3 2.60 3.75 0.20 0.80 1.75 3.80 3.50 6.80 8.50 14.35 13.40 25.75 19.20 44.40 2.75 9 3 11.15 1.50 13.10 l-1 1.30 2.55 4.80 c1.40 2.65 3.10 6.45 3.80 8.40 1 3.10 1.15 3.30 0.85 1.35 -0.70 -5.20 -2.90 -16.55 -5.50 -28.25 -6.45 -29.10 -8.35 -39.45 -10.75 -58 -1.80 -14.20 -2.40 -24.50 -1.50 -26.20 0.35 -0.60 1.40 -1.45 2.35 -1.85 1.55 -0.65 1.95 -0.65 3.25 0 1.40 0.70 1.50 0.70 1.25 -0.10 -0.15 -0.45 -0.60 -2.30 -1.05 -4.10 -0.45 -1.80 -1.25 -3.95 -1.80 -4.80 -0.50 -0.85 -0.95 -2.35 -0.95 -3.35 0 -0.95 -0.30 -2.85 -0.70 -4.15 -0.40 -1.35 -0.95 -3.70 -1.25 -5.20 -0.70 -3.35 -4.90 -12.15 -8.70 -18.20 l-2.80 -4.45 0.30 -5.40 c0.30 -5.05 0.25 -5.45 -0.80 -6.75 -1 -1.30 -1.10 -1.80 -0.80 -4.95 0.20 -1.90 0.80 -5.05 1.30 -7 0.50 -1.90 0.95 -4.20 0.95 -5.05 l0 -1.55 -2.40 0.25 c-2.25 0.20 -2.50 0.10 -3.80 -1.45 -1.15 -1.35 -1.35 -2 -1.15 -3.45 0.15 -0.95 0.65 -4 1.05 -6.75 1.10 -6.80 1.95 -23.25 1.65 -30.10 -0.20 -4.70 -0.45 -5.80 -1.35 -7.05 -1.05 -1.40 -1.15 -2.15 -1.35 -11.40 -0.10 -5.50 -0.40 -13.55 -0.70 -17.95 -0.25 -4.40 -0.70 -11.70 -0.95 -16.25 -0.25 -4.55 -0.95 -13.95 -1.55 -20.90 l-1.10 -12.60 1.15 -1.60 1.15 -1.55 -0.60 -8.55 c-0.75 -10.55 -2.45 -27.95 -3 -30.30 -0.25 -0.95 -2.35 -7.80 -4.70 -15.25 -2.35 -7.40 -4.75 -14.95 -5.30 -16.75 -1.20 -3.90 -1.25 -3.25 -0.30 3 0.95 6.05 0.95 8.50 0 9.85 -1.70 2.45 -6.15 2.30 -7.45 -0.25 -0.40 -0.75 -1.20 -4.75 -1.80 -8.85 -2.60 -17.90 -4.55 -26.80 -11.65 -53.50 -2.40 -9 -4.60 -15.95 -6.10 -19.50 -3.05 -7.15 -12.40 -25.70 -18.50 -36.75 -9.60 -17.30 -13 -24.80 -12.55 -27.65 0.25 -1.50 0.05 -2.35 -1 -4.15 -0.75 -1.25 -1.40 -2.20 -1.45 -2.10 -0.10 0.10 0.15 1.85 0.50 3.90 1.95 10.80 3.40 20.40 3.35 21.75 -0.10 2.10 -2.10 3.75 -4.55 3.75 -3.70 0 -4.45 -1.90 -6.80 -17.25 -2.25 -14.80 -5.60 -26.70 -10.25 -36.60 -2.55 -5.35 -3.35 -6.65 -9.65 -15.55 -3.45 -4.80 -4.20 -5.55 -5.05 -5.25 -1.65 0.55 -3.75 0.25 -5.20 -0.75 -0.75 -0.55 -4.40 -2.60 -8.10 -4.60 -11.70 -6.35 -20.50 -12.10 -32.75 -21.50 -2.75 -2.10 -8.80 -6.60 -13.50 -10 -15.80 -11.55 -24.25 -19.05 -26.20 -23.30 -0.60 -1.20 -1.25 -2.20 -1.50 -2.20 -1.05 0 -22.65 -3.20 -30.80 -4.55 -11.35 -1.85 -15.40 -2.65 -23.50 -4.55 -6.35 -1.50 -6.70 -1.50 -15.25 -1.20 -18.05 0.70 -33.10 2 -57.75 5.05 -9.10 1.15 -14.50 2.05 -15.45 2.55 -1 0.60 -2.10 0.75 -3.75 0.55 -1.25 -0.15 -4.45 0 -7.05 0.35 l-4.70 0.60 1.75 1.10 c3.20 1.95 3.85 5.25 1.50 7.65 -1.85 1.80 -3.30 1.85 -6.60 0.15 -2.45 -1.30 -2.60 -1.30 -9.35 -1 -3.75 0.20 -8 0.45 -9.40 0.60 -2.20 0.25 -2.70 0.10 -4.05 -1 -0.85 -0.70 -1.75 -1.30 -2.05 -1.30 -1.65 0 -56.10 16.35 -74.35 22.35 -18.70 6.15 -26.15 9.50 -32.60 14.65 -2.55 2 -2.65 2.20 -2.65 4.50 0 2.10 -0.20 2.60 -1.55 3.70 -1.75 1.45 -2.80 1.60 -5.10 0.60 -3.15 -1.30 -4.55 -4.55 -3.45 -7.80 0.55 -1.45 0.30 -1.35 -5.55 2.65 -5.80 3.95 -6.10 4.25 -5.95 5.75 0.20 2.05 -1.05 4.35 -2.75 5 -0.75 0.30 -3.35 1.15 -5.75 1.90 -4.95 1.55 -5.90 2.25 -18.05 12.25 -9.50 7.80 -19.15 17.25 -21.05 20.50 -0.75 1.30 -1.60 3.75 -1.90 5.50 -0.70 3.90 -2.05 5.45 -4.75 5.45 -4.85 -0.05 -5.90 -4.50 -2.90 -12.75 0.40 -1.10 -6.25 5.65 -9.25 9.35 -1.05 1.35 -2.40 3.85 -3.05 5.75 -1.80 5.50 -3.65 9.30 -8.65 17.60 -6.20 10.40 -9.40 16.50 -11 21 -0.75 2 -1.75 4.30 -2.25 5 -1.30 1.85 -11.45 27.35 -13.95 35.05 -3.40 10.60 -6.45 21.10 -7 24.25 -0.30 1.65 -0.80 7.05 -1.10 12 -0.95 16.25 -2.85 33.15 -5.30 47.90 -0.75 4.40 -1.15 8.85 -1.10 11 0.15 3 0 3.85 -0.90 5.10 -1.05 1.45 -1.10 1.75 -0.65 8.75 0.25 4 0.90 11.40 1.45 16.50 0.55 5.10 1 9.40 1 9.55 0 0.15 0.75 1.05 1.65 2 1.35 1.40 1.80 2.50 2.75 6.80 0.65 2.80 1.55 5.60 2.05 6.25 0.55 0.65 1.50 3.55 2.20 6.40 2.40 10 9.45 30.75 12 35.50 0.85 1.50 2.45 4.05 3.55 5.65 4.10 5.85 4.15 5.95 3.05 8.30 l-0.90 2.10 4.15 10.35 c5.35 13.45 9.70 22.90 12.85 28.15 1.40 2.30 2.65 4.70 2.85 5.30 0.45 1.50 -0.90 4.35 -2.45 5.05 l-1.15 0.55 4.10 9.65 c3.90 9.05 10.80 26.75 10.80 27.70 0 0.65 3.85 4.70 4.45 4.70 0.80 0 2.05 2.75 2.05 4.40 0 3 2.45 8.65 14.95 34.10 14.90 30.30 15.05 30.60 15.05 32.30 0 0.75 -0.60 1.90 -1.50 2.80 -1.85 1.85 -1.90 3.50 -0.20 5.55 1.05 1.25 1.25 1.90 1 3.35 -0.15 1 -0.60 7.45 -1.05 14.30 -0.80 13.60 -2.15 29.50 -2.55 30.70 -0.40 1.15 -0.95 21.65 -0.90 32.25 0.05 5.55 0.45 11.90 0.90 15.25 1.20 8.60 3.55 19.35 5 23 l1.30 3.25 -0.25 -4.25 c-0.70 -12.40 -0.85 -25.60 -0.30 -30 0.75 -6 2.85 -10.70 6.40 -14.25 2.35 -2.35 2.55 -2.80 3.85 -7.85 1.30 -5.15 1.35 -5.40 0.60 -7.95 -1.10 -3.70 -1.05 -6.55 0.20 -8.10 1.15 -1.45 3.95 -2.20 5.30 -1.45 0.70 0.40 1.25 0.25 2.35 -0.70 1.65 -1.40 4.10 -1.60 5.70 -0.45 0.55 0.40 2.65 3.05 4.55 5.90 l3.55 5.20 2.50 -0.25 c3.55 -0.30 4.55 0.90 6.30 7.80 2.30 8.90 3.30 12.15 4.65 15.05 0.70 1.55 2.20 5.05 3.35 7.80 2 4.80 2.15 5 3.80 5.30 0.95 0.15 2 0.45 2.35 0.65 1 0.60 1.95 2.90 2.30 5.55 0.65 4.60 4.90 20.50 5.85 21.80 1.05 1.50 2.05 5.50 4.85 19.70 3.50 17.55 4.30 25.75 4.25 41.50 -0.05 9.15 0.05 10.85 1.60 20 3.15 18.75 5.15 37.90 5.40 51.40 l0.10 7.45 -1.40 1.20 c-0.75 0.65 -1.75 1.20 -2.15 1.20 -1.85 0 -0.15 11.65 3.15 21.50 1.65 5 2.20 5.90 5.05 9.05 2.90 3.20 3.35 4.55 2.25 6.80 -0.70 1.55 -0.70 1.75 0.15 3.05 0.50 0.75 2.35 2.85 4.15 4.65 l3.30 3.30 6 1.65 c5.40 1.50 18.50 4.40 20.15 4.45 0.35 0.05 1.25 -0.65 2.05 -1.55z m326.55 -26.80 c0 -0.20 -2.20 -0.65 -4.85 -1.05 -2.70 -0.35 -5.70 -0.80 -6.65 -1.05 -5.25 -1.30 -15.15 -3.50 -17.75 -3.95 -1.65 -0.25 -4.75 -0.80 -6.85 -1.15 -2.15 -0.40 -3.90 -0.65 -3.90 -0.60 0 0.55 5.20 3.25 5.75 3 0.45 -0.15 3 0.65 5.65 1.80 2.65 1.15 5.85 2.35 7.10 2.70 2.50 0.70 21.50 0.95 21.50 0.30z m-224.20 -16.45 c0.45 -1.95 0.90 -7.20 1.05 -12.30 l0.30 -8.85 -1.40 -3.05 c-0.75 -1.70 -1.50 -3.95 -1.60 -5 -0.15 -1.10 -0.35 -1.95 -0.50 -1.95 -0.10 0 -0.85 0.50 -1.65 1.10 -1.45 1.05 -1.50 1.25 -1.50 5 0 3.80 0.05 3.90 1.20 3.90 0.70 0 1.95 0.60 2.85 1.35 l1.60 1.35 -0.35 6.50 c-0.25 5.35 -1.80 15.20 -3.05 19.60 -0.15 0.50 0.30 -0.20 1 -1.65 0.70 -1.40 1.65 -4.10 2.05 -6z m183.15 -7.50 c-0.85 -1.90 -2.25 -4.15 -3.10 -5.10 -1.30 -1.35 -6.60 -5.60 -14.75 -11.75 l-1.25 -1 0.35 2.20 c0.80 5.10 2.95 8.15 8.80 12.50 3 2.20 10.25 6.50 11.10 6.50 0.20 0 -0.30 -1.50 -1.15 -3.35z m-389.20 -184.25 c0.35 -3.75 0.25 -4.40 -0.35 -4.40 -1.25 0 -1.75 1.05 -2.35 5.15 -0.80 5.45 -0.75 6.10 0.60 6.70 1 0.45 1.15 0.35 1.45 -1.30 0.15 -1 0.45 -3.75 0.65 -6.15z m524.75 -49.95 c-0.40 -1.25 -0.30 -2.75 0.30 -5.80 l0.80 -4.10 -3.15 -6 c-1.75 -3.30 -3.20 -5.95 -3.25 -5.90 -0.05 0.05 0.40 2.35 1.05 5.10 0.60 2.75 1.60 7.50 2.20 10.60 0.90 5 1.95 8.40 2.35 8 0.10 -0.10 -0.05 -0.95 -0.30 -1.90z m-22.75 -14.10 c0.25 -0.65 0.15 -0.80 -0.40 -0.60 -0.40 0.20 -0.85 1.15 -1.05 2.15 -0.50 3.10 -0.25 4 0.45 1.60 0.35 -1.25 0.80 -2.65 1 -3.15z m47.80 -7.10 c-0.25 -2.10 -0.75 -4.10 -1.05 -4.45 -0.50 -0.40 -0.55 -0.25 -0.35 0.70 0.15 0.70 0.60 3.15 0.95 5.50 0.80 5.10 1.15 3.75 0.45 -1.75z m-43.55 -3 c0.85 -1.80 1.45 -3.55 1.35 -3.90 -0.25 -0.65 -3.35 5.45 -3.35 6.55 0 1.20 0.45 0.55 2 -2.65z m-541.55 -4.75 c-0.90 -1.60 -1.70 -2.90 -1.75 -2.85 -0.05 0.05 0.65 2.30 1.50 4.95 1.45 4.55 1.55 4.75 1.70 2.85 0.10 -1.50 -0.25 -2.70 -1.45 -4.95z m584.05 -4.30 c0 -2.40 -3.85 -24.70 -4.35 -25.20 -0.45 -0.45 2.55 25.80 3.15 27.50 0.40 1.10 1.20 -0.35 1.20 -2.30z m-581.80 -13.30 c-2.05 -3.95 -4.55 -8.80 -5.60 -10.75 -2.15 -4.35 -3.10 -4.85 -1.30 -0.75 2.55 5.75 9.45 18.60 10.05 18.60 0.30 0 -1.10 -3.20 -3.15 -7.10z m-79.65 -168.45 c-1.95 -8.75 -3.65 -17.25 -5.55 -27.35 -1 -5.55 -2 -9.25 -3 -11.50 -0.95 -2.05 -1.45 -2.75 -1.30 -1.85 2.15 12.55 3.80 20.65 5.80 28.50 3.05 12.10 5.10 19.35 5.35 19.10 0.10 -0.15 -0.50 -3.25 -1.30 -6.90z m639.85 -32.70 c0 -1.90 -0.15 -3.95 -0.40 -4.50 -0.25 -0.60 -0.40 1.80 -0.40 6.25 0.05 5.50 0.15 6.60 0.40 4.50 0.25 -1.50 0.40 -4.30 0.40 -6.25z m-662.35 -101.70 c0.50 -2.55 1.90 -4.60 3.45 -5.15 0.80 -0.25 1.40 -5.35 1.45 -12.45 0.05 -5.45 1.55 -22.35 3.10 -34.45 l1.05 -8.25 -1.15 -0.75 c-2.45 -1.60 -8.40 -6.55 -9.90 -8.25 -0.85 -1 -1.55 -2.35 -1.55 -3 0 -1.60 -0.80 -2 -2.25 -1.05 -1.60 1.05 -4.20 1 -5.60 -0.10 -0.60 -0.45 -1.55 -2.05 -2.10 -3.50 -2.10 -5.35 -3 -6.50 -11.35 -14.15 -12.35 -11.35 -20.15 -20.85 -24.25 -29.65 -1.80 -3.85 -1.65 -5.75 0.50 -7.35 l1.40 -1.05 -3.15 -5.55 c-5.95 -10.45 -9.05 -19.60 -10.15 -29.75 -1 -9.35 -0.45 -19.90 1.45 -27.60 0.50 -2.05 1.15 -5.65 1.50 -8 1.40 -10.45 9.75 -30 18 -42.25 1.30 -1.95 5.20 -6.35 8.60 -9.80 3.35 -3.40 6.70 -6.95 7.35 -7.90 l1.20 -1.65 -1.10 0.35 c-0.65 0.20 -2.35 0.90 -3.80 1.55 -2.15 1 -2.75 1.55 -3 2.75 -0.35 1.55 -0.40 1.60 -9.25 7.85 -7.55 5.35 -16.55 12.45 -20.20 16 -1.60 1.55 -5.20 5.55 -8 8.85 -6.60 7.85 -20.90 23.95 -23.55 26.50 -4.30 4.15 -16 24.90 -20.45 36.30 -2.60 6.65 -3.65 13.15 -3.10 19.15 0.20 1.95 0.40 5.60 0.50 8.05 0.55 14.80 5.10 27.50 14.45 40.40 2 2.75 2.45 3.80 2.45 5.35 -0.05 2.30 1.80 5.20 15.90 25 4.60 6.45 10.65 15.15 13.50 19.25 10.05 14.50 16 22.70 18.70 25.60 1.50 1.65 5.40 4.85 8.65 7.15 3.25 2.30 9.60 7.10 14.15 10.75 10.50 8.35 11.90 9.30 13.30 8.95 1.20 -0.30 3.35 0.60 8.70 3.70 l3.25 1.85 0.35 -5.50 c0.25 -3 0.65 -6.70 0.95 -8.20z m-77.75 -41.85 c-0.40 -1 -14.30 -20.65 -14.90 -21 -0.60 -0.40 2.30 4.30 8.80 14.20 2.95 4.45 5.60 8 5.85 7.80 0.30 -0.15 0.40 -0.60 0.25 -1z m111.65 -44.15 c1.95 -4.80 3.50 -8.95 3.40 -9.25 -0.15 -0.45 -7.35 17.10 -7.35 17.95 0 0.85 0.45 -0.15 3.95 -8.70z m-74.95 -55.80 c0 -0.70 -0.40 -3.45 -0.85 -6.15 -0.75 -4.15 -0.90 -8.10 -0.90 -27.60 0 -12.50 0.15 -25.20 0.35 -28.25 0.20 -3 0.20 -5.15 0.05 -4.75 -0.15 0.40 -0.95 1.45 -1.75 2.30 -1.45 1.55 -1.45 1.55 -0.60 3.30 1.05 2.25 0.65 4.05 -1.25 5.80 -2.40 2.25 -2.70 3.35 -2.35 7.95 l0.35 4.15 -1.60 1.60 -1.60 1.60 0.30 5.80 c0.35 8.20 3.35 20.90 7.40 31.30 1.70 4.30 2.45 5.20 2.45 2.95z m147 -43.45 c4.15 -2.45 13.25 -6.80 14.25 -6.80 0.30 0 4 -2.60 8.25 -5.80 17.95 -13.45 35.75 -24.20 49.75 -29.95 3.15 -1.30 4.75 -1.70 5.80 -1.50 1.75 0.40 3.45 2.45 3.45 4.10 0 1 0.20 1.20 0.90 0.90 0.70 -0.25 13.95 -4.45 38.10 -12 3.15 -0.95 4.85 -1.65 3.75 -1.50 -11.10 1.50 -11.10 1.50 -12.45 0.55 -0.75 -0.45 -1.45 -1.50 -1.65 -2.35 -0.15 -0.85 -0.55 -1.65 -0.90 -1.75 -0.90 -0.35 -12.20 2 -19.15 4.05 -8.05 2.35 -15.20 5.45 -30.35 13.20 -21.60 11.05 -47.60 26.70 -56.80 34.15 -4.40 3.55 -10.60 9.35 -8.70 8.15 0.85 -0.50 3.40 -2.05 5.75 -3.45z m-204.95 -18.35 c6.35 -8.95 13.95 -17.90 23.85 -28.05 5.60 -5.70 5.70 -5.85 4.90 -6.95 -0.45 -0.65 -0.80 -1.70 -0.80 -2.30 0 -0.65 -0.15 -1.15 -0.40 -1.15 -0.20 0 -4.90 4.50 -10.45 9.95 -7.75 7.65 -10.20 10.35 -10.55 11.75 -0.30 1 -1.20 2.65 -2 3.70 -1.75 2.20 -6.45 9.80 -8.30 13.50 -1.45 2.85 -5.80 13.30 -5.80 13.90 0 0.25 1.40 -1.85 3.05 -4.55 1.70 -2.75 4.60 -7.15 6.50 -9.80z m634 6.70 c-0.30 -0.50 -1.15 -1.60 -1.90 -2.45 -0.75 -0.90 -5.55 -6.40 -10.65 -12.25 -5.05 -5.90 -10.45 -11.90 -12 -13.35 -3.90 -3.80 -11.35 -8.65 -18.20 -11.85 l-5.85 -2.75 -1.25 1.50 c-1.05 1.25 -1.65 1.50 -3.45 1.50 -2 0 -2.35 -0.20 -4.85 -2.95 -2.10 -2.35 -3.05 -3 -4.50 -3.20 -1.05 -0.15 -1.90 -0.15 -1.85 0.05 0 0.45 7.75 6.85 13.20 10.95 14 10.55 33.65 24.95 37.40 27.35 3.85 2.50 13.85 8.30 14.25 8.30 0.05 0 -0.10 -0.40 -0.35 -0.85z m9.15 -13.70 c-1 -1.15 -7.10 -5.30 -10.45 -7.15 -2.20 -1.25 -1.75 -0.65 4 4.85 l6.50 6.20 0.40 -1.45 c0.30 -1.15 0.20 -1.75 -0.45 -2.45z m-585.85 -2.30 c-0.15 -0.50 -0.25 -0.10 -0.25 0.85 0 0.95 0.10 1.35 0.25 0.90 0.10 -0.50 0.10 -1.30 0 -1.75z m22.25 -59.60 c3.10 -1.05 4.30 -2.05 3.60 -3.10 -0.45 -0.80 -1.10 -0.50 -4.70 1.85 -3.30 2.20 -4.30 3.10 -2.85 2.60 0.30 -0.15 2.10 -0.75 3.95 -1.35z m645.95 -87.90 c-1.70 -2.15 -3.95 -4.90 -5.10 -6.15 l-2 -2.25 1.55 2.75 c0.85 1.50 2.35 4.25 3.35 6.15 1.75 3.10 2 3.35 3.55 3.35 l1.65 0 -3 -3.85z m-47.85 -39.85 c-0.50 -0.40 -2.95 -2.30 -5.45 -4.25 -5.20 -4.10 -8 -5.65 -19.35 -10.70 l-8.25 -3.65 3.45 4.35 c1.90 2.45 4.85 5.70 6.60 7.30 4.35 4.10 5.85 4.60 21.30 7.55 2.65 0.50 3.05 0.35 1.70 -0.60z"/>
  <path d="M501 837.85 c-0.65 -0.35 -1.55 -1.20 -1.95 -1.95 -0.95 -1.70 -0.30 -6.25 2 -13.75 l1.60 -5.05 -1.10 -1.35 c-1.45 -1.90 -1.40 -4.45 0.20 -6.35 1.80 -2.15 6.80 -19.15 8.05 -27.20 l0.35 -2.35 -3.95 0.30 c-5.80 0.35 -21.45 -0.50 -24.95 -1.40 -1.65 -0.45 -3.85 -1 -4.85 -1.30 -2.90 -0.75 -4.90 -2.70 -4.90 -4.75 0 -1.85 2 -5.95 3.40 -7.05 0.50 -0.35 1.70 -0.65 2.75 -0.65 1.55 0 2.25 -0.35 3.65 -1.80 1.60 -1.70 1.80 -1.80 3.80 -1.45 1.20 0.20 3.15 0.30 4.30 0.25 1.90 -0.05 2.40 0.20 3.95 1.80 2 2.15 5.05 3.80 8.55 4.75 3.65 0.90 13.55 -0.50 23.95 -3.40 4.05 -1.10 4.85 -1.20 6.15 -0.65 0.85 0.35 1.75 1.05 2.05 1.55 0.60 1.15 1.55 1.20 6.85 0.15 3.60 -0.75 4.25 -1 4.85 -2.20 0.90 -1.70 2.55 -2.35 7 -2.70 4.15 -0.35 11.75 -1.80 18.85 -3.60 2.85 -0.70 6.30 -1.50 7.75 -1.75 3.35 -0.60 14.10 -3.65 17.65 -5.05 1.50 -0.55 4.40 -1.95 6.40 -3.05 3.25 -1.75 3.90 -1.90 5.90 -1.60 1.90 0.25 3.10 0 7.85 -1.80 8.05 -3 9.20 -3.65 9.60 -5.40 0.45 -2.05 1.75 -3.05 4.65 -3.50 2.75 -0.45 5.55 -2.30 7.85 -5.35 1.65 -2.15 4.10 -3.30 6.20 -2.90 1.30 0.25 2.10 -0.10 5.55 -2.55 2.20 -1.60 4.60 -3.65 5.25 -4.55 0.80 -1 2 -1.85 3.15 -2.20 2.50 -0.65 6.35 -5.30 7.40 -8.85 1.15 -4 3.75 -5.55 6.85 -4.10 0.70 0.30 1.55 1.10 1.90 1.75 0.35 0.65 1.05 1.20 1.55 1.20 1.70 0 3.75 1.40 4.60 3.20 1.05 2.20 1 2.55 -0.40 5.55 -0.80 1.80 -2.95 4.25 -7.55 8.70 -7.55 7.30 -12.30 11.10 -18.05 14.65 -3 1.85 -4.15 2.80 -3.95 3.30 0.70 1.85 0.85 6.60 0.25 7.35 -0.35 0.40 -0.50 1.25 -0.30 1.90 0.15 0.65 2.70 5.45 5.70 10.70 6.95 12.25 10.75 20.55 10.80 23.80 0.05 2.15 -0.15 2.60 -1.65 3.95 -1.55 1.35 -1.95 1.50 -4.35 1.30 -2.05 -0.20 -3.55 -0.80 -6.70 -2.70 -3.75 -2.20 -4.40 -2.45 -7.15 -2.45 l-3.05 0 -4.05 -5.30 c-3.55 -4.75 -7.55 -9.35 -18.70 -21.70 -1.75 -1.90 -3.35 -3.55 -3.60 -3.65 -0.20 -0.10 -4.25 1.40 -8.90 3.35 -14.90 6.20 -27.80 10.40 -42.30 13.75 -10.90 2.55 -27.15 5.30 -31.10 5.30 -1.45 0 -1.65 0.15 -1.65 1.25 0 3.15 -6.25 28.25 -7.85 31.35 -0.80 1.60 -2.10 2.40 -3.85 2.40 -1.10 0 -2.15 1.10 -6.20 6.65 -6.60 8.85 -9 12.45 -9.40 14.05 -0.40 1.60 -2.90 3.80 -4.35 3.80 -0.60 0 -1.65 -0.30 -2.35 -0.65z m21 -41.15 c0.60 -2.45 1.75 -7.20 2.50 -10.55 l1.35 -6.15 -3.10 0 -3.10 0 -1 5 -1 4.95 1.15 1.10 c1.80 1.70 1.85 3.05 0.20 8.10 -0.80 2.60 -1.50 4.85 -1.50 5 0 0.20 0.75 -0.45 1.65 -1.35 1.35 -1.35 1.95 -2.60 2.85 -6.10z m129.35 -25.25 c-3.60 -6.35 -7.80 -14.05 -10.50 -19 l-1.80 -3.30 -5.25 2.05 c-5.05 1.95 -5.20 2.10 -4.15 2.80 1.40 0.95 2.10 1.75 4.85 5.25 3.95 5.10 6.15 7.30 6.85 7 1.70 -0.60 3.40 0.60 7.95 5.85 2.65 3 4.90 5.35 5 5.25 0.15 -0.10 -1.20 -2.80 -2.95 -5.90z"/>
  <path d="M533.75 664.20 c-2.20 -0.10 -8.25 -0.50 -13.50 -0.90 -15.55 -1.20 -22.05 -1.45 -23.20 -0.80 -1.40 0.75 -34.35 -0.70 -39.55 -1.75 -7.90 -1.60 -18 -5.75 -25 -10.30 -7.05 -4.65 -14.25 -13.10 -20 -23.65 -1.20 -2.15 -3.40 -5.55 -4.85 -7.50 -2.95 -3.85 -4.15 -5.95 -5.15 -9.05 -0.35 -1.10 -3.95 -7.85 -8.05 -15.05 -4.05 -7.15 -8.15 -14.65 -9.15 -16.60 -4.60 -9.15 -7.15 -18.05 -8.75 -30.50 -0.85 -6.45 -1.35 -8.90 -2.55 -11.60 -3.75 -8.55 -5 -19.65 -4.05 -36.70 0.55 -10.50 0.90 -14.15 2.80 -28.05 0.45 -3.30 1 -8.45 1.25 -11.50 0.35 -4.25 0.70 -5.75 1.50 -6.85 0.90 -1.20 2.50 -5.35 2.50 -6.50 0 -0.15 -0.85 -0.20 -1.85 -0.05 -1.45 0.20 -2.25 0 -3.25 -0.80 -2 -1.60 -2.20 -3.70 -0.75 -7.60 1.40 -3.65 7.65 -16.35 9.60 -19.45 1.55 -2.40 1.55 -2.45 0 -3.95 -2.55 -2.40 -1.40 -5.45 5.40 -14.30 4.75 -6.20 31.75 -34.85 38.75 -41.15 4.05 -3.60 8.70 -6.50 16.70 -10.35 5.15 -2.50 6.90 -2.65 8.60 -0.80 0.75 0.85 1.15 0.80 8.20 -0.80 8.85 -2.10 9.60 -2.35 9.60 -3.60 0 -1.20 2.75 -3.55 4.15 -3.55 0.60 0 1.85 0.20 2.75 0.45 1.10 0.35 4.40 0.25 10 -0.25 4.60 -0.40 11.95 -0.70 16.35 -0.65 4.40 0.10 10.80 -0.15 14.25 -0.50 4.30 -0.45 10.90 -0.60 21.25 -0.40 13.05 0.20 15.55 0.35 19 1.25 6.80 1.75 10 3.45 14.75 7.90 1.40 1.30 2.55 1.80 5.65 2.45 9.80 2 17.30 5.60 31.35 15 5.40 3.55 12.60 8.30 16 10.50 4.80 3.05 7.80 5.45 13 10.50 3.70 3.60 8.45 7.80 10.50 9.35 2.05 1.55 5.75 4.65 8.25 6.90 2.45 2.25 5.10 4.50 5.85 5.05 l1.40 1 0 -1.65 c0 -3.35 2.75 -5.40 5.85 -4.35 2.15 0.70 4.20 3.75 9.75 14.45 2.30 4.55 5.55 10.40 7.15 13 7.75 12.65 9.65 17.25 11.75 28.50 0.60 3.15 1.85 8.10 2.75 11 2.55 8.15 4.60 19.15 6.50 35.75 0.60 5.10 0.65 7.65 0.25 12 -0.75 7.75 -2.25 17.45 -4.30 27.15 -3.95 18.85 -3.85 18.25 -2.85 20.40 0.75 1.50 0.80 2.30 0.25 6.45 -0.35 2.60 -1 5.80 -1.55 7.10 -3.25 8.20 -4.90 11.65 -8.10 17.20 -2 3.40 -5.15 9.65 -7.05 13.90 -1.85 4.25 -4 8.60 -4.75 9.65 -3.25 4.70 -8.45 8.05 -17.90 11.55 -3.30 1.20 -8.90 3.65 -12.50 5.45 -8.95 4.50 -14.80 6.75 -23 8.95 -3.85 1 -8.85 2.55 -11.05 3.35 -5.60 2.10 -14.55 4.25 -26.45 6.35 -5.50 0.95 -10.30 1.85 -10.60 2 -0.35 0.10 -0.65 0.65 -0.65 1.15 0 2.55 -4.15 4.30 -12.15 5.05 -5.65 0.55 -24.90 1 -31.10 0.75z m14.65 -11.80 l4.10 -0.55 0 -2.15 c0 -4.45 4.30 -6.50 7.75 -3.75 1.30 1 1.85 1.10 4.25 0.80 7.40 -0.80 10.55 -1.90 27.90 -9.70 11.90 -5.35 15.40 -6.80 24.85 -10.15 9.30 -3.30 10.30 -3.40 12.25 -1.50 2 2.05 2 4.15 0.05 6.15 -0.80 0.80 -1.40 1.45 -1.35 1.45 0.10 0 1.65 -0.70 3.50 -1.50 1.80 -0.85 7.30 -2.85 12.15 -4.45 4.90 -1.65 10.50 -3.85 12.40 -4.90 3.35 -1.85 3.50 -2 3.80 -4.10 0.20 -1.45 0.65 -2.45 1.50 -3.10 1.05 -0.85 0.90 -0.85 -1.30 0.10 -1.35 0.60 -3.95 1.20 -5.75 1.35 -3.25 0.20 -3.35 0.20 -4.70 -1.45 -2.70 -3.20 -0.70 -7 4.05 -7.65 3.10 -0.40 8.90 -3.35 14.15 -7.20 5.55 -4.10 13.65 -11.30 15.25 -13.60 0.75 -1.10 1.85 -4.15 2.75 -7.75 1.75 -6.80 1.75 -7.10 0.70 -9.20 -0.75 -1.55 -0.70 -2 2 -12.95 5.30 -21.65 5.75 -25.75 4.85 -41.80 -0.30 -6.10 -0.80 -16.10 -1.05 -22.30 -0.40 -9.95 -0.80 -14.25 -1.75 -19.80 -0.20 -1.30 -0.60 -1.65 -2.25 -2.15 -2.55 -0.75 -3.10 -1.70 -10.55 -18.45 -3.30 -7.35 -7 -15.15 -8.30 -17.35 -7.95 -13.80 -23.45 -29.65 -35.05 -35.95 -7.30 -4 -21.35 -12.40 -23.90 -14.30 -1.35 -1.05 -3.95 -3.15 -5.75 -4.70 -5.10 -4.55 -10.65 -8 -21.80 -13.55 -5.70 -2.90 -11.20 -5.70 -12.15 -6.25 -0.95 -0.55 -2.60 -1 -3.65 -1 l-1.95 0 3.70 4.15 c6.60 7.30 7.05 8.40 4.60 11.30 -1.05 1.25 -1.65 1.55 -3.30 1.55 -2.25 0 -1.65 0.50 -10.05 -8.65 -4.40 -4.80 -5.10 -5.35 -6.60 -5.35 -3.35 0 -5.05 -1.50 -5.35 -4.75 l-0.15 -1.50 -13.75 -2.35 c-7.55 -1.25 -16.55 -2.65 -20 -3.10 -8 -1.05 -23.55 -1.10 -26.35 -0.10 -1.05 0.35 -7 1.85 -13.15 3.25 -16.05 3.70 -24.40 5.85 -27.65 7.05 l-2.85 1.05 1.10 1.45 c0.80 1.10 0.95 1.85 0.75 3.25 -0.50 3 -1.70 3.80 -6.95 4.50 -1.45 0.20 -3 0.85 -4.15 1.75 -1.05 0.80 -2.70 1.60 -3.70 1.80 -3.35 0.60 -10.05 6.35 -10.05 8.65 0 1.90 -1.60 3.80 -4.15 5 -1.15 0.50 -2.90 1.80 -3.90 2.85 -2.50 2.65 -12.80 15.95 -13.70 17.65 -3 5.85 -7.70 29.20 -9.20 45.75 -0.50 5.45 -0.50 5.50 0.70 6.60 1.90 1.75 2 3.30 0.55 6.95 -0.70 1.80 -1.30 4.20 -1.30 5.40 0 1.15 -0.35 2.80 -0.80 3.60 -2.30 4.35 -4 21.80 -3.55 37 0.85 29.05 5.10 47.35 13 56.15 3.35 3.65 3.75 4.85 2.60 7.30 -0.85 1.80 -0.85 1.85 0.85 5.95 1.70 3.95 1.80 4.10 3.30 3.95 0.85 -0.10 2.20 0.20 3 0.60 2.05 1.05 2.65 3 2.05 7 -0.25 1.95 -0.25 3.75 0 4.45 1.10 2.90 8.75 13.75 13.35 18.95 1.20 1.35 2.50 3.20 2.90 4.15 0.55 1.30 2.20 2.65 7.40 6.15 11.95 8 21.70 13.20 29.25 15.60 l3.55 1.15 1.60 -1.55 c2.30 -2.30 4.35 -2.20 7.20 0.40 2.70 2.50 6.95 3.65 17.45 4.65 6.30 0.60 7.60 0.90 8.55 1.80 2.10 1.95 7 2.45 25.30 2.50 10.25 0.05 18.35 -0.15 20.90 -0.55z m-101.20 -5.60 c-3.35 -1.75 -8.25 -4.55 -11 -6.25 -5.15 -3.25 -5.10 -2.45 0.05 1.20 3.25 2.30 6.30 3.95 12.25 6.55 5.85 2.60 5.30 2 -1.30 -1.50z m160.95 -5.75 c0.85 -0.85 -0.65 -0.65 -3 0.45 -1.20 0.50 -2.15 1.05 -2.15 1.20 0 0.40 4.60 -1.10 5.15 -1.65z m13.30 -5.10 c1.95 -1.10 1.75 -1.05 -2.45 0.30 -1.50 0.45 -2.95 1.05 -3.20 1.25 -0.80 0.75 3.80 -0.50 5.65 -1.55z m-238.75 -194.90 c0.15 -0.70 0.40 -2.30 0.55 -3.55 l0.30 -2.25 -1.25 2.90 c-1.95 4.50 -2 4.80 -0.85 4.50 0.55 -0.15 1.10 -0.80 1.25 -1.60z"/>
  <path d="M548.80 598.15 c-0.20 -0.20 -6.15 -0.40 -13.20 -0.45 -7.80 0 -15.80 -0.35 -20.35 -0.85 -4.10 -0.45 -10.55 -0.95 -14.25 -1.10 -8.20 -0.40 -12.60 -1.25 -16.90 -3.25 -11.15 -5.20 -24.50 -19.55 -34.25 -36.80 -6.90 -12.25 -7.90 -14.55 -11.05 -26.70 -3.30 -12.55 -3.40 -19.30 -0.50 -31.60 1.05 -4.45 2.10 -6.95 6.15 -14.90 5.75 -11.25 9.65 -17.05 15 -22.15 6.80 -6.45 12.30 -9.65 21.10 -12.10 2.60 -0.75 7.65 -2.55 11.20 -4 10.35 -4.25 10.50 -4.25 22.70 -4.25 13.55 0 23.25 0.70 26.80 1.95 1.50 0.55 3.70 1.65 4.90 2.55 1.70 1.20 3.35 1.80 6.90 2.50 8 1.55 14.45 4.05 18.75 7.30 15.10 11.40 20.25 15.55 22.60 18.15 2.45 2.70 5.10 7.30 6.95 11.95 1 2.70 2.65 6.55 3.65 8.60 2.25 4.60 3.20 7.40 4.50 13.50 0.55 2.60 1.50 6.90 2.10 9.50 0.95 4.15 1.10 6.30 1.10 17 0 13.95 -0.55 18.55 -3.55 27.65 -3.65 11.10 -11.45 20.80 -20 24.90 -1.30 0.60 -4.10 2.35 -6.25 3.80 -5.10 3.55 -12.25 6.90 -17.40 8.15 -4.30 1 -15.90 1.45 -16.70 0.65z m-57.60 -13.35 c-1.95 -0.60 -3.85 -1.30 -4.25 -1.55 -0.55 -0.30 -0.55 -0.25 -0.10 0.25 0.70 0.75 5.50 2.45 6.90 2.45 0.55 0 -0.60 -0.50 -2.55 -1.15z"/>
  <path d="M777.60 330.40 c-1.30 -1.45 -1.80 -3.35 -1.20 -4.95 0.30 -0.70 2.55 -2.90 5.05 -4.95 2.50 -2 4.55 -3.70 4.55 -3.75 0 -0.05 -0.35 -0.80 -0.80 -1.70 -0.60 -1.20 -0.65 -1.90 -0.30 -3 0.75 -2.20 5.80 -9.50 12.05 -17.50 7.25 -9.20 11.55 -15.55 14.25 -20.95 2.30 -4.60 7.10 -16.95 7.65 -19.70 0.50 -2.60 1.95 -5.60 3.55 -7.45 2.35 -2.75 4.50 -6.95 5.05 -10.20 0.35 -1.65 0.70 -5.75 0.90 -9.10 0.30 -5.70 0.25 -6.15 -0.80 -7.40 -1.35 -1.80 -1.35 -3.80 0.15 -6.40 0.65 -1.15 1.45 -3.75 1.75 -5.75 0.65 -4.05 1.50 -6.15 3.35 -8.15 0.90 -0.90 1.50 -2.65 2.25 -6.25 1 -4.60 1.30 -11.65 1.45 -30.60 0 -0.35 0.60 -1.20 1.30 -1.85 1.75 -1.65 4.20 -1.65 6.05 -0.05 1.35 1.15 1.40 1.30 1.70 8.35 0.45 9.10 -0.20 20 -1.55 26.30 -0.60 2.70 -1.20 5.55 -1.35 6.30 -0.15 0.80 0 1.95 0.35 2.60 0.50 0.90 0.55 3.05 0.35 8.60 -0.35 8.95 -1.80 15.70 -5.05 23.80 -1.25 3.10 -2.60 7.20 -3.05 9.10 -1.70 7.55 -5.95 19.70 -9 25.75 -1.30 2.60 -3.35 4.50 -4.80 4.50 -0.60 0 -1.30 0.75 -1.95 2 -1.10 2.10 -1.25 2.70 -0.60 2.30 0.75 -0.45 3.60 1.65 4.15 3.05 0.25 0.75 0.35 1.90 0.20 2.55 -0.45 1.85 -10.45 16.60 -14.70 21.70 -2.15 2.55 -5.70 6.35 -7.85 8.40 -3.95 3.75 -14.85 13.05 -17.20 14.65 -1.80 1.25 -4.60 1.10 -5.90 -0.25z"/>
 </g>
</svg>