<svg preserveAspectRatio="xMidYMid meet" viewBox="64.45676274944567 49.403999999999996 771.3325942350333 1005.264" xmlns="http://www.w3.org/2000/svg" version="1.0" style="max-height: 500px" width="771.3325942350333" height="1005.264">
 <g fill="#f7c78c">
  <path d="M404.50 1050.70 c-9.30 -1.35 -14.25 -2.80 -21.25 -6.30 -8.95 -4.45 -17 -11.45 -22.35 -19.50 -3.85 -5.70 -7.10 -12.35 -8.10 -16.50 -0.30 -1.20 -0.15 -1.40 0.80 -1.40 1.35 0 5 5.25 8.35 12.05 2.90 5.80 6.35 10.35 10.40 13.70 3.75 3.10 11.65 7.25 13.85 7.25 0.80 0 3.45 0.80 5.90 1.80 11.50 4.60 20.50 5.55 28.40 2.95 2.35 -0.75 5.35 -1.95 6.65 -2.65 1.35 -0.65 3.80 -1.55 5.50 -1.90 3.95 -0.85 11 -0.95 10.75 -0.15 -0.30 0.90 -6 4.20 -10.55 6.10 -9 3.75 -20.75 5.60 -28.35 4.55z"/>
  <path d="M398.75 1034.50 c-5.80 -1.15 -12.15 -2.75 -16.15 -4.05 -2.85 -0.95 -3.50 -1.45 -6.40 -4.85 -2.80 -3.30 -3.20 -4 -3.20 -5.85 0 -1.10 0.25 -2.30 0.55 -2.60 0.40 -0.40 0 -1.20 -1.70 -3 -1.20 -1.30 -2.60 -3.15 -3.10 -4.10 -2.25 -4.40 -4.50 -13.05 -5.25 -20.10 -0.70 -6.65 -0.70 -6.60 1.15 -7.45 2.45 -1.15 2.85 -2.50 2.55 -8.25 -0.80 -14.65 -2.45 -29.30 -4.80 -43 -1.45 -8.15 -1.60 -10.10 -1.65 -20.25 -0.10 -15.10 -0.80 -22.05 -3.85 -37.25 -2.30 -11.65 -3.35 -15.80 -4.65 -18.50 -1.10 -2.30 -3.90 -12.90 -5.25 -19.90 -0.70 -3.40 -1.90 -4.85 -4 -4.85 -1.20 0 -1.65 -0.30 -2 -1.35 -0.30 -0.80 -0.70 -1.85 -0.95 -2.40 -0.25 -0.55 -0.80 -1.80 -1.20 -2.75 -0.40 -0.95 -1.30 -3 -1.95 -4.50 -2.10 -4.70 -2.35 -5.55 -4.05 -12.35 -2.15 -8.55 -2.60 -9.15 -6.05 -9.15 l-2.65 0 -3.15 -4.80 c-1.75 -2.60 -3.65 -5.10 -4.20 -5.50 -0.90 -0.60 -1.15 -0.55 -2.40 0.65 -1.20 1.15 -1.65 1.25 -3.60 1 -2 -0.30 -2.35 -0.20 -3.25 0.95 -0.90 1.15 -0.95 1.40 -0.25 3.60 1 3.35 0.85 5.90 -0.55 11.10 -1.05 4.10 -1.50 4.90 -3.65 7.20 -1.35 1.45 -2.85 3.35 -3.30 4.20 -0.80 1.55 -2.75 2.30 -2.60 0.95 0.05 -0.55 -6.25 -6.35 -6.95 -6.35 -0.15 0 -0.25 0.35 -0.25 0.75 0 0.40 -0.35 0.75 -0.75 0.75 -0.70 0 -0.80 -1.30 -0.70 -9.85 0 -5.55 0.45 -13.75 0.95 -18.65 0.85 -8.10 1.40 -15.35 2.45 -31.75 0.40 -5.90 0.35 -6.60 -0.50 -7.85 -1.45 -2.10 -1.30 -6 0.30 -7.60 1.20 -1.25 1.25 -1.35 0.50 -2.75 -0.40 -0.85 -0.75 -1.75 -0.75 -2 0 -0.30 -5.15 -10.85 -11.40 -23.40 -12.40 -24.90 -13.35 -26.95 -14.15 -31.35 -0.45 -2.65 -0.85 -3.30 -3.20 -5.60 -2.10 -2.10 -2.85 -3.30 -3.75 -6.05 -1.45 -4.25 -8.45 -21.85 -10.75 -26.95 -2.20 -4.85 -2.25 -6.75 -0.20 -8.60 l1.55 -1.35 -2.65 -4.50 c-5.05 -8.55 -15.45 -33.50 -15.45 -37.05 0 -1.20 0.25 -2.30 0.50 -2.45 0.80 -0.50 0.65 -0.85 -1.75 -4 -1.25 -1.65 -3.15 -4.75 -4.20 -6.85 -2.15 -4.20 -8.20 -21.95 -10.50 -30.85 -0.80 -3 -1.80 -6 -2.25 -6.60 -0.40 -0.65 -1.25 -3.30 -1.85 -5.90 -0.90 -3.75 -1.40 -5.10 -2.50 -6.10 -1.35 -1.25 -1.45 -1.70 -2.45 -10.75 -1.45 -13.15 -1.90 -24.40 -0.95 -25.50 0.45 -0.55 0.80 -2.70 1 -5.65 0.20 -2.65 0.90 -8.55 1.65 -13.10 1.80 -11.50 3.15 -23.75 4.05 -36.95 0.45 -6.20 1 -12.50 1.25 -14 0.55 -3.45 6.35 -22.75 8.70 -28.90 4.50 -11.80 9.55 -23.95 10.60 -25.45 0.60 -0.95 1.30 -2.40 1.50 -3.30 0.50 -2.30 5.20 -11.60 9.50 -18.70 4.70 -7.75 6.85 -12 8.45 -16.60 1.45 -4.25 2.50 -5.80 7.70 -11.20 3.20 -3.35 3.95 -3.85 5.45 -3.85 1.70 0 1.70 0.05 1.50 1.90 -0.15 1 -0.55 2.90 -0.90 4.15 -0.80 2.70 -0.40 4.70 1.10 5.50 0.95 0.50 1.25 0.40 2.15 -0.70 0.65 -0.70 1.25 -2.30 1.45 -3.65 0.70 -5.40 5.45 -10.85 19.55 -22.65 12.25 -10.20 13.15 -10.80 18.65 -12.55 5.90 -1.90 6.60 -2.45 6.60 -5.30 l0 -2.10 5.20 -3.55 c6.65 -4.55 8.95 -4.70 8.75 -0.70 -0.15 2.45 1.05 4.50 2.85 4.95 1.85 0.50 3.10 -0.90 3.30 -3.75 0.15 -2.20 0.20 -2.30 1.85 -2.45 1.50 -0.15 1.65 -0.10 1.10 0.60 -0.90 1.05 -0.40 1.65 1.75 2.05 1 0.15 3.50 0.95 5.50 1.75 l3.75 1.40 7.60 -5.10 c8.05 -5.45 14.40 -9.30 19.50 -11.85 4.30 -2.15 13.35 -7.95 13.35 -8.55 0 -0.30 -0.35 -0.40 -0.75 -0.20 -0.50 0.15 -0.75 -0.05 -0.75 -0.65 0 -0.70 0.65 -1.20 2.15 -1.75 5.20 -1.90 32.65 -9.80 34.15 -9.80 1.80 0 2.75 0.80 1.35 1.10 -0.50 0.10 3.40 0.35 8.60 0.55 5.25 0.20 10.65 0.60 12 0.90 1.40 0.30 11.85 0.70 23.25 0.95 22.05 0.45 24.90 0.70 35.75 3.30 1.65 0.35 6.95 0.90 11.75 1.20 11 0.60 16.15 1.50 23.75 4.10 3.30 1.10 8.80 2.55 12.25 3.20 21.50 3.95 26.20 5.30 42.50 11.85 5.10 2.05 11.50 4.60 14.25 5.60 2.75 1.05 6.05 2.40 7.40 3.05 1.30 0.70 2.35 1.05 2.35 0.90 0 -0.20 0.30 -0.10 0.65 0.20 0.30 0.30 3.10 1.90 6.10 3.60 3.05 1.75 7.80 4.65 10.55 6.55 2.80 1.85 7.80 4.75 11.15 6.40 7.05 3.50 11.55 6.45 19.05 12.45 2.95 2.40 8.15 6.25 11.50 8.55 7.50 5.20 13.30 10.30 18.90 16.55 2.35 2.60 5.85 6.55 7.80 8.70 2.50 2.85 3.60 3.75 3.70 3.15 0.30 -1.60 1.55 -0.90 1.85 1.05 1.45 8.20 2.30 11.40 3.30 12.20 1.20 1.05 2.90 0.45 3.30 -1.15 0.25 -0.95 2.15 -1.35 2.15 -0.45 0 0.25 2.35 3.40 5.20 6.95 10.35 12.90 14.60 22 19.80 42.30 3.35 13.15 4.40 26.80 3.50 46.35 -0.55 12.15 -0.55 12.80 0.45 16.65 1.60 6.45 2.60 13.80 3.80 28.75 0.15 2.05 0.85 6.70 1.50 10.25 1.50 7.95 2.10 15.40 2.50 28.75 0.15 5.65 0.60 12.95 1 16.25 0.40 3.30 0.95 8.60 1.25 11.75 0.30 3.15 1.05 8.80 1.65 12.50 1.05 6.30 1.10 8.05 0.90 27 -0.10 11.15 -0.25 28.25 -0.25 38 l-0.05 17.75 1.55 0.75 c2.85 1.45 10 7.35 13.05 10.85 5.70 6.50 9.35 12.90 12.05 21.15 2.20 6.70 2.75 10.30 2.75 17.75 0 9.20 -1.45 16.20 -5.05 23.90 -2.05 4.35 -2.85 4.75 -4.70 2.30 -2.35 -3.10 -3.20 -3.80 -5.20 -4.10 -1.15 -0.20 -2.65 -0.80 -3.35 -1.35 -2.60 -2.05 -3.90 -0.15 -4.85 7 -0.70 5.40 -3.95 23.50 -4.30 24.10 -0.50 0.85 -1.80 0.40 -1.60 -0.50 0.25 -0.80 -0.15 -0.70 -2.50 0.55 l-2.70 1.50 0.30 2.25 c0.15 1.25 0.30 2.85 0.30 3.55 0.05 1.10 0.10 1.20 0.55 0.45 1.90 -3.30 1.70 3.20 -0.35 11.75 l-1.25 5 1.30 1.35 c1.45 1.50 1.55 2.70 0.45 6.50 -1.75 6.05 -1.40 43.60 0.60 63 0.90 8.55 2.60 18.30 4.75 27 1.45 5.70 1.60 7.10 1.75 16 0.10 5.35 0.40 11.10 0.70 12.75 0.35 1.65 0.70 7.35 0.85 12.65 0.20 8.55 0.15 9.60 -0.55 9.60 -0.45 0 -0.80 -0.40 -0.85 -0.85 0 -0.75 -0.05 -0.75 -0.40 0.10 -0.25 0.55 -0.55 3.80 -0.75 7.25 -0.50 8.90 -1.20 15.65 -2.10 20.15 -0.90 4.65 -3.30 11.85 -4.70 14.20 -0.55 0.95 -1 1.90 -1 2.20 0 0.70 -3.80 6.85 -6 9.70 -2.90 3.70 -4.15 5.05 -5.10 5.40 -0.50 0.15 -0.90 0.60 -0.90 0.95 -0.05 0.60 -5 4.90 -5.65 4.90 -0.15 0 -0.85 0.55 -1.55 1.25 l-1.25 1.25 1.20 -0.30 c1.80 -0.45 1.65 1 -0.10 1.70 -3 1.20 -7.80 1.60 -18.15 1.60 -10.65 0 -19.80 -0.55 -23.75 -1.50 -5.80 -1.35 -15.25 -3.60 -16.85 -4.05 -1.70 -0.45 -1.90 -0.65 -1.90 -2.15 0 -1.35 0.25 -1.75 1.15 -2 0.60 -0.15 1.40 -0.75 1.80 -1.40 0.60 -1 0.55 -1.20 -0.65 -2.25 -0.75 -0.65 -1.80 -1.15 -2.30 -1.15 -0.65 0 -1.30 -0.85 -2.15 -2.60 -2.05 -4.45 -3.90 -6.45 -10.90 -11.85 -13.20 -10.25 -15.30 -12.50 -17.35 -18.80 -2.55 -7.55 -9.55 -20.45 -13.50 -24.85 -1.05 -1.15 -2.30 -2 -3.35 -2.20 -1.35 -0.25 -1.70 -0.60 -1.95 -1.85 -0.50 -2.50 -1.65 -3.35 -4.35 -3.35 -2.75 0 -3.45 -0.75 -3.45 -3.75 l0 -1.80 3.25 0.15 c2.75 0.10 3.40 -0.05 4.30 -0.95 1.35 -1.30 0.90 -2.85 -0.95 -3.55 -0.75 -0.30 -3.05 -0.70 -5.10 -0.90 -2.55 -0.20 -3.90 -0.60 -4.30 -1.15 -0.55 -0.75 -2.85 -1 -12.45 -1.50 -0.25 0 -1.45 0.10 -2.55 0.25 -2.30 0.35 -4.20 -0.40 -4.20 -1.65 0 -0.50 0.30 -0.70 0.95 -0.50 0.80 0.20 0.90 0.05 0.60 -0.60 -0.25 -0.45 -1.20 -2.50 -2.20 -4.60 l-1.80 -3.85 -2.90 0.75 c-2 0.55 -5.85 0.80 -12.30 0.90 l-9.45 0.10 -2.95 3.05 c-3.05 3.20 -3.50 4.10 -2.20 4.10 0.40 0 0.75 0.30 0.75 0.70 0 0.45 -1.10 0.75 -3.85 1 -5.15 0.45 -11.45 2.60 -19.50 6.65 -6.45 3.20 -6.75 3.30 -9.50 3 -2.60 -0.25 -3.35 -0.10 -7.15 1.50 -2.35 1 -6.25 2.95 -8.70 4.30 -4.10 2.25 -4.70 2.45 -6.80 2.15 -1.95 -0.25 -2.50 -0.15 -3.25 0.70 -0.50 0.55 -1.45 1 -2.10 1 -1 0 -1.15 -0.20 -0.90 -1 0.25 -0.85 0.10 -1 -1.15 -1 -2.40 0 -10.50 -2.25 -15 -4.15 -2.80 -1.20 -4.20 -1.60 -4.35 -1.20 -0.50 1.90 -7.10 21.75 -9.20 27.85 -1.35 4 -3.20 10 -4.05 13.40 l-1.55 6.10 0.80 12.15 c0.85 13 0.70 17.40 -0.85 24.85 -1 4.75 -3.70 12.35 -5.45 15.20 -1.15 1.90 -1.25 3 -0.20 2.60 0.50 -0.20 0.75 0.05 0.75 0.70 0 0.70 -0.45 1.05 -1.85 1.25 -12.60 2.15 -18.10 3.65 -34.55 9.50 -6.60 2.30 -12.60 2.90 -15.05 1.45 l-1.65 -0.95 -1.15 1.40 c-1.45 1.65 -3.70 1.75 -10.50 0.35z m84.70 -246.80 c0.60 -0.75 1.05 -1.60 1.05 -1.95 0 -0.65 5.35 -8.45 9.90 -14.50 2.25 -2.90 3.05 -3.60 4.85 -4.15 1.30 -0.35 2.45 -1.05 2.80 -1.70 0.85 -1.55 4.65 -15.80 6.25 -23.25 0.75 -3.55 1.40 -6.45 1.45 -6.55 0.05 -0.05 3.45 -0.55 7.55 -1.10 19.40 -2.55 39.75 -8.10 59.05 -16.05 5.25 -2.15 10.20 -3.95 11.05 -3.95 1.25 0 2.50 1.15 9.40 8.80 4.40 4.85 9.75 11.25 12 14.15 l4 5.30 2.65 -0.15 c2.10 -0.15 2.95 0.05 4.50 1.05 2.45 1.60 6.85 3.85 7.65 3.85 1.05 0 2.90 -2.15 2.90 -3.35 0 -1.90 -4.40 -11.20 -9.95 -20.90 -4.95 -8.75 -5.10 -9.05 -4.85 -11.50 0.15 -1.35 0.30 -2.85 0.35 -3.25 0.05 -0.40 -0.10 -2 -0.30 -3.55 l-0.35 -2.85 3.15 -1.85 c8.85 -5.15 24.95 -20 24.95 -23 0 -1.20 -2.05 -3.20 -3.65 -3.50 -0.85 -0.20 -2.15 -1.05 -2.90 -1.90 -1.05 -1.25 -1.40 -1.40 -2.30 -0.95 -0.55 0.30 -1.30 1.30 -1.60 2.20 -1.40 3.75 -2.15 5 -4.10 7.15 -1.15 1.25 -2.50 2.25 -3.05 2.25 -0.55 0 -1.95 1 -3.10 2.20 -1.10 1.20 -3.50 3.25 -5.25 4.50 -2.65 1.95 -3.55 2.30 -5.40 2.30 -2.15 0 -2.50 0.25 -5.95 3.50 -2.95 2.75 -4 3.50 -5.25 3.50 -2.30 0 -4.30 1.25 -4.90 3.15 -0.65 1.90 -0.85 2 -8.45 4.90 -3.45 1.35 -5.90 1.95 -7.60 1.95 -1.95 0 -3.45 0.45 -6.45 1.95 -4.35 2.20 -11 4.45 -17.80 6.05 -2.45 0.60 -6.20 1.50 -8.25 2 -5.75 1.45 -15.85 3.40 -19.75 3.75 -3.70 0.35 -4.75 0.85 -5.65 2.50 -0.40 0.80 -1.55 1.25 -5 1.90 -5.80 1.10 -7.85 1.10 -8.70 -0.05 -1.15 -1.60 -1.75 -1.65 -6.50 -0.40 -11.60 3 -21.50 3.55 -25.80 1.35 -1.10 -0.55 -2.40 -1.05 -2.80 -1.05 -0.40 0 -0.90 -0.45 -1.05 -1 -0.50 -1.55 -2.25 -2.40 -5 -2.50 -3.65 -0.15 -3.70 -0.10 -4.35 1.25 -0.45 1.05 -0.90 1.25 -2.65 1.25 -2.25 0 -3.30 0.80 -5.05 3.90 -0.90 1.60 -0.90 1.60 0.10 2.65 2.70 2.70 17.45 4.85 28.60 4.25 l5.60 -0.35 0 2.35 c0 5.10 -5.10 24.05 -7.35 27.35 l-1.30 1.85 1.05 1.15 c1.45 1.50 1.40 3.35 -0.15 7.90 -1.90 5.50 -2.70 9.65 -2.10 10.75 1.15 2.05 2.40 2.20 3.80 0.40z m-23.20 -144.70 c10.85 -2.60 13.50 -3.15 24.75 -5 18 -2.95 32 -5.90 28.40 -6 -0.50 0 -0.90 -0.35 -0.90 -0.75 0 -0.65 1.30 -0.75 8.65 -0.75 14.50 0 23.55 -1.25 25.60 -3.50 1.05 -1.15 2.85 -1.40 2.45 -0.30 -0.20 0.55 0.80 0.70 5.45 0.75 3.70 0.05 5.90 -0.10 6.10 -0.45 0.20 -0.30 0.80 -0.40 1.40 -0.20 3.60 1.15 14.10 -1.45 18.60 -4.60 3.05 -2.10 9.10 -5.30 12.25 -6.50 0.95 -0.35 1.35 -0.65 0.90 -0.65 -0.55 -0.05 -0.90 -0.45 -0.90 -1 0 -0.95 1.70 -1.55 4.30 -1.55 0.65 0 1.20 -0.15 1.20 -0.40 0 -0.50 3.65 -1.60 5.25 -1.60 1.55 0 1.55 0.30 0.15 1.55 -1 0.80 -1 0.90 -0.25 0.95 0.45 0 0.85 -0.20 0.85 -0.45 0 -0.20 3.75 -0.35 8.40 -0.30 8 0.10 13.90 0.95 18.60 2.60 0.70 0.25 3.95 0.35 7.30 0.25 l6.05 -0.20 0.30 -6.80 c0.45 -8.75 0.35 -18.50 -0.15 -20.10 -0.20 -0.70 -0.40 -0.95 -0.45 -0.60 -0.05 0.30 -0.25 0.60 -0.55 0.60 -1.95 0 1.85 -9.95 7.55 -19.55 1.85 -3.20 3.80 -6.80 4.25 -8 0.45 -1.20 1.30 -3.30 1.95 -4.70 2.40 -5.30 2.50 -5.85 2.15 -16 -0.15 -3.65 0 -4.35 2.80 -17.80 2.45 -11.85 3.95 -22.45 3.95 -28.20 -0.05 -8.55 -4.05 -32.35 -6.45 -38.15 -0.35 -0.90 -1.35 -5 -2.20 -9.10 -2.30 -11.45 -3.45 -14.20 -10.95 -26.50 -1.45 -2.35 -4.40 -7.75 -6.60 -12 -4.50 -8.80 -7 -12.50 -8.45 -12.50 -1.20 0 -2.50 1.85 -2.50 3.60 0 1.30 -0.15 1.40 -1.85 1.40 -2.20 -0.05 -2.10 0.05 -7.90 -5.25 -2.40 -2.20 -5.95 -5.20 -7.95 -6.70 -1.95 -1.45 -6.25 -5.30 -9.55 -8.50 -4 -3.90 -7.60 -6.85 -10.75 -8.80 -2.60 -1.65 -9.15 -5.95 -14.55 -9.55 -13.05 -8.70 -22.20 -13.05 -29.35 -14 -2.30 -0.30 -3.15 -0.75 -5.75 -3.05 -3.60 -3.10 -7.75 -5.25 -12.65 -6.50 -4.40 -1.10 -25 -1.15 -47.95 -0.20 -8.50 0.40 -18.20 0.75 -21.50 0.85 -5.45 0.15 -6.05 0.25 -6.85 1.25 -0.50 0.55 -0.90 1.45 -0.90 1.90 0 0.65 -1.70 1.20 -7.90 2.70 -8.65 2.05 -10.20 2.20 -11.10 1.10 -1.10 -1.30 -2.55 -0.85 -9.90 3.05 l-7.10 3.85 -11.45 11.55 c-18.85 19.05 -25.90 26.90 -30.75 34.20 l-2.40 3.65 1.30 1.40 c1.75 1.80 1.65 3.35 -0.50 7.15 -2.55 4.50 -7.05 13.50 -8.25 16.50 -0.90 2.30 -0.90 2.60 -0.20 3.70 0.60 0.95 1.20 1.20 3 1.20 l2.25 0 0 2.20 c0 2.50 -0.75 4.95 -2.10 6.90 -0.65 0.95 -1.05 2.85 -1.40 6.50 -0.25 2.85 -0.80 7.75 -1.25 10.90 -3.95 29.15 -3.55 45.10 1.45 56.10 0.80 1.80 1.45 4.75 2 9.40 1.05 8.25 2.70 15.55 5 21.40 2.10 5.45 3.45 8.15 9.50 18.80 3 5.25 4.80 9 4.80 9.85 0 1.45 -0.70 1.95 -1.15 0.85 -0.15 -0.35 -0.30 0.60 -0.30 2.10 -0.05 2.85 1.50 9.50 5 21.60 2.75 9.65 4.65 14.90 7.45 20.65 2.35 4.80 2.85 5.45 12 14.85 5.25 5.40 10 10 10.60 10.20 2.05 0.65 13.15 1.10 22.15 0.95 8.50 -0.15 9.45 -0.30 17.50 -2.25z"/>
  <path d="M493 760.15 c0 -0.75 0.60 -3.20 1.35 -5.50 l1.35 -4.10 -1.10 -1.20 c-1.35 -1.40 -1.35 -3.05 -0.20 -8.85 l0.90 -4.25 4.35 -0.15 4.35 -0.15 0 1.50 c0 1.85 -1.05 6.95 -3.10 15.05 -1.35 5.35 -1.75 6.45 -3.10 7.60 -1 0.85 -2.15 1.35 -3.15 1.40 -1.45 0 -1.65 -0.15 -1.65 -1.35z"/>
  <path d="M614.65 733.15 c-1.60 -1.80 -3.50 -4 -4.20 -4.80 -0.95 -1.10 -1.90 -1.60 -3.45 -1.80 -2.10 -0.30 -2.40 -0.60 -6.10 -5.30 -2.15 -2.75 -4.35 -5.20 -4.90 -5.45 -0.75 -0.35 -1 -0.95 -1 -2.25 l0 -1.85 4.65 -1.85 c2.55 -1 5.35 -1.85 6.15 -1.85 1.45 0 1.70 0.35 4.15 4.95 1.40 2.75 4.50 8.30 6.80 12.40 3.25 5.65 4.25 7.85 4.25 9.30 0 1.80 -0.05 1.85 -1.70 1.85 -1.50 0 -2.10 -0.45 -4.65 -3.35z"/>
  <path d="M642.55 564.70 c0.45 -0.50 0.45 -0.90 0.10 -1.10 -0.75 -0.50 -2.05 -15.15 -2.40 -27.35 -0.25 -7.90 -0.60 -12.05 -1.50 -16.80 -0.65 -3.45 -1.55 -10.80 -2 -16.25 -0.60 -7.20 -1.20 -11.55 -2.25 -15.70 -2.40 -9.45 -3.10 -15.25 -3.15 -25.75 0 -5.20 0.30 -13.20 0.60 -17.75 0.35 -4.55 0.45 -9.80 0.30 -11.75 l-0.35 -3.50 -5.85 -6 c-3.25 -3.30 -7.10 -7.45 -8.60 -9.25 -1.50 -1.75 -3.25 -3.90 -3.95 -4.70 -0.70 -0.75 -2.95 -2.55 -5 -3.95 -2.05 -1.35 -6.15 -4.35 -9.10 -6.65 -2.95 -2.30 -6.55 -4.75 -8 -5.50 -4.40 -2.20 -9.35 -5.15 -15.25 -9 -6.40 -4.25 -5.60 -3.85 -19.65 -9.40 -11.35 -4.50 -10.35 -4.25 -34.25 -8.80 -2.75 -0.55 -7.05 -1.55 -9.50 -2.30 -2.50 -0.75 -5.60 -1.45 -7 -1.55 -8.45 -0.65 -17.70 -1.80 -22.25 -2.85 -4.95 -1.15 -6.30 -1.20 -25 -1.35 l-19.75 -0.20 -4.50 2.45 c-2.45 1.35 -4.90 2.80 -5.40 3.25 -0.85 0.70 -0.90 0.65 -0.80 -1.55 0.10 -1.30 -0.15 -2.65 -0.50 -3.10 -0.35 -0.40 -0.55 -1.50 -0.45 -2.40 0.15 -1.60 0.30 -1.70 4.15 -2.95 2.20 -0.75 10.55 -2.85 18.50 -4.70 8 -1.85 15.40 -3.65 16.50 -4.05 2.45 -0.85 20.20 -0.95 26.10 -0.15 6.70 0.90 31.25 4.95 31.70 5.25 0.25 0.15 0.45 0.70 0.45 1.20 0 2.60 2.05 4.50 4.95 4.50 1.35 0 4.70 3.10 11.20 10.40 1.05 1.15 2.20 2.10 2.55 2.10 0.75 0 2.30 -1.60 2.30 -2.35 0 -0.30 -1.90 -2.70 -4.25 -5.35 -3.45 -3.85 -4.25 -5.05 -4.25 -6.35 l0 -1.55 3.85 0.35 c2.40 0.20 4.40 0.70 5.15 1.25 0.70 0.50 5.55 3.05 10.85 5.65 10.85 5.40 13.30 6.95 20.45 12.95 4.65 3.90 14.40 10.10 25.45 16.15 11.80 6.50 26.65 22.10 33.60 35.25 1.10 2.05 3.50 7.25 5.40 11.50 7.75 17.60 8.55 19 10.95 19 0.65 0 1.30 0.30 1.45 0.65 1.20 3.10 3.20 38.45 3 52.35 -0.15 8.50 -0.80 12.70 -4.20 26.60 -1.95 8.10 -2.40 10.55 -2 11.35 0.85 1.60 0.65 4.75 -0.75 10.20 -1.45 5.80 -1.80 6.50 -3.85 8.75 -1.05 1.10 -2 1.60 -3 1.60 -1.30 0 -1.40 -0.10 -0.80 -0.80z"/>
  <path d="M380.85 540.65 c-2.75 -6.10 -4.80 -15.05 -6.15 -26.40 -1.05 -8.85 -1.50 -31.40 -0.75 -38.85 0.75 -7.65 1.95 -14.40 2.75 -15.65 0.35 -0.55 0.75 -2.25 0.90 -3.75 0.10 -1.50 0.65 -3.60 1.15 -4.65 l0.90 -1.90 -1.35 -1.40 -1.35 -1.40 0.55 -6.45 c0.95 -11.15 2.70 -21.90 5.30 -32.45 2.55 -10.20 2.80 -10.70 11.90 -22 4.60 -5.75 4.85 -5.95 7.65 -7.30 2.35 -1.10 3.15 -2.15 3.20 -4.30 0.05 -1.95 5.75 -6.90 9.15 -7.90 1.40 -0.40 2.95 -1.20 3.50 -1.70 1.90 -1.80 9.30 -2.80 9.30 -1.30 0 0.40 -0.25 0.75 -0.55 0.75 -0.25 0 -1.85 0.90 -3.45 2 -1.65 1.10 -3.50 2.20 -4.15 2.45 -0.90 0.35 -3 4.05 -9.20 16.15 -7.75 15.10 -8.15 15.95 -10.60 24.60 -2.25 7.95 -2.75 10.60 -4.55 24.50 -1.10 8.55 -2.45 18 -3 21 -0.55 3 -1.55 9.90 -2.25 15.25 -0.70 5.40 -1.85 13.65 -2.50 18.30 -2.15 15 -2.70 22.75 -2.80 39.40 l-0.10 15.85 -1.10 0 c-0.85 0 -1.40 -0.60 -2.40 -2.85z"/>
  <path d="M368.50 429.75 c0 -0.95 0.50 -2.95 1.15 -4.50 1.05 -2.55 1.20 -2.75 2.80 -2.75 l1.70 0 -0.30 4.05 c-0.20 2.20 -0.45 4.20 -0.60 4.50 -0.20 0.25 -1.30 0.45 -2.55 0.45 -2.20 0 -2.20 0 -2.20 -1.75z"/>
  <path d="M689.50 1005.35 c-0.95 -0.35 -1.90 -0.70 -2.15 -0.70 -2.30 -0.40 -3.35 -0.85 -3.35 -1.45 0 -0.85 2.40 -0.95 4.70 -0.20 0.85 0.25 2.40 0.60 3.45 0.75 1.40 0.25 1.85 0.55 1.85 1.25 0 1.20 -1.75 1.30 -4.50 0.35z"/>
  <path d="M664.85 989.50 c-4.10 -2.10 -10.05 -6.25 -12.05 -8.55 -1.85 -2 -3.10 -5.45 -3.65 -9.80 l-0.30 -2.65 1.70 0 c1.65 0 6.05 3.10 14.90 10.35 2.45 2.05 5.55 7.95 5.55 10.60 0 1.40 -0.15 1.55 -1.60 1.55 -0.90 -0.05 -2.95 -0.70 -4.55 -1.50z"/>
  <path d="M642.25 978.45 c-0.30 -0.70 -1.95 -1.65 -4.50 -2.70 -7.75 -3.10 -14.05 -7.50 -20.65 -14.55 -9.60 -10.20 -14.75 -22 -16.20 -37.35 -0.55 -5.50 -0.75 -6.55 -1.50 -6.75 -0.50 -0.10 -0.90 -0.55 -0.90 -0.90 0 -0.50 0.75 -0.70 2.80 -0.70 2.35 0 3.30 0.30 6.30 2.10 1.90 1.15 3.60 2.45 3.75 2.85 0.90 2.95 2.30 5.20 5.15 8.30 4.10 4.40 10.65 12.60 11.70 14.65 1.35 2.60 5.30 13.15 6.35 16.85 0.90 3.35 1.90 4.75 3.25 4.75 0.35 0 0.80 -0.20 0.95 -0.50 0.15 -0.25 1.10 -0.50 2.05 -0.50 1.65 0 1.70 0.05 1.70 2.15 0 1.15 0.35 4.15 0.75 6.60 0.40 2.50 0.75 5 0.75 5.65 0 1.40 -1.10 1.45 -1.75 0.05z"/>
  <path d="M343.80 910.90 c-0.15 -0.90 -0.40 -2.60 -0.50 -3.75 -0.35 -2.65 -0.80 -4.65 -1.45 -5.90 -0.30 -0.55 -0.55 -1.55 -0.65 -2.25 -0.05 -0.70 -0.80 -4.40 -1.60 -8.25 -0.85 -3.85 -1.85 -9 -2.30 -11.50 -0.40 -2.45 -1.35 -6.30 -2.05 -8.50 -0.70 -2.20 -3.05 -11.20 -5.25 -20.05 -5.10 -20.40 -6.35 -24.40 -7.90 -24.60 -0.65 -0.10 -1.25 0.15 -1.40 0.60 -0.15 0.45 -0.50 0.80 -0.75 0.80 -0.50 0 -0.60 -3.60 -0.15 -7.35 0.35 -2.60 0.40 -2.65 1.95 -2.65 1.45 0 1.70 0.20 2.50 2.40 0.50 1.30 2.90 6.90 5.30 12.45 5.95 13.60 7.70 20.20 9.70 35.90 0.45 3.60 1.70 11 2.75 16.50 3.30 16.80 4.40 27.75 2.75 27.75 -0.40 0 -0.80 -0.65 -0.95 -1.60z"/>
  <path d="M312.50 824.75 c0 -0.90 -1.80 -1.95 -2.25 -1.25 -0.15 0.25 -0.15 0.75 0 1 0.15 0.30 -0.15 0.50 -0.70 0.50 -1.25 0 -1.30 -0.65 -0.50 -6.35 0.75 -5.85 0.65 -5.65 3.55 -5.65 l2.55 0 -0.30 4.65 c-0.40 5.90 -0.80 7.85 -1.65 7.85 -0.40 0 -0.70 -0.35 -0.70 -0.75z"/>
  <path d="M277 792.50 c0 -0.60 -0.40 -1.75 -0.85 -2.65 -0.45 -0.90 -0.90 -1.80 -0.95 -2.10 -0.05 -0.25 -0.45 -1.75 -0.90 -3.25 -1.70 -5.95 -2.45 -12.10 -2.30 -19.75 0.15 -11 0.15 -11.25 0.60 -11.25 0.20 0 0.40 -0.55 0.40 -1.25 0 -0.90 0.25 -1.25 0.95 -1.25 1 0 1.30 1.30 4.30 16.90 1.30 6.85 1.55 12.30 0.95 21 -0.30 4.05 -0.45 4.60 -1.25 4.60 -0.60 0 -0.95 -0.35 -0.95 -1z"/>
  <path d="M279.35 749.95 c-0.75 -2.20 -1.35 -4.80 -1.35 -5.75 0 -1.60 0.10 -1.70 1.65 -1.70 1.50 0 1.75 0.25 3 2.75 1 2.10 1.35 3.50 1.35 5.75 l0 3 -1.65 0 c-1.65 0 -1.70 -0.05 -3 -4.05z"/>
  <path d="M283.40 737.40 c-2.50 -3.80 -3.80 -8.40 -2.40 -8.40 0.30 0 0.50 0.25 0.50 0.50 0 0.30 0.20 0.50 0.50 0.50 0.30 0 0.30 -0.45 0 -1.25 -0.40 -1.10 -0.35 -1.25 0.65 -1.25 1.60 0 4.85 6 4.85 8.95 0 2 -0.05 2.05 -1.70 2.05 -1.20 0 -1.90 -0.30 -2.40 -1.10z"/>
  <path d="M208.05 566.95 c-0.50 -2.35 -2.35 -6.95 -2.75 -6.95 -0.10 0 -0.10 0.45 0.05 1 0.20 0.70 0 1 -0.50 1 -0.45 0 -0.90 -0.20 -1.05 -0.45 -0.40 -0.65 -4.30 -22 -4.30 -23.60 0 -1.30 0.15 -1.45 1.65 -1.45 1.60 0 1.75 0.15 3 3.20 0.70 1.75 2 7 2.85 11.60 0.85 4.65 1.85 9.85 2.25 11.60 0.95 4.10 0.95 6.60 0.05 6.60 -0.45 0 -0.90 -0.95 -1.25 -2.55z"/>
  <path d="M187.65 494.65 c-1.40 -0.25 -1.45 -0.60 -0.25 -1.45 0.75 -0.55 0.85 -1.65 0.90 -8.85 l0.10 -8.20 -1.70 -0.90 c-2.15 -1.15 -2.15 -1.75 0 -1.75 1.10 0 2.15 0.45 3.20 1.40 1.35 1.25 1.55 1.85 2.35 7 0.65 4.50 0.70 6.30 0.30 9.05 -0.30 1.95 -0.55 3.60 -0.55 3.75 0 0.35 -2.60 0.30 -4.35 -0.05z"/>
  <path d="M189.25 456.40 c0.20 -1.75 0.45 -4.35 0.55 -5.80 0.45 -8.05 3.90 -20.60 5.60 -20.60 0.60 0 0.65 1.55 0.40 8.65 -0.45 11.45 -0.55 11.95 -2.25 12.90 -1.40 0.85 -2.55 3.80 -2.55 6.65 0 1 -0.25 1.30 -1.05 1.30 -1.05 0 -1.05 -0.15 -0.70 -3.10z"/>
  <path d="M215.50 383.85 c0 -1.50 2.75 -9.25 5.55 -15.70 1.05 -2.45 1.30 -2.65 2.80 -2.65 1.55 0 1.65 0.10 1.65 1.75 0 1 -1.45 5.35 -3.30 10 l-3.30 8.25 -1.70 0 c-1.60 0 -1.70 -0.10 -1.70 -1.65z"/>
  <path d="M222.30 350.55 c0.80 -1.10 1.65 -2.05 1.85 -2.05 0.25 0 0.35 0.85 0.25 1.90 -0.15 1.70 -0.30 1.85 -1.85 2 l-1.65 0.15 1.40 -2z"/>
  <path d="M244 319.05 c0 -0.85 5.80 -8.35 9.05 -11.70 1.75 -1.85 3.90 -4.15 4.80 -5.20 l1.60 -1.90 0.05 1.90 c0 1 -0.20 1.85 -0.45 1.85 -0.25 0 -0.65 0.45 -0.80 1 -0.15 0.55 -0.65 1 -1.05 1 -0.40 0 -0.70 0.40 -0.75 0.90 0 0.45 -1.30 2.65 -2.85 4.80 -2.50 3.45 -3.95 4.85 -6.45 6.10 -0.35 0.15 -0.65 0.60 -0.65 1 0 0.40 -0.50 0.70 -1.25 0.70 -0.70 0 -1.25 -0.20 -1.25 -0.45z"/>
  <path d="M278.50 288.90 c0 -1.25 0.55 -2.05 3.10 -4.35 7.35 -6.70 12.20 -10.05 14.45 -10.05 1.10 0 1.10 0.05 0.20 1 -0.90 1 -0.90 1 1.25 0.25 1.20 -0.40 2.40 -0.95 2.70 -1.20 0.30 -0.20 0.90 -0.40 1.30 -0.40 0.40 0 1.75 -0.30 2.95 -0.60 1.15 -0.35 2.30 -0.50 2.45 -0.35 0.15 0.15 0.55 0.05 0.95 -0.25 0.50 -0.45 0.65 -0.30 0.65 0.85 -0.05 2 -4.15 4.95 -11.30 8.10 -3 1.35 -7.75 3.80 -10.55 5.50 -3.30 2 -5.65 3.10 -6.65 3.10 -1.35 0 -1.50 -0.15 -1.50 -1.60z"/>
 </g>
 <g fill="#000000">
  <path d="M405.30 1047.50 c-4.30 -0.70 -9.95 -2.30 -14.85 -4.30 -2.40 -0.95 -4.95 -1.70 -5.75 -1.70 -2.20 0 -10.10 -4.15 -13.85 -7.25 -4.15 -3.45 -7.55 -7.95 -10.70 -14.25 -1.30 -2.60 -3.75 -6.80 -5.50 -9.35 -2.45 -3.65 -3.45 -5.80 -4.90 -10.25 -2.95 -9.30 -5.30 -23.45 -6.75 -40.70 -0.45 -5.85 0.15 -28.70 0.80 -29.80 0.15 -0.25 0.25 -5.20 0.25 -11.05 0 -12.05 -0.65 -17.75 -3.55 -32.60 -1.05 -5.50 -2.30 -12.90 -2.75 -16.50 -2 -15.70 -3.75 -22.30 -9.70 -35.90 -2.40 -5.55 -4.85 -11.20 -5.35 -12.60 -0.50 -1.35 -1 -2.15 -1.05 -1.75 -0.10 0.40 -0.70 5.15 -1.35 10.50 -0.70 5.35 -1.85 14.20 -2.60 19.70 -1.50 10.95 -1.95 12.05 -5.15 12.75 l-1.75 0.35 -1.40 10.95 c-0.75 6.05 -1.55 12.20 -1.70 13.70 -0.45 3.60 -2.10 5.55 -4.70 5.55 -1.05 0 -2.10 0.25 -2.25 0.50 -0.15 0.30 -1.25 0.50 -2.45 0.50 -3.20 0 -4.25 -1.40 -4.85 -6.35 -1.15 -9.60 -8.25 -34.55 -10.55 -37.05 -1.55 -1.70 -3.15 -5.50 -4.15 -9.85 -1.65 -7.05 -2.60 -30.65 -1.80 -43.25 1.35 -20.15 1.35 -19.75 -0.65 -30.50 -3.30 -17.45 -2.85 -16.20 -16.20 -43.75 -3.85 -7.95 -8.85 -19 -11.10 -24.50 -8.65 -21.10 -10.15 -24.55 -13.05 -30.45 -1.70 -3.30 -3.20 -6.25 -3.45 -6.55 -0.65 -0.80 -9.15 -18 -11.95 -24.10 -3.35 -7.45 -6.10 -14.30 -8 -20.35 -2.35 -7.35 -12.30 -42.30 -14.30 -50.30 -3.45 -13.75 -6.85 -34.75 -7.80 -48 -0.55 -8.20 -0.60 -8.30 -3.10 -14.45 -1.40 -3.40 -2.50 -6.85 -2.50 -7.70 0 -2 2.25 -4 4.20 -3.75 1.30 0.20 1.45 0.10 1.75 -1.90 0.50 -3.30 0.45 -4.15 -0.25 -9.10 -0.60 -4.10 -0.85 -4.80 -2.15 -5.85 -0.80 -0.70 -2.40 -1.45 -3.55 -1.75 -8.45 -2.15 -16.90 -7.25 -32.30 -19.50 -3.10 -2.45 -5.85 -4.50 -6.15 -4.50 -0.25 0 -1.75 -1.10 -3.30 -2.45 -1.55 -1.30 -4.25 -3.35 -6 -4.50 -1.70 -1.15 -3.85 -2.75 -4.75 -3.55 -1.35 -1.15 -2.05 -1.40 -3.95 -1.35 -4.05 0.15 -8.10 -3.85 -17.05 -16.80 -12.20 -17.65 -16.75 -25.80 -25.35 -45.10 -2.85 -6.30 -6.15 -13.75 -7.40 -16.50 -6.55 -14.65 -9.60 -28.15 -9.75 -43.25 -0.10 -7.60 0.55 -10.75 2.60 -12.80 1.05 -1.10 1.60 -1.25 3.30 -1.05 l2.05 0.20 0.60 -4.05 c1.80 -11.65 4.65 -22.70 6.60 -25.40 0.55 -0.75 1 -2.20 1 -3.25 0.05 -4.70 4.20 -12.70 10.25 -19.80 4.10 -4.80 16.75 -17.55 25.60 -25.75 5.45 -5.05 6.85 -6.10 8.15 -6.10 0.85 0 1.95 0.25 2.45 0.60 0.80 0.50 1.30 0.25 3.65 -1.85 3.25 -2.95 9.20 -6.95 17.40 -11.75 3.45 -2 9.35 -5.65 13.15 -8.10 3.80 -2.50 7.65 -4.70 8.60 -4.95 2.05 -0.60 4.90 0.40 5.75 2 0.40 0.75 1 1.05 2.30 1.05 2.55 0 4.30 1.90 4.15 4.50 -0.15 1.60 0.05 2.10 1.20 3 3.10 2.45 0.95 7.65 -5.10 12.45 -4 3.10 -4.05 3.20 -4.05 5.40 0 1.80 -0.25 2.45 -1.30 3.30 -5.85 4.90 -6.10 5.30 -9.70 14.70 -1.95 5.15 -2.10 5.75 -1.60 7.70 0.60 2.35 0.10 3.90 -1.85 5.65 -1.50 1.35 -1.90 4.90 -0.80 7.35 0.85 1.85 0.85 2.10 0.15 3.65 -0.45 0.90 -1.45 1.90 -2.30 2.25 l-1.50 0.65 -0.35 12.10 c-0.55 18.55 -0.10 35.35 1.20 42.30 1.20 6.60 1.30 8.65 0.45 9.95 -0.50 0.80 -0.35 1.55 0.75 4.15 2.05 4.65 10.65 20.15 13.30 23.85 6.85 9.55 11.45 15.40 15.80 19.95 4.45 4.65 9.45 8.55 9.90 7.70 0.15 -0.20 0.60 -1.60 1.10 -3.10 0.50 -1.50 1.75 -5 2.75 -7.75 1.45 -3.85 2.15 -6.80 2.95 -12.75 0.60 -4.25 1.80 -10.55 2.60 -14 2.45 -10 8.35 -24.65 10.50 -26.20 1.70 -1.15 3.80 -1 5.20 0.45 1.70 1.65 1.60 3.40 -0.45 7.85 -3.10 6.85 -7.80 20.65 -7.80 23 0 0.25 1.10 -0.40 2.45 -1.35 1.65 -1.20 3.15 -2.90 4.60 -5.40 3.10 -5.30 7.50 -11.80 12.70 -18.85 2.50 -3.45 5.60 -7.70 6.80 -9.45 1.20 -1.80 2.90 -3.60 3.70 -4.05 0.85 -0.45 2.90 -2.85 4.60 -5.30 5.30 -7.55 15.15 -19.65 20.90 -25.60 9.20 -9.55 15.45 -14.10 36.50 -26.70 13.45 -8.05 17.25 -10.15 30.85 -16.95 14.25 -7.15 17.65 -8.60 25.80 -11 11.50 -3.35 20.70 -4.80 39.85 -6.20 5.80 -0.45 14.80 -1.20 20 -1.75 5.25 -0.50 11.65 -1.10 14.25 -1.25 2.60 -0.20 9.15 -1.25 14.50 -2.30 18 -3.65 57.25 -10.40 63.80 -10.95 3.55 -0.35 7.20 -0.95 8.15 -1.35 1.55 -0.70 1.85 -0.70 3.40 0.05 1.30 0.65 3.35 0.80 9.30 0.80 22.30 0.05 41.55 3.05 64.95 10.30 8.10 2.45 10.40 2.85 10.40 1.65 0 -0.65 2.75 -1.95 4.10 -1.95 1.70 0 6.35 2.35 13.55 6.90 5 3.10 7.20 4.20 10 4.85 2 0.50 6 1.65 9 2.60 4.60 1.45 5.45 1.90 6.10 3.15 0.40 0.80 0.75 1.95 0.75 2.60 0 0.95 0.65 1.40 3.40 2.60 20.75 9.05 31.85 16.25 38.25 24.80 l2.25 2.95 8.50 -12.65 c4.70 -7 9.70 -15.10 11.20 -18.05 l2.65 -5.40 0.15 -9.05 c0.20 -9.30 -0.45 -15.25 -1.75 -16.55 -2.50 -2.50 -1.50 -5.95 2.20 -7.50 l1.65 -0.70 0 -5.50 c0 -4.35 -0.25 -6.45 -1.25 -9.90 -0.65 -2.40 -1.80 -8.60 -2.45 -13.75 -0.95 -7.20 -1.70 -10.70 -3.25 -15.50 -1.10 -3.35 -2.45 -7.80 -3 -9.80 -0.55 -2 -1.45 -4.25 -1.95 -5 -0.95 -1.30 -5.80 -6.05 -12.70 -12.45 -1.85 -1.70 -3.50 -3.70 -3.70 -4.45 -0.55 -2.25 0.30 -3.85 2.70 -5.05 0.10 -0.05 -2.35 -3.05 -5.45 -6.75 -3.05 -3.65 -5.95 -7.45 -6.35 -8.45 -0.50 -1.35 -1.25 -2.10 -2.70 -2.75 -2.45 -1.10 -3.40 -2.40 -3.40 -4.75 0 -2.40 1.95 -4.10 4.35 -3.85 1.55 0.20 1.55 0.20 0.85 -1.15 -1.25 -2.50 -6.55 -9.15 -9.25 -11.75 -1.50 -1.40 -4.70 -3.60 -7.20 -4.95 -2.45 -1.35 -5.10 -3.05 -5.85 -3.80 -1.70 -1.65 -1.80 -3.80 -0.40 -5.60 0.55 -0.70 1 -1.75 1 -2.35 0 -0.60 0.70 -1.75 1.50 -2.60 1.40 -1.35 1.80 -1.50 3.80 -1.25 1.25 0.10 3.05 0.80 4.10 1.50 1 0.75 6.80 3.60 12.80 6.35 9.50 4.40 11.15 5 12.15 4.55 2.65 -1.20 4 -0.70 7.80 2.85 2.15 2.05 5.50 4.45 8.35 6.05 8.05 4.55 13.05 8.10 13.75 9.80 0.35 0.80 0.55 1.70 0.40 1.90 -0.50 0.85 1.50 2.35 3.20 2.35 2.45 0 4.40 1.20 8.65 5.25 2.05 1.95 6.25 5.70 9.25 8.35 6.20 5.40 12.20 11.50 14.70 15.05 1.25 1.70 1.95 2.30 2.60 2.10 2 -0.65 3.75 1.05 5.60 5.45 4.15 9.90 11.85 35.75 11.85 39.80 0 1.35 -1.50 3.10 -3.15 3.65 -1.45 0.55 -4.10 -0.85 -4.75 -2.45 -0.30 -0.80 -1.45 -4.95 -2.55 -9.25 -3.40 -13.15 -7.30 -24.95 -8.30 -24.95 -0.35 0 -0.90 -0.35 -1.25 -0.75 -0.35 -0.45 -0.75 -0.70 -0.85 -0.55 -0.15 0.10 1.05 5.05 2.55 10.95 2.80 10.70 4.95 17.75 10.75 34.35 3.60 10.35 4.20 14.05 2.55 16.15 -2.05 2.55 -6.55 1.45 -7.20 -1.75 -1.10 -5.20 -1.80 -7.65 -4.30 -14.65 -3.75 -10.35 -7 -20.65 -8.75 -27.35 -1.35 -5.15 -1.45 -5.40 -3.20 -6.25 -2 -1 -2.50 -1.85 -4 -6.90 -2.25 -7.65 -13.70 -25.75 -21.25 -33.65 -2.45 -2.55 -4.20 -3.15 -14.30 -4.90 -4 -0.65 -7.75 -1.35 -8.35 -1.45 -1.05 -0.25 -1.05 -0.20 -0.35 1.20 0.40 0.80 1.40 3.75 2.25 6.60 0.85 2.85 2.25 6.35 3.15 7.70 0.90 1.40 1.90 3.30 2.30 4.25 0.40 0.95 1.25 2.55 1.90 3.50 0.90 1.30 1.10 2.20 0.90 3.40 -0.15 0.90 -0.05 2.15 0.15 2.75 2.40 6.20 3.45 8.35 4.90 10 0.90 1 1.65 2.25 1.65 2.75 0 0.45 0.75 1.45 1.70 2.20 2.65 2.10 3.60 4.85 5.75 16.40 3.20 17.10 3.20 17.45 2.85 34.65 -0.60 29.65 -0.70 30.45 -4 39.60 -0.65 1.95 -1.60 5.55 -2.05 8 -1.75 9.65 -4.40 15.35 -8.55 18.35 -2.25 1.60 -4 3.90 -4.95 6.50 -0.25 0.75 -3.25 4.40 -6.60 8.10 -3.35 3.70 -6.35 7.15 -6.70 7.65 -0.50 0.80 -0.15 1.90 2.25 6.95 3.50 7.25 8.35 16.25 17.20 31.70 9.65 16.80 8.75 15.55 11 15.20 3.30 -0.50 4.20 0.80 6.65 9.55 2.65 9.65 3.20 10.90 8.05 19.60 7.75 13.90 13.35 26.50 17.85 40.10 2.95 8.90 3.10 10.55 1.25 12.30 l-1.30 1.20 5.10 12.90 c2.85 7.10 5.20 13 5.30 13.10 0.05 0.05 0.65 -0.20 1.30 -0.65 1.65 -1.15 4.05 -1 5.30 0.35 1.05 1.10 1.10 1.75 1.30 10.90 0.15 5.45 0.55 11.45 1 13.70 1.05 5.75 4 20.35 6.60 32.50 1.20 5.80 3.20 16.25 4.45 23.25 1.20 7 3.10 17.50 4.25 23.25 2.45 12.75 2.95 18.75 3 35 0 9.55 -0.20 13.20 -0.75 15.40 -1 3.80 -0.95 4.70 0.25 5.10 0.55 0.15 1.45 0.90 2.05 1.65 0.90 1.15 1 1.75 0.75 4.35 -0.80 7.80 -3.50 23.80 -5.30 31.25 -1.75 7.35 -2 9.20 -2.30 16.90 -0.30 8.45 -0.30 8.60 0.75 8.60 1.55 0 3.40 1 4 2.20 0.30 0.55 1.10 3.75 1.85 7.05 1.30 6.05 2.30 8.70 7.40 20.45 1.60 3.50 3.95 9.70 5.35 13.70 2.50 7.45 2.75 9.35 1.15 10.60 -0.80 0.70 -0.65 2.10 0.85 9.35 2.40 11.55 3.50 23.95 2.45 27.15 -0.50 1.55 -0.55 3.15 -0.05 7.95 0.35 3.30 0.80 13.35 1.05 22.40 0.50 17.60 0.40 16.80 4.50 35.15 2.70 12.05 3 15.10 1.75 17.50 -0.70 1.40 -3 3 -4.25 3 -0.25 0 -1.15 0.70 -1.95 1.60 -1.75 2 -4.65 2.25 -6 0.55 -0.70 -0.85 -1.25 -1 -3.35 -0.80 -2 0.20 -2.60 0.10 -3.40 -0.75 -1.25 -1.45 -2.45 -7.40 -1.85 -9.20 0.55 -1.60 -0.55 -11.10 -1.65 -14.20 -1.20 -3.35 -5.85 -13.85 -7.20 -16.20 -2.10 -3.75 -6.55 -9.90 -12.05 -16.75 -5.90 -7.35 -7.15 -9.70 -8.30 -15.75 -2 -10.50 -1.85 -9.85 -2.35 -8.50 -1.20 3 -3 10.20 -3.90 15.75 -0.55 3.30 -1.60 8.80 -2.30 12.25 l-1.25 6.25 0.15 44.25 c0.15 43.60 0.20 44.35 1.30 50 0.65 3.15 1.80 8.25 2.65 11.30 1.65 6.20 1.50 7.50 -0.85 9 -1.30 0.85 -1.30 1 -1.05 4.65 0.20 2.10 0.55 4.95 0.80 6.30 2.25 11.35 2.55 13.90 2.90 27.75 0.35 14.50 -0.25 22.25 -2.15 28.90 -1.65 5.70 -11.25 24.25 -14.05 27.20 -1.70 1.80 -7.05 3.95 -14.10 5.65 -4.70 1.15 -6 1.30 -7.20 0.85 -1.20 -0.45 -2.35 -0.35 -6.30 0.70 -2.75 0.70 -7 1.40 -10 1.55 -4.85 0.30 -5.30 0.40 -6.35 1.60 l-1.10 1.30 -16.70 0 -16.65 0 -5.50 -2.15 c-7.10 -2.80 -11.30 -4.85 -13.50 -6.60 -1.45 -1.15 -2.15 -1.35 -3.45 -1.15 -2.55 0.40 -5.90 -1.30 -7.65 -3.90 -2.10 -3.05 -6.45 -11.80 -8.50 -17.10 -1.70 -4.40 -3.65 -14.10 -3.65 -18.10 l0 -2.15 -1.50 0.75 c-3.10 1.55 -5.20 0.05 -6.45 -4.60 -1.05 -3.70 -5 -14.25 -6.35 -16.85 -1.05 -2.05 -7.60 -10.25 -11.70 -14.65 -2.85 -3.10 -4.25 -5.35 -5.15 -8.30 -0.15 -0.40 -1.85 -1.70 -3.75 -2.85 -4 -2.40 -4.55 -2.45 -15.40 -1.60 -18.90 1.50 -32.85 4.55 -44.05 9.75 -4.65 2.15 -5.80 2.20 -7.75 0.25 -1.45 -1.45 -1.60 -1.50 -3.35 -0.95 -1 0.30 -4.05 1.65 -6.75 3 -2.75 1.35 -5.65 2.45 -6.45 2.45 -2.45 0 -6.80 3.50 -8.45 6.75 l-1 2 1.20 -1.35 c1.55 -1.85 3.45 -2.50 5.40 -1.85 0.85 0.30 1.75 0.95 2 1.45 0.75 1.40 0.60 4.30 -0.25 5 -0.40 0.35 -1.90 2.20 -3.35 4.10 -3.50 4.80 -3.80 6.45 -4.40 27 -0.50 17.35 -0.95 23.35 -2.25 29.25 -1.60 7.50 -2.85 9.90 -6.65 12.95 -2.80 2.20 -15.85 8.90 -21.85 11.25 -1.65 0.60 -3.60 1.65 -4.35 2.25 -2 1.60 -6 3 -15.65 5.45 -11.50 2.90 -20.55 4.75 -23.25 4.75 -3.35 0.05 -8.10 1.20 -10.85 2.60 -6.55 3.45 -16.10 5 -23.35 3.90z m2.60 -15 c1.80 -1.80 3.10 -1.90 5.50 -0.40 1.60 0.95 2 1 5.10 0.55 1.85 -0.30 7.25 -1.90 12 -3.60 11.80 -4.25 15.55 -5.25 28.25 -7.55 12.90 -2.35 14.05 -2.65 15.55 -4.05 0.65 -0.60 2.55 -1.35 4.50 -1.75 1.85 -0.40 4.30 -1.20 5.40 -1.85 l2.05 -1.10 2.35 -9 c2.55 -9.95 2.75 -11.50 1.60 -14.70 -1.45 -4.20 -2.20 -11.55 -2.20 -21.65 0 -9.25 0.05 -9.95 1 -10.90 0.55 -0.55 1.20 -1 1.45 -1 0.25 0 0.60 -1.95 0.75 -4.35 0.45 -6.10 1.30 -11.10 2.20 -12.90 0.40 -0.80 2.35 -3.20 4.35 -5.25 1.95 -2.05 4.20 -4.80 4.90 -6.05 2.35 -4.10 5.30 -5.80 7.75 -4.50 0.60 0.30 1.95 -0.20 4.85 -1.80 4.65 -2.60 12.40 -6 14.70 -6.45 0.95 -0.20 2.10 -0.10 2.80 0.30 1.10 0.60 1.80 0.35 7.85 -2.65 9.90 -4.95 14.30 -6.25 23 -6.85 11.60 -0.80 32.35 -0.65 34.90 0.25 1.55 0.55 2.35 0.60 3.10 0.20 0.60 -0.30 1.75 -0.40 2.85 -0.20 1 0.20 3.95 0.40 6.55 0.45 4.45 0.05 7 0.70 7 1.75 0 0.25 1.85 0.60 4.15 0.80 2.25 0.20 4.55 0.60 5.10 0.90 2.70 1.40 3 4.20 0.70 6.45 -1.45 1.45 -1.65 1.50 -4.50 1.25 -3.15 -0.35 -3.25 -0.30 -2.45 1.15 0.40 0.70 1 0.90 2.70 0.85 2.65 -0.10 4.15 1 4.60 3.40 0.25 1.40 0.55 1.70 1.95 1.95 1.05 0.20 2.30 1.05 3.35 2.20 3.95 4.40 10.95 17.30 13.50 24.85 2.05 6.30 4.15 8.55 17.35 18.80 7 5.40 8.85 7.40 10.90 11.85 0.80 1.70 1.55 2.60 2.10 2.60 0.50 0 1.50 0.45 2.25 1.05 2.30 1.80 1.60 5.80 -1.25 6.85 -1.15 0.45 -1.10 0.50 0.80 1 1.75 0.50 10.65 2.65 17 4.10 3.80 0.90 12.95 1.50 22.45 1.50 11.20 0 17.15 -0.95 21.55 -3.45 1.50 -0.85 3.25 -1.55 3.90 -1.55 1.55 0 3.65 1.65 4.05 3.20 l0.30 1.20 3.50 -1.70 c4.45 -2.15 6.65 -5.25 7.50 -10.50 0.75 -4.70 2.95 -14.45 3.85 -16.90 0.35 -1.10 1.15 -2.55 1.75 -3.15 1 -1.10 1.05 -1.40 0.70 -8.75 -0.25 -4.20 -0.55 -15.75 -0.80 -25.65 -0.30 -14.10 -0.60 -19.50 -1.40 -24.95 -0.75 -5.10 -0.90 -7.25 -0.50 -8.25 0.80 -2.05 0 -10.60 -1.65 -17.30 -3.55 -14.90 -5.05 -26.40 -6 -47 -0.75 -16.70 -0.40 -41.90 0.70 -45.60 0.70 -2.45 0.70 -2.65 -0.25 -3.50 -1.85 -1.65 -1.85 -2.70 -0.35 -8.90 0.80 -3.30 1.45 -6.55 1.45 -7.25 0 -2.20 1.50 -6.60 3.10 -9.10 1.30 -2.05 1.80 -3.95 3.40 -12.75 1.05 -5.75 2.15 -12.40 2.45 -14.90 0.70 -5.20 1.35 -7.10 2.60 -7.75 1.45 -0.80 3.90 -0.55 5.35 0.50 0.75 0.50 2.35 1.20 3.60 1.45 1.30 0.30 2.55 0.95 3 1.55 0.40 0.60 1.35 1.80 2.15 2.75 0.75 0.90 1.35 1.85 1.35 2.10 0 0.25 1.15 1.65 2.55 3.10 1.40 1.45 2.80 3.40 3.05 4.25 0.30 0.85 2.10 4.20 4 7.45 7.20 12.20 12.35 24.35 17.15 40.40 2.35 7.85 2.45 9.30 0.90 11.05 -0.70 0.80 -0.55 1.25 1.65 5.50 1.30 2.55 2.80 5.90 3.30 7.40 l0.90 2.75 -0.30 -2.75 c-0.30 -2.85 -3.50 -19.10 -4.95 -25.25 -5.55 -23.75 -9.30 -45.95 -11.25 -67.10 -0.70 -7.45 -0.30 -9.35 2.30 -10.45 1.15 -0.50 2 -0.55 2.95 -0.20 0.70 0.25 1.25 0.30 1.25 0.10 0 -0.85 -1.95 -7.05 -2.55 -8.15 -0.35 -0.65 -0.80 -2.30 -1 -3.70 -1.30 -8.60 -3.55 -14.45 -9 -23.35 l-2.95 -4.80 0 -5.35 c0 -4 -0.20 -5.60 -0.80 -6.50 -0.90 -1.40 -0.70 -5.50 0.60 -11 0.35 -1.65 0.70 -3.55 0.70 -4.25 0 -1.20 -0.15 -1.25 -1.95 -1.10 -1.65 0.15 -2.25 -0.05 -3.35 -1.15 -1.50 -1.50 -1.50 -1.10 0.05 -12.25 0.55 -3.75 0.85 -9.90 0.90 -17.75 0.10 -11.75 0.10 -12.05 -1 -13.45 -1.05 -1.35 -1.15 -1.95 -1.15 -8.75 -0.05 -10.10 -1.70 -38.45 -3.25 -54.65 -0.75 -7.90 -0.70 -8.95 0.65 -10.50 0.60 -0.75 0.65 -2 0.15 -9.25 -0.35 -4.60 -1 -12.60 -1.55 -17.75 -0.90 -8.90 -1.10 -9.80 -4.15 -19.25 -1.75 -5.45 -4.05 -12.75 -5.10 -16.25 -1.05 -3.50 -2 -6.30 -2.05 -6.25 -0.10 0.10 0.30 3 0.80 6.50 0.90 5.80 0.95 6.50 0.25 7.85 -0.80 1.60 -2.25 2.20 -4.50 1.90 -2.25 -0.25 -3.15 -2.10 -4 -8.15 -1.40 -9.70 -2.75 -17.35 -4.30 -24.25 -2 -9.10 -9.95 -39.15 -10.50 -39.70 -0.25 -0.30 -0.45 -0.80 -0.45 -1.15 0 -1.65 -10.55 -23 -18.35 -37.10 -7.50 -13.50 -10.90 -20.95 -10.95 -23.80 0 -1.60 -0.40 -3.30 -1.15 -4.65 -0.60 -1.20 -1.20 -2.10 -1.25 -2 -0.10 0.05 0.70 5.20 1.75 11.40 1.05 6.20 1.80 11.85 1.65 12.60 -0.50 2.60 -4.20 3.80 -6.55 2.15 -1.30 -0.90 -1.70 -2.50 -3.90 -15.90 -1.90 -11.65 -4.05 -19.80 -7.25 -28 -2.50 -6.35 -4.10 -9.20 -9.75 -17.35 -3.80 -5.50 -4.65 -6.40 -5.50 -6.15 -1.50 0.55 -3.80 0.25 -4.70 -0.50 -0.45 -0.40 -4.40 -2.65 -8.75 -5.05 -9 -4.90 -16.50 -9.75 -24.55 -15.85 -3 -2.30 -9.75 -7.30 -15 -11.10 -16.25 -11.95 -23.80 -18.65 -25.45 -22.55 -0.40 -1 -1 -1.80 -1.30 -1.80 -0.30 0 -6 -0.80 -12.70 -1.75 -14 -2 -26 -4.10 -36.20 -6.35 l-7.15 -1.60 -12.55 0.60 c-6.85 0.35 -17.25 1.05 -23.10 1.60 -14.40 1.35 -37.85 4.40 -38.60 5.05 -0.35 0.30 -3.05 0.60 -6.05 0.70 -7.10 0.20 -7.45 0.35 -5.35 2.45 2.10 2.10 2.30 4.55 0.55 6.15 -1.85 1.70 -2.95 1.80 -5.65 0.35 -2.40 -1.30 -2.60 -1.30 -9.20 -1 -3.70 0.15 -7.65 0.45 -8.75 0.60 -1.75 0.25 -2.20 0.10 -3.40 -1.05 l-1.35 -1.40 -3.10 0.90 c-16.65 4.60 -49.45 14.60 -65.40 19.85 -17.40 5.75 -24.65 9 -29.55 13.35 -2.10 1.80 -2.30 2.25 -2.25 4.10 0.05 1.65 -0.25 2.25 -1.35 3.25 -1.60 1.40 -2.70 1.50 -5.10 0.50 -2.70 -1.15 -4.05 -4.85 -2.70 -7.40 0.70 -1.35 0.55 -1.25 -5.65 3 -5.15 3.55 -5.30 3.70 -5.05 5.25 0.40 2.70 -1.05 3.95 -6.80 5.80 -5.60 1.75 -6.45 2.35 -18.80 12.60 -14.10 11.80 -18.85 17.25 -19.55 22.65 -0.55 3.85 -2.60 5.50 -5.80 4.65 -2.90 -0.75 -3.50 -4.60 -1.60 -10 l0.75 -2.10 -3.30 3.25 c-4.95 4.90 -7.10 7.95 -8.50 12.05 -1.60 4.60 -3.75 8.85 -8.45 16.60 -4.30 7.10 -9 16.40 -9.50 18.70 -0.20 0.90 -0.90 2.35 -1.50 3.30 -1.05 1.50 -6.10 13.65 -10.60 25.45 -2.35 6.15 -8.15 25.45 -8.70 28.90 -0.25 1.50 -0.80 7.80 -1.25 14 -0.95 13.40 -2.30 25.65 -4.10 36.95 -0.75 4.55 -1.35 10.25 -1.40 12.60 -0.05 3.30 -0.25 4.65 -0.95 5.70 -0.85 1.30 -0.90 2.10 -0.60 7.70 0.15 3.45 0.80 10.45 1.35 15.50 0.95 8.80 1.05 9.25 2.40 10.50 1.10 1 1.60 2.35 2.50 6.10 0.60 2.60 1.45 5.25 1.85 5.90 0.45 0.60 1.45 3.60 2.25 6.60 2.30 8.90 8.35 26.65 10.45 30.85 1.10 2.10 2.90 5.05 4 6.55 2.85 3.70 3.20 4.75 2.20 6.85 -0.80 1.65 -0.75 1.75 1.55 7.55 5.20 13.15 9.90 23.70 12.75 28.60 3.55 6.15 3.80 7.80 1.45 9.75 l-1.55 1.30 2.80 6.40 c3.05 7.05 8.70 21.40 10.05 25.50 0.60 1.95 1.60 3.40 3.50 5.30 2.35 2.30 2.75 2.95 3.20 5.60 0.80 4.40 1.75 6.45 13.90 30.85 11.75 23.55 12.60 25.45 13 28.45 0.20 1.50 0 2.10 -1.05 3.15 -1.55 1.55 -1.65 2.85 -0.30 4.65 1 1.35 1 1.50 0.25 13.85 -0.90 14.65 -1.55 22.70 -2.45 31 -0.45 4.10 -0.65 11.70 -0.60 24 0.10 18.90 0.35 21.70 3.10 33.25 0.90 3.60 2.80 9.55 3.05 9.35 0.05 -0.10 -0.10 -5.80 -0.40 -12.70 -0.80 -19.70 0.15 -25 5.40 -30.65 2.50 -2.70 2.85 -3.35 4 -7.75 1.25 -4.70 1.25 -4.90 0.45 -7.70 -1.15 -4.10 -1.05 -5.40 0.65 -7.10 1.50 -1.50 2.95 -1.80 4.50 -0.95 0.70 0.35 1.20 0.20 2.05 -0.75 1.35 -1.45 3.70 -1.65 5.30 -0.55 0.55 0.40 2.45 2.90 4.20 5.50 l3.15 4.80 1.85 -0.30 c3.75 -0.60 4.65 0.70 6.95 9.85 1.50 6.10 2 7.60 4.15 12.45 0.55 1.25 1.35 3.05 1.75 4 0.40 0.95 0.95 2.20 1.20 2.75 0.25 0.55 0.65 1.60 0.95 2.40 0.35 1.05 0.80 1.35 2 1.35 2.10 0 3.30 1.45 4 4.85 1.35 7 4.15 17.60 5.25 19.90 1.25 2.60 2.30 6.65 4.50 17.50 2.95 14.55 3.85 22.75 4 37.75 0.10 10.45 0.30 12.75 1.65 20.75 3.55 20.75 6 49.35 4.50 52.25 -0.50 0.90 -2.95 2.75 -3.70 2.75 -0.30 0 1 9.20 1.75 12.40 2.05 8.45 3.60 11.95 6.85 15.45 1.75 1.85 2.20 2.75 2.20 4.10 0 0.95 -0.20 1.90 -0.50 2.05 -1 0.60 -0.45 1.65 2.70 5.35 2.90 3.40 3.55 3.90 6.40 4.85 5.40 1.75 18.80 4.85 21.50 5 0.45 0.05 1.50 -0.60 2.30 -1.45z m297.60 -24.45 c0 -0.20 -1.75 -0.55 -3.85 -0.75 -2.15 -0.20 -4.55 -0.55 -5.40 -0.75 -0.80 -0.25 -2.85 -0.70 -4.50 -1.05 -1.65 -0.35 -4.25 -0.95 -5.75 -1.35 -3.20 -0.85 -16.15 -3.10 -16.40 -2.85 -0.45 0.35 4 2.70 5 2.60 0.65 -0.05 3.20 0.80 5.65 1.85 2.50 1.05 5.30 2.10 6.25 2.30 2.55 0.50 19 0.55 19 0z m-205.25 -12.15 c1 -3.20 1.35 -5.75 1.75 -12.75 l0.50 -8.75 -1.25 -2.80 c-0.70 -1.50 -1.40 -3.60 -1.55 -4.65 -0.20 -1.10 -0.40 -1.95 -0.50 -1.95 -0.10 0 -0.75 0.25 -1.45 0.60 -1.20 0.55 -1.25 0.75 -1.25 4.50 0 3.50 0.10 3.90 0.95 3.90 1.65 0 2.55 0.55 3.35 2.05 0.60 1.25 0.65 2.40 0.20 7.95 -0.30 3.55 -1.05 8.70 -1.70 11.45 -0.60 2.75 -0.95 4.90 -0.70 4.75 0.20 -0.15 0.95 -2.05 1.65 -4.30z m168 -9.25 c-0.70 -1.60 -1.70 -3.45 -2.20 -4.15 -0.75 -1.05 -8.75 -7.55 -14.15 -11.55 l-1.30 -0.95 0.70 3 c1.20 5.20 2.70 7.10 9.15 11.45 2.40 1.65 8.20 4.90 8.90 5.05 0.10 0 -0.45 -1.30 -1.10 -2.85z m-355.35 -165.85 c0.80 -6.20 0.75 -6.30 -0.35 -6.30 -1.15 0 -1.35 0.50 -2.05 5.75 -0.45 3.60 -0.45 4.05 0.35 4.60 0.45 0.35 1 0.65 1.15 0.65 0.20 0 0.60 -2.10 0.90 -4.70z m478.70 -49.40 c-0.10 -1.60 0.10 -3.50 0.55 -4.85 l0.80 -2.20 -2.75 -5.50 c-2.75 -5.45 -3.60 -6.50 -2.70 -3.30 0.30 0.95 0.85 3.75 1.25 6.20 0.80 4.60 2.20 11.20 2.60 11.90 0.40 0.75 0.50 0.30 0.25 -2.25z m-20.80 -12.25 c-0.40 -0.45 -1.30 2.25 -1.25 3.75 0 1.05 0.20 0.75 0.75 -1.10 0.45 -1.30 0.65 -2.55 0.50 -2.65z m43.70 -6.70 c-0.35 -1.90 -0.75 -3.45 -0.95 -3.45 -0.20 0 -0.05 2.10 0.40 4.65 0.45 2.50 0.85 4.10 0.95 3.45 0.10 -0.65 -0.10 -2.75 -0.40 -4.65z m-38.55 -4.70 c0 -0.55 -0.65 0.30 -1.50 2 -1.90 3.90 -1.85 5.35 0.05 1.75 0.80 -1.50 1.45 -3.20 1.45 -3.75z m-494.75 -0.85 c-0.75 -1.60 -1.45 -2.80 -1.55 -2.70 -0.10 0.10 0.45 2.05 1.20 4.35 1.15 3.45 1.45 3.95 1.55 2.70 0.10 -0.85 -0.35 -2.60 -1.20 -4.35z m531.80 -9.40 c-1.55 -10.05 -3.25 -18.80 -3.40 -17.70 -0.15 1 1.25 13.35 2.45 21.90 0.55 3.65 0.65 3.85 1.20 2.75 0.55 -1 0.50 -2.25 -0.25 -6.95z m-531.75 -10.65 c-4.20 -8.15 -5.75 -10.70 -5.75 -9.60 0 0.40 8.45 17.25 9.40 18.65 0.45 0.70 0.90 1 0.95 0.75 0.10 -0.30 -2 -4.70 -4.60 -9.80z m-70 -146.15 c-1.40 -6.05 -4.70 -22.10 -6 -29.30 -1.05 -5.65 -3.50 -13.80 -4.05 -13.25 -0.05 0.05 0.75 4.95 1.85 10.85 1.75 9.50 8.30 35.80 8.80 35.30 0.10 -0.10 -0.15 -1.75 -0.60 -3.60z m582.75 -30.45 c0 -4.15 -0.20 -6.75 -0.50 -6.75 -0.30 0 -0.50 1.30 -0.50 2.90 0 3.40 0.55 10.60 0.80 10.60 0.10 0 0.20 -3.05 0.20 -6.75z m-604.85 -89.10 c0.35 -7.20 1.10 -10.05 2.90 -11.10 1.65 -0.95 1.75 -1.50 2.20 -11.65 0.35 -9.15 2 -26 3.55 -36.90 l0.30 -2.30 -3.45 -2.55 c-4.25 -3.15 -8.15 -7.30 -8.15 -8.60 0 -1.40 -0.80 -1.75 -2.10 -0.85 -1.30 0.95 -3.05 1 -4.45 0.25 -0.55 -0.30 -2 -2.60 -3.15 -5.10 -2.10 -4.50 -2.30 -4.75 -9.05 -10.80 -3.75 -3.45 -8.80 -8.40 -11.15 -11 -7 -7.90 -12.60 -17 -12.60 -20.45 0 -1.40 1.55 -3.60 2.55 -3.60 0.25 0 -0.10 -0.85 -0.75 -1.90 -4.90 -7.75 -9.80 -20.20 -10.85 -27.50 -0.90 -6.40 -0.35 -23.20 0.95 -28.60 0.55 -2.35 1.40 -6.20 1.85 -8.60 1.85 -10.35 8.90 -26.40 16.30 -37.15 1.30 -1.90 4.70 -5.75 7.50 -8.50 5.15 -5.05 7.75 -8.10 7.35 -8.50 -0.10 -0.10 -1.55 0.40 -3.25 1.20 -2.30 1.10 -3.15 1.80 -3.55 2.90 -0.35 1.10 -2 2.55 -5.90 5.25 -7.15 4.95 -16.10 11.90 -20.15 15.65 -1.75 1.65 -5.25 5.50 -7.80 8.50 -6.85 8.25 -21.20 24.25 -21.70 24.25 -0.50 0 -5.40 7.40 -9.10 13.85 -6.40 11.05 -11.05 21.90 -11.95 27.90 -1.10 7.25 0.20 23.90 2.55 32.25 1.45 5.30 5.35 13.20 9.40 19.10 2.75 4.05 3.55 5.55 3.55 6.95 0 1.95 2.30 5.50 14.75 22.95 3.60 5.10 9.70 13.75 13.50 19.25 8.95 12.95 13.35 19 15.95 21.65 1.10 1.20 4.75 4.15 8.05 6.50 3.30 2.40 8.20 6.10 10.95 8.30 11.10 8.80 11.80 9.30 13.75 9.30 1 0 2.30 0.30 2.85 0.65 0.60 0.30 2.55 1.45 4.25 2.45 1.75 1.05 3.35 1.90 3.50 1.90 0.15 0 0.45 -2.40 0.60 -5.35z m-70.25 -45.05 c-0.30 -1.15 -12.50 -18.55 -13.05 -18.60 -0.40 0 0.60 1.60 7.75 12.65 4.15 6.30 5.90 8.25 5.30 5.95z m102.05 -41 c3.15 -7.95 3.90 -10.35 1.70 -5.60 -1.30 2.90 -5.65 14 -5.65 14.50 0.05 0.65 1.10 -1.75 3.95 -8.90z m-69.30 -55.40 c-0.75 -4.70 -0.90 -8.30 -0.85 -25.95 0 -11.25 0.15 -22.85 0.30 -25.75 0.20 -2.90 0.20 -4.80 0.05 -4.25 -0.15 0.55 -0.85 1.60 -1.55 2.35 -1.10 1.20 -1.20 1.55 -0.70 2.65 1 2.20 0.70 3.65 -1.25 5.80 l-1.90 2.10 0 4.70 c0 4.35 -0.10 4.80 -1.15 5.65 -0.65 0.55 -1.30 1.70 -1.45 2.65 -0.65 4.25 2.15 18.45 5.80 28.85 2.70 7.85 2.60 7.65 3.15 7.10 0.30 -0.30 0.15 -2.50 -0.45 -5.90z m134.85 -34.65 c2.05 -1.20 6.20 -3.30 9.25 -4.65 3.90 -1.75 7.10 -3.70 11 -6.60 11.75 -8.85 25.10 -17.45 35 -22.55 7.85 -4 13.30 -6.25 15.25 -6.25 1.75 0 4 2.05 4 3.65 0 0.70 0.25 0.90 0.90 0.70 0.45 -0.10 7.25 -2.25 15.10 -4.75 7.85 -2.45 16.45 -5.10 19.10 -5.90 2.70 -0.75 4.80 -1.45 4.70 -1.60 -0.15 -0.10 -2.60 0.20 -5.55 0.70 -5.20 0.85 -5.30 0.85 -6.65 -0.15 -0.75 -0.55 -1.55 -1.65 -1.85 -2.45 -0.50 -1.45 -0.55 -1.45 -3 -1.10 -5.25 0.85 -14.20 3.10 -19.50 4.95 -10.55 3.60 -31.15 14.15 -51 26.05 -14.15 8.50 -19.10 11.75 -23.80 15.50 -4.40 3.55 -10.10 8.80 -8.20 7.65 0.85 -0.50 3.20 -1.95 5.25 -3.20z m-191.35 -10.10 c6.65 -10.45 14.05 -19.55 24.55 -30.30 5.90 -6.05 6.85 -7.25 6.30 -7.90 -0.35 -0.40 -0.75 -1.45 -0.95 -2.25 -0.30 -1.55 -0.35 -1.50 -9.65 7.50 -6.95 6.70 -9.50 9.50 -9.85 10.75 -0.25 0.90 -1.45 3.10 -2.70 4.85 -3.35 4.70 -7.05 11.50 -9.60 17.55 -3.25 7.80 -3.20 7.75 1.90 -0.20z m582.80 -0.30 c-8.90 -10.70 -20.45 -23.85 -23.10 -26.30 -3.65 -3.35 -8.30 -6.35 -14.35 -9.30 -2.90 -1.45 -5.60 -2.75 -6 -3 -0.50 -0.30 -1.25 0.05 -2.40 1 -2.85 2.55 -5.10 1.80 -8.35 -2.65 -0.75 -1 -1.60 -1.45 -3.25 -1.70 l-2.25 -0.35 4.25 3.60 c5.05 4.30 36.65 27.85 42 31.35 3.80 2.45 13.55 8.20 13.95 8.20 0.10 0 -0.10 -0.40 -0.50 -0.85z m8.70 -10.55 c0.30 -1.55 0.15 -1.75 -2.75 -3.90 -2.75 -2 -8.65 -5.70 -9.15 -5.70 -0.10 0 2.45 2.55 5.65 5.70 3.20 3.15 5.85 5.70 5.90 5.65 0.05 -0.05 0.20 -0.85 0.35 -1.75z m-515.45 -58.25 c3.50 -1.15 5 -2.35 4.05 -3.30 -0.35 -0.35 -1.75 0.30 -4.25 1.95 -2.05 1.40 -3.65 2.50 -3.50 2.50 0.15 0 1.80 -0.55 3.70 -1.15z m590.40 -80.05 c-2.70 -3.50 -6.60 -7.95 -6.60 -7.55 0 0.15 0.55 1.10 1.20 2.15 0.65 1 1.95 3.35 2.95 5.15 1.60 2.90 2 3.30 3.30 3.30 l1.50 0 -2.35 -3.05z m-43.35 -36.25 c-2.10 -1.90 -10.85 -8.35 -12.50 -9.15 -1.10 -0.60 -5.65 -2.70 -10.15 -4.70 l-8.15 -3.65 2.65 3.35 c7.60 9.75 10.30 11.40 22.55 13.60 6.35 1.10 6.15 1.10 5.60 0.55z"/>
  <path d="M479.65 790.40 c-0.60 -0.30 -1.35 -1.20 -1.70 -2 -0.75 -1.85 0.05 -6.65 2.10 -12.85 l1.45 -4.25 -1.10 -1.15 c-1.45 -1.55 -1.35 -3.70 0.25 -6 0.70 -1.05 2.05 -4.50 3 -7.65 1.70 -5.55 4.35 -16.65 4.35 -18.05 0 -0.60 -1 -0.70 -5.25 -0.55 -11.35 0.45 -26 -1.70 -28.75 -4.15 -1.50 -1.35 -1.65 -3.15 -0.50 -5.45 1.80 -3.40 2.90 -4.30 5.30 -4.30 1.70 0 2.20 -0.20 2.45 -1 0.55 -1.65 1.95 -2.05 6.15 -1.70 4.10 0.35 5.85 1.05 6.35 2.70 0.15 0.55 0.65 1 1.05 1 0.40 0 1.65 0.45 2.70 1 3.15 1.60 6.95 1.75 14.10 0.55 3.50 -0.60 8.30 -1.65 10.65 -2.35 4.70 -1.35 5.70 -1.25 7.45 0.60 l1.15 1.25 4.60 -0.85 c3.60 -0.70 4.75 -1.15 5.15 -1.95 0.90 -1.65 1.95 -2.15 5.65 -2.50 3.90 -0.35 14 -2.30 19.75 -3.75 2.05 -0.50 5.80 -1.40 8.25 -2 7 -1.65 13.50 -3.85 18.35 -6.30 3.65 -1.85 4.70 -2.15 6.30 -1.90 1.45 0.20 3 -0.15 7.10 -1.70 7.70 -2.95 7.90 -3.05 8.55 -4.95 0.60 -1.90 2.60 -3.15 4.90 -3.15 1.20 0 2.35 -0.80 5.60 -3.80 3.90 -3.65 4.15 -3.80 6 -3.55 1.75 0.25 2.35 0 5.10 -2 1.70 -1.25 4.05 -3.25 5.15 -4.45 1.15 -1.20 2.55 -2.20 3.10 -2.20 0.55 0 1.90 -1 3.05 -2.25 1.95 -2.15 2.70 -3.40 4.10 -7.20 1.15 -3.10 5.10 -3.65 7.05 -1.05 0.60 0.85 1.70 1.55 2.65 1.70 1.90 0.35 3.10 1.55 3.70 3.60 0.90 3.25 -1.20 6.35 -9.35 13.90 -6.10 5.60 -11 9.45 -15.40 12 l-3.05 1.75 0.50 2.80 c0.40 2.10 0.35 3.25 -0.10 4.55 -0.70 1.95 -1.45 0.25 7 15.45 5.40 9.70 8.20 16.50 7.75 18.85 -0.45 2.50 -2.30 4.05 -4.70 4 -2 -0.05 -5.90 -1.70 -8.85 -3.80 -1.10 -0.75 -2.25 -1.05 -4.45 -1.05 l-3 0 -4 -5.30 c-2.25 -2.90 -7.60 -9.25 -11.95 -14.10 l-7.95 -8.80 -2.30 0.90 c-1.30 0.50 -5.30 2.20 -8.90 3.70 -16.30 6.85 -38.90 12.90 -57.40 15.35 -4.10 0.55 -7.50 1.05 -7.55 1.10 -0.05 0.10 -0.70 3 -1.45 6.55 -1.60 7.45 -5.40 21.70 -6.25 23.25 -0.35 0.65 -1.50 1.35 -2.80 1.70 -1.85 0.55 -2.65 1.25 -5.05 4.40 -4.90 6.55 -9.05 12.70 -9.85 14.55 -1.25 3 -3.60 4.10 -6.20 2.85z m19 -36.35 c0.75 -2.75 1.50 -6.05 3.60 -15.45 0.25 -1.10 0.20 -1.15 -2.60 -1 l-2.85 0.15 -0.90 4.45 -0.90 4.40 1.25 1.50 c1.60 1.85 1.55 2.30 -0.25 7.60 l-1.45 4.35 1.60 -1.35 c1.20 -1 1.80 -2.15 2.50 -4.65z m116.25 -27.90 c-2.60 -4.60 -5.75 -10.25 -6.95 -12.55 -1.15 -2.25 -2.30 -4.05 -2.45 -4 -0.20 0.10 -2.25 0.90 -4.65 1.85 -2.40 0.95 -4.35 1.90 -4.35 2.05 0 0.20 0.45 0.55 1 0.80 0.55 0.25 2.75 2.70 4.90 5.45 3.70 4.70 4 5 6.10 5.30 1.55 0.20 2.50 0.70 3.45 1.80 5.85 6.70 7.20 8.15 7.40 7.95 0.15 -0.15 -1.85 -4.05 -4.45 -8.65z"/>
  <path d="M496.90 631.25 c-4.05 -0.35 -10.20 -0.65 -13.75 -0.70 -3.50 0 -9.90 -0.05 -14.15 -0.05 -11.85 -0.05 -25.35 -0.85 -29.45 -1.75 -10.90 -2.30 -21.45 -7.65 -28.50 -14.45 -4.30 -4.15 -6.85 -7.65 -11.35 -15.35 -1.80 -3.10 -4.25 -6.90 -5.50 -8.45 -1.20 -1.55 -2.95 -4.60 -3.85 -6.80 -0.95 -2.15 -4.60 -9.15 -8.20 -15.45 -7.85 -13.85 -8.75 -15.65 -10.95 -21.35 -2.25 -5.85 -3.95 -13.10 -5 -21.40 -0.55 -4.65 -1.20 -7.60 -2 -9.40 -5.05 -11.15 -5.50 -29.30 -1.45 -59.10 0.45 -3.15 1 -8.05 1.25 -10.90 0.35 -3.65 0.75 -5.55 1.40 -6.50 0.95 -1.35 2.10 -4.25 2.10 -5.30 0 -0.40 -0.65 -0.50 -1.70 -0.40 -1.40 0.15 -2 -0.10 -3.10 -1.15 -1.15 -1.15 -1.30 -1.60 -1.10 -3.75 0.25 -2.45 4.45 -11.75 8.75 -19.35 l2.05 -3.55 -1.20 -1.15 c-1.90 -1.80 -1.60 -3.95 1.15 -8.15 4.45 -6.60 9.95 -12.85 26.90 -30.30 13.80 -14.20 15.60 -15.75 23.65 -19.85 7.45 -3.85 9.20 -4.25 11.15 -2.70 1.20 0.95 1.30 0.90 8.85 -0.90 5.95 -1.40 7.60 -2 7.60 -2.60 0 -0.45 0.45 -1.35 0.95 -2 0.90 -1.15 1.30 -1.20 6.90 -1.25 3.25 0 12.90 -0.35 21.40 -0.70 8.55 -0.40 22.70 -0.70 31.50 -0.70 13.55 0 16.55 0.10 19.45 0.85 4.90 1.25 9.05 3.40 12.65 6.50 2.60 2.30 3.45 2.75 5.75 3.05 7.15 0.95 16.30 5.30 29.35 14 5.40 3.60 11.95 7.90 14.55 9.55 3.15 1.95 6.75 4.90 10.75 8.80 3.30 3.20 7.60 7.05 9.55 8.50 2 1.50 5.55 4.50 7.95 6.70 6.65 6.05 6.75 6.10 6.75 3.75 0 -3 3.40 -4.90 6.05 -3.45 1.40 0.75 4.75 6.10 8.60 13.70 1.80 3.60 4.45 8.40 5.85 10.75 7.50 12.20 8.70 15.05 11 26.50 0.85 4.10 1.85 8.20 2.20 9.10 1.35 3.25 3.30 12.35 4.85 22.65 2.55 16.85 2.15 25.20 -2.35 46.70 -2.65 12.55 -2.90 14.15 -2.75 16.30 0.60 9.10 0.20 12.25 -2.20 17.50 -0.65 1.40 -1.50 3.50 -1.95 4.70 -0.45 1.20 -2.40 4.80 -4.25 8 -1.90 3.20 -4.85 9 -6.55 12.95 -5.10 11.60 -8.20 14.50 -20.30 18.90 -2.55 0.90 -7.35 3 -10.65 4.65 -8.60 4.35 -13.80 6.40 -21 8.30 -3.45 0.95 -8.90 2.60 -12.10 3.70 -5.15 1.80 -19.05 4.90 -29.25 6.55 -3.30 0.50 -3.60 0.70 -4.25 2.15 -0.85 1.95 -3.05 3.10 -7.45 3.90 -4.95 0.85 -35.65 1.05 -44.60 0.20z m28.30 -10.05 c1.80 -0.30 1.90 -0.40 1.60 -1.75 -0.35 -1.90 0.55 -3.85 2.25 -4.75 1.90 -0.95 2.60 -0.90 4.15 0.35 1.25 0.95 1.80 1.05 5.45 0.80 5.20 -0.30 7.80 -1.20 22.85 -7.85 6.75 -3 13.50 -5.90 15 -6.50 6.05 -2.40 16.95 -6 18.20 -6 2.75 0 4.45 3.30 3.10 5.95 l-0.80 1.55 2.60 -1.05 c1.45 -0.60 6.15 -2.25 10.40 -3.70 10.35 -3.45 15.25 -6 14.70 -7.50 -0.15 -0.40 0.05 -1.35 0.45 -2.15 l0.70 -1.45 -2.30 0.70 c-5.70 1.70 -9.05 0.45 -9.05 -3.40 0 -2.35 1.50 -3.65 5 -4.40 5.65 -1.20 14.10 -6.75 22.10 -14.45 2.50 -2.40 4.80 -4.95 5.20 -5.65 0.35 -0.75 1.25 -3.70 2 -6.65 1.30 -5.15 1.30 -5.40 0.50 -7.20 -0.85 -1.85 -0.80 -2 1.90 -12.95 3.40 -13.85 4.25 -18.85 4.40 -26.15 0.30 -11.90 -1.80 -47.85 -2.95 -50.85 -0.15 -0.35 -0.80 -0.65 -1.45 -0.65 -2.40 0 -3.20 -1.40 -10.95 -19 -1.90 -4.25 -4.30 -9.45 -5.40 -11.50 -6.95 -13.15 -21.80 -28.75 -33.60 -35.25 -11.05 -6.05 -20.80 -12.25 -25.45 -16.15 -7.15 -6 -9.60 -7.55 -20.45 -12.95 -5.30 -2.60 -10.15 -5.15 -10.85 -5.65 -0.70 -0.45 -2.30 -1 -3.60 -1.10 l-2.35 -0.25 4 4.45 c2.20 2.45 4.20 4.95 4.45 5.60 0.90 2.35 -0.55 5 -3 5.55 -1.80 0.40 -3.15 -0.35 -5.15 -2.65 -0.90 -1.05 -3.35 -3.70 -5.55 -5.95 -3.10 -3.25 -4.30 -4.15 -5.35 -4.15 -2.90 0 -4.95 -1.90 -4.95 -4.50 0 -0.50 -0.20 -1.05 -0.45 -1.20 -0.50 -0.35 -25.65 -4.50 -32.05 -5.30 -2.35 -0.30 -8.20 -0.45 -13 -0.35 -8.45 0.20 -9.05 0.25 -18.25 2.55 -5.20 1.30 -13.45 3.35 -18.25 4.55 -4.80 1.20 -9.60 2.50 -10.65 2.95 -1.80 0.80 -1.85 0.85 -1.10 1.95 1 1.45 0.95 4 -0.15 5.35 -0.60 0.75 -1.95 1.30 -4.55 1.80 -2.25 0.40 -4.15 1.10 -4.80 1.70 -0.60 0.55 -2.15 1.35 -3.55 1.75 -3.40 1 -9.10 5.95 -9.15 7.90 -0.05 2.15 -0.85 3.20 -3.20 4.30 -2.80 1.35 -3.05 1.55 -7.65 7.30 -6.15 7.65 -8.05 10.35 -9.15 12.80 -2.85 6.40 -7.65 31.65 -8.10 42.55 -0.10 2.35 0.05 3.10 0.90 4 1.65 1.85 1.80 3.10 0.60 5.75 -0.60 1.30 -1.20 3.65 -1.35 5.15 -0.15 1.50 -0.55 3.20 -0.90 3.75 -0.80 1.25 -2 8 -2.75 15.65 -0.75 7.30 -0.30 26.80 0.75 36 1.45 12.25 4.20 23.15 7.25 28.35 0.80 1.40 2.60 3.80 4 5.40 2.75 3.15 2.95 3.80 1.80 6.05 -0.75 1.40 -0.70 1.70 0.80 5.35 l1.60 3.80 1.90 -0.05 c1.40 0 2.25 0.30 3.05 1.10 1.05 1 1.15 1.60 1.15 5.80 l0 4.70 3.85 5.70 c2.15 3.10 5.45 7.50 7.35 9.80 1.90 2.25 3.55 4.60 3.75 5.25 0.55 2.25 20.75 14.65 29.45 18.10 6.35 2.45 7.10 2.55 8.45 1.05 1.90 -2.10 4.30 -1.95 6.75 0.45 2.45 2.40 5.65 3.20 16.90 4.25 4.25 0.40 5.85 0.75 6.90 1.55 2.75 2 7.30 2.40 25.35 2.20 9.20 -0.10 17.60 -0.35 18.70 -0.55z m-94.95 -5.35 c-3.30 -1.70 -7.65 -4.20 -9.60 -5.50 -4.10 -2.65 -4.80 -2.55 -1.25 0.20 3 2.30 7.15 4.65 12 6.75 5.95 2.60 5.45 2 -1.15 -1.45z m146.75 -4.50 c0.90 -0.35 1.05 -0.55 0.45 -0.70 -0.40 -0.10 -1.75 0.30 -3 0.85 -2.15 1 -2.15 1.05 -0.45 0.70 0.95 -0.20 2.30 -0.55 3 -0.85z m12.65 -5 c1.30 -0.55 2.30 -1.05 2.25 -1.10 -0.25 -0.25 -6.80 1.95 -7.25 2.40 -0.60 0.60 2.20 -0.10 5 -1.30z m-218 -176.70 c0.15 -0.25 0.40 -1.65 0.55 -3.15 l0.35 -2.75 -0.95 2.05 c-1.60 3.30 -1.75 4.20 -0.90 4.20 0.40 0 0.85 -0.15 0.95 -0.35z"/>
  <path d="M524.50 571.90 c-1.80 -0.25 -7.40 -0.45 -12.50 -0.40 -5.35 0.05 -12.40 -0.25 -16.75 -0.70 -4.10 -0.45 -11.20 -1 -15.75 -1.25 -8.75 -0.50 -11.80 -1.20 -16.55 -3.60 -7.70 -3.85 -18.45 -14.85 -26.05 -26.70 -4.35 -6.75 -9.95 -17.55 -11.40 -22 -4.10 -12.85 -5.35 -20.55 -4.50 -28 1.10 -9.60 2.35 -13.45 7.65 -23.85 5.55 -10.80 9.35 -16.05 15.50 -21.30 4.95 -4.25 9.10 -6.45 17.65 -9.30 4.40 -1.45 10.45 -3.60 13.45 -4.85 l5.50 -2.20 8.90 -0.15 c10.80 -0.20 23.40 0.60 26.65 1.70 1.30 0.45 3.55 1.55 4.90 2.50 1.40 0.95 3 1.70 3.60 1.70 2.25 0 11.10 2.60 14.65 4.25 2.05 1 5.55 3.25 7.75 5 2.25 1.75 5.95 4.60 8.30 6.35 5.80 4.30 10.35 8.65 12.35 11.80 0.90 1.40 2.65 5 3.85 8 1.20 2.95 3 7.15 4 9.35 1 2.20 2.15 5.70 2.55 7.75 0.45 2.05 1.25 5.45 1.75 7.50 2.95 11.70 2.45 31.40 -1.10 42.90 -3.15 10.25 -10.40 19.70 -18.15 23.65 -1.95 1 -5 2.85 -6.85 4.15 -8.80 6.20 -20.05 9.15 -29.40 7.70z m-52.75 -11.95 c-1.60 -0.50 -3.05 -0.80 -3.15 -0.70 -0.25 0.25 4.40 1.70 5.40 1.65 0.40 0 -0.60 -0.40 -2.25 -0.95z"/>
  <path d="M733.20 328.30 c-1.85 -0.80 -2.90 -3.20 -2.20 -5.05 0.25 -0.65 2.25 -2.70 4.50 -4.55 2.95 -2.40 3.95 -3.55 3.75 -4.15 -1.10 -2.75 -0.85 -3.75 2.05 -8.05 1.55 -2.35 5.40 -7.55 8.50 -11.60 6.95 -8.95 11.70 -16.15 13.90 -21 2 -4.35 6.30 -16.05 6.30 -17.15 0 -1.10 1.40 -3.70 2.95 -5.50 2.70 -3.15 4.50 -7.65 5.05 -12.85 0.80 -7.45 0.65 -9.85 -0.60 -12.25 l-1.10 -2.10 1.35 -2.90 c0.70 -1.60 1.45 -4 1.65 -5.40 0.40 -3.15 1.40 -5.65 2.90 -7.25 2.45 -2.60 4.10 -15 3.55 -26.55 -0.35 -7.20 -0.35 -7.30 0.85 -8.65 1.55 -1.85 4.40 -2 6.05 -0.40 1 1 1.15 1.75 1.35 7.75 0.40 9.35 -0.25 18.95 -1.75 25.45 -1.10 4.95 -1.15 5.65 -0.50 6.55 0.90 1.25 0.95 4.60 0.20 11.20 -0.65 6.10 -2.30 12.50 -4.85 19.15 -1.10 2.90 -2.40 6.95 -2.85 9 -2.15 9.30 -7.55 22.80 -9.90 24.80 -0.75 0.65 -1.80 1.20 -2.25 1.20 -0.80 0 -2.60 2.50 -2.60 3.55 0 0.25 0.40 0.45 0.90 0.45 1.65 0.05 3.60 2.35 3.60 4.40 0 1.30 -9.15 14.90 -13.90 20.60 -6.60 7.95 -23.20 22.40 -25.25 22 -0.05 -0.05 -0.80 -0.35 -1.65 -0.70z"/>
 </g>
</svg>