<?xml version="1.0" encoding="utf-8"?>
<!DOCTYPE svg PUBLIC "-//W3C//DTD SVG 1.0//EN" "http://www.w3.org/TR/2001/REC-SVG-20010904/DTD/svg10.dtd">
<svg version="1.0" xmlns="http://www.w3.org/2000/svg" width="626px" height="548px" viewBox="0 0 626 548" preserveAspectRatio="xMidYMid meet">
 <g fill="#d0eee8">
  <path d="M220.25 480 c0.15 -0.25 -0.05 -0.50 -0.45 -0.50 -0.45 0 -0.80 -0.35 -0.80 -0.75 0 -0.60 0.90 -0.75 5.25 -0.75 4.35 0 5.25 0.15 5.25 0.75 0 0.40 -0.35 0.75 -0.75 0.75 -0.40 0 -0.75 0.25 -0.75 0.50 0 0.30 -1.70 0.50 -4.05 0.50 -2.55 0 -3.90 -0.20 -3.70 -0.50z"/>
  <path d="M268.75 479 c0.15 -0.25 -0.05 -0.50 -0.45 -0.50 -0.45 0 -0.80 -0.35 -0.80 -0.75 0 -0.60 0.65 -0.75 2.75 -0.75 2.10 0 2.75 0.15 2.75 0.75 0 0.40 -0.35 0.75 -0.75 0.75 -0.40 0 -0.75 0.25 -0.75 0.50 0 0.30 -0.70 0.50 -1.55 0.50 -0.85 0 -1.40 -0.20 -1.20 -0.50z"/>
  <path d="M432.70 472.05 c0.15 -0.20 -0.30 -0.30 -0.95 -0.15 -1 0.15 -1.25 0 -1.25 -0.75 0 -0.85 0.55 -1.05 3.90 -1.55 4.95 -0.75 5.60 -0.75 5.60 0.15 0 0.40 -0.70 0.85 -1.75 1.05 -0.95 0.15 -1.75 0.50 -1.75 0.75 0 0.25 -0.35 0.30 -0.75 0.15 -0.40 -0.20 -0.75 -0.05 -0.75 0.25 0 0.30 -0.60 0.55 -1.30 0.55 -0.70 0 -1.15 -0.20 -1 -0.45z"/>
  <path d="M270 458.80 c0 -1.40 0.35 -2.60 0.95 -3.35 l0.90 -1.15 10.95 0.80 c6 0.45 11.35 1 11.85 1.15 0.60 0.25 0.85 0.90 0.85 2.55 l0 2.20 -12.75 0 -12.75 0 0 -2.20z"/>
  <path d="M230.85 457.50 c-1.15 -0.90 -1.40 -1.45 -1.25 -2.95 l0.15 -1.80 4.50 -0.15 c2.50 -0.05 5.85 0.05 7.50 0.25 l3 0.40 0.15 2.10 c0.20 2.50 0.30 2.45 -7.15 2.90 -5.20 0.30 -5.60 0.30 -6.90 -0.75z"/>
  <path d="M193.50 456.45 c-10.35 -0.80 -18.65 -1.90 -19.10 -2.55 -0.70 -1.05 -0.15 -5.85 0.75 -6.75 0.75 -0.75 1.30 -0.75 6.95 0.05 4.85 0.65 6.50 0.70 7.80 0.25 0.90 -0.30 2.35 -0.45 3.25 -0.30 3.85 0.55 14.15 2.95 14.65 3.40 0.95 0.80 1.80 3.25 1.60 4.75 l-0.15 1.45 -5 0.05 c-2.75 0.05 -7.60 -0.10 -10.75 -0.35z"/>
  <path d="M146.45 454.30 c-0.10 -0.10 -4.45 -0.45 -9.70 -0.80 -5.20 -0.35 -9.65 -0.75 -9.85 -0.95 -0.15 -0.15 -0.40 -2.55 -0.50 -5.30 l-0.15 -5 1.90 -0.15 c1.55 -0.15 1.85 0 1.85 0.80 0 0.85 0.60 1.05 4.90 1.60 2.65 0.30 9.60 0.75 15.35 0.90 l10.50 0.35 0.15 2.40 c0.15 2.05 0 2.55 -1.10 3.40 -0.70 0.55 -1.40 1.40 -1.55 1.95 -0.30 0.90 -0.80 1 -5.95 1 -3.10 0 -5.75 -0.10 -5.85 -0.20z"/>
  <path d="M109.50 451.20 c-1.80 -0.30 -7 -1.20 -8.60 -1.50 -1.20 -0.25 -1.40 -0.50 -1.40 -1.95 0 -1 0.50 -2.45 1.20 -3.50 0.70 -1 1.35 -2.45 1.55 -3.25 0.30 -1.35 0.50 -1.50 2.40 -1.50 1.15 0 3.20 0.35 4.55 0.75 1.35 0.40 3.45 0.75 4.70 0.75 l2.25 0 -0.35 3.05 c-0.15 1.70 -0.30 4.10 -0.30 5.25 l0 2.20 -2.35 -0.05 c-1.35 -0.05 -2.95 -0.15 -3.65 -0.25z"/>
  <path d="M86.55 435.90 c0 -0.90 0.20 -2.75 0.45 -4.15 0.20 -1.35 0.80 -4.90 1.25 -7.85 l0.90 -5.40 1.65 0 c1.30 0 1.70 0.20 1.70 0.95 0 0.50 1.35 2.15 3 3.70 l3 2.75 0 5.05 0 5.05 -2.25 0 c-1.25 0 -3.10 0.35 -4.10 0.75 -0.95 0.40 -2.65 0.75 -3.70 0.75 -1.85 0 -1.95 -0.05 -1.90 -1.60z"/>
  <path d="M541 430.50 c-0.40 -0.25 -1.45 -0.50 -2.35 -0.50 -1.50 0 -1.60 -0.15 -1.95 -2.25 -0.45 -3.15 -0.10 -3.75 2.20 -3.75 1.90 0 2 -0.10 3.10 -2.60 1.70 -4 2.20 -4.40 5.60 -4.40 l2.90 0 0 1.65 c0.05 0.95 -1 3.70 -2.60 6.95 -2.60 5.30 -2.65 5.35 -4.40 5.40 -0.95 0 -2.10 -0.25 -2.50 -0.50z"/>
  <path d="M562 418.25 c0 -1.60 0.20 -1.80 2.85 -3.10 2.70 -1.30 3 -1.60 4.05 -4.40 1 -2.55 1.65 -3.40 4.45 -5.50 3.85 -3 6.05 -5.60 6.75 -8.05 0.95 -3.55 -1.80 -11.45 -5.75 -16.45 -1.55 -1.95 -1.60 -2.10 -1.75 -8.10 -0.15 -5.35 -0.10 -6.15 0.60 -6.15 0.45 0 0.80 0.30 0.80 0.70 0 0.40 0.40 0.85 0.90 1 1.70 0.55 6.65 6 8.10 8.95 2 4 2.70 7.75 2.35 13.15 -0.30 4.90 -1.40 8.45 -4.70 14.80 -3.15 6.10 -7.65 10.10 -13.55 12.20 -1.50 0.55 -3.10 1.35 -3.60 1.85 -1.35 1.20 -1.50 1.10 -1.50 -0.90z"/>
  <path d="M59.45 412.15 c-0.05 -0.50 -0.10 -1.30 -0.10 -1.75 0 -0.50 -0.35 -0.90 -0.85 -0.90 -1.80 0 -3.25 -11.15 -2.80 -21.50 0.40 -10 0.80 -13 1.60 -13 0.40 0 0.80 -0.55 1 -1.25 0.15 -0.70 0.60 -1.25 0.95 -1.25 0.70 0 1.05 7.60 1.40 29.40 0.15 9.05 0.10 11.10 -0.50 11.10 -0.35 0 -0.70 -0.40 -0.70 -0.85z"/>
  <path d="M315 409.95 c0 -1.95 1.55 -4.65 6.10 -10.85 1.90 -2.60 3.70 -5.20 4 -5.85 1.05 -2.35 -1.35 -5.60 -4.70 -6.45 -1.20 -0.25 -1.40 -0.60 -1.40 -2.05 0 -1.55 0.15 -1.75 1.65 -2 0.85 -0.15 2.40 -0.20 3.35 -0.15 0.95 0.05 5.95 -0.10 11.15 -0.35 7.05 -0.30 9.35 -0.25 9.35 0.20 0 1.40 5.50 4.05 11.20 5.30 1.30 0.25 1.40 0.45 1.15 2.15 -0.10 1 -1.35 4.55 -2.70 7.85 -1.40 3.30 -3.05 7.65 -3.70 9.65 l-1.20 3.70 -13.25 -0.05 c-7.30 0 -15 0.10 -17.10 0.25 l-3.90 0.30 0 -1.65z"/>
  <path d="M296.25 407.75 c-2.45 -0.35 -9.95 -1.05 -16.60 -1.55 l-12.15 -0.90 0 -1.45 c0 -1.35 2.10 -5.05 4.65 -8.10 1.05 -1.25 1.85 -1.60 4.65 -2.05 5.80 -0.95 15.35 -3.15 17.45 -4.05 2.75 -1.15 3.60 -1.95 4.30 -4.10 0.35 -1 0.85 -1.95 1.15 -2.15 0.65 -0.45 13.80 -0.50 16.45 -0.10 1.80 0.30 1.85 0.40 1.80 2.40 0 1.60 -0.50 2.70 -2.25 5.05 -2.70 3.65 -9.65 14.05 -10.80 16.20 -1 1.80 -1.40 1.80 -8.65 0.80z"/>
  <path d="M362.20 407.30 c-0.75 -3.10 2.45 -11.80 6.30 -17.15 1.55 -2.10 2.45 -2.40 7.50 -2.65 0.40 0 3.25 -0.15 6.25 -0.25 3.20 -0.15 6.25 -0.55 7.25 -0.95 2.15 -0.95 10.35 -2.30 13.60 -2.30 2.40 0 2.40 0 2.40 1.65 0 0.85 -0.50 2.40 -1.10 3.35 -0.55 0.95 -2.50 4.60 -4.25 8.15 -3.05 6.15 -3.20 6.35 -4.75 6.35 -1.65 0 -9.25 1.20 -21.15 3.35 -3.85 0.70 -8.05 1.40 -9.35 1.50 -2.20 0.25 -2.35 0.20 -2.70 -1.05z"/>
  <path d="M246.75 403.95 c-2.20 -0.25 -6.35 -0.65 -9.25 -0.95 -5.90 -0.55 -6.65 -1.05 -6.40 -4 l0.15 -1.75 4.25 0 c2.35 0 5.25 -0.15 6.50 -0.35 1.25 -0.20 5.45 -0.50 9.40 -0.65 l7.10 -0.25 0 1.75 c0 1 -0.55 2.90 -1.25 4.25 l-1.25 2.50 -2.65 -0.05 c-1.40 -0.05 -4.40 -0.30 -6.60 -0.50z"/>
  <path d="M411.50 397.20 c0 -2.25 2.40 -6.55 5.50 -9.90 2.05 -2.20 2.25 -2.70 2.50 -5.45 l0.25 -3.05 2.50 -0.90 c3.45 -1.25 6.95 -1.15 9.15 0.20 2.15 1.30 6.70 1.35 14.70 0.15 2.80 -0.40 6.25 -0.75 7.75 -0.75 l2.65 0 0 1.75 c0 1.30 -0.75 2.90 -2.85 6.15 -3.70 5.55 -3.75 5.60 -5.90 5.60 -2 0 -25.65 6 -29.40 7.45 -0.80 0.30 -2.65 0.55 -4.15 0.55 l-2.70 0 0 -1.80z"/>
  <path d="M85.50 384.55 c0 -2.70 0.15 -5.65 0.30 -6.50 0.30 -1.40 0.50 -1.55 2.15 -1.55 1.40 0 2.20 0.35 3.20 1.40 1.85 1.90 1.75 3.75 -0.50 8.05 -1.70 3.35 -1.90 3.55 -3.50 3.55 l-1.65 0 0 -4.95z"/>
  <path d="M204.85 386.65 c-0.20 -0.15 -0.35 -1.05 -0.35 -1.95 0 -1.10 0.35 -1.80 1.15 -2.35 1.80 -1.15 2.60 -3.50 1.85 -5.30 -1.15 -2.80 -2.05 -3.20 -8.40 -3.60 -21.20 -1.50 -41.25 -3.35 -51.10 -4.70 -8.20 -1.15 -11.65 -1.70 -25 -4.20 -11.25 -2.05 -20.40 -4.65 -24.70 -6.95 l-2.40 -1.30 0.35 -2.80 c0.60 -5.10 0.50 -5.55 -1.45 -7.35 -2.60 -2.40 -2.50 -4.45 0.70 -11.05 4.85 -10.10 10.70 -17.30 19.50 -24.10 8.35 -6.40 9.60 -8.20 7.65 -11 -2.05 -3 -4 -3.20 -7.20 -0.90 -11.95 8.55 -20.70 17.80 -26.25 27.75 -1.65 2.90 -1.90 3.15 -3.50 3.15 l-1.70 0 0 -2.90 c0 -4.80 5.55 -42.30 8.55 -57.45 4.90 -25.15 10.20 -40.25 19.50 -55.65 4.40 -7.35 5 -8 6.90 -8 0.85 0 1.55 0.10 1.55 0.20 0 0.10 0.25 1.35 0.50 2.85 0.85 4.30 4 6.75 6.90 5.25 2 -1.05 3.10 -3.55 3.60 -8.45 0.50 -4.65 1.80 -9 4.25 -14.10 1.45 -3 2.05 -3.70 4.35 -5.10 4.05 -2.40 4.60 -3.20 4.80 -7.15 l0.20 -3.40 4.85 -4.80 c5.55 -5.50 12.10 -10.85 19.40 -15.80 2.85 -1.95 5.25 -3.50 5.40 -3.50 0.10 0 1.20 -0.65 2.40 -1.50 1.30 -0.85 2.90 -1.50 3.80 -1.50 1.65 0 2.10 0.70 0.75 1.20 -0.65 0.25 -0.50 0.60 0.80 1.90 0.85 0.85 2.25 2.75 3.10 4.25 2.35 4.20 2.85 3.85 7.45 -5.55 1.85 -3.75 4.10 -7.45 5.35 -8.85 2.10 -2.35 2.20 -3.60 0.10 -1.35 -0.55 0.60 -1 0.90 -1 0.70 0 -0.20 -0.35 0 -0.80 0.40 -0.40 0.45 -1.10 0.80 -1.50 0.80 -0.40 0 -0.70 0.20 -0.70 0.40 0 0.20 -0.45 0.40 -1 0.45 -0.60 0.05 -1 -0.20 -1 -0.70 0 -0.90 1.85 -2.65 2.85 -2.65 0.35 0 0.65 -0.20 0.65 -0.50 0 -0.25 0.55 -0.50 1.25 -0.50 0.80 0 1.25 -0.30 1.25 -0.75 0 -0.40 0.35 -0.75 0.75 -0.75 0.40 0 0.75 -0.20 0.75 -0.45 0 -0.25 0.40 -0.60 0.90 -0.75 0.50 -0.15 2.10 -1.10 3.60 -2.05 1.50 -0.95 3 -1.75 3.40 -1.75 0.35 0 1 -0.35 1.40 -0.75 1 -1 4.15 -1.50 4.85 -0.80 0.40 0.40 0.30 0.55 -0.35 0.55 -0.45 0 -0.70 0.20 -0.55 0.50 0.15 0.25 0 0.35 -0.40 0.20 -0.40 -0.15 -0.85 0.10 -1 0.50 -0.20 0.45 -0.75 0.80 -1.25 0.80 -0.55 0 -1.25 0.35 -1.65 0.80 -0.55 0.70 -0.45 0.75 1.35 0.35 3.30 -0.70 9.75 -0.40 12.65 0.55 2.65 0.85 2.75 0.85 4 -0.15 5.70 -4.50 13.20 -6.70 19.35 -5.65 2.25 0.40 3.70 0.15 11.75 -1.95 5.05 -1.30 10.45 -2.70 11.95 -3.10 1.50 -0.45 3.30 -0.95 4 -1.15 2 -0.55 2.45 -1.10 4.85 -5.90 2.90 -5.80 6 -10.60 8.35 -12.75 1 -0.95 1.80 -2.15 1.80 -2.65 0 -1.10 -0.65 -1.15 -1.70 -0.15 -0.50 0.50 -1.20 0.65 -2.05 0.45 -1.65 -0.40 -1.60 -1.60 0.15 -2 0.75 -0.15 2.05 -0.55 2.85 -0.85 1.70 -0.65 34.45 -0.85 36.90 -0.20 1.45 0.40 1.90 1.85 0.55 1.85 -0.50 0 -0.10 0.70 1.25 2.15 2.80 2.95 3.70 4.20 5.55 7.55 l1.65 2.90 9.80 -0.40 c13.65 -0.60 36.40 -0.30 45.05 0.60 4.55 0.45 8.65 1.20 11 1.95 6.70 2.20 16.10 7.35 28.25 15.40 3.85 2.55 8.95 5.75 21.50 13.50 9.40 5.80 14.40 10.90 19.45 19.85 1.35 2.35 3.60 5.95 5.05 8 3.20 4.60 6.70 10.45 9.35 15.65 1.60 3.25 2.35 4.15 4.20 5.25 6 3.55 8.75 5.60 12.20 9.10 2.05 2.10 4.80 4.40 6.10 5.15 3.35 1.95 6.90 5.65 8.75 9.10 1.45 2.85 3.15 8.25 3.15 10.25 0 0.50 1.90 2.50 4.40 4.65 8.70 7.50 12.55 11.60 16.70 17.90 2.65 4.05 3.40 4.70 3.40 2.95 0 -0.60 0.35 -1 0.90 -1 0.60 0 1.10 0.80 1.65 2.65 0.45 1.40 2.25 6.90 3.95 12.10 1.70 5.25 3.40 11.40 3.80 13.75 0.40 2.40 0.95 10.95 1.20 19.75 0.60 19.10 0.95 22.40 4 40.25 0.80 4.60 0.70 5 -1.05 5 -1.05 0 -2.15 -0.55 -3.35 -1.55 -1.40 -1.25 -2.05 -1.50 -3.30 -1.25 -0.80 0.20 -2.10 0.85 -2.80 1.50 -1.85 1.75 -11.40 7.60 -15.20 9.30 -4.10 1.85 -5.75 1.90 -7.35 0.20 -2.20 -2.35 -3.50 -2.75 -5.75 -1.75 -1.05 0.50 -3.90 1.15 -6.25 1.45 -2.35 0.30 -5.25 0.90 -6.50 1.30 -1.20 0.45 -2.60 0.80 -3.05 0.80 -0.80 0 -3.05 0.65 -10.70 3.05 -1.65 0.50 -3.65 0.95 -4.40 0.95 -0.75 0 -2 0.35 -2.75 0.75 -2.50 1.25 -15.20 4.45 -18.65 4.65 l-3.40 0.20 0 -1.50 c0 -0.80 0.25 -2.20 0.55 -3.10 1.15 -3.20 -2.20 -6.95 -5.35 -6.05 -0.80 0.25 -3.45 1.35 -5.95 2.40 -8.55 3.80 -29.45 11.35 -39.25 14.15 -1.25 0.35 -3.25 1 -4.50 1.40 -1.25 0.40 -3.90 0.85 -5.85 1 l-3.65 0.25 0 -2.10 c0 -2.40 -1.55 -5.75 -2.95 -6.55 -1.20 -0.65 -3.75 -0.65 -5.75 -0.05 -2.10 0.65 -22.15 4.05 -26.80 4.55 -2.05 0.25 -5.30 0.70 -7.25 1 -8.75 1.45 -24.35 2.30 -54.50 3 -12.90 0.25 -29.70 0.75 -37.25 1.05 -8.70 0.35 -19.30 0.45 -28.75 0.20 -20.15 -0.50 -18.60 -0.60 -20.35 1.10 -0.85 0.75 -1.70 1.85 -1.90 2.40 -0.45 1.15 0.40 3.05 1.95 4.45 0.70 0.65 1.05 1.55 1.05 2.90 l0 1.90 -5.90 0 c-3.25 0 -6.10 -0.15 -6.25 -0.35z m257.65 -125.45 c1.10 -6.95 1.95 -11.85 3.55 -20.35 1.20 -6.10 1.20 -6.05 -2.40 -8.10 -4 -2.20 -3.75 -3.15 -3.40 14.40 0.25 14.80 0.60 21.20 1.05 20.75 0.10 -0.10 0.65 -3.10 1.20 -6.70z"/>
  <path d="M465.35 385.45 c-0.50 -0.65 -0.85 -1.45 -0.85 -1.80 0 -0.35 -0.65 -1.40 -1.50 -2.30 -1.05 -1.20 -1.50 -2.25 -1.50 -3.45 0 -1.70 0.10 -1.80 2.40 -2.30 1.30 -0.25 6.65 -1.60 11.95 -2.90 9.50 -2.35 9.65 -2.40 13.25 -1.80 2.40 0.40 5.75 0.50 9.80 0.30 l6.10 -0.35 0 2.05 c0 1.10 -0.25 2.20 -0.55 2.40 -0.90 0.55 -4.95 7.05 -4.95 8 0 0.70 -0.35 0.80 -2.45 0.55 -1.35 -0.15 -4.30 0.05 -6.60 0.45 -2.30 0.40 -7 0.95 -10.45 1.20 -3.45 0.25 -7.95 0.60 -10.05 0.80 -3.60 0.30 -3.85 0.25 -4.60 -0.85z"/>
  <path d="M125.50 380.80 c-3.45 -0.55 -6.55 -1.25 -6.85 -1.45 -0.35 -0.25 -0.65 -1.20 -0.65 -2.15 l0 -1.70 4.40 0 c2.40 0 6.75 0.40 9.75 0.85 l5.35 0.90 0 1.60 c0 1.15 -0.25 1.65 -0.75 1.65 -0.40 0 -0.75 0.35 -0.75 0.75 0 1 -2.65 0.90 -10.50 -0.45z"/>
  <path d="M516.80 373.70 c-0.15 -1.30 -0.30 -3.10 -0.30 -4 0 -1.55 0.15 -1.70 2.15 -2.20 5.75 -1.45 14.05 -4.30 18.10 -6.30 5.10 -2.45 14.35 -8.15 16.30 -10 0.70 -0.65 1.70 -1.20 2.25 -1.20 0.80 0 0.95 0.35 1 2.40 0.05 3.15 1.20 8.75 1.90 9.20 0.90 0.65 1.80 0.45 1.80 -0.35 0 -0.40 0.35 -0.75 0.75 -0.75 0.60 0 0.75 0.85 0.75 4.50 l0 4.50 -2.70 0 c-2.25 0 -2.80 -0.15 -3.05 -1 -0.40 -1.30 -3.10 -3.50 -4.30 -3.50 -0.50 0 -1.80 0.75 -2.80 1.70 -1.70 1.50 -2.35 1.70 -5.65 2 -8.60 0.80 -16.65 2.90 -19.90 5.25 -0.85 0.60 -1.75 1.05 -2.05 1.05 -0.30 0 -0.55 0.25 -0.55 0.50 0 0.30 -0.75 0.50 -1.70 0.50 -1.60 0 -1.70 -0.10 -2 -2.30z"/>
  <path d="M210.50 118.70 c0 -0.60 1.70 -1.65 2.65 -1.70 0.50 0 0.85 -0.40 0.85 -1 0 -0.65 -0.25 -0.90 -0.75 -0.70 -0.50 0.20 -0.75 0 -0.75 -0.75 0 -1.30 1.65 -2 5.40 -2.40 l2.60 -0.30 0 1.75 c0 1.45 -0.25 1.85 -1.75 2.55 -0.95 0.45 -1.75 1.05 -1.75 1.35 0 0.25 -0.55 0.50 -1.25 0.50 -0.70 0 -1.25 0.25 -1.25 0.50 0 0.30 -0.90 0.50 -2 0.50 -1.10 0 -2 -0.15 -2 -0.30z"/>
  <path d="M423.75 109 c-0.15 -0.25 -1 -0.50 -1.80 -0.50 -1.85 0 -5.45 -1.80 -5.45 -2.70 0 -0.40 -0.80 -0.85 -1.85 -1 -3.50 -0.65 -3.65 -0.75 -3.65 -2.60 0 -1.50 0.15 -1.70 1.30 -1.70 1.85 0 5.70 1.05 5.70 1.55 0 0.25 0.60 0.45 1.40 0.45 1.50 0 4.60 1.70 4.60 2.50 0 0.25 0.55 0.50 1.20 0.50 2.20 0 2.80 0.50 2.80 2.30 0 1.65 -0.05 1.70 -1.95 1.70 -1.10 0 -2.15 -0.20 -2.30 -0.50z"/>
  <path d="M336.50 102 c0 -0.25 -0.35 -0.50 -0.75 -0.50 -0.40 0 -0.75 -0.35 -0.75 -0.75 0 -0.60 0.70 -0.75 3.50 -0.75 2.80 0 3.50 0.15 3.50 0.75 0 0.40 -0.30 0.75 -0.70 0.75 -0.40 0 -0.85 0.30 -0.95 0.65 -0.20 0.45 -0.40 0.40 -0.80 -0.15 -0.35 -0.50 -0.55 -0.55 -0.55 -0.10 0 0.30 -0.55 0.60 -1.25 0.60 -0.70 0 -1.25 -0.20 -1.25 -0.50z"/>
 </g>
 <g fill="#6cd2e8">
  <path d="M291 460.25 c0 -0.70 0.85 -1 2.40 -0.80 0.90 0.15 0.75 -1.30 -0.25 -1.65 -0.45 -0.20 -5.10 -0.65 -10.30 -1.05 -7.05 -0.60 -9.65 -0.60 -10.15 -0.20 -0.40 0.30 -0.55 0.75 -0.40 1 0.15 0.25 0 0.45 -0.25 0.45 -0.30 0 -0.55 0.35 -0.55 0.75 0 0.40 -0.20 0.75 -0.50 0.75 -0.30 0 -0.50 -1.35 -0.50 -3.05 0 -2.80 -0.15 -3.20 -1.70 -4.75 -0.95 -0.95 -2.05 -1.70 -2.50 -1.70 -0.45 0 -2.15 0.70 -3.80 1.50 -3.40 1.70 -7.20 2.05 -7.70 0.70 -0.15 -0.45 -0.30 -3.50 -0.30 -6.85 0 -4.65 0.30 -7.35 1.20 -11.35 2.80 -12.20 10.35 -31 12.80 -31.75 1.35 -0.40 1.85 0 1.10 0.90 -0.50 0.55 -0.25 0.70 1.30 0.75 3.15 0.10 21.80 1.60 22.85 1.80 0.55 0.15 2.60 0.40 4.50 0.55 1.95 0.20 3.60 0.45 3.70 0.55 0.10 0.10 0.65 -0.15 1.15 -0.65 0.85 -0.75 0.90 -0.75 0.90 0.70 0 0.85 -0.90 3.50 -2.05 5.95 -2.90 6.25 -5.20 13.35 -6.75 20.95 -2.25 11.05 -1.70 17.05 2 21.90 1 1.30 1.30 2.25 1.20 3.45 l-0.15 1.65 -3.60 0.15 c-3 0.10 -3.65 0 -3.65 -0.65z"/>
  <path d="M321.70 457.25 c-1.85 -2.45 -2.85 -2.90 -7.50 -3.25 -4.60 -0.35 -8.50 -2.05 -9.55 -4.05 -2.10 -4 0.95 -21.80 5.45 -32.20 3 -7 5 -10.25 6.25 -10.25 1.30 0 1.35 0.15 0.65 1.50 -0.45 0.80 -0.30 0.90 1.90 0.70 1.30 -0.15 8.30 -0.20 15.60 -0.15 l13.25 0.05 0.50 -1.65 c0.70 -2.35 1.75 -2.50 1.75 -0.25 0 1 -0.20 1.80 -0.45 1.80 -0.25 0 -0.55 0.75 -0.65 1.65 -0.15 0.85 -1.05 4.65 -2.05 8.35 -1.80 6.80 -3.35 15.70 -3.35 19.40 0 3.55 1.45 9.25 3.30 12.90 1.10 2.25 1.70 4.10 1.60 5 l-0.15 1.45 -5.25 0.30 c-2.90 0.20 -8.55 0.35 -12.60 0.40 l-7.35 0.05 -1.35 -1.75z"/>
  <path d="M362.25 454.90 c-7.10 -5.05 -8.25 -7.30 -8.25 -16.10 0 -8.45 1.45 -15.65 5.85 -28.90 2 -5.90 2.60 -7.20 3.40 -7.30 0.80 -0.10 1.05 0.15 1 1 0 0.65 -0.15 1.40 -0.35 1.65 -0.20 0.30 -0.20 0.80 0 1.10 0.25 0.40 1.60 0.30 4.85 -0.35 2.50 -0.50 6.85 -1.30 9.75 -1.70 2.90 -0.45 7.15 -1.15 9.50 -1.55 2.35 -0.40 5 -0.75 5.90 -0.75 1 0 1.75 -0.30 1.90 -0.75 0.20 -0.40 0.55 -0.75 0.80 -0.75 0.85 0 0.10 4 -1.55 8.50 -4.85 12.85 -6.55 27.35 -4.05 34.50 0.60 1.80 1.75 4.20 2.55 5.40 1.50 2.20 2 5.70 0.90 6.35 -0.55 0.35 -2.40 0.60 -15.45 1.95 -11.95 1.25 -11.65 1.30 -16.75 -2.30z"/>
  <path d="M243 456 c1.45 -0.90 -0.25 -1.50 -5.35 -1.80 -5.65 -0.40 -7.15 -0.15 -6.15 1.05 0.55 0.65 0.40 0.75 -0.95 0.75 -0.85 0 -1.95 -0.20 -2.45 -0.45 -0.45 -0.30 -2.05 -0.85 -3.50 -1.35 -2.95 -0.90 -5.70 -3 -7 -5.40 -0.65 -1.20 -0.80 -2.85 -0.80 -7.30 0.05 -7.70 1.50 -14.55 6.25 -29.60 1.85 -5.70 2.15 -6.35 3.50 -6.90 2 -0.85 3.85 -3.15 4.25 -5.30 0.15 -0.95 0.70 -1.90 1.15 -2.15 0.45 -0.20 3.55 -0.55 6.95 -0.75 5.65 -0.25 6.10 -0.20 6.10 0.60 0 1 -0.20 1.05 -6.15 1.30 -2.45 0.10 -4.55 0.35 -4.70 0.50 -0.20 0.15 -0.55 0.30 -0.85 0.30 -0.30 0 -0.20 -0.25 0.20 -0.50 0.40 -0.25 0.50 -0.50 0.20 -0.50 -0.90 0 -1.20 0.60 -0.70 1.50 0.50 0.95 2.30 1.35 8.50 1.75 2.35 0.15 6.15 0.55 8.50 0.80 3.65 0.45 4.30 0.40 4.80 -0.25 0.30 -0.45 0.70 -0.80 0.90 -0.80 0.90 0 0.05 3.35 -2.15 8.55 -5.75 13.50 -9.15 26.25 -9.25 34.45 0 2.90 0.15 6.75 0.40 8.65 l0.45 3.35 -1.45 0 c-1.10 0 -1.25 -0.15 -0.70 -0.50z"/>
  <path d="M206.50 452.50 c-0.55 -0.70 -2.50 -1.35 -7 -2.30 -3.45 -0.70 -6.60 -1.30 -7 -1.25 -0.40 0 -2 0.15 -3.50 0.30 -1.50 0.15 -4.75 0 -7.25 -0.40 -4.95 -0.75 -5.50 -0.60 -6 1.70 -0.20 0.80 -0.65 1.45 -1.05 1.45 -1.05 0 -0.90 -7.45 0.30 -15 1.95 -12 8.25 -38.65 9.40 -39.85 0.60 -0.60 3.10 -0.65 16.05 -0.40 8.40 0.20 15.60 0.40 15.95 0.50 0.70 0.25 0.85 4.55 0.10 5 -0.60 0.35 -5.40 15.35 -7.25 22.50 -2.80 10.90 -3.40 18 -2 23.40 1.25 4.70 0.90 6.50 -0.75 4.35z"/>
  <path d="M126 447.25 c0 -5.55 0.85 -12.20 2.55 -20.15 1.30 -5.90 5.50 -18.85 7.40 -22.60 l1.35 -2.75 3.20 -0.30 c3.70 -0.35 5.15 -1.60 6.10 -5.25 0.70 -2.65 -0.25 -2.55 14.45 -1.45 13.25 0.95 12.60 0.80 12.30 3.40 -0.10 1.15 -0.80 4.25 -1.50 6.85 -3.35 12.75 -7 30.65 -7.90 39.10 -0.65 6.40 -0.65 6.40 -4.45 6.40 -1.60 -0.05 -1.65 -0.10 -0.85 -0.75 0.50 -0.35 0.85 -1.10 0.75 -1.60 -0.15 -0.80 -1.05 -0.95 -10.65 -1.25 -5.80 -0.15 -12.60 -0.55 -15.10 -0.90 -2.55 -0.30 -4.85 -0.45 -5.15 -0.25 -0.85 0.50 -0.60 5.25 0.25 5.55 1.35 0.55 0.80 1.20 -1 1.20 l-1.75 0 0 -5.25z"/>
  <path d="M408.90 450.35 c-2.30 -1 -6.80 -5 -7.75 -6.85 -0.75 -1.50 -0.90 -2.90 -0.85 -9.25 0.10 -10.65 2.05 -19.10 6.75 -29.85 3.05 -7 3.95 -8.40 5.30 -8.40 0.80 0 1.05 0.20 0.85 0.75 -0.40 1 1.60 1 4.15 0.05 1.05 -0.40 4.50 -1.40 7.65 -2.25 16.65 -4.45 21.50 -5.60 22.35 -5.45 0.50 0.10 1.40 -0.35 2 -1.10 l1.15 -1.25 0 1.65 c0 0.90 -0.45 2.55 -1.05 3.65 -1.10 2.25 -3.20 9.95 -5.20 19.20 -3.20 14.90 -4 24.15 -2.50 29.05 0.40 1.35 0.75 3.30 0.75 4.30 0 2 0.10 1.95 -4 2.65 -0.95 0.15 -3 0.50 -4.50 0.75 -7.60 1.15 -10 1.60 -12.65 2.25 -3.50 0.90 -10.55 0.95 -12.45 0.10z"/>
  <path d="M114.20 444 c0.15 -0.90 0.10 -1.45 -0.20 -1.25 -0.35 0.25 -3.05 -0.25 -8.85 -1.60 -0.85 -0.20 -1.15 -0.05 -1.15 0.55 0 1.50 -1.50 0.80 -2.25 -1.05 -1.05 -2.55 -1.95 -3.40 -4.25 -4.15 -1.95 -0.65 -2.80 -2 -1.25 -2 0.60 0 0.75 -0.75 0.75 -3.55 l0 -3.55 -2.85 -2.65 c-2.75 -2.55 -2.90 -2.65 -3.20 -1.55 -0.15 0.60 -0.55 1.60 -0.90 2.15 -0.35 0.75 -0.40 1.20 -0.05 1.40 0.60 0.40 0.10 2.70 -0.80 3.80 -0.80 0.90 -0.95 1.65 -0.25 1.25 0.25 -0.20 0.20 0.25 -0.10 0.95 -0.70 1.45 -1.85 1.65 -1.85 0.35 0 -1.55 1.50 -11.75 1.95 -13.35 0.25 -0.80 0.95 -3.65 1.55 -6.25 1.25 -5.25 4.65 -14.55 8.25 -22.70 2.80 -6.25 2.50 -6.15 10.20 -3.85 5.40 1.60 16.65 4.05 18.70 4.05 2.35 0 2.85 0.50 2.85 2.60 0 1.20 -0.40 2.55 -1.05 3.45 -1.60 2.30 -5.20 10.25 -6.90 15.45 -3.25 9.75 -6.55 25.25 -6.55 30.65 0 2.05 -0.15 2.35 -1.05 2.35 -0.95 0 -1.05 -0.20 -0.75 -1.50z"/>
  <path d="M453 442.75 c-1.25 -1.30 -1.25 -1.40 -1.20 -10.40 0 -9.80 0.20 -11.30 3.90 -27.20 2.10 -9.10 2.35 -9.70 6 -15.30 1.55 -2.40 2.95 -5 3.10 -5.85 0.40 -1.80 0.60 -1.85 1.95 -0.25 l1 1.20 6 -0.50 c3.30 -0.25 8.70 -0.85 12 -1.35 3.30 -0.45 7.40 -0.85 9.15 -0.85 2.40 0 3.10 -0.15 3.10 -0.75 0.05 -0.80 1.15 -2.50 1.70 -2.50 0.15 0 0.30 0.80 0.30 1.75 0 0.95 -0.20 1.75 -0.50 1.75 -0.25 0 -0.50 0.50 -0.50 1.15 0 0.65 -0.55 2.85 -1.25 4.90 -2.30 6.65 -6.30 20.85 -7.55 26.85 -1.30 6.20 -1.60 12.65 -0.70 15.60 0.60 2 0.65 5.50 0.15 5.55 -8.15 0.75 -10.70 1.30 -15.90 3.40 -7.10 2.95 -9.65 3.55 -15.50 3.90 -3.85 0.20 -4.05 0.15 -5.25 -1.10z"/>
  <path d="M502.15 433.50 c-2.25 -0.90 -2.90 -2.80 -2.85 -8.50 0 -7.05 1.20 -12.35 6.95 -31.75 2.40 -7.95 3.55 -10.40 6.85 -14.25 3.30 -3.90 3.90 -4.95 3.90 -6.95 0 -0.85 0.15 -1.55 0.40 -1.55 0.65 0 1.55 1.85 1.40 2.80 -0.10 0.55 -0.05 0.65 0.05 0.30 0.15 -0.35 0.45 -0.50 0.70 -0.30 0.25 0.15 1.15 -0.25 2 -0.80 3.35 -2.40 11.35 -4.50 19.95 -5.25 2.25 -0.20 4.10 -0.65 4.65 -1.15 1.60 -1.45 1 1.80 -1.45 7.40 -7.05 16.30 -14.80 37.40 -17.20 46.85 -0.45 1.75 -0.90 2.35 -2.50 3.15 -2 1.05 -3.50 3.15 -3.50 4.95 0 1.30 -0.85 1.75 -5.75 2.95 -2.20 0.55 -5.25 1.35 -6.75 1.80 -3.05 0.85 -5.20 0.95 -6.85 0.30z"/>
  <path d="M536.70 426.05 c0.40 -4.80 2.35 -11.80 6.10 -21.85 1.50 -4.10 3.15 -8.55 3.70 -9.95 0.50 -1.35 2.95 -7.45 5.45 -13.50 2.75 -6.55 4.55 -11.70 4.55 -12.75 0.05 -1.55 0.10 -1.65 0.70 -0.85 0.80 1.05 2.80 1.15 2.80 0.10 0 -0.40 0.35 -0.75 0.75 -0.75 1.60 0 0.65 16.10 -1.40 25 -1.20 5.15 -5.10 18.25 -6.95 23.50 -1.40 3.85 -1.90 4.80 -2.80 4.90 -0.80 0.15 -1 -0.05 -0.80 -0.60 0.25 -0.60 -0.05 -0.80 -1.15 -0.80 -1.80 0 -2.70 0.95 -4.15 4.40 -0.75 1.75 -1.65 2.90 -2.55 3.40 -1.55 0.75 -1.95 2.20 -0.70 2.20 0.40 0 0.75 0.35 0.75 0.75 0 0.55 -0.60 0.75 -2.30 0.75 l-2.35 0 0.35 -3.95z"/>
  <path d="M569.50 410.15 c0 -0.80 0.40 -2.75 0.90 -4.40 0.60 -1.85 0.80 -3.40 0.55 -4 -0.55 -1.35 -0.50 -7.10 0 -12.50 0.25 -2.45 0.60 -7.15 0.80 -10.35 0.30 -5.20 0.45 -5.90 1.25 -5.90 0.65 0 0.95 0.50 1.10 2.20 0.20 1.40 0.80 2.85 1.80 4.10 3.95 5 6.45 12.45 5.95 17.55 -0.35 3.60 -2 5.90 -6.70 9.55 -2 1.55 -3.75 3.35 -3.95 4 -0.45 1.60 -1.70 1.40 -1.70 -0.25z"/>
  <path d="M314.50 389.05 c0 -0.20 0.45 -1 1 -1.70 1.35 -1.70 1.25 -2.35 -0.35 -2.40 -0.80 -0.05 -1.60 -0.10 -1.90 -0.20 -0.25 -0.05 -0.90 -0.15 -1.35 -0.15 -0.50 -0.05 -0.90 -0.45 -0.90 -0.85 0 -0.55 0.60 -0.75 2.40 -0.75 1.35 0 4.15 -0.15 6.15 -0.30 3.25 -0.30 3.85 -0.20 4.70 0.60 0.90 0.95 0.90 0.95 -0.15 1.10 -1.35 0.20 -1.40 0.90 -0.10 1.70 1.60 1 1.15 1.50 -1.10 1.30 -2.15 -0.15 -5.40 0.85 -5.40 1.65 0 0.25 -0.65 0.45 -1.50 0.45 -0.80 0 -1.50 -0.20 -1.50 -0.45z"/>
  <path d="M384.40 388.65 c-0.50 -0.10 -0.90 -0.60 -0.90 -1.10 0 -0.75 0.60 -0.95 3.05 -1.25 4.45 -0.45 4.95 -0.40 4.95 0.50 0 1.45 -4.30 2.60 -7.10 1.85z"/>
  <path d="M143.50 383.50 c-1.25 -0.25 -4.30 -0.70 -6.85 -1.05 -3.75 -0.50 -4.65 -0.80 -4.85 -1.55 -0.20 -0.80 0 -0.90 1.25 -0.70 1.20 0.20 1.50 0.05 1.35 -0.60 -0.10 -0.45 -0.40 -0.85 -0.65 -0.90 -0.95 -0.10 -2.25 -0.80 -2.25 -1.25 0 -0.70 3.10 -0.55 10.50 0.50 3.70 0.55 8.90 1.25 11.50 1.55 9 1.05 8.50 0.85 8.50 2.80 l0 1.65 -8.10 -0.05 c-4.50 0 -9.15 -0.20 -10.40 -0.40z"/>
  <path d="M421.30 108.40 c-1.05 -1.50 -1 -2.05 0.20 -1.65 0.55 0.20 1 0.10 1 -0.20 0 -0.30 -0.45 -0.80 -1 -1.15 -0.55 -0.35 -1 -0.80 -1 -1 0 -0.60 2.70 -0.50 4.35 0.15 1.75 0.65 2.15 1.25 2.15 3.35 0 1.60 0 1.60 -2.45 1.60 -2 0 -2.65 -0.20 -3.25 -1.10z"/>
  <path d="M416.50 106.55 c0 -0.25 -0.80 -0.75 -1.75 -1.15 -1.65 -0.55 -1.80 -0.75 -1.65 -2.40 0.15 -1.60 0.30 -1.75 1.85 -1.90 0.90 -0.10 1.90 0.05 2.20 0.35 0.30 0.30 0.95 0.55 1.45 0.55 0.50 0 0.90 0.20 0.90 0.45 0 0.25 0.15 0.80 0.30 1.20 0.20 0.60 0 0.70 -0.75 0.50 -1.35 -0.35 -1.35 0.65 -0.05 1.35 1.55 0.80 1.20 1.50 -0.75 1.50 -0.95 0 -1.75 -0.20 -1.75 -0.45z"/>
 </g>
 <g fill="#000000">
  <path d="M181.50 479.60 c-1.80 -0.20 -3.85 -0.75 -4.60 -1.25 -1.35 -0.95 -2.90 -3.60 -2.90 -5.05 0 -0.45 -0.40 -0.80 -0.85 -0.80 -0.50 0 -4.15 -0.25 -8.15 -0.50 -4 -0.25 -10.90 -0.65 -15.35 -0.80 l-8.10 -0.35 -1.55 1.35 c-3.15 2.60 -7.20 2.45 -13.05 -0.65 -3.25 -1.70 -4.45 -2.05 -6.70 -2.05 -3.90 0 -15.90 -1.35 -22.75 -2.55 -6.20 -1.15 -15.70 -3.85 -19.30 -5.55 -2.40 -1.10 -2.80 -1 -3.90 1.15 -0.85 1.75 -3.70 3.45 -5.75 3.45 -2.10 0 -4.65 -1.40 -5.85 -3.25 -0.90 -1.40 -2.15 -18.95 -3.20 -45 -1.25 -32.15 -1.10 -117.15 0.25 -133.75 0.15 -1.50 0.60 -7.25 1 -12.75 1.55 -20.15 4.10 -36.65 7 -45.55 3.25 -9.95 10 -21 13.90 -22.85 3.05 -1.45 6.30 -0.75 8.05 1.75 0.45 0.60 0.85 1 0.95 0.85 0.10 -0.10 1.90 -3.30 4.05 -7.10 4.15 -7.35 10.45 -17 13.75 -21.10 1.10 -1.35 3.30 -4.75 4.85 -7.50 10.65 -18.70 17.60 -27.50 27.95 -35.25 3.85 -2.90 13.70 -8.05 26.75 -14 3.15 -1.45 9.70 -4.50 14.50 -6.75 13.30 -6.25 26.30 -11.35 36.25 -14.20 1.95 -0.55 5.85 -1.70 8.75 -2.55 2.90 -0.80 5.70 -1.60 6.25 -1.75 0.55 -0.15 2.60 -0.70 4.50 -1.25 1.95 -0.50 4.85 -1.35 6.50 -1.80 1.65 -0.45 3.35 -0.90 3.75 -1 3.65 -1.05 14.60 -3.75 16 -3.95 0.95 -0.15 3 -0.50 4.50 -0.80 1.65 -0.35 9.30 -0.65 19.50 -0.70 9.20 -0.10 17.30 -0.25 18 -0.40 2.50 -0.55 7.95 -1.35 8.35 -1.25 0.20 0.05 1.20 -0.10 2.15 -0.30 4.15 -0.80 9.20 -0.95 33.50 -1.15 16.70 -0.15 27.70 0 31.25 0.35 12.05 1.20 30.70 4.80 38.25 7.30 4.25 1.45 46.65 22.40 52.90 26.15 6.55 3.90 9.50 6.85 20.35 20.10 3 3.70 8.85 10.05 12.95 14.10 13.80 13.80 14.55 14.85 23.50 32.60 3.45 6.90 8.15 15.45 10.50 19 5 7.70 9.20 15 10.65 18.50 1.25 3 1.80 5.90 3.15 16.45 1.25 9.75 1.95 12.50 4.60 18.45 4 9.05 5.80 15.55 10.40 36.95 3.20 15.15 4.30 21.70 5.25 31.65 0.85 8.85 0.95 27.20 0.25 35.05 -0.25 2.75 -0.50 7.35 -0.55 10.25 -0.05 2.85 -0.25 6.90 -0.50 8.95 -1.20 11.95 -1.55 19.50 -0.90 21.95 0.55 2.20 0.50 2.85 -0.55 6.65 -2.05 7.30 -2.65 8.30 -5.60 9.60 l-2.65 1.20 -2.15 5.15 c-2.85 6.90 -5.50 11.45 -7.65 12.85 -1.45 1.05 -2.10 1.15 -4.55 0.85 -2.30 -0.25 -2.90 -0.15 -2.90 0.40 0 1.15 -1.95 3.30 -3.85 4.25 l-1.75 0.90 1.15 1.40 c0.65 0.75 2.75 2.40 4.70 3.70 5.05 3.40 6.25 6.20 4.25 10.10 -2.55 4.95 -7.15 4.60 -14.90 -1.25 l-3.10 -2.35 -3.10 0.35 c-1.75 0.15 -3.60 0.40 -4.15 0.50 -0.55 0.15 -2.45 0.35 -4.25 0.50 -4.60 0.35 -15.10 1.75 -16 2.05 -0.40 0.15 -1.50 0.40 -2.40 0.50 -2.75 0.35 -7.50 2.10 -12.90 4.70 -4.35 2.15 -7.45 3.25 -11.95 4.30 -0.55 0.10 -2.10 0.35 -3.50 0.45 -1.35 0.15 -3.40 0.35 -4.50 0.50 -1.10 0.15 -6.50 0.60 -12 1 -11.05 0.85 -14.80 1.25 -26.25 3.05 -8.90 1.35 -21.05 2.05 -41.75 2.40 -7.95 0.15 -15.85 0.45 -17.50 0.70 -1.65 0.30 -7.05 0.65 -12 0.80 -16.15 0.55 -22.95 0.80 -26.75 1.05 -2.05 0.15 -10.40 0.35 -18.50 0.50 -8.10 0.15 -15.65 0.35 -16.75 0.50 -1.10 0.15 -7.30 0.35 -13.75 0.50 -6.45 0.15 -14.35 0.35 -17.50 0.50 -15.10 0.70 -81 1.35 -86 0.85z m115.15 -20.45 c0.20 -0.15 -0.25 -1.10 -0.95 -2.05 -3.35 -4.30 -4.25 -10.30 -3 -19 2.40 -16.20 7.90 -29.85 17.50 -43.25 4.10 -5.75 5.70 -7.55 7.65 -8.55 2.95 -1.50 6.90 -0.60 8.20 1.75 2.05 3.85 1.50 5.85 -3.35 12.45 -9.35 12.70 -14.40 24.30 -16.45 37.80 -1.35 9 -1 10.55 2.95 12.60 1.75 0.90 3.60 1.35 6.50 1.60 4.70 0.40 5.65 0.80 7.55 3.30 l1.40 1.85 10.75 -0.35 c5.95 -0.20 10.95 -0.45 11.15 -0.60 0.20 -0.10 -0.40 -1.70 -1.35 -3.60 -3.15 -6.20 -3.85 -13.10 -2.45 -23.05 1.45 -9.70 6.10 -25.35 10.80 -36.15 l1.90 -4.40 -1.35 -0.30 c-5.70 -1.25 -8.40 -2.45 -10.50 -4.60 l-1.30 -1.25 -9.55 0.50 c-5.20 0.30 -14.20 0.60 -20 0.60 -5.75 0.05 -10.85 0.20 -11.35 0.35 -0.45 0.15 -0.95 0.85 -1.15 1.60 -0.80 3.35 -3.85 5.30 -10 6.40 -0.80 0.15 -2.40 0.50 -3.50 0.75 -2.70 0.65 -3.40 0.80 -7.95 1.55 -3.90 0.65 -3.95 0.70 -6.15 3.40 -3.10 3.85 -9.15 16.45 -11.90 24.75 -3.35 10 -4.75 16.55 -4.75 22.10 0 6.95 0.15 7.10 5.15 4.60 5.05 -2.60 8.40 -1.90 10.50 2.10 0.90 1.65 0.90 3.55 0.05 6.35 l-0.30 1.10 12.45 0 c6.85 0 12.65 -0.15 12.80 -0.35z m-55 -2.90 c0.80 -0.10 1.55 -0.30 1.65 -0.40 0.15 -0.15 0 -1.75 -0.35 -3.65 -0.90 -5.15 -0.30 -13.75 1.50 -20.95 2.45 -10.05 6.60 -21.40 10.80 -29.70 0.95 -1.95 1.75 -3.65 1.75 -3.80 0 -0.15 -0.60 -0.15 -1.30 -0.05 -0.70 0.15 -6.05 0.40 -11.85 0.55 -5.85 0.20 -10.75 0.45 -10.90 0.55 -0.20 0.10 -0.45 1.05 -0.65 2.15 -0.35 2.30 -2.15 4.65 -4.25 5.55 -1.35 0.55 -1.65 1.20 -3.50 6.90 -4.45 14 -6.20 21.85 -6.20 28.10 -0.05 4.85 0.55 6.45 3.35 8.90 0.95 0.85 3.05 1.95 4.65 2.40 1.60 0.50 3.90 1.65 5.10 2.55 2.35 1.75 3 1.80 10.20 0.90z m137.80 -0.75 c1.45 -0.25 2.85 -0.40 3.05 -0.25 0.25 0.15 0.95 0.05 1.60 -0.20 0.65 -0.25 2.80 -0.55 4.80 -0.70 5.25 -0.45 5.40 -0.60 3.15 -3.95 -2.80 -4.15 -3.70 -7.90 -3.70 -15.15 0 -14.60 4.40 -29.50 13.50 -45.75 2.50 -4.50 2.60 -4.45 -5.10 -3 -3 0.55 -6.50 1.15 -7.75 1.25 -1.25 0.15 -4.05 0.50 -6.25 0.80 -3.70 0.55 -7.45 0.85 -10.10 0.95 -2.40 0.05 -6.75 8.20 -10.85 20.50 -4.55 13.65 -6.30 21.70 -6.30 28.80 0 7.10 1.50 9.80 8.15 14.50 l4.25 3.05 4.40 -0.20 c2.45 -0.10 5.65 -0.40 7.15 -0.65z m-171.85 -0.30 c0.20 -0.15 -0.30 -1.55 -1 -3.10 -1.10 -2.40 -1.35 -3.75 -1.50 -8.60 -0.25 -6.30 0.25 -10.50 2.20 -18.50 1.70 -6.85 6.55 -22.35 7.60 -24.10 0.50 -0.90 0.65 -1.55 0.35 -1.85 -0.80 -0.75 -28.70 -1 -29.45 -0.30 -0.60 0.60 -4.50 15.90 -7.05 27.75 -2.75 12.80 -4 24.05 -2.85 25.90 0.80 1.20 30.65 3.90 31.70 2.80z m-50.50 -3.75 c0.50 -0.85 1.75 -1.90 2.85 -2.35 l1.90 -0.85 0.65 -5.75 c0.95 -9.25 7.20 -39 9.25 -44.10 0.25 -0.65 0.05 -0.95 -0.85 -1.15 -0.90 -0.20 -20.20 -1.75 -21.90 -1.75 -0.20 0 -0.55 0.75 -0.70 1.65 -0.45 2.35 -2.10 4.80 -3.70 5.45 -0.75 0.30 -2.35 0.60 -3.55 0.60 -2.20 0.05 -2.25 0.10 -3.60 2.80 -1.90 3.75 -6.10 16.65 -7.40 22.60 -1.55 7.25 -2.55 14.45 -2.55 18.60 0 3.15 0.15 3.75 0.90 4 0.45 0.10 5 0.50 10.10 0.80 5.10 0.35 9.35 0.70 9.45 0.80 0.10 0.10 2.05 0.20 4.25 0.20 4 0 4.05 -0.05 4.90 -1.55z m-42.90 -6.80 c0.65 -9.95 3.25 -22.80 6.85 -33.65 1.55 -4.65 5.45 -13.35 7.30 -16.15 0.80 -1.20 0.80 -1.45 0.15 -1.85 -0.40 -0.25 -1.40 -0.50 -2.25 -0.50 -2.90 0 -18.65 -3.65 -22.85 -5.25 -0.55 -0.25 -1.35 1.05 -3.15 5.05 -5.55 12.40 -9.35 24.55 -10.75 34.20 -0.35 2.05 -0.75 5 -1 6.50 -0.20 1.50 -0.30 2.85 -0.20 2.95 0.10 0.10 1.05 -0.20 2.20 -0.65 2.60 -1.05 7.25 -1 9.50 0.10 1.20 0.60 2.10 1.60 2.90 3.20 1.35 2.75 1.20 4.35 -0.70 7.20 -0.70 1 -1.15 1.90 -1.05 2 0.20 0.20 6.95 1.50 9.60 1.85 3.35 0.45 3.10 0.80 3.45 -5z m307.55 3.70 c1.95 -0.40 4.45 -0.90 5.65 -1.05 1.20 -0.15 2.35 -0.40 2.55 -0.50 0.20 -0.15 1.45 -0.35 2.85 -0.55 4.45 -0.50 7.70 -1.05 8 -1.35 0.15 -0.15 -0.10 -1.50 -0.55 -3 -2.05 -6.95 -0.15 -22.95 5.25 -43.85 1.55 -5.90 2.85 -8.65 7.05 -14.90 1.35 -2 2.45 -3.70 2.45 -3.80 0 -0.25 -6.10 0.10 -6.95 0.45 -1.10 0.35 -8.30 0.90 -12.55 0.90 -3.05 0 -4.10 -0.20 -5.55 -1.10 -2.20 -1.35 -2.95 -1.35 -6.20 -0.20 -2.35 0.85 -2.50 1 -2.55 2.65 -0.05 3.50 -0.25 4 -2.65 6.65 -4.10 4.50 -10.35 16.65 -13.30 25.70 -3.25 10.15 -4.55 23.80 -2.60 27.60 0.95 1.85 5.40 5.80 7.75 6.90 1.65 0.75 6.55 0.50 11.35 -0.55z m39.25 -6.40 c0.40 -0.20 1.55 -0.45 2.50 -0.60 2.30 -0.35 3.85 -0.85 9.10 -3 4.90 -2 6 -2.25 11.55 -2.85 2.15 -0.20 4.05 -0.50 4.15 -0.65 0.15 -0.15 0 -1.25 -0.35 -2.40 -0.95 -3.40 -0.70 -11.50 0.50 -17.45 2.65 -12.95 9.15 -33.50 12 -37.85 1.10 -1.70 2.20 -3.20 2.50 -3.35 1.70 -1.05 0.15 -1.35 -5.55 -1 -3.95 0.20 -7.15 0.15 -8.90 -0.25 -2.25 -0.45 -3.25 -0.40 -5.50 0.25 -1.50 0.40 -3.40 0.90 -4.25 1.05 -0.80 0.15 -1.90 0.45 -2.35 0.70 -0.50 0.25 -0.90 0.40 -0.90 0.25 0 -0.15 -0.75 0 -1.60 0.25 -0.90 0.30 -2.45 0.65 -3.40 0.80 -0.95 0.15 -2.10 0.45 -2.50 0.65 -0.40 0.20 -1.70 0.55 -2.85 0.75 -1.20 0.20 -2.15 0.50 -2.15 0.70 0 0.20 0.55 0.90 1.25 1.55 1.55 1.45 2.45 4.15 2.05 6.05 -0.15 0.80 -1.55 3.40 -3.10 5.80 -3.65 5.60 -3.90 6.20 -6 15.30 -3.50 15.20 -3.90 17.60 -3.90 25.70 -0.05 7.40 0 7.60 1.20 8.90 1 1.10 1.60 1.30 3.50 1.20 1.25 -0.05 2.60 -0.30 3 -0.50z m45.50 -10 c2.80 -0.80 3 -0.90 7.50 -2 5.15 -1.25 6 -1.70 6 -3 0 -1.80 1.50 -3.90 3.50 -4.95 1.60 -0.80 2.05 -1.40 2.50 -3.15 1.85 -7.35 5.50 -17.85 11.25 -32.35 8.50 -21.30 9.50 -23 14.20 -23 3.65 0 6.55 2.80 6.55 6.35 0 0.80 -2.05 6.40 -4.55 12.40 -4.90 11.90 -5.40 13.20 -9.55 24.50 -2.95 8.05 -5.15 15.60 -5.70 19.30 l-0.30 2.35 2.20 0.20 c1.15 0.15 2.50 0.40 2.90 0.55 0.95 0.45 5.65 -9.05 8.25 -16.65 1.90 -5.50 5.80 -19 6.75 -23.25 2.55 -11.35 2.65 -26.80 0.20 -40.40 l-0.35 -1.85 -1.10 2.35 c-1.40 3 -2.30 3.80 -8.75 7.90 -8.95 5.60 -17.25 9.10 -27.90 11.75 l-2.15 0.55 0.35 2.20 c0.45 3.25 0.05 4.25 -3.35 8.35 -3.65 4.30 -4.80 6.60 -7.20 14.65 -5.40 18.25 -6.80 24.30 -6.95 30 -0.05 4.40 0.70 6.40 2.85 7.25 0.60 0.25 1.10 0.45 1.10 0.45 0 0.05 0.80 -0.20 1.75 -0.50z m-417.25 -47.70 l1.80 -3.45 -1.50 -1.50 c-0.85 -0.80 -1.70 -1.35 -1.90 -1.15 -0.40 0.45 -0.90 10.25 -0.45 9.80 0.15 -0.15 1.10 -1.80 2.05 -3.70z m126.25 0.95 c0 -0.20 -0.65 -1.10 -1.50 -2 -2.70 -3.15 -2.60 -6.40 0.30 -9.25 l1.75 -1.70 7.35 0.25 c12.45 0.40 33.85 0.30 56.60 -0.40 11.95 -0.35 30.20 -0.85 40.50 -1.15 10.30 -0.25 19.90 -0.70 21.25 -0.95 1.40 -0.25 4.20 -0.55 6.25 -0.70 2.05 -0.15 5.90 -0.60 8.50 -1 2.60 -0.40 5.90 -0.85 7.25 -1 2.05 -0.20 16.25 -2.60 24.25 -4.05 6.95 -1.30 7.40 -1.30 9.15 -0.55 2.20 0.90 3.85 3.85 3.85 6.85 0 2.05 0 2.05 1.65 1.80 0.85 -0.15 2.10 -0.40 2.75 -0.55 0.60 -0.15 1.50 -0.40 2 -0.55 0.45 -0.10 1.70 -0.45 2.75 -0.75 1 -0.25 2.60 -0.70 3.50 -0.95 6.90 -1.85 29.65 -10.15 38.10 -13.90 7.70 -3.40 11.10 -3.40 13.20 0.05 1.40 2.35 1.60 4 0.80 6.30 l-0.75 2.10 1.90 -0.20 c2.75 -0.35 15.50 -3.80 17.15 -4.70 0.80 -0.40 2.30 -0.80 3.35 -0.90 1.05 -0.15 3.05 -0.60 4.40 -1.05 1.40 -0.45 2.85 -0.90 3.25 -0.95 0.40 -0.05 1.95 -0.50 3.45 -0.95 1.50 -0.45 3.30 -0.95 4 -1.05 0.70 -0.15 2.50 -0.60 4 -1.05 1.50 -0.40 4.20 -0.90 5.95 -1.05 1.75 -0.20 4.10 -0.75 5.25 -1.25 3.50 -1.60 5.60 -1.20 8.55 1.60 l1.50 1.40 3.50 -1.65 c4.10 -1.95 12.90 -7.35 14.85 -9.20 1.10 -1 2.05 -1.35 4.30 -1.50 2.70 -0.20 3.10 -0.10 4.70 1.35 l1.75 1.50 -0.40 -2.35 c-3.10 -18.35 -3.35 -20.75 -3.95 -39.85 -0.50 -16.85 -1.05 -21.40 -3.45 -28.75 -5.30 -16.05 -6.50 -20.10 -9.85 -32.50 -1.30 -4.90 -3.70 -11.55 -5.25 -14.60 -1.80 -3.60 -2.45 -4.50 -10.45 -14.55 -7 -8.80 -11.05 -15.05 -15.60 -23.75 -5.85 -11.25 -8.35 -14.20 -17.40 -20.55 -5.95 -4.20 -9.65 -7.30 -16.50 -13.80 -7.35 -6.95 -13.25 -12 -16.95 -14.40 -9.30 -6.15 -47.90 -23.40 -61.70 -27.55 -10.40 -3.15 -24 -5.75 -39.35 -7.50 -10.80 -1.25 -16.75 -1.80 -22.50 -2.05 -3.70 -0.15 -9.65 -0.50 -13.25 -0.75 -3.55 -0.25 -11.55 -0.40 -17.75 -0.35 -10.95 0.10 -11.40 0.15 -17.05 1.75 -14.50 4 -33.10 11.40 -57.95 23 -11.85 5.50 -18.25 8.75 -21.50 10.85 -2 1.30 -21.75 13 -29.45 17.50 -7.25 4.20 -18.50 13 -25.15 19.60 l-4.90 4.85 0.05 2.55 c0.10 3.65 -0.80 5.20 -4.45 7.50 -2.75 1.75 -3.35 2.40 -4.80 5.50 -2.45 5.05 -3.80 9.45 -4.30 14.10 -0.50 4.85 -1.60 7.40 -3.55 8.40 -2.70 1.45 -6.45 0.70 -8.55 -1.60 -0.70 -0.75 -1.90 -4.95 -1.90 -6.50 0 -0.65 -2.75 3.25 -5.50 7.85 -9.20 15.30 -14.60 30.65 -19.45 55.65 -2.80 14.25 -8.75 53.85 -8.45 56.25 0.15 1.20 0.35 1 2 -1.95 4.90 -8.65 11.60 -16.30 20.80 -23.60 5.70 -4.55 8.65 -6.35 10.50 -6.35 3.75 0 7 4.05 6.30 7.85 -0.40 2.20 -2.40 4.30 -8.70 9.15 -8.80 6.80 -14.65 14 -19.50 24.10 -1.35 2.85 -2.50 5.45 -2.50 5.80 0 0.35 0.75 1.30 1.70 2.10 2.30 2.05 3.15 5.10 2.10 7.60 -0.45 1.05 -0.80 2.05 -0.80 2.30 0 0.75 4.50 2.95 8.75 4.30 6.60 2.10 11.10 3.10 29 6.35 14.70 2.65 34.35 4.70 65.45 6.90 5.60 0.40 6.05 0.50 7.10 1.75 0.65 0.70 1.45 2.20 1.75 3.30 0.50 1.70 0.45 2.30 -0.30 4.05 -0.55 1.15 -1.45 2.40 -2.10 2.80 -0.65 0.40 -1 0.95 -0.85 1.20 0.30 0.50 9.20 0.65 9.20 0.15z m-55.15 -3 c-0.10 -0.15 -3.80 -0.65 -8.15 -1.20 -7.85 -0.95 -18.45 -2.50 -23.65 -3.50 -1.45 -0.25 -4.15 -0.50 -5.95 -0.50 -2.65 0 -3.10 0.10 -2.65 0.70 0.30 0.35 1.50 0.80 2.70 0.95 1.15 0.20 5.15 0.75 8.85 1.35 3.70 0.55 7.90 1.15 9.25 1.30 1.40 0.20 3.40 0.45 4.50 0.65 2.20 0.35 15.45 0.60 15.10 0.25z m-34.50 -199.80 c1.75 -1.35 3.80 -3.60 4.70 -5.05 0.85 -1.45 2.65 -4.05 3.95 -5.85 3.35 -4.65 3.45 -4.95 1 -3 -5 3.90 -11.90 11.05 -13.45 13.95 -0.85 1.60 -1.55 3.10 -1.55 3.25 0 0.55 2.05 -0.70 5.35 -3.30z m86.90 -65.20 c1.10 -0.45 2.15 -0.80 2.40 -0.80 0.20 0.05 0.35 -0.10 0.35 -0.40 0 -0.25 0.85 -0.95 1.90 -1.50 1.75 -0.95 1.75 -1 0.35 -0.65 -1.15 0.25 -10.60 3.65 -15.25 5.45 -0.55 0.25 -0.35 0.50 0.70 0.95 1.30 0.55 1.80 0.45 4.50 -0.80 1.70 -0.75 3.95 -1.75 5.05 -2.25z m213.25 -9.75 c-1.90 -1.30 -10.80 -4.95 -11.95 -4.90 -0.45 0 0.20 0.45 1.45 1 1.20 0.55 2.35 1.15 2.50 1.35 0.15 0.20 1.25 0.80 2.50 1.35 1.25 0.50 2.40 1.05 2.60 1.20 0.20 0.15 1.10 0.35 2 0.40 1.25 0.10 1.50 0 0.90 -0.40z"/>
 </g>
</svg>