<?xml version="1.0" encoding="utf-8"?>
<!DOCTYPE svg PUBLIC "-//W3C//DTD SVG 1.0//EN" "http://www.w3.org/TR/2001/REC-SVG-20010904/DTD/svg10.dtd">
<svg version="1.0" xmlns="http://www.w3.org/2000/svg" width="535px" height="490px" viewBox="0 0 535 490" preserveAspectRatio="xMidYMid meet">
 <g fill="#000000">
  <path d="M158.75 434.20 c-1.10 -0.10 -4.80 -0.45 -8.25 -0.75 -7.45 -0.60 -18.20 -1.95 -29.50 -3.65 -2.90 -0.40 -8.95 -1.25 -13.50 -1.80 -13.15 -1.60 -16.35 -2.65 -28.50 -9.30 -2.35 -1.30 -5.20 -3.10 -6.40 -4.05 -1.50 -1.25 -3.05 -1.95 -5.45 -2.45 -3.20 -0.65 -6.40 -2.50 -7 -4 -0.15 -0.45 -1.05 -0.70 -2.40 -0.70 -2.45 0 -4.45 -1.30 -5.40 -3.55 -0.35 -0.75 -1.40 -1.95 -2.35 -2.55 -2.20 -1.45 -3.20 -3.50 -2.80 -5.60 0.15 -0.85 2 -3.95 4.05 -6.80 3.60 -5 4.35 -6.50 3.25 -6.50 -0.25 0 -0.50 -0.20 -0.50 -0.45 0 -0.30 3.35 -5.20 7.40 -10.90 4.05 -5.70 8.85 -12.45 10.60 -15 2 -2.85 3.90 -4.95 4.90 -5.50 0.95 -0.50 2 -1.50 2.40 -2.25 0.75 -1.45 1.70 -1.85 1.75 -0.75 0 0.30 0.85 -2 1.90 -5.20 1.05 -3.20 3.95 -10.05 6.45 -15.25 4 -8.30 4.60 -9.90 4.90 -12.95 l0.30 -3.50 -3.75 -1.40 c-6.90 -2.55 -13.35 -7.55 -16.80 -13.10 -3.25 -5.15 -6.50 -19 -6.90 -29.25 -0.45 -10.95 0.80 -16.90 4.50 -21.30 0.65 -0.80 1.60 -2.75 2.05 -4.30 0.45 -1.55 1.55 -3.80 2.45 -5 2.05 -2.70 6.85 -5.25 11.35 -5.95 9.70 -1.60 28.80 2.20 38.40 7.65 7.80 4.50 14.25 12.90 17.70 23.20 0.95 2.85 1.15 4.50 1.15 9.45 -0.05 11.95 -3.80 22.25 -10.95 30 -1.25 1.40 -2.30 2.65 -2.30 2.90 0 0.20 0.90 4.05 2.05 8.55 l2.05 8.20 1.85 -0.25 c2.20 -0.30 4.70 0.80 5.75 2.50 0.35 0.60 1.05 2.75 1.50 4.80 0.85 4 4.95 14.15 6.05 15.05 0.55 0.45 0.95 0.40 1.85 -0.20 1.40 -1 4.85 -1.05 6.25 -0.05 1.65 1.15 4.15 5.15 4.15 6.60 0 1.05 0.15 1.20 1.15 0.95 2.70 -0.75 4.75 -0.90 5.05 -0.35 0.60 0.95 1.70 0.65 6.40 -1.70 7.85 -3.90 15.05 -9.70 19.15 -15.45 4.90 -6.90 10.40 -19 13 -28.55 3 -11.15 5.90 -16.75 8.70 -16.75 0.95 0 1.80 -0.85 3 -3 0.40 -0.70 2.25 -3.90 4.10 -7.15 1.90 -3.25 4 -7.75 4.70 -10 3.30 -10.25 4.15 -12.50 7.25 -18.60 1.80 -3.55 3.60 -7.85 3.95 -9.50 0.35 -1.65 0.85 -3.95 1.10 -5.10 0.25 -1.15 0.45 -2.95 0.45 -3.95 0 -1.05 0.45 -2.80 0.95 -3.90 0.55 -1.15 1.55 -4.95 2.25 -8.55 1.65 -7.95 3 -12.55 4.40 -14.45 0.90 -1.25 1.25 -3.40 2.45 -15.70 1.50 -14.95 1.95 -17.35 3.50 -19.90 0.50 -0.85 0.95 -1.95 0.95 -2.40 0 -1.55 1.50 -3.75 3.10 -4.60 l1.55 -0.80 -3.55 -3.35 c-5.75 -5.30 -7.60 -8.65 -10.40 -18.85 -1.20 -4.35 -1.35 -5.85 -1.40 -12.45 0 -7.65 0.40 -10.85 2.30 -16.75 3.30 -10.50 11.55 -17.65 22.40 -19.55 1.50 -0.25 4.10 -1.05 5.70 -1.80 2.60 -1.10 3.45 -1.25 6.50 -1 2 0.15 5.10 0.85 7 1.55 1.90 0.75 5.70 1.75 8.50 2.30 6.80 1.40 10.40 3.20 15.30 7.85 12.45 11.70 15.95 20.25 14.55 35.40 -0.75 7.85 -1.60 10.90 -4.65 17.25 -4.35 9 -10.75 14.40 -20.90 17.60 -3.30 1 -4.70 1.15 -12 1.15 -7 -0.05 -8.85 -0.20 -12.20 -1.15 -2.15 -0.65 -4 -1.05 -4.05 -1 -0.10 0.10 -0.60 4.55 -1.20 9.90 -0.60 5.35 -1.55 12.65 -2.05 16.20 -1 6.55 -1.20 11.85 -0.55 16.80 l0.35 2.75 0.40 -2.50 c1.30 -8.95 2 -12.65 2.60 -13.80 0.65 -1.35 3.40 -2.95 4.95 -2.95 1.80 0 4.20 1.60 5 3.35 0.80 1.70 0.80 2.10 0.05 6.60 -1.15 6.95 -1.70 13.95 -2.35 29.75 l-0.55 14.05 2.20 5.70 c2.10 5.45 2.30 5.70 4.10 6.30 4 1.40 4.70 3.05 4.25 9.65 -0.30 3.85 -0.20 4.85 1.05 9.10 0.80 2.60 2 7 2.75 9.70 1.35 5.15 1.85 6.30 4.60 11 2.45 4.15 5.65 6.15 18.15 11.20 15.45 6.25 24.15 8.50 29 7.60 6 -1.10 9.20 -2.60 10 -4.50 0.35 -0.80 1.15 -2 1.80 -2.65 0.80 -0.80 1.55 -2.80 2.50 -6.65 1.10 -4.45 1.65 -5.70 2.90 -6.95 0.85 -0.80 2.30 -2.95 3.15 -4.75 2.80 -5.70 6.95 -9.50 10.45 -9.50 0.90 0 1.95 -0.65 3.25 -2 1.70 -1.70 2.25 -2 4.10 -2 1.20 0 2.60 0.35 3.15 0.75 0.50 0.40 1.20 0.75 1.55 0.75 0.50 0 3.65 -6.80 3.65 -7.95 0 -0.30 -1.30 -1.15 -2.85 -1.90 -4.10 -1.95 -9.55 -7.50 -11.55 -11.70 -3.25 -6.80 -3.55 -10.45 -2.15 -26.20 1.05 -11.30 3.45 -18 8.35 -22.95 8.40 -8.55 20.70 -10.15 35.05 -4.55 12.15 4.75 16.40 7.80 21.40 15.50 7.05 10.75 9.65 18.75 8.75 26.90 -0.65 5.40 -2.40 8.75 -7.25 13.65 -6.35 6.45 -13.70 10.95 -20.60 12.70 -2.15 0.55 -5.10 1.40 -6.55 1.85 l-2.65 0.90 0.30 2.65 c0.45 3.60 1.90 8.80 2.75 9.70 0.60 0.60 0.85 0.30 1.75 -2.45 1.85 -5.45 5.05 -7.60 8.90 -6 3.50 1.50 4.05 4.60 1.85 10.60 -0.95 2.50 -1.05 3.60 -0.80 6.75 0.50 5.50 0.50 5.45 0.85 5.20 0.65 -0.40 1 0.70 1.90 5.55 0.20 1.10 1.20 3.65 2.25 5.65 1.80 3.40 2 3.60 3.65 3.60 2.45 0 4.40 1.20 5.40 3.35 0.85 1.75 0.85 2.05 0.10 4.15 -0.75 2.10 -0.75 2.35 0.05 3.95 1 1.90 1.60 2.35 3.80 2.80 0.80 0.15 2.05 0.95 2.85 1.75 1.20 1.15 1.45 1.85 1.45 3.75 0 4.95 -2.85 7.95 -7.10 7.60 -2.90 -0.25 -2.95 0.05 -1.15 5.45 1.55 4.60 2.85 7.20 5.10 10.30 l1.70 2.35 1.95 -1 c3.25 -1.70 6.85 -0.20 8 3.35 0.70 2.10 0.70 2.10 6.50 -1.55 5.20 -3.30 6.35 -3.60 8.75 -2.50 3.35 1.60 4.30 5.90 1.95 8.70 -0.70 0.85 -3.70 3.05 -6.75 4.85 -4.75 2.90 -5.40 3.50 -5.15 4.45 0.40 1.70 -1 4.60 -2.75 5.45 -3.05 1.60 -7.20 0.45 -12.05 -3.30 l-2.25 -1.75 -6.50 4.35 c-3.55 2.40 -9.10 6.25 -12.25 8.50 -9.05 6.55 -13 8.10 -28 11.25 -3.45 0.75 -12.10 3 -19.25 5.10 -14.50 4.15 -18.25 5 -30.40 6.90 -9.10 1.40 -14.65 2.50 -30.60 6 -9.15 2.05 -16.80 3.30 -48.75 8.25 -13.50 2.10 -19.05 2.55 -40.25 3.55 -19.75 0.95 -66 1.65 -71.50 1.15z m64.05 -13.55 c0.40 -0.15 0.70 -0.55 0.70 -0.95 0 -0.95 -1.95 -0.90 -13.25 0.55 l-9.50 1.20 10.70 -0.25 c5.85 -0.15 11 -0.40 11.35 -0.55z m25.45 -1.90 c9.40 -0.90 11.75 -1.20 29.25 -4.10 7.85 -1.30 13.75 -2.45 13.10 -2.55 -3 -0.45 -47.65 4.15 -49.80 5.15 -0.85 0.35 -2 0.75 -2.50 0.85 -0.55 0.10 -1.05 0.45 -1.20 0.80 -0.25 0.80 1.75 0.80 11.15 -0.15z m-58.15 -9.50 c12.55 -1.40 13.50 -1.45 12.40 -0.75 -1.30 0.80 -0.20 1.05 3.20 0.70 2.30 -0.25 3.30 -0.55 3.30 -1 0 -0.40 -0.30 -0.75 -0.60 -0.75 -2.10 -0.20 62.20 -7.45 66.15 -7.45 0.20 0 0.45 -0.65 0.60 -1.45 0.75 -3.60 7.05 -5.05 11.85 -2.70 3.80 1.85 9.60 2.30 18 1.40 9.20 -0.95 9.30 -0.95 8.50 0 -0.80 0.95 -0.90 0.95 7.10 -0.10 4.25 -0.55 6.20 -1 5.65 -1.25 -1.20 -0.70 -0.90 -1.40 0.65 -1.40 2.30 0 15.65 -2.90 19.55 -4.25 4.60 -1.55 8.65 -1.65 10.95 -0.25 1.80 1.10 1.90 1.30 0.85 2.30 -0.55 0.55 -0.60 1 -0.25 1.70 0.30 0.50 0.50 1.40 0.50 2 0 1.20 -0.85 1.25 9.25 -0.55 3.30 -0.55 8.40 -1.60 11.35 -2.25 2.95 -0.65 5.45 -1.20 5.55 -1.20 0.15 0 0.15 -0.45 0 -0.95 -0.20 -0.80 0.15 -1.10 1.95 -1.55 13.25 -3.35 32.30 -11 43.40 -17.50 5.85 -3.45 5.70 -2.45 1.10 -9.60 -3.85 -5.95 -7.60 -13.20 -7.60 -14.70 0 -0.40 0.35 -0.70 0.75 -0.70 0.85 0 0.90 -0.10 0.45 -1.20 -0.35 -0.95 -1.70 -1.05 -1.70 -0.15 -0.05 1.30 -1 -1.20 -5.15 -13.20 -2.40 -7.10 -4.65 -12.85 -5.25 -13.50 -0.60 -0.60 -1.30 -1.90 -1.65 -2.90 -0.30 -1 -2.10 -5.85 -4.05 -10.80 -1.90 -4.95 -3.95 -10.10 -4.45 -11.50 l-0.95 -2.50 -7.60 7.45 -7.55 7.45 -0.35 3.20 c-0.45 4.45 -1.80 5.75 -6.10 6.05 -3.55 0.25 -5.25 1.40 -6.95 4.75 -0.70 1.35 -1.60 2.15 -3.15 2.85 -1.45 0.60 -2.25 1.30 -2.45 2.10 -0.50 2 -3.75 5.25 -6.55 6.65 -3.20 1.55 -9.85 2.20 -22.40 2.25 -6.50 0 -7.90 -0.15 -7.90 -0.70 0 -0.40 0.40 -0.85 0.90 -0.95 0.45 -0.15 0 -0.25 -1.05 -0.30 -1.15 -0.05 -2.60 -0.50 -3.50 -1.15 -1.65 -1.15 -7.40 -2.35 -11.75 -2.40 -1.35 0 -3.20 -0.55 -5.05 -1.45 -3.55 -1.80 -9.95 -6.80 -11.80 -9.25 -1.10 -1.45 -1.60 -1.75 -3.20 -1.70 -2.30 0 -3.55 -0.60 -6.35 -3.20 -1.95 -1.80 -2.15 -1.85 -2.65 -1.05 -0.45 0.80 -0.65 0.75 -2.30 -0.85 -3.70 -3.55 -5.95 -9 -6.55 -15.85 -0.25 -3.30 -0.55 -4.15 -1.70 -5.40 -1.50 -1.60 -5.35 -11.35 -6.65 -16.75 -1 -3.95 -1.85 -10.80 -1.85 -14.40 0 -2.45 0.10 -2.65 0.80 -2.05 0.80 0.65 0.85 0.30 0.55 -4.05 -0.20 -3.85 -0.65 -5.80 -2.30 -10.40 -1.15 -3.15 -2.60 -6.40 -3.25 -7.25 -0.60 -0.90 -1.45 -2.35 -1.80 -3.25 l-0.65 -1.60 -1.80 3.10 c-1 1.75 -2.45 4.05 -3.20 5.15 -1.15 1.70 -1.35 2.50 -1.35 5.55 0 4.10 -0.90 5.75 -3.70 6.70 -1.45 0.45 -1.75 0.85 -2.25 2.90 -0.35 1.30 -0.70 2.75 -0.85 3.20 -0.20 0.65 -0.05 0.80 0.50 0.60 1.10 -0.45 1 1.10 -0.40 6.55 -1.40 5.45 -1.90 6.55 -3.75 7.45 -1.70 0.90 -2.15 2.05 -5.80 14.70 -2.95 10.25 -6.85 21 -12.15 33.50 -3.65 8.70 -4.50 9.60 -8.70 9.60 l-2.35 0 -1.30 4.40 c-4.35 14.50 -4.70 15.55 -6.35 16.70 -8.75 6.30 -14.10 10.55 -15.05 11.95 -1.55 2.30 -4.75 4.65 -8.20 6 -2.60 1 -4 1.15 -13.90 1.35 -12.45 0.25 -14 -0.05 -15.75 -3 -0.50 -0.90 -1.70 -2.10 -2.60 -2.60 -0.90 -0.50 -2.85 -1.85 -4.35 -2.95 -1.50 -1.10 -5.60 -3.45 -9.15 -5.20 -5.90 -3 -7.55 -4.35 -5.65 -4.75 0.45 -0.10 -0.55 -1.10 -2.60 -2.65 -4.50 -3.30 -10.60 -9.15 -14.15 -13.55 l-2.85 -3.55 -1.35 1.70 c-0.80 1 -2 1.80 -2.90 2 -1.35 0.25 -1.80 0.85 -3.85 5.20 -1.30 2.65 -2.70 5.25 -3.10 5.75 -0.65 0.80 -0.60 0.80 0.40 0.15 1.80 -1.10 1.90 -0.15 0.20 3 -0.85 1.60 -1.55 3.70 -1.55 4.60 0 2.35 -0.60 3.30 -6.65 11.05 -2.95 3.75 -6.80 9.45 -8.60 12.65 -4.70 8.40 -8.25 13.55 -12.45 18.10 -3.50 3.75 -3.80 3.95 -5.50 3.75 -1 -0.10 -1.80 -0.10 -1.80 0.10 0 0.40 2.90 1.55 4.95 1.95 l1.65 0.35 -1.15 -1 -1.20 -0.95 1.45 -0.05 c0.90 0 2.10 -0.60 3.35 -1.75 1.85 -1.70 2.10 -1.75 5.75 -1.75 3.60 0 3.90 0.10 5.40 1.65 0.90 0.85 1.75 1.95 1.90 2.35 0.20 0.60 3.80 0.75 23.45 1.05 25.40 0.45 52.90 1.30 59.70 1.90 3.90 0.40 4.50 0.60 5.85 1.90 1 1 1.55 2.20 1.75 3.55 0.15 1.15 0.35 2.10 0.45 2.10 0.05 0 5.15 -0.55 11.30 -1.25z m-64.75 -83.55 c-0.65 -1.90 -1.85 -6.05 -2.60 -9.25 l-1.40 -5.80 -2.05 0.75 c-2.70 1.05 -3.30 1.50 -3.30 2.70 0 1.60 9.70 15.90 10.30 15.25 0.10 -0.10 -0.35 -1.75 -0.95 -3.65z m-16.85 -32.60 c1.50 -2.85 6.65 -8.40 8.85 -9.55 0.60 -0.30 2.55 -0.55 4.30 -0.55 2.50 0 3.50 0.25 4.55 1.05 l1.30 1.05 1 -2.20 c0.50 -1.20 1.20 -3.25 1.50 -4.55 0.50 -2.40 0.50 -2.45 -1.45 -4.65 -3.50 -3.95 -6.15 -6 -8.75 -6.65 -1.35 -0.30 -3.60 -1.20 -5 -1.95 -2.15 -1.10 -3.40 -1.40 -7.70 -1.60 l-5.10 -0.25 0 1.40 c0 3.05 -2.30 5.70 -5.30 6.15 -3.85 0.55 -6.55 -0.15 -8.95 -2.35 l-2.15 -2 -1.05 2.80 c-0.60 1.50 -1.30 4.30 -1.60 6.15 -0.55 3.20 -0.50 3.50 0.75 6.05 1.65 3.50 4.85 7.60 7.90 10.15 2.20 1.80 2.60 2 3.70 1.45 2.95 -1.35 8.75 -0.15 10.65 2.15 0.40 0.45 0.75 0.80 0.85 0.80 0.05 0 0.85 -1.30 1.70 -2.90z m290.50 -41.45 c0.95 -0.15 2.25 -0.60 2.85 -1 0.75 -0.50 2.10 -0.70 4.40 -0.55 1.80 0.05 3.25 0 3.25 -0.20 0 -0.20 1 -0.95 2.15 -1.65 3.50 -2 9.85 -1.45 11.25 1 1.05 1.95 7.65 -11.70 7.80 -16.20 0.05 -2.20 -0.05 -2.35 -2.45 -3.95 l-2.50 -1.70 -0.60 3.05 c-0.80 3.85 -1.35 4.85 -3.30 6.05 -1.95 1.20 -6.75 1.35 -8.80 0.25 -1.90 -0.95 -3.05 -3.55 -3.05 -6.90 0 -2.70 -0.05 -2.80 -1.70 -3.35 -3.45 -1.10 -10.45 1.70 -15.10 6.05 -3.50 3.35 -4 4.70 -3.20 8.35 0.70 3.05 2.35 7.20 4.05 9.95 0.85 1.40 1.30 1.65 2.15 1.40 0.55 -0.20 1.85 -0.45 2.80 -0.60z m-312.20 -3.20 c0.40 -0.70 -0.50 -0.55 -1.60 0.30 -0.90 0.65 -0.90 0.70 0.20 0.40 0.60 -0.15 1.25 -0.45 1.40 -0.70z m316.15 -35.20 l4.30 -0.65 -3.75 -0.05 c-3.20 -0.05 -4.25 0.20 -6.85 1.45 -3.80 1.80 -4.10 2.25 -0.55 0.90 1.40 -0.50 4.50 -1.25 6.85 -1.65z m-104.45 -65.75 c5.40 -3.65 12.75 -12.95 14 -17.60 0.70 -2.55 0.15 -4.30 -3.10 -9.25 -3.85 -5.95 -6.15 -8.80 -8.50 -10.50 -2.15 -1.55 -2.20 -1.55 -3.35 -0.60 -0.90 0.75 -1.95 0.95 -4.70 0.95 -3.25 0 -3.80 -0.15 -7.45 -2.30 -5.55 -3.20 -6.60 -3.25 -11.15 -0.95 -2.95 1.50 -4.05 2.35 -5.20 4.20 -6 9.35 -8.20 19.40 -5.05 22.80 l1.20 1.25 1.40 -2.60 c2.70 -4.95 4.80 -6.40 9.25 -6.40 5.30 0 7.50 2.60 7.05 8.30 -0.20 2.15 -0.60 3.15 -1.95 4.80 -1.60 2.05 -1.65 2.10 -0.25 1.05 1.15 -0.90 2.10 -1.15 4.60 -1.15 4 0 5.45 0.55 6.75 2.60 0.85 1.40 1 2.25 0.80 5.25 l-0.20 3.60 1.55 -0.80 c0.85 -0.45 2.80 -1.65 4.30 -2.65z"/>
 </g>
 <g fill="#f6e597">
  <path d="M223.50 419.80 c0 -0.40 -0.25 -0.80 -0.55 -0.90 -0.30 -0.10 3.15 -0.60 7.60 -1.05 4.50 -0.50 9 -1 9.95 -1.15 l1.75 -0.30 -1.45 0.80 c-0.75 0.45 -1.85 0.80 -2.35 0.80 -0.50 0 -1.10 0.35 -1.30 0.75 -0.30 0.45 -1.90 0.90 -4.90 1.25 -6.40 0.70 -8.75 0.65 -8.75 -0.20z"/>
  <path d="M176.75 410.20 c0 -1.80 -0.30 -2.45 -1.60 -3.75 -1.40 -1.45 -1.95 -1.60 -5.90 -2 -6.80 -0.60 -34.30 -1.45 -59.70 -1.90 -19.65 -0.30 -23.25 -0.45 -23.45 -1.05 -0.15 -0.40 -1 -1.50 -1.90 -2.35 -1.35 -1.40 -1.95 -1.65 -3.90 -1.65 -1.90 0 -2.60 0.30 -4.15 1.65 -2.55 2.25 -3.60 2.45 -5.95 1.05 -1.05 -0.65 -2.35 -1.20 -2.85 -1.20 -0.65 0 0.30 -1.30 3.30 -4.50 4.70 -5 8.20 -10 13.10 -18.75 1.80 -3.20 5.65 -8.90 8.60 -12.65 6.05 -7.75 6.65 -8.70 6.65 -11 0 -2.80 2.50 -6.85 4.10 -6.55 0.90 0.20 4.05 -0.55 4.75 -1.15 0.35 -0.25 0.80 -0.40 1 -0.25 0.20 0.15 2.30 0.30 4.65 0.40 2.35 0.05 4.50 0.30 4.75 0.50 0.30 0.20 1.15 0.50 1.90 0.65 1.35 0.25 6.50 3.35 7.10 4.30 0.15 0.25 1.55 0.60 3.10 0.80 3.35 0.40 13.90 5.35 18.15 8.50 1.50 1.15 3.50 2.50 4.40 3 0.90 0.50 2.10 1.70 2.60 2.60 1.75 2.90 3.45 3.25 14.25 3 8.30 -0.20 9.85 -0.40 12.40 -1.35 3.45 -1.35 6.65 -3.70 8.20 -6 0.95 -1.40 6.30 -5.65 15.05 -11.95 1.65 -1.15 2.40 -3.15 6.50 -17.20 1.15 -3.95 1.50 -4.75 2.10 -4.40 1.20 0.80 3.65 0.55 5.30 -0.45 1.30 -0.80 2.10 -2.25 4.80 -8.65 5.30 -12.50 9.20 -23.25 12.15 -33.50 3.65 -12.65 4.10 -13.80 5.80 -14.70 1.80 -0.90 2.55 -2.45 3.70 -7.20 1.20 -5.10 1.45 -5.50 3.50 -5.50 0.95 0 1.75 -0.20 1.75 -0.45 0 -0.20 1.15 -0.30 2.50 -0.15 1.70 0.15 2.50 0.05 2.50 -0.35 0 -0.40 0.65 -0.45 2 -0.25 1.35 0.20 2 0.15 2 -0.25 0 -0.70 2.35 -0.75 2.75 -0.05 0.15 0.30 1.30 0.50 2.45 0.50 1.20 0 2.40 0.30 2.65 0.65 0.30 0.30 0.75 3.10 1.10 6.15 0.30 3.05 1 7.25 1.55 9.30 1.55 5.90 5 14.50 6.50 16.15 1.15 1.25 1.45 2.10 1.70 5.35 0.60 6.65 2.40 11.40 5.80 15.10 1.35 1.45 1.90 2.40 1.70 3.10 -0.15 0.55 0.20 2.45 0.80 4.25 1.15 3.30 1.50 9.10 0.80 12.30 -0.35 1.45 -0.25 1.65 1 1.95 0.80 0.20 1.45 0.15 1.55 -0.15 0.20 -0.50 6 -0.45 6.55 0.05 0.15 0.15 0.75 0.30 1.30 0.30 2 0 8.50 3.50 10.95 5.90 1.30 1.25 2.35 2.05 2.35 1.75 0 -0.35 0.60 -0.60 1.40 -0.55 1.75 0.10 13.25 -3.05 13.65 -3.75 0.20 -0.25 0.70 -0.35 1.10 -0.20 0.45 0.15 0.85 0.05 1 -0.30 0.10 -0.40 3.65 -0.70 12.35 -0.95 13.60 -0.40 16.35 -0.80 19.65 -2.90 2.35 -1.45 5.35 -5.05 5.35 -6.35 0 -0.35 1 -1.10 2.25 -1.65 1.60 -0.70 2.45 -1.45 3.20 -2.85 0.50 -1.05 1.65 -2.55 2.55 -3.40 1.35 -1.30 1.90 -1.50 4.50 -1.50 2.55 0 3.15 -0.20 4.35 -1.35 1.05 -1.10 1.40 -2 1.65 -4.55 l0.35 -3.20 7.50 -7.45 c4.15 -4.10 7.85 -8.20 8.20 -9.05 0.40 -0.90 0.85 -1.65 1 -1.65 0.35 0 0.45 0.30 2.35 5.50 0.55 1.50 2.60 6.80 4.50 11.75 1.95 4.95 3.75 9.80 4.05 10.80 0.35 1 1.05 2.30 1.60 2.90 0.65 0.65 3 6.70 5.55 14.10 4 11.70 4.35 13.05 3.65 13.75 -1.10 1.10 -0.95 1.70 0.50 1.70 1 0 1.50 0.60 3.05 3.90 1 2.10 3.80 6.90 6.15 10.60 2.40 3.70 4.55 7 4.70 7.35 0.45 0.75 -3.35 3.25 -11.40 7.45 -10.65 5.55 -22.80 10.35 -34.70 13.75 -5.75 1.60 -7.05 1.75 -7.05 0.85 -0.05 -0.35 -0.45 -1.15 -0.95 -1.75 l-0.95 -1.15 -3.35 1.55 c-4.15 1.95 -7.60 2.40 -15.50 1.95 -2.80 -0.15 -5.75 0.40 -5.75 1.05 0 0.25 -0.80 -0.15 -1.80 -0.80 -2.30 -1.55 -3.60 -1.55 -8.25 0 -4.15 1.45 -17.30 4.25 -19.85 4.25 -0.95 0 -2.35 -0.50 -3.20 -1.05 -1.30 -0.95 -1.70 -1 -3.40 -0.50 -1 0.30 -2.35 0.55 -2.95 0.55 -0.55 0 -1.05 0.25 -1.05 0.50 0 0.30 -0.25 0.50 -0.60 0.50 -0.30 0 -1.70 0.55 -3.10 1.20 -2 0.95 -4.10 1.35 -9.65 1.80 -8.30 0.75 -14.95 0.15 -18.65 -1.60 -1.20 -0.60 -2.95 -1.05 -3.85 -1.05 -2.15 0.05 -4.60 1.90 -5 3.70 -0.15 0.80 -0.40 1.45 -0.60 1.45 -1.15 0 -33 3.35 -45.55 4.75 -8.40 1 -16.50 1.90 -18.05 2.05 -2.25 0.25 -3 0.15 -3.85 -0.60 -0.55 -0.45 -0.95 -1.05 -0.80 -1.30 0.15 -0.20 0.10 -0.40 -0.10 -0.40 -0.40 0 -5.40 2.65 -5.70 3.05 -0.40 0.55 -2.80 0.90 -12.75 1.95 -5.20 0.55 -10.15 1.10 -11 1.20 -1.45 0.20 -1.50 0.15 -1.50 -2z"/>
  <path d="M54.60 382.70 c-0.30 -0.35 -0.60 -1.25 -0.60 -1.95 0 -0.70 -0.20 -1.25 -0.50 -1.25 -0.25 0 -0.50 -1.10 -0.50 -2.50 0 -1.50 0.20 -2.50 0.55 -2.50 0.35 0 0.50 -0.60 0.35 -1.50 -0.15 -0.80 0 -1.50 0.25 -1.50 0.25 0 0.35 -0.45 0.20 -1 -0.15 -0.55 -0.05 -1 0.25 -1 0.30 0 0.40 -0.30 0.25 -0.70 -0.15 -0.40 -0.10 -0.80 0.10 -0.90 0.20 -0.10 1.45 -1.80 2.70 -3.80 2.40 -3.75 3 -4.45 6.70 -7.70 1.15 -1 1.95 -1.95 1.75 -2.10 -0.15 -0.15 0.15 -0.30 0.65 -0.30 1.20 0 5.35 -2.45 5 -3 -0.25 -0.40 0.85 -1 2.05 -1 0.35 0 2.10 -0.65 3.80 -1.50 1.70 -0.80 3.15 -1.50 3.25 -1.50 0.25 0 0.15 2.40 -0.15 3.20 -0.15 0.45 -1.15 1.25 -2.15 1.80 -1.35 0.80 -3.95 4.10 -10.15 12.90 -13.50 19.15 -13.05 18.55 -13.80 17.80z"/>
  <path d="M160.70 350.70 c0.15 -0.45 0.45 -1.65 0.60 -2.75 0.25 -1.50 0.50 -1.85 0.95 -1.45 0.35 0.30 0.85 0.50 1.05 0.40 0.55 -0.10 4.05 1.40 5.70 2.45 l1.25 0.85 -2.50 0.65 c-1.40 0.35 -3.60 0.65 -4.95 0.65 -2 0 -2.35 -0.15 -2.10 -0.80z"/>
  <path d="M428.85 306.15 c-0.45 -1.35 -0.90 -3.05 -1.10 -3.90 -0.30 -1.45 -0.30 -1.45 0.45 -0.45 0.70 1 1.05 2.05 1.65 5.35 0.40 2.15 -0.20 1.55 -1 -1z"/>
  <path d="M415.35 289.30 c-0.20 -0.50 -0.25 -1.05 -0.10 -1.20 0.45 -0.45 0.85 0.30 0.65 1.25 -0.15 0.85 -0.20 0.85 -0.55 -0.05z"/>
 </g>
 <g fill="#f7d3c7">
  <path d="M105.30 297.75 c-1.50 -1.90 -4.60 -3.75 -6.40 -3.75 -0.65 0 -1.90 0.45 -2.80 1 -1.90 1.20 -2.50 1 -6.15 -2.05 -5 -4.15 -8.95 -10.75 -8.95 -14.80 0.05 -5 2.05 -11.70 4.45 -14.65 l1 -1.25 0.55 1.50 c1.35 3.55 5.65 6.20 8.85 5.45 2.75 -0.65 4.95 -3.75 4.45 -6.25 l-0.25 -1.40 6.60 0.30 c6.10 0.30 6.85 0.45 10 1.95 1.90 0.90 4.30 1.75 5.35 1.95 1.60 0.25 2.75 1.10 6 4.35 3.55 3.55 4 4.25 4 5.85 0 2.70 -1.25 7.10 -3.05 10.65 l-1.55 3.10 -0.65 -1.50 c-1.35 -3.30 -5.10 -4.65 -8.15 -2.95 -2.65 1.40 -7.15 6.55 -9.05 10.25 -1 2.05 -2.10 3.75 -2.40 3.85 -0.25 0.10 -1.10 -0.60 -1.85 -1.60z"/>
  <path d="M393.60 253.90 c-3.05 -4.45 -4.85 -9.05 -5.55 -14.10 -0.55 -3.80 0.20 -5.50 3.90 -8.95 5.90 -5.55 16.25 -8.15 19.50 -4.90 0.80 0.80 0.85 1.25 0.40 2.90 -1.35 5.05 4 8.90 8.55 6.15 2.15 -1.35 3.25 -3.95 3.25 -7.85 l0 -3.10 2.95 1.60 c1.60 0.90 3.65 2.20 4.55 2.90 1.40 1.20 1.55 1.55 1.45 3.75 -0.20 4.90 -2.85 11.70 -7.20 18.20 l-2.60 4 -0.60 -1.90 c-1.30 -3.70 -4.90 -5.05 -8.55 -3.10 -1.15 0.60 -2.45 1.65 -2.90 2.30 -0.75 1.15 -0.85 1.15 -2.25 0.45 -1.85 -0.95 -4.05 -0.95 -5.30 0 -0.50 0.40 -1.60 0.75 -2.45 0.75 -1.60 0 -4.75 1.65 -4.75 2.50 0 1.10 -1 0.40 -2.40 -1.60z"/>
  <path d="M123.15 252.05 c-2.30 -0.95 -3.50 -1.80 -4.40 -3.15 -0.70 -1.05 -1.10 -1.90 -0.90 -1.90 0.95 0 5.55 3.05 7.10 4.70 0.95 1 1.65 1.80 1.50 1.75 -0.10 -0.05 -1.60 -0.65 -3.30 -1.40z"/>
  <path d="M87 247.95 c0 -0.80 5.20 -1.95 8.45 -1.90 l3.30 0.10 -3.75 0.35 c-2.05 0.20 -4.70 0.70 -5.85 1.15 -1.20 0.40 -2.15 0.55 -2.15 0.30z"/>
  <path d="M287.40 153.85 c0.25 -0.35 1.15 -1.55 2.05 -2.65 3.85 -4.90 1.60 -10.20 -4.30 -10.20 -1.55 0 -2.20 0.45 -5.45 3.85 l-3.65 3.85 -1.05 -1.35 -1.10 -1.35 1.35 -1.55 c0.70 -0.85 1.65 -2.25 2.10 -3.15 0.45 -0.85 1.45 -2.35 2.20 -3.30 0.75 -0.95 1.55 -2.35 1.70 -3.10 0.50 -2.05 -0.60 -4.85 -2.45 -5.95 -3.90 -2.35 -7.90 -0.15 -11.10 6.15 -1.15 2.25 -1.40 2.45 -2.60 2.15 -0.75 -0.15 -1.90 -0.85 -2.60 -1.55 -1.10 -1.10 -1.25 -1.75 -1.45 -5.50 -0.25 -6.15 1.45 -11.85 5.65 -18.85 1.70 -2.90 2.55 -3.70 5.05 -5.10 1.65 -0.95 4.10 -1.95 5.45 -2.30 2.95 -0.75 4.25 -0.35 9.85 2.85 4.80 2.80 7.25 2.95 9.55 0.70 0.80 -0.85 1.60 -1.50 1.75 -1.50 0.75 0 6.25 4.30 7.50 5.90 2.45 3.05 6.65 9.55 7.70 11.75 1.85 4.15 1.15 7.90 -2.60 13.65 -6 9.15 -13.65 14.80 -22.85 16.85 -0.85 0.20 -1.05 0.10 -0.70 -0.30z"/>
 </g>
</svg>