<svg preserveAspectRatio="xMidYMid meet" viewBox="41.374647887323945 46.246 759.3464788732394 1109.904" xmlns="http://www.w3.org/2000/svg" version="1.0" style="max-height: 500px" width="759.3464788732394" height="1109.904">
 <g fill="#b8da8d">
  <path d="M390.75 1134.65 c-6.50 -0.75 -10.05 -1.40 -13.50 -2.50 -14.50 -4.55 -26.90 -15.05 -33.75 -28.65 -2.60 -5.10 -4.40 -11.15 -5.80 -19 -0.70 -4 -1.70 -9.70 -2.25 -12.75 -0.50 -3 -0.95 -5.65 -0.95 -5.85 0 -0.25 -0.35 -0.40 -0.75 -0.40 -0.80 0 -1.45 -1.95 -1.10 -3.35 0.15 -0.50 0.25 -0.25 0.30 0.70 0 0.85 0.30 1.75 0.60 1.90 0.75 0.50 1.20 -0.10 0.60 -0.85 -0.25 -0.35 -0.50 -1.90 -0.55 -3.40 -0.15 -3.20 -1.40 -11 -2.10 -12.60 -0.45 -1.05 -0.50 -1.05 -0.45 -0.15 0.10 1.95 -0.10 1.95 -1.05 0 -0.55 -1.10 -0.95 -2.70 -1 -3.55 0 -0.80 -0.25 -1.75 -0.55 -2.05 -1.10 -1.10 -1.90 -9.10 -1.60 -16.60 0.35 -9.35 -0.75 -22.45 -2.85 -33.05 -2.15 -10.70 -4.25 -19.50 -5 -20.75 -0.90 -1.40 -4.20 -13.75 -5.50 -20.40 -0.65 -3.25 -1.70 -4.45 -4.05 -4.85 -1.30 -0.20 -1.65 -0.60 -2.45 -2.75 -0.45 -1.35 -1.70 -4.25 -2.70 -6.40 -1 -2.20 -1.80 -4.65 -1.80 -5.65 0 -1 -0.30 -3.10 -0.70 -4.65 -0.40 -1.55 -0.85 -3.40 -1 -4.15 -0.20 -0.80 -0.60 -1.40 -1 -1.40 -0.35 0 -0.95 -1 -1.30 -2.25 -1.05 -3.75 -2.05 -4.65 -4.85 -4.40 l-2.40 0.20 -3.25 -4.85 c-3.95 -5.90 -4.50 -6.35 -6.20 -4.75 -1.05 1 -1.60 1.15 -3.45 0.90 -3.30 -0.45 -4.05 0.55 -3.60 4.85 0.20 1.80 0.20 3.30 0 3.30 -0.20 0 -0.95 -0.60 -1.70 -1.30 -0.70 -0.70 -2.75 -2.20 -4.50 -3.35 -1.75 -1.10 -4.45 -3.20 -6.05 -4.70 -3.10 -2.85 -3.50 -3.05 -3.50 -1.90 0 0.40 -0.35 0.75 -0.75 0.75 -0.95 0 -0.95 -0.95 -0.05 -11.25 0.40 -4.40 1 -12.75 1.35 -18.60 0.60 -10.50 0.60 -10.55 -0.50 -11.90 -1.55 -2.05 -1.45 -5.55 0.20 -6.85 1.25 -1 1.65 -2.60 0.75 -3.15 -0.25 -0.15 -0.50 -0.70 -0.50 -1.15 0 -0.45 -1.90 -4.60 -4.25 -9.25 -2.50 -4.95 -4.25 -8.95 -4.25 -9.85 0 -1.60 0.70 -2 1.20 -0.70 0.25 0.65 0.70 0.25 1.90 -1.60 0.90 -1.35 3.95 -4.75 6.80 -7.60 3.70 -3.70 5.10 -5.40 4.90 -6 -0.20 -0.45 -2 -2.65 -4.05 -4.85 -5.05 -5.35 -10.20 -11.45 -12.40 -14.60 -3 -4.25 -7.45 -12.50 -10.50 -19.30 -1.60 -3.50 -4.35 -8.75 -6.15 -11.70 -7.15 -11.50 -10.50 -19.85 -15.95 -39.40 -1 -3.55 -2.55 -8.40 -3.50 -10.75 -1.90 -4.95 -5.85 -16.95 -6.95 -21.25 -0.40 -1.65 -1.65 -7.40 -2.75 -12.75 -1.10 -5.35 -2.55 -12.10 -3.20 -15 -1.95 -8.15 -3.20 -15.50 -4.30 -24.85 -0.80 -6.85 -1.45 -10.10 -3.25 -16 -2.65 -8.75 -3.85 -13.75 -5.60 -23.90 -0.70 -4.10 -1.70 -9.85 -2.20 -12.75 -0.55 -2.90 -1.10 -6.90 -1.30 -8.95 -0.20 -2.05 -0.65 -4.30 -1 -5 l-0.70 -1.30 -0.05 1.50 0 1.50 -0.55 -1.25 c-0.50 -1.25 -0.45 -3.05 0.60 -18.50 0.75 -11.70 1.35 -14.75 5.10 -27 3.30 -10.80 13.25 -36.95 14.65 -38.50 0.35 -0.40 1.20 -2.20 1.90 -4 1.70 -4.60 4.90 -10.80 9.15 -17.75 4.45 -7.40 6.75 -11.95 8.15 -16.30 1.30 -3.95 2.35 -5.45 7.40 -10.60 3.30 -3.30 4.05 -3.85 5.55 -3.85 1.70 0 1.70 0 1.45 1.90 -0.15 1 -0.55 3 -0.90 4.45 -0.55 2.25 -0.50 2.70 0.20 3.85 1.65 2.45 3.55 1.10 4.35 -3.10 1.20 -6.40 5.40 -11.10 22.65 -25.25 9.15 -7.55 11.30 -8.85 14.50 -8.85 1.30 0 2.35 0.25 2.35 0.50 0 0.30 -0.25 0.50 -0.55 0.50 -0.25 0 -0.35 0.25 -0.20 0.50 0.15 0.30 1.65 0.50 3.35 0.50 l3 0 4 -3.75 c2.15 -2.05 4.65 -4.15 5.45 -4.60 1 -0.60 1.45 -1.20 1.25 -1.75 -0.30 -1.25 1.45 -1.20 3.05 0.10 2.50 1.95 4.15 1 4.15 -2.30 0 -1.90 0.25 -2.35 2.40 -4.20 2.45 -2.20 8.60 -6 9.60 -6 0.35 0 1.30 -0.35 2.15 -0.80 2.85 -1.50 3.35 -1.70 3.90 -1.70 0.30 0 1.25 -0.30 2.10 -0.70 0.90 -0.35 3 -1.10 4.75 -1.55 1.70 -0.50 3.10 -1.05 3.10 -1.25 0 -0.20 1.45 -0.50 3.25 -0.60 1.80 -0.15 3.55 -0.50 3.90 -0.80 0.30 -0.30 1.75 -0.65 3.10 -0.80 2.40 -0.30 2.45 -0.30 1 0.35 -0.95 0.45 -1.25 0.80 -0.85 1.05 0.35 0.20 0.60 0.15 0.60 -0.15 0 -0.30 0.30 -0.40 0.65 -0.25 0.60 0.20 8.20 -1.65 47.85 -11.80 7.55 -1.90 14.05 -3.85 14.45 -4.25 0.50 -0.50 0.55 -0.75 0.15 -0.75 -0.35 0 -0.60 -0.20 -0.60 -0.40 0 -1.45 18.70 -2.20 21 -0.85 2.35 1.35 2.55 1.35 3.50 0.50 0.50 -0.45 1.10 -1.50 1.25 -2.30 0.30 -1.40 1 -1.90 1.35 -1 0.15 0.45 3 0.05 15.15 -2.15 14.50 -2.70 63.90 -3 79.35 -0.50 8.85 1.40 21.60 5.60 29.75 9.75 3.45 1.80 7.15 3.10 15 5.20 5.70 1.55 12.05 3.40 14.05 4.10 2 0.70 3.80 1.10 3.95 0.95 0.20 -0.15 0.05 -0.30 -0.25 -0.30 -0.35 0 -0.60 -0.20 -0.60 -0.50 0 -0.25 0.60 -0.50 1.40 -0.50 0.95 0 3.65 1.75 9.10 5.75 21.55 16 27.30 19.95 35.25 24.05 1.95 1 5.05 2.75 7 3.85 2.85 1.65 3.90 2 5.75 1.95 l2.25 -0.15 4.40 6.15 c9.55 13.40 13.60 24.80 17.55 49.60 1.25 7.70 2.05 10.05 3.60 10.65 0.45 0.15 1.20 -0.15 1.75 -0.70 1 -0.95 0.95 -1.05 -0.80 -11.70 -2.25 -13.55 -2.25 -12.95 0.15 -12.95 1.60 0 1.95 0.25 2.75 1.80 0.45 0.95 0.85 2.60 0.85 3.70 0 3.20 3.30 10.40 11.35 24.95 5.65 10.15 16.85 33 18.05 36.90 1.80 5.60 8.50 31.40 10.15 38.90 0.85 3.85 2.30 11.95 3.25 18 1.35 8.90 1.90 11.15 2.70 11.95 0.80 0.80 1.20 0.90 1.85 0.50 1.70 -1.10 1.90 -2 1.20 -6.55 -0.40 -2.40 -0.80 -5.60 -0.95 -7.05 l-0.20 -2.60 1.70 0 1.70 0 1.35 4.65 c1.65 5.65 1.65 6.70 0.25 7.95 -1 0.85 -1.10 1.45 -1.20 6.80 -0.15 6.05 -1.65 27.10 -2 27.65 -0.10 0.20 -0.55 5.45 -0.95 11.75 -0.70 10.50 -1.50 16.55 -3.50 27.45 -0.50 2.85 -0.70 7.85 -0.75 17.30 0 12.90 0.05 13.40 1.15 16 1.40 3.20 3.65 11 5.90 20.70 1.45 6.30 2 7.65 5.10 13.25 5.15 9.20 5.20 9.30 9.05 10.20 1.15 0.30 1.35 0.20 1.15 -0.40 -0.20 -0.50 -0.05 -0.65 0.45 -0.45 0.95 0.35 0.95 5.30 -0.10 12.80 -1 7.05 -0.80 7.60 3.05 7.40 l2.25 -0.10 0 3.15 c0 1.75 -0.35 4.50 -0.75 6.15 -0.95 3.95 -0.95 6.50 0.05 8 0.70 1.05 0.75 2.05 0.45 5.90 l-0.35 4.70 2.40 3.65 c3.65 5.70 7.05 12.70 7.70 15.85 0.30 1.60 0.85 3.95 1.25 5.20 0.40 1.30 0.75 3.10 0.75 4 0 0.95 0.35 2.15 0.75 2.65 0.85 1.10 1 4.30 0.25 4.30 -0.25 0 -0.50 -0.20 -0.50 -0.50 0 -1.15 -0.95 -0.25 -4.45 4 -3.50 4.25 -6.45 7.10 -11.55 11 -2.35 1.85 -11.20 6.50 -12.40 6.50 -0.45 0 -0.55 0.35 -0.35 1 0.25 0.85 0.10 1 -1.25 1 -0.90 0 -2.25 -0.40 -3.05 -0.85 -1.80 -1.10 -3 -0.50 -3.70 1.75 -0.45 1.65 -2.25 2.30 -2.25 0.85 0 -0.65 -1.10 -0.75 -6.85 -0.75 -4.75 0 -8.30 -0.30 -11.40 -0.95 -2.45 -0.50 -4.55 -0.90 -4.60 -0.80 -0.10 0.05 0.40 1.45 1.05 3.10 3.10 7.55 3.50 10 3.55 22.40 0.05 6.35 0.35 13.55 0.75 16.10 l0.65 4.55 2.70 2.70 c1.70 1.65 2.85 2.40 3 2.05 0.50 -1.35 1.15 -0.55 1.15 1.35 0 1.55 0.30 2.35 1.25 3.20 1.45 1.35 1.55 2.55 0.45 6.30 -1.75 5.90 -1.40 43.40 0.60 62 0.85 8 2.15 15.55 4.45 25.60 1.65 7.25 2.10 12.20 1.85 21.55 -0.05 1.55 0.15 3.80 0.45 5 0.25 1.15 0.70 10.55 0.95 20.85 0.25 10.30 0.70 20.90 0.95 23.50 0.80 7.35 0.70 12 -0.20 12 -0.40 0 -0.75 -0.35 -0.75 -0.75 0 -1.35 -0.80 -0.80 -3.40 2.45 -7.40 9.05 -17.30 16 -27.85 19.45 -6.75 2.25 -11.05 2.90 -18.25 2.95 -16.20 0.10 -30.50 -5.85 -42 -17.55 -5.70 -5.75 -9.40 -11.25 -14 -20.55 -3.50 -7.25 -5.90 -14.05 -7.20 -20.60 -0.40 -2.10 -1.30 -5.15 -1.95 -6.75 -0.65 -1.60 -1.55 -3.90 -2 -5.15 l-0.85 -2.30 -3.60 -0.65 c-2 -0.35 -5.55 -1.30 -7.90 -2.10 -4.90 -1.65 -5.20 -1.70 -4.80 -0.70 0.40 1.10 -0.95 0.95 -3.75 -0.35 -2.15 -1.05 -3.25 -2.40 -1.95 -2.40 1.20 0 0.35 -1 -1.75 -2.05 -1.20 -0.60 -3.80 -2.30 -5.70 -3.75 -2.70 -2 -4.20 -2.75 -6.40 -3.20 -4.50 -0.90 -9.70 -2.40 -13.15 -3.80 -2.80 -1.15 -3.40 -1.20 -5.40 -0.70 -3.20 0.80 -11.95 2 -14.80 2 -1.95 0 -3.65 0.60 -9 3.25 -10.65 5.25 -21.25 8.20 -32.80 9.20 -4.25 0.35 -6.05 0.80 -9.55 2.25 -8.95 3.75 -19.80 5.35 -29.25 4.35 -3 -0.30 -6.70 -0.90 -8.20 -1.30 -1.50 -0.40 -2.80 -0.65 -2.90 -0.55 -0.25 0.30 0.75 7.25 3.70 25.10 1.50 9.15 2.70 16.75 2.70 16.95 0 0.25 0.40 0.05 0.90 -0.40 0.80 -0.75 0.85 -0.25 0.85 9.20 0 7.15 -0.15 9.95 -0.60 9.95 -0.30 0 -0.75 -0.85 -1.05 -1.85 -0.40 -1.50 -0.50 -1.65 -0.55 -0.65 -0.10 2.60 -2.70 10.90 -4.80 15.35 -3.75 7.95 -9.60 15.40 -16.25 20.75 -4.15 3.35 -13.85 8.25 -19.50 9.85 -4.50 1.25 -14.40 2.70 -16.95 2.50 -0.45 -0.05 -1.45 -0.20 -2.30 -0.30z m-88.25 -209.85 c-0.65 -2.65 -1.30 -4.80 -1.50 -4.80 -0.35 0 0 1.95 1.60 7.90 1.05 4.10 1 1.65 -0.10 -3.10z m144.10 -19.65 c0.45 -0.50 0.95 -1.45 1.15 -2.15 0.40 -1.35 1.45 -2.90 8.15 -12.10 2.85 -3.90 4.60 -5.90 5.20 -5.90 0.55 0 1.60 -0.35 2.40 -0.75 1.20 -0.60 1.65 -1.40 2.55 -4.40 1.90 -6.30 5.45 -20.80 5.75 -23.65 0.35 -2.65 0.35 -2.70 1.95 -2.70 2.25 0 11.60 -1.35 17.75 -2.55 17.25 -3.35 33.90 -8.45 48.25 -14.70 3.55 -1.55 6.40 -2.50 8 -2.60 l2.50 -0.15 2.90 3.40 c1.60 1.90 3.40 4 4 4.65 6.40 7 10.75 12.10 13.05 15.40 l2.85 4 2.40 -0.30 c2.25 -0.25 2.70 -0.10 6.25 2.05 5.05 3.05 6.30 3.30 7.75 1.55 0.55 -0.75 1.05 -1.70 1.05 -2.05 0 -1.50 -5.05 -11.85 -9.90 -20.40 -4 -7 -5.10 -9.35 -5.10 -10.85 0 -1.05 0.20 -2.05 0.50 -2.20 0.30 -0.20 0.35 -1.75 0.20 -3.90 l-0.35 -3.65 4.45 -2.80 c7.55 -4.80 19.65 -15.75 21.75 -19.65 l1.20 -2.20 -1.50 -1.55 c-0.80 -0.80 -1.90 -1.50 -2.45 -1.50 -0.60 0 -1.65 -0.70 -2.40 -1.60 -1.95 -2.40 -2.85 -1.70 -5.15 3.85 -0.95 2.35 -4.35 6.25 -5.45 6.25 -0.45 0 -2.25 1.35 -4.05 2.95 -5.10 4.60 -7.65 6.15 -9.90 5.95 -1.80 -0.15 -2.20 0.05 -5.40 3.20 -2.65 2.60 -3.90 3.40 -5.35 3.65 -2.85 0.45 -4.25 1.35 -4.75 3.05 -0.50 1.80 -1.60 2.40 -8.80 5 -2.95 1.10 -5.60 1.70 -7.20 1.70 -1.55 0 -3.05 0.35 -4.05 0.95 -2.85 1.75 -10 4.45 -15.80 5.95 -15 3.90 -28.20 6.60 -32.15 6.60 -1.60 0 -2.30 0.30 -3.55 1.65 -1.80 1.90 -4.05 2.60 -9.90 3.15 -2.75 0.25 -3.90 0.15 -3.90 -0.20 0 -0.35 -0.50 -0.90 -1.10 -1.30 -1.05 -0.65 -1.65 -0.60 -5.60 0.45 -6.65 1.80 -14.35 2.90 -18.95 2.65 -4.80 -0.25 -8.25 -1.60 -10.65 -4.20 -1.40 -1.50 -1.85 -1.70 -4.20 -1.70 -2.85 0 -4.50 0.65 -4.50 1.75 0 0.55 -0.55 0.75 -1.90 0.75 -2.35 0 -3.85 1 -5.10 3.55 -1 1.90 -1 1.95 -0.05 2.90 1.25 1.25 6.75 2.90 11.65 3.55 2 0.25 7.75 0.50 12.80 0.50 l9.10 0 0 1.50 c0 4.65 -5.20 24 -7.30 27.05 -1.25 1.80 -1.20 3.15 0.10 3.65 1 0.40 0.85 3.10 -0.35 6.30 -0.55 1.50 -1.45 4.60 -1.95 6.85 -0.80 3.60 -0.80 4.20 -0.15 5.10 0.85 1.30 2.25 1.35 3.25 0.20z m54.15 -154.65 c5.35 -0.75 7.70 -1.80 8.55 -3.75 0.75 -1.85 0.40 -1.75 11.95 -3.75 8.40 -1.45 19.55 -4.20 23.30 -5.75 1.75 -0.70 5.80 -1.95 8.95 -2.75 6.70 -1.70 12.10 -3.80 20.05 -7.80 3.15 -1.55 8.05 -3.70 10.95 -4.80 7.10 -2.65 10.80 -4.80 13.85 -8.05 2.80 -2.95 3.55 -4.20 6.65 -11.60 1.15 -2.75 3.35 -7.15 4.90 -9.75 2.35 -4 4.35 -8.05 7.10 -14.25 2.30 -5.20 3.15 -10.35 2 -12.50 -0.90 -1.70 -0.70 -3.20 2.70 -20 2.65 -13 3.90 -21.80 3.95 -27.50 0.05 -8.20 -3.65 -30.55 -6.15 -37.50 -0.55 -1.35 -1.50 -5.35 -2.25 -8.90 -0.70 -3.50 -1.70 -7.75 -2.25 -9.50 -1 -3.10 -1.40 -8.25 -0.55 -6.95 1.20 1.90 1.35 -3.70 0.35 -11.90 -0.55 -4.35 -1.15 -6.50 -3.50 -12.50 -3.70 -9.20 -3.20 -8.75 -23.50 -22.30 -13.65 -9.15 -17.65 -11.40 -24.50 -14 -2.75 -1 -7.50 -3 -10.60 -4.45 -5.90 -2.75 -14.35 -5.50 -15.30 -4.95 -0.35 0.20 -0.30 0.50 0.15 0.80 0.50 0.35 0.05 0.40 -1.30 0.25 -1.20 -0.15 -4.25 -1.55 -7.75 -3.55 -6.50 -3.75 -11.65 -5.90 -17.85 -7.35 -3.70 -0.90 -4.70 -1.35 -7.35 -3.55 -3.80 -3.20 -7.85 -5.10 -13.05 -6.15 -5.80 -1.20 -20.35 -1.55 -29.25 -0.70 -4 0.40 -10.95 0.70 -15.50 0.70 -4.55 0 -12.60 0.20 -17.90 0.45 -9.45 0.45 -9.70 0.50 -10.65 1.70 -0.50 0.70 -0.95 1.50 -0.95 1.85 0 0.60 -14.15 4.25 -16.55 4.25 -0.75 0 -1.60 -0.35 -1.95 -0.75 -0.35 -0.40 -0.95 -0.75 -1.40 -0.75 -0.40 0 -3.90 1.65 -7.80 3.60 l-7.05 3.60 -10.40 10.45 c-17.80 17.90 -28.15 29.60 -32.30 36.45 l-1.10 1.85 1 1 c1.60 1.60 1.40 4.45 -0.50 7.65 -2.35 3.90 -7.35 14.25 -8.05 16.45 -0.75 2.65 0.35 3.95 3.45 3.95 2 0 2.15 0.10 2.15 1.40 0 1.85 -1.35 6.10 -2.20 7.05 -0.95 1.05 -1.20 2.30 -1.80 8.30 -0.25 2.75 -1.05 9.30 -1.75 14.50 -0.95 7.05 -1.35 12.65 -1.60 21.75 -0.30 14.25 0.25 18.85 3.15 26.15 1.40 3.45 2 6 2.70 11.75 2 15.30 4.05 20.70 16.15 41.95 3.40 6 6.50 11.80 6.85 12.90 0.80 2.55 2.65 5.80 4.50 7.90 0.80 0.90 2.70 3.90 4.30 6.65 7.40 12.90 11.85 17.75 21.30 23.25 4.80 2.80 12.75 5.90 18.10 7 5.55 1.20 25.20 2 36.90 1.60 4.90 -0.20 10.10 -0.05 13.80 0.30 3.25 0.35 8.50 0.85 11.65 1.05 6.90 0.50 28.35 0.20 33.20 -0.50z m-170 -363 c0.65 -0.25 0.70 -0.45 0.25 -0.45 -0.40 0 -1.20 0.20 -1.75 0.45 -0.65 0.25 -0.70 0.45 -0.25 0.45 0.40 0 1.20 -0.20 1.75 -0.45z m5.05 -1.75 c0.85 -0.65 0.80 -0.70 -0.80 -0.15 -2.15 0.70 -2.45 0.90 -1.20 0.90 0.55 0 1.45 -0.35 2 -0.75z"/>
  <path d="M456 878.10 c0 -0.80 0.55 -3.10 1.25 -5.10 1.50 -4.45 1.50 -4.80 0.25 -5.85 -1.20 -1.05 -1.25 -2.55 -0.10 -8.15 l0.90 -4.25 4.40 -0.15 4.45 -0.15 -0.30 2.65 c-0.20 1.45 -1.25 6.35 -2.35 10.90 -1.80 7.15 -2.25 8.45 -3.60 9.90 -1.15 1.15 -2.05 1.60 -3.25 1.60 -1.50 0 -1.65 -0.15 -1.65 -1.40z"/>
  <path d="M575.45 852.10 c-1.50 -1.60 -3.40 -3.70 -4.30 -4.75 -1.25 -1.45 -1.90 -1.85 -3.30 -1.85 -1.85 0 -2.55 -0.60 -7.55 -6.95 -1.35 -1.75 -3 -3.50 -3.65 -3.90 -0.80 -0.55 -1.15 -1.25 -1.15 -2.35 0 -1.60 0.15 -1.70 4.65 -3.45 2.55 -1 5.30 -1.85 6.15 -1.85 1.45 0 1.70 0.30 4.15 4.95 1.40 2.75 4.50 8.30 6.80 12.40 2.95 5.10 4.25 7.90 4.25 9.05 0 1.50 -0.10 1.60 -1.65 1.60 -1.40 0 -2.15 -0.50 -4.40 -2.90z"/>
  <path d="M447.55 743.75 c-3.75 -0.70 -5.55 -1.75 -5.55 -3.20 0 -0.85 3.60 -2.70 13.95 -7.15 10.85 -4.65 23.45 -8.30 37.05 -10.65 12.20 -2.10 40.60 -5.70 53.50 -6.75 6.75 -0.55 13.55 -1.25 15.15 -1.55 4.40 -0.75 9.50 -2.45 10.20 -3.25 0.30 -0.45 0.85 -0.70 1.25 -0.65 0.35 0.05 1.25 -0.05 2.05 -0.30 1.15 -0.30 1.30 -0.50 0.75 -1.15 -0.60 -0.65 -0.40 -0.75 1.50 -0.45 1.50 0.15 3.10 -0.05 5 -0.70 1.60 -0.50 3.45 -0.95 4.25 -0.95 1.20 0 1.35 0.20 1.35 1.70 0 0.90 -0.35 1.95 -0.75 2.30 -0.40 0.35 -0.75 1.35 -0.75 2.30 0 1.50 -0.25 1.80 -3.10 3.40 -1.75 0.95 -7.10 3.10 -11.90 4.75 -4.80 1.65 -11.55 4.25 -15 5.80 -4.75 2.15 -7 2.90 -9.35 3.10 l-3.15 0.30 0 -1.70 c0 -1.70 0 -1.70 4.40 -3.10 5.85 -1.85 8.35 -3.30 8.35 -4.80 0 -0.65 -0.35 -1.40 -0.80 -1.70 -1.25 -0.80 -14.30 3.90 -29.70 10.75 -15.20 6.75 -17.80 7.70 -22.60 8.40 -5.35 0.75 -7.85 0.65 -9.25 -0.50 -1.10 -0.85 -1.35 -0.90 -2.30 -0.20 -0.75 0.50 -1.10 1.35 -1.20 3.05 -0.15 2.25 -0.25 2.40 -1.90 2.80 -0.95 0.25 -9.85 0.55 -19.75 0.65 -13.80 0.10 -18.85 -0.05 -21.70 -0.55z"/>
  <path d="M393.50 739.55 c-4.65 -2.05 -9.45 -4.90 -11.60 -6.95 -1 -0.90 -1.40 -1.80 -1.40 -2.95 0 -1.45 0.15 -1.65 1.40 -1.65 0.85 0 3.95 1.55 7.90 3.90 3.60 2.10 7.70 4.40 9.10 5.05 2.35 1.10 2.60 1.35 2.60 2.90 0 1.60 -0.10 1.65 -1.85 1.60 -1.05 0 -3.80 -0.85 -6.15 -1.90z"/>
  <path d="M407.15 735.80 c-9.70 -3.55 -31.15 -16.45 -31.15 -18.75 0 -0.45 -1.15 -2.20 -2.55 -3.80 -3.40 -4 -7.35 -9.30 -9.90 -13.35 l-2.10 -3.30 0.15 -4.45 c0.15 -4 0.05 -4.50 -0.95 -5.25 -0.55 -0.50 -1.90 -0.90 -2.90 -0.90 -1.75 0 -1.85 -0.10 -3.55 -3.70 -1.65 -3.65 -2.30 -7.80 -1.20 -7.80 1.10 0 0.35 -1.60 -2.05 -4.35 -7.35 -8.40 -10.80 -24.20 -11.30 -52 -0.30 -16 -0.10 -18.80 1.20 -18.55 0.45 0.10 0.85 0.50 0.95 0.90 0.10 0.40 0.95 3.45 1.95 6.75 1.75 5.80 3.80 14.85 4.45 20 0.20 1.40 1.30 5.65 2.40 9.50 2.95 10.20 5.80 21.65 6.95 28.25 1.30 7.20 4.25 19 5.20 20.85 0.40 0.75 0.75 1.60 0.75 1.90 0 0.25 1 3.10 2.25 6.30 3.60 9.20 6.90 14.15 12.10 18.10 5.20 3.90 13.10 9.35 13.60 9.35 0.25 0 0.55 0.20 0.65 0.40 0.25 0.60 9.45 6.10 10.25 6.10 0.35 0 0.65 0.15 0.65 0.40 0 0.20 1.50 1.15 3.40 2.10 1.85 0.95 3.45 1.90 3.60 2.05 0.15 0.20 1.15 0.80 2.30 1.35 1.60 0.80 2.20 0.90 2.65 0.45 0.50 -0.45 0.60 -0.20 0.45 1.15 -0.15 1.60 -0.30 1.75 -1.90 1.85 -1 0.10 -3.75 -0.60 -6.35 -1.55z"/>
  <path d="M532.50 733.75 c0 -1.65 0.20 -1.85 2.30 -2.75 1.25 -0.55 3.05 -1 4 -1 1.65 0 1.70 0.05 1.70 1.90 0 1.90 -0.05 1.95 -2.65 2.75 -1.50 0.45 -3.30 0.85 -4 0.85 -1.20 0 -1.35 -0.20 -1.35 -1.75z"/>
  <path d="M592.10 693.90 c2.30 -2.85 6.75 -7.80 9.90 -11.05 5.80 -5.95 6.35 -6.80 6.45 -10.50 0.05 -1.30 0.25 -1.80 0.65 -1.55 0.40 0.25 0.45 0.10 0.25 -0.45 -0.25 -0.60 -0.05 -0.85 0.65 -0.85 0.75 0 1 0.35 1 1.25 0 1.80 -2.35 11.55 -3.20 13.15 -0.95 1.80 -8.65 9.20 -13.05 12.50 -2.55 1.90 -3.95 2.60 -5.15 2.60 l-1.65 0 4.15 -5.10z"/>
  <path d="M608.75 659.40 c0.25 -6.30 0.45 -7.65 2.55 -19.40 0.85 -4.95 1.20 -9 1.30 -15.25 0.15 -8.80 0.35 -9.75 2.30 -9.75 0.90 0 1.05 0.45 1.40 3.35 0.15 1.80 0.20 7.60 0.05 12.85 -0.30 10.05 -0.55 11.45 -4.45 27.40 -1.35 5.60 -1.80 6.90 -2.50 6.90 -0.80 0 -0.85 -0.55 -0.65 -6.10z"/>
  <path d="M334.50 555.25 c0 -0.95 0.50 -2.95 1.15 -4.50 1.05 -2.55 1.20 -2.75 2.80 -2.75 l1.70 0 -0.30 4.05 c-0.20 2.20 -0.45 4.20 -0.60 4.50 -0.20 0.25 -1.30 0.45 -2.55 0.45 -2.20 0 -2.20 0 -2.20 -1.75z"/>
  <path d="M393 488.30 c0 -0.95 -0.35 -2.05 -0.75 -2.50 -0.40 -0.40 -0.75 -1.50 -0.75 -2.45 0 -1.70 0.05 -1.75 3.90 -3 2.10 -0.70 7.45 -2.10 11.85 -3.10 4.40 -1.05 11.60 -2.80 16 -3.90 7.80 -2 8.25 -2.05 17.75 -2.20 11.25 -0.20 19.65 0.60 19.90 1.90 0.20 1.15 -2.05 1.70 -15.15 3.75 -13.75 2.15 -48.55 10.55 -51.60 12.50 -1.10 0.70 -1.15 0.65 -1.15 -1z"/>
  <path d="M731.75 1046.65 c-0.20 -1.60 -0.65 -4.35 -1.05 -6.15 -0.70 -3.15 -2.20 -13.85 -2.20 -15.60 0 -0.95 2.35 -2.40 3.85 -2.40 0.65 0 0.90 0.40 0.95 1.40 0 0.75 0.30 3.10 0.60 5.25 0.65 4.35 0.75 10 0.25 16.25 -0.25 3.45 -0.45 4.10 -1.15 4.10 -0.70 0 -0.95 -0.60 -1.25 -2.85z"/>
  <path d="M517.50 1020.80 c0 -0.35 0.50 -0.80 1.15 -1 2.05 -0.55 2.85 -0.35 2.85 0.70 0 0.85 -0.35 1 -2 1 -1.35 0 -2 -0.20 -2 -0.70z"/>
  <path d="M247.60 868.50 c-0.60 -1.95 -1.10 -4.30 -1.10 -5.25 0 -1.65 0.10 -1.75 1.65 -1.75 2.35 0 3.85 2.80 3.85 7.20 l0 3.30 -1.65 0 c-1.60 0 -1.70 -0.10 -2.75 -3.50z"/>
  <path d="M248.75 850.50 c-1.85 -3.70 -3.25 -7.15 -3.25 -8 0 -1.50 0.70 -2.05 1.15 -0.85 0.20 0.50 0.30 0.50 0.30 0 0.05 -0.35 0.60 -0.65 1.25 -0.65 1 0 1.60 0.90 4.25 5.95 2.30 4.45 3.05 6.45 3.05 8 0 2 -0.05 2.05 -1.75 2.05 -1.75 0 -1.75 -0.05 -5 -6.50z"/>
  <path d="M764.25 805.15 c-0.75 -1.90 -2 -6.30 -2.80 -9.90 -1.60 -7.05 -2.60 -8.75 -5.30 -8.75 l-1.30 0 0.30 -10.15 c0.25 -9.40 0.40 -10.65 1.95 -16.50 1.30 -5.10 1.80 -6.35 2.50 -6.35 0.55 0 0.90 0.35 0.90 0.95 0 0.50 1.05 2.45 2.30 4.35 3.05 4.50 5.50 9.85 7.05 15.45 2.45 8.90 2.05 21.95 -0.95 31.15 -0.85 2.60 -1.25 3.10 -2.15 3.10 -0.95 0 -1.40 -0.60 -2.50 -3.35z"/>
  <path d="M725.05 548.65 c-1.80 -4.55 -2 -6.90 -0.60 -7.65 0.55 -0.25 1.10 -0.90 1.30 -1.40 0.35 -1.15 -4.90 -16.60 -8.35 -24.50 -3.25 -7.55 -7.65 -16.25 -12 -24 -3.85 -6.80 -4.45 -8.25 -7.15 -18.10 -1.05 -3.70 -2.30 -7.15 -2.80 -7.70 -0.60 -0.65 -1.60 -0.95 -3.25 -1 l-2.40 -0.05 -5.20 -9 c-11.15 -19.30 -14.10 -24.85 -14.10 -26.70 l0.05 -1.80 1.35 1.50 c0.75 0.85 2.25 2.20 3.35 3 2.35 1.70 10.80 9.30 14.65 13.15 2.15 2.20 2.80 2.55 3.40 2.10 0.60 -0.50 0.70 -0.40 0.70 0.75 0 0.95 -0.60 1.90 -2.10 3.25 l-2.15 1.95 1.25 1.25 1.30 1.30 1.95 -1.50 c2.10 -1.55 5.45 -2.20 4.25 -0.75 -0.45 0.55 -0.35 0.95 0.50 1.85 4.30 4.55 13.15 20.65 16.30 29.65 0.75 2.20 2.80 7.25 4.55 11.20 4.95 11.25 6.50 17.65 7.65 31.30 0.35 3.85 0.70 7.15 0.85 7.40 0.40 0.65 1.15 15.95 0.85 17.20 -0.20 0.80 -0.70 1.15 -1.45 1.15 -0.95 0 -1.40 -0.65 -2.70 -3.85z"/>
  <path d="M185.60 509.15 c0.15 -1.35 1.45 -5.40 2.90 -9 l2.65 -6.65 1.70 0 c1.55 0 1.65 0.10 1.65 1.85 0 1.10 -1.15 4.80 -2.85 9 l-2.85 7.15 -1.70 0 -1.75 0 0.25 -2.35z"/>
  <path d="M191.40 478.85 c0.30 -0.35 0.90 -1.75 1.40 -3.10 2 -6 8.65 -17.65 13.85 -24.50 4.05 -5.25 15.95 -17.75 16.95 -17.75 0.25 0 1.10 -0.75 1.90 -1.60 l1.45 -1.65 0.05 1.90 c0 1.20 -0.25 2 -0.75 2.15 -0.40 0.20 -0.75 0.50 -0.75 0.70 0 0.25 -1.40 2.45 -3.10 4.90 -2 2.90 -3.55 4.65 -4.50 5 -0.90 0.30 -2.05 1.60 -3.25 3.60 -1.05 1.70 -3.35 4.90 -5.10 7.15 -3.50 4.50 -14.10 20.30 -15.10 22.50 -0.45 1.05 -0.95 1.35 -2.10 1.35 -1.15 0 -1.35 -0.15 -0.95 -0.65z"/>
 </g>
 <g fill="#000000">
  <path d="M370.25 1158.50 c-4.30 -0.70 -11.20 -2.75 -15.05 -4.50 -1.85 -0.80 -4.10 -1.50 -5 -1.50 -2.05 0 -9 -3.50 -12.90 -6.55 -3.75 -2.85 -7.95 -8.45 -11.25 -15 -1.50 -2.85 -3.50 -6.35 -4.55 -7.75 -2.75 -3.70 -4.20 -6.80 -5.95 -12.95 -2 -6.80 -3.65 -16.55 -5.10 -29.25 -0.90 -8.40 -1 -11.45 -0.80 -22 0.20 -6.75 0.55 -14.40 0.90 -17 0.70 -5.70 0.30 -18.85 -0.80 -26.50 -0.40 -2.85 -1.55 -9.15 -2.50 -14 -0.90 -4.80 -1.95 -10.75 -2.25 -13.25 -2.20 -17.65 -4.15 -25.20 -9.85 -38.25 -2.45 -5.65 -4.80 -11.05 -5.15 -12 -0.35 -0.95 -0.80 -1.90 -1 -2.10 -0.15 -0.25 -0.60 2.15 -0.90 5.25 -1.15 10.30 -4.10 31.60 -4.60 33.45 -0.55 2 -1.70 2.90 -3.90 3.05 l-1.30 0.10 -1.40 11 c-0.75 6.05 -1.60 12.35 -1.85 14 -0.60 3.35 -1.80 4.75 -4.05 4.75 -0.75 0 -2.15 0.30 -3.05 0.70 -3.90 1.65 -6.15 -0.30 -6.65 -5.75 -0.35 -3.30 -1 -6.45 -3.05 -14.45 -2.10 -8.35 -6.10 -20.35 -7.10 -21.35 -0.65 -0.65 -1.50 -2 -1.90 -3 -2.25 -5.40 -2.85 -8.10 -3.35 -15.90 -0.25 -4.40 -0.65 -10.15 -0.85 -12.75 -0.40 -5.90 0.15 -24.65 0.95 -33 0.55 -6.25 0.55 -6.30 -1.25 -16 -3.30 -17.90 -3.20 -17.60 -14.10 -40 -7.30 -14.90 -9.10 -18.95 -16.90 -38 -3.35 -8.25 -8.05 -18.55 -11.10 -24.50 -10.05 -19.40 -14.65 -29.20 -18.40 -39.25 -2.25 -6.05 -13.55 -45.35 -16.25 -56.50 -3.55 -14.60 -6.50 -33.30 -7.45 -46.75 -0.45 -6.45 -0.55 -7 -3 -13.05 -1.40 -3.45 -2.55 -6.70 -2.55 -7.15 0 -1.45 2.75 -3.80 4.40 -3.80 1.45 0 1.50 -0.10 1.85 -2.90 0.20 -1.60 0.10 -4.35 -0.20 -6.15 -0.30 -1.75 -0.70 -3.90 -0.85 -4.80 -0.30 -2.10 -2.25 -3.45 -6.65 -4.70 -1.95 -0.50 -5.10 -1.70 -7.05 -2.65 -4.15 -2.05 -13.85 -8.75 -21.60 -14.95 -3 -2.40 -6.20 -4.75 -7.05 -5.15 -0.90 -0.45 -2.40 -1.55 -3.35 -2.45 -0.95 -0.90 -3.30 -2.70 -5.25 -4.05 -1.90 -1.30 -4.40 -3.10 -5.50 -3.95 -1.65 -1.35 -2.35 -1.55 -3.85 -1.40 -4 0.50 -8.55 -4.45 -20.10 -21.85 -10.70 -16.10 -13 -20.20 -18.30 -32.25 -1.45 -3.30 -4.40 -9.95 -6.60 -14.75 -10.05 -21.95 -12.55 -31.50 -12.60 -48.75 -0.05 -8.25 0.05 -9.80 0.85 -11.55 1.15 -2.55 2.65 -3.45 5.05 -3 1.75 0.35 1.80 0.30 1.80 -1.15 0 -0.85 0.20 -2.60 0.45 -3.90 0.30 -1.30 0.85 -4.40 1.30 -6.85 1.35 -7 3.20 -13.35 4.70 -16.05 0.75 -1.35 1.30 -2.75 1.20 -3.10 -0.35 -1 1.25 -6.45 2.80 -9.55 3.50 -6.90 11.50 -15.90 29.40 -32.90 7.80 -7.40 9.35 -8.70 10.70 -8.70 0.80 0 1.95 0.25 2.50 0.50 0.80 0.45 1.50 0.10 4.25 -2.25 4.20 -3.55 7.25 -5.60 16.45 -11 4.15 -2.45 10 -6.05 13 -8 7.05 -4.65 7.30 -4.75 9.65 -4.75 1.60 0 2.30 0.30 3.45 1.50 0.75 0.80 1.90 1.50 2.50 1.50 2.90 0 5.15 2.55 4.50 5.05 -0.20 0.80 0.10 1.50 1.20 2.50 0.85 0.80 1.45 1.85 1.45 2.60 0 2.05 -2.45 6.30 -4.45 7.75 -5.60 4.10 -6.05 4.65 -6.05 6.95 0 1.80 -0.25 2.45 -1.30 3.30 -5.80 4.85 -6.10 5.35 -9.90 15.55 -1.35 3.50 -1.70 5.10 -1.35 5.45 1.15 1.15 0.60 4 -1.05 5.70 -1.25 1.30 -1.60 2.15 -1.80 4.30 -0.15 1.70 0 2.85 0.35 3.05 0.30 0.20 0.55 1.20 0.55 2.25 0 1.90 -1.20 3.55 -3.05 4.20 -0.75 0.25 -0.90 1.80 -1.20 11.95 -0.60 19.05 -0.15 33.95 1.25 42 1.05 5.85 1.10 7.05 0.55 8.75 -0.55 1.70 -0.50 2.20 0.45 4.40 1.65 3.80 11 20.85 12.25 22.25 0.60 0.70 2.10 2.70 3.25 4.50 5.35 8.15 15.65 19.70 19.95 22.50 1.30 0.80 2.50 1.50 2.65 1.50 0.15 0 0.55 -1.05 0.90 -2.35 0.30 -1.30 1.55 -5 2.70 -8.15 1.65 -4.35 2.35 -7.25 3 -12 1.10 -8.50 2.10 -13.25 4.15 -20 2.25 -7.60 6.95 -18.45 8.55 -19.95 2.35 -2.15 6.60 -0.35 6.60 2.80 0 0.70 -1.10 3.75 -2.45 6.85 -1.30 3.05 -2.80 6.55 -3.25 7.70 -1.10 2.95 -3.85 12.70 -3.60 12.95 0.10 0.10 1.20 -0.50 2.45 -1.35 1.40 -0.95 2.85 -2.50 3.75 -4.20 2.30 -4.05 11.10 -17.05 14.70 -21.65 1.70 -2.25 4 -5.45 5.05 -7.15 1.20 -2 2.35 -3.30 3.30 -3.65 0.95 -0.35 2.40 -2 4.35 -4.80 4.65 -6.85 16.45 -21.30 21.65 -26.55 5.70 -5.70 11.50 -10.40 18.10 -14.80 7.40 -4.85 27.90 -17 35.80 -21.20 7 -3.70 7.10 -3.75 6.20 -4.75 -0.50 -0.55 -1 -1.30 -1.15 -1.70 -0.10 -0.40 -1.45 -1 -2.90 -1.40 -5.40 -1.35 -10.55 -6.30 -9.80 -9.40 0.45 -1.75 2.25 -3.25 3.90 -3.25 1.05 0 2.05 0.60 3.60 2.20 1.90 2 4.45 3.35 5.05 2.70 0.15 -0.10 -0.10 -2.10 -0.50 -4.45 -0.40 -2.30 -0.75 -4.30 -0.75 -4.35 0 -0.10 -0.70 0.40 -1.55 1.10 -0.85 0.70 -1.85 1.30 -2.20 1.30 -1.35 0 -3.20 -0.95 -3.70 -1.95 -1.30 -2.40 -1.90 -18.55 -1.55 -42.55 0.35 -21.55 0.50 -24.70 1.70 -34.25 1.10 -8.70 1.45 -13.75 1.80 -29.50 0.45 -19.45 1.30 -30.70 3 -40.60 0.60 -3.50 0.85 -6.65 0.65 -8.40 -0.25 -2.50 -0.15 -2.95 0.95 -4.15 0.90 -0.90 2.35 -4.50 4.60 -11.30 3.40 -10.25 3.65 -11.30 2.80 -11.30 -0.25 0 -0.50 -0.30 -0.50 -0.60 0 -0.80 10.40 -32.25 12.40 -37.65 0.85 -2.20 2.25 -5.90 3.10 -8.25 3.20 -8.40 5.50 -16.20 7.30 -24.40 2.55 -11.80 3.90 -17.15 6.70 -26.60 1.35 -4.55 2.85 -9.75 3.30 -11.65 0.75 -3.05 1.80 -4.35 2.30 -2.80 0.10 0.35 0.60 -0.80 1.15 -2.50 1 -3.45 2.15 -4.55 4.55 -4.55 1.25 0 2.05 0.55 3.90 2.50 1.25 1.35 2.30 2.65 2.30 2.90 0 0.25 0.45 0.60 1 0.75 0.60 0.15 1.45 1.20 2.05 2.55 0.65 1.55 1.65 2.75 3 3.60 3.25 2.05 3.45 2.05 3.45 0 0 -1.75 0.80 -2.45 1.30 -1.10 0.20 0.50 0.65 0.30 1.70 -0.75 1.75 -1.75 3.65 -1.85 5.20 -0.30 0.90 0.90 1.25 2.10 1.70 5.45 0.65 5.10 2.85 10.85 6.50 17.05 2.60 4.40 4.45 8.35 5.60 12.10 1.25 4.05 5.65 14.95 7.75 19.15 2.85 5.70 3.65 6.80 6.15 8.45 1.90 1.30 7.60 8.70 7.60 9.90 0 2.15 1.75 5.05 7.30 12.05 7.35 9.30 17.35 24.10 23 33.85 4 7.05 4.45 7.60 6.75 9.35 0.85 0.60 2.95 4.20 5.50 9.25 3.50 6.85 4.40 8.25 5.30 8.25 1.80 0 3.40 0.80 4 2.05 0.30 0.65 2.05 5.85 3.90 11.55 1.95 6.20 4.45 12.65 6.05 16 2.55 5.15 5.50 11.85 5.95 13.55 0.10 0.20 0.20 0.45 0.25 0.60 0.05 0.15 0.20 0.50 0.25 0.75 0.05 0.30 0.20 0.55 0.25 0.65 0.05 0.05 0.20 0.55 0.30 1.10 0.05 0.55 0.80 3.50 1.60 6.50 0.80 3.05 1.85 7.10 2.25 9 0.45 1.95 1.70 6.70 2.80 10.60 1.10 3.90 2.70 10.65 3.55 15 0.90 4.35 1.70 8.20 1.80 8.55 0.15 0.50 0.55 0.40 1.50 -0.35 1.60 -1.25 2.75 -1.30 4.70 -0.30 5.65 2.90 5.85 11.45 0.40 19.75 -3.70 5.70 -11.35 12.40 -18.65 16.50 l-2 1.10 2.75 -0.30 c1.50 -0.20 4.65 -0.45 7 -0.60 2.35 -0.15 5.10 -0.65 6.15 -1.10 1.65 -0.65 2.15 -0.70 3.50 -0.15 1.10 0.45 5.85 0.80 14.85 1.05 21.70 0.65 37 3.25 58.90 10.05 l8.20 2.55 1.05 -1 c1.45 -1.30 3.05 -2.10 4.20 -2.10 1.40 0 6.40 2.55 12.40 6.30 6.95 4.35 7.15 4.45 12.15 5.70 11.40 2.85 13.60 4 13.60 7.25 0 1.30 0.30 1.60 2.40 2.45 6.60 2.65 22.80 10.95 26.35 13.55 6.20 4.45 12.65 10.80 13.70 13.40 0.25 0.65 2.05 -1.60 7.60 -9.75 7.80 -11.40 9.75 -14.50 12.75 -20.40 l1.95 -3.75 0.15 -9.85 c0.20 -10.50 -0.25 -14.15 -1.90 -16.25 -1.90 -2.45 -1.10 -5.15 2.05 -6.60 l1.70 -0.80 0.15 -5.40 c0.10 -4.20 -0.10 -6.20 -0.85 -9 -1.10 -3.90 -1.55 -6.65 -2.80 -16.35 -0.55 -3.90 -1.55 -8.50 -2.75 -12.25 -1.05 -3.30 -2.45 -7.90 -3.05 -10.20 -1 -3.70 -1.50 -4.55 -3.95 -7.20 -1.50 -1.65 -4.85 -4.90 -7.45 -7.20 -2.55 -2.30 -5.15 -4.75 -5.70 -5.50 -1.45 -1.80 -1.30 -3.90 0.35 -5.60 l1.35 -1.45 -3.15 -3.65 c-5.65 -6.55 -8.40 -10.15 -8.40 -11.10 0 -0.50 -0.70 -1.25 -1.60 -1.75 -3.80 -2 -5.25 -4.60 -3.90 -7.05 0.60 -1.15 3.20 -2.25 4.50 -1.90 0.55 0.15 1 0.15 1 0.05 0 -0.10 -1.20 -1.90 -2.60 -4.05 -4 -5.90 -8.90 -10.55 -13.85 -13.15 -5.30 -2.80 -7.55 -4.85 -7.55 -6.85 0 -0.85 0.40 -1.90 0.95 -2.35 0.50 -0.45 1.05 -1.70 1.25 -2.80 0.20 -1.20 0.75 -2.25 1.40 -2.70 1.70 -1.20 4.95 -1 7.10 0.45 1.95 1.35 21.65 10.55 23.55 11.05 0.60 0.15 1.30 0.05 1.45 -0.25 0.20 -0.30 1.15 -0.55 2.15 -0.55 1.45 0 2.25 0.50 5.05 3.20 2.10 2 5.40 4.35 8.85 6.30 8.25 4.75 12.60 7.85 13.15 9.50 0.30 0.80 0.40 1.55 0.25 1.65 -0.10 0.15 0 0.75 0.35 1.30 0.40 0.80 1 1.05 2.65 1.05 2.50 0 4.10 0.95 7.85 4.50 1.50 1.45 4.20 3.85 6 5.40 8 6.95 13.55 12.35 16.50 16.05 2.60 3.25 3.50 4.05 4.60 4.05 2.20 0 3.70 1.90 5.80 7.25 3.50 8.95 6 17 9.55 30.90 1.65 6.35 1.55 7.60 -0.55 9.05 -2.65 1.85 -5.50 0.20 -6.60 -3.85 -0.40 -1.45 -1.55 -5.75 -2.55 -9.60 -1.80 -6.95 -5.95 -20.05 -6.65 -21 -0.20 -0.30 -1 -0.95 -1.80 -1.45 -1.35 -0.85 -1.45 -0.85 -1.10 -0.05 0.15 0.50 1.10 4.05 2.10 7.95 2.90 11.55 5.15 19 8.85 29.30 4.40 12.35 5.35 15.65 5.50 18.80 0.15 3.40 -0.95 4.70 -3.90 4.70 -2.65 0 -3.60 -1 -4.25 -4.45 -0.70 -3.65 -1.40 -5.85 -5.40 -17.05 -3 -8.35 -6.10 -18.45 -8.10 -26.35 -0.40 -1.55 -0.80 -2.15 -1.45 -2.15 -1.70 0 -2.95 -1.70 -4.05 -5.50 -2.30 -7.90 -11.70 -23.30 -19.95 -32.75 -1.45 -1.65 -3.15 -3.25 -3.75 -3.60 -1.50 -0.80 -6.40 -1.90 -12.80 -2.85 -2.90 -0.45 -5.90 -0.95 -6.65 -1.10 -1.40 -0.30 -1.40 -0.25 -0.70 0.90 0.40 0.60 1.45 3.50 2.35 6.40 0.85 2.85 2.45 6.65 3.55 8.45 1.05 1.80 1.95 3.50 1.95 3.80 0 0.25 0.55 1.35 1.25 2.35 0.90 1.30 1.25 2.50 1.25 4.10 0 1.25 0.25 2.90 0.55 3.65 1 2.45 1.80 4.35 2.40 5.95 0.35 0.90 1.30 2.20 2.10 3 0.80 0.75 1.45 1.80 1.45 2.30 0 0.45 0.70 1.35 1.50 2 3.05 2.25 4.10 5.75 7.60 25.40 0.95 5.40 1.10 8.05 1.10 19.50 0.05 15.35 -0.50 29.95 -1.25 34.25 -0.30 1.65 -1.40 5.70 -2.45 9 -1.05 3.30 -2.20 7.65 -2.50 9.70 -0.70 4.35 -2.55 9.90 -4.05 12.35 -0.55 0.95 -2.35 2.85 -4 4.30 -1.90 1.65 -3.40 3.50 -4.30 5.30 -0.75 1.55 -2.60 4.15 -4.15 5.80 -1.50 1.70 -4.45 4.95 -6.50 7.25 l-3.75 4.20 5.65 11.05 c3.10 6.10 9.55 17.80 14.25 26.05 l8.60 15 2.05 -0.15 c3.35 -0.25 4.25 1 6.45 8.90 2.70 9.80 3.30 11.25 7.15 18.10 7.90 14 13.20 25.70 17.90 39.70 2.80 8.30 3.15 9.75 2.70 11 -0.30 0.80 -1 1.80 -1.55 2.20 -0.95 0.75 -0.95 0.80 0.60 4.65 0.85 2.10 1.75 3.85 2 3.85 0.25 0 0.45 0.50 0.45 1.15 0 0.60 1.40 4.60 3.15 8.90 l3.10 7.80 1.50 -0.95 c2.10 -1.25 3.10 -1.15 4.80 0.55 l1.45 1.45 0 8.20 c0 8.40 0.70 14.30 2.50 22.15 0.55 2.50 1.70 8.10 2.50 12.50 0.80 4.40 2.05 10.55 2.75 13.65 0.70 3.15 2.40 12.05 3.75 19.75 1.40 7.75 3.20 17.50 4 21.65 2.80 14.35 2.95 16 3.05 32.95 0.05 12.95 -0.05 16.60 -0.70 19.15 l-0.75 3.10 1.45 0.75 c1.80 0.95 2.45 2.15 2.45 4.60 0.05 3.90 -3.10 23.20 -5.05 31.15 -1.80 7.45 -2.05 9.05 -2.30 16.90 l-0.30 8.60 1.30 0 c2.70 0 3.70 1.70 5.30 8.75 1.65 7.45 3.85 13.45 4.80 13.05 0.40 -0.15 0.55 0.10 0.40 0.70 -0.15 0.55 0.85 3.50 2.25 6.60 3.40 7.75 7.10 18.55 7.10 20.90 0 1.10 -0.30 2.15 -0.80 2.55 -0.90 0.75 -0.90 0.75 1.30 12.20 1.35 7.15 1.40 7.80 2 15.10 0.45 5.50 0.40 6.90 -0.20 8.35 -0.55 1.30 -0.60 2.45 -0.30 4.65 0.25 1.60 0.70 10.45 0.95 19.65 0.30 9.20 0.65 18.10 0.80 19.75 0.15 1.65 1.55 8.75 3.05 15.75 3 13.80 3.65 19.45 2.60 21.50 -0.35 0.70 -1.65 1.75 -2.85 2.35 -1.25 0.65 -2.80 1.70 -3.55 2.40 -1.65 1.55 -4.10 1.65 -5.50 0.25 -0.80 -0.80 -1.40 -0.95 -2.75 -0.70 -4.25 0.80 -5.40 -1.20 -5.55 -9.55 -0.10 -9.45 -0.70 -12.35 -4.15 -20.25 -4.70 -10.70 -8.15 -16.20 -16.50 -26.25 -2.50 -3 -5.10 -6.65 -5.80 -8.10 -0.70 -1.40 -1.90 -5.80 -2.65 -9.75 l-1.40 -7.15 -1.35 4.25 c-0.75 2.35 -1.95 7.40 -2.65 11.25 -0.65 3.85 -1.80 9.80 -2.45 13.25 l-1.25 6.25 0 40 c0 22.70 0.25 42.05 0.50 44.75 0.60 5.45 2 12.70 3.80 19.35 1.15 4.20 1.20 4.75 0.50 6.05 -0.40 0.75 -1.25 1.65 -1.90 1.95 l-1.20 0.55 0.60 4.90 c0.35 2.75 0.90 6.20 1.20 7.70 1.55 7.65 2 12.25 2.30 23.50 0.35 12.80 -0.15 21.55 -1.60 27.25 -0.80 3.25 -3 9.15 -3.75 10.05 -0.25 0.30 -1.65 2.90 -3.15 5.75 -6.45 12.55 -7.35 13.60 -12.85 15.65 -5.75 2.15 -13.70 3.85 -15.35 3.25 -1.05 -0.35 -2.65 -0.20 -6.60 0.75 -2.85 0.70 -7.20 1.45 -9.70 1.60 -3.80 0.30 -4.80 0.55 -6 1.55 l-1.45 1.20 -16.55 -0.15 -16.55 -0.15 -2.75 -1.35 c-1.50 -0.70 -4.20 -1.80 -6 -2.40 -3.35 -1.10 -5.50 -2.25 -8.45 -4.45 -1.30 -1 -2.35 -1.30 -4.35 -1.30 -4.70 -0.10 -7.20 -3.10 -13 -15.85 -3.70 -8.05 -5.45 -15.60 -5.25 -22.35 0.05 -2.55 0 -2.70 -0.80 -1.95 -3.15 2.75 -6.25 0.90 -7.40 -4.35 -0.20 -0.80 -1.55 -4.75 -3.10 -8.75 -2.95 -7.75 -4.45 -10.15 -11.50 -18.15 -5.55 -6.35 -7.15 -8.50 -7.45 -10.20 -0.25 -1.40 -0.95 -2.05 -4.05 -4 l-3.75 -2.30 -9.05 0.60 c-19.75 1.30 -33.55 4.25 -45.80 9.75 -5.05 2.30 -6.45 2.05 -8.30 -1.55 -0.10 -0.20 -7.75 3.10 -10.65 4.55 -1.40 0.70 -3.15 1.30 -3.90 1.30 -1.40 0 -5.50 2.35 -6.80 3.90 -0.40 0.45 -1.25 1.75 -1.90 2.85 l-1.15 2 1.70 -1.60 c2.20 -2.05 4.70 -2.25 6.35 -0.50 1.45 1.55 1.45 4.35 0.05 5.65 -1.30 1.15 -5.15 6.60 -5.65 7.90 -0.85 2.45 -1.40 9.35 -1.80 24.30 -0.50 17.25 -0.95 22.35 -2.55 28.70 -1.35 5.25 -2.45 7.30 -5.30 9.75 -2.55 2.20 -13.05 7.75 -20.40 10.80 -2.45 1.05 -5.15 2.35 -6 3 -0.80 0.60 -2.80 1.60 -4.40 2.20 -6 2.20 -28.75 7.55 -32.15 7.55 -3.30 0 -9.05 1.30 -11.55 2.65 -6.55 3.40 -16.10 4.95 -23.40 3.85z m2.60 -14.50 c1.90 -1.70 3.05 -1.85 5.25 -0.70 2.85 1.45 7.05 0.75 17.15 -2.90 9.80 -3.60 16.25 -5.30 25.50 -6.90 12.35 -2.10 15.90 -3.05 17.65 -4.55 1 -0.90 2.20 -1.45 3.10 -1.45 1.95 0 6.65 -1.80 7.60 -2.90 0.40 -0.45 1.80 -5.05 3.05 -10.20 l2.35 -9.35 -0.95 -3.15 c-1.70 -5.55 -2.20 -10.40 -2.25 -21.05 l-0.05 -10.40 1.65 -1.35 c1.50 -1.25 1.60 -1.55 1.60 -4.45 0 -4.35 0.95 -10.60 1.90 -12.65 0.45 -0.95 2.45 -3.45 4.50 -5.50 2 -2.05 4.10 -4.55 4.60 -5.55 0.50 -0.95 1.60 -2.50 2.45 -3.40 1.45 -1.55 1.75 -1.65 3.95 -1.40 2.15 0.25 2.85 0 9.10 -3.10 3.75 -1.90 8.05 -3.80 9.55 -4.30 2.50 -0.80 2.90 -0.80 4.25 -0.10 1.40 0.75 1.60 0.70 5.95 -1.65 5.75 -3.10 12.60 -5.90 16.75 -6.80 4.65 -1 33 -1.90 38 -1.15 4.25 0.60 10.40 0.95 16.10 0.90 3.80 0 5.75 0.55 6.55 1.90 0.30 0.50 1.30 0.65 3.55 0.60 5.65 -0.20 8.80 2.40 7.35 5.95 -0.80 1.95 -2.90 2.80 -6 2.50 -2.35 -0.25 -2.45 -0.20 -2.05 0.80 0.25 0.80 0.80 1.05 2.05 1.05 0.95 0 2.20 0.20 2.85 0.40 1.10 0.40 2.60 2.70 2.60 4 0 0.45 0.70 0.85 1.70 1.05 2.15 0.40 4.30 2.75 7.65 8.30 3.80 6.35 5.80 10.30 7.60 15 3.80 9.90 4.05 10.20 14.80 18.65 8.70 6.80 12.25 10.40 13.75 13.95 0.85 2 1.55 2.90 2.15 2.90 1.50 0 2.70 0.90 3.35 2.50 0.80 1.90 0.05 3.95 -1.85 5.05 -1.25 0.80 -1.25 0.80 2.65 1.70 2.20 0.45 5.40 1.25 7.20 1.75 5.65 1.50 8.10 1.95 13.25 2.45 17.50 1.75 32 0.65 37.05 -2.75 0.95 -0.65 2.30 -1.35 2.95 -1.50 1.60 -0.40 3.65 0.90 4.45 2.80 l0.60 1.45 3.45 -1.70 c3 -1.45 3.70 -2.05 5.05 -4.35 1.05 -1.75 1.80 -3.90 2.20 -6.40 0.80 -5.10 3.45 -15.95 4.25 -17.55 0.40 -0.70 1.05 -1.55 1.45 -1.90 0.95 -0.80 1.05 -4.40 0.25 -11.55 -0.25 -2.60 -0.70 -13.20 -0.95 -23.50 -0.25 -10.30 -0.70 -19.70 -0.95 -20.85 -0.55 -2.10 -0.65 -4.80 -0.60 -14.25 0 -3.75 -0.35 -6.45 -1.65 -12.25 -3.75 -16.15 -4.90 -25.20 -5.80 -45.15 -0.80 -16.70 -0.45 -41.70 0.65 -45.40 0.70 -2.30 0.70 -2.70 0.05 -2.95 -0.40 -0.15 -1.05 -0.90 -1.45 -1.70 -0.70 -1.25 -0.60 -1.95 0.75 -7.55 0.85 -3.35 1.50 -6.70 1.50 -7.45 0 -1.70 1.70 -6.65 2.90 -8.35 0.55 -0.75 1.20 -2.15 1.50 -3.10 0.60 -1.90 3.10 -15.80 4.35 -23.90 0.85 -5.60 1.25 -6.80 2.75 -7.60 1.45 -0.75 2.95 -0.60 4.80 0.55 0.95 0.55 1.70 0.80 1.70 0.55 0 -0.25 0.45 -0.60 1 -0.75 0.55 -0.15 1 -0.05 1 0.20 0 0.25 -0.20 0.45 -0.50 0.45 -0.25 0 -0.50 0.25 -0.50 0.50 0 0.30 0.55 0.50 1.25 0.50 1.20 0 3.75 2.10 3.75 3.05 0 0.25 0.45 0.95 1.05 1.55 2.90 3.20 6.95 8.60 6.95 9.20 0 0.40 1.40 3.05 3.10 5.85 3.50 5.85 9.45 17.95 12.05 24.60 2.25 5.80 6.80 20.40 7.20 23.05 0.20 1.70 0.05 2.30 -0.80 3.15 l-1.10 1.10 2.35 4.55 c1.25 2.55 2.75 5.70 3.25 7.10 l0.95 2.55 -0.30 -2.25 c-0.50 -3.90 -2.65 -14.85 -5.20 -26.25 -5.50 -24.60 -7.60 -36.55 -9.75 -55.65 -1.40 -12.25 -1.50 -14.80 -0.60 -16.60 0.90 -1.75 3.05 -2.70 4.80 -2.10 l1.40 0.50 -0.90 -3.55 c-0.55 -1.95 -1.30 -4.05 -1.70 -4.65 -0.40 -0.65 -0.75 -1.85 -0.75 -2.75 0 -0.85 -0.35 -2.60 -0.75 -3.90 -0.40 -1.25 -0.95 -3.60 -1.25 -5.20 -0.65 -3.15 -4.05 -10.15 -7.75 -15.90 l-2.40 -3.70 0.30 -4.80 c0.20 -4.20 0.15 -5 -0.70 -6.25 -1.10 -1.60 -1 -4.70 0.35 -10.45 0.35 -1.65 0.70 -3.70 0.70 -4.50 0 -1.45 -0.10 -1.55 -1.70 -1.35 -4 0.45 -5.15 -1.65 -4.05 -7.85 0.40 -2.40 0.90 -6.10 1.10 -8.25 0.25 -3.50 0.20 -4.05 -0.65 -4.70 -0.90 -0.70 -0.90 -0.70 0.15 -0.40 l1.10 0.35 0.05 -10.60 c0.05 -9.85 -0.05 -10.65 -0.95 -11.65 -0.90 -0.95 -1 -2.30 -1.50 -15.80 -0.60 -15.55 -1.45 -29.45 -2.90 -45.40 -0.85 -9.60 -0.85 -9.60 0.20 -11 1.05 -1.40 1.05 -1.55 0.35 -10.65 -1.65 -22.65 -1.80 -23.55 -5.80 -36.10 -3.25 -10.15 -4.10 -11.50 -5 -8.05 -0.55 2.10 -2.10 3.40 -4.20 3.40 -3.20 0 -3.50 -0.80 -5.40 -12.95 -0.95 -6.05 -2.40 -14.15 -3.25 -18 -1.65 -7.50 -8.35 -33.30 -10.15 -38.90 -1.20 -3.90 -12.40 -26.75 -18.05 -36.90 -8.05 -14.45 -12.05 -23.25 -11.55 -25.30 0.20 -0.75 -0.05 -2 -0.60 -3.20 -0.95 -1.95 -2 -2.70 -1.50 -1.05 0.50 1.65 3.40 19.85 3.35 21.35 0 1.80 -2 3.75 -3.85 3.75 -0.75 0 -1.90 -0.60 -2.65 -1.40 -1.50 -1.50 -1.65 -2 -4.10 -17.35 -2 -12.40 -5.60 -24.05 -10.05 -32.30 -1.20 -2.20 -4.05 -6.70 -6.40 -9.95 l-4.25 -5.95 -2.10 0.30 c-1.60 0.20 -2.40 0.05 -3.50 -0.70 -0.75 -0.55 -4.15 -2.50 -7.45 -4.30 -8.35 -4.45 -14.95 -8.65 -22.65 -14.30 -3.55 -2.65 -11.05 -8.15 -16.65 -12.30 -15.85 -11.70 -22.60 -17.65 -25.05 -21.95 l-1.10 -2 -11.25 -1.60 c-14.70 -2.10 -27.90 -4.40 -34.75 -6.05 -7.05 -1.65 -11.50 -1.90 -23.90 -1.20 -20.55 1.15 -53.95 4.85 -57.45 6.40 -1.05 0.45 -2.45 0.65 -3.25 0.50 -0.75 -0.15 -3.35 -0.05 -5.70 0.25 l-4.30 0.55 2 1.90 c1.75 1.70 1.95 2.10 1.65 3.55 -0.20 0.90 -0.75 2.10 -1.30 2.60 -1.30 1.30 -4.10 1.30 -5.55 0.05 -0.85 -0.80 -1.95 -1.05 -5.65 -1.20 -4.65 -0.15 -12.25 0.65 -14.05 1.55 -0.75 0.40 -0.85 0.40 -0.45 -0.10 0.45 -0.45 0.25 -0.90 -0.65 -1.80 l-1.25 -1.25 -8.05 2.35 c-28.50 8.15 -53.95 16.10 -53.60 16.75 0.30 0.45 -0.70 0.70 -2.40 0.55 -0.50 -0.05 -0.75 0.15 -0.60 0.40 0.15 0.30 -0.05 0.50 -0.50 0.50 -0.45 0 -0.70 -0.20 -0.55 -0.45 0.20 -0.25 -0.50 -0.20 -1.45 0.05 -0.95 0.30 -1.55 0.80 -1.40 1.05 0.15 0.30 0.05 0.35 -0.25 0.15 -0.70 -0.40 -4.60 0.65 -4.60 1.30 0 0.20 -0.15 0.35 -0.35 0.30 -0.25 0 -0.75 0.05 -1.15 0.20 -0.40 0.20 -1.80 0.60 -3.10 0.90 -1.35 0.35 -2.40 0.80 -2.40 1 0 0.20 -0.30 0.35 -0.70 0.35 -2.20 0 -11.30 4.95 -14.85 8.05 -2 1.80 -2.25 2.20 -2.05 3.80 0.15 1.35 -0.05 2 -1.10 3 -1.50 1.55 -3.45 1.65 -5.65 0.30 -2.20 -1.30 -2.85 -2.70 -2.45 -5.35 l0.30 -2.20 -5.25 3.60 c-5.10 3.45 -5.25 3.60 -5.25 5.45 0 2.60 -1.15 3.70 -5.25 5 -5.80 1.85 -7.25 2.70 -13.25 7.50 -19.05 15.40 -24.25 21.05 -25.50 27.55 -0.60 3 -1.50 4.25 -3.40 4.60 -1.90 0.35 -3.45 -0.40 -4.40 -2.20 -0.70 -1.40 -0.70 -2 -0.20 -4.65 0.35 -1.70 0.85 -3.50 1.10 -4.05 0.60 -1.15 -1.35 0.55 -5.25 4.60 -3.70 3.90 -4.70 5.45 -5.90 9.10 -1.40 4.35 -3.70 8.90 -8.15 16.30 -4.25 6.95 -7.45 13.15 -9.15 17.75 -0.70 1.80 -1.55 3.60 -1.90 4 -0.35 0.40 -3.05 6.70 -5.95 14 -5.60 14.10 -11.45 32.15 -12.55 38.75 -0.80 4.65 -2 21.40 -1.95 26.50 0.05 2.15 -0.10 3.10 -0.35 2.50 -0.30 -0.80 -0.40 -0.60 -0.40 0.80 -0.05 2.40 -2.30 19.50 -3.30 24.95 -0.40 2.35 -0.75 5.95 -0.75 8.05 0 2.55 -0.25 4.10 -0.75 4.75 -0.95 1.25 -0.95 6.20 0 16.55 1.20 13.20 1.60 15.25 2.95 16.30 0.90 0.65 1.45 2 2.30 5.50 0.65 2.50 1.55 5.30 2 6.10 0.50 0.85 1.50 3.90 2.20 6.85 1.75 7.05 7.90 25.20 10.05 29.65 0.90 1.95 2.80 5.10 4.20 7 2.65 3.65 3.05 5.05 1.85 6.90 -0.65 1 -0.35 2 3.75 12.10 4.85 12.05 7.85 18.50 11.25 24.30 2.85 4.95 2.90 6.80 0.15 8.20 l-1.40 0.75 1.95 4.25 c2.30 5 8.25 19.80 10.25 25.50 1.50 4.20 3.05 6.55 5.05 7.65 0.65 0.35 1.30 1.25 1.45 2 1.50 7.35 1.70 7.80 15.60 35.65 5.60 11.20 10.15 20.55 10.15 20.85 0 0.25 0.35 1.15 0.75 1.90 1.10 2.15 0.90 3.60 -0.65 5.20 -1.65 1.65 -1.70 2.85 -0.15 4.80 0.90 1.15 1.05 1.85 0.85 3.70 -0.15 1.25 -0.50 6.30 -0.80 11.25 -0.70 11.70 -1.35 19.95 -2.30 28.10 -0.45 3.65 -0.65 6.85 -0.50 7.10 0.15 0.20 0.05 4.60 -0.20 9.70 -0.65 11.55 -0.05 22.95 1.75 32.55 1.55 8.30 2.30 11.25 3.70 14.55 0.95 2.25 1.05 2.30 0.80 0.75 -0.60 -3.75 -0.85 -27.80 -0.35 -30.90 0.75 -4.30 2.45 -7.85 5.45 -11.10 2.15 -2.40 2.60 -3.30 3.60 -7.15 0.95 -3.70 1.05 -4.75 0.65 -6.50 -1.40 -5.40 -1.20 -7.10 1.15 -8.65 1.05 -0.70 1.65 -0.75 2.95 -0.35 1.40 0.45 1.80 0.35 3 -0.65 2.85 -2.50 4.85 -1.25 9.50 5.85 l2.45 3.75 2.50 -0.05 c2.05 0 2.65 0.20 3.40 1.25 0.70 0.95 4.45 13.80 4.45 15.30 0 0.15 0.20 0.15 0.45 0 0.25 -0.15 0.45 0.20 0.45 0.85 0 0.60 0.80 2.90 1.85 5.10 1.05 2.20 2.30 5.15 2.75 6.50 0.80 2.15 1.15 2.55 2.45 2.75 2.35 0.40 3.40 1.60 4.05 4.85 1.30 6.65 4.60 19 5.50 20.40 0.75 1.25 2.85 10.05 5 20.75 1.95 10.10 3.10 22.60 2.95 33 -0.10 9.40 0.30 14.75 1.40 16.40 0.40 0.65 0.60 1.30 0.45 1.45 -0.15 0.20 0 0.65 0.35 1.05 0.45 0.65 0.45 0.70 0 0.40 -0.85 -0.45 -0.80 -0.25 0.10 1.50 0.40 0.80 0.60 2 0.45 2.70 -0.20 0.95 -0.15 1.10 0.25 0.50 0.30 -0.40 0.55 -0.50 0.55 -0.20 0 0.25 -0.20 0.70 -0.45 1 -0.75 0.75 1.40 15.30 2.35 16.10 0.65 0.50 0.70 0.60 0.05 0.60 -0.65 0 -0.65 0.80 -0.15 6.15 0.30 3.35 0.75 9.55 0.95 13.75 0.40 8.55 0.10 10.15 -2.30 11.20 -1.30 0.55 -1.45 0.90 -1.45 2.80 0 4.35 3.15 17.05 5.20 21.05 0.45 0.85 1.85 2.65 3.05 4.05 2.30 2.60 2.90 4.65 1.65 5.90 -0.85 0.85 0 2.40 3.35 6 2.30 2.50 3.35 3.20 5.90 4.05 3.95 1.30 10.35 2.90 16.10 4.05 2.50 0.50 4.60 0.95 4.70 0.95 0.10 0.05 0.95 -0.60 1.90 -1.45z m290.95 -23.95 c-0.15 -0.20 -1.70 -0.55 -3.40 -0.75 -3.80 -0.40 -8.90 -1.40 -15.65 -3.05 -2.75 -0.65 -7.15 -1.55 -9.80 -2 -2.65 -0.40 -5.45 -0.95 -6.15 -1.25 -1.90 -0.70 -1.60 -0.30 1.10 1.45 1.50 0.95 3.10 1.55 4.15 1.55 0.95 0 2.40 0.45 3.25 0.95 1.70 1.05 6.75 2.90 8.70 3.20 2.55 0.40 18.05 0.35 17.80 -0.10z m-200.50 -11.80 c1.15 -3.80 1.65 -8.80 1.70 -15.90 0 -5.35 -0.15 -6.70 -0.95 -8.25 -0.55 -1.05 -1.15 -2.80 -1.30 -3.85 -0.50 -2.75 -0.65 -2.85 -2 -1.90 -1.10 0.80 -1.20 1.30 -1.25 4.55 0 3.10 0.10 3.60 0.90 3.60 1.25 0 3.10 1.40 3.55 2.70 0.65 1.65 -0.35 12.50 -1.65 18.25 -0.80 3.70 -0.95 4.95 -0.45 4.25 0.35 -0.50 1 -2.05 1.45 -3.45z m163.90 -9.10 c-1.80 -4.15 -2.40 -4.90 -5.85 -7.55 -1.65 -1.30 -4.80 -3.75 -6.95 -5.45 -2.15 -1.75 -4 -3.15 -4.10 -3.15 -0.25 0 0.55 4.10 1.15 5.65 0.95 2.45 2.60 4.25 6.65 7.15 3.10 2.20 9.55 6.10 10.25 6.20 0.10 0 -0.45 -1.30 -1.15 -2.85z m-347 -161.25 c0.20 -2 0.50 -4.40 0.65 -5.30 0.25 -1.55 0.20 -1.65 -0.90 -1.50 -1.10 0.15 -1.25 0.50 -1.90 4.85 -0.60 3.95 -0.60 4.75 0 5.10 1.45 0.90 1.85 0.40 2.15 -3.15z m467.55 -49.50 c0 -1.75 0.30 -3.85 0.65 -4.70 0.65 -1.50 0.50 -1.85 -2.15 -7.20 -1.55 -3.10 -2.90 -5.50 -3.05 -5.35 -0.10 0.10 0 0.80 0.30 1.55 0.25 0.75 1.05 4.40 1.75 8.20 1.10 6.15 2.10 10.60 2.40 10.60 0.05 0 0.10 -1.40 0.10 -3.10z m-20.45 -11.25 c-0.40 -0.45 -1.30 2.25 -1.25 3.75 0 1.05 0.20 0.75 0.75 -1.10 0.45 -1.30 0.65 -2.55 0.50 -2.65z m42.95 -4.75 c-0.35 -3.40 -1.15 -6.65 -1.20 -4.90 -0.05 1.10 1.15 8.50 1.35 8.50 0.10 0 0.05 -1.65 -0.15 -3.60z m-39 -3.40 c0.70 -1.35 1.25 -2.85 1.25 -3.35 -0.05 -0.90 -2.10 2.65 -2.70 4.75 -0.60 1.90 0.15 1.20 1.45 -1.40z m-482 -4.10 c-1.45 -2.35 -1.45 -2.15 0 2.60 1 3.15 1 3.20 1.15 1.40 0.10 -1.35 -0.20 -2.50 -1.15 -4z m519.90 -3 c0.30 -1 -2.95 -21.85 -3.45 -22.35 -0.55 -0.60 -0.45 1 0.85 11.20 0.75 6.05 1.40 11.30 1.40 11.65 0.05 1 0.90 0.70 1.20 -0.50z m-518.20 -13.40 c-1.70 -3.30 -3.30 -6 -3.50 -6 -0.25 0 1.05 3 2.85 6.65 1.85 3.60 3.45 6.30 3.55 6 0.15 -0.35 -1.15 -3.35 -2.90 -6.65z m-5.20 -10 c-0.75 -1.45 -1.45 -2.50 -1.55 -2.35 -0.15 0.10 0.40 1.50 1.15 3.05 0.75 1.55 1.45 2.65 1.55 2.35 0.10 -0.25 -0.45 -1.65 -1.15 -3.05z m-64.75 -135.95 c-0.55 -2.25 -2.45 -11.30 -4.25 -20.20 -1.75 -8.85 -3.65 -17.15 -4.25 -18.45 -1.10 -2.45 -1.55 -3.05 -1.20 -1.50 0.10 0.45 0.85 4.55 1.70 9.10 0.85 4.55 1.95 10.15 2.50 12.50 1.60 6.65 6.15 23.05 6.35 22.80 0.10 -0.10 -0.25 -2 -0.85 -4.25z m568.75 -36.45 c-0.70 -0.75 -0.80 0.95 -0.45 7.25 l0.45 6.90 0.15 -6.95 c0.05 -3.80 0 -7.05 -0.15 -7.20z m-589.50 -88 c0.20 -0.95 1.10 -2.25 2.05 -3 l1.65 -1.40 0.50 -10.20 c0.50 -10.05 2.10 -27.30 3.05 -33.25 0.80 -4.80 0.75 -4.90 -2.10 -6.90 -3.70 -2.55 -8.40 -7.15 -8.40 -8.20 0 -0.50 -0.20 -1.20 -0.45 -1.60 -0.35 -0.55 -0.65 -0.55 -1.60 0.15 -1.35 0.90 -3.10 1.05 -4.50 0.30 -0.50 -0.30 -1.95 -2.60 -3.15 -5.15 -2.05 -4.35 -2.45 -4.85 -7.50 -9.30 -12.10 -10.70 -20.70 -21.15 -23.80 -29.10 -1.05 -2.65 -0.95 -3.55 0.75 -5.45 l1.10 -1.25 -2.80 -5.10 c-3.30 -5.80 -6.30 -13.10 -7.70 -18.60 -1.35 -5.35 -1.75 -22.10 -0.70 -27.80 0.40 -2.20 1.25 -6.60 1.80 -9.75 1.90 -10.05 5.20 -19.25 10.65 -29.50 4.40 -8.20 7.50 -12.55 13.20 -18.25 5.05 -5.10 8.50 -9.15 7.40 -8.70 -5.60 2.30 -6.20 2.70 -6.70 4.15 -0.40 1.20 -2 2.60 -6.85 6.05 -8.60 6 -17.80 13.45 -21.15 17.05 -1.50 1.65 -5.15 5.80 -8.05 9.20 -8.40 9.90 -17.50 20 -18 20 -1.25 0 -11.95 18.30 -16.30 27.75 -3.95 8.70 -4.70 11.70 -4.70 19 0.10 20.80 3.05 31.75 12.10 44.60 2.70 3.85 3.45 5.30 3.45 6.70 0 1.95 2.20 5.35 14.75 22.95 3.60 5.10 8.10 11.50 10 14.25 8.80 12.80 15.65 22.20 17.90 24.60 1.35 1.45 5.05 4.50 8.25 6.80 3.25 2.30 9.30 6.95 13.50 10.30 8.80 6.95 8.90 7 11 6.95 0.95 -0.05 2.80 0.70 4.95 1.95 6.05 3.60 5.35 3.95 5.70 -2.75 0.20 -3.20 0.50 -6.60 0.70 -7.50z m569.30 8.05 c-0.25 -0.50 -0.45 -1.10 -0.45 -1.30 0 -0.70 -1.75 -6.85 -1.90 -6.70 -0.10 0.10 0.15 2.05 0.55 4.40 0.40 2.30 0.75 4.25 0.75 4.35 0 0.05 0.35 0.10 0.75 0.10 0.60 0 0.65 -0.20 0.30 -0.85z m-638.55 -44.05 c0 -0.25 -2.90 -4.55 -6.50 -9.60 -3.55 -5.05 -6.50 -8.95 -6.50 -8.70 0 0.30 2.70 4.60 6 9.60 5.25 8 7 10.20 7 8.70z m99.25 -39.50 c1.60 -3.95 2.75 -7.25 2.65 -7.35 -0.20 -0.25 -4.95 11.20 -5.65 13.75 -0.80 2.70 0.30 0.40 3 -6.40z m-67.55 -56 c-0.80 -4.90 -0.90 -8.60 -0.85 -23.10 0.05 -9.50 0.20 -20.30 0.35 -24 0.15 -3.70 0.15 -6.40 0 -6 -0.20 0.40 -0.85 1.35 -1.50 2.05 -1.15 1.20 -1.20 1.35 -0.45 2.80 1.05 2.05 0.60 3.60 -1.60 5.70 l-1.80 1.65 0.30 4.15 c0.30 3.95 0.25 4.20 -1.05 5.75 -1.25 1.50 -1.35 1.90 -1.30 6.15 0.10 7.15 3.70 22.05 7.30 30.15 1.50 3.35 1.65 1.75 0.60 -5.30z m133 -33.25 c1.85 -1.10 5.60 -2.95 8.25 -4.10 3.50 -1.55 6.65 -3.45 11.15 -6.85 10.65 -8.05 32.30 -21.80 34.55 -21.95 0.30 0 -0.05 -0.25 -0.90 -0.50 -1.30 -0.40 -2.40 0.05 -9.50 3.85 -8.90 4.80 -28 16.15 -34.70 20.70 -5.30 3.50 -11.15 8.20 -13.55 10.80 -1.75 1.90 -1.75 1.90 -0.25 0.95 0.85 -0.50 3.05 -1.85 4.95 -2.90z m-185.15 -13.60 c6 -8.80 13.90 -18.20 23.15 -27.45 2.90 -2.85 4.70 -5.05 4.40 -5.25 -0.30 -0.20 -0.85 -1.05 -1.25 -1.95 l-0.70 -1.65 -9.05 8.80 c-6.85 6.65 -9.10 9.15 -9.40 10.40 -0.15 0.85 -0.95 2.40 -1.70 3.35 -1.85 2.35 -5.10 7.75 -7.20 11.90 -1.60 3.20 -5.30 11.95 -5.30 12.55 0 0.15 0.80 -1.05 1.80 -2.70 1 -1.65 3.35 -5.25 5.25 -8z m565.45 3.25 c-0.55 -0.80 -4.35 -5.25 -8.40 -9.85 -4.05 -4.65 -8.35 -9.60 -9.60 -11.10 -4.40 -5.20 -12 -10.55 -20.45 -14.35 l-4 -1.80 -1.55 1.30 c-2.75 2.30 -5.25 1.50 -8.10 -2.60 -0.70 -1 -4.25 -2.40 -4.80 -1.85 -0.25 0.25 6.90 6.25 12.10 10.20 13.85 10.35 29.95 22.15 32.55 23.80 3.15 2.05 12.85 7.75 13.15 7.75 0.10 0 -0.30 -0.65 -0.90 -1.50z m8.65 -11.65 c-0.90 -0.95 -6 -4.40 -9.40 -6.30 -1.45 -0.85 -0.45 0.35 3.75 4.35 5.60 5.35 5.75 5.45 6.10 4.20 0.25 -0.90 0.10 -1.60 -0.45 -2.25z m-325.05 -15.55 c3.15 -1.25 3.50 -1.25 5.10 -0.60 1.30 0.55 1.85 1.15 2.20 2.40 0.25 0.90 0.70 1.60 0.95 1.55 1.25 -0.25 28.55 -8.90 28.45 -9 -0.05 -0.05 -2.10 0.10 -4.60 0.35 -2.45 0.30 -9.95 0.70 -16.70 0.90 l-12.25 0.40 -4.50 2.30 c-2.80 1.45 -4.95 2.90 -5.65 3.85 l-1.15 1.60 2.40 -1.20 c1.30 -0.65 3.90 -1.80 5.75 -2.55z m24.35 -21.25 c4.30 -0.25 5.80 -0.55 6 -1.10 0.10 -0.35 0.85 -1.30 1.60 -2.05 1.15 -1.20 1.80 -1.40 4.10 -1.40 2.25 0 3.05 0.25 4.30 1.30 l1.50 1.25 6.25 -1 c3.45 -0.60 6.90 -1.20 7.75 -1.35 1.25 -0.25 1.55 -0.15 1.55 0.55 0 0.75 0.30 0.80 2.40 0.55 3.80 -0.55 4.25 -0.75 3.90 -1.95 -0.15 -0.60 -0.55 -2.65 -0.85 -4.60 -0.80 -5.35 -0.90 -5.75 -1.65 -5.75 -0.90 0 -1.30 -2.25 -1.30 -7.70 0 -6 1 -9.45 3.50 -11.90 1.95 -1.95 3.35 -2.40 3.80 -1.20 0.20 0.60 0.60 0.60 2.50 0 1.25 -0.35 5.60 -1.15 9.60 -1.70 5.10 -0.70 7.45 -1.25 7.75 -1.75 0.55 -1.05 8.65 -1 12.60 0 6.45 1.70 10.05 4.40 15.30 11.40 2.85 3.85 3.65 5.85 2.30 5.85 -0.50 0 -0.30 0.80 0.65 2.70 0.80 1.50 1.50 3 1.60 3.35 0.15 0.50 0.90 0.45 3.30 -0.25 2.90 -0.90 3.05 -1 2.30 -1.85 -0.70 -0.80 -0.65 -0.90 0.85 -1.20 2.05 -0.45 3 -1 13.85 -7.85 7.80 -4.90 13.15 -8.45 19.70 -12.95 l1.90 -1.35 -1.20 -0.75 c-0.70 -0.50 -1.40 -1.65 -1.75 -3.05 -0.30 -1.25 -0.75 -2.30 -1 -2.30 -0.75 0 -1.50 -2.50 -5.30 -17.50 -5.70 -22.40 -13.90 -46.20 -20.40 -59.10 l-3.95 -7.90 -2.40 0 c-2.80 0 -4.55 -0.65 -5.40 -2 -0.30 -0.50 -3.50 -6.15 -7.15 -12.60 -3.60 -6.40 -9.35 -16.35 -12.80 -22.10 -6.80 -11.35 -7.45 -12.60 -5.75 -12.20 1 0.30 1 0.20 -0.25 -1.80 -0.75 -1.10 -1.70 -2.60 -2.15 -3.30 -0.45 -0.70 -1.65 -2.55 -2.65 -4.10 l-1.85 -2.85 -1.75 1.15 c-0.95 0.70 -3.75 1.70 -6.15 2.30 -5.30 1.30 -4.95 1.25 -7.20 0.80 -1.60 -0.30 -1.90 -0.20 -1.90 0.50 0 2 -11.15 -0.50 -15.95 -3.55 -4.85 -3 -9.65 -9.30 -11.50 -14.90 -3.10 -9.30 -2.30 -20.65 1.75 -26.65 l1.30 -1.85 -4.50 -11.55 c-2.50 -6.35 -5.25 -13.45 -6.15 -15.80 -0.90 -2.35 -2.15 -5.15 -2.85 -6.25 -0.70 -1.10 -1.90 -3.35 -2.60 -4.95 l-1.35 -2.95 -0.85 3.70 c-0.45 2.05 -1.85 8.65 -3.10 14.70 -3.80 18.70 -5.50 26.45 -9.45 43 -7.15 30.05 -11.60 51.80 -11.05 53.80 0.20 0.65 1.70 2.20 3.45 3.45 1.70 1.25 4.15 3.65 5.40 5.35 4.30 5.65 5.95 11.85 5.95 22.65 0 6.30 -0.20 8.30 -1.70 15.50 -0.95 4.55 -2.40 10.15 -3.25 12.50 -2.95 8.05 -8.05 16.20 -7.70 12.25 0.05 -0.80 -0.15 -0.70 -1 0.50 -2.45 3.55 -6.10 6.50 -9.80 8 -3.30 1.30 -4.20 1.45 -8.05 1.35 l-4.35 -0.15 -0.35 1.60 c-0.50 2.50 -0.35 6.35 0.20 5.45 0.95 -1.55 1.10 0.25 0.55 6.85 -0.65 7.25 -0.30 14.15 1.20 25.55 2.60 19.65 4.30 31.40 5.05 35 0.20 0.95 0.50 1.10 2.90 1.10 2.55 0 5.30 1.30 5.30 2.50 0 0.25 0.20 1 0.50 1.70 l0.50 1.30 9.85 -0.05 c5.45 0 12.45 -0.20 15.60 -0.40z m71 -10.55 c6.70 -1.90 12.25 -3.50 12.40 -3.50 0.75 0 -2.80 -5.10 -4.90 -7.05 -2.70 -2.50 -12.10 -7.45 -14.15 -7.45 -1.35 0 -8.55 2.40 -12.90 4.35 -3.05 1.35 -3.90 2.65 -3.90 5.90 0 1.90 1.25 6.35 2.50 8.80 0.95 1.75 0.95 1.80 3.60 1.60 2 -0.20 4.60 0.25 5.20 0.80 0 0.05 5.50 -1.50 12.15 -3.45z m-269.05 -9.85 c0.10 -0.65 0 -1.15 -0.20 -1.15 -0.35 0 -7.70 4.60 -7.70 4.80 0 0.10 1.75 -0.45 3.90 -1.20 3.10 -1.10 3.90 -1.55 4 -2.45z m341.30 -22 c0.20 -1.35 0.45 -3.05 0.60 -3.90 l0.25 -1.50 -0.70 1.50 c-0.40 0.85 -1.05 1.80 -1.50 2.20 -1.50 1.20 -0.85 5.10 0.70 4.25 0.20 -0.10 0.50 -1.25 0.65 -2.55z m-172.25 -52.40 c5.40 -5.65 7.90 -11.95 9.15 -23.20 0.50 -4.80 0.45 -5.90 -0.55 -11.80 -0.60 -3.55 -1.40 -6.95 -1.75 -7.50 -0.35 -0.55 -2.20 -2.65 -4.10 -4.70 -2.95 -3.20 -3.30 -3.70 -2.50 -4.15 1.30 -0.75 0.05 -1.90 -1.95 -1.80 -1.30 0.05 -1.70 0.30 -1.85 1.15 -0.20 0.90 -0.05 1.05 0.75 0.85 0.85 -0.20 0.95 -0.05 0.70 0.95 -1.15 4.60 -4.75 37.70 -5.20 47.90 l-0.30 6.70 1.95 -0.30 c1.60 -0.25 2.60 -1 5.65 -4.10z m404.30 -0.10 c-1.60 -2.15 -4.45 -5.65 -6.15 -7.60 -0.85 -0.95 -0.65 -0.40 0.65 1.95 1 1.80 2.30 4.20 2.90 5.40 0.85 1.75 1.30 2.10 2.50 2.10 l1.45 0 -1.35 -1.85z m-47.80 -40.20 c-5.30 -4.10 -7.65 -5.50 -15.35 -8.95 -2.40 -1.05 -5.65 -2.50 -7.25 -3.20 l-2.85 -1.30 3.05 3.85 c4.70 5.90 8 8.90 11.15 10.10 2.70 1 12.35 3.15 15.75 3.50 0.35 0 -1.65 -1.75 -4.50 -4z m-272.90 -64.95 c0.50 -0.30 0.95 -0.80 0.95 -1.10 0 -0.30 -1.65 -3.05 -3.70 -6.10 -5.65 -8.40 -12.80 -18.50 -12.80 -18.10 0 0.25 1.75 4.05 3.90 8.45 4.10 8.50 9.30 17.35 10.15 17.35 0.30 0 0.95 -0.25 1.50 -0.50z m-20.45 -7.35 c-1.35 -2.70 -3.20 -6.65 -4.10 -8.75 -0.90 -2.10 -1.80 -3.75 -2 -3.65 -0.65 0.40 0.55 6 1.95 9 1.15 2.50 5.60 8.25 6.35 8.25 0.10 0 -0.90 -2.20 -2.20 -4.85z m-2.05 -31.65 c-1.65 -2.30 -1.95 -2.10 -0.85 0.55 0.90 2.10 1.35 2.60 1.95 2 0.25 -0.25 -0.20 -1.30 -1.10 -2.55z m0.10 -16.30 c-1.30 -3 -2.35 -5.50 -2.40 -5.60 -0.35 -0.50 -1.75 0.70 -1.75 1.50 0 0.80 6 9.95 6.40 9.65 0.05 -0.05 -0.95 -2.55 -2.25 -5.55z m-7.95 -13.10 c-0.75 -1.30 -2.10 -3.30 -3.10 -4.35 -1.35 -1.60 -1.55 -1.70 -0.80 -0.50 1.70 2.75 4.85 7.25 5.05 7.25 0.10 0 -0.40 -1.10 -1.15 -2.40z"/>
  <path d="M443.10 907.50 c-2.05 -0.85 -2.40 -2.55 -1.40 -7.55 0.45 -2.50 1.40 -6.05 2.05 -7.85 1 -2.70 1.10 -3.45 0.55 -3.85 -1.40 -1.10 -1.90 -2.70 -1.30 -4.50 0.30 -0.90 0.90 -1.95 1.30 -2.25 0.90 -0.80 3.90 -10.30 5.50 -17.60 0.65 -3.10 1.35 -6.15 1.45 -6.75 l0.25 -1.15 -9.10 0 c-5.05 0 -10.80 -0.25 -12.80 -0.50 -4.85 -0.65 -10.40 -2.30 -11.65 -3.55 -1.20 -1.20 -1.20 -3.45 0.05 -5.95 1.25 -2.50 2.75 -3.50 5.10 -3.50 1.30 0 1.90 -0.20 1.90 -0.70 0 -0.35 0.55 -1.05 1.25 -1.50 0.95 -0.65 1.95 -0.75 5.10 -0.45 3.55 0.30 4.05 0.45 5.40 1.90 1.95 2.10 5.80 3.85 9.05 4.15 3.20 0.25 11.55 -1 18.35 -2.85 4.65 -1.25 5.40 -1.35 6.80 -0.75 0.85 0.35 1.70 1 1.85 1.45 0.25 0.55 0.80 0.70 2.40 0.45 5.10 -0.70 7 -1.35 8.60 -3 1.25 -1.40 1.95 -1.70 3.55 -1.70 3.95 0 17.15 -2.70 32.15 -6.60 6 -1.55 12.70 -4.10 16.30 -6.20 1.65 -0.95 2.50 -1.15 4 -0.95 1.50 0.25 3.05 -0.10 6.70 -1.40 7.25 -2.65 8.35 -3.25 8.85 -5.05 0.50 -1.70 1.90 -2.60 4.75 -3.05 1.45 -0.25 2.70 -1.10 5.50 -3.80 3.35 -3.30 3.65 -3.50 5.70 -3.40 2.45 0.15 4.35 -1 9.55 -5.65 1.75 -1.60 3.50 -2.90 3.95 -2.90 0.40 0 1.60 -0.95 2.70 -2.10 1.75 -1.90 2.50 -3.30 4.05 -7.25 1.10 -2.95 5.05 -3.30 7 -0.60 0.60 0.85 1.45 1.45 2.15 1.45 1.25 0 3.50 2.15 4.05 3.90 0.60 2.05 -1.85 6.10 -6.40 10.40 -6.40 6.20 -11.70 10.55 -16.45 13.55 -2.45 1.55 -4.40 3.05 -4.40 3.35 0 0.30 0.25 1.50 0.50 2.70 0.40 1.70 0.35 2.50 -0.25 3.80 l-0.80 1.60 5.15 9 c6.15 10.85 9.95 19.10 10 21.75 0 2.30 -1.15 4.30 -2.90 5 -1.85 0.65 -4.65 -0.20 -9 -2.85 -3.10 -1.90 -3.85 -2.15 -4.75 -1.70 -2.10 1.15 -3.75 0.15 -6.75 -4.05 -2.30 -3.30 -6.65 -8.40 -13.05 -15.40 -0.60 -0.65 -2.40 -2.75 -4 -4.60 -3.40 -4 -2.90 -3.95 -10.65 -0.60 -14.25 6.20 -30.95 11.30 -48 14.60 -6.15 1.20 -15.50 2.55 -17.75 2.55 -1.60 0 -1.60 0.05 -1.95 2.70 -0.30 2.85 -3.85 17.35 -5.75 23.65 -0.90 3 -1.35 3.80 -2.55 4.40 -0.80 0.40 -1.85 0.75 -2.40 0.75 -0.60 0 -2.35 2 -5.20 5.90 -7.10 9.80 -7.80 10.80 -8.15 12.25 -0.70 2.65 -3.45 3.90 -6.15 2.85z m19.90 -41.20 c1.10 -4.70 2.10 -8.95 2.25 -9.45 0.15 -0.80 -0.15 -0.90 -2.65 -0.75 l-2.80 0.15 -0.85 4.25 c-0.85 4.10 -0.85 4.30 0.10 5.15 1.65 1.55 1.65 3.05 0 7.95 l-1.55 4.60 1.70 -1.65 c1.60 -1.55 1.90 -2.35 3.80 -10.25z m116.45 -13.90 c-0.35 -0.65 -2.35 -4.20 -4.45 -7.90 -2.10 -3.70 -4.95 -8.85 -6.25 -11.40 -1.35 -2.55 -2.70 -4.55 -2.95 -4.40 -0.30 0.10 -2.35 0.90 -4.60 1.80 l-4.05 1.60 2.30 2.30 c1.30 1.30 3 3.25 3.80 4.35 2.40 3.35 4.35 5.20 5.05 4.90 1.05 -0.40 3.55 0.80 4.40 2.15 0.85 1.25 6.80 7.70 7.10 7.70 0.15 0 -0.05 -0.50 -0.35 -1.10z"/>
  <path d="M466.05 752.50 c-3.15 -0.20 -8.35 -0.70 -11.50 -1 -3.20 -0.35 -7.95 -0.45 -10.55 -0.30 -2.60 0.15 -5.55 0.35 -6.50 0.40 -0.95 0.05 -7.95 -0.20 -15.50 -0.50 -15.70 -0.65 -20.05 -1.35 -27.95 -4.55 -14.25 -5.70 -20.80 -11.70 -29.75 -27.25 -1.60 -2.75 -3.50 -5.75 -4.30 -6.65 -1.85 -2.10 -3.70 -5.35 -4.50 -7.90 -0.35 -1.10 -3.45 -6.90 -6.85 -12.90 -12.10 -21.25 -14.15 -26.65 -16.15 -41.95 -0.70 -5.75 -1.30 -8.30 -2.70 -11.75 -2.95 -7.45 -3.45 -11.75 -3.15 -27.65 0.25 -10.90 0.55 -15.70 1.60 -23.25 0.70 -5.20 1.50 -11.75 1.75 -14.50 0.60 -6 0.85 -7.25 1.80 -8.30 0.40 -0.40 1 -1.80 1.40 -3.05 l0.70 -2.30 -1.70 0.25 c-1.35 0.25 -1.90 0 -3.20 -1.25 -0.80 -0.85 -1.50 -2 -1.50 -2.55 0 -2.20 4.80 -12.95 8.95 -20 1.85 -3.05 1.85 -3.25 0.55 -4.55 -0.60 -0.60 -1 -1.65 -1 -2.65 0 -4.20 11.30 -17.60 34.25 -40.60 l9.50 -9.50 7.55 -3.90 c4.15 -2.10 8.15 -3.85 8.80 -3.85 0.70 0 1.80 0.45 2.45 0.95 1.20 0.95 1.30 0.95 8.60 -0.85 4.70 -1.10 7.35 -2 7.35 -2.40 0 -0.35 0.50 -1.25 1.15 -2 1.30 -1.45 1.50 -1.50 27.10 -1.90 5.25 -0.10 12.75 -0.45 16.75 -0.80 9.35 -0.80 26.70 -0.40 32.25 0.75 5.20 1.05 9.25 2.95 13.05 6.15 2.65 2.20 3.65 2.65 7.30 3.55 7.25 1.70 15.30 5.25 21.80 9.60 1.15 0.80 2.10 1.20 2.10 0.90 0 -0.25 0.30 -0.20 0.70 0.15 0.40 0.35 0.65 0.75 0.55 0.90 -0.20 0.30 5 3.80 15.70 10.75 4.95 3.20 8.20 5.80 12.50 9.95 3.20 3.10 7.15 6.65 8.80 7.90 1.70 1.25 5.05 4.15 7.50 6.40 5.85 5.35 6.25 5.55 6.25 3.30 0 -2.75 2.95 -4.55 5.75 -3.50 1.25 0.50 4.20 5.20 8.60 13.70 2.20 4.25 5.45 10.10 7.25 13 1.85 2.90 3.70 6.10 4.20 7.15 0.60 1.25 1 1.65 1.30 1.25 0.25 -0.40 0.40 -0.10 0.40 0.85 0 0.85 0.45 2.90 1 4.60 0.55 1.75 1.55 6 2.25 9.50 0.75 3.55 1.70 7.55 2.25 8.90 1.40 3.85 3.30 13.05 4.80 23.25 2.30 15.30 1.85 22.80 -2.60 44.75 -1 4.95 -2 10.10 -2.25 11.40 -0.20 1.30 -0.55 2.85 -0.70 3.40 -0.20 0.55 0 1.75 0.45 2.65 1.25 2.65 0.25 9.50 -2.20 15.05 -2.75 6.20 -4.75 10.25 -7.10 14.25 -1.55 2.60 -3.75 7 -4.90 9.75 -3.10 7.40 -3.85 8.65 -6.65 11.60 -3.05 3.25 -6.75 5.40 -13.85 8.05 -2.90 1.10 -7.80 3.25 -10.95 4.80 -7.95 4 -13.35 6.10 -20.05 7.80 -3.15 0.80 -7.20 2.05 -8.95 2.75 -3.75 1.55 -14.90 4.30 -23.30 5.75 -11.55 2 -11.20 1.90 -11.95 3.75 -0.85 1.95 -3.20 3 -8.55 3.75 -4.75 0.70 -29.10 1.05 -36.20 0.50z m21.45 -10.35 c1.65 -0.40 1.75 -0.55 1.60 -2.30 -0.35 -3.70 3.70 -5.60 6.85 -3.30 1.35 1 1.70 1.05 5.45 0.50 5.45 -0.70 7.70 -1.55 23.35 -8.45 12.85 -5.70 26.65 -10.95 30.10 -11.45 3.50 -0.55 5.50 4.05 2.90 6.60 -1.45 1.50 -1.30 1.55 1.20 0.25 1.05 -0.50 5.95 -2.35 10.85 -4 4.95 -1.70 10.30 -3.85 12 -4.75 2.65 -1.50 3.05 -1.90 3.05 -3.20 0 -0.85 0.35 -1.95 0.85 -2.50 0.85 -0.90 0.80 -0.90 -2 0 -4.30 1.45 -6.35 1.25 -7.90 -0.60 -1.50 -1.75 -1.60 -2.45 -0.55 -4.45 0.55 -1.05 1.35 -1.60 2.90 -2 5.70 -1.45 11.20 -4.40 17.10 -9.15 3.90 -3.15 10.25 -9.45 11.05 -10.95 0.40 -0.75 1.25 -3.75 1.95 -6.65 1.20 -4.95 1.20 -5.30 0.45 -6.90 -0.80 -1.65 -0.75 -2 1.50 -10.95 3.85 -15.45 4.35 -18.55 4.65 -26.95 0.35 -8.95 -0.10 -14.65 -1.05 -14.30 -0.45 0.20 -0.65 -0.20 -0.60 -1.20 0.05 -0.80 0.25 -1.45 0.50 -1.45 0.70 0 -0.05 -22.65 -0.90 -28.25 -0.45 -2.75 -0.80 -5.05 -0.80 -5.10 0 -0.10 -0.55 -0.15 -1.25 -0.15 -2.10 0 -3.40 -2 -8 -12.40 -8.20 -18.40 -10.65 -22.75 -17.95 -31.90 -5.95 -7.45 -15.75 -16 -22.55 -19.75 -9 -4.90 -20.25 -11.90 -23.40 -14.50 -8.45 -7 -11.15 -8.75 -22.95 -14.75 -10.90 -5.60 -14.90 -7.15 -14.90 -5.80 0 0.25 0.50 0.85 1.05 1.40 0.60 0.50 2.40 2.45 4 4.35 3.05 3.45 3.60 5.20 2.45 7.35 -0.60 1.05 -3.05 2 -4.40 1.65 -0.55 -0.10 -3.60 -3 -6.80 -6.40 -5.40 -5.75 -6 -6.20 -7.60 -6.15 -2.30 0.10 -4.20 -1.65 -4.20 -3.95 0 -0.90 -0.10 -1.65 -0.25 -1.65 -0.15 0 -6.40 -1 -13.90 -2.25 -18.35 -3 -21.80 -3.35 -30.85 -3.15 -7.10 0.20 -8.45 0.40 -15.75 2.25 -4.40 1.10 -11.60 2.85 -16 3.90 -8.95 2.05 -15.75 4.15 -15.75 4.80 0 0.25 0.20 0.45 0.45 0.45 0.60 0 1.40 2.50 1.15 3.80 -0.25 1.75 -1.85 2.75 -5.45 3.50 -1.85 0.40 -3.85 1.15 -4.40 1.70 -0.60 0.55 -2.20 1.35 -3.65 1.75 -2.95 0.90 -8.60 5.70 -8.60 7.35 0 1.85 -1.45 3.80 -3.25 4.40 -1 0.35 -2.70 1.55 -3.75 2.65 -3.80 4 -11 13.65 -12.45 16.60 -3.05 6.35 -6.95 25.70 -8.30 41.25 -0.30 3.60 -0.25 3.80 0.95 4.95 1.55 1.50 1.65 3.15 0.30 6.10 -0.55 1.20 -1 3.05 -1 4.10 0 1.05 -0.45 2.85 -0.95 4 -0.95 2.05 -2.55 11.20 -2.45 14.10 0 0.85 0.25 1.80 0.55 2.15 0.35 0.45 0.30 0.55 -0.40 0.30 -0.85 -0.35 -0.85 0.40 -0.60 14.35 0.50 26.95 4.05 43.50 11 51.25 1.20 1.35 2.45 2.95 2.80 3.60 0.65 1.25 0.30 4.10 -0.50 4.10 -0.75 0 -0.50 0.90 1.25 4.70 1.60 3.50 1.70 3.65 3.20 3.40 1.25 -0.15 1.90 0.10 3.05 1.30 1.50 1.50 1.50 1.55 1.20 5.50 l-0.30 4 2.15 3.40 c2.60 4.15 6.55 9.40 9.95 13.45 1.40 1.60 2.55 3.35 2.55 3.80 0 2.35 22.15 15.60 31.50 18.85 l4.30 1.50 1.60 -1.45 c2.15 -1.90 3.65 -1.85 6.05 0.30 1.10 1 2.70 2 3.65 2.30 2.60 0.75 9.75 1.85 14.40 2.20 3.20 0.25 4.50 0.55 5.30 1.30 2.10 1.95 7.15 2.40 24.95 2.25 9.10 -0.10 17.30 -0.40 18.25 -0.65z m-92.30 -4.85 c-2.80 -1.50 -6.95 -3.85 -9.25 -5.30 -5 -3.10 -3.90 -1.45 1.25 1.90 3.15 2.05 11.35 6 12.55 6.05 0.30 0 -1.75 -1.20 -4.55 -2.65z m142.60 -4.85 c0.30 -0.25 0.70 -0.30 0.85 -0.10 0.20 0.15 0.35 0.05 0.35 -0.25 0 -0.35 -0.10 -0.60 -0.20 -0.60 -0.50 0 -4.80 2 -4.80 2.20 0 0.30 3.10 -0.70 3.80 -1.25z m9.95 -3.95 c0.35 -0.60 -0.10 -0.60 -1.50 0 -0.95 0.40 -0.95 0.45 0.10 0.45 0.60 0.05 1.25 -0.15 1.40 -0.45z m2.75 -0.80 l1.25 -0.75 -1.25 0.35 c-0.70 0.15 -1.45 0.50 -1.70 0.75 -0.80 0.70 0.30 0.50 1.70 -0.35z m-212.85 -172.55 c0.15 -0.25 0.40 -1.65 0.55 -3.15 l0.35 -2.75 -0.95 2.05 c-1.60 3.30 -1.75 4.20 -0.90 4.20 0.40 0 0.85 -0.15 0.95 -0.35z"/>
  <path d="M483.95 693.80 c-2.25 -0.35 -5.65 -0.45 -8.25 -0.25 -4.05 0.30 -16.70 -0.20 -19.70 -0.80 -0.70 -0.15 -5.35 -0.45 -10.35 -0.75 -13.65 -0.70 -16.90 -1.70 -24.45 -7.45 -9.65 -7.25 -18.60 -18.80 -26.85 -34.55 -4.90 -9.40 -8.85 -23.60 -8.85 -32 0 -4.35 1.65 -14.05 3.05 -17.70 1.40 -3.75 7.95 -16.65 10.15 -19.95 4.75 -7.15 11.45 -13.40 17.75 -16.60 1.50 -0.75 6.20 -2.55 10.50 -4 4.30 -1.45 9.95 -3.50 12.55 -4.55 4.65 -1.90 4.90 -1.90 12.40 -2.10 9.75 -0.25 23.85 0.65 26.95 1.70 1.30 0.45 3.50 1.55 4.85 2.50 1.40 0.95 3 1.70 3.60 1.70 2.15 0 10.65 2.45 14.25 4.10 2.05 0.95 5.30 3.05 7.30 4.70 1.95 1.60 5.40 4.30 7.70 5.95 7.10 5.15 11.60 9.75 13.85 14.10 1.10 2.15 2.15 4.45 2.35 5.15 0.20 0.70 1.35 3.40 2.60 6 2.95 6.25 6.05 17.75 7.15 26.50 1.15 9.05 0.35 23.05 -1.80 31.40 -3 11.60 -9.95 21.25 -18.60 25.75 -1.85 0.95 -5.25 3 -7.55 4.55 -9.45 6.25 -19.15 8.35 -30.60 6.60z m-49.15 -11.60 c-1.10 -0.40 -2.25 -0.65 -2.50 -0.50 -0.30 0.10 0.25 0.40 1.20 0.70 2.60 0.75 3.55 0.65 1.30 -0.20z"/>
  <path d="M391.40 274.75 c-8.15 -2.05 -13.35 -7.20 -16.20 -15.90 -1.20 -3.60 -1.40 -5.15 -1.60 -12.45 -0.35 -12.70 1.05 -18.60 5.45 -23 2.25 -2.25 4.15 -3.05 4.55 -1.90 0.10 0.35 0.95 0.40 2.30 0.20 1.80 -0.30 2.15 -0.50 1.95 -1.25 -0.25 -0.90 0.10 -0.95 4.30 -0.95 13.05 0.05 24.55 5.45 28.25 13.40 1.20 2.55 1.35 3.55 1.50 9.75 0.15 6 0.10 6.85 -0.60 6.85 -0.45 0 -0.80 -0.40 -0.85 -0.85 0 -0.50 -0.35 0.70 -0.70 2.60 -0.35 1.95 -1.10 5.10 -1.70 7 -0.95 3.15 -0.95 3.55 -0.25 4.10 0.70 0.50 0.60 0.90 -0.65 3.45 -1.95 4 -4.85 6.85 -8.45 8.20 -3.80 1.45 -13 1.85 -17.30 0.75z m11.45 -13.30 c4.35 -1.65 7.10 -7.75 6.40 -14.35 -0.30 -2.70 -0.45 -3.10 -1.15 -2.80 -3.35 1.40 -6.75 0.75 -8.50 -1.75 -1.75 -2.45 -6.40 -5.95 -8.50 -6.35 -2.15 -0.40 -3.70 0.65 -5.15 3.60 -1.95 4.10 -0.85 11.85 2.25 15.95 3.55 4.65 10.40 7.30 14.65 5.70z"/>
  <path d="M689.60 455.35 c-0.70 -0.75 -1.10 -1.80 -1.10 -3 0 -1.65 0.35 -2.10 4.25 -5.35 3.60 -3.05 4.15 -3.75 3.75 -4.50 -1.10 -2.10 -0.55 -3.80 3.05 -9 1.95 -2.85 5.50 -7.65 7.90 -10.70 5.75 -7.25 9.60 -12.95 12.05 -17.80 2.20 -4.35 5.60 -13 6.45 -16.50 0.90 -3.50 2.10 -6.10 3.60 -7.75 2.75 -3.05 4.35 -7.10 4.90 -12.70 0.80 -7.70 0.70 -9.95 -0.45 -11.40 -1.30 -1.65 -1.25 -2.35 0.25 -5.40 0.70 -1.35 1.25 -3.10 1.25 -3.80 0 -2.30 1.50 -6.45 2.95 -8.10 2.30 -2.65 3.15 -8.05 3.40 -21.85 0.25 -11.05 0.30 -11.80 1.30 -12.85 1.40 -1.55 4 -1.55 5.55 0 1.05 1.05 1.20 1.75 1.50 7.85 0.40 7.90 -0.25 16.95 -1.75 24.15 -0.85 4.05 -0.95 5.40 -0.50 6.65 1.80 4.90 -1.10 22.50 -4.95 30.20 -0.45 0.95 -1.60 4.70 -2.50 8.25 -1.70 6.80 -5.10 16.45 -7.55 21.35 -1.45 2.90 -2.60 3.90 -4.30 3.90 -0.60 0 -1.30 0.65 -1.80 1.75 -1.05 2.20 -1.05 2.25 0.05 2.25 1.90 0.05 3.90 2.80 3.40 4.75 -0.40 1.50 -7.55 12.30 -11.55 17.50 -3.80 4.90 -12.70 13.55 -19.65 19.15 -5.75 4.60 -7.45 5.10 -9.50 2.95z"/>
 </g>
 <g fill="#d5f6c5">
  <path d="M330.55 1045.65 c0 -1.25 0.05 -1.30 0.45 -0.40 0.60 1.35 0.60 1.75 0 1.75 -0.25 0 -0.50 -0.60 -0.45 -1.35z"/>
  <path d="M732.30 844.55 c-0.50 -0.80 -0.40 -0.90 1.40 -1.35 1.05 -0.25 1.35 -0.20 1.10 0.25 -0.20 0.30 -0.65 0.55 -1.05 0.55 -0.35 0 -0.75 0.25 -0.85 0.60 -0.15 0.45 -0.30 0.45 -0.60 -0.05z"/>
  <path d="M612.75 616.50 c-0.20 -0.30 -0.05 -0.50 0.30 -0.50 0.30 0 0.45 -0.40 0.30 -1 -0.15 -0.55 -0.05 -1 0.15 -1 0.25 0 0.55 -0.50 0.65 -1.10 0.10 -0.65 0.25 -0.10 0.30 1.15 0.05 1.65 -0.15 2.45 -0.70 2.60 -0.40 0.20 -0.85 0.10 -1 -0.15z"/>
  <path d="M729 589.30 c0 -0.40 -0.15 -1.05 -0.30 -1.50 -0.20 -0.50 -0.05 -0.80 0.45 -0.80 0.70 0 1.35 1 1.35 2 0 0.20 -0.35 0.50 -0.75 0.70 -0.45 0.15 -0.75 0 -0.75 -0.40z"/>
  <path d="M337.80 385.10 c-0.15 -0.25 0.30 -0.60 0.95 -0.75 0.70 -0.10 1.40 0 1.55 0.20 0.15 0.25 0.05 0.45 -0.25 0.45 -0.25 0 -0.80 0.15 -1.20 0.30 -0.40 0.15 -0.90 0.05 -1.05 -0.20z"/>
  <path d="M316.75 356.10 c-0.30 -0.20 -0.60 -0.90 -0.60 -1.60 -0.10 -1.55 -2.30 -3.50 -3.90 -3.50 -0.65 0 -1.80 0.55 -2.60 1.20 l-1.40 1.20 -1.10 -7.05 c-4.95 -31.90 -6.70 -49.80 -5.70 -59.15 0.60 -5.75 0.85 -6.70 1.85 -6.70 0.40 0 0.85 -0.35 1 -0.75 0.20 -0.40 0.75 -0.75 1.30 -0.75 0.50 0 0.80 -0.20 0.65 -0.50 -0.15 -0.25 0.05 -0.50 0.45 -0.50 0.45 0 0.80 -0.20 0.80 -0.45 0 -0.55 4.35 -2.20 4.95 -1.85 0.25 0.20 0.55 0.05 0.65 -0.30 0.15 -0.40 1.05 -0.60 2.30 -0.60 1.15 0.05 2.10 -0.15 2.10 -0.40 0 -0.25 0.75 -0.40 1.65 -0.25 2 0.25 4.15 -1.10 3.70 -2.30 -0.15 -0.45 0.05 -0.90 0.50 -1.05 0.40 -0.20 0.65 -0.65 0.45 -1.05 -0.15 -0.40 0.20 -1.20 0.75 -1.70 0.60 -0.55 0.90 -1.20 0.70 -1.50 -0.15 -0.30 -0.05 -0.55 0.25 -0.55 0.35 0 0.45 -0.35 0.30 -0.85 -0.20 -0.50 0.70 -2.85 2.35 -6.10 3.75 -7.25 5.15 -11.40 7.15 -21.05 1.35 -6.65 1.70 -9.40 1.70 -14 -0.05 -11.95 -3.50 -20.45 -10.60 -26 -1.45 -1.15 -3.05 -2.40 -3.50 -2.80 -0.70 -0.50 -0.90 -1.45 -0.90 -3.65 0 -4.35 4.25 -24.80 11.25 -54.30 4.10 -17.15 5.55 -23.90 9 -40.85 4.05 -19.75 6.20 -28.45 6.25 -25 0 1.65 2.75 8.45 4.70 11.65 0.95 1.60 2.75 5.65 4.05 9 1.30 3.40 4.25 11 6.55 16.85 l4.25 10.70 -1.50 1.65 c-1.75 2 -3.45 6.40 -4.15 10.60 -0.55 3.65 0.10 9.35 1.65 14 1.85 5.60 6.65 11.90 11.50 14.90 2.65 1.70 8.35 3.65 11.75 4.05 2.05 0.25 2.65 0.55 2.85 1.30 0.25 0.80 0.55 0.95 1.70 0.70 2 -0.45 8.20 1.85 11.75 4.30 0.80 0.55 1.60 0.85 1.85 0.65 0.25 -0.15 0.65 0 0.80 0.30 0.20 0.25 1.05 0.45 1.95 0.40 0.85 -0.05 1.90 0.05 2.30 0.20 0.40 0.20 1.55 0.40 2.50 0.45 1.70 0.15 1.90 0.40 8.25 10.95 3.60 5.95 9.45 16 13 22.40 3.60 6.40 6.90 12.05 7.40 12.55 1.40 1.55 3.20 1.80 4.85 0.60 l1.35 -1.05 4.50 8.85 c7 13.80 15 36.80 20.90 60.10 3.80 15 4.55 17.50 5.30 17.50 0.25 0 0.70 1 1 2.25 0.65 2.55 1.95 3.75 4.05 3.75 1.20 0 1.40 0.20 1.40 1.50 0 1.25 -0.20 1.50 -1.15 1.50 -0.65 0 -2.10 0.60 -3.20 1.40 -8.60 5.95 -25.15 16.65 -30.25 19.50 -3.25 1.85 -4.40 1.80 -8.20 -0.20 -1.90 -1 -3.65 -2.05 -3.90 -2.25 -0.30 -0.25 -0.85 -0.45 -1.30 -0.45 -0.45 0 -1.95 -1.65 -3.40 -3.65 -6.65 -9.30 -13 -12.85 -23 -12.85 -3.10 0 -4.15 -0.15 -4 -0.60 0.25 -0.75 -1.35 -2.10 -3.10 -2.65 -0.70 -0.20 -1.50 -0.60 -1.85 -0.85 -0.75 -0.60 -2.95 -0.65 -8.45 -0.15 l-4.55 0.40 -0.90 3.05 c-0.50 1.65 -0.95 3.30 -0.95 3.55 -0.05 0.30 -1 1.40 -2.15 2.50 -3 2.95 -3.90 6.35 -3.45 13.10 0.25 4.35 0.20 5.15 -0.45 5.15 -0.50 0 -0.75 0.50 -0.75 1.65 0 1.85 -1.25 6.40 -2.25 8.35 -0.35 0.70 -0.80 1.60 -0.90 2.05 -0.25 0.70 -3.95 1.45 -15.75 3.15 -0.75 0.10 -1.65 -0.35 -2.60 -1.25 -1.85 -1.85 -3.65 -1.85 -5.45 -0.05 -0.75 0.75 -1.50 1.70 -1.60 2.05 -0.20 0.55 -1.70 0.85 -6 1.10 -7.45 0.50 -28.05 0.55 -28.70 0.05z m90.45 -83.65 c3.45 -1.25 6.45 -4.10 8.25 -7.75 0.65 -1.35 1.25 -2.50 1.35 -2.60 0.05 -0.10 1.45 0.55 3.15 1.35 1.70 0.85 3.05 1.40 3.05 1.25 0 -0.20 0.30 -0.05 0.70 0.25 0.55 0.45 0.75 0.30 1.05 -0.80 0.20 -0.80 0.10 -1.45 -0.20 -1.55 -0.25 -0.10 -0.35 -0.50 -0.20 -0.90 0.15 -0.40 0.05 -0.70 -0.25 -0.70 -0.30 0 -0.40 -0.45 -0.25 -1 0.15 -0.55 0 -1 -0.30 -1 -0.25 0 -0.40 -0.35 -0.25 -0.75 0.20 -0.40 0.10 -0.75 -0.10 -0.75 -0.25 0 -0.50 -0.75 -0.55 -1.60 -0.10 -0.90 -0.35 -1.70 -0.60 -1.80 -0.30 -0.10 -0.35 -0.50 -0.20 -0.95 0.15 -0.40 0 -0.95 -0.40 -1.15 -0.45 -0.30 -0.75 -2.40 -0.95 -7.60 -0.25 -6.30 -0.45 -7.50 -1.60 -10 -1.80 -3.85 -5.10 -6.95 -10.05 -9.40 -4.95 -2.45 -12.50 -4.15 -17.50 -3.90 -2.30 0.10 -3.35 -0.05 -3.35 -0.45 0 -0.30 -0.70 -0.80 -1.55 -1.10 -2.60 -0.90 -3.05 -0.75 -2.85 1.10 0.15 1.35 -0.15 1.80 -1.70 2.95 -2.55 1.85 -4.25 4.50 -5.55 8.65 -0.95 3.10 -1.10 4.55 -1.10 12.25 0.05 8.15 0.15 9.05 1.40 12.85 2.90 8.75 8.15 13.85 16.25 15.90 3.95 1 10.50 0.65 14.30 -0.80z"/>
  <path d="M394.65 262.80 c-4.15 -1.30 -7 -3.90 -5 -4.55 0.30 -0.10 4.90 -0.30 10.20 -0.45 8.85 -0.20 9.55 -0.20 9.30 0.60 -0.50 1.40 -2.80 3.70 -4.50 4.40 -2 0.85 -7.20 0.85 -10 0z"/>
  <path d="M476.80 262.70 c-2.45 -7.85 -4.65 -13.35 -9.40 -23.20 -2.95 -6.10 -10.35 -26.55 -10.40 -28.70 -0.05 -1.40 -1.90 -2.95 -3.75 -3.05 l-1.85 -0.10 -5.20 -10.10 c-2.85 -5.50 -4.95 -10.05 -4.70 -10.05 1.05 0 10.20 9.10 12.50 12.40 0.70 1 1.55 2.15 1.90 2.50 0.30 0.35 0.60 0.90 0.60 1.15 0 0.25 0.60 1.30 1.40 2.40 0.75 1.05 1.80 2.85 2.30 3.95 0.55 1.15 1.15 2.10 1.40 2.10 0.20 0 0.40 0.25 0.40 0.50 0 0.30 0.80 2.30 1.80 4.40 2.75 5.80 3.70 8.10 3.35 8.10 -0.15 0 -0.05 0.30 0.20 0.65 0.75 0.90 2.15 5.40 1.90 5.90 -0.15 0.20 -0.05 0.50 0.20 0.70 0.40 0.25 1.05 3.15 1.30 5.75 0 0.45 0.20 1 0.35 1.25 0.25 0.45 1 3.15 1.20 4.50 0.05 0.30 0.15 0.65 0.20 0.90 0.05 0.20 0.20 0.60 0.25 0.85 0.05 0.30 0.20 0.65 0.25 0.90 0.10 0.20 0.20 0.60 0.25 0.85 0.10 0.30 0.20 0.65 0.25 0.90 0.05 0.20 0.20 0.60 0.25 0.85 0.05 0.30 0.20 0.60 0.25 0.75 0.05 0.15 0.20 0.50 0.25 0.75 0.05 0.30 0.20 0.55 0.25 0.65 0.05 0.05 0.20 0.55 0.30 1.10 0.05 0.55 0.85 3.55 1.70 6.65 1.65 5.95 1.90 8.85 0.30 3.80z"/>
  <path d="M306.70 170.35 c-0.65 -0.75 -0.70 -7.35 -0.05 -7.35 0.30 0 0.35 -1.05 0.20 -2.45 -0.20 -1.65 -0.10 -2.55 0.25 -2.65 0.35 -0.15 0.60 -1.40 0.60 -3.05 0.05 -1.55 0.25 -2.85 0.45 -2.85 0.25 0 0.30 -0.65 0.10 -1.50 -0.20 -1 -0.15 -1.50 0.25 -1.50 0.45 0 0.55 -0.50 0.35 -1.50 -0.20 -0.95 -0.10 -1.50 0.20 -1.50 0.35 0 0.50 -0.80 0.35 -2 -0.10 -1.10 0 -2 0.25 -2 0.25 0 0.35 -0.90 0.25 -2 -0.10 -1.10 0 -2 0.25 -2 0.25 0 0.35 -0.45 0.20 -1 -0.15 -0.55 -0.05 -1 0.25 -1 0.30 0 0.40 -0.55 0.30 -1.25 -0.15 -0.70 -0.05 -1.25 0.20 -1.25 0.25 0 0.30 -0.45 0.15 -1 -0.20 -0.60 -0.10 -1 0.25 -1 0.35 0 0.50 -0.40 0.35 -1 -0.15 -0.55 -0.05 -1 0.25 -1 0.30 0 0.40 -0.35 0.20 -0.75 -0.15 -0.40 -0.05 -0.75 0.25 -0.75 0.30 0 0.45 -0.35 0.25 -0.75 -0.15 -0.40 -0.05 -0.75 0.25 -0.75 0.30 0 0.45 -0.35 0.25 -0.75 -0.15 -0.40 0 -0.75 0.25 -0.75 0.30 0 0.45 -0.45 0.30 -1 -0.15 -0.55 -0.05 -1 0.25 -1 0.30 0 0.40 -0.45 0.25 -1 -0.15 -0.55 -0.05 -1 0.25 -1 0.30 0 0.40 -0.45 0.25 -1 -0.15 -0.55 -0.05 -1 0.25 -1 0.30 0 0.40 -0.45 0.25 -1 -0.15 -0.55 -0.05 -1 0.25 -1 0.30 0 0.40 -0.35 0.20 -0.75 -0.15 -0.40 0 -0.75 0.25 -0.75 0.35 0 0.45 -0.55 0.35 -1.25 -0.15 -0.70 -0.05 -1.25 0.20 -1.25 0.30 0 0.35 -0.70 0.15 -1.55 -0.25 -1.05 -0.15 -1.70 0.25 -1.95 0.35 -0.25 0.65 -1.50 0.70 -2.95 0.05 -1.40 0.25 -2.55 0.50 -2.55 0.20 0 0.25 -0.55 0.10 -1.25 -0.20 -0.80 -0.10 -1.25 0.25 -1.25 0.30 0 0.45 -0.35 0.25 -0.75 -0.15 -0.40 0 -0.75 0.25 -0.75 0.30 0 0.45 -0.45 0.30 -1 -0.15 -0.55 0 -1 0.25 -1 0.35 0 0.45 -1.35 0.30 -3.75 -0.15 -2.25 -0.05 -3.75 0.25 -3.75 0.25 0 0.30 -0.55 0.15 -1.25 -0.20 -0.80 -0.10 -1.25 0.25 -1.25 0.30 0 0.45 -0.45 0.30 -1 -0.15 -0.55 -0.05 -1 0.25 -1 0.30 0 0.40 -0.35 0.20 -0.75 -0.15 -0.40 -0.05 -0.75 0.25 -0.75 0.30 0 0.45 -0.35 0.25 -0.75 -0.15 -0.40 -0.05 -0.75 0.25 -0.75 0.35 0 0.45 -0.50 0.25 -1.25 -0.20 -0.80 -0.10 -1.25 0.25 -1.25 0.40 0 0.50 -0.65 0.30 -2 -0.15 -1.15 -0.05 -2 0.25 -2 0.25 0 0.30 -0.45 0.15 -1 -0.15 -0.55 -0.10 -1 0.15 -1 0.50 0 2.40 -4.45 2.20 -5.10 -0.05 -0.25 0.15 -0.40 0.45 -0.40 0.25 0 0.40 -0.20 0.25 -0.45 -0.15 -0.25 0.05 -0.60 0.50 -0.75 0.45 -0.20 0.70 -0.45 0.55 -0.60 -0.30 -0.30 2.10 -2.75 4 -4.05 0.65 -0.40 1 -0.95 0.85 -1.20 -0.15 -0.25 0.10 -0.45 0.50 -0.45 0.45 0 0.80 -0.20 0.80 -0.50 0 -0.25 0.45 -0.50 1.05 -0.50 0.55 0 0.90 -0.20 0.75 -0.45 -0.15 -0.25 0.80 -0.90 2.15 -1.50 2.85 -1.20 3.40 -1.30 3.65 -0.45 0.25 0.65 -1.65 7.80 -4.60 17.65 -2.25 7.55 -3.70 13.20 -6.20 24.85 -1.80 8.20 -4.10 16 -7.25 24.30 -0.85 2.25 -2.25 5.95 -3.10 8.25 -0.85 2.25 -4.05 11.70 -7.10 20.95 -4.05 12.15 -5.75 16.65 -6.15 16.25z"/>
  <path d="M382.85 155.50 c-1.35 -0.50 -3.20 -1.50 -4.15 -2.25 -1.85 -1.40 -5.70 -6 -5.70 -6.80 0 -1.60 6.70 1.60 9.05 4.35 0.85 1 3.65 5.70 3.35 5.70 -0.05 -0.05 -1.25 -0.45 -2.55 -1z"/>
  <path d="M367 88.95 c-3.75 -5.30 -7.50 -12.20 -7.50 -13.80 0 -0.10 1.15 0.40 2.55 1.20 4.15 2.20 8.15 7.95 10.70 15.10 0.55 1.65 0.60 2.10 0.05 2.40 -0.35 0.25 -0.75 0.70 -0.85 1.05 -0.15 0.40 -2.35 -2.30 -4.95 -5.95z"/>
  <path d="M360.50 66.45 c-4.65 -2.50 -5.15 -3 -6.45 -6.55 -0.80 -2.20 -0.90 -2.90 -0.40 -2.90 0.40 0 0.85 0.15 1.05 0.40 0.20 0.20 0.55 0.35 0.70 0.40 0.20 0 1.20 0.40 2.30 0.85 1.05 0.45 2.05 0.85 2.25 0.85 0.15 0 1.15 0.55 2.10 1.20 1.65 1.15 1.85 1.50 2.15 4.30 0.20 1.70 0.30 3.20 0.20 3.30 -0.10 0.05 -1.85 -0.75 -3.90 -1.85z"/>
 </g>
 <g fill="#d4efe8">
  <path d="M400.50 348.70 c-0.85 -0.45 -2.15 -0.55 -4.05 -0.35 l-2.85 0.30 -1 -1.95 c-1.80 -3.55 -3.20 -9.10 -2.85 -11.35 0.70 -4.50 1.10 -5.15 4.15 -6.50 5.55 -2.45 11.90 -4.45 14.35 -4.50 2.10 -0.05 3.35 0.35 7.85 2.60 3.10 1.55 6.40 3.65 7.85 5 2.65 2.40 6.50 8.85 5.75 9.50 -0.50 0.45 -26.85 8.10 -27.55 8 -0.20 -0.05 -0.95 -0.35 -1.65 -0.75z"/>
  <path d="M306.15 265.20 c-0.55 -1.40 0.25 -15.65 1.55 -28.25 1.60 -15.15 3.25 -27.60 3.70 -28 0.20 -0.20 1.40 -0.45 2.75 -0.60 l2.35 -0.25 3.05 3.35 c1.70 1.80 3.35 3.75 3.75 4.30 0.90 1.40 2.70 12.40 2.70 16.55 0 7.05 -1.85 16.15 -4.50 22 -2 4.40 -7.75 10.40 -10.75 11.15 -3 0.75 -4.25 0.70 -4.60 -0.25z"/>
  <path d="M387.55 258.15 c-2.65 -3 -4.15 -7.70 -4.25 -13.35 -0.05 -3.45 0.15 -4.45 1.20 -6.55 1.75 -3.40 4.05 -4.60 7.40 -3.80 2.75 0.70 7.45 4 9.05 6.40 1.40 2.15 3.25 2.90 5.15 2.10 3.40 -1.40 3.10 -5.20 -0.80 -9.40 -1.25 -1.35 -1.35 -1.55 -0.45 -1.10 1.70 0.85 3.55 3.90 4.80 7.80 1.60 5.05 1.55 13.45 -0.05 17.05 l-1.15 2.50 -2.60 -0.35 c-1.45 -0.15 -2.75 -0.25 -2.90 -0.15 -0.20 0.10 -2.95 0.20 -6.15 0.25 -3.20 0.05 -5.95 0.25 -6.10 0.50 -0.50 0.85 -1.10 0.45 -3.15 -1.90z"/>
  <path d="M391.90 151.40 c-3.80 -6.40 -6.75 -12.25 -10.10 -20 l-2.30 -5.35 1.15 -1.25 1.20 -1.25 3.90 5.60 c14.85 21.10 15.85 22.70 15.45 24.80 -0.35 1.80 -1.10 2.30 -3.95 2.75 l-2 0.30 -3.35 -5.60z"/>
  <path d="M384.15 155.90 c-0.65 -0.30 -1.15 -0.85 -1.15 -1.20 0 -0.75 -3 -3.20 -7.05 -5.90 -3.30 -2.10 -4.55 -4.50 -5.45 -10.05 -0.55 -3.45 0.10 -10.25 0.95 -10.25 0.20 0 1.55 2.75 3.05 6.15 3 6.80 7.15 15.25 9.50 19.25 0.90 1.40 1.50 2.60 1.40 2.55 -0.10 0 -0.65 -0.25 -1.25 -0.55z"/>
  <path d="M403.70 132.85 c-4.55 -6.10 -7.30 -10.35 -6.75 -10.35 0.95 0 5.60 4.05 6.85 6 1.05 1.55 3.50 8.50 3.05 8.50 -0.05 0 -1.45 -1.85 -3.15 -4.15z"/>
 </g>
</svg>