<?xml version="1.0" encoding="utf-8"?>
<!DOCTYPE svg PUBLIC "-//W3C//DTD SVG 1.0//EN" "http://www.w3.org/TR/2001/REC-SVG-20010904/DTD/svg10.dtd">
<svg version="1.0" xmlns="http://www.w3.org/2000/svg" width="883px" height="1114px" viewBox="0 0 883 1114" preserveAspectRatio="xMidYMid meet">
 <g fill="#f6c4b9">
  <path d="M384 1098.20 c0 -0.20 0.40 -0.65 0.90 -1.05 0.80 -0.65 0.80 -0.70 -0.15 -0.45 -0.55 0.15 -3.65 0.50 -6.85 0.80 -19.75 1.90 -39.35 -6.90 -50.70 -22.75 -3.15 -4.40 -7.30 -12.70 -8.25 -16.35 -0.35 -1.45 -0.85 -2.40 -1.25 -2.40 -0.95 0 -0.90 -1.45 0.10 -2.60 1.90 -2.10 0.05 -25.75 -3.80 -49 -1.30 -7.50 -1.50 -10.15 -1.50 -18 0 -7.85 -1 -23 -1.70 -26.15 -0.15 -0.55 -0.50 -2.45 -0.80 -4.25 -1.85 -10.35 -4.40 -21.40 -5.50 -23.50 -1.10 -2.15 -3.15 -9.55 -4.75 -17.20 -1.25 -5.90 -2.15 -7.30 -4.55 -7.30 -0.85 0 -1.35 -0.40 -1.70 -1.25 -0.25 -0.70 -0.95 -2.30 -1.55 -3.65 -4.15 -9.25 -4.90 -11.35 -6.65 -18.35 -1.75 -7.15 -2.40 -8.05 -5.60 -7.85 l-2.45 0.10 -3.25 -4.85 c-3.95 -5.85 -4.50 -6.30 -6.20 -4.70 -1.05 1 -1.60 1.15 -3.30 0.90 -1.65 -0.20 -2.30 -0.05 -3.10 0.75 -1.05 1.05 -1.05 1.35 0.10 5.45 0.90 3.10 -0.10 8.45 -1.55 8.45 -0.55 0 -0.95 -0.30 -0.95 -0.60 0 -0.35 -1.25 -1.20 -2.75 -1.85 -1.55 -0.65 -4.60 -2.40 -6.85 -3.85 -2.25 -1.50 -4.15 -2.70 -4.25 -2.70 -0.10 0 -0.15 0.35 -0.15 0.75 0 1.30 -1.45 0.80 -1.80 -0.60 -0.20 -0.70 0 -4.80 0.45 -9.10 1.10 -10.50 1.70 -17.95 2.40 -29.25 0.50 -9.25 0.50 -9.45 -0.50 -10.85 -1.55 -2.10 -1.45 -5.45 0.25 -6.90 0.80 -0.70 1.20 -1.45 1.05 -1.95 -0.75 -2.45 -2 -5.20 -6.20 -13.70 -4.25 -8.55 -5.45 -11.90 -4.15 -11.90 0.25 0 0.65 0.40 0.95 0.85 0.40 0.75 0.75 0.60 2.90 -1.35 1.30 -1.25 3.30 -2.95 4.35 -3.80 2.40 -1.85 2.75 -1.20 -5.50 -10.20 -9.45 -10.40 -15.05 -19.05 -20.30 -31.25 -1.15 -2.75 -3.90 -7.90 -6.10 -11.50 -4 -6.60 -7.80 -13.90 -7.80 -15.10 0 -0.35 -0.20 -0.65 -0.50 -0.65 -0.65 0 -0.65 0.20 0.30 2.40 1.80 4.20 1.80 4.10 0.45 4.10 -1.10 0 -1.25 -0.20 -1.25 -1.75 0 -1.20 -0.25 -1.75 -0.75 -1.75 -0.50 0 -0.75 -0.55 -0.75 -1.75 0 -0.95 0.25 -1.75 0.50 -1.75 0.30 0 0.50 -0.30 0.50 -0.70 0 -0.35 0.35 -0.95 0.75 -1.30 1.10 -0.95 0.95 -1.55 -1.40 -5.60 -3.55 -6.05 -8.85 -17.70 -8.85 -19.45 0 -0.50 -0.20 -0.95 -0.45 -0.95 -0.25 0 -0.55 -0.90 -0.75 -1.95 -0.15 -1.10 -0.65 -2.35 -1.10 -2.80 -0.95 -0.95 -1.60 -5.25 -0.80 -5.25 0.25 0 0.65 0.35 0.80 0.80 0.20 0.45 0.40 0.75 0.55 0.60 0.30 -0.25 -1.70 -5.95 -2.30 -6.60 -0.30 -0.30 -0.45 -0.20 -0.45 0.30 0 0.45 0.20 1 0.50 1.15 0.75 0.45 0.60 1.75 -0.20 1.75 -0.80 0 -1.70 -5 -1.05 -5.95 0.15 -0.30 -0.50 -1.50 -1.45 -2.65 -1.30 -1.50 -1.80 -2.55 -1.80 -3.75 0 -1.85 0.35 -2.05 1.25 -0.80 0.60 0.80 -2.05 -12.50 -6.20 -31.35 -1.10 -5.10 -2.50 -13.40 -3.05 -18.50 -0.85 -7.20 -1.50 -10.70 -3 -15.75 -2.75 -9.25 -4.25 -15.45 -5.70 -23.90 -0.70 -4.05 -1.30 -7.50 -1.30 -7.60 0 -0.15 -0.20 -0.25 -0.50 -0.25 -0.25 0 -0.50 0.35 -0.50 0.75 0 0.40 -0.35 0.75 -0.75 0.75 -1 0 -0.95 -1.90 0.25 -9.80 1.35 -9 2.85 -23.40 3.50 -33.45 0.90 -14.35 1.30 -16.10 7.50 -35 3 -9.05 11.10 -29.45 12.15 -30.45 0.40 -0.45 1.15 -2.05 1.65 -3.60 1.10 -3.60 4.75 -10.65 9.45 -18.45 4.35 -7.15 6.30 -11.05 7.50 -14.75 1.35 -4.25 2 -5.20 6.55 -10.30 3.80 -4.20 4.45 -4.70 6 -4.70 1.65 0 1.70 0.05 1.70 1.90 0 1 -0.35 2.95 -0.75 4.25 -0.75 2.55 -0.55 3.55 1 4.85 1.20 1 3.05 -1 3.45 -3.80 0.65 -4.80 3.80 -9 12.50 -16.65 10.25 -9 14.85 -12.55 16.45 -12.55 1.20 0 1.35 0.15 0.90 0.70 -0.45 0.55 0.20 0.70 3.75 0.95 l4.30 0.30 3.85 -3.45 c4.55 -4.15 8.45 -7.10 11.65 -8.85 1.50 -0.80 2.25 -1.50 2.05 -1.95 -0.40 -1.05 1.75 -0.85 3.20 0.30 1.95 1.50 3.35 0.45 3.55 -2.65 0.10 -1.85 0.45 -2.55 1.65 -3.60 0.85 -0.70 2.05 -1.25 2.75 -1.25 1.40 0 1.50 0.40 0.30 1.30 -1.05 0.85 0.85 0.20 8.15 -2.70 6.90 -2.75 14.05 -4.80 35 -10.05 9.90 -2.50 24.20 -6.10 31.75 -8.05 16.80 -4.35 22.30 -5.55 31 -7 3.70 -0.60 7 -1.30 7.30 -1.55 0.30 -0.25 0.90 -0.40 1.25 -0.30 0.40 0.10 0.20 -0.05 -0.40 -0.35 -1.75 -0.75 -1.40 -1.80 0.60 -1.80 0.95 0 1.75 0.20 1.75 0.45 0 0.95 2.05 1.15 2.95 0.35 1.15 -1.05 3.15 -1.10 2.70 0 -0.20 0.60 0 0.70 0.90 0.50 11.85 -2.65 24.50 -3.50 51.95 -3.50 21.20 0 29.55 0.50 37.75 2.25 8.05 1.70 21 6.35 26.90 9.65 1.70 0.95 4 1.95 5.10 2.20 4.70 1.10 19.20 5.25 23.65 6.80 2.65 0.90 8.25 3.25 12.35 5.15 4.15 1.95 9.20 4.10 11.25 4.85 2.05 0.75 4.90 1.95 6.25 2.70 2.35 1.20 2.45 1.20 1.55 0.20 -0.95 -1.10 -0.95 -1.10 0.55 -1.10 1.10 0 3.35 1.20 7.75 4.15 3.35 2.30 8.50 5.45 11.40 7.10 12.15 6.70 13.50 7.55 13.50 8.10 0 0.30 -0.40 0.65 -0.85 0.75 -0.65 0.15 -0.05 0.75 2.05 2.05 2.85 1.85 4.05 2.10 2.80 0.60 -0.55 -0.65 -0.40 -0.75 0.80 -0.75 1.30 0 1.90 0.65 5.05 5.40 7.30 10.80 11.45 22.80 14.35 41.40 1.60 10.25 2.15 12.75 3.15 13.80 1.05 1.15 1.80 1.15 2.85 0 0.75 -0.90 0.75 -1.45 -0.45 -8.90 -0.70 -4.35 -1.45 -9.15 -1.75 -10.65 -0.85 -4.60 -0.75 -5.05 1.20 -5.05 1.40 0 1.90 0.30 2.75 1.80 0.65 1.05 1.05 2.60 1.05 3.95 0 3 2.80 9.25 10.65 23.55 6.05 11.10 12.90 24.60 16.25 32.10 1.90 4.25 2.70 6.75 5.80 18.35 5.95 22.45 7.50 29.55 9.75 44.15 1.20 7.85 1.65 9.90 2.50 10.80 1.20 1.30 1.35 2.30 0.35 2.30 -0.50 0 -0.75 1.45 -1 6.35 -0.45 8.55 -1.70 24.45 -2.30 28.85 -0.25 1.95 -0.55 6.15 -0.75 9.30 -0.15 3.15 -0.50 7.90 -0.80 10.50 -0.45 4.25 -0.85 6.60 -2.50 16 -0.25 1.50 -0.60 8.85 -0.80 16.25 l-0.30 13.50 1.85 4.90 c1 2.70 3 9.70 4.40 15.50 l2.55 10.60 4.05 7.20 c3.40 6 4.35 7.30 5.80 8 0.95 0.45 3.30 1.90 5.25 3.20 2.70 1.85 3.55 2.25 3.65 1.65 0.10 -0.45 0.50 -0.80 0.90 -0.80 0.85 0 0.95 2.55 0.15 6.70 -0.45 2.40 -0.40 3.05 0.25 4.05 0.70 1.10 1.05 1.15 3.35 0.90 l2.55 -0.30 -0.35 3.70 c-0.20 2.05 -0.65 4.80 -1.05 6.15 -0.95 3.35 -0.90 6.50 0.10 7.35 0.70 0.60 0.80 1.40 0.55 5.50 l-0.30 4.85 2.30 3.65 c3.55 5.80 7 12.95 7.65 15.95 0.30 1.50 0.80 3.45 1.05 4.30 0.60 1.95 0.60 7.70 0 7.70 -0.25 0 -0.60 -0.40 -0.80 -0.85 -0.25 -0.65 -0.65 -0.15 -1.85 2.10 -4 7.85 -11.75 16.70 -18.75 21.45 -3.45 2.35 -3.60 2.50 -2.80 3.40 0.75 0.85 0.70 0.90 -1.85 0.90 -1.95 0 -3.25 -0.35 -4.80 -1.25 -2.15 -1.25 -2.20 -1.25 -3.15 -0.30 -0.85 0.85 -1.30 2.20 -1.70 5.55 -0.15 1.05 -1.85 1.30 -1.85 0.20 0 -0.70 -0.30 -0.80 -1.85 -0.50 -6.60 1.10 -9.90 1.35 -13.90 1.10 -4.50 -0.35 -10.15 -1.30 -11.95 -2.05 -1.10 -0.50 -1.15 -0.70 1.15 5.75 2.50 7 3.20 12.50 2.85 21.50 -0.25 5.75 -0.15 9.10 0.40 13.05 l0.80 5.30 3.90 3.95 c3.40 3.40 7.05 8.15 8.20 10.70 0.25 0.60 0.35 0.60 0.35 -0.10 0.05 -0.50 0.35 -0.90 0.70 -0.90 0.50 0 0.55 3.05 0.40 14.30 -0.10 7.90 0.10 18.65 0.40 23.90 1.25 22.35 1.25 21.80 0.40 21.80 -0.45 0 -0.85 -0.40 -0.95 -0.85 -0.10 -0.50 -0.70 0.50 -1.35 2.30 -1.30 3.65 -1.40 2.35 1.70 20.30 1.70 10.05 1.90 10.60 3.90 13.90 1.20 2 2.15 3.10 2.25 2.60 0.30 -1.25 1.55 -0.85 1.90 0.60 0.20 0.75 0.10 2.20 -0.15 3.30 -0.55 1.95 -0.05 8.25 0.70 9.50 0.15 0.30 0.50 8.90 0.75 19.05 0.20 10.20 0.50 20.75 0.70 23.45 0.30 4.20 0.25 4.85 -0.45 4.85 -0.45 0 -0.85 -0.35 -0.95 -0.80 -0.10 -0.50 -0.85 0.50 -1.85 2.35 -10.45 19.70 -28.45 31.60 -50.10 33.20 -8.15 0.60 -20.15 -1.80 -27.50 -5.45 -2.15 -1.10 -2.30 -1.15 -2.10 -0.25 0.35 1.35 -0.95 1.20 -2.35 -0.25 -0.60 -0.70 -1.70 -1.40 -2.45 -1.55 -0.95 -0.20 -1.55 -0.85 -2.20 -2.50 -1.55 -3.75 -4.10 -6.50 -10.70 -11.60 -7.40 -5.65 -9.65 -7.90 -9.65 -9.60 0 -1.25 0 -1.20 1.85 0.50 1.05 0.90 1.40 1.10 0.75 0.40 -0.60 -0.70 -1.10 -1.55 -1.10 -1.85 0 -0.35 -1.25 -3.15 -2.75 -6.25 -3.05 -6.30 -5.90 -14.55 -6.80 -19.55 -0.30 -1.80 -1.50 -5.70 -2.65 -8.60 l-2.10 -5.35 -4.20 -0.95 c-2.35 -0.50 -5.30 -1.05 -6.60 -1.20 -1.90 -0.25 -2.40 -0.50 -2.40 -1.25 0 -0.55 0.20 -0.95 0.50 -0.95 0.25 0 0.70 -0.50 1.05 -1.05 0.45 -0.90 0.35 -1.25 -0.50 -2.10 -0.80 -0.80 -1.90 -1.10 -5.15 -1.30 -3.40 -0.25 -4.35 -0.50 -5.30 -1.40 -0.90 -0.95 -1.65 -1.15 -4.55 -1.15 -5.70 0 -8.05 -0.45 -8.05 -1.65 0 -1 0.15 -1 3.50 -0.10 1.05 0.30 1 0.20 -0.40 -0.70 -0.90 -0.60 -2 -1.05 -2.50 -1.05 -1.35 0 -10.05 -2.50 -13.50 -3.85 -3.10 -1.25 -3.15 -1.25 -7.10 -0.45 -2.20 0.45 -6.75 1.05 -10.10 1.35 -5.60 0.50 -6.45 0.70 -9.40 2.35 -2.15 1.20 -2.95 1.90 -2.35 2 1 0.20 1.15 1.60 0.15 1.60 -1.15 0 -9.50 2.90 -12.95 4.50 -3.50 1.60 -7.35 2.45 -7.35 1.60 0 -0.30 0.45 -0.70 1.05 -0.85 2.30 -0.75 0.40 -0.65 -4.80 0.30 -3.05 0.50 -6.95 0.95 -8.75 0.95 -2.70 0 -4.20 0.35 -8.20 2 -11.80 4.80 -24.60 6.15 -36.05 3.75 -4.85 -1.05 -4.70 -1.05 -4.40 1.40 0.40 3.75 2.20 15.35 4 25.85 3.50 20.50 2.70 32.05 -3.10 44.30 -5.30 11.35 -12.50 19.05 -23.60 25.35 -4.60 2.60 -7.25 4.55 -5 3.70 0.60 -0.25 0.85 -0.05 0.85 0.65 0 0.70 -0.55 1.10 -2.10 1.50 -1.20 0.30 -3 0.90 -4.05 1.30 -1.90 0.70 -5.35 0.95 -5.35 0.40z m46.80 -231.70 c0.35 -0.70 0.85 -1.80 1.20 -2.50 0.30 -0.75 3.10 -4.80 6.20 -9 4.90 -6.80 5.80 -7.75 7.15 -7.90 0.85 -0.10 2 -0.65 2.55 -1.25 1.10 -1.20 5.25 -15.80 6.90 -24.40 l0.95 -4.85 4.50 -0.60 c22.30 -3 40.25 -7.80 60.20 -16.10 5 -2.05 8.95 -3.40 10.05 -3.40 1.70 0 2.25 0.50 10 9.15 4.50 5 9.65 11.05 11.40 13.45 l3.20 4.35 2.40 -0.30 c2.10 -0.25 2.65 -0.10 4.55 1.20 3 2.05 6.20 3.65 7.35 3.65 1 0 2.30 -1.20 2.70 -2.50 0.50 -1.50 -3.50 -10.10 -10.55 -22.45 -3.15 -5.50 -4.05 -7.55 -4.05 -9.05 0 -1.05 0.20 -2.05 0.45 -2.25 0.25 -0.15 0.35 -1.90 0.20 -3.90 l-0.30 -3.70 2.95 -1.65 c4.15 -2.30 7.20 -4.65 13.25 -10.15 6.15 -5.55 9.85 -9.60 10.30 -11.30 0.25 -0.95 -0.05 -1.55 -1.30 -2.65 -0.85 -0.75 -1.95 -1.40 -2.45 -1.40 -0.50 0 -1.50 -0.70 -2.20 -1.50 -1.20 -1.35 -1.45 -1.45 -2.35 -0.90 -0.60 0.35 -1.35 1.75 -1.80 3.20 -0.90 3.10 -4.15 6.95 -6.75 8 -1 0.40 -2.30 1.40 -2.90 2.15 -0.55 0.80 -2.50 2.45 -4.30 3.75 -2.75 1.95 -3.60 2.30 -5.60 2.30 -2.20 0 -2.50 0.20 -4.65 2.50 -2.85 3.10 -4.90 4.50 -6.55 4.50 -1.90 0.05 -3.60 1.20 -4.45 3.05 -0.90 1.90 -2.30 2.65 -9.50 5.30 -2.85 1 -5.50 1.65 -6.75 1.60 -1.50 -0.05 -3.30 0.55 -6.80 2.20 -7.95 3.75 -36.75 10.85 -44.15 10.85 -1.60 0 -2.25 0.30 -3.55 1.75 -1.40 1.50 -2.05 1.80 -6 2.50 -5.95 1 -6.65 0.95 -7.95 -0.55 l-1.10 -1.30 -5 1.30 c-15.95 4.05 -24.30 3.60 -29.05 -1.50 -1.45 -1.55 -1.85 -1.70 -4.35 -1.70 -2.65 0 -4.35 0.80 -4.35 2.05 0 0.25 -0.85 0.45 -1.90 0.45 -2.30 0 -3.55 0.85 -4.80 3.25 -1.40 2.55 -0.80 3.25 4.15 4.85 5.10 1.70 15.30 2.65 23.20 2.15 l5.35 -0.30 0 2.35 c0 4.85 -4.95 23.55 -6.95 26.25 -1.25 1.70 -1.30 2.15 -0.30 2.95 1.05 0.90 0.95 4.30 -0.30 7.80 -0.55 1.60 -1.35 4.40 -1.70 6.20 -0.65 2.85 -0.60 3.40 0.05 4.40 0.95 1.50 2.70 1.30 3.50 -0.40z m49.70 -151.55 c7.65 -0.70 10.50 -1.65 11.60 -3.95 l0.90 -1.75 9.10 -1.60 c11.20 -2 20.45 -4.30 25.20 -6.15 1.95 -0.80 5.70 -1.95 8.25 -2.55 5.90 -1.35 11.85 -3.65 20.15 -7.80 3.55 -1.80 8.40 -3.90 10.75 -4.75 6.35 -2.20 9.95 -4.30 13.30 -7.65 2.70 -2.65 3.40 -3.80 5.95 -9.75 1.60 -3.70 4.20 -9 5.85 -11.75 1.60 -2.75 3.60 -6.55 4.45 -8.50 0.85 -1.90 1.90 -4.25 2.30 -5.10 2.25 -4.95 3.35 -11.05 2.20 -12.40 -0.75 -0.90 -0.45 -5.60 0.75 -11 0.45 -1.90 1 -4.60 1.25 -6 0.25 -1.35 0.90 -4.65 1.45 -7.25 0.55 -2.60 1.50 -8.25 2.10 -12.50 1.25 -9.05 1.15 -13.35 -0.75 -26 -1.55 -10.30 -2.45 -14.55 -4.25 -20.25 -0.80 -2.45 -1.80 -6.65 -2.30 -9.25 -1.45 -8.25 -3.85 -14.70 -8 -21.55 -2.25 -3.70 -3.75 -6.75 -3.75 -7.55 0 -1.40 0.75 -1.90 1.15 -0.75 0.10 0.30 0.40 0.45 0.60 0.25 0.65 -0.60 -5.10 -13.80 -6.60 -15.15 -1.60 -1.40 -3.20 -1.80 -2.15 -0.50 0.50 0.65 0.45 0.75 -0.55 0.70 -0.85 0 -1.80 -0.80 -3.10 -2.50 -1.30 -1.70 -2.35 -2.60 -3.35 -2.80 -1.70 -0.30 -1.90 -0.85 -0.65 -1.55 0.70 -0.40 0 -1.05 -3.80 -3.40 -2.55 -1.65 -7.70 -5.05 -11.45 -7.65 -6.75 -4.60 -11.50 -7.30 -14.30 -8.10 -1.40 -0.40 -1.40 -0.40 -0.55 0.55 0.90 0.95 0.85 1 -0.30 1 -0.65 0 -3.70 -1.65 -6.80 -3.60 -3.05 -2 -7.25 -4.70 -9.25 -6 -2 -1.30 -5.90 -3.90 -8.70 -5.80 -8.80 -5.95 -16.20 -9.35 -24.05 -11.10 -3.65 -0.80 -4.45 -1.20 -6.75 -3.25 -4.10 -3.70 -8.80 -5.70 -15.75 -6.70 -4.70 -0.70 -23.65 -0.70 -29.40 0 -2.45 0.30 -9.20 0.65 -15 0.70 -24.10 0.40 -25.45 0.60 -25.85 3.35 -0.15 0.90 -1.15 1.25 -7.40 2.70 -8.15 1.90 -9.55 2.05 -11.25 0.90 -1.15 -0.75 -1.45 -0.65 -8.35 2.90 -7 3.55 -7.30 3.80 -14.10 10.40 -7.80 7.65 -24.25 25 -28.65 30.25 -1.60 1.95 -4 5.15 -5.30 7.10 -2.05 3.05 -2.30 3.80 -1.85 4.65 0.30 0.55 0.75 1 1 1 0.30 0 0.50 0.90 0.50 1.95 0 1.40 -0.60 3.05 -2.10 5.65 -2.95 5.20 -7.35 14.40 -7.70 16.15 -0.40 2.05 0.95 3.25 3.20 2.90 1.45 -0.25 1.60 -0.40 1.60 -2.05 0 -1 0.50 -3 1.10 -4.45 1 -2.50 1.20 -2.65 2.80 -2.65 l1.75 0 -0.35 3.80 c-0.35 4.35 -0.80 5.20 -2.85 5.20 -1.25 0 -1.45 0.20 -1.45 1.30 0 1.90 -1.50 6.75 -2.55 8.20 -0.65 0.90 -1.10 3.20 -1.65 8.75 -0.45 4.15 -1.25 11 -1.85 15.25 -1.50 10.70 -1.70 33.45 -0.30 38.50 0.95 3.45 2.75 8.40 3.40 9.25 0.20 0.30 0.75 3.65 1.20 7.50 1.95 16.20 4.20 21.95 18.80 47.40 1.85 3.30 3.75 7 4.20 8.30 0.80 2.40 2.35 5 4.80 8.15 0.75 0.90 2.65 3.90 4.20 6.65 7.45 13.05 12.80 18.30 24.20 24 6 3 11.20 4.65 17.30 5.50 6.60 0.95 28.80 1.80 29.65 1.10 0.60 -0.45 15 0.15 26.60 1.15 6.80 0.55 25.25 0.55 31.50 -0.05z m-286.50 -30.50 c-0.55 -1.20 -0.85 -1.65 -0.70 -0.95 0.55 2.10 1.20 3.65 1.45 3.40 0.15 -0.15 -0.20 -1.25 -0.75 -2.45z"/>
  <path d="M440 839.85 c0 -0.95 0.55 -3.25 1.20 -5.20 l1.20 -3.55 -1 -1.10 c-0.90 -0.95 -1 -1.55 -0.75 -4.40 0.15 -1.85 0.50 -4.55 0.85 -5.95 l0.60 -2.65 4.20 0 4.20 0 0 1.40 c0 1.75 -1.15 7.40 -3.10 14.80 -1.70 6.65 -2.85 8.25 -5.75 8.30 -1.55 0 -1.65 -0.10 -1.65 -1.65z"/>
  <path d="M556.90 814.40 c-5.40 -6.20 -5.65 -6.40 -7.50 -6.40 -1.55 0 -2.05 -0.45 -5.65 -5 -2.15 -2.75 -4.35 -5.10 -4.85 -5.30 -0.65 -0.20 -0.90 -0.80 -0.90 -2.15 0 -1.90 0 -1.90 3.90 -3.55 2.10 -0.90 4.75 -1.75 5.85 -1.85 l2.05 -0.25 2.30 4.45 c1.30 2.40 4.40 8 6.85 12.40 3.20 5.55 4.55 8.45 4.55 9.60 0 1.55 -0.10 1.65 -1.70 1.65 -1.50 0 -2.15 -0.45 -4.90 -3.60z"/>
  <path d="M437.25 708.65 c-4.30 -0.30 -9.40 -1.15 -10.10 -1.75 -0.35 -0.30 -0.65 -1.05 -0.65 -1.65 0 -0.85 0.30 -1.10 1.15 -1.10 0.60 0 2.80 -0.75 4.85 -1.65 13.75 -5.90 27.65 -9.50 48 -12.45 12.50 -1.85 32.45 -4.25 39.25 -4.80 10 -0.80 9.75 -0.80 9.75 0.15 0 0.60 -1.10 1.25 -4.15 2.30 -2.25 0.80 -8.35 3.35 -13.60 5.70 -19.95 8.85 -22.15 9.60 -28.95 9.60 -3.10 0 -4.70 -0.20 -5.55 -0.80 -1.10 -0.70 -1.25 -0.70 -2.20 0.25 -0.70 0.70 -1.05 1.70 -1.05 3 0 2.35 0 2.35 -6.50 3.05 -4.35 0.45 -24.30 0.55 -30.25 0.15z"/>
  <path d="M378.45 704.05 c-2.90 -1.30 -6.90 -3.45 -8.85 -4.75 -3.45 -2.30 -3.60 -2.45 -3.60 -4.35 0 -1.85 0.10 -1.95 1.45 -1.95 0.90 0 3.25 1.05 5.95 2.75 2.50 1.50 6.65 3.80 9.30 5.10 4.60 2.30 4.80 2.45 4.80 4 0 1.55 -0.10 1.65 -1.85 1.65 -1.15 -0.05 -4 -1 -7.20 -2.45z"/>
  <path d="M515.50 697.90 c0 -1.60 0.20 -1.85 2.15 -2.60 1.15 -0.45 2.85 -0.80 3.75 -0.80 1.50 0 1.60 0.10 1.60 1.70 0 2.20 -0.85 2.85 -4.50 3.15 l-3 0.30 0 -1.75z"/>
  <path d="M526.60 693.70 c0.15 -1.95 0.15 -1.95 3.90 -3.30 2.05 -0.70 4.15 -1.35 4.65 -1.35 0.50 -0.05 1.25 -0.35 1.65 -0.65 2.50 -2.05 2.60 -2.30 2.35 -4.40 -0.30 -1.95 -0.25 -2.05 0.65 -1.50 1.80 1.10 13.10 -3.35 16.60 -6.55 1.45 -1.30 1.60 -1.60 1 -2.30 -0.60 -0.70 -0.35 -0.75 2.10 -0.45 1.95 0.25 3.40 0.10 4.95 -0.45 1.20 -0.40 2.95 -0.75 3.85 -0.75 1.60 0 1.70 0.10 1.70 1.70 0 1 -0.30 1.80 -0.70 1.95 -0.40 0.15 -0.90 1.25 -1.15 2.40 -0.40 1.90 -0.65 2.20 -3.65 3.75 -1.80 0.90 -6.40 2.75 -10.25 4 -3.85 1.30 -8.80 3.10 -11 4.05 -2.20 0.90 -4.25 1.65 -4.55 1.65 -0.35 0 -0.70 0.20 -0.80 0.40 -0.30 0.80 -6.45 3.15 -8.90 3.45 l-2.55 0.30 0.15 -1.95z"/>
  <path d="M565.50 666.05 c0 -0.25 0.35 -0.55 0.75 -0.75 0.40 -0.15 0.75 -0.55 0.75 -0.85 0 -0.80 7.45 -9.30 12.35 -14.10 l4 -3.95 0.30 -10.05 c0.35 -10.40 1.15 -18.20 2.80 -26.70 0.55 -2.70 1.10 -7.50 1.30 -10.65 0.15 -3.15 0.75 -10 1.30 -15.25 1.10 -10.95 1.95 -24.30 1.95 -31.45 0 -3.95 -0.15 -5.15 -0.85 -5.90 -0.75 -0.85 -0.70 -0.90 1.80 -0.90 2.20 0 2.65 0.15 3 1.15 1.40 3.65 2.80 28.45 2.75 48.35 0 11.25 -0.05 11.65 -4.05 28.15 -1.65 6.90 -2.10 9.60 -1.70 10 1.55 1.55 -1.10 14.25 -3.65 17.60 -2.05 2.65 -9.90 9.40 -14.95 12.80 -3.25 2.15 -4.85 2.95 -6.15 2.95 -0.95 0 -1.70 -0.20 -1.70 -0.45z"/>
  <path d="M334 632.75 c0 -0.40 -0.20 -0.75 -0.45 -0.75 -0.65 0 -2.85 -5.20 -4.25 -10.15 -1.50 -5.10 -3.10 -14.30 -3.60 -20.20 -0.30 -3.60 -0.25 -4.15 0.45 -4.15 0.55 0 0.90 0.60 1.10 1.90 0.20 1 0.50 2.45 0.75 3.20 0.30 0.90 0.25 1.40 -0.15 1.55 -0.40 0.15 -0.20 0.55 0.50 1.15 0.75 0.70 1.75 3.55 3.70 10.70 1.45 5.35 2.70 10.90 2.85 12.25 0.15 1.40 0.65 3.10 1.20 3.90 l0.95 1.35 -1.50 0 c-1.05 0 -1.55 -0.25 -1.55 -0.75z"/>
  <path d="M366.05 461.65 c0 -1.50 2.75 -3.15 6.25 -3.90 3.60 -0.75 5.45 -2 4.90 -3.40 -0.15 -0.45 -0.50 -0.85 -0.75 -0.85 -0.25 0 -0.45 -0.85 -0.45 -1.95 l0 -1.95 4.15 -1.30 c2.25 -0.70 9.85 -2.65 16.85 -4.25 7 -1.65 14.55 -3.45 16.70 -4 3.20 -0.85 5.50 -1.05 11.50 -1.05 8.80 0 12.95 0.40 26.45 2.60 8.55 1.40 9.85 1.75 9.85 2.50 0 0.75 -0.40 0.90 -1.85 0.90 -5.70 -0.05 -18.15 1.30 -31.15 3.30 -14.45 2.25 -28.40 5.40 -53.75 12.20 -8.60 2.30 -8.75 2.30 -8.70 1.15z"/>
  <path d="M493 453.45 c-5.50 -1.15 -6.35 -1.20 -5.50 -0.20 0.55 0.65 0.40 0.75 -0.85 0.75 -2.05 0 -4.15 -2.40 -4.15 -4.75 l0 -1.75 3.15 0 c2.80 0 3.50 0.25 6.85 2.25 2.05 1.25 4.05 2.25 4.40 2.25 0.30 0 0.60 0.55 0.60 1.25 0 0.70 -0.05 1.20 -0.10 1.20 -0.10 -0.05 -2.05 -0.50 -4.40 -1z"/>
  <path d="M468.50 447.35 c0 -0.35 -0.65 -0.90 -1.50 -1.20 -2.20 -0.85 -1.85 -1.65 0.75 -1.65 2.25 0 2.25 0 2.25 1.75 0 1.20 -0.25 1.75 -0.75 1.75 -0.40 0 -0.75 -0.30 -0.75 -0.65z"/>
  <path d="M232.75 860.05 c-7.20 -13.60 -8.20 -16.90 -8.65 -29.70 -0.35 -8.80 -0.35 -8.85 0.70 -8.85 0.85 0 1.40 0.75 2.55 3.40 2.10 4.70 2.80 7.35 5.10 19.50 2.10 10.95 2.60 16.60 1.40 16.60 -0.35 0 -0.85 -0.40 -1.10 -0.95z"/>
  <path d="M233.85 830.10 c-1.85 -5.90 -1.80 -6.60 0.40 -6.60 1.50 0 1.85 0.25 3 2.15 1 1.75 1.25 2.85 1.25 5.50 l0 3.35 -1.60 0 c-1.65 0 -1.65 -0.05 -3.05 -4.40z"/>
  <path d="M238.25 819.05 c-0.15 -0.30 -2.05 -4 -4.25 -8.30 -2.70 -5.30 -4 -8.35 -4 -9.50 0 -1.95 0.30 -2.15 1.35 -0.85 0.70 0.80 0.70 0.80 0.45 0 -0.20 -0.70 0 -0.90 0.85 -0.90 0.90 0 1.80 1.40 5.50 8.50 2.65 5.20 4.35 9.05 4.35 10 0 1.40 -0.10 1.50 -1.95 1.50 -1.10 0 -2.10 -0.20 -2.30 -0.45z"/>
  <path d="M741.05 759.90 c-1.95 -8.80 -2.30 -9.40 -5.25 -9.40 l-1.30 0 0.05 -9.35 c0.05 -5.20 0.20 -10.05 0.40 -10.90 0.35 -1.75 1.60 -2.20 2.30 -0.85 0.30 0.55 1.20 2.30 2.05 3.90 4.05 7.55 6.05 19.45 4.90 29.10 -0.25 2 -0.55 2.60 -1.20 2.60 -0.65 0 -1.10 -1.05 -1.95 -5.10z"/>
  <path d="M694.65 476.50 c-0.15 -0.85 -0.50 -1.65 -0.70 -1.80 -0.25 -0.15 -0.45 -0.60 -0.45 -1 0 -0.40 -0.25 -1 -0.55 -1.35 -0.65 -0.80 -8.55 -15.20 -10.45 -19.10 -1.65 -3.35 -5 -14.70 -5 -16.85 0 -1.95 0.90 -1.75 1.80 0.35 0.40 1 1.15 2.20 1.70 2.75 1.35 1.35 4.90 9 7.70 16.50 1.30 3.45 2.75 7.15 3.25 8.25 0.50 1.10 1.30 3.25 1.85 4.75 0.50 1.50 1.25 3.15 1.65 3.65 0.40 0.45 0.55 0.85 0.30 0.85 -0.20 0 -0.05 0.50 0.35 1.15 0.40 0.60 0.85 1.60 1 2.25 0.25 0.90 0.10 1.10 -0.90 1.10 -0.95 0 -1.30 -0.35 -1.55 -1.50z"/>
  <path d="M173.50 475.90 c0 -0.90 0.95 -4.05 2.05 -7 2.10 -5.40 2.10 -5.40 3.75 -5.40 1.65 0 1.70 0.10 1.70 1.90 0 1 -0.90 4.15 -2.05 7 -2.05 5.05 -2.05 5.10 -3.75 5.10 -1.60 0 -1.70 -0.10 -1.70 -1.60z"/>
  <path d="M173 449.60 c0 -1.75 2 -9.85 2.70 -11.05 0.65 -1 1.95 -0.65 1.65 0.45 -0.45 1.65 -0.05 1.15 1.95 -2.35 4.55 -8.25 13.30 -19.40 20.50 -26.15 4.45 -4.20 11.95 -10.50 12.45 -10.50 0.25 0 0.85 -0.35 1.35 -0.85 0.85 -0.75 0.90 -0.70 0.90 0.85 0 1 -0.50 2.30 -1.40 3.45 -0.80 1 -2.60 3.50 -4 5.60 -1.70 2.55 -3.05 4 -4.10 4.45 -0.95 0.40 -2.05 1.50 -2.90 2.95 -0.75 1.25 -3.25 4.90 -5.60 8.05 -6.20 8.30 -9.45 13.10 -12.80 18.70 -2.05 3.40 -3.50 5.30 -4.80 6.10 -1 0.65 -1.95 1.40 -2.15 1.70 -0.15 0.25 -1.10 0.50 -2.05 0.50 -1.65 0 -1.70 -0.05 -1.70 -1.90z"/>
  <path d="M666.05 425.55 c-2.65 -4.60 -4.05 -7.50 -4.05 -8.50 0 -0.85 0.25 -1.55 0.50 -1.55 0.30 0 0.50 0.20 0.50 0.45 0 0.25 1.25 1.75 2.75 3.30 1.60 1.60 2.75 2.45 2.75 2 0 -0.40 0.45 -0.75 1 -0.75 0.55 0 1 0.25 1 0.50 0 0.30 0.55 1 1.25 1.60 1.45 1.25 1.60 2.25 0.45 2.50 -0.60 0.10 -0.35 0.70 1.10 2.65 1.10 1.40 2.50 3 3.20 3.60 l1.25 1.10 -3.80 0.05 -3.85 0 -4.05 -6.95z"/>
 </g>
 <g fill="#000000">
  <path d="M342.40 1113.65 c-0.30 -0.70 -5.60 -2.65 -7.10 -2.65 -2.25 0 -9.15 -3.60 -12.85 -6.65 -4.25 -3.50 -7.65 -8.10 -10.90 -14.70 -1.45 -2.90 -3.55 -6.40 -4.65 -7.85 -4.60 -5.75 -7.50 -16.10 -9.85 -34.55 -2 -15.95 -2.20 -19.70 -1.50 -31.75 1.55 -28.25 1.25 -34.10 -2.50 -53.65 -1.10 -5.55 -2.20 -12.25 -2.50 -14.85 -1.75 -14.75 -3.90 -22.80 -9.50 -35.70 -2.45 -5.55 -4.70 -10.90 -5.10 -11.90 -0.80 -2.35 -1.45 -2.45 -1.45 -0.30 0 1.60 -2.85 23.65 -4.20 32.85 -0.80 5.25 -1.65 6.60 -4.20 6.65 -1.80 0.05 -1.50 -1.25 -3.40 14.15 -1.80 14.85 -1.90 15 -5.85 15.50 -0.85 0.10 -2.40 0.40 -3.35 0.65 -3.15 0.80 -5.50 -1 -5.50 -4.25 0 -5.85 -8.15 -34.70 -10.55 -37.25 -1.50 -1.60 -3.75 -7.90 -4.40 -12.40 -1.45 -9.55 -1.75 -32.90 -0.60 -48.25 l0.70 -9.50 -2.15 -11.25 c-1.15 -6.20 -2.65 -12.80 -3.30 -14.75 -1.05 -3.35 -8.45 -19.30 -14.40 -31.10 -2.60 -5.20 -5.60 -12.20 -15.35 -35.85 -2.05 -4.90 -5.35 -12 -7.35 -15.75 -9.10 -16.90 -17.10 -34.50 -20.50 -45.05 -2.40 -7.45 -11.90 -40.80 -14.05 -49.25 -3.40 -13.50 -6.65 -33.70 -7.50 -46.50 -0.50 -7.35 -0.60 -7.65 -3.05 -13.70 -1.35 -3.45 -2.50 -6.65 -2.50 -7.20 0 -1.55 2.80 -3.95 4.35 -3.75 1.30 0.15 1.40 0 1.80 -2.60 0.25 -1.90 0.15 -4.25 -0.40 -7.50 -0.95 -5.70 -1.60 -6.45 -6.85 -8.05 -7.60 -2.25 -16.05 -7.45 -29.70 -18.25 -2.45 -1.95 -5.15 -3.95 -6 -4.50 -0.85 -0.50 -2.80 -1.90 -4.25 -3.05 -1.50 -1.15 -4.65 -3.55 -7.05 -5.35 -3.95 -2.90 -4.55 -3.20 -6.25 -2.95 -1.70 0.20 -2.25 0 -4.50 -1.75 -3.20 -2.55 -7.40 -7.95 -14.60 -18.75 -10.60 -15.90 -13.75 -21.45 -18.95 -33.35 -1.35 -3.15 -3.20 -7.30 -4.10 -9.25 -4.90 -10.55 -8.25 -18.55 -10 -23.70 -5.50 -16.30 -6.80 -38.90 -2.50 -42.80 0.95 -0.85 2.95 -1.20 4.45 -0.70 0.55 0.15 0.85 -0.80 1.35 -4.05 1.40 -9.80 4.90 -23.20 6.40 -24.45 0.35 -0.30 0.80 -1.90 0.95 -3.60 0.35 -3.80 3.15 -9.80 6.90 -14.80 4.15 -5.50 12.20 -13.90 23.45 -24.50 9.35 -8.80 10.40 -9.65 12 -9.65 1 0 2.05 0.25 2.40 0.60 0.45 0.45 1.25 0 3.50 -1.95 4 -3.50 8.10 -6.30 16.85 -11.40 4.15 -2.45 10.05 -6.05 13.10 -8.10 3.10 -2.05 6.30 -3.95 7.15 -4.20 1.95 -0.70 3.90 -0.20 5.65 1.45 0.85 0.80 2.05 1.35 3 1.40 2.35 0.15 4.05 2.30 3.65 4.75 -0.25 1.55 -0.15 1.95 0.65 2.20 0.50 0.15 1.20 0.95 1.55 1.75 0.55 1.30 0.45 1.85 -0.55 4.30 -1 2.30 -1.85 3.30 -5.35 6.05 -3.65 2.85 -4.15 3.45 -3.95 4.55 0.40 2.05 -0.40 3.40 -3.40 5.65 -3 2.25 -4.50 4.85 -7.75 13.60 -1.45 3.85 -1.60 4.60 -1.10 6.15 0.65 2.10 0.40 2.90 -1.40 5 -1.85 2.10 -2.35 5.40 -1.15 7.55 1.10 2.05 0.50 4 -1.65 5.40 -1.55 0.95 -1.60 1.15 -1.90 5.75 -0.20 2.60 -0.35 12.65 -0.35 22.25 -0.05 16.60 0.05 17.90 1.25 25.15 1.15 6.80 1.25 7.80 0.60 9.30 -0.70 1.65 -0.60 1.85 1.65 6.60 3.05 6.30 9.90 18.65 11.05 19.95 0.50 0.55 1.95 2.60 3.25 4.50 5.25 7.75 14.15 17.95 18.40 21.10 1.65 1.15 3.15 2.15 3.35 2.15 0.25 0 1.25 -2.55 2.30 -5.65 1 -3.05 2.25 -6.55 2.75 -7.70 0.50 -1.10 1.35 -5.50 1.95 -9.70 1.75 -12.55 4.05 -20.95 8.60 -31.45 3.30 -7.50 4.80 -8.95 8.10 -7.45 1.90 0.90 2.60 3.10 1.65 5.35 -4.65 11.20 -6.15 15.05 -7.40 19.55 -1.75 6.25 -1.75 6.50 -0.30 5.25 0.60 -0.55 1.65 -1.35 2.35 -1.80 0.70 -0.40 2.60 -3 4.20 -5.70 3.35 -5.60 6.60 -10.40 12.80 -18.70 2.35 -3.15 4.85 -6.80 5.60 -8.05 0.85 -1.45 1.95 -2.55 2.90 -2.95 1.10 -0.45 2.50 -2.05 4.60 -5.15 4.35 -6.45 14.35 -18.75 20.15 -24.80 5.55 -5.75 12.30 -11.35 18.80 -15.65 6.90 -4.55 26.15 -15.95 34 -20.15 7.90 -4.25 8.45 -4.60 7.70 -5.15 -0.30 -0.20 -0.90 -0.90 -1.30 -1.60 -0.60 -0.90 -1.60 -1.45 -3.45 -1.85 -2.80 -0.65 -6.50 -3.05 -8.15 -5.30 -2.35 -3.05 -0.70 -6.85 2.95 -6.85 1.30 0 1.95 0.35 2.95 1.70 1.10 1.40 5.05 3.70 5.50 3.20 0.10 -0.10 -0.20 -2.25 -0.65 -4.85 l-0.75 -4.70 -1 1.35 c-1.25 1.75 -4.20 1.85 -5.75 0.15 -1.85 -1.95 -2.45 -14.20 -2.05 -42.10 0.30 -21.25 0.45 -24.55 1.65 -34.25 1.10 -8.75 1.45 -14.20 1.80 -29.50 0.55 -21.75 1.30 -31.60 3.30 -41.65 0.40 -2.10 0.60 -4.35 0.40 -4.95 -0.65 -2.05 -0.30 -4 0.95 -5.35 0.75 -0.80 2.30 -4.65 4.20 -10.55 4.10 -12.40 3.85 -11.50 2.95 -11.50 -0.45 0 -0.80 -0.05 -0.80 -0.15 0 -0.10 2.80 -8.60 6.20 -18.90 5.35 -16.20 7.50 -22.35 9.30 -26.70 3.05 -7.35 5.70 -16.70 8.75 -30.95 1 -4.65 2.60 -11.05 3.60 -14.25 1 -3.20 2.60 -8.85 3.60 -12.55 1.50 -5.50 2.05 -6.85 2.95 -7.25 0.70 -0.30 1.40 -1.40 1.90 -2.85 0.85 -2.55 2.25 -3.90 4 -3.90 1.35 0 4.95 2.85 5.75 4.55 0.35 0.70 1.25 1.65 2 2.05 0.80 0.50 1.50 1.40 1.70 2.40 0.25 1.20 1 2 3 3.30 1.50 0.95 2.85 1.70 3 1.70 0.15 0 0.25 -0.80 0.25 -1.80 0 -1.40 0.20 -1.75 0.90 -1.65 0.45 0.10 1.60 -0.25 2.50 -0.75 2.05 -1.05 4.20 -0.70 5.25 0.85 0.40 0.60 0.85 2.75 1.05 4.70 0.40 4.20 2.75 10.60 5.70 15.55 3.25 5.55 4.45 8.15 7.40 16.40 3.95 11.20 10.40 24.40 11.70 24.05 1.85 -0.45 8.40 8.05 8.85 11.50 0.15 1.30 1.10 3 3 5.40 12.75 16.35 19 25.45 26.75 38.85 2.50 4.30 4.70 7.75 4.90 7.65 0.90 -0.55 3.75 3.70 7.20 10.60 3.60 7.20 3.90 7.65 5.25 7.65 2 0 3.75 1.60 4.50 4.10 2.70 9.35 6.70 20.35 10.10 27.50 2.15 4.55 3.95 8.60 3.95 8.90 0 0.35 0.30 1.30 0.70 2.15 0.60 1.40 1.15 3.15 1.60 5.15 0.05 0.30 0.45 1.90 0.95 3.45 0.45 1.60 0.70 3.30 0.60 3.85 -0.15 0.50 -0.05 0.80 0.15 0.65 0.25 -0.15 0.60 0.55 0.75 1.60 0.20 1.05 1.45 5.95 2.80 10.90 1.35 4.95 3.30 12.95 4.25 17.75 1 4.80 1.90 8.85 2 8.95 0.10 0.10 0.50 -0.20 0.95 -0.65 2.45 -2.45 7.10 -0.35 8.70 3.85 2.95 7.75 -4.70 20.20 -17.65 28.70 -6.40 4.20 -6.30 4.10 -3.70 3.60 1.20 -0.20 4.40 -0.55 7.15 -0.75 2.75 -0.20 5.65 -0.65 6.45 -1.05 1.25 -0.65 1.75 -0.65 4 0 1.85 0.55 5.95 0.85 14.80 1.05 19.70 0.40 35.40 3.10 56.95 9.75 l8.20 2.55 1.70 -1.50 c2.90 -2.55 5.05 -1.95 14.70 4.10 7.35 4.60 8.20 5 12.95 6.15 5.75 1.40 11.20 3.35 12.40 4.40 0.70 0.65 1.10 1.60 1.10 2.60 0 1.55 0.10 1.60 9.65 5.95 10 4.55 16.20 8 20.85 11.55 3.75 2.90 8.70 7.80 10.30 10.25 1.25 1.90 2.20 2.55 2.20 1.55 0 -0.30 3.70 -5.95 8.15 -12.65 4.50 -6.70 9.20 -14.20 10.40 -16.65 l2.20 -4.40 0.15 -10.05 c0.15 -10.50 -0.20 -13.40 -2 -15.75 -1.05 -1.35 -1.20 -3.50 -0.25 -4.65 0.30 -0.45 1.40 -1.25 2.35 -1.80 l1.75 -0.95 0 -5.95 c-0.05 -4.50 -0.30 -6.85 -1.10 -9.70 -0.55 -2.05 -1.55 -7.55 -2.15 -12.25 -0.80 -6.10 -1.65 -10.15 -3 -14.50 -1.65 -5.20 -2.80 -9.20 -3.80 -13 -0.15 -0.55 -4.10 -4.70 -8.75 -9.25 -9.45 -9.25 -9.75 -9.80 -6.90 -12.60 l1.50 -1.55 -1.95 -2.05 c-3.60 -3.70 -9.60 -11.50 -9.60 -12.40 0 -0.50 -0.95 -1.40 -2.25 -2.20 -3.85 -2.25 -4.70 -4.50 -2.60 -6.95 0.85 -1 1.60 -1.35 2.95 -1.35 l1.85 0 -0.85 -1.30 c-4.85 -7.70 -9.50 -12.40 -15.80 -15.95 -2.70 -1.55 -5.35 -3.20 -5.85 -3.70 -1.25 -1.25 -1.20 -4 0.05 -5.60 0.55 -0.70 1 -1.75 1 -2.35 0 -0.55 0.60 -1.65 1.30 -2.35 1.10 -1.10 1.60 -1.25 3.50 -1 1.20 0.10 3.05 0.80 4.10 1.50 1 0.70 6.55 3.45 12.35 6.10 9 4.15 10.65 4.75 11.65 4.30 2.35 -1.10 3.60 -0.65 6.85 2.40 1.90 1.75 6.35 4.80 10.95 7.55 9.15 5.45 11.30 7.25 11.30 9.40 0 1.85 1.15 2.85 3.05 2.70 2.10 -0.15 4.05 1 8.35 5.05 2.10 2 6.45 5.90 9.60 8.70 6.45 5.70 9.30 8.55 12.75 12.90 1.90 2.35 2.75 3 3.90 3.10 2.25 0.10 3.50 1.85 5.85 7.85 4.40 11.45 10.90 34.35 10.25 36.30 -0.45 1.35 -2.65 3 -4.05 3 -2.55 0 -3.50 -1.75 -5.75 -10.50 -1.15 -4.55 -3.20 -11.70 -4.55 -15.95 -2 -6.25 -2.75 -7.95 -4.05 -9.10 -0.85 -0.80 -1.65 -1.35 -1.75 -1.25 -0.30 0.35 5.20 20.75 7.50 27.75 1.10 3.45 3.15 9.30 4.45 12.95 2.70 7.40 4.45 13.70 4.45 16.10 0 2.05 -1.95 4 -4 4 -1.75 0 -4 -1.90 -4 -3.35 0 -1.80 -1.60 -7 -5.25 -17.25 -3.15 -8.80 -6.05 -18.20 -8.25 -26.75 -0.35 -1.50 -0.80 -2.15 -1.40 -2.15 -1.70 0 -3 -1.45 -3.60 -4.10 -1.80 -7.60 -11.95 -24.60 -20.20 -33.65 -2.95 -3.30 -3.55 -3.70 -6.40 -4.45 -3.15 -0.85 -17 -3.25 -17.30 -3 -0.10 0.05 0.15 0.75 0.55 1.55 0.40 0.75 1.35 3.55 2.10 6.15 0.80 2.80 2.05 5.80 3.05 7.25 0.90 1.40 1.95 3.30 2.25 4.25 0.35 0.95 0.95 2.15 1.35 2.65 0.45 0.50 0.95 2.30 1.15 4 0.50 3.85 2.95 9.85 4.95 12.15 0.80 0.95 1.50 2 1.50 2.35 0 0.35 0.80 1.40 1.85 2.35 1 0.95 2.20 2.65 2.70 3.75 1.30 3 4.95 23.55 5.50 31.25 0.50 7.15 -0.15 32.55 -1.05 40.50 -0.30 2.35 -1.35 6.90 -2.45 10.25 -1.10 3.30 -2.30 8.05 -2.75 10.60 -1.40 8.10 -4.05 13.40 -8.05 16.25 -1.60 1.15 -2.75 2.50 -3.75 4.60 -0.95 1.85 -3.90 5.65 -7.75 9.95 -3.45 3.80 -6.25 7.30 -6.25 7.70 0 1.40 10 20.50 18.70 35.70 l8.70 15.20 2.30 0 c3.40 0 4 0.85 6.55 9.85 2.70 9.60 2.75 9.70 7.80 18.75 7.50 13.40 13.80 27.75 17.65 40.20 2.15 6.95 2.20 8.10 0.50 9.70 l-1.30 1.25 4.85 12.10 c2.65 6.70 4.95 12.30 5.10 12.55 0.10 0.20 0.70 0 1.30 -0.40 1.55 -1.10 3.70 -0.95 5.05 0.40 1.10 1.10 1.15 1.55 1.45 11.65 0.25 9.25 0.50 11.25 1.85 17.20 0.85 3.70 2.10 9.80 2.75 13.50 0.65 3.70 1.85 9.70 2.65 13.25 0.85 3.60 2.10 9.90 2.80 14 1.90 10.70 5.20 28.45 6.65 35.75 1.15 5.70 1.30 7.70 1.50 23.25 0.20 14.50 0.15 17.45 -0.55 20.05 -1.05 4 -1.05 4 0.65 4.70 3 1.20 3.05 2.70 0.70 17 -0.70 4.25 -1.35 8.65 -1.40 9.75 -0.10 1.10 -1 5.15 -2 9 -1.80 6.55 -1.90 7.55 -2.10 15.95 -0.15 5.80 -0.10 8.80 0.25 8.60 0.75 -0.45 3.55 0.70 4.05 1.65 0.25 0.45 1.10 3.50 1.80 6.80 1.50 6.65 1.85 7.65 6.80 18.90 4.20 9.60 8.15 21.05 7.75 22.65 -0.15 0.60 -0.65 1.50 -1.10 1.90 -0.65 0.70 -0.70 1.20 -0.25 3.20 2.90 12.80 4.65 28.50 3.55 31.80 -0.40 1.30 -0.40 3.55 0 8.90 0.30 3.95 0.75 13.90 1 22.15 0.40 13.75 0.60 15.55 1.95 21.75 3.95 18.15 4.55 21.20 4.55 23.55 0 1.40 -0.25 3 -0.55 3.60 -0.75 1.45 -2.50 2.80 -3.55 2.85 -0.45 0 -1.50 0.70 -2.35 1.60 -1.85 2 -4.65 2.25 -6.05 0.50 -0.80 -0.95 -1.10 -1 -2.40 -0.55 -1.20 0.40 -1.85 0.35 -3.05 -0.25 -2.05 -1.10 -2.75 -3.75 -2.65 -9.90 0.15 -7.20 -0.85 -11.80 -4.20 -19.45 -1.60 -3.70 -3.45 -7.70 -4.10 -8.95 -2 -3.70 -7.30 -11.05 -11.85 -16.60 -5.55 -6.70 -7.05 -9.70 -8.40 -17.30 -0.65 -3.35 -1.25 -6.15 -1.40 -6.35 -0.15 -0.15 -0.80 1.25 -1.40 3.10 -1.05 3.35 -1.50 5.50 -4.50 21.40 l-1.55 8 -0.10 40.50 c-0.10 31.85 0 41.50 0.50 45.25 0.75 5.25 2.60 14.05 3.95 18.85 1 3.70 0.60 5.55 -1.55 6.60 -1.35 0.65 -1.40 0.80 -1.10 3 0.35 2.90 1.10 7.40 1.80 11.30 1.75 9.55 2.30 17.35 2.15 30.40 -0.20 16.10 -1.35 21 -8.05 33.35 -0.50 0.95 -1.40 2.65 -2 3.75 -5 9.50 -5.90 10.50 -11.15 12.40 -6.20 2.25 -11.90 3.50 -14.65 3.15 -1.65 -0.20 -3.75 0.05 -6.30 0.70 -4.05 1.05 -13.40 2.25 -13.85 1.80 -0.15 -0.15 -1.10 0.40 -2.05 1.25 l-1.70 1.50 -16.10 -0.15 -16.05 -0.15 -3 -1.45 c-1.65 -0.75 -4.40 -1.80 -6.10 -2.35 -1.70 -0.55 -4.75 -2.10 -6.80 -3.45 -2.45 -1.65 -4 -2.35 -4.70 -2.20 -2 0.55 -5 -0.75 -6.90 -2.95 -2 -2.35 -8.10 -14.35 -9.70 -19.20 -1.30 -3.85 -2.70 -12.15 -2.60 -15.30 l0.05 -2.40 -1.55 0.85 c-1.65 0.85 -3.45 0.65 -4.60 -0.50 -0.40 -0.40 -1.30 -2.60 -2 -4.90 -0.70 -2.30 -2.30 -6.70 -3.55 -9.80 -2.45 -6.25 -5.85 -11.15 -13.35 -19.35 -2.80 -3.10 -4.15 -5 -4.60 -6.60 -0.60 -2 -1 -2.45 -4.30 -4.40 -4.15 -2.45 -2.20 -2.35 -16.80 -1.20 -16.85 1.25 -32.05 4.80 -41.85 9.75 -3.10 1.60 -4.20 1.50 -5.95 -0.35 l-1.45 -1.60 -2.40 0.90 c-1.30 0.50 -4.10 1.75 -6.20 2.80 -2.15 1.10 -4.50 1.95 -5.25 1.95 -2.50 0 -7.15 3.55 -8.75 6.75 l-1.05 2 1.55 -1.60 c1.45 -1.60 2.20 -1.85 4.35 -1.70 1.35 0.15 3.25 2.30 3.25 3.75 0 0.60 -1.35 2.90 -3.05 5.05 -1.70 2.20 -3.25 4.35 -3.50 4.80 -1 1.85 -1.50 8.20 -1.95 23.50 -0.50 17.25 -1 23.40 -2.55 29.45 -1.45 5.55 -2.70 7.80 -5.90 10.30 -2.75 2.20 -14.95 8.50 -20.80 10.70 -1.65 0.65 -3.45 1.55 -4 2.05 -2.10 1.85 -8.20 3.95 -19.15 6.50 -10.75 2.50 -13.05 2.95 -18 3.45 -4.95 0.55 -11.60 2.30 -11.60 3.05 0 0.55 -34.85 0.60 -35.10 0.10z m15.50 -11.15 c1.80 -1.80 2.50 -1.85 5.20 -0.45 1.90 1 2.40 1 5.50 0.50 1.85 -0.30 4.55 -1 6 -1.60 4.80 -1.90 15.60 -5.45 19.40 -6.45 2.05 -0.50 7.70 -1.65 12.50 -2.50 11.10 -1.95 13.85 -2.70 15.25 -4 0.65 -0.60 2.50 -1.35 4.40 -1.75 1.80 -0.35 4.15 -1.15 5.25 -1.70 l2 -1 2.40 -9.70 2.40 -9.70 -1.10 -3.70 c-1.60 -5.55 -2.10 -10.55 -2.10 -20.95 l0 -9.45 1.45 -1.10 c1.40 -1 1.45 -1.30 1.75 -6.15 0.40 -5.55 1.05 -9.35 2.15 -11.40 0.35 -0.75 2.20 -2.90 4.05 -4.75 1.85 -1.90 4 -4.45 4.75 -5.70 2.35 -4.10 5 -5.70 7.30 -4.45 0.75 0.35 1.80 -0.05 4.85 -1.75 4.80 -2.75 11.85 -5.75 14.25 -6.10 1 -0.15 2.25 0 2.80 0.30 0.85 0.45 2.10 0 7.45 -2.65 12.15 -6.05 14.70 -6.55 36.70 -7.05 10 -0.25 14.50 -0.15 16.50 0.30 1.50 0.35 3.30 0.60 4 0.55 0.70 0 1.95 -0.05 2.75 -0.05 0.85 -0.05 4.15 0.10 7.40 0.30 5.10 0.35 6.05 0.55 6.65 1.40 0.60 0.80 1.50 1.05 4.95 1.30 3.10 0.20 4.45 0.50 5.25 1.20 1.35 1.25 1.35 4.40 0 5.75 -1.05 1.05 -1.40 1.15 -5.10 1 -2.10 -0.05 -2.30 0 -2.05 0.95 0.20 0.85 0.65 1.05 2.35 1.05 2.60 0 4.05 1 4.80 3.20 0.40 1.30 0.90 1.80 2 2.05 3.55 0.80 10.85 12.25 15.45 24.25 3.35 8.65 4.40 9.80 17.35 19.80 6.50 5 9 7.70 10.55 11.45 0.65 1.70 1.25 2.30 2.25 2.55 1.65 0.35 3.40 2.40 3.40 3.90 0 1.40 -1.35 3.25 -2.65 3.75 -0.90 0.35 -0.60 0.55 1.75 1.25 1.55 0.45 3.20 0.80 3.65 0.80 0.50 0 2.40 0.40 4.20 0.95 7.95 2.20 12.75 2.85 24.55 3.35 12.40 0.45 22.60 -1 26.15 -3.80 1.85 -1.45 4.50 -1.35 5.80 0.30 0.60 0.75 1.05 1.65 1.05 2 0 0.95 0.05 0.95 3.95 -1.05 2.95 -1.45 3.70 -2.10 5 -4.35 0.90 -1.65 1.70 -4 2.05 -6.15 1.45 -9.20 3.40 -16.10 5.30 -18.80 l1.35 -2 -0.65 -7.60 c-0.35 -4.20 -0.80 -15.70 -1 -25.60 -0.25 -10.65 -0.65 -18.75 -0.95 -19.85 -0.60 -1.80 -0.75 -6.10 -0.65 -14.80 0.05 -3.70 -0.30 -6.10 -1.65 -11.75 -3.50 -14.70 -4.85 -25.05 -5.80 -45.10 -0.75 -16.40 -0.40 -40.55 0.70 -43.90 0.75 -2.35 0.75 -2.40 -0.45 -3.60 -1.50 -1.50 -1.50 -3.05 -0.20 -8.20 0.55 -2.15 1.20 -5.55 1.50 -7.55 0.50 -3.50 1.25 -5.60 3.50 -9.55 0.95 -1.70 4.25 -18.30 5.25 -26.45 0.45 -3.85 1.20 -5.95 2.25 -6.50 1.55 -0.80 3.65 -0.55 5.75 0.75 1.10 0.70 2.60 1.25 3.35 1.25 0.90 0 1.75 0.55 2.60 1.65 1.75 2.15 1.90 2.30 3.30 4.35 0.65 0.95 2.05 2.65 3.10 3.75 1.05 1.10 2.15 2.75 2.45 3.65 0.30 0.95 1.90 3.90 3.50 6.65 6.30 10.60 10.50 20.05 14.95 33.75 3.55 10.90 4.10 14.20 2.70 15.75 -0.90 1 -0.85 1.10 1.05 4.85 1.10 2.10 2.50 5.10 3.15 6.60 l1.15 2.75 -0.35 -2.75 c-0.40 -3.45 -2.35 -13.20 -5.90 -29.25 -5.25 -23.90 -8.80 -46.20 -9.65 -60.80 -0.30 -5.30 -0.30 -5.35 1.05 -6.70 1.10 -1.10 1.70 -1.30 3.35 -1.15 l1.95 0.20 -0.30 -1.80 c-0.20 -0.95 -0.55 -2.15 -0.75 -2.60 -0.25 -0.45 -0.45 -1.25 -0.45 -1.70 0 -0.50 -0.35 -1.25 -0.80 -1.75 -0.45 -0.50 -1 -2.20 -1.20 -3.80 -1.45 -9.70 -2.35 -12.10 -8.90 -23.05 l-2.75 -4.60 0.35 -4.55 c0.30 -4.10 0.25 -4.60 -0.70 -5.85 -0.95 -1.15 -1.05 -1.75 -0.75 -4.35 0.20 -1.65 0.55 -3.80 0.80 -4.75 0.30 -0.95 0.70 -3 0.90 -4.60 0.35 -2.70 0.30 -2.80 -0.70 -2.40 -1.55 0.60 -3.65 0.05 -4.50 -1.15 -0.95 -1.35 -0.90 -3.35 0.05 -9.10 0.45 -2.75 0.85 -9.65 1.05 -17.80 0.25 -12.85 0.25 -13.35 -0.75 -14.75 -0.90 -1.30 -1.05 -2.50 -1.30 -12.20 -0.30 -11.20 -1.25 -26.15 -2.65 -43.25 -1.10 -13.55 -1.10 -14.45 0 -15.65 0.85 -0.95 0.90 -1.50 0.40 -8.70 -1.35 -18.45 -2.30 -26.25 -3.85 -30.65 -0.70 -1.90 -2.90 -8.90 -4.95 -15.50 -2.05 -6.60 -3.70 -11.75 -3.70 -11.50 -0.05 0.30 0.30 2.55 0.70 5 1.40 8.60 0.80 10.75 -3.15 10.75 -3.20 0 -3.50 -0.75 -5.15 -11.60 -2.25 -14.60 -3.80 -21.70 -9.75 -44.15 -3.10 -11.60 -3.90 -14.10 -5.80 -18.35 -3.35 -7.55 -10.20 -21.05 -16.30 -32.15 -7.70 -14.10 -11.15 -21.70 -10.75 -23.95 0.15 -1.10 -0.10 -2.15 -0.85 -3.45 -0.60 -1 -1.15 -1.85 -1.25 -1.85 -0.05 0 0.10 1.05 0.30 2.40 1.50 8.10 3.10 18.55 3.10 19.80 0 1.75 -2.10 3.80 -3.85 3.80 -0.65 0 -1.75 -0.45 -2.45 -1 -1.45 -1.15 -1.80 -2.55 -3.65 -14.25 -3.10 -19.85 -7.40 -31.60 -16.20 -44.10 l-4.65 -6.65 -1.85 0.30 c-1.55 0.25 -2.45 -0.05 -5.80 -1.95 -2.15 -1.20 -6.30 -3.55 -9.20 -5.15 -6.80 -3.75 -14.90 -9.20 -27.25 -18.45 -5.50 -4.10 -12.15 -9 -14.75 -10.95 -2.60 -1.95 -7 -5.50 -9.80 -7.85 -4.35 -3.75 -5.75 -5.35 -8.45 -9.65 -0.40 -0.60 -3.50 -1.20 -13 -2.55 -13.40 -1.95 -28.20 -4.55 -35.50 -6.25 -5.10 -1.20 -11.25 -1.35 -24.25 -0.50 -19.75 1.30 -50.25 4.80 -53.55 6.20 -1.10 0.45 -2.50 0.65 -3.80 0.45 -1.15 -0.15 -3.60 0 -5.40 0.35 l-3.30 0.65 1.50 1.30 c0.90 0.75 1.70 2 1.85 2.90 0.25 1.35 0.05 1.85 -1.20 3.15 -1.80 1.80 -3.45 1.90 -5.40 0.35 -1.25 -1 -2 -1.10 -6.70 -1.10 -2.90 0 -6.90 0.20 -8.90 0.45 -3.50 0.45 -3.70 0.40 -5 -0.80 l-1.35 -1.25 -5 1.45 c-38.20 11.05 -68.75 20.70 -77.35 24.40 -4.95 2.10 -11.05 5.80 -12.90 7.70 -0.85 0.95 -1.20 1.95 -1.25 3.40 -0.10 4.05 -4.40 5.35 -7.55 2.20 -1.80 -1.80 -2.20 -3.90 -1.15 -5.95 l0.60 -1.05 -1.45 0.90 c-0.80 0.55 -3.30 2.20 -5.55 3.75 -3.90 2.70 -4.05 2.85 -4 4.65 0.10 2.65 -1.05 3.55 -6.70 5.35 -4.55 1.45 -5.40 1.95 -10.35 5.90 -8.80 7.10 -18.40 15.55 -21.15 18.55 -3 3.35 -4.80 6.70 -5.25 9.70 -0.45 2.90 -1.85 4.40 -4.25 4.40 -3.60 0 -4.75 -3.10 -3.15 -8.45 0.40 -1.45 0.65 -2.75 0.55 -2.85 -0.35 -0.35 -8.65 9 -9.50 10.65 -0.40 0.75 -1.10 2.65 -1.60 4.15 -1.20 3.70 -3.15 7.60 -7.50 14.75 -4.70 7.80 -8.35 14.85 -9.45 18.45 -0.50 1.55 -1.25 3.15 -1.65 3.60 -1.05 1 -9.15 21.40 -12.15 30.45 -6.20 18.90 -6.60 20.65 -7.50 35 -0.70 11.20 -2.25 25.05 -3.85 35.25 -0.75 4.55 -1.35 10.20 -1.40 12.65 -0.10 3.25 -0.30 4.60 -0.95 5.25 -1 1.15 -1 3.75 -0.05 14.85 1.25 14.20 1.60 16.30 3.20 17.85 1.05 1 1.60 2.35 2.25 5.50 0.50 2.30 1.30 4.85 1.80 5.65 0.50 0.85 1.40 3.55 2 6 1.55 6.50 8.70 27.70 10.30 30.55 2.10 3.80 4.55 7.55 5.20 7.95 1.20 0.75 1.50 2.75 0.70 4.65 -0.50 1.25 -0.60 2.15 -0.30 2.85 0.25 0.55 1.20 2.90 2.10 5.25 4.85 12.60 9.60 23 13.20 28.90 2.25 3.70 2.30 5.20 0.25 7.20 l-1.50 1.55 2.75 6.30 c2.55 5.85 6.30 15.30 9.50 23.85 1.05 2.80 1.85 4.05 3.80 5.80 1.95 1.75 2.50 2.60 2.50 3.80 0 3.45 0.95 5.55 17 37.85 10.35 20.85 10.50 21.30 7.90 23.75 -1.50 1.40 -1.50 2.30 -0.10 4.40 0.95 1.35 1.20 2.25 1 3.35 -0.15 0.80 -0.50 5.45 -0.80 10.25 -0.65 11 -1.95 27.55 -2.30 28.45 -0.40 1.25 -0.95 19.55 -0.85 28.80 0.15 11.70 2.35 26.65 4.95 33.30 1.35 3.45 1.45 3.20 1.10 -1.70 -0.55 -7.70 -0.45 -25.10 0.15 -27.95 0.80 -3.70 2.60 -7.10 5.20 -9.65 1.90 -1.95 2.30 -2.75 3.40 -7.05 1.15 -4.40 1.20 -4.95 0.55 -6.80 -1.05 -2.95 -0.90 -6.20 0.30 -7.40 1.25 -1.25 3.15 -1.70 4.40 -1.05 0.75 0.40 1.15 0.30 1.85 -0.45 1.25 -1.40 3.55 -1.75 5 -0.80 0.70 0.45 2.60 2.90 4.30 5.45 1.70 2.50 3.15 4.65 3.20 4.75 0.05 0.05 0.70 -0.10 1.45 -0.35 1.65 -0.65 3.50 0 4.50 1.55 0.40 0.65 1.35 3.65 2.10 6.65 1.75 7.05 2.50 9.15 6.65 18.35 0.60 1.35 1.30 2.95 1.55 3.65 0.35 0.85 0.85 1.25 1.70 1.25 2.40 0 3.30 1.40 4.55 7.30 1.60 7.65 3.65 15.05 4.75 17.20 1.10 2.10 3.65 13.15 5.50 23.50 0.30 1.80 0.65 3.70 0.80 4.25 0.70 3.15 1.70 18.30 1.70 26.10 0 8 0.20 10.40 1.75 19.75 2.20 13.60 3.60 26.20 4.25 37.95 0.55 11.30 0.35 12.45 -2.45 13.50 -1.15 0.45 -1.20 0.60 -0.90 4.35 0.25 3.35 1.75 10.15 3.25 14.85 1.10 3.30 2.15 5.20 4.25 7.55 2.75 3.05 3.15 4.25 2.15 6.20 -0.75 1.50 -0.70 1.55 1.65 4.40 3.05 3.65 3.95 4.40 6.10 5.30 2.85 1.20 18.85 5.05 21.80 5.25 0.30 0.05 1.25 -0.60 2.05 -1.45z m286.60 -23.45 c0 -0.20 -1.45 -0.55 -3.20 -0.75 -3.20 -0.30 -12.50 -2.15 -17.75 -3.55 -1.55 -0.40 -4.95 -1.05 -7.55 -1.45 -2.60 -0.40 -5.15 -0.85 -5.60 -1.05 -1.55 -0.60 -0.95 0.20 1.10 1.50 1.10 0.70 2.65 1.25 3.50 1.25 0.85 0 2.40 0.45 3.50 1 2.40 1.25 6.80 2.85 8.50 3.15 2.40 0.40 17.50 0.35 17.50 -0.10z m-196.75 -15.75 c0.40 -2 0.75 -6.65 0.80 -10.35 0.10 -6.25 0 -7 -1.20 -10.05 -0.75 -1.85 -1.35 -3.90 -1.35 -4.65 l0 -1.30 -1.50 1.15 c-1.40 1 -1.50 1.30 -1.50 4.40 0 3.25 0 3.30 1.60 3.75 0.85 0.30 2 1.05 2.50 1.75 0.85 1.15 0.85 1.75 0.40 7.50 -0.25 3.45 -0.80 7.70 -1.20 9.50 -1.40 6.45 -1.40 6.45 -0.25 4.10 0.55 -1.20 1.30 -3.80 1.70 -5.80z m160.75 -5.05 c-1.60 -3.80 -2.70 -5 -9.05 -9.85 -8.75 -6.75 -8.05 -6.35 -7.70 -4.60 1.30 5.85 2.75 7.80 8.65 12.05 3.10 2.20 8.65 5.25 8.95 4.95 0.10 -0.10 -0.30 -1.25 -0.85 -2.55z m-342.30 -157.35 c0.90 -6.80 0.95 -8.40 0.15 -8.40 -1.15 0 -1.40 0.65 -2.10 5.45 -0.50 3.25 -0.50 4.40 -0.10 4.65 1.25 0.80 1.75 0.35 2.05 -1.70z m461.20 -48.65 c-0.45 -1.30 -0.35 -2.45 0.25 -5 l0.85 -3.30 -2.80 -5.35 c-2.95 -5.60 -4.30 -7.60 -3 -4.50 0.45 1 1.35 4.90 2.05 8.65 1.50 8.05 1.75 9.20 2.35 10.40 0.70 1.40 0.85 1 0.30 -0.90z m-19.90 -12.70 c0 -0.10 -0.35 0.10 -0.75 0.45 -0.45 0.35 -0.75 1.40 -0.70 2.45 l0 1.80 0.75 -2.25 c0.35 -1.25 0.70 -2.35 0.70 -2.45z m42 -4.70 c-0.30 -2.30 -0.80 -4.50 -1.10 -4.90 -0.35 -0.50 -0.40 -0.35 -0.20 0.60 0.15 0.75 0.55 3.05 0.85 5.15 0.30 2.10 0.70 3.75 0.80 3.60 0.15 -0.15 0 -2.15 -0.35 -4.45z m-37.70 -5.20 c0.40 -0.90 0.50 -1.65 0.25 -1.65 -0.50 0 -2.55 4.55 -2.55 5.60 0.05 0.70 1.20 -1.30 2.30 -3.95z m-476.05 -2.45 c-0.70 -1.20 -1.35 -2.20 -1.40 -2.20 -0.10 0 0.45 1.80 1.15 4 1.15 3.70 1.25 3.85 1.40 2.25 0.10 -1.25 -0.25 -2.50 -1.15 -4.05z m511.55 -12.10 c-0.75 -4.60 -1.70 -9.70 -2.05 -11.35 l-0.70 -3 0.25 3.50 c0.30 3.90 2.05 18 2.55 20.75 l0.35 1.75 0.45 -1.65 c0.40 -1.25 0.15 -3.65 -0.85 -10z m-510.85 -5.95 c-4.50 -8.75 -7.05 -12.85 -4.90 -7.90 0.90 2.05 7.45 14.95 8.30 16.40 0.10 0.20 0.45 0.35 0.70 0.35 0.25 0 -1.60 -4 -4.10 -8.85z m-68.65 -145.25 c-0.95 -4.20 -2.75 -12.95 -4 -19.45 -2 -10.45 -4.20 -18.50 -4.65 -17.10 -0.55 1.60 4.15 22.85 8.95 40.50 1.80 6.70 1.65 4.35 -0.30 -3.95z m561.75 -27.35 c0.05 -2.55 -0.10 -4.75 -0.25 -4.90 -0.15 -0.20 -0.30 2 -0.30 4.85 0 2.85 0.10 5.05 0.25 4.95 0.10 -0.15 0.25 -2.35 0.30 -4.90z m-582.35 -83.90 c0.55 -7.35 1.10 -9.45 2.95 -10.85 l1.55 -1.25 0.35 -7.70 c0.55 -11.55 2.45 -31 3.75 -38.60 0.20 -1.30 0 -1.65 -1.45 -2.55 -3.70 -2.40 -8.85 -7.30 -9.25 -8.85 -0.45 -1.70 -0.45 -1.70 -4.15 -1.05 -2.40 0.40 -3.85 -1 -5.75 -5.55 -1.15 -2.85 -2.05 -4.05 -4.70 -6.45 -19.90 -18.20 -30.15 -32.90 -25.40 -36.45 l1.20 -0.90 -4.15 -8.35 c-4.70 -9.45 -6.35 -14.55 -7.20 -22.45 -0.70 -6.55 -0.25 -19.20 0.85 -23.15 0.40 -1.50 1.10 -4.95 1.50 -7.70 1.30 -8.55 5.85 -20.45 11.80 -31.05 3.90 -6.90 5.95 -9.60 10.65 -14.25 4.35 -4.25 8.45 -8.95 8.10 -9.30 -0.10 -0.15 -1.45 0.35 -3.05 1.10 -2.15 0.95 -3 1.70 -3.50 2.90 -0.50 1.20 -2.20 2.70 -6.10 5.40 -12.85 8.85 -20.30 15.35 -26.75 23.15 -5.05 6.15 -19.20 22 -20.35 22.85 -1.75 1.25 -9.50 13.75 -13.60 21.90 -6.35 12.60 -7.85 18.70 -7.25 29.50 0.95 17.60 3.85 27.05 12 38.80 2.40 3.50 3.25 5.15 3.25 6.35 0 1.80 3.50 7.25 14.50 22.60 2.95 4.15 9.05 12.80 13.50 19.25 13.55 19.50 14.05 20.15 23.75 27.05 2.50 1.75 6.75 5 9.50 7.20 9.75 7.75 11.25 8.75 13.20 8.75 1.25 0 2.95 0.70 5.55 2.25 2.05 1.25 3.85 2.25 4.05 2.25 0.15 0 0.45 -2.20 0.65 -4.85z m-67.20 -43.10 c0 -0.25 -2.05 -3.30 -4.55 -6.85 -2.50 -3.55 -5.25 -7.50 -6.10 -8.80 -1.70 -2.50 -3 -3.40 -1.50 -1 8.35 13.25 12.15 18.45 12.15 16.65z m97.50 -38.80 c1.15 -2.90 2 -5.40 1.90 -5.55 -0.15 -0.10 -1.05 1.85 -2.05 4.40 -0.95 2.55 -1.95 5.05 -2.10 5.55 -0.20 0.45 -0.25 0.85 -0.10 0.85 0.15 0 1.20 -2.35 2.35 -5.25z m-66.30 -54.90 c-0.80 -4.85 -0.95 -8.20 -0.90 -24.35 0.05 -10.30 0.25 -21.10 0.40 -24 0.25 -4.10 0.20 -5.05 -0.25 -4.25 -0.30 0.55 -1.05 1.40 -1.65 1.85 -0.90 0.75 -0.95 1 -0.40 1.85 1.05 1.75 0.75 4.25 -0.70 5.60 -2 1.85 -2.70 3.80 -2.20 6.45 0.70 3.45 0.60 3.85 -1 5.65 -1.25 1.45 -1.50 2.15 -1.50 4.40 0 5.80 2.90 19.10 6 27.45 2.95 8.05 3.60 7.85 2.20 -0.65z m139.35 -37.65 c2.85 -1.20 6 -3 8.40 -4.85 9.15 -7.10 21.95 -15.60 31.30 -20.80 4.40 -2.40 5.15 -3 4.30 -3.30 -1.40 -0.40 -11.50 4.80 -26.05 13.50 -14.70 8.80 -20.95 12.90 -26.25 17.35 -7.25 6.05 -7.60 6.80 -1.60 3.20 2.95 -1.75 7.40 -4.05 9.90 -5.10z m-189.45 -11.25 c5.05 -7.15 12.05 -15.45 19.70 -23.45 6.10 -6.30 6.25 -6.50 5.50 -7.60 -0.45 -0.60 -0.80 -1.60 -0.80 -2.25 0 -1.65 -18.25 16.30 -18.70 18.35 -0.15 0.85 -1.15 2.70 -2.25 4.15 -2.90 3.90 -6.75 10.85 -9.30 16.90 -1.25 2.90 -2.25 5.55 -2.25 5.75 0 0.25 0.95 -1.10 2.15 -3 1.15 -1.90 3.80 -5.90 5.95 -8.85z m555.90 5.05 c-0.55 -0.80 -4.35 -5.25 -8.40 -9.85 -4.05 -4.65 -8.30 -9.55 -9.50 -10.95 -4.20 -5 -12.15 -10.50 -20.55 -14.15 l-3.50 -1.55 -1.25 1.25 c-0.85 0.85 -1.80 1.25 -3 1.25 -1.45 0 -2.05 -0.40 -3.90 -2.50 -1.75 -2 -2.65 -2.60 -4.20 -2.85 -2.25 -0.30 -2.35 -0.45 2.80 3.95 4.15 3.55 35.15 26.55 39.75 29.50 3.45 2.25 12.30 7.40 12.65 7.40 0.10 0 -0.30 -0.65 -0.90 -1.50z m9 -8.70 c0 -0.40 0.10 -1.05 0.25 -1.40 0.30 -0.75 -4.25 -4.30 -8.90 -6.90 l-2.90 -1.60 5.40 5.30 c2.95 2.90 5.55 5.30 5.80 5.30 0.20 0 0.35 -0.30 0.35 -0.70z m-299.25 -18.80 c6.90 -2.15 13.30 -4.15 14.25 -4.45 l1.75 -0.55 -1.80 0.25 c-3.85 0.55 -17.05 1.25 -23.95 1.25 l-7.25 0 -5 2.25 c-2.75 1.25 -5.25 2.65 -5.60 3.15 -0.35 0.45 -0.85 1.15 -1.15 1.50 -0.75 0.85 -0.70 0.85 4.45 -1.40 2.50 -1.10 5.40 -2 6.35 -2 2.05 0 3.70 1.45 3.70 3.30 0 1.05 0.20 1.25 0.90 0.95 0.45 -0.15 6.50 -2.10 13.35 -4.25z m6.25 -20.50 c1.20 -0.25 2.30 -0.70 2.45 -1.05 0.10 -0.35 0.70 -1.15 1.35 -1.80 0.95 -0.95 1.70 -1.15 4.20 -1.15 2.55 0 3.25 0.20 4.20 1.20 l1.20 1.15 7.20 -1.15 c8.60 -1.40 8.40 -1.40 8.40 -0.40 0 0.60 0.35 0.70 1.40 0.50 0.75 -0.15 2.20 -0.40 3.25 -0.60 1.50 -0.25 1.85 -0.50 1.60 -1.15 -0.55 -1.40 -1.75 -8.05 -1.75 -9.80 0 -1.40 -0.15 -1.60 -0.95 -1.40 -0.85 0.20 -1 -0.15 -1.30 -3.10 -0.75 -6.85 0.45 -12.60 3.25 -15.35 1.95 -2 3.35 -2.40 3.80 -1.20 0.25 0.60 0.50 0.60 1.90 0.05 1.65 -0.70 14.80 -2.70 18.15 -2.80 1.05 0 1.60 -0.15 1.30 -0.30 -3.30 -1.30 7 -1.65 11.40 -0.35 6.10 1.80 9.50 4.35 14.20 10.60 3.20 4.30 3.95 6.10 2.50 6.10 -0.55 0 -0.35 0.75 0.85 3.15 0.85 1.70 1.65 3.20 1.75 3.30 0.30 0.40 5.65 -1.55 5.65 -2.05 0 -0.20 -0.20 -0.40 -0.50 -0.40 -1.15 0 -0.40 -0.90 1 -1.15 0.80 -0.20 3.20 -1.40 5.35 -2.65 7.15 -4.35 22.85 -14.45 25.95 -16.75 l3.05 -2.25 -1.15 -1.40 c-0.65 -0.75 -1.20 -1.80 -1.20 -2.40 0 -0.55 -0.50 -1.60 -1.15 -2.40 -0.85 -1 -2.15 -5.20 -5.05 -16.70 -5.75 -22.75 -13.70 -45.90 -20.10 -58.55 l-4.05 -8 -2.95 -0.15 c-1.80 -0.10 -3.25 -0.45 -3.80 -0.95 -0.50 -0.45 -3.30 -5.10 -6.25 -10.35 -2.95 -5.25 -8.75 -15.35 -13 -22.40 -4.20 -7.05 -7.65 -13.20 -7.65 -13.60 0 -0.40 0.30 -0.80 0.70 -0.90 0.55 -0.10 0.15 -1 -1.40 -3.40 -1.15 -1.80 -2.85 -4.40 -3.75 -5.85 l-1.65 -2.60 -1.40 1 c-0.75 0.60 -3.70 1.70 -6.50 2.45 -4.20 1.15 -5.40 1.30 -7.05 0.85 -2.10 -0.50 -3.20 -0.15 -1.95 0.65 1.40 0.90 -4.15 0.55 -7.95 -0.50 -5 -1.40 -8.25 -3.15 -11.40 -6.15 -5.20 -4.90 -8.25 -11.15 -9.20 -18.95 -0.90 -7.50 0.35 -14.75 3.35 -19.20 l1.25 -1.80 -4 -10.05 c-2.20 -5.55 -4.85 -12.50 -6 -15.45 -1.10 -2.95 -2.90 -6.90 -3.95 -8.75 -1.10 -1.85 -2.15 -3.90 -2.35 -4.50 -0.15 -0.65 -0.50 -1.15 -0.70 -1.15 -0.45 0 -1 2.50 -5.55 24.50 -3.10 14.95 -4.20 19.80 -8.75 39 -6.10 25.75 -10.45 47 -10 48.90 0.20 0.90 1.35 2.05 3.25 3.45 3 2.15 7 6.70 7 7.95 0 0.40 0.20 0.70 0.45 0.70 0.70 0 2.40 4.85 3.35 9.50 2.50 12.40 -1.65 34.65 -8.70 46.90 -1.90 3.30 -3.20 4.10 -2.80 1.75 0.20 -1.15 -0.05 -0.95 -1.45 1.20 -2.35 3.45 -4.45 5.35 -8.35 7.25 -2.85 1.45 -3.85 1.65 -8.50 1.90 l-5.25 0.25 -0.15 3.70 c-0.15 3.45 -0.10 3.65 0.70 3 0.80 -0.65 0.85 -0.50 0.55 1.80 -0.90 6.75 -0.95 14.75 -0.15 22.25 0.80 7.25 4 30.95 5.35 39.65 l0.65 3.85 2.90 0 c2.45 0 3.15 0.20 4.15 1.25 0.70 0.65 1.25 1.75 1.25 2.45 0 0.85 0.35 1.30 1.15 1.50 1.65 0.35 25.75 -0.25 28.35 -0.70z m69.60 -11.05 c4.60 -1.35 8.50 -2.45 8.70 -2.45 0.15 0 -0.30 -1.05 -1.05 -2.35 -2.10 -3.75 -5.35 -6.40 -11.55 -9.50 l-5.70 -2.85 -4.85 1.65 c-2.70 0.90 -6.30 2.30 -8 3.05 -2.85 1.30 -3.15 1.60 -3.65 3.60 -0.70 2.45 -0.20 5.35 1.65 9.85 l1.10 2.75 3.25 -0.10 c1.80 -0.05 3.55 0.10 3.95 0.35 0.70 0.45 1.90 0.15 16.15 -4z m-268.60 -8.50 c0 -0.50 -0.25 -0.95 -0.60 -0.95 -0.55 0 -6.90 3.95 -6.90 4.25 0 0.10 1.70 -0.40 3.75 -1.10 2.90 -0.95 3.75 -1.45 3.75 -2.20z m336.70 -23 c0.45 -2.45 0.50 -3.35 0.10 -2.75 -0.30 0.55 -1.05 1.50 -1.65 2.10 -1.35 1.25 -1.50 3.45 -0.30 4.15 0.50 0.25 0.95 0.40 1 0.35 0.10 -0.05 0.45 -1.80 0.85 -3.85z m-169.95 -50.55 c5.10 -5.50 7.45 -11.50 8.80 -22.35 0.55 -4.40 0.55 -5.70 -0.25 -10.90 -0.50 -3.25 -1.20 -6.60 -1.55 -7.45 -0.35 -0.80 -2.10 -3.20 -3.95 -5.25 -3.25 -3.65 -3.95 -4.95 -2.65 -4.95 0.35 0 0.95 0.30 1.35 0.65 0.40 0.30 0.20 -0.05 -0.50 -0.80 -0.95 -1.10 -1.55 -1.35 -3 -1.25 -1.20 0.10 -1.80 0.45 -1.90 1.05 -0.10 0.50 0.15 0.85 0.60 0.85 1 0 1 0.55 0.10 6.25 -1.85 11.30 -4.85 42.90 -4.45 46.30 l0.25 2.30 1.95 -0.50 c1.50 -0.35 2.80 -1.35 5.20 -3.95z m396.80 -2.30 c-5.05 -6.55 -5.85 -6.90 -2.70 -1.15 2.55 4.65 2.90 5.05 4.25 5.05 l1.45 0 -3 -3.90z m-42.30 -34.90 c-4.05 -3.35 -9.60 -7.35 -11.45 -8.20 -1.15 -0.50 -5.50 -2.50 -9.75 -4.45 -7.35 -3.35 -7.65 -3.45 -6.20 -1.90 0.80 0.85 2.25 2.60 3.20 3.85 5.45 7.15 8.90 9.15 18.85 11 6.85 1.30 7.20 1.25 5.35 -0.30z m-271.75 -66.70 c0.65 -0.40 0.60 -0.75 -0.45 -2.60 -1.15 -2.10 -14.20 -21.15 -15.15 -22.15 -1.50 -1.60 7.50 16.35 10.70 21.40 2.45 3.80 3.30 4.40 4.90 3.35z m-21.65 -9.30 c-1.75 -3.55 -3.55 -7.45 -4.05 -8.70 -0.50 -1.25 -1.05 -2 -1.15 -1.65 -0.40 1.15 0.85 6.40 2.30 9.40 1.30 2.75 5.40 8.05 5.90 7.60 0.10 -0.15 -1.25 -3.10 -3 -6.65z m0.65 -26.45 c0 -0.40 -3.15 -4.75 -3.35 -4.55 -0.40 0.40 2 4.80 2.60 4.80 0.40 0 0.75 -0.10 0.75 -0.25z m-1.65 -18.70 c-1.70 -3.95 -2.75 -5.85 -3.15 -5.70 -1.65 0.60 -1.15 2.15 2.15 6.85 1.85 2.65 3.40 4.80 3.45 4.80 0.05 0 -1.05 -2.70 -2.45 -5.95z m-8.05 -13.40 c-0.40 -0.80 -1.45 -2.20 -2.30 -3.15 -1.35 -1.50 -1.30 -1.30 0.50 1.40 2.10 3.20 3.10 4.15 1.80 1.75z"/>
  <path d="M426.15 868.70 c-1.20 -1.20 -1.25 -1.50 -0.95 -4.35 0.15 -1.70 1 -5.40 1.85 -8.20 l1.60 -5.05 -1.10 -1.35 c-1.40 -1.80 -1.35 -3.20 0.20 -5.25 1.80 -2.40 5.95 -16.40 7 -23.65 l0.35 -2.15 -5.20 0.20 c-10.65 0.40 -23.60 -1.35 -27.25 -3.70 -1.80 -1.15 -2 -3.70 -0.40 -6.40 1.55 -2.70 2.50 -3.30 4.95 -3.30 1.20 0 1.80 -0.25 2 -0.90 0.55 -1.65 2.05 -2.10 6.15 -1.75 3.55 0.30 4.05 0.45 5.40 1.90 1.60 1.70 3.65 2.80 7.15 3.80 2.80 0.80 9.35 0 18.50 -2.30 7.05 -1.80 8.35 -1.75 9.70 0.20 0.65 0.95 0.85 0.95 4.90 0.25 3.75 -0.65 4.40 -0.95 5.80 -2.45 1.30 -1.45 1.95 -1.75 3.55 -1.75 7.60 0 36.15 -7.10 44.75 -11.10 4.10 -1.95 5.70 -2.45 7 -2.25 1.10 0.15 3.10 -0.30 6.15 -1.40 7 -2.50 8.40 -3.30 9.30 -5.20 0.85 -1.85 2.55 -3 4.45 -3.05 1.65 0 3.70 -1.40 6.55 -4.50 2.15 -2.30 2.45 -2.50 4.65 -2.50 2 0 2.85 -0.35 5.60 -2.30 1.80 -1.30 3.75 -2.95 4.30 -3.75 0.60 -0.75 1.90 -1.75 2.90 -2.15 2.55 -1 5.85 -4.90 6.75 -7.95 0.85 -2.90 1.85 -3.80 4.15 -3.85 1.25 0 2.05 0.40 3 1.50 0.75 0.85 1.70 1.50 2.15 1.50 1.35 0 3.85 2.35 4.20 3.95 0.65 3.05 -1.85 6.45 -10.70 14.45 -6 5.40 -9.10 7.80 -13.20 10.10 -3 1.70 -3.15 1.95 -2.35 5.25 0.35 1.45 0.25 2.35 -0.30 3.55 -0.75 1.55 -0.70 1.60 3.35 8.75 8.30 14.60 11.35 21.50 10.75 24.50 -0.90 4.95 -5.85 4.90 -13.15 -0.10 -1.80 -1.25 -2.25 -1.40 -3.35 -0.90 -2.20 1 -3.50 0.20 -6.75 -4.25 -2.45 -3.40 -13.90 -16.60 -18.80 -21.75 l-1.15 -1.20 -8.05 3.35 c-20.20 8.40 -38.45 13.30 -60.80 16.30 l-4.50 0.60 -0.95 4.85 c-0.50 2.65 -2.05 8.95 -3.40 14.05 -2.65 9.90 -3.50 11.50 -5.95 11.50 -1.20 0 -1.95 0.75 -4.85 4.65 -6.05 8.15 -9.10 12.70 -9.10 13.55 0 0.45 -0.55 1.40 -1.25 2.05 -1.65 1.65 -3.90 1.65 -5.60 -0.05z m20 -38.20 c1 -4 1.95 -7.90 2.10 -8.75 0.15 -0.80 0.40 -1.90 0.55 -2.35 0.25 -0.80 -0.10 -0.90 -2.45 -0.90 l-2.75 0 -0.55 2.50 c-1.20 5.65 -1.25 6.35 -0.10 7.55 1.35 1.50 1.35 2.95 -0.20 7.45 -0.70 2 -1.25 3.75 -1.25 3.90 0 0.10 0.65 -0.35 1.45 -1 1.25 -1 1.65 -2.10 3.20 -8.40z m115.05 -15.60 c-0.45 -0.90 -2.55 -4.70 -4.70 -8.40 -2.10 -3.70 -4.80 -8.60 -6 -10.90 -1.20 -2.25 -2.45 -4 -2.75 -3.90 -0.25 0.15 -2.25 0.95 -4.35 1.85 -4 1.60 -4.60 2.15 -3 2.65 0.50 0.20 2.70 2.55 4.85 5.30 3.60 4.55 4.10 5 5.65 5 1.85 0 2.10 0.20 7.50 6.40 1.75 2 3.25 3.60 3.40 3.60 0.10 0 -0.15 -0.75 -0.60 -1.60z"/>
  <path d="M447 716.45 c-12.25 -1 -22.65 -1.45 -23.25 -0.95 -0.80 0.65 -26.30 -0.30 -32.75 -1.25 -5.85 -0.85 -11.15 -2.55 -17.05 -5.50 -11.40 -5.70 -16.75 -10.95 -24.20 -24 -1.55 -2.75 -3.45 -5.75 -4.20 -6.65 -2.45 -3.15 -4 -5.75 -4.80 -8.15 -0.45 -1.30 -2.35 -5 -4.20 -8.30 -14.60 -25.45 -16.85 -31.20 -18.80 -47.40 -0.45 -3.85 -1 -7.20 -1.20 -7.50 -0.65 -0.85 -2.45 -5.80 -3.40 -9.25 -0.80 -2.80 -0.90 -5.30 -0.85 -18.50 0.05 -12.85 0.20 -16.45 1.15 -23 0.60 -4.25 1.40 -11.10 1.85 -15.25 0.55 -5.50 1 -7.85 1.65 -8.75 0.50 -0.70 1.25 -2.40 1.65 -3.85 0.75 -2.55 0.75 -2.55 -0.30 -2.10 -1.45 0.70 -3.50 -0.15 -4.60 -1.85 -0.75 -1.15 -0.80 -1.60 -0.25 -3.65 0.60 -2.25 5.40 -12.50 8.55 -18.15 l1.60 -2.80 -1.05 -1.05 c-1.05 -1.05 -1.25 -1.85 -1.05 -3.80 0.15 -1.30 4 -7.10 7.65 -11.50 4.40 -5.25 20.80 -22.60 28.65 -30.25 l6.95 -6.80 7.85 -3.95 7.85 -4 2.15 1.10 2.15 1.10 7 -1.65 c6 -1.40 7 -1.80 7.15 -2.70 0.35 -2.25 1.85 -2.85 7.55 -2.90 12.25 -0.15 29.10 -0.75 33.40 -1.20 6.15 -0.65 27.80 -0.65 32.30 0.05 6.95 1 11.65 3 15.75 6.70 2.30 2.05 3.10 2.45 6.75 3.25 7.90 1.75 15.50 5.25 24.50 11.40 2.70 1.85 6.65 4.45 8.75 5.80 12.20 7.85 14.15 9.35 19.55 14.55 3.20 3.05 7.15 6.60 8.80 7.85 1.65 1.25 4.55 3.70 6.40 5.40 2.80 2.60 6.80 6 7.05 6 0 0 0.05 -0.80 0.10 -1.85 0.05 -2.20 1.60 -3.65 3.85 -3.65 2.35 0 4.60 2.85 9.10 11.50 2.20 4.25 6.10 11.25 8.65 15.50 5.05 8.45 7.30 14.25 8.85 23 0.50 2.60 1.50 6.80 2.30 9.25 2.70 8.50 5.30 24.35 5.80 35 0.30 6.90 -0.75 16.65 -2.90 26.75 -0.55 2.60 -1.20 5.75 -1.40 7 -0.25 1.25 -0.75 3.95 -1.20 6 -1.35 6.60 -1.45 7.55 -0.80 8.30 0.40 0.50 0.50 2.05 0.30 5.10 -0.25 4.15 -0.90 6.60 -2.55 10.25 -0.40 0.85 -1.45 3.20 -2.30 5.10 -0.85 1.95 -2.85 5.75 -4.45 8.50 -1.65 2.75 -4.25 8.05 -5.85 11.75 -2.55 5.95 -3.25 7.10 -5.95 9.75 -3.35 3.35 -6.95 5.45 -13.30 7.65 -2.35 0.85 -7.20 2.95 -10.75 4.75 -8.30 4.15 -14.25 6.45 -20.15 7.80 -2.55 0.60 -6.30 1.75 -8.25 2.55 -4.75 1.85 -14 4.15 -25.20 6.15 l-9.10 1.60 -0.90 1.75 c-1.10 2.30 -3.95 3.25 -11.60 3.95 -6.50 0.60 -27.80 0.60 -35 0z m19 -9.45 c6.50 -0.70 6.50 -0.70 6.50 -3.05 0 -2.45 1.35 -3.95 3.65 -3.95 0.90 0 2.10 0.35 2.65 0.75 1.30 0.95 6 0.95 9.85 -0.05 3.40 -0.85 7.80 -2.65 21.60 -8.80 12.65 -5.65 26.70 -10.60 28.35 -9.95 2.40 0.90 3.25 3.55 1.95 5.95 l-0.60 1.10 2.65 -1.05 c1.45 -0.60 5.85 -2.15 9.75 -3.45 3.95 -1.35 8.65 -3.20 10.50 -4.15 3.10 -1.55 3.40 -1.90 3.75 -3.65 0.25 -1.05 0.80 -2.25 1.30 -2.65 0.80 -0.65 0.75 -0.65 -0.15 -0.35 -3 1.05 -6.65 1.80 -7.80 1.55 -1.90 -0.45 -3.15 -2 -3.15 -4 0 -2.35 1.25 -3.50 4.60 -4.25 5.30 -1.15 11.55 -5.05 19.75 -12.25 6.05 -5.30 6.90 -6.60 8.55 -13.25 1.30 -5.30 1.35 -5.65 0.60 -7.25 -0.80 -1.65 -0.75 -2 1.15 -9.60 4.25 -16.90 4.75 -20.05 4.75 -29.65 0.10 -18.35 -1.40 -43.30 -2.75 -46.85 -0.30 -0.75 -0.85 -1.15 -1.65 -1.15 -0.70 0 -1.65 -0.50 -2.20 -1.20 -0.50 -0.70 -3.05 -5.95 -5.60 -11.65 -6.70 -15 -8.90 -19.25 -13.30 -25.40 -6.15 -8.75 -19.35 -21.30 -25.70 -24.50 -5.15 -2.55 -20.70 -12.10 -23.30 -14.25 -8.30 -6.95 -11.70 -9.15 -21.20 -13.95 -5.35 -2.70 -10.55 -5.35 -11.50 -5.95 -1.60 -1 -5 -1.55 -5 -0.80 0 0.15 1.10 1.45 2.45 2.85 5.75 6.05 6.55 7.95 4.50 10.55 -0.75 1 -1.45 1.30 -2.85 1.30 -1.65 0 -2.20 -0.40 -5.35 -3.85 -7.50 -8.30 -7.90 -8.65 -10.20 -8.65 -1.80 0 -2.20 -0.20 -3.05 -1.60 -0.55 -0.90 -1 -2.10 -1 -2.70 0 -1 -0.90 -1.20 -14.10 -3.35 -17.25 -2.85 -21.45 -3.35 -29.20 -3.35 -4.50 0 -7 0.25 -10 1.05 -2.15 0.55 -9.70 2.35 -16.70 4 -13.45 3.10 -21 5.30 -21 6 0 0.25 0.20 0.45 0.45 0.45 0.80 0 1.55 2.95 1.10 4.15 -0.70 1.75 -1.70 2.35 -5.30 3.10 -2.05 0.45 -3.90 1.20 -4.80 2 -0.85 0.70 -2.05 1.25 -2.65 1.25 -2.40 0 -9.30 5.80 -9.30 7.80 0 1.90 -0.55 2.70 -2.70 3.80 -1.10 0.55 -2.60 1.50 -3.25 2.10 -2.15 1.95 -11.50 14.15 -12.80 16.70 -2.45 4.85 -6.25 22.55 -7.75 35.85 -0.70 6.55 -0.65 9 0.30 9.80 1.60 1.30 1.80 2.90 0.65 5.35 -0.55 1.30 -1.15 3.50 -1.30 4.85 -0.15 1.40 -0.55 3.20 -0.95 4.05 -1.90 4.25 -3.45 21.35 -2.95 32.45 0.90 20.30 3.20 33.90 7.20 42.50 0.75 1.65 2.65 4.50 4.20 6.35 3 3.50 3.50 5.25 2.15 7.05 -0.60 0.80 -0.50 1.40 0.90 4.60 1.55 3.65 1.55 3.70 3.50 3.65 1.30 0 2.25 0.30 3 1.05 0.95 0.95 1.05 1.55 0.90 5.40 l-0.15 4.35 3.75 5.50 c2.05 3.05 5.20 7.35 7 9.50 1.85 2.20 3.45 4.45 3.60 5.10 0.20 0.75 2.45 2.55 6.60 5.35 10.05 6.70 17.25 10.60 24.35 13.10 l4.45 1.65 1.35 -1.45 c1.85 -2 4 -1.95 6.05 0.05 0.80 0.85 1.85 1.70 2.30 1.95 1.60 0.80 8.40 2.05 14 2.50 4.65 0.40 5.90 0.65 6.80 1.50 1.05 1 5.05 1.85 10.55 2.20 5.90 0.40 22.90 0.30 27.25 -0.15z m-86.25 -5.40 c-3.55 -1.90 -7.80 -4.25 -9.35 -5.30 -1.60 -1 -2.90 -1.60 -2.90 -1.35 0 0.85 7.05 5.20 12.45 7.60 2.90 1.35 5.55 2.40 5.80 2.40 0.30 0.05 -2.40 -1.50 -6 -3.35z m141.15 -4.75 c1.15 -0.95 0.25 -0.90 -1.95 0.15 -2.15 1 -2.15 1 -0.45 0.70 0.95 -0.20 2.05 -0.55 2.40 -0.85z m12.85 -5.05 c0.85 -0.45 1.05 -0.70 0.50 -0.55 -0.55 0.20 -2.05 0.65 -3.35 1.05 -1.30 0.40 -2.50 0.95 -2.65 1.20 -0.40 0.60 3.60 -0.60 5.50 -1.70z m-210.85 -169.90 c0.25 -0.35 0.60 -1.75 0.80 -3.15 l0.30 -2.50 -1.25 2.70 c-0.70 1.45 -1.25 2.85 -1.25 3.10 0 0.65 0.80 0.55 1.40 -0.15z"/>
  <path d="M468.35 659 c-1.35 -0.25 -6.85 -0.40 -12.25 -0.40 -5.40 0 -11.95 -0.25 -14.50 -0.55 -2.55 -0.30 -8.55 -0.80 -13.30 -1.05 -4.70 -0.30 -9.95 -0.85 -11.55 -1.25 -11.60 -3.05 -25 -16.80 -36.40 -37.35 -4 -7.25 -5.25 -10.35 -7.50 -18.90 -2.40 -9 -3 -13.85 -2.30 -19.95 1 -9.25 1.85 -11.90 7.05 -22.30 4.85 -9.65 6.90 -12.70 11.85 -17.85 5.90 -6.20 10.25 -8.80 20.60 -12.35 4.75 -1.60 10.85 -3.80 13.45 -4.85 l4.75 -1.95 13 0.05 c17.80 0.10 20.90 0.65 26.55 4.45 1 0.70 2.35 1.25 2.95 1.25 2.15 0 10.75 2.45 13.90 3.95 1.75 0.85 4.15 2.30 5.40 3.30 1.20 0.95 5.15 3.95 8.70 6.70 10.20 7.75 13.50 11.40 16.05 18.05 0.45 1.25 1.60 3.95 2.55 6 0.95 2.05 2.20 4.85 2.70 6.20 1.45 3.55 4.40 16.80 4.95 22.05 0.95 8.85 0.40 20.75 -1.35 28.50 -2.55 11.60 -9.85 22.30 -18.20 26.75 -1.75 0.90 -4.75 2.70 -6.70 4 -10 6.75 -20.10 9.20 -30.40 7.50z m-46.90 -10.70 c-0.55 -0.45 -4.95 -1.70 -4.70 -1.30 0.15 0.25 1 0.70 1.90 0.95 1.65 0.50 3.15 0.70 2.80 0.35z"/>
  <path d="M376.15 245.75 c-4.25 -0.95 -7.65 -2.90 -10.60 -6 -5.90 -6.20 -8.15 -15.45 -7.10 -29 0.70 -9.15 2.35 -13.35 6.40 -16.70 2.10 -1.70 2.90 -1.90 3.50 -0.80 0.35 0.60 0.80 0.65 2.15 0.25 0.95 -0.30 2.55 -0.55 3.50 -0.55 0.95 -0.05 1.35 -0.15 0.90 -0.30 -0.50 -0.15 -0.75 -0.50 -0.55 -1 0.25 -0.65 1 -0.70 4.85 -0.40 11.85 0.95 21.35 5.55 24.95 12.15 1.75 3.20 2.60 8.80 2.10 14.35 -0.20 2.35 -0.55 4.25 -0.80 4.25 -0.25 0 -0.45 -0.20 -0.45 -0.50 0 -0.25 -0.15 -0.50 -0.40 -0.50 -0.20 0 -0.65 1.40 -0.95 3.15 -0.35 1.70 -1.05 4.40 -1.60 6 -0.80 2.45 -0.80 2.95 -0.25 3.20 1.05 0.40 0.85 1.65 -0.80 4.45 -1.95 3.40 -5.55 6.50 -8.70 7.50 -3.50 1.10 -12.25 1.35 -16.15 0.45z m12.10 -13.75 c1.55 -0.75 2.50 -1.70 3.55 -3.65 1.30 -2.35 1.45 -3.05 1.45 -7.55 l0 -4.95 -3.85 0.10 -3.85 0.10 -1.55 -2.10 c-2 -2.75 -6.05 -5.80 -8.30 -6.25 -1.50 -0.25 -2 -0.10 -3.20 1.05 -3.15 3 -3.70 7.60 -1.65 14.15 2.25 7.35 11.30 12.05 17.40 9.10z"/>
  <path d="M670.15 424 c-2.75 -2.50 -1.95 -4.65 3.35 -8.90 l3.90 -3.15 -0.80 -1.55 c-0.75 -1.50 -0.70 -1.70 0.55 -4.10 0.75 -1.40 3.90 -5.90 7 -10 3.05 -4.05 7.10 -9.45 9 -12 5.10 -6.85 10.70 -19 13.30 -28.60 0.30 -1.10 1.10 -2.80 1.75 -3.75 2.50 -3.45 4.75 -7.50 5.30 -9.40 0.25 -1.05 0.70 -4.70 0.95 -8.10 0.40 -5.70 0.40 -6.30 -0.50 -7.55 -1.15 -1.65 -1.20 -3.80 -0.15 -5.35 0.45 -0.65 1.15 -2.90 1.55 -4.95 0.75 -3.95 1.65 -6.15 3.20 -7.85 1.80 -1.95 2.60 -7.70 2.90 -20.65 0.30 -12.05 0.30 -12.20 1.50 -13.15 1.60 -1.30 3.85 -1.20 5.25 0.20 1.10 1.10 1.20 1.75 1.55 8.40 0.35 8.15 -0.25 16.15 -1.80 23.40 -0.90 4.05 -0.95 5 -0.40 6.65 0.40 1.30 0.50 3.55 0.30 7.25 -0.45 7.95 -1.65 13.30 -5.10 22.15 -0.95 2.35 -2.30 6.75 -3 9.75 -1.35 5.40 -4.60 14.50 -6.75 18.80 -1.50 2.95 -2.95 4.45 -4.30 4.45 -0.75 0 -1.40 0.50 -1.90 1.60 -1 1.90 -1 2.40 -0.10 2.40 0.35 0 1.25 0.45 2 1.05 2.40 1.90 1.90 3.65 -3.40 11.60 -8 12.05 -12.70 17.15 -25.75 28 -5.65 4.70 -7.30 5.30 -9.40 3.35z"/>
 </g>
 <g fill="#d5f6c5">
  <path d="M303.15 326.20 c-0.80 -0.20 -1.15 -0.65 -1.15 -1.50 0 -1.70 -2.10 -3.70 -3.90 -3.70 -0.80 0 -2.05 0.45 -2.75 1 l-1.25 1 -0.55 -3.15 c-0.75 -4.10 -3.80 -25.55 -5.10 -35.60 -1.25 -9.85 -1.75 -22.75 -1.05 -27.60 0.55 -4 2.05 -6.65 3.65 -6.65 0.55 0 0.90 -0.20 0.75 -0.45 -0.15 -0.25 0.40 -0.55 1.25 -0.75 0.85 -0.15 1.40 -0.50 1.20 -0.80 -0.20 -0.30 0.25 -0.50 0.95 -0.50 0.70 0 1.30 -0.20 1.30 -0.45 0 -0.65 4.10 -1.55 5.40 -1.20 0.65 0.15 1.10 0.05 1.10 -0.30 0 -0.30 0.75 -0.55 1.70 -0.55 2.10 0 3.40 -0.45 3 -1.05 -0.15 -0.25 0 -0.45 0.30 -0.45 0.30 0 0.40 -0.20 0.25 -0.50 -0.15 -0.25 -0.05 -0.50 0.25 -0.50 0.35 0 0.50 -0.30 0.35 -0.70 -0.15 -0.40 0.05 -0.85 0.50 -1 0.40 -0.20 0.65 -0.65 0.45 -1.05 -0.15 -0.40 -0.05 -0.75 0.25 -0.75 0.30 0 0.35 -0.20 0.20 -0.50 -0.15 -0.25 -0.05 -0.50 0.25 -0.50 0.30 0 0.45 -0.20 0.30 -0.45 -0.20 -0.25 -0.10 -0.55 0.15 -0.65 0.30 -0.05 0.60 -0.85 0.75 -1.70 0.15 -0.85 1.30 -3.50 2.50 -5.90 2.90 -5.60 4.50 -10.45 6.35 -19.05 1.80 -8.25 2.35 -16.45 1.50 -21.55 -0.90 -5 -3 -11.05 -4.50 -12.80 -3.55 -4.20 -4.75 -5.40 -7 -6.95 -2.65 -1.80 -3.05 -2.55 -3.05 -5.75 0 -3.20 4.70 -25.75 10.25 -49.20 4.60 -19.35 5.65 -24.10 8.80 -39.25 2.70 -13.15 4.20 -20.10 6 -27.65 l0.65 -2.65 1.60 4.50 c0.85 2.45 2.40 5.80 3.35 7.40 1 1.65 3.45 7.35 5.50 12.70 2.05 5.30 5 12.85 6.55 16.65 l2.75 6.95 -1.40 1.65 c-1.70 1.90 -3.45 6.30 -4.10 10.35 -0.60 3.60 0.20 10.35 1.65 14.25 2.35 6.35 7.65 12.70 12.75 15.30 2.60 1.30 9.15 3.30 10.80 3.30 0.50 0 1.25 0.30 1.60 0.70 0.40 0.35 1.80 0.80 3.20 1 1.40 0.20 2.65 0.55 2.80 0.80 0.15 0.30 0.70 0.50 1.20 0.50 0.50 0 2.55 0.80 4.60 1.85 2.05 1 4.15 1.80 4.70 1.75 0.50 -0.05 1.25 0.20 1.60 0.50 0.35 0.25 0.95 0.40 1.40 0.25 0.40 -0.20 0.85 -0.10 1.05 0.20 0.15 0.25 0.65 0.45 1.10 0.40 2.90 -0.25 2.85 -0.35 10.75 12.95 4.20 7.05 10 17 12.80 22.10 2.85 5.10 5.65 9.75 6.20 10.40 1.20 1.30 3.60 1.45 4.95 0.25 0.50 -0.45 1 -0.70 1.10 -0.60 0.10 0.10 2.25 4.25 4.70 9.20 6.85 13.50 14.55 35.90 20.40 59.05 2.90 11.50 4.20 15.70 5.05 16.70 0.65 0.80 1.15 1.85 1.15 2.40 0 1.65 1.90 3.60 3.55 3.60 1.30 0 1.45 0.15 1.45 1.50 0 1.25 -0.20 1.50 -1.20 1.50 -0.65 0 -2.60 1.05 -4.35 2.35 -3.20 2.35 -18.85 12.45 -26 16.75 -3.75 2.30 -7.25 3.65 -7.55 2.95 -0.10 -0.25 -2.15 -1.45 -4.65 -2.75 -4.15 -2.20 -4.75 -2.70 -7.65 -6.55 -1.75 -2.35 -4.10 -5 -5.25 -5.90 -4.15 -3.40 -9.55 -5.35 -14.70 -5.35 -3.30 0 -4.60 -0.45 -6.40 -2 -0.55 -0.50 -2.25 -1.35 -3.75 -1.85 -2.35 -0.85 -3.40 -0.90 -7.50 -0.55 -2.60 0.20 -5 0.50 -5.30 0.60 -0.30 0.10 -0.80 1.25 -1.15 2.50 -0.30 1.25 -0.80 2.30 -1.10 2.30 -0.35 0 -0.45 0.45 -0.25 1.15 0.20 0.85 -0.15 1.45 -1.45 2.50 -2.25 1.80 -3.10 3.50 -3.80 7.75 -0.40 2.50 -0.45 4.30 -0.05 6.40 0.45 2.40 0.40 3.05 -0.20 3.50 -0.40 0.30 -0.70 1.10 -0.70 1.75 0 1.15 -1.20 5.55 -2.60 9.60 -0.75 2.15 -0.30 2 -9 3.35 -8.05 1.25 -8.10 1.25 -9.60 -0.25 -1.60 -1.60 -3.95 -1.65 -5.50 -0.10 -0.65 0.65 -1.25 1.45 -1.35 1.80 -0.15 0.35 -1.25 0.85 -2.45 1.05 -2.55 0.50 -29.65 1.05 -31.35 0.70z m87.70 -82.40 c3.25 -1.05 7 -4.35 8.95 -8.05 l1.50 -2.80 1.90 1.30 c1 0.70 2.40 1.25 3.05 1.25 0.65 0 1.35 0.25 1.50 0.50 0.80 1.30 1.40 -0.75 0.75 -2.50 -0.05 -0.15 -0.10 -0.65 -0.05 -1.10 0.05 -0.50 -0.10 -0.90 -0.40 -0.90 -0.30 0 -0.40 -0.35 -0.25 -0.75 0.20 -0.40 0.05 -0.75 -0.30 -0.75 -0.35 0 -0.45 -0.40 -0.25 -1 0.15 -0.55 0.10 -1 -0.15 -1 -0.30 0 -0.40 -0.45 -0.25 -1 0.15 -0.55 0 -1 -0.30 -1 -0.25 0 -0.40 -0.35 -0.25 -0.75 0.20 -0.40 0.05 -0.75 -0.30 -0.75 -0.35 0 -0.50 -0.35 -0.30 -0.85 0.20 -0.45 0.05 -1 -0.30 -1.20 -0.45 -0.30 -0.65 -2.10 -0.70 -6.30 -0.05 -6.65 -0.55 -8.90 -2.60 -12.20 -3.75 -5.90 -13.20 -10.35 -23.60 -11.10 -2.05 -0.15 -5.10 -0.75 -6.70 -1.35 -3.20 -1.15 -4.05 -0.85 -3.55 1.30 0.15 0.80 -0.30 1.45 -1.80 2.65 -4.05 3.30 -5.80 7.65 -6.45 16.40 -1.35 17.65 5.15 29.60 17.65 32.40 3.70 0.85 9.50 0.65 13.20 -0.45z"/>
  <path d="M379.50 234.05 c-1.95 -0.60 -5.25 -2.40 -5.95 -3.20 -0.45 -0.60 -0.45 -0.85 0.05 -1.15 0.90 -0.60 10.75 -0.85 15.60 -0.45 l4.30 0.35 -0.85 1.45 c-1.35 2.25 -4.35 3.45 -8.45 3.40 -1.90 0 -4 -0.20 -4.70 -0.40z"/>
  <path d="M459.55 231.85 c-2.05 -6.30 -5.85 -15.45 -9 -21.80 -2.75 -5.45 -4.45 -10 -7.85 -20.80 -1.30 -4.10 -2.75 -7.95 -3.25 -8.45 -0.45 -0.50 -1.70 -1.10 -2.70 -1.25 -1.80 -0.30 -1.90 -0.40 -6.75 -9.95 -2.70 -5.25 -4.70 -9.70 -4.50 -9.85 0.20 -0.10 2.55 1.85 5.20 4.30 4.55 4.30 8.20 8.80 9.80 12.20 0.40 0.85 1.45 2.50 2.30 3.75 1.50 2.25 6.65 12.30 6.90 13.60 0.10 0.35 0.35 1.10 0.55 1.65 1.65 4.05 2.25 5.90 2 6.25 -0.15 0.25 -0.05 0.55 0.20 0.70 0.40 0.25 1.90 6.10 2.25 8.95 0.10 0.60 0.30 1.45 0.45 1.85 0.60 1.65 1.35 4.35 1.60 6 0.15 0.95 0.50 1.95 0.70 2.25 0.25 0.25 0.55 1.05 0.70 1.75 0.40 1.90 0.65 2.85 2.05 8.20 0.75 2.70 1.25 5.15 1.20 5.35 -0.10 0.25 -0.90 -1.85 -1.85 -4.70z"/>
  <path d="M291.80 139.90 c0.25 -1.45 0.40 -3.40 0.45 -4.25 0 -0.90 0.25 -1.65 0.50 -1.65 0.30 0 0.15 -0.25 -0.25 -0.50 -0.60 -0.40 -0.60 -0.50 -0.05 -0.50 0.50 0 0.60 -0.50 0.40 -2 -0.15 -1.20 -0.05 -2 0.25 -2 0.30 0 0.40 -0.60 0.25 -1.50 -0.20 -0.95 -0.10 -1.50 0.20 -1.50 0.30 0 0.45 -0.45 0.30 -1 -0.15 -0.55 -0.05 -1 0.25 -1 0.30 0 0.40 -0.65 0.30 -1.50 -0.15 -0.80 0 -1.50 0.25 -1.50 0.25 0 0.35 -0.95 0.25 -2.25 -0.15 -1.30 -0.05 -2.25 0.20 -2.25 0.30 0 0.40 -0.80 0.30 -1.75 -0.10 -0.95 0 -1.75 0.25 -1.75 0.25 0 0.35 -0.65 0.25 -1.50 -0.15 -0.80 -0.05 -1.50 0.20 -1.50 0.25 0 0.30 -0.55 0.10 -1.25 -0.20 -0.80 -0.10 -1.25 0.30 -1.25 0.35 0 0.50 -0.40 0.35 -1 -0.15 -0.55 -0.05 -1 0.25 -1 0.30 0 0.40 -0.45 0.25 -1 -0.15 -0.50 0 -1.05 0.25 -1.10 0.25 -0.10 0.55 -0.80 0.55 -1.55 0.05 -0.75 0.30 -1.35 0.55 -1.35 0.20 0 0.30 -0.45 0.15 -1 -0.15 -0.55 -0.05 -1 0.25 -1 0.30 0 0.40 -0.35 0.20 -0.75 -0.15 -0.40 0 -0.75 0.25 -0.75 0.30 0 0.45 -0.45 0.30 -1 -0.15 -0.55 -0.05 -1 0.25 -1 0.30 0 0.40 -0.45 0.25 -1 -0.15 -0.55 -0.05 -1 0.25 -1 0.30 0 0.40 -0.45 0.25 -1 -0.15 -0.55 -0.05 -1 0.25 -1 0.25 0 0.30 -0.45 0.15 -1 -0.20 -0.60 -0.10 -1 0.25 -1 0.35 0 0.50 -0.35 0.30 -0.75 -0.15 -0.40 -0.10 -0.75 0.15 -0.75 0.20 0 0.30 -0.55 0.15 -1.25 -0.15 -0.80 0 -1.25 0.40 -1.25 0.45 0 0.55 -0.60 0.35 -2 -0.15 -1.20 -0.05 -2 0.25 -2 0.30 0 0.40 -0.65 0.30 -1.50 -0.15 -0.80 0 -1.50 0.25 -1.50 0.25 0 0.35 -0.45 0.20 -1 -0.15 -0.55 -0.05 -1 0.25 -1 0.30 0 0.40 -0.45 0.25 -1 -0.15 -0.55 -0.05 -1 0.25 -1 0.30 0 0.35 -0.55 0.20 -1.25 -0.20 -0.75 -0.10 -1.25 0.20 -1.25 0.35 0 0.45 -1.15 0.30 -3.25 -0.10 -2 0 -3.25 0.30 -3.25 0.30 0 0.40 -0.55 0.30 -1.25 -0.15 -0.70 -0.05 -1.25 0.25 -1.25 0.25 0 0.35 -0.55 0.25 -1.25 -0.15 -0.70 -0.05 -1.25 0.25 -1.25 0.25 0 0.35 -0.45 0.20 -1 -0.15 -0.55 -0.05 -1 0.25 -1 0.25 0 0.30 -0.20 0.15 -0.50 -0.15 -0.25 -0.05 -0.50 0.25 -0.50 0.35 0 0.45 -0.60 0.20 -1.75 -0.20 -1.25 -0.15 -1.75 0.30 -1.75 0.45 0 0.55 -0.50 0.35 -1.50 -0.20 -0.95 -0.10 -1.50 0.20 -1.50 0.30 0 0.45 -0.45 0.30 -1 -0.15 -0.55 -0.05 -1 0.25 -1 0.30 0 0.40 -0.35 0.20 -0.75 -0.15 -0.40 -0.10 -0.75 0.15 -0.75 0.55 0 1.65 -2.45 1.30 -3 -0.15 -0.20 0.10 -0.55 0.55 -0.70 0.40 -0.15 0.60 -0.50 0.45 -0.80 -0.15 -0.25 -0.05 -0.50 0.25 -0.50 0.30 0 0.45 -0.20 0.25 -0.45 -0.15 -0.25 0.25 -0.85 0.85 -1.25 0.60 -0.45 0.90 -0.80 0.65 -0.80 -0.20 0 0.10 -0.55 0.75 -1.25 0.65 -0.70 1.45 -1.25 1.85 -1.25 0.35 0 0.90 -0.45 1.25 -1 0.35 -0.55 0.85 -1 1.05 -1 0.25 0 0.75 -0.35 1.15 -0.75 0.45 -0.40 1.35 -0.90 2.10 -1.10 0.75 -0.15 1.45 -0.45 1.60 -0.65 0.15 -0.20 0.95 -0.55 1.85 -0.70 l1.55 -0.35 -1.75 6.65 c-0.95 3.65 -2.65 9.45 -3.70 12.90 -1.10 3.45 -2.75 9.85 -3.70 14.25 -3.55 16.30 -6.25 26 -9.25 33 -1.90 4.60 -4.15 11.05 -9.20 26.40 -5.10 15.55 -6 17.85 -6.85 17.85 -0.95 0 -1 -0.20 -0.65 -2.60z"/>
  <path d="M367.10 127.95 c-1.20 -0.50 -2.85 -1.45 -3.70 -2 -1.55 -1.15 -5.40 -5.75 -5.40 -6.50 0 -0.90 3.15 -0.45 4.50 0.70 0.80 0.60 2.05 1.50 2.75 2.05 1.15 0.80 4.75 5.75 4.75 6.55 0 0.40 -0.60 0.25 -2.90 -0.80z"/>
  <path d="M351.75 62.20 c-2.45 -3.50 -5.05 -7.90 -5.85 -9.80 -0.75 -1.95 -1.40 -3.60 -1.40 -3.70 0 -0.10 1.10 0.50 2.50 1.35 3.50 2.15 6.35 5.55 8.50 10.20 2.65 5.65 2.70 6.05 1.60 7.25 -0.95 1 -0.95 1 -5.35 -5.30z"/>
  <path d="M345.25 40.25 c-4.80 -2.75 -4.90 -2.85 -5.95 -5.95 -1.05 -3.20 -1 -3.45 0.35 -2.75 0.60 0.35 1.15 0.60 1.25 0.55 0.50 -0.35 1.85 0.15 4.40 1.70 1.60 0.95 3.35 1.80 3.80 1.85 0.65 0.05 0.70 0.25 0.35 0.95 -0.25 0.50 -0.35 2 -0.15 3.40 0.20 1.35 0.25 2.50 0.15 2.50 -0.15 0 -2 -1 -4.20 -2.25z"/>
 </g>
 <g fill="#d4efe8">
  <path d="M385.25 318.70 c-0.75 -0.55 -1.70 -0.65 -4.10 -0.40 -3.05 0.30 -3.10 0.30 -3.85 -1.20 -0.45 -0.85 -1.30 -3.40 -2 -5.70 -1.20 -4.15 -1.20 -6.25 0 -10.10 0.55 -1.65 13.75 -6.80 17.60 -6.80 1.45 0 3.55 0.75 7.45 2.70 6.25 3.15 9 5.35 10.90 8.65 0.75 1.35 1.80 3.10 2.35 4 l0.95 1.60 -1.65 0.45 c-0.90 0.25 -7.20 2.10 -13.95 4.05 -6.80 1.95 -12.45 3.55 -12.50 3.55 -0.10 0 -0.65 -0.35 -1.20 -0.80z"/>
  <path d="M291.75 233.65 c-0.50 -5.40 4.20 -52 5.35 -52.90 0.10 -0.05 1.20 -0.25 2.50 -0.40 l2.40 -0.35 2.85 3.05 c1.60 1.65 3.30 3.65 3.80 4.40 1.15 1.85 2.85 11.65 2.85 16.55 0 8.45 -2.70 19.45 -5.95 24.30 -3.95 5.90 -7.85 8.70 -12.10 8.70 -1.30 0 -1.35 -0.15 -1.70 -3.35z"/>
  <path d="M372.15 229.30 c-2.45 -2.80 -3.65 -6.25 -4 -11.90 -0.25 -3.40 -0.10 -4.85 0.55 -6.55 0.95 -2.50 2.95 -4.60 4.85 -5.05 3.20 -0.75 8.90 2.45 12 6.70 1.40 1.90 1.65 2.05 3.55 1.90 1.55 -0.10 2.30 -0.50 3.05 -1.45 1.30 -1.80 0.80 -3.75 -1.75 -7.05 -1.30 -1.65 -1.65 -2.30 -0.95 -1.80 5.30 3.70 7.65 18.35 4.10 25.35 l-1 1.90 -2.90 -0.40 c-3.15 -0.45 -13.40 -0.25 -14.70 0.30 -0.55 0.20 -1.45 -0.40 -2.80 -1.95z"/>
  <path d="M377.30 125.40 c-3.65 -5.65 -12.80 -24.20 -12.80 -26 0 -0.30 0.45 -1.05 0.95 -1.70 l0.95 -1.20 5.25 7.35 c2.85 4.10 7.25 10.45 9.75 14.20 4.20 6.20 4.55 6.90 4.25 8.60 -0.25 1.60 -0.50 1.90 -2.10 2.35 -3.15 0.85 -3.45 0.70 -6.25 -3.60z"/>
  <path d="M368.65 128.35 c-0.65 -0.25 -1.15 -0.80 -1.15 -1.15 0 -0.35 -1.20 -1.50 -2.60 -2.65 -1.45 -1.10 -3.25 -2.45 -4 -3 -0.70 -0.60 -1.55 -1.05 -1.90 -1.05 -1.35 0 -4 -8.10 -4 -12.30 0 -2.10 0.95 -6.70 1.40 -6.70 0.20 0 1.25 2.10 2.30 4.65 2.40 5.55 8.40 17.75 10.15 20.45 0.65 1.10 1.15 2.05 1.05 2.15 -0.10 0.05 -0.65 -0.10 -1.25 -0.40z"/>
  <path d="M386.55 103.65 c-2.30 -3.25 -4.30 -6.30 -4.45 -6.80 -0.20 -0.85 -0.10 -0.90 0.85 -0.35 3.25 1.70 7.40 7.75 7.90 11.40 0.15 0.85 0.15 1.60 0.05 1.60 -0.10 0 -2.05 -2.65 -4.35 -5.85z"/>
 </g>
</svg>