<?xml version="1.0" encoding="utf-8"?>
<!DOCTYPE svg PUBLIC "-//W3C//DTD SVG 1.0//EN" "http://www.w3.org/TR/2001/REC-SVG-20010904/DTD/svg10.dtd">
<svg version="1.0" xmlns="http://www.w3.org/2000/svg" width="994px" height="1406px" viewBox="0 0 994 1406" preserveAspectRatio="xMidYMid meet">
 <g fill="#e1bce8">
  <path d="M486.50 1334.70 c0 -0.20 0.40 -0.65 0.90 -1.05 0.80 -0.65 0.80 -0.70 -0.15 -0.45 -6.10 1.50 -21.05 1.55 -27.75 0.10 -16.40 -3.50 -32.20 -14.10 -41.45 -27.75 -4.85 -7.15 -8.85 -17.05 -10.30 -25.55 -0.45 -2.60 -1.60 -9 -2.50 -14.25 -0.95 -5.20 -2.20 -13 -2.75 -17.25 -0.55 -4.25 -1.25 -9.30 -1.55 -11.25 -0.70 -4.25 -4.30 -18.60 -5 -19.70 -0.35 -0.60 -0.40 -0.40 -0.15 0.60 0.25 1 0.10 1.35 -0.45 1.35 -1.45 0 -1.85 -3.05 -1.80 -14.75 0.05 -14.95 -1.05 -26.85 -3.55 -39.75 -2.50 -12.65 -4.75 -22.05 -5.75 -23.75 -1.15 -2 -5.20 -17.10 -6.30 -23.40 -0.70 -4.05 -1.65 -5.35 -4.20 -5.80 -1.40 -0.20 -2.15 -0.65 -2.60 -1.55 -1.75 -3.30 -5.15 -12.15 -5.15 -13.25 0 -1.30 0.75 -1.70 1.15 -0.60 0.10 0.30 0.35 0.50 0.45 0.35 0.35 -0.35 -2.55 -12.65 -3.15 -13.25 -0.30 -0.30 -0.60 -0.10 -0.75 0.65 -0.20 0.60 -0.70 1.10 -1.15 1.10 -0.60 0 -1.10 -1.10 -2 -4.45 -1.50 -5.75 -2.30 -6.60 -6.05 -6.25 l-2.75 0.25 -3.95 -6 c-2.15 -3.30 -4.35 -6.15 -4.90 -6.35 -1 -0.30 -3.40 0.95 -3.40 1.85 0 0.35 -1.15 0.45 -3.05 0.35 -2.85 -0.15 -3.15 -0.05 -4.10 1.25 -1.05 1.35 -1.05 1.45 -0.20 4.75 1.05 4.15 1.10 5.60 0.10 5.60 -0.40 0 -0.75 -0.30 -0.75 -0.60 -0.05 -0.35 -1.65 -1.65 -3.65 -2.90 -4 -2.50 -9.10 -6.55 -12.05 -9.65 -1.80 -1.90 -2 -2 -2.35 -1.10 -0.35 0.95 -0.35 0.95 -0.70 0.10 -0.40 -1 -0.30 -3.05 0.95 -19.60 0.45 -5.50 1 -14.05 1.30 -18.95 l0.50 -9 -1.25 -1.30 c-1 -1.05 -1.25 -1.80 -1.25 -3.80 0 -2.15 0.20 -2.75 1.50 -3.95 0.80 -0.80 1.50 -1.70 1.50 -1.95 0 -1 -2.85 -7.55 -6.20 -14.15 -1.90 -3.80 -3.30 -7.30 -3.30 -8.15 0 -1.50 0.70 -2.05 1.15 -0.85 0.20 0.45 0.30 0.45 0.30 -0.10 0.10 -1.80 8.25 -10.95 13.75 -15.40 1.90 -1.55 1.95 -1.65 1.25 -3 -0.40 -0.75 -3.05 -3.85 -5.90 -6.90 -13.15 -13.90 -17.90 -21.05 -26.20 -39.50 -1.45 -3.30 -4.30 -8.60 -6.30 -11.75 -7.95 -12.70 -13.70 -27.05 -19.30 -48.25 -0.75 -2.75 -2.20 -7.30 -3.30 -10.05 -5.25 -13.65 -8.50 -24.95 -11.65 -40.45 -1.25 -6.05 -2.80 -13.45 -3.50 -16.45 -2.90 -12.15 -4.30 -20.60 -5.80 -34.55 -0.40 -3.75 -1.30 -7.75 -2.75 -12.55 -3.60 -11.60 -4.75 -16.50 -7.20 -30.70 -0.55 -3.15 -1.50 -8.20 -2.05 -11.25 -1.65 -8.60 -2.50 -16.25 -2.85 -25.65 -0.15 -4.75 -0.50 -8.75 -0.75 -8.90 -0.20 -0.15 -0.40 0.10 -0.40 0.55 0 0.50 -0.25 0.65 -0.55 0.45 -0.65 -0.40 -0.30 -12.25 0.60 -20.70 0.50 -4.60 5.20 -21.45 9.05 -32.50 2.90 -8.30 12.50 -31.75 13.40 -32.75 0.45 -0.55 1.35 -2.55 1.95 -4.40 1.30 -4.10 5.75 -12.65 11.30 -21.85 5.15 -8.40 7.25 -12.60 8.95 -17.85 1.60 -4.85 2.70 -6.45 8.80 -12.85 4.05 -4.20 4.80 -4.80 6.30 -4.80 1.55 0 1.70 0.10 1.70 1.55 0 0.85 -0.20 1.95 -0.50 2.45 -0.25 0.50 -0.80 2.20 -1.25 3.75 -0.65 2.55 -0.65 3 0 4.30 0.45 0.80 1.35 1.60 2.05 1.75 1.90 0.50 3.15 -1.05 3.95 -4.90 0.35 -1.85 1.05 -4.05 1.55 -5 2.65 -5.25 11.45 -13.65 29.05 -27.80 4 -3.20 5.45 -4.10 6.70 -4.10 1.25 0 1.45 0.15 1 0.65 -0.45 0.60 0.80 0.75 7.25 1 l7.80 0.35 3.60 -3.30 c1.95 -1.85 4.90 -4.35 6.55 -5.60 4.10 -3.10 4 -2.95 3.25 -3.85 -0.55 -0.65 -0.45 -0.75 0.65 -0.75 0.70 0 1.90 0.25 2.60 0.50 1.15 0.45 1.50 0.30 2.80 -0.95 0.95 -1 1.45 -2 1.45 -3 0 -1.05 0.25 -1.55 0.75 -1.55 0.40 0 0.70 0.15 0.70 0.40 -0.05 0.20 -0.05 0.50 0 0.75 0 0.20 3.35 -1.30 7.45 -3.35 14.60 -7.30 20.45 -9.20 54.60 -17.90 13.05 -3.30 32.55 -8.25 43.25 -10.95 16.60 -4.25 28.25 -6.80 32.30 -7.10 0.95 -0.05 1.40 -0.85 0.45 -0.85 -0.25 0 -0.50 -0.20 -0.50 -0.50 0 -0.90 3.05 -0.55 4.55 0.55 l1.45 1.05 1.80 -1.80 c1.95 -1.95 2.70 -2.25 2.70 -1.05 0 0.40 0.15 0.75 0.40 0.75 0.35 0 10.40 -1.70 20.80 -3.50 8.40 -1.45 40.85 -2.70 58.80 -2.25 23.45 0.55 33.10 1.65 44.35 5.05 9.55 2.85 22.15 8.10 24.95 10.30 0.30 0.20 6.95 2.20 14.75 4.35 14.05 3.95 21.35 6.30 25.15 8.10 2.40 1.15 2.60 1.15 1.80 0.20 -0.55 -0.65 -0.40 -0.75 1 -0.75 1.30 0 3.60 1.50 12.20 7.90 16.20 12.15 21.90 15.95 33.05 21.85 3.05 1.60 6.65 3.65 8.10 4.55 2.30 1.45 2.85 1.60 5.25 1.40 l2.65 -0.30 5.25 7.40 c10.85 15.25 16.15 29.50 19.75 53.25 1.80 11.95 2.60 15.10 3.95 16.45 1.45 1.30 2.65 1.15 3.85 -0.50 0.90 -1.20 0.90 -1.45 -0.30 -8.75 -0.70 -4.10 -1.70 -10 -2.25 -13.05 -1.35 -7.65 -1.35 -7.70 0.65 -7.70 1.45 0 1.80 0.30 3.25 2.75 1.35 2.20 1.60 3.20 1.55 5.35 -0.10 3.45 2.90 10.05 12 26.65 7.30 13.20 17.35 33.10 20.25 40.05 2 4.70 5.80 18.25 11.05 39.20 3.45 13.70 5 21.70 7 35.50 1.35 9.40 2 11.10 4.40 11.40 0.95 0.10 1.50 -0.20 2.15 -1.20 0.80 -1.20 0.85 -1.75 0.25 -6.15 -0.35 -2.65 -0.75 -6.20 -0.90 -7.90 l-0.30 -3.15 1.70 0 1.75 0 1.85 6.20 c1.85 6.25 2.25 9 1.35 9.55 -0.25 0.15 -0.50 -0.10 -0.50 -0.55 0 -0.50 -0.10 -0.75 -0.25 -0.60 -0.15 0.10 -0.60 6.30 -1 13.70 -0.80 13.65 -2.10 29.90 -2.50 31.10 -0.15 0.35 -0.45 4.75 -0.75 9.75 -0.70 12.25 -1.25 17.60 -3 27.35 -1.90 10.80 -1.90 10.95 -2.05 27.25 l-0.15 14 1.95 4.75 c1.10 2.70 3.40 10.70 5.25 18.35 l3.40 13.60 4.60 8.30 c4.45 7.90 4.75 8.35 7.10 9.55 2.05 1.05 2.45 1.10 2.70 0.45 0.70 -1.70 1.20 -0.55 1.20 2.65 0 3.10 -1.20 12.80 -1.75 14.65 -0.15 0.50 0.25 1.45 0.90 2.25 1.05 1.20 1.50 1.35 3.80 1.25 l2.55 -0.10 0 3.40 c0 1.85 -0.45 5.10 -1 7.15 -1.20 4.55 -1.30 8.15 -0.25 9 0.60 0.50 0.75 1.95 0.75 6.90 l0 6.25 2.55 4 c6.75 10.45 9.55 17.75 10.90 28.25 0.25 1.70 0.75 3.50 1.15 4 1.75 2 2.60 7.60 1.20 7.60 -0.40 0 -0.80 -0.40 -0.90 -0.85 -0.10 -0.60 -0.55 -0.20 -1.55 1.25 -1.05 1.60 -1.20 2.10 -0.60 2.10 1.25 0 0.85 1.80 -0.50 2.40 -0.70 0.35 -1.50 1.15 -1.85 1.85 -0.65 1.40 -1.90 1.70 -1.90 0.40 0 -0.70 -0.15 -0.65 -0.80 0.25 -1.15 1.65 -8.75 8.20 -12.05 10.40 -1.55 1 -4.55 2.75 -6.70 3.80 -2.20 1.05 -3.95 2.10 -3.95 2.30 0 0.25 0.25 0.65 0.60 1 1.55 1.55 -5.10 0 -9.25 -2.20 l-2.40 -1.25 -1.45 1.50 c-0.85 0.80 -1.50 2 -1.50 2.65 0 1.95 -0.60 3.40 -1.30 3.40 -0.40 0 -0.70 -0.30 -0.70 -0.60 0 -0.50 -2 -0.65 -8.40 -0.65 -6.30 -0.05 -9.35 -0.25 -12.50 -0.95 -2.25 -0.55 -4.20 -0.85 -4.35 -0.70 -0.15 0.10 0.45 2 1.30 4.20 3.45 9 4.80 18.45 3.95 28.60 -0.45 5.70 -0.40 7.40 0.50 13.65 l1 7.15 2.35 2.40 c2.05 2.05 2.50 2.30 2.95 1.65 0.85 -1.15 1.20 -0.90 1.20 1 0 1.20 0.45 2.25 1.55 3.50 1.75 1.95 1.75 2.15 0.20 8.75 -1.60 6.75 -1.15 47.55 0.75 68.50 0.95 10.35 3.60 25.15 6.75 37.60 1 3.75 1.25 6.10 1.25 10.65 0 3.20 -0.20 6.20 -0.45 6.65 -0.25 0.50 -0.15 2.85 0.25 5.85 1.50 10.60 1.70 13.95 1.70 28 0 8.40 0.30 18.10 0.75 23 1 11.60 1 19.55 0 19.95 -0.40 0.15 -1.25 1.30 -1.85 2.55 -0.70 1.40 -1.45 2.25 -2 2.25 -0.60 0 -0.80 -0.25 -0.55 -0.85 0.15 -0.50 -2.15 1.45 -5.15 4.35 -6.50 6.30 -10.35 9.10 -17 12.45 -19.10 9.65 -41.05 10.10 -59.50 1.30 -7.60 -3.60 -13.15 -7.35 -18.85 -12.80 -8 -7.50 -13.10 -15.15 -19.30 -28.75 -3.45 -7.55 -5.10 -12.35 -6.80 -20.05 -1.15 -5.20 -4.75 -15.55 -5.90 -17 -0.25 -0.35 -1 -0.65 -1.60 -0.65 -1.65 0 -10.45 -2.35 -14.25 -3.75 -3.85 -1.45 -4 -1.50 -4 -0.50 0 1.30 -1.35 0.80 -2 -0.75 -0.80 -1.95 -2.80 -3 -5.75 -3 -1.65 0 -2.25 -0.20 -2.25 -0.75 0 -0.40 0.40 -0.75 0.90 -0.80 0.65 0 0.70 -0.10 0.10 -0.30 -0.40 -0.15 -0.85 -0.45 -1 -0.65 -0.15 -0.15 -2.05 -1.65 -4.25 -3.25 -3.50 -2.60 -4.50 -3.05 -8.25 -3.80 -5.45 -1.15 -10.05 -2.50 -14.95 -4.40 -3.30 -1.25 -4.20 -1.45 -5.60 -1 -2.90 0.85 -10.45 1.90 -16.20 2.25 -4.40 0.30 -5.85 0.55 -7.25 1.45 -0.95 0.60 -3.85 2.15 -6.45 3.40 -2.55 1.30 -4.25 2.35 -3.80 2.35 0.50 0 0.75 0.30 0.65 0.90 -0.15 0.65 -0.90 0.95 -3.40 1.20 -3.35 0.40 -9.35 2.20 -14 4.25 -3.10 1.35 -7 2.05 -7 1.25 0 -0.30 0.30 -0.65 0.65 -0.80 0.30 -0.15 -0.95 -0.15 -2.90 0 -1.90 0.15 -5.50 0.45 -8 0.70 -3.55 0.30 -5.50 0.80 -9.25 2.35 -5.60 2.40 -12.95 4.35 -19.35 5.20 -7.95 1 -21.60 0.10 -27.80 -1.85 -0.95 -0.30 -1 -0.15 -0.65 3.35 0.30 3.85 1.50 11.75 3.55 23.70 0.65 3.85 1.55 9.35 2 12.20 0.75 4.75 1.65 8.20 1.70 6.70 0.05 -0.35 0.20 -0.65 0.45 -0.65 0.20 0 0.35 6.10 0.35 13.50 0 9.80 -0.15 13.50 -0.55 13.50 -0.35 0 -0.75 -0.60 -0.95 -1.35 -0.35 -1.25 -0.45 -1.10 -1.05 1.60 -2.40 11.40 -7.90 21.85 -16.20 30.85 -6.95 7.55 -18.30 14.80 -27.80 17.70 -4.35 1.30 -6.50 2.30 -4 1.85 1.05 -0.20 1.30 -0.10 1.30 0.80 0 0.90 -0.30 1.05 -2.25 1.05 -1.25 0 -2.25 -0.15 -2.25 -0.30z m46.60 -270.55 c0.40 -0.50 1.30 -2.15 2.05 -3.65 0.75 -1.50 4.25 -6.70 7.75 -11.50 5.55 -7.50 6.65 -8.75 7.90 -8.90 2.35 -0.20 3.60 -1.10 4.40 -3.15 1.80 -4.45 7.45 -27.25 7.90 -31.70 0.15 -1.25 0.40 -1.50 1.65 -1.60 14.70 -1.25 35.45 -5.60 53.75 -11.35 8 -2.50 13.55 -4.60 24.55 -9.25 4.05 -1.65 8 -3.05 8.85 -3.05 1.40 0 2.60 1.20 11.35 10.95 5.40 6.05 11.50 13.25 13.55 16 2.05 2.80 4 5.10 4.35 5.10 0.35 0.05 1.75 0.05 3.20 -0.05 2.20 -0.05 2.95 0.15 4.85 1.45 1.25 0.90 3.65 2.25 5.35 3.05 2.80 1.30 3.20 1.40 4.40 0.75 1.80 -0.90 2.75 -2.85 2.40 -4.75 -0.50 -2.40 -6.75 -14.95 -12.25 -24.65 -5.30 -9.25 -6 -11.40 -4.40 -13.50 0.50 -0.65 0.55 -1.40 0.25 -2.75 -0.25 -1 -0.45 -2.80 -0.45 -3.90 0 -2.05 0.05 -2.10 3.90 -4.35 5 -2.85 9.70 -6.60 17.90 -14.25 6.75 -6.25 9.70 -9.85 9.70 -11.95 0 -1.65 -2.45 -4 -4.60 -4.40 -1.20 -0.25 -1.95 -0.75 -2.30 -1.55 -0.30 -0.65 -1.15 -1.30 -1.85 -1.50 -1.70 -0.40 -3.10 0.85 -3.80 3.50 -1.10 4.25 -5.20 9.35 -8.05 10 -0.75 0.15 -2.30 1.35 -3.50 2.60 -1.20 1.25 -3.70 3.40 -5.60 4.75 -3.15 2.20 -3.75 2.45 -6.25 2.45 -2.70 0 -2.80 0.05 -5.50 2.95 -3.95 4.10 -6.05 5.55 -8.20 5.55 -2 0 -4.85 2 -4.85 3.45 0 1.55 -1.75 2.55 -9.05 5.40 -5.90 2.25 -7.55 2.70 -9.65 2.60 -2.20 -0.15 -3.15 0.15 -7.05 2.10 -5.55 2.80 -11.50 4.70 -24.75 7.90 -15.20 3.65 -25.10 5.55 -29.20 5.55 -1.65 0 -2.25 0.35 -3.90 2 -1.80 1.90 -2.20 2.10 -7.05 3 -6.95 1.35 -7.60 1.30 -9.30 -0.60 -1.45 -1.60 -1.50 -1.60 -3.65 -1 -5.20 1.50 -13.10 3.15 -18.75 3.85 -6.80 0.90 -10.85 0.50 -14.05 -1.30 -0.90 -0.55 -1.95 -0.95 -2.35 -0.95 -0.35 0 -1.35 -0.85 -2.20 -1.95 -1.45 -1.85 -1.65 -1.90 -5.40 -2.20 -3.85 -0.35 -3.90 -0.30 -5.25 1.15 -1.05 1.15 -1.80 1.50 -3.30 1.50 -2.25 0 -3.95 1.10 -4.90 3.20 -0.40 0.85 -1 1.95 -1.30 2.40 -0.50 0.70 -0.40 1.05 0.55 2.10 1.35 1.45 2.50 1.95 7.80 3.30 5.40 1.40 16 2.20 24.40 1.85 l6.85 -0.30 0 2.50 c0 6.10 -6.30 29.20 -8.50 31.20 -1.25 1.15 -1.25 2.50 0 3.75 1.35 1.35 1.25 3.50 -0.25 8.05 -1.55 4.55 -2.75 9.50 -2.75 11.50 0 2.75 3 4.45 4.60 2.60z m51.20 -180.15 c11.05 -0.50 15.80 -1.10 19.15 -2.30 1.75 -0.70 2.35 -1.20 3.15 -3 0.60 -1.40 1.25 -2.20 1.85 -2.20 0.45 0 5.70 -0.90 11.60 -1.95 12.40 -2.25 22.70 -4.80 28.10 -7 2.10 -0.80 6.60 -2.20 10.05 -3.05 7.40 -1.80 14.40 -4.55 24.05 -9.35 3.85 -1.95 9.35 -4.35 12.25 -5.40 7.15 -2.55 11.65 -4.95 15.10 -8.20 3.55 -3.25 4.45 -4.75 8.55 -14.15 1.75 -4 4.95 -10.30 7.10 -13.90 2.10 -3.60 4.35 -7.85 5 -9.40 0.60 -1.55 1.75 -4.15 2.45 -5.80 2.35 -5.15 3.70 -13.70 2.30 -14.55 -0.85 -0.55 -0.55 -5.80 0.75 -12 0.70 -3.30 1.50 -7.10 1.75 -8.50 0.20 -1.35 0.90 -4.50 1.45 -7 1.80 -8.05 3.65 -22.25 3.70 -28 0 -10 -4.35 -35.65 -7.65 -44.95 -0.60 -1.60 -1.50 -5.40 -2.05 -8.45 -0.55 -3.05 -1.45 -7.10 -1.95 -9.05 -1.45 -5.10 -1.30 -7.60 0.25 -5.45 0.65 0.90 0.65 1.10 0.05 -10.35 -0.45 -8 -1.25 -12.80 -2.70 -16.10 -0.80 -1.70 -2.25 -5.40 -3.30 -8.15 -1.80 -4.75 -2.05 -5.15 -5.30 -7.95 -3.95 -3.40 -10.50 -8.05 -18.25 -12.90 -3 -1.95 -8.35 -5.50 -11.80 -7.90 -7.45 -5.20 -9.65 -6.35 -20.20 -10.55 -4.40 -1.70 -10.15 -4.20 -12.75 -5.50 -4.20 -2.10 -11 -4.45 -12.95 -4.45 -0.55 0 -0.55 0.15 -0.05 0.75 0.55 0.65 0.40 0.75 -0.80 0.75 -0.95 0 -3.65 -1.45 -7.95 -4.30 -10.40 -6.85 -20.50 -11.35 -28.65 -12.75 -2.90 -0.50 -3.70 -0.90 -5.85 -2.85 -5.25 -4.75 -10.05 -7 -17.65 -8.40 -6.05 -1.05 -23.15 -1.45 -31.85 -0.70 -6.35 0.55 -26.75 1.35 -44.35 1.75 -3.75 0.10 -7.25 0.40 -7.85 0.70 -0.55 0.30 -1.20 1.30 -1.45 2.20 l-0.40 1.60 -8.45 2.10 c-9.75 2.40 -11.25 2.55 -13.20 1.10 l-1.45 -1.05 -8.65 4.35 -8.70 4.40 -13.50 13.55 c-13.95 14.05 -25.15 25.95 -30 32.05 -3.40 4.20 -7.75 10.70 -7.75 11.55 0 0.35 0.55 1.10 1.25 1.75 1.90 1.80 1.65 3.75 -1.20 8.85 -5.35 9.70 -9.55 18.75 -9.55 20.80 0 0.55 0.50 1.50 1.05 2.10 0.90 1 1.40 1.10 3.50 0.85 2.40 -0.30 2.45 -0.25 2.45 1.05 0 2.25 -1.65 7.50 -2.80 8.90 -0.85 1.05 -1.20 2.30 -1.40 5.25 -0.35 4.25 -0.80 8.15 -2.25 19.15 -1.80 13.40 -2.25 19.70 -2.25 32 0 14.10 0.60 18 4.10 27.05 1.60 4.10 2.15 6.35 2.60 10.70 1.65 16.35 5.15 26.45 15.20 44.25 9.80 17.20 11.20 19.90 12.50 23.25 1.25 3.30 2.05 4.60 5.40 8.80 0.70 0.95 2.95 4.50 4.90 7.95 4.85 8.35 7.45 12 11.95 16.65 8.25 8.55 22.50 15.80 35.45 18.15 4.10 0.70 24.85 1.75 33.10 1.65 12.80 -0.20 24.95 0.05 29.50 0.60 4.45 0.50 14.60 1.10 23 1.35 1.25 0.05 6.80 -0.15 12.30 -0.40z"/>
  <path d="M544.50 1031.85 c0 -0.90 0.70 -3.65 1.50 -6.10 1.60 -4.70 1.60 -5.55 0 -7 -1.25 -1.15 -1.25 -2.05 0.05 -8.75 l1.10 -5.50 4.65 0 4.70 0 0 1.70 c0 2.15 -1 6.95 -3.30 16.30 -1.70 6.70 -2 7.40 -3.75 9.15 -1.35 1.30 -2.35 1.85 -3.45 1.85 -1.35 0 -1.50 -0.15 -1.50 -1.65z"/>
  <path d="M683.40 1000.90 c-6.65 -7.45 -6.60 -7.40 -8.75 -7.40 -1.80 0 -2.15 -0.25 -4.45 -3.05 -5.60 -6.95 -7.40 -8.95 -8.50 -9.70 -0.85 -0.55 -1.20 -1.25 -1.20 -2.45 0 -1.50 0.20 -1.70 2.15 -2.30 1.15 -0.30 3.55 -1.25 5.30 -2.05 1.75 -0.80 3.90 -1.45 4.80 -1.45 1.55 0 1.75 0.25 3.80 4.15 1.15 2.25 4.30 7.95 6.95 12.60 6.40 11.20 7 12.45 7 14.25 0 1.40 -0.15 1.50 -1.70 1.50 -1.55 0 -2.15 -0.45 -5.40 -4.10z"/>
  <path d="M541.75 875.50 c-3.30 -0.25 -7.20 -0.65 -8.70 -0.95 -1.45 -0.30 -2.75 -0.55 -2.85 -0.55 -0.10 0 -0.20 -0.70 -0.20 -1.55 0 -1.25 0.15 -1.45 0.65 -1 0.55 0.40 1.55 0.10 4.35 -1.25 13.35 -6.45 28.85 -11.85 43.20 -14.95 12.25 -2.65 47.90 -7.70 67.25 -9.50 10.75 -1 11.05 -1 11.05 0.20 0 0.80 -1.05 1.30 -5.60 2.80 -7.25 2.40 -13.30 4.85 -28.15 11.50 -16.25 7.25 -19.55 8.30 -26.60 8.65 -5.15 0.20 -5.65 0.15 -6.95 -0.85 -1.70 -1.35 -2 -1.30 -3.45 0.20 -1 0.95 -1.25 1.70 -1.25 3.65 l0 2.45 -4.10 0.55 c-5.45 0.75 -31 1.15 -38.65 0.60z"/>
  <path d="M471.75 870.10 c-5.65 -2.45 -11.15 -5.70 -14.40 -8.55 -1.45 -1.30 -1.85 -2 -1.85 -3.35 0 -1.55 0.15 -1.70 1.45 -1.70 0.90 0 3.30 1.20 6.45 3.15 2.75 1.70 7.85 4.60 11.30 6.35 6.10 3.15 6.30 3.30 6.30 4.90 0 1.50 -0.10 1.60 -1.85 1.60 -1.15 0 -4.10 -0.95 -7.40 -2.40z"/>
  <path d="M484 864.30 c-7.30 -3.05 -14.40 -7.05 -25.10 -14.15 -5.10 -3.35 -7.90 -5.55 -7.90 -6.10 0 -0.85 -2.85 -5.15 -3.60 -5.45 -0.80 -0.35 -9.45 -12.20 -11.65 -15.95 l-2.30 -3.90 0.30 -4.60 c0.35 -4.45 0.30 -4.65 -0.95 -5.90 -0.95 -0.95 -1.75 -1.25 -3.45 -1.25 l-2.25 0 -1.80 -4.20 c-1.95 -4.55 -2.25 -7.15 -1.05 -9 0.75 -1.10 0.65 -1.30 -2.30 -4.60 -6.65 -7.30 -10.50 -19.60 -12.70 -40.40 -1 -9.50 -1.45 -25.95 -1 -35.40 0.30 -6.85 0.45 -7.90 1.20 -7.90 0.60 0 1.40 2 3.40 8.65 3.15 10.30 4.20 14.75 5.90 24.35 0.70 4 1.85 9.30 2.55 11.75 5.55 19.60 7 25.50 9.70 39.65 1.55 8.20 4.50 19.60 5.80 22.35 0.35 0.85 1.80 4.35 3.15 7.90 2.80 7.10 7.15 14.90 9.70 17.35 5 4.70 22.30 16.35 34.25 23.05 4.80 2.70 6.60 4 6.60 4.65 0 0.70 -4 0.15 -6.50 -0.90z"/>
  <path d="M634 863.20 c0 -1.65 0.15 -1.85 2.75 -3 1.55 -0.65 3.45 -1.20 4.25 -1.20 1.40 0 1.50 0.10 1.50 1.95 0 1.05 -0.30 2.15 -0.60 2.40 -0.80 0.65 -4.90 1.65 -6.60 1.65 -1.15 0 -1.30 -0.20 -1.30 -1.80z"/>
  <path d="M647 857.85 c0 -1.55 0.20 -1.75 2.15 -2.35 10.85 -3.25 15.30 -6.25 12.60 -8.50 -0.40 -0.35 -0.75 -1.15 -0.75 -1.80 0 -1.05 0.20 -1.15 1.20 -0.90 1.45 0.35 10.75 -1.40 15.30 -2.90 3.90 -1.30 7.70 -2.95 10.05 -4.35 1.50 -0.95 1.55 -1.05 0.50 -0.95 -1.70 0.20 -1.90 -1 -0.20 -1.35 0.75 -0.20 3 -0.85 5 -1.55 1.95 -0.65 4.15 -1.20 4.85 -1.20 1.10 0 1.30 0.20 1.30 1.50 0 1.05 -0.45 1.90 -1.35 2.70 -0.90 0.75 -1.40 1.80 -1.60 3.25 -0.30 2.05 -0.45 2.20 -3.80 4 -1.90 1.05 -7.55 3.25 -12.50 4.95 -8.30 2.80 -12.50 4.45 -23.50 9.30 -2.90 1.30 -4.70 1.80 -6.60 1.80 l-2.65 0 0 -1.65z"/>
  <path d="M706.50 816.70 c0 -0.60 14.15 -15.20 14.70 -15.20 0.15 0 0.30 0.85 0.30 1.90 0 1.70 -0.45 2.30 -6 7.75 -4.95 4.85 -6.25 5.85 -7.50 5.85 -0.80 0 -1.50 -0.15 -1.50 -0.30z"/>
  <path d="M724 775.35 c0 -1.80 1.40 -12.20 2.25 -16.85 1.40 -7.55 1.65 -9.60 2 -16.75 0.35 -8.15 0.95 -10.75 2.40 -10.75 0.95 0 1 0.25 0.70 10.90 -0.30 11.40 -0.60 13.40 -3.90 27.75 -1.35 5.70 -1.75 6.85 -2.55 6.85 -0.60 0 -0.90 -0.35 -0.90 -1.15z"/>
  <path d="M402 655.50 c0 -0.85 0.70 -3.20 1.55 -5.25 1.55 -3.65 1.65 -3.75 3.35 -3.75 l1.75 0 -0.35 3.60 c-0.15 1.95 -0.45 4.10 -0.60 4.75 -0.35 1.35 -1.95 2.15 -4.25 2.15 -1.30 0 -1.45 -0.15 -1.45 -1.50z"/>
  <path d="M414.70 650.65 c0.75 -7.90 5 -26.20 7.40 -31.75 0.85 -1.95 1.25 -2.40 2.25 -2.40 1 0 1.20 0.20 0.90 0.90 -0.85 1.95 -1.40 4 -5 18.85 -2.05 8.55 -3.90 16 -4.05 16.65 -0.20 0.60 -0.65 1.10 -1.10 1.10 -0.60 0 -0.70 -0.55 -0.40 -3.35z"/>
  <path d="M457.50 582.95 c0 -1.95 4.50 -4.45 7.90 -4.45 1.95 0 4.60 -1.50 4.90 -2.80 0.20 -0.75 0 -1.70 -0.50 -2.45 -0.45 -0.65 -0.80 -1.90 -0.80 -2.70 0 -1.40 0.20 -1.55 3.90 -2.75 3.90 -1.30 13.15 -3.65 23.60 -6.05 3.15 -0.70 9.35 -2.20 13.75 -3.30 7.75 -1.90 8.20 -1.95 16.75 -1.95 10.05 0 14.85 0.45 26.90 2.35 7.50 1.20 8.60 1.50 8.60 2.30 0 0.80 -0.40 0.90 -3.10 0.80 -1.90 -0.10 -7.45 0.60 -13.90 1.70 -5.90 1 -14.25 2.40 -18.50 3.10 -6.80 1.10 -29.95 6.65 -47 11.25 -3.15 0.85 -9.10 2.45 -13.25 3.45 -4.10 1.05 -7.90 2.10 -8.35 2.30 -0.70 0.30 -0.90 0.10 -0.90 -0.80z"/>
  <path d="M867.30 1233.40 c-0.55 -3.25 -2.45 -14.20 -2.85 -16.40 -0.70 -3.65 -1.45 -10.10 -1.45 -12.40 0 -1.80 0.20 -2.20 1.20 -2.60 0.65 -0.25 1.35 -0.70 1.55 -0.95 0.45 -0.75 2.65 -0.70 2.60 0.10 -0.05 0.30 0.35 2.85 0.90 5.60 0.80 4.05 1 7.05 1 15.70 0 8.05 -0.20 10.80 -0.65 10.95 -0.30 0.10 -0.60 0.50 -0.60 0.90 0 1.45 -1.45 0.65 -1.70 -0.90z"/>
  <path d="M301.55 1023.15 c-0.30 -1.05 -0.55 -2.10 -0.55 -2.30 0 -0.25 -0.65 -2.10 -1.50 -4.20 -0.80 -2.05 -1.50 -4.40 -1.50 -5.20 0 -1.30 0.15 -1.45 1.65 -1.45 1.50 0 1.75 0.30 3.75 3.85 1.95 3.50 2.10 4.05 2.10 7.45 l0 3.70 -1.75 0 c-1.55 0 -1.75 -0.15 -2.20 -1.85z"/>
  <path d="M304.85 1004.90 c-2.85 -4.90 -5.35 -10.45 -5.35 -11.90 0 -1.60 0.70 -2 1.20 -0.75 0.15 0.40 0.50 0.75 0.85 0.75 0.30 0 0.45 -0.35 0.25 -0.75 -0.20 -0.55 0.05 -0.75 0.85 -0.75 0.90 0 1.65 1.10 4.25 6.15 3.80 7.30 4 9 1.05 9.25 -1.70 0.15 -1.90 0 -3.10 -2z"/>
  <path d="M906.10 950.15 c-2.45 -5.15 -3.20 -7.55 -5.10 -16.35 -1.65 -7.40 -2.55 -8.80 -5.80 -8.80 l-1.75 0 0.30 -9.60 c0.35 -12.80 0.50 -14.15 2.35 -21 1.30 -5 1.70 -5.90 2.55 -5.90 0.65 0 0.85 0.25 0.65 0.75 -0.15 0.40 -0.05 0.75 0.20 0.75 0.55 0 4.30 5.20 6.65 9.25 2.45 4.25 5.20 11.45 6.45 16.85 0.85 3.70 1.05 6.35 1.10 12.90 0 8.70 -0.65 13.65 -2.80 20.35 -0.60 1.90 -1.05 3.80 -1 4.30 0 0.50 -0.30 0.85 -0.85 0.85 -0.60 0 -1.50 -1.30 -2.95 -4.35z"/>
  <path d="M859.85 649.60 c-2.90 -7.40 -3.50 -10.40 -2.15 -10.90 0.40 -0.15 1.10 -0.85 1.55 -1.50 0.80 -1.20 0.70 -1.65 -2.05 -9.85 -5.10 -15.45 -10.90 -28.65 -19.70 -44.60 -6.75 -12.35 -6.65 -12.10 -9.70 -22.70 -3.25 -11.45 -3.65 -12.10 -7.45 -11.70 l-2.60 0.25 -5.30 -9.20 c-11.65 -20 -15.95 -27.95 -15.95 -29.45 0 -1.70 0.30 -1.80 1.40 -0.50 0.50 0.50 3.55 3.25 6.85 6.05 3.30 2.80 7.95 7 10.35 9.30 2.85 2.70 4.65 4.05 5.15 3.90 0.55 -0.25 0.75 0.05 0.75 0.95 0 0.80 -0.60 1.65 -1.75 2.55 -2.45 1.90 -2.25 3.85 0.55 5.45 0.30 0.20 1.50 -0.35 2.65 -1.15 2 -1.45 4.55 -2 4.55 -1 0 0.30 -0.25 0.50 -0.50 0.50 -0.30 0 0.65 1.50 2.15 3.35 7.75 9.75 14.10 20.85 18.30 32 0.80 2.15 2.05 5.60 2.85 7.65 0.75 2.05 2.45 6.05 3.75 8.80 4.85 10.40 7.40 20 8.45 31.70 0.30 3.45 0.90 9.40 1.30 13.20 0.45 3.80 0.95 10.85 1.10 15.60 0.35 8.50 0.30 8.70 -0.65 8.70 -0.80 0 -1.50 -1.30 -3.90 -7.40z"/>
  <path d="M228 602.25 c0 -1.65 2.75 -9.45 6.35 -17.85 1.30 -3.20 1.50 -3.40 3.05 -3.40 1.55 0 1.60 0.10 1.60 2 0 1.35 -1.25 5.15 -3.85 11.50 l-3.85 9.50 -1.65 0 c-1.55 0 -1.65 -0.10 -1.65 -1.75z"/>
  <path d="M245 549.55 c0 -0.25 0.75 -1.55 1.65 -2.95 0.95 -1.35 1.80 -2.80 2 -3.20 0.30 -0.85 8.65 -11.90 10.55 -14 1.60 -1.80 1.80 -1.75 1.80 0.25 0 1.80 -0.90 3.25 -6.20 10.05 -1.95 2.50 -4.45 5.85 -5.50 7.45 -1.45 2.10 -2.25 2.85 -3.15 2.85 -0.60 0 -1.15 -0.20 -1.15 -0.45z"/>
 </g>
 <g fill="#000000">
  <path d="M441.75 1359.30 c-4.55 -0.85 -11.65 -3.05 -15.20 -4.65 -1.55 -0.70 -4 -1.45 -5.45 -1.70 -2.95 -0.40 -8.80 -3 -12.45 -5.50 -7.05 -4.80 -11.25 -9.90 -16.15 -19.50 -1.75 -3.40 -4.60 -8.20 -6.30 -10.60 -2.55 -3.55 -3.50 -5.45 -4.90 -9.75 -3.55 -11 -4.90 -18.05 -7.10 -37.10 -1.10 -9.25 -1.30 -13.25 -1.25 -22.50 0.05 -6.20 0.30 -13.70 0.60 -16.75 0.30 -3 0.65 -9.85 0.80 -15.15 0.40 -13.75 -0.55 -22.50 -4.35 -41.30 -0.80 -4.10 -2.05 -11.75 -2.75 -17 -2.55 -19.20 -4.55 -26.65 -10.80 -40.85 -2.20 -5.05 -4.85 -11.20 -5.85 -13.70 l-1.80 -4.50 -1.85 14.60 c-3.75 29.45 -4.20 32.15 -5.60 33.55 -0.70 0.70 -2.10 1.40 -3.15 1.55 l-1.90 0.30 -0.65 5.75 c-1.25 11.20 -3.15 24.75 -3.75 26.15 -0.65 1.60 -2.70 2.85 -4.80 2.85 -0.80 0 -2.25 0.35 -3.20 0.75 -2.20 0.90 -4.95 0.25 -6 -1.40 -0.40 -0.60 -1 -3.20 -1.30 -5.75 -1.35 -10.25 -9.60 -39.25 -11.85 -41.60 -3.30 -3.45 -5.60 -11.75 -6.30 -22.50 -0.25 -4.25 -0.65 -10.80 -0.90 -14.50 -0.45 -7.45 0.05 -26.45 1 -36.05 0.30 -3.40 0.45 -8.10 0.30 -10.45 -0.30 -5.20 -4.85 -28.15 -6.35 -32.25 -1.30 -3.45 -7.15 -15.90 -15.25 -32.50 -3.10 -6.30 -7.80 -16.80 -10.50 -23.25 -2.65 -6.45 -6.80 -16.45 -9.15 -22.15 -2.35 -5.75 -6.05 -13.70 -8.20 -17.75 -10.60 -19.85 -19.95 -40 -23.85 -51.30 -2.25 -6.55 -14.55 -49.25 -17.45 -60.80 -3.40 -13.30 -7.60 -37.60 -8.60 -49.70 -1.40 -16.45 -1.15 -15.05 -4.25 -22.65 -2.35 -5.80 -2.80 -7.45 -2.55 -8.85 0.45 -2.30 2.35 -3.80 4.80 -3.80 l1.90 0 0.35 -3.35 c0.30 -3 -0.35 -8.70 -1.50 -14 -0.35 -1.40 -3.55 -3.25 -7.60 -4.35 -8.30 -2.25 -21.05 -10.25 -36.65 -23.10 -2.05 -1.70 -4.30 -3.25 -4.95 -3.45 -0.70 -0.20 -2.40 -1.45 -3.75 -2.75 -1.40 -1.30 -4 -3.30 -5.80 -4.50 -1.80 -1.20 -4.60 -3.20 -6.25 -4.50 -2.55 -1.95 -3.30 -2.30 -4.65 -2.10 -2.35 0.30 -3.70 -0.15 -6.25 -2.25 -3.65 -3.05 -8.40 -9.15 -16.30 -20.90 -11.05 -16.40 -16.85 -26.40 -21.80 -37.60 -4.70 -10.65 -6.10 -13.70 -8.35 -18.65 -12 -25.90 -15.50 -39.55 -15.60 -60 -0.05 -8.60 0.45 -11.15 2.65 -13.60 1.45 -1.60 3.70 -2.10 5.65 -1.20 0.70 0.30 0.85 -0.05 1.15 -2.55 0.45 -4.10 1.70 -10.50 3.85 -19.80 0.85 -3.60 2.25 -7.95 3.15 -9.75 0.90 -1.85 1.80 -4.60 2 -6.10 1.30 -10.75 10.55 -22.60 36.75 -47.25 5.95 -5.60 11.50 -10.45 12.25 -10.75 1.10 -0.40 1.80 -0.35 3.25 0.40 l1.85 0.90 3.20 -2.95 c3.80 -3.50 9.95 -7.65 20.20 -13.60 4.15 -2.40 11 -6.65 15.25 -9.45 7.60 -4.95 7.80 -5.05 10.70 -5.05 2.70 0 3 0.10 4.30 1.70 1.15 1.35 1.80 1.70 3.55 1.75 3.10 0.15 4.65 2.10 4.35 5.40 -0.20 1.75 -0.10 2.40 0.40 2.40 1.05 0 2.70 2.55 2.70 4.20 0 0.85 -0.45 2.25 -1 3.05 -0.55 0.85 -1 1.90 -1 2.35 0 0.45 -0.90 1.60 -2.05 2.50 -8.35 6.75 -8.30 6.65 -8.05 8.65 0.25 2.20 -0.65 4.10 -2.45 5 -3.45 1.80 -5.65 4.85 -8.30 11.25 -4 9.85 -4.40 11.25 -3.65 13.55 0.75 2.25 0.10 4.40 -1.80 5.90 -1.80 1.40 -2.65 6.10 -1.55 8.05 0.95 1.60 1.10 4.10 0.30 5.60 -0.30 0.55 -1.30 1.30 -2.20 1.70 l-1.65 0.65 -0.35 4.65 c-0.20 2.55 -0.40 14.55 -0.40 26.65 -0.10 21.90 -0.10 22.05 1.25 29.90 1.60 9 1.70 10.95 0.65 12.50 -0.65 1.05 -0.50 1.55 2.20 7.15 3.85 7.95 11.40 21.65 12.85 23.20 0.60 0.70 2.45 3.30 4.10 5.75 4.20 6.30 11.05 14.65 16.35 20.05 4.50 4.60 9.10 8.05 9.80 7.35 0.20 -0.25 1.10 -2.55 1.90 -5.20 0.85 -2.65 2.25 -6.50 3.10 -8.50 1.15 -2.85 1.85 -6 3 -13.80 1.50 -10.50 3.40 -18.65 6.05 -26.40 2.35 -6.95 7.35 -17.90 8.55 -18.85 1.50 -1.20 4.40 -1.15 6 0.10 2.40 1.90 2.25 3.55 -1.05 11 -3.90 8.80 -8.10 21.45 -8.10 24.35 0 0.35 1.25 -0.30 2.75 -1.45 2.20 -1.65 3.50 -3.25 6.55 -8.35 4.05 -6.60 11.30 -17.05 15.70 -22.55 1.45 -1.80 3.45 -4.70 4.50 -6.50 1.95 -3.35 3.20 -4.75 5.10 -5.70 0.60 -0.30 3.25 -3.50 5.90 -7.10 17.90 -24.60 30.55 -37.35 47.85 -48.30 14.30 -9.05 36 -21.65 43.80 -25.45 1.85 -0.90 3.35 -1.85 3.35 -2.05 0 -0.20 -0.45 -0.85 -1 -1.40 -0.55 -0.55 -1 -1.35 -1 -1.75 0 -0.40 -0.60 -0.85 -1.35 -1.05 -7.65 -1.65 -12.90 -5.65 -13.50 -10.15 -0.25 -1.75 -0.10 -2.20 1.25 -3.55 1.15 -1.15 2 -1.50 3.35 -1.50 1.60 0 2.20 0.35 4.15 2.50 1.40 1.55 2.90 2.70 4.05 3 0.95 0.25 1.80 0.40 1.90 0.30 0.10 -0.10 -0.20 -2.55 -0.70 -5.45 l-0.85 -5.30 -1.65 1.50 c-3.35 2.95 -7.25 1.05 -7.85 -3.85 -1.10 -9.15 -1.30 -18.30 -0.85 -45.95 0.45 -28.50 0.50 -29.90 2 -42.25 1.40 -11.45 1.60 -14.95 2.05 -34.25 0.45 -22.70 1.25 -33.30 3.25 -45.30 0.85 -5.20 1.15 -8.25 0.95 -10.50 -0.30 -3.15 -0.30 -3.25 1.50 -5.40 1 -1.15 1.80 -2.50 1.80 -2.90 0 -0.40 1.60 -5.45 3.50 -11.20 3.65 -10.85 3.85 -11.75 2.95 -12.05 -0.50 -0.15 7.05 -24.45 10.80 -34.90 0.65 -1.80 2.20 -6.05 3.40 -9.50 1.25 -3.45 2.95 -8 3.80 -10.15 3.95 -9.95 5.70 -16.05 9.60 -33.85 1.40 -6.45 3.75 -15.70 5.20 -20.50 1.40 -4.80 3.35 -11.60 4.30 -15.10 1.45 -5.50 1.85 -6.40 2.70 -6.40 0.80 0 1.20 -0.65 1.95 -3.25 1.70 -5.90 5.05 -6.95 9.30 -2.90 1.35 1.25 2.70 2.95 3 3.70 0.35 0.75 1.05 1.45 1.65 1.55 0.70 0.10 1.25 0.85 1.80 2.50 0.95 2.80 1.85 3.70 5.60 5.85 l2.80 1.55 -0.25 -1.25 c-0.40 -2.10 0.30 -3.90 1.40 -3.60 0.50 0.15 1.05 -0.05 1.20 -0.45 0.15 -0.35 1.10 -0.90 2.20 -1.25 1.60 -0.45 2.20 -0.40 3.45 0.20 1.85 1 2.45 2.45 3.10 7.75 0.65 5 3.60 12.85 6.75 17.95 3.50 5.55 5 8.90 7.75 16.80 3.85 11.05 5.10 14.10 8.90 21.60 3.15 6.25 5.50 9.75 6.25 9.50 1.05 -0.35 2.50 1.20 6.15 6.40 1.95 2.90 3.65 5.95 4 7.35 0.50 1.85 2.35 4.65 8.05 12 11.75 15.05 19.30 26.25 27.80 41.10 3.05 5.30 4.70 7.70 5.95 8.50 1.40 0.95 2.65 3.05 6.85 11.30 4.90 9.65 5.20 10.10 6.60 10.10 1.95 0 3.75 0.90 4.45 2.20 0.30 0.55 1.90 5.30 3.55 10.55 4.05 12.65 5.55 16.75 8.85 23.40 3.55 7.20 7.55 16.55 7.95 18.70 0.15 0.90 0.50 1.80 0.75 1.90 0.20 0.15 0.30 0.60 0.10 1 -0.15 0.40 0 0.75 0.35 0.75 0.30 0 0.50 0.30 0.35 0.65 -0.10 0.30 0 1.15 0.25 1.85 0.30 0.70 0.55 1.80 0.65 2.50 0.10 0.70 0.60 2.60 1.05 4.25 0.45 1.65 1 4 1.20 5.25 0.20 1.25 1.45 6.10 2.75 10.75 1.30 4.70 3.35 13.20 4.50 19 1.75 8.65 2.20 10.30 2.65 9.40 0.75 -1.35 3.25 -2.35 4.95 -1.90 1.95 0.45 5.90 4.70 6.30 6.75 2.25 11.10 -7 24.55 -24.25 35.20 -2.15 1.30 -3.90 2.45 -3.90 2.55 0 0.05 1.05 -0.10 2.40 -0.30 1.30 -0.25 5.15 -0.65 8.60 -0.90 4.15 -0.30 6.80 -0.75 7.95 -1.35 1.50 -0.75 1.95 -0.75 3.25 -0.20 1.05 0.45 5.70 0.80 14.05 1.05 28.55 0.95 47 4.10 75.40 13.05 l6.45 2 1.30 -1.25 c2.15 -1.95 3.55 -2.50 5.70 -2.15 2.60 0.40 4.35 1.35 13.50 7.05 4.65 2.95 8.65 5.05 10.35 5.55 5.20 1.45 15.80 4.60 17.15 5.15 1.55 0.55 2.45 2.05 2.85 4.50 0.30 1.70 0.45 1.80 12.30 7.25 15.70 7.30 20.90 10.45 28.45 17.30 3.30 3 5.55 5.40 8.30 8.90 l1.25 1.60 9.60 -14.40 c10.65 -15.85 14.80 -23.25 15.60 -27.80 0.75 -4.15 0.65 -19.80 -0.15 -23.90 -0.35 -1.90 -1 -3.80 -1.45 -4.25 -2.60 -2.95 -1.85 -6.45 1.85 -8.15 1.20 -0.60 2.35 -1.35 2.45 -1.70 0.15 -0.30 0.20 -3.30 0.15 -6.55 -0.10 -4.80 -0.35 -6.85 -1.40 -10.25 -0.70 -2.35 -1.90 -8.75 -2.65 -14.25 -1.55 -11.90 -1.60 -12.10 -4.40 -20.75 -1.20 -3.70 -2.60 -8.40 -3.10 -10.40 -0.80 -3.05 -1.45 -4.20 -3.80 -7 -1.55 -1.85 -5.05 -5.30 -7.75 -7.70 -8.15 -7.10 -9.45 -8.60 -9.45 -10.90 0 -2 1.70 -4.50 3.10 -4.50 0.35 0 -1.55 -2.55 -4.25 -5.65 -6.40 -7.45 -8.90 -10.80 -9.25 -12.40 -0.25 -0.90 -0.95 -1.55 -2.35 -2.20 -4.55 -2.05 -5.85 -6 -3 -8.85 1.35 -1.35 1.80 -1.50 3.50 -1.25 1.45 0.20 1.90 0.10 1.65 -0.30 -2.15 -3.75 -7.15 -10.35 -10.15 -13.35 -2.90 -2.90 -5 -4.45 -9.25 -6.75 -3 -1.65 -6.10 -3.60 -6.85 -4.30 -1.85 -1.80 -1.90 -4.30 -0.15 -6.35 0.70 -0.85 1.25 -2.10 1.25 -3 0 -2.25 2.10 -4.10 4.80 -4.10 2.45 0 4.50 0.70 5.95 1.95 1.20 1.05 24.85 12 26.80 12.40 0.70 0.15 1.50 0 1.65 -0.30 0.20 -0.30 1.30 -0.55 2.40 -0.55 1.85 0 2.40 0.35 5.85 3.65 2.60 2.50 5.65 4.70 9.80 7.05 7 4 12.95 7.90 14.90 9.70 1 0.95 1.35 1.75 1.35 3.10 0 2.35 1.40 3.75 3.25 3.30 2.15 -0.55 5.40 1.35 10.10 5.80 2.40 2.30 6.20 5.75 8.40 7.65 8.30 7.10 12.95 11.65 17.10 16.65 3.90 4.65 4.40 5.10 5.95 5.10 2.55 0 3.75 1.50 6.20 7.80 5.55 14.30 13.45 41.90 12.70 44.35 -1.15 3.95 -6.30 5 -8.40 1.70 -0.45 -0.65 -2.05 -6 -3.55 -11.90 -1.55 -5.90 -4.05 -14.45 -5.60 -19.05 -2.60 -7.85 -2.85 -8.35 -4.65 -9.55 l-1.90 -1.20 2.95 11.30 c3.75 14.55 5.50 20.35 10.45 34.30 6.65 18.70 7.40 22.60 4.95 25.05 -1.95 1.90 -5.10 1.95 -6.75 0.05 -0.65 -0.75 -1.30 -2.20 -1.45 -3.25 -0.60 -3.50 -1.80 -7.40 -6.10 -19.35 -3.90 -11 -9.05 -27.85 -9.90 -32.35 -0.30 -1.50 -0.60 -1.90 -1.75 -2.15 -2.10 -0.45 -3.40 -2.25 -4.50 -6.20 -2.60 -9.35 -15.30 -29.95 -24.35 -39.60 -3.70 -3.95 -4.60 -4.25 -17.85 -6.50 -10.50 -1.75 -10 -1.75 -9.10 -0.30 0.40 0.60 1.55 3.90 2.55 7.35 1.25 4.20 2.45 7.25 3.75 9.25 1.10 1.65 2.30 4 2.75 5.25 0.45 1.20 1.25 2.75 1.85 3.40 0.85 0.85 1.10 1.80 1.20 4.10 0.05 2.75 0.40 4.10 1.95 7.75 0.35 0.85 1 2.35 1.40 3.35 0.45 1 1.35 2.35 2.05 2.95 0.65 0.60 1.50 1.75 1.85 2.65 0.35 0.85 1.50 2.45 2.60 3.50 3.40 3.35 4.20 6.25 7.90 27.55 1.65 9.30 1.65 9.80 1.70 24.50 0 8.25 -0.25 20.50 -0.60 27.25 -0.60 12.90 -1.10 15.70 -4.30 24.75 -0.70 1.95 -1.85 6.45 -2.55 10.10 -2.10 10.65 -4.15 14.90 -9.30 19.10 -2.75 2.25 -5.05 5.30 -5.65 7.55 -0.20 0.70 -2.15 3.30 -4.40 5.75 -2.25 2.50 -5.75 6.35 -7.80 8.65 l-3.75 4.15 1.10 2.60 c3.05 7.30 14.45 28.30 26.90 49.70 4.70 8.05 5.45 9.10 6.35 8.80 1.80 -0.60 3.90 -0.20 5.10 1 0.85 0.85 1.95 3.85 3.95 10.90 3.05 10.60 2.95 10.35 9.70 22.70 8.80 16 14.10 27.95 19.30 43.50 3.70 10.90 3.85 12.50 1.70 14.70 l-1.50 1.50 5.80 14.65 c3.25 8.05 5.90 14.70 5.95 14.75 0 0.05 0.95 -0.35 2.10 -0.90 2.40 -1.15 4.05 -0.95 5.70 0.85 1.10 1.20 1.15 1.60 1.25 10.60 0.10 11.10 0.60 15.75 2.65 24.45 0.85 3.55 2.20 10.25 3 14.95 0.85 4.65 2.30 11.95 3.25 16.20 1 4.25 2.80 13.60 4.05 20.75 2.40 13.60 6.90 37.90 7.80 41.75 0.60 2.70 1.60 39.05 1.20 43 -0.20 1.50 -0.65 3.85 -1.05 5.20 -0.90 3.15 -0.90 4.30 0 4.30 0.40 0 1.40 0.60 2.25 1.30 1.40 1.15 1.55 1.55 1.55 4.10 0 2.85 -2.60 20.80 -3.50 24.15 -0.30 1 -0.40 2.20 -0.20 2.60 0.15 0.40 -0.75 4.80 -2.05 9.70 -2.40 9.20 -2.55 10.40 -2.95 22.80 l-0.25 7.35 1.75 0 c2.45 0 4.40 2 4.90 5 1.05 6.80 3.55 15.10 6.40 21.25 5.90 12.70 11.90 28.95 11.90 32.25 0 0.75 -0.50 1.95 -1.05 2.70 -1.20 1.50 -1.25 0.70 1.10 12.30 2.40 11.95 3.55 26.10 2.45 29.55 -0.55 1.65 -0.55 3.15 -0.05 8.60 0.35 3.65 0.85 14.70 1.05 24.60 0.25 9.90 0.70 19.45 1 21.25 0.30 1.80 1.90 9.45 3.55 17 4.60 20.70 4.50 24.05 -0.80 26.25 -1.30 0.55 -3.15 1.75 -4 2.60 -2.20 2.20 -4.25 2.20 -6.35 0.10 -1.10 -1.05 -1.70 -1.35 -2.05 -1 -1 1 -4.20 0.65 -5.55 -0.55 -1.65 -1.45 -3.15 -8.45 -2.30 -10.70 0.65 -1.60 -0.05 -8.95 -1.30 -14.10 -0.45 -1.70 -2.55 -7 -4.65 -11.75 -4.45 -9.95 -8.10 -15.65 -17.40 -27.20 -3.45 -4.35 -6.95 -9.25 -7.70 -10.90 -0.95 -2 -1.90 -5.60 -2.80 -10.60 -0.75 -4.20 -1.50 -7.65 -1.70 -7.65 -0.30 0 -2.35 6.50 -3.40 10.75 -0.30 1.10 -0.95 4.80 -1.55 8.25 -0.55 3.45 -1.70 9.65 -2.55 13.75 l-1.50 7.50 0.15 49.75 c0.20 49.50 0.20 49.80 1.35 56 0.65 3.45 1.85 8.85 2.65 12 2 7.55 2.20 9.70 1.15 11.30 -0.45 0.70 -1.35 1.45 -2.05 1.70 -1.25 0.50 -1.25 0.60 -0.95 3.90 0.30 3.30 0.50 4.45 2 12.15 1.80 9.30 2.25 14.30 2.60 27.45 0.60 25.65 -0.75 32.50 -9.45 48.80 -0.90 1.70 -2 3.75 -2.40 4.60 -1.95 4.15 -5.25 9.35 -6.90 11 -2.25 2.20 -6.65 4.05 -14.85 6.10 -6.05 1.55 -9.20 1.85 -10.05 1 -0.30 -0.30 -2.55 0.05 -6.45 1.05 -4.05 1 -7.80 1.60 -11.50 1.80 -5.30 0.25 -5.55 0.35 -7.15 1.85 l-1.65 1.55 -13.60 0.15 c-15.85 0.20 -24.85 -0.40 -27.70 -1.80 -1.05 -0.55 -3.85 -1.70 -6.25 -2.50 -5.45 -1.95 -7.95 -3.20 -11.20 -5.65 -2.25 -1.65 -2.85 -1.85 -4.40 -1.60 -2.60 0.40 -5.95 -1 -8.05 -3.50 -1.90 -2.20 -8.25 -14.65 -10.70 -20.95 -0.85 -2.10 -1.85 -5.95 -2.30 -8.50 -0.45 -2.55 -1 -5.75 -1.25 -7.05 -0.30 -1.35 -0.50 -3.55 -0.50 -4.95 0 -2.45 -0.05 -2.50 -0.90 -1.75 -1.10 1 -4.50 1.10 -5.65 0.20 -1.05 -0.80 -1.70 -2.15 -2.40 -5.10 -0.35 -1.35 -2.10 -6.30 -3.90 -11 -2.85 -7.40 -3.70 -9.05 -6.55 -12.75 -3.75 -4.85 -7.55 -9.35 -11.70 -13.90 -2.10 -2.25 -3.10 -3.80 -3.65 -5.75 -0.70 -2.50 -0.90 -2.70 -4.90 -5.10 l-4.10 -2.50 -4.25 0.15 c-7.35 0.20 -22 1.55 -28.50 2.65 -12.40 2.05 -27.70 6.65 -33.15 10 -2.55 1.50 -4.65 1.25 -6.75 -0.85 l-1.75 -1.75 -2.30 0.80 c-1.25 0.50 -4.85 2.10 -7.95 3.60 -3.75 1.80 -6.05 2.65 -6.80 2.45 -1.70 -0.40 -6.85 3.20 -9 6.45 -1.80 2.65 -1.60 3.15 0.45 1.30 2.40 -2.10 4.75 -2.10 6.80 -0.10 2.05 2.10 2 4.45 -0.20 6.90 -3.70 4.20 -6.05 7.90 -6.65 10.60 -0.90 3.75 -1.70 16.45 -1.70 26.55 -0.05 21.30 -2.40 36.75 -6.50 42.30 -0.80 1.15 -3.20 3.25 -5.25 4.70 -3.90 2.65 -15.80 8.60 -23.10 11.45 -2.25 0.90 -4.40 2 -4.70 2.40 -1 1.15 -3.85 2.45 -9.20 4.10 -9.35 2.90 -30.05 7.55 -33.50 7.55 -4.05 0 -10.35 1.50 -14.65 3.45 -7.75 3.50 -10.55 4.20 -18.35 4.35 -4.40 0.10 -8.30 -0.10 -10.50 -0.50z m4.50 -15.95 c1.55 -2.45 4.80 -3 6.95 -1.30 2.45 1.95 6.75 1.15 20.05 -3.55 12.70 -4.50 19.20 -6.25 32.25 -8.50 11.90 -2.10 16.55 -3.25 17.10 -4.20 0.65 -1.15 2.80 -2.10 5.55 -2.45 2.80 -0.40 6.95 -2.10 8 -3.25 1.10 -1.30 6 -21.75 5.70 -23.70 -0.15 -0.90 -0.70 -3.20 -1.25 -5.15 -1.45 -5.10 -2.10 -12.50 -2.10 -23.55 0 -10.40 0.35 -12.25 2.50 -12.95 0.60 -0.20 1 -0.75 1 -1.40 0.05 -3.10 1.05 -13.20 1.55 -15.25 0.75 -3 2.50 -5.50 6.65 -9.60 1.80 -1.75 4.15 -4.65 5.15 -6.40 2.95 -5.05 5.70 -6.65 8.70 -5.10 0.75 0.45 1.80 0.05 5.50 -2 7.75 -4.25 15.45 -7.50 17.80 -7.50 0.65 0 1.80 0.30 2.55 0.70 1.30 0.65 1.60 0.60 5.35 -1.55 8.30 -4.70 17.85 -8.30 24.25 -9.15 2.05 -0.30 12.30 -0.65 22.75 -0.85 17.40 -0.25 19.25 -0.25 21.70 0.60 2.30 0.75 2.95 0.80 4.65 0.20 1.55 -0.50 2.30 -0.50 3.60 -0.05 0.90 0.35 3.90 0.60 6.75 0.60 5.05 0 7.70 0.65 8.15 2.05 0.15 0.40 1.80 0.70 4.45 0.80 5.10 0.25 6.75 0.85 7.70 2.70 1.10 2.05 0.90 3.70 -0.55 5.40 -1.25 1.50 -1.45 1.55 -5.30 1.55 l-4 0 0.75 1.15 c0.55 0.85 1.20 1.10 3 1.15 3.10 0.05 4.70 1.20 5.40 3.90 0.50 2 0.70 2.20 2.45 2.50 2.55 0.40 5.05 3.25 9.55 10.90 4.95 8.30 10.45 20.35 10.45 22.80 0 1.10 3.05 5.05 6.25 8 1.75 1.65 6.70 5.75 10.90 9.05 9.15 7.20 11.65 9.70 13.85 14.20 1.35 2.80 1.95 3.45 3.10 3.70 1.90 0.35 3.90 2.80 3.90 4.75 0 1.15 -0.50 2.05 -1.95 3.40 l-1.90 1.85 3.05 0.60 c1.70 0.35 5.30 1.20 8.05 1.90 12.20 3.10 16.45 3.60 31.50 3.95 10.70 0.25 13.80 0.20 17.50 -0.45 6.05 -1.10 9.25 -2.10 11.50 -3.60 1 -0.70 2.50 -1.40 3.25 -1.55 1.90 -0.40 4.25 0.95 5 2.90 0.40 0.90 0.75 1.70 0.80 1.80 0.25 0.40 7.50 -3.30 8.25 -4.20 2.35 -2.80 3.80 -6.15 4.40 -9.95 0.90 -5.90 3.30 -16.10 4.55 -19.40 0.60 -1.60 1.50 -3.15 2.05 -3.50 1.20 -0.75 1.25 -4.85 0.20 -17.10 -0.40 -4.85 -0.75 -14.80 -0.75 -23.25 -0.05 -14.75 -0.20 -16.80 -1.75 -28.45 -0.70 -5.05 -0.75 -6.55 -0.25 -8.05 0.80 -2.50 0.35 -10.25 -0.95 -15.25 -5.85 -22.90 -7.70 -40.05 -8.35 -79.35 -0.30 -16.40 0.20 -26.70 1.45 -30.95 0.70 -2.25 0.65 -2.30 -0.75 -3.85 -1.70 -1.95 -1.75 -3.45 -0.35 -8.60 0.55 -2.05 1.30 -5.90 1.70 -8.55 0.75 -5.20 2.25 -9.70 3.65 -11.25 0.50 -0.50 1.15 -1.60 1.50 -2.45 0.70 -1.75 4.15 -20.70 5.40 -29.75 0.80 -5.55 1.05 -6.40 2.25 -7.60 1.75 -1.75 3.65 -1.80 6.80 -0.15 1.35 0.65 3.40 1.50 4.60 1.85 2.25 0.65 3.15 1.60 6.75 6.90 0.65 1 2.30 3.05 3.70 4.55 1.40 1.50 2.70 3.40 2.90 4.20 0.20 0.75 1.90 4 3.80 7.20 7.60 12.80 12.35 23.35 17.45 38.55 5.70 17.20 6 18.90 3.65 21.25 -0.85 0.85 -0.80 1.10 1.80 5.90 1.45 2.75 3.20 6.60 3.80 8.55 0.65 1.95 1.15 3.10 1.20 2.55 0 -2.05 -2.60 -15.65 -5.80 -30.15 -8.25 -37.30 -12.30 -62.30 -13.05 -80.20 -0.30 -6.80 -0.30 -6.80 1 -8.10 1.70 -1.70 3.70 -2.15 5.40 -1.20 l1.30 0.80 -1.20 -4.60 c-0.65 -2.50 -1.55 -4.95 -2 -5.40 -0.45 -0.50 -0.95 -2.30 -1.20 -4 -1.35 -10.50 -4.15 -17.80 -10.90 -28.25 l-2.55 -4 0 -6.15 c0 -5.15 -0.15 -6.35 -0.85 -7.15 -1.20 -1.30 -1.05 -6.35 0.30 -11.70 0.60 -2.25 1.05 -4.85 1.05 -5.80 l0 -1.75 -2.25 0.25 c-1.95 0.25 -2.35 0.10 -3.80 -1.30 -1.80 -1.80 -1.75 -1.45 -0.20 -11.80 1 -6.95 1.90 -24.95 1.50 -31.25 -0.30 -4.40 -0.50 -5.45 -1.40 -6.40 -1.05 -1.15 -1.10 -1.80 -1.45 -14.95 -0.15 -7.60 -0.55 -17.30 -0.85 -21.60 -0.30 -4.30 -0.80 -11.40 -1.05 -15.80 -0.30 -4.40 -1 -12.75 -1.50 -18.60 -1 -10.75 -1 -11.45 0.55 -13.65 0.80 -1.15 0.80 -1.90 0.15 -10.90 -0.35 -5.30 -1.15 -14.30 -1.70 -19.95 -1 -10.20 -1.05 -10.45 -4.45 -20.85 -1.85 -5.80 -4.50 -14.20 -5.85 -18.65 -1.30 -4.45 -2.45 -8.05 -2.55 -7.95 -0.10 0.05 0.30 3.45 0.90 7.45 1.05 7.20 1.05 7.35 0.10 8.95 -1.70 3 -6 3.10 -7.85 0.25 -0.45 -0.65 -1.30 -4.90 -2.05 -9.90 -2 -13.80 -3.55 -21.80 -7 -35.45 -5.25 -20.95 -9.05 -34.50 -11.05 -39.20 -2.90 -6.95 -12.95 -26.85 -20.45 -40.50 -3.75 -6.85 -8.10 -15.25 -9.60 -18.65 -2.35 -5.30 -2.75 -6.55 -2.50 -8.30 0.20 -1.60 0 -2.50 -1 -4.20 -0.70 -1.20 -1.35 -2.10 -1.50 -2 -0.10 0.15 0.15 2.20 0.55 4.65 2.10 12.10 3.30 19.85 3.30 21.15 0 2.35 -2 4.30 -4.40 4.30 -4.20 0 -4.95 -1.75 -7.35 -17.70 -2.55 -16.70 -6.15 -29.25 -11.45 -39.85 -3.75 -7.35 -13.15 -20.85 -14.30 -20.40 -2.10 0.90 -3.60 0.80 -5.55 -0.50 -1.10 -0.75 -5.45 -3.25 -9.70 -5.55 -9.65 -5.25 -17.65 -10.35 -26.10 -16.60 -3.60 -2.70 -11.60 -8.60 -17.75 -13.15 -20.30 -15 -27.90 -21.60 -30.15 -26.20 l-1.25 -2.60 -14.90 -2.10 c-17.95 -2.60 -31.75 -5 -42 -7.40 l-7.60 -1.75 -10.90 0.55 c-21.50 1.05 -36.40 2.40 -60.55 5.55 -6.75 0.85 -12.35 1.85 -13.20 2.30 -1.05 0.50 -2.30 0.70 -4.05 0.50 -2.30 -0.20 -7.25 0.20 -10.15 0.90 -1.10 0.25 -1.05 0.35 0.85 2.05 1.75 1.60 2 2.10 2 3.95 0 1.80 -0.25 2.40 -1.55 3.45 -1.95 1.65 -3.95 1.65 -6.35 0.05 -2.45 -1.60 -6.90 -2 -13.10 -1.25 -10.25 1.25 -9.30 1.30 -11 -0.45 l-1.60 -1.55 -11.30 3.30 c-43.20 12.55 -76.95 23.25 -86.85 27.55 -5.90 2.55 -11 5.55 -14.05 8.30 -2.30 2.10 -2.45 2.40 -2.30 4.30 0.20 1.75 0 2.25 -1.35 3.60 -1.45 1.45 -1.80 1.55 -3.95 1.30 -3.20 -0.35 -5.60 -2.90 -5.60 -5.90 0 -1.10 0.25 -2.50 0.55 -3.05 l0.60 -1.05 -1.70 1 c-0.95 0.55 -3.85 2.50 -6.45 4.30 l-4.75 3.35 0 2.25 c-0.05 3.20 -1.35 4.25 -7.75 6.25 -5.75 1.75 -6.05 1.95 -13.25 7.70 -17.05 13.65 -26.30 22.45 -28.95 27.70 -0.50 0.95 -1.20 3.20 -1.55 5 -1.05 5 -3.60 6.75 -7.20 4.85 -2.80 -1.45 -3.20 -5.65 -1.05 -11.45 l0.95 -2.55 -4.75 4.90 c-6.20 6.40 -7.40 8.10 -9 13 -1.70 5.25 -3.80 9.45 -8.95 17.85 -5.55 9.20 -10 17.75 -11.30 21.85 -0.60 1.85 -1.50 3.85 -1.95 4.40 -0.85 0.90 -8.80 20.20 -12.55 30.35 -2.35 6.40 -8.95 28.30 -9.45 31.40 -0.25 1.50 -0.80 7.95 -1.25 14.25 -1.25 18.50 -3.40 37.35 -5.80 50.75 -0.70 4.05 -0.95 6.65 -0.70 8.90 0.30 2.70 0.20 3.35 -0.75 4.90 -1 1.55 -1.10 2.40 -1.05 6.35 0.10 4.55 0.90 14.35 2.10 25.30 0.60 5.35 0.70 5.75 2.25 7.25 1.40 1.30 1.85 2.40 2.90 7 0.75 2.95 1.75 6.05 2.30 6.80 0.55 0.75 1.30 2.95 1.70 4.80 1.45 6.95 9.55 31.85 11.90 36.70 1.25 2.60 5.55 9.25 6.95 10.85 1.65 1.90 1.90 4.25 0.65 6.05 -0.90 1.30 -0.85 1.55 6.10 18.35 4.40 10.75 7.75 17.90 11.80 24.85 2 3.50 2.45 4.65 2.15 5.75 -0.40 1.60 -2.10 3.65 -3.10 3.65 -0.35 0 -0.65 0.15 -0.65 0.30 0 0.15 1.40 3.45 3.05 7.35 3.95 9.20 8.35 20.20 10.75 27.05 1.80 4.95 2.20 5.70 5 8.50 2.75 2.75 3.10 3.30 3.40 5.75 0.60 4.45 2.75 9.30 16.25 36.50 13.50 27.35 15.05 30.65 15.05 32.40 0 0.60 -0.70 1.95 -1.60 2.95 -2 2.25 -2.15 3.60 -0.50 5.30 0.85 0.90 1.25 1.95 1.25 3 -0.05 4.60 -2.45 37.40 -3.40 46.15 -1.25 11.65 -1.45 44 -0.30 51.50 1.65 10.95 3.80 20.50 5.50 24.25 l1 2.25 -0.30 -7 c-0.60 -11.85 -0.45 -28.75 0.25 -31.65 0.95 -4.15 2.95 -7.90 5.90 -11.10 2.50 -2.70 2.85 -3.30 4.25 -8.30 1.50 -5.35 1.50 -5.50 0.75 -8.25 -0.45 -1.50 -0.80 -3.85 -0.80 -5.15 0 -3.95 3.15 -6.25 6.70 -4.85 0.65 0.25 1.30 0 2.10 -0.75 0.60 -0.65 1.70 -1.30 2.40 -1.50 2.60 -0.65 4.05 0.60 8.15 6.80 3.30 5.10 4.05 5.90 4.90 5.60 0.55 -0.20 1.75 -0.30 2.65 -0.30 2.90 0.05 3.85 1.65 5.85 9.45 2.25 8.85 3 11.10 5.10 15.75 0.95 2.05 2.40 5.45 3.25 7.50 1.70 4.30 2.20 5.05 3.15 4.70 0.85 -0.35 3.60 1.10 4.20 2.20 0.25 0.50 0.70 2.35 1.05 4.10 1.10 6.40 5.15 21.30 6.25 23.25 0.70 1.25 1.95 5.70 3.20 11.75 2 9.35 2.30 10.90 3.50 17 1.65 8.75 3.10 28.95 2.70 38.75 -0.20 5.55 -0.05 7.50 1.05 13.25 3.35 18 6.30 45.35 6.30 58.75 0 6.10 -0.40 7.15 -3 8.25 -1.35 0.55 -1.50 0.85 -1.50 2.70 0 5.95 3.30 19.45 6.10 25 0.55 1.10 2.10 3.10 3.40 4.50 3 3.20 3.35 4.35 2.25 6.85 l-0.90 1.90 2.95 3.60 c1.60 1.95 3.60 4.05 4.40 4.70 2.40 1.80 18.55 6.10 28.90 7.70 0.20 0 0.70 -0.50 1.15 -1.10z m340.45 -28.30 c0.40 -0.60 -0.90 -1.05 -2.85 -1.05 -1.85 0 -7.65 -1.05 -13.85 -2.45 -13.15 -2.95 -15.60 -3.45 -19.25 -3.95 -2.20 -0.30 -4.45 -0.70 -5 -0.90 -0.80 -0.30 -0.75 -0.15 0.25 0.65 2 1.60 4.35 2.65 6 2.65 0.85 0 2.70 0.60 4.15 1.30 4.55 2.35 8 3.35 12.60 3.70 6.85 0.50 17.65 0.55 17.95 0.05z m-233.65 -15.95 c0.65 -2.55 1.20 -7.10 1.55 -13.35 l0.60 -9.50 -1.60 -3.35 c-0.90 -1.80 -1.75 -4.30 -1.90 -5.55 l-0.30 -2.25 -1.70 1.10 c-1.65 1.05 -1.65 1.05 -1.70 5.10 l0 4.10 1.65 0.30 c0.95 0.15 2.20 0.85 2.85 1.55 1.05 1.15 1.15 1.65 1.05 5.85 -0.10 7.35 -1.05 13.50 -3.35 22.65 -0.10 0.55 0.25 0.15 0.80 -0.90 0.60 -1.05 1.50 -3.65 2.05 -5.75z m191.40 -8.20 c-1.30 -3.35 -2.50 -5.30 -4.30 -6.95 -1.50 -1.45 -15.60 -12.45 -15.90 -12.45 -0.35 0 1.30 6.15 2.05 7.80 1.50 3.15 9.10 9.25 15.60 12.50 1.85 0.90 3.40 1.65 3.45 1.70 0.10 0 -0.35 -1.20 -0.90 -2.60z m-405.75 -189.15 c0.20 -1.90 0.45 -4.55 0.65 -5.85 0.20 -1.85 0.10 -2.40 -0.40 -2.40 -1.55 0 -2.05 1.05 -2.70 5.55 -0.95 6.10 -0.95 6.20 0.40 6.80 1.45 0.65 1.65 0.25 2.05 -4.10z m546.45 -56.85 c-0.15 -2.45 0.05 -4.50 0.55 -6.15 l0.75 -2.45 -3.25 -6.30 c-3.65 -6.95 -4.65 -8.35 -3.45 -5 0.45 1.25 1.45 5.90 2.30 10.35 1.25 6.75 2.80 13.15 3.20 13.15 0.05 0 0 -1.65 -0.10 -3.60z m-23.65 -14.15 c0 -0.25 -0.30 -0.15 -0.70 0.25 -0.40 0.40 -0.85 2.10 -1 3.75 l-0.30 3 1 -3.25 c0.50 -1.80 0.95 -3.45 1 -3.75z m49.90 -5.15 c-0.55 -4.80 -1.05 -6.65 -1.60 -6.05 -0.15 0.10 -0.05 1.10 0.20 2.20 0.20 1.10 0.70 3.65 1 5.65 0.85 5.25 1.10 4.15 0.40 -1.80z m-44.40 -8.05 c-0.05 -1.30 -2.95 4.55 -2.95 5.95 0 0.90 0.40 0.35 1.45 -1.95 0.85 -1.75 1.50 -3.55 1.50 -4z m-565 -1.85 c-1.15 -1.90 -1.95 -3 -1.75 -2.45 0.20 0.55 0.80 2.15 1.30 3.50 0.50 1.40 1.20 3.50 1.55 4.75 l0.65 2.25 0.15 -2.30 c0.15 -1.95 -0.15 -2.80 -1.90 -5.75z m606.50 -14.95 c-3.40 -20.05 -3.90 -20.05 -1.50 0 0.85 6.90 1.65 12.85 1.80 13.25 0.20 0.55 0.45 0.45 0.95 -0.50 0.60 -1.15 0.45 -2.75 -1.25 -12.75z m-601.90 0.60 c-1.10 -2 -3.70 -6.90 -5.80 -10.95 -3.35 -6.45 -4.80 -8.70 -4.80 -7.65 0 0.40 8.90 18.10 10.35 20.65 2.10 3.55 2.30 1.75 0.25 -2.05z m-53.25 -91.35 c-0.35 -0.85 -0.65 -1.30 -0.75 -1.05 -0.15 0.50 0.75 2.55 1.10 2.55 0.15 0 -0.05 -0.70 -0.35 -1.50z m-31.05 -85.10 c-2.20 -9.60 -4.30 -19.75 -6.30 -30.60 -1.35 -7.45 -3.90 -15.85 -4.35 -14.50 -0.20 0.60 2.95 18.20 4.35 24.20 1.55 6.60 7.70 29 7.90 28.75 0.10 -0.10 -0.60 -3.60 -1.60 -7.85z m665.30 -39.25 c-0.15 -0.90 -0.40 -1.65 -0.55 -1.65 -0.35 0 -0.35 2.25 -0.05 9.50 l0.15 4.25 0.35 -5.25 c0.20 -2.90 0.20 -6 0.10 -6.85z m-689.10 -103.80 c0.45 -1.60 1.15 -2.80 2.25 -3.75 0.90 -0.75 1.75 -1.80 1.95 -2.35 0.15 -0.55 0.50 -5.85 0.75 -11.75 0.50 -10.50 2.40 -30.90 3.75 -39.65 l0.65 -4.40 -3.05 -2.15 c-5.50 -3.95 -9.75 -8.15 -10.10 -10.10 -0.40 -2.15 -0.90 -2.45 -2.30 -1.50 -1.65 1.20 -4.60 1 -6.10 -0.30 -0.65 -0.65 -1.95 -2.95 -2.85 -5.15 -1.75 -4.40 -1.90 -4.55 -14.55 -16.35 -10.25 -9.60 -17.50 -18.70 -21.40 -26.95 -1.95 -4.15 -1.95 -6.10 0 -8.05 l1.50 -1.50 -2.10 -3.55 c-2.85 -4.90 -6.50 -12.75 -8.30 -17.95 -2.40 -6.80 -3.20 -11.70 -3.45 -22.05 -0.30 -10 0.20 -15.75 1.90 -22.20 0.50 -2 0.95 -4.20 0.95 -4.90 0 -7 6.75 -25.45 14.20 -38.70 4.65 -8.30 7.05 -11.40 14.15 -18.50 5.75 -5.75 8.90 -9.55 7.90 -9.55 -0.10 0 -1.80 0.70 -3.75 1.55 -2.30 1.05 -3.50 1.85 -3.50 2.40 0 1.55 -1.45 2.90 -8.85 8.15 -14.90 10.60 -22.10 16.70 -28.30 24.15 -8.45 10.20 -22.80 26.35 -26.60 30 -3.85 3.65 -14.65 22.40 -19.80 34.30 -4.55 10.45 -5.05 13.75 -4.30 28.80 0.85 18.20 4.45 29.30 13.80 43 3.35 4.90 4.05 6.30 4.05 7.90 0 2.25 2.35 5.90 15.60 24.50 4.50 6.35 10.50 14.90 13.35 19 19.10 27.60 21.70 30.75 31.30 37.35 3.05 2.05 9.85 7.25 15.20 11.50 9.60 7.70 9.75 7.80 12.60 8.05 1.90 0.15 3.45 0.65 4.55 1.40 0.90 0.65 3 1.90 4.65 2.80 l3 1.60 0.30 -6.35 c0.20 -3.50 0.60 -7.45 0.95 -8.75z m-81.45 -43.45 c-0.85 -1.60 -13.95 -20 -14.90 -20.90 -1 -1 3.25 5.85 9.50 15.35 3.30 4.95 5.25 7.45 5.55 7.15 0.30 -0.30 0.25 -0.90 -0.15 -1.60z m116.65 -45.50 c3.90 -9.55 5.20 -13.90 2 -6.65 -1.85 4.30 -6.20 15.50 -6.20 16.05 0 0.80 0.55 -0.45 4.20 -9.40z m-78.85 -63.35 c-0.70 -4.10 -1 -8.80 -1.20 -20.90 -0.25 -13.95 0.45 -42.85 1.10 -46.15 0.25 -1.10 0.20 -1.10 -0.20 -0.25 -0.25 0.55 -0.50 1.75 -0.50 2.65 -0.05 1.25 -0.50 2.10 -1.60 3.15 -1.55 1.45 -1.55 1.45 -0.75 3.15 1.20 2.55 1 3.60 -1.25 6.05 -2.40 2.60 -3.10 4.95 -2.40 8.45 0.60 3.35 0.20 5.10 -1.60 6.40 -1.35 1 -1.45 1.35 -1.45 4.30 0 8.90 4.35 27.20 9.05 37.95 1.60 3.65 1.95 1.60 0.80 -4.80z m154.05 -39.85 c2.85 -1.70 7.70 -4.20 10.75 -5.50 4.45 -1.95 7 -3.50 12.60 -7.70 12.05 -9.10 26.05 -18.15 36.70 -23.90 4.45 -2.35 4.55 -2.50 3.05 -2.75 -1.20 -0.25 -2.45 0.10 -5.65 1.70 -6.50 3.30 -15.65 8.50 -29.10 16.60 -15 9 -20.05 12.35 -26 17.20 -5.50 4.45 -11.05 9.60 -9 8.35 0.85 -0.50 3.80 -2.30 6.65 -4z m-217.50 -13.20 c7.60 -11.70 15.65 -21.50 28.20 -34.25 l6.40 -6.55 -1 -1.95 c-0.55 -1.10 -0.90 -2.25 -0.75 -2.60 0.10 -0.35 0.05 -0.65 -0.15 -0.65 -0.80 0 -22.10 21.80 -22.10 22.65 0 0.50 -1.65 3.45 -3.70 6.50 -4.75 7.20 -7.70 12.70 -10.50 19.80 -1.25 3.15 -2.30 5.85 -2.30 6 0 0.15 0.50 -0.50 1.10 -1.45 0.60 -0.95 2.75 -4.35 4.80 -7.50z m664.05 1.65 c-4.40 -5.70 -25.65 -29.75 -28 -31.70 -5.30 -4.30 -11.65 -8.05 -19.75 -11.65 l-3.05 -1.35 -1.55 1.50 c-1.20 1.20 -1.95 1.55 -3.55 1.55 -2.10 0 -2.70 -0.50 -6.20 -4.70 -0.85 -1.05 -1.80 -1.50 -3.50 -1.80 -1.30 -0.20 -2.35 -0.30 -2.35 -0.20 0 0.35 10.50 8.90 16.15 13.10 33.80 25.15 36.75 27.25 46.95 33.10 2.85 1.60 5.25 2.95 5.35 2.95 0.10 0.05 -0.15 -0.35 -0.50 -0.80z m9.70 -12.25 c0.15 -1.05 -0.05 -1.95 -0.50 -2.50 -0.95 -1.05 -7.05 -5.25 -10.40 -7.10 -2.30 -1.30 -2 -0.95 3.75 4.90 3.45 3.45 6.40 6.30 6.55 6.30 0.20 0 0.45 -0.75 0.60 -1.60z m-358.50 -20.60 c23.10 -7.45 21.40 -6.85 18.60 -6.55 -6.20 0.60 -11.35 0.85 -23.30 1.15 l-12.75 0.35 -5.80 2.85 c-4.45 2.15 -6 3.20 -6.60 4.30 l-0.75 1.45 5.60 -2.40 c3.10 -1.35 6.35 -2.45 7.25 -2.45 2.10 0 4.60 2.30 4.60 4.25 0 1 0.20 1.30 0.75 1.05 0.45 -0.15 6 -1.95 12.40 -4z m5.85 -24.75 c6.65 -0.40 7.25 -0.50 8 -1.55 1.60 -2.35 2.95 -3.45 4.70 -3.75 2.65 -0.50 5.30 0.15 6.75 1.70 1.15 1.20 1.55 1.30 3.30 1 4.65 -0.85 15.05 -2.45 15.90 -2.45 0.45 0 0.85 0.35 0.85 0.80 0 0.50 0.30 0.70 0.90 0.50 0.45 -0.15 1.90 -0.40 3.15 -0.55 1.25 -0.20 2.50 -0.50 2.80 -0.65 0.35 -0.25 0.20 -1.90 -0.40 -5.10 -0.50 -2.60 -1.05 -6.05 -1.25 -7.65 -0.20 -2.30 -0.40 -2.80 -0.95 -2.35 -1 0.85 -1.25 -0.50 -1.25 -6.90 0 -7.55 0.90 -11 3.75 -13.95 2.05 -2.10 4.25 -2.90 4.25 -1.50 0 0.55 0.55 0.50 2.65 -0.20 2.70 -0.90 15.95 -2.95 19.15 -2.95 1.60 0 1.80 -0.10 1.55 -1.05 -0.30 -1.10 -0.25 -1.10 6.30 -0.80 12.60 0.50 18.45 3.70 26.25 14.25 3 4.05 3.80 6.10 2.45 6.10 -0.45 0 0 1.30 1.25 3.85 1.10 2.15 2.05 3.95 2.15 4.10 0.15 0.10 1.70 -0.25 3.45 -0.75 2.95 -0.85 3.20 -1 2.50 -1.75 -0.65 -0.75 -0.50 -0.90 1.80 -1.65 1.35 -0.45 4.45 -2 6.85 -3.50 8.95 -5.40 23.05 -14.50 28.50 -18.35 5 -3.55 5.85 -3.95 7.90 -3.95 1.85 0 2.25 0.15 2.25 0.95 0 0.85 1.35 1.85 1.80 1.40 0.40 -0.35 1.75 -8.45 1.50 -8.75 -0.15 -0.15 -0.30 0.10 -0.30 0.55 0 0.45 -0.65 1.60 -1.50 2.50 -0.80 0.95 -1.50 2 -1.50 2.30 0 0.85 -4.60 0.70 -5.90 -0.20 -0.60 -0.45 -1.40 -1.95 -1.90 -3.50 -0.40 -1.50 -1 -2.85 -1.25 -3 -1.10 -0.70 -2.20 -4.10 -5.50 -17.35 -4.80 -19.45 -6.70 -25.80 -12.65 -42.60 -6.95 -19.50 -7.65 -21.25 -12.50 -30.75 l-4.15 -8.25 -3.10 0.15 c-4.95 0.20 -4.05 1.30 -15.55 -19.20 -3.10 -5.50 -9.20 -16 -13.55 -23.30 -4.40 -7.30 -7.95 -13.55 -7.95 -13.85 0 -0.35 0.35 -0.60 0.75 -0.60 0.40 0 0.75 0.25 0.75 0.60 0 0.30 0.15 0.45 0.30 0.30 0.15 -0.20 -1.80 -3.60 -4.35 -7.55 l-4.60 -7.30 -1.55 1.20 c-0.85 0.65 -3.35 1.65 -5.55 2.25 -2.20 0.60 -4.75 1.30 -5.65 1.60 -0.95 0.25 -3 0.35 -4.65 0.15 -2.60 -0.30 -2.90 -0.25 -2.65 0.45 0.35 0.95 -0.65 1 -5.25 0.25 -3.90 -0.60 -9.45 -2.50 -12.30 -4.15 -5.25 -3.10 -10.70 -9.55 -13.25 -15.70 -2.30 -5.40 -3.15 -10.80 -2.90 -17.80 0.25 -6.85 1.35 -10.85 4.10 -15.05 l1.65 -2.50 -3.60 -9 c-2 -4.95 -5.20 -13.25 -7.15 -18.45 -1.95 -5.20 -4.40 -10.80 -5.40 -12.45 -1.05 -1.65 -2.50 -4.45 -3.25 -6.25 -1 -2.40 -1.40 -3 -1.65 -2.30 -0.45 1.50 -3.60 16.25 -6.60 30.95 -3.05 14.90 -4.85 22.90 -10.40 46.25 -4.20 17.85 -9.85 43.85 -11.15 51.25 -0.45 2.75 -0.70 5.60 -0.50 6.30 0.20 0.85 1.55 2.20 3.80 3.85 3.40 2.45 7.15 6.60 8.25 9.10 0.30 0.70 0.65 1.35 0.85 1.50 0.70 0.60 1.95 3.60 3 7.30 0.90 3.25 1.15 5.60 1.30 13.20 0.20 9.05 0.20 9.45 -1.60 18.45 -1.90 9.75 -3.70 15.70 -6.55 21.95 -1.40 3.10 -4 7.70 -5.10 9.10 -0.10 0.15 -0.45 -0.15 -0.85 -0.65 -0.60 -0.80 -0.70 -0.75 -1.55 0.50 -0.45 0.80 -2.10 2.65 -3.55 4.25 -2.15 2.20 -3.65 3.20 -7.05 4.70 -4.20 1.80 -4.50 1.85 -9.70 1.80 -2.95 -0.10 -5.45 0.05 -5.55 0.25 -0.15 0.25 -0.40 2.25 -0.55 4.55 -0.30 3.45 -0.20 4.10 0.45 4.10 0.90 0 0.90 0.35 0.15 8.80 -0.40 5 -0.40 8.30 0.05 13.95 0.60 7.90 4.25 35.80 6.35 49 l1.30 8 3.40 0 c2.90 0 3.60 0.20 4.65 1.20 0.70 0.60 1.45 1.95 1.70 3 l0.45 1.80 3.20 0.25 c4 0.30 16.85 0.10 26.50 -0.45z m87.90 -13.50 c5.60 -1.60 10.30 -3.10 10.45 -3.25 0.15 -0.15 -0.65 -1.85 -1.80 -3.80 -2.70 -4.50 -5.50 -6.75 -13.40 -10.60 -5.55 -2.75 -6.35 -3 -8.25 -2.70 -3.35 0.55 -16.55 5.70 -17.50 6.80 -0.45 0.55 -1.05 2.10 -1.35 3.45 -0.45 2 -0.35 3.05 0.45 6 0.55 1.95 1.50 4.60 2.15 5.90 l1.10 2.40 3.75 0 c2.05 0 4.20 0.25 4.70 0.55 1.10 0.65 2.15 0.40 19.70 -4.75z m-318.50 -10.25 c0.40 -2.05 -0.80 -1.90 -4.70 0.75 -2.20 1.45 -4.10 2.75 -4.35 2.95 -0.20 0.20 1.70 -0.35 4.25 -1.20 3.40 -1.15 4.70 -1.80 4.80 -2.50z m194.20 -83.65 c2.60 -1.80 7.20 -7.25 8.85 -10.60 3.15 -6.20 5.55 -17.20 5.55 -25.25 0 -3.75 -1.60 -14.15 -2.55 -16.65 -0.25 -0.75 -2.30 -3.30 -4.50 -5.70 -4.05 -4.45 -4.50 -5.25 -3.20 -5.55 0.60 -0.10 0.55 -0.30 -0.15 -1.25 -0.70 -0.90 -1.15 -1 -2.85 -0.70 -1.55 0.25 -2.05 0.55 -2.15 1.45 -0.15 0.80 0 1 0.60 0.80 1 -0.40 1 -0.80 -0.20 7.55 -2.65 19.15 -5.65 50.35 -5.20 54.70 l0.35 3.15 1.80 -0.35 c1 -0.15 2.65 -0.90 3.65 -1.60z m475.45 -4.05 c-1.95 -2.75 -8.05 -9.90 -8.05 -9.40 0 0.10 1.20 2.40 2.70 5 1.50 2.65 2.90 5.25 3.05 5.80 0.20 0.65 0.85 1 2.15 1.15 1 0.10 1.90 0.20 2 0.25 0.10 0.05 -0.75 -1.20 -1.85 -2.80z m-50.30 -42.50 c-4 -3.40 -12.25 -9.35 -14.75 -10.60 -3.15 -1.60 -19.50 -9 -19.85 -9 -0.10 0 1.35 1.95 3.20 4.35 4.05 5.25 8.25 9.40 10.65 10.65 2.65 1.35 8.25 2.95 14.05 3.95 6 1.10 7.35 1.20 6.70 0.65z m-323.35 -80.25 c0.30 -0.25 0.60 -0.75 0.60 -1.10 0 -1 -20.60 -31.25 -21.25 -31.25 -0.20 0 3.65 8.70 6.50 14.70 2.45 5.10 5.55 10.75 8.45 15.25 2.15 3.30 2.40 3.55 3.70 3.25 0.75 -0.20 1.65 -0.55 2 -0.85z m-23.70 -6.90 c-1.30 -2.60 -3.80 -7.85 -5.50 -11.70 l-3.20 -7 0 3 c0 6.45 2.80 13.05 7.65 17.90 1.60 1.60 3.05 2.85 3.15 2.70 0.15 -0.15 -0.80 -2.35 -2.10 -4.90z m-1.70 -35.75 c0 -0.20 -3.40 -5.15 -4.10 -5.95 -0.25 -0.25 -0.10 0.35 0.30 1.40 0.45 1 1.15 2.65 1.50 3.60 0.55 1.25 0.95 1.65 1.50 1.45 0.45 -0.15 0.80 -0.40 0.80 -0.50z m0.30 -16.80 c-0.35 -0.90 -1.65 -3.95 -2.85 -6.75 -1.20 -2.85 -2.45 -5.15 -2.80 -5.15 -1.05 0 -1.65 2.10 -0.95 3.30 0.75 1.40 6.95 10.20 7.15 10.20 0.10 0 -0.15 -0.75 -0.55 -1.60z m-10.25 -18.95 c-1.75 -3.45 -4.25 -7.05 -6.30 -8.95 -1.15 -1.05 -1.25 -1.10 -0.95 -0.25 0.45 1.25 8.35 12.75 8.60 12.50 0.10 -0.10 -0.50 -1.55 -1.35 -3.30z"/>
  <path d="M528.95 1066.25 c-2.30 -1.25 -2.70 -3.20 -1.75 -8.15 0.45 -2.40 1.55 -6.50 2.40 -9.10 1.05 -3.25 1.35 -4.75 0.95 -4.90 -0.80 -0.25 -2.05 -2.85 -2.05 -4.30 0 -0.65 0.55 -1.90 1.25 -2.75 1.35 -1.60 2.40 -4.35 4.75 -12.35 1.55 -5.30 4 -16.05 4 -17.55 0 -0.85 -0.60 -0.90 -7.05 -0.75 -8.35 0.20 -19 -0.55 -23.20 -1.65 -1.65 -0.45 -3.85 -1 -4.85 -1.30 -1 -0.25 -2.55 -1.05 -3.40 -1.75 -1.25 -1.05 -1.50 -1.65 -1.50 -3.45 0 -1.30 0.30 -2.35 0.75 -2.75 0.40 -0.35 0.75 -0.95 0.75 -1.35 0 -0.40 0.65 -1.40 1.45 -2.20 1.15 -1.10 1.95 -1.45 3.45 -1.45 1.65 0 2.35 -0.35 3.80 -1.80 1.70 -1.70 1.95 -1.80 3.95 -1.50 1.15 0.20 3.30 0.40 4.80 0.45 2.45 0.10 2.80 0.30 4.50 2.25 1 1.15 2.05 2.10 2.40 2.10 0.30 0 1.35 0.45 2.25 0.95 1.90 1.10 5.20 1.75 8.15 1.60 3.70 -0.15 14.35 -2.10 19.45 -3.60 2.80 -0.80 5.45 -1.45 5.95 -1.45 0.55 0 1.70 0.75 2.65 1.70 l1.75 1.75 4.95 -0.95 c4.65 -0.90 5.10 -1.10 6.90 -3 1.65 -1.65 2.25 -2 3.90 -2 4.10 0 14 -1.90 29.20 -5.55 13.60 -3.25 19.30 -5.10 25 -8.05 4.30 -2.25 5 -2.45 7.20 -2.20 2.10 0.25 3.35 -0.10 9.40 -2.40 7.20 -2.80 8.90 -3.80 8.90 -5.35 0 -1.40 2.85 -3.45 4.85 -3.45 2.10 0 5.75 -2.50 8.20 -5.60 1.90 -2.40 4.25 -3.50 6.45 -3.10 1.30 0.30 2.10 -0.05 5 -2.05 1.90 -1.30 4.50 -3.50 5.80 -4.85 1.30 -1.40 2.90 -2.55 3.75 -2.75 2.60 -0.50 7.90 -7.30 7.95 -10.20 0 -1.45 2 -3.40 3.70 -3.75 1.95 -0.35 4.55 0.80 5 2.15 0.15 0.50 1.30 1.25 2.65 1.65 4.15 1.35 5.55 5.25 3.45 9.50 -2.05 4.05 -19.05 19.20 -26.45 23.60 -4.30 2.55 -4.40 2.65 -4.10 4.15 0.85 4.25 0.85 5.65 0 7.10 l-0.85 1.45 5.15 8.95 c6.10 10.70 11.75 22.25 12.50 25.65 0.50 2.05 0.45 2.70 -0.30 4.30 -0.95 2.05 -2.95 3.30 -5.10 3.30 -1.65 0 -6.70 -2.30 -9.95 -4.55 -2.05 -1.40 -2.50 -1.50 -4.10 -1.10 -3.10 0.80 -4.30 0.05 -8.30 -5.45 -2.05 -2.75 -8.15 -9.90 -13.50 -15.95 l-9.85 -10.90 -2.60 1 c-1.45 0.55 -4.95 2.05 -7.85 3.30 -22.40 9.60 -53.10 17.45 -75.25 19.30 -0.85 0.05 -1.45 0.35 -1.40 0.70 0.30 1.45 -6.40 28.30 -8.15 32.65 -0.80 2 -2.05 2.90 -4.40 3.10 -1.25 0.15 -2.35 1.40 -7.90 8.90 -3.55 4.80 -7.10 10.15 -7.95 11.85 -2.15 4.50 -4.35 5.65 -7.50 3.90z m22.75 -45.25 c1.55 -6.20 3.30 -14.05 3.30 -14.80 0 -0.10 -1.45 -0.20 -3.20 -0.20 l-3.15 0 -1 5.15 -1 5.10 1.15 1.40 c1.85 2.20 1.85 3.25 -0.05 8.80 -0.95 2.90 -1.75 5.30 -1.75 5.40 0 0.10 0.85 -0.65 1.95 -1.70 1.75 -1.75 2.05 -2.45 3.75 -9.15z m136.25 -19.60 c-0.60 -1.20 -3.35 -6.10 -6.10 -10.90 -2.70 -4.80 -5.70 -10.20 -6.65 -12 -2.55 -4.95 -2.10 -4.70 -5.75 -3.05 -1.75 0.80 -4.15 1.70 -5.25 2.05 l-2.10 0.65 2.70 2.70 c1.50 1.50 3.35 3.55 4.10 4.55 0.75 1.05 2.25 2.95 3.35 4.25 1.70 2.05 2.20 2.35 3.90 2.35 2.15 0 2.10 -0.05 8.75 7.40 2 2.25 3.75 4.10 3.90 4.10 0.10 0 -0.25 -0.95 -0.85 -2.10z"/>
  <path d="M560.25 885.50 c-4.40 -0.20 -10.15 -0.65 -12.75 -0.95 -4.25 -0.50 -11.35 -0.65 -28 -0.55 -10.15 0.05 -30.30 -0.95 -34.60 -1.70 -12.95 -2.35 -27.20 -9.60 -35.45 -18.15 -4.50 -4.65 -7.10 -8.30 -11.95 -16.65 -1.95 -3.45 -4.20 -7 -4.90 -7.95 -3.35 -4.20 -4.15 -5.50 -5.40 -8.80 -1.30 -3.35 -2.70 -6.05 -12.50 -23.25 -10.05 -17.80 -13.55 -27.90 -15.20 -44.25 -0.45 -4.35 -1 -6.60 -2.60 -10.70 -3.60 -9.30 -4.10 -12.80 -4.10 -28.55 0 -13.70 0.40 -19.75 2.25 -33.50 1.45 -11 1.90 -14.90 2.25 -19.10 0.20 -2.90 0.55 -4.20 1.35 -5.25 0.60 -0.75 1.45 -2.60 1.85 -4.15 l0.80 -2.75 -2.30 0.15 c-2.10 0.15 -2.45 0.05 -3.65 -1.40 -1.55 -1.80 -1.65 -3.05 -0.55 -6.35 1.05 -3.20 5.35 -12.20 8.90 -18.60 l2.85 -5.15 -1.25 -1.20 c-1.80 -1.85 -2 -3.45 -0.75 -6.05 1.25 -2.60 7 -10.40 10.95 -14.90 5.40 -6.20 24.15 -25.80 31.85 -33.30 l7.95 -7.75 9.15 -4.65 c9.60 -4.85 9.95 -4.90 12.65 -3 1.35 0.95 1.35 0.95 10 -1.20 l8.60 -2.10 0.40 -1.60 c0.65 -2.50 1.85 -2.90 9.15 -2.95 11.10 -0.10 37.15 -1.10 44.50 -1.70 9.05 -0.80 28.85 -0.40 34.85 0.70 7.60 1.40 12.40 3.65 17.65 8.40 2.15 1.95 2.95 2.35 5.85 2.85 8.85 1.50 18.70 6.10 30.95 14.35 4.80 3.20 11.70 7.70 15.35 10 8.75 5.50 10.20 6.65 17.85 14.10 3.60 3.50 8.05 7.40 9.85 8.70 1.80 1.30 4.95 3.95 7 5.85 4.30 4 8.50 7.55 8.95 7.55 0.20 0 0.25 -0.45 0.10 -1 -0.65 -2.45 2.10 -5.50 4.95 -5.50 2.80 0 5.10 3.15 11.80 16.10 2.50 4.85 6.30 11.70 8.50 15.25 4.70 7.60 5.75 9.55 7.30 14.05 1.80 5.10 2.65 8.30 3.75 14.40 0.55 3.05 1.45 6.90 2.05 8.50 2 5.60 4 15 5.85 27.20 2.35 15.55 2.40 22.10 0.45 35.25 -0.75 4.95 -1.80 11.05 -2.35 13.50 -0.55 2.50 -1.25 5.65 -1.45 7 -0.25 1.40 -1.05 5.20 -1.75 8.50 -1.35 6.50 -1.50 8.50 -0.75 9 0.75 0.45 0.60 8.05 -0.25 11.55 -0.40 1.70 -1.30 4.40 -2.05 6 -0.70 1.65 -1.85 4.25 -2.45 5.80 -0.65 1.55 -2.90 5.80 -5 9.40 -2.15 3.60 -5.35 9.90 -7.10 13.90 -4.10 9.40 -5 10.90 -8.55 14.15 -3.45 3.25 -7.95 5.65 -15.10 8.20 -2.90 1.05 -8.40 3.45 -12.25 5.40 -9.65 4.80 -16.65 7.55 -24.05 9.35 -3.45 0.85 -7.95 2.25 -10.05 3.05 -5.40 2.20 -15.70 4.75 -28.10 7 -5.90 1.05 -11.15 1.95 -11.60 1.95 -0.60 0 -1.25 0.80 -1.85 2.20 -0.80 1.80 -1.40 2.30 -3.15 3 -3.35 1.20 -8.10 1.80 -19.15 2.30 -11.05 0.50 -13.70 0.50 -25.55 0z m18.40 -12.10 l4.45 -0.55 -0.30 -1.45 c-0.35 -1.80 0.75 -4.65 2.10 -5.35 1.65 -0.90 4.35 -0.65 5.85 0.50 1.20 1 1.75 1.05 5.50 0.80 5.50 -0.40 10.20 -2 25 -8.60 6.60 -2.95 13.90 -6.15 16.20 -7.10 7.45 -3.10 19.75 -7.25 22.10 -7.50 2.10 -0.20 2.40 -0.10 3.60 1.35 1.70 2 1.70 4 0.10 5.90 l-1.25 1.50 5.45 -2.15 c3 -1.20 8.65 -3.20 12.55 -4.50 3.90 -1.25 8.70 -3.15 10.65 -4.25 3.40 -1.80 3.60 -2 3.90 -3.95 0.15 -1.10 0.70 -2.50 1.20 -3.05 l0.90 -1 -2.20 0.80 c-6.15 2.20 -9.90 1.70 -11.20 -1.55 -1.45 -3.45 0.80 -6.20 5.80 -7 5.30 -0.85 16.40 -8.25 25.35 -16.90 4.90 -4.80 5.15 -5.15 6.30 -8.80 0.65 -2.10 1.55 -5.55 2 -7.65 0.80 -3.55 0.80 -4 0.10 -5 -1.20 -1.65 -1 -3.10 1.45 -12.85 4.55 -18.25 5.40 -23.25 5.45 -33.55 0.05 -12 -1.05 -37.80 -2 -46.75 -1.10 -10.15 -1.10 -10.25 -2.45 -10.25 -2.95 0 -4.20 -2.10 -12.25 -20.35 -2.80 -6.25 -6 -13.10 -7.10 -15.15 -4.60 -8.50 -12.05 -18.10 -20 -25.75 -7.15 -6.90 -11.45 -10.15 -19.65 -14.90 -21.40 -12.30 -21.40 -12.30 -28.50 -18.35 -2.45 -2.15 -6.20 -5 -8.25 -6.35 -5.80 -3.85 -29.45 -15.65 -31.35 -15.65 -0.90 0 -1.65 0.10 -1.65 0.25 0 0.15 1.20 1.55 2.70 3.10 5.45 5.85 6.80 7.75 6.80 9.70 0 3.70 -3.65 5.95 -6.95 4.25 -0.85 -0.45 -1.55 -1 -1.55 -1.25 0 -0.25 -2.70 -3.25 -6 -6.70 -5.85 -6.05 -6.10 -6.30 -8.10 -6.25 -2.50 0.05 -4.40 -1.70 -4.85 -4.40 -0.40 -2.35 0.95 -2 -18.80 -5.15 -18.50 -3 -23.60 -3.55 -32.95 -3.55 -6.55 0 -7.65 0.15 -15.05 1.95 -4.40 1.10 -10.60 2.60 -13.75 3.30 -10.40 2.40 -19.70 4.75 -23.60 6.05 l-3.85 1.25 1 1.60 c2.30 3.80 -0.20 7.80 -4.90 7.85 -2 0.05 -4.70 1.10 -6.75 2.65 -0.95 0.75 -2.40 1.35 -3.15 1.35 -1.45 0 -3.10 1.05 -7.55 4.90 -2.10 1.80 -2.65 2.55 -2.85 4.20 -0.30 2.35 -1.40 3.70 -4.15 4.95 -1.10 0.55 -2.95 1.90 -4.05 3.10 -3.55 3.70 -13.25 16.50 -14.45 19.10 -3.50 7.65 -8.45 32.70 -9.50 47.90 -0.35 4.60 -0.30 4.95 0.70 5.65 0.55 0.40 1.30 1.45 1.60 2.40 0.45 1.45 0.40 2.10 -0.40 3.90 -1.55 3.45 -2.20 5.90 -1.90 7.05 0.15 0.55 -0.20 2.05 -0.75 3.30 -2.60 5.80 -4.25 23.10 -3.75 39.30 0.90 29.85 5.40 48.80 13.70 57.95 3.35 3.70 3.80 5.20 2.30 7.75 -0.80 1.30 -0.75 1.55 1.05 5.70 l1.85 4.35 2 0 c4.30 0 5.60 2.10 4.90 7.80 l-0.50 3.90 2.10 3.70 c1.95 3.40 8.10 11.75 13.30 18.10 1.15 1.40 2.10 3 2.10 3.50 0 0.60 2.50 2.60 7.90 6.15 12.65 8.40 20.45 12.55 29 15.55 l5.10 1.75 0.75 -1.15 c0.40 -0.65 1.35 -1.40 2.05 -1.70 2.25 -1.05 3.65 -0.70 6.10 1.60 2.05 1.90 2.90 2.30 6.85 3.20 2.50 0.60 7.45 1.30 11 1.60 7.45 0.60 8.10 0.75 9.55 2.05 2.25 2.05 12.75 2.95 30.95 2.65 6.90 -0.10 14.50 -0.45 16.90 -0.80z m-105.60 -5.95 c-3.70 -1.95 -8.90 -4.90 -11.50 -6.55 -5.90 -3.70 -4.35 -1.70 1.90 2.50 3.65 2.45 14.40 7.60 15.80 7.60 0.30 0 -2.50 -1.60 -6.20 -3.55z m167.35 -5.60 c0.30 -0.25 0.60 -0.65 0.60 -0.90 0 -0.45 -4.45 1.30 -5.20 2.05 -0.55 0.55 3.75 -0.50 4.60 -1.15z m13.35 -5.15 c1.80 -0.75 3.20 -1.40 3.10 -1.50 -0.10 -0.10 -2.05 0.45 -4.40 1.25 -2.30 0.80 -3.70 1.50 -3.10 1.50 0.65 0.05 2.60 -0.55 4.40 -1.25z m-247.80 -202.90 c0.25 -0.55 0.55 -2.15 0.70 -3.55 l0.30 -2.50 -1.30 2.75 c-2.20 4.75 -2.20 4.90 -1.10 4.65 0.55 -0.15 1.20 -0.75 1.40 -1.35z"/>
  <path d="M577.25 816.80 c-2.65 -0.40 -7.05 -0.55 -13 -0.40 -6.25 0.15 -11.55 -0.05 -17.25 -0.60 -4.55 -0.50 -12.25 -1.05 -17.15 -1.35 -10.30 -0.50 -14.25 -1.30 -19.10 -3.75 -9.55 -4.85 -21.40 -16.75 -30.05 -30.20 -6.10 -9.45 -11.60 -20.05 -13.45 -25.75 -2.60 -8.10 -4.70 -16.90 -5.20 -22 -0.70 -7.10 0.50 -17.10 3 -24.70 1.60 -4.75 10.10 -21.20 13.35 -25.75 5.85 -8.20 15.10 -16.05 22.45 -19.05 1.65 -0.65 5.05 -1.75 7.65 -2.50 2.55 -0.70 7.60 -2.50 11.20 -3.95 11.75 -4.80 10.50 -4.55 24.30 -4.45 13.70 0.10 23 0.75 26.80 1.90 1.35 0.40 3.75 1.60 5.25 2.65 1.85 1.35 3.45 2.05 5.20 2.30 8.85 1.25 18.75 5.35 24.50 10.15 1.95 1.60 4.30 3.50 5.25 4.15 4.30 2.90 13.15 10.30 15.70 13.05 2.70 2.90 6.25 9.35 7.80 14.05 0.30 1.05 1.35 3.50 2.35 5.50 2.75 5.65 3.95 9.10 5.40 15.90 0.75 3.45 1.70 7.70 2.15 9.50 0.65 2.65 0.85 6.10 0.85 18 0 13.40 -0.10 15.20 -1.10 19.75 -2.15 9.70 -4.15 14.60 -8.75 21.35 -3.80 5.55 -8.65 10.10 -13.40 12.60 -2.05 1.10 -5.45 3.15 -7.60 4.65 -4.60 3.25 -11.80 6.70 -16.90 8.15 -4.75 1.35 -14.50 1.75 -20.25 0.80z m-56.75 -13 c0 -0.35 -5.05 -1.95 -5.30 -1.70 -0.10 0.15 0.85 0.60 2.15 1.05 2.60 0.85 3.15 0.95 3.15 0.65z"/>
  <path d="M469.75 327 c-2.85 -0.60 -6.15 -1.85 -8.55 -3.25 -3.15 -1.85 -7.45 -6.85 -9.40 -10.90 -3.20 -6.70 -3.55 -8.75 -3.55 -21.60 0 -12.75 0.50 -15.45 3.75 -21.15 2.20 -3.80 7.60 -7.45 6.85 -4.60 -0.20 0.80 -0.10 0.90 0.65 0.50 0.50 -0.25 2.10 -0.75 3.50 -1.05 2 -0.40 2.50 -0.70 2.30 -1.30 -0.30 -0.70 0.55 -0.75 6.80 -0.50 5.80 0.20 8 0.50 11.65 1.55 12.55 3.75 19.25 10.55 20.25 20.50 0.40 3.85 0.10 12.80 -0.40 12.80 -0.15 0 -0.50 -0.35 -0.80 -0.80 -0.50 -0.65 -0.70 -0.10 -1.20 2.90 -0.30 2.05 -1.15 5.60 -1.90 7.90 -1.20 3.90 -1.25 4.25 -0.45 4.80 0.80 0.60 0.70 0.90 -0.80 3.75 -3.10 5.80 -7.35 9.10 -13.35 10.40 -3 0.60 -12.35 0.65 -15.35 0.05z m13.80 -15.75 c2.10 -1.10 4.25 -4.05 5.25 -7.15 0.95 -2.95 1.25 -9.70 0.55 -12.20 -0.35 -1.30 -0.40 -1.35 -2.10 -0.60 -3.60 1.50 -7.20 0.55 -9.05 -2.35 -1.35 -2.15 -5.60 -5.75 -8.05 -6.75 -3.60 -1.55 -5.95 -0.60 -7.85 3.25 -1.70 3.30 -2 5.40 -1.35 9.50 1.45 9.20 5.85 14.60 13.65 16.80 2.95 0.80 6.75 0.60 8.95 -0.50z"/>
  <path d="M816.95 538.05 c-1.45 -1.45 -1.75 -2.70 -1.15 -4.90 0.15 -0.60 2.45 -2.85 5.05 -4.95 3.95 -3.25 4.65 -4.05 4.40 -4.90 -1.15 -3.50 -1 -4.20 2.35 -9.20 1.80 -2.65 6.30 -8.80 10 -13.60 7.60 -9.90 10.85 -14.55 13.80 -20 2.25 -4.10 5.85 -13.10 7.60 -19 2 -6.65 2.65 -8.15 4.55 -10.35 1.05 -1.15 2.70 -3.80 3.65 -5.75 1.50 -3.10 1.85 -4.50 2.30 -9.10 0.80 -8.50 0.70 -11.65 -0.50 -13.15 -1.30 -1.65 -1.30 -4.35 0 -6.20 0.60 -0.80 1.35 -3.20 1.75 -5.55 0.90 -5.15 1.50 -6.70 3.50 -8.95 1.30 -1.45 1.75 -2.60 2.40 -6.30 1.45 -7.70 1.90 -14.55 1.75 -24.05 l-0.15 -9.20 1.40 -1.20 c2 -1.70 4.40 -1.60 6.45 0.25 l1.65 1.45 0 12.95 c0 13.15 -0.25 15.60 -2.35 24.80 -0.95 4.20 -0.95 4.45 -0.15 6.20 0.75 1.55 0.85 2.70 0.55 7.55 -0.65 10.90 -2.75 19.70 -6.85 28.85 -0.50 1.10 -1.50 4.60 -2.25 7.75 -2.65 11.30 -8.60 26.50 -11.30 28.75 -0.80 0.70 -2 1.25 -2.60 1.25 -0.80 0 -1.40 0.55 -2.15 2.15 l-1.05 2.10 1.95 0.85 c2.40 1.05 3.85 3.85 3 5.75 -0.85 1.90 -8.90 14 -12.25 18.40 -5.50 7.30 -18.40 19.70 -27.85 26.80 -3.25 2.45 -5.35 2.60 -7.50 0.50z"/>
 </g>
 <g fill="#d5f6c5">
  <path d="M385.25 422.65 c-4.15 -0.30 -4.50 -0.45 -4.55 -2.15 -0.05 -1.75 -1.75 -3.75 -3.45 -4.20 -1.50 -0.40 -3.80 0.45 -4.80 1.80 -0.50 0.65 -0.80 0.80 -0.85 0.35 -0.05 -0.40 -0.75 -4.50 -1.55 -9.20 -1.95 -11.25 -5.85 -40.70 -6.60 -49.50 -0.85 -9.95 -0.05 -24.75 1.35 -24.75 0.35 0 0.75 -0.40 0.95 -0.95 0.30 -0.95 3.80 -3.55 4.75 -3.55 0.30 0 1.15 -0.45 1.90 -1 0.75 -0.60 2.05 -1.10 2.85 -1.15 0.85 -0.05 1.65 -0.30 1.85 -0.55 0.20 -0.30 1.20 -0.55 2.25 -0.60 1.05 0 2.30 -0.25 2.80 -0.45 0.50 -0.20 1.90 -0.25 3.10 -0.10 1.90 0.30 2.30 0.20 2.80 -0.70 0.30 -0.55 0.40 -1.35 0.25 -1.70 -0.15 -0.40 -0.05 -0.75 0.20 -0.85 0.25 -0.10 0.50 -0.50 0.60 -0.90 0.10 -0.40 0.45 -1.05 0.80 -1.45 0.35 -0.35 0.55 -1 0.40 -1.35 -0.15 -0.40 -0.05 -0.70 0.25 -0.70 0.30 0 0.35 -0.20 0.20 -0.50 -0.15 -0.25 -0.05 -0.50 0.30 -0.50 0.35 0 0.50 -0.15 0.30 -0.30 -0.15 -0.20 0 -0.65 0.40 -1.05 0.45 -0.45 0.65 -1.20 0.45 -1.90 -0.20 -0.75 0.15 -1.85 1.10 -3.30 4.20 -6.70 7.50 -16.05 9.90 -28.35 2.80 -14.15 2.55 -22.40 -1.15 -33.40 -0.80 -2.45 -1.65 -4.45 -1.90 -4.45 -0.20 0 -1.35 -1.30 -2.55 -2.85 -1.15 -1.60 -3.40 -3.85 -4.95 -5.05 -5.10 -3.80 -5.15 -3.90 -5.15 -7.55 0 -4.90 4.65 -27.55 12 -58.55 5.40 -22.65 7.20 -30.70 10.25 -45.75 2.85 -14.10 6.90 -32.60 7.70 -35.25 l0.40 -1.50 0.60 1.40 c0.30 0.80 0.55 1.60 0.55 1.80 0 1 3.25 8.10 5.05 11.15 1.10 1.80 3.65 7.65 5.65 13 2 5.30 5.35 13.95 7.45 19.20 2.15 5.20 3.85 9.65 3.85 9.85 0 0.20 -0.80 1.50 -1.80 2.85 -6.85 9.55 -6 26 1.95 37.15 2.55 3.60 6.45 7.30 9.60 9.15 2.80 1.65 8.40 3.55 12.20 4.15 3.50 0.55 4.05 0.80 4.05 1.85 0 0.50 0.35 0.65 1.25 0.40 0.65 -0.15 1.95 -0.05 2.85 0.30 0.90 0.30 2.35 0.70 3.15 0.85 1.45 0.25 6 2.50 8.85 4.35 0.80 0.50 1.75 0.75 2.35 0.55 0.50 -0.15 1.10 -0.05 1.30 0.25 0.20 0.30 0.95 0.50 1.65 0.45 0.75 -0.10 1.65 0 2 0.20 0.30 0.25 0.80 0.30 1.05 0.10 0.25 -0.15 0.60 -0.05 0.80 0.25 0.15 0.25 0.85 0.35 1.50 0.20 0.80 -0.20 1.50 0 2 0.50 1.15 1.10 14.15 22.90 21.10 35.30 8.90 15.85 10.20 17.95 11.30 18.75 1.50 1.05 3.50 0.95 5.05 -0.30 0.75 -0.60 1.45 -1 1.50 -0.90 0.50 0.55 9.85 19.60 10.70 21.70 2.95 7.45 12.30 34.45 14.05 40.50 1.10 3.85 3.60 13.35 5.50 21.15 3.30 13.25 4.40 16.65 5.50 17.35 0.25 0.15 0.85 1.50 1.25 3 0.90 3.05 2.20 4.25 4.65 4.25 1.55 0 1.65 0.10 1.65 1.75 0 1.60 -0.10 1.75 -1.50 1.75 -1.10 0 -3.10 1.10 -7.15 3.95 -5.45 3.85 -19.55 12.95 -28.50 18.35 -2.40 1.50 -5.50 3.05 -6.85 3.50 -2.25 0.75 -2.65 0.75 -3.40 0.10 -0.90 -0.80 -8.45 -5.15 -9.40 -5.45 -0.35 -0.10 -2 -2.10 -3.75 -4.45 -7.60 -10.30 -13.65 -13.75 -25.30 -14.35 -5.20 -0.25 -5.60 -0.35 -6.10 -1.45 -0.95 -2.15 -8.55 -5.05 -10.90 -4.15 -0.65 0.25 -2.90 0.55 -4.90 0.60 -2.05 0.10 -4.05 0.50 -4.50 0.85 -0.40 0.35 -1 1.55 -1.30 2.70 -1.10 4.25 -1.75 5.55 -3.95 7.75 -3.10 3.10 -4.10 6.70 -3.95 13.75 0.05 2.80 -0.05 5.45 -0.30 5.85 -0.55 0.80 -0.65 1.30 -1 4.45 -0.30 2.80 -2.20 8.50 -2.80 8.50 -0.25 0 -0.40 0.15 -0.40 0.40 0.05 0.20 0.05 0.95 0 1.65 -0.05 1.30 -0.25 1.40 -4.40 2.10 -2.45 0.45 -6.95 1.20 -10.05 1.65 l-5.65 0.90 -1.10 -1.35 c-2.45 -2.95 -6 -2.65 -8.10 0.65 -1.65 2.60 0.65 2.35 -29.25 3.20 -3.15 0.05 -6.85 0.05 -8.25 -0.05z m98.35 -97.20 c5.90 -1.25 10.30 -4.65 13.20 -10.15 1.60 -3.10 1.50 -3.10 5.90 -1 1.35 0.65 2.60 1.10 2.70 0.95 0.15 -0.10 0.65 0 1.10 0.25 0.65 0.35 1 0.25 1.20 -0.35 0.20 -0.45 0.10 -0.95 -0.20 -1.15 -0.30 -0.20 -0.40 -0.70 -0.20 -1.15 0.15 -0.45 0.10 -0.85 -0.20 -0.85 -0.30 0 -0.40 -0.45 -0.25 -1 0.15 -0.60 0 -1 -0.35 -1 -0.35 0 -0.45 -0.40 -0.25 -1 0.20 -0.60 0.10 -1 -0.25 -1 -0.30 0 -0.45 -0.20 -0.25 -0.45 0.15 -0.25 0.05 -0.60 -0.20 -0.80 -0.30 -0.15 -0.40 -0.60 -0.20 -1 0.15 -0.40 0.05 -0.75 -0.25 -0.75 -0.30 0 -0.40 -0.45 -0.25 -1 0.15 -0.55 0.05 -1 -0.20 -1 -0.30 0 -0.40 -0.55 -0.25 -1.25 0.10 -0.75 0 -1.25 -0.35 -1.25 -0.35 0 -0.45 -0.25 -0.25 -0.55 0.15 -0.30 0 -0.75 -0.35 -1 -0.55 -0.30 -0.75 -2.15 -0.85 -7.50 -0.15 -7.90 -0.85 -10.70 -3.60 -14.70 -4.90 -7.10 -16.45 -12 -29 -12.35 -2.55 -0.05 -4.45 -0.30 -4.75 -0.70 -0.55 -0.65 -3.45 -1.70 -4.80 -1.70 -0.60 0 -0.95 0.55 -1.20 1.95 -0.25 1.55 -0.85 2.40 -2.45 3.75 -2.35 1.90 -4.75 6 -6.15 10.55 -1.30 4.35 -1.30 21.50 0 26.25 2.80 9.85 8.70 17 16.35 19.75 4.85 1.75 11.65 2.25 16.60 1.20z"/>
  <path d="M473.10 313.25 c-2.90 -0.80 -6.50 -2.75 -7.80 -4.20 -0.80 -0.85 -0.65 -0.90 3.75 -1.20 5.70 -0.45 17.80 -0.35 19.35 0.05 l1.10 0.35 -1.55 1.90 c-0.85 1 -2.25 2.25 -3.05 2.65 -2.20 1.15 -8.55 1.35 -11.80 0.45z"/>
  <path d="M568.55 313.35 c-3.25 -10.20 -6.35 -17.80 -11.60 -28.45 -3.40 -6.90 -4.90 -10.95 -8.95 -23.65 -1.65 -5.25 -3.25 -10 -3.55 -10.60 -0.65 -1.15 -2.35 -2 -4.60 -2.25 -1.30 -0.15 -1.85 -1.05 -7.35 -11.75 -3.25 -6.40 -5.75 -11.65 -5.50 -11.65 0.80 0 4.50 3.10 8 6.80 6.55 6.90 7.65 8.30 9.40 11.95 0.40 0.85 1.25 2.20 1.90 3.05 1.50 2 4.05 6.45 5 8.70 0.40 0.95 1.50 3.35 2.45 5.25 4.10 8.40 6.75 16.45 7.50 22.50 0.10 0.85 0.65 3 1.20 4.90 0.55 1.85 0.85 3.35 0.70 3.35 -0.15 0 -0.05 0.30 0.25 0.65 0.45 0.55 1.25 3.30 1.35 4.60 0.05 0.30 0.30 0.95 0.60 1.50 0.30 0.55 0.70 1.95 0.90 3.10 0.20 1.20 0.55 2.25 0.75 2.40 0.25 0.15 0.35 0.60 0.15 1 -0.15 0.40 0 0.75 0.35 0.75 0.30 0 0.50 0.30 0.35 0.65 -0.10 0.30 0 1.15 0.25 1.85 0.30 0.70 0.55 1.70 0.65 2.25 0.20 1.50 0.75 3.75 1.60 6.40 0.40 1.30 0.65 2.60 0.55 2.90 -0.10 0.30 -1.15 -2.50 -2.35 -6.20z"/>
  <path d="M369.65 204.80 c-0.70 -0.85 -0.75 -8.80 0 -8.80 0.25 0 0.35 -0.90 0.25 -2 -0.10 -1.10 0 -2 0.25 -2 0.25 0 0.35 -0.90 0.25 -2 -0.10 -1.10 0.05 -2 0.30 -2 0.25 0 0.30 -0.80 0.15 -1.75 -0.20 -1.05 -0.10 -1.75 0.25 -1.75 0.30 0 0.40 -0.55 0.30 -1.25 -0.15 -0.70 -0.05 -1.25 0.25 -1.25 0.25 0 0.35 -0.55 0.25 -1.25 -0.15 -0.70 -0.05 -1.25 0.25 -1.25 0.25 0 0.35 -0.75 0.20 -1.75 -0.20 -1.10 -0.10 -1.75 0.25 -1.75 0.35 0 0.45 -0.85 0.25 -2.50 -0.20 -1.60 -0.10 -2.50 0.25 -2.50 0.30 0 0.40 -0.65 0.30 -1.50 -0.15 -0.80 0 -1.50 0.25 -1.50 0.25 0 0.35 -0.65 0.20 -1.50 -0.20 -0.90 -0.10 -1.50 0.20 -1.50 0.30 0 0.40 -0.45 0.20 -1 -0.20 -0.60 -0.10 -1 0.25 -1 0.35 0 0.50 -0.40 0.40 -0.90 -0.15 -0.50 0.10 -1.20 0.45 -1.55 0.45 -0.40 0.65 -1.25 0.55 -2.10 -0.15 -0.80 0 -1.45 0.25 -1.45 0.25 0 0.35 -0.35 0.15 -0.75 -0.15 -0.40 -0.05 -0.75 0.25 -0.75 0.30 0 0.45 -0.35 0.25 -0.75 -0.15 -0.40 -0.05 -0.75 0.25 -0.75 0.30 0 0.35 -0.20 0.20 -0.50 -0.15 -0.25 -0.05 -0.50 0.25 -0.50 0.40 0 0.50 -0.45 0.30 -1.25 -0.20 -0.80 -0.10 -1.25 0.25 -1.25 0.30 0 0.45 -0.45 0.30 -1 -0.15 -0.55 -0.05 -1 0.25 -1 0.25 0 0.30 -0.45 0.15 -1 -0.20 -0.60 -0.10 -1 0.25 -1 0.35 0 0.45 -0.40 0.25 -1 -0.20 -0.60 -0.10 -1 0.25 -1 0.35 0 0.50 -0.35 0.30 -0.75 -0.15 -0.40 -0.05 -0.75 0.25 -0.75 0.30 0 0.40 -0.45 0.20 -1 -0.20 -0.60 -0.10 -1 0.25 -1 0.35 0 0.50 -0.40 0.35 -1 -0.15 -0.55 -0.05 -1 0.25 -1 0.30 0 0.40 -0.35 0.20 -0.75 -0.15 -0.40 0 -0.75 0.30 -0.75 0.35 0 0.45 -0.85 0.25 -2.50 -0.20 -1.65 -0.10 -2.50 0.25 -2.50 0.30 0 0.40 -0.60 0.20 -1.50 -0.15 -0.95 -0.05 -1.50 0.25 -1.50 0.35 0 0.45 -0.55 0.35 -1.25 -0.15 -0.70 -0.05 -1.25 0.25 -1.25 0.25 0 0.35 -0.40 0.25 -0.90 -0.15 -0.50 0.10 -1.20 0.45 -1.55 0.40 -0.40 0.65 -1.20 0.50 -1.85 -0.10 -0.65 0 -1.20 0.25 -1.20 0.25 0 0.40 -2.10 0.40 -4.60 0 -6.20 0 -6.40 0.50 -6.40 0.20 0 0.40 -0.80 0.35 -1.80 -0.05 -1 0.25 -1.95 0.60 -2.20 0.40 -0.20 0.50 -0.65 0.30 -1 -0.20 -0.30 0.05 -0.85 0.55 -1.20 0.55 -0.40 0.75 -1.05 0.55 -1.75 -0.15 -0.55 -0.05 -1.05 0.25 -1.05 0.30 0 0.40 -0.95 0.30 -2.25 -0.10 -1.25 0.05 -2.25 0.30 -2.25 0.20 0 0.30 -0.55 0.20 -1.25 -0.15 -0.70 -0.05 -1.25 0.20 -1.25 0.30 0 0.35 -0.35 0.20 -0.80 -0.15 -0.40 0.05 -1.10 0.50 -1.55 0.40 -0.45 0.65 -1.10 0.50 -1.45 -0.15 -0.40 -0.05 -0.70 0.25 -0.70 0.30 0 0.35 -0.20 0.20 -0.50 -0.15 -0.25 -0.05 -0.50 0.25 -0.50 0.30 0 0.40 -0.20 0.25 -0.50 -0.15 -0.25 -0.05 -0.50 0.30 -0.50 0.35 0 0.45 -0.15 0.30 -0.35 -0.20 -0.15 0 -0.55 0.40 -0.85 0.35 -0.30 0.75 -0.90 0.85 -1.30 0.10 -0.40 0.50 -1 0.90 -1.35 0.40 -0.30 0.75 -0.80 0.75 -1.05 0 -0.85 4.10 -4.60 5 -4.60 0.45 0 0.65 -0.20 0.50 -0.50 -0.15 -0.25 0.05 -0.50 0.45 -0.50 0.45 0 1.25 -0.45 1.80 -1 0.55 -0.55 1.45 -1 2.05 -1 0.55 0 0.90 -0.20 0.75 -0.45 -0.15 -0.25 0.05 -0.60 0.50 -0.75 1.10 -0.40 4.20 -0.40 4.20 0.05 0 0.70 -4.10 15.45 -6.50 23.40 -1.30 4.40 -3.55 13.30 -4.95 19.75 -3.90 17.80 -5.65 23.90 -9.60 33.85 -0.85 2.15 -2.55 6.70 -3.80 10.15 -1.20 3.45 -2.75 7.70 -3.40 9.50 -0.65 1.80 -3.45 10.30 -6.20 18.90 -2.80 8.55 -5.15 15.60 -5.20 15.60 -0.05 -0.05 -0.35 -0.35 -0.70 -0.70z"/>
  <path d="M456.75 186.90 c-3.25 -1.70 -5.30 -3.50 -7.60 -6.60 -1.20 -1.60 -2.15 -3.10 -2.15 -3.35 0 -1 2.65 -0.35 4.65 1.05 1.15 0.85 3.05 2.20 4.20 3 2.15 1.50 4.65 4.85 4.65 6.25 0 1.05 -1.35 0.90 -3.75 -0.35z"/>
  <path d="M439.65 109.15 c-3.60 -5.15 -5.95 -9.10 -6.85 -11.40 -0.70 -1.95 -1.30 -3.70 -1.30 -3.85 0 -0.55 5.05 2.50 6.65 4 2.25 2.10 5.50 7.45 7.55 12.30 1.65 3.90 1.80 4.50 1.10 4.90 -0.45 0.25 -0.80 0.80 -0.80 1.15 0 1.65 -1.15 0.40 -6.35 -7.10z"/>
  <path d="M432.25 83.55 c-2.50 -1.35 -4.90 -2.90 -5.30 -3.40 -0.45 -0.50 -1.30 -2.35 -1.85 -4.10 l-1.05 -3.15 1.35 0.25 c0.75 0.15 2.05 0.55 2.85 0.90 0.85 0.35 1.80 0.65 2.15 0.75 0.40 0.05 1.05 0.45 1.50 0.85 0.50 0.40 1.80 1.15 2.90 1.65 l2.10 0.95 0.05 3.90 c0 2.10 0 3.85 -0.10 3.85 -0.05 0 -2.15 -1.10 -4.60 -2.45z"/>
 </g>
 <g fill="#d4efe8">
  <path d="M521 804 c-0.55 -0.40 -0.35 -0.45 0.75 -0.20 1.85 0.40 2.25 0.70 0.95 0.70 -0.50 0 -1.30 -0.25 -1.70 -0.50z"/>
  <path d="M479.15 413.50 c-1.25 -0.65 -2.10 -0.75 -4 -0.45 -1.30 0.20 -2.75 0.40 -3.20 0.40 -1.10 0.05 -3.20 -4.40 -4.55 -9.60 -0.95 -3.45 -1 -4.35 -0.55 -7.15 0.30 -1.80 0.90 -3.75 1.30 -4.40 0.55 -0.80 2.85 -1.95 7.45 -3.70 12.70 -4.80 13.35 -4.80 22.20 -0.35 3.65 1.80 7.50 4.15 8.85 5.35 2.45 2.25 7.70 10.75 7 11.40 -0.40 0.35 -32.20 9.55 -32.65 9.45 -0.15 -0.05 -0.95 -0.45 -1.85 -0.95z"/>
  <path d="M368.75 312.50 c-0.20 -2.20 -0.20 -5.50 -0.05 -7.35 2.65 -28.55 5.45 -53.10 6.35 -54.75 0.40 -0.70 1.10 -0.90 3.40 -0.90 l2.95 0 3.80 4.15 c2.05 2.30 4 4.80 4.25 5.55 1.05 2.70 2.65 13.65 2.70 18.05 0 5.65 -1.35 14.80 -3 20 -1.90 6.10 -4.30 10.25 -8.35 14.40 -3.85 4 -5.60 4.85 -9.60 4.85 l-2.10 0 -0.35 -4z"/>
  <path d="M464.20 307.70 c-4.90 -5 -6.70 -17.25 -3.50 -23.60 2.10 -4.15 4.75 -5.25 9.35 -3.90 3.20 0.90 7.90 4.45 9.65 7.25 1.65 2.60 3.80 3.35 6.25 2.20 3.60 -1.80 3.40 -5.60 -0.60 -9.95 -2.30 -2.60 -2.45 -2.80 -0.95 -1.95 6.35 3.75 9.25 21.05 5 30.05 -0.95 2.10 -1 2.10 -2.80 1.60 -1.60 -0.45 -12.55 -0.30 -18.35 0.25 -1.80 0.15 -2.20 0 -4.05 -1.95z"/>
  <path d="M472.90 188.65 c-3.30 -3.80 -10.90 -18.25 -16.65 -31.65 l-1.65 -3.85 1.40 -1.35 1.45 -1.35 5.95 8.40 c3.25 4.60 8.45 12.15 11.55 16.70 5.10 7.60 5.55 8.45 5.25 10 -0.45 2.30 -0.90 2.80 -3.10 3.15 -1 0.20 -2.20 0.45 -2.65 0.60 -0.45 0.10 -1.15 -0.20 -1.55 -0.65z"/>
  <path d="M459.60 188.15 c-0.60 -0.10 -0.95 -0.45 -0.80 -0.75 0.45 -0.70 -2.55 -3.70 -6.35 -6.20 -4.70 -3.15 -5.70 -4.15 -6.95 -7.50 -1.40 -3.70 -1.95 -12.05 -1 -15.45 0.35 -1.25 0.75 -2.25 0.95 -2.25 0.15 0 1.55 2.90 3.05 6.40 2.95 6.95 9.05 19.35 11.50 23.50 0.90 1.40 1.40 2.55 1.15 2.55 -0.20 -0.05 -0.90 -0.20 -1.55 -0.30z"/>
  <path d="M483.40 161.90 c-4.85 -6.50 -7.90 -11.35 -7.35 -11.65 1.10 -0.70 6.15 4.25 7.95 7.75 1.45 2.85 2.75 6.90 2.35 7.30 -0.15 0.15 -1.45 -1.40 -2.95 -3.40z"/>
 </g>
</svg>