<?xml version="1.0" encoding="utf-8"?>
<!DOCTYPE svg PUBLIC "-//W3C//DTD SVG 1.0//EN" "http://www.w3.org/TR/2001/REC-SVG-20010904/DTD/svg10.dtd">
<svg version="1.0" xmlns="http://www.w3.org/2000/svg" width="782px" height="1131px" viewBox="0 0 782 1131" preserveAspectRatio="xMidYMid meet">
 <g fill="#c0dde9">
  <path d="M359.50 1083 c0 -0.30 0.35 -0.65 0.75 -0.80 1.35 -0.55 0.80 -1.05 -1.35 -1.40 -1.15 -0.20 -2.40 -0.60 -2.75 -0.90 -0.35 -0.30 -0.65 -0.40 -0.65 -0.25 0 0.50 -7.90 -3.05 -11.10 -4.95 -5.90 -3.55 -12.60 -9.50 -15.40 -13.70 -0.40 -0.60 -1.05 -1.40 -1.35 -1.80 -0.35 -0.35 -0.65 -0.85 -0.65 -1.15 0 -0.30 -0.20 -0.55 -0.50 -0.55 -0.25 0 -0.50 -0.30 -0.50 -0.70 0 -0.40 -0.15 -0.80 -0.35 -0.90 -0.25 -0.05 -1.20 -1.85 -2.15 -3.90 -0.95 -2.05 -1.90 -3.80 -2.10 -3.90 -0.20 -0.10 -0.20 -0.50 -0.05 -0.90 0.15 -0.40 0 -0.70 -0.30 -0.70 -0.30 0 -0.40 -0.35 -0.25 -0.75 0.20 -0.40 0.05 -0.75 -0.25 -0.75 -0.30 0 -0.40 -0.35 -0.25 -0.75 0.20 -0.40 0.10 -0.75 -0.20 -0.75 -0.25 0 -0.45 -0.30 -0.45 -0.60 0.10 -1.20 -0.75 -5.40 -1.10 -5.40 -0.20 0 -0.25 -0.80 -0.15 -1.75 0.10 -0.95 0 -1.75 -0.25 -1.75 -0.25 0 -0.40 -0.65 -0.25 -1.50 0.10 -0.80 0 -1.50 -0.25 -1.50 -0.30 0 -0.40 -0.55 -0.25 -1.25 0.10 -0.70 0 -1.25 -0.25 -1.25 -0.30 0 -0.40 -0.55 -0.25 -1.25 0.10 -0.70 0 -1.25 -0.25 -1.25 -0.25 0 -0.40 -0.65 -0.25 -1.50 0.10 -0.80 0 -1.50 -0.25 -1.50 -0.30 0 -0.40 -0.55 -0.25 -1.25 0.10 -0.70 0 -1.25 -0.25 -1.25 -0.25 0 -0.35 -0.90 -0.25 -2 0.10 -1.10 0 -2 -0.25 -2 -0.25 0 -0.40 -0.65 -0.25 -1.50 0.10 -0.80 0 -1.50 -0.20 -1.50 -0.25 0 -0.50 -1.65 -0.60 -3.65 -0.05 -1.95 -0.30 -3.65 -0.55 -3.75 -0.25 -0.10 -0.35 -1.05 -0.20 -2.10 0.20 -1.35 0.10 -2 -0.30 -2 -0.35 0 -0.50 -0.20 -0.30 -0.45 0.40 -0.65 -1.30 -8.05 -1.85 -8.05 -0.25 0 -0.35 -0.20 -0.20 -0.45 0.40 -0.60 -0.75 -5.55 -1.25 -5.55 -0.20 0 -0.25 -0.45 -0.10 -1 0.15 -0.55 0.05 -1 -0.25 -1 -0.25 0 -0.45 -0.30 -0.45 -0.60 0.15 -1.25 -0.75 -4.90 -1.15 -4.90 -0.20 0 -0.30 -0.45 -0.15 -1 0.15 -0.55 0.05 -1 -0.25 -1 -0.30 0 -0.40 -0.45 -0.25 -1 0.15 -0.60 0 -1 -0.30 -1 -0.35 0 -0.50 -0.20 -0.35 -0.45 0.35 -0.50 -1.25 -7.70 -1.75 -7.95 -0.15 -0.05 -0.20 -0.70 -0.05 -1.35 0.10 -0.75 0 -1.25 -0.35 -1.25 -0.35 0 -0.50 -0.20 -0.35 -0.45 0.45 -0.70 -0.75 -6 -1.50 -6.60 -0.55 -0.45 -0.70 -0.40 -0.70 0.25 0 0.45 -0.40 0.80 -0.90 0.80 -0.80 0 -1 -0.80 -1.50 -7.10 -0.35 -3.85 -0.85 -8 -1.05 -9.10 -0.25 -1.15 -0.70 -3.30 -1 -4.80 -1.80 -9.50 -3.80 -17.95 -4.60 -19.35 -0.95 -1.70 -4 -12.75 -5 -18.15 -0.30 -1.80 -1 -4 -1.50 -4.90 -1.35 -2.40 -1.15 -4.10 0.35 -2.60 0.30 0.30 0.50 0.10 0.55 -0.65 0.10 -1.45 -2.45 -13.05 -2.90 -13.25 -0.20 -0.10 -0.20 -0.60 -0.10 -1.20 0.40 -1.40 -0.60 -1.90 -4.20 -1.90 -2.55 0 -3.05 0.15 -2.85 0.75 0.20 0.50 0 0.75 -0.75 0.75 -0.70 0 -1.10 -0.40 -1.35 -1.35 -1.20 -5.50 -2.85 -11 -3.50 -11.70 -0.55 -0.60 -1.35 -0.75 -3.10 -0.60 l-2.35 0.20 -2.90 -4.45 c-1.60 -2.50 -3.30 -4.85 -3.80 -5.30 -0.85 -0.75 -1 -0.75 -2.25 0.25 -0.95 0.75 -1.85 1 -3.30 0.90 -1.55 -0.15 -2.25 0.10 -3.10 0.95 -1.10 1.05 -1.10 1.10 -0.25 3.75 1.20 3.75 1.15 5.35 -0.20 5.35 -0.75 0 -0.95 -0.25 -0.75 -0.75 0.15 -0.50 -0.15 -0.85 -0.95 -1.05 -0.65 -0.15 -3 -2.25 -5.25 -4.60 -5.65 -6 -5.50 -5.85 -5.50 -6.50 0 -0.35 -0.20 -0.60 -0.50 -0.60 -0.25 0 -0.50 -0.30 -0.50 -0.70 0 -0.40 -0.35 -0.80 -0.75 -1 -0.45 -0.15 -0.75 0 -0.75 0.45 0 0.40 -0.35 0.75 -0.75 0.75 -0.95 0 -0.95 0.50 0.25 -15.75 1.35 -19 1.40 -21.50 0.35 -22.65 -1.40 -1.50 -1.15 -5.25 0.45 -6.85 0.90 -0.90 1.15 -1.50 0.80 -1.90 -0.25 -0.35 -0.75 -1.50 -1.10 -2.60 -0.35 -1.10 -1.05 -2.75 -1.60 -3.65 -0.95 -1.70 -1.25 -4.60 -0.40 -4.60 0.25 0 0.65 0.35 0.90 0.85 0.45 0.75 0.55 0.70 1 -0.20 0.30 -0.55 0.40 -1.15 0.25 -1.35 -0.15 -0.15 -0.05 -0.30 0.30 -0.30 0.35 0 0.45 -0.20 0.30 -0.50 -0.15 -0.25 0.05 -0.50 0.50 -0.50 0.55 0 0.75 -0.25 0.60 -0.70 -0.20 -0.45 0.10 -0.80 0.75 -0.95 0.65 -0.20 0.95 -0.55 0.75 -1 -0.20 -0.50 0.10 -0.85 0.75 -1 0.70 -0.20 0.95 -0.55 0.70 -1.10 -0.15 -0.50 0.05 -0.90 0.55 -1.10 0.70 -0.30 2.40 -1.75 8 -7 1.05 -1 1.10 -1.25 0.55 -2.35 -0.35 -0.65 -2.30 -3 -4.35 -5.15 -5.70 -6.05 -7.20 -7.75 -8.80 -9.90 -0.80 -1.10 -1.65 -2.05 -1.85 -2.15 -0.20 -0.10 -0.40 -0.50 -0.40 -0.90 0 -0.40 -0.20 -0.70 -0.50 -0.70 -0.25 0 -0.50 -0.35 -0.50 -0.75 0 -0.40 -0.20 -0.75 -0.50 -0.75 -0.25 0 -0.50 -0.35 -0.50 -0.75 0 -0.40 -0.20 -0.75 -0.50 -0.75 -0.25 0 -0.50 -0.30 -0.50 -0.70 0 -0.40 -0.30 -1.05 -0.65 -1.40 -0.35 -0.35 -1 -1.40 -1.40 -2.25 -0.35 -0.90 -0.85 -1.65 -1.05 -1.65 -0.25 0 -0.40 -0.25 -0.40 -0.50 0 -0.75 -2.15 -5.25 -2.60 -5.40 -0.25 -0.10 -0.30 -0.40 -0.10 -0.65 0.15 -0.25 0 -0.45 -0.25 -0.45 -0.30 0 -0.50 -0.15 -0.45 -0.35 0.15 -0.75 -0.70 -3.15 -1.15 -3.15 -0.25 0 -0.40 -0.15 -0.35 -0.35 0.15 -0.80 -0.75 -3.15 -1.20 -3.15 -0.25 0 -0.30 -0.20 -0.15 -0.50 0.15 -0.25 0.05 -0.50 -0.25 -0.50 -0.30 0 -0.45 -0.20 -0.30 -0.40 0.15 -0.25 -0.20 -0.90 -0.70 -1.50 -0.55 -0.60 -1 -1.30 -1 -1.55 0 -0.25 -0.55 -1.10 -1.20 -1.90 -0.65 -0.75 -1.30 -1.90 -1.50 -2.50 -0.20 -0.65 -0.55 -1.15 -0.75 -1.15 -0.20 0 -0.65 -0.80 -1 -1.75 -0.35 -0.95 -0.85 -1.75 -1.10 -1.75 -0.30 0 -0.35 -0.20 -0.20 -0.50 0.15 -0.25 0.05 -0.50 -0.25 -0.50 -0.30 0 -0.40 -0.20 -0.25 -0.50 0.15 -0.25 0.05 -0.50 -0.25 -0.50 -0.30 0 -0.40 -0.20 -0.25 -0.50 0.15 -0.25 0.05 -0.50 -0.25 -0.50 -0.30 0 -0.40 -0.20 -0.25 -0.50 0.15 -0.25 0.05 -0.50 -0.20 -0.50 -0.30 0 -0.50 -0.15 -0.45 -0.35 0.20 -0.70 -1.15 -4.15 -1.65 -4.15 -0.25 0 -0.40 -0.15 -0.40 -0.35 0.05 -0.25 0.05 -0.50 -0.05 -0.65 -0.05 -0.15 -0.20 -0.80 -0.30 -1.50 -0.15 -0.70 -0.45 -1.30 -0.70 -1.40 -0.25 -0.10 -0.30 -0.50 -0.15 -0.90 0.15 -0.40 0 -0.70 -0.30 -0.70 -0.30 0 -0.40 -0.35 -0.25 -0.75 0.20 -0.40 0.05 -0.75 -0.25 -0.75 -0.30 0 -0.40 -0.35 -0.25 -0.75 0.20 -0.40 0.05 -0.75 -0.25 -0.75 -0.30 0 -0.40 -0.35 -0.25 -0.75 0.20 -0.40 0.05 -0.75 -0.25 -0.75 -0.30 0 -0.40 -0.35 -0.25 -0.75 0.20 -0.40 0.05 -0.75 -0.30 -0.75 -0.30 0 -0.45 -0.20 -0.30 -0.45 0.20 -0.25 0.05 -1.10 -0.30 -1.90 -0.30 -0.75 -0.50 -1.70 -0.45 -2 0.05 -0.35 -0.15 -0.65 -0.40 -0.65 -0.30 0 -0.40 -0.35 -0.25 -0.75 0.20 -0.40 0.10 -0.75 -0.20 -0.75 -0.30 0 -0.40 -0.45 -0.25 -1 0.15 -0.60 0 -1 -0.30 -1 -0.35 0 -0.50 -0.20 -0.30 -0.45 0.35 -0.60 -0.80 -5.05 -1.30 -5.05 -0.20 0 -0.25 -0.45 -0.10 -1 0.15 -0.55 0 -1 -0.30 -1 -0.30 0 -0.50 -0.15 -0.45 -0.35 0.15 -0.70 -0.65 -3.65 -1.05 -3.65 -0.20 0 -0.35 -0.50 -0.40 -1.10 -0.05 -0.55 -0.35 -1.20 -0.65 -1.40 -0.35 -0.20 -0.55 -0.55 -0.50 -0.80 0.15 -0.70 -1.60 -6.20 -1.95 -6.20 -0.15 0 -0.35 -0.60 -0.40 -1.30 0 -0.75 -0.25 -1.45 -0.50 -1.65 -0.20 -0.15 -0.40 -0.50 -0.45 -0.80 -0.05 -1.30 -0.85 -4.25 -1.15 -4.25 -0.15 0 -0.35 -0.75 -0.40 -1.60 -0.10 -0.90 -0.35 -1.70 -0.60 -1.80 -0.25 -0.10 -0.35 -0.60 -0.20 -1.10 0.15 -0.55 0.05 -1 -0.15 -1 -0.25 0 -0.50 -0.95 -0.55 -2.15 -0.10 -1.15 -0.35 -2.15 -0.60 -2.25 -0.20 -0.05 -0.30 -0.70 -0.15 -1.35 0.10 -0.70 0 -1.25 -0.25 -1.25 -0.30 0 -0.40 -0.55 -0.25 -1.25 0.10 -0.70 0 -1.25 -0.25 -1.25 -0.30 0 -0.40 -0.55 -0.25 -1.25 0.10 -0.70 0 -1.25 -0.25 -1.25 -0.30 0 -0.40 -0.55 -0.25 -1.25 0.10 -0.70 0 -1.25 -0.20 -1.25 -0.25 0 -0.50 -0.95 -0.55 -2.05 0 -1.15 -0.25 -2.20 -0.50 -2.40 -0.20 -0.15 -0.45 -1.20 -0.55 -2.30 -0.10 -1.10 -0.35 -2.05 -0.60 -2.15 -0.20 -0.10 -0.30 -0.60 -0.15 -1.10 0.15 -0.55 0.05 -1 -0.25 -1 -0.30 0 -0.40 -0.45 -0.25 -1 0.15 -0.55 0.05 -1 -0.15 -1 -0.25 0 -0.50 -1.05 -0.60 -2.40 -0.05 -1.30 -0.30 -2.40 -0.55 -2.50 -0.20 -0.05 -0.30 -0.70 -0.15 -1.35 0.10 -0.70 0 -1.25 -0.20 -1.25 -0.25 0 -0.50 -1.40 -0.60 -3.15 -0.10 -1.70 -0.30 -3.15 -0.55 -3.25 -0.20 -0.05 -0.25 -0.80 -0.15 -1.60 0.10 -0.85 0 -1.50 -0.30 -1.50 -0.25 0 -0.35 -0.95 -0.20 -2.25 0.10 -1.25 0.05 -2.25 -0.20 -2.25 -0.25 0 -0.50 -1.65 -0.55 -3.65 -0.10 -3.90 -1 -7.85 -1.75 -7.85 -0.25 0 -0.35 -0.20 -0.20 -0.45 0.20 -0.25 0.05 -1.10 -0.30 -1.90 -0.30 -0.75 -0.50 -1.70 -0.45 -2 0.05 -0.35 -0.10 -0.65 -0.35 -0.65 -0.30 0 -0.45 -0.30 -0.45 -0.60 0.10 -1.20 -0.75 -4.40 -1.15 -4.40 -0.25 0 -0.30 -0.45 -0.15 -1 0.15 -0.55 0.05 -1 -0.25 -1 -0.30 0 -0.40 -0.45 -0.25 -1 0.15 -0.60 0 -1 -0.30 -1 -0.35 0 -0.45 -0.20 -0.30 -0.50 0.35 -0.55 -0.80 -6.50 -1.25 -6.50 -0.20 0 -0.25 -0.65 -0.10 -1.50 0.10 -0.80 0 -1.50 -0.25 -1.50 -0.25 0 -0.40 -0.70 -0.25 -1.50 0.10 -0.90 0 -1.50 -0.35 -1.50 -0.30 0 -0.40 -0.55 -0.25 -1.50 0.20 -0.80 0.15 -1.50 -0.10 -1.50 -0.25 0 -0.50 -1.20 -0.60 -2.65 -0.05 -1.40 -0.30 -2.65 -0.55 -2.75 -0.20 -0.05 -0.30 -0.70 -0.15 -1.35 0.10 -0.70 0 -1.25 -0.25 -1.25 -0.25 0 -0.40 -0.65 -0.25 -1.50 0.10 -0.80 0 -1.50 -0.25 -1.50 -0.25 0 -0.40 -0.65 -0.25 -1.50 0.10 -0.80 0 -1.50 -0.20 -1.50 -0.25 0 -0.40 -1 -0.30 -2.25 0.10 -1.25 0 -2.25 -0.25 -2.25 -0.20 0 -0.35 -1 -0.25 -2.25 0.10 -1.25 0.05 -2.65 -0.15 -3.15 -0.25 -0.45 -0.35 -4.50 -0.30 -8.95 0.10 -5.20 -0.05 -8.15 -0.35 -8.15 -0.30 0 -0.40 -0.45 -0.25 -1 0.15 -0.55 0.05 -1 -0.25 -1 -0.30 0 -0.40 -0.45 -0.25 -1 0.15 -0.55 0.05 -1 -0.25 -1 -0.30 0 -0.40 -0.45 -0.25 -1 0.15 -0.55 0 -1 -0.30 -1 -0.35 0 -0.45 -0.45 -0.25 -1.25 0.15 -0.70 0.10 -1.25 -0.15 -1.25 -0.25 0 -0.40 -0.65 -0.25 -1.50 0.10 -0.80 0 -1.50 -0.20 -1.50 -0.25 0 -0.40 -1 -0.30 -2.25 0.10 -1.25 0 -2.25 -0.20 -2.25 -0.25 0 -0.35 -1.90 -0.25 -4.25 0.10 -2.85 -0.05 -4.25 -0.40 -4.25 -0.30 0 -0.55 0.25 -0.55 0.50 0 0.30 -0.20 0.50 -0.50 0.50 -1.10 0 -0.35 -3.90 2.30 -12.30 3 -9.60 11.10 -30.40 12.90 -33.20 0.60 -0.95 1.50 -3 2 -4.50 1.05 -3.35 5.20 -11.25 9.90 -18.90 3.35 -5.35 5.85 -10.65 7.40 -15.55 0.50 -1.55 2 -3.55 5.40 -7.10 4.20 -4.45 4.90 -4.95 6.45 -4.95 1.75 0 1.75 0 1.50 1.90 -0.10 1 -0.60 2.90 -1 4.15 -0.90 2.65 -0.30 4.60 1.45 4.85 1.40 0.20 2.10 -0.80 2.70 -3.80 1.15 -6.10 4 -9.35 20.40 -23.10 0.65 -0.55 1.90 -1 2.70 -1 1.50 0 1.50 0.05 0.70 0.95 -0.75 0.80 -0.75 0.95 -0.05 1.20 0.40 0.20 0.75 0.10 0.75 -0.20 0 -0.35 0.65 -0.45 1.75 -0.25 1.10 0.20 1.75 0.15 1.75 -0.20 0 -0.30 0.75 -0.40 2 -0.20 1.10 0.20 2 0.15 2 -0.10 0 -0.25 3.65 -0.35 8.05 -0.30 8.40 0.20 12.45 -0.35 12.45 -1.70 0 -0.40 0.40 -0.70 0.90 -0.70 1.05 0 4.80 -3.65 4.30 -4.15 -0.20 -0.20 0.10 -0.35 0.70 -0.35 0.60 0 1.10 -0.30 1.10 -0.70 0 -0.40 0.50 -0.80 1.15 -0.90 0.60 -0.10 1.05 -0.45 1 -0.80 -0.10 -0.30 0.30 -0.60 0.90 -0.60 0.55 0 0.85 -0.20 0.70 -0.50 -0.15 -0.25 0.05 -0.50 0.50 -0.50 1.25 0 4.80 -2 4.50 -2.50 -0.15 -0.25 0.35 -0.60 1.10 -0.75 2.20 -0.45 8.65 -3.85 8.30 -4.40 -0.15 -0.25 0.15 -0.35 0.65 -0.25 1.10 0.25 3.70 -0.90 3.70 -1.60 0 -0.30 0.55 -0.50 1.25 -0.50 0.70 0 1.25 -0.20 1.25 -0.50 0 -0.25 0.55 -0.50 1.25 -0.50 0.70 0 1.25 -0.20 1.25 -0.50 0 -0.25 0.50 -0.45 1.15 -0.40 1.55 0.10 5 -1.05 5.70 -1.95 0.35 -0.45 0.90 -0.65 1.30 -0.50 1 0.35 5.85 -1.10 5.85 -1.75 0 -0.30 0.45 -0.40 1 -0.25 0.55 0.15 1 0.05 1 -0.25 0 -0.30 0.45 -0.40 1 -0.25 0.55 0.15 1 0.05 1 -0.25 0 -0.30 0.45 -0.40 1 -0.25 0.55 0.15 1.15 0.05 1.30 -0.20 0.15 -0.25 0.55 -0.40 0.85 -0.35 0.35 0.05 1.10 -0.20 1.75 -0.55 0.65 -0.35 1.50 -0.50 1.90 -0.35 0.40 0.15 0.70 0.05 0.70 -0.25 0 -0.35 0.50 -0.45 1.25 -0.25 0.70 0.20 1.25 0.10 1.25 -0.15 0 -0.25 0.80 -0.45 1.80 -0.40 1 0.05 1.95 -0.25 2.20 -0.60 0.20 -0.40 0.75 -0.55 1.20 -0.40 0.45 0.20 0.80 0.05 0.80 -0.20 0 -0.30 0.45 -0.45 1 -0.30 0.55 0.15 1 0.05 1 -0.25 0 -0.30 0.45 -0.40 1 -0.25 0.55 0.15 1 0.05 1 -0.25 0 -0.30 0.45 -0.40 1 -0.25 0.55 0.15 1 0.05 1 -0.25 0 -0.25 0.60 -0.35 1.45 -0.15 1 0.20 1.70 0.05 2.25 -0.50 0.45 -0.50 1.15 -0.70 1.55 -0.55 0.40 0.15 0.75 0.05 0.75 -0.25 0 -0.35 0.50 -0.45 1.20 -0.25 0.80 0.20 1.50 0 2.05 -0.50 0.40 -0.45 1.10 -0.65 1.50 -0.50 0.85 0.30 3.85 -0.65 4.30 -1.35 0.20 -0.25 0.70 -0.35 1.10 -0.20 0.95 0.35 6.50 -1.05 6.90 -1.75 0.20 -0.30 0.70 -0.40 1.15 -0.25 0.45 0.20 0.80 0.05 0.80 -0.20 0 -0.30 0.45 -0.45 1 -0.30 0.55 0.15 1 0.05 1 -0.15 0 -0.20 0.80 -0.40 1.80 -0.35 1 0.05 1.95 -0.25 2.20 -0.60 0.20 -0.40 0.75 -0.55 1.20 -0.40 0.45 0.20 0.80 0.10 0.80 -0.20 0 -0.35 0.50 -0.45 1.20 -0.25 0.80 0.20 1.50 0 2.05 -0.50 0.40 -0.45 1.10 -0.65 1.50 -0.50 1.05 0.35 7.75 -1.20 7.75 -1.80 0 -0.30 0.55 -0.35 1.25 -0.20 0.75 0.20 1.25 0.10 1.25 -0.25 0 -0.35 0.55 -0.40 1.50 -0.20 0.95 0.20 1.50 0.15 1.50 -0.20 0 -0.30 0.60 -0.40 1.50 -0.25 1 0.25 1.50 0.15 1.50 -0.30 0 -0.40 0.40 -0.50 1.25 -0.30 0.80 0.20 1.25 0.10 1.25 -0.25 0 -0.35 0.60 -0.45 1.75 -0.25 1.15 0.25 1.75 0.15 1.75 -0.20 0 -0.40 0.55 -0.45 1.50 -0.25 0.95 0.20 1.50 0.15 1.50 -0.25 0 -0.35 0.60 -0.45 1.75 -0.20 1.20 0.20 1.75 0.15 1.75 -0.30 0 -0.40 0.50 -0.45 1.50 -0.25 1 0.20 1.50 0.15 1.50 -0.25 0 -0.40 0.50 -0.45 1.50 -0.25 0.85 0.20 1.50 0.15 1.50 -0.10 0 -0.25 1.15 -0.50 2.55 -0.50 1.40 0 2.70 -0.25 2.90 -0.50 0.15 -0.20 1.65 -0.45 3.30 -0.55 1.65 -0.05 3.05 -0.30 3.15 -0.55 0.10 -0.30 1.25 -0.35 2.65 -0.20 1.55 0.20 2.45 0.10 2.45 -0.25 0 -0.30 2.10 -0.40 6.25 -0.20 3.55 0.15 6.25 0.05 6.25 -0.20 0 -0.25 8.25 -0.35 19.60 -0.25 23 0.25 30.80 0.55 32.40 1.20 0.40 0.20 1.65 0.40 2.75 0.50 1.10 0.10 2.35 0.35 2.80 0.55 0.45 0.20 1 0.30 1.25 0.25 0.25 -0.05 1.10 0.15 1.90 0.50 0.80 0.30 1.55 0.45 1.70 0.30 0.15 -0.10 0.50 -0.05 0.80 0.20 0.50 0.40 6.65 2.55 7.95 2.75 0.35 0.05 1.05 0.35 1.65 0.70 0.55 0.30 1.60 0.65 2.25 0.80 0.65 0.10 2 0.60 2.95 1.10 0.95 0.50 2.05 0.95 2.40 1 0.40 0.10 1.55 0.70 2.60 1.45 1.45 1 5.80 2.75 6.65 2.70 0.05 0 0.45 0.10 0.85 0.25 2.45 0.80 7.60 2.25 7.90 2.20 0.20 -0.05 1 0.20 1.80 0.55 0.80 0.30 1.75 0.50 2.10 0.35 0.35 -0.10 0.75 -0.10 0.95 0.10 0.20 0.20 0.55 0.40 0.80 0.40 0.25 0.05 0.55 0.15 0.70 0.20 0.15 0.05 0.40 0.15 0.65 0.25 0.20 0.05 0.70 0.25 1.10 0.40 1.05 0.45 5.65 1.95 6.25 2.05 0.30 0.05 1 0.35 1.60 0.70 0.60 0.35 1.50 0.65 2 0.75 0.50 0.10 1.30 0.35 1.80 0.60 0.50 0.20 1.05 0.25 1.20 0.05 0.20 -0.15 0.05 -0.30 -0.25 -0.30 -0.35 0 -0.60 -0.20 -0.60 -0.50 0 -0.90 2.40 -0.50 4.10 0.65 0.90 0.60 3.85 2.75 6.55 4.80 6.30 4.65 13.95 9.50 21.85 13.80 3.45 1.85 6.60 3.65 7 4 0.50 0.45 1.55 0.55 3.05 0.40 l2.30 -0.25 4.55 6.40 c9.15 12.85 12.65 22.50 16.30 44.65 2.10 12.55 3.10 14.80 5.50 12.10 0.80 -0.85 0.80 -1.30 -0.20 -7.35 -0.55 -3.55 -1.35 -8.25 -1.75 -10.45 -1.10 -5.95 -1.05 -6.25 0.95 -6.25 1.50 0 1.85 0.30 3.05 2.30 1 1.75 1.30 2.75 1.10 4.10 -0.20 1.50 0.35 3.05 2.95 8.50 1.70 3.60 5.15 10.25 7.60 14.75 4.50 8.05 13.30 25.60 15.55 30.85 0.65 1.50 1.40 3.20 1.60 3.75 0.60 1.35 6.65 23.85 8.50 31.75 2.30 9.45 3.25 14.45 4.70 24.05 0.70 4.80 1.50 9.30 1.80 10.05 0.75 1.80 1.90 2.15 3.15 0.90 1 -1 1 -1.05 0.15 -7.10 -0.50 -3.40 -0.85 -6.45 -0.85 -6.75 0 -0.40 0.70 -0.65 1.70 -0.65 1.70 0 1.70 0 3 4.40 0.75 2.40 2.95 9.25 4.85 15.30 3.80 11.75 4.90 17.80 3.25 17.80 -0.45 0 -0.80 -0.35 -0.80 -0.75 0 -0.40 -0.30 -0.75 -0.60 -0.75 -0.45 0 -0.70 1.25 -0.75 4.15 -0.10 2.25 -0.50 7.15 -0.90 10.85 -0.40 3.70 -0.95 10.60 -1.25 15.25 -0.60 9.70 -2.25 21.75 -2.95 21.75 -0.45 0 -0.80 8.70 -0.80 21 l0.05 11.25 2.10 5.75 c1.15 3.15 2.15 6.45 2.30 7.25 0.10 0.85 0.30 1.85 0.45 2.25 0.20 0.40 1 3.65 1.85 7.15 1 4.30 2.15 7.55 3.40 9.90 1.95 3.65 2.90 4.25 3.40 2.20 0.15 -0.70 0.65 -1.25 1.05 -1.25 0.85 0 0.65 3.90 -0.65 14.40 -0.95 7.25 -0.80 7.60 2.85 7.60 l2.45 0 0 2.95 c0 1.65 -0.25 3.60 -0.50 4.35 -0.30 0.70 -0.75 2.80 -1 4.60 -0.35 2.70 -0.30 3.45 0.25 4.10 0.55 0.60 0.75 2.15 0.75 5.90 l0 5.05 2.75 4.50 c4.50 7.40 5.90 10.70 7.70 18.20 0.30 1.30 0.55 3.05 0.55 3.85 0 0.80 0.45 2.35 1 3.40 1.20 2.30 2.50 7.05 2.50 9.10 0 1.45 -0.05 1.50 -2.45 1.50 -3.75 0 -4.15 0.85 -3.75 7.60 0.35 5.25 0 8.20 -0.75 6.30 -0.25 -0.75 -0.75 -0.55 -3.55 1.40 -1.80 1.25 -5.15 3.20 -7.50 4.30 -2.35 1.10 -4.35 2.10 -4.45 2.20 -0.05 0.05 0.35 0.65 0.95 1.30 l1.05 1.15 -1.25 0.15 c-1.25 0.15 -3.30 -1.20 -3.30 -2.15 0 -0.35 -0.55 -1.10 -1.25 -1.75 -0.70 -0.65 -1.25 -1.45 -1.25 -1.80 0 -0.90 -2.45 -2.70 -3.70 -2.70 -0.60 0 -1.90 -0.45 -2.90 -1 -3.20 -1.70 -3.95 -0.75 -4.90 6.40 -0.55 4.05 -0.75 4.60 -1.60 4.60 -0.70 0 -0.90 -0.25 -0.70 -0.75 0.20 -0.60 -0.20 -0.75 -1.90 -0.75 -1.15 0 -2.30 -0.15 -2.45 -0.30 -0.20 -0.20 -1.35 -0.45 -2.65 -0.55 -1.30 -0.10 -3.10 -0.50 -4.10 -0.95 -0.95 -0.40 -1.85 -0.65 -1.90 -0.55 -0.10 0.10 0.60 2.40 1.60 5.10 0.95 2.70 1.65 5.20 1.50 5.50 -0.10 0.35 0 0.85 0.25 1.10 1.30 1.30 1.70 12.75 0.65 18.80 -0.20 1.20 -0.10 1.85 0.25 1.85 0.30 0 0.55 0.40 0.60 0.90 0 0.70 0.10 0.70 0.45 -0.15 0.35 -0.95 0.40 -0.95 0.75 -0.10 0.45 1.05 0.10 5.05 -0.80 8.95 -0.60 2.75 -0.60 2.95 0.45 4.05 1.35 1.40 1.35 2.30 0.25 6.70 -0.80 2.95 -0.90 5.75 -0.85 21.90 0.10 19.75 0.95 34.25 2.70 45.05 1.05 6.50 3.15 16.85 4 19.70 0.85 2.80 1.60 13.90 1 14.95 -0.35 0.65 -0.25 2.60 0.35 6.40 0.50 3.55 0.95 11.05 1.20 22.15 0.20 9.20 0.55 20.75 0.75 25.60 0.30 8.55 0.30 8.85 -0.75 10.20 -1.30 1.70 -2.65 5.90 -4.10 13.10 -0.75 3.85 -1.30 5.60 -1.75 5.60 -0.40 0 -0.70 -0.35 -0.70 -0.75 0 -0.40 -0.45 -0.75 -1.05 -0.75 -0.55 0 -0.85 0.20 -0.70 0.50 0.15 0.25 -0.35 0.80 -1.10 1.10 -0.75 0.35 -1.75 0.95 -2.15 1.35 -0.85 0.80 -5.45 3.05 -6.30 3.05 -0.35 0 -1.25 0.35 -2 0.75 -1 0.50 -1.15 0.75 -0.55 0.75 0.45 0 0.85 0.35 0.85 0.75 0 0.40 -0.35 0.75 -0.75 0.75 -0.45 0 -1.60 0.55 -2.65 1.25 -1.80 1.20 -4.65 2.05 -8.70 2.60 -1.45 0.20 -1.90 0.10 -1.90 -0.50 0 -0.40 0.50 -0.90 1.15 -1.10 1 -0.35 0.95 -0.40 -0.65 -0.70 -0.95 -0.20 -2.30 -0.15 -3 0.10 -3.05 1.10 -17.35 -0.85 -23.25 -3.15 -0.80 -0.30 -1.55 -0.55 -1.65 -0.50 -0.55 0.20 -10.10 -5.30 -13.20 -7.60 -4.05 -3.10 -12.40 -11.65 -12.40 -12.75 0 -0.35 -0.20 -0.65 -0.50 -0.65 -0.25 0 -0.50 -0.35 -0.50 -0.75 0 -0.40 -0.20 -0.75 -0.40 -0.75 -0.25 0 -0.85 -0.90 -1.35 -2 -0.50 -1.10 -1.10 -2 -1.35 -2 -0.25 0 -0.30 -0.20 -0.15 -0.50 0.15 -0.25 0.10 -0.50 -0.15 -0.50 -0.25 0 -1.10 -1.55 -1.85 -3.50 -0.75 -1.90 -1.60 -3.50 -1.85 -3.50 -0.25 0 -0.30 -0.20 -0.15 -0.50 0.15 -0.25 0.05 -0.50 -0.25 -0.50 -0.30 0 -0.40 -0.20 -0.25 -0.50 0.15 -0.25 0.05 -0.50 -0.25 -0.50 -0.30 0 -0.40 -0.20 -0.25 -0.50 0.15 -0.25 0.05 -0.50 -0.20 -0.50 -0.30 0 -0.50 -0.15 -0.45 -0.35 0.15 -0.75 -0.70 -3.15 -1.15 -3.15 -0.25 0 -0.30 -0.35 -0.15 -0.75 0.20 -0.40 0.05 -0.75 -0.25 -0.75 -0.30 0 -0.40 -0.35 -0.25 -0.75 0.20 -0.40 0.05 -0.75 -0.25 -0.75 -0.30 0 -0.40 -0.35 -0.25 -0.75 0.20 -0.40 0.10 -0.75 -0.10 -0.75 -0.25 0 -0.50 -0.70 -0.55 -1.60 -0.05 -0.85 -0.30 -1.70 -0.50 -1.85 -0.25 -0.15 -0.45 -1.20 -0.55 -2.30 -0.10 -1.10 -0.35 -2.10 -0.50 -2.25 -0.20 -0.15 -0.40 -1.05 -0.45 -2 -0.05 -0.95 -0.30 -1.80 -0.60 -1.90 -0.25 -0.10 -0.35 -0.50 -0.20 -0.90 0.15 -0.40 0 -0.70 -0.35 -0.70 -0.30 0 -0.40 -0.20 -0.25 -0.50 0.15 -0.25 0.05 -0.50 -0.20 -0.50 -0.30 0 -0.50 -0.15 -0.45 -0.35 0.20 -0.85 -0.70 -3.65 -1.15 -3.65 -0.30 0 -0.35 -0.25 -0.20 -0.50 0.55 -0.90 -0.95 -1.75 -4.25 -2.40 -4.50 -0.90 -10 -2.80 -14.90 -5.15 -2.25 -1.05 -4.25 -1.95 -4.45 -1.95 -0.15 0 -0.75 0.35 -1.25 0.85 -0.85 0.75 -0.90 0.70 -0.90 -1.20 0 -3 -1.20 -3.85 -5.90 -4.05 -2.95 -0.15 -4.05 -0.45 -4.75 -1.15 -1.05 -1.10 -0.85 -1.10 -6.20 -0.95 -4.10 0.10 -4.15 0.10 -4.15 -1.15 0 -1.20 0.10 -1.25 1.80 -0.80 0.95 0.30 2.15 0.40 2.60 0.30 0.50 -0.15 0.25 -0.25 -0.50 -0.30 -0.80 0 -1.40 -0.25 -1.40 -0.55 0 -0.25 -0.25 -0.50 -0.50 -0.50 -0.30 0 -1.50 -0.45 -2.70 -1.05 -1.90 -0.85 -2.65 -0.95 -5.80 -0.60 -2.20 0.25 -3.75 0.65 -3.90 1.05 -0.10 0.30 0.15 0.60 0.60 0.60 0.45 0 0.80 0.35 0.80 0.75 0 0.65 -1.55 0.75 -11.10 0.75 -16.15 0 -23.30 0.65 -28.75 2.55 -4.25 1.50 -10.80 4.55 -13.95 6.50 -1.25 0.75 -2.35 0.95 -5.30 0.85 -3.70 -0.15 -3.70 -0.15 -11.10 3.55 -6.60 3.25 -7.65 3.65 -9.60 3.40 -1.80 -0.20 -2.35 -0.05 -3.25 0.95 -1.25 1.35 -4.05 1.75 -2.95 0.45 0.80 -0.95 0.40 -1.05 -4.30 -1.50 -1.95 -0.15 -4.70 -0.60 -6.10 -1 l-2.60 -0.65 0 1.50 c0 2.40 1.50 12 2.10 13.55 0.40 1 0.65 1.25 0.95 0.75 0.90 -1.45 1.10 0.45 0.55 5.50 -0.35 2.95 -0.60 6.55 -0.60 7.90 0 2.15 -0.20 2.70 -1.45 3.85 -0.90 0.75 -1.65 2.05 -1.85 3.05 -0.55 3.15 0.70 19.20 1.85 23.55 1.70 6.20 1.70 7.30 0.15 13.30 -1.10 4.40 -1.55 5.45 -2.30 5.45 -0.55 0 -0.90 -0.35 -0.90 -1 0 -0.55 -0.35 -1 -0.80 -1 -0.40 0 -0.60 0.25 -0.45 0.55 0.40 0.60 -4.90 7.75 -6.30 8.50 -1 0.50 -0.75 1.95 0.35 1.95 1.50 0 0.60 1.40 -1.10 1.75 -1 0.15 -2.35 0.85 -3 1.50 -1.30 1.30 -5.35 2.30 -17.70 4.50 -8.35 1.45 -13.75 2.95 -22.35 6.05 -6 2.15 -8.65 2.70 -8.65 1.70z m292.55 -32.50 c0.25 0 0.45 -0.25 0.45 -0.55 0 -0.75 -2.15 -0.35 -2.40 0.50 -0.15 0.50 0 0.60 0.60 0.40 0.50 -0.20 1.10 -0.35 1.35 -0.35z m-237.15 -196.10 c0.25 -0.35 0.65 -1.20 0.85 -1.90 0.35 -1.20 9.95 -14.95 11.85 -17 0.50 -0.55 1.45 -1 2.05 -1 0.65 0 1.55 -0.30 2.05 -0.65 1.15 -0.85 4.05 -10.90 7.10 -24.60 0.50 -2.20 1.10 -4.15 1.40 -4.35 0.30 -0.20 1.40 -0.40 2.45 -0.40 2.90 0 13.75 -1.85 22.60 -3.80 13.90 -3.15 26.05 -7 38.60 -12.40 9.85 -4.20 8.90 -4.50 17.80 5.45 4.10 4.55 8.90 10.25 10.70 12.65 1.80 2.40 3.45 4.55 3.70 4.80 0.25 0.25 1.55 0.45 2.95 0.35 2.05 -0.10 2.90 0.15 4.60 1.35 3.15 2.15 5.20 3.10 6.60 3.10 1.65 0 3.05 -2 2.60 -3.75 -0.55 -2.20 -5.55 -12.15 -10 -20 -4.20 -7.30 -5.15 -10.15 -3.80 -11 0.35 -0.20 0.40 -1.65 0.20 -4 l-0.35 -3.65 3.45 -2 c6.90 -4.05 20.85 -16.65 22.20 -20.05 0.65 -1.65 0.65 -1.75 -0.90 -3.10 -0.90 -0.80 -2 -1.45 -2.45 -1.45 -0.50 0 -1.35 -0.60 -1.95 -1.35 -1.60 -2 -3.20 -1.10 -4.35 2.40 -1 3.15 -4.45 7.45 -5.95 7.45 -0.55 0 -1.80 0.80 -2.80 1.85 -1.05 1 -3.30 2.90 -5.05 4.25 -2.90 2.15 -3.50 2.40 -5.45 2.30 -2.05 -0.10 -2.35 0.05 -4.05 2 -2.35 2.75 -4.95 4.60 -6.40 4.60 -1.90 0 -4 1.35 -4.55 2.95 -0.60 1.70 -1.65 2.30 -8.15 4.75 -2.90 1.10 -5.60 1.80 -7.05 1.80 -1.70 0 -3.45 0.55 -6.50 2 -2.30 1.15 -6 2.60 -8.20 3.30 -8 2.45 -28.50 6.90 -34.20 7.50 -3.10 0.30 -3.70 0.50 -4.80 1.85 -0.95 1.15 -2 1.65 -4.35 2.15 -4.80 1.05 -7.80 0.90 -9.20 -0.40 l-1.15 -1.05 -5.35 1.30 c-11.35 2.70 -19.70 3.05 -24 0.90 -1.15 -0.60 -2.30 -1.05 -2.60 -1.05 -0.25 0 -0.65 -0.45 -0.80 -1 -0.45 -1.40 -1.65 -1.90 -4.65 -2.05 -2.55 -0.15 -4.10 0.55 -4.10 1.85 0 0.40 -0.80 0.70 -2.35 0.80 -2.20 0.15 -2.50 0.35 -3.85 2.35 l-1.45 2.20 1.30 1.15 c2.95 2.55 10.25 3.80 22.50 3.85 l9.35 0.05 0 2.05 c0 4.50 -5.10 23.05 -7.10 25.90 -0.95 1.30 -0.95 1.45 -0.20 2.30 1.15 1.25 1 4.20 -0.50 8.80 -1.60 5.05 -2.05 8.50 -1.20 9.50 0.75 0.90 2.20 1 2.90 0.15z m54.40 -149 c3.70 -0.85 5.60 -2 6 -3.65 0.15 -0.70 0.35 -1.25 0.40 -1.25 0.05 0 3.25 -0.55 7.15 -1.25 11.35 -2 18.55 -3.65 23.90 -5.55 2.75 -0.95 7.50 -2.40 10.50 -3.15 6.70 -1.70 10.40 -3.20 19.25 -7.55 3.70 -1.80 8.55 -3.95 10.75 -4.70 10.75 -3.75 14.50 -7.15 18.90 -17.10 1.60 -3.55 3.90 -8.25 5.10 -10.45 2.25 -3.95 4.95 -9.30 7.45 -14.85 1.75 -3.80 2.70 -9.40 1.90 -11.15 -0.85 -1.85 -0.75 -3.95 0.45 -9.85 0.60 -2.85 1.25 -6.05 1.45 -7.15 0.20 -1.10 0.95 -5.05 1.65 -8.85 0.75 -3.75 1.70 -9.80 2.15 -13.45 0.80 -6.20 0.80 -7 0 -13.65 -0.50 -3.90 -1.40 -10.30 -2.10 -14.25 -0.65 -4 -1.20 -7.85 -1.20 -8.60 0 -1.55 0.95 -2.50 1.10 -1.10 0.05 0.50 0.25 -2 0.45 -5.60 0.45 -8.95 0.55 -22.75 0.10 -22.75 -0.25 0 -0.30 -1.10 -0.25 -2.50 0.10 -1.35 0 -2.50 -0.25 -2.50 -0.25 0 -0.35 -0.90 -0.25 -2 0.15 -1.30 0 -2 -0.40 -2 -0.35 0 -0.45 -0.40 -0.25 -1 0.20 -0.55 0.10 -1 -0.20 -1 -0.30 0 -0.50 -0.15 -0.45 -0.35 0.15 -0.85 -0.75 -3.15 -1.25 -3.15 -0.30 0 -0.40 -0.15 -0.20 -0.30 0.35 -0.40 -1.15 -4.30 -1.85 -4.80 -0.30 -0.20 -0.40 -0.40 -0.20 -0.40 0.75 0 -0.85 -3.25 -2.30 -4.60 -2.85 -2.60 -10.50 -8.20 -16.30 -11.90 -3.15 -2 -7.65 -5 -10 -6.65 -4.90 -3.50 -9.45 -5.85 -17.60 -9 -3.15 -1.25 -7.30 -3.05 -9.20 -4 -5.95 -3 -8.35 -3.60 -6.70 -1.60 0.55 0.65 0.40 0.75 -0.95 0.75 -1.70 0 -4.30 -1.55 -15.90 -9.35 -9.40 -6.35 -18.75 -10.65 -24.70 -11.45 -2.10 -0.30 -3.15 -0.85 -5.90 -3.05 -3.90 -3.15 -7.25 -4.85 -11.90 -6 -4.35 -1.05 -22.45 -1.15 -43.90 -0.20 -12.20 0.55 -19.35 0.85 -26.40 1.05 -0.20 0 -0.70 0.75 -1.10 1.70 -0.40 0.95 -1.15 1.85 -1.60 2 -3.10 0.85 -13.90 3.30 -14.75 3.30 -0.55 0 -1.60 -0.35 -2.40 -0.80 -1.35 -0.80 -1.45 -0.75 -8.05 2.55 l-6.70 3.40 -13 13.05 c-7.15 7.20 -15.25 15.60 -18 18.70 -5.20 5.90 -11.20 13.90 -11.25 15 0 0.35 0.45 1 1 1.45 1.45 1.25 1.25 3.70 -0.45 6.50 -2 3.25 -7.95 15.60 -8.30 17.20 -0.40 1.65 0.80 2.95 2.80 2.95 1.30 0 1.45 -0.20 1.45 -1.50 0 -0.80 0.60 -2.95 1.30 -4.75 1.25 -3.10 1.40 -3.25 3 -3.25 2 0 2.10 0.50 1.15 5.85 l-0.55 3.15 -1.95 0.30 c-1.85 0.30 -1.95 0.40 -1.95 2.20 0 2.15 -1.20 5.80 -2.25 7 -0.40 0.45 -0.90 2.85 -1.20 6.25 -0.30 3.05 -1.10 10 -1.85 15.50 -1.15 8.40 -1.35 12 -1.40 22.50 -0.05 11.35 0.05 12.90 1.05 16.80 0.60 2.35 1.65 5.50 2.30 7 0.85 1.85 1.50 4.80 2.05 9.20 1.85 14.55 4.15 20.85 14.05 38.40 3.95 7.05 7.90 14.45 8.70 16.45 0.85 2 2.45 4.75 3.55 6.10 1.10 1.30 3.15 4.45 4.55 7 7.65 13.55 15.10 20.50 27.55 25.55 8.90 3.65 16.25 4.70 33.40 4.70 18.80 0.05 22.40 0.15 29.50 0.80 9.60 0.90 36.95 0.65 41.30 -0.35z"/>
  <path d="M424 828.10 c0 -0.80 0.55 -3.05 1.25 -5.05 0.90 -2.75 1.10 -3.90 0.70 -4.60 -0.25 -0.50 -0.70 -0.95 -0.95 -0.95 -0.75 0 -0.60 -3.25 0.30 -7.85 l0.85 -4.15 4.25 0 4.25 0 -0.30 2.90 c-0.20 1.55 -1.20 6.40 -2.30 10.75 -2.20 8.75 -3.20 10.30 -6.40 10.35 -1.50 0 -1.65 -0.15 -1.65 -1.40z"/>
  <path d="M536.70 801.50 c-3.35 -3.95 -4.05 -4.50 -5.45 -4.50 -1.30 0 -2.05 -0.45 -3.70 -2.35 -1.15 -1.35 -2.25 -2.60 -2.45 -2.90 -1.85 -2.55 -3.90 -4.80 -4.70 -5 -0.65 -0.25 -0.90 -0.80 -0.90 -2.20 l0 -1.85 4.15 -1.60 c2.25 -0.90 4.95 -1.60 5.95 -1.60 1.80 0 1.95 0.15 3.45 3.10 0.85 1.70 3.80 7 6.50 11.75 3.20 5.60 4.95 9.25 4.95 10.20 0 1.35 -0.10 1.45 -2 1.45 -1.90 0 -2.15 -0.25 -5.80 -4.50z"/>
  <path d="M428.50 699.30 c0 -0.45 0.30 -0.80 0.65 -0.80 0.35 0 0.90 -0.45 1.25 -1.05 0.45 -0.70 1 -0.95 1.65 -0.80 0.65 0.15 1.10 0 1.30 -0.50 0.15 -0.45 0.65 -0.65 1.25 -0.50 0.55 0.15 1.10 -0.05 1.25 -0.45 0.15 -0.40 0.65 -0.70 1.10 -0.60 1.15 0.15 4.55 -1.10 4.55 -1.70 0 -0.30 0.50 -0.40 1.20 -0.20 0.75 0.20 1.50 0.05 1.90 -0.35 0.95 -0.95 2.35 -1.45 4.85 -1.60 1.20 -0.10 2.35 -0.40 2.50 -0.70 0.20 -0.25 0.75 -0.45 1.30 -0.45 1.65 0.15 7.25 -1.20 7.25 -1.70 0 -0.30 0.55 -0.35 1.25 -0.20 0.70 0.20 1.25 0.15 1.25 -0.10 0 -0.20 1.15 -0.40 2.60 -0.40 1.60 0 2.65 -0.25 2.80 -0.60 0.15 -0.45 0.75 -0.50 1.90 -0.30 0.95 0.15 1.70 0.10 1.70 -0.15 0 -0.20 1.40 -0.45 3.05 -0.50 1.70 -0.05 3.25 -0.30 3.45 -0.65 0.20 -0.35 0.85 -0.45 1.65 -0.20 0.85 0.20 1.35 0.10 1.35 -0.25 0 -0.35 0.75 -0.45 2.25 -0.20 1.35 0.15 2.25 0.10 2.25 -0.20 0 -0.25 1 -0.45 2.25 -0.45 1.25 0.05 2.25 0.20 2.25 0.40 0 0.20 0.35 0.25 0.75 0.10 0.50 -0.20 0.75 0 0.75 0.75 0 0.85 -0.80 1.45 -3.85 2.85 -6.65 3.05 -12.15 5.20 -15.05 5.95 -3.80 1 -11.50 1 -12.60 0 -0.70 -0.65 -0.95 -0.65 -1.90 0.05 -0.85 0.60 -1.10 1.25 -1.10 2.90 0 1.95 -0.15 2.20 -1.35 2.55 -0.80 0.20 -7.30 0.45 -14.50 0.60 -11.80 0.20 -13.15 0.15 -13.15 -0.55z"/>
  <path d="M363.20 695.05 c-2.80 -1.35 -6.45 -3.35 -8.15 -4.50 -2.85 -1.95 -3.05 -2.20 -3.05 -4.05 0 -1.85 0.10 -2 1.40 -2 0.85 0 3.55 1.25 6.65 3.15 2.85 1.70 6.80 3.90 8.80 4.85 3.35 1.65 3.60 1.85 3.60 3.40 0.05 1.55 0 1.60 -2.05 1.60 -1.50 -0.05 -3.70 -0.80 -7.20 -2.45z"/>
  <path d="M497 689.85 c0 -1.65 0.20 -1.90 1.90 -2.65 1 -0.45 2.90 -0.95 4.25 -1.05 l2.35 -0.30 0 1.85 c0 1.65 -0.20 1.95 -1.80 2.60 -1 0.40 -2.90 0.90 -4.25 1.05 l-2.45 0.30 0 -1.80z"/>
  <path d="M509 685.25 c0 -2.10 1.10 -2.75 5.40 -3.15 l2.60 -0.20 0 1.70 c0 1.65 -0.15 1.80 -2.55 2.55 -1.40 0.50 -3.20 0.85 -4 0.85 -1.30 0 -1.45 -0.15 -1.45 -1.75z"/>
  <path d="M357.25 681.60 c-6.45 -4.10 -10.25 -7 -10.25 -7.85 0 -0.35 -1.55 -2.55 -3.40 -4.85 -3.80 -4.60 -8.50 -11.25 -9.80 -13.80 -0.60 -1.20 -0.80 -2.75 -0.75 -5.70 0.10 -4.65 -0.40 -5.40 -3.55 -5.40 -1.80 0 -1.85 -0.10 -3.40 -3.60 -1.60 -3.60 -2.05 -7.05 -1.10 -7.65 0.85 -0.55 0.55 -1.10 -2.25 -4.35 -5.55 -6.40 -8.80 -18.35 -10.30 -37.90 -0.85 -11.20 -0.30 -31.10 1 -38.20 0.55 -3 1.25 -5.70 1.55 -6 0.25 -0.25 0.50 -1.30 0.50 -2.25 0.05 -1 0.45 -3.05 1 -4.55 0.90 -2.70 0.90 -2.75 -0.05 -3.80 -0.70 -0.75 -0.95 -1.75 -0.95 -3.90 0 -8.30 3.50 -29.45 6.50 -39.15 1.35 -4.40 2.10 -5.75 6.70 -11.60 6.05 -7.75 7.70 -9.50 10.30 -10.80 2.45 -1.25 3 -2 3 -4 0 -1.65 5.55 -6.60 8.20 -7.30 1.15 -0.30 2.85 -1.05 3.80 -1.75 1 -0.65 2.95 -1.40 4.40 -1.70 4.20 -0.75 5.90 -2.20 4.30 -3.50 -0.40 -0.35 -0.70 -1.45 -0.70 -2.50 l0 -1.85 4.15 -1.25 c2.25 -0.70 7.05 -2 10.60 -2.85 3.60 -0.85 10.20 -2.50 14.75 -3.65 l8.25 -2.10 12 0 c11.95 0 12.05 0 26.50 2.40 8 1.35 14.65 2.55 14.85 2.75 0.20 0.15 0.50 1.65 0.70 3.30 l0.35 3 -1.05 -0.95 c-0.60 -0.50 -0.95 -1.15 -0.80 -1.40 0.20 -0.30 -0.15 -0.25 -0.70 0.05 -0.55 0.30 -2.95 0.55 -5.35 0.55 -2.45 0 -8.15 0.65 -13.40 1.50 -16.30 2.75 -17.70 2.95 -18.80 2.65 -0.60 -0.15 -1.05 -0.05 -1.05 0.30 0 0.30 -0.40 0.55 -0.90 0.55 -0.50 0 -7.55 1.70 -15.65 3.75 -18.10 4.65 -52.10 13.25 -52.30 13.25 -0.10 0 -0.15 0.20 -0.15 0.40 0 0.25 -1.75 3.55 -3.90 7.40 -2.10 3.80 -4.35 8.10 -5 9.55 -1.35 3.20 -9.45 35.60 -11.60 46.65 -0.90 4.55 -1.80 8.30 -2.05 8.40 -0.20 0.10 -0.30 0.45 -0.15 0.85 0.15 0.35 -0.10 3.10 -0.60 6.10 -0.60 3.80 -0.75 6.75 -0.50 9.95 0.30 4.65 0.60 6 4.25 18.80 1.10 4.05 2.60 10.65 3.30 14.65 0.70 4 2.15 10.25 3.25 13.85 2.75 9.50 5.60 20.95 5.30 21.65 -0.10 0.35 -0.05 0.80 0.20 1.05 0.20 0.25 1 3.60 1.75 7.45 1.40 7.05 3.50 14.55 6 21 0.75 1.95 1.40 3.75 1.45 4 0.05 0.30 0.95 2.15 2 4.15 3.30 6.55 5.80 9.35 11.95 13.55 1.30 0.85 2.35 1.80 2.35 2 0 0.25 0.45 0.55 1 0.70 0.55 0.15 1 0.60 1 1.05 0 0.45 0.25 0.80 0.50 0.80 0.30 0 0.50 0.25 0.50 0.50 0 0.30 -0.75 0.50 -1.60 0.50 -1.10 -0.05 -3.10 -1 -6.15 -2.90z"/>
  <path d="M479.75 452.75 c-1.10 -0.35 -3.75 -1 -5.85 -1.35 -3.75 -0.70 -3.85 -0.65 -3.05 0.20 0.75 0.85 0.70 0.90 -0.55 0.90 -2.05 0 -4.80 -3 -4.80 -5.25 l0 -1.75 2.65 0 c2.20 0 3.45 0.45 8.20 2.85 4.65 2.40 5.65 3.10 5.65 4.05 0 0.60 -0.05 1.10 -0.10 1.05 -0.10 0 -1.05 -0.35 -2.15 -0.70z"/>
  <path d="M689.70 1008.85 c-0.10 -11.55 -0.40 -15.40 -2.20 -25.10 -0.25 -1.35 -0.85 -5.30 -1.35 -8.65 l-0.85 -6.20 1.85 -1.55 1.80 -1.60 -1.20 -4.50 c-1.20 -4.35 -1.65 -8.75 -0.85 -8.75 1.25 0.05 6.85 10.70 9.05 17.30 3.55 10.60 4.05 23.95 1.35 34.70 -1.15 4.50 -3.90 11.60 -4.80 12.50 -0.50 0.50 -1.05 1.60 -1.25 2.45 -0.20 0.85 -0.60 1.55 -0.90 1.55 -0.45 0 -0.60 -3.25 -0.65 -12.15z"/>
  <path d="M300 965.50 c0 -2.25 0.20 -3 0.70 -3 0.40 0 0.85 0.70 1.05 1.50 0.45 2 -0.15 4.50 -1.05 4.50 -0.50 0 -0.70 -0.75 -0.70 -3z"/>
  <path d="M684 890.75 c0 -22.55 0.10 -25.75 0.75 -25.75 0.40 0 0.80 0.40 0.85 0.90 0 0.45 0.10 1.15 0.10 1.50 0.05 0.35 0.35 0.80 0.65 1 1 0.65 4 10.55 4.65 15.50 0.75 5.40 0.45 13.20 -0.75 18.35 -1.10 4.75 -2.75 9.75 -3.25 9.75 -0.20 0 -0.30 0.40 -0.15 0.95 0.10 0.50 -0.15 1.25 -0.55 1.70 -0.45 0.40 -0.80 1 -0.80 1.30 0 0.30 -0.35 0.55 -0.75 0.55 -0.65 0 -0.75 -3.20 -0.75 -25.75z"/>
  <path d="M726.70 774.40 c-0.15 -0.65 -2 -4.90 -4.05 -9.50 -3.55 -8.05 -4.85 -11.95 -6.20 -18.95 -0.70 -3.60 -2.15 -5.45 -4.25 -5.45 l-1.30 0 0.25 -10.35 c0.25 -9.40 0.40 -10.85 1.70 -15.40 1.05 -3.65 1.65 -5.05 2.30 -5.15 0.50 -0.10 0.85 0.15 0.85 0.60 0 0.45 0.30 0.80 0.70 0.80 0.80 0 6.45 6.10 9.20 9.90 4.15 5.65 8.05 16.25 8.45 22.85 0.70 11.55 -0.30 17.95 -4.70 29.40 -1 2.55 -2.35 3.15 -2.95 1.25z"/>
  <path d="M690.15 532.15 c-0.15 -0.50 -2.30 -5.85 -4.70 -11.85 -4.85 -11.90 -5.30 -14.10 -3.35 -16.15 l1.05 -1.15 -1.85 -5.85 c-3.80 -11.90 -9.95 -25.90 -16.55 -37.65 -4.85 -8.65 -5.60 -10.40 -7.95 -18.70 -1.30 -4.40 -2.65 -8.35 -3.05 -8.80 -0.60 -0.65 -1.35 -0.80 -2.95 -0.65 l-2.15 0.25 -3.75 -6.40 c-9.70 -16.55 -12.90 -22.50 -12.90 -24.10 0 -1.90 0.60 -2.05 1.50 -0.35 0.35 0.70 0.95 1.20 1.30 1.15 0.70 -0.15 9.15 6.30 13.35 10.20 1.90 1.80 3 2.55 3.35 2.20 0.35 -0.35 0.50 -0.10 0.50 0.75 0 0.75 -0.65 1.90 -1.75 2.95 -1.30 1.25 -1.60 1.85 -1.25 2.50 0.90 1.65 2.05 1.60 4.25 -0.25 1.50 -1.20 2.70 -1.75 3.80 -1.75 1.55 0 1.55 0.05 0.75 0.95 -0.85 0.90 -0.75 1.10 2.05 4.10 4.85 5.30 10.05 12.10 11.30 14.95 0.20 0.40 0.80 1.45 1.35 2.25 2.75 4.15 10.70 22.40 10.05 23.20 -0.05 0.10 0.05 0.35 0.30 0.50 0.35 0.25 2.30 4.25 2.45 5.05 0 0.15 0.55 1.35 1.15 2.70 0.65 1.35 1.25 2.80 1.30 3.25 0.10 0.45 0.20 0.85 0.25 0.95 0.10 0.05 0.15 0.25 0.25 0.50 0.05 0.20 0.35 1 0.70 1.80 1.55 3.85 3.20 14.20 3.75 23.90 0.10 2.10 0.35 4.10 0.55 4.40 0.20 0.35 0.50 5.35 0.65 11.15 0.25 10.50 0.50 11.85 2.05 11.85 0.30 0 0.55 0.35 0.55 0.75 0 0.40 -0.30 0.75 -0.70 0.75 -0.35 0 -0.95 0.35 -1.30 0.75 -0.90 1.05 -3.95 1 -4.35 -0.10z"/>
  <path d="M369.75 322 c-0.15 -0.25 -1.85 -0.50 -3.75 -0.50 l-3.50 0 -1 -1.95 c-1.90 -3.80 -3.15 -9.40 -2.75 -12.80 0.55 -5.30 1.25 -6.15 6.90 -8.35 11.10 -4.35 13.60 -4.45 21.25 -0.70 3.05 1.50 6.45 3.55 7.60 4.60 2.90 2.60 6 8.10 6 10.60 l0 1.95 -13.40 3.80 c-12.90 3.70 -16.70 4.45 -17.35 3.35z"/>
  <path d="M278.50 234.60 c0 -9.05 3.50 -44.45 4.80 -48.70 0.30 -1 1.70 -1.25 1.70 -0.25 0 0.40 0.80 0.55 2.75 0.45 2.35 -0.15 2.70 -0.30 2.20 -0.90 -0.45 -0.55 -0.30 -0.70 0.95 -0.70 1.25 0 2.05 0.60 4.30 3.20 3.15 3.60 3.50 4.30 4.55 10.50 2.05 11.90 -0.15 28.10 -4.75 35.30 -1.90 2.90 -6.35 7.30 -8.15 7.95 -0.80 0.30 -3 0.55 -4.90 0.55 l-3.45 0 0 -7.40z"/>
  <path d="M356.80 235 c-0.75 -0.90 -1.70 -2.30 -2.10 -3.10 -1.90 -3.70 -2.80 -13.40 -1.65 -17.55 0.30 -1.10 1.30 -2.75 2.20 -3.75 1.65 -1.80 1.75 -1.85 5.35 -1.85 4.70 0.05 6.75 1 10.80 5.15 3.10 3.15 4.25 3.60 4.90 1.85 0.35 -0.80 -1.20 -3.55 -2.80 -5 -0.60 -0.55 -1 -1.55 -1 -2.60 0 -1.50 0.15 -1.65 1.55 -1.65 3.35 0 6.20 3.95 7.45 10.30 0.85 4.40 0.45 14.85 -0.70 17.60 -0.80 1.90 -1.10 2.10 -2.60 2.10 -0.95 0 -1.70 -0.20 -1.70 -0.45 0 -1.10 -6.40 -1 -16.05 0.25 -2.15 0.25 -2.40 0.15 -3.65 -1.30z"/>
  <path d="M361.95 133.95 c-5.55 -8.80 -12.95 -24.55 -12.95 -27.50 0 -2.20 1.70 -3.95 3.80 -3.95 1.30 0 1.90 0.70 5.45 5.65 2.20 3.05 6.40 9.20 9.35 13.55 5.65 8.35 5.90 9.05 5.10 13.20 -0.35 1.80 -0.95 2.10 -5.20 2.45 l-3.25 0.25 -2.30 -3.65z"/>
  <path d="M350.50 132.75 c-1.40 -1.25 -3.40 -2.80 -4.40 -3.50 -3.30 -2.15 -4.05 -2.95 -4.85 -5.25 -1.15 -3.10 -1.55 -11.15 -0.75 -14.45 0.60 -2.55 0.65 -2.60 2.35 -2.45 1.75 0.15 1.75 0.20 5.10 7.65 1.85 4.15 4.50 9.75 5.95 12.45 1.45 2.70 2.60 5.60 2.60 6.35 0 1.30 -0.15 1.45 -1.75 1.45 -1.35 0 -2.30 -0.50 -4.25 -2.25z"/>
  <path d="M374.65 117.50 c-0.15 -0.55 -0.45 -1 -0.65 -1 -0.20 0 -1 -0.95 -1.80 -2.10 -0.80 -1.20 -1.55 -2.25 -1.70 -2.40 -1.60 -1.60 -4.50 -6.70 -4.50 -7.95 l0 -1.50 2.85 1.95 c3.20 2.30 5.85 5.85 6.35 8.70 0.20 1.10 0.80 2.55 1.35 3.20 1.25 1.65 1.20 2.10 -0.35 2.10 -0.85 0 -1.40 -0.30 -1.55 -1z"/>
 </g>
 <g fill="#000000">
  <path d="M341.25 1097.50 c-3.60 -0.55 -10.35 -2.60 -14.15 -4.30 -1.50 -0.65 -3.25 -1.20 -3.90 -1.20 -1.85 0 -6.35 -1.85 -9.70 -4.05 -6.30 -4.05 -10.95 -9.65 -15.10 -18.25 -0.95 -1.90 -2.85 -5.10 -4.30 -7.15 -4.40 -6.30 -7.15 -16.80 -9.65 -36.80 -0.90 -7.20 -1.10 -11.30 -1.05 -20.50 0 -6.30 0.30 -13.50 0.55 -16 0.70 -5.85 0.70 -19.50 0 -25.65 -0.30 -2.65 -1.40 -9.35 -2.45 -14.85 -1.05 -5.50 -2.30 -12.80 -2.75 -16.25 -1.10 -8.55 -3 -18.60 -4.30 -22.75 -0.60 -1.95 -2.75 -7.30 -4.80 -12 -2.10 -4.65 -4.30 -9.85 -4.90 -11.50 -1.40 -3.65 -1.15 -4.75 -3.50 13.75 -2.65 21.05 -2.70 21.50 -4.05 22.85 -0.70 0.65 -1.75 1.15 -2.60 1.15 -1.45 0 -1.45 0.05 -1.80 3.65 -0.70 7.90 -2.85 22.45 -3.45 23.40 -0.60 1 -1.60 1.45 -3.50 1.65 -0.60 0.10 -1.90 0.45 -2.90 0.80 -1.50 0.55 -2 0.50 -3.35 -0.20 -1.85 -0.95 -2.60 -2.50 -2.60 -5.35 0 -4.70 -7.60 -32.05 -9.50 -34.20 -3 -3.35 -4.80 -10.15 -5.50 -20.50 -0.25 -4.40 -0.65 -9.90 -0.80 -12.25 -0.35 -4.50 0.50 -23.80 1.30 -31.05 0.45 -4 0.35 -4.95 -1.45 -14.50 -3.45 -18 -2.45 -15.25 -16.20 -43.70 -3.20 -6.60 -8.75 -19.20 -12.35 -28 -6.90 -16.80 -7.60 -18.35 -16.10 -34.75 -6.45 -12.40 -11.15 -22.90 -13.90 -30.85 -2.20 -6.35 -13.05 -44.05 -15.15 -52.65 -2.95 -12.05 -5.95 -30.85 -6.90 -43.05 -0.60 -8 -0.70 -8.35 -3.05 -14.15 -1.30 -3.30 -2.40 -6.40 -2.40 -6.85 0 -1.60 2.20 -3.60 3.90 -3.60 1.10 0 1.60 -0.30 1.80 -1.05 0.45 -1.70 0.35 -6.10 -0.25 -9.95 -0.70 -4.40 -1.55 -5.30 -6.30 -6.75 -1.90 -0.60 -5.15 -1.85 -7.20 -2.80 -3.95 -1.80 -14.75 -9.25 -22.40 -15.50 -2.60 -2.10 -5 -3.80 -5.30 -3.80 -0.35 0 -1.75 -0.95 -3.05 -2.15 -1.35 -1.20 -4.15 -3.35 -6.25 -4.80 -2.10 -1.40 -4.25 -3.05 -4.70 -3.55 -0.70 -0.75 -1.30 -0.90 -2.70 -0.70 -4 0.60 -8.45 -4.05 -19.45 -20.55 -9.70 -14.45 -15.10 -24.15 -19.10 -34.20 -0.50 -1.25 -1.70 -4 -2.65 -6.05 -8.45 -18.25 -11 -24.95 -12.80 -33.75 -2.25 -11.10 -2.85 -24.10 -1.30 -28.70 0.95 -2.95 2.85 -4.35 5.20 -3.80 1.35 0.30 1.35 0.25 2 -3.60 1.70 -10.75 4.05 -19.85 5.80 -23.05 0.70 -1.25 1.25 -2.90 1.25 -3.70 0 -3.85 3.30 -10.70 8 -16.55 6.15 -7.70 29.70 -30.85 32.45 -31.90 0.80 -0.35 1.60 -0.25 2.70 0.30 1.50 0.75 1.55 0.70 3.80 -1.40 3.45 -3.20 6.35 -5.15 17.30 -11.70 5.50 -3.30 11.90 -7.30 14.20 -8.85 5.30 -3.55 7.80 -3.85 10.15 -1.25 0.95 0.95 1.85 1.45 2.85 1.45 2.30 0 3.75 1.50 3.80 4 0.05 1.35 0.35 2.25 0.85 2.55 0.40 0.25 1.05 1.10 1.35 1.90 0.55 1.25 0.45 1.80 -0.70 4.25 -0.85 1.85 -2.10 3.40 -3.50 4.50 -5.05 3.85 -5.75 4.65 -5.45 6.25 0.35 1.60 -0.55 2.80 -4.60 6.10 -1.95 1.55 -2.60 2.80 -5.55 10.35 -2 5.20 -2.25 6.05 -1.80 7.70 0.55 2.05 -0.20 4.55 -1.50 5.05 -0.45 0.15 -1 1.45 -1.35 3.05 -0.50 2.35 -0.45 2.95 0.20 3.90 1.45 2.10 0.50 4.95 -1.95 5.90 -1.10 0.40 -1.15 0.65 -1.50 9.60 -0.20 5.05 -0.25 15.35 -0.10 22.90 0.15 11.30 0.40 14.80 1.30 19.75 0.95 5.05 1 6.30 0.55 8.10 -0.55 1.90 -0.50 2.35 0.70 4.95 1.85 4.05 10.75 20.10 11.35 20.45 0.25 0.20 1.30 1.60 2.30 3.15 7.10 11.15 20.95 25.65 22.65 23.75 0.20 -0.20 1.05 -2.40 1.90 -4.90 0.85 -2.45 1.95 -5.75 2.50 -7.25 0.55 -1.50 1.50 -6.10 2.10 -10.25 1.65 -11.55 3.70 -19.10 8.10 -29.50 2.85 -6.80 3.95 -8.25 6 -8.25 2.05 0 3.15 0.70 3.85 2.40 0.55 1.35 0.40 2.05 -2.10 7.90 -3.10 7.35 -3.95 9.70 -5.60 15.75 l-1.15 4.30 2.35 -1.55 c1.75 -1.10 2.95 -2.50 4.50 -5.15 2.90 -4.95 7.95 -12.45 12.30 -18.15 1.95 -2.60 4.50 -6.25 5.70 -8.05 1.25 -2.05 2.60 -3.55 3.50 -3.90 0.85 -0.40 2.55 -2.30 4.55 -5.20 9.70 -13.95 22.40 -27.90 32.10 -35.10 5.90 -4.45 28.20 -18 39.40 -24.05 4 -2.10 7.30 -3.90 7.40 -4 0.10 -0.05 -0.30 -0.60 -0.85 -1.15 -0.60 -0.60 -1.05 -1.25 -1.05 -1.55 0 -0.25 -0.95 -0.70 -2.10 -1 -8.20 -2 -12.85 -8.70 -8.20 -11.80 1.75 -1.10 3.40 -0.60 5.55 1.75 1.65 1.75 4 2.95 4.60 2.40 0.20 -0.20 -0.45 -4.80 -1.15 -7.75 l-0.25 -1.20 -1 1.30 c-1.35 1.70 -3.85 1.75 -5.35 0.20 -1.70 -1.85 -2.15 -10.15 -2.10 -35.90 0.05 -21.05 0.45 -30.20 1.75 -39 0.90 -5.80 1.35 -13.85 1.75 -30 0.45 -18.40 1.30 -29.25 2.95 -38 0.70 -3.40 0.80 -5.10 0.45 -6.10 -0.60 -1.75 -0.20 -3.60 1.10 -4.90 0.90 -0.90 7.50 -19.55 7.50 -21.20 0 -0.40 -0.30 -0.80 -0.60 -0.90 -0.45 -0.15 0.45 -3.60 3 -11.45 4.10 -12.55 7.45 -22.35 9.60 -27.95 5.75 -15.05 6.15 -16.45 9.70 -32.40 1.55 -6.80 3.55 -14.85 4.50 -17.90 1.55 -4.95 2.75 -9.20 4.30 -15.10 0.35 -1.45 0.90 -2.30 1.70 -2.55 0.70 -0.30 1.35 -1.15 1.70 -2.50 0.80 -2.50 2.80 -4.25 4.60 -3.80 1.35 0.35 4.85 3.45 5.25 4.75 0.15 0.45 0.90 1.15 1.70 1.65 0.90 0.55 1.60 1.45 1.80 2.40 0.25 1.10 1 1.95 2.65 3 1.25 0.80 2.45 1.45 2.65 1.45 0.20 0 0.45 -0.60 0.55 -1.40 0.10 -0.80 0.45 -1.35 0.90 -1.40 0.40 0 1.50 -0.40 2.40 -0.90 2.20 -1.15 4.40 -0.70 5.30 1.10 0.35 0.75 0.80 2.85 1 4.65 0.40 4.15 2.85 10.50 6.15 16 2.65 4.35 4.35 8.15 5.90 12.95 4.85 15.05 10.95 25.75 25.30 44.05 11.65 14.85 18.25 24.55 25.55 37.55 1.65 3 3.30 5.40 3.60 5.40 1.35 0 3.30 2.85 6.80 9.90 3.20 6.55 3.90 7.60 4.90 7.60 1.30 0 3.15 0.85 3.70 1.70 0.20 0.30 1.85 5.15 3.70 10.80 1.90 6 4.55 12.85 6.30 16.50 3.25 6.80 6.40 14.50 6.40 15.75 0 0.40 0.20 1.15 0.45 1.65 0.25 0.45 0.95 3.10 1.55 5.85 0.65 2.75 2.25 9.05 3.55 14 2.50 9.20 4.35 17.25 5.45 23.60 l0.65 3.60 0.95 -1.25 c1.25 -1.55 3.50 -1.60 5.75 -0.10 2.15 1.50 3.25 3.85 3.25 7.10 0.10 8 -6.70 17.30 -18.10 24.90 -2.90 1.95 -4.70 3.40 -4 3.20 0.70 -0.15 3.50 -0.45 6.25 -0.60 2.75 -0.15 6.05 -0.65 7.35 -1.10 1.90 -0.60 2.70 -0.65 4.25 -0.20 1.05 0.30 8 0.75 15.40 1.05 19.25 0.75 33.30 3.10 52.10 8.80 5 1.50 9.45 2.75 9.85 2.75 0.40 0 1.60 -0.55 2.60 -1.25 1 -0.70 2.35 -1.25 2.95 -1.25 1.40 0 6.95 2.85 13.50 6.90 2.75 1.75 6.25 3.50 7.75 3.90 14.30 4 15.50 4.55 15.50 7.45 0 1.50 0.15 1.60 8.15 5.20 13.25 6 18.35 9 24.95 14.65 1.95 1.70 4.55 4.35 5.80 6 1.85 2.35 2.40 2.80 2.90 2.30 1.80 -1.90 16.30 -24.30 18.20 -28.15 l2.25 -4.50 0.15 -9.10 c0.20 -9.75 -0.25 -13.40 -1.90 -15.50 -1.90 -2.45 -1.10 -5.15 2.05 -6.60 l1.70 -0.80 0.15 -4.50 c0.10 -3.50 -0.15 -5.60 -1.10 -9.50 -0.70 -2.75 -1.75 -8.60 -2.30 -13 -0.80 -6.10 -1.60 -9.90 -3.50 -16 -1.35 -4.40 -2.70 -8.95 -3 -10.10 -0.55 -2.15 -3 -4.85 -13.50 -14.55 -2.85 -2.65 -3.20 -3.20 -3.20 -4.85 0 -1.40 0.35 -2.15 1.30 -3 l1.25 -1.05 -5.20 -6.25 c-2.85 -3.40 -5.40 -6.90 -5.75 -7.80 -0.40 -1.10 -1.20 -1.85 -2.50 -2.45 -3.55 -1.60 -4.50 -4.65 -2.10 -7.05 1.05 -1.05 1.60 -1.20 3 -1 l1.70 0.30 -2.60 -3.85 c-3.95 -5.95 -9.30 -10.90 -14.85 -13.85 -3.75 -2 -4.85 -2.80 -5.35 -4.10 -0.75 -1.70 -0.55 -2.85 0.70 -4.30 0.45 -0.45 0.85 -1.45 0.90 -2.20 0.40 -3.45 4.90 -4.55 8.55 -2 1.05 0.70 6.55 3.40 12.25 6.05 10.25 4.70 10.35 4.75 11.90 3.95 2.05 -1 3.50 -0.40 6.75 2.90 2.55 2.55 3.30 3.10 12.35 8.45 6.30 3.70 8.25 5.40 8.65 7.35 0.50 2.40 1 2.90 3.35 3.15 2.65 0.35 2.95 0.50 8.75 5.75 2.45 2.20 6.90 6.15 9.85 8.75 2.95 2.60 7.15 6.85 9.35 9.45 3.25 3.90 4.20 4.70 5.50 4.80 0.85 0.10 1.95 0.55 2.45 1.05 1.90 2.05 7.30 17.60 10.95 31.75 2.15 8.30 2.35 9.45 1.80 10.80 -0.70 1.65 -1.60 2.15 -3.70 2.15 -2.45 0 -3.35 -1.65 -5.55 -10.25 -1.10 -4.40 -3.20 -11.55 -4.60 -15.90 -2.25 -6.95 -2.75 -7.95 -4 -8.55 -0.75 -0.40 -1.40 -0.60 -1.40 -0.50 0 0.60 3.25 13.10 5 19.20 1.05 3.70 3.70 11.85 5.90 18.05 3.65 10.25 5.10 15.40 5.10 18.05 0 1.45 -2.25 3.40 -3.85 3.40 -2.55 0 -3.45 -1.15 -4.40 -5.35 -0.50 -2.15 -2.15 -7.50 -3.75 -11.90 -4.40 -12.30 -6.10 -17.75 -9 -28.60 -0.30 -1.25 -0.85 -2.15 -1.25 -2.15 -1.50 0 -3.15 -2.35 -4.45 -6.50 -3.25 -10.25 -18.15 -32.15 -23.30 -34.20 -1.15 -0.45 -5.35 -1.40 -9.40 -2.05 -4.05 -0.70 -7.90 -1.40 -8.55 -1.55 -0.95 -0.20 -1.10 -0.10 -0.70 0.40 0.30 0.35 1.40 3.35 2.40 6.65 1.05 3.30 2.40 6.65 3 7.50 0.65 0.80 1.70 2.75 2.40 4.30 0.70 1.55 1.50 3 1.80 3.15 0.30 0.20 0.55 1.40 0.55 2.70 0 2.95 2.65 9.80 4.60 11.85 0.75 0.85 1.40 1.80 1.40 2.15 0 0.30 1 1.70 2.20 3.05 3.05 3.40 3.45 4.90 6.85 24.55 1.20 7.15 1.50 19.45 0.80 37 -0.50 12.25 -0.90 15.10 -3.10 21.70 -0.90 2.80 -2.15 7.50 -2.70 10.45 -1.85 9.30 -3.25 11.95 -9.10 17.15 -1 0.85 -2.30 2.65 -2.90 3.95 -0.65 1.35 -3.80 5.40 -7.10 9.05 -3.25 3.65 -5.95 7 -5.95 7.45 0 1.40 9.65 20 17.40 33.50 10.55 18.40 9.45 16.80 10.90 16.25 1.35 -0.55 3.15 0 4.10 1.15 0.35 0.40 1.65 4.25 2.85 8.60 2.35 8.15 3.50 11.05 5.60 14.40 2.25 3.60 9.60 18.10 12.40 24.60 2.75 6.30 8.75 23.40 8.75 24.90 0 0.45 -0.55 1.45 -1.25 2.25 -0.70 0.85 -1.25 1.70 -1.25 1.95 0 0.30 2 5.45 4.45 11.45 2.40 6 4.55 11.35 4.75 11.90 0.30 0.85 0.40 0.90 1.20 0.10 1.50 -1.30 4.35 -1.05 5.60 0.60 0.95 1.15 1.05 1.80 0.85 4.60 -0.45 5.70 0.55 17 2.15 23.90 0.80 3.50 2 9.50 2.70 13.35 0.70 3.85 1.80 9.50 2.50 12.50 0.70 3.05 2.40 11.80 3.75 19.50 1.40 7.70 3.30 18.15 4.30 23.25 2.10 10.70 2.70 17.90 2.70 33.25 0.05 8.15 -0.15 11.70 -0.70 13.75 -1 3.75 -0.95 4.35 0.50 4.70 1.90 0.50 2.40 2 2.15 6.25 -0.40 5.95 -2.80 20.70 -4.50 27.55 -2.10 8.40 -2.30 10.15 -2.35 18.15 l-0.05 6.85 1.25 0 c2.05 0 3.50 1.90 4.20 5.45 1.35 7 2.65 10.90 6.20 18.95 5.45 12.25 9.10 22.80 8.50 24.50 -0.15 0.45 -0.60 1.20 -1 1.65 -0.50 0.65 -0.55 1.35 -0.15 3.25 0.70 3.50 2.40 12.60 2.75 14.95 0.85 5.65 1.15 14.55 0.55 16 -0.45 1.05 -0.50 2.45 -0.25 4.50 0.20 1.65 0.65 10.65 0.90 20 0.60 18.50 0.75 19.75 4.35 36.15 2.35 10.80 2.85 15.55 1.75 17.50 -0.35 0.65 -1.60 1.60 -2.75 2.10 -1.15 0.55 -2.60 1.50 -3.30 2.20 -1.45 1.60 -3.95 1.75 -5.25 0.30 -0.70 -0.80 -1.30 -0.90 -3 -0.65 -1.85 0.25 -2.35 0.10 -3.40 -0.95 -1.35 -1.35 -2.15 -5.65 -1.60 -8.80 0.15 -1.05 -0.05 -4.15 -0.45 -6.85 -1.65 -10.95 -9.05 -25.10 -19.75 -37.75 -5.45 -6.40 -6.45 -8.65 -7.85 -16.95 -0.45 -2.65 -0.95 -5 -1.15 -5.20 -0.55 -0.55 -2.40 5.50 -3.50 11.40 -0.55 2.75 -1.65 8.75 -2.55 13.30 l-1.55 8.35 0.20 40.65 c0.20 44.55 0.05 42.80 3.35 55.70 1.95 7.70 1.90 8.30 -0.20 10.10 l-1.70 1.40 0.65 4.50 c0.40 2.50 0.95 5.85 1.25 7.50 2.20 12.05 2.95 26.10 2.05 37.50 -0.90 10.70 -2.35 15.80 -6.85 23.65 -1.20 2.10 -2.20 4.15 -2.20 4.50 0 0.35 -0.70 1.70 -1.55 3 -0.85 1.30 -2.25 3.50 -3.10 4.85 -1.25 2 -2.25 2.80 -4.75 4.05 -4.85 2.40 -10.70 3.90 -15.60 4 -2.35 0.05 -6.30 0.55 -8.75 1.10 -2.50 0.60 -6.20 1.10 -8.25 1.15 -3.30 0.05 -3.90 0.20 -5.15 1.40 l-1.40 1.30 -14.35 0.15 c-14.70 0.15 -16.65 0 -20.75 -1.85 -1.15 -0.55 -3.75 -1.55 -5.75 -2.30 -2 -0.75 -4.95 -2.25 -6.55 -3.30 -2.25 -1.50 -3.40 -1.95 -5 -1.95 -2.55 0 -4.50 -0.95 -6.30 -3.05 -1.70 -2.05 -7.20 -13.05 -8.95 -17.85 -1.45 -4.10 -2.80 -11.45 -2.80 -15.50 0 -2.65 0 -2.65 -1.10 -1.90 -1.35 0.95 -2.40 1 -4.10 0.25 -1.35 -0.65 -1.60 -1.05 -2.55 -4.70 -0.40 -1.35 -1.85 -5.45 -3.25 -9.10 -2.80 -7.20 -5.25 -10.85 -13.20 -19.65 -2.45 -2.70 -4.15 -5.05 -4.65 -6.55 -0.70 -1.95 -1.30 -2.55 -4.25 -4.40 l-3.40 -2.10 -7.90 0.55 c-20.05 1.40 -34.95 4.60 -44.95 9.70 -3.45 1.70 -4.90 1.65 -6.65 -0.20 l-1.40 -1.50 -2.55 1 c-1.40 0.55 -4.10 1.75 -6.05 2.75 -1.90 0.95 -4.10 1.75 -4.80 1.75 -1.40 0 -5.50 2.35 -6.80 3.90 -0.40 0.45 -1.25 1.75 -1.90 2.85 l-1.15 2 1.50 -1.55 c0.80 -0.90 2 -1.75 2.60 -1.95 2.35 -0.75 5.05 1.55 5.05 4.25 0 0.55 -0.75 1.85 -1.65 2.85 -2.95 3.35 -4.80 6.35 -5.35 8.65 -0.30 1.25 -0.75 8.45 -1 16 -1.10 30.90 -2.30 37.40 -7.75 42.45 -2.90 2.65 -10.90 6.95 -19.50 10.55 -2.75 1.10 -5.45 2.45 -6 2.95 -1.50 1.40 -7.20 3.30 -17.40 5.75 -9.20 2.20 -11.55 2.65 -20.65 3.95 -3.60 0.55 -6.25 1.25 -9 2.50 -2.20 0.95 -5.20 2.15 -6.70 2.60 -3.30 1 -11.15 1.35 -15.25 0.75z m2.35 -13.45 c0.40 -0.55 1.30 -1.25 2 -1.55 1.10 -0.55 1.65 -0.45 3.55 0.50 2.10 1.05 2.50 1.10 5.55 0.55 1.85 -0.35 6.10 -1.60 9.45 -2.85 9.35 -3.50 16.40 -5.45 24.60 -6.90 12.45 -2.20 16.65 -3.25 17.90 -4.50 0.75 -0.75 2.10 -1.30 3.65 -1.50 1.35 -0.20 3.60 -0.90 4.95 -1.55 l2.50 -1.20 2.40 -9.40 2.35 -9.40 -0.95 -3.05 c-1.35 -4.25 -1.95 -9 -2.30 -19.20 -0.40 -9.45 -0.15 -10.90 2 -12.60 1.10 -0.85 1.25 -1.40 1.25 -3.90 0 -4.45 0.95 -10.50 2 -12.45 0.50 -1 2.20 -3.05 3.75 -4.55 1.55 -1.50 3.80 -4.20 4.95 -6 2.85 -4.30 3.35 -4.70 6.05 -4.40 2 0.25 2.90 -0.05 8.35 -2.85 8.20 -4.15 11.35 -5.15 13.65 -4.30 1.55 0.55 1.95 0.50 3.40 -0.35 3.20 -2 9.70 -5.05 14 -6.55 5.55 -1.95 12.60 -2.55 30 -2.55 9.85 0 12.75 0.15 14.15 0.75 1.35 0.55 2.05 0.60 2.80 0.20 0.60 -0.30 1.75 -0.40 2.85 -0.20 1 0.20 3.70 0.40 6.05 0.45 5.35 0.10 5.30 0.10 6.35 1.25 0.70 0.70 1.80 1 4.75 1.15 3.20 0.15 4.05 0.35 5.10 1.35 1.60 1.50 1.70 3.45 0.25 5.25 -0.90 1.15 -1.35 1.30 -4.25 1.30 -3.10 0 -3.20 0.05 -2.70 1 0.40 0.75 1.05 1 2.70 1 2.40 0 3.60 0.95 4.25 3.30 0.25 1 0.80 1.50 1.90 1.80 0.90 0.25 2.40 1.35 3.50 2.60 3.30 3.75 9.05 14.25 11.60 21.05 3 8.10 4 9.20 16.55 18.95 6.60 5.15 8.30 6.95 10.40 11.20 0.85 1.70 1.60 2.60 2.25 2.60 1.35 0 3.35 2.25 3.35 3.75 0 0.80 -0.60 1.90 -1.50 2.80 -0.90 0.90 -1.25 1.55 -0.85 1.65 0.35 0.10 1.60 0.45 2.85 0.75 1.25 0.25 3.70 0.85 5.50 1.30 6.10 1.55 7.25 1.80 13 2.55 4.30 0.60 8.65 0.70 17.25 0.55 12.40 -0.25 15.75 -0.75 19.35 -3.15 3.05 -1.95 5.85 -1.45 7.05 1.25 l0.60 1.45 3.15 -1.50 c2.50 -1.15 3.45 -1.95 4.65 -3.80 1.70 -2.65 2 -3.65 3.45 -11.55 1.35 -7.15 2.70 -11.50 4.05 -13.30 1.05 -1.30 1.10 -1.65 0.70 -8.65 -0.20 -4.05 -0.55 -14.90 -0.75 -24.10 -0.25 -11.55 -0.60 -18.55 -1.20 -22.50 -0.50 -3.15 -0.75 -6.55 -0.60 -7.50 0.65 -3.95 0.20 -9.40 -1.20 -15.50 -4.85 -21.10 -6.10 -33.90 -6.20 -64.25 -0.05 -16.75 0.10 -20.50 0.75 -23.05 0.75 -3 0.75 -3.05 -0.40 -4.40 -1.40 -1.65 -1.40 -2.30 -0.20 -7.20 0.55 -2.15 1.20 -5.55 1.50 -7.60 0.40 -2.65 1.15 -4.90 2.55 -7.70 1.75 -3.40 2.25 -5.10 3.70 -13.50 0.95 -5.25 2 -11.35 2.30 -13.55 0.70 -5.25 1.25 -6.55 3.10 -7.30 1.35 -0.55 1.80 -0.45 4.10 0.70 1.45 0.75 3.10 1.35 3.65 1.35 1.20 0 3.65 1.80 3.65 2.70 0 0.35 0.55 1.15 1.25 1.80 0.70 0.65 1.25 1.40 1.25 1.75 0 0.30 1.10 1.65 2.45 2.95 1.35 1.35 2.60 3.05 2.80 3.75 0.15 0.70 1.65 3.55 3.25 6.30 5.40 9.30 9.75 18.60 13 27.90 2.15 6.15 5.50 17.30 5.50 18.30 0 0.50 -0.45 1.50 -1 2.20 l-1.05 1.30 2.10 3.80 c1.15 2.10 2.60 5.45 3.25 7.40 0.65 2 1.15 3.35 1.20 3.05 0.05 -1.60 -2.65 -15.30 -6 -30.45 -4.95 -22.45 -6.90 -33.80 -9 -52 -1.40 -12.35 -1.35 -14.45 0.30 -16.10 1.05 -1.05 1.60 -1.25 3.30 -1 1.70 0.25 1.95 0.15 1.65 -0.55 -0.20 -0.50 -0.45 -1.50 -0.60 -2.35 -0.15 -0.80 -0.80 -2.60 -1.45 -3.90 -0.65 -1.35 -1.20 -3.10 -1.20 -3.90 0 -0.80 -0.25 -2.50 -0.55 -3.80 -1.80 -7.55 -3.25 -10.90 -7.80 -18.30 l-2.85 -4.60 0.15 -4.90 c0.10 -4.05 -0.05 -5.10 -0.75 -5.90 -0.70 -0.75 -0.75 -1.50 -0.45 -4.75 0.20 -2.15 0.65 -4.90 1.05 -6.15 0.40 -1.25 0.70 -2.90 0.70 -3.65 0 -1.20 -0.10 -1.30 -1.90 -1.05 -1.35 0.20 -2.20 0 -3.05 -0.70 -1.50 -1.20 -1.55 -2.45 -0.35 -10.15 0.55 -3.55 1 -10.20 1.15 -17.40 0.30 -11.25 0.25 -11.70 -0.75 -13.05 -0.95 -1.30 -1.05 -2.50 -1.60 -16.60 -0.30 -8.35 -0.65 -15.55 -0.75 -15.95 -0.15 -0.40 -0.45 -4.80 -0.75 -9.75 -0.25 -4.95 -0.85 -12.70 -1.30 -17.20 -0.75 -8.15 -0.75 -8.25 0.30 -9.65 1 -1.35 1 -1.45 0.25 -11.50 -1.60 -20.55 -1.90 -22.40 -5.70 -34.30 -1.95 -6 -4.05 -12.65 -4.75 -14.85 -1.50 -4.75 -1.55 -4.45 -0.50 2.50 0.70 4.90 0.70 5.40 -0.05 6.55 -1.80 2.75 -5.55 2.65 -6.70 -0.20 -0.30 -0.75 -1.10 -5.25 -1.80 -10.05 -1.45 -9.60 -2.40 -14.60 -4.70 -24.05 -1.85 -7.90 -7.90 -30.40 -8.50 -31.75 -0.20 -0.55 -0.95 -2.25 -1.60 -3.75 -2.25 -5.25 -11.05 -22.80 -15.55 -30.85 -7.40 -13.45 -10.95 -21.25 -10.85 -23.75 0.05 -1.45 -0.25 -2.75 -1.05 -4 -0.60 -1.05 -1.15 -1.90 -1.25 -1.90 -0.10 0 0.05 0.85 0.30 1.85 0.20 1.05 0.75 4.40 1.20 7.40 0.45 3.05 1.15 7.15 1.55 9.15 0.70 3.35 0.70 3.80 -0.05 4.90 -1.65 2.55 -5 2.80 -6.50 0.50 -0.45 -0.65 -1.55 -5.90 -2.55 -11.85 -3.65 -22.10 -7.15 -31.80 -16.25 -44.55 -4.30 -6.10 -4.55 -6.35 -5.80 -5.85 -1.40 0.50 -2.95 0.20 -4.15 -0.80 -0.40 -0.35 -3.55 -2.15 -7 -4 -8.95 -4.85 -16.05 -9.45 -25.75 -16.70 -4.65 -3.50 -12.45 -9.30 -17.35 -12.95 -10.05 -7.50 -17.55 -14.35 -18.50 -16.90 -0.30 -0.95 -0.95 -1.80 -1.35 -1.95 -0.45 -0.10 -4.30 -0.70 -8.55 -1.25 -11.30 -1.55 -29.75 -4.70 -37.50 -6.50 l-6.75 -1.50 -10 0.50 c-21 1.05 -54.80 4.65 -59.15 6.30 -1.30 0.50 -2.80 0.70 -3.70 0.50 -1.25 -0.25 -8.25 0.55 -8.80 1 -0.10 0.05 0.55 0.80 1.45 1.60 2.10 1.90 2.25 4.25 0.25 5.95 -1.70 1.45 -3.25 1.45 -5.10 0.05 -1.25 -1 -2 -1.15 -6.45 -1.15 -2.75 0 -6.70 0.20 -8.75 0.45 -3.50 0.40 -3.80 0.35 -4.70 -0.65 -0.55 -0.55 -1.30 -1.05 -1.75 -1.05 -0.95 0 -28.90 8.20 -46.80 13.75 -28.70 8.90 -37.75 12.45 -43.75 17.20 -2.70 2.10 -2.95 2.45 -3 4.25 0 3.85 -3.35 5.45 -6.85 3.30 -1.80 -1.10 -2.40 -2.70 -2 -5.30 l0.30 -1.75 -1.55 0.95 c-0.80 0.55 -3.15 2.10 -5.10 3.50 -3.30 2.25 -3.60 2.65 -3.45 3.95 0.35 2.40 -1.20 3.75 -6.25 5.35 -5.15 1.65 -6.35 2.45 -18.20 12.35 -8.80 7.35 -14.85 13.35 -16.40 16.40 -0.55 1.15 -1.25 3.25 -1.50 4.70 -0.55 2.95 -1.85 4.35 -4 4.35 -3.50 0 -4.80 -3.65 -3.10 -8.75 l1 -3 -4.85 5.05 c-3.55 3.70 -5.05 5.65 -5.55 7.25 -1.55 4.90 -4.05 10.20 -7.40 15.55 -4.70 7.65 -8.85 15.55 -9.90 18.90 -0.50 1.50 -1.40 3.55 -2 4.50 -1.90 2.90 -10 23.85 -13.20 34.10 -4.20 13.35 -4.85 16.45 -5.50 26.15 -0.90 14.65 -2.90 32.55 -4.75 42.75 -0.40 2.35 -0.75 5.80 -0.75 7.65 0 2.30 -0.25 3.80 -0.80 4.65 -0.75 1.05 -0.80 2.15 -0.50 7.60 0.20 3.50 0.80 10 1.30 14.50 0.85 7.50 1 8.25 2.20 9.35 0.70 0.65 1.40 1.80 1.60 2.60 1.15 5.10 1.85 7.55 2.50 8.50 0.40 0.65 1.35 3.65 2.15 6.75 2.20 8.40 7.35 23.60 9.65 28.15 1.05 2.25 2.95 5.40 4.20 7 2.30 3.15 2.55 4 1.65 6.45 -0.50 1.40 -0.25 2.35 2.50 9.20 4.75 11.85 8.40 19.95 11.35 24.95 1.50 2.55 2.70 5.05 2.70 5.65 0 0.60 -0.70 1.75 -1.55 2.60 l-1.55 1.55 3.65 8.55 c2 4.70 4.90 12 6.45 16.20 2.70 7.25 3.80 9.20 6.45 11.10 0.70 0.50 1.25 1.90 1.80 4.50 0.85 4.25 2.60 8.15 14.80 32.25 4.55 9.10 8.60 17.45 8.95 18.50 0.35 1.10 0.80 2.20 1.05 2.50 0.90 0.95 0.45 3.75 -0.80 5.05 -1.50 1.50 -1.55 2.40 -0.25 4.10 1.15 1.45 1.20 -0.65 -0.30 22.10 -0.40 6.45 -1.05 14.45 -1.45 17.75 -0.80 7.10 -0.95 12.50 -0.95 28 0.05 9.50 0.25 12.60 1.15 18 1.40 8.20 2.90 14.35 4.10 16.95 l0.95 2.05 -0.25 -2.25 c-0.10 -1.25 -0.35 -7.10 -0.55 -13 -0.45 -16.05 0.45 -20.55 5.25 -25.65 2.20 -2.30 2.60 -3.10 3.70 -7.30 1.15 -4.35 1.20 -4.90 0.55 -6.70 -1.80 -5.10 -0.15 -8.75 3.70 -8.25 1.40 0.20 2.20 0.05 3.05 -0.65 0.65 -0.55 1.90 -0.95 2.80 -0.95 1.90 0 2.70 0.80 6.50 6.65 1.80 2.80 2.70 3.75 3.25 3.50 1.40 -0.60 3.60 -0.30 4.55 0.65 0.60 0.60 1.60 3.55 2.65 7.70 1.70 6.55 2.15 8 4.50 13.25 0.60 1.40 1.40 3.30 1.80 4.25 0.35 0.95 0.85 1.95 1.10 2.25 0.20 0.25 0.40 0.85 0.40 1.35 0 0.65 0.40 0.90 1.40 0.90 1.50 0 3.35 1.40 3.80 2.85 0.10 0.50 0.50 2.25 0.80 3.90 1.05 5.55 4.05 16.30 5 17.90 0.50 0.90 1.25 3.30 1.70 5.35 1.60 7.90 3.30 16.35 3.80 18.75 1 5.05 2 18.75 2 27.35 0 7.65 0.25 10.20 1.75 19.50 2.85 17.70 4.40 33.90 4.15 43.15 l-0.15 5.50 -1.65 1 -1.65 1 0.25 3.75 c0.30 4.40 2.40 13.10 4.10 16.95 0.70 1.50 2.25 3.80 3.50 5.15 2.40 2.55 2.55 3.35 1.45 6.70 -0.25 0.85 0.40 1.80 3.35 4.80 l3.65 3.75 6.25 1.60 c5.60 1.50 14.25 3.40 15.85 3.50 0.30 0.05 0.90 -0.40 1.25 -0.90z m279.40 -23.55 c-0.40 -0.25 -1.45 -0.50 -2.30 -0.50 -1.85 0 -10.30 -1.65 -15.45 -3 -1.90 -0.50 -4.95 -1.15 -6.75 -1.45 -1.80 -0.30 -4.50 -0.75 -6 -1 -1.50 -0.25 -2.80 -0.40 -2.90 -0.30 -0.40 0.35 3.45 2.25 4.60 2.25 0.75 0 2.30 0.50 3.45 1.10 5.60 2.85 8.05 3.35 17.35 3.35 5.80 0.05 8.50 -0.15 8 -0.45z m-192 -11.75 c0.80 -2.65 1.15 -5.50 1.45 -11.75 0.35 -7.95 0.35 -8.35 -0.80 -10.90 -0.60 -1.40 -1.30 -3.50 -1.45 -4.60 l-0.30 -1.95 -1.45 1.10 c-1.35 1.05 -1.45 1.30 -1.30 4.30 0.10 3.15 0.10 3.20 1.85 3.75 2.55 0.80 3.05 2.25 2.70 7.55 -0.25 4.15 -1.80 14.05 -2.55 16.10 -0.20 0.65 -0.15 0.75 0.25 0.40 0.25 -0.25 1 -2.05 1.60 -4z m157.50 -8.05 c-1.55 -3.60 -3 -5.25 -7.85 -9 -2.45 -1.85 -5.40 -4.15 -6.60 -5.15 l-2.20 -1.75 0.40 2.20 c0.65 4.05 2.25 6.50 6.25 9.60 3.20 2.45 10.50 6.90 10.90 6.65 0.05 -0.05 -0.35 -1.20 -0.90 -2.55z m-333.25 -155.55 c0.15 -2.15 0.45 -4.40 0.60 -5 0.20 -0.90 0.05 -1.15 -0.80 -1.15 -1.15 0 -1.25 0.30 -2.05 5.75 -0.50 3.05 -0.45 3.55 0.30 4.10 0.45 0.35 1 0.50 1.20 0.40 0.20 -0.15 0.55 -2 0.75 -4.10z m448.90 -45.65 c-0.15 -1.10 0 -3.35 0.35 -4.95 l0.60 -2.95 -2.65 -5.05 c-1.45 -2.75 -2.70 -4.95 -2.80 -4.85 -0.05 0.05 0.10 0.90 0.35 1.85 0.30 0.95 1.05 4.75 1.75 8.45 1.10 5.90 2.05 9.50 2.50 9.50 0.10 0 0.05 -0.90 -0.10 -2z m-19.90 -10.50 c0.25 -1.15 0.20 -1.60 -0.15 -1.25 -0.25 0.30 -0.60 1.50 -0.75 2.75 -0.35 2.45 0.25 1.45 0.90 -1.50z m41.25 -7.50 c-0.35 -1.95 -0.75 -3.50 -0.95 -3.50 -0.20 0 0 1.95 0.40 4.40 0.45 2.40 0.85 3.95 0.95 3.45 0.10 -0.50 -0.10 -2.45 -0.40 -4.35z m-37.25 -2.05 c0.75 -1.40 1.20 -2.80 1.10 -3.10 -0.20 -0.60 -1.95 2.45 -2.55 4.55 -0.60 1.90 0.15 1.20 1.45 -1.45z m-462.05 -2.35 c-0.80 -1.95 -2.55 -4.50 -2 -2.85 0.20 0.50 0.75 2.25 1.20 3.85 0.70 2.35 0.90 2.70 1.15 1.80 0.15 -0.65 0 -1.90 -0.35 -2.80z m497 -15.10 c-0.95 -5.60 -1.85 -10.30 -1.95 -10.45 -0.50 -0.45 -0.25 2.55 1 12.25 0.70 5.40 1.25 10.10 1.25 10.40 0.05 0.30 0.35 -0.05 0.75 -0.75 0.60 -1.15 0.50 -2.40 -1.05 -11.45z m-497.75 -5.20 c-4.65 -9 -6.50 -11.60 -3.15 -4.50 2.95 6.30 7.35 14.45 7.55 13.85 0.10 -0.30 -1.85 -4.50 -4.40 -9.35z m-66.65 -142.15 c-0.95 -4.35 -2.65 -12.65 -3.80 -18.50 -1.75 -9.05 -3.70 -16.10 -4.30 -15.50 -0.20 0.20 2.45 14.95 3.60 19.85 1.25 5.50 5.90 22.50 6.10 22.30 0.10 -0.15 -0.60 -3.80 -1.60 -8.15z m547.15 -29.40 c-0.20 -0.60 -0.35 1.45 -0.35 4.75 l0.05 5.75 0.35 -4.75 c0.20 -2.60 0.20 -5.20 -0.05 -5.75z m-566.20 -83.25 c0.30 -2.20 0.70 -3.05 2.10 -4.40 l1.75 -1.60 0.40 -9.40 c0.45 -9.15 2.05 -26.40 3 -32.35 0.70 -4.40 0.70 -4.45 -1.85 -6.25 -4 -2.85 -8.05 -7 -8.40 -8.55 -0.40 -1.70 -0.25 -1.65 -2.40 -0.65 -2.80 1.35 -4.20 0.30 -6.65 -4.80 -1.95 -4 -2.45 -4.65 -9.10 -10.65 -10.10 -9.20 -16.20 -16.55 -20.05 -24.15 -1.95 -3.90 -2.05 -6.25 -0.25 -7.65 1.25 -0.95 1.30 -1.15 0.60 -1.95 -1.35 -1.45 -6.85 -12.90 -8.20 -16.95 -0.75 -2.15 -1.60 -5.60 -2 -7.65 -0.95 -5.35 -0.90 -20.25 0.10 -25 0.40 -2.05 1.10 -5.90 1.50 -8.50 1.10 -6.85 4.15 -15.55 8.65 -24.75 5.30 -10.65 7.90 -14.45 14.70 -21.25 3.15 -3.15 5.95 -6.25 6.30 -6.85 0.55 -1.05 0.50 -1.10 -0.65 -0.65 -3.25 1.20 -5.25 2.55 -5.40 3.60 -0.10 0.75 -2.40 2.70 -7.40 6.30 -6.80 4.90 -14.30 10.75 -17.75 13.95 -0.85 0.75 -3.45 3.65 -5.75 6.40 -5.85 6.95 -13.90 16.05 -19.25 21.80 -3.15 3.40 -5.65 6.75 -8.35 11.25 -4.85 8.15 -9.85 18.15 -11.90 23.95 -1.60 4.40 -1.65 4.65 -1.60 13 0 18.20 3.05 29.10 11.35 41 2.45 3.55 3.25 5.10 3.25 6.40 0 1.80 2.35 5.40 17.55 26.85 4 5.65 10.05 14.25 13.45 19.10 8.90 12.80 10.60 14.70 17.90 20 3.50 2.50 9.05 6.75 12.35 9.40 8.20 6.55 8.95 7.05 11.20 7.20 1.15 0.10 3 0.80 4.40 1.65 1.30 0.85 3.10 1.90 3.90 2.30 l1.50 0.75 0.30 -4.05 c0.15 -2.25 0.50 -5.35 0.70 -6.85z m-67.30 -38.10 c-8.60 -12.35 -14.15 -19.55 -9.70 -12.60 7.45 11.65 9.95 15.20 10.40 14.75 0.30 -0.30 0.05 -1.05 -0.70 -2.15z m96.25 -35.85 c2.30 -5.65 2.70 -6.95 1.80 -5.55 -0.55 0.85 -4.50 10.75 -4.50 11.30 0 0.80 0.50 -0.25 2.70 -5.75z m-63.70 -47.30 c0 -0.15 -0.40 -2.45 -0.85 -5.15 -0.75 -4.10 -0.90 -7.95 -0.90 -24.85 0 -11 0.20 -21.90 0.40 -24.25 0.25 -3.25 0.20 -4 -0.20 -3.25 -0.35 0.55 -1.05 1.50 -1.55 2.10 -0.80 0.85 -0.90 1.25 -0.45 2.05 0.95 1.80 0.65 3.85 -0.75 5.15 -2.05 1.90 -2.70 3.80 -2.15 6.65 0.55 3 0.20 4.40 -1.40 5.80 -1.25 1.10 -1.30 1.25 -1 5.45 0.55 7.35 3.10 18.05 6.40 26.60 0.85 2.15 1.75 3.95 2 3.95 0.25 0 0.45 -0.10 0.45 -0.25z m126 -38.15 c2.05 -1.25 5.90 -3.20 8.50 -4.35 3.25 -1.45 6.75 -3.55 11 -6.75 10.20 -7.60 20.85 -14.55 29.15 -19 4.30 -2.30 4.50 -2.50 2.85 -2.50 -1.25 0 -3.75 1 -8 3.25 -9.55 5 -33.45 19.50 -38.70 23.50 -4.95 3.70 -12.55 10.55 -10.05 9 0.85 -0.50 3.20 -1.95 5.25 -3.15z m-180.20 -8.85 c5.70 -9.15 13.85 -19.25 24.30 -30.05 5 -5.15 5.35 -5.60 4.65 -6.50 -0.40 -0.50 -0.75 -1.50 -0.75 -2.20 0 -1.05 -1.45 0.20 -8.95 7.70 -4.95 4.95 -9.10 9.50 -9.25 10.10 -0.20 0.65 -1.70 3.25 -3.45 5.80 -3.40 5.05 -7.05 12.10 -9.05 17.65 -0.70 1.95 -1.05 3.15 -0.75 2.75 0.25 -0.40 1.75 -2.75 3.25 -5.25z m546.30 -1.10 c-1.70 -2.30 -16.45 -19.15 -20 -22.85 -4 -4.10 -9 -7.50 -16.05 -10.85 l-5.20 -2.50 -1.30 1.25 c-2.50 2.40 -4.80 1.70 -7.80 -2.25 -0.65 -0.90 -1.65 -1.45 -3 -1.65 l-2 -0.30 1.75 1.55 c4.15 3.65 9.30 7.70 17.25 13.55 4.70 3.40 10.85 8 13.75 10.20 6.35 4.85 12.25 8.80 18.55 12.40 2.60 1.50 4.75 2.75 4.85 2.75 0.10 0.05 -0.30 -0.55 -0.80 -1.30z m8.60 -9.95 c0.30 -0.90 -0.20 -1.45 -2.80 -3.30 -3.10 -2.20 -7.50 -4.90 -8 -4.90 -0.15 0 2 2.25 4.80 5 2.75 2.70 5.20 4.80 5.35 4.60 0.20 -0.20 0.50 -0.85 0.65 -1.40z m-310.75 -17.25 c1.70 -0.50 2.20 -0.50 3.30 0.25 0.75 0.50 1.55 1.55 1.85 2.35 0.25 0.80 0.60 1.45 0.70 1.45 0.10 0 3.60 -1.10 7.80 -2.45 4.20 -1.35 10.35 -3.30 13.65 -4.30 7.05 -2.15 7.55 -2.35 5.25 -2 -2.70 0.45 -18.60 1.20 -24.75 1.25 -5.40 0 -5.60 0.05 -10.20 2.15 -3.20 1.45 -5.10 2.60 -5.95 3.75 l-1.25 1.60 3.80 -1.70 c2.05 -0.95 4.65 -2 5.80 -2.35z m19.90 -19.75 l6.55 -0.30 1.60 -1.95 c1.50 -1.90 1.60 -1.95 4.75 -1.95 2.65 0 3.45 0.20 4.30 1.05 l1.10 1.10 5.55 -0.85 c9.90 -1.55 9.30 -1.50 9.30 -0.60 0 0.70 0.30 0.80 1.40 0.60 0.75 -0.15 2.20 -0.40 3.25 -0.60 1.50 -0.25 1.85 -0.50 1.60 -1.15 -0.20 -0.45 -0.70 -3.10 -1.15 -5.90 -0.65 -4.15 -0.95 -5.15 -1.75 -5.35 -0.85 -0.20 -0.90 -0.70 -0.75 -6.65 0.15 -5.70 0.30 -6.70 1.40 -8.90 1.60 -3.05 4.65 -5.05 5.65 -3.70 0.45 0.60 0.90 0.70 1.85 0.35 1.55 -0.60 13.55 -2.40 16.25 -2.45 1.10 0 1.70 -0.15 1.40 -0.30 -0.35 -0.10 -0.65 -0.55 -0.65 -0.95 0 -0.55 0.75 -0.70 3.15 -0.70 8.25 0.05 14.70 2.20 19 6.40 5.05 4.90 9.20 11.80 6.55 10.75 -0.55 -0.20 -0.35 0.50 0.75 2.60 0.85 1.60 1.55 3.20 1.55 3.55 0 0.90 0.15 0.85 3.70 -0.25 1.90 -0.60 2.65 -1 2.10 -1.20 -0.95 -0.40 -1.10 -1.35 -0.15 -1.35 1.10 0 5.75 -2.65 14.60 -8.25 7 -4.40 18.85 -12.25 19.70 -13.05 0.15 -0.15 -0.25 -0.55 -0.80 -0.95 -0.60 -0.40 -1.20 -1.45 -1.40 -2.30 -0.20 -0.85 -0.85 -2.30 -1.50 -3.20 -0.70 -1.10 -2.15 -5.85 -4 -13.35 -4.10 -16.45 -6.05 -22.95 -11.60 -38.50 -3.30 -9.30 -6.10 -16.05 -8.65 -21.15 l-3.80 -7.50 -3.15 -0.30 c-1.70 -0.15 -3.40 -0.60 -3.80 -1 -0.35 -0.40 -3.40 -5.60 -6.70 -11.60 -3.35 -5.95 -9 -15.70 -12.55 -21.65 -3.60 -5.90 -6.50 -11.05 -6.50 -11.45 0 -0.35 0.35 -0.75 0.75 -0.85 0.55 -0.10 0.05 -1.20 -1.95 -4.30 -1.50 -2.30 -3.20 -4.95 -3.75 -5.85 l-1 -1.70 -2.15 1.15 c-3.50 1.95 -9.35 3.30 -12.45 2.95 -2.50 -0.30 -2.65 -0.25 -2 0.50 0.60 0.75 0.50 0.85 -0.65 0.85 -2.75 0 -9.15 -1.65 -12.30 -3.10 -6.55 -3.15 -12.65 -11.15 -14.25 -18.75 -1.70 -8.05 -0.60 -17.80 2.55 -22.40 l1.30 -1.90 -3 -7.55 c-1.65 -4.15 -4.30 -10.90 -5.85 -15 -1.60 -4.10 -3.65 -8.80 -4.60 -10.40 -0.95 -1.60 -1.95 -3.60 -2.25 -4.40 -0.25 -0.85 -0.65 -1.50 -0.85 -1.50 -0.30 0 -1.80 6.75 -6.55 29.75 -1.15 5.50 -3.20 14.75 -4.55 20.50 -8.25 35 -11.95 51.90 -12.30 56.80 l-0.25 3.30 2.20 1.55 c3.05 2.10 7.20 6.70 8.70 9.70 2.45 4.90 3.35 9.45 3.40 17.90 0.05 7.05 -0.10 8.45 -1.60 15.50 -2.30 10.60 -6.45 21.30 -9.45 24.25 -0.90 0.95 -1.70 0.50 -1.30 -0.65 0.20 -0.45 -0.85 0.55 -2.25 2.25 -2.05 2.45 -3.40 3.50 -6.45 5 -3.50 1.75 -4.25 1.90 -8.75 2.05 l-4.90 0.20 -0.05 1.30 c0 0.75 -0.10 2.20 -0.25 3.25 -0.15 1.40 0 1.85 0.55 1.85 0.85 0 0.90 2 0.30 9 -0.20 2.35 -0.20 7.05 0.05 10.50 0.40 5.75 4.05 33.60 5.55 42.50 l0.65 3.75 3.15 0.25 c3.40 0.25 4.35 1 4.90 3.60 0.25 1.20 0.50 1.35 2.60 1.50 2.60 0.20 11.05 0 20.90 -0.40z m70.75 -8.55 c7.35 -2.10 13.40 -4 13.40 -4.25 0 -1.15 -4.15 -7.40 -6 -9.10 -1.15 -1.05 -4.60 -3.10 -7.65 -4.60 -6.55 -3.25 -7.35 -3.25 -15 -0.50 -9.05 3.35 -9 3.30 -9.85 7.75 -0.35 2 -0.25 3.20 0.55 6.05 0.55 2 1.45 4.50 2 5.60 l1 2 2.85 -0.35 c2.15 -0.25 3.10 -0.15 3.85 0.45 0.55 0.40 1.10 0.80 1.20 0.80 0.10 0 6.25 -1.70 13.65 -3.85z m-259.35 -10.55 c0.65 -1.65 -0.65 -1.45 -3.95 0.70 -1.90 1.20 -3.55 2.25 -3.60 2.35 -0.10 0.10 1.50 -0.40 3.55 -1.05 2.05 -0.70 3.85 -1.60 4 -2z m327.50 -20.95 c0.20 -1.05 0.55 -2.65 0.80 -3.60 0.20 -0.95 0.35 -1.85 0.20 -1.95 -0.10 -0.10 -0.35 0.40 -0.55 1.10 -0.15 0.75 -0.70 1.60 -1.20 1.95 -0.50 0.35 -0.95 1.30 -1 2.10 -0.15 2.10 -0.10 2.25 0.75 2.25 0.45 0 0.85 -0.70 1 -1.85z m-168.40 -45.70 c1.80 -0.65 6.25 -5.05 8.15 -7.95 3.05 -4.80 5.50 -15.20 5.50 -23.55 0 -4.45 -1.20 -12.70 -2.20 -15.05 -0.30 -0.75 -2.25 -3.30 -4.30 -5.60 -3.60 -4.05 -3.80 -4.20 -5.50 -3.95 -0.95 0.15 -1.80 0.30 -1.85 0.35 0 0 -0.65 4.45 -1.35 9.80 -2.05 15.20 -3.80 34.10 -3.80 40.60 l0 5.90 1.95 0 c1.10 0 2.60 -0.25 3.40 -0.55z m391.05 -5.75 c-0.85 -1.20 -2.65 -3.40 -4 -4.80 -2.70 -2.85 -2.75 -3.10 0.85 3.35 1.95 3.45 2 3.50 3.45 3.55 l1.30 0.10 -1.60 -2.20z m-41.15 -34.65 c-0.30 -0.20 -2.50 -2 -5 -3.90 -4.45 -3.50 -8.05 -5.50 -15.25 -8.65 -2.05 -0.90 -4.80 -2.15 -6.10 -2.75 -2.55 -1.25 -3.05 -1 -1.35 0.55 0.55 0.50 1.85 2.05 2.85 3.40 2.15 2.95 5.60 6.20 7.80 7.40 2.15 1.20 6.10 2.35 11.75 3.40 5.90 1.10 5.85 1.10 5.30 0.55z m-265.20 -64.35 c0.50 -0.15 1 -1 1.20 -2.05 0.30 -1.60 0 -2.25 -3.05 -6.85 -1.80 -2.75 -6.05 -8.90 -9.40 -13.65 l-6.05 -8.60 -1.20 1.15 -1.15 1.20 3.10 6.90 c3.60 8.15 6.60 13.90 9.85 19.05 2.35 3.70 2.40 3.70 4.15 3.40 0.95 -0.15 2.10 -0.40 2.55 -0.55z m-18.30 -7.80 c-1.75 -3.40 -4.30 -8.85 -5.75 -12.15 -1.45 -3.30 -2.80 -6.20 -3 -6.40 -0.75 -0.85 -1.65 4.75 -1.30 8.10 0.45 5.15 1.50 7.60 3.95 9.45 1.15 0.90 2.65 2.05 3.35 2.60 2.65 2.20 5.60 4.50 5.75 4.50 0.05 0 -1.25 -2.75 -3 -6.10z m-3.25 -28.75 c0 -0.35 -3.05 -5.15 -3.30 -5.15 -0.15 0 1.10 3.20 1.85 4.65 0.45 0.80 1.45 1.20 1.45 0.50z m0.55 -13.75 c-0.90 -2.30 -4.10 -9.65 -4.30 -9.80 -0.25 -0.25 -1.75 1.20 -1.75 1.65 0 0.35 6.10 9.25 6.35 9.25 0.05 0 -0.05 -0.50 -0.30 -1.10z m-10.40 -18.45 c-0.50 -0.85 -1.35 -1.90 -1.85 -2.35 -0.55 -0.45 -0.25 0.20 0.65 1.55 1.80 2.65 2.60 3.20 1.20 0.80z"/>
  <path d="M410.75 855.75 c-0.70 -0.65 -1.25 -1.65 -1.25 -2.15 0 -1.75 1 -6.30 2.30 -10.70 l1.35 -4.30 -1.10 -1.40 c-1.35 -1.70 -1.35 -2.55 0.15 -4.70 0.65 -1 1.90 -4 2.80 -6.75 1.45 -4.65 4.50 -16.70 4.50 -18.10 0 -0.45 -1 -0.55 -3.85 -0.35 -2.15 0.20 -7.40 0.05 -11.65 -0.25 -8.05 -0.55 -13.75 -1.80 -16 -3.45 -1.80 -1.35 -1.90 -3.95 -0.25 -6.60 1.40 -2.25 3.15 -3.15 5.05 -2.70 0.90 0.25 1.20 0.10 1.20 -0.50 0 -1.60 2.15 -2.35 5.95 -2.05 4.05 0.25 5.35 0.80 5.80 2.25 0.15 0.55 0.55 1 0.80 1 0.30 0 1.45 0.45 2.60 1 4.20 2.05 10.25 1.80 20.60 -0.85 7.60 -1.95 7.85 -1.95 9.70 -0.40 l1.60 1.40 3.80 -0.65 c3.20 -0.55 4 -0.90 5.25 -2.25 1.30 -1.45 1.85 -1.65 4.95 -1.95 5.65 -0.60 26.15 -5.05 34.15 -7.50 2.20 -0.70 6.20 -2.30 8.80 -3.55 3.80 -1.90 5.05 -2.25 6.40 -2 1.20 0.20 2.85 -0.15 6.45 -1.50 6.55 -2.45 7.65 -3.10 8.25 -4.80 0.55 -1.60 2.65 -2.95 4.55 -2.95 1.40 0 3.90 -1.80 6.65 -4.80 1.95 -2.10 2.25 -2.25 4.30 -2.15 2 0.10 2.60 -0.15 5.25 -2.15 1.65 -1.30 3.80 -3.15 4.75 -4.10 1 -1 2.25 -1.80 2.80 -1.80 1.45 0 4.95 -4.30 5.90 -7.25 1.45 -4.40 4.55 -5.60 7.20 -2.75 0.75 0.85 1.75 1.50 2.20 1.50 0.45 0 1.50 0.65 2.40 1.45 1.85 1.65 2.05 3.80 0.65 6.60 -1.80 3.55 -15.45 15.70 -21.85 19.50 -1.90 1.10 -3.40 2.10 -3.40 2.20 0 0.10 0.25 1.35 0.55 2.70 0.45 2.05 0.40 2.80 -0.20 4 -0.75 1.50 -0.70 1.65 3.50 8.90 6.40 11.25 9.75 18.45 10.05 21.50 0.30 3.30 -0.65 4.95 -3.10 5.45 -2.25 0.40 -4.50 -0.35 -8.25 -2.80 -2.40 -1.55 -3.35 -1.90 -4.55 -1.70 -2.70 0.55 -3.75 -0.10 -6.90 -4.45 -2.95 -4.05 -18.20 -21.45 -19.10 -21.75 -0.25 -0.10 -3.40 1.10 -7.10 2.70 -12.60 5.40 -24.75 9.25 -38.65 12.40 -8.85 1.95 -19.70 3.80 -22.60 3.80 -2.30 0 -2.90 0.40 -3.25 2 -1.90 9.05 -3.40 14.95 -5.95 23.60 -0.80 2.80 -1.25 3.55 -2.50 4.15 -0.80 0.45 -1.70 0.65 -1.95 0.50 -0.25 -0.15 -0.85 0.20 -1.40 0.75 -2.20 2.35 -11.55 15.85 -11.85 17.15 -0.75 2.90 -4.35 3.80 -6.50 1.60z m17.65 -30.05 c0.15 -0.05 3.80 -14.70 4.25 -17.05 l0.35 -1.65 -2.70 0 -2.65 0 -0.85 4.30 c-0.80 3.85 -0.80 4.35 -0.10 4.85 1.70 1.30 1.75 2.95 0.30 7.55 l-1.45 4.40 1.35 -1.15 c0.75 -0.65 1.40 -1.20 1.50 -1.25z m113.65 -22.80 c-6.50 -11.40 -9.15 -16.15 -10.50 -18.75 -0.85 -1.75 -1.75 -3.15 -1.95 -3.15 -0.80 0 -8.60 3.20 -8.60 3.55 0 0.20 0.40 0.50 0.90 0.70 0.80 0.20 2.85 2.45 4.70 5 0.20 0.30 1.30 1.55 2.45 2.90 1.65 1.90 2.40 2.35 3.70 2.35 1.40 0 2.10 0.55 5.45 4.50 3.90 4.60 5.50 5.80 3.85 2.90z"/>
  <path d="M426.50 707.25 c-4 -0.35 -9.60 -0.65 -12.50 -0.65 -31.95 0.15 -40.05 -0.60 -50.40 -4.85 -12.45 -5.05 -19.90 -12 -27.55 -25.55 -1.40 -2.55 -3.45 -5.70 -4.55 -7 -1.10 -1.35 -2.70 -4.10 -3.55 -6.10 -0.80 -2 -4.75 -9.40 -8.70 -16.45 -9.90 -17.55 -12.20 -23.85 -14.05 -38.40 -0.55 -4.40 -1.20 -7.35 -2.05 -9.20 -0.65 -1.50 -1.70 -4.65 -2.30 -7 -1 -3.95 -1.10 -5.40 -1.05 -18.30 0.05 -12.20 0.25 -15.30 1.40 -24 0.75 -5.50 1.55 -12.45 1.85 -15.50 0.30 -3.40 0.80 -5.80 1.20 -6.25 0.65 -0.75 2.25 -4.65 2.25 -5.50 0 -0.25 -0.45 -0.30 -1 -0.15 -1.55 0.40 -3.85 -0.80 -4.50 -2.35 -0.50 -1.20 -0.45 -1.95 0.25 -4.10 0.95 -2.85 6.55 -14.30 8.60 -17.55 l1.25 -1.95 -1.05 -0.95 c-2.45 -2.30 -1.90 -4.20 3.10 -10.95 4.45 -6 12.15 -14.35 26.10 -28.30 l12 -12.05 7.05 -3.55 c3.90 -2 7.50 -3.60 8 -3.60 0.55 0 1.60 0.40 2.35 0.95 1.35 0.90 1.50 0.90 7.25 -0.50 3.20 -0.80 6.35 -1.55 6.95 -1.70 0.70 -0.15 1.45 -0.95 1.85 -2 0.85 -2 0.50 -1.90 7.05 -2 2.75 -0.05 11.85 -0.40 20.25 -0.75 21.75 -1.05 42.75 -0.95 47.15 0.15 4.65 1.15 8 2.85 11.90 6 2.75 2.20 3.80 2.75 5.90 3.05 6.05 0.80 15.20 5.05 25.15 11.75 3.65 2.45 10 6.60 14.10 9.25 5.50 3.60 8.85 6.25 13 10.20 3.05 2.95 6.80 6.35 8.30 7.50 1.50 1.10 5 4.10 7.75 6.60 l5 4.50 0.30 -1.85 c0.35 -1.95 1.95 -3.65 3.50 -3.65 2.90 0 4.65 2.25 10.40 13.50 2.05 4 5.15 9.55 6.85 12.35 5.55 9 6.80 12.15 8.95 22.65 0.65 3.15 1.75 7.65 2.45 10 1.80 5.85 3.05 12.10 4.55 23.15 1.45 10.95 1.50 13.55 0.45 21.60 -0.65 5.15 -1.30 8.80 -3.70 21.50 -0.20 1.10 -0.90 4.40 -1.45 7.35 -0.85 4 -1 5.60 -0.60 6.35 0.70 1.30 0.70 5.80 0 9.15 -0.75 3.60 -4.60 12.05 -9.20 20.15 -1.20 2.20 -3.50 6.90 -5.10 10.45 -4.40 9.95 -8.15 13.35 -18.90 17.10 -2.20 0.75 -7.05 2.90 -10.75 4.70 -8.85 4.35 -12.55 5.85 -19.25 7.55 -3 0.75 -7.75 2.20 -10.50 3.15 -5.35 1.90 -12.55 3.55 -23.90 5.55 -3.90 0.70 -7.10 1.25 -7.15 1.25 -0.05 0 -0.25 0.55 -0.40 1.25 -0.40 1.65 -2.30 2.80 -6 3.65 -4.40 1 -34.55 1.25 -44.30 0.35z m28 -9.50 c1.10 -0.25 1.25 -0.60 1.25 -2.35 0 -1.50 0.30 -2.25 1.20 -2.95 1.40 -1.15 4.20 -1.25 5.05 -0.20 0.80 1 5.85 1 9.60 0 3.10 -0.80 8.85 -3.15 18.40 -7.45 6.90 -3.15 19.60 -8.30 20.50 -8.30 0.35 0 2.25 -0.70 4.35 -1.50 4 -1.60 5.45 -1.60 6.95 0.05 1.20 1.35 1.20 4.35 -0.05 5.25 -1.35 1 -0.80 0.90 3.05 -0.70 1.90 -0.80 6.40 -2.40 9.95 -3.60 3.60 -1.20 7.85 -2.85 9.45 -3.75 2.70 -1.45 3 -1.80 3.55 -3.90 0.35 -1.30 0.55 -2.35 0.55 -2.35 -0.05 0 -1.15 0.35 -2.50 0.75 -3.35 1 -4.90 0.95 -6.50 -0.30 -0.90 -0.70 -1.30 -1.50 -1.30 -2.65 0 -2.45 1.15 -3.65 4.10 -4.25 3.75 -0.85 8.35 -3.20 13.05 -6.70 4.50 -3.40 12.10 -10.45 12.95 -12.10 0.30 -0.55 1.20 -3.45 1.95 -6.40 1.30 -5.10 1.30 -5.50 0.55 -6.85 -0.80 -1.35 -0.70 -1.85 1.80 -12.30 1.45 -6.05 2.90 -12.20 3.20 -13.70 1.20 -5.45 0.50 -40.25 -1.05 -52.50 -0.75 -6.05 -0.85 -6.25 -2.05 -6.40 -2.50 -0.35 -3.35 -1.80 -9.60 -16.10 -4.35 -9.95 -8.25 -17.05 -12.45 -22.70 -7.40 -9.80 -16.85 -18.50 -25.20 -23 -9.55 -5.20 -19.35 -11.45 -23.80 -15.20 -6.70 -5.60 -9.35 -7.20 -21.70 -13.35 -9.25 -4.55 -12.75 -5.95 -12.75 -5 0 0.10 1.10 1.40 2.45 2.85 3.95 4.25 5.55 6.45 5.55 7.70 0 1.50 -1.90 3.60 -3.65 4 -1.30 0.30 -1.90 -0.15 -7.40 -5.95 -5.45 -5.70 -6.10 -6.25 -7.70 -6.20 -2.15 0.05 -3.55 -1.15 -4.10 -3.55 l-0.45 -1.85 -10.95 -1.85 c-18.15 -3 -22.65 -3.50 -31.50 -3.25 -7.40 0.15 -8.65 0.35 -16.25 2.30 -4.55 1.15 -11.15 2.75 -14.75 3.60 -6.05 1.45 -14.25 3.80 -14.70 4.25 -0.10 0.10 0.15 0.60 0.60 1.10 1.15 1.25 1.05 3.90 -0.10 5.05 -0.55 0.55 -1.85 1.15 -2.90 1.30 -3 0.50 -5 1.25 -5.70 2.05 -0.30 0.40 -1.75 1.05 -3.20 1.45 -3.25 0.95 -8.75 5.65 -8.75 7.50 0 2 -0.55 2.75 -3 4 -1.30 0.65 -3.25 2.20 -4.35 3.40 -3.30 3.80 -9.95 12.50 -10.85 14.25 -2.70 5.25 -6.50 23.40 -7.85 37.50 -0.60 5.90 -0.60 6.15 0.40 7.25 1.60 1.75 1.75 2.95 0.60 5.55 -0.55 1.30 -1.10 3.50 -1.25 4.90 -0.10 1.40 -0.45 2.85 -0.70 3.20 -2.20 2.60 -3.65 26.30 -2.55 41.20 1.50 19.55 4.75 31.55 10.30 37.90 3.20 3.65 3.70 5.10 2.50 6.90 -0.80 1.25 -0.75 1.40 0.80 5 1.45 3.25 1.75 3.65 2.75 3.40 1.30 -0.35 3.95 0.95 4.40 2.15 0.20 0.45 0.20 2.35 0 4.15 -0.25 2.65 -0.15 3.70 0.55 5.05 1.30 2.55 6 9.20 9.50 13.45 1.70 2.05 3.40 4.40 3.80 5.20 1.80 3.85 28.85 19.25 33.80 19.30 0.60 0 1.65 -0.55 2.35 -1.25 1.75 -1.75 3.40 -1.60 5.80 0.55 2.35 2.15 5 2.90 12.65 3.70 8.10 0.80 8.75 0.95 9.65 1.90 1.65 1.60 7.15 2.05 24.20 1.90 8.95 -0.10 16.80 -0.35 17.50 -0.55z m-88.35 -4.35 c-2.70 -1.40 -6.65 -3.65 -8.75 -4.95 -2.15 -1.30 -3.90 -2.20 -3.90 -1.95 0 0.80 5.95 4.55 11.20 7.05 6.70 3.20 7.60 3.10 1.45 -0.15z m137.55 -5.45 c0.40 -0.40 0.25 -0.45 -0.65 -0.20 -1.85 0.55 -4.55 1.75 -4.55 2 0 0.40 4.65 -1.20 5.20 -1.80z m10.80 -3.90 l1.25 -0.55 -1.35 0.25 c-1.70 0.30 -3.90 1.15 -3.90 1.45 0 0.30 2.25 -0.40 4 -1.15z m-203.75 -167.70 c0.20 -1.15 0.45 -2.55 0.55 -3.10 0.40 -1.55 -0.55 0.10 -1.75 3.10 -0.95 2.45 -0.95 2.55 -0.05 2.30 0.65 -0.15 1.05 -0.90 1.25 -2.30z"/>
  <path d="M451 651.45 c-1.25 -0.20 -5.15 -0.30 -8.75 -0.15 -4.60 0.20 -9.75 -0.05 -17.50 -0.75 -6.05 -0.60 -12.35 -1.05 -14 -1.05 -9.90 0 -16.35 -2.90 -25.10 -11.20 -7.30 -6.90 -12.95 -14.45 -19.35 -26 -4.10 -7.40 -5.70 -11.60 -8 -20.75 -2.05 -8.20 -2.35 -14.55 -1.05 -22.05 1.10 -6.30 2.45 -9.85 7.05 -18.60 8.35 -15.95 16.05 -23.15 29.20 -27.20 3.15 -1 8.20 -2.80 11.20 -4.05 8.10 -3.30 10.85 -3.75 21 -3.40 17 0.60 21 1.25 24.65 4.05 1.20 0.90 3.20 1.60 6.50 2.25 2.65 0.55 6.60 1.70 8.75 2.50 3.45 1.35 5.30 2.50 11.15 7.10 0.85 0.65 3.30 2.50 5.50 4.15 8.75 6.50 12.30 10.70 15 17.45 0.75 1.95 1.90 4.75 2.60 6.25 3.30 7.20 3.70 8.50 6.50 21.50 1.20 5.50 1.20 23.60 0 29.75 -2.05 10.40 -5.55 17.65 -11.50 23.80 -2.15 2.25 -7.15 5.95 -8 5.95 -0.20 0 -2.65 1.45 -5.35 3.30 -8.25 5.40 -15.35 7.75 -23.45 7.65 -2.65 -0.05 -5.80 -0.25 -7.05 -0.50z m-47.50 -11.20 c-0.95 -0.35 -2.10 -0.65 -2.50 -0.65 -0.40 0 0.05 0.30 1 0.65 0.95 0.35 2.10 0.65 2.50 0.65 0.40 0 -0.05 -0.30 -1 -0.65z"/>
  <path d="M363 249.45 c-8.40 -1.45 -14.65 -7.70 -17.20 -17.20 -1.85 -6.80 -1.45 -21.15 0.75 -27 1.65 -4.50 7.45 -9.90 7.45 -6.95 0 0.55 0.25 0.70 0.90 0.45 0.45 -0.20 1.70 -0.45 2.80 -0.60 1.45 -0.25 1.75 -0.40 1.10 -0.75 -0.45 -0.25 -0.80 -0.70 -0.80 -1 0 -0.90 11.65 -0.15 15.90 1.10 7.80 2.20 13.40 6.25 15.95 11.40 1.20 2.40 1.40 3.50 1.55 8.70 0.20 5.20 0.15 5.90 -0.60 5.90 -0.45 0 -0.85 -0.40 -0.85 -0.85 -0.05 -0.50 -0.25 0.35 -0.45 1.85 -0.60 4.20 -0.90 5.45 -2.05 8.95 -0.95 3.05 -1 3.30 -0.20 3.85 0.80 0.60 0.70 0.90 -0.80 3.70 -2.05 3.85 -5.30 6.75 -8.65 7.75 -3.20 1 -11.15 1.35 -14.80 0.70z m9.65 -13.15 c1.05 -0.40 2.30 -1.05 2.80 -1.50 1.05 -0.95 2.40 -1.05 2.65 -0.20 0.55 1.55 2.10 -4.20 2.30 -8.50 0.40 -7.75 -1.70 -14.85 -5.05 -17.20 l-1.60 -1.10 1.60 1.85 c3.35 3.85 3.90 6.90 1.50 8.60 -2 1.40 -3.20 0.90 -6.75 -2.65 -3.75 -3.80 -6.30 -5.25 -9.50 -5.30 -1.90 -0.05 -2.40 0.20 -3.85 1.80 -2.80 3 -3.40 7.05 -2 13.60 0.75 3.50 2.40 6.85 4.15 8.45 0.80 0.75 1.20 0.80 2.05 0.35 0.80 -0.40 1.40 -0.35 2.65 0.30 1.90 1 5.30 2.15 6.40 2.15 0.40 0 1.60 -0.30 2.65 -0.65z"/>
  <path d="M649.15 423.25 c-1.65 -0.70 -2.35 -2.20 -2.05 -4.30 0.10 -0.75 1.70 -2.45 4.30 -4.65 2.90 -2.40 4 -3.60 3.60 -4 -1.90 -1.90 0.60 -6.60 9.70 -18.15 9.85 -12.60 13.55 -19.10 17.55 -31.40 2.35 -7.10 3.40 -9.55 4.20 -9.85 0.65 -0.20 3.30 -4.90 3.95 -6.95 0.30 -0.90 0.80 -4.60 1.10 -8.10 0.45 -6.10 0.45 -6.50 -0.50 -7.70 -1.25 -1.60 -1.25 -3.35 -0.05 -5.35 0.50 -0.85 1.20 -3.10 1.50 -5 0.70 -3.90 1.15 -4.95 2.85 -6.80 1.95 -2.10 3.20 -10.95 3.20 -22.75 l0 -9.70 1.30 -1 c1.75 -1.40 3.35 -1.30 5.05 0.15 l1.40 1.20 -0.05 11.70 c-0.05 10.45 -0.20 12.25 -1.35 17.40 -0.80 3.75 -1.10 6.05 -0.80 6.60 0.70 1.35 0.50 10.35 -0.30 15.20 -0.45 2.45 -1.60 6.70 -2.55 9.45 -2.70 7.65 -3.45 10 -5.15 16.25 -1.60 5.75 -5.20 15.15 -6.90 18.15 -0.60 1 -1.60 1.80 -2.65 2.15 -1 0.35 -2.10 1.20 -2.60 2 -1.10 1.90 -1.10 2.20 0.05 2.20 0.50 0 1.45 0.40 2.10 0.95 2.15 1.75 1.60 3.60 -3.10 10.80 -5.65 8.55 -9.25 12.95 -15.55 19 -5.85 5.65 -14.15 12.50 -15.65 12.90 -0.55 0.15 -1.70 0 -2.60 -0.40z"/>
 </g>
 <g fill="#d6f6c5">
  <path d="M292.25 327.55 c-1.70 -0.20 -2.50 -0.55 -2.55 -1.05 -0.10 -1.70 -0.25 -2.05 -1.20 -3 -1.30 -1.30 -3.70 -1.30 -5.05 0.05 -0.55 0.55 -1.10 0.95 -1.20 0.85 -0.30 -0.30 -2.30 -13.55 -4.25 -27.65 -2.50 -18.55 -3.15 -26.95 -2.50 -33.75 0.25 -2.90 0.45 -5.85 0.50 -6.60 0 -1.05 0.25 -1.40 1 -1.40 0.55 0 1 -0.35 1 -0.75 0 -0.40 0.40 -0.75 0.90 -0.75 0.85 -0.05 3.20 -1.50 2.35 -1.50 -0.25 0 0.45 -0.45 1.50 -1 2.95 -1.50 7.55 -2.60 9.45 -2.20 1.35 0.25 1.95 0.05 2.75 -0.75 0.60 -0.60 0.95 -1.30 0.80 -1.55 -0.20 -0.30 -0.05 -0.50 0.25 -0.50 0.30 0 0.40 -0.20 0.25 -0.50 -0.15 -0.25 -0.05 -0.50 0.25 -0.50 0.30 0 0.40 -0.20 0.25 -0.50 -0.15 -0.25 -0.05 -0.50 0.25 -0.50 0.30 0 0.45 -0.20 0.30 -0.45 -0.20 -0.25 -0.10 -0.55 0.15 -0.65 0.25 -0.05 0.55 -0.50 0.65 -0.90 0.10 -0.40 0.35 -0.90 0.60 -1.10 0.30 -0.20 0.20 -0.70 -0.20 -1.25 -0.40 -0.50 -0.55 -0.75 -0.35 -0.60 0.55 0.50 4.45 -7.10 6.55 -12.65 0.95 -2.55 2.45 -8.15 3.35 -12.40 3.45 -16.10 1.65 -27.80 -5.60 -35.70 -1.45 -1.55 -3.55 -3.50 -4.70 -4.30 -3.65 -2.50 -3.55 -3.90 2.50 -31.50 1.50 -6.75 4.05 -17.85 5.70 -24.75 3.75 -15.75 4.85 -20.80 8.30 -37.45 2.90 -14.15 5.60 -26.35 5.95 -26.65 0.10 -0.10 0.80 1.55 1.55 3.70 0.75 2.15 2.20 5.40 3.25 7.25 1.05 1.85 3.75 8.05 5.95 13.80 2.20 5.80 5.05 13 6.30 16.10 l2.30 5.55 -1.45 1.70 c-5 5.65 -5.45 17.95 -0.95 26.90 3.85 7.75 10.35 12.80 18.60 14.50 1.95 0.40 4.05 0.95 4.65 1.30 0.60 0.30 1.55 0.75 2.10 1.05 0.50 0.25 1.30 0.35 1.75 0.20 0.40 -0.20 1.10 -0.05 1.50 0.30 0.40 0.35 0.75 0.45 0.75 0.30 0 -0.20 0.50 -0.05 1.15 0.30 0.60 0.30 1.35 0.65 1.60 0.70 0.30 0.05 1.70 0.80 3.15 1.65 2.05 1.20 3.40 1.60 6 1.75 5.55 0.40 5.70 0.50 13 12.70 3.55 5.95 9.15 15.60 12.35 21.35 3.20 5.80 6.10 10.75 6.35 11.10 0.85 1.05 3.35 1.30 4.65 0.45 0.65 -0.45 1.30 -0.80 1.40 -0.80 0.10 0 2.10 3.90 4.50 8.65 3.10 6.20 5.65 12.35 9.10 21.95 5.45 15.30 7.45 21.95 11.50 38.30 1.85 7.50 3.30 12.25 4 13.35 0.65 0.90 1.30 2.35 1.50 3.20 0.40 1.85 1.95 3.05 3.90 3.05 1.25 0 1.40 0.15 1.25 1.35 -0.10 1.05 -0.50 1.45 -1.65 1.65 -0.80 0.20 -3.95 2.05 -7 4.10 -7.20 4.95 -21.75 14.15 -25.25 16 -2.75 1.45 -4.70 1.80 -5.25 0.95 -0.15 -0.30 -2.10 -1.45 -4.30 -2.65 -3.35 -1.80 -4.45 -2.70 -6.45 -5.40 -6.45 -8.65 -12.80 -11.95 -23.10 -12 -1.60 0 -2.40 -0.20 -2.40 -0.65 0 -0.80 -1.65 -1.85 -4.75 -2.95 -1.90 -0.70 -3.35 -0.85 -6.05 -0.65 -5.85 0.50 -6.25 0.70 -7.25 3.65 -0.50 1.45 -0.80 2.90 -0.70 3.25 0.15 0.35 -0.50 1.10 -1.45 1.70 -0.95 0.60 -2.20 2.10 -2.85 3.50 -1.05 2.10 -1.20 3.10 -1.20 8.30 0 4 -0.20 5.85 -0.55 5.85 -0.35 0 -0.60 0.95 -0.60 2.35 -0.05 1.25 -0.30 2.55 -0.60 2.85 -0.25 0.25 -0.50 0.90 -0.50 1.40 0 0.50 -0.50 2.10 -1.10 3.65 -1.30 3.10 -0.90 2.95 -11.60 4.50 l-5.40 0.80 -1.20 -1.30 c-1.85 -2 -4.25 -1.75 -6.20 0.70 l-1.60 1.95 -6.55 0.30 c-12.30 0.50 -21.60 0.65 -24.10 0.35z m84.20 -80.35 c3.10 -0.90 6.45 -3.85 8.25 -7.25 0.80 -1.50 1.50 -2.80 1.60 -2.90 0.10 -0.10 0.95 0.35 1.90 0.95 1 0.60 1.80 0.90 1.80 0.75 0 -0.20 0.35 -0.10 0.75 0.25 0.40 0.35 0.75 0.45 0.75 0.25 0 -0.20 0.35 -0.10 0.75 0.25 1.30 1.05 2.05 -0.40 1.25 -2.50 -0.05 -0.15 -0.10 -0.65 -0.05 -1.10 0.05 -0.50 -0.15 -0.90 -0.45 -0.90 -0.30 0 -0.40 -0.20 -0.25 -0.50 0.15 -0.25 0.15 -0.80 -0.10 -1.10 -0.20 -0.35 -0.45 -1.10 -0.50 -1.60 -0.10 -0.55 -0.35 -1.20 -0.60 -1.50 -0.75 -0.90 -1.10 -3.65 -1.50 -10.65 -0.35 -5.65 -0.60 -6.95 -1.75 -9.30 -3.45 -7.15 -12.85 -12 -24.55 -12.70 -2.95 -0.15 -5.30 -0.55 -5.75 -0.95 -0.40 -0.35 -1.35 -0.75 -2.10 -0.95 -1.25 -0.30 -1.35 -0.20 -1.65 1.45 -0.25 1.15 -1.15 2.55 -2.75 4.15 -3.05 3.10 -4.45 6.80 -5.10 13.65 -1.10 11.70 1.10 20.65 6.65 26.75 5.45 5.90 14.65 8.05 23.40 5.45z"/>
  <path d="M365.75 237.85 c-2.75 -0.95 -5.25 -2.30 -5.25 -2.85 0 -0.25 0.60 -0.65 1.40 -0.85 1.90 -0.45 15.45 -0.50 15.90 0 0.60 0.60 -0.45 1.95 -2.25 3.05 -2.05 1.20 -7.15 1.50 -9.80 0.65z"/>
  <path d="M442.85 234.40 c-2.10 -6.20 -4.90 -12.85 -9 -21.40 -1.50 -3.15 -4 -9.70 -5.55 -14.50 -4.05 -12.65 -4.15 -12.80 -5.75 -13.50 -0.80 -0.30 -1.80 -0.50 -2.25 -0.40 -0.65 0.10 -2 -2.15 -5.75 -9.45 -3.20 -6.35 -4.65 -9.65 -4.20 -9.65 1.40 0 13.10 12.40 12.80 13.55 -0.05 0.20 0.20 0.65 0.60 0.95 0.40 0.35 0.75 0.85 0.75 1.10 0 0.30 0.50 1.20 1.15 2.05 1.80 2.60 4.25 6.80 4.65 8 0.15 0.60 0.75 1.85 1.30 2.75 0.55 0.85 0.80 1.60 0.60 1.60 -0.20 0 0 0.40 0.45 0.90 0.40 0.45 0.80 1 0.85 1.20 0 0.20 0.35 1.15 0.75 2.05 0.35 0.90 0.85 2.30 1 3.15 0.20 0.80 0.65 2.15 1.05 3 0.35 0.85 0.80 2.30 0.95 3.25 0.10 0.95 0.65 3.45 1.20 5.60 0.50 2.10 0.80 3.85 0.65 3.85 -0.10 0 0.05 0.35 0.40 0.75 0.30 0.40 0.45 0.90 0.30 1.15 -0.15 0.25 0.05 0.95 0.40 1.65 0.30 0.65 0.90 2.35 1.25 3.70 0.35 1.40 0.80 2.95 1.05 3.50 0.65 1.70 2.65 10.25 2.45 10.50 -0.15 0.10 -1.05 -2.30 -2.10 -5.35z"/>
  <path d="M280.65 148.25 c-0.70 -0.80 -0.70 -7.25 0 -7.25 0.25 0 0.35 -1.15 0.25 -2.50 -0.05 -1.40 0.05 -2.50 0.30 -2.50 0.25 0 0.30 -0.65 0.15 -1.50 -0.20 -0.95 -0.10 -1.50 0.20 -1.50 0.35 0 0.45 -0.50 0.25 -1.25 -0.20 -0.80 -0.10 -1.25 0.25 -1.25 0.35 0 0.45 -0.55 0.30 -1.50 -0.20 -0.90 -0.10 -1.50 0.20 -1.50 0.35 0 0.40 -0.70 0.20 -2 -0.20 -1.25 -0.15 -2 0.15 -2 0.35 0 0.40 -0.70 0.25 -1.75 -0.20 -1.20 -0.10 -1.75 0.35 -1.75 0.40 0 0.55 -0.50 0.40 -1.50 -0.15 -0.80 0 -1.50 0.25 -1.50 0.25 0 0.35 -0.55 0.25 -1.25 -0.15 -0.70 -0.05 -1.25 0.25 -1.25 0.25 0 0.35 -0.45 0.20 -1 -0.15 -0.55 -0.05 -1 0.25 -1 0.30 0 0.40 -0.45 0.25 -1 -0.15 -0.55 -0.05 -1 0.25 -1 0.30 0 0.40 -0.45 0.25 -0.95 -0.15 -0.60 0.05 -1.10 0.50 -1.25 0.50 -0.20 0.70 -0.75 0.55 -1.55 -0.15 -0.65 0 -1.30 0.25 -1.40 0.30 -0.10 0.55 -1 0.55 -2 0.05 -1 0.25 -1.85 0.45 -1.85 0.25 0 0.25 -0.45 0.10 -1 -0.20 -0.60 -0.10 -1 0.25 -1 0.35 0 0.50 -0.35 0.30 -0.75 -0.15 -0.40 -0.05 -0.75 0.25 -0.75 0.30 0 0.45 -0.35 0.25 -0.75 -0.15 -0.40 0 -0.75 0.25 -0.75 0.30 0 0.45 -0.45 0.30 -1 -0.15 -0.55 -0.05 -1 0.15 -1 0.25 0 0.35 -0.65 0.25 -1.50 -0.10 -0.85 0.05 -1.50 0.35 -1.50 0.35 0 0.45 -0.75 0.25 -2 -0.15 -1.20 -0.05 -2 0.25 -2 0.30 0 0.40 -0.55 0.30 -1.25 -0.15 -0.70 -0.05 -1.25 0.25 -1.25 0.25 0 0.35 -0.45 0.20 -1 -0.15 -0.55 -0.05 -1 0.25 -1 0.30 0 0.40 -0.45 0.25 -1 -0.15 -0.55 -0.05 -1 0.25 -1 0.30 0 0.40 -0.45 0.25 -1 -0.15 -0.55 -0.05 -1 0.25 -1 0.30 0 0.45 -1.40 0.30 -3.75 -0.10 -2.05 0.05 -3.75 0.25 -3.75 0.25 0 0.35 -0.45 0.20 -1 -0.15 -0.55 -0.05 -1 0.25 -1 0.30 0 0.40 -0.45 0.25 -1 -0.15 -0.55 -0.05 -1 0.25 -1 0.30 0 0.40 -0.45 0.25 -1 -0.15 -0.55 -0.05 -1 0.20 -1 0.20 0 0.30 -0.35 0.15 -0.75 -0.20 -0.40 -0.05 -0.75 0.30 -0.75 0.45 0 0.55 -0.55 0.30 -2 -0.20 -1.35 -0.15 -2 0.25 -2 0.30 0 0.45 -0.45 0.30 -1 -0.15 -0.55 -0.05 -1 0.25 -1 0.30 0 0.40 -0.45 0.25 -0.95 -0.15 -0.60 0.05 -1.10 0.50 -1.25 0.45 -0.20 0.65 -0.70 0.50 -1.30 -0.15 -0.55 -0.05 -1 0.25 -1 0.25 0 0.30 -0.20 0.15 -0.50 -0.15 -0.25 -0.05 -0.50 0.25 -0.50 0.30 0 0.40 -0.20 0.25 -0.50 -0.15 -0.25 0.05 -0.50 0.50 -0.50 0.55 0 0.75 -0.25 0.60 -0.70 -0.15 -0.40 0.05 -0.85 0.45 -1 0.40 -0.15 0.65 -0.45 0.60 -0.65 -0.25 -0.65 3.95 -4.65 4.80 -4.65 0.50 0 0.70 -0.20 0.55 -0.50 -0.15 -0.25 0.05 -0.50 0.45 -0.50 0.45 0 0.80 -0.15 0.80 -0.40 0 -0.40 3.20 -1.90 5.20 -2.40 0.70 -0.15 1.30 -0.20 1.30 0 0 0.65 -3.70 13.95 -5.30 19 -0.95 3.05 -2.95 11.10 -4.50 17.90 -3.55 15.95 -3.95 17.35 -9.70 32.40 -2.10 5.50 -5.45 15.25 -9.50 27.75 -2 6.05 -3.65 11.05 -3.65 11.05 -0.05 0.05 -0.40 -0.20 -0.70 -0.55z"/>
  <path d="M353.85 134.75 c-2.90 -1.10 -6.15 -3.65 -8.05 -6.40 -2.80 -4 -2.10 -3.75 4.20 1.40 1.50 1.25 3.35 2.65 4.05 3.10 1.35 0.85 2.80 2.70 2.10 2.60 -0.25 0 -1.25 -0.35 -2.30 -0.70z"/>
  <path d="M340.80 74.05 c-5.40 -7.70 -7.75 -11.50 -8.50 -13.75 -0.45 -1.35 -0.80 -2.55 -0.80 -2.65 0 -0.15 1.15 0.40 2.50 1.15 3.05 1.65 5.90 5.20 8.20 10.25 2.35 5.20 2.45 5.60 1.45 6.80 -0.90 1 -0.95 0.95 -2.85 -1.80z"/>
  <path d="M332.45 49.35 c-1.55 -0.90 -3.30 -1.95 -3.95 -2.35 -1.15 -0.80 -3.80 -7 -3 -7 0.25 0 0.60 0.25 0.75 0.55 0.20 0.25 0.60 0.40 0.90 0.30 0.80 -0.25 4.35 1.30 6.70 2.85 1 0.70 2.05 1.10 2.30 0.95 0.30 -0.20 0.35 -0.05 0.10 0.35 -0.20 0.35 -0.35 1.85 -0.30 3.30 0.05 1.50 -0.10 2.70 -0.30 2.65 -0.25 0 -1.65 -0.75 -3.20 -1.60z"/>
 </g>
</svg>