<?xml version="1.0" encoding="utf-8"?>
<!DOCTYPE svg PUBLIC "-//W3C//DTD SVG 1.0//EN" "http://www.w3.org/TR/2001/REC-SVG-20010904/DTD/svg10.dtd">
<svg version="1.0" xmlns="http://www.w3.org/2000/svg" width="821px" height="1123px" viewBox="0 0 821 1123" preserveAspectRatio="xMidYMid meet">
 <g fill="#f6c4b9">
  <path d="M353 1079.55 c0 -0.25 -0.45 -0.65 -1 -0.80 -0.55 -0.15 -1 -0.60 -1 -0.90 -0.05 -0.35 -1.30 -1.50 -2.80 -2.60 -3.75 -2.65 -9.50 -8.40 -12.05 -12 -3.70 -5.20 -9.10 -16.60 -8.30 -17.45 0.15 -0.15 0.05 -0.55 -0.25 -0.95 -0.30 -0.35 -0.65 -1.45 -0.75 -2.40 -0.10 -1 -0.35 -2.05 -0.55 -2.35 -0.20 -0.35 -0.45 -1.75 -0.55 -3.20 -0.10 -1.45 -0.55 -4.10 -0.95 -5.90 -0.40 -1.80 -0.85 -4.15 -1 -5.25 -0.10 -1.10 -0.35 -2.35 -0.50 -2.75 -0.15 -0.40 -0.40 -1.95 -0.55 -3.40 -0.15 -1.50 -0.40 -2.90 -0.55 -3.20 -0.15 -0.25 -0.30 -1.95 -0.30 -3.70 0 -1.75 -0.15 -3.20 -0.35 -3.20 -0.25 0 -0.55 -1.50 -0.75 -3.35 -0.20 -1.85 -0.90 -5.75 -1.60 -8.65 -0.70 -2.90 -1.30 -5.60 -1.35 -6 -0.10 -0.40 -0.30 -1 -0.50 -1.35 -0.20 -0.30 -0.55 -1.55 -0.85 -2.75 -0.25 -1.20 -1.10 -4.60 -1.90 -7.65 -0.80 -3 -1.65 -6.35 -1.80 -7.40 -0.20 -1.05 -0.55 -1.75 -0.85 -1.60 -0.25 0.20 -0.45 0.15 -0.40 -0.10 0.05 -0.20 0 -0.75 -0.20 -1.15 -0.70 -1.85 -1 -4.45 -1.65 -14.75 -0.65 -10.30 -1.25 -17 -1.95 -20.50 -0.15 -0.80 -0.55 -2.85 -0.80 -4.50 -0.30 -1.65 -0.95 -4.80 -1.45 -7 -0.50 -2.20 -1.25 -5.80 -1.65 -8.05 -0.40 -2.20 -1.30 -5.25 -2 -6.75 -1.25 -2.55 -5.35 -18.05 -5.35 -20.05 0 -1.75 -1.45 -3.90 -2.90 -4.15 -0.75 -0.20 -1.65 -0.45 -2 -0.65 -0.80 -0.45 -6.85 -14.65 -7.65 -17.95 -1.60 -6.55 -3.10 -11.50 -3.80 -12.25 -0.55 -0.65 -1.55 -0.90 -3.35 -0.90 l-2.55 0 -2.90 -4.45 c-3.80 -5.85 -4 -6 -5.90 -4.60 -1.05 0.80 -2.05 1.05 -3.65 1 -3 -0.15 -4 0.70 -3.55 3 0.90 5.10 0.85 7.70 -0.35 11.65 -1.35 4.65 -1.95 4.85 -5.50 2 -2.25 -1.75 -7.15 -7.10 -8.75 -9.50 -0.55 -0.75 -0.95 -0.95 -1.35 -0.65 -0.35 0.30 -0.90 0.30 -1.25 0.05 -0.75 -0.45 -0.60 -5.15 0.40 -13.50 0.60 -5.15 1.95 -23.95 2.15 -30.50 0.10 -3.85 0 -5 -0.75 -6 -1.35 -1.90 -1.15 -5.65 0.40 -7.20 l1.25 -1.25 -1 -2.15 c-1.15 -2.60 -1.30 -5.65 -0.30 -6.05 0.50 -0.20 0.65 -0.05 0.45 0.45 -0.15 0.35 0 0.70 0.30 0.70 0.30 0 0.55 -0.35 0.55 -0.75 0 -0.40 0.25 -0.75 0.60 -0.75 0.30 0 0.45 -0.15 0.30 -0.30 -0.20 -0.15 0.55 -1.10 1.65 -2.10 1.05 -1 1.95 -2.15 1.95 -2.50 0 -0.35 0.35 -0.75 0.75 -0.90 0.40 -0.20 1.50 -1.05 2.40 -1.95 0.85 -0.85 1.90 -1.70 2.30 -1.80 1.50 -0.50 -0.10 -3.05 -5.50 -8.80 -9.60 -10.15 -14.85 -18.10 -21.10 -31.90 -1.75 -3.85 -4.50 -9 -6.05 -11.50 -2.75 -4.35 -7.75 -14 -8 -15.35 -0.05 -0.35 -0.25 -0.95 -0.50 -1.30 -1 -1.60 -7.25 -22.15 -8.50 -27.85 -0.05 -0.25 -0.35 -1 -0.70 -1.55 -0.30 -0.60 -0.40 -1.20 -0.20 -1.40 0.15 -0.20 0.05 -0.50 -0.25 -0.70 -0.60 -0.40 -3.30 -7.60 -2.85 -7.60 0.20 0 0.10 -0.30 -0.20 -0.65 -0.50 -0.60 -3.65 -9.85 -3.85 -11.35 -0.05 -0.40 -0.25 -1.10 -0.40 -1.50 -0.15 -0.40 -0.30 -1.10 -0.30 -1.50 0 -0.40 -0.45 -2.35 -1 -4.35 -0.55 -2 -1.10 -4.65 -1.25 -5.90 -0.15 -1.30 -0.40 -2.50 -0.55 -2.70 -0.10 -0.25 -0.35 -1.15 -0.45 -2.10 -0.15 -0.95 -0.75 -3.60 -1.30 -5.95 -1.65 -6.80 -3.45 -15.60 -3.75 -17.75 -0.10 -1.10 -0.40 -3.10 -0.65 -4.50 -0.25 -1.35 -0.35 -2.80 -0.25 -3.15 0.15 -0.35 0 -1.25 -0.30 -2 -0.30 -0.75 -0.65 -3.05 -0.75 -5.10 -0.25 -3.65 -0.60 -5.15 -2.75 -12.25 -1.25 -4.05 -1.20 -3.80 -2.50 -8.75 -0.50 -2.05 -0.85 -3.95 -0.70 -4.15 0.15 -0.20 0 -0.65 -0.25 -1 -0.25 -0.35 -0.95 -3.20 -1.50 -6.35 -0.60 -3.15 -1.65 -9 -2.35 -12.90 -0.75 -3.95 -1.20 -7.30 -1.05 -7.45 0.15 -0.15 0.05 -0.75 -0.25 -1.30 -0.55 -1 -0.65 -2.30 -1.40 -19.10 -0.20 -5.20 -0.65 -10.25 -0.95 -11.20 -0.35 -0.95 -0.50 -1.85 -0.35 -1.95 0.10 -0.15 0 -0.60 -0.25 -1.05 -0.80 -1.55 -1.95 -9.70 -2.50 -18.15 l-0.55 -8.35 3.30 -10.50 c1.80 -5.75 3.85 -12 4.55 -13.85 3.25 -8.70 9.35 -23.55 10 -24.25 0.40 -0.40 1.10 -2 1.65 -3.50 1.30 -3.85 5.50 -12.10 9.50 -18.60 1.90 -3.10 4 -6.75 4.70 -8.15 1.55 -3.10 4.75 -6.15 5.40 -5.10 0.35 0.50 1.30 -0.30 3.85 -3 3.90 -4.20 5.65 -4.90 7.90 -3.15 1.25 1 1.40 1 2.25 0.25 0.50 -0.45 1.15 -2.10 1.50 -3.65 0.90 -4.45 2 -6.10 5 -7.75 l2.70 -1.40 -1.20 1.30 c-0.70 0.70 -1 1.30 -0.70 1.30 0.30 0 0.85 -0.35 1.20 -0.80 1.40 -1.70 9.35 -4.75 16.45 -6.30 3.75 -0.80 7.10 -1.10 15.85 -1.25 l11.05 -0.25 1.65 -1.70 c0.90 -0.95 1.85 -1.70 2.10 -1.70 0.25 0 1.45 -1 2.70 -2.25 1.20 -1.25 2.40 -2.25 2.65 -2.25 0.25 0 1.05 -0.55 1.80 -1.25 0.75 -0.70 1.65 -1.25 2 -1.25 0.40 0 0.70 -0.20 0.70 -0.40 0 -0.20 1.30 -1.05 2.90 -1.85 1.55 -0.85 2.95 -1.65 3.10 -1.85 0.40 -0.50 12.75 -6.30 16.50 -7.75 5.90 -2.30 14.65 -5 22.50 -6.90 10.15 -2.45 31.30 -7.85 38.25 -9.75 19.45 -5.20 30 -7.50 45 -9.75 2.50 -0.40 7.20 -1.15 10.50 -1.75 15.50 -2.70 17.15 -2.85 45 -3.35 22.85 -0.40 38.10 0.65 48.25 3.40 8 2.15 19.25 6.50 22.55 8.65 1 0.70 3.50 1.70 5.55 2.25 2 0.55 6.60 1.80 10.15 2.80 3.60 1 7.35 2 8.40 2.30 2.90 0.70 10.50 3.80 16.60 6.70 3.05 1.45 6.05 2.80 6.75 3 4.20 1.30 17.45 7.45 25 11.65 4.10 2.25 10.55 6.40 13.75 8.85 1.30 1.05 3.15 2.20 4.05 2.55 0.90 0.35 1.70 0.85 1.80 1.05 0.15 0.25 0.20 0.15 0.10 -0.15 -0.10 -0.40 0.30 -0.50 1.20 -0.25 1.80 0.45 3.85 4.60 7.05 14.30 2.35 7.25 3.40 11.45 4.50 18.25 2.50 15.55 2.65 16.25 3.85 17.55 1.15 1.25 2 1.20 2.90 -0.15 0.65 -1 0.65 -1.70 0.05 -5.15 -2 -11.50 -2.25 -13.25 -2.25 -14.70 0 -1.60 0 -1.60 2.40 -1.45 l2.35 0.15 0.25 3 c0.30 3.45 3.30 10 10.05 22.10 4.90 8.75 14.60 28.15 17.15 34.15 1.95 4.70 3.80 11.10 8.50 29.75 4 15.65 4.60 18.45 5.80 26.50 1.85 12.55 2.40 14.90 3.60 15.85 1.10 0.85 1.20 0.85 2.30 -0.40 0.65 -0.75 1.05 -1.65 0.90 -2.05 -0.15 -0.40 -0.45 -2.65 -0.60 -4.95 l-0.35 -4.20 1.70 0 c1.60 0 1.75 0.15 2.80 2.90 4.95 13.25 7.35 24.20 5.45 24.90 -0.65 0.25 -0.80 1.15 -0.80 4.70 0 2.45 -0.20 6.10 -0.50 8.10 -0.25 2 -0.60 5.55 -0.75 7.90 -0.15 2.35 -0.50 6.40 -0.80 9 -0.80 7.80 -1.40 15.20 -1.15 15.55 0.30 0.50 -1.60 15.35 -2.80 21.70 -0.80 4.35 -1.05 8.40 -1.30 19.65 -0.15 8 -0.05 14.45 0.20 14.75 0.60 0.80 2.40 5.95 3.30 9.35 1.60 6 2.20 8.50 3.55 14 1 4.15 2.10 7.05 3.90 10.40 2.20 4.20 2.60 4.60 3.80 4.50 l1.30 -0.15 0 4.10 c0 4.70 0.60 5.60 3.90 5.65 l1.85 0 0 2.45 c0 1.40 -0.35 3.90 -0.75 5.65 -1.10 4.80 -1.10 7.20 0 8.40 0.80 0.90 0.85 1.55 0.55 5.80 l-0.35 4.80 2.45 3.85 c4.55 7.10 6.75 12.25 8.55 20.20 0.30 1.30 0.55 2.85 0.55 3.50 0 0.60 0.30 1.65 0.65 2.40 1.40 2.60 2.35 6.20 2.35 8.80 l0 2.65 -1.70 0 c-0.95 0 -2.25 0.45 -3 1.05 -1.15 0.90 -1.30 1.35 -1.30 4.35 0 1.85 0.35 5.60 0.75 8.35 0.95 6.60 0.95 8.75 0 8.75 -0.40 0 -0.75 -0.35 -0.75 -0.75 0 -0.90 -1.35 -0.50 -2.85 0.95 -1.55 1.50 -2.55 2.30 -2.85 2.30 -0.40 0 -3.95 2.45 -5.45 3.80 -0.80 0.70 -1.60 1.20 -1.80 1.10 -0.75 -0.30 -5.90 -6.30 -8.15 -9.55 -1.95 -2.75 -2.65 -3.35 -3.75 -3.35 -0.80 0 -2.15 -0.45 -3.05 -1 -1.90 -1.15 -2.60 -1.25 -3.75 -0.35 -0.85 0.60 -1.25 2.45 -3.15 14 -0.45 2.95 -1 5.50 -1.15 5.60 -0.40 0.20 -10.90 -1.15 -12.95 -1.75 -2.25 -0.60 -2.40 0.10 -0.90 3.75 0.65 1.65 1.70 5.35 2.30 8.20 0.95 4.40 1.10 6.30 0.90 11.90 -0.15 3.65 -0.05 6.65 0.15 6.65 0.20 0 0.25 0.45 0.10 1 -0.20 0.65 0 1 0.50 1 0.80 0 1.35 1.45 1.35 3.90 0 1.10 -0.25 1.60 -0.75 1.60 -0.45 0 -0.75 0.50 -0.75 1.30 0 1.30 1.15 2.90 1.70 2.35 0.15 -0.20 0.30 0 0.30 0.40 0.05 0.40 0.10 10.25 0.20 21.95 0.15 20.55 0.80 36 1.75 43.25 0.95 7 3.70 20.95 5.30 26.75 0.55 2 0.75 5 0.70 11.25 -0.05 5.65 0.20 10.25 0.75 13.70 0.60 3.85 0.80 8.80 0.80 18.50 0 8.20 0.30 15.90 0.75 20.05 0.40 3.70 0.75 8.60 0.75 10.85 0 3.70 -0.10 4.25 -1.25 5.45 -1.55 1.65 -3.35 7.45 -4.75 15.20 -1.30 7.25 -1.50 7.75 -3.50 10.90 -1.40 2.10 -2.05 2.60 -3.85 3.10 -1.20 0.30 -2.30 0.85 -2.45 1.25 -0.20 0.50 -1 0.75 -2.40 0.75 -1.85 0 -2.15 -0.15 -2.65 -1.50 -0.70 -1.90 -1.90 -2.35 -3.60 -1.40 -0.70 0.45 -2.25 0.95 -3.40 1.15 -1.20 0.20 -2.30 0.65 -2.50 1 -0.70 1.20 -10.95 1.90 -22.25 1.55 -10.60 -0.35 -11.85 -0.50 -19.65 -2.25 -2.45 -0.60 -5.25 -1.05 -6.15 -1.05 -0.90 0 -2 -0.35 -2.40 -0.75 -0.45 -0.40 -1.20 -0.75 -1.75 -0.75 -1.20 0 -1.25 -1.35 -0.05 -1.65 0.55 -0.15 0.40 -0.25 -0.45 -0.30 -0.95 -0.05 -1.30 -0.30 -1.25 -0.90 0 -0.50 -0.25 -0.85 -0.55 -0.80 -0.45 0.10 -0.65 -0.50 -0.65 -1.75 0 -2.10 -0.85 -3.20 -3.10 -4.05 -0.85 -0.30 -1.70 -1.25 -2.30 -2.65 -1.25 -2.80 -3.20 -5.15 -6.85 -8.35 -1.95 -1.70 -3.10 -3.15 -3.30 -4.10 -0.25 -1.20 -0.20 -1.35 0.35 -0.90 0.55 0.45 0.55 0.15 -0.05 -1.60 -0.45 -1.20 -1.05 -2.65 -1.40 -3.20 -1.65 -2.55 -4.25 -10.60 -5.60 -17.25 -0.80 -3.90 -3.50 -11.30 -4.50 -12.40 -0.75 -0.85 -11.30 -3.65 -14.75 -3.90 -2.20 -0.15 -3 -0.50 -4.25 -1.70 -0.90 -0.85 -2.25 -1.70 -3 -1.90 -1 -0.30 -1.60 -0.90 -1.95 -2 -0.75 -2.15 -2.15 -3.05 -4.65 -3.10 l-2.15 0 0 -2.50 0 -2.50 2.90 0 c2.20 0 3.15 -0.25 3.75 -0.90 2.15 -2.35 0 -4.10 -5.10 -4.10 -3.05 0 -3.70 -0.15 -4.85 -1.25 -1.25 -1.15 -1.75 -1.25 -6.15 -1.30 -9.65 -0.15 -11.85 -0.30 -14.30 -0.90 -2.70 -0.70 -20 -0.45 -30.55 0.45 -6.50 0.50 -11.50 2.15 -20.45 6.60 -5.70 2.90 -6.10 3 -8.75 2.75 -2.40 -0.25 -3.30 -0.10 -7 1.45 -2.35 0.95 -6.05 2.75 -8.20 4 -3.55 2.05 -4.20 2.30 -6.35 2.10 -2.20 -0.25 -2.55 -0.10 -3.85 1.30 -0.85 0.85 -2.20 2.70 -3.10 4.15 -1.55 2.60 -4.10 4.65 -5.70 4.65 -0.45 0 -1.35 -0.30 -1.95 -0.70 -0.60 -0.35 -2.10 -0.80 -3.35 -0.95 -1.25 -0.15 -2.70 -0.45 -3.20 -0.65 -0.80 -0.30 -0.85 -0.05 -0.65 3.10 0.30 5.05 1.40 12.20 1.90 12.20 0.20 0 0.55 0.80 0.75 1.75 0.20 1.25 0.55 1.75 1.25 1.75 1.60 0 1.25 3.10 -0.55 5.10 l-1.50 1.60 0 9.05 c0 9.10 0.70 14.90 2.20 19.30 1.05 2.95 1 5.25 -0.15 9.60 -0.55 1.95 -1.60 5.95 -2.30 8.85 -0.75 2.90 -1.65 5.75 -2.05 6.35 -0.75 1.15 -5.45 3.15 -7.50 3.15 -0.75 0 -2.15 0.65 -3.15 1.45 -1.85 1.45 -4.30 2.15 -14.05 3.80 -10.10 1.75 -24.70 5.50 -26.25 6.75 -0.25 0.20 -1.30 0.65 -2.25 0.90 -0.95 0.30 -3.35 1.10 -5.25 1.80 -5 1.80 -11.10 2.25 -13.80 1 -1.90 -0.85 -2.10 -0.85 -2.50 -0.05 -0.55 0.90 -3.95 1.25 -3.95 0.40z m74.60 -236.90 c0.45 -0.50 0.95 -1.45 1.15 -2.10 0.35 -1.20 8.45 -12.80 11.20 -16.05 0.80 -0.95 2 -1.70 3.05 -1.90 1.45 -0.30 1.95 -0.75 2.85 -2.60 1 -2.05 5.15 -17.35 6.70 -24.80 l0.65 -3.10 4.50 -0.55 c19.65 -2.55 42.70 -8.45 56.05 -14.30 8.45 -3.70 11.85 -4.95 13.75 -5.15 l2.25 -0.20 8.20 9.15 c4.50 5.05 9.20 10.65 10.50 12.40 3.70 5.20 4.15 5.55 6.90 5.55 1.90 -0.05 3.35 0.45 7 2.35 l4.55 2.40 1.30 -1.20 c0.70 -0.70 1.30 -1.70 1.30 -2.25 0 -1.65 -4.90 -11.80 -9.95 -20.70 -4.45 -7.85 -4.65 -8.25 -4.35 -10.50 0.15 -1.30 0.30 -3.90 0.30 -5.85 l-0.05 -3.50 5.20 -3.35 c7.70 -5 19.75 -16.45 21 -20 0.40 -1.20 -1.35 -3.20 -3.40 -3.90 -0.95 -0.30 -2.10 -1.05 -2.50 -1.65 -0.60 -0.85 -0.95 -0.95 -2.10 -0.55 -1 0.35 -1.55 1.10 -2.25 3.30 -1.05 3.15 -4.45 7.40 -5.90 7.40 -0.55 0 -2.25 1.25 -3.85 2.80 -4.60 4.40 -6.75 5.70 -9.35 5.70 -2.10 0 -2.50 0.25 -5.95 3.45 -2.75 2.55 -4.20 3.50 -5.65 3.75 -2.30 0.45 -4.20 1.55 -4.20 2.45 0 0.80 -2.35 2.95 -4 3.70 -4.70 2 -8.55 3.15 -10.90 3.15 -2 0 -3.60 0.45 -6.95 2.05 -2.45 1.15 -5.10 2.40 -5.95 2.80 -0.85 0.40 -2.30 0.90 -3.25 1.15 -19.40 4.90 -31.40 7.45 -35.35 7.50 -1.95 0 -4.40 1.15 -5.05 2.40 -0.65 1.20 -4.65 2.10 -9.15 2.10 -2.95 0 -3.60 -0.15 -4.35 -1.05 l-0.85 -1.05 -3.45 1.05 c-8.30 2.45 -20.25 3.70 -23.90 2.50 -2.90 -0.90 -5.35 -2.35 -6.95 -4.05 -1.15 -1.20 -1.70 -1.40 -4.15 -1.40 -2.55 0 -3 0.15 -4.15 1.50 -1 1.15 -1.75 1.50 -3.20 1.50 -1.40 0 -2.10 0.30 -2.85 1.35 -2.60 3.25 -1.70 4.90 3.15 6.15 1.40 0.35 2.80 0.80 3.05 1 0.80 0.60 12.60 1.50 19.50 1.50 l6.25 0 0 1.75 c0 3.75 -4.90 22.20 -6.85 25.85 -1.20 2.20 -1.20 2.40 -0.45 3.45 1.05 1.55 1 3.90 -0.20 6.90 -0.95 2.50 -2.50 8.50 -2.50 9.85 0 0.75 1.75 2.70 2.40 2.70 0.25 0 0.80 -0.40 1.20 -0.85z m1.50 -146.35 c0.60 -0.45 1.50 -0.80 2 -0.80 0.50 0 0.90 -0.15 0.90 -0.40 0 -0.35 2.70 -1.70 6 -2.90 1.55 -0.60 1.60 -0.65 0.50 -0.70 l-1.25 -0.05 1.40 -0.75 c1.25 -0.70 2.35 -0.70 8.70 -0.15 8.05 0.65 28.85 0.35 35.10 -0.50 4.20 -0.60 5.70 -1.40 7.10 -3.80 0.95 -1.55 1.25 -1.70 5.10 -2.25 2.25 -0.30 6.35 -1.05 9.10 -1.60 2.75 -0.55 6 -1.20 7.25 -1.40 3.55 -0.65 9.50 -2.30 12.50 -3.50 1.50 -0.60 5.90 -1.95 9.75 -3 3.85 -1.05 8 -2.25 9.25 -2.70 3.50 -1.20 7.80 -1.95 8.50 -1.55 0.40 0.25 0.55 0.20 0.35 -0.05 -0.15 -0.25 0.55 -0.50 1.55 -0.50 1.85 0 4.35 -0.90 8.60 -3.15 1.25 -0.60 2.75 -1.40 3.35 -1.75 0.65 -0.30 1.15 -0.75 1.15 -0.95 0 -0.25 -0.25 -0.25 -0.55 -0.05 -0.35 0.20 -0.45 0.10 -0.25 -0.35 0.15 -0.40 0.45 -1.05 0.60 -1.45 0.15 -0.40 2.05 -1.60 4.20 -2.65 5.80 -2.85 8.85 -6 11.70 -12.15 1.30 -2.70 2.65 -5.60 3.05 -6.35 0.40 -0.80 0.75 -1.75 0.75 -2.10 0 -0.35 0.70 -0.90 1.55 -1.20 2.10 -0.75 2.10 -0.75 1.10 0.85 -0.45 0.75 0.30 0.15 1.75 -1.35 1.85 -1.90 2.60 -3.05 2.60 -4.05 0 -0.80 0.10 -1.70 0.15 -2.10 0.10 -0.35 0.10 -0.50 0 -0.25 -0.15 0.20 -0.45 0.35 -0.70 0.35 -0.85 0 -0.45 -3.05 0.75 -5.40 4.10 -8.15 6.45 -16.10 5.35 -18.40 -0.80 -1.75 -0.70 -5.75 0.25 -10.45 0.45 -2.20 0.90 -4.55 1.05 -5.25 0.10 -0.70 0.65 -3.25 1.15 -5.75 3 -14.05 4.25 -25.30 3.50 -31.45 -1.10 -9.15 -3.05 -21.10 -4.10 -25.05 -1.40 -5.30 -1.70 -8.65 -0.80 -9 0.80 -0.30 0.80 -9.60 0 -14.50 -0.30 -1.65 -0.40 -3.65 -0.25 -4.40 0.15 -0.75 -0.10 -2.10 -0.55 -3.05 -0.45 -0.95 -0.80 -1.80 -0.80 -1.95 0 -0.10 -0.40 -1.10 -0.85 -2.15 -0.45 -1.10 -0.85 -2.05 -0.90 -2.20 -0.05 -0.15 -0.35 -0.90 -0.70 -1.75 -0.30 -0.80 -1.05 -2.65 -1.60 -4.05 -0.85 -2.15 -1.75 -3.15 -5.15 -5.85 -5.15 -4.10 -7.95 -5.80 -7.50 -4.60 0.25 0.65 0.10 0.80 -0.80 0.65 -0.80 -0.10 -1.65 -1.10 -2.95 -3.50 -2.95 -5.55 -4.85 -7.90 -6.30 -7.90 -0.70 0 -1.25 0.25 -1.25 0.50 0 1.10 -2.20 0.40 -5.15 -1.60 -1.70 -1.15 -3.50 -2.05 -4.05 -2 -0.50 0 -1.40 -0.30 -2 -0.70 -0.55 -0.35 -1.60 -0.70 -2.30 -0.70 -1.80 0 -8.85 -5.50 -14.25 -11 -4.05 -4.20 -8.80 -7.70 -17.85 -13.25 -0.45 -0.25 -4.05 -2.70 -8 -5.35 -10.50 -7.10 -19.45 -11.20 -26.45 -12.15 -1.85 -0.25 -2.95 -0.80 -5.15 -2.75 -3.95 -3.50 -6.50 -4.85 -11.35 -6.10 -3.80 -1 -5.45 -1.10 -17.95 -1.10 -7.55 0 -20.60 0.30 -29 0.65 -8.40 0.40 -17.65 0.75 -20.65 0.80 -5.65 0.15 -6.40 0.40 -7.50 2.65 -0.35 0.80 -1.20 1.45 -2.10 1.70 -12.50 3.15 -14.80 3.40 -16.60 2.15 -1.05 -0.75 -1.45 -0.60 -6.75 2.05 -3.10 1.55 -6.80 3.55 -8.15 4.50 -3.40 2.20 -26.60 25.75 -34.80 35.25 -3.85 4.45 -8.95 11.50 -8.95 12.35 0 0.25 0.45 0.85 1 1.35 1.60 1.45 1.30 3.85 -1.05 7.85 -3 5.10 -7.40 14.40 -7.75 16.35 -0.30 1.40 -0.15 1.90 0.80 2.65 0.60 0.50 1.75 0.90 2.55 0.90 1.15 0 1.50 0.30 1.75 1.35 0.45 1.65 -0.50 5.35 -1.85 7.20 -0.75 1.10 -1.15 3 -1.70 8.05 -0.40 3.65 -0.95 8.35 -1.25 10.40 -1.40 9.60 -2 18.05 -2 28.55 0 10.20 0.10 11.75 1.20 16 0.60 2.60 1.70 6.05 2.40 7.70 0.70 1.65 1.45 4.25 1.65 5.75 2.45 19.90 3.60 23.15 16.70 46.20 3.05 5.45 6.20 11.40 6.90 13.20 0.75 1.80 2.40 4.75 3.75 6.50 1.35 1.75 3.50 5.05 4.75 7.30 7.55 13.30 13.65 19.30 25.20 24.75 8 3.75 13.80 5.35 21.45 5.90 4.40 0.30 6.30 0.95 5.90 2 -0.20 0.50 6.30 4 8.70 4.65 3 0.85 12.95 1.95 15.75 1.75 1.45 -0.10 3.15 -0.55 3.75 -0.95z"/>
  <path d="M437.85 815.65 c-0.65 -0.60 -0.35 -2.80 0.70 -5.95 l1.05 -3.10 -1.15 -1.55 -1.15 -1.60 0.85 -4.85 c1 -5.85 1.35 -6.20 5.85 -6 l3.25 0.15 -0.05 3.25 c-0.10 3.90 -3.35 17.80 -4.55 19.10 -0.80 0.90 -4.10 1.30 -4.80 0.55z"/>
  <path d="M553.20 788.70 c-3.90 -4.65 -4.55 -5.20 -6.30 -5.20 -1.50 0 -2.05 -0.40 -4.45 -3.35 -1.50 -1.90 -3.55 -4.35 -4.60 -5.50 -1.60 -1.75 -1.90 -2.35 -1.75 -3.95 0.15 -1.80 0.25 -1.90 3.65 -3.30 1.95 -0.75 4.45 -1.40 5.60 -1.40 2.10 0 2.10 0.05 3.95 3.40 1 1.85 3.75 6.70 6.05 10.75 3.25 5.75 4.15 7.80 4.05 9 -0.15 1.50 -0.30 1.60 -2.20 1.75 -1.95 0.15 -2.20 0 -4 -2.20z"/>
  <path d="M371.75 678.15 c-0.80 -0.40 -2.55 -1.45 -3.85 -2.25 -2.25 -1.40 -2.40 -1.60 -2.40 -3.70 l0 -2.20 1.90 0 c1 0 2.65 0.50 3.60 1.10 0.95 0.55 2.80 1.60 4.15 2.25 2 1 2.35 1.45 2.35 2.65 0 2.45 -0.45 3 -2.45 3 -1 -0.05 -2.45 -0.40 -3.30 -0.85z"/>
  <path d="M346.60 641.40 c-0.35 -0.35 -0.60 -0.75 -0.60 -1 0 -0.20 -0.60 -1.20 -1.30 -2.25 -1.20 -1.80 -1.25 -2.15 -0.95 -5.75 0.30 -3.35 0.25 -3.90 -0.65 -4.80 -0.50 -0.50 -1.90 -1.10 -3.05 -1.30 -2 -0.30 -2.20 -0.50 -3.35 -3.15 -1.05 -2.30 -1.25 -3.50 -1.15 -6.15 0.20 -3.30 0.15 -3.35 -2.15 -5.95 -5.05 -5.80 -7.75 -14.10 -10.25 -31.80 -1.30 -9 -1.25 -36.85 0 -44.45 0.55 -3.05 1.35 -6.60 1.90 -7.90 0.50 -1.35 0.95 -3.15 0.95 -4.05 0 -0.90 0.40 -2.65 0.85 -3.95 0.85 -2.35 0.80 -2.40 -0.30 -3.60 -1.10 -1.15 -1.10 -1.25 -0.55 -8.10 1.20 -16.35 5.60 -36.90 8.85 -41.95 1.85 -2.85 8.40 -11.10 10.85 -13.65 1.10 -1.20 2.90 -2.60 3.90 -3.15 2.10 -1.05 3.40 -2.70 3.40 -4.25 0 -1.35 5.15 -6.30 7.50 -7.15 1.85 -0.65 3.75 -1.55 6.20 -2.90 0.85 -0.45 2.45 -0.90 3.65 -1.05 2.50 -0.25 5.15 -2.30 4.20 -3.25 -0.30 -0.30 -0.55 -1.50 -0.55 -2.65 l0 -2.10 3.90 -1.25 c2.10 -0.70 4.85 -1.50 6.10 -1.80 12.20 -2.75 23.30 -5.40 29.75 -7.10 3.10 -0.85 20.80 -0.20 28.50 1 3.60 0.60 7.65 1.25 9 1.55 1.40 0.25 5.55 0.95 9.25 1.55 3.70 0.55 6.90 1.30 7.10 1.60 0.20 0.35 0.40 1.20 0.40 1.95 0 1.70 1.65 2.90 3.95 2.90 1.55 0 2.25 0.50 5.65 4.15 3.15 3.30 3.90 4.40 3.90 5.65 l0 1.60 -2.05 -0.75 c-1.15 -0.35 -2.75 -1.05 -3.65 -1.50 -1.35 -0.70 -3.05 -0.75 -13.05 -0.50 -6.30 0.15 -12.60 0.55 -14 0.85 -1.35 0.30 -8.55 1.55 -16 2.75 -8.95 1.45 -17.80 3.30 -26.25 5.45 -7 1.80 -21.75 5.55 -32.75 8.35 -22.60 5.70 -20.45 4.65 -24.15 11.60 -6.90 12.85 -6.75 12.45 -11.35 31.10 -5.80 23.55 -5.55 22.60 -7 30.25 -0.70 3.70 -1.50 7.90 -1.75 9.30 -0.70 3.30 -1.40 11 -1.20 13.20 0.65 8 0.70 8.30 3.90 19.10 1.65 5.40 2.30 8.35 4.70 20.90 0.55 2.60 2.10 8.70 3.45 13.50 2.35 8.10 3.70 13.50 5.10 20.50 0.30 1.50 1 5.10 1.60 8 0.55 2.90 1.35 6.40 1.70 7.75 1.40 5.35 1.40 5.25 -0.15 5.25 -0.75 0 -1.65 -0.25 -2 -0.60z"/>
  <path d="M317.35 499.65 c-0.65 -0.65 -0.35 -3.60 0.65 -5.90 0.95 -2.20 1.05 -2.30 2.85 -2.15 l1.90 0.15 0.15 2.80 c0.20 3.50 -1.10 5.45 -3.60 5.45 -0.90 0 -1.80 -0.15 -1.95 -0.35z"/>
  <path d="M514.50 443.90 c-5.30 -0.55 -12.85 -1.90 -19.40 -3.40 -3.40 -0.80 -6.70 -1.30 -7.40 -1.20 -0.95 0.15 -1.20 0 -1.20 -0.80 0 -0.60 0.25 -1.50 0.55 -2.05 0.65 -1.25 0.05 -2.20 -4.05 -6.60 -2.50 -2.70 -3 -3.50 -3 -5.05 l0 -1.80 3.15 0 c2.25 0 3.55 0.30 4.80 1.05 1.95 1.20 7.75 4.15 13.05 6.60 4.55 2.15 10.20 5.55 12.80 7.70 1.10 0.90 2.50 2.05 3.10 2.50 0.80 0.65 1.15 1.35 1 2.15 -0.15 1.25 -0.20 1.25 -3.40 0.90z"/>
  <path d="M635.50 1056 c0 -0.55 0.35 -1 0.75 -1 0.40 0 0.75 -0.35 0.75 -0.75 0 -0.40 -0.45 -0.75 -1 -0.75 -0.70 0 -1 -0.35 -1 -1.05 0 -1 0.15 -1.05 2.80 -0.75 1.55 0.20 3.05 0.45 3.25 0.60 0.25 0.15 0.45 1.25 0.45 2.50 l0 2.20 -3 0 c-2.65 0 -3 -0.10 -3 -1z"/>
  <path d="M709.90 1000.90 c-0.15 -8.60 -0.50 -16.65 -0.80 -17.90 -0.30 -1.25 -0.75 -3.50 -1.05 -5 -0.25 -1.50 -0.70 -3.95 -1 -5.40 -0.30 -1.50 -0.70 -4.95 -0.90 -7.70 -0.25 -4 -0.15 -5.10 0.40 -5.45 0.85 -0.55 3.50 -0.60 3.35 -0.05 -0.05 0.20 0.25 1.15 0.70 2.10 4.65 9.90 6.35 17.10 6.65 27.50 0.20 8.30 -0.65 14.10 -3.15 21.65 -1.50 4.60 -2.05 5.65 -2.90 5.75 -1.05 0.15 -1.05 0.05 -1.30 -15.50z"/>
  <path d="M456.65 988.65 c-0.80 -0.30 -0.85 -3.75 -0.05 -4.55 0.35 -0.35 1.40 -0.60 2.35 -0.60 l1.70 0 -1.15 1.25 c-0.65 0.70 -0.90 1.30 -0.60 1.30 0.35 0.05 0.85 0.15 1.10 0.20 0.30 0.05 0.75 0.15 1 0.20 0.80 0.10 0.55 1.90 -0.30 2.25 -0.90 0.35 -3.15 0.35 -4.05 -0.05z"/>
  <path d="M704.35 908.15 c-0.45 -0.40 -0.45 -27.80 -0.05 -32.80 0.30 -3.55 0.45 -3.85 1.45 -3.85 1 0 1.25 0.50 2.30 4.65 1.05 3.95 1.20 5.80 1.20 13.10 0 8.35 -0.30 10.50 -2.15 16.65 -0.75 2.45 -1.75 3.30 -2.75 2.25z"/>
  <path d="M235 793.45 c0 -0.30 -0.35 -0.85 -0.75 -1.25 -0.40 -0.45 -0.75 -1.45 -0.75 -2.25 0 -0.85 -0.25 -1.45 -0.65 -1.45 -1 0 -3.85 -6.25 -3.85 -8.50 0 -1.90 0.05 -2 1.65 -2 0.85 0 1.85 0.20 2.20 0.40 0.85 0.55 4.15 7.10 4.15 8.30 0 1.95 0.60 3.20 1.55 3.45 0.70 0.20 0.95 0.70 0.95 2.05 0 1.80 0 1.80 -2.25 1.80 -1.25 0 -2.25 -0.25 -2.25 -0.55z"/>
  <path d="M749.10 762.85 c-0.30 -0.30 -0.70 -1.30 -0.90 -2.10 -0.20 -0.85 -0.50 -1.70 -0.70 -2 -0.20 -0.25 -1.95 -4.10 -3.90 -8.50 -3.30 -7.45 -4.65 -11.70 -6.10 -18.85 -0.70 -3.55 -2 -5.30 -4.15 -5.50 l-1.60 -0.15 0.15 -9 c0.25 -14.90 0.40 -15.35 4.20 -11.85 15.80 14.30 21.35 33.65 15.80 54.75 -1 3.75 -1.70 4.55 -2.80 3.20z"/>
  <path d="M709 507.40 c-0.35 -1.45 -0.90 -3 -1.25 -3.40 -0.35 -0.40 -2 -4.10 -3.70 -8.20 -3.35 -8.20 -3.80 -10.95 -2.05 -12.55 0.55 -0.50 1 -1.20 1 -1.60 0 -1.50 -4.80 -15.25 -7.60 -21.90 -3.30 -7.70 -8.55 -18.25 -12.90 -26 -1.55 -2.75 -3.20 -5.95 -3.65 -7.10 -1.10 -2.80 -4.85 -16.45 -4.85 -17.70 0 -0.80 -0.40 -0.95 -2.85 -0.95 -1.60 0 -3.15 -0.20 -3.40 -0.40 -0.70 -0.50 -4.25 -6.40 -4.25 -7.05 0 -0.30 -0.20 -0.55 -0.50 -0.55 -0.25 0 -0.50 -0.80 -0.50 -1.75 0 -1.90 0.50 -2.20 1.55 -0.95 0.40 0.50 1.10 0.70 1.95 0.50 0.75 -0.15 1.85 -0.10 2.50 0.05 0.95 0.25 1.05 0.55 0.85 1.90 -0.25 1.55 0.05 1.95 4.45 6.30 2.60 2.60 5.90 6.15 7.40 7.95 2.65 3.20 7.30 9.75 7.30 10.30 0 0.15 0.70 1.30 1.55 2.50 2.20 3.20 6.05 11.50 8.35 17.95 1.85 5.10 5.45 13.70 6.70 15.95 1.95 3.60 4.35 13.95 5.15 22.55 0.15 1.65 0.65 6.50 1.10 10.75 0.85 8.05 0.85 8.45 0.75 13.15 -0.10 2.65 -0.20 2.85 -1.30 2.85 -1.05 0 -1.30 -0.35 -1.80 -2.60z"/>
  <path d="M68.50 477.25 c0 -0.40 -0.20 -0.75 -0.40 -0.75 -0.80 0 -2.10 -2.95 -2.10 -4.70 0 -1.75 0.05 -1.80 1.90 -1.80 1.95 0 3.60 1.25 3.60 2.75 0 0.40 0.30 0.75 0.70 0.75 0.85 0 1.30 1.05 1.30 3 0 1.30 -0.10 1.35 -2.50 1.45 -1.90 0 -2.50 -0.15 -2.50 -0.70z"/>
  <path d="M234.15 361.15 c-0.35 -0.10 -0.65 -1 -0.65 -1.90 0 -1.95 1.45 -3.25 3.60 -3.25 1.25 0 1.35 0.10 0.80 0.95 -0.35 0.55 -0.80 0.85 -1 0.75 -0.20 -0.15 -0.40 -0.05 -0.40 0.25 0 0.80 1.05 1.20 1.65 0.60 0.90 -0.90 1.85 -0.60 1.85 0.60 0 1.80 -3.50 3 -5.85 2z"/>
  <path d="M50 351.25 c0 -1.45 0.20 -1.75 1.05 -1.75 0.55 0 0.90 0.20 0.75 0.45 -0.40 0.60 1.35 0.40 1.80 -0.20 0.20 -0.25 0.40 0.35 0.40 1.40 0 1.85 0 1.85 -2 1.85 -1.95 0 -2 -0.05 -2 -1.75z"/>
  <path d="M246.55 227.65 c-2.30 -0.45 -3.55 -1.65 -3.55 -3.40 l0 -1.60 5.25 -0.05 5.25 0 0 2.05 c0 1.80 -0.20 2.20 -1.35 2.75 -1.35 0.60 -3.25 0.70 -5.60 0.25z"/>
  <path d="M263.60 190.20 c-0.85 -0.60 -1.10 -1.25 -1.10 -3 l0 -2.20 2 0 c1.15 0 2.70 0.35 3.50 0.75 1.30 0.70 1.50 1.05 1.50 3 l0 2.25 -2.40 0 c-1.35 0 -2.85 -0.35 -3.50 -0.80z"/>
  <path d="M480.50 167.25 c0 -0.40 -0.20 -0.75 -0.50 -0.75 -0.25 0 -0.50 -0.80 -0.50 -1.75 0 -1.65 0.10 -1.75 1.75 -1.75 0.95 0 1.75 0.25 1.75 0.50 0 0.30 0.55 0.50 1.25 0.50 1.15 0 1.25 0.20 1.25 2 l0 2 -2.50 0 c-1.90 0 -2.50 -0.20 -2.50 -0.75z"/>
  <path d="M491.40 164.45 c-0.60 -0.35 -0.90 -1.10 -0.90 -2.45 0 -1.95 0.05 -2 1.70 -2 0.95 0 1.90 -0.20 2.05 -0.50 0.15 -0.25 1.10 -0.50 2.05 -0.50 1.55 0 1.70 0.10 1.70 1.50 0 0.85 -0.50 2.20 -1.10 3 -0.85 1.20 -1.45 1.50 -2.85 1.50 -1 0 -2.20 -0.25 -2.65 -0.55z"/>
  <path d="M497.50 149.75 c0 -1.05 0.25 -1.75 0.65 -1.75 0.30 0 1.05 -0.70 1.60 -1.50 0.75 -1.15 1.40 -1.50 2.65 -1.50 1.45 0 1.60 0.15 1.60 1.45 0 2.35 -0.85 4.05 -2 4.05 -0.55 0 -1 0.25 -1 0.50 0 0.30 -0.80 0.50 -1.75 0.50 -1.65 0 -1.75 -0.10 -1.75 -1.75z"/>
  <path d="M480.30 134.90 c-0.15 -0.65 -0.30 -1.75 -0.30 -2.50 0 -1.30 0.15 -1.40 2 -1.40 1.10 0 2 0.25 2 0.50 0 0.30 0.35 0.50 0.75 0.50 0.50 0 0.75 0.50 0.75 1.70 0 1.30 -0.25 1.75 -1.10 2 -2.40 0.60 -3.75 0.35 -4.10 -0.80z"/>
  <path d="M388.15 97.65 c-0.80 -0.30 -0.85 -3.20 -0.05 -4.90 0.45 -0.95 0.95 -1.25 2.25 -1.25 0.90 0 1.65 0.25 1.65 0.50 0 0.30 0.55 0.50 1.25 0.50 1.10 0 1.25 0.20 1.25 1.95 0 1.70 -0.20 2.10 -1.60 2.75 -1.50 0.80 -3.55 0.95 -4.75 0.45z"/>
  <path d="M387 88.70 c-0.70 -0.35 -1.65 -0.70 -2.10 -0.70 -0.70 0 -0.90 -0.40 -0.90 -1.70 0 -1.50 0.20 -1.70 1.55 -2 2.60 -0.50 3.35 -0.35 4.65 0.90 0.85 0.75 1.30 1.70 1.30 2.75 0 1.45 -0.15 1.55 -1.60 1.50 -0.90 -0.05 -2.20 -0.35 -2.90 -0.75z"/>
  <path d="M387 60.75 c0 -1.05 0.25 -1.75 0.65 -1.75 0.35 0 1.20 -0.55 1.95 -1.25 0.85 -0.75 1.95 -1.25 2.90 -1.25 1.40 0 1.50 0.15 1.50 1.75 0 0.95 -0.20 1.75 -0.50 1.75 -0.25 0 -0.50 0.35 -0.50 0.75 0 1.05 -1.60 1.75 -3.95 1.75 -2 0 -2.05 -0.05 -2.05 -1.75z"/>
 </g>
 <g fill="#000000">
  <path d="M353.50 1092.55 c-1.80 -0.20 -3.75 -0.55 -4.35 -0.75 -0.60 -0.20 -1.55 -0.45 -2.20 -0.55 -1.65 -0.35 -5.35 -1.70 -8.85 -3.30 -1.75 -0.80 -3.95 -1.45 -4.95 -1.45 -2.35 0 -9.70 -3.90 -13.90 -7.35 -3.75 -3.10 -6.55 -6.85 -10.75 -14.60 -1.70 -3.10 -3.85 -6.70 -4.75 -8 -2.30 -3.20 -3.45 -5.70 -4.75 -10.05 -2.55 -8.85 -4.10 -17.50 -5.80 -32.75 -0.80 -7.50 -0.70 -23.25 0.20 -31.75 0.20 -1.80 0.35 -7.95 0.35 -13.75 0 -9.55 -0.20 -13.10 -0.95 -17.50 -0.15 -0.80 -0.40 -2.15 -0.50 -3 -0.65 -4.05 -1.40 -8.30 -2 -11 -1.20 -5.10 -1.75 -8.30 -2.30 -13 -0.50 -4.05 -1.25 -8.70 -2.50 -16.10 -0.55 -3.15 -2.35 -9.75 -3.25 -11.85 -5.35 -12.35 -8.65 -20.20 -8.90 -20.90 -0.50 -1.40 -1.30 -1.05 -1.55 0.75 -0.15 0.85 -1.25 9.35 -2.55 18.85 -2 15.10 -2.40 17.35 -3.35 18.35 -0.60 0.65 -1.55 1.15 -2.20 1.15 -1.60 0 -2.05 0.85 -2.45 4.50 -0.60 5.50 -2.75 21.20 -3.05 22.25 -0.60 1.85 -1.80 2.75 -3.75 2.75 -1.05 0 -2.05 0.25 -2.20 0.50 -0.40 0.65 -3.40 0.65 -4.90 -0.05 -1.25 -0.55 -2.35 -3.20 -2.35 -5.60 0 -1.60 -3.15 -15.50 -4.45 -19.60 -0.50 -1.65 -1.75 -5.65 -2.80 -8.90 -1 -3.25 -2.25 -6.25 -2.75 -6.75 -2.60 -2.40 -4.85 -10.85 -5.35 -20.25 -0.60 -10.35 -0.40 -37.30 0.30 -43.15 0.70 -6.15 0.60 -7.15 -3.20 -26.10 -1.50 -7.65 -3.15 -11.55 -15.15 -36.10 -2.50 -5.10 -5.90 -12.60 -7.60 -16.75 -1.70 -4.10 -3.40 -8.15 -3.75 -9 -0.35 -0.80 -2.30 -5.55 -4.35 -10.50 -2 -4.95 -5.05 -11.70 -6.75 -15 -11.90 -22.75 -18.35 -36.90 -21.80 -47.50 -2.45 -7.55 -11.45 -39.25 -13.85 -48.75 -4.25 -17.15 -6.50 -31.50 -8.15 -52.50 -0.10 -1.25 -1.25 -4.85 -2.50 -8.05 -2.35 -5.75 -2.65 -7.10 -2.05 -8.70 0.40 -0.95 2.75 -2.25 4.15 -2.25 0.65 0 1.10 -0.40 1.25 -1.10 0.70 -3.40 0.70 -4.95 0.05 -7.65 -0.40 -1.65 -0.70 -3.65 -0.75 -4.40 0 -2.10 -2.35 -4.05 -5.85 -4.85 -4.55 -1.10 -14.70 -6.40 -16.60 -8.70 -0.35 -0.45 -0.95 -0.80 -1.30 -0.80 -0.30 0 -1.10 -0.40 -1.65 -0.85 -0.60 -0.50 -3.05 -2.35 -5.40 -4.15 -2.40 -1.80 -5.40 -4.15 -6.75 -5.30 -1.35 -1.10 -3.05 -2.35 -3.80 -2.75 -0.80 -0.35 -2.35 -1.50 -3.55 -2.50 -1.15 -1 -4 -3.10 -6.35 -4.70 -2.30 -1.60 -4.60 -3.30 -5.05 -3.80 -0.65 -0.70 -1.25 -0.85 -2.90 -0.65 -1.90 0.30 -2.30 0.10 -4.80 -1.95 -3.60 -3 -6.60 -6.75 -13.65 -17.10 -9.85 -14.60 -14.35 -22.30 -18.85 -32.55 -1.70 -3.80 -3.50 -7.85 -4 -8.95 -13.70 -30.20 -15 -34.65 -16.30 -56.50 -0.55 -8.75 1.55 -13.55 5.80 -13.45 1.70 0.05 2.05 -0.10 2.20 -1 0.10 -0.55 0.55 -3.50 1.05 -6.55 1.20 -7.85 3.45 -16.25 5.20 -19.75 0.90 -1.75 1.55 -3.80 1.55 -4.90 0.05 -2.15 1.70 -6.50 4.10 -10.40 2.80 -4.70 9.30 -12 19.70 -22.20 13.40 -13.15 16.75 -16 18.85 -16 0.90 0 1.90 0.25 2.25 0.60 0.40 0.40 1.10 0.10 2.70 -1.40 3.30 -3 7.80 -6.10 17.50 -11.85 4.85 -2.90 10.90 -6.65 13.40 -8.35 7.40 -4.95 9.35 -5.45 12.10 -3.05 0.90 0.75 2.50 1.55 3.55 1.75 2.20 0.40 3.50 2.10 3.45 4.45 -0.05 1.05 0.35 2.05 1.20 2.85 2.65 2.80 1 6.90 -4.80 11.80 -3.40 2.85 -4 3.60 -4 4.90 -0.05 2.20 -0.85 3.40 -3.90 5.80 -3 2.40 -3.35 3 -6.40 10.85 -2.05 5.25 -2.20 6.05 -1.90 8.65 0.30 2.70 0.20 2.95 -1.25 4.60 -1.95 2.25 -2.55 5.50 -1.40 7.75 1.05 2 0.45 4.10 -1.50 5.40 -1.25 0.80 -1.60 1.45 -1.85 3.25 -0.20 1.25 -0.35 11.50 -0.45 22.75 -0.10 19.70 -0.05 20.75 1.05 26.50 0.90 4.60 1.10 6.85 0.85 9.50 l-0.30 3.50 3.05 5.95 c4 7.75 8.85 16.30 9.95 17.55 0.50 0.55 2.25 3.05 3.95 5.50 3.05 4.55 8.70 11.45 13 15.90 2.20 2.30 8 6.65 8.35 6.25 0.05 -0.05 0.50 -1.50 1 -3.15 0.45 -1.65 1.65 -5 2.60 -7.50 1.35 -3.45 2.05 -6.50 2.95 -13 1.90 -12.90 4.55 -22 9.70 -33.20 2.15 -4.50 3.20 -5.55 5.70 -5.55 1.55 0 3.45 2.15 3.40 3.85 -0.05 0.80 -1.15 3.90 -2.50 6.90 -3.25 7.30 -7.05 19 -6.35 19.65 0.15 0.15 1.10 -0.10 2.05 -0.65 1.25 -0.65 2.50 -2.20 4.30 -5.20 3.70 -6.15 7.95 -12.45 12.35 -18.25 2.10 -2.80 4.85 -6.65 6.15 -8.60 1.45 -2.25 2.80 -3.75 3.75 -4.15 0.80 -0.30 1.85 -1.25 2.35 -2.10 3.40 -5.70 15.45 -20.65 22.50 -27.85 9.40 -9.60 15.80 -14.35 34.05 -25.10 3.25 -1.95 3.60 -3 1.05 -3 -1.85 0 -3.95 -0.60 -7.30 -2.10 -1.25 -0.55 -3.70 -1.55 -5.40 -2.25 -1.75 -0.65 -4 -1.75 -5 -2.40 -1.25 -0.85 -2.50 -1.25 -3.90 -1.25 -2.15 0 -6.30 -1.50 -6.90 -2.45 -0.20 -0.30 -1.25 -0.55 -2.40 -0.55 -1.70 0 -2.30 -0.30 -3.85 -2 -1 -1.10 -2.10 -2 -2.40 -2 -1 0 -2.65 -2.55 -2.65 -4.10 0 -0.85 1 -3.35 2.25 -5.60 2.30 -4.25 2.70 -5.55 1.70 -5.90 -0.75 -0.25 13.25 -26.10 14.75 -27.30 0.65 -0.45 1.40 -1.35 1.75 -2 0.30 -0.60 0.90 -1.10 1.25 -1.10 0.45 0 0.90 -1.15 1.30 -3.35 0.65 -4 1.15 -5.75 4.20 -14.40 2.35 -6.70 3.05 -11.55 1.70 -11.95 -3.35 -1.05 -8.70 -3.30 -11.10 -4.70 -5.60 -3.30 -8.45 -7.55 -11.75 -17.60 -2 -6.10 -2.90 -11.40 -3 -17.70 -0.10 -4.85 0 -5.20 1.70 -8.65 0.95 -1.95 1.75 -4.15 1.75 -4.90 0 -2.75 2.90 -6.25 6.90 -8.20 1.15 -0.60 4.40 -1.45 7.15 -1.90 4.35 -0.70 5.90 -0.75 10.95 -0.25 11.10 1.10 16.65 2.80 21.60 6.55 4.95 3.70 10.60 12.15 11.85 17.60 1.20 5.25 0.20 16.70 -1.90 21.60 -0.55 1.30 -1.90 3.70 -3 5.45 -1.15 1.70 -2.05 3.25 -2.05 3.45 0 0.20 0.60 1.90 1.30 3.75 0.70 1.90 1.75 4.65 2.30 6.10 l0.95 2.60 2.45 0 c2.05 0 2.60 0.20 3.60 1.45 0.65 0.75 1.70 2.80 2.35 4.50 1.25 3.50 4.90 10 5.75 10.35 0.35 0.15 1.45 -0.15 2.50 -0.55 2.40 -1 4.65 -0.60 5.40 1.05 0.30 0.65 0.95 1.20 1.50 1.20 0.65 0 0.90 0.40 0.90 1.50 0 1.75 -0.15 1.70 2.30 0.70 1.75 -0.75 1.95 -0.75 2.50 0.05 0.55 0.75 0.75 0.75 2.30 -0.05 3 -1.55 8.90 -6.30 11.55 -9.25 6.10 -6.90 10.15 -16.75 12.35 -30.20 0.55 -3.30 1.50 -7.50 2.05 -9.40 0.85 -2.85 1.25 -3.55 2.85 -4.55 1.60 -1 2.20 -2 4.70 -7.85 1.90 -4.50 3.10 -8.20 3.60 -11.10 1.10 -6.20 2.10 -9.90 4.15 -15.10 1.60 -4 1.80 -5.15 2 -10.25 0.10 -3.15 0.50 -6.55 0.90 -7.50 0.35 -0.95 0.65 -3.10 0.70 -4.75 0.05 -5.80 1.50 -13.85 2.60 -14.55 0.25 -0.15 0.30 -5.65 0.15 -12.35 -0.25 -10.40 -0.20 -12.40 0.50 -14.35 0.40 -1.25 0.80 -2.75 0.80 -3.35 0 -0.60 0.60 -1.80 1.35 -2.70 l1.35 -1.60 -1.65 -1.30 c-3.35 -2.60 -6.85 -6.35 -8.10 -8.55 -3.80 -6.85 -5.45 -13.35 -5.45 -21.60 0 -8.45 1.60 -14 5.35 -18.40 1.75 -2.10 6.25 -5.05 9.45 -6.20 1.35 -0.50 3.85 -1.55 5.50 -2.35 3.75 -1.75 6.65 -2.20 9.95 -1.45 1.40 0.30 5.15 0.90 8.35 1.30 7.20 0.90 8.65 1.50 14.15 5.75 3.55 2.75 8.15 7.50 9.60 9.95 0.55 0.95 1.55 3.20 2.20 5 1.10 2.95 1.20 4.05 1.20 11.50 -0.05 8.90 -0.55 11.55 -3.15 16.75 -2.70 5.35 -6.05 8.65 -11.85 11.65 -4.60 2.35 -9.60 3.25 -17.15 3.05 l-6.45 -0.20 -0.30 13.80 c-0.40 15.05 -0.25 16.95 1.20 16.95 0.80 0 0.90 -0.35 0.70 -2.85 -0.15 -1.60 0 -3.60 0.30 -4.50 1.15 -3.50 6.30 -4.25 7.95 -1.15 0.30 0.60 0.65 5.80 0.75 12.65 0.10 6.35 0.30 12.25 0.45 13.10 0.15 0.80 0.35 3.60 0.50 6.25 0.45 6.75 0.65 7.70 3.10 12.65 1.90 3.70 2.40 4.35 3.45 4.35 0.70 0 1.90 0.60 2.75 1.40 1.45 1.25 1.55 1.65 1.75 5.35 0.15 3.25 0.55 4.85 2 8.25 1 2.35 2.50 6 3.35 8.10 1.80 4.50 5.70 9.20 8.75 10.55 4 1.75 5 2.10 8.15 2.85 1.25 0.30 2.60 0.65 3 0.85 1.10 0.45 2.80 0.90 5.45 1.45 0.70 0.15 1.40 0.35 1.60 0.50 0.95 0.55 9.10 1.70 12.50 1.70 4.10 0 8.40 -1.40 10 -3.30 1.75 -2.05 3.15 -5.65 3.70 -9.60 0.45 -2.85 1.05 -4.75 1.90 -6 0.70 -1 1.40 -2.40 1.60 -3.10 0.90 -3.10 2.85 -6 4.95 -7.45 1.25 -0.85 2.50 -1.55 2.80 -1.55 0.30 0 1.40 -0.95 2.50 -2.05 1.70 -1.80 2.20 -2.05 3.60 -1.85 0.90 0.15 2 0.40 2.45 0.60 0.65 0.30 1 -0.15 1.65 -2 1.25 -3.70 1.10 -5.05 -0.70 -5.45 -2.10 -0.45 -6.95 -3.75 -9.20 -6.25 -2 -2.25 -4.40 -7 -5 -10 -0.20 -0.95 -0.45 -6.15 -0.60 -11.50 -0.15 -7.90 -0.05 -10.25 0.60 -12.45 1.25 -4.40 2.95 -7.25 5.80 -9.80 7.35 -6.65 17.05 -7.55 31.10 -2.90 5.30 1.75 5.65 2 9.35 5.50 3.85 3.65 7.80 8.90 9.95 13.10 1.75 3.50 2.50 6.55 2.50 10.50 0 3.15 -0.25 4.15 -1.60 7 -3.05 6.10 -13 15.10 -18.40 16.55 -2.15 0.60 -6.50 2.90 -6.50 3.45 0 0.35 2.05 6.45 2.75 8.20 0.55 1.30 1.75 1.05 1.75 -0.40 0 -5.25 5.45 -8.75 8.50 -5.50 1.25 1.35 1.25 1.40 0.70 8.85 -0.35 5.20 0.70 9.10 3.80 13.75 3 4.45 3.20 4.65 5.15 4.65 1.25 0 2.20 0.40 3.35 1.50 1.50 1.40 1.60 1.65 1.30 3.95 -0.40 3.10 0.75 4.75 3.65 5.25 3.80 0.60 5.30 4.80 2.90 8.35 -0.95 1.40 -1.50 1.75 -3.35 1.95 -1.20 0.15 -2.25 0.50 -2.35 0.80 -0.30 0.90 3.75 8.45 5.75 10.75 l1.95 2.15 1.95 -0.65 c3 -0.95 4.75 -0.60 5.95 1.30 0.55 0.90 1.30 1.60 1.60 1.65 0.35 0 1.50 -0.75 2.50 -1.65 2.95 -2.60 5.75 -4.35 7.05 -4.35 1.65 0 4.10 2.60 4.10 4.35 -0.05 2.05 -0.90 3.25 -4.20 5.95 -4.35 3.55 -5.40 4.65 -5.05 5.20 0.50 0.85 -0.75 3.95 -1.90 4.75 -1.90 1.35 -5.95 0.75 -8.95 -1.35 -0.70 -0.50 -1.70 -0.90 -2.25 -0.90 -0.95 0 -6.95 4.75 -11.90 9.45 -1.65 1.60 -4.20 3.85 -5.65 5 -2.60 2.15 -9.75 6.10 -12 6.65 -0.60 0.20 -1.30 0.35 -1.50 0.40 -0.90 0.25 -2.10 1.10 -2.10 1.45 0 0.25 0.55 0.40 1.25 0.30 0.70 -0.05 1.25 0.10 1.25 0.30 0 0.25 0.95 0.45 2.15 0.45 3.10 0 14 1.95 23.10 4.10 1.10 0.25 2.75 0.60 3.65 0.75 0.85 0.15 1.60 0.45 1.60 0.65 0 0.20 0.95 0.55 2.15 0.75 1.15 0.25 2.20 0.45 2.35 0.50 0.15 0.05 0.95 0.25 1.75 0.45 4.40 1.15 10.05 2.95 10.45 3.35 0.85 0.80 1.85 0.50 3.65 -1.05 3.05 -2.70 4.90 -2.15 15.65 4.60 3.70 2.30 7.75 4.50 9 4.85 1.25 0.35 3.40 0.95 4.75 1.30 10.55 2.90 11.05 3.20 11.55 6.25 0.30 1.70 0.55 1.90 3.60 3.25 8.25 3.55 18.75 8.80 22.40 11.25 6.35 4.25 12 9.35 14.80 13.35 0.65 0.90 1.35 1.55 1.65 1.50 1 -0.35 16.40 -23.80 18.90 -28.85 l2.60 -5.25 0.20 -9.40 c0.15 -9.85 -0.20 -12.55 -2 -15.65 -0.55 -0.85 -0.95 -2.25 -0.95 -3.05 0 -1.50 1.30 -3.15 2.40 -3.15 0.35 0 1.05 -0.45 1.60 -1 1.55 -1.55 1.40 -8.45 -0.30 -14.95 -0.70 -2.75 -1.90 -9.25 -2.65 -14.40 -0.80 -5.15 -1.90 -10.95 -2.55 -12.90 -0.60 -1.90 -1.75 -5.75 -2.55 -8.50 -0.80 -2.75 -1.70 -5.50 -2 -6.05 -0.30 -0.60 -2.25 -2.75 -4.40 -4.80 -2.10 -2.05 -5.65 -5.50 -7.90 -7.70 -4.70 -4.55 -5.20 -6.05 -2.90 -8.20 1.60 -1.50 1.55 -2.05 -0.05 -3.55 -2.25 -2.05 -9 -10.60 -9.90 -12.55 -0.50 -1.05 -1.45 -2.05 -2.30 -2.40 -2.30 -0.95 -3.60 -2.65 -3.40 -4.50 0.15 -1.80 1.95 -3.50 3.80 -3.65 1.55 -0.10 1.40 -1 -1 -4.50 -3.45 -5.15 -9.55 -10.85 -14.15 -13.20 -2.20 -1.15 -4.50 -2.55 -5.10 -3.15 -1.45 -1.35 -1.55 -4.10 -0.15 -5.85 0.55 -0.70 1 -1.80 1 -2.45 0 -1.50 2.25 -3.20 4.20 -3.20 0.85 0 2.35 0.45 3.30 1 2.40 1.35 8.85 4.45 14.50 7 2.60 1.20 5.90 2.70 7.35 3.35 2.05 0.95 2.80 1.10 3.60 0.70 2.15 -1.15 3.55 -0.65 7.10 2.60 1.90 1.70 5.20 4.10 7.30 5.30 6 3.40 11.85 7.30 13.30 8.85 0.75 0.80 1.35 2 1.35 2.70 0 1.75 0.85 2.50 2.95 2.50 2 0 4 1.05 6.55 3.55 0.95 0.95 4.55 4.15 8 7.15 8.65 7.60 12.15 11 15.15 14.80 3.15 4 3.70 4.50 5.35 4.50 1.95 0 2.80 1.25 5.20 7.35 3.15 7.95 5.10 14.10 8.05 25.45 2.40 9.10 2.55 10.20 2 11.60 -1.15 2.70 -3.60 3.35 -5.85 1.45 -1.20 -0.95 -1.70 -2.35 -3.60 -9.60 -2.05 -7.80 -4.50 -16 -6.55 -21.85 -0.90 -2.60 -1.85 -3.65 -2.95 -3.25 -0.60 0.25 -0.35 1.70 1.40 8.45 3.80 14.20 4.25 15.70 7.50 25 7.45 21.20 7.80 22.85 5.05 25.55 -2.05 2.10 -5.95 -0.05 -6.50 -3.50 -0.35 -2.10 -2.90 -10.15 -5.30 -16.65 -3.25 -9 -5.25 -15.50 -7.95 -25.85 -0.40 -1.65 -0.95 -2.35 -2.50 -3.20 -1.60 -0.90 -2.15 -1.60 -2.55 -3.15 -1.45 -5.45 -2.90 -8.50 -8.40 -17.80 -4.60 -7.85 -13.05 -18.65 -15.65 -20.05 -0.95 -0.50 -3.55 -1.05 -11.65 -2.45 -3 -0.50 -5.90 -1.05 -6.35 -1.25 -0.45 -0.20 -1.05 -0.20 -1.30 -0.05 -0.70 0.40 3.60 12.70 5.60 16 1 1.65 1.80 3.25 1.80 3.60 0 0.30 0.50 1.20 1.10 1.95 0.75 0.95 1.25 2.45 1.45 4.45 0.40 3.85 2.65 9.60 4.50 11.55 0.80 0.85 1.45 1.80 1.45 2.15 0 0.35 0.90 1.60 2 2.80 2.90 3.15 3.75 5.55 5.50 15.55 0.85 4.95 1.85 10.60 2.25 12.50 0.60 2.80 0.70 7 0.50 20.50 -0.30 25.85 -0.65 29.50 -3.75 38.45 -0.80 2.20 -1.75 5.95 -2.20 8.30 -1.85 9.65 -3.40 13.05 -7.95 17.30 -2 1.85 -3.80 4.15 -4.75 6 -0.95 1.80 -3.80 5.40 -7.30 9.20 -3.80 4.10 -5.75 6.65 -5.80 7.40 0 1.95 17.95 35.75 21.80 40.90 0.65 0.85 1.05 1.70 0.90 1.80 -0.10 0.15 0.35 0.15 1.05 0 1.10 -0.20 1.25 -0.40 1 -1.55 -0.25 -1.15 0.10 -1.70 2.40 -3.85 1.45 -1.35 3.40 -3.05 4.30 -3.85 1.20 -1 1.55 -1.60 1.30 -2.25 -1 -2.30 -0.80 -3.40 1.30 -6.60 1.95 -3 7 -9.90 10.80 -14.70 8.20 -10.40 12.70 -18.90 16.65 -31.65 0.85 -2.80 2.10 -5.85 2.75 -6.75 4.35 -5.95 5.05 -7.60 5.75 -13.85 0.75 -6.40 0.65 -10.30 -0.25 -11.05 -0.95 -0.80 -0.95 -3.95 0 -5.30 0.40 -0.60 0.95 -2.45 1.20 -4.10 0.50 -3.25 1.85 -6.55 3.50 -8.60 1.75 -2.20 3.05 -11.85 3.05 -22.90 0 -10.25 0.10 -10.75 2.75 -11.40 2.10 -0.50 3.40 0 4.45 1.80 0.95 1.60 1.05 2.55 1 11.25 0 9.35 -0.20 10.95 -2.25 20.40 -0.85 4 -0.90 4.55 -0.20 5.90 1.80 3.45 -0.65 19.20 -4.50 28.65 -0.95 2.45 -2.30 6.75 -3 9.55 -1.95 8.20 -6.85 20.80 -9.15 23.40 -0.40 0.45 -1.30 0.85 -1.90 0.85 -0.80 0 -1.45 0.50 -1.95 1.50 -0.95 1.85 -0.95 2.50 0 2.50 1.30 0 2.75 1.75 3.05 3.55 0.25 1.50 -0.25 2.50 -4.60 8.95 -6.45 9.55 -9 12.70 -15.55 19 -8.80 8.45 -15.15 13.50 -17.05 13.50 -0.85 0 -1.15 0.20 -0.95 0.75 0.45 1.05 -0.40 1.40 -1.20 0.45 -0.50 -0.65 -0.50 -0.85 0.05 -1.20 0.55 -0.35 0.40 -0.55 -0.65 -0.95 -1.60 -0.60 -2.35 -0.70 -2.35 -0.25 0 0.45 3.70 6.40 4.20 6.75 0.25 0.20 1.35 0.30 2.45 0.25 1.80 -0.10 2.30 0.10 4.15 1.90 2.40 2.35 3.70 4.95 1.45 2.80 l-1.35 -1.25 0.40 1.50 c0.20 0.85 0.55 1.80 0.85 2.10 0.25 0.35 0.30 0.65 0.10 0.65 -0.20 0 -0.15 0.30 0.10 0.65 0.25 0.30 0.50 1.25 0.55 2 0.20 2.80 3.05 10.20 5.95 15.35 4.50 7.90 9.70 18.45 13.05 26.25 3.10 7.30 8.10 21.90 8.10 23.65 0 0.55 -0.55 1.70 -1.25 2.50 -0.70 0.85 -1.25 1.70 -1.25 2 0 0.85 6.10 15.35 6.80 16.15 0.40 0.40 0.70 1.15 0.70 1.60 0 0.45 0.20 0.90 0.50 1.10 0.25 0.15 0.35 0.60 0.20 0.95 -0.15 0.40 0 0.85 0.35 1.10 0.45 0.25 0.55 -0.25 0.30 -2.10 -0.20 -1.55 -0.15 -2.10 0.15 -1.45 0.65 1.50 0.60 3.45 -0.10 4.20 -0.50 0.55 -0.50 0.65 0 0.35 0.40 -0.25 0.60 0.05 0.60 0.85 0 1.50 1.20 2.10 2.05 1.05 0.95 -1.15 3.90 -0.70 5 0.80 0.80 1.10 0.90 2.50 1 10.50 0.15 9.90 0.45 12.55 2.85 23 0.85 3.70 1.70 7.90 1.85 9.25 0.40 3.15 1.05 6.50 2.25 11.25 0.95 3.80 1.85 8.50 4.25 22.25 0.75 4.15 2.45 13.25 3.80 20.25 1.35 7 2.70 14.55 2.95 16.75 0.80 6.35 0.60 30.25 -0.35 34.65 l-0.75 3.65 1.90 1.65 c1.80 1.60 1.90 1.80 1.80 4.35 -0.15 4.50 -3 22.30 -4.60 28.90 -1.45 5.85 -1.45 6.20 -0.65 6.80 0.50 0.40 0.75 0.85 0.55 1.05 -0.20 0.20 -0.70 0.10 -1.10 -0.25 -0.95 -0.80 -1.25 1.60 -1.40 11.45 l-0.10 7.75 1.60 0.15 c2.10 0.20 3.40 1.95 4.10 5.50 1.45 7.15 2.80 11.40 6.10 18.85 1.95 4.40 3.80 8.35 4.15 8.75 0.30 0.40 0.60 1.30 0.65 1.95 0.10 2.05 1.10 2.50 1.10 0.55 0.05 -1.40 0.15 -1.60 0.50 -0.90 0.35 0.55 0.35 1.25 -0.05 2.05 -0.45 0.95 -0.30 2 0.80 5.40 0.75 2.30 1.55 4.80 1.75 5.55 0.30 1 0.15 1.90 -0.55 3.25 -1.10 2.10 -1 3.45 0.60 10.40 2 8.75 3.20 23.95 2.05 26.05 -0.40 0.75 -0.45 2 -0.15 4 0.25 1.65 0.45 3.40 0.45 3.95 0 0.55 0.25 4.70 0.55 9.25 0.30 4.55 0.55 12.25 0.55 17.10 0 9.60 -0.35 7.30 5.25 34 1.40 6.45 1.55 8.90 0.70 10.55 -1 1.90 -2.50 3.30 -4 3.60 -0.75 0.15 -1.70 0.85 -2.15 1.45 -1.10 1.75 -3.05 2.05 -5.15 0.80 -0.95 -0.55 -2.60 -1 -3.70 -1 -1.10 0 -2.45 -0.20 -2.95 -0.50 -1.50 -0.80 -2.20 -3.85 -2.10 -9.25 0.10 -8.50 -1.30 -13.70 -6.85 -25.45 -2.70 -5.75 -7 -12.10 -13.55 -20.05 -2.50 -3 -5.10 -6.60 -5.75 -8 -1.15 -2.35 -2.25 -6.95 -3 -12.35 -0.30 -2.20 -0.95 -3.35 -1.55 -2.75 -0.45 0.45 -2.70 9 -3.25 12.35 -0.30 1.80 -1.30 7.25 -2.25 12.10 -1.60 8.30 -1.70 9.50 -1.70 19.05 0 8.65 0.10 10.30 0.75 10.55 0.50 0.15 0.75 0.90 0.70 2.15 -0.05 1.65 -0.10 1.75 -0.40 0.65 -0.30 -0.95 -0.45 -0.60 -0.60 1.65 -0.10 1.55 -0.05 2.85 0.20 2.85 0.20 0 0.35 0.25 0.35 0.55 0 0.25 -0.20 0.40 -0.45 0.20 -0.30 -0.15 -0.50 4.95 -0.50 13.45 -0.05 7.95 0.15 13.85 0.40 14.05 0.30 0.15 0.60 -0.45 0.70 -1.35 0.10 -0.90 0.15 -0.45 0 1.05 -0.10 1.50 -0.45 3.05 -0.75 3.40 -0.80 0.95 -0.20 23.75 0.80 28.90 1.10 6 1.70 8.55 3.15 13.70 1.25 4.45 1.25 4.80 0.50 6.15 -0.45 0.80 -0.60 1.50 -0.30 1.65 0.60 0.40 0.60 1.75 -0.05 1.75 -0.25 0 -0.50 -0.35 -0.50 -0.75 0 -0.40 -0.20 -0.75 -0.50 -0.75 -0.25 0 -0.50 0.25 -0.50 0.55 0 0.25 -0.20 0.40 -0.45 0.25 -0.25 -0.15 -0.40 0.60 -0.40 1.65 0.05 1.10 0.15 1.90 0.30 1.80 0.20 -0.10 0.25 0.80 0.20 1.90 -0.05 1.15 0.15 2.95 0.40 4 0.25 1 0.60 2.60 0.70 3.50 0.10 0.85 0.40 2.85 0.70 4.35 0.90 4.45 1.50 13.75 1.65 25.60 0.05 8.25 0.25 10.65 0.60 9.35 0.40 -1.45 0.50 -1.55 0.70 -0.55 0.15 1.05 -1.25 5.55 -1.90 6.10 -0.20 0.15 -0.80 2.30 -1.40 4.80 -0.55 2.55 -1.60 5.70 -2.25 7 -1.80 3.75 -5.80 11.40 -6.25 11.95 -0.20 0.30 -1.05 1.80 -1.85 3.40 -2.20 4.30 -4.35 6.55 -7.35 7.80 -1.45 0.60 -3.10 1.30 -3.65 1.55 -2.75 1.20 -10.15 2.55 -12.40 2.25 -1.65 -0.20 -3.50 0 -6 0.70 -2 0.55 -6.15 1.25 -9.30 1.55 -4.45 0.45 -6.05 0.85 -7.20 1.65 -1.40 1.05 -1.85 1.10 -17.50 1.10 l-16.10 0 -2.80 -1.40 c-1.55 -0.75 -4.10 -1.80 -5.70 -2.35 -3.05 -1.05 -9 -4.20 -9.50 -5 -0.15 -0.30 -1.30 -0.50 -2.55 -0.50 -2.30 0 -5.95 -1.50 -7.10 -2.95 -2.45 -3.10 -9.20 -17.05 -10.40 -21.50 -0.80 -2.90 -1.70 -9.35 -1.85 -12.80 l-0.10 -2 -2.50 0.15 c-2.10 0.15 -2.70 0 -3.55 -1 -0.60 -0.65 -1.25 -1.95 -1.45 -2.90 -0.50 -2.30 -5.70 -15.90 -6.70 -17.50 -1.40 -2.20 -8.20 -10.65 -11.10 -13.80 -2.90 -3.10 -4.45 -5.55 -4.45 -6.90 0 -0.90 -2.90 -3.35 -5.65 -4.75 -2.10 -1.05 -2.15 -1.05 -11.85 -0.30 -11.85 0.90 -18.30 1.85 -26.35 3.80 -7.65 1.85 -12.85 3.55 -17.50 5.75 -4.20 1.95 -5.05 2.05 -6.80 0.70 -2.25 -1.75 -4.35 -1.40 -11.95 2.20 -1.45 0.65 -3.50 1.35 -4.50 1.55 -1.75 0.25 -7.90 4.35 -7.90 5.25 0 0.20 0.35 0.55 0.80 0.70 0.70 0.25 0.75 0.20 0.20 -0.45 -0.50 -0.60 -0.50 -0.75 0.15 -0.75 0.40 0 0.90 0.30 1 0.65 0.15 0.30 0.30 0.35 0.30 0.10 0.05 -0.35 0.80 -0.45 1.85 -0.35 1.35 0.15 2 0.60 2.75 1.75 1.10 1.90 0.85 3.55 -1.05 5.60 -2 2.25 -4.30 5.40 -4.70 6.50 -1.10 2.75 -1.35 5.65 -1.80 19.50 -0.55 18.15 -0.85 22.70 -1.80 28.25 -1.75 9.90 -3.45 13.10 -8.80 16.65 -3.15 2.05 -8.75 5.05 -11.90 6.35 -1.25 0.50 -4 1.70 -6.15 2.70 -2.10 1 -4 1.80 -4.20 1.80 -0.15 0 -0.70 0.35 -1.20 0.80 -1.35 1.20 -7.60 3.60 -12.90 4.95 -13.60 3.40 -17.05 4.10 -23.20 4.75 -6.40 0.65 -8.90 1.30 -12.15 3.10 -4.90 2.70 -14.10 4.20 -21.20 3.45z m-1.85 -13.90 c-1.25 -0.50 -0.60 -1.15 1.10 -1.15 1.05 0 1.75 0.25 1.75 0.65 0.05 0.35 0.30 0.25 0.70 -0.25 1.10 -1.50 3.35 -1.65 5.45 -0.40 1.75 1.05 2.10 1.10 5.60 0.55 2.10 -0.30 5.15 -1.10 6.85 -1.80 1.70 -0.70 3.30 -1.25 3.60 -1.25 0.30 0 1.25 -0.35 2.05 -0.80 3.60 -1.85 16 -5.10 26.75 -6.95 9.75 -1.65 12.20 -2.35 14.05 -3.80 1 -0.80 2.40 -1.45 3.15 -1.45 2.05 0 6.75 -2 7.50 -3.15 0.40 -0.60 1.45 -3.90 2.30 -7.35 0.90 -3.45 1.95 -7.50 2.35 -9.10 0.65 -2.50 0.65 -3.05 -0.10 -5.20 -1.60 -4.70 -2.20 -10.30 -2.30 -20.75 -0.05 -7.85 0.10 -10.55 0.60 -11.35 0.40 -0.60 0.85 -1.10 1.05 -1.10 0.20 0 0.60 -0.45 0.85 -0.95 0.45 -0.80 0.40 -0.90 -0.40 -0.70 -0.85 0.20 -0.90 0 -0.70 -2.20 0.25 -2.40 1.15 -4.25 1.15 -2.35 0 0.80 0.10 0.85 0.50 0.20 0.25 -0.40 0.50 -1.85 0.50 -3.25 0 -3.20 1.20 -7.55 2.35 -8.95 1.70 -1.90 2.35 -2.85 1.85 -2.75 -0.95 0.15 -1.70 -0.05 -1.70 -0.55 0 -0.30 0.60 -0.45 1.40 -0.40 2 0.15 3.85 -1.35 5.85 -4.60 2 -3.30 4.80 -6 6.25 -6 0.55 0 1.40 0.25 1.90 0.55 0.75 0.45 1.60 0.15 4.90 -1.75 4.30 -2.50 11.45 -5.60 14.10 -6.10 1 -0.20 2.15 -0.10 2.80 0.30 1 0.50 1.85 0.25 7.10 -2.40 8.90 -4.45 13.90 -6.10 20.45 -6.60 10.30 -0.90 30.25 -1.15 33.25 -0.50 1.50 0.30 4.35 0.65 6.25 0.70 1.95 0.05 5.65 0.10 8.30 0.20 4.35 0.10 4.95 0.20 6.15 1.35 1.20 1.10 1.80 1.25 5 1.25 3.20 0 3.80 0.15 5 1.25 1.60 1.50 1.70 3.60 0.25 5.45 -0.90 1.15 -1.40 1.30 -4 1.30 -2.60 0 -2.95 0.10 -2.95 1 0 0.85 0.35 1 2.15 1 2.50 0.05 3.90 0.95 4.65 3.10 0.35 1.10 0.95 1.70 1.95 2 0.75 0.20 2.10 1 2.95 1.85 0.85 0.80 2.10 1.55 2.75 1.65 1.35 0.15 2.10 1.40 0.85 1.40 -1.10 0 -1.05 0.10 1 3.30 2.60 4.05 6.40 11.80 8.45 17.25 2.40 6.25 3.45 7.75 8.35 11.80 7.55 6.20 8.35 6.75 8.05 5.65 -0.15 -0.55 0 -1 0.30 -1 0.30 0 0.55 0.50 0.55 1.15 0 0.75 1 1.95 3.10 3.75 3.70 3.25 5.70 5.65 7 8.50 0.65 1.45 1.45 2.30 2.55 2.80 2.25 0.90 3.05 2.10 3 4.30 -0.05 1.25 0.25 2.20 0.90 2.90 1.20 1.35 1.20 1.50 -0.15 1.75 -0.65 0.10 -0.20 0.25 0.95 0.30 1.15 0 2.40 0.40 2.85 0.80 0.40 0.40 1.50 0.75 2.40 0.75 0.90 0 3.70 0.45 6.15 1.05 8 1.80 9.35 1.95 20.25 2.05 10.90 0.15 18.70 -0.35 18.25 -1.10 -0.25 -0.45 2.75 -1.50 4.25 -1.50 0.40 0 1.45 -0.45 2.25 -1 0.85 -0.55 2.15 -1 2.90 -1 1.60 0 3.85 1.95 3.85 3.35 0 0.75 0.10 0.80 0.50 0.15 0.45 -0.65 0.50 -0.65 0.50 0 0.05 0.60 0.15 0.55 0.55 -0.10 0.25 -0.50 1.45 -1.15 2.65 -1.45 1.75 -0.45 2.40 -0.95 3.80 -3.05 2 -3.15 2.20 -3.65 3.50 -10.90 1.40 -7.75 3.20 -13.55 4.75 -15.20 1.50 -1.65 1.60 -3.35 0.50 -13.30 -0.45 -4.15 -0.75 -11.85 -0.75 -20.05 0 -9.20 -0.25 -14.80 -0.75 -18.25 -0.90 -6.10 -1.40 -10.70 -1.30 -11.70 0.55 -3.65 0.30 -11.65 -0.50 -14.50 -0.45 -1.80 -1.55 -6.85 -2.40 -11.25 -3.75 -19.20 -4 -22.30 -4.35 -57.25 -0.15 -13.80 -0.45 -22.85 -0.75 -23.05 -0.55 -0.35 -0.05 -1.95 0.60 -1.95 0.25 0 0.45 0.30 0.45 0.65 0.05 0.30 0.35 0.05 0.75 -0.65 0.60 -1.10 0.55 -1.35 -0.15 -2.15 -0.75 -0.85 -0.85 -0.85 -1.40 -0.10 -0.80 1.10 -1.70 0.55 -1.70 -1.05 0 -0.75 0.30 -1.20 0.80 -1.20 0.55 0 0.70 -0.25 0.50 -0.80 -0.15 -0.45 -0.30 -1 -0.30 -1.25 0 -0.25 -0.35 -0.45 -0.75 -0.45 -0.85 0 -0.90 -0.20 -0.45 -1.85 0.35 -1.35 1.70 -1.55 1.75 -0.25 0.05 1.25 1.40 -4.40 2.20 -9.35 0.50 -2.85 1.35 -5.50 2.70 -8.25 1.10 -2.25 2.25 -5.50 2.55 -7.30 0.30 -1.80 0.70 -3.75 0.85 -4.35 0.20 -0.85 0.05 -1.15 -0.55 -1.15 -1.10 0 -1 -0.85 0.10 -1.10 0.75 -0.20 1.10 -1.30 1.80 -5.70 0.50 -3 1.20 -7.20 1.60 -9.40 0.40 -2.15 0.70 -4 0.70 -4.10 0 -0.45 3.05 -1.70 4.10 -1.70 0.65 0 2.05 0.60 3.15 1.25 1.10 0.70 2.60 1.25 3.35 1.25 1.15 0 1.80 0.60 3.60 3.15 1.25 1.70 3.55 4.60 5.15 6.40 2.55 2.90 2.95 3.20 3.50 2.50 0.55 -0.75 0.60 -0.75 0.65 0.05 0 0.45 -0.40 1.05 -0.85 1.30 -0.70 0.45 -0.50 1.05 1.95 5.15 7.55 12.65 13 25.40 17.65 41.20 2 6.80 2.05 7.60 0.95 9.60 -0.80 1.40 -0.80 1.55 1.40 6.15 1.25 2.60 2.50 5.30 2.80 6 0.55 1.25 0.55 1.25 0.55 -0.30 0.05 -1.90 -1.95 -12.60 -3.70 -19.95 -0.70 -3 -1.75 -7.65 -2.30 -10.25 -0.60 -2.60 -1.45 -6.75 -2 -9.25 -0.50 -2.45 -1.05 -5.15 -1.20 -6 -0.15 -0.80 -0.65 -3.20 -1.05 -5.25 -0.45 -2.05 -1 -5 -1.20 -6.50 -1.50 -9.35 -1.95 -12.65 -2.25 -15.75 -0.15 -1.90 -0.65 -5.85 -1 -8.70 -0.40 -2.90 -0.75 -7.30 -0.75 -9.85 0 -4.40 0.05 -4.70 1.30 -5.65 0.75 -0.60 2.05 -1.05 3 -1.05 1.45 0 1.70 -0.20 1.70 -1.15 0 -1.30 -1.30 -5.30 -2.35 -7.30 -0.35 -0.75 -0.65 -1.90 -0.65 -2.60 0 -0.70 -0.35 -2.35 -0.80 -3.65 -0.45 -1.30 -0.70 -2.45 -0.55 -2.60 0.40 -0.40 -1.80 -6.50 -3.65 -10.20 -0.90 -1.80 -2.75 -5 -4.15 -7.15 l-2.50 -3.90 0.30 -4.85 c0.20 -4.35 0.10 -5 -0.75 -6.10 -0.85 -1.05 -0.95 -1.70 -0.65 -4.50 0.15 -1.80 0.65 -4.65 1.05 -6.40 1.10 -4.85 1 -5.10 -1.15 -5.10 -3.55 -0.05 -5.05 -2.50 -4.15 -6.70 0.45 -2.15 0.40 -2.60 -0.25 -3.10 -1 -0.75 -0.95 -1.10 0.15 -1.30 1.25 -0.25 1.95 -6.85 2.05 -19.95 0.10 -10.25 0.05 -10.80 -0.95 -11.70 -0.90 -0.80 -1 -1.50 -1 -6.35 0 -6.75 -1.10 -25.80 -1.70 -29.90 -0.15 -0.95 -0.40 -4.65 -0.50 -8.25 -0.15 -3.55 -0.35 -7.15 -0.50 -8 -0.15 -0.80 -0.50 -4.85 -0.85 -9 -0.55 -7.40 -0.55 -7.55 0.55 -9.65 1.10 -2.10 1.10 -2.35 0.55 -7.25 -0.30 -2.80 -0.90 -9.05 -1.30 -13.85 -0.45 -4.80 -1 -10.35 -1.30 -12.30 -0.50 -3.25 -0.65 -3.55 -1.60 -3.30 -0.70 0.15 -0.90 0.05 -0.65 -0.30 0.20 -0.35 0.10 -0.60 -0.15 -0.60 -0.30 0 -0.55 -0.45 -0.55 -1 0 -0.55 0.25 -1 0.55 -1 0.35 0 0.45 -0.55 0.30 -1.35 -0.35 -2.15 -4.80 -16 -6.15 -19.40 l-1.25 -3 0.30 2.15 c0.90 7.10 0.90 7.80 -0.25 9.20 -0.75 1 -1.50 1.40 -2.65 1.40 -2.50 -0.05 -3.75 -1.35 -4.35 -4.50 -0.30 -1.50 -0.60 -3.30 -0.75 -4 -0.15 -0.70 -0.70 -4.30 -1.25 -8 -1.20 -8.25 -1.80 -10.90 -5.80 -26.75 -4.70 -18.65 -6.55 -25.05 -8.50 -29.75 -2.55 -6 -12.25 -25.40 -17.20 -34.20 -2.25 -4.05 -5.50 -10.25 -7.15 -13.75 -2.55 -5.25 -3.05 -6.70 -2.95 -8.70 0.05 -1.70 -0.15 -2.50 -0.70 -2.70 -0.40 -0.15 -0.85 -0.15 -0.95 -0.05 -0.15 0.10 0.05 1.90 0.45 3.95 2 11 2.50 15.40 1.90 16.70 -1.10 2.35 -4.55 2.75 -6.35 0.75 -1.15 -1.25 -1.30 -2 -3.80 -17.50 -1.10 -6.80 -2.15 -11 -4.50 -18.25 -3.15 -9.55 -5.25 -13.85 -6.95 -14.25 -0.70 -0.15 -1.30 -0.70 -1.40 -1.15 -0.20 -1.10 0.70 -1.10 1.35 0.05 0.30 0.45 0.55 0.60 0.55 0.30 0 -0.60 -6.90 -10.60 -8.60 -12.50 -0.75 -0.85 -1.35 -1.05 -2.80 -0.85 -1.45 0.20 -2.30 -0.05 -3.85 -1.10 -1.10 -0.75 -3.55 -2.20 -5.50 -3.25 -8.25 -4.40 -13.05 -7.30 -19 -11.40 -4.05 -2.80 -5.05 -3.55 -14 -10.30 -2.75 -2.05 -5.65 -4.25 -6.50 -4.80 -12.85 -9 -24.05 -18.75 -25.50 -22.15 -0.40 -1.05 -0.95 -1.85 -1.15 -1.85 -1.45 0 -25.45 -3.55 -30.35 -4.50 -1.35 -0.30 -5.20 -0.95 -8.50 -1.55 -3.30 -0.60 -7.25 -1.40 -8.75 -1.80 -4.15 -1.15 -7.85 -1.55 -12 -1.35 -19.50 1 -32.90 2.10 -33.75 2.70 -0.25 0.20 -1.40 0.55 -2.50 0.75 -1.10 0.20 -2.45 0.60 -3 0.90 -0.55 0.30 -1.10 0.60 -1.25 0.60 -1.25 0.25 -6.65 2 -8.25 2.70 -3.45 1.55 -21.25 6.90 -26.10 7.85 -0.90 0.20 -1.90 0.65 -2.20 1 -0.30 0.40 -1.25 0.70 -2.05 0.70 -0.85 0 -4.35 0.75 -7.85 1.70 -10.60 2.85 -16.55 4.20 -22.30 5.05 -3 0.45 -11.55 1.80 -19 3 -13.85 2.25 -23.60 3.70 -33.75 4.95 -10.50 1.35 -27.70 7.85 -34.65 13.15 -3.75 2.85 -3.75 2.85 -3.75 5 0 2.20 -1.75 4.15 -3.65 4.15 -3.20 0 -5.45 -2.35 -5.45 -5.70 0 -1 -0.25 -1.80 -0.55 -1.80 -0.55 0 -6.60 4.10 -8.30 5.65 -0.75 0.65 -1.15 1.60 -1.15 2.60 0 1.75 -2.05 4.25 -3.45 4.25 -1.35 0 -8.60 2.90 -9.75 3.90 -0.55 0.50 -1.55 1.25 -2.10 1.65 -1.25 0.85 -4.90 3.80 -10.75 8.75 -5.85 4.95 -13.90 12.85 -12.70 12.50 0.80 -0.25 0.75 -0.15 -0.25 0.70 -0.70 0.55 -1.40 1 -1.60 1 -0.65 0 -2.25 3.65 -2.85 6.50 -0.30 1.50 -0.95 3.10 -1.40 3.60 -1.05 1.20 -3.70 1.15 -5.30 -0.10 -0.70 -0.55 -1.60 -1 -2.05 -1 -0.95 0 -1.05 -0.80 -0.15 -1.15 0.40 -0.15 0.70 -0.95 0.75 -1.80 0 -0.90 0.30 -2.40 0.60 -3.35 0.35 -0.95 0.45 -1.90 0.25 -2.10 -0.55 -0.55 -8.30 7.90 -9.30 10.15 -0.90 2.05 -0.80 4.25 0.20 4.25 0.30 0 -0.35 0.95 -1.50 2.15 -1.10 1.15 -2.55 3.10 -3.15 4.35 -0.65 1.25 -2.65 4.75 -4.55 7.85 -4 6.50 -8.20 14.75 -9.50 18.60 -0.55 1.50 -1.25 3.10 -1.65 3.50 -0.70 0.75 -7.20 16.60 -10.20 24.80 -0.80 2.20 -2.80 8.15 -4.40 13.25 -2.90 9.25 -2.90 9.25 -2.80 15 0.10 3.25 -0.10 6.05 -0.40 6.50 -0.30 0.50 -0.50 0.55 -0.50 0.15 0 -0.35 -0.20 -0.65 -0.40 -0.65 -0.25 0 -0.60 3 -0.80 6.65 -0.45 9.25 -2.45 26.70 -4.35 38.05 -0.55 3.25 -0.95 7.50 -0.90 9.50 0.05 2.75 -0.10 3.95 -0.80 4.95 -0.80 1.25 -0.85 2.20 -0.60 8.50 0.15 3.90 0.40 7.80 0.50 8.60 0.15 0.85 0.55 4.10 0.85 7.25 0.60 5.75 1.15 8 1.90 8 0.80 0 2 2.85 2.85 6.65 0.45 2.20 1.25 4.65 1.75 5.50 0.50 0.90 1.30 3.20 1.75 5.10 1 4.45 4 14.10 6.95 22.50 2.30 6.40 5.60 12.85 8.35 16.25 1.60 1.90 1.75 2.85 0.90 5.20 -0.50 1.40 -0.20 2.50 3.45 11.65 4.95 12.30 6.75 16.35 10.70 23.30 3.30 5.90 3.40 6.90 1.15 9.15 -0.70 0.70 -1.25 1.40 -1.25 1.55 0 0.15 1.90 4.70 4.15 10.10 2.30 5.40 5.30 12.75 6.60 16.30 2.35 6.30 3.90 9.15 5.05 9.20 1.15 0.10 2.25 2 2.70 4.80 0.25 1.55 0.60 3.35 0.75 3.90 0.60 2.20 22.45 45.80 22.85 45.55 0.20 -0.15 0.25 0.10 0.10 0.50 -0.15 0.45 -0.05 0.80 0.25 0.80 0.30 0 0.55 -0.35 0.55 -0.80 0 -0.40 0.25 -0.60 0.55 -0.45 0.35 0.25 0.25 0.65 -0.30 1.25 -0.80 0.85 -0.75 1.10 0.20 3.25 1.40 3.15 1.35 5 -0.20 6.55 -1.50 1.50 -1.60 2.65 -0.25 4.35 0.95 1.20 0.95 1.65 0.50 10.95 -0.55 11.55 -1.35 22.55 -2.05 28.40 -1.20 10.70 -1.20 10 0 10.80 0.55 0.40 1.05 1 1.05 1.30 0 0.35 -0.25 0.30 -0.75 -0.10 -0.60 -0.50 -0.80 -0.45 -1.05 0.25 -0.50 1.20 -0.55 27.35 -0.10 30.90 0.65 4.85 1.40 9.45 2.15 12.65 0.40 1.70 0.85 3.75 1 4.50 0.15 0.80 0.40 1.80 0.50 2.20 0.10 0.40 0.20 1 0.20 1.35 0.05 0.30 0.45 0.45 0.95 0.35 0.80 -0.25 0.85 -1.40 0.85 -15.10 l0 -14.85 1.35 -2.85 c0.70 -1.55 2.25 -3.85 3.45 -5.15 1.60 -1.75 1.95 -2.45 1.55 -2.85 -0.85 -0.85 -0.75 -1.50 0.25 -1.30 1.25 0.25 3.30 -6.05 2.90 -8.85 -0.20 -1.10 -0.35 -3.45 -0.40 -5.25 l-0.10 -3.25 1.85 -1 c1.60 -0.85 2.05 -0.90 2.90 -0.35 0.90 0.55 1.25 0.50 2.35 -0.40 0.80 -0.60 2.05 -1 3.20 -1 1.75 0 2.10 0.25 3.85 2.65 1.05 1.40 2.55 3.65 3.35 4.95 1.45 2.35 1.55 2.40 4.05 2.40 1.80 0 2.80 0.25 3.35 0.90 0.70 0.75 2.20 5.70 3.80 12.25 0.80 3.30 6.85 17.50 7.65 17.95 0.35 0.20 1.25 0.45 2 0.65 1.45 0.25 2.90 2.40 2.90 4.15 0 2 4.10 17.50 5.35 20.05 0.70 1.50 1.60 4.55 2 6.75 0.40 2.25 1.15 5.85 1.65 8.05 0.50 2.20 1.20 5.60 1.50 7.50 0.30 1.95 0.80 4.30 1.05 5.30 0.25 1 0.45 2.70 0.45 3.80 0 1.10 0.20 3.10 0.45 4.45 0.25 1.35 0.65 6.75 0.85 11.95 0.15 5.25 0.50 9.85 0.75 10.30 0.20 0.45 0.55 2.35 0.70 4.25 0.20 2.50 0.15 3.15 -0.20 2.35 -1.25 -2.85 -1.15 -0.90 0.45 7.60 0.65 3.30 1.15 6.60 1.15 7.40 0.05 0.75 0.20 1.35 0.40 1.35 0.20 0 0.25 0.50 0.05 1.10 -0.15 0.60 -0.05 0.95 0.20 0.75 0.30 -0.15 0.40 0.45 0.30 1.45 -0.10 0.95 0.05 3.45 0.35 5.60 0.30 2.10 0.65 5.30 0.85 7.10 0.15 1.80 0.50 5.15 0.75 7.50 0.25 2.35 0.45 7.35 0.45 11.20 l0 6.90 -1.80 1.80 c-2.05 2.05 -2.20 3.35 -1.20 9.25 1.30 7.70 4 14.60 7.10 18.20 l2.50 2.85 -0.30 2.85 -0.35 2.90 3.40 3.55 c2.90 3 3.80 3.65 6.15 4.25 8.20 2.20 13.90 3.70 15 3.90 1.75 0.30 4.40 0.35 3.65 0z m288.25 -24.10 c-0.20 -1 -1.40 -1.30 -1.40 -0.35 0 0.45 -0.35 0.80 -0.75 0.80 -0.40 0 -0.75 -0.40 -0.75 -0.85 0 -0.60 -0.40 -0.95 -1.10 -0.95 -3 -0.20 -7.20 -0.90 -7.65 -1.20 -0.25 -0.20 -1.30 -0.50 -2.25 -0.65 -0.95 -0.15 -3 -0.60 -4.50 -1 -5.65 -1.45 -8.45 -2 -9.45 -1.70 -0.65 0.15 -0.95 0.05 -0.75 -0.25 0.30 -0.45 -1.70 -0.10 -2.25 0.40 -0.50 0.45 1.85 1.65 3.25 1.70 0.85 0 3.10 0.70 5 1.60 1.90 0.85 3.55 1.60 3.70 1.65 0.15 0.05 1 0.25 1.95 0.45 1.95 0.45 9.40 1.05 13.95 1.05 2.50 0.05 3.10 -0.10 3 -0.70z m-195.10 -14.40 c0.50 -3.10 -0.60 -2.75 -1.25 0.35 -0.70 3.25 -0.70 3.35 0.20 2.50 0.40 -0.40 0.85 -1.70 1.05 -2.85z m173.20 -0.60 c0 -0.20 -0.15 -0.55 -0.35 -0.70 -0.40 -0.45 -1.70 0.65 -1.40 1.20 0.30 0.45 1.75 0.05 1.75 -0.50z m-11.80 -4.65 c-1 -3.40 -2.90 -6.05 -5.80 -8.30 -1.70 -1.30 -4.75 -3.65 -6.80 -5.30 -2.25 -1.80 -3.85 -2.75 -4.15 -2.45 -0.55 0.55 0.65 4.75 2 6.95 1 1.65 7.60 6.60 11.75 8.80 3.15 1.65 3.45 1.70 3 0.30z m-160 -8.60 c0.30 -3.30 0.20 -4.10 -0.85 -6.65 -0.70 -1.60 -1.50 -3.75 -1.85 -4.75 -0.65 -2.10 -0.85 -2.20 -2.10 -1.20 -0.70 0.50 -0.90 1.40 -0.90 4.25 0 3.40 0.05 3.55 1.15 3.55 0.65 0 1.70 0.55 2.35 1.25 0.95 1 1.10 1.70 1.05 4.25 -0.10 4.25 0.75 3.75 1.15 -0.70z m-182.15 -152.85 c0.50 -3.95 0.25 -5.45 -0.80 -5.45 -1.30 0 -2.70 7.75 -1.70 9.60 0.95 1.70 1.95 -0.05 2.50 -4.15z m460.95 -50.45 c0.30 -1.45 0.60 -2.75 0.75 -2.90 0.35 -0.35 -3.60 -7.85 -4.55 -8.65 -0.80 -0.65 -0.85 -0.60 -0.50 0.30 0.20 0.55 0.80 3.70 1.30 7 1.35 8.75 2 9.65 3 4.25z m21 -24 c0 -1.95 -1.40 -10.80 -1.95 -12.65 -0.30 -0.90 -0.85 -2.70 -1.25 -4.10 l-0.75 -2.50 0.25 2.25 c0.10 1.25 0.30 3.40 0.45 4.75 0.10 1.40 0.55 5.10 0.95 8.25 0.45 3.15 0.80 5.95 0.80 6.20 0 0.25 0.35 0.15 0.75 -0.20 0.40 -0.35 0.75 -1.25 0.75 -2z m-510.95 -12.60 c-0.70 -1.85 -3.15 -6.10 -3.75 -6.50 -0.30 -0.20 -0.60 -0.25 -0.75 -0.10 -0.35 0.30 2.55 6.20 3.05 6.20 0.25 0 0.30 0.25 0.10 0.60 -0.20 0.30 -0.15 0.40 0.20 0.20 0.30 -0.15 0.65 -0.10 0.85 0.20 0.55 0.90 0.75 0.55 0.30 -0.60z m-71.80 -155.70 c-0.95 -5.45 -2.10 -11.40 -2.50 -13.20 -0.40 -1.80 -1.05 -5 -1.45 -7.15 -0.40 -2.20 -1.20 -4.45 -1.75 -5.15 -0.60 -0.75 -1.05 -1.20 -1.05 -1 0 0.15 0.55 3.30 1.25 6.90 0.70 3.65 1.50 8 1.80 9.65 0.30 1.65 0.85 4 1.20 5.25 0.40 1.25 1.40 5.10 2.30 8.65 0.90 3.50 1.70 6.30 1.75 6.20 0.10 -0.10 -0.60 -4.65 -1.55 -10.15z m-18.75 -102.05 c0.05 -4.85 1.15 -10.25 2.25 -10.90 2.45 -1.45 2.35 -1.15 2.80 -11.30 0.25 -5.35 0.65 -11.95 0.95 -14.70 0.30 -2.75 0.65 -6.55 0.80 -8.50 0.15 -1.90 0.60 -5.30 1 -7.55 1.25 -7.15 1.25 -7.15 -3.25 -10.65 -4.50 -3.45 -6.55 -5.70 -6.55 -7.10 0 -1.25 -1.35 -1.80 -2.55 -1.05 -0.50 0.35 -1.40 0.60 -2 0.60 -1.40 0 -3.80 -1.75 -4.25 -3.15 -1.05 -3.40 -3 -6.65 -5.10 -8.55 -5.55 -4.90 -18.15 -17.85 -20.50 -21.05 -2.85 -3.85 -7.10 -11.80 -7.10 -13.25 0 -0.50 0.60 -1.65 1.35 -2.50 l1.35 -1.60 -1.40 -2.35 c-1.90 -3.25 -5.60 -10.95 -7.10 -14.90 -2.55 -6.80 -2.90 -9.55 -2.90 -22.15 0 -10.65 0.10 -12.10 1.10 -15.60 0.60 -2.15 1.10 -4.60 1.10 -5.50 0.05 -4.60 3.90 -15.70 9.10 -26.15 5 -10 7.90 -14.15 14.85 -21.10 3.30 -3.35 6.05 -6.45 6.05 -6.90 0 -0.95 0.05 -0.95 -2.65 0.20 -1.45 0.60 -2.55 1.55 -3.25 2.75 -0.60 1 -2.10 2.55 -3.40 3.40 -4.05 2.85 -14.35 10.55 -17.95 13.45 -4.25 3.45 -6.75 6.05 -12.55 13 -6.05 7.25 -13.90 16.05 -17.75 19.95 -7.20 7.25 -18.95 28.70 -21.80 39.60 -1.45 5.80 -0.05 26.40 2.35 34.15 1.70 5.45 5 12 8.90 17.75 2.70 3.90 3.60 5.65 3.60 6.90 0 1.85 2.05 5.10 12.25 19.35 3.35 4.70 9.20 13 13 18.50 10.40 15 15.40 21.75 17.85 24.05 1.15 1.10 4.65 3.80 7.65 5.95 3.05 2.15 7.60 5.60 10.20 7.70 9.50 7.70 11.60 9.05 13.90 9.05 1.40 0 2.40 0.30 3 0.95 0.50 0.50 1.75 1.20 2.80 1.50 1 0.35 1.85 0.85 1.85 1.10 0 0.25 0.45 0.45 1 0.45 0.90 0 1 -0.35 1 -3.85z m-68.50 -46.35 c-0.75 -1.15 -2.10 -2.70 -3 -3.55 l-1.60 -1.50 1 2 c1.75 3.50 4.15 6.45 4.60 5.75 0.25 -0.45 -0.10 -1.45 -1 -2.70z m-6 -8.35 c0 -0.70 -1.95 -2.70 -2.30 -2.30 -0.40 0.40 1.40 3.35 1.90 3.05 0.20 -0.15 0.40 -0.50 0.40 -0.75z m38.60 -82.20 c-0.85 -5.45 -1.15 -29.55 -0.50 -43.80 0.35 -8.10 0.05 -9.35 -1.65 -7.60 -1 0.95 -1.05 1.25 -0.45 2.60 0.75 1.90 0.35 3.75 -1.35 5.40 -1.70 1.75 -2.20 3.75 -1.65 6.55 0.45 2.60 -0.35 5.40 -1.75 5.90 -2.40 0.95 1.10 21.75 5.50 32.20 0.40 0.95 0.95 2.40 1.25 3.20 1.10 3 1.45 0.55 0.60 -4.45z m127.70 -32.50 c-0.15 -0.40 -0.05 -0.75 0.15 -0.75 0.25 0 0.55 0.25 0.65 0.55 0.15 0.40 0.40 0.35 0.90 -0.10 0.75 -0.70 6.75 -3.80 12 -6.10 1.50 -0.65 3.75 -2 4.95 -2.90 5.75 -4.40 9.90 -7.35 17.05 -12.15 4.25 -2.85 8.25 -5.45 8.90 -5.75 0.65 -0.35 1.05 -0.90 0.95 -1.20 -0.25 -0.80 -2.15 -0.50 -4.60 0.75 -2.10 1.05 -14.20 8.15 -17.25 10.15 -0.95 0.60 -2.75 1.70 -4 2.45 -9.55 5.60 -21.50 14.65 -20.40 15.35 0.90 0.60 1.05 0.55 0.70 -0.30z m-182.80 -9.50 c0 -0.30 0.35 -1 0.75 -1.50 0.40 -0.55 2.25 -3.15 4.10 -5.75 5.75 -8.15 13.55 -17.30 21.30 -24.95 l4.75 -4.65 -0.85 -1.95 c-0.45 -1.05 -1 -1.95 -1.20 -1.95 -0.25 0 -4.25 3.75 -8.95 8.40 -5.60 5.50 -8.80 9.05 -9.40 10.35 -0.45 1.10 -1.90 3.50 -3.20 5.35 -2.05 2.90 -7 12.10 -8.65 15.90 -0.45 1.10 -0.40 1.30 0.40 1.30 0.55 0 0.95 -0.25 0.95 -0.55z m561 -2.05 c0 -0.35 -3.55 -4.50 -11 -12.95 -3.20 -3.55 -6.45 -7.35 -7.25 -8.45 -2.75 -3.60 -10.80 -9.40 -17.80 -12.80 -4.65 -2.25 -6.35 -2.45 -7.70 -1 -1.65 1.80 -3.65 1.30 -6.35 -1.55 -2.25 -2.40 -4.90 -3.65 -4.90 -2.35 0 0.90 4.90 4.95 13.50 11.20 1.80 1.30 8 5.90 13.75 10.20 10.45 7.80 16.35 12 17.75 12.65 0.40 0.20 2.55 1.45 4.75 2.80 3.75 2.30 5.25 2.95 5.25 2.25z m9.20 -9.50 c0.50 -1.30 0.40 -1.50 -2.30 -3.50 -3.80 -2.85 -6.40 -4.35 -6.75 -4 -0.45 0.40 7.35 8.30 8.15 8.30 0.35 0 0.75 -0.35 0.90 -0.80z m-381.40 -29.20 c2.10 -1.95 2.30 -2 5.60 -2 3.15 0 3.50 0.10 4.90 1.55 1.30 1.35 1.70 1.50 3.45 1.25 2.25 -0.35 29.20 -3.10 37.25 -3.80 2.90 -0.25 7.85 -0.70 11 -1 3.15 -0.30 6.65 -0.75 7.75 -1.05 13.45 -3.60 25.15 -5.50 39.75 -6.45 4.55 -0.30 10.30 -0.75 12.75 -1 2.50 -0.25 7.10 -0.70 10.25 -1 12.35 -1.15 16.35 -1.55 18.75 -2.10 5.80 -1.20 6.85 -1.65 7.55 -3 0.40 -0.75 1.20 -1.70 1.80 -2.10 1.35 -0.95 5.90 -1.05 9.10 -0.20 2.40 0.65 7.70 0.15 14.05 -1.35 1.95 -0.45 4.50 -0.95 5.75 -1.10 2 -0.25 2.20 -0.20 1.60 0.45 -0.55 0.70 -0.40 0.75 1.50 0.35 1.20 -0.25 2.50 -0.60 2.90 -0.80 0.40 -0.15 1.05 -0.25 1.40 -0.20 0.85 0.15 1.40 -1.45 0.65 -1.95 -0.40 -0.20 0.20 -0.50 1.45 -0.70 3.35 -0.50 11.50 -3.25 15.15 -5.10 3.85 -1.95 7.80 -2.30 9.75 -0.90 1 0.70 1.05 0.85 0.35 1.50 -0.65 0.70 -0.65 0.95 0.05 2.25 0.85 1.65 1.55 1.70 5.95 0.20 1.10 -0.35 4.60 -1.50 7.75 -2.50 7.25 -2.35 7.75 -2.60 7 -3.50 -0.65 -0.80 -0.85 -0.70 4.75 -3 8.70 -3.55 19.85 -9.80 27.90 -15.65 3.85 -2.80 4.30 -3.30 3.75 -4.05 -0.35 -0.45 -1.75 -2.15 -3.10 -3.80 -4.25 -5.20 -7.55 -10.65 -12.50 -20.90 -2.60 -5.45 -5.25 -10.50 -5.80 -11.25 -1.15 -1.45 -5.70 -9.65 -9.10 -16.30 -2.50 -4.85 -2.35 -4.70 -2.90 -3.80 -0.75 1.25 -4.10 5.50 -6.80 8.60 -2.35 2.75 -2.60 3.25 -2.80 5.95 -0.25 3.70 -1.65 5.45 -4.40 5.45 -2.10 0 -3.95 1.65 -5.15 4.50 -0.40 1 -1.30 2.15 -1.95 2.60 -0.70 0.50 -1.80 1.85 -2.40 3.10 -2.05 4.35 -5.55 6.25 -13.25 7.30 -2.20 0.30 -5.55 0.75 -7.50 1.05 -3.25 0.45 -9.75 0.55 -9.75 0.15 0 -0.10 0.75 -0.40 1.65 -0.65 l1.60 -0.50 -1.50 0 c-2.40 0.10 -2.85 0 -2.50 -0.55 0.20 -0.30 -0.05 -0.35 -0.55 -0.15 -0.60 0.20 -0.75 0.15 -0.50 -0.30 0.30 -0.45 -0.95 -0.55 -5.15 -0.50 -5.15 0.05 -5.75 -0.05 -8.65 -1.40 -3.05 -1.45 -4.80 -2.55 -8.30 -5.15 -1.05 -0.80 -2.40 -1.25 -3.55 -1.30 -1.20 0 -2.60 -0.55 -4.15 -1.60 -2.65 -1.80 -2.90 -1.90 -2.90 -0.85 0 1.40 -1.35 0.75 -3.90 -1.95 -2.80 -2.95 -3.80 -4.90 -4.95 -9.80 -0.50 -2 -1.30 -3.80 -2.15 -4.75 -3.35 -3.70 -7.25 -12.65 -9 -20.60 -1.20 -5.40 -1.20 -5.65 -0.20 -5.65 0.70 0 0.80 -0.45 0.60 -2.65 -0.30 -3.85 -6.70 -16.10 -8.40 -16.10 -0.30 0 -1.35 1.70 -2.30 3.75 -1.50 3.25 -1.70 4.10 -1.45 6.40 0.30 3.05 -0.60 5.35 -2.45 6.20 -1.55 0.65 -2.60 5.40 -1.25 5.40 0.30 0 0.40 -0.35 0.25 -0.80 -0.15 -0.40 -0.10 -0.60 0.20 -0.45 0.65 0.40 0.65 1.45 -0.05 6.85 -0.50 3.80 -0.80 4.65 -2 5.85 -1.65 1.65 -2.10 3.20 -3.45 11.80 -1.25 8.05 -2.35 12.95 -5.60 24.75 -2.85 10.50 -3.70 12 -6.90 12 l-1.80 0 -1.45 8.10 -1.45 8.05 -6.05 6.10 c-3.30 3.40 -6.90 7.20 -8 8.50 -2.80 3.35 -5.80 4.60 -13.05 5.50 -10.20 1.30 -13.95 0.90 -15.80 -1.65 -0.35 -0.45 -1.65 -1.30 -2.90 -1.85 -1.25 -0.50 -2.50 -1.20 -2.80 -1.60 -0.30 -0.35 -2.55 -1.35 -5 -2.20 -4.05 -1.40 -8.55 -3.30 -9.20 -3.85 -0.15 -0.10 0.15 -0.50 0.65 -0.85 0.80 -0.60 0.70 -0.75 -1.35 -1.95 -1.20 -0.70 -2.35 -1.30 -2.45 -1.30 -0.35 0 -1.55 -1 -6.95 -5.70 -2.40 -2.10 -4.50 -3.80 -4.70 -3.80 -0.15 0 -0.75 0.60 -1.30 1.30 -0.60 0.70 -1.50 1.45 -2 1.65 -0.65 0.25 -1.55 1.85 -2.65 4.80 -1.55 4.10 -1.90 6.05 -0.75 4.25 0.80 -1.25 0.55 2.10 -0.25 3.50 -0.40 0.70 -0.70 2.30 -0.75 3.55 0 1.95 -0.60 3.25 -3.85 8.75 -2.10 3.55 -4.80 8.80 -6 11.65 -2.45 5.95 -5.50 11.75 -7.95 15.10 -2.65 3.65 -2.20 4 1.10 0.95z m-112.25 -27.50 c0.85 0 1.80 -1.80 1.30 -2.35 -0.45 -0.40 -2.15 0.30 -3.40 1.40 -0.95 0.85 -1.05 1.10 -0.45 1.45 0.45 0.30 0.95 0.25 1.20 0 0.30 -0.30 0.90 -0.50 1.35 -0.50z m144.20 -38.35 c-1.25 -3.25 -2.50 -6.10 -2.75 -6.30 -0.50 -0.55 -3.45 0.95 -3.85 1.95 -0.15 0.40 0.35 1.55 1.15 2.60 1.95 2.60 7.30 8.15 7.60 7.85 0.10 -0.10 -0.85 -2.85 -2.15 -6.10z m-23.10 -17.45 c0.85 -0.35 1.20 -1.70 0.40 -1.70 -1.05 0 -2 0.65 -1.75 1.10 0.20 0.30 0 0.75 -0.35 1 -0.55 0.40 -0.55 0.40 0.05 0.20 0.40 -0.15 1.15 -0.45 1.65 -0.60z m10.85 -7.20 c0.85 -1.05 2.25 -2.55 3.10 -3.25 1.45 -1.20 1.90 -1.30 5.25 -1.15 l3.70 0.15 0.40 -1.75 c0.25 -0.95 0.55 -2.25 0.70 -2.85 0.30 -1.45 -0.60 -2.70 -4.15 -5.40 -1.90 -1.45 -3.45 -2.25 -4.35 -2.25 -0.80 0 -2.60 -0.45 -4.10 -1 -2.15 -0.75 -3.40 -0.90 -6.55 -0.65 l-3.90 0.30 -0.25 2.25 c-0.40 3.45 -1.60 4.35 -6 4.35 -2.60 0 -3.95 -0.25 -4.85 -0.85 -0.65 -0.50 -1.40 -0.90 -1.60 -0.90 -0.60 0 -1.50 5.55 -1.15 7.45 0.75 4.20 8.50 12.10 10.95 11.20 0.60 -0.25 2.55 -0.40 4.40 -0.40 2.50 0 3.60 0.20 4.20 0.85 0.85 0.80 0.95 0.70 1.75 -1.65 0.50 -1.35 1.60 -3.35 2.45 -4.45z m435 -11.20 c0 -1.20 -5.05 -7.45 -5.60 -6.90 -0.35 0.35 0.10 1.55 1.40 3.70 1.05 1.70 2.15 3.30 2.45 3.50 0.80 0.60 1.75 0.45 1.75 -0.30z m-429 -18.55 c0 -0.70 -2.40 -2.25 -3.50 -2.25 -0.90 0 -0.55 1.40 0.60 2.20 1.40 1 2.90 1.05 2.90 0.05z m385 -18.85 c-0.05 -0.60 -4.65 -4.40 -8.90 -7.35 -2.75 -1.90 -17.75 -8.60 -18.20 -8.15 -0.85 0.85 6.50 9.35 9.85 11.35 2.90 1.70 10.15 3.75 16.90 4.70 0.20 0.05 0.35 -0.25 0.35 -0.55z m-169 -3.90 c0 -0.25 -0.30 -0.50 -0.70 -0.50 -0.40 0 -0.90 0.25 -1.05 0.50 -0.15 0.30 0.15 0.50 0.70 0.50 0.60 0 1.05 -0.20 1.05 -0.50z m1.55 -3 c0.70 -0.20 1.95 -0.75 2.85 -1.20 0.85 -0.45 2.30 -0.80 3.20 -0.80 1.10 -0.05 2.25 -0.55 3.40 -1.50 1.55 -1.35 2.05 -1.50 5.10 -1.50 1.85 0 3.50 0.25 3.65 0.50 0.15 0.30 0.50 0.50 0.70 0.50 0.55 0 2.40 -4.70 3.65 -9.45 l1.10 -4.20 -1.60 -1.40 c-2.30 -2.05 -3.10 -1.90 -3.10 0.60 0 2.20 -0.55 3.60 -2.15 5.35 -0.85 0.90 -1.55 1.10 -4.05 1.10 -4.10 0 -5.80 -1.30 -6.15 -4.65 -0.40 -3.30 -1.15 -3.75 -4.30 -2.65 -4.20 1.45 -7.55 4.05 -9.85 7.60 -1 1.55 -1 1.60 -0.05 4.35 1.45 4.15 4.40 8.55 5.45 8.10 0.45 -0.20 1.45 -0.55 2.15 -0.75z m9.95 -1.10 c1.05 -1.50 1.05 -1.55 0.10 -0.70 -0.75 0.65 -1.45 0.80 -2.35 0.60 -1.45 -0.35 -1.70 0.40 -0.35 1.15 1.25 0.75 1.30 0.70 2.60 -1.05z m-104.80 -66.75 c-0.35 -0.10 -0.50 -0.70 -0.35 -1.30 0.15 -0.90 0.05 -0.80 -0.60 0.35 -0.70 1.15 -0.75 1.50 -0.20 1.85 0.40 0.25 0.90 0.20 1.20 -0.15 0.35 -0.35 0.30 -0.60 -0.05 -0.75z m2.30 -0.70 c0 -0.25 -0.35 -0.45 -0.75 -0.45 -0.45 0 -0.60 0.30 -0.45 0.75 0.30 0.75 1.20 0.55 1.20 -0.30z m5.05 -6.25 c2.80 -3 5.85 -7.85 7.15 -11.50 0.60 -1.70 0.60 -2.25 0 -3.60 -1.35 -3.30 -7.45 -10.20 -10.75 -12.25 -1.25 -0.75 -1.40 -0.75 -2.20 0.15 -1.45 1.60 -7.15 1.35 -11 -0.45 -3.35 -1.60 -3.80 -1.55 -7.90 1.05 -2.70 1.75 -4.10 4.10 -5.85 9.85 -1.35 4.35 -1.20 9.45 0.25 11.05 0.85 0.95 0.90 0.90 2.05 -1.50 0.65 -1.40 1.75 -3.05 2.50 -3.75 1.20 -1.10 1.80 -1.25 5 -1.25 3.35 0 3.70 0.10 4.70 1.35 0.90 1.15 1.05 1.90 0.90 4.65 l-0.15 3.30 2.75 -0.20 c1.50 -0.10 3.40 0.05 4.15 0.35 1.60 0.65 2.85 3.15 2.85 5.80 l0 1.80 1.40 -0.95 c0.75 -0.55 2.60 -2.30 4.15 -3.90z m-7.50 -27.70 c0.50 -0.30 0.95 -0.80 0.95 -1.10 0 -0.35 -0.35 -0.25 -0.85 0.20 -0.50 0.45 -1.25 0.90 -1.65 1.05 -0.50 0.20 -0.55 0.30 -0.10 0.30 0.35 0.05 1.10 -0.20 1.65 -0.45z"/>
  <path d="M423.80 844.25 c-1.05 -0.95 -1.30 -1.65 -1.30 -3.45 0 -2.70 1.15 -7.90 2.55 -11.35 l0.95 -2.55 -1 -1.65 c-1.30 -2.15 -1.25 -3.30 0.25 -5.55 0.70 -1 1.75 -3.45 2.30 -5.40 1.10 -3.65 4.95 -18.75 4.95 -19.40 0 -0.25 -2.80 -0.40 -6.25 -0.40 -6.90 0 -18.70 -0.90 -19.50 -1.50 -0.25 -0.20 -1.70 -0.65 -3.15 -1.05 -4.85 -1.20 -6.10 -3.50 -4.10 -7.45 1.25 -2.40 3.05 -3.70 4.80 -3.35 0.90 0.15 1.45 -0.05 2 -0.90 1.15 -1.75 2.80 -2.25 6.75 -1.90 3.10 0.25 3.85 0.50 4.95 1.65 1.25 1.35 3.90 2.90 6.90 4 2.55 1 13.30 -0.35 20.65 -2.50 4.35 -1.30 6.75 -1.30 7.55 0 0.50 0.75 1.20 1 2.75 1 3.20 0 7.15 -1.05 7.70 -2.10 0.65 -1.25 3.10 -2.40 5.05 -2.40 3.95 -0.05 15.95 -2.60 35.35 -7.50 0.95 -0.25 2.40 -0.75 3.25 -1.15 0.85 -0.40 3.50 -1.65 5.95 -2.80 3.35 -1.60 4.95 -2.05 6.95 -2.05 2.35 0 6.20 -1.15 10.90 -3.15 1.65 -0.75 4 -2.90 4 -3.70 0 -0.90 1.90 -2 4.20 -2.45 1.45 -0.25 2.90 -1.20 5.65 -3.75 3.45 -3.20 3.85 -3.45 5.95 -3.45 2.60 0 4.75 -1.30 9.35 -5.70 1.60 -1.55 3.30 -2.80 3.85 -2.80 1.45 0 4.90 -4.30 5.85 -7.35 0.65 -2 1.25 -2.90 2.25 -3.45 1.95 -1 3.75 -0.85 4.80 0.35 0.45 0.60 1.80 1.45 2.95 1.95 4.10 1.80 4.75 5.45 1.70 9.60 -2.75 3.80 -13.95 13.75 -19.40 17.30 l-5.20 3.35 0.35 2.90 c0.20 1.85 0.10 3.40 -0.30 4.35 -0.55 1.35 -0.30 1.95 4.20 9.90 6.70 11.85 10.05 19.25 9.95 22.10 -0.05 1.85 -0.35 2.50 -1.60 3.60 -0.85 0.80 -2.05 1.40 -2.65 1.40 -0.60 0 -3.20 -1.15 -5.85 -2.55 -3.55 -1.90 -5.10 -2.45 -6.10 -2.25 -2.30 0.45 -4.35 -0.60 -6.05 -3.15 -2.45 -3.55 -5.25 -6.95 -13.25 -15.85 -6.05 -6.70 -7.55 -8.15 -8.40 -7.90 -0.85 0.25 -7.70 3.10 -12 4.95 -13.35 5.85 -36.40 11.75 -56.05 14.30 l-4.50 0.55 -0.65 3.10 c-1.55 7.45 -5.70 22.75 -6.70 24.80 -0.90 1.85 -1.40 2.30 -2.85 2.60 -1.05 0.20 -2.25 0.95 -3.05 1.90 -2.75 3.25 -10.85 14.85 -11.20 16.05 -1 3.35 -4.05 4.40 -6.45 2.20z m17.35 -30.65 c0.90 -0.95 4.30 -14.35 4.50 -17.50 0.10 -1.80 0.05 -1.85 -1.65 -2 -2.60 -0.20 -3.40 0.65 -4.15 4.80 -0.70 3.65 -0.70 3.70 0.45 5.10 1.50 1.75 1.50 2.45 0 6.60 -1.10 3.05 -1.20 3.90 -0.30 3.90 0.20 0 0.70 -0.40 1.15 -0.90z m116.50 -24.70 c0.05 -0.15 -1.70 -3.55 -3.95 -7.45 -2.25 -3.95 -4.90 -8.70 -5.90 -10.55 -1 -1.90 -2.10 -3.40 -2.40 -3.40 -0.80 0 -7.05 2.50 -7.60 3.05 -0.25 0.25 0.35 1.30 1.50 2.55 1.05 1.20 3.15 3.65 4.65 5.55 2.40 2.95 2.95 3.35 4.45 3.35 1.75 0 2.40 0.55 6.30 5.20 1.70 2.10 2.70 2.65 2.95 1.70z"/>
  <path d="M438.25 692.50 c-0.15 -0.30 0.10 -0.55 0.60 -0.55 1.60 -0.15 -4.95 -0.85 -10.95 -1.20 -4.40 -0.30 -6.10 -0.20 -6.65 0.25 -0.75 0.60 -3.50 0.55 -16.50 -0.30 -4.10 -0.30 -4.40 -0.25 -3.80 0.50 0.60 0.70 0.55 0.80 -0.35 0.80 -1.20 0 -1.90 -0.80 -1 -1.15 0.35 -0.10 -0.90 -0.25 -2.85 -0.30 -9 -0.25 -15.80 -1.95 -24.70 -6.10 -11.55 -5.45 -17.65 -11.45 -25.20 -24.75 -1.25 -2.25 -3.40 -5.55 -4.75 -7.30 -1.35 -1.75 -3 -4.70 -3.75 -6.50 -0.70 -1.80 -3.85 -7.75 -6.90 -13.20 -7.80 -13.75 -9.40 -16.80 -11.30 -21.65 -2.40 -6.15 -3.95 -12.50 -4.85 -19.80 -0.15 -1.10 -0.40 -3.25 -0.55 -4.75 -0.20 -1.50 -0.95 -4.20 -1.70 -6 -0.75 -1.80 -1.90 -5.40 -2.50 -7.95 -2 -8.15 -1.50 -30.55 1 -47.30 0.25 -1.90 0.80 -6.50 1.20 -10.15 0.50 -4.85 0.95 -7 1.65 -8 1.15 -1.65 2 -4.15 1.75 -4.95 -0.15 -0.35 -0.90 -0.65 -1.70 -0.65 -1.85 0 -3.95 -2 -3.95 -3.70 0 -2.50 4 -11.50 8.60 -19.45 l2 -3.45 -1.15 -1.20 c-1.85 -2 -1.45 -4.05 1.60 -8.45 4.65 -6.75 10.70 -13.40 29.40 -32.40 5.10 -5.20 10.40 -10.15 11.80 -11.05 4.20 -2.80 13.65 -7.30 15.25 -7.30 0.85 0 2.05 0.35 2.75 0.80 1.20 0.80 2.10 0.65 13.50 -2.20 0.90 -0.25 1.75 -0.90 2.10 -1.70 1.15 -2.35 1.95 -2.65 7.60 -2.70 2.90 0 12.15 -0.35 20.55 -0.75 8.40 -0.35 22.10 -0.65 30.50 -0.65 14.10 0 15.55 0.10 19.45 1.10 4.85 1.30 7.40 2.65 11.35 6.10 2.20 1.95 3.30 2.50 5.15 2.75 7 0.95 15.95 5.05 26.45 12.15 3.95 2.65 7.55 5.10 8 5.35 9.05 5.55 13.80 9.05 17.85 13.25 5.05 5.20 12.60 11.10 13.75 10.75 0.85 -0.25 4 1.50 4 2.20 0 0.30 -0.35 0.70 -0.75 0.90 -0.60 0.35 0.05 1.10 2.75 3.30 1.90 1.55 3.60 2.85 3.75 2.85 0.60 0 0.15 -2.55 -0.50 -2.80 -1.25 -0.50 -0.85 -1.35 0.50 -1 0.70 0.20 1.25 0.10 1.25 -0.15 0 -0.75 3.80 -1.20 5 -0.55 1.40 0.75 4.80 6.10 7.70 12.10 1.30 2.70 4.45 8.35 7.05 12.60 4.80 8 7.60 14.25 8.80 19.65 0.40 1.90 0.80 2.90 1.05 2.50 0.20 -0.30 0.25 0.25 0.05 1.25 -0.15 1 -0.10 2.25 0.10 2.75 0.25 0.50 0.35 1.10 0.30 1.30 -0.15 0.80 1.10 4.35 1.60 4.35 0.25 0 0.30 -0.35 0.15 -0.80 -0.15 -0.45 -0.10 -0.60 0.20 -0.45 0.30 0.20 0.50 1.40 0.45 2.65 -0.05 1.30 0.35 4.20 0.95 6.45 1.20 4.40 3.85 21.40 4.40 27.90 0.55 6.80 -1.55 22.20 -5.25 38.50 -1.35 5.80 -1.75 9.70 -1.15 11 2.05 4.55 -1.20 15.35 -8.40 27.75 -1.05 1.80 -1.95 3.50 -2 3.75 -0.05 0.30 -0.60 1.15 -1.15 1.95 -0.60 0.80 -0.80 1.30 -0.45 1.10 0.90 -0.55 0.70 0.25 -0.35 1.40 -0.50 0.60 -1.75 2.95 -2.75 5.25 -3.45 8.05 -6.55 11.50 -13.35 14.70 -1.85 0.90 -3.50 2.05 -3.75 2.60 -0.25 0.55 -1 1.05 -1.70 1.10 -0.70 0.05 -0.90 0 -0.35 -0.15 1.25 -0.40 1.05 -1.15 -0.25 -0.95 -1.60 0.15 -5.45 1.80 -6.50 2.70 -0.45 0.40 -1.35 0.80 -2 0.90 -0.65 0.10 -1.40 0.45 -1.65 0.80 -0.30 0.30 -0.85 0.65 -1.25 0.75 -1.20 0.25 -1.80 1.10 -0.80 1.10 2 0 -0.25 1.30 -3.30 1.90 -1.75 0.35 -4.15 0.95 -5.40 1.40 -1.25 0.45 -5.40 1.65 -9.25 2.70 -3.85 1.05 -8.25 2.40 -9.75 3 -3 1.20 -8.95 2.85 -12.50 3.50 -1.25 0.20 -4.50 0.85 -7.25 1.40 -2.75 0.55 -6.85 1.30 -9.10 1.60 -3.85 0.55 -4.15 0.70 -5.10 2.25 -1.40 2.40 -2.90 3.20 -7.10 3.80 -5.30 0.75 -31.20 1.15 -37.45 0.55 -4.25 -0.40 -5.50 -0.35 -6.60 0.20 -0.85 0.45 -1.45 0.50 -1.65 0.20z m29.50 -10.60 c1.80 -0.60 1.95 -0.80 2.05 -2.60 0 -1.40 0.40 -2.25 1.20 -2.90 1.40 -1.15 4.35 -1.15 5.65 0 1.60 1.45 9.70 0.55 14.60 -1.65 13.40 -6.05 20.05 -8.95 23.25 -10.25 1.50 -0.60 3.20 -1.30 3.75 -1.50 0.55 -0.25 1.45 -0.55 2 -0.75 0.55 -0.20 3.50 -1.30 6.50 -2.40 3.05 -1.10 6.55 -2.10 7.80 -2.20 2.05 -0.20 2.35 -0.10 3.15 1.10 0.60 0.90 0.80 2 0.70 3.10 -0.20 1.70 -0.15 1.75 1.30 1.50 2.70 -0.45 17.45 -5.75 20.35 -7.35 3.30 -1.75 3.70 -2.20 4.10 -4.35 l0.30 -1.55 -3.95 0.25 c-3.85 0.30 -4.05 0.25 -5.25 -1.05 -1.35 -1.45 -1.55 -2.80 -0.75 -4.35 0.65 -1.20 3.05 -2.45 4.70 -2.45 1.55 0 8.85 -3.70 11.80 -6 5.70 -4.45 12.15 -10.25 13.25 -11.95 0.70 -1.05 1.90 -4.45 2.70 -7.75 1.35 -5.30 1.40 -6.05 0.75 -7 -1 -1.45 -0.95 -1.95 1.50 -12 4.45 -18.10 4.95 -23.40 4.10 -42.05 -0.15 -3 -0.40 -8.75 -0.55 -12.75 -0.35 -7.45 -1.50 -19.20 -2 -20.05 -0.20 -0.25 -0.70 -0.45 -1.15 -0.45 -2.30 -0.05 -3.45 -2 -10.15 -17.10 -2.20 -5.05 -4.95 -10.85 -6.05 -12.90 -3.35 -6.35 -9.25 -13.95 -15.65 -20.30 -7.15 -7.05 -10.60 -9.85 -15.75 -12.75 -2.05 -1.15 -5.95 -3.40 -8.65 -5 -2.70 -1.65 -4.95 -2.95 -5.05 -2.95 -0.40 0 -5.80 -3.45 -8.40 -5.40 -1.80 -1.30 -3.40 -2.10 -4.30 -2.10 -0.75 0 -1.85 -0.35 -2.40 -0.80 -0.90 -0.75 -0.90 -0.75 0.40 -0.50 0.70 0.15 1.70 0.45 2.25 0.60 0.95 0.30 0.80 0.15 -3.55 -3.45 -2.60 -2.15 -8.25 -5.55 -12.80 -7.70 -5.30 -2.45 -11.10 -5.40 -13.05 -6.60 -1.55 -0.95 -4.95 -1.45 -4.95 -0.75 0 0.15 1.50 1.90 3.30 3.85 4.15 4.50 4.95 5.95 4.25 7.90 -0.35 1.10 -0.35 1.40 0.05 1.15 0.35 -0.20 0.40 -0.15 0.20 0.20 -0.20 0.35 -0.05 0.60 0.45 0.60 0.45 0 0.65 0.25 0.50 0.50 -0.25 0.40 -0.55 0.35 -1.05 -0.05 -0.55 -0.45 -0.90 -0.45 -1.30 -0.05 -1.20 1.20 -3.70 0.65 -5.90 -1.15 -1.15 -0.95 -2.50 -1.75 -3 -1.75 -0.55 0 -1.60 -0.60 -2.35 -1.30 -1.10 -1 -1.15 -1.15 -0.30 -0.75 3.75 1.85 3.75 1.55 0.10 -2.45 -1.95 -2.20 -3.85 -4.05 -4.15 -4.05 -0.30 -0.05 -0.75 -0.10 -1.05 -0.20 -0.25 -0.05 -1 -0.15 -1.55 -0.15 -1.70 -0.15 -3.20 -1.70 -3.45 -3.55 -0.10 -0.90 -0.25 -1.75 -0.35 -1.80 -0.10 -0.10 -3.20 -0.65 -6.90 -1.20 -3.70 -0.60 -7.85 -1.30 -9.25 -1.55 -12.10 -2.40 -30.15 -3.75 -34.50 -2.55 -6.30 1.65 -17.50 4.35 -29.75 7.10 -7.30 1.65 -11.25 3.60 -9.50 4.70 0.30 0.15 0.50 1.10 0.50 2.05 0 2.35 -1.80 4 -4.65 4.30 -1.20 0.15 -2.80 0.60 -3.65 1.05 -2.45 1.35 -4.35 2.25 -6.20 2.90 -2.35 0.85 -7.50 5.80 -7.50 7.15 0 1.55 -1.30 3.20 -3.40 4.25 -2.25 1.15 -4.80 3.80 -9.70 10.05 -5.45 6.95 -6.20 8.25 -7.85 13.85 -2.70 9.25 -5.75 26.90 -6.15 35.40 -0.10 3.20 0 3.70 1.30 5.35 1.05 1.40 1.30 2.15 1 3 -0.20 0.65 -0.35 1.30 -0.30 1.55 0.05 0.20 -0.10 0.35 -0.35 0.35 -0.85 0 -1.65 3.45 -1.30 5.55 0.20 1.25 0.15 1.95 -0.10 1.80 -0.70 -0.45 -2 3.70 -3 9.40 -1.25 7.10 -1.25 32.85 0 41.50 2.55 17.90 5.25 26.10 10.50 32 2.60 2.90 2.75 3.55 2.10 7.25 -0.25 1.35 0 2.50 0.95 4.65 1.15 2.70 1.35 2.85 3.40 3.15 1.20 0.20 2.25 0.30 2.35 0.25 0.35 -0.20 1.15 1.50 1.55 3.20 0.20 0.90 0.20 2.70 0 4.05 -0.40 2.60 0.15 4.40 1.80 5.75 0.80 0.65 0.85 0.55 0.55 -1.05 -0.30 -1.60 -0.25 -1.65 0.40 -0.80 0.40 0.55 1 2.30 1.30 3.95 0.60 3.10 2.85 6.60 7.55 11.75 1.10 1.20 2.20 2.80 2.45 3.55 1.15 3.35 26.60 18.20 33.90 19.80 1.05 0.20 1.90 0 3.30 -0.95 2.50 -1.70 3.85 -1.65 6.10 0.35 2.90 2.55 6.25 3.45 16.15 4.40 4.35 0.35 6 0.70 6.75 1.40 1.10 1 5.90 1.95 11.25 2.25 7.50 0.40 28.75 -0.15 30.75 -0.80z m-92.10 -5.15 c0.20 -0.50 -0.45 -1.10 -2.05 -1.90 -1.30 -0.65 -3.15 -1.70 -4.10 -2.25 -2.05 -1.30 -2.50 -1.35 -2.50 -0.40 0 0.65 2.85 2.70 6.25 4.45 1.90 1 2.10 1 2.40 0.10z m-54.15 -182 c0 -0.65 -0.25 -1.35 -0.50 -1.50 -0.60 -0.40 -2.65 4.15 -2.15 4.90 0.45 0.75 2.65 -2 2.65 -3.40z"/>
  <path d="M465.50 634.45 c-1.50 -0.30 -6.90 -0.50 -12 -0.45 -5.10 0 -11.50 -0.20 -14.25 -0.50 -2.75 -0.25 -8.90 -0.75 -13.70 -1 -6.90 -0.40 -9.40 -0.75 -12.30 -1.75 -13 -4.35 -26.35 -18.85 -37.70 -40.95 -4 -7.75 -7.50 -20.20 -7.90 -28.10 -0.30 -5.20 0.55 -11.95 2.15 -17.70 0.85 -3.05 7.95 -17.45 10.35 -21 3.20 -4.75 7 -9.10 10.30 -11.75 6 -4.75 8 -5.70 18.80 -9.05 2.50 -0.80 4.80 -1.65 5.15 -1.90 0.70 -0.50 3.65 -1.65 9.50 -3.60 3.20 -1.05 4.50 -1.20 11.25 -1.20 8.80 0 21.20 0.80 24.10 1.55 1.10 0.30 3.30 1.40 4.90 2.50 1.60 1.05 3.45 1.95 4.10 1.95 2.60 0 11.20 2.50 14.80 4.30 1.25 0.60 3.45 2.10 4.95 3.30 1.45 1.20 4.15 3.30 6 4.65 7.45 5.55 8.90 6.75 12 10.10 1.80 1.90 3.75 4.50 4.30 5.70 1.50 3.10 2.70 5.80 2.70 6.10 0 0.15 1.20 3.05 2.70 6.45 1.50 3.40 3.10 7.85 3.55 9.90 0.45 2.05 1.30 5.55 1.85 7.75 1.50 5.80 1.85 23.15 0.70 31.20 -1.10 7.30 -3.20 13.75 -6.10 18.70 -3.05 5.25 -8.35 10.75 -12.30 12.85 -1.75 0.95 -4.20 2.45 -5.55 3.35 -4 2.80 -10.35 6.15 -14.30 7.45 -4.30 1.45 -13.25 2 -18.05 1.15z"/>
  <path d="M346.60 630.90 c-0.05 -1.35 -0.10 -2.45 -0.05 -2.50 0 -0.10 -0.35 -1 -0.75 -2 -0.95 -2.20 -0.95 -2.40 -0.35 -2.40 0.70 0 1.65 4.95 1.45 7.25 -0.25 2 -0.25 2 -0.30 -0.35z"/>
  <path d="M588.50 639.15 c0 -0.25 0.35 -0.90 0.75 -1.45 0.60 -0.80 0.70 -0.80 0.75 -0.15 0 0.45 -0.35 1.10 -0.75 1.45 -0.40 0.35 -0.75 0.40 -0.75 0.15z"/>
  <path d="M592.50 631.90 c0 -0.35 0.25 -1 0.50 -1.40 0.40 -0.60 0.50 -0.45 0.50 0.65 0 0.75 -0.20 1.35 -0.50 1.35 -0.25 0 -0.50 -0.30 -0.50 -0.60z"/>
  <path d="M581.65 475.65 c-0.80 -0.30 -0.85 -1.65 -0.15 -1.65 0.55 0 1.30 1.40 0.95 1.70 -0.10 0.10 -0.50 0.05 -0.80 -0.05z"/>
  <path d="M671.70 405.25 c-0.85 -0.65 -0.85 -0.70 -0.10 -0.75 0.45 0 1 0.25 1.15 0.55 0.55 0.85 0 1 -1.05 0.20z"/>
 </g>
 <g fill="#f7e698">
  <path d="M237.40 312.15 c-0.90 -0.20 -1.25 -1.90 -0.50 -2.25 0.80 -0.30 4.50 -5.70 6.55 -9.45 1.15 -2.10 3 -6.15 4.20 -9 1.20 -2.85 3.90 -8.10 6 -11.65 3.25 -5.45 3.85 -6.85 3.85 -8.65 0 -2.65 0.60 -3.95 2.65 -5.75 2.10 -1.85 5.05 -2.55 9.95 -2.35 3.35 0.15 4.70 0.50 7.15 1.65 1.80 0.90 3.70 1.45 4.75 1.40 0.95 0 2.65 0.35 3.75 0.85 1.10 0.50 4 1.65 6.45 2.50 2.45 0.85 4.70 1.85 5 2.20 0.30 0.40 1.55 1.10 2.75 1.60 1.20 0.55 2.80 1.60 3.55 2.35 2 2 3.50 2.15 11.10 1.30 8.30 -0.95 11.20 -2.10 14.15 -5.65 1.10 -1.30 4.70 -5.10 8 -8.50 l6.05 -6.10 1.45 -8.05 1.45 -8.10 1.80 0 c3.20 0 4.05 -1.50 6.90 -12 3.25 -11.80 4.35 -16.70 5.60 -24.75 1.35 -8.60 1.80 -10.15 3.45 -11.80 1.20 -1.15 1.50 -2.05 1.95 -5.50 0.25 -2.25 0.80 -4.25 1.10 -4.45 0.35 -0.20 0.50 -0.65 0.30 -0.95 -0.20 -0.30 -0.05 -0.45 0.35 -0.25 0.40 0.15 2.55 -0.20 4.85 -0.80 2.65 -0.70 5.25 -1 7.40 -0.90 l3.30 0.15 0.85 4.10 c1.65 7.60 5.65 16.75 8.95 20.40 0.85 0.95 1.65 2.70 2.15 4.80 1.10 4.65 2.50 7.40 5.10 9.95 1.25 1.25 2.25 2.65 2.25 3.25 0 0.60 0.45 2.05 1.05 3.20 0.60 1.30 1.15 3.75 1.35 6.25 0.30 3.65 0.45 4.05 1.35 3.90 5.90 -0.75 7.60 -0.65 10.70 0.40 1.75 0.60 4.20 1.75 5.40 2.55 l2.20 1.55 4.35 -1.75 c9.90 -4 9.70 -3.95 23.60 -5.85 7.95 -1.05 11.40 -2.90 13.50 -7.30 0.60 -1.25 1.70 -2.60 2.40 -3.10 0.65 -0.45 1.55 -1.60 1.95 -2.60 1.20 -2.85 3.05 -4.50 5.15 -4.50 2.60 0 4.15 -1.80 4.35 -4.90 0.05 -1.30 0.10 -2.60 0.10 -2.85 0.05 -0.30 1.25 -1.90 2.70 -3.60 4.65 -5.50 5.95 -7.20 7.35 -9.70 1.60 -2.95 1.40 -3.05 4.85 3.80 3.60 7.10 8.40 15.75 9.65 17.35 0.55 0.75 3.15 5.75 5.75 11.10 5.55 11.45 7.55 14.75 13.15 21.70 2.40 3 4.05 5.45 3.90 5.85 -0.35 0.90 -8.35 6.80 -13.30 9.85 -5.95 3.60 -13.80 7.65 -19.70 10.15 l-5.45 2.25 -1.75 -1.35 -1.75 -1.30 -2.50 1.40 c-3.15 1.75 -6.85 2.75 -10.50 2.75 -2.80 0 -4.75 0.60 -5.40 1.65 -0.20 0.30 -0.80 0.15 -1.50 -0.35 -1.70 -1.15 -3 -1 -6.80 0.90 -3.05 1.50 -5.50 2.40 -14.10 5.05 -2.60 0.80 -2.70 0.80 -3.65 -0.20 -1.10 -1.25 -1.70 -1.30 -4.05 -0.30 -1.75 0.70 -3.10 2.30 -2.55 2.90 0.15 0.15 -0.10 0.20 -0.65 0.15 -0.50 -0.10 -1 0 -1.15 0.20 -0.30 0.45 -6.20 1.80 -11.25 2.55 -3.30 0.50 -7.70 0.40 -12.65 -0.35 -2.45 -0.35 -4.15 0.50 -5.30 2.70 -1.20 2.35 -5.55 3.20 -26.30 5.10 -3.15 0.30 -7.75 0.75 -10.25 1 -2.45 0.25 -8.20 0.70 -12.75 1 -14.60 0.95 -26.70 2.95 -39.75 6.45 -2.10 0.60 -3.35 0.70 -13.25 1.55 -3.45 0.30 -8.40 0.75 -11 1 -13.80 1.45 -30.15 3.10 -33.25 3.35 -3.40 0.25 -3.55 0.20 -4.95 -1.30 -2.20 -2.30 -4.65 -2.20 -7.50 0.45 -2.15 2 -3.65 2.40 -6.40 1.65z"/>
  <path d="M225.10 299.20 c-0.90 -1 -1.55 -5 -1.35 -8.20 0.50 -6.35 3.60 -11.80 9.65 -16.80 3.70 -3.05 8 -5.70 9.30 -5.70 1.55 0 0.65 2.95 -1.50 4.60 -0.60 0.50 -4.20 6.60 -7.95 13.50 -3.75 6.95 -7 12.80 -7.15 13 -0.20 0.15 -0.65 0 -1 -0.40z"/>
  <path d="M306.20 262.20 l0.05 -2.30 2 0.35 c2.55 0.40 4.45 1.30 4.65 2.25 0.15 0.95 -2.45 2 -5 2 l-1.75 0 0.05 -2.30z"/>
 </g>
 <g fill="#f8d4c8">
  <path d="M351.60 1078.70 c-0.30 -0.35 -0.60 -0.85 -0.60 -1.05 -0.05 -0.20 -1.30 -1.30 -2.80 -2.40 -3.75 -2.65 -9.50 -8.40 -12.05 -12 -3.70 -5.20 -9.10 -16.60 -8.30 -17.45 0.15 -0.15 0.05 -0.55 -0.25 -0.95 -0.30 -0.35 -0.65 -1.45 -0.75 -2.40 -0.10 -1 -0.35 -2.05 -0.55 -2.35 -0.20 -0.35 -0.45 -1.75 -0.55 -3.20 -0.10 -1.45 -0.55 -4.10 -0.95 -5.90 -0.40 -1.80 -0.85 -4.15 -1 -5.25 -0.10 -1.10 -0.35 -2.35 -0.50 -2.75 -0.15 -0.40 -0.40 -1.95 -0.55 -3.40 -0.15 -1.50 -0.40 -2.90 -0.55 -3.20 -0.15 -0.25 -0.30 -1.95 -0.30 -3.70 0 -1.75 -0.15 -3.20 -0.35 -3.20 -0.25 0 -0.55 -1.50 -0.75 -3.35 -0.20 -1.85 -0.90 -5.75 -1.60 -8.65 -0.70 -2.90 -1.30 -5.60 -1.35 -6 -0.10 -0.40 -0.30 -1 -0.50 -1.35 -0.20 -0.30 -0.55 -1.55 -0.85 -2.75 -0.25 -1.20 -1.10 -4.60 -1.90 -7.65 -0.80 -3 -1.65 -6.35 -1.80 -7.40 -0.20 -1.05 -0.55 -1.75 -0.80 -1.60 -0.25 0.15 -0.35 -0.20 -0.25 -0.75 0.10 -0.55 -0.05 -1.65 -0.30 -2.40 -0.30 -0.90 -0.30 -1.85 0 -2.65 l0.45 -1.20 0.25 1.25 c0.95 4.15 4.15 17.25 6.50 26.50 1.50 5.90 3 12.80 3.30 15.25 1.20 8.95 1.90 13.60 3.55 23 0.25 1.40 0.90 5.15 1.45 8.40 2.10 12 5.85 19.80 13.95 29.25 3.15 3.65 10.30 9.35 12.30 9.90 0.90 0.20 1.30 0.60 1.20 1.15 -0.20 1 -1.95 1.15 -2.80 0.25z"/>
  <path d="M637.90 1055.15 c-0.50 -0.10 -0.90 -0.65 -0.90 -1.20 0 -1.20 0.90 -1.25 1.35 -0.05 0.20 0.45 0.55 1 0.85 1.20 0.60 0.40 0.10 0.45 -1.30 0.05z"/>
  <path d="M616.95 1040.15 c-0.50 -0.55 -0.40 -0.60 0.25 -0.35 0.70 0.30 0.80 0.10 0.50 -1.10 l-0.35 -1.45 1.35 1.20 c0.70 0.70 1.30 1.40 1.30 1.60 0 0.70 -2.50 0.80 -3.05 0.10z"/>
  <path d="M444.20 1036.15 c0.15 -1.05 0.30 -2.85 0.30 -4 0 -1.80 0.15 -2.15 1 -2.15 0.85 0 1 0.35 1 2.45 0 3 -0.85 5.55 -1.85 5.55 -0.60 0 -0.70 -0.40 -0.45 -1.85z"/>
  <path d="M711.10 1016.45 c0.05 -1.45 0.20 -2.35 0.30 -2 0.40 1.20 2.65 -6.05 3.90 -12.45 1.35 -7.30 1.55 -14.10 0.45 -20.75 -0.85 -5.50 -2.70 -12 -4.50 -16 -2 -4.45 -2.30 -5.25 -1.75 -5.25 1.20 0 5.30 11.10 6.80 18.50 1.10 5.35 1.25 16.20 0.40 21.95 -0.60 3.75 -4.70 17.70 -5.45 18.50 -0.10 0.10 -0.15 -1.05 -0.15 -2.50z"/>
  <path d="M601.90 1017.15 c-0.30 -0.80 -1.15 -2.75 -1.90 -4.40 -2.95 -6.50 -4.30 -10.80 -5.75 -17.75 -0.80 -3.90 -3.50 -11.30 -4.50 -12.40 -0.50 -0.55 -9.05 -3.05 -13.70 -4 -0.95 -0.20 -1.80 -0.65 -1.95 -1 -0.25 -0.80 0.95 -0.75 3.25 0.15 2.70 1.05 9.40 2.75 10.80 2.75 0.65 0 1.55 0.40 2 0.90 1.35 1.50 4.30 9.60 5.40 14.80 1.20 5.50 3.40 12.25 5.25 15.90 1.10 2.15 2.35 6.40 1.90 6.40 -0.15 0 -0.45 -0.60 -0.80 -1.35z"/>
  <path d="M434.45 1002.65 c-0.80 -0.20 -1.45 -3.65 -3.40 -17.40 -0.65 -4.50 -0.20 -5.10 3.30 -4.30 3.35 0.75 6.30 1.25 6.90 1.15 0.30 -0.05 0.10 0.20 -0.45 0.60 -0.60 0.50 -1.25 0.60 -1.75 0.35 -0.45 -0.25 -1.80 -0.55 -3.05 -0.70 -1.25 -0.15 -2.70 -0.45 -3.20 -0.65 -0.80 -0.30 -0.85 -0.05 -0.65 3.10 0.35 6.30 1.45 12.20 2.15 12.20 0.40 0 0.75 0.30 0.75 0.65 0.15 1.05 0.35 5.35 0.25 5.30 0 -0.05 -0.40 -0.15 -0.85 -0.30z"/>
  <path d="M478.50 976 c1 -0.65 2 -0.65 2 0 0 0.30 -0.60 0.50 -1.35 0.50 -1.10 0 -1.25 -0.10 -0.65 -0.50z"/>
  <path d="M705.50 908.25 c0 -1.10 0.20 -1.70 0.50 -1.50 0.30 0.15 0.50 -0.20 0.50 -0.75 0 -0.60 0.45 -3.40 1.05 -6.15 1.30 -6.35 1.15 -16.25 -0.35 -22.85 l-0.95 -4.25 -0.30 2.75 c-0.30 2.65 -0.30 2.65 -0.25 -0.75 0.05 -1.95 0.25 -3.50 0.55 -3.50 0.30 0 1.05 1.90 1.70 4.25 1.05 3.75 1.20 5.35 1.20 13.50 0.05 8.20 -0.10 9.75 -1.10 13.50 -0.65 2.35 -1.30 4.85 -1.40 5.65 -0.40 2.05 -1.15 2.15 -1.15 0.10z"/>
  <path d="M246.85 904.15 c-0.20 -0.15 -0.35 -0.60 -0.35 -1 0 -0.85 1.30 -0.85 1.65 0.05 0.40 1.05 -0.55 1.75 -1.30 0.95z"/>
  <path d="M252.40 860.60 c-2.25 -1.75 -7.15 -7.10 -8.75 -9.45 -0.40 -0.65 -0.95 -1 -1.20 -0.85 -0.25 0.15 -0.30 -0.10 -0.15 -0.50 0.15 -0.45 0.35 -0.80 0.40 -0.80 0.05 0 2.20 2.40 4.80 5.30 2.75 3.20 5.30 5.60 6.30 6 1.15 0.50 1.60 0.95 1.40 1.45 -0.20 0.40 -0.35 0.75 -0.40 0.75 0 0 -1.10 -0.85 -2.40 -1.90z"/>
  <path d="M689.55 845.40 c-0.05 -0.50 -0.35 -0.90 -0.70 -0.90 -0.40 0 -0.70 -0.30 -0.75 -0.60 0 -0.35 -0.20 -1.85 -0.40 -3.25 -0.30 -2.20 -0.20 -2.65 0.45 -2.65 1 0 1.30 0.85 0.95 2.90 -0.15 0.90 0 1.60 0.30 1.60 0.75 0 1 1.05 0.55 2.50 -0.20 0.80 -0.35 0.95 -0.40 0.40z"/>
  <path d="M687.05 833.40 c0 -1.20 0.20 -2.60 0.45 -3.15 0.40 -0.90 0.45 -0.85 0.45 0.40 0.05 0.75 0.30 1.35 0.55 1.35 0.30 0 0.50 0.80 0.50 1.75 0 1.40 -0.20 1.75 -1 1.75 -0.85 0 -1 -0.30 -0.95 -2.10z"/>
  <path d="M686.30 813.05 c-0.45 -2.45 -1.40 -5.85 -2.05 -7.60 -1.25 -3.10 -1.60 -5.45 -0.85 -5.45 0.20 0 2.15 0.35 4.35 0.75 2.20 0.40 5.30 0.85 6.90 1 1.55 0.20 2.85 0.55 2.85 0.85 0 0.60 -6.35 0.05 -10.35 -0.85 -1.55 -0.35 -2.80 -0.45 -2.95 -0.15 -0.15 0.25 0.30 1.95 1 3.80 1.85 4.80 3.40 12.10 2.55 12.10 -0.40 0 -0.95 -1.60 -1.45 -4.45z"/>
  <path d="M722.70 796.40 c-0.20 -0.35 -0.15 -0.40 0.20 -0.20 0.35 0.20 0.60 0.15 0.60 -0.15 0 -0.25 1.75 -1.70 3.90 -3.20 2.10 -1.50 4.15 -3.05 4.55 -3.50 0.75 -0.90 2.55 -1.15 2.55 -0.35 0 0.30 -0.30 0.50 -0.65 0.50 -0.35 0 -1.15 0.50 -1.75 1.15 -1.25 1.30 -2.45 2.35 -2.80 2.35 -0.40 0 -4.75 3 -5.05 3.55 -0.40 0.60 -1.10 0.55 -1.55 -0.15z"/>
  <path d="M236 791.05 c0 -0.40 -0.30 -1.10 -0.65 -1.50 -0.35 -0.45 -0.95 -1.45 -1.25 -2.30 l-0.60 -1.50 1.35 1.60 c0.80 0.85 1.80 2.20 2.25 3 0.80 1.40 0.80 1.45 -0.15 1.45 -0.50 0 -0.95 -0.35 -0.95 -0.75z"/>
  <path d="M244.35 784.50 c0.15 -0.55 0.50 -1 0.80 -1 0.30 0 0.40 -0.15 0.25 -0.30 -0.20 -0.15 0.55 -1.10 1.65 -2.10 1.05 -1 1.95 -2.15 1.95 -2.50 0 -0.35 0.35 -0.75 0.75 -0.90 0.40 -0.20 1.50 -1.05 2.40 -1.95 0.85 -0.85 1.90 -1.70 2.30 -1.80 1.50 -0.50 -0.10 -3.05 -5.50 -8.80 -9.60 -10.15 -14.85 -18.10 -21.10 -31.90 -1.75 -3.85 -4.50 -9 -6.05 -11.50 -2.75 -4.35 -7.75 -14 -8 -15.35 -0.05 -0.35 -0.25 -0.95 -0.50 -1.30 -1 -1.60 -7.25 -22.15 -8.50 -27.85 -0.05 -0.25 -0.35 -1 -0.70 -1.55 -0.30 -0.60 -0.40 -1.20 -0.20 -1.40 0.15 -0.20 0.05 -0.50 -0.25 -0.70 -0.60 -0.40 -3.30 -7.60 -2.85 -7.60 0.20 0 0.10 -0.30 -0.20 -0.65 -0.50 -0.60 -3.65 -9.85 -3.85 -11.35 -0.05 -0.40 -0.25 -1.10 -0.40 -1.50 -0.15 -0.40 -0.30 -1.10 -0.30 -1.50 0 -0.40 -0.45 -2.35 -1 -4.35 -0.55 -2 -1.10 -4.65 -1.25 -5.90 -0.15 -1.30 -0.40 -2.50 -0.55 -2.70 -0.10 -0.25 -0.35 -1.15 -0.45 -2.10 -0.15 -0.95 -0.75 -3.60 -1.30 -5.95 -1.65 -6.80 -3.45 -15.60 -3.75 -17.75 -0.10 -1.10 -0.40 -3.10 -0.65 -4.50 -0.25 -1.35 -0.35 -2.80 -0.25 -3.15 0.15 -0.35 0 -1.25 -0.30 -2 -0.30 -0.75 -0.65 -3.05 -0.75 -5.10 -0.25 -3.65 -0.60 -5.15 -2.75 -12.25 -1.25 -4.05 -1.20 -3.80 -2.50 -8.75 -0.50 -2.05 -0.85 -3.95 -0.70 -4.15 0.15 -0.20 0 -0.65 -0.25 -1 -0.25 -0.35 -0.95 -3.20 -1.50 -6.35 -0.60 -3.15 -1.65 -9 -2.35 -12.90 -0.75 -3.95 -1.20 -7.30 -1.05 -7.45 0.15 -0.15 0.05 -0.75 -0.25 -1.30 -0.55 -1 -0.75 -3.35 -1.35 -19.10 -0.20 -5.20 -0.50 -9.75 -0.70 -10.05 -0.20 -0.30 -0.50 -1.30 -0.65 -2.25 -0.15 -0.95 -0.60 -3.15 -1 -4.95 -0.40 -1.80 -0.90 -5.05 -1.10 -7.25 -0.15 -2.20 -0.45 -4.10 -0.70 -4.25 -0.50 -0.35 0.40 -8.55 1 -9.15 0.40 -0.40 0.55 1.45 0.55 6.05 0 6.70 0.85 13.95 2.25 19.30 0.95 3.60 1.15 6 1.50 17.30 0.25 8.75 0.90 14.65 2.75 23.85 0.50 2.70 1.40 7.65 2 11 1.05 6.30 2.60 12.65 5.70 23.65 1 3.60 2 8.55 2.30 11.75 0.30 3.05 0.75 6.75 1 8.25 1.55 9.50 2.25 13 3.75 19.25 0.95 3.85 1.95 8.35 2.25 10 0.30 1.65 0.75 3.90 1 5 0.20 1.10 0.70 3.35 1 5 0.85 4.45 3.75 14.15 6.35 21.25 3.65 10.10 4 11.05 5.15 15.50 4.15 16.05 9.30 28.65 16.10 39.50 1.85 2.90 3.80 6.45 4.35 7.85 2.10 5.35 6.90 14.55 10.15 19.40 3.35 5.05 5.60 7.80 13.55 16.55 2.65 2.90 4.35 5.20 4.35 5.85 0 0.75 -1.05 1.95 -3.05 3.55 -1.70 1.35 -4.30 4 -5.80 5.90 -1.50 1.85 -2.85 3.40 -2.90 3.40 -0.10 0 -0.05 -0.45 0.10 -1z"/>
  <path d="M750.75 761.50 c0.10 -0.70 0.60 -3.15 1.10 -5.50 1.20 -5.85 1.20 -17.90 0 -22.85 -2.30 -9.65 -6.40 -17.35 -12.85 -24.10 -2.50 -2.60 -4.40 -4.80 -4.25 -4.95 0.30 -0.30 3.85 2.90 5.95 5.35 0.85 1 1.65 1.90 1.80 2.05 0.15 0.15 1.10 1.40 2.05 2.75 6.65 9.35 9.90 20.60 9.30 32.40 -0.25 6 -1.50 12.75 -2.65 14.85 l-0.70 1.25 0.25 -1.25z"/>
  <path d="M418.50 697.95 c-7.10 -0.90 -9.95 -1.65 -14.30 -3.70 -4.65 -2.20 -6.55 -3.65 -4.75 -3.50 0.55 0.05 1.25 0.30 1.65 0.60 0.35 0.30 2.30 1.35 4.30 2.35 4.10 2.05 10.65 3.30 18.10 3.45 3.35 0.10 4.50 -0.10 5.50 -0.75 0.65 -0.50 1.60 -0.90 2.05 -0.90 0.50 0 0.95 -0.20 1.05 -0.40 0.25 -0.60 5.45 -2.95 7.40 -3.30 1.60 -0.30 1.55 -0.20 -0.75 0.95 -11.80 5.85 -12.95 6.15 -20.25 5.20z"/>
  <path d="M719 691.15 c-0.40 -0.10 -2 -2.50 -3.55 -5.30 -2.85 -5.15 -3.05 -5.75 -6.40 -19.90 -1.15 -4.80 -2.45 -8.90 -4 -12.85 -0.85 -2.15 -1.05 -3.70 -1.05 -8.35 0 -4.25 0.15 -5.75 0.65 -5.75 0.45 0 0.55 1.40 0.45 5.85 -0.10 3.30 0.05 6.30 0.35 6.85 1.80 3.65 3.25 8.65 6.80 23.30 1.50 6.10 5.65 15 7.05 15 0.40 0 0.70 0.35 0.70 0.75 0 0.40 -0.05 0.70 -0.10 0.70 -0.10 -0.05 -0.50 -0.15 -0.90 -0.30z"/>
  <path d="M546.50 672.25 c0 -0.45 4.15 -2.20 4.60 -1.95 0.20 0.15 0.40 0.10 0.40 -0.15 0 -0.20 0.80 -0.40 1.75 -0.45 0.95 0 2.25 -0.30 2.85 -0.60 0.65 -0.30 2.40 -1.10 3.90 -1.80 3.40 -1.55 5.55 -2.85 6.35 -3.80 0.30 -0.40 0.75 -0.55 1 -0.35 0.45 0.50 -1.75 2.45 -4.60 4 -2.70 1.45 -7.20 3.15 -11.60 4.35 -3.80 1.05 -4.65 1.20 -4.65 0.75z"/>
  <path d="M349.25 641.65 c-0.25 -0.50 -0.45 -1.15 -0.45 -1.50 -0.05 -0.35 -0.50 -0.95 -1.05 -1.40 -0.55 -0.45 -0.70 -0.70 -0.35 -0.50 0.80 0.40 0.75 -0.50 -0.10 -3.55 -0.40 -1.35 -0.85 -3.55 -1 -4.95 -0.15 -1.35 -0.60 -3.95 -1.05 -5.75 -0.45 -1.80 -1.70 -7.05 -2.80 -11.75 -1.10 -4.65 -2.75 -11.10 -3.70 -14.25 -1.95 -6.70 -2.95 -10.90 -3.75 -15.75 -0.75 -4.60 -2.20 -10.80 -4.10 -17.25 -2.65 -9.05 -3.40 -12.20 -3.40 -14.10 0 -3.05 0.85 -2.20 1.20 1.25 0.40 3.30 0.75 4.65 3.50 13.95 1.65 5.40 2.30 8.35 4.70 20.90 0.55 2.60 2.10 8.70 3.45 13.50 2.85 9.90 4 14.80 6.45 27.25 0.40 2.20 1.30 6.35 2 9.15 1.20 4.80 1.35 6.90 0.45 4.75z"/>
  <path d="M588.65 638.40 c0.05 -0.70 0.25 -1.20 0.40 -1.15 0.15 0.10 1 -0.45 1.85 -1.25 1.20 -1.05 1.60 -1.90 1.60 -3.10 0 -0.90 0.25 -2 0.50 -2.40 0.35 -0.55 0.50 -0.10 0.50 1.65 0 2.20 -0.20 2.65 -2.45 5 -2.30 2.40 -2.45 2.50 -2.40 1.25z"/>
  <path d="M704.20 636.70 c0.15 -0.45 0.30 -1.10 0.30 -1.50 0 -0.40 0.20 -0.70 0.40 -0.70 0.25 0 0.40 0.50 0.30 1.15 -0.05 0.60 -0.15 1.25 -0.15 1.50 -0.05 0.20 -0.30 0.35 -0.60 0.35 -0.30 0 -0.40 -0.35 -0.25 -0.80z"/>
  <path d="M704.65 625.15 c0.15 -3 0.50 -6.50 0.80 -7.90 1.05 -5.15 2 -11.65 2.30 -16.10 0.25 -3.45 0.55 -4.65 1.05 -4.65 0.45 0 0.60 0.45 0.45 1.40 -0.15 0.75 -0.45 3.50 -0.75 6.10 -0.30 2.60 -1.10 7.95 -1.80 11.85 -0.65 3.90 -1.25 8.80 -1.35 10.90 -0.05 2.05 -0.30 3.75 -0.55 3.75 -0.20 0 -0.30 -2.40 -0.15 -5.35z"/>
  <path d="M708.60 590.15 c0.20 -3.25 0.60 -7.90 0.90 -10.40 0.50 -4 1.40 -16.25 1.45 -19.85 0.05 -0.90 0.30 -1.40 0.80 -1.40 0.90 0 0.90 -0.10 0.25 4.60 -0.25 2 -0.60 5.55 -0.75 7.90 -0.15 2.35 -0.50 6.40 -0.80 9 -0.85 8.20 -1.40 15.20 -1.15 15.60 0.15 0.25 -0.05 0.40 -0.40 0.40 -0.50 0 -0.60 -1.20 -0.30 -5.85z"/>
  <path d="M712 550 c0.50 -0.30 0.55 -0.50 0.15 -0.50 -0.90 0 -0.80 -1.85 0.10 -2.20 0.40 -0.15 0.75 -0.10 0.80 0.10 0 0.20 0.15 0.95 0.25 1.75 0.20 1.15 0.05 1.35 -0.90 1.35 -0.95 0 -1 -0.10 -0.40 -0.50z"/>
  <path d="M327.50 545.65 c0 -1.05 0.15 -1.20 0.45 -0.70 0.25 0.40 0.35 1 0.20 1.40 -0.40 1.05 -0.65 0.75 -0.65 -0.70z"/>
  <path d="M327.50 541.80 c0 -5.35 3.90 -24.15 10.25 -49.45 3.95 -15.80 4.40 -17.30 6.90 -22 5.55 -10.45 7.40 -13.75 8 -14.25 0.35 -0.25 3.55 -1.20 7.10 -2.05 3.60 -0.90 10.90 -2.70 16.25 -4.05 8.65 -2.15 11.90 -3 17.25 -4.50 14.05 -3.90 31.20 -7.75 40.25 -9.05 4.05 -0.55 8.90 -1.35 12.50 -2 1.50 -0.25 6.25 -0.70 10.50 -0.95 4.25 -0.25 9.75 -0.55 12.25 -0.75 4.30 -0.25 4.65 -0.20 8.10 1.35 3.65 1.65 4.85 2.70 2.25 1.95 -0.80 -0.25 -2.20 -0.85 -3.15 -1.30 -1.55 -0.80 -2.80 -0.85 -13.20 -0.60 -6.30 0.15 -12.60 0.55 -14 0.85 -1.35 0.30 -8.55 1.55 -16 2.75 -8.95 1.45 -17.80 3.30 -26.25 5.45 -7 1.80 -21.75 5.55 -32.75 8.35 -22.60 5.70 -20.45 4.65 -24.15 11.60 -6.90 12.85 -6.75 12.45 -11.30 30.85 -5.50 22.55 -6 24.65 -7.30 31.75 -0.60 3.30 -1.30 7 -1.55 8.15 -0.25 1.20 -0.65 3.95 -0.80 6.15 -0.30 4.20 -1.15 5.45 -1.15 1.75z"/>
  <path d="M599.35 521 c-0.15 -0.55 -0.10 -1 0.05 -1 0.50 0 0.25 -10.75 -0.30 -14.25 -0.30 -1.65 -0.40 -3.65 -0.25 -4.40 0.15 -0.75 -0.10 -2.10 -0.55 -3.05 -0.45 -0.95 -0.80 -1.80 -0.80 -1.95 0 -0.10 -0.40 -1.10 -0.85 -2.15 -0.45 -1.10 -0.85 -2.05 -0.90 -2.20 -0.05 -0.15 -0.35 -0.90 -0.70 -1.75 -0.30 -0.80 -1.05 -2.65 -1.60 -4.10 -0.90 -2.20 -1.70 -3.10 -5.60 -6.20 -2.55 -1.95 -5.10 -3.80 -5.70 -4.10 -1.05 -0.45 -1.65 -1.85 -0.80 -1.85 0.50 0 7.60 5.45 10 7.65 1.55 1.40 2.50 2.95 3.60 5.75 0.80 2.15 2.05 5.15 2.80 6.80 0.90 2.05 1.50 4.75 2 9 1.15 9.70 0.85 22.65 -0.40 17.80z"/>
  <path d="M711.45 508.65 c-0.05 -0.50 -0.05 -1.10 0 -1.30 0.05 -0.20 -0.30 -3.80 -0.70 -8 -0.45 -4.20 -1 -10.20 -1.25 -13.35 -0.95 -12.05 -3.05 -20.45 -7.50 -30.25 -1.80 -3.90 -3.30 -7.60 -6.30 -15.25 -3.75 -9.65 -9.45 -19.20 -16.15 -26.95 -4.05 -4.65 -5.45 -7.05 -2.50 -4.25 2.95 2.80 11.45 13.95 11.45 15 0 0.15 0.70 1.30 1.55 2.50 2.20 3.20 6.05 11.50 8.35 17.95 1.85 5.10 5.45 13.70 6.70 15.95 1.95 3.60 4.35 13.95 5.15 22.55 0.15 1.65 0.65 6.50 1.10 10.75 0.85 7.70 0.85 8.55 0.65 13.15 -0.15 2.30 -0.45 3.20 -0.55 1.50z"/>
  <path d="M70.80 477.15 c-1.55 -2.70 -1 -4.10 0.60 -1.55 0.60 0.90 1.45 2.20 1.95 2.90 l0.85 1.25 -1.40 -1.25 c-1.40 -1.20 -1.40 -1.20 -0.85 -0.10 1.10 2.10 0.15 1.10 -1.15 -1.25z"/>
  <path d="M563.85 463.55 c-1.60 -1.05 -3.30 -1.85 -3.75 -1.70 -1.05 0.25 -3.95 -2.60 -3.15 -3.05 0.65 -0.40 1.60 0.10 6.70 3.40 3.45 2.25 4.55 3.30 3.50 3.30 -0.25 0 -1.70 -0.90 -3.30 -1.95z"/>
  <path d="M512 443.65 c-0.70 -0.10 -3.25 -0.55 -5.75 -0.95 -7.10 -1.15 -16.45 -3.30 -17.15 -3.95 -0.55 -0.50 -0.55 -0.70 -0.05 -1 0.35 -0.25 0.50 -0.20 0.30 0.10 -0.20 0.35 0.40 0.65 1.55 0.80 1 0.10 4.65 0.80 8.10 1.55 3.45 0.70 7.35 1.50 8.65 1.80 1.35 0.25 3.25 0.50 4.25 0.55 1 0 2.65 0.35 3.60 0.70 l1.75 0.65 -2 0 c-1.10 0 -2.55 -0.15 -3.25 -0.25z"/>
  <path d="M673 406.10 c-1.65 -1.15 -5.50 -4.85 -5.50 -5.25 0 -0.55 1.40 -0.40 1.60 0.15 0.10 0.25 1.35 1.70 2.85 3.25 2.85 2.95 3 3.25 1.05 1.85z"/>
  <path d="M205.25 403 c0.20 -0.40 0.75 -1.15 1.15 -1.60 0.35 -0.45 0.60 -1.05 0.45 -1.25 -0.15 -0.25 -0.10 -0.75 0.20 -1.15 0.35 -0.65 0.45 -0.60 0.45 0.15 0 1.45 0.75 1 3.90 -2.60 3.10 -3.45 4.80 -4.50 5.30 -3.25 0.15 0.45 -0.05 0.70 -0.65 0.70 -0.55 0 -3.25 2.20 -6.10 4.90 -2.85 2.65 -4.95 4.50 -4.70 4.10z"/>
  <path d="M665.75 399.15 c-0.60 -0.10 -1.35 -0.70 -1.70 -1.30 -0.55 -0.90 -0.55 -1 0 -0.45 0.35 0.30 1.05 0.60 1.50 0.60 0.45 0 1.10 0.35 1.45 0.75 0.35 0.40 0.45 0.70 0.20 0.70 -0.25 -0.05 -0.90 -0.20 -1.45 -0.30z"/>
  <path d="M227.85 384.15 c0.15 -0.35 0.55 -0.65 0.90 -0.65 0.35 0 0.95 -0.35 1.30 -0.80 1.40 -1.70 9.35 -4.75 16.45 -6.30 3.75 -0.80 7.10 -1.10 15.85 -1.25 l11.05 -0.25 1.65 -1.70 c0.90 -0.95 1.85 -1.70 2.10 -1.70 0.25 0 1.45 -1 2.70 -2.25 1.20 -1.25 2.40 -2.25 2.65 -2.25 0.25 0 1.05 -0.55 1.80 -1.25 0.75 -0.70 1.65 -1.25 2 -1.25 0.40 0 0.70 -0.20 0.70 -0.40 0 -0.20 1.30 -1.05 2.90 -1.85 1.55 -0.85 2.95 -1.65 3.10 -1.85 0.40 -0.50 12.75 -6.30 16.50 -7.75 5.90 -2.30 14.65 -5 22.50 -6.90 10.15 -2.45 31.30 -7.85 38.25 -9.75 19.45 -5.20 30 -7.50 45 -9.75 2.50 -0.40 7.20 -1.15 10.50 -1.75 15.50 -2.70 17.15 -2.85 45 -3.35 22.85 -0.40 38.10 0.65 48.25 3.40 8 2.15 19.25 6.50 22.55 8.65 1 0.70 3.50 1.70 5.55 2.25 2 0.55 6.60 1.80 10.15 2.80 3.60 1 7.35 2 8.40 2.30 2.90 0.70 10.50 3.80 16.60 6.70 3.05 1.45 6.05 2.80 6.75 3 4.20 1.30 17.45 7.45 25 11.65 4.05 2.25 10.55 6.40 13.70 8.85 1.30 1 3 2.05 3.70 2.40 0.75 0.30 1.75 0.95 2.25 1.45 0.80 0.80 0.80 0.90 0.05 0.90 -0.45 0 -3.45 -1.85 -6.65 -4.05 -11.10 -7.80 -22.20 -13.75 -35.05 -18.90 -3.45 -1.35 -8.90 -3.75 -12.15 -5.30 -6.85 -3.20 -14 -5.65 -26.35 -9 -6.35 -1.70 -10.25 -3.05 -14.25 -5 -8.65 -4.25 -20 -8.05 -27.50 -9.20 -10.30 -1.60 -12.80 -1.70 -33.75 -1.75 -25.55 0 -36.40 0.45 -44.75 2.05 -2.20 0.40 -5.35 0.90 -7 1.15 -1.65 0.25 -5.15 0.80 -7.75 1.25 -2.60 0.45 -7.55 1.25 -11 1.85 -9.60 1.55 -13.80 2.50 -37 8.40 -2.05 0.50 -6.55 1.70 -10 2.65 -3.45 0.95 -8.25 2.20 -10.75 2.80 -2.45 0.60 -5.85 1.45 -7.50 1.90 -1.65 0.45 -4.70 1.20 -6.75 1.70 -16.80 3.95 -25.55 6.95 -36.55 12.45 -10.70 5.35 -16.70 9.30 -22.45 14.80 l-2.75 2.65 -11.25 0.25 c-6.20 0.10 -12.25 0.45 -13.50 0.75 -8.90 2.10 -11.35 2.90 -16.05 5.20 -2.95 1.45 -5.25 2.30 -5.10 2z"/>
  <path d="M52.05 351.05 c-0.50 -0.30 -0.50 -0.50 -0.05 -0.80 0.65 -0.40 1.20 -0.05 0.95 0.70 -0.15 0.30 -0.50 0.35 -0.90 0.10z"/>
  <path d="M501.25 283.50 c-0.15 -0.25 0.20 -0.70 0.80 -1 1.35 -0.75 1.50 -0.50 0.40 0.60 -0.50 0.50 -1.05 0.65 -1.20 0.40z"/>
  <path d="M126.60 281.90 c0.10 -0.60 0.50 -1.15 0.90 -1.25 0.65 -0.20 0.65 -0.15 0 0.30 -0.60 0.45 -0.65 0.65 -0.10 1 0.55 0.30 0.50 0.45 -0.15 0.75 -0.65 0.20 -0.80 0.05 -0.65 -0.80z"/>
  <path d="M257.25 227 c-0.80 -0.85 -2.20 -1.65 -3.20 -1.80 -1 -0.20 -1.95 -0.55 -2.10 -0.85 -0.50 -0.70 -2.45 0.10 -2.15 0.90 0.15 0.40 -0.20 0.80 -0.85 1 -0.85 0.30 -1.35 0.10 -2.05 -0.75 -0.55 -0.70 -0.90 -0.85 -0.90 -0.45 -0.05 0.45 -0.20 0.40 -0.55 -0.15 -0.25 -0.50 -0.75 -0.90 -1 -0.90 -1.05 0 -3.90 -2.65 -5.70 -5.25 -1.55 -2.20 -1.90 -3.25 -2.10 -5.85 -0.30 -3.75 0.55 -8.40 1.85 -10 l0.90 -1.15 1.75 1.80 c1.85 1.90 3.70 2.55 5.95 2.10 1.90 -0.35 3 -1.80 3.25 -4.35 l0.25 -2.20 5.35 -0.35 c4.65 -0.25 5.65 -0.15 8.05 0.70 1.50 0.60 3.35 1.05 4.15 1.05 0.90 0 2.45 0.80 4.35 2.25 3.40 2.60 4.50 4 4.50 5.65 0 1.90 -1.50 7.90 -2.25 8.90 -0.65 0.90 -0.70 0.90 -1.75 -0.45 -0.85 -1.10 -1.50 -1.35 -3.15 -1.35 -1.90 0 -2.35 0.25 -4.85 2.95 -1.75 1.80 -3.15 3.85 -3.70 5.35 -1.95 5.50 -1.90 5.45 -4.05 3.20z"/>
  <path d="M481.45 165.55 c-0.05 -0.15 -0.05 -0.50 0 -0.70 0.05 -0.25 -0.15 -0.30 -0.40 -0.15 -0.70 0.45 -3.55 -4.45 -4.85 -8.40 l-1.20 -3.50 1 -2 c2.55 -5.10 8.95 -9.30 14.20 -9.30 2.65 0 3.50 0.85 3.55 3.60 0.10 3.35 3.75 5.50 6.80 4 1.60 -0.75 2.70 -4.15 2.30 -7.05 -0.30 -2.25 0.45 -2.90 2 -1.80 0.50 0.40 1.30 0.75 1.75 0.75 0.45 0 1.50 0.60 2.35 1.30 1.95 1.65 2.05 3.70 0.40 9.70 -1 3.45 -3.40 9.50 -4.20 10.45 -0.10 0.15 -0.90 -0.50 -1.80 -1.35 -2.35 -2.25 -4.85 -2.15 -7.95 0.35 -0.50 0.40 -1.35 0.55 -2.15 0.35 -0.70 -0.20 -1.25 -0.15 -1.25 0.10 0 0.40 -1.65 1.20 -6.25 3.10 -1.70 0.70 -4.20 1.05 -4.30 0.55z"/>
  <path d="M378.50 139.80 c0 -0.50 0.45 -0.80 1.05 -0.80 1.20 0 1.05 1.15 -0.20 1.40 -0.50 0.10 -0.85 -0.15 -0.85 -0.60z"/>
  <path d="M390.70 95.35 c-0.30 -0.35 -0.40 -1.35 -0.15 -2.55 0.40 -2.35 -0.30 -4.65 -1.90 -6.15 -0.60 -0.60 -1.15 -0.90 -1.15 -0.65 0 0.25 -0.35 0.35 -0.75 0.20 -1.05 -0.40 -3.90 1.85 -5.80 4.60 -1.55 2.30 -3.05 2.75 -3.35 1.10 -0.10 -0.50 0.75 -2.75 1.85 -5 2.30 -4.75 2.50 -6.20 1 -8.10 -0.80 -1.05 -1.45 -1.30 -3.15 -1.30 -2.70 0 -4.35 1.45 -6.10 5.25 -1.45 3.20 -2.75 3.60 -4.70 1.50 -1.05 -1.10 -1.25 -1.90 -1.40 -6 -0.20 -4.10 -0.05 -5.30 1.10 -8.85 1.80 -5.80 3.05 -7.70 6.35 -9.75 4 -2.45 6 -2.60 10 -0.75 5 2.30 8.95 2.45 8.95 0.35 0 -0.35 0.45 -0.80 1 -1 3.10 -1 13.85 10 14.80 15.15 0.75 3.85 -3.60 12.35 -8.85 17.40 -3.35 3.20 -5.45 4.60 -5.45 3.70 0 -0.25 -0.30 -0.50 -0.70 -0.50 -0.45 0 -0.60 0.35 -0.45 1 0.30 1.10 -0.30 1.30 -1.15 0.35z"/>
 </g>
</svg>