<?xml version="1.0" encoding="utf-8"?>
<!DOCTYPE svg PUBLIC "-//W3C//DTD SVG 1.0//EN" "http://www.w3.org/TR/2001/REC-SVG-20010904/DTD/svg10.dtd">
<svg version="1.0" xmlns="http://www.w3.org/2000/svg" width="961px" height="1323px" viewBox="0 0 961 1323" preserveAspectRatio="xMidYMid meet">
 <g fill="#f7c98d">
  <path d="M427.30 1252.70 c-9.65 -1.75 -22.30 -5.40 -22.30 -6.45 0 -0.40 -0.20 -0.75 -0.45 -0.75 -1.10 0 -3.55 -2.65 -3.55 -3.80 0 -0.75 -0.30 -1.20 -0.75 -1.20 -0.40 0 -1.20 -0.45 -1.75 -1 -1.15 -1.15 -1.35 -4.45 -0.40 -6 0.55 -0.80 0.30 -1.30 -1.95 -3.65 -3 -3.15 -4.10 -5.15 -5.85 -10.75 -1.75 -5.60 -2.70 -9.95 -3.30 -15.35 -0.75 -7 -0.75 -7.15 1.20 -7.95 0.95 -0.40 1.95 -1.15 2.25 -1.70 1.75 -3.30 -0.65 -31.80 -4.80 -56.35 -1.65 -9.95 -1.75 -11.20 -1.85 -23.75 -0.20 -18.40 -1.20 -26.25 -6.30 -49.25 -0.85 -3.80 -2 -7.70 -2.55 -8.60 -1.05 -1.65 -4.95 -16.25 -5.95 -22.25 -0.70 -4.10 -2.15 -5.90 -4.60 -5.90 -1.55 0 -1.70 -0.15 -2.85 -3.10 -0.70 -1.75 -1.95 -4.70 -2.85 -6.65 -2.55 -5.50 -3.55 -8.30 -4.70 -13.10 -2.90 -12.10 -3.55 -13.20 -7.65 -12.80 l-2.60 0.20 -3 -4.60 c-5.15 -7.95 -5.80 -8.45 -8.05 -6.20 -1.30 1.30 -3.10 1.60 -4.70 0.75 -0.65 -0.35 -1.20 -0.20 -2.20 0.55 -1.55 1.20 -1.65 2.45 -0.45 6.95 0.80 3.25 0.80 3.40 -0.40 7.65 -0.90 3.40 -1.40 4.35 -2.05 4.35 -0.50 0 -0.90 -0.35 -0.90 -0.85 0 -0.45 -2.10 -3 -4.65 -5.60 -2.60 -2.65 -6 -6.70 -7.60 -9 -2.40 -3.45 -3 -4.05 -3.30 -3.25 -0.35 0.90 -0.35 0.90 -0.70 0.05 -0.40 -0.95 -0.20 -4.75 0.75 -14.75 0.30 -3.15 0.95 -12 1.40 -19.75 l0.90 -14.05 -1.15 -1.35 c-1.55 -1.85 -1.65 -6.65 -0.15 -7.45 1.85 -1 2.10 -2.25 1 -4.75 -0.55 -1.25 -1.45 -3.25 -2 -4.50 -1.05 -2.35 -1.35 -5.25 -0.55 -5.25 0.25 0 0.55 0.25 0.65 0.60 0.15 0.35 0.55 0.10 1.10 -0.65 0.45 -0.65 1.70 -2.40 2.80 -3.85 l1.90 -2.65 -0.90 -2.65 c-1.20 -3.60 -4.25 -15.60 -5.30 -21.05 -0.60 -3.20 -1.80 -6.55 -4.15 -11.75 -1.85 -4 -3.55 -7.60 -3.80 -8 -0.25 -0.40 -0.50 -0.95 -0.55 -1.25 -0.05 -0.25 -3.85 -8.15 -8.45 -17.50 -7.95 -16 -12.40 -24.30 -13.35 -24.65 -0.20 -0.10 -0.40 -0.40 -0.40 -0.70 0 -0.25 -1.65 -3 -3.65 -6.05 -2 -3.10 -6.10 -9.55 -9.10 -14.35 -3 -4.80 -5.55 -8.85 -5.70 -9 -0.20 -0.15 -0.75 -1.05 -1.25 -2 -0.85 -1.50 -3.90 -6.40 -6.15 -9.80 -0.35 -0.55 -0.30 -0.10 0.10 0.95 0.75 1.85 0.75 1.85 -0.50 1.85 -0.85 0 -1.25 -0.25 -1.25 -0.90 0 -0.50 -0.20 -1.10 -0.45 -1.40 -0.25 -0.25 -1.60 -3.45 -3 -7.10 -2.60 -6.75 -3.10 -9.75 -1.95 -11.60 0.50 -0.80 0.45 -1.20 -0.50 -2.35 -2.40 -2.95 -5.75 -8.35 -7.20 -11.50 -2.05 -4.55 -9 -25.75 -10.65 -32.40 -0.75 -3 -1.70 -6.05 -2.20 -6.75 -0.50 -0.70 -1.50 -3.80 -2.30 -6.90 -1.15 -4.65 -1.60 -5.80 -2.75 -6.75 -1.40 -1.05 -1.45 -1.35 -2.45 -10.35 -0.55 -5.10 -1.30 -13.50 -1.60 -18.65 -0.55 -9.30 -0.55 -9.40 0.50 -10.55 0.90 -0.95 1.05 -1.70 1.05 -5.15 0 -2.25 0.55 -7.40 1.25 -11.45 2.45 -14.90 4.45 -33.65 5.50 -51.95 0.20 -3 0.65 -7.05 1.05 -9 0.85 -4.10 6.55 -22.90 8.75 -28.90 3.45 -9.35 11.20 -28.20 12.20 -29.60 0.60 -0.80 1.35 -2.50 1.70 -3.75 0.95 -3.30 6.05 -13.20 11.05 -21.50 5.40 -8.90 6.45 -11.05 8.45 -16.75 2 -5.65 2.20 -5.95 7.95 -11.85 4.15 -4.30 4.95 -4.90 6.45 -4.90 1.50 0 1.65 0.15 1.65 1.45 0 0.80 -0.35 2.40 -0.75 3.60 -1.20 3.30 -1.10 5.25 0.25 6.70 0.65 0.70 1.45 1.25 1.75 1.25 1.25 0 2.80 -2.40 3.25 -5.10 0.70 -4.60 2.65 -7.65 8.45 -13.45 4.85 -4.85 18.90 -16.85 25.55 -21.80 1.95 -1.45 4.45 -2.60 8.40 -3.90 6.25 -2.05 7.10 -2.80 7.10 -6.05 l0 -2.05 6.30 -4.30 c4.50 -3.10 6.70 -4.35 7.80 -4.35 1.45 0 1.50 0.05 1.25 1.90 -0.15 1 -0.45 2.45 -0.60 3.20 -0.30 1.15 -0.05 1.70 1.40 3.15 2 2 2.95 2.15 4.35 0.75 0.70 -0.70 1 -1.65 1 -3.20 0 -2.05 0.20 -2.40 2.75 -4.65 1.50 -1.35 4.45 -3.45 6.50 -4.60 3.70 -2.15 7.75 -3.25 7.75 -2.10 0 0.30 -0.20 0.55 -0.50 0.55 -0.25 0 -0.50 0.25 -0.50 0.50 0 0.30 0.45 0.50 0.95 0.50 0.55 0 2.85 0.70 5.15 1.55 6.25 2.30 5.65 2.35 10.90 -1.35 4.85 -3.40 13.30 -8.90 17.60 -11.40 2.25 -1.30 3.35 -2.65 1.65 -2 -0.50 0.20 -0.75 0 -0.75 -0.65 0 -1.20 0.25 -1.25 20.50 -7.35 25.35 -7.60 38.50 -11.30 40.15 -11.30 1 0 2.05 0.45 2.90 1.30 l1.35 1.30 4.75 -0.60 c2.65 -0.35 7.10 -0.50 9.95 -0.40 4.35 0.15 5.50 0.40 7.25 1.40 l2.10 1.25 1.25 -1.20 c1.10 -1.05 1.20 -1.45 0.95 -3.35 -0.20 -1.50 -0.10 -2.20 0.30 -2.20 0.30 0 0.55 0.20 0.55 0.45 0 0.25 8.95 0.55 20.65 0.70 21.85 0.25 23.90 0.45 35.85 3.30 2.60 0.65 5.95 1.05 8.55 1.05 10.45 0 20.40 1.60 30.95 4.95 5.05 1.60 12.05 3.30 20 4.85 16.60 3.15 22.50 4.85 37.75 10.90 7.15 2.85 15.50 6.10 18.50 7.30 9.55 3.70 18.40 8.45 30.25 16.25 4.75 3.10 7.85 4.90 8.15 4.65 0.05 -0.10 3 1.50 6.55 3.50 6.35 3.60 13.05 8.25 18.30 12.80 1.50 1.30 4.80 3.75 7.25 5.40 5.50 3.75 11.85 8.50 14.40 10.75 2 1.75 3 2.15 2.55 0.90 -0.45 -1.10 1.60 -0.95 2.05 0.10 2.65 6.60 5.45 17.40 7 27.60 2.55 16.15 3.25 18.65 5.25 19.30 1.10 0.35 2.25 -0.35 3 -1.75 0.30 -0.55 -0.25 -5 -1.55 -12.80 -2.45 -14.90 -2.45 -14.70 -0.30 -14.70 1.40 0 1.80 0.30 3 2.25 1.05 1.75 1.35 2.95 1.35 5 0 3.85 2.20 8.50 15.25 32.50 7.75 14.30 15.20 29.60 17.70 36.50 0.75 2.15 7.15 26.35 9.85 37.25 2.75 11.15 3.20 14.50 2 14.50 -0.45 0 -0.80 -0.40 -0.80 -0.85 0 -0.55 -0.15 -0.65 -0.45 -0.40 -1 1 -0.75 9.80 0.35 14.05 1.60 6.10 2.95 15.40 3.85 26.20 0.45 5.35 1.35 12.70 2 16.25 1.90 10.50 2.30 14.65 2.75 30.25 0.25 8.10 0.55 15.20 0.70 15.75 0.15 0.55 0.75 5.75 1.30 11.50 0.60 5.80 1.65 14.55 2.35 19.50 1.65 11.50 1.95 24.30 1 44.50 -0.40 8.25 -0.65 21.85 -0.55 30.25 l0.15 15.25 4.10 2.80 c5.30 3.65 10.30 8.20 14.15 12.85 2.05 2.55 3.10 3.45 3.20 2.90 0.10 -0.45 0.50 -0.80 0.90 -0.80 0.50 0 0.70 0.75 0.70 3 0 2.65 0.25 3.30 2.20 6.35 5.15 7.95 9.30 17 9.30 20.25 0 1.80 -1.15 1.85 -1.80 0.05 -0.30 -0.90 -0.45 1.50 -0.45 7.90 0 7.75 -0.20 10 -1.15 14.30 -2.05 9.15 -6.15 17.95 -12 25.55 -2.55 3.35 -3.05 4.30 -2.55 4.90 0.45 0.60 0.30 0.70 -0.85 0.70 -1.10 -0.05 -1.85 -0.55 -2.95 -2.05 -3.30 -4.35 -4.55 -6 -5.65 -7.45 -0.75 -0.95 -1.65 -1.50 -2.40 -1.50 -1.35 0 -3.85 -1 -5.50 -2.25 -1 -0.75 -1.20 -0.70 -2.40 0.35 -1.25 1.05 -1.45 1.85 -2.55 8.90 -2.20 13.95 -4.55 26.25 -5.35 27.75 -0.40 0.85 -1.35 2.50 -2.05 3.75 -0.80 1.35 -1.60 4.05 -2.10 6.75 -0.75 4.50 -2.45 11.85 -3 13.35 -0.20 0.50 0.30 1.50 1.25 2.60 1.75 2 1.80 2.15 0.35 8.50 -1.20 5.35 -1.55 18.65 -0.90 36.35 1.10 30.90 2.20 40.45 7.15 61.95 1.95 8.60 2 8.90 1.75 16.25 -0.15 5.15 0 8.90 0.50 12 0.50 2.90 0.90 11.45 1.15 24.25 0.25 10.85 0.65 22 0.95 24.75 0.30 2.75 0.55 7.65 0.55 10.95 0 5.45 -0.10 6 -1.10 7.05 -0.65 0.65 -1.75 3.05 -2.45 5.35 -0.90 2.95 -1.55 4.20 -2.20 4.35 -0.70 0.10 -0.85 -0.10 -0.60 -0.95 0.20 -0.75 -0.25 -0.45 -1.50 1.05 -3.05 3.70 -10.10 10.30 -11.90 11.20 -0.95 0.45 -1.75 0.95 -1.75 1.15 0 0.55 -7.20 4.80 -10.60 6.30 -7.25 3.20 -15.05 5.05 -23.85 5.65 -2.90 0.20 -4.90 0.45 -4.40 0.55 0.45 0.10 0.85 0.50 0.85 0.90 0 0.50 -0.65 0.70 -2.25 0.70 -1.65 0 -2.25 -0.20 -2.25 -0.75 0 -0.40 0.35 -0.75 0.75 -0.75 0.40 0 0.75 -0.20 0.75 -0.40 0 -0.25 -1.15 -0.50 -2.55 -0.55 -6.15 -0.20 -18.50 -4.10 -25.80 -8.10 -4.05 -2.20 -4.15 -2.25 -4.15 -1.20 0 0.40 -0.35 0.75 -0.75 0.75 -0.45 0 -0.75 -0.45 -0.75 -1.05 0 -1.30 -2.60 -3.95 -3.90 -3.95 -0.75 0 -1.50 -0.95 -2.85 -3.70 -2.15 -4.35 -5.05 -7.25 -14 -14.15 -6.60 -5.05 -13.75 -11.45 -13.75 -12.30 0 -0.30 -0.30 -0.90 -0.70 -1.30 -0.40 -0.45 -1.05 -1.80 -1.45 -3.05 -2.75 -8.10 -5.05 -12.90 -10.05 -21.40 -3.90 -6.55 -6.40 -9.45 -9 -10.30 -1.55 -0.55 -2.05 -1.05 -2.60 -2.60 -0.85 -2.55 -1.85 -3.20 -4.80 -3.20 -2.70 0 -3.40 -0.75 -3.40 -3.70 l0 -1.80 3.65 0 c3.25 0 3.80 -0.15 4.80 -1.20 2.45 -2.65 0.10 -4.50 -6.45 -5.05 -3.40 -0.30 -4.55 -0.60 -5.65 -1.55 -1.10 -0.90 -2.05 -1.20 -3.90 -1.20 -1.85 0 -2.45 -0.20 -2.45 -0.75 0 -0.40 0.35 -0.75 0.80 -0.75 0.75 0 0.80 -0.50 0.50 -4.30 -0.35 -3.90 -0.65 -4.95 -3.15 -10.05 -1.95 -3.95 -3 -5.60 -3.45 -5.45 -2.60 1 -8.60 1.55 -16.95 1.55 l-9.50 0 -2.25 2.50 c-3.15 3.50 -10.80 10.40 -13.60 12.35 -2.45 1.70 -2.95 2.40 -1.65 2.40 0.40 0 0.75 0.30 0.75 0.70 0 0.55 -1.05 0.80 -3.85 1.05 -2.15 0.20 -5.25 0.70 -6.90 1.10 -4.30 1.05 -13.30 4.85 -18.35 7.70 -4.50 2.50 -6.60 2.95 -8.40 1.85 -0.85 -0.55 -1.50 -0.45 -4.15 0.55 -3.45 1.35 -7.35 1.95 -7.35 1.15 0 -0.30 0.30 -0.60 0.65 -0.75 0.30 -0.10 -0.75 -0.35 -2.40 -0.55 -8.85 -1 -18.45 -3.45 -24.50 -6.35 -1.60 -0.75 -3 -1.35 -3.10 -1.25 -0.05 0.05 -0.70 2.10 -1.40 4.60 -0.75 2.45 -2.45 7.70 -3.85 11.70 -6.55 19.05 -8.10 23.70 -9.50 29.25 -1.45 5.80 -1.50 6.25 -1.20 13.50 0.95 22.65 0.95 25.45 0.05 30.80 -1.60 9.70 -5.10 18.50 -10.55 26.80 -2.90 4.40 -3.10 4.75 -1.95 4.35 0.50 -0.20 0.75 0 0.75 0.70 0 0.90 -0.60 1.10 -4.85 1.85 -18.80 3.25 -23.40 4.45 -42.90 11.45 -4.50 1.60 -5.55 1.80 -10.05 1.80 -3.90 0 -5.20 -0.15 -5.70 -0.75 -0.95 -1.15 -1.85 -0.90 -3.10 0.75 -0.95 1.30 -1.40 1.50 -3.35 1.45 -1.25 0 -4.05 -0.35 -6.25 -0.75z m-24.30 -11.85 c0 -0.10 -0.60 -0.70 -1.35 -1.40 -1.20 -1.10 -1.20 -0.65 0 0.95 0.40 0.55 1.35 0.85 1.35 0.45z m115.15 -258.45 c0.45 -0.35 1.25 -1.70 1.80 -2.95 0.95 -2.35 2.95 -5.30 10.10 -15 3.60 -4.90 4.10 -5.35 5.90 -5.65 1.20 -0.20 2.35 -0.75 2.90 -1.50 1.50 -1.85 8.65 -29 8.65 -32.65 0 -1.05 0.25 -1.15 2.40 -1.15 3.35 0 15.10 -1.80 23.35 -3.55 18.95 -4.05 33.35 -8.55 50.65 -15.90 9.80 -4.15 9.85 -4.15 14.60 1.25 2.05 2.35 5.85 6.60 8.40 9.35 2.55 2.80 6.25 7.25 8.20 9.85 5.80 7.65 5.55 7.45 8.65 7.15 2.35 -0.25 2.85 -0.10 4.80 1.20 3.25 2.25 7.25 4.15 8.65 4.15 1.65 0 3.95 -2.75 3.50 -4.20 -1.35 -4.35 -5.85 -13.40 -12.20 -24.55 -4.45 -7.80 -4.55 -8.05 -4.25 -10.50 0.15 -1.35 0.25 -4.40 0.20 -6.75 l0 -4.30 1.80 -0.85 c3.25 -1.55 8.60 -5.35 13.10 -9.25 7.05 -6.10 13.45 -12.70 14.55 -14.90 l1.05 -2.10 -1.10 -1.65 c-0.70 -1.05 -1.80 -1.85 -2.90 -2.20 -1 -0.25 -2.50 -1.25 -3.35 -2.15 -1.25 -1.35 -1.75 -1.55 -2.50 -1.15 -1.40 0.75 -1.95 1.60 -2.55 3.85 -1.05 3.85 -5.40 9.20 -7.55 9.20 -0.55 0 -2.05 1.10 -3.35 2.45 -1.30 1.35 -3.85 3.50 -5.60 4.75 -2.80 2 -3.45 2.30 -5.75 2.30 -2.50 0 -2.60 0.10 -6.40 3.75 -2.25 2.20 -4.40 3.85 -5.25 4 -4.70 1 -5.20 1.25 -6.20 3.45 -0.95 2.25 -2.65 3.25 -8.95 5.55 -1.25 0.45 -3.50 1.25 -5 1.80 -1.80 0.70 -3.45 0.95 -4.75 0.75 -1.65 -0.20 -2.70 0.10 -6.25 1.90 -5.35 2.75 -15.85 6.15 -22.40 7.30 -1.30 0.20 -5.05 1.05 -8.35 1.90 -6.50 1.65 -16.90 3.60 -19.45 3.60 -2.90 0 -5.25 0.95 -6.05 2.50 -0.80 1.55 -2.35 2.05 -9.85 3.10 l-3.85 0.55 -1.50 -1.60 c-0.80 -0.85 -1.60 -1.55 -1.80 -1.55 -0.25 0 -1.90 0.45 -3.70 0.95 -7.45 2.20 -14.15 3.25 -20.80 3.25 -6.15 0.05 -6.65 -0.05 -9.50 -1.35 -1.65 -0.80 -3.60 -2.20 -4.35 -3.10 -1.25 -1.50 -1.65 -1.65 -4.75 -1.85 -4.10 -0.30 -4.50 -0.15 -5.45 1.65 -0.60 1.25 -1.05 1.45 -2.75 1.45 -1.10 0 -2.45 0.20 -2.95 0.50 -1.30 0.70 -3.10 4.45 -2.80 5.75 0.85 3.45 16.50 6.20 31.45 5.55 l6.85 -0.30 0 1.90 c0 2.50 -2.50 13.60 -4.75 21.15 -1.65 5.60 -2.80 8.30 -4.35 10.55 -0.50 0.70 -0.40 1.15 0.50 2.35 1.45 2 1.40 3.50 -0.35 8.60 -0.80 2.35 -1.70 5.90 -2.05 7.85 -0.65 3.50 -0.65 3.65 0.50 4.85 1.30 1.40 1.95 1.55 3.15 0.65z m-16.75 -168.55 c2.85 -0.65 5.40 -1.50 5.60 -1.85 0.20 -0.35 0.65 -0.45 0.95 -0.30 0.60 0.40 9.95 -1.60 10.85 -2.30 0.30 -0.20 0.90 -0.30 1.25 -0.20 0.40 0.15 1.50 0.05 2.45 -0.15 0.95 -0.25 1.35 -0.45 0.90 -0.50 -0.50 -0.05 -0.90 -0.40 -0.90 -0.80 0 -1 2.50 -1 14.75 0.05 7.30 0.60 13.10 0.75 25 0.55 20.65 -0.40 25.05 -1.20 26.90 -5 0.55 -1.05 1.40 -1.95 2 -2.10 0.60 -0.10 5.55 -1 11 -2 12.30 -2.20 20.55 -4.20 27.35 -6.70 2.90 -1.05 7.40 -2.45 10 -3.05 6.30 -1.45 11.10 -3.30 20.85 -8.05 4.70 -2.30 8.75 -3.95 9.65 -3.95 1.50 0 2.05 0.70 0.90 1.15 -0.35 0.10 2.60 0.30 6.60 0.45 5.75 0.25 8.25 0.60 12.25 1.70 4.50 1.25 5.65 1.35 11.75 1.25 3.70 -0.10 6.80 -0.20 6.90 -0.30 0.30 -0.30 1.15 -23.65 0.95 -25.50 -1.35 -10.40 -2.35 -16.90 -2.55 -17.15 -0.15 -0.15 -0.30 0 -0.30 0.30 0 0.35 -0.20 0.60 -0.50 0.60 -0.90 0 -0.50 -2.85 0.75 -5.10 0.65 -1.20 1.60 -3.20 2 -4.40 0.45 -1.25 1.35 -3.40 2 -4.85 1.75 -3.65 2.90 -8.95 2.50 -11.65 -1 -7.50 -1.10 -6.35 2.50 -23.75 4.95 -23.95 5.40 -31.65 2.85 -49 -1.85 -12.25 -2.80 -16.80 -5.30 -25.25 -0.95 -3.15 -2.20 -8.20 -2.80 -11.20 -2.05 -10.45 -4.20 -15.80 -10.05 -25.10 -1.70 -2.70 -5.30 -9.15 -8 -14.25 -5.25 -10.10 -8.40 -15.15 -9.80 -15.65 -1.25 -0.50 -3.65 2.25 -3.65 4.20 0 1.35 -0.15 1.50 -1.70 1.50 -1.90 0 -2.90 -0.70 -8.55 -5.90 -2.20 -2.05 -5.80 -5.10 -8 -6.75 -2.20 -1.65 -7.05 -5.95 -10.75 -9.55 -4.90 -4.75 -8.15 -7.45 -11.90 -9.80 -2.85 -1.80 -8.55 -5.55 -12.75 -8.35 -17.20 -11.55 -25.55 -15.75 -34.95 -17.65 -4 -0.85 -4.55 -1.10 -7.70 -3.80 -3.90 -3.30 -8.80 -5.70 -14.20 -7 -5.20 -1.20 -27.45 -1.60 -36.45 -0.65 -3.55 0.40 -9.70 0.65 -14.05 0.55 -4.50 -0.10 -11.65 0.20 -17 0.65 -5.10 0.45 -10.50 0.65 -12.05 0.50 -2.65 -0.30 -2.90 -0.25 -3.90 1.05 -0.55 0.70 -1.05 1.70 -1.05 2.20 0 0.70 -1.60 1.25 -8.60 2.95 -4.75 1.15 -9.20 2.05 -9.85 2.05 -0.70 0 -1.75 -0.50 -2.40 -1.10 l-1.20 -1.15 -8.35 4.20 -8.35 4.20 -9.65 9.55 c-10.95 10.80 -26.40 27.10 -31.30 33 -3.35 4.05 -8.80 11.90 -8.80 12.70 0 0.25 0.55 0.95 1.25 1.60 0.70 0.65 1.25 1.75 1.25 2.45 0 0.70 -2.50 6.25 -5.55 12.30 -6 11.90 -6.85 14.55 -5 15.85 0.75 0.55 1.80 0.70 3.30 0.50 l2.25 -0.25 0 1.70 c0 2.55 -1.25 6.65 -2.50 8.30 -0.90 1.25 -1.20 2.70 -1.75 8.70 -0.35 3.95 -1.25 11.50 -1.95 16.70 -3.50 26.60 -2.95 43.10 1.85 54.50 1.65 3.95 1.95 5.40 3.10 14.50 2.10 16.45 4.80 22.80 22.95 54.50 1.25 2.20 2.75 5.35 3.30 7 0.60 1.80 2.15 4.50 3.80 6.65 1.50 2 4.35 6.40 6.30 9.75 4.60 7.90 7.20 11.60 11.45 16 2.30 2.40 3.45 4 3.45 4.80 0 1 -0.10 1.10 -0.75 0.55 -0.45 -0.35 -0.90 -0.55 -1 -0.40 -0.45 0.40 19.80 20.90 20.90 21.15 2.50 0.65 15.30 1.15 24.35 1 8.15 -0.15 10.60 -0.40 14.90 -1.40z"/>
  <path d="M529.50 950.85 c0 -0.90 0.65 -3.65 1.50 -6.10 1.55 -4.55 1.50 -5.20 -0.35 -6.40 -1.05 -0.65 -0.70 -4.60 1.10 -12.70 0.25 -1.10 0.50 -1.15 4.75 -1.15 l4.50 0 0 1.90 c0 2.25 -2 11.80 -3.85 18.35 -1.05 3.65 -1.60 4.80 -3 6.15 -1.15 1.05 -2.30 1.60 -3.20 1.60 -1.30 0 -1.45 -0.15 -1.45 -1.65z"/>
  <path d="M664.70 922.90 c-1.10 -1.20 -3.30 -3.65 -4.90 -5.50 -2.60 -3.10 -3.05 -3.40 -4.80 -3.40 -2.05 0 -3.15 -1 -8 -7.25 -2.55 -3.30 -4.45 -5.25 -5.05 -5.25 -0.25 0 -0.45 -0.85 -0.45 -1.85 l0 -1.90 4.90 -1.90 c2.65 -1 5.65 -1.85 6.65 -1.85 1.80 0 1.90 0.10 3.95 4.15 1.80 3.45 5.65 10.35 11.80 21.20 0.65 1.15 1.20 2.90 1.20 3.85 0 1.70 -0.10 1.80 -1.65 1.80 -1.30 0 -2.10 -0.45 -3.65 -2.10z"/>
  <path d="M519.40 808.10 c-1.70 -0.35 -1 -1.60 0.85 -1.60 1.15 0 1.75 0.25 1.75 0.70 0 0.75 -1.25 1.20 -2.60 0.90z"/>
  <path d="M418.75 734.55 l-2.45 -0.30 -1.65 -3.75 c-1.65 -3.75 -1.90 -6.35 -0.90 -9.30 0.25 -0.85 -0.25 -1.75 -2.70 -4.40 -6.90 -7.65 -10.80 -21.80 -12.55 -45.80 -1.40 -19.20 0.15 -44.30 3.05 -50.10 0.55 -1.05 0.95 -2.70 0.95 -3.75 0 -1.05 0.50 -3.35 1.10 -5.10 l1.10 -3.15 -1.40 -1.25 -1.45 -1.20 0.35 -4.85 c1.05 -14.80 4.40 -33.75 8.10 -45.45 1.10 -3.40 2 -5 5.95 -10.25 7.80 -10.30 10.20 -12.95 13.20 -14.40 2.80 -1.40 4 -2.90 4.05 -5 0 -2.10 7.35 -8.50 9.75 -8.50 0.60 0 2.10 -0.65 3.30 -1.50 2.50 -1.70 4.40 -2.30 8.85 -2.80 2.10 -0.20 3.10 -0.15 3.10 0.20 0 0.30 -0.30 0.75 -0.70 0.95 -0.40 0.20 -1.40 1.90 -2.25 3.75 -0.80 1.85 -4.20 8.50 -7.45 14.75 -5.65 10.70 -6.15 11.95 -8.75 20.90 -3.35 11.35 -3.40 11.70 -5.65 29.50 -0.95 7.70 -2.40 17.85 -3.20 22.50 -0.80 4.70 -1.90 12.10 -2.45 16.50 -0.55 4.40 -1.55 11.95 -2.25 16.75 -3.40 23.45 -3.40 23.60 -3.20 60.30 0.10 27.50 0.25 33.70 0.85 34.35 0.60 0.75 0.50 0.85 -0.75 0.75 -0.80 0 -2.55 -0.20 -3.95 -0.35z"/>
  <path d="M703.80 696.20 c-0.15 -1.30 -0.30 -4.20 -0.30 -6.45 0 -2.25 -0.55 -7.05 -1.25 -10.65 -1.45 -7.95 -2 -12.15 -3 -23.60 -0.50 -6.20 -1.15 -10.40 -2.25 -14.55 -2.80 -10.70 -4 -23.65 -3.25 -34.55 0.30 -4.70 0.45 -5.40 1.25 -5.40 0.60 0 1.55 1.45 3.25 5.20 2.85 6.30 4 7.75 6.25 8.25 l1.75 0.35 0.85 5.95 c1.50 10.10 2.90 53.50 2 60.75 -0.30 2.35 -1.15 7.10 -1.95 10.65 -1.05 5 -1.55 6.35 -2.20 6.35 -0.60 0 -0.90 -0.65 -1.15 -2.30z"/>
  <path d="M392.50 587.75 c0 -0.95 0.60 -3.20 1.30 -5 1.25 -3.15 1.35 -3.25 3.05 -3.25 l1.80 0 -0.35 3.80 c-0.50 5.65 -0.80 6.20 -3.55 6.20 -2.25 0 -2.25 0 -2.25 -1.75z"/>
  <path d="M599.25 512.75 c-2 -0.65 -12.40 -2.75 -13.70 -2.75 -0.55 0 -0.55 0.15 -0.05 0.75 0.55 0.65 0.40 0.75 -0.80 0.75 -2.15 0 -6.70 -5 -6.70 -7.35 l0 -1.65 3.40 0 c3.05 0 3.70 0.20 7.10 2.15 2.05 1.15 5.85 3.10 8.40 4.30 3.85 1.85 4.60 2.40 4.60 3.40 0 0.60 -0.05 1.15 -0.10 1.10 -0.10 0 -1.05 -0.30 -2.15 -0.70z"/>
  <path d="M458.50 511.80 c0 -0.65 -0.45 -1.75 -1 -2.45 -0.55 -0.70 -1 -1.90 -1 -2.75 0 -1.25 0.30 -1.55 2.15 -2.25 3.70 -1.35 6.95 -2.30 12.35 -3.60 6.10 -1.45 8 -1.60 8 -0.50 0 0.40 -0.25 0.75 -0.60 0.75 -1.85 0 -18.05 9.80 -18.60 11.30 -0.45 1.15 -1.30 0.80 -1.30 -0.50z"/>
  <path d="M563.55 505.80 c-1.20 -1.45 -5.30 -2.35 -12.90 -2.80 -7.50 -0.50 -16.65 -1.85 -22.10 -3.25 -2.20 -0.55 -7 -0.70 -22.15 -0.80 -18.15 -0.05 -19.40 -0.10 -19.40 -0.95 0 -0.70 1.50 -1.25 8.15 -2.95 l8.15 -2.05 9.70 0 c5.35 0 11.80 0.25 14.25 0.50 7.25 0.80 35.45 5.55 36.10 6.05 0.55 0.50 1.45 6.30 1 6.75 -0.10 0.10 -0.50 -0.10 -0.80 -0.50z"/>
  <path d="M681 1166.10 c0 -0.25 -1.55 -2 -3.45 -4 -1.90 -1.95 -4.65 -5.30 -6.05 -7.45 -2.85 -4.35 -6.85 -12.30 -7.30 -14.60 -0.20 -0.80 -0.75 -1.90 -1.25 -2.35 -1.35 -1.20 -1.20 -1.70 0.55 -1.70 0.85 0 1.50 0.25 1.50 0.65 0 0.35 0.45 0.90 1 1.25 1.20 0.75 10.70 12.50 11.75 14.65 2.95 5.65 5.15 13.95 3.75 13.95 -0.25 0 -0.50 -0.20 -0.50 -0.40z"/>
  <path d="M837.75 1129.65 c-0.20 -1.05 -0.55 -3 -0.80 -4.30 -0.25 -1.30 -0.45 -4.15 -0.45 -6.30 0 -4.30 0.15 -4.55 3.10 -4.55 1.20 0 1.40 0.15 1 0.65 -0.30 0.35 -0.60 3.85 -0.65 8.50 -0.10 7.15 -0.20 7.85 -1 7.85 -0.65 0 -1 -0.55 -1.20 -1.85z"/>
  <path d="M838.60 1106.40 c-3.95 -15.15 -3.75 -11.90 -3.95 -67.40 -0.20 -52.75 -0.05 -57 1.85 -57 1.25 0 1.40 2.15 1.75 20.50 0.30 16.45 1.05 31.50 1.80 37.50 1.05 8.45 1.55 28.45 1.15 46 -0.25 9.75 -0.40 18.80 -0.40 20.15 0 1.90 -0.15 2.35 -0.80 2.35 -0.60 0 -1.05 -0.70 -1.40 -2.10z"/>
  <path d="M831.50 954.25 c0 -2.40 0.10 -2.75 1 -2.75 0.60 0 1 0.35 1 0.90 0.05 0.80 0.05 0.80 0.70 0 0.95 -1.30 1.30 -1.10 1.30 0.75 0 3.10 -0.45 3.85 -2.30 3.85 l-1.70 0 0 -2.75z"/>
  <path d="M224.50 536.65 c0 -1.60 1.70 -6.20 6.65 -18.25 0.50 -1.20 0.85 -1.40 2.45 -1.40 1.70 0 1.90 0.15 1.90 1.30 0 0.75 -1.70 5.55 -3.80 10.75 l-3.80 9.45 -1.70 0 c-1.65 0 -1.70 -0.10 -1.70 -1.85z"/>
  <path d="M293 433.40 c0 -1.45 0.65 -2.20 4.65 -5.80 2.50 -2.25 6.80 -5.75 9.45 -7.75 6.75 -5.05 20.45 -13.35 22.60 -13.70 1.95 -0.30 2.30 0.10 0.95 1.15 -1.10 0.80 6.80 -1.20 10 -2.55 0.65 -0.30 0.85 -0.10 0.85 0.80 -0.05 0.95 -0.95 1.80 -3.90 3.80 -2.10 1.40 -7.15 5.05 -11.15 8 -4.25 3.20 -8.50 5.95 -10.25 6.65 -4.60 1.85 -11.05 5.15 -15.90 8.20 -2.70 1.75 -4.95 2.80 -5.85 2.80 -1.30 0 -1.45 -0.15 -1.45 -1.60z"/>
 </g>
 <g fill="#000000">
  <path d="M434.55 1266.95 c-5.60 -0.60 -11.15 -2.05 -17.80 -4.70 -3 -1.20 -6.45 -2.25 -7.60 -2.40 -3.05 -0.35 -9.15 -3.60 -13.80 -7.35 -4.90 -3.90 -8.60 -8.85 -12.85 -17.15 -1.65 -3.20 -4.05 -7.25 -5.30 -9 -2.90 -3.85 -4.20 -6.75 -6.15 -13.40 -2.55 -8.95 -3.75 -15.55 -5.55 -30.95 -1.40 -11.55 -1.75 -23.75 -1 -34.25 0.35 -4.65 0.75 -13.95 0.85 -20.65 0.30 -14.15 -0.20 -19.05 -3.60 -36.60 -1.20 -6.20 -2.65 -14.85 -3.25 -19.25 -1.30 -10.05 -3.20 -19.75 -4.85 -24.95 -0.70 -2.25 -2.85 -7.65 -4.80 -12.05 -1.95 -4.40 -4.50 -10.35 -5.65 -13.25 -1.15 -2.90 -2.25 -4.90 -2.40 -4.50 -0.10 0.40 -0.50 3 -0.80 5.75 -0.65 5.85 -3.20 25.25 -4.30 32.70 -0.40 2.85 -0.95 5.60 -1.25 6.10 -0.65 1.30 -3.30 2.55 -4.45 2.20 -0.55 -0.20 -1 -0.25 -1 -0.15 0 0.55 -2.15 17.65 -3 23.90 -0.95 6.85 -1.10 7.35 -2.50 8.65 -1.10 1 -2.05 1.35 -3.50 1.35 -1.05 0 -2.10 0.25 -2.25 0.50 -0.15 0.30 -1.40 0.50 -2.70 0.50 -3.50 0 -4.55 -1.30 -5.10 -6.35 -0.45 -4.05 -0.65 -4.95 -2.40 -12.40 -1.55 -6.65 -1.70 -7.20 -4.75 -17 -1.55 -4.90 -2.80 -9.20 -2.80 -9.50 0 -0.35 -0.60 -1.10 -1.30 -1.80 -3.20 -2.90 -5.55 -11.15 -6.25 -21.70 -0.25 -4.10 -0.65 -10.30 -0.90 -13.75 -0.45 -6.70 0.10 -27.15 0.95 -35 0.80 -7.90 0.60 -10.75 -1.75 -23 -3.50 -18.50 -2.85 -16.75 -17.65 -47.25 -4.10 -8.55 -9.55 -20.55 -12.10 -26.75 -12.50 -30.50 -12.05 -29.50 -19.10 -42.60 -8.55 -15.90 -17.05 -34.90 -20.80 -46.40 -1.80 -5.55 -12.70 -43.60 -15.30 -53.50 -4.30 -16.35 -8.25 -40.50 -9.30 -56.50 l-0.45 -7.75 -2.75 -6.75 c-1.55 -3.70 -2.80 -7.45 -2.80 -8.35 0 -2.35 1.80 -4.15 4.25 -4.30 l2 -0.15 0.45 -2.95 c0.35 -2.25 0.25 -4.40 -0.45 -8.60 -1.05 -6.90 -1.75 -7.70 -7.50 -9.10 -7.80 -1.90 -21 -10.15 -35.75 -22.30 -2.05 -1.70 -4.30 -3.30 -4.95 -3.50 -0.70 -0.20 -2.25 -1.35 -3.50 -2.50 -1.25 -1.15 -4.20 -3.40 -6.55 -5 -2.35 -1.60 -5.10 -3.65 -6.15 -4.50 -1.65 -1.45 -2.15 -1.60 -4.10 -1.35 -2.05 0.20 -2.50 0.05 -5 -1.85 -3.70 -2.80 -8 -8.30 -16.70 -21.30 -12.30 -18.30 -16.45 -25.70 -22.45 -39.75 -1.10 -2.60 -2.80 -6.45 -3.75 -8.50 -4.20 -9 -5.10 -11.05 -7.45 -16.45 -6.75 -15.75 -9.85 -30 -10.05 -46.55 -0.10 -7.40 0.60 -10.85 2.70 -13.05 1.35 -1.45 1.65 -1.55 3.95 -1.35 l2.50 0.25 0 -1.55 c0 -1.60 0.85 -6.80 2.25 -13.55 1.95 -9.65 3.90 -15.75 5.70 -18.10 0.55 -0.65 0.85 -1.60 0.70 -2.10 -0.80 -3.10 3.45 -12.50 8.90 -19.55 3.75 -4.90 23.80 -25.30 32.80 -33.40 4.30 -3.85 5.40 -4.60 6.80 -4.60 0.90 0 2.10 0.30 2.60 0.70 0.85 0.60 1.30 0.35 4.50 -2.40 4.60 -4.05 7.30 -5.85 20.75 -13.90 6.20 -3.70 13.15 -8 15.45 -9.60 6.70 -4.50 9.30 -4.80 12.35 -1.45 0.90 0.95 1.85 1.60 2.15 1.40 0.30 -0.15 1.35 -0.05 2.30 0.25 2.20 0.75 3.45 2.95 3.05 5.30 -0.30 1.35 -0.15 1.75 0.70 2.20 0.60 0.35 1.40 1.35 1.80 2.30 0.70 1.65 0.65 1.90 -0.85 5.20 -1.30 2.75 -2.10 3.80 -4.15 5.25 -5.25 3.70 -6.30 4.90 -6.30 7.30 0 2.70 -0.15 2.85 -3.25 5.20 -4.45 3.35 -4.50 3.45 -8.60 13.90 -2.45 6.30 -2.70 7.25 -2.20 8.65 0.90 2.55 0.65 4 -0.95 5.60 -2.55 2.60 -3.35 6.55 -1.80 9.35 0.45 0.85 0.80 1.80 0.80 2.15 0 1.40 -1.50 3.50 -2.95 4.10 -1.25 0.50 -1.55 0.95 -1.85 2.90 -0.20 1.25 -0.35 12.90 -0.40 25.80 l-0.05 23.55 1.45 8.70 c1.40 8.25 1.40 8.80 0.65 10.15 -0.75 1.35 -0.75 1.60 0.20 4.05 1.60 4.15 12.25 23.55 14.30 26.10 0.65 0.85 3 4.10 5.25 7.25 6.90 9.90 16.05 20.05 20.60 22.95 1.40 0.85 2.65 1.55 2.85 1.55 0.20 0 0.95 -1.85 1.65 -4.10 0.70 -2.30 2.05 -6.15 3.05 -8.65 1.40 -3.55 2.05 -6.35 3.05 -13.25 2.05 -14.50 4.90 -24.70 10.20 -36.75 2.80 -6.45 3.90 -8 5.85 -8.50 2.55 -0.60 5.65 1.85 5.65 4.50 0 0.45 -1.15 3.45 -2.55 6.65 -1.40 3.20 -3.10 7.30 -3.80 9.10 -1.50 3.95 -4.15 13.30 -4.15 14.60 0 0.85 0.10 0.90 0.75 0.25 0.40 -0.40 1.50 -1.25 2.45 -1.85 1.15 -0.70 2.70 -2.60 4.40 -5.40 4.05 -6.80 9.10 -14.25 14.65 -21.60 2.80 -3.70 5.95 -8.20 7 -9.95 1.35 -2.20 2.40 -3.35 3.55 -3.85 1.20 -0.50 2.70 -2.15 5.25 -5.80 7.60 -10.75 18 -23.40 24.85 -30.25 5.70 -5.70 13.10 -11.65 20.35 -16.40 13.55 -8.85 45.60 -27.25 47.40 -27.25 0.30 0 0.05 -0.50 -0.50 -1.10 -0.55 -0.65 -1.25 -1.60 -1.55 -2.20 -0.40 -0.70 -1.40 -1.25 -3.35 -1.65 -5.25 -1.20 -11.20 -6.40 -11.25 -9.85 0 -1.35 1.80 -3.65 3.30 -4.20 1.70 -0.65 3.85 0.25 5.65 2.50 1.40 1.75 4.70 3.50 5.40 2.85 0.15 -0.15 -0.15 -2.65 -0.65 -5.60 -0.80 -4.80 -0.95 -5.15 -1.55 -4.10 -1.40 2.75 -5.30 2.90 -7.25 0.35 -1.80 -2.45 -2.40 -14.25 -2.10 -44.10 0.30 -26.05 0.30 -27 2 -42.20 1.30 -11.90 1.70 -17.70 1.70 -24.75 0.05 -21.20 1.40 -41.85 3.60 -54.20 0.60 -3.30 1.05 -6.65 0.95 -7.50 -0.35 -5.30 -0.30 -5.70 1.05 -7.10 0.95 -1 2.35 -4.65 5.10 -12.85 2.10 -6.25 3.80 -11.50 3.80 -11.60 0 -0.10 -0.35 -0.20 -0.75 -0.20 -0.40 0 -0.75 -0.15 -0.75 -0.35 0 -0.90 12.45 -38 15.40 -45.90 6.90 -18.40 8.50 -23.65 11.60 -38.25 2 -9.45 3.70 -16 5.70 -22.50 0.90 -2.90 2.50 -8.50 3.55 -12.45 1.60 -5.80 2.15 -7.25 3 -7.55 0.70 -0.25 1.35 -1.30 1.90 -3.20 1 -3.15 2.30 -4.30 4.85 -4.30 1.45 0 2.20 0.45 4.35 2.55 1.50 1.45 2.70 3.15 2.90 4.05 0.25 1.10 0.45 1.35 0.80 0.85 0.60 -1 1.55 0.15 2.60 3.05 0.75 1.95 1.30 2.50 4.10 4.10 l3.25 1.85 0 -2.25 c0 -1.95 0.15 -2.20 1.10 -2.20 0.60 0 1.50 -0.40 2.05 -0.85 0.55 -0.55 1.75 -0.90 2.95 -0.90 3.10 0 4.10 1.55 4.85 7.25 0.70 5.60 3.10 12.15 6.50 17.75 3.70 6.10 5 8.90 7.60 16.40 3.50 9.95 5.75 15.40 8.85 21.35 3.50 6.75 3.75 7.05 5.95 8.25 2.35 1.25 8.90 10.45 9.40 13.15 0.40 2.35 0.45 2.40 9.05 13.45 8.40 10.75 18.60 25.90 25.10 37.30 3.25 5.65 5 8.20 6.20 9 1.30 0.85 2.65 3.10 6.45 10.60 l4.85 9.50 2.15 0.35 c3.20 0.55 4.15 1.85 6.20 8.80 3.30 11.15 6.20 19 9.80 26.45 1.95 4.10 4.10 8.75 4.75 10.40 0.70 1.65 1.45 3.40 1.70 3.85 0.30 0.50 0.50 1.30 0.50 1.80 0 0.50 0.20 1.10 0.45 1.35 0.30 0.30 0.55 1.10 0.65 1.85 0.10 0.75 0.35 1.50 0.55 1.70 0.20 0.20 0.35 1 0.35 1.75 0 0.75 0.20 1.50 0.45 1.70 0.30 0.15 0.45 0.65 0.45 1.15 -0.05 1.30 2 10.10 3.90 16.85 2.05 7.20 4.25 16.50 5.70 24 1.50 7.80 1.30 7.40 2.75 5.95 3.20 -3.20 9.15 0.30 10.20 6.10 1.30 6.90 -2.80 15.60 -11.30 23.75 -4.05 3.90 -11 9 -14.25 10.50 -2.45 1.10 -1.55 1.25 3.25 0.65 2.50 -0.35 6.05 -0.65 7.75 -0.65 1.85 -0.05 3.95 -0.40 4.90 -0.85 1.15 -0.55 2.25 -0.70 3.30 -0.45 3.40 0.70 10.40 1.15 17.90 1.20 19.95 0.10 41.35 3.80 65.85 11.40 l9.10 2.80 1.80 -1.60 c1.45 -1.25 2.25 -1.55 4.05 -1.55 2.70 0 4.75 1 14.45 7 6.45 4 7.80 4.65 12.85 6 8.65 2.35 13.55 4 14.60 5.05 0.55 0.50 1.10 1.80 1.25 2.95 l0.30 2.05 8 3.65 c16.90 7.65 22.30 10.80 30.10 17.40 3.55 3 6.80 6.50 9.35 10.10 0.60 0.85 1.35 -0.10 9 -11.35 9.30 -13.70 12.15 -18.35 14.70 -23.85 l1.75 -3.75 0.05 -10.75 c0.05 -10.45 -0.65 -17 -1.85 -17 -0.70 0 -1.90 -3.45 -1.55 -4.70 0.35 -1.45 1.50 -2.60 3.80 -3.70 l1.65 -0.85 0.15 -5.65 c0.10 -4.75 -0.05 -6.30 -1.15 -10.25 -0.70 -2.50 -1.95 -9.55 -2.75 -15.60 -1.10 -7.80 -2 -12.30 -3.05 -15.50 -0.85 -2.45 -2.30 -7.20 -3.25 -10.45 -0.95 -3.45 -2.30 -6.85 -3.05 -7.95 -0.75 -1.10 -3.85 -4.25 -6.85 -7.05 -9.40 -8.65 -10.70 -10.05 -11.05 -11.45 -0.45 -1.80 0.55 -4.20 2.10 -5 l1.20 -0.65 -2.60 -2.95 c-5 -5.70 -10.45 -12.80 -10.75 -14 -0.20 -0.80 -1.25 -1.75 -3 -2.70 -1.45 -0.85 -2.90 -1.95 -3.20 -2.50 -1 -1.85 -0.60 -4.05 1 -5.65 1.35 -1.30 1.80 -1.50 3.50 -1.25 l2 0.25 -3.15 -4.55 c-4.85 -7.15 -10.05 -12.10 -16.40 -15.50 -2.90 -1.60 -5.80 -3.40 -6.45 -4.10 -1.50 -1.60 -1.55 -4.35 -0.10 -5.90 0.60 -0.65 1.10 -1.75 1.10 -2.45 0 -0.75 0.60 -2 1.30 -2.85 1.15 -1.35 1.60 -1.55 3.90 -1.55 2.05 0 3.10 0.30 4.60 1.35 1.90 1.30 15 7.55 22.95 11 3.90 1.65 4 1.70 5.75 0.90 2.50 -1.10 4 -0.45 8.25 3.75 2.55 2.50 5.30 4.45 10.25 7.25 7.70 4.40 12.75 7.85 13.50 9.25 0.25 0.50 0.50 1.60 0.50 2.40 0 1.90 1.55 3.30 3.25 2.90 1.95 -0.50 4.70 0.95 8.25 4.40 1.80 1.70 5.70 5.25 8.75 7.85 8.10 6.95 12.95 11.65 17.15 16.70 3.25 3.90 4.05 4.55 5.75 4.85 1.10 0.20 2.40 0.75 2.90 1.20 2.60 2.35 14.15 38.10 15.30 47.30 0.25 2.15 0.15 2.50 -1.25 3.85 -1.80 1.85 -3.85 2 -5.70 0.55 -1.60 -1.20 -2 -2.30 -3.90 -10 -3.50 -14.15 -8.50 -29.50 -9.65 -29.50 -0.30 0 -1.05 -0.50 -1.65 -1.05 -1.10 -1 -1.05 -0.60 1.10 7.60 4.55 17.75 6.70 24.55 12.70 40.95 2.45 6.65 4 12.80 4 15.60 0 2.95 -1.65 4.65 -4.55 4.65 -2.85 0 -3.85 -1.30 -4.95 -6.30 -0.50 -2.30 -2.70 -9.25 -4.90 -15.45 -5.80 -16.40 -6.10 -17.40 -10.05 -32.35 -0.45 -1.60 -0.85 -2.15 -1.55 -2.15 -1.75 0 -3.45 -2.10 -4.25 -5.25 -2.25 -8.85 -14.60 -29.15 -23.65 -38.85 -2.95 -3.10 -3.35 -3.35 -7 -4.30 -2.10 -0.55 -6.75 -1.50 -10.35 -2.05 -3.55 -0.60 -7.15 -1.20 -7.90 -1.35 -1.40 -0.30 -1.40 -0.30 -0.70 1.15 0.40 0.75 1.45 3.90 2.35 6.90 0.90 3.15 2.45 6.90 3.55 8.75 1.05 1.80 2.25 4.10 2.65 5.10 0.45 1 1.35 2.70 2.05 3.75 1.05 1.50 1.25 2.25 1 3.75 -0.45 2.45 3 11.20 5.50 14 0.95 1.05 1.75 2.30 1.75 2.80 0 0.50 0.70 1.40 1.50 2.05 3.65 2.65 4.40 4.90 7.50 22.30 2.60 14.65 3.20 23.80 2.45 39 -0.30 6.05 -0.60 14.25 -0.70 18.25 -0.15 8.45 -0.50 10.35 -3.45 19.75 -1.20 3.85 -2.65 9.35 -3.20 12.25 -1.70 9.05 -4.25 14.15 -8.80 17.55 -2.35 1.80 -5.30 5.75 -5.30 7.15 0 0.35 -3.45 4.55 -7.70 9.30 l-7.75 8.60 1.25 2.85 c2.25 5 11.45 22.60 16.70 31.80 9.40 16.55 13.85 24.10 14.45 24.50 0.25 0.15 0.60 0.05 0.80 -0.25 0.60 -1 3.20 -0.50 4.70 0.90 1.20 1.10 1.85 2.90 4.10 10.80 1.45 5.15 3.25 10.55 4 12 0.70 1.40 2.95 5.50 4.90 9.05 4.30 7.85 9.75 18.85 12.85 26.15 3 6.95 9.20 25.35 9.20 27.20 0 1 -0.50 2 -1.55 3 l-1.50 1.55 5.10 12.80 c2.85 7.05 5.45 13.55 5.80 14.45 l0.70 1.65 1.30 -1.05 c1.75 -1.35 3.75 -1.25 5.60 0.30 l1.55 1.30 0 7.80 c0.05 10.45 0.65 16.30 2.75 25.60 0.95 4.25 2.30 11.15 3 15.25 0.70 4.15 1.70 9.20 2.25 11.25 1.35 5.50 2.70 12.35 4.95 25.25 1.10 6.35 3 16.80 4.25 23.25 3.75 19.45 3.75 19.45 3.90 39.50 0.10 16.05 0 18.55 -0.75 20.95 -1.15 3.75 -1.10 4.35 0.60 4.95 0.80 0.30 1.85 1.10 2.35 1.85 1.05 1.60 0.80 5.10 -1.40 17.95 -0.85 5 -1.55 10.05 -1.65 11.30 -0.05 1.25 -1.05 5.75 -2.20 10 -2 7.20 -2.15 8.30 -2.35 15.50 -0.15 4.25 -0.30 8.80 -0.40 10.15 l-0.15 2.35 1.70 0 c2.05 0 4.65 2.30 4.65 4.10 0 3.40 3.55 15.10 6.75 22.15 4.10 9.15 6.55 15.30 8.90 22.25 2.55 7.70 2.60 8 1.15 10.10 -1 1.50 -1.15 2.05 -0.75 3.70 3.65 16.30 5.50 33.85 3.90 37.40 -0.45 0.95 -0.45 2.55 0 6.40 0.35 2.85 0.80 13.35 1.05 23.35 0.55 20.15 0.65 21.20 4.55 39 3.95 17.85 4.15 20.40 1.90 23.25 -0.55 0.70 -1.90 1.55 -3 1.90 -1.15 0.30 -2.45 1.15 -3 1.95 -1.30 1.80 -3.75 2.35 -5.90 1.25 -0.85 -0.45 -1.55 -1.05 -1.55 -1.30 0 -0.20 -1.20 -0.30 -2.70 -0.15 -2.40 0.25 -2.85 0.15 -3.90 -0.95 -1.60 -1.55 -2.60 -6.45 -2.15 -10.55 0.35 -3.35 -0.40 -10.10 -1.50 -14 -0.80 -2.75 -5.85 -14.55 -7.65 -17.85 -2.35 -4.30 -7.80 -12.10 -12.70 -18.05 -8.45 -10.30 -9.30 -12.05 -11.20 -23.65 -0.45 -2.90 -1 -5.30 -1.15 -5.30 -0.85 0 -3.50 10.35 -5.05 19.55 -0.55 3.40 -1.60 9 -2.30 12.45 l-1.25 6.25 0.20 49 c0.20 55.20 -0.15 50.20 4.65 68.80 1.40 5.55 1.20 6.95 -1.30 8.35 -1.30 0.75 -1.50 1.10 -1.50 3.10 0 1.25 0.35 4.15 0.80 6.50 0.75 4.20 1 5.60 2.55 14.25 1.20 6.90 1.25 38.70 0.05 45.10 -1.15 6.05 -3.30 11.75 -6.60 17.60 -1.50 2.65 -2.95 5.65 -3.30 6.70 -0.30 1 -0.75 1.85 -0.95 1.85 -0.20 0 -1.40 1.85 -2.60 4.05 -1.20 2.25 -2.95 4.75 -3.95 5.55 -2.30 1.95 -6.50 3.60 -13.50 5.40 -5.70 1.50 -8.40 1.75 -10.15 1.05 -0.50 -0.20 -3.35 0.30 -6.50 1.10 -3.40 0.85 -7.65 1.50 -10.85 1.70 -4.80 0.25 -5.40 0.40 -6.85 1.65 -1.50 1.35 -1.85 1.40 -9.10 1.75 -9.50 0.45 -27.70 -0.15 -30.05 -1 -12.45 -4.50 -14.50 -5.40 -18.35 -8.10 -2.65 -1.85 -3.45 -2.15 -5.65 -2.15 -3.10 0 -4.85 -0.85 -7.05 -3.45 -1.95 -2.25 -7.80 -13.75 -10.25 -20.15 -1.75 -4.50 -3.70 -14.75 -3.70 -19.40 0 -2.55 0 -2.55 -1.10 -1.80 -0.60 0.45 -1.95 0.80 -2.90 0.80 -2.30 0 -3.90 -1.60 -4.55 -4.60 -0.55 -2.45 -5.60 -16.20 -7 -18.95 -1.05 -2.15 -8.45 -11.60 -11.90 -15.20 -3.90 -4.10 -5.60 -6.50 -6.25 -8.80 -0.60 -2 -1.05 -2.45 -4.80 -4.80 -3.95 -2.50 -4.25 -2.60 -6.95 -2.40 -1.55 0.15 -6.30 0.50 -10.55 0.75 -19.35 1.30 -36.95 5.25 -48.20 10.80 -1.95 0.95 -4.20 1.70 -5.05 1.70 -1.50 0 -3.20 -1.15 -4.15 -2.80 -0.40 -0.70 -0.95 -0.60 -4.90 1.05 -2.45 1 -5.65 2.50 -7.05 3.30 -1.55 0.85 -3.40 1.45 -4.40 1.45 -3.10 0 -8.10 3.90 -10.25 8 l-0.65 1.20 1.60 -1.35 c2.10 -1.75 3.70 -2.10 5.60 -1.35 1.55 0.65 2.95 2.75 2.95 4.40 0 0.50 -1.35 2.60 -3 4.65 -5.85 7.20 -6.25 9.10 -6.75 31.45 -0.35 16.45 -1.05 26.05 -2.30 32.15 -1.85 9.25 -3.70 12.45 -9.45 16.35 -3.40 2.30 -12.95 7.10 -20 10 -2.90 1.20 -5.70 2.55 -6.25 3.05 -1.80 1.50 -5.05 2.90 -10.55 4.50 -9.40 2.70 -26.75 6.50 -32.20 7 -6.10 0.55 -9.25 1.40 -14.20 3.75 -6.75 3.20 -14.35 4.45 -22.25 3.65z m0.85 -16.45 c0.95 -1.25 1.45 -1.50 3.30 -1.50 1.40 0 2.40 0.30 2.85 0.80 0.55 0.65 1.40 0.75 4.95 0.55 3.70 -0.20 5.45 -0.65 14 -3.80 11.15 -4.15 17.55 -5.90 28.50 -7.80 13.90 -2.45 18.50 -3.60 19.75 -4.95 0.65 -0.70 1.80 -1.40 2.60 -1.55 4.15 -0.80 6.10 -1.40 8.15 -2.40 l2.25 -1.15 2.85 -10.90 2.85 -10.90 -1.05 -3.35 c-1.80 -5.75 -2.40 -10.95 -2.75 -22.80 -0.25 -10.20 -0.20 -11.70 0.55 -13.15 0.45 -0.85 1 -1.60 1.20 -1.60 1.30 -0.05 1.65 -1.25 2.10 -7.30 0.85 -10.65 1.75 -12.85 7.80 -18.70 1.80 -1.75 3.70 -4 4.25 -5.05 1.25 -2.50 3.85 -5.45 5.25 -5.95 0.60 -0.25 1.95 -0.20 3 0.05 1.85 0.45 2.25 0.30 6.95 -2.30 5.10 -2.85 14.45 -6.75 16.10 -6.75 0.50 0 1.55 0.35 2.30 0.75 1.35 0.70 1.60 0.60 5.75 -1.70 5.05 -2.85 14 -6.60 18.45 -7.75 6.60 -1.70 43.05 -2.50 47.20 -1 1.80 0.60 2.60 0.65 4.30 0.15 1.55 -0.40 2.50 -0.40 3.70 0 0.90 0.30 3.90 0.55 6.75 0.55 4.65 0 5.25 0.10 6.55 1.20 1.10 0.95 2.25 1.25 5.65 1.55 5.15 0.45 6.75 1.20 7.45 3.40 0.65 1.95 0.20 3.60 -1.40 5.05 -0.80 0.75 -1.75 0.90 -4.55 0.85 -1.90 -0.05 -3.50 0.05 -3.50 0.20 0 0.20 0.25 0.75 0.55 1.35 0.45 0.80 0.85 0.95 2.25 0.70 2.95 -0.60 4.60 0.75 5.85 4.75 0.15 0.45 1 0.95 1.90 1.15 2.35 0.45 5.30 3.80 9.15 10.25 5.15 8.65 7.35 13.40 10.15 21.55 0.40 1.25 1.05 2.60 1.45 3.05 0.40 0.40 0.70 1 0.70 1.30 0 0.85 7.15 7.25 13.75 12.30 8.95 6.90 11.85 9.80 14 14.15 1.35 2.75 2.10 3.70 2.85 3.70 0.55 0 1.65 0.65 2.45 1.45 2.40 2.45 1.65 6.30 -1.50 7.45 -1.40 0.50 -1.80 0.40 11.45 3.55 10.85 2.55 13.75 2.95 26.40 3.55 15.55 0.75 25.70 -0.70 31.10 -4.35 0.95 -0.60 2.45 -1.15 3.30 -1.15 1.90 0 3.95 1.55 4.40 3.25 0.40 1.50 0.90 1.45 5.40 -0.80 2.45 -1.25 3.10 -1.90 4.85 -4.80 1.35 -2.30 2.05 -4.30 2.30 -6.15 1 -8.05 4.45 -20.60 6.05 -22.15 1.05 -1 1.20 -1.55 1.20 -5.60 0 -2.45 -0.25 -6.75 -0.55 -9.50 -0.30 -2.75 -0.70 -13.90 -0.95 -24.75 -0.35 -15.50 -0.65 -21.20 -1.40 -26.45 -0.75 -4.80 -0.90 -7.05 -0.55 -8 1 -2.55 0.35 -10 -1.60 -18.55 -4.30 -19.05 -5.60 -28.60 -6.50 -48.50 -1.30 -29.20 -1.05 -48.25 0.70 -54.05 0.70 -2.25 0.70 -2.30 -0.75 -3.90 -1.75 -1.95 -1.75 -3.20 0 -10.05 0.60 -2.35 1.45 -6.25 1.85 -8.75 0.50 -2.70 1.30 -5.40 2.10 -6.75 0.70 -1.25 1.65 -2.90 2.05 -3.75 0.80 -1.50 3.15 -13.80 5.35 -27.75 1.05 -7 1.30 -7.85 2.50 -8.85 1.75 -1.50 4 -1.45 6.30 0.15 1.05 0.70 2.80 1.40 3.95 1.55 1.45 0.20 2.35 0.70 3.15 1.70 0.60 0.80 1.85 2.40 2.75 3.50 0.85 1.15 1.60 2.20 1.60 2.35 0 0.20 1.20 1.65 2.70 3.25 1.50 1.60 3 3.70 3.35 4.75 0.30 1 1.85 3.85 3.35 6.35 3.90 6.40 10.15 18.95 13.10 26.45 2.65 6.65 9 26.60 9 28.25 0 0.50 -0.50 1.65 -1.15 2.60 l-1.20 1.70 2.30 4.25 c1.25 2.35 2.90 5.95 3.70 8 l1.35 3.75 -0.25 -2.50 c-0.45 -3.80 -3.05 -16.65 -5.80 -29.25 -6.65 -29.90 -8.70 -41.55 -11.20 -63.50 -1.65 -14.95 -1.65 -17.45 0.10 -19.50 1.25 -1.50 1.50 -1.60 3.75 -1.40 2.60 0.25 2.60 0.25 1.95 -1.90 -0.25 -0.80 -0.70 -2.45 -1.10 -3.70 -0.35 -1.25 -0.95 -2.65 -1.35 -3.10 -0.40 -0.50 -0.90 -2.30 -1.10 -4 -0.55 -4.20 -1.75 -9.65 -2.75 -12.40 -1 -2.85 -5.20 -10.75 -8.05 -15.15 l-2.20 -3.40 0 -5.70 c0 -4.90 -0.15 -5.95 -1.05 -7.50 -1.15 -1.90 -1.05 -3.05 0.85 -11.80 0.40 -1.85 0.70 -4 0.70 -4.85 0 -1.45 -0.05 -1.50 -1.95 -1.25 -2.30 0.30 -3.80 -0.40 -4.75 -2.30 -0.65 -1.25 -0.65 -2.05 0.20 -7.25 1.30 -7.85 2 -18.05 2 -29 0 -8.60 -0.05 -8.95 -1.15 -10.30 -1.15 -1.35 -1.20 -1.80 -1.55 -13.05 -0.50 -16.75 -1.90 -39.15 -3.60 -57.55 l-0.80 -8.40 1.15 -2 c1.10 -1.95 1.10 -2.05 0.55 -10.85 -0.35 -4.90 -1.10 -13.45 -1.65 -19.05 -0.95 -9.85 -1.10 -10.45 -4.15 -20 -1.75 -5.40 -4.25 -13.40 -5.55 -17.70 -1.35 -4.35 -2.50 -7.80 -2.60 -7.75 -0.10 0.10 0.30 3.15 0.85 6.75 0.70 4.50 0.85 6.90 0.55 7.75 -1.20 3.05 -5.60 3.90 -7.65 1.45 -1 -1.25 -1.40 -2.85 -2.60 -11.15 -1.80 -12.50 -3.65 -21.75 -6.80 -34.20 -3.30 -12.90 -7.90 -30.10 -8.60 -32 -2.50 -7 -11.05 -24.45 -19.40 -39.75 -5.85 -10.60 -10.80 -20.30 -12.75 -24.95 -1 -2.45 -1.25 -3.70 -1.05 -5.15 0.25 -1.55 0.05 -2.30 -1.25 -4.25 -1.10 -1.75 -1.45 -2.05 -1.25 -1.15 0.70 3.50 3.80 23.25 3.80 24.45 0 3.05 -3.05 5 -6.10 3.95 -2.50 -0.90 -3 -2.70 -5.65 -19.45 -1.95 -12.70 -5.35 -24.65 -9.70 -34.20 -1.95 -4.30 -3.50 -6.75 -9.25 -14.85 l-4.50 -6.35 -2.35 0.30 c-1.85 0.20 -2.65 0.05 -3.80 -0.70 -0.75 -0.55 -4.95 -2.95 -9.30 -5.35 -12.45 -6.80 -17.30 -10 -33.65 -22.25 -5 -3.75 -11.95 -8.95 -15.50 -11.55 -13.40 -9.85 -21.50 -17.35 -22.80 -21.15 -0.60 -1.60 0.15 -1.45 -13.65 -3.35 -15.55 -2.20 -30.20 -4.75 -39.50 -6.85 -7.40 -1.70 -8.50 -1.85 -15 -1.75 -20.20 0.30 -69.75 5.20 -76.05 7.55 -1.75 0.65 -3.25 0.90 -4.70 0.70 -1.15 -0.15 -4 0 -6.30 0.35 -4.20 0.65 -4.20 0.65 -2.95 1.50 3 1.95 3.80 5.55 1.75 7.75 -1.75 1.85 -3.30 2 -6.20 0.45 -3.90 -2.05 -9.60 -2.20 -19.85 -0.40 -1.55 0.25 -2.05 0.10 -3.55 -1.25 l-1.80 -1.55 -11.40 3.30 c-41.65 12 -75.70 22.90 -85.25 27.30 -7.40 3.45 -14.10 8.55 -13.60 10.40 1.20 4.50 -4.55 7.40 -8.30 4.25 -2.10 -1.80 -2.75 -4.10 -1.90 -6.60 l0.65 -1.95 -6.15 4.20 -6.15 4.25 0 2.05 c0 3.25 -0.85 4 -7.10 6.05 -3.95 1.30 -6.45 2.45 -8.40 3.90 -6.65 4.95 -20.70 16.95 -25.55 21.80 -5.80 5.80 -7.75 8.85 -8.45 13.45 -0.60 3.65 -1.95 5.10 -4.75 5.10 -1.60 0 -2.35 -0.30 -3.30 -1.30 -1 -1.10 -1.20 -1.75 -1.15 -4.35 0.05 -1.70 0.45 -4.10 0.90 -5.35 l0.85 -2.25 -3.35 3.25 c-5.80 5.70 -8 8.65 -9.20 12.35 -1.80 5.40 -4.10 10.05 -8.90 18 -5.05 8.40 -10.20 18.30 -11.15 21.65 -0.35 1.25 -1.10 2.95 -1.70 3.75 -1 1.40 -8.75 20.25 -12.20 29.60 -2.20 6 -7.90 24.80 -8.75 28.90 -0.40 1.95 -0.85 6 -1.05 9 -1.05 18.30 -3.05 37.05 -5.55 52 -0.70 4.30 -1.20 9.10 -1.10 11.35 0.05 3.40 -0.05 4.05 -1 5.05 -1.10 1.15 -1.10 1.30 -0.60 8.90 0.25 4.25 0.95 12 1.55 17.20 1 9.25 1.05 9.55 2.45 10.60 1.15 0.95 1.60 2.10 2.75 6.75 0.80 3.10 1.80 6.20 2.30 6.90 0.50 0.70 1.35 3.15 1.90 5.50 1.25 5.35 5.75 19.75 8.85 28.15 2.30 6.30 6.05 13.35 8.45 15.85 2 2.10 2.50 4.10 1.45 6.25 -0.85 1.80 -0.85 1.80 1.30 7.40 5.40 14.15 11.40 27.35 15.95 35.10 1.15 1.90 2.05 3.95 2.05 4.55 0 1.25 -1.75 3.65 -3 4.10 -0.80 0.30 -0.35 1.55 3.50 10.60 2.40 5.65 5.90 14.35 7.75 19.30 3.40 9.15 3.75 9.75 7.80 13.35 1 0.85 1.35 1.80 1.60 4 0.55 4.25 1.90 7.35 15.45 34.50 6.80 13.65 12.40 25.10 12.40 25.40 0 0.25 0.45 1.35 1 2.45 1.50 2.95 1.30 5.30 -0.50 7 -1.85 1.70 -1.90 3.15 -0.20 5.15 1.20 1.40 1.25 1.80 1 4.80 -0.15 1.80 -0.55 7.45 -0.80 12.55 -0.60 10.60 -1.75 24.25 -2.65 32.30 -0.45 3.65 -0.65 12.25 -0.60 25.25 0.05 21 0.05 20.90 2.95 34.95 1.05 4.90 3.70 13.35 4.05 12.90 0.05 -0.10 -0.05 -2.75 -0.30 -5.90 -0.60 -8.90 -0.55 -28.60 0.10 -31.60 0.95 -4.30 2.70 -7.75 5.60 -10.80 2.55 -2.65 2.85 -3.25 4.20 -8.15 1.35 -4.95 1.40 -5.50 0.80 -7.50 -0.40 -1.20 -0.75 -3.50 -0.80 -5.10 -0.10 -2.65 0.05 -3.05 1.30 -4.15 1.45 -1.20 3.95 -1.60 5.25 -0.75 0.45 0.25 1.10 0 1.85 -0.75 1.55 -1.55 3.35 -1.95 5.10 -1.10 1.10 0.50 6.25 7.25 8.60 11.30 0.25 0.45 0.70 0.50 1.90 0.05 1.30 -0.40 1.95 -0.35 3.35 0.30 2.10 1 2.60 2.20 4.80 11 1.70 6.85 2.55 9.30 5.20 15 0.90 1.95 2.15 4.90 2.85 6.65 1.15 2.95 1.30 3.10 2.85 3.10 2.45 0 3.90 1.80 4.60 5.90 1 6 4.90 20.60 5.95 22.25 0.55 0.90 1.70 4.80 2.55 8.60 5.05 22.75 6.05 30.30 6.30 49.05 0.15 12.55 0.30 14.25 1.90 24 3.30 19.90 5.30 39.40 5.30 51.35 0 4 -0.25 7.35 -0.55 7.95 -0.30 0.55 -1.30 1.30 -2.25 1.70 -1.55 0.65 -1.70 0.90 -1.50 2.35 0.15 0.90 0.40 2.95 0.55 4.60 0.35 3.40 2.20 11.05 3.75 15.45 1.35 3.95 3 6.60 5.45 9.05 1.75 1.65 2.05 2.25 2.05 4 0 1.15 -0.25 2.30 -0.60 2.65 -0.90 0.90 0.10 2.55 3.90 6.55 3.15 3.35 3.55 3.65 7.40 4.80 7.65 2.30 19.60 5 22.85 5.20 0.40 0.05 1.25 -0.60 1.85 -1.45z m327.60 -26.90 c0 -0.20 -2.20 -0.70 -4.85 -1.05 -2.70 -0.35 -5.80 -0.85 -6.90 -1.10 -1.10 -0.25 -5.75 -1.35 -10.35 -2.45 -4.60 -1.10 -9.25 -2 -10.25 -2 -1.65 0 -4.15 -0.45 -7.40 -1.30 -0.55 -0.15 0.25 0.55 1.75 1.55 1.75 1.15 3.10 1.70 3.80 1.55 0.55 -0.15 2.40 0.40 4.25 1.30 6.75 3.30 9.70 3.85 20.35 3.85 5.25 0.05 9.60 -0.15 9.60 -0.35z m-224.75 -17.85 c0.40 -2.45 0.90 -7.90 1.10 -12 0.30 -7.35 0.25 -7.55 -1 -10.25 -0.75 -1.55 -1.60 -3.95 -1.90 -5.35 l-0.60 -2.60 -1.40 1.10 c-1.30 1.05 -1.40 1.30 -1.40 5.25 l-0.05 4.10 1.45 0 c1.60 0 4.05 2.40 4.05 3.95 0 3.50 -1.20 14.55 -2 18.05 -1.60 7.50 -1.60 7.50 -0.30 4.75 0.70 -1.35 1.60 -4.50 2.05 -7z m183.45 -6.10 c-0.95 -2.15 -2.25 -4.40 -2.85 -5.05 -0.60 -0.65 -4.50 -3.85 -8.70 -7.10 l-7.55 -5.90 0.25 1.85 c0.60 3.65 2.25 7.20 4.45 9.35 2.85 2.75 12.10 8.90 16.05 10.65 0.05 0.05 -0.65 -1.70 -1.65 -3.80z m-391 -178.25 c0.25 -1.10 1.30 -9.70 1.30 -10.55 0 -0.25 -0.50 -0.35 -1.10 -0.25 -1.25 0.15 -1.85 2.15 -2.55 8.50 -0.30 2.45 -0.25 2.85 0.50 3.05 1.55 0.40 1.65 0.35 1.85 -0.75z m526.90 -58.25 c-0.15 -2.20 0.10 -4.20 0.60 -5.65 l0.75 -2.20 -3.30 -6.40 c-1.85 -3.50 -3.40 -6.30 -3.45 -6.25 -0.10 0.10 0.15 1.25 0.60 2.60 0.40 1.40 1.30 5.65 1.95 9.45 0.70 3.85 1.35 7.45 1.55 8 0.30 1.20 1.30 3.80 1.40 3.80 0.05 0 0 -1.50 -0.10 -3.35z m-22.85 -13.10 c-0.55 -0.55 -1.20 0.80 -1.45 3.20 l-0.30 2.50 1 -2.70 c0.55 -1.50 0.90 -2.85 0.75 -3z m48 -6.80 c-0.15 -1.75 -0.60 -3.55 -0.95 -4.05 -0.50 -0.65 -0.50 0.20 0.10 3.80 0.85 5.15 1.40 5.30 0.85 0.25z m-43.80 -2.60 c1.85 -3.90 1.80 -5.55 -0.05 -1.90 -1.20 2.45 -2.15 5.25 -1.70 5.25 0.10 0 0.90 -1.50 1.75 -3.35z m-542.50 -4.40 c-2.10 -3.70 -2.65 -3.90 -1.20 -0.40 0.65 1.60 1.35 3.80 1.55 4.90 l0.40 2 0.40 -1.90 c0.35 -1.60 0.15 -2.30 -1.15 -4.60z m585.05 -7.35 c-1.10 -7.90 -3.75 -21.55 -3.90 -20.10 -0.15 1.40 1.95 19.90 2.70 24.10 0.30 1.55 0.35 1.60 1 0.65 0.55 -0.80 0.60 -1.70 0.20 -4.65z m-582.80 -10.30 c-7.25 -13.80 -7.95 -15.10 -8.35 -15.10 -0.20 0 2.15 4.95 5.15 11 3.15 6.25 5.75 10.90 6.05 10.75 0.25 -0.20 -0.90 -2.95 -2.85 -6.65z m-80.40 -170.40 c-2.25 -10.25 -4.10 -19.30 -5.55 -27.45 -0.65 -3.60 -1.85 -8.20 -2.70 -10.25 -0.80 -2.05 -1.50 -3.50 -1.50 -3.15 -0.05 1.10 3.45 19.85 4.70 25.15 1.80 7.55 6.35 24.05 6.60 23.80 0.10 -0.10 -0.60 -3.75 -1.55 -8.10z m641.75 -34.55 c-0.10 -0.65 -0.35 -1.15 -0.60 -1.15 -0.50 0 -0.55 6.55 -0.05 11.75 l0.35 4 0.25 -6.75 c0.15 -3.70 0.15 -7.25 0.05 -7.85z m-664.90 -91.50 c0.20 -3.25 0.60 -6.90 0.90 -8.15 0.50 -2.25 2.10 -4.50 3.20 -4.50 0.90 0 1.25 -3.05 1.75 -14.25 0.45 -10.20 1.90 -25.80 3.25 -35.25 0.40 -2.90 0.75 -5.40 0.75 -5.55 0 -0.20 -1.65 -1.55 -3.60 -3.10 -5.40 -4.10 -8.90 -7.65 -8.90 -9 0 -2 -0.90 -2.40 -3.05 -1.25 -1.25 0.65 -2.30 0.85 -3.05 0.65 -1.35 -0.40 -3.40 -2.20 -3.40 -2.95 0 -0.25 -0.90 -2.30 -1.95 -4.50 -1.55 -3.15 -2.60 -4.60 -4.90 -6.55 -4.85 -4.15 -17.05 -16.25 -19.85 -19.75 -5.95 -7.25 -10.80 -15.80 -10.80 -18.95 0 -0.95 0.50 -1.95 1.45 -2.85 l1.50 -1.45 -2.30 -4 c-2.65 -4.60 -6.55 -13.10 -8.05 -17.50 -2.10 -6.20 -2.70 -10.25 -2.95 -20.75 -0.30 -10.55 0 -13.75 1.80 -22 0.55 -2.35 1.20 -5.95 1.50 -8 0.90 -6 4.75 -16.50 9.55 -26.25 5.85 -11.80 9.55 -17.40 15.30 -23 5.25 -5.15 9.70 -10.05 9.70 -10.75 0 -0.25 -1.55 0.25 -3.50 1.10 -2.90 1.30 -3.55 1.80 -4 3.20 -0.45 1.30 -1.95 2.60 -7.40 6.50 -8.60 6.10 -19.05 14.30 -22.50 17.70 -1.45 1.40 -4.25 4.55 -6.20 6.90 -7.45 8.95 -22.95 26.35 -24.70 27.70 -3.30 2.65 -14.65 22.25 -19.60 33.90 -3.35 7.95 -4.15 11.10 -4.20 17 -0.25 23.65 3.15 36.70 13.50 51.75 3.05 4.40 3.80 5.90 3.85 7.55 0.10 2.30 2.30 5.75 15.25 23.95 4.30 6.05 9.95 14.05 12.50 17.75 10.75 15.60 17.90 25.40 20.60 28.25 1.55 1.70 5.50 4.95 8.75 7.25 3.25 2.30 9.50 7 13.90 10.50 11.80 9.35 11.35 9 14.30 9.25 1.70 0.15 3.10 0.65 4.15 1.40 1.45 1.15 6.20 3.80 6.85 3.85 0.15 0 0.45 -2.65 0.60 -5.85z m-77.15 -49.35 c0 -0.65 -14.80 -21.80 -15.25 -21.80 -0.30 0 3.30 5.80 9.55 15.25 4.45 6.80 5.70 8.25 5.70 6.55z m112.20 -45.20 c2 -5 3.50 -9.10 3.35 -9.10 -0.20 0 -0.60 0.60 -0.90 1.40 -6.05 14.85 -7.15 17.70 -6.45 17.05 0.15 -0.15 1.95 -4.35 4 -9.35z m-75.90 -59.40 c-1.55 -8.90 -1.80 -17.25 -1.30 -40.20 0.25 -12.20 0.35 -22.30 0.25 -22.45 -0.15 -0.10 -0.25 0.15 -0.25 0.60 0 0.45 -0.55 1.20 -1.25 1.65 -1.25 0.85 -1.65 2.40 -0.75 2.95 0.30 0.15 0.50 1.20 0.50 2.35 0 1.55 -0.30 2.30 -1.40 3.30 -0.80 0.75 -1.85 2.05 -2.35 2.95 -0.80 1.40 -0.85 1.90 -0.30 5.10 0.60 3.80 0.30 5.15 -1.45 6.40 -3.35 2.35 0.75 25.40 7.25 40.85 1.40 3.30 1.90 1.55 1.05 -3.50z m153.20 -42.40 c2.35 -1.20 5.60 -2.65 7.20 -3.30 1.75 -0.70 5.90 -3.40 10 -6.45 12.65 -9.45 27.25 -18.90 36.70 -23.80 1.95 -1 3.60 -1.90 3.60 -1.95 0 -0.05 -0.80 -0.15 -1.75 -0.20 -2.65 -0.20 -12.70 5.15 -34.50 18.30 -17.40 10.50 -22.60 14.20 -30.75 21.75 l-3.65 3.40 4.45 -2.85 c2.45 -1.55 6.35 -3.75 8.70 -4.90z m-210.25 -16.40 c5.50 -7.60 13.75 -17.30 21.80 -25.55 6.35 -6.55 7.30 -7.70 6.70 -8.35 -0.35 -0.40 -0.85 -1.50 -1.10 -2.40 l-0.40 -1.65 -10.10 9.80 c-8.20 7.95 -10.20 10.15 -10.80 11.90 -0.40 1.20 -1.80 3.60 -3.05 5.35 -2.80 3.75 -7.10 11.40 -9.20 16.25 -1.95 4.50 -4.10 9.85 -4.10 10.15 0 0.15 1.55 -2.20 3.40 -5.20 1.85 -3 4.95 -7.60 6.85 -10.30z m635.65 8.25 c-0.40 -0.50 -2.05 -2.45 -3.65 -4.40 -6.70 -8.10 -18.70 -21.70 -21.40 -24.35 -3.80 -3.70 -9.70 -7.60 -16.60 -11.05 -7.50 -3.70 -7.35 -3.65 -9.15 -1.85 -2.50 2.50 -4.15 2.15 -7.90 -1.75 -2.75 -2.85 -3.35 -3.25 -4.95 -3.25 l-1.80 0 3.15 2.80 c5.75 5.05 38.25 29.40 46.75 35 3.85 2.55 15.55 9.55 16.10 9.65 0.10 0.05 -0.15 -0.35 -0.55 -0.80z m9.30 -12.45 c0.25 -0.95 0.05 -1.50 -0.80 -2.25 -1.65 -1.40 -7.25 -5.10 -10.15 -6.70 -2.25 -1.25 -1.85 -0.75 3.75 4.65 3.45 3.30 6.40 5.90 6.55 5.80 0.20 -0.10 0.50 -0.75 0.65 -1.50z m-587.80 -4.20 c0 -0.45 -0.15 -0.35 -0.40 0.25 -0.25 0.55 -0.40 1.45 -0.40 2 0 0.80 0.10 0.75 0.40 -0.25 0.20 -0.70 0.40 -1.60 0.40 -2z m242.25 -15.20 c6.40 -2.05 13.75 -4.45 16.35 -5.25 4.50 -1.45 4.35 -1.55 -1 -0.80 -1.25 0.20 -8.95 0.50 -17.10 0.70 l-14.85 0.35 -5.80 2.85 c-4.05 2 -5.90 3.15 -6.20 3.95 -0.25 0.65 -0.40 1.20 -0.35 1.25 0.05 0.10 2.40 -0.90 5.20 -2.10 2.80 -1.25 5.80 -2.25 6.65 -2.25 1.80 0 4.45 2.35 4.45 3.95 0 0.60 0.25 1.05 0.55 1.05 0.30 0 5.75 -1.70 12.10 -3.70z m8.95 -24.10 c3.80 -0.35 3.90 -0.40 5.10 -2.20 2.20 -3.35 7.50 -3.95 10.40 -1.15 l1.35 1.30 8.15 -1.35 c9.50 -1.55 9.40 -1.55 9.40 -0.50 0 0.60 0.30 0.75 1.15 0.55 0.60 -0.15 2.30 -0.45 3.75 -0.65 1.40 -0.15 2.60 -0.60 2.60 -0.90 0 -0.30 -0.35 -1.75 -0.75 -3.25 -0.40 -1.50 -0.85 -4.25 -1.05 -6.15 -0.25 -2.80 -0.50 -3.40 -1.20 -3.40 -0.75 0 -1 -0.60 -1.30 -3.30 -0.45 -4.55 0.05 -11.45 1.05 -14.30 0.90 -2.60 4.15 -5.90 5.75 -5.90 0.85 0 0.95 0.15 0.55 0.95 -0.50 0.95 -0.50 0.95 1.40 0 2.30 -1.10 8.50 -2.25 16.60 -3.05 5.30 -0.55 5.75 -0.65 5.05 -1.35 -0.70 -0.75 -0.40 -0.80 3.35 -0.95 5.45 -0.20 11.80 0.95 15.85 2.85 3.95 1.85 8.45 6 12.35 11.50 2.85 3.90 3.45 5.55 2.15 5.55 -0.55 0 -0.20 1.10 1.25 3.95 l1.95 3.95 3.25 -1.05 c2.95 -0.95 3.15 -1.10 2.45 -1.90 -0.65 -0.75 -0.55 -0.85 1.45 -1.35 2.25 -0.60 20.85 -11.95 31.50 -19.30 3.25 -2.20 6.45 -4.40 7.15 -4.80 1.45 -0.90 1.50 -1.35 0.25 -1.75 -1.05 -0.30 -2.55 -3.05 -2.55 -4.65 0 -0.55 -0.35 -1.25 -0.80 -1.65 -1.45 -1.20 -2.25 -3.45 -4.75 -13.85 -5.20 -21.45 -6.95 -27.30 -15.30 -50.60 -3.35 -9.35 -6.05 -15.85 -9.20 -22.10 l-4.45 -8.90 -3.20 0 c-2.65 0 -3.50 -0.20 -4.50 -1.15 -0.70 -0.60 -3.80 -5.60 -6.85 -11.10 -7.10 -12.80 -8.10 -14.55 -16.85 -29.15 -5.70 -9.50 -7.15 -12.25 -6.60 -12.60 0.40 -0.25 0.90 -0.30 1.10 -0.20 0.25 0.15 -1.55 -2.85 -3.95 -6.65 -2.40 -3.80 -4.40 -6.95 -4.40 -7.05 -0.05 -0.05 -1.35 0.55 -2.90 1.35 -1.55 0.80 -4.10 1.70 -5.70 2.05 -1.60 0.30 -3.40 0.80 -4 1.10 -0.65 0.35 -2.30 0.40 -4.45 0.15 -3.10 -0.30 -3.35 -0.30 -2.75 0.45 0.60 0.70 0.50 0.80 -0.90 0.80 -2.50 0 -8.95 -1.45 -12.25 -2.80 -7.90 -3.15 -14.30 -10.45 -17.60 -19.95 -1.30 -3.75 -1.40 -4.55 -1.45 -12.25 0 -7.95 0.05 -8.35 1.45 -11.75 0.80 -1.90 2 -4.25 2.65 -5.15 l1.25 -1.70 -1 -2.55 c-0.55 -1.45 -3.05 -7.90 -5.60 -14.35 -2.50 -6.45 -5.25 -13.55 -6.10 -15.75 -0.85 -2.20 -2.30 -5.10 -3.20 -6.50 -0.90 -1.35 -2.15 -3.80 -2.75 -5.45 -0.90 -2.35 -1.20 -2.75 -1.50 -1.95 -0.35 0.95 -3.05 13.60 -8 37.40 -2.05 9.90 -3.80 17.55 -9.20 40.25 -2.95 12.50 -8.05 35.75 -9.65 44.50 -1.35 7.30 -1.20 7.95 2.80 10.85 3.45 2.55 8.10 7.80 8.10 9.20 0 0.45 0.30 0.95 0.65 1.10 1.25 0.45 3.75 9.25 4.35 15.10 0.75 7.20 0.30 13.10 -1.80 23.50 -2.35 11.65 -5 19.20 -9 25.85 -1.70 2.80 -3.20 3.75 -3.20 2.05 0 -0.45 -0.70 0.25 -1.55 1.50 -2.50 3.80 -5.90 6.50 -10.50 8.30 -3.85 1.55 -4.45 1.65 -9.30 1.45 l-5.15 -0.15 0 3.35 c0 1.80 -0.15 3.65 -0.30 4.10 -0.20 0.50 -0.05 0.80 0.45 0.80 0.65 0 0.70 1.45 0.45 10.90 -0.15 6.85 0 13.05 0.35 16.65 1 9.55 5.90 44.70 6.80 48.70 0.20 0.85 0.60 1 3.45 1 2.70 0 3.40 0.20 4.50 1.20 0.90 0.85 1.30 1.75 1.30 2.85 0 1.30 0.25 1.70 1.15 1.90 1.40 0.30 26.25 -0.10 31.45 -0.50z m75.85 -11.25 c6.75 -1.95 13.10 -3.80 14.10 -4.05 l1.85 -0.50 -1.60 -2.80 c-0.85 -1.55 -2.60 -3.85 -3.90 -5.15 -2.30 -2.25 -8.45 -5.80 -13.80 -7.90 l-2.70 -1.05 -6.05 2 c-3.30 1.10 -7.35 2.60 -8.95 3.35 -2.80 1.25 -2.95 1.40 -3.75 4.10 -0.75 2.60 -0.75 3 0.05 6.05 0.50 1.80 1.40 4.50 2.10 6 l1.20 2.75 3.50 -0.15 c1.90 -0.10 3.85 0.05 4.35 0.35 0.50 0.30 1 0.55 1.10 0.55 0.10 0 5.70 -1.60 12.50 -3.55z m-305.50 -9.10 c2.80 -0.85 3.80 -1.45 4.10 -2.25 0.75 -2 -0.80 -1.80 -4.50 0.70 -4.75 3.15 -4.75 3.15 0.40 1.55z m388.40 -27.90 c0.35 -1.75 0.60 -3.75 0.60 -4.45 -0.05 -1.20 -0.05 -1.20 -0.45 0.20 -0.25 0.80 -0.90 1.90 -1.40 2.50 -1.20 1.30 -1.75 3.95 -0.95 4.75 1.05 1.05 1.60 0.25 2.20 -3z m-198.70 -54.15 c1.90 -0.80 7.75 -6.85 9.55 -9.90 2.95 -5.05 5.85 -17.50 5.85 -25.15 0.05 -3.55 -1.75 -15.25 -2.55 -16.70 -0.20 -0.45 -2.10 -2.70 -4.20 -5.05 -2.05 -2.35 -3.80 -4.55 -3.80 -4.85 0 -0.75 1.05 -0.85 1.90 -0.15 0.35 0.25 0 -0.20 -0.75 -1 -1.20 -1.30 -1.65 -1.45 -3.25 -1.20 -1.20 0.20 -1.90 0.65 -2.05 1.25 -0.15 0.65 0 0.95 0.50 0.95 0.65 0 0.75 0.45 0.50 2.40 -0.15 1.30 -1 7.65 -1.80 14.10 -2.20 17.50 -4.20 40.15 -3.80 43.30 0.35 3 0.90 3.30 3.90 2z m460.25 -3.95 c-1.55 -2.20 -8.35 -10.35 -8.65 -10.35 -0.20 0 4.25 8 6 10.80 0.45 0.65 1.20 1.05 2.20 1.10 l1.55 0.05 -1.10 -1.60z m-48.95 -41.55 c-1.30 -1.25 -11.15 -8.65 -12.75 -9.60 -1.60 -0.95 -15 -7.15 -20.65 -9.55 -1.10 -0.50 4.35 6.25 8.45 10.35 3.10 3.15 4.35 4.05 7.25 5.20 4 1.55 18.70 4.55 17.70 3.60z m-311.60 -77.30 c0.10 0 0.15 -0.50 0.15 -1.15 0 -1.35 -18.40 -28.85 -19.30 -28.85 -0.25 0 0.35 1.50 3.55 8.50 3.20 7.05 5.70 11.80 9.60 18.10 2.70 4.30 2.70 4.30 4.30 3.85 0.85 -0.25 1.65 -0.45 1.70 -0.45z m-22.80 -6.60 c-1.35 -2.55 -3.75 -7.60 -5.35 -11.25 -2.50 -5.60 -2.95 -6.35 -3.10 -5.05 -0.30 2.70 0.90 8 2.55 11.40 0.95 2 2.75 4.45 4.65 6.40 1.70 1.70 3.20 3.10 3.35 3.10 0.15 0 -0.80 -2.10 -2.10 -4.60z m-3.70 -37.65 c-1.15 -1.75 -2.15 -3.10 -2.25 -3.05 -0.05 0.10 0.55 1.65 1.35 3.45 1.10 2.45 1.70 3.25 2.25 3.05 0.60 -0.25 0.30 -0.95 -1.35 -3.45z m0.25 -18.15 c-1.55 -3.65 -3 -6.60 -3.20 -6.60 -0.20 0 -0.70 0.60 -1.05 1.35 -0.70 1.25 -0.55 1.50 3.10 6.65 2.10 2.95 3.85 5.35 3.90 5.30 0.05 -0.05 -1.15 -3.05 -2.75 -6.70z m-8.10 -13.70 c-1.45 -3.05 -5.85 -8.70 -6.35 -8.20 -0.15 0.15 1.50 2.80 3.65 6 2.20 3.15 4 5.65 4.10 5.60 0.05 -0.10 -0.55 -1.60 -1.40 -3.40z"/>
  <path d="M515.75 984.65 c-1.35 -0.35 -2.75 -1.65 -3.30 -3.05 -0.55 -1.40 0.95 -9.35 2.75 -14.50 l1.25 -3.65 -1.20 -1.80 c-1.50 -2.15 -1.55 -3.60 -0.30 -5.20 1.60 -2.10 2.45 -4.15 4.30 -10.40 1.45 -4.80 4.70 -18.30 4.75 -19.55 0 -0.15 -3 -0.15 -6.70 -0.10 -15.90 0.45 -30.10 -2.15 -31.75 -5.70 -0.85 -1.85 -0.70 -2.95 0.75 -5.75 1.50 -2.85 3.60 -4.20 5.75 -3.75 1.20 0.25 1.55 0.05 2.15 -1.15 1.05 -1.95 3.35 -2.85 5.70 -2.15 1 0.30 2.75 0.50 3.80 0.45 1.65 -0.05 2.20 0.20 3.50 1.75 0.90 1 2.90 2.45 4.55 3.25 2.70 1.25 3.50 1.40 8 1.35 5.20 -0.05 12.65 -1.30 20.20 -3.50 3.75 -1.05 4.30 -1.10 5.80 -0.50 0.90 0.40 1.90 1.15 2.20 1.70 0.45 0.85 0.80 0.90 3.15 0.55 6.75 -1.10 7.90 -1.45 8.65 -2.95 0.80 -1.55 3.10 -2.50 6.05 -2.50 2.55 0 12.95 -1.95 19.45 -3.60 3.30 -0.85 7.05 -1.70 8.35 -1.90 6.80 -1.20 17.05 -4.55 22.95 -7.55 4.80 -2.45 6.10 -2.80 7.40 -2 0.45 0.30 1.65 0.10 3.25 -0.45 1.40 -0.55 3.55 -1.30 4.80 -1.75 6.30 -2.30 8 -3.30 8.95 -5.55 1 -2.20 1.50 -2.50 6.20 -3.45 0.80 -0.15 3 -1.80 5.15 -3.90 4.20 -4.05 4.75 -4.35 7.20 -4 1.50 0.20 2.25 -0.10 5 -2.10 1.80 -1.30 4.35 -3.45 5.65 -4.80 1.30 -1.35 2.80 -2.45 3.35 -2.45 2.20 0 6.60 -5.45 7.60 -9.40 1.05 -4.20 5.20 -5.50 8 -2.45 0.85 0.85 2.35 1.85 3.35 2.10 2.10 0.60 4.05 3.20 4.05 5.35 0 2.50 -2 5.50 -6.70 10.15 -8.80 8.75 -16.75 15.05 -22.05 17.60 -1.90 0.90 -2.10 1.75 -1.25 5.35 0.30 1.45 0.25 2.45 -0.30 3.85 -0.90 2.20 -1.15 1.55 4.80 11.95 7.20 12.55 11.50 22 11.50 25.20 0 2.40 -2.10 4.75 -4.60 5.15 -2.05 0.30 -6.50 -1.50 -10.65 -4.35 -2.15 -1.45 -2.35 -1.50 -4.05 -0.90 -2.55 0.90 -3.70 0.05 -8.45 -6.25 -2.25 -2.95 -5.85 -7.30 -8.05 -9.70 -2.20 -2.45 -6.10 -6.75 -8.70 -9.65 -2.55 -2.90 -4.80 -5.30 -5 -5.40 -0.20 -0.05 -3.60 1.25 -7.55 2.90 -17.35 7.40 -31.75 11.90 -50.70 15.95 -8.25 1.75 -20 3.55 -23.35 3.55 -2.15 0 -2.40 0.10 -2.40 1.15 0 3.65 -7.15 30.80 -8.65 32.65 -0.55 0.75 -1.70 1.30 -2.90 1.50 -1.80 0.30 -2.30 0.75 -5.90 5.65 -7.15 9.75 -9.10 12.60 -10.25 15.25 -0.95 2.10 -1.55 2.80 -2.80 3.25 -0.90 0.30 -1.65 0.50 -1.70 0.50 -0.05 -0.05 -0.50 -0.20 -1.05 -0.30z m19.90 -41.40 c1.15 -4.15 3.85 -15.90 3.85 -16.85 0 -0.20 -1.35 -0.40 -3 -0.40 -2.70 0 -3 0.10 -3.25 1.15 -0.15 0.60 -0.60 2.85 -1 5 l-0.80 3.95 1.25 1.25 c1.70 1.70 1.65 3.40 -0.20 8.90 -0.80 2.45 -1.50 4.50 -1.50 4.55 0 0.05 0.75 -0.60 1.70 -1.50 1.35 -1.25 1.95 -2.45 2.95 -6.05z m131.70 -22.35 c-5.95 -10.45 -10.05 -17.80 -11.85 -21.25 -1.15 -2.30 -2.30 -4.15 -2.50 -4.15 -0.45 0 -9.60 3.55 -10 3.90 -0.15 0.10 0.20 0.40 0.70 0.70 1.15 0.65 1.95 1.55 4.80 5.15 4.90 6.25 5.95 7.25 8 7.25 1.75 0 2.20 0.30 4.80 3.40 4 4.65 6.85 7.60 7.10 7.40 0.10 -0.15 -0.35 -1.20 -1.05 -2.40z"/>
  <path d="M531 808.95 c-6.75 -0.60 -12.60 -0.85 -15.75 -0.70 -10.45 0.60 -36.80 -0.30 -43.30 -1.45 -12 -2.15 -26.05 -9.20 -33.70 -17 -4.25 -4.30 -7 -8.10 -11.65 -16.15 -1.95 -3.35 -4.80 -7.75 -6.30 -9.75 -1.65 -2.15 -3.20 -4.85 -3.80 -6.65 -0.55 -1.65 -2.05 -4.80 -3.30 -7 -18.15 -31.70 -20.85 -38.05 -22.95 -54.50 -1.15 -9.10 -1.45 -10.55 -3.10 -14.50 -4.85 -11.55 -5.45 -30.20 -1.85 -57.50 0.70 -5.20 1.60 -12.70 1.95 -16.65 0.55 -6.15 0.80 -7.40 1.90 -9 0.70 -1 1.40 -2.50 1.55 -3.35 0.20 -0.80 0.45 -1.90 0.60 -2.40 0.25 -0.75 0.10 -0.80 -0.95 -0.30 -2 0.90 -4.95 -0.75 -5.55 -3.15 -0.65 -2.55 0.65 -5.90 6.70 -17.70 l4.95 -9.60 -1.25 -1.15 c-3.70 -3.50 0.90 -10.55 20.05 -30.95 5.05 -5.35 13.50 -14.05 18.85 -19.30 l9.65 -9.55 8.70 -4.35 c9.25 -4.60 10.10 -4.80 12.30 -2.80 0.95 0.90 1.20 0.85 9.30 -1.10 8.15 -1.95 8.30 -2 8.75 -3.55 0.25 -0.85 1.05 -2 1.85 -2.55 1.25 -0.90 1.60 -0.95 4.10 -0.45 2.20 0.50 4.55 0.45 11.15 -0.15 4.60 -0.40 11.95 -0.70 16.35 -0.65 4.40 0.10 10.80 -0.15 14.25 -0.50 9.25 -0.95 34.45 -0.55 39.50 0.65 5.40 1.30 10.30 3.75 14.20 7 3.15 2.70 3.70 2.95 7.70 3.80 9.40 1.90 17.75 6.10 34.95 17.65 4.20 2.80 9.90 6.55 12.75 8.35 3.75 2.35 7 5.05 11.90 9.80 3.70 3.60 8.55 7.90 10.75 9.55 2.20 1.70 6.10 5 8.70 7.40 2.60 2.35 5.10 4.50 5.65 4.80 0.80 0.40 0.90 0.30 0.90 -1 0 -2.20 2.20 -4.55 4.25 -4.55 0.90 0 2.05 0.15 2.50 0.30 1.30 0.50 4.55 5.75 9.70 15.65 2.70 5.10 6.30 11.55 8 14.25 5.85 9.30 8 14.65 10.05 25.10 0.60 3 1.85 8.05 2.80 11.20 2.50 8.45 3.45 13 5.30 25.25 2.75 18.30 2.20 27.60 -2.85 52 -3.30 15.85 -3.45 16.75 -2.80 18.50 1.35 3.80 0.30 11.60 -2.40 17.40 -0.75 1.70 -1.70 3.90 -2 4.85 -0.30 1 -2.35 4.95 -4.60 8.75 -4.10 7.10 -4.65 8.20 -8.45 16.95 -2.75 6.25 -4.60 8.95 -8.20 11.90 -3.35 2.65 -7.30 4.70 -13.35 6.80 -2.35 0.85 -8.20 3.45 -13 5.75 -10.35 5.05 -15.10 6.85 -21.45 8.35 -2.60 0.60 -7.10 2 -10 3.05 -6.80 2.50 -15.05 4.50 -27.35 6.70 -5.45 1 -10.40 1.90 -11 2 -0.60 0.15 -1.45 1.05 -2 2.10 -1.95 4 -6.05 4.70 -30.15 4.90 -15.50 0.15 -20.60 0 -29.50 -0.80z m30 -10.45 c5.50 -0.75 5.50 -0.70 5.50 -3.30 0 -1.80 0.25 -2.50 1.30 -3.45 1.70 -1.55 4.10 -1.65 5.95 -0.20 1.20 1 1.75 1.05 5.65 0.80 5.30 -0.35 9.75 -1.85 22.85 -7.70 14.60 -6.55 19.40 -8.55 27 -11.15 3.85 -1.30 7.85 -2.80 8.90 -3.25 5.15 -2.15 9.30 3.55 5.30 7.30 l-1.55 1.45 3.40 -1.55 c1.90 -0.85 7.60 -2.95 12.70 -4.65 5.15 -1.70 10.80 -3.95 12.65 -5 2.85 -1.55 3.35 -2.05 3.35 -3.20 0 -0.75 0.30 -1.95 0.70 -2.70 l0.70 -1.30 -1.95 0.70 c-5.55 1.95 -9.35 1.20 -10.40 -1.95 -1.10 -3.30 0.65 -5.45 5.10 -6.35 4 -0.80 9.05 -3.45 14.95 -7.85 5.50 -4.10 14.10 -12.15 15.15 -14.15 0.35 -0.70 1.35 -4.10 2.25 -7.60 1.45 -5.90 1.50 -6.45 0.80 -7.50 -0.45 -0.60 -0.80 -1.70 -0.80 -2.45 0 -0.75 1.20 -6.35 2.70 -12.50 4.60 -18.85 4.50 -18.35 4.55 -31.20 0 -15.70 -1.10 -40.20 -2.15 -47.50 l-0.85 -5.95 -1.75 -0.35 c-2.45 -0.50 -3.40 -1.95 -7.80 -11.65 -2.10 -4.70 -5.15 -11.45 -6.75 -15 -5.20 -11.50 -12.10 -21.50 -20.90 -30.30 -5.20 -5.20 -13.60 -12.20 -16.05 -13.45 -0.70 -0.35 -6.70 -3.80 -13.35 -7.70 -9.35 -5.45 -13.40 -8.15 -17.75 -11.80 -7.60 -6.35 -11.90 -9.10 -23.15 -14.70 -5.20 -2.60 -10.50 -5.30 -11.75 -6 -1.35 -0.80 -3 -1.35 -4.10 -1.35 -1.05 0 -1.90 0.10 -1.90 0.15 0 0.10 0.95 1.20 2.05 2.40 4.05 4.30 6.95 8 7.25 9.25 0.75 2.90 -2.60 6.15 -5.50 5.40 -0.75 -0.15 -3.80 -3.10 -7.60 -7.25 -6.05 -6.70 -6.35 -6.95 -8.30 -6.95 -1.05 0 -2.40 -0.25 -3 -0.55 -1.05 -0.55 -2.60 -3.70 -2.15 -4.40 0.60 -1 -1.80 -1.60 -16.50 -4 -19.60 -3.20 -22.65 -3.55 -32.80 -3.55 -7.60 0 -8.80 0.10 -14 1.50 -3.15 0.80 -11.10 2.70 -17.70 4.25 -11.90 2.75 -17.05 4.10 -21.10 5.60 l-2.10 0.80 0.95 1.25 c1.30 1.60 1.25 4.10 0 5.75 -1 1.25 -1.60 1.50 -5.80 2.10 -1.15 0.20 -3.30 1.10 -4.75 2.05 -1.45 0.95 -3.15 1.70 -3.75 1.70 -2.35 0 -9.70 6.40 -9.70 8.50 -0.05 2.10 -1.25 3.60 -4.05 5 -3 1.45 -5.40 4.10 -13.20 14.40 -3.95 5.25 -4.85 6.85 -5.95 10.25 -3.45 10.95 -6.35 26.45 -7.80 41.75 l-0.55 5.70 1.25 0.95 c1.90 1.50 2.05 3.45 0.60 7.15 -0.70 1.75 -1.30 4.15 -1.30 5.30 0 1.10 -0.40 2.85 -0.95 3.90 -2 3.95 -3.55 17.75 -3.55 31.35 0 14.15 1.05 26.10 3.30 37.85 2.25 11.60 5.05 18.50 9.70 23.60 3.55 3.90 3.85 4.75 2.75 7.55 -0.80 2.20 -0.80 2.20 0.85 6.10 l1.70 3.90 2.10 0.05 c3.90 0.05 5.30 2.35 4.55 7.60 -0.40 3 -0.35 3.80 0.35 5.20 1.50 2.95 7.55 11.55 11.20 15.90 1.95 2.35 3.95 5.15 4.50 6.30 0.80 1.70 2.20 2.80 8.60 7.05 9.70 6.40 18.25 11.10 24.65 13.60 6.90 2.65 7.60 2.80 8.25 1.50 0.35 -0.55 1.35 -1.35 2.25 -1.75 2.15 -0.90 3.90 -0.30 6.05 2 1.30 1.40 2.25 1.85 6 2.70 2.45 0.55 7.55 1.30 11.40 1.65 6 0.50 7.10 0.75 8.30 1.75 2.35 2 7.85 2.55 25.50 2.60 8.65 0.05 17.45 -0.15 19.50 -0.40z m-99.75 -5.65 c-5.45 -2.85 -12.75 -7.10 -15.60 -9.15 -0.65 -0.45 -1.15 -0.70 -1.15 -0.55 0 0.45 6.10 5.05 9 6.85 2.80 1.65 12.35 6 13.25 6 0.30 0 -2.20 -1.45 -5.50 -3.15z m160.95 -5.90 c1 -0.95 -0.15 -0.90 -2.75 0.15 -3.80 1.50 -4.10 1.95 -0.65 1.10 1.60 -0.45 3.15 -1 3.40 -1.25z m13.85 -5.30 c1.65 -0.70 2.90 -1.35 2.85 -1.45 -0.10 -0.05 -2.30 0.65 -4.90 1.60 -2.80 1 -3.95 1.60 -2.85 1.45 1.05 -0.20 3.25 -0.90 4.90 -1.60z m-240.10 -194.75 c0.20 -0.65 0.55 -2.25 0.70 -3.65 l0.30 -2.50 -1.15 2.50 c-1.80 3.90 -2 4.75 -1.05 4.75 0.40 0 0.95 -0.50 1.20 -1.10z"/>
  <path d="M561.75 743.80 c-2.70 -0.45 -6.70 -0.60 -12.50 -0.40 -5.90 0.15 -11.05 -0.05 -16.75 -0.60 -4.50 -0.45 -12.20 -1.05 -17.05 -1.30 -13.50 -0.75 -18.45 -2.40 -26.60 -8.95 -11.30 -9.10 -21.70 -23.10 -30.90 -41.55 -4.10 -8.15 -8.05 -24.15 -8.05 -32.50 0 -9 2.65 -20.85 6 -26.50 0.70 -1.25 2.60 -4.85 4.15 -8 4.65 -9.45 9.80 -16 17.40 -22.10 4.70 -3.75 8.80 -5.80 16.30 -8.15 3.30 -1.05 8.95 -3.10 12.60 -4.55 10.25 -4.20 11.35 -4.35 25.40 -4 19.75 0.55 24.45 1.35 28.75 5 0.95 0.80 2.60 1.40 4.85 1.75 9.45 1.65 16.85 4.70 22.90 9.60 2.20 1.75 4.80 3.75 5.75 4.45 4.95 3.45 13.85 10.95 15.60 13.20 1.95 2.45 4.60 7.35 5.85 10.80 0.90 2.40 1.20 3.15 3.50 8.05 2.05 4.40 4.15 10.95 4.80 14.95 0.20 1.25 0.80 3.80 1.30 5.75 2.45 9 2.55 28.35 0.20 39.70 -0.70 3.40 -1.95 7.90 -2.75 10 -3.55 9.20 -11.30 18.60 -18.45 22.30 -2.05 1.05 -5.55 3.15 -7.75 4.65 -5.10 3.50 -11.15 6.35 -16.15 7.65 -5 1.25 -13.20 1.60 -18.40 0.75z m-56.80 -13.25 c-1.55 -0.50 -3.10 -1.05 -3.50 -1.30 -0.50 -0.30 -0.55 -0.25 -0.20 0.15 0.65 0.75 4.20 2.05 5.50 2.05 0.55 0 -0.25 -0.40 -1.80 -0.90z"/>
  <path d="M457.10 271.75 c-8.35 -1.80 -14.50 -7.05 -17.75 -15.10 -2.40 -5.95 -3 -9.70 -2.95 -18.95 0.10 -13.25 1.80 -19.40 6.65 -23.95 2.50 -2.30 3.95 -2.85 3.95 -1.45 0 0.55 0.25 0.70 0.90 0.45 0.45 -0.20 1.65 -0.45 2.65 -0.60 1.55 -0.20 1.80 -0.45 1.55 -1.25 -0.25 -1 -0.10 -1 6.95 -0.80 5.85 0.25 8.05 0.55 11.70 1.60 8.95 2.70 15.45 7.40 18.05 13 0.70 1.60 1.45 4.35 1.70 6.65 0.45 4.25 0.10 12.15 -0.55 12.15 -0.25 0 -0.45 -0.20 -0.45 -0.50 0 -0.25 -0.20 -0.50 -0.50 -0.50 -0.25 0 -0.50 0.75 -0.50 1.65 0 1.70 -2.25 10.45 -3.10 12.05 -0.40 0.75 -0.30 1.10 0.40 1.65 0.90 0.65 0.90 0.80 -0.75 3.90 -1.95 3.80 -4.70 6.80 -7.60 8.25 -4.60 2.40 -13.80 3.15 -20.35 1.75z m13.05 -14.95 c3.80 -1.55 6.45 -7.10 6.50 -13.55 0.05 -4.85 -0.40 -6.50 -1.55 -5.95 -0.50 0.20 -2.25 0.50 -3.95 0.60 -2.85 0.15 -3.20 0.10 -4.25 -1.15 -4.90 -5.70 -9.10 -8.75 -11.95 -8.75 -3.15 0 -6.15 4.80 -6.15 9.75 0.05 7.45 2.75 13 8.25 17.15 2.95 2.25 9.95 3.25 13.10 1.90z"/>
  <path d="M791.95 475.05 c-2.65 -2.65 -1.90 -4.75 3.35 -9.05 2.15 -1.80 4.20 -3.50 4.55 -3.75 0.60 -0.45 0.55 -0.80 -0.10 -2.15 -0.50 -0.95 -0.70 -2.05 -0.50 -2.70 0.75 -2.45 5.55 -9.40 13.20 -19.15 10.80 -13.75 16.10 -23.55 20.30 -37.50 1.80 -5.90 2.60 -7.70 4.25 -9.50 0.80 -0.80 2.20 -3.05 3.20 -5 1.40 -2.80 1.85 -4.45 2.25 -8.35 0.90 -7.90 0.75 -12.25 -0.45 -13.75 -1.25 -1.60 -1.25 -3.35 -0.05 -5.35 0.95 -1.50 1.35 -2.85 2.55 -9 0.45 -2.10 1.05 -3.40 2.35 -4.80 2.90 -3.25 3.70 -8.35 4 -24.85 l0.25 -13.65 1.50 -1.25 c2 -1.70 4.10 -1.65 5.90 0.15 1.30 1.30 1.40 1.80 1.75 6.90 0.75 10.35 -0.30 22.90 -2.55 32.10 -0.75 2.90 -0.75 3.30 0.05 4.95 0.75 1.55 0.85 2.65 0.55 7.35 -0.65 9.80 -2.30 17.30 -5.55 25.05 -0.95 2.20 -2.60 7.50 -3.70 11.85 -2.70 10.50 -7.60 22.95 -10.20 25.80 -0.55 0.60 -1.55 1.10 -2.20 1.10 -0.80 0 -1.50 0.60 -2.40 2 -0.70 1.10 -1.25 2.05 -1.25 2.20 0 0.10 0.60 0.35 1.30 0.50 0.70 0.20 1.85 0.95 2.50 1.65 2.15 2.35 1.75 3.65 -4.20 12.55 -6.45 9.70 -11.35 15.80 -17.20 21.35 -4.30 4.10 -14.95 13.25 -17.40 14.90 -1.95 1.35 -4.35 1.10 -6.05 -0.60z"/>
 </g>
 <g fill="#d5f6c5">
  <path d="M372.65 363.70 c-0.90 -0.20 -1.15 -0.60 -1.15 -1.90 0 -3.65 -4.95 -5.35 -7.35 -2.55 -0.80 0.90 -1.25 1.10 -1.40 0.65 -0.60 -1.90 -5.95 -39.70 -7.25 -51.40 -0.65 -5.60 -0.75 -21.25 -0.20 -26.35 0.20 -2.25 0.50 -3.15 1 -3.15 0.40 0 0.85 -0.35 1 -0.75 0.20 -0.40 0.60 -0.75 1 -0.75 0.35 0 0.85 -0.30 1.05 -0.70 0.20 -0.40 0.95 -0.80 1.65 -0.90 0.70 -0.10 1.20 -0.45 1.15 -0.80 -0.10 -0.30 0.45 -0.75 1.25 -0.90 0.75 -0.20 1.65 -0.55 1.95 -0.80 0.35 -0.30 1.80 -0.60 3.25 -0.70 1.40 -0.10 2.75 -0.40 2.90 -0.70 0.20 -0.35 1.25 -0.45 2.95 -0.20 2.30 0.30 2.70 0.20 3.55 -0.80 0.55 -0.60 0.85 -1.35 0.70 -1.55 -0.15 -0.25 0 -0.45 0.30 -0.45 0.35 0 0.50 -0.35 0.30 -0.75 -0.15 -0.40 -0.05 -0.75 0.25 -0.75 0.30 0 0.35 -0.25 0.20 -0.50 -0.15 -0.30 0 -0.65 0.40 -0.80 0.75 -0.30 1.60 -2.45 1.40 -3.55 -0.05 -0.35 0.15 -0.65 0.45 -0.65 0.30 0 0.40 -0.20 0.25 -0.50 -0.15 -0.25 -0.10 -0.50 0.15 -0.50 0.30 0 0.40 -0.45 0.25 -0.95 -0.15 -0.60 0.45 -2.15 1.55 -3.95 3.85 -6.35 6.60 -14.05 8.85 -24.85 2.05 -10.05 2.55 -15.60 1.90 -21.90 -0.50 -4.80 -3.10 -14.40 -4 -14.75 -0.20 -0.10 -0.25 -0.50 -0.10 -0.90 0.15 -0.40 0.05 -0.70 -0.20 -0.70 -0.30 0 -1.55 -1.35 -2.85 -3 -1.30 -1.60 -3.90 -4.10 -5.80 -5.50 -3.30 -2.50 -3.45 -2.70 -3.75 -5.15 -0.25 -1.80 0 -4.45 0.75 -8.35 1.75 -9.35 6.75 -32.35 9.75 -45 5.40 -22.75 7.15 -30.35 9.20 -40.25 7 -33.65 9.15 -43.25 9.65 -43.25 0.25 0 0.40 0.35 0.40 0.75 0 1.50 3.55 10 5.20 12.50 1.70 2.65 2.45 4.35 7.05 16.50 1.55 4.15 4.40 11.40 6.30 16.15 l3.50 8.65 -1.65 1.90 c-0.90 1.05 -2.30 3.60 -3.15 5.60 -1.40 3.50 -1.45 4.10 -1.45 10.45 0 6.05 0.15 7.15 1.40 10.75 4.20 12.25 12.30 19.45 24.55 22 2.20 0.45 4.35 1.15 4.80 1.55 0.40 0.40 1.50 0.70 2.35 0.70 0.85 0 1.70 0.25 1.85 0.50 0.20 0.30 0.55 0.40 0.80 0.20 0.25 -0.15 0.80 -0.05 1.15 0.25 0.40 0.35 0.90 0.55 1.10 0.45 0.25 -0.05 0.90 0.15 1.45 0.45 0.55 0.30 1.20 0.55 1.40 0.55 0.25 0 1.90 0.70 3.75 1.60 1.85 0.90 3.75 1.85 4.25 2.10 0.45 0.20 2 0.45 3.35 0.45 1.40 0.05 2.65 0.30 2.80 0.50 0.15 0.25 0.50 0.35 0.75 0.15 0.25 -0.15 0.80 -0.05 1.15 0.25 0.40 0.35 1 0.50 1.35 0.45 0.95 -0.20 12.20 18.40 24.40 40.35 3.05 5.50 6.15 10.50 6.85 11.15 1.60 1.40 4.15 1.45 5.60 0.10 l1.10 -1 4.95 9.85 c3.65 7.35 6.15 13.30 9.70 23.15 8.35 23.30 10.10 29.15 15.30 50.60 2.50 10.40 3.30 12.65 4.75 13.85 0.45 0.40 0.80 1.10 0.80 1.65 0 2.95 3.05 5.90 5.50 5.25 0.90 -0.25 1 -0.05 0.90 1.60 -0.15 1.65 -0.30 1.80 -1.40 1.65 -0.80 -0.10 -2.05 0.40 -3.50 1.40 -14.30 9.95 -34.90 22.80 -37.65 23.55 -1.60 0.40 -2.30 0.40 -3.10 -0.10 -2.60 -1.65 -8.70 -4.95 -9.15 -4.95 -0.25 0 -1.85 -1.85 -3.50 -4.10 -7.50 -10.35 -14.85 -14.30 -26.70 -14.40 -1.90 0 -3.40 -0.20 -3.40 -0.50 0 -1.05 -2.75 -2.90 -5.55 -3.75 -2.35 -0.75 -3.70 -0.80 -7.05 -0.50 -2.30 0.20 -4.75 0.40 -5.50 0.35 -1.70 -0.05 -2 0.35 -3.60 4.85 -0.90 2.55 -1.95 4.40 -3.45 6 -1.40 1.50 -2.40 3.20 -2.90 4.80 -0.75 2.70 -0.95 9.65 -0.30 13.15 0.30 1.85 0.25 2.10 -0.60 2.10 -0.70 0 -0.90 0.25 -0.70 0.95 0.15 0.50 0 1.10 -0.30 1.25 -0.25 0.20 -0.40 0.60 -0.25 1 0.30 0.85 -2.20 8.80 -2.80 8.80 -0.30 0 -0.50 0.55 -0.50 1.20 0 0.95 -0.35 1.30 -1.35 1.50 -2.35 0.45 -10.20 1.75 -14.05 2.30 l-3.65 0.50 -1.20 -1.45 c-2.25 -2.60 -5.70 -2.15 -7.65 1.05 -1.05 1.70 -1.20 1.75 -4.95 2.10 -5.05 0.40 -33.05 0.80 -34.50 0.50z m97.90 -93.40 c6.25 -1.35 9.85 -4.10 12.90 -9.75 l1.60 -3.05 2.25 1.25 c1.20 0.65 2.20 1.10 2.20 0.95 0 -0.20 0.30 -0.10 0.65 0.15 0.30 0.30 1.30 0.75 2.20 1.05 1.90 0.65 2.30 0.05 1.40 -2.15 -0.30 -0.80 -0.50 -1.80 -0.40 -2.10 0.15 -0.35 0 -0.65 -0.25 -0.65 -0.30 0 -0.40 -0.45 -0.25 -1 0.15 -0.60 0 -1 -0.30 -1 -0.35 0 -0.50 -0.20 -0.30 -0.45 0.15 -0.25 0.05 -0.60 -0.20 -0.80 -0.30 -0.15 -0.40 -0.60 -0.25 -0.95 0.15 -0.40 0.05 -0.85 -0.25 -1 -0.30 -0.20 -0.40 -0.65 -0.20 -1.05 0.15 -0.40 0.05 -0.75 -0.25 -0.75 -0.30 0 -0.40 -0.45 -0.25 -1 0.15 -0.60 0 -1 -0.35 -1 -0.35 0 -0.45 -0.40 -0.25 -1 0.15 -0.55 0.15 -1 -0.10 -1 -0.60 0 -0.70 -0.80 -0.95 -7.75 -0.10 -3.30 -0.55 -7.10 -0.95 -8.50 -2.80 -9.75 -14.60 -16.50 -29.85 -17.10 -4.70 -0.20 -6.40 -0.45 -6.40 -0.90 0 -0.60 -2.45 -1.75 -3.75 -1.75 -0.35 0 -0.75 0.90 -0.95 2 -0.25 1.50 -0.90 2.50 -2.70 4.20 -4.75 4.45 -6.60 10.70 -6.65 22.45 -0.05 7.70 0.65 12 2.90 17.50 4.80 11.80 16.70 17.90 29.70 15.15z"/>
  <path d="M462.50 258.95 c-4.75 -0.95 -10.15 -4 -9.05 -5.10 0.30 -0.30 5 -0.60 11.80 -0.75 l11.35 -0.20 -0.75 1.40 c-0.95 1.80 -2.75 3.50 -4.35 4.10 -2.05 0.75 -6.60 1.05 -9 0.55z"/>
  <path d="M551.25 254.65 c-2.90 -8.60 -4.70 -12.80 -10.45 -24.80 -2.95 -6.15 -5.95 -14.40 -9.05 -24.95 -2.10 -7.05 -3.15 -8.55 -6.10 -8.60 l-1.90 -0.05 -5.80 -11.40 c-3.15 -6.25 -5.60 -11.35 -5.40 -11.35 0.80 0 5.45 4.10 9.35 8.25 4.25 4.45 6.65 7.75 8.70 11.75 0.35 0.70 0.80 1.35 0.95 1.50 1.05 0.80 9.05 16.90 9.65 19.50 0.05 0.15 0.30 0.70 0.60 1.25 0.30 0.55 0.80 2 1.15 3.25 0.40 1.25 0.85 2.80 1.10 3.50 0.20 0.70 1 3.95 1.70 7.25 1.65 7.35 1.50 6.70 2.20 8.45 0.30 0.80 0.65 2.15 0.80 3 0.10 0.85 0.25 1.60 0.30 1.70 0.05 0.05 0.10 0.30 0.15 0.55 0 0.25 0.20 0.65 0.45 0.85 0.20 0.20 0.35 0.85 0.35 1.45 0 0.55 0.20 1.25 0.45 1.55 0.30 0.25 0.55 1.05 0.65 1.80 0.10 0.75 0.35 1.50 0.55 1.70 0.20 0.20 0.35 1 0.35 1.75 0 0.75 0.20 1.50 0.45 1.70 0.30 0.15 0.45 0.65 0.45 1.15 0 0.45 0.35 2.40 0.80 4.30 0.45 1.90 0.75 3.50 0.70 3.60 -0.10 0.05 -1.50 -3.85 -3.15 -8.65z"/>
  <path d="M360 153 c0 -0.80 0.25 -1.50 0.55 -1.50 0.35 0 0.50 -1.35 0.40 -4 -0.10 -2.15 0 -4.10 0.20 -4.30 0.20 -0.20 0.20 -1.15 0.05 -2.05 -0.20 -1.15 -0.10 -1.65 0.30 -1.65 0.40 0 0.55 -0.45 0.40 -1.25 -0.15 -0.70 -0.05 -1.25 0.25 -1.25 0.25 0 0.35 -0.75 0.20 -1.75 -0.20 -1.05 -0.10 -1.75 0.25 -1.75 0.30 0 0.40 -0.55 0.30 -1.25 -0.15 -0.70 -0.05 -1.25 0.20 -1.25 0.25 0 0.35 -0.65 0.15 -1.50 -0.20 -1 -0.15 -1.50 0.30 -1.50 0.40 0 0.50 -0.55 0.30 -1.75 -0.20 -1.10 -0.10 -1.75 0.25 -1.75 0.35 0 0.45 -0.85 0.30 -2.25 -0.20 -1.35 -0.05 -2.25 0.25 -2.25 0.25 0 0.35 -0.70 0.20 -1.75 -0.20 -1.05 -0.10 -1.75 0.25 -1.75 0.30 0 0.40 -0.50 0.25 -1.05 -0.15 -0.65 0.05 -1.40 0.45 -1.85 0.45 -0.40 0.70 -1.25 0.55 -1.95 -0.10 -0.60 0 -1.15 0.30 -1.15 0.25 0 0.35 -0.45 0.20 -1 -0.15 -0.55 -0.05 -1 0.25 -1 0.30 0 0.40 -0.35 0.20 -0.75 -0.15 -0.40 -0.05 -0.75 0.25 -0.75 0.30 0 0.45 -0.35 0.25 -0.75 -0.15 -0.40 -0.05 -0.75 0.25 -0.75 0.30 0 0.45 -0.35 0.25 -0.75 -0.15 -0.40 -0.05 -0.75 0.25 -0.75 0.35 0 0.45 -0.50 0.25 -1.25 -0.20 -0.80 -0.10 -1.25 0.25 -1.25 0.30 0 0.45 -0.35 0.25 -0.75 -0.15 -0.40 0 -0.75 0.25 -0.75 0.35 0 0.45 -0.55 0.35 -1.25 -0.15 -0.70 -0.05 -1.25 0.15 -1.25 0.25 0 0.30 -0.35 0.15 -0.75 -0.20 -0.40 -0.05 -0.75 0.30 -0.75 0.35 0 0.45 -0.40 0.25 -1 -0.20 -0.60 -0.10 -1 0.25 -1 0.35 0 0.50 -0.35 0.30 -0.75 -0.15 -0.40 -0.05 -0.75 0.25 -0.75 0.30 0 0.45 -0.35 0.25 -0.75 -0.15 -0.40 -0.05 -0.75 0.25 -0.75 0.30 0 0.35 -0.70 0.15 -1.75 -0.20 -1.25 -0.15 -1.75 0.30 -1.75 0.40 0 0.55 -0.55 0.40 -1.50 -0.15 -0.80 -0.05 -1.50 0.15 -1.50 0.20 0 0.30 -0.80 0.20 -1.75 -0.10 -0.95 0.10 -1.75 0.35 -1.75 0.30 0 0.40 -0.55 0.20 -1.20 -0.15 -0.70 -0.10 -1.35 0.20 -1.55 0.25 -0.15 0.35 -0.60 0.15 -1 -0.15 -0.40 0 -0.75 0.35 -0.75 0.35 0 0.50 -0.40 0.35 -1 -0.15 -0.55 -0.05 -1 0.25 -1 0.25 0 0.30 -0.45 0.15 -1 -0.20 -0.60 -0.10 -1 0.25 -1 0.45 0 0.55 -1.10 0.40 -3.75 -0.10 -2.05 0.05 -3.80 0.25 -3.90 0.25 -0.05 0.50 -1.20 0.55 -2.50 0 -1.30 0.20 -2.35 0.40 -2.35 0.20 0 0.25 -0.35 0.10 -0.75 -0.20 -0.40 -0.05 -0.75 0.30 -0.75 0.35 0 0.50 -0.40 0.35 -0.95 -0.15 -0.60 0.05 -1.10 0.50 -1.30 0.60 -0.20 0.70 -0.85 0.55 -2.75 -0.15 -1.45 -0.05 -2.50 0.25 -2.50 0.25 0 0.35 -0.55 0.25 -1.25 -0.15 -0.70 -0.05 -1.25 0.25 -1.25 0.25 0 0.35 -0.45 0.20 -1 -0.15 -0.55 -0.05 -1 0.25 -1 0.30 0 0.40 -0.35 0.20 -0.75 -0.15 -0.40 -0.05 -0.75 0.25 -0.75 0.30 0 0.45 -0.35 0.25 -0.75 -0.15 -0.40 -0.05 -0.75 0.25 -0.75 0.30 0 0.35 -0.20 0.20 -0.50 -0.15 -0.25 -0.05 -0.50 0.25 -0.50 0.30 0 0.40 -0.20 0.25 -0.50 -0.15 -0.25 -0.05 -0.50 0.25 -0.50 0.30 0 0.40 -0.20 0.25 -0.50 -0.15 -0.25 0.05 -0.50 0.50 -0.50 0.40 0 1.05 -0.60 1.35 -1.35 0.35 -0.80 1.15 -2 1.85 -2.80 0.65 -0.75 1.05 -1.35 0.80 -1.35 -0.20 0 0 -0.45 0.50 -1 0.50 -0.55 1.10 -1 1.30 -1 0.20 0 1 -0.55 1.75 -1.25 0.75 -0.70 1.65 -1.25 2 -1.25 0.40 0 0.70 -0.20 0.70 -0.40 0 -0.50 3 -1.85 5.55 -2.50 l1.85 -0.50 -1 3.60 c-0.55 1.95 -2.10 7.50 -3.50 12.30 -4.05 13.95 -5.30 18.75 -7.15 27.50 -3.45 15.95 -4.85 20.65 -11.85 39.25 -2.15 5.80 -6.75 19.25 -11.20 32.90 -3.20 9.65 -4.05 11.85 -4.80 11.85 -0.65 0 -0.90 -0.40 -0.90 -1.50z"/>
  <path d="M445.20 136.95 c-3.50 -1.70 -9.20 -7.30 -9.20 -9.05 0 -0.80 3.10 -0.40 4.40 0.65 0.75 0.55 2.30 1.65 3.45 2.50 3.15 2.15 5.95 7 4.05 6.95 -0.35 -0.05 -1.60 -0.50 -2.70 -1.05z"/>
  <path d="M430.65 65.15 c-5.95 -8.35 -7.45 -10.80 -8.55 -13.65 -0.55 -1.50 -1.20 -3.15 -1.40 -3.65 -0.30 -0.90 -0.20 -0.85 1.75 0.15 4.50 2.25 8.25 6.70 11 13 2.40 5.40 2.55 6.05 1.55 7.65 l-0.85 1.40 -3.50 -4.90z"/>
  <path d="M420.60 36.85 c-4.40 -2.50 -4.65 -2.70 -5.60 -5.25 -1.30 -3.40 -1.30 -4.85 -0.10 -4.35 0.45 0.20 1.10 0.40 1.35 0.45 0.30 0.05 0.80 0.25 1.10 0.45 0.35 0.25 1.10 0.50 1.70 0.60 0.55 0.10 2.05 0.90 3.30 1.75 1.30 0.80 2.75 1.50 3.25 1.50 0.75 0 0.85 0.15 0.40 1 -0.30 0.55 -0.40 2.10 -0.20 3.75 0.20 1.50 0.15 2.75 -0.10 2.75 -0.25 0 -2.55 -1.20 -5.10 -2.65z"/>
 </g>
 <g fill="#d4efe8">
  <path d="M466.75 355.20 c-0.80 -0.60 -1.75 -0.70 -4.55 -0.45 l-3.55 0.30 -1.25 -2.90 c-2.90 -6.55 -3.50 -10.95 -2.15 -15.50 0.70 -2.35 0.90 -2.60 3.65 -3.80 1.60 -0.75 5.70 -2.25 9.10 -3.40 7.60 -2.55 8.50 -2.45 15.75 0.95 8.65 4.15 10.75 6.05 14.65 13.25 0.90 1.60 1.60 3 1.60 3.10 0 0.35 -30.60 9.25 -31.75 9.25 -0.25 0 -0.95 -0.40 -1.50 -0.80z"/>
  <path d="M360.20 258.65 c-0.40 -3.65 0.15 -11.35 2.05 -30.40 1.20 -11.65 3.55 -30.20 3.90 -30.55 0.05 -0.10 1.40 -0.30 2.95 -0.50 l2.80 -0.35 3.05 3.20 c4.95 5.20 5.35 5.95 6.60 12.95 1.85 10.70 1.20 20.70 -2.10 31.15 -1.85 5.80 -4.15 9.40 -8.55 13.65 -2.65 2.55 -3.65 3.15 -5.80 3.65 -4.55 0.95 -4.45 1 -4.90 -2.80z"/>
  <path d="M452.40 253.65 c-3.50 -3.65 -5.10 -8.65 -5.15 -15.90 0 -3.95 0.15 -4.80 1.40 -7.10 2.15 -4.20 4.95 -5.35 9.20 -3.95 3 1 7.75 4.65 9.40 7.30 1.85 2.90 5 3.30 7.25 0.90 2.05 -2.20 0.70 -6.75 -2.90 -9.75 -1.70 -1.45 -0.70 -1.50 1.05 -0.10 3.60 2.80 6.45 13.80 5.50 21.20 -0.50 3.95 -2.50 9.75 -3.10 8.85 -0.30 -0.50 -18.30 -0.40 -19.90 0.10 -0.65 0.20 -1.50 -0.25 -2.75 -1.55z"/>
  <path d="M457.75 134.40 c-4 -6.45 -7.05 -12.30 -11.30 -21.80 l-3.60 -8.15 1.40 -1.45 1.40 -1.50 0.90 1.45 c0.50 0.80 2.40 3.55 4.25 6.15 1.90 2.55 6.50 9.20 10.25 14.75 l6.80 10.15 -0.50 2 c-0.50 1.70 -0.85 2.10 -2.35 2.50 -3.85 1.10 -4.15 0.90 -7.25 -4.10z"/>
  <path d="M447.90 138.15 c-0.50 -0.10 -0.90 -0.60 -0.90 -1 0 -1.25 -5.15 -5.50 -9.80 -8.05 -2.45 -1.35 -4.70 -8.50 -4.70 -14.85 0 -2.85 0.65 -5.95 1.45 -6.85 0.20 -0.20 1.30 1.95 2.50 4.75 3.15 7.25 9.15 19.60 11.25 23.05 2.25 3.65 2.25 3.50 0.20 2.95z"/>
  <path d="M471.20 113.65 c-3.65 -4.95 -8.65 -12.40 -8.45 -12.55 1 -1 6.70 4.35 8.50 7.90 0.95 1.90 2.90 8 2.55 8 -0.05 0 -1.20 -1.50 -2.60 -3.35z"/>
 </g>
</svg>