<svg preserveAspectRatio="xMidYMid meet" viewBox="88.1875 106.272 741.8125 1122.336" xmlns="http://www.w3.org/2000/svg" version="1.0" style="max-height: 500px" width="741.8125" height="1122.336">
 <g fill="#f6c3b8">
  <path d="M413.25 1212.75 c-0.25 -0.10 -1.35 -0.30 -2.35 -0.50 -1.85 -0.30 -2.80 -1.75 -1.15 -1.75 1.45 0 0.70 -1.25 -1.60 -2.70 -7.20 -4.60 -13.35 -10.85 -17.05 -17.30 -4.45 -7.85 -6.20 -12.75 -7.85 -22.25 -0.70 -3.85 -1.45 -7.65 -1.70 -8.50 -0.45 -1.45 -0.50 -1.45 -0.80 -0.35 -0.20 0.60 -0.65 1.10 -0.95 1.10 -0.45 0 -0.80 -2.90 -1.20 -9.85 -0.75 -12.45 -2.15 -24.70 -4.35 -38 -1.50 -9.35 -1.70 -11.35 -1.65 -19.65 0.05 -13.30 -0.70 -20.75 -3.70 -35.75 -2.05 -10.55 -3.35 -15.60 -4.40 -17.45 -0.95 -1.60 -4.05 -13.20 -5 -18.80 -0.70 -3.85 -1.55 -5 -3.75 -5 -1.45 0 -1.70 -0.20 -2.50 -2.35 -0.50 -1.35 -1.70 -4.10 -2.65 -6.15 -2.45 -5.35 -3 -6.95 -4.90 -14.50 -2.05 -7.95 -2.60 -8.75 -6.05 -8.60 l-2.40 0.10 -2.50 -4 c-1.35 -2.20 -3.10 -4.65 -3.85 -5.35 l-1.40 -1.35 -1.20 1.15 c-0.90 0.85 -1.65 1.10 -3.55 1 -3 -0.20 -3.95 0.85 -3.50 3.80 0.85 5.75 0.80 6.60 -0.50 11.55 -1.45 5.35 -2.40 6.65 -4.95 6.70 -1.25 0 -1.35 -0.10 -0.75 -0.80 0.75 -0.90 1.20 -0.40 -6.30 -6.65 -3.50 -2.90 -3.85 -3.05 -4.10 -2.10 -0.15 0.55 -0.55 1.05 -0.95 1.05 -0.80 0 -0.60 -8.30 0.55 -20 0.75 -7.60 2.15 -27.50 2.30 -32.85 0.10 -2.35 -0.10 -3.40 -0.70 -4.05 -0.55 -0.60 -0.85 -1.80 -0.85 -3.55 0 -2.15 0.20 -2.80 1.10 -3.55 l1.15 -0.90 -0.95 -2.65 c-0.55 -1.50 -1.60 -4 -2.40 -5.55 -1.40 -2.85 -1.85 -5.90 -0.90 -5.90 0.30 0 0.50 0.25 0.50 0.55 0 0.90 0.80 0.35 4.15 -2.90 1.80 -1.75 3.45 -3.15 3.75 -3.15 0.90 0 1.15 -1.60 0.40 -2.75 -0.40 -0.65 -2.95 -3.50 -5.65 -6.30 -10.25 -10.85 -14.40 -17.20 -21.15 -32.50 -1.35 -3.05 -3 -6.30 -3.70 -7.20 -0.75 -0.95 -1.30 -1.80 -1.30 -1.90 0 -0.15 -0.95 -1.75 -2.05 -3.65 -3.55 -5.85 -6.70 -12.75 -9 -19.85 -1.95 -5.95 -2.30 -6.75 -3.15 -6.50 -0.85 0.25 -0.90 0.05 -0.65 -1.45 0.20 -1.45 -0.15 -2.45 -2.20 -5.95 -1.55 -2.70 -2.45 -4.80 -2.45 -5.80 0 -1.95 0.25 -2.05 1.55 -0.50 1.15 1.40 1.20 0.40 0.15 -2.05 -0.50 -1 -0.90 -2.10 -0.95 -2.45 -0.10 -0.30 -0.95 -2.75 -1.95 -5.40 -3.10 -8.30 -6.15 -19.25 -8.50 -30.60 -1.25 -6 -2.90 -13.80 -3.75 -17.40 -1.75 -7.85 -2.80 -14.25 -3.80 -23.55 -0.40 -3.95 -1.15 -8.25 -1.75 -9.95 -2.45 -6.90 -4.65 -16.25 -7.25 -30.45 -2.65 -14.80 -3.65 -22.85 -3.90 -32.30 -0.10 -3.20 -0.30 -4.40 -0.55 -3.65 -0.25 0.65 -0.75 1.15 -1.10 1.15 -0.80 0 -0.85 -1.70 -0.20 -6.75 0.25 -1.95 0.80 -8.80 1.25 -15.25 0.95 -13.25 1.10 -14.25 5.30 -27.90 3.05 -9.90 12.90 -35.65 14.25 -37.15 0.35 -0.40 1.15 -2.10 1.70 -3.70 1.20 -3.45 6.45 -13.55 9.90 -19.10 l2.45 -3.90 9 -0.30 c11.85 -0.45 18.85 -1.40 39.90 -5.40 4.15 -0.80 10.65 -1.70 14.50 -2 6.05 -0.50 12.75 -1.35 28.50 -3.50 7.10 -1 12.80 -1.60 25.25 -2.55 17.55 -1.40 21.65 -2.15 33.40 -6 7.85 -2.55 14.20 -3.85 22.35 -4.50 17.10 -1.35 39.85 -5.10 53.50 -8.75 13.30 -3.60 43.70 -11.20 63.75 -16 10.05 -2.40 21.50 -5.50 25.50 -6.85 7.30 -2.50 13.50 -4.40 25.05 -7.60 3.45 -0.95 8.60 -2.75 11.35 -4 4.95 -2.25 7.70 -2.85 8.35 -1.80 0.15 0.30 -0.10 0.50 -0.60 0.55 -0.50 0 0.30 0.35 1.80 0.75 2.95 0.80 3.50 1 11.05 4.45 2.90 1.30 7.40 3.25 10 4.35 2.60 1.05 5.45 2.30 6.35 2.70 0.85 0.35 1.70 0.70 1.85 0.70 0.65 0 12.25 5.80 17.30 8.65 2.90 1.65 8.05 4.90 11.50 7.30 3.45 2.40 7.95 5.45 10 6.75 2.05 1.30 4.30 2.75 4.95 3.20 1.20 0.80 1.20 0.80 0.60 -0.30 -0.50 -0.95 -0.45 -1.10 0.40 -1.10 1.35 0 2.10 1.25 4.25 6.85 2.85 7.40 4.65 14.60 6.75 27 1.95 11.80 2.70 14.15 4.50 14.15 2.25 0 2.35 -0.95 0.65 -11.65 -0.90 -5.55 -1.60 -10.85 -1.60 -11.70 0 -1.55 0.10 -1.65 1.65 -1.65 1.40 0 1.85 0.30 2.75 1.95 0.70 1.25 1.10 2.80 1.10 4.35 0 2 0.60 3.70 3.45 9.45 1.85 3.85 5.15 10.15 7.30 14 4.80 8.65 13.50 25.95 16.20 32.30 2 4.65 7.75 25.40 11.30 40.65 1 4.30 2.55 12.80 3.50 18.85 1.75 11.20 2.45 13.45 4.20 13.45 1.75 0 2.25 -2.05 1.65 -6.60 -0.35 -2.30 -0.60 -5 -0.60 -6 0 -1.80 0.05 -1.90 1.65 -1.90 1.65 0 1.70 0.05 2.85 3.90 1.60 5.45 1.80 7.60 0.80 7.60 -0.45 0 -0.80 -0.30 -0.80 -0.70 0 -0.35 -0.40 -0.80 -0.90 -0.90 -0.80 -0.25 -0.85 0 -0.55 2.30 1 6.85 -0.20 35.15 -2.05 49.05 -0.25 1.95 -0.70 7.55 -1 12.50 -0.55 8.95 -1.10 13.40 -2.95 24 -0.75 4.25 -1 8.45 -1.10 18.25 l-0.15 12.75 1.55 4 c1.60 4.10 3 9.15 5.65 20.40 1.25 5.35 1.95 7.15 4.25 11.20 1.50 2.65 2.75 4.95 2.75 5.10 0 0.20 0.60 1.20 1.30 2.25 1.35 1.95 4.75 3.90 5.10 2.85 0.35 -1.10 1.10 -0.50 1.10 0.95 0 2.35 1.45 3.45 4.20 3.15 l2.30 -0.30 -0.05 2.45 c0 1.35 -0.20 3.60 -0.50 4.95 -1.35 7.25 -1.40 8.45 -0.70 9.60 0.55 0.80 0.75 2.60 0.75 6.25 0 4.90 0.10 5.25 1.50 7.40 4.15 6.15 7.80 13.90 8.55 18.25 1.10 6.40 1.75 9.15 2.25 9.80 0.70 0.95 2.70 8.05 2.70 9.65 0 1.20 -0.15 1.30 -2.40 1.30 -4.20 0 -4.60 1 -3.90 9.90 0.35 4.50 0.30 5.10 -0.40 5.10 -0.45 0 -0.80 -0.35 -0.80 -0.75 0 -1.10 -0.85 -0.90 -1.75 0.40 -0.40 0.65 -2.25 2.35 -4.05 3.85 -1.85 1.50 -3.80 3.25 -4.35 3.90 -0.60 0.60 -1.30 1.10 -1.65 1.10 -0.30 0 -0.85 0.35 -1.20 0.75 -0.50 0.60 -0.50 0.90 0 1.50 0.55 0.65 0.40 0.75 -0.80 0.75 -1.15 0 -1.85 -0.50 -3.20 -2.25 -0.95 -1.25 -2.20 -2.90 -2.80 -3.65 -0.60 -0.75 -1.30 -1.85 -1.65 -2.45 -0.35 -0.70 -1.35 -1.30 -2.70 -1.65 -1.15 -0.25 -2.75 -0.85 -3.50 -1.25 -3.15 -1.65 -4 -0.50 -5.05 7 -1.65 11.05 -1.80 11.75 -2.90 11.75 -0.65 0 -0.90 -0.25 -0.75 -0.70 0.25 -0.65 -0.50 -0.70 -4.95 -0.50 -2.90 0.15 -6 0 -6.85 -0.25 -0.90 -0.25 -3.15 -0.80 -5 -1.20 -4.05 -0.85 -3.90 -1.30 -1.45 5.65 2.30 6.40 3.30 14.45 2.75 21.80 -0.40 4.85 -0.35 7.05 0.35 11.85 l0.85 5.90 2.95 3 c2.05 2.05 3 2.75 3.10 2.20 0.10 -0.40 0.45 -0.75 0.75 -0.75 0.45 0 0.60 3.60 0.60 14.65 0 30.90 1.80 50 6.60 68.60 1.10 4.35 1.30 6.25 1.40 14.25 0.10 5.10 0.40 10.95 0.70 13 0.30 2.05 0.55 7.70 0.55 12.50 0.05 4.80 0.25 12.70 0.50 17.50 1.20 22.45 1.20 24.20 0.25 25.15 -0.45 0.50 -1.30 2 -1.80 3.35 -1.05 2.70 -3.25 12.10 -3.75 16 -0.25 2 -0.50 2.50 -1.25 2.50 -0.70 0 -0.95 -0.35 -0.95 -1.30 0 -1.65 -0.25 -1.50 -3.95 1.80 -1.65 1.50 -3.85 3.40 -4.80 4.15 -0.95 0.80 -1.75 1.75 -1.75 2.15 0 0.95 -1.70 0.90 -2.50 -0.05 -0.70 -0.85 -2.30 -1 -2.75 -0.25 -0.45 0.75 -3.50 1.90 -7.50 2.90 -2.90 0.70 -5.85 0.85 -16.75 0.80 -7.30 0 -15.10 -0.30 -17.35 -0.60 -4.20 -0.60 -18.45 -3.80 -20.50 -4.65 -1.55 -0.60 -1.60 -3.40 -0.15 -4.35 0.55 -0.35 1 -1 1 -1.55 0 -1.15 -1.55 -2.55 -2.80 -2.55 -0.70 0 -1.45 -0.90 -2.55 -3.20 -2.05 -4.10 -3.95 -6.25 -9 -10.05 -8.40 -6.35 -10.60 -8.40 -10.60 -9.95 -0.05 -1.20 0.05 -1.35 0.70 -0.80 1.50 1.25 1.40 -0.05 -0.40 -5.60 -1 -3.10 -2.20 -7.30 -2.60 -9.30 -0.40 -2.05 -1.60 -5.95 -2.60 -8.70 -2 -5.40 -2.25 -5.65 -6.40 -6.40 -1.10 -0.20 -2.75 -0.55 -3.65 -0.75 -1.35 -0.30 -1.55 -0.25 -1.30 0.45 0.25 0.60 0 0.80 -1 0.80 -0.70 0 -1.30 -0.20 -1.30 -0.45 0 -0.85 -3.50 -3.80 -4.80 -4.05 -0.95 -0.20 -1.50 -0.70 -1.85 -1.75 -0.80 -2.45 -1.80 -3.25 -4.15 -3.25 -2.50 0 -3.70 -1.25 -3.70 -3.85 l0 -1.65 3.40 0 c2.85 0 3.60 -0.20 4.40 -1.05 1.85 -2.05 -0.85 -3.95 -5.75 -3.95 -2.65 0 -3.45 -0.20 -4.45 -1.10 -1.05 -1 -1.75 -1.15 -6 -1.25 -2.65 -0.05 -6.55 -0.20 -8.60 -0.35 -7.70 -0.60 -30.35 -0.85 -36.25 -0.35 -7.10 0.55 -12.30 2.25 -21.35 6.90 -5.20 2.70 -5.50 2.80 -8.20 2.45 -2.50 -0.30 -3.25 -0.15 -7.10 1.50 -2.40 1.05 -6.10 2.85 -8.25 4.10 -3.50 2 -4.15 2.20 -6.20 1.95 -2.10 -0.20 -2.45 -0.10 -3.75 1.35 -0.80 0.85 -1.90 2.35 -2.40 3.30 -1.35 2.60 -5.20 6 -6.80 6 -1.10 0 -1.20 -0.10 -0.70 -0.75 0.85 -1 0.25 -1.60 -1.90 -1.95 -1 -0.10 -3.75 -0.50 -6.10 -0.80 -2.35 -0.35 -4.80 -0.80 -5.45 -1.05 l-1.15 -0.50 0.30 3.40 c0.80 7.55 5.90 37.95 6.20 36.55 0.40 -1.90 1.45 -0.85 1.80 1.75 0.55 4.55 0.40 7.35 -0.40 7.35 -0.40 0 -0.80 -0.40 -0.90 -0.85 -0.10 -0.50 -0.35 1.45 -0.55 4.35 -0.40 5.55 -1.75 12 -3.35 16.35 -1.45 3.90 -4.30 9.45 -5.45 10.75 -1.20 1.25 -1.40 2.90 -0.30 2.90 0.40 0 0.75 0.35 0.75 0.75 0 0.40 -0.20 0.75 -0.45 0.75 -0.20 0 -1.20 0.65 -2.20 1.40 -1.85 1.50 -3.70 1.95 -19.60 4.85 -9 1.65 -12.55 2.65 -23.45 6.60 -7.25 2.60 -9.75 3.25 -13.05 3.50 -3.20 0.20 -4.35 0.10 -5.65 -0.55 -1.55 -0.80 -1.60 -0.80 -2.70 0.45 -0.85 1 -1.50 1.25 -3.35 1.20 -1.25 0 -2.50 -0.10 -2.80 -0.20z m78.30 -239.65 c0.55 -1.60 11.55 -17.45 12.65 -18.20 0.30 -0.20 1.15 -0.40 1.85 -0.40 0.70 0 1.70 -0.45 2.15 -0.95 1 -1.05 4.45 -13.40 6.60 -23.30 l1.35 -6.20 2.30 -0.25 c21.05 -2.40 43.60 -8.40 64.55 -17.30 8.15 -3.45 8.65 -3.40 12.60 1.10 1.75 1.95 4.65 5.15 6.45 7.10 4.60 5 8.45 9.65 10.90 13.25 l2.10 3.10 2.45 -0.35 c2.25 -0.30 2.70 -0.15 5.10 1.40 5.70 3.75 7.05 4.10 8.90 2.15 1.10 -1.20 1.15 -1.40 0.55 -3.15 -1.20 -3.30 -5.90 -12.65 -9.95 -19.85 l-4 -7 0.05 -6.15 0 -6.20 4.80 -3.10 c6.60 -4.35 17.15 -13.50 20.10 -17.50 0.80 -1.05 1.45 -2.45 1.45 -3.10 0 -1.40 -1.80 -3.15 -3.60 -3.55 -0.75 -0.15 -1.70 -0.80 -2.15 -1.45 -0.85 -1.35 -2.35 -1.55 -3.20 -0.50 -0.30 0.35 -0.90 1.80 -1.30 3.15 -0.95 3.10 -3.80 6.50 -6.55 7.65 -1.15 0.50 -2.35 1.40 -2.65 1.95 -0.30 0.55 -2.35 2.25 -4.55 3.80 -3.45 2.45 -4.20 2.80 -6.05 2.65 -1.90 -0.10 -2.30 0.10 -3.90 1.90 -3 3.35 -5.75 5.20 -7.70 5.20 -1.30 0 -2.05 0.35 -2.80 1.30 -0.60 0.75 -1.05 1.65 -1.05 2 0 0.85 -1.55 1.65 -8.15 4.15 -3.40 1.30 -6.20 2.05 -7.60 2.05 -1.50 0 -3.25 0.50 -5.15 1.45 -5.30 2.65 -10.35 4.20 -25.10 7.75 -8.10 1.95 -15.40 3.30 -19.25 3.65 -3.20 0.30 -3.65 0.45 -5.20 2.05 -1.75 1.90 -2.75 2.20 -9.90 2.90 -2.90 0.30 -3.15 0.25 -4.25 -1 l-1.15 -1.35 -4.65 1.25 c-14.65 3.90 -24.80 3.45 -29.15 -1.30 -1 -1.05 -1.80 -1.35 -4.35 -1.55 -3.10 -0.25 -3.20 -0.20 -4 1.15 -0.70 1.20 -1.20 1.50 -3.10 1.60 -2 0.15 -2.35 0.35 -3.65 2.30 l-1.45 2.15 1.05 1.15 c1.05 1.10 4.55 2.35 9.30 3.30 1.40 0.30 7.30 0.65 13.15 0.85 l10.60 0.30 0 1.55 c0 2.10 -3.05 14.95 -4.95 20.85 -0.85 2.65 -2 5.40 -2.55 6.10 -0.90 1.10 -0.95 1.45 -0.40 2.35 0.35 0.55 0.80 1 1 1 0.80 0 0.35 3.30 -1.10 7.50 -0.80 2.45 -1.60 5.60 -1.80 7.05 -0.30 2.35 -0.25 2.65 0.80 3.45 1.50 1.15 2.75 0.45 3.55 -1.90z m-4.85 -146.35 c1.25 -0.70 2.60 -1.25 3 -1.25 0.40 0 1.05 -0.30 1.45 -0.70 0.40 -0.40 1.50 -0.95 2.40 -1.25 l1.70 -0.50 -1.75 0 c-3.05 0.05 -3.50 -0.05 -3.50 -0.80 0 -0.60 0.85 -0.75 4.90 -0.75 2.65 0 6.55 0.25 8.60 0.55 10.65 1.40 33.25 1.35 41.85 -0.10 4.55 -0.75 6.35 -1.65 7.20 -3.60 0.65 -1.50 0.95 -1.65 4.45 -2.25 10.55 -1.75 22.35 -4.40 27.50 -6.15 3.15 -1.10 8.25 -2.65 11.25 -3.45 7.25 -1.90 10.35 -3.10 20.25 -7.90 4.55 -2.20 10.05 -4.60 12.25 -5.35 6.10 -2.05 11.35 -5.40 13.80 -8.80 0.60 -0.85 2.50 -4.70 4.25 -8.55 1.75 -3.90 4.65 -9.65 6.45 -12.80 1.80 -3.20 4.35 -8.25 5.65 -11.30 l2.35 -5.55 -0.10 -7.05 c-0.10 -4.80 0.10 -8.10 0.60 -10.50 0.45 -1.90 1 -4.55 1.20 -5.95 0.25 -1.35 0.80 -3.95 1.20 -5.75 1.55 -6.55 3.45 -20.40 3.45 -25 0 -8.30 -3.45 -29.20 -6.10 -36.75 -0.60 -1.65 -1.50 -5.40 -2.05 -8.35 -1.15 -6.40 -3.05 -12.60 -5 -16.50 -0.80 -1.60 -1.45 -3.60 -1.45 -4.45 0 -1.60 0 -1.60 1 -0.70 1 0.90 1 0.90 0 -1.55 -0.60 -1.35 -1.30 -3 -1.60 -3.70 -0.30 -0.70 -0.65 -1.55 -0.70 -1.95 -0.50 -2.50 -2.10 -4.45 -5.10 -6.25 -0.55 -0.35 -0.60 -0.20 -0.15 0.65 0.50 0.90 0.45 1.05 -0.35 1.05 -1.35 0 -2.10 -1.05 -5.35 -7.45 -2.95 -5.80 -5.30 -9.05 -6.50 -9.05 -0.95 0 -2.25 2 -2.25 3.35 0 1.05 -0.25 1.15 -2.25 1.15 -2.10 0 -2.45 -0.25 -6.90 -4.35 -2.55 -2.45 -5.75 -5.20 -7.10 -6.15 -1.30 -0.95 -5.25 -4.50 -8.70 -7.80 -4.50 -4.35 -8 -7.20 -12.30 -9.95 -3.30 -2.15 -9.80 -6.40 -14.50 -9.50 -11.75 -7.80 -19.05 -11.30 -26.80 -12.80 -2.65 -0.50 -3.70 -1.05 -6.15 -3.05 -3.70 -3.05 -6.80 -4.65 -11.70 -6 -3.30 -0.90 -5.40 -1.05 -15.10 -1.15 -6.20 -0.05 -13.85 0.15 -17 0.40 -3.15 0.30 -9.70 0.55 -14.50 0.55 -4.80 0.05 -12.80 0.25 -17.70 0.50 l-8.95 0.45 -0.80 1.95 c-0.45 1.05 -1.15 1.90 -1.55 1.90 -0.45 0 -3.55 0.70 -6.90 1.50 -7 1.70 -9.40 1.85 -10.70 0.65 -0.85 -0.75 -1.30 -0.65 -7.80 2.60 l-6.85 3.45 -9.45 9.30 c-15.60 15.30 -28.75 29.90 -32.95 36.55 -1.80 2.80 -1.80 2.80 -0.80 3.85 1.80 1.95 1.30 4.25 -2.55 11.35 -1.90 3.60 -4.20 8.25 -5.05 10.40 -1.50 3.75 -1.55 3.90 -0.70 4.85 0.55 0.60 1.55 1 2.60 1 1.55 0 1.65 -0.10 1.65 -1.75 0 -0.95 0.50 -2.95 1.15 -4.50 1.05 -2.55 1.20 -2.75 2.80 -2.75 l1.70 0 -0.25 4.05 c-0.25 4.35 -0.60 4.95 -3 4.95 -1.20 0 -1.40 0.20 -1.40 1.40 0 2.10 -1.35 6.60 -2.30 7.65 -0.60 0.65 -1.05 3.10 -1.75 9.30 -0.50 4.60 -1.25 11 -1.65 14.15 -2.95 22 -2.15 38.50 2.30 47.15 0.60 1.20 1.25 4.25 1.70 8 1.45 11.75 3.70 19.90 7.80 28.05 1.10 2.15 4.75 8.85 8.15 14.85 3.40 6 6.65 12.20 7.25 13.80 0.60 1.60 1.85 3.90 2.75 5.15 2.55 3.35 3.75 5.15 7.65 11.75 6.60 11.05 11.45 15.75 21.75 21 6.75 3.40 13.60 5.60 20.35 6.40 4.45 0.50 5.25 0.75 5.40 1.55 0.15 0.75 0 0.90 -0.85 0.65 -0.60 -0.15 -1.05 -0.20 -1.05 -0.10 0 0.25 6.55 3.30 7.55 3.50 0.50 0.10 1.10 0.30 1.35 0.45 0.20 0.10 1.70 0.35 3.35 0.55 1.65 0.15 3.05 0.40 3.20 0.55 0.10 0.10 2.55 0.20 5.35 0.20 4.60 0 5.40 -0.15 7.40 -1.25z"/>
  <path d="M500 948.15 c0 -0.80 0.60 -3.15 1.30 -5.25 l1.30 -3.90 -1.05 -1.30 c-1.25 -1.60 -1.30 -3 -0.20 -8.50 l0.80 -4.20 4.20 0 4.15 0 0 1.95 c0 1.95 -1.70 10.10 -3.45 16.20 -1.15 4.20 -3 6.35 -5.40 6.35 -1.45 0 -1.65 -0.15 -1.65 -1.35z"/>
  <path d="M615.70 920.50 c-3.35 -3.90 -4.05 -4.50 -5.40 -4.50 -2.05 0 -2.50 -0.35 -6.75 -5.70 -1.90 -2.45 -3.95 -4.75 -4.55 -5.15 -0.65 -0.45 -1 -1.25 -1 -2.30 0 -1.55 0.15 -1.65 4 -3.25 2.35 -0.95 4.85 -1.60 6.15 -1.60 2.10 0 2.15 0.05 3.55 2.85 0.75 1.55 3.15 5.90 5.30 9.65 5.45 9.55 6 10.70 6 12.75 0 1.65 -0.10 1.75 -1.75 1.75 -1.55 0 -2.10 -0.45 -5.55 -4.50z"/>
  <path d="M518 815.75 c0 -0.40 0.70 -0.85 1.75 -1.05 0.95 -0.15 1.75 -0.50 1.75 -0.75 0 -0.25 0.45 -0.45 0.95 -0.45 0.55 0 1.15 -0.25 1.30 -0.50 0.20 -0.30 0.75 -0.40 1.30 -0.25 0.55 0.20 0.95 0.10 0.95 -0.25 0 -0.35 0.40 -0.50 1 -0.35 0.55 0.15 1 0.05 1 -0.25 0 -0.30 0.35 -0.35 0.80 -0.20 0.45 0.20 1.15 0.05 1.50 -0.25 0.40 -0.30 1.05 -0.45 1.45 -0.25 0.45 0.15 0.75 0 0.75 -0.45 0 -0.40 0.35 -0.75 0.75 -0.75 0.55 0 0.75 0.65 0.75 2.65 l0 2.65 -4.15 0.60 c-6 0.85 -11.85 0.80 -11.85 -0.15z"/>
  <path d="M399.50 755.20 c-1.55 -3.45 -1.95 -7.05 -0.90 -8.10 0.40 -0.40 -0.15 -1.35 -2.25 -3.85 -1.55 -1.80 -3.50 -4.75 -4.40 -6.55 -3.85 -8.10 -6.95 -27.25 -6.95 -43 0 -4.05 0.15 -5.20 0.70 -5.20 1.30 0 5.45 14.70 7.30 25.60 0.55 3.40 1.80 8.75 2.70 11.90 2.30 7.70 4.35 15.25 4.50 16.65 0.05 0.60 0.25 1.45 0.40 1.85 0.45 1.25 1.90 7.75 2.20 10.20 0.20 1.45 0.60 2.30 1 2.30 0.40 0 0.70 0.35 0.70 0.75 0 0.55 -0.55 0.75 -1.75 0.75 -1.70 0 -1.85 -0.15 -3.25 -3.30z"/>
  <path d="M654.05 718.90 c-0.05 -1.95 -0.20 -3.75 -0.35 -4 -0.15 -0.20 -0.05 -0.40 0.20 -0.40 0.25 0 0.45 -0.95 0.50 -2.10 0.05 -1.20 0.35 -4.25 0.65 -6.75 0.30 -2.55 0.45 -5.10 0.30 -5.65 -0.15 -0.70 0 -1 0.50 -1 0.55 0 0.70 -0.35 0.45 -1.15 -0.35 -1.55 0.15 -3.35 1 -3.35 1 0 0.95 14.70 0 20.50 -1.20 6.95 -1.35 7.50 -2.30 7.50 -0.75 0 -0.85 -0.55 -0.95 -3.60z"/>
  <path d="M388.70 640.90 c0.95 -14.20 5.25 -36 8.35 -42.15 0.55 -1.10 3.65 -5.35 6.85 -9.45 4.60 -5.90 6.35 -7.70 8.10 -8.60 2.75 -1.40 4 -2.85 4 -4.75 0 -1.20 0.65 -1.95 3.80 -4.45 2.05 -1.65 4.25 -3 4.80 -3 0.60 0 2.15 -0.70 3.45 -1.50 1.45 -0.95 3.30 -1.65 4.95 -1.85 1.40 -0.15 3.05 -0.70 3.65 -1.15 0.95 -0.80 1 -1.05 0.45 -2.20 -0.35 -0.75 -0.60 -2 -0.60 -2.85 0 -1.30 0.30 -1.65 2.15 -2.45 1.20 -0.55 6.35 -2 11.40 -3.20 5.05 -1.25 13.05 -3.15 17.70 -4.30 14.05 -3.45 22.55 -3.35 46.50 0.55 17.40 2.80 15.95 2.40 16.30 4.60 0.35 2.25 1.60 3.30 3.85 3.35 1.45 0 2.30 0.65 6.40 4.90 3.95 4.10 4.70 5.10 4.70 6.50 l0 1.65 -1.30 -1 c-0.75 -0.60 -1.70 -1.05 -2.20 -1.05 -0.45 0 -3.05 -0.90 -5.80 -2.05 -2.70 -1.10 -5.45 -2.15 -6.05 -2.30 -0.65 -0.15 -5.60 0 -11 0.35 -14.10 0.80 -13.95 0.80 -18.65 1.65 -2.35 0.45 -7.30 1.25 -11 1.80 -9.75 1.50 -11.65 1.90 -22.75 4.65 -10.10 2.45 -14.80 3.70 -20.75 5.45 -3.75 1.10 -14.80 3.85 -17.80 4.45 -1.10 0.25 -5.55 1.35 -9.90 2.45 -4.30 1.15 -7.95 2.05 -8.10 2.05 -0.15 0 -0.70 1.05 -1.30 2.30 -0.55 1.30 -1.70 3.50 -2.50 4.90 -5.35 9.05 -6.65 12.50 -10.60 28.30 -2.10 8.40 -3.95 15.60 -4.15 16 -0.20 0.40 -0.40 1.10 -0.45 1.50 -0.10 0.40 -0.40 1.75 -0.65 3 -0.25 1.25 -0.35 2.40 -0.25 2.60 0.15 0.25 -0.25 0.40 -0.85 0.40 -1.10 0 -1.10 -0.05 -0.75 -5.10z"/>
  <path d="M578.25 575.70 c-1.10 -0.40 -5.05 -1.20 -8.75 -1.75 -6.35 -0.90 -8.80 -1.35 -13.85 -2.40 -1.15 -0.20 -3.05 -0.40 -4.15 -0.35 -1.70 0.05 -2 -0.10 -2 -0.95 0 -0.60 0.25 -1.30 0.55 -1.60 0.75 -0.75 0.10 -1.80 -4 -6.30 -2.50 -2.75 -3.05 -3.70 -3.05 -5.10 l0 -1.75 3.10 0 c2.90 0 3.60 0.25 13.60 5.30 14.15 7.15 21.30 12.05 21.30 14.55 0 1.30 -0.05 1.35 -2.75 0.35z"/>
  <path d="M771.80 1114.90 c-1.40 -9.05 -1.50 -10.40 -0.65 -10.40 0.70 0 1.25 1.40 1.55 4.15 0.10 0.60 0.30 1.85 0.50 2.75 0.80 3.50 0.70 5.10 -0.25 5.10 -0.65 0 -1 -0.50 -1.15 -1.60z"/>
  <path d="M327 1001.75 c0 -0.40 -0.45 -0.75 -1 -0.75 -0.55 0 -1 0.25 -1 0.50 0 0.30 -0.20 0.50 -0.50 0.50 -0.25 0 -0.50 -0.80 -0.50 -1.75 0 -1.60 0.10 -1.75 1.45 -1.75 2.45 0 3.05 0.45 3.05 2.30 0 1.20 -0.25 1.70 -0.75 1.70 -0.40 0 -0.75 -0.35 -0.75 -0.75z"/>
  <path d="M292.75 964.40 c-0.15 -0.90 -0.50 -2.10 -0.75 -2.65 -0.25 -0.55 -0.75 -2.30 -1.15 -3.85 -0.60 -2.55 -0.60 -2.90 0.05 -2.90 0.40 0 0.60 -0.30 0.40 -0.75 -0.15 -0.50 0.05 -0.75 0.65 -0.75 0.75 0 1.05 0.75 1.75 4.15 1 5.20 1.05 8.35 0.10 8.35 -0.40 0 -0.85 -0.70 -1.05 -1.60z"/>
  <path d="M290.75 951.45 c-0.20 -0.25 -0.40 -1.05 -0.50 -1.75 -0.10 -0.90 0.15 -1.20 0.80 -1.20 0.75 0 0.95 0.40 0.95 1.75 0 1.70 -0.60 2.30 -1.25 1.20z"/>
  <path d="M294.35 938.65 c-1.30 -5.15 -1.20 -5.65 1.05 -5.65 1.70 0 2 0.20 2.75 1.75 0.85 1.80 1.10 4.95 0.55 6.45 -0.20 0.50 -0.90 0.80 -1.90 0.80 -1.55 0 -1.60 -0.10 -2.45 -3.35z"/>
  <path d="M297.50 925 c-0.55 -1.05 -1 -2.65 -1 -3.50 0 -1.50 0.65 -2 1.20 -0.85 0.15 0.30 0.20 0 0.10 -0.75 -0.15 -1.15 0.05 -1.40 0.90 -1.40 1.45 0 3.30 3.60 3.30 6.40 0 2.05 -0.05 2.10 -1.75 2.10 -1.50 0 -1.85 -0.25 -2.75 -2z"/>
  <path d="M805.30 879.90 c-2.40 -5.70 -3.65 -9.85 -5.60 -18.80 -0.35 -1.70 -2 -3.10 -3.70 -3.10 -1.50 0 -1.50 0 -1.50 -2.90 0 -1.65 0.15 -6 0.35 -9.75 0.30 -6.35 0.40 -6.85 1.30 -6.85 0.65 0 0.85 0.25 0.65 0.75 -0.15 0.40 -0.10 0.75 0.15 0.75 0.45 0 5.05 5.80 5.05 6.45 0 0.25 0.35 0.70 0.80 1.10 1.80 1.50 5.60 10.75 7.05 17.20 1 4.45 1.20 16.75 0.30 17.85 -0.45 0.50 -0.50 1.20 -0.15 2.30 0.40 1.45 0.35 1.60 -0.70 1.60 -1 0 -1.55 -0.90 -4 -6.60z"/>
  <path d="M765.10 623.60 c-1.20 -3.15 -1.45 -7.05 -0.50 -8 0.35 -0.35 1.05 -0.60 1.65 -0.60 0.95 0 1.05 0.30 1.15 3.15 0.05 1.70 0.30 4.30 0.50 5.75 0.40 2.45 0.35 2.60 -0.60 2.60 -0.80 0 -1.30 -0.65 -2.20 -2.90z"/>
  <path d="M762.05 602 c-3.50 -10.25 -8.80 -21.65 -16.30 -35.25 -4.10 -7.35 -6.75 -14.40 -6.75 -17.85 0 -1.60 0.75 -1.85 1.50 -0.45 0.25 0.55 0.80 1.25 1.15 1.65 1.40 1.40 6.30 9.35 8.70 14.15 1.40 2.75 3.45 7.55 4.60 10.65 1.15 3.10 3.20 8.15 4.55 11.20 3.90 8.60 5.35 13.30 6.25 20.30 0.15 1.30 0.05 1.60 -0.70 1.60 -0.75 0 -1.35 -1.25 -3 -6z"/>
  <path d="M302.50 527.30 l0 -2.20 2.65 -0.35 c1.40 -0.20 6.65 -1.10 11.60 -2 10 -1.90 25.40 -4.15 31.40 -4.60 l3.90 -0.30 -0.15 1.90 c-0.15 1.85 -0.30 1.95 -2.40 2.55 -13.15 3.50 -18.15 4.80 -20.25 5.25 -5.15 1 -14.70 1.95 -20.60 1.95 l-6.15 0 0 -2.20z"/>
  <path d="M380 519.35 l0 -1.75 3 -0.35 c1.65 -0.20 3 -0.55 3 -0.75 0 -0.80 21.80 -5.50 25.50 -5.50 1.95 0 2 0.05 2 1.65 l0 1.65 -5.35 1.60 c-7.25 2.15 -18.40 4.45 -23.75 4.90 l-4.40 0.35 0 -1.80z"/>
  <path d="M446.50 509.30 c0 -1.55 0.15 -1.80 1.15 -1.80 0.65 0 1.35 -0.20 1.65 -0.45 0.25 -0.25 4.40 -1.35 9.20 -2.50 4.80 -1.10 12.60 -3.15 17.25 -4.55 9.05 -2.70 20.15 -5.05 35.50 -7.45 5.25 -0.85 12.30 -2.10 15.75 -2.80 3.45 -0.65 7.20 -1.25 8.40 -1.25 2.05 0 2.10 0 2.10 1.75 0 0.95 -0.10 1.75 -0.25 1.75 -0.35 0 -38.85 9.80 -48 12.25 -9.60 2.55 -30.50 6.20 -37.85 6.60 l-4.90 0.30 0 -1.85z"/>
  <path d="M455.35 472.15 c-0.20 -0.15 -0.35 -1 -0.35 -1.85 l0 -1.55 9.40 -2.05 c5.15 -1.15 12.25 -3 15.75 -4.10 3.55 -1.15 9.15 -2.65 12.50 -3.35 3.35 -0.70 6.90 -1.50 7.90 -1.75 1 -0.30 2.85 -0.50 4.15 -0.50 2.30 0 2.30 0 2.30 1.75 0 1.65 -0.10 1.75 -1.75 1.75 -1.15 0 -1.75 0.25 -1.75 0.70 0 1.20 -17.85 6.30 -33.75 9.55 -2.20 0.45 -4.80 1.05 -5.80 1.30 -2.10 0.50 -8.10 0.60 -8.60 0.10z"/>
  <path d="M392 468.50 c-7.85 -0.15 -15.60 -0.55 -17.25 -0.90 -1.65 -0.30 -5.85 -0.75 -9.30 -1 -3.50 -0.25 -6.55 -0.60 -6.80 -0.75 -0.25 -0.20 -1.05 -1.15 -1.75 -2.20 -1.30 -1.90 -1.30 -1.95 -1.05 -9.85 l0.30 -7.90 3.30 0.25 c1.80 0.15 4.90 0.50 6.80 0.80 11.10 1.60 17.70 1.90 25.65 1 8.35 -0.90 47.20 -8.30 65.85 -12.50 3.60 -0.80 10.10 -2.25 14.50 -3.25 9.05 -1.95 14.70 -3.80 27.10 -8.75 5.25 -2.10 11.70 -4.20 16.60 -5.45 10.50 -2.65 11.60 -3 19.55 -6.75 3.70 -1.75 9.80 -4.15 13.55 -5.40 3.75 -1.25 7.50 -2.60 8.35 -3.05 3 -1.55 4.25 -1.10 6.35 2.10 1.05 1.55 2.55 3.65 3.30 4.65 2.10 2.70 2 4.95 -0.40 7.25 -4.25 4.05 -15.60 11.15 -26.10 16.45 -9.50 4.75 -16.40 8.70 -20.30 11.60 -5.60 4.20 -9 5.45 -25.75 9.35 -18.55 4.35 -64.65 13.70 -69.35 14.15 -3.70 0.30 -4.70 -0.20 -2.75 -1.30 0.65 -0.40 0.35 -0.50 -1.50 -0.55 -1.35 0 -2.40 0.25 -2.40 0.50 0 0.30 0.35 0.50 0.75 0.50 0.40 0 0.75 0.35 0.75 0.75 0 0.85 0.10 0.85 -28 0.25z"/>
  <path d="M518.65 462.65 c-0.35 -0.10 -0.65 -1 -0.65 -1.90 0 -1.55 0.20 -1.75 2.80 -2.95 1.55 -0.70 3.45 -1.30 4.25 -1.30 1.35 0 1.45 0.10 1.45 2.15 0 1.80 -0.25 2.35 -1.50 3.25 -1.40 1.05 -4.70 1.45 -6.35 0.75z"/>
  <path d="M348.50 459.50 c0 -0.25 -0.55 -0.60 -1.25 -0.80 -1.35 -0.35 -1.75 -1.70 -0.50 -1.70 0.45 0 0.60 -0.30 0.40 -0.85 -0.20 -0.55 -0.40 -0.60 -0.55 -0.25 -0.10 0.35 -0.40 0.60 -0.65 0.60 -0.60 0 -0.60 -3.35 0.05 -3.75 0.30 -0.15 0.50 -1.20 0.50 -2.30 0 -1.60 0.15 -1.95 1 -1.95 0.60 0 1 0.35 1 0.90 0 0.65 0.20 0.55 0.75 -0.40 0.40 -0.70 0.90 -1.65 1.05 -2.10 0.40 -1.10 1.50 -1.15 1.90 -0.10 0.40 1.05 0.40 7.95 0 10.90 -0.30 2.20 -0.40 2.30 -2 2.30 -0.95 0 -1.70 -0.20 -1.70 -0.50z"/>
  <path d="M527.50 444.75 c0 -1.40 0.20 -1.75 0.95 -1.75 0.50 0 1.05 -0.30 1.20 -0.70 0.15 -0.40 4.05 -2.60 8.70 -4.85 4.60 -2.30 10.15 -5.25 12.30 -6.55 2.15 -1.35 4.10 -2.40 4.35 -2.40 0.20 0 0.65 -0.35 1 -0.75 0.35 -0.40 1.40 -0.75 2.40 -0.75 l1.80 0 -1.45 1.50 c-0.75 0.80 -1.55 1.35 -1.75 1.25 -0.20 -0.15 -0.75 0.30 -1.20 1 -0.45 0.65 -2.40 2.15 -4.30 3.25 -5.60 3.30 -18.50 9.55 -19.90 9.70 -1.40 0.15 -2.20 1.30 -0.90 1.30 0.45 0 0.80 0.35 0.80 0.75 0 0.55 -0.55 0.75 -2 0.75 -1.95 0 -2 -0.05 -2 -1.75z"/>
 </g>
 <g fill="#7a7570">
  <path d="M30.50 1238.95 c-5.25 -1.55 -7.65 -9.65 -4.30 -14.55 1.90 -2.80 3.55 -3.65 6.95 -3.65 3.90 0 6.10 1.20 7.75 4.25 1 1.90 1.15 2.75 0.95 5.60 -0.35 5.35 -2.60 8 -7.35 8.60 -1.25 0.15 -3.05 0 -4 -0.25z m5.40 -4.20 c1.60 -1.35 2.20 -3.60 1.75 -6.40 -0.35 -2.40 -1.65 -3.85 -3.75 -4.15 -1.60 -0.30 -2.05 -0.10 -3.45 1.25 -1.50 1.50 -1.55 1.75 -1.35 4.90 0.20 2.85 0.40 3.45 1.60 4.45 1.75 1.55 3.35 1.50 5.20 -0.05z"/>
  <path d="M88 1238.95 c-2.85 -1.15 -4.70 -4.10 -5.45 -8.90 -0.60 -3.75 0.05 -8.50 1.60 -11.25 2.35 -4.20 8.30 -5.50 12.10 -2.60 6.15 4.70 5.15 19.80 -1.50 22.60 -1.95 0.80 -4.90 0.85 -6.75 0.15z m5.90 -4.05 c2.35 -2.60 2.85 -12 0.75 -14.80 -2.10 -2.85 -5.30 -2.60 -7 0.50 -1.10 2.05 -1.25 10.40 -0.20 12.40 1.75 3.25 4.40 4.05 6.45 1.90z"/>
  <path d="M0 1238.60 c0 -0.25 2.25 -4.80 5 -10.15 2.75 -5.35 5 -9.75 5 -9.80 0 -0.10 -2.25 -0.15 -5 -0.15 l-5 0 0 -1.75 0 -1.80 7.15 0.15 7.10 0.15 0.15 1.30 c0.10 0.85 -1.65 4.90 -5.10 11.85 l-5.30 10.60 -2 0 c-1.10 0 -2 -0.20 -2 -0.40z"/>
  <path d="M47 1231.50 l0 -7.50 -1.50 0 c-1.35 0 -1.50 -0.15 -1.50 -1.50 0 -1.30 0.15 -1.50 1.45 -1.50 1.30 0 1.45 -0.15 1.70 -2.30 0.30 -2.85 1.90 -4.60 4.35 -4.75 3.10 -0.20 3.50 -0.05 3.50 1.30 0 1 -0.25 1.25 -1.20 1.25 -1.65 0 -2.80 1.25 -2.80 3.05 0 1.35 0.10 1.45 2 1.45 1.90 0 2 0.10 2 1.50 0 1.40 -0.10 1.50 -2 1.50 l-2 0 0 7.50 0 7.50 -2 0 -2 0 0 -7.50z"/>
  <path d="M72.50 1228.95 l0 -10 -2.85 2 c-1.55 1.15 -3 2.05 -3.25 2.05 -0.20 0 -0.40 -0.75 -0.40 -1.70 0 -1.55 0.35 -1.95 3.25 -4 2.55 -1.80 3.75 -2.30 5.25 -2.30 l2 0 0 12 0 12 -2 0 -2 0 0 -10.05z"/>
  <path d="M503.50 1179.05 c0 -3.40 0.50 -5.05 1.65 -5.05 0.85 0 0.95 0.25 0.65 2.15 -0.25 1.95 -0.25 2.05 0.40 0.85 0.95 -1.75 1.75 -5.60 2.20 -10.25 0.30 -3.35 0.50 -4 1.30 -4.15 0.90 -0.20 0.90 0.05 0.60 4 -0.45 5.30 -1.30 9.90 -1.85 9.90 -0.25 0 -0.45 0.45 -0.45 1 0 0.50 -0.25 1.55 -0.60 2.25 -0.45 0.95 -0.95 1.25 -2.25 1.25 -1.60 0 -1.65 -0.05 -1.65 -1.95z"/>
  <path d="M505.55 1173.50 c-0.65 -0.35 -0.65 -1.10 -0.15 -4.90 0.35 -2.45 0.60 -5.15 0.60 -6.05 0 -1.25 0.20 -1.55 1.05 -1.55 0.95 0 1 0.15 0.65 4.10 -0.50 6.05 -1.30 9 -2.15 8.40z"/>
  <path d="M378.50 1152.75 c0 -2 0.20 -2.75 0.70 -2.75 0.90 0 1.30 1.10 1.30 3.55 0 1.60 -0.15 1.95 -1 1.95 -0.90 0 -1 -0.35 -1 -2.75z"/>
  <path d="M363.50 1099.50 l0 -3.50 1.75 0 1.75 0 0 3.50 0 3.50 -1.75 0 -1.75 0 0 -3.50z"/>
  <path d="M764.55 951.15 c0.10 -4.60 0.45 -5.35 2.60 -5.55 l1.85 -0.15 0 2.05 c0 1.15 -0.25 3.05 -0.55 4.30 -0.55 2.05 -0.70 2.20 -2.25 2.20 l-1.70 0 0.05 -2.85z m2.65 -2.30 c0.20 -0.95 0.15 -1.30 -0.20 -1.10 -0.25 0.15 -0.50 0.90 -0.50 1.60 0 1.60 0.25 1.40 0.70 -0.50z"/>
  <path d="M807.35 943.15 c-0.50 -2.70 -0.85 -5.50 -0.85 -6.25 0 -1.25 0.15 -1.40 1.80 -1.40 l1.85 0 -0.30 2.05 c-0.25 1.75 -0.10 2.10 0.70 2.30 0.85 0.25 0.95 0.75 0.95 4.20 l0 3.95 -1.65 0 -1.70 0 -0.80 -4.85z m2.40 -0.20 c-0.40 -3.25 -1.15 -6.30 -1.20 -4.85 -0.05 1.15 1.10 7.90 1.35 7.90 0.10 0 0.05 -1.35 -0.15 -3.05z"/>
  <path d="M768 941.90 c0 -2.85 0.45 -4.40 1.30 -4.40 0.40 0 0.70 -0.50 0.70 -1.20 0 -2.20 0.50 -2.80 2.30 -2.80 l1.70 0 0 2.75 c0 1.50 -0.20 2.75 -0.50 2.75 -0.25 0 -0.50 0.35 -0.50 0.75 0 0.40 -0.40 1.50 -0.85 2.50 -0.70 1.50 -1.10 1.75 -2.50 1.75 -1.60 0 -1.65 -0.05 -1.65 -2.10z m3.80 -4.20 c0.50 -1.15 0.55 -1.65 0.15 -1.45 -0.60 0.40 -1.95 3.35 -1.95 4.35 0.05 0.80 0.75 -0.40 1.80 -2.90z"/>
  <path d="M293.10 916.75 c-2.85 -5.75 -3.85 -9.25 -2.60 -9.25 0.40 0 8 14.45 8 15.25 0 0.15 -0.50 0.25 -1.15 0.25 -0.95 0 -1.60 -1 -4.25 -6.25z"/>
  <path d="M295.55 915 c-2 -3.90 -3.55 -7.20 -3.40 -7.35 0.15 -0.10 0.65 0.45 1.10 1.30 0.40 0.85 1.15 1.55 1.65 1.55 1.15 0 3.60 4.90 3.60 7.20 0 0.95 0.25 1.80 0.55 1.90 0.30 0.10 0.45 0.70 0.35 1.35 -0.10 0.85 -1.10 -0.70 -3.85 -5.95z"/>
  <path d="M803.30 914.15 c-0.15 -1.90 -0.45 -4.60 -0.60 -6 l-0.35 -2.65 2 0 2 0 0.80 4.65 c1.05 5.75 1.05 7.35 0.15 7.35 -0.50 0 -0.90 -1 -1.30 -2.85 -0.80 -4.20 -1.05 -4.35 -0.70 -0.50 0.25 3.10 0.20 3.35 -0.70 3.35 -0.80 0 -1 -0.50 -1.30 -3.35z"/>
  <path d="M252.85 847.65 c-0.20 -0.15 -0.35 -1.40 -0.35 -2.75 0 -2.40 0 -2.40 1.70 -2.40 1.85 0 2.30 0.75 2.30 3.90 0 1.50 -0.10 1.60 -1.65 1.60 -0.95 0 -1.85 -0.15 -2 -0.35z"/>
  <path d="M456.05 823.15 c-0.05 -0.30 -0.70 -0.70 -1.55 -0.90 -1.90 -0.40 -2 -1.75 -0.10 -1.75 2.10 0 3.60 0.55 3.60 1.30 0 0.40 -0.30 0.70 -0.70 0.70 -0.40 0 -0.85 0.30 -0.95 0.65 -0.20 0.40 -0.30 0.40 -0.30 0z"/>
  <path d="M438.75 811.80 c-6.35 -2.60 -8.85 -4.05 -11.65 -6.65 -2.10 -1.95 -2.60 -2.75 -2.60 -4.05 0 -2.65 2.10 -2.20 8.90 1.95 3.20 1.90 7.45 4.30 9.45 5.30 3.45 1.70 3.65 1.90 3.65 3.50 0 1.60 -0.10 1.65 -1.85 1.65 -1.05 -0.05 -3.70 -0.80 -5.90 -1.70z m0 -2.90 c-0.55 -0.30 -2.05 -1.15 -3.35 -1.95 -1.35 -0.80 -2.40 -1.25 -2.40 -1 0 0.45 5.45 3.50 6.25 3.50 0.30 0 0.05 -0.25 -0.50 -0.55z"/>
  <path d="M575 805.80 c0 -1.70 0.15 -1.90 2.30 -2.80 1.25 -0.55 3.15 -1 4.25 -1 1.85 0 1.95 0.05 1.95 1.65 0 2.60 -0.80 3.20 -4.85 3.60 l-3.65 0.35 0 -1.80z"/>
  <path d="M587 800.85 c0 -1.60 0.10 -1.70 3.40 -2.75 1.85 -0.60 3.75 -1.10 4.25 -1.10 0.45 0 0.85 -0.20 0.85 -0.50 0 -0.25 0.90 -0.50 2 -0.50 1.95 0 2 0.05 2 1.75 0 1.50 -0.15 1.75 -1.20 1.75 -0.65 0 -1.30 0.20 -1.40 0.40 -0.40 0.95 -5.05 2.60 -7.40 2.60 -2.50 0 -2.50 0 -2.50 -1.65z"/>
  <path d="M227.10 778.65 c-0.90 -3.25 -1.60 -6.50 -1.60 -7.25 0 -0.80 -0.20 -1.40 -0.50 -1.40 -0.25 0 -0.50 -0.80 -0.50 -1.75 0 -2.90 1.20 -2.05 2.40 1.65 1 3.05 1.05 2.70 0.25 -1.75 -0.25 -1.40 -0.15 -1.65 0.70 -1.65 0.80 0 1.15 0.90 2.40 6.40 0.80 3.50 1.55 7.55 1.65 9 l0.20 2.60 -1.70 0 -1.65 0 -1.65 -5.85z"/>
  <path d="M476.75 756.75 c-1.10 -0.40 -2.40 -0.85 -2.85 -1.05 -0.60 -0.20 -0.90 -0.85 -0.90 -2 0 -1.60 0.10 -1.70 1.60 -1.70 0.90 0 3.25 0.50 5.25 1.10 3.60 1.05 3.65 1.10 3.65 2.75 0 1.65 0 1.65 -2.35 1.60 -1.35 0 -3.30 -0.35 -4.40 -0.70z"/>
  <path d="M787.85 752.65 c-0.60 -6.10 -0.45 -9.65 0.40 -9.65 0.40 0 0.75 0.35 0.75 0.75 0 0.40 0.25 0.75 0.50 0.75 0.30 0 0.50 -0.35 0.50 -0.75 0 -0.40 0.35 -0.75 0.75 -0.75 0.65 0 0.75 1.05 0.75 6.50 l0 6.50 -1.70 0 -1.65 0 -0.30 -3.35z"/>
  <path d="M789.60 740.40 l-0.50 -2.15 -0.10 2 c-0.10 1.25 -0.20 1.60 -0.35 0.90 -0.10 -0.65 -0.45 -1.15 -0.70 -1.15 -0.25 0 -0.45 -0.90 -0.45 -2 0 -1.95 0.05 -2 1.70 -2 1.55 0 1.70 0.15 2 1.90 0.50 3.10 0.35 4.60 -0.40 4.60 -0.45 0 -0.95 -0.85 -1.20 -2.10z"/>
  <path d="M132.15 611.15 c-7.10 -10.95 -8.15 -12.75 -8.15 -14.60 0 -1.45 0.15 -1.55 1.75 -1.55 1.50 0 1.95 0.35 3.65 2.65 1.05 1.40 2.25 3.15 2.65 3.85 0.40 0.65 1.20 1.75 1.85 2.45 0.60 0.70 1.10 1.55 1.10 1.90 0 0.30 0.20 0.65 0.45 0.75 0.20 0.10 1.70 1.95 3.25 4.15 2.45 3.50 2.80 4.30 2.80 6.35 l0 2.40 -1.95 0 -1.95 0 -5.45 -8.35z m7.70 5.65 c-0.15 -0.40 -1.35 -2.25 -2.70 -4.10 -3.50 -4.95 -4 -5.75 -5.45 -7.85 -0.70 -1.10 -1.40 -1.80 -1.55 -1.65 -0.35 0.35 8.90 14.30 9.50 14.30 0.25 0 0.35 -0.30 0.20 -0.70z"/>
  <path d="M232 588.55 c0 -2.30 2.25 -9.05 3.30 -9.85 0.40 -0.30 0.70 -1.20 0.75 -2 0 -0.80 0.95 -3.60 2.10 -6.20 2.10 -4.70 2.15 -4.75 4 -4.90 1.75 -0.15 1.85 -0.05 1.85 1.25 0 1.90 -4.10 12.15 -4.85 12.15 -0.35 0 -0.65 0.60 -0.65 1.40 0 0.75 -0.70 3.30 -1.60 5.70 -1.60 4.30 -1.70 4.40 -3.25 4.40 -1.60 0 -1.65 -0.10 -1.65 -1.95z"/>
  <path d="M250.40 533.65 c-0.95 -0.15 -1.40 -0.50 -1.40 -1.10 0 -0.75 0.40 -0.85 2.40 -0.80 2.80 0.10 3.60 -0.15 3.60 -1 0 -0.50 -1.35 -0.65 -5.50 -0.70 -3.25 0 -5.50 0.20 -5.50 0.45 0 0.30 0.50 0.50 1.15 0.50 1.90 0 3.35 0.60 3.35 1.30 0 0.50 -0.80 0.70 -3 0.70 -2.95 0 -3 0 -3 -1.40 0 -1.80 -1.80 -3.80 -2.95 -3.30 -0.45 0.20 -1.60 0.45 -2.55 0.55 -1.60 0.20 -2 0 -4.10 -2.25 -2.70 -2.85 -4.40 -7.50 -4.40 -11.90 l0 -2.70 1.65 0 c1.30 0 1.80 0.30 2.25 1.25 1.20 2.55 5 6.10 7.25 6.65 1.15 0.30 4.55 1.15 7.55 1.85 3 0.75 6.75 1.90 8.35 2.60 l2.95 1.30 0 2.30 c0 2 -0.25 2.60 -1.75 4.20 -1.80 1.90 -2.55 2.05 -6.35 1.50z"/>
  <path d="M297 529.20 c-2.90 -0.35 -6 -0.50 -6.85 -0.35 -0.90 0.15 -2.45 0.10 -3.45 -0.10 -1.80 -0.30 -1.80 -0.35 -1.55 -2.40 1.15 -7.95 2.40 -10.20 9.65 -17.40 3.15 -3.10 5.70 -5.75 5.70 -5.95 0 -0.60 -1.70 -1.85 -3 -2.25 -0.65 -0.20 -1.60 -0.90 -2.10 -1.55 -0.50 -0.60 -1.55 -1.20 -2.30 -1.30 -1.15 -0.15 -1.35 -0.40 -1.50 -1.95 -0.20 -2.15 -1.60 -3.70 -2.95 -3.20 -1.35 0.45 -15.45 17.85 -19.05 23.45 -1.70 2.65 -3.65 4.80 -4.35 4.80 -0.35 0 -1 0.45 -1.50 1 -1.30 1.45 -4.05 1.25 -7.95 -0.55 -1.80 -0.85 -6.15 -2.20 -9.65 -3.05 -9.85 -2.35 -8.55 -1.30 -14.50 -11.60 -4.35 -7.50 -4.40 -6 1.35 -27.75 1.40 -5.35 2.65 -9.90 2.80 -10.15 0.40 -0.60 3.10 -0.50 4.20 0.20 1.85 1.15 2.15 0 1.50 -5.25 -0.70 -5.35 -0.35 -6.35 2.20 -6.35 1.05 0 1.30 -0.25 1.30 -1.25 0 -1.20 3.15 -5.25 4.05 -5.25 0.20 0 1.05 -0.60 1.80 -1.30 6.95 -6.45 43.95 -26.75 62.90 -34.40 4.70 -1.90 10.35 -4.35 12.60 -5.40 3.85 -1.75 7.15 -2.45 7.15 -1.50 0 0.25 -0.80 0.85 -1.75 1.40 -2.10 1.10 -1.55 1.60 2.05 1.65 3.05 0 6.10 1.35 8.60 3.70 l1.60 1.55 0 -1.85 c0 -1.45 0.20 -1.85 0.95 -1.85 0.75 0 0.95 0.55 1.20 3.40 0.95 9.80 -0.70 14 -8.60 21.90 -1.95 2 -3.55 3.80 -3.55 4.10 0 0.25 0.30 0.75 0.70 1.05 0.50 0.45 1.20 0.10 3.05 -1.55 2.80 -2.45 8 -8.85 8.50 -10.45 0.30 -0.90 0.65 -1.05 2.35 -0.80 1.10 0.15 2.05 0.35 2.20 0.45 0.10 0.15 0.35 2.50 0.50 5.30 0.25 3.90 0.20 5.25 -0.35 5.90 -0.55 0.70 -0.55 0.85 0.20 1.25 1.05 0.60 1.20 3.95 0.15 3.95 -0.35 0 -0.85 -0.50 -1 -1.10 -0.30 -1.10 -0.35 -1.10 -1 -0.25 -0.35 0.45 -0.85 2 -1 3.40 -0.20 1.40 -0.75 3.65 -1.30 5 l-0.90 2.45 1.20 0 c0.85 0 1.20 0.30 1.20 1 0 0.55 -0.30 1 -0.70 1 -0.70 0 -2.30 1.80 -2.30 2.60 0 0.15 0.45 0.50 1 0.65 1.45 0.45 1.40 2.80 -0.05 2.60 -0.80 -0.05 -1.20 0.35 -1.75 2.05 -0.45 1.20 -0.70 2.25 -0.60 2.25 0.10 0.05 0.85 0.50 1.75 0.95 l1.60 0.80 -0.50 -1.30 c-0.35 -0.95 -0.35 -1.65 0.10 -2.45 1.10 -2.10 1.35 -1.65 2.35 4.35 0.80 4.40 2.65 5.90 3.75 3 0.50 -1.30 0.85 -1.50 2.40 -1.50 1 0 2.10 0.35 2.45 0.75 0.80 0.95 13.15 4.95 18.50 6 6.85 1.30 15.75 1.50 23.50 0.55 6.10 -0.75 7.15 -0.75 11 -0.05 7 1.25 13.55 1.45 20.75 0.55 11.70 -1.40 47.70 -8.70 59.45 -12.05 8.25 -2.35 10.30 -3.10 22.15 -8.05 4.15 -1.75 7.90 -3.20 8.35 -3.20 0.45 0 0.80 -0.20 0.80 -0.45 0 -0.20 1.20 -0.90 2.65 -1.45 1.40 -0.55 4.95 -2.05 7.85 -3.35 2.90 -1.25 9.75 -4.10 15.25 -6.35 9.85 -3.95 14.30 -6 17.75 -8.10 0.95 -0.65 4.25 -2.40 7.25 -4 8.20 -4.35 11.80 -7.20 12.80 -10.20 0.55 -1.60 0.45 -1.85 -0.60 -2.65 -0.65 -0.50 -1.65 -0.95 -2.20 -0.95 -0.60 0 -1.90 -0.90 -2.95 -1.95 -1.75 -1.80 -1.90 -2.15 -1.65 -4 0.30 -2.55 -0.55 -3.50 -2.45 -2.60 -2.30 1.05 -4.05 0.70 -5.40 -1.10 -1.65 -2.15 -1.85 -5.60 -0.35 -6.10 0.55 -0.15 1.25 -0.60 1.55 -1 0.80 -1 -0.05 -2.05 -1.90 -2.50 -0.95 -0.20 -2.85 -2 -5.85 -5.55 -5.45 -6.35 -6.25 -7.75 -6.25 -10.70 0 -3.05 -1.05 -4.50 -3.25 -4.50 -1.55 0 -1.80 -0.20 -2.75 -2.35 -2.85 -6.30 -5 -12.35 -5 -13.85 0 -1.95 -1.60 -1.45 13.50 -4.30 22.65 -4.30 24.20 -4.55 27.40 -4.20 1.70 0.15 3.10 0.50 3.10 0.70 0 0.20 0.85 0.95 1.90 1.60 l1.90 1.30 1.35 -1.20 c1.30 -1.10 1.85 -1.20 6.75 -1.20 2.95 0 8.85 -0.35 13.15 -0.85 7.75 -0.85 7.95 -0.85 15 0.25 3.95 0.60 10.30 1.30 14.10 1.55 l6.95 0.45 3.45 2.30 c3.35 2.25 3.50 2.45 6.15 7.95 1.50 3.05 3.55 8.30 4.55 11.60 3.55 11.65 6.75 24.45 6.75 26.80 0 1.35 -0.45 5.45 -1 9.25 -1.45 9.95 -1.80 11.20 -2.80 11.20 -0.45 0 -0.70 0.55 -0.70 1.50 0 1.75 -4.40 6.70 -9.15 10.30 -3.50 2.70 -2.90 2.70 -13.35 -0.40 -6.65 -1.95 -7.90 -2.55 -14.25 -6.50 -6.80 -4.20 -9.10 -5.40 -10.50 -5.40 -0.35 0 -1.35 0.60 -2.25 1.30 -1.35 1.15 -1.85 1.30 -3.90 1 -1.30 -0.15 -4.35 -0.95 -6.85 -1.75 -2.45 -0.80 -6.70 -2.05 -9.40 -2.80 l-4.90 -1.40 -1.10 1.10 c-1.35 1.30 -0.85 2.45 1.60 3.55 1.55 0.75 1.60 0.85 1.40 3.35 -0.25 3.75 0.20 4.05 8.75 5.35 7.05 1.05 7.15 1.10 7.90 2.60 1.60 3.25 6.50 8.10 13.30 13.20 1.35 1 1.70 1.60 1.70 3.05 0 1.80 -0.05 1.85 -3.85 3.45 -6.40 2.65 -13.45 4.85 -21.90 6.70 -4.40 0.95 -13.30 3 -19.75 4.50 -6.45 1.50 -16.35 3.65 -22 4.80 -14.45 2.95 -22.80 5.05 -34 8.50 -14.55 4.55 -22.15 6.50 -27.90 7.30 -8.25 1.10 -16.25 3.10 -25.35 6.30 -13.60 4.80 -18.95 5.85 -39.55 7.90 -5.75 0.55 -12.70 1.40 -15.45 1.80 -7 1.10 -25.80 5 -30 6.20 -1.90 0.60 -7.90 2.05 -13.25 3.30 -5.35 1.20 -12.40 3 -15.60 3.95 -3.25 0.95 -6.55 1.75 -7.40 1.75 -0.80 0 -1.50 0.20 -1.50 0.45 0 0.50 -3.85 1.55 -5.70 1.55 -0.80 0 -1.30 -0.30 -1.30 -0.70 0 -0.45 1.25 -1 3.40 -1.55 4.35 -1.15 5.20 -1.95 1.60 -1.50 -10.15 1.25 -22.05 3.05 -29.75 4.50 -4.95 0.90 -10.20 1.80 -11.60 2 -1.80 0.25 -2.65 0.60 -2.65 1.05 0 0.50 0.75 0.70 3 0.70 2.65 0 3 0.10 3 1 0 0.90 -0.30 1 -3.85 0.95 -2.15 -0.05 -6.25 -0.40 -9.15 -0.75z m-49.35 -71.20 c3.70 -3.50 5.65 -5.90 5.15 -6.35 -0.85 -0.85 -10.30 8.20 -10.30 9.85 0 1.35 0.15 1.25 5.15 -3.50z m276.05 2.30 c2.20 -1.80 1.35 -2.30 -1.65 -0.90 -1.90 0.90 -2.50 1.35 -2 1.65 1.10 0.70 2.10 0.50 3.65 -0.75z m-174.25 -23.65 c-0.20 -1.60 -0.40 -3.45 -0.40 -4.15 -0.05 -1.10 -0.15 -1.15 -0.60 -0.35 -0.50 0.80 -0.20 2.85 0.85 6.75 0.40 1.45 0.50 0.40 0.15 -2.25z m319.05 -12.45 c1.35 -4.65 1.20 -5 -0.55 -1.45 -0.95 1.90 -1.35 3.45 -1.20 4.20 0.40 1.60 0.60 1.25 1.75 -2.75z"/>
  <path d="M271.90 527.65 c-0.65 -0.15 -0.90 -0.75 -0.90 -2.10 0 -1.65 0.45 -2.40 3.80 -5.95 3.35 -3.65 4 -4.10 5.55 -4.10 l1.80 0 -0.40 3.15 c-0.20 1.70 -0.50 4.45 -0.65 6.10 l-0.35 3 -4 0.10 c-2.20 0 -4.40 -0.05 -4.85 -0.20z"/>
  <path d="M339 523.80 c0 -0.65 1.40 -1.30 2.90 -1.30 0.30 0 0.60 0.45 0.60 1 0 0.80 -0.35 1 -1.75 1 -1.15 0 -1.75 -0.25 -1.75 -0.70z"/>
  <path d="M376.50 520.25 c0 -1.60 0.15 -1.75 2.15 -2.25 1.15 -0.30 3.75 -1 5.75 -1.55 2 -0.50 4.15 -0.95 4.85 -0.95 1.75 0 1.60 1.35 -0.20 1.75 -0.80 0.15 -1.60 0.60 -1.75 1 -0.20 0.50 0.15 0.60 1.45 0.40 1.45 -0.25 1.65 -0.15 1.45 0.65 -0.20 0.80 -1.20 1.10 -5.85 1.85 -7.80 1.25 -7.85 1.20 -7.85 -0.90z"/>
  <path d="M443.50 509.80 c0 -1.65 0.10 -1.75 2.50 -2.25 3.15 -0.65 5.50 -0.70 6.50 -0.05 0.60 0.40 0.55 0.50 -0.35 0.50 -0.60 0 -1.20 0.20 -1.35 0.45 -0.35 0.55 1.10 1.15 1.75 0.75 0.25 -0.15 0.45 0.15 0.45 0.70 0 0.80 -0.50 1 -3.05 1.30 -1.70 0.15 -3.85 0.30 -4.75 0.30 -1.60 0 -1.70 -0.10 -1.70 -1.70z"/>
  <path d="M535 491.30 c0 -0.40 0.30 -0.85 0.65 -0.95 0.50 -0.20 0.50 -0.30 0 -0.30 -0.35 -0.05 -0.65 -0.50 -0.65 -1.05 0 -0.70 0.45 -1.05 1.90 -1.25 1 -0.20 2.50 -0.55 3.30 -0.80 0.80 -0.25 2.10 -0.45 2.85 -0.45 1.35 0 1.45 0.15 1.45 1.90 l0 1.90 -3.60 0.85 c-4.45 1.05 -5.90 1.10 -5.90 0.15z"/>
  <path d="M379.75 477 c-0.15 -0.25 -0.80 -0.50 -1.35 -0.50 -0.60 0 -2.50 -0.25 -4.25 -0.55 l-3.15 -0.55 0 -1.75 0 -1.80 6.35 0.35 c8.95 0.50 9.15 0.55 9.15 2.60 0 1.35 -0.20 1.70 -1 1.70 -0.55 0 -1 0.25 -1 0.50 0 0.30 -1 0.50 -2.20 0.50 -1.25 0 -2.40 -0.20 -2.55 -0.50z"/>
  <path d="M584.50 473.85 l0 -1.70 7.15 -1.65 c3.90 -0.95 8.40 -1.80 10 -1.90 l2.85 -0.20 0 1.70 c0 1.60 -0.10 1.70 -2.85 2.55 -4.55 1.30 -12.55 2.85 -14.95 2.85 -2.15 0 -2.20 -0.05 -2.20 -1.65z"/>
  <path d="M446.10 472.65 l0.15 -1.80 3.75 -0.90 c2.05 -0.50 4.50 -0.90 5.40 -0.95 0.85 0 1.60 -0.20 1.60 -0.50 0 -0.25 0.80 -0.50 1.75 -0.50 2.55 0 2.35 1.40 -0.25 1.80 -2.40 0.40 -2.15 1.20 0.40 1.25 1 0.05 1.45 0.15 1 0.30 -0.50 0.10 -0.90 0.50 -0.90 0.85 0 0.60 -8.70 2.35 -11.65 2.30 -1.30 0 -1.40 -0.10 -1.25 -1.85z"/>
  <path d="M499 461.95 c0 -0.30 0.70 -0.80 1.50 -1.10 1.95 -0.75 1.95 -1.75 0.05 -1.45 -1.25 0.15 -1.45 0.05 -1.25 -0.75 0.25 -0.95 3.65 -1.95 8.60 -2.50 l2.10 -0.25 0 1.75 c0 1.50 -0.20 1.80 -1.35 2.05 -2.20 0.55 -5.65 2 -5.65 2.45 0 0.20 -0.90 0.35 -2 0.35 -1.10 0 -2 -0.25 -2 -0.55z"/>
  <path d="M631.40 451.60 c-0.05 -0.20 -1.60 -1.45 -3.40 -2.80 -1.80 -1.30 -4.30 -3.40 -5.60 -4.65 -2 -1.85 -2.40 -2.50 -2.40 -4 l0 -1.80 3.10 0.35 c2.95 0.30 3.20 0.45 5.30 2.80 2.35 2.70 3.25 3.05 4.20 1.50 0.90 -1.40 4.40 -1.35 7.80 0.10 2.60 1.15 2.60 1.20 2.50 3.15 -0.15 1.85 -0.35 2.05 -3.40 3.85 -2.45 1.40 -3.85 1.85 -5.60 1.85 -1.25 0.05 -2.40 -0.10 -2.50 -0.35z"/>
  <path d="M355.35 440.90 c-0.15 -0.65 -0.65 -4.50 -1.10 -8.65 -0.45 -4.10 -1.40 -11.75 -2.05 -17 -0.70 -5.20 -1.80 -14 -2.45 -19.50 -1.35 -11.05 -2.30 -17.50 -3.80 -25 -0.50 -2.75 -0.95 -5.85 -0.95 -6.85 0 -1.80 0.05 -1.90 1.70 -1.90 l1.70 0 1.35 5 c1.55 5.55 2.60 7.05 3.90 5.75 0.70 -0.70 0.70 -1.05 0.05 -3.40 -2.25 -7.75 -9.55 -28.80 -12.70 -36.35 -2 -4.80 -3.75 -9.30 -3.90 -10 -0.15 -0.70 -0.50 -1.40 -0.75 -1.60 -0.30 -0.15 -0.60 -1.55 -0.75 -3.05 -0.20 -2.60 -0.15 -2.75 1.10 -3.05 0.70 -0.15 1.30 -0.50 1.30 -0.75 0 -0.25 -0.95 -1.65 -2.15 -3.15 -5.70 -7.05 -7.30 -9.80 -11.40 -19.65 -2.35 -5.70 -2.80 -7.85 -1.95 -9.45 0.50 -1 0.25 -1.60 -2.25 -5.35 -1.55 -2.30 -5.55 -9.70 -8.80 -16.45 -3.30 -6.75 -6.65 -13.50 -7.40 -15 -0.80 -1.50 -1.60 -3.25 -1.80 -3.90 -0.20 -0.65 -1.85 -4.35 -3.70 -8.25 -5.75 -12 -8.55 -19.05 -8.55 -21.35 l0 -2.15 5.40 0.35 c4.35 0.30 6.45 0.15 11.10 -0.70 6.05 -1.10 19.80 -4.30 31 -7.25 3.70 -0.95 11.70 -2.80 17.75 -4.05 21.60 -4.45 43.15 -10.55 59.50 -16.80 27.25 -10.40 34.75 -13.70 48.75 -21.45 1.25 -0.70 3.60 -1.55 5.25 -1.90 7.55 -1.65 25.10 -8.95 33.50 -13.95 3.20 -1.90 12.30 -8.45 14.10 -10.15 0.75 -0.70 1.60 -0.95 2.75 -0.85 1.55 0.15 1.65 0.25 1.80 2.30 0.10 1.55 0 2.10 -0.55 2.10 -0.40 0 -0.90 -0.60 -1.05 -1.30 -0.50 -1.95 -1.50 -0.75 -1.05 1.25 0.35 1.65 1.25 2.60 1.25 1.35 0 -1.60 1.45 -0.80 1.80 1 0.45 2.40 -0.05 30.35 -0.80 43.45 -0.40 6.80 -0.50 20.20 -0.35 38.25 0.25 29.30 0.20 28.85 3.15 48.50 1.15 7.75 1.40 11 1.40 19.75 l0.05 10.55 1.85 3.70 c2.25 4.70 2.60 6 3.90 15.25 1.40 10.20 3.25 19.35 5.30 25.95 0.95 3.05 1.85 6.95 2.05 8.70 0.30 2.90 0.20 3.20 -1.05 4.35 -0.70 0.65 -1.30 1.45 -1.30 1.70 0 0.55 2.80 2.75 4.15 3.20 1.20 0.45 1.10 3.15 -0.25 6.15 -2.35 5.40 -0.50 10.15 5.10 13.15 1 0.55 2.60 1.10 3.55 1.30 1.80 0.35 1.85 0.40 5.05 6.25 0.85 1.50 1.95 3.20 2.45 3.80 0.60 0.65 0.95 1.75 0.95 3.15 l0 2.10 -2.70 -0.10 c-2.50 -0.10 -3.05 0.10 -7.80 2.95 -3.10 1.85 -5.75 3.10 -6.60 3.10 -1.40 0 -1.90 -0.75 -0.75 -1.15 1.20 -0.45 -0.15 -1 -2.40 -0.95 -4.55 0.10 -8.60 1.20 -14.30 3.90 -3.25 1.50 -6.10 2.70 -6.35 2.70 -0.30 0 -2.80 0.75 -5.55 1.70 -2.75 0.95 -7.65 2.35 -10.90 3.05 -4.60 1.05 -7.10 2 -11.40 4.25 -8.15 4.20 -11.45 5.20 -17.75 5.30 -4.25 0.05 -6.60 0.40 -12.40 1.90 -3.95 1 -10.80 2.60 -15.25 3.60 -4.45 0.95 -9.35 2.15 -10.85 2.65 -1.50 0.55 -5.50 1.40 -8.85 2 -6.65 1.10 -17.20 3.50 -17.75 4 -0.20 0.15 0.75 0.20 2.10 0.15 2.20 -0.20 2.50 -0.10 2.50 0.80 0 0.90 -0.55 1.05 -5.60 1.55 -13.35 1.35 -18 1.55 -32.70 1.55 l-15.60 0 -0.25 -1.10z m154.45 -87.10 c0.15 -0.35 -0.10 -1.45 -0.50 -2.35 l-0.70 -1.70 -0.05 2.40 c-0.05 2.20 0.65 3.20 1.25 1.65z m-170.30 -31.85 c-1.65 -4.40 -2.35 -5.70 -1.80 -3.20 0.40 1.75 2.95 7.80 3.15 7.55 0.10 -0.10 -0.50 -2.05 -1.35 -4.35z m-34.25 -81.55 c-0.30 -1.75 -1.05 -2.80 -1.55 -2.30 -0.40 0.45 0.75 3.90 1.35 3.90 0.25 0 0.35 -0.75 0.20 -1.60z"/>
  <path d="M410 438.80 c0 -0.80 1.15 -1.10 5.65 -1.60 2.60 -0.25 2.85 -0.20 2.85 0.70 0 0.80 -0.45 1 -3.05 1.30 -4.55 0.45 -5.45 0.40 -5.45 -0.40z"/>
  <path d="M570.50 429.15 c0 -0.75 0.95 -3.25 2.05 -5.55 l2.10 -4.15 2 0.15 c1.70 0.10 2.25 0.45 3.20 1.85 0.65 0.95 1.15 2.40 1.15 3.25 0 1.45 -0.35 1.80 -3.50 3.70 -2.35 1.40 -4.10 2.10 -5.25 2.10 -1.55 0 -1.75 -0.15 -1.75 -1.35z"/>
  <path d="M469.50 426.90 c0 -0.75 7.95 -3.55 16.90 -5.95 l5.10 -1.35 0 1.10 c0 0.95 -0.40 1.25 -2.55 1.70 -1.40 0.35 -3.05 0.60 -3.70 0.60 -0.65 0 -1.25 0.15 -1.35 0.40 -0.20 0.45 -6.95 2.60 -8.25 2.60 -0.60 0 -1.15 0.25 -1.25 0.55 -0.10 0.30 -1.25 0.65 -2.55 0.80 -1.80 0.20 -2.35 0.10 -2.35 -0.45z"/>
  <path d="M678.50 417.90 c0.05 -0.90 0.35 -2.75 0.70 -4.15 0.60 -2.35 0.75 -2.50 2.50 -2.65 l1.80 -0.15 0 2.50 c0 1.40 -0.40 3.30 -0.85 4.30 -0.70 1.50 -1.10 1.75 -2.50 1.75 -1.55 0 -1.65 -0.10 -1.65 -1.60z"/>
  <path d="M507.50 414.75 c0 -0.40 0.25 -0.75 0.55 -0.75 0.30 0 1.25 -0.35 2.10 -0.75 3.25 -1.45 7.25 -2.90 11.75 -4.25 l4.60 -1.40 0 1.15 c0 1.15 -1.45 1.75 -4.30 1.75 -0.65 0 -1.20 0.20 -1.20 0.50 0 0.25 -0.90 0.65 -2 0.80 -1.10 0.20 -2 0.50 -2 0.75 0 0.25 -0.55 0.45 -1.25 0.45 -0.70 0 -1.25 0.20 -1.25 0.50 0 0.25 -0.80 0.60 -1.75 0.80 -0.95 0.15 -1.75 0.50 -1.75 0.75 0 0.25 -0.80 0.45 -1.75 0.45 -1.20 0 -1.75 -0.25 -1.75 -0.75z"/>
  <path d="M565.50 415 c0 -0.25 0.35 -0.65 0.85 -0.90 0.50 -0.30 0.70 -0.80 0.50 -1.30 -0.25 -0.60 0 -0.80 0.90 -0.80 1.10 0 1.25 0.20 1.25 1.75 0 1.65 -0.10 1.75 -1.75 1.75 -0.95 0 -1.75 -0.20 -1.75 -0.50z"/>
  <path d="M713.40 304.65 c-0.55 -0.15 -0.90 -0.70 -0.90 -1.40 0 -1.05 0.15 -1.15 2.15 -0.90 l2.10 0.30 -1.25 -1.35 -1.25 -1.35 2 0.15 c1.85 0.15 2 0.25 2.15 1.80 0.25 2.60 -1.60 3.65 -5 2.75z"/>
  <path d="M315.50 201.90 c0 -1.65 0 -1.65 7.15 -4.50 3.90 -1.55 10.70 -3.85 15.10 -5.15 4.40 -1.25 13.40 -3.95 20 -6 8.70 -2.70 14.40 -4.15 20.75 -5.25 12.35 -2.15 23.25 -4.35 30.15 -6.05 3.25 -0.80 6.70 -1.45 7.65 -1.45 1.60 0 1.70 0.10 1.70 1.75 0 1.65 -0.15 1.85 -2.75 3 -3.60 1.55 -12.70 4.50 -24.60 7.95 -12.75 3.70 -21.25 5.80 -34.65 8.55 -6.20 1.30 -15.95 3.60 -21.75 5.10 -11.35 3 -14 3.55 -16.85 3.60 -1.80 0.05 -1.90 -0.05 -1.90 -1.55z"/>
  <path d="M286 201.30 c0 -0.40 0.70 -0.85 1.50 -1.05 0.85 -0.20 1.50 -0.65 1.50 -1.05 0 -0.50 -0.30 -0.55 -1.30 -0.20 -1.70 0.65 -1.70 0.65 -1.70 -0.65 0 -1 0.50 -1.35 3.15 -2.25 4.15 -1.45 27.35 -6.10 30.40 -6.10 l2.45 0 0 1.75 c0 1.50 -0.20 1.75 -1.35 2.05 -0.80 0.15 -1.95 0.45 -2.65 0.70 -4.05 1.40 -25.55 6.50 -27.30 6.50 -0.65 0 -1.20 0.25 -1.20 0.50 0 0.30 -0.80 0.50 -1.75 0.50 -1.20 0 -1.75 -0.25 -1.75 -0.70z"/>
  <path d="M289 191.55 c0 -0.35 0.30 -0.70 0.70 -0.85 0.40 -0.15 0.85 -1.20 1.05 -2.35 0.15 -1.15 0.65 -3.30 1.05 -4.75 0.90 -3.20 0.55 -3.95 -1.15 -2.60 -1.70 1.30 -2.15 1.25 -2.15 -0.25 0 -0.90 0.25 -1.25 1 -1.25 0.55 0 1 -0.30 1 -0.60 0.05 -1.90 27.75 -16.60 44 -23.40 3.45 -1.40 7.15 -3 8.25 -3.50 1.10 -0.50 5.15 -2.15 9 -3.65 3.85 -1.55 7.70 -3.15 8.50 -3.55 0.85 -0.45 1.70 -0.80 1.95 -0.80 0.40 0 9.70 -3.75 24.05 -9.75 16.80 -7.05 32.25 -11.20 45.60 -12.25 6.85 -0.55 13.45 -1.55 27.80 -4.20 3.80 -0.70 8.45 -1.30 10.30 -1.30 1.85 0 5.80 -0.25 8.75 -0.55 6.10 -0.60 10.15 -0.15 16 1.90 1.95 0.65 6.30 1.60 9.65 2.15 3.35 0.50 7.15 1.40 8.40 1.95 2.05 0.90 2.25 1.15 2.25 2.80 0 1.55 -0.40 2.20 -3.30 4.90 -8.15 7.65 -15.35 11.45 -31.95 16.85 -12.05 3.90 -16.60 5.10 -30 7.65 -8.65 1.65 -12.15 2.20 -22 3.40 -2.45 0.30 -7.50 1.30 -11.25 2.25 -3.70 1 -12.35 3.20 -19.25 4.95 -11.35 2.85 -20.90 5.85 -39.50 12.40 -7.25 2.55 -34.45 8.60 -36.70 8.20 -0.75 -0.15 -1.65 0.05 -2.10 0.45 -0.45 0.40 -6.40 1.85 -13.25 3.25 -14.10 2.95 -16.70 3.30 -16.70 2.50z m193 -73.35 c0 -0.80 -0.80 -0.95 -1.25 -0.20 -0.40 0.65 0.20 1.60 0.80 1.25 0.25 -0.20 0.45 -0.65 0.45 -1.05z"/>
  <path d="M374.10 176.15 l0.15 -1.85 4.75 -1.40 c8.15 -2.40 26.05 -6.90 27.55 -6.90 0.80 0 1.45 -0.20 1.45 -0.45 0 -0.60 14.10 -3.95 19.25 -4.55 6.95 -0.75 6.75 -0.80 6.75 1.45 0 2.35 -0.15 2.40 -8.75 4.50 -10.30 2.55 -15.30 3.15 -16 2.05 -0.40 -0.65 -1.75 0.65 -1.75 1.65 0 0.40 -0.30 0.95 -0.60 1.25 -0.35 0.25 -5.95 1.55 -12.40 2.80 -16.15 3.15 -17.10 3.30 -18.95 3.30 -1.55 0 -1.60 -0.05 -1.45 -1.85z"/>
  <path d="M342 146.10 l0 -2.05 6.15 -3 c3.40 -1.70 6.55 -3.05 7 -3.05 0.45 0 0.85 -0.20 0.85 -0.50 0 -0.25 0.90 -0.50 2 -0.50 2.55 0 2.55 0.65 0 1.80 -1.50 0.75 -1.85 1.15 -1.50 1.65 0.35 0.60 0.65 0.65 1.70 0.15 1.25 -0.55 1.30 -0.50 1.30 0.90 0 1.10 -0.25 1.50 -0.85 1.50 -0.50 0 -3.45 1.05 -6.60 2.30 -3.15 1.30 -6.70 2.45 -7.90 2.60 l-2.15 0.25 0 -2.05z"/>
  <path d="M332 145.15 c0 -0.25 0.70 -0.85 1.50 -1.40 0.80 -0.55 1.50 -1.15 1.50 -1.35 0 -0.20 0.70 -1.15 1.60 -2.15 2.40 -2.75 5.70 -4.20 11.55 -5 2.05 -0.25 2.35 -0.20 2.35 0.60 0 0.65 -1.30 1.60 -4.35 3.20 -8.85 4.60 -9.90 5.20 -10.30 5.85 -0.40 0.65 -3.85 0.85 -3.85 0.25z"/>
  <path d="M505.65 116.95 c-1.45 -0.40 -1.65 -0.70 -1.65 -2.20 l0 -1.75 2.75 0 c2.10 0 2.75 0.15 2.75 0.75 0 0.40 -0.35 0.75 -0.75 0.75 -1.35 0 -0.80 0.90 0.75 1.25 0.85 0.20 1.50 0.65 1.50 1.05 0 0.80 -2.75 0.90 -5.35 0.15z"/>
  <path d="M483 110.75 c0 -1.25 0.05 -1.25 4 -1.25 3.60 0 4 0.10 4 0.95 0 1.05 -1.75 1.55 -5.55 1.55 -2.30 0 -2.45 -0.10 -2.45 -1.25z"/>
 </g>
 <g fill="#000000">
  <path d="M414.25 1224.20 c-4.75 -0.85 -9 -2.15 -13.60 -4.10 -1.85 -0.80 -4.10 -1.45 -4.95 -1.50 -3.50 -0.10 -12.65 -5.45 -16.30 -9.55 -2.95 -3.40 -5.45 -7.20 -8.10 -12.40 -1.25 -2.55 -3.40 -6.15 -4.75 -8 -4.75 -6.65 -7.55 -17.70 -10.05 -39.40 -1.25 -11 -1.30 -23.90 -0.20 -37.10 1.15 -14.35 0.55 -23.50 -2.80 -40.90 -1.05 -5.50 -2.30 -12.80 -2.75 -16.25 -1.20 -9.10 -3.05 -18.85 -4.50 -23.45 -0.70 -2.20 -3.15 -8.25 -5.45 -13.40 -2.25 -5.15 -4.40 -10.25 -4.75 -11.30 -0.35 -1.05 -0.75 -1.85 -0.85 -1.70 -0.10 0.10 -0.65 3.90 -1.20 8.40 -1.40 11.50 -4 29.80 -4.30 30.60 -0.30 0.90 -2.90 2.35 -4.05 2.35 -0.90 0 -1.10 0.70 -1.90 7.40 -1.85 15.25 -2.60 19.65 -3.60 20.65 -0.85 0.85 -3.25 1.60 -7.50 2.30 -1.35 0.20 -1.90 0 -3.15 -1.25 -1.20 -1.25 -1.50 -1.95 -1.50 -3.80 0 -2.10 -0.40 -4.10 -2.30 -12.30 -1.85 -7.65 -6.85 -23.30 -7.75 -24 -1.20 -0.95 -3.10 -5.40 -4.10 -9.50 -0.75 -2.95 -1.35 -9.80 -2.15 -24.50 -0.15 -2.90 -0.05 -9.85 0.25 -15.50 1.35 -23.35 1.40 -21.05 -0.90 -33 -3 -15.35 -2.55 -14.25 -14.95 -39.75 -3.85 -7.95 -8.25 -17.55 -9.75 -21.25 -1.55 -3.70 -4.75 -11.45 -7.10 -17.25 -2.40 -5.75 -6.50 -14.65 -9.15 -19.75 -9.25 -17.70 -15.60 -31.30 -18.55 -39.65 -2.10 -6 -13.15 -44.75 -15.60 -54.60 -3.45 -14.20 -6.40 -32.90 -7.40 -46.75 -0.40 -5.75 -0.60 -6.70 -2.75 -12 -3 -7.40 -2.95 -9.30 0.10 -10.95 0.85 -0.45 1.35 -0.45 1.85 -0.05 0.85 0.70 1.10 0.25 1.55 -2.90 0.35 -2.60 -0.45 -9.75 -1.35 -12.10 -0.65 -1.65 -1.90 -2.40 -6.05 -3.55 -7.10 -1.95 -14.60 -6.60 -29.20 -18.05 -3.10 -2.40 -5.85 -4.40 -6.10 -4.40 -0.25 0 -2.05 -1.30 -4 -2.85 -1.95 -1.60 -5.40 -4.25 -7.70 -5.90 -3.60 -2.60 -4.40 -3 -6.05 -2.85 -4.05 0.40 -8.65 -4.65 -20.05 -21.85 -8.20 -12.30 -13.10 -20.70 -16.15 -27.55 -1.15 -2.60 -4.65 -10.50 -7.80 -17.50 -3.15 -7 -6.20 -14.10 -6.85 -15.75 -5.85 -15.75 -8.35 -38.20 -4.95 -44.95 1.20 -2.50 2.40 -3.15 4.90 -2.65 1.40 0.30 1.45 0.20 1.75 -2.05 1.15 -8.55 3.90 -20.45 5.60 -24.10 0.75 -1.50 1.60 -4.30 2 -6.25 0.90 -4.50 3.30 -9.50 7.05 -14.55 2.85 -3.80 14.90 -16.25 27.70 -28.60 5.20 -5 6 -5.60 7.60 -5.60 1 0 1.95 0.25 2.10 0.50 0.60 0.95 1.50 0.50 4.25 -2.10 3 -2.80 9.10 -6.85 17.75 -11.90 3.05 -1.75 8.10 -4.85 11.25 -6.90 3.15 -2.05 6.50 -4.05 7.45 -4.45 2.25 -0.95 4.30 -0.40 5.80 1.55 1.05 1.35 1.50 1.55 2.90 1.40 1.40 -0.15 1.90 0.05 2.80 1.20 0.70 0.90 1.05 1.95 1 2.95 -0.10 1.10 0.20 1.90 1.20 2.85 0.85 0.85 1.35 1.90 1.35 2.75 0 2.45 -2.10 5.90 -4.75 7.90 -4.80 3.60 -5.70 4.70 -5.40 6.50 0.20 1.35 0.05 1.85 -0.90 2.70 -5.65 4.85 -6.20 5.60 -8.95 12.55 -2.65 6.75 -2.85 7.90 -2.25 10.80 0.30 1.30 0.05 1.85 -1.35 3.45 -1.75 2.05 -1.80 2.45 -1.30 9.75 0.15 2.05 0 2.30 -1.45 3.25 -0.90 0.55 -1.80 1.55 -2 2.25 -0.20 0.70 -0.35 11.05 -0.35 23 -0.05 20.80 0 22.05 1.15 28.65 1.05 5.95 1.10 7.15 0.55 8.80 -0.55 1.70 -0.50 2.15 0.45 4.35 1.80 4.05 11.50 21.25 13.45 23.90 1.05 1.35 3.45 4.60 5.40 7.25 6.90 9.25 16.10 18.55 18.40 18.55 0.35 0 1 -1.35 1.50 -3.05 0.45 -1.65 1.60 -5 2.55 -7.40 1.35 -3.35 2.05 -6.45 2.95 -12.65 1.70 -11.25 3.25 -17.55 6.70 -26.70 l1.50 -4 -2.35 -1.30 c-3.30 -1.85 -6.85 -5.10 -8.25 -7.55 -1.45 -2.50 -2.35 -6.10 -4.30 -17.75 -1.60 -9.10 -1.85 -13.90 -0.90 -17.60 0.30 -1.25 0.50 -4.55 0.45 -7.35 -0.10 -6.20 0.80 -10.30 3.45 -16.05 3.65 -7.80 9.90 -14.90 26.05 -29.60 10.35 -9.45 14.45 -12.65 21.35 -16.65 3.55 -2.10 8.15 -3.55 9.55 -3.10 0.55 0.15 1.95 -0.15 3.15 -0.70 3.80 -1.75 7.40 -3.10 20.65 -7.55 7.15 -2.40 15.95 -5.75 19.60 -7.40 7.30 -3.40 15.80 -6.20 18.75 -6.30 l1.95 -0.05 -0.30 -3 c-0.20 -1.65 -0.95 -8.20 -1.75 -14.50 -0.80 -6.35 -1.35 -12.30 -1.20 -13.25 0.30 -1.75 -3.40 -20.20 -6.80 -34.25 -3.15 -13 -9.20 -29.65 -12.45 -34.50 -0.60 -0.80 -1.05 -1.90 -1.05 -2.35 0 -1.20 -6.80 -17 -10.40 -24.15 -1.65 -3.30 -5.15 -9.80 -7.75 -14.50 -4.20 -7.50 -5.40 -9.20 -10.25 -14.50 -3 -3.30 -7.10 -8 -9.10 -10.50 -2 -2.45 -4.40 -5.20 -5.30 -6.10 -1.95 -1.85 -2.20 -3.65 -0.70 -5.15 1.60 -1.60 3.45 -1.25 5.85 1.10 1.20 1.15 2.15 1.85 2.15 1.60 0 -0.30 -1.40 -2.90 -3.10 -5.75 -3.45 -5.65 -2.95 -5.30 -9 -6.15 -3.25 -0.50 -5.10 -2.40 -6.40 -6.65 -1.70 -5.50 -1.05 -9.65 2 -12.40 0.60 -0.55 1.95 -2.25 3 -3.75 1.05 -1.50 4 -4.70 6.55 -7 11.15 -10.15 11.90 -10.65 27.45 -19 14.55 -7.80 27.30 -15.25 30.50 -17.75 2.50 -2 15.70 -8.70 22 -11.10 14.25 -5.60 22.80 -8 41.25 -11.70 10.10 -2.05 14.05 -2.60 20.50 -2.95 4.80 -0.25 10.65 -0.95 14.50 -1.70 3.60 -0.65 8.40 -1.35 10.75 -1.55 5.45 -0.40 16.45 -1.65 20 -2.25 3 -0.55 15 -1.90 19.75 -2.25 2.10 -0.20 2.70 -0.10 2 0.20 -0.85 0.40 -0.75 0.50 0.65 0.50 0.85 0.05 1.60 -0.20 1.60 -0.50 0 -0.25 0.40 -0.45 0.90 -0.40 0.45 0.10 1.55 0 2.35 -0.20 0.85 -0.20 5.55 -0.70 10.45 -1.10 10.95 -1 13.15 -0.65 15.25 2.25 0.70 1 1.75 2.85 2.30 4.05 0.50 1.20 0.95 2.25 1 2.30 0.05 0.10 1 -0.25 2.20 -0.70 2 -0.80 2.15 -0.80 3.55 0.30 1.20 0.85 1.70 0.95 2.45 0.55 1.65 -0.85 3.05 -0.55 4.40 0.85 0.70 0.80 1.60 1.35 2 1.25 0.40 -0.10 1.25 0.20 1.95 0.65 1.60 1.05 1.55 2.50 -0.30 10.55 -1.75 7.60 -1.80 8.55 -0.55 8.95 0.50 0.15 1.25 1 1.60 1.85 1.20 2.90 0.65 9.05 -2.20 25.65 -6.75 38.60 -6.50 36.30 -5.35 53 1.95 26.95 2.10 32.30 1.75 47.30 -0.20 8.10 -0.40 17.05 -0.40 19.95 0 6.25 1.60 15.90 3.65 22 1.60 4.75 2.55 9.35 3.75 18.25 1.85 13.75 5.05 26.25 6.70 26.25 0.25 0 2.80 -0.45 5.65 -1 10.15 -1.90 11.80 -2.10 24.40 -2.50 7 -0.25 14.55 -0.80 16.75 -1.15 14.35 -2.55 18.60 -3 27.75 -3 9.75 -0.05 13.70 0.45 23.35 2.90 2.70 0.70 5.90 1.40 7.15 1.55 12.65 1.55 15.75 3.10 23.70 11.95 5.10 5.70 6.50 8.35 7.80 14.75 0.50 2.50 1.25 5.60 1.70 6.90 0.40 1.30 1 4.60 1.30 7.35 0.30 2.75 1.35 8.20 2.35 12.15 1.95 8 2.05 11.85 0.40 15.30 -1.30 2.70 -8.80 13.85 -12 17.85 -1.45 1.80 -4.45 4.85 -6.65 6.75 -2.20 1.90 -4.05 3.55 -4.05 3.70 -0.05 0.15 2.15 1.25 4.85 2.45 7.30 3.30 13.90 6.90 18.10 9.85 3.60 2.50 12.25 10.90 13.40 12.95 0.30 0.55 0.60 0.90 0.70 0.75 1.40 -1.75 13.90 -20.35 15.80 -23.55 5.10 -8.50 5.60 -10.05 5.90 -18.35 0.35 -7.95 -0.25 -14.15 -1.45 -16.40 -1.80 -3.25 -1.85 -3.70 -1.15 -5.45 0.50 -1.15 1.30 -1.95 2.45 -2.40 1.30 -0.55 1.80 -1.15 2.05 -2.35 0.60 -3.15 0.30 -7.35 -0.90 -12 -0.70 -2.60 -1.80 -8.90 -2.50 -14 -0.95 -6.70 -1.85 -10.95 -3.30 -15.50 -1.05 -3.45 -2.45 -7.90 -3 -9.85 -1.25 -4.30 -2.25 -5.60 -11.10 -13.80 -6 -5.60 -6.40 -6.05 -6.40 -7.80 0 -1.25 0.35 -2.20 1 -2.80 0.55 -0.50 1 -1.20 1 -1.55 0 -0.35 -2.15 -3.20 -4.75 -6.30 -2.60 -3.10 -5.20 -6.60 -5.80 -7.80 -0.80 -1.60 -1.65 -2.45 -3.25 -3.20 -2.85 -1.40 -3.60 -3.15 -2.45 -5.60 0.85 -1.75 1.45 -2.10 4.15 -2.40 1.10 -0.15 1 -0.40 -1.75 -4.40 -4.40 -6.40 -8 -9.75 -14.30 -13.20 -2.95 -1.60 -5.60 -3.35 -5.85 -3.85 -0.80 -1.45 -0.55 -3.40 0.50 -4.45 0.55 -0.55 1 -1.60 1 -2.30 0 -0.75 0.60 -1.90 1.50 -2.80 1.40 -1.35 1.75 -1.50 3.65 -1.20 1.15 0.20 2.70 0.75 3.40 1.30 0.75 0.50 4.90 2.60 9.25 4.65 14.40 6.70 13.75 6.45 16.20 5.90 2.60 -0.60 3.10 -0.35 6.40 2.80 2.50 2.45 4 3.45 12.95 8.70 5.95 3.45 8.45 5.65 8.90 7.75 0.55 2.50 1 2.95 3.05 3 2.70 0.05 3.85 0.75 8.45 5.15 2.25 2.10 6.80 6.30 10.20 9.30 5.65 5.05 12.10 11.75 13.65 14.25 0.40 0.60 1.20 1 2.05 1 0.80 0 1.85 0.20 2.35 0.50 1 0.55 4.70 9.60 7.75 19 2.35 7.30 6.25 22.35 6.25 24.10 0 1.65 -2.10 3.40 -4.10 3.40 -2.65 0 -3.50 -1.55 -5.85 -10.75 -3.20 -12.75 -6.95 -23.65 -8.40 -24.60 -0.65 -0.45 -1.30 -0.65 -1.50 -0.50 -0.60 0.60 6.10 24.85 9.15 33.15 4.10 11.25 6.25 18.15 6.55 21.10 0.25 2.80 0.20 3.25 -0.85 4.35 -1.15 1.25 -3 1.60 -4.75 0.95 -1.05 -0.45 -2.05 -2.45 -2.50 -5.20 -0.20 -1.25 -2.25 -7.60 -4.60 -14.15 -3.80 -10.90 -7.65 -23.30 -8.40 -27.45 -0.25 -1.30 -0.70 -1.80 -2.25 -2.45 -1.80 -0.80 -2 -1.10 -3 -4.50 -2 -6.65 -8.60 -18.50 -15.15 -27.20 -5.40 -7.10 -7.80 -9.55 -10.10 -10.20 -3.10 -0.90 -17.70 -3.30 -18 -2.95 -0.15 0.15 0.05 1.15 0.45 2.20 0.40 1.10 1.35 3.90 2.05 6.30 0.70 2.35 1.75 4.90 2.30 5.60 0.55 0.70 1.55 2.55 2.25 4.15 0.70 1.60 1.65 3.30 2.10 3.80 0.50 0.55 0.95 2.25 1.10 4.25 0.40 3.85 2.50 9.10 4.60 11.35 0.75 0.85 1.40 1.90 1.40 2.30 0 0.40 0.80 1.50 1.85 2.45 2.70 2.55 3.60 5.15 5.70 16.55 2.70 14.65 3.15 19.65 2.75 32.35 -0.80 27.65 -1.10 30.55 -4.25 39.15 -0.55 1.50 -1.45 5.15 -2.05 8.10 -1.80 9.35 -3.70 13.30 -7.95 16.45 -1.70 1.30 -2.85 2.70 -3.85 4.75 -0.80 1.60 -3.10 4.80 -5.20 7.10 -2.05 2.30 -4.95 5.50 -6.35 7.15 -1.45 1.60 -2.65 3.05 -2.65 3.30 0 1.60 12.05 24.20 22.65 42.35 l5.25 9 1.95 -0.15 c3.35 -0.30 3.90 0.60 6.70 10.40 2.30 7.95 2.95 9.50 6.85 16.50 8.15 14.65 13.60 26.95 18.05 40.60 2.65 8.15 2.75 9.30 0.85 10.85 -0.45 0.35 -0.80 1.05 -0.80 1.50 0 0.45 2.20 6.25 4.85 12.90 l4.85 12.05 1.20 -0.95 c1.65 -1.25 3.25 -1.20 4.85 0.20 l1.30 1.10 0.20 9.50 c0.20 9.35 0.65 13.05 2.65 21.75 0.55 2.35 1.45 6.95 2.05 10.25 0.55 3.30 1.65 8.95 2.50 12.50 0.85 3.60 2.55 12.35 3.80 19.50 1.25 7.15 3.30 18.30 4.60 24.75 l2.30 11.75 0.35 16.25 c0.25 9.85 0.20 17.35 -0.10 19 -1.15 6.65 -1.15 6.40 0.25 7.05 1.95 0.90 2.50 2.45 2.25 6.30 -0.50 6.30 -2.90 20.85 -4.75 28.40 -1.75 7.15 -2.55 14.20 -2.60 23.15 -0.05 2.55 -0.05 2.60 1.45 2.60 1.70 0 3.35 1.40 3.70 3.10 2.20 9.95 3.25 13.40 6.30 20.40 6.70 15.30 9.75 24.15 9.30 26.80 -0.20 0.90 -0.60 1.70 -0.90 1.70 -0.65 0 -0.25 3.70 1.35 11.75 2 10 2.85 21.70 1.75 23.75 -0.30 0.60 -0.30 2.65 0.05 6.10 0.25 2.80 0.70 12.60 0.95 21.65 0.50 18.05 0.05 14.85 5 37.75 2.50 11.70 2.15 14.65 -1.90 16.35 -1 0.40 -2.35 1.35 -2.90 2.05 -1.45 1.75 -4.95 1.90 -6.05 0.25 -0.60 -0.90 -0.95 -1 -2 -0.60 -1.85 0.70 -4.35 -0.25 -5.15 -1.95 -0.40 -0.80 -0.70 -3.60 -0.75 -7.10 -0.15 -8.45 -0.95 -12.25 -4.35 -20.25 -4.40 -10.45 -7.60 -15.65 -15.40 -25 -6.95 -8.40 -7.70 -9.90 -9.30 -19.65 -0.50 -2.80 -1.05 -4.95 -1.25 -4.75 -0.80 0.80 -3 9.50 -4.20 16.60 -0.65 4 -1.70 9.45 -2.25 12.05 -0.95 4.55 -1 6.60 -1 44.25 0 22.05 0.25 41.55 0.50 44.10 0.55 5 2.55 15.40 3.75 19.35 1.20 3.90 1 5.40 -0.90 7.10 l-1.65 1.45 0.60 4.75 c0.35 2.60 0.95 6.45 1.35 8.50 1.85 9.25 2.05 11.95 2.05 26.25 0.05 21.20 -0.45 23.35 -8.55 38.75 -4.10 7.75 -5.20 9.65 -6.85 11.40 -1.80 1.90 -7.10 4.10 -14.40 5.85 -4.20 1 -5.40 1.15 -6.65 0.70 -1.20 -0.45 -2.15 -0.40 -4.30 0.20 -3.70 1.10 -11.10 2.35 -13.75 2.35 -1.60 0 -2.50 0.30 -3.45 1.20 -1.15 1.10 -1.90 1.25 -7.60 1.55 -3.45 0.20 -10.45 0.20 -15.60 0 -8.10 -0.30 -9.70 -0.50 -12.55 -1.60 -1.80 -0.65 -5.05 -1.85 -7.25 -2.70 -2.20 -0.80 -5.35 -2.35 -6.95 -3.50 -2.40 -1.60 -3.50 -2.05 -5.60 -2.15 -3 -0.20 -4.55 -1 -6.40 -3.40 -1.90 -2.55 -8.10 -15.25 -9.25 -19.10 -1.20 -3.85 -2.55 -12.10 -2.55 -15.35 0 -1.95 0 -2 -1.10 -1.25 -0.60 0.45 -1.65 0.80 -2.30 0.80 -1.45 0 -4.10 -2.55 -4.10 -3.95 0 -1.10 -4.95 -14.50 -6.35 -17.25 -1.10 -2.15 -6.35 -8.80 -10.90 -13.85 -2.50 -2.75 -4.10 -5 -4.65 -6.60 -0.75 -2.10 -1.25 -2.65 -4.25 -4.45 l-3.40 -2.05 -7.30 0.35 c-18.95 0.85 -34.20 3.95 -46.30 9.40 -4.95 2.20 -7 2.25 -7.95 0.10 -0.30 -0.65 -0.85 -1.20 -1.20 -1.20 -0.85 0 -8.55 3.30 -10.50 4.55 -0.85 0.50 -2.35 0.95 -3.30 0.95 -2.40 0 -6.95 3.30 -8.35 6.05 l-1.10 2.10 1.55 -1.35 c2 -1.65 4.15 -1.70 5.75 -0.05 1.60 1.55 1.70 4.20 0.20 5.55 -2 1.80 -5.45 7.15 -5.95 9.25 -0.30 1.20 -0.75 8.05 -1 15.20 -1 26.50 -1.80 34.05 -4.25 40.10 -0.50 1.25 -1.95 3.15 -3.50 4.55 -2.80 2.60 -12.10 7.60 -20.50 11.10 -2.75 1.10 -5.45 2.50 -6 3 -1.50 1.40 -6.95 3.15 -18.50 5.95 -10.45 2.55 -13.55 3.15 -21 4.05 -3.40 0.40 -5.55 1.05 -8.75 2.50 -8.15 3.75 -15 4.70 -23.25 3.20z m3.40 -13.70 c1.25 -1.80 3.15 -2.10 5.45 -0.95 2.90 1.50 5.85 1 16.40 -2.80 10.70 -3.85 14.25 -4.85 23.25 -6.50 15.70 -2.85 17.75 -3.35 19.50 -4.75 0.95 -0.75 2.70 -1.50 3.85 -1.70 1.20 -0.15 3.35 -0.80 4.75 -1.35 2.30 -0.90 2.70 -1.30 3.10 -2.90 2.85 -10.80 4.10 -16.55 3.90 -18.05 -0.15 -0.95 -0.70 -3.90 -1.30 -6.50 -0.85 -3.65 -1.15 -7.15 -1.40 -15.10 -0.30 -10.90 0 -13.05 1.85 -13.65 0.70 -0.25 1 -1 1.20 -3.15 1.30 -13.35 1.40 -13.65 6.60 -19.10 1.95 -2.05 3.90 -4.40 4.35 -5.25 2 -3.85 5.20 -5.90 7.35 -4.75 0.90 0.50 1.60 0.25 4.90 -1.65 4.60 -2.60 11.95 -5.80 14.30 -6.20 0.90 -0.15 2.15 0 2.80 0.35 0.95 0.50 1.75 0.25 6.45 -2.15 8.70 -4.50 14.25 -6.35 20.75 -6.85 8.05 -0.70 33.50 -0.65 35.80 0.05 1.40 0.45 2.35 0.45 3.45 0.05 1.15 -0.40 1.95 -0.40 2.95 0 0.75 0.30 3.40 0.50 5.90 0.45 4.20 -0.10 4.70 0 6 1.10 1.20 1 2.15 1.25 5.30 1.40 4.35 0.25 5.65 1 6.20 3.75 0.20 1.20 0 1.85 -0.90 2.95 -1.10 1.30 -1.45 1.40 -4.60 1.30 l-3.45 -0.05 0.75 1.10 c0.60 0.85 1.35 1.20 3.05 1.30 2.45 0.15 3.45 0.95 4.20 3.35 0.35 1.05 0.90 1.60 1.80 1.75 0.70 0.15 1.85 0.75 2.60 1.40 3.10 2.70 11 16.85 13.40 24 0.65 1.85 1.70 4.30 2.35 5.35 1.65 2.70 6.70 7.25 15.80 14.10 4.95 3.75 6.80 5.85 8.85 9.95 1.20 2.50 1.80 3.20 2.65 3.20 1.45 0 3.20 2.25 3.20 4.10 0 0.85 -0.50 1.95 -1.25 2.70 l-1.25 1.25 1.15 0.45 c2.05 0.80 16.35 4.05 20.50 4.60 5.95 0.80 26.90 0.80 30.35 0 3.95 -0.95 7.10 -2.10 8.45 -3.20 0.65 -0.50 1.80 -0.90 2.55 -0.90 1.70 0 4 1.75 4 3.05 0 0.50 0.25 0.95 0.50 0.95 0.90 0 6.70 -3.10 7.40 -3.95 1.55 -1.95 2.70 -4.90 3.35 -8.45 1.80 -10.30 3.85 -17.25 5.45 -18.85 0.95 -1 1.05 -4.60 0.30 -13.15 -0.30 -3.20 -0.75 -13.50 -1 -22.85 -0.30 -10.85 -0.75 -18.80 -1.25 -21.95 -0.60 -3.75 -0.65 -5.30 -0.25 -6.60 0.75 -2.25 0.15 -9.35 -1.25 -15.20 -4.85 -19.75 -6.55 -37.95 -6.45 -70 0.05 -13.25 0.20 -16.85 0.85 -19.60 l0.85 -3.35 -1.25 -1.25 c-1.55 -1.55 -1.55 -2.35 0 -8.30 0.70 -2.60 1.25 -5.30 1.25 -6 0 -2.45 1.55 -7.25 3.05 -9.60 1.30 -2.05 1.80 -3.85 3.45 -13 1.05 -5.85 2.15 -12.65 2.50 -15.10 0.90 -6.55 3 -8.20 7.40 -5.80 1 0.55 2.80 1.25 3.95 1.50 1.50 0.35 2.35 0.95 3.10 2.15 1.75 2.80 2.70 4 5.15 6.90 1.35 1.55 2.75 3.70 3.20 4.75 0.45 1.10 1.80 3.55 2.95 5.50 3.05 5 8.40 15.80 10.95 22.10 2.40 5.90 6.85 19.40 7.85 23.80 0.60 2.65 0.55 2.90 -0.50 4.30 l-1.10 1.50 1.85 3.35 c1.05 1.80 2.50 5.10 3.25 7.35 0.80 2.20 1.45 3.65 1.45 3.20 0 -1.65 -2.60 -15 -6.05 -30.65 -1.95 -8.80 -4.25 -20.15 -5.20 -25.25 -2.15 -11.65 -4.80 -32.60 -4.90 -38.75 -0.10 -4.35 0 -4.75 1.15 -6 1.10 -1.15 1.55 -1.30 3.30 -1.05 l2.05 0.25 -1.05 -3.60 c-0.55 -2 -1.25 -3.95 -1.55 -4.35 -0.45 -0.70 -1.15 -3.80 -2.20 -9.75 -0.80 -4.45 -4.10 -11.60 -8.45 -18.10 -1.70 -2.55 -1.70 -2.70 -1.65 -7.55 0.10 -4.15 -0.10 -5.25 -0.90 -6.65 -1 -1.80 -1 -2.55 0.45 -9.45 0.25 -1.25 0.60 -3.35 0.80 -4.65 0.30 -2.35 0.30 -2.40 -0.65 -1.80 -1.25 0.75 -3.35 0.25 -4.70 -1.10 -1.20 -1.20 -1.20 -0.50 0.30 -11.45 0.55 -3.65 0.85 -9.95 0.90 -17.25 0.10 -11.25 0.05 -11.55 -1 -12.95 -1.10 -1.35 -1.15 -1.90 -1.15 -9.25 0 -4.30 -0.25 -11.30 -0.50 -15.55 -1 -16.70 -2.05 -31.45 -2.50 -35.50 -0.75 -6.50 -0.65 -9.75 0.30 -10.55 0.75 -0.60 0.80 -1.50 0.50 -6.70 -0.40 -7.55 -1.65 -21.40 -2.35 -26 -0.25 -1.90 -1.80 -7.55 -3.40 -12.50 -1.60 -4.95 -3.65 -11.50 -4.60 -14.60 -0.90 -3.10 -1.75 -5.55 -1.85 -5.45 -0.10 0.10 0.20 2.70 0.65 5.80 0.75 5.05 0.75 5.70 0.05 6.75 -1.70 2.55 -5.10 2.80 -6.60 0.55 -0.40 -0.65 -1.50 -6.10 -2.45 -12.25 -0.95 -6.05 -2.50 -14.55 -3.50 -18.85 -3.55 -15.25 -9.30 -36 -11.30 -40.65 -2.75 -6.45 -11.15 -23.15 -16.50 -32.85 -7.50 -13.60 -10.65 -20.55 -10.75 -23.55 -0.05 -1.70 -0.45 -3.15 -1.10 -4.25 -0.60 -0.90 -1.10 -1.45 -1.10 -1.15 0 0.25 0.80 5.35 1.80 11.35 1.70 10.25 1.75 11 1 12.15 -1.50 2.30 -5.10 2.25 -6.60 0 -0.50 -0.80 -1.60 -5.90 -2.80 -12.90 -3.65 -21.85 -7.50 -32.40 -16.60 -45.15 l-4.35 -6.05 -2.10 0.20 c-1.75 0.20 -2.50 0 -4.60 -1.35 -1.35 -0.90 -5.20 -3.10 -8.50 -4.85 -8.35 -4.55 -16.70 -10.15 -26.70 -17.80 -2.80 -2.15 -5.35 -4 -5.75 -4.15 -0.90 -0.35 -6.80 1.95 -18.55 7.15 -5.75 2.55 -11.95 4.95 -15.75 6 -11.50 3.15 -17.70 5.05 -25 7.55 -4 1.35 -15.45 4.45 -25.50 6.85 -20.05 4.80 -50.45 12.40 -63.75 16 -13.65 3.65 -36.40 7.40 -53.50 8.75 -8.15 0.65 -14.50 1.95 -22.35 4.50 -11.75 3.85 -15.85 4.60 -33.40 6 -12.45 0.95 -18.15 1.55 -25.25 2.55 -15.75 2.15 -22.45 3 -28.50 3.50 -3.85 0.30 -10.35 1.20 -14.50 2 -21.05 4 -28.05 4.95 -39.90 5.40 l-9 0.30 -2.45 3.90 c-3.45 5.55 -8.70 15.65 -9.90 19.10 -0.55 1.60 -1.35 3.30 -1.70 3.70 -1.35 1.50 -11.20 27.25 -14.25 37.20 -4.15 13.45 -4.40 14.95 -5.30 27.85 -0.90 12.90 -2.80 30 -4.30 38.75 -0.60 3.30 -1.05 7.70 -1.05 9.75 0.05 2.85 -0.20 4.10 -0.95 5.30 -0.90 1.50 -0.95 2 -0.45 9 0.30 4.10 0.85 10.45 1.25 14.10 0.40 3.70 0.75 6.90 0.75 7.15 0 0.20 0.65 1.10 1.45 1.90 1.05 1.10 1.65 2.45 2.30 5.40 0.45 2.15 1.25 4.75 1.80 5.85 0.55 1.05 1.65 4.45 2.45 7.50 2.20 8.50 8.30 26.10 10.35 29.90 1.05 1.85 2.80 4.70 4 6.25 2.30 3.05 2.55 4.15 1.45 6.20 -0.75 1.45 -0.85 1.15 5.50 16.55 3.90 9.40 6.50 14.85 9.40 19.70 2.35 3.90 2.45 6.20 0.25 7.70 -0.80 0.60 -1.40 1.35 -1.25 1.70 4.50 10.25 7.80 18.20 10.30 24.80 2.80 7.45 3.35 8.45 5.50 10.55 1.95 1.90 2.40 2.65 2.75 4.70 0.60 4.05 2.10 7.50 13 29.25 10.70 21.40 13.25 26.95 13.25 28.90 0 0.65 -0.55 1.70 -1.25 2.40 -1.50 1.50 -1.60 2.85 -0.20 4.60 0.85 1.15 0.95 1.75 0.70 5.10 -0.15 2.05 -0.60 9.05 -1 15.50 -0.45 6.45 -1.15 15.15 -1.60 19.25 -0.55 5.35 -0.80 12.55 -0.85 25 -0.05 18 0 18.60 2.25 30 1.65 8.15 4.35 15.95 3.75 10.65 -0.65 -5.85 -0.90 -25.30 -0.35 -28.90 0.70 -4.65 2.55 -8.55 5.35 -11.35 1.85 -1.85 2.30 -2.75 3.45 -7 1.10 -4 1.25 -5.20 0.80 -6.40 -2.15 -6.05 -0.30 -10 4.35 -9.10 0.95 0.20 1.70 -0.05 2.45 -0.75 1.60 -1.50 3.85 -1.35 5.55 0.25 0.75 0.75 2.50 3.10 3.85 5.30 l2.50 3.95 2.25 -0.25 c3.35 -0.35 4.10 0.70 6.20 8.85 1.90 7.55 2.45 9.15 4.90 14.50 0.95 2.05 2.15 4.80 2.60 6.05 0.75 1.90 1.05 2.25 1.95 2.10 2.10 -0.40 3.70 1.50 4.30 5.20 0.95 5.55 4.10 17.30 5.05 18.95 1.05 1.85 2.35 6.90 4.40 17.45 3 14.90 3.70 21.85 3.85 37 0.05 8.75 0.30 11.75 1.40 18 2.50 14.50 4.05 28.75 4.65 42.60 l0.30 8.10 -1.35 1.30 c-0.80 0.70 -1.75 1.25 -2.15 1.25 -1.05 0 -0.40 5.90 1.40 13.25 1.75 7.15 3.20 10.35 6.20 13.70 2.45 2.75 2.75 4 1.60 6.65 -0.55 1.20 4.40 6.85 7.20 8.25 3.25 1.60 18.55 5.40 22.60 5.60 0.45 0.05 1.15 -0.40 1.55 -0.95z m286.75 -23.60 c-0.15 -0.35 -2.15 -0.90 -4.70 -1.25 -2.45 -0.35 -5.35 -0.85 -6.45 -1.10 -8.50 -2.15 -15.05 -3.50 -17.95 -3.80 -1.90 -0.20 -3.85 -0.45 -4.25 -0.60 -0.45 -0.15 -0.15 0.35 0.60 1.05 0.85 0.80 2 1.30 2.90 1.30 0.85 0 2.70 0.55 4.10 1.20 5.35 2.45 7.60 3 13.35 3.30 10.25 0.60 12.60 0.55 12.40 -0.10z m-196.45 -14.90 c0.35 -1.50 0.75 -6.25 0.90 -10.50 0.30 -7.65 0.25 -7.80 -1 -10.35 -0.75 -1.40 -1.45 -3.50 -1.65 -4.65 l-0.35 -2.05 -1.40 1.40 c-1.25 1.20 -1.40 1.80 -1.45 4.30 l0 2.85 1.95 0.80 c2.75 1.10 3.25 2.65 2.85 8.10 -0.45 5.80 -1.20 10.80 -2.10 13.80 -0.40 1.35 -0.70 2.85 -0.65 3.25 0.05 1.30 2.25 -4 2.90 -6.95z m161.55 -3.75 c0 -0.15 -0.65 -1.65 -1.45 -3.40 -1.55 -3.40 -2.80 -4.70 -9.05 -9.35 -2.35 -1.75 -4.90 -3.75 -5.70 -4.45 l-1.45 -1.30 0.30 2.40 c0.65 4.85 3.15 7.85 10.50 12.50 6.30 4 6.85 4.30 6.85 3.60z m-304.15 -69.85 c-0.10 -0.65 -0.20 -0.15 -0.20 1.10 0 1.25 0.10 1.75 0.20 1.15 0.10 -0.65 0.10 -1.65 0 -2.25z m-38.60 -93.20 c0.30 -3.85 0.25 -4.60 -0.40 -4.85 -0.95 -0.35 -1.15 0.10 -1.90 5.15 -0.60 3.85 -0.60 4.15 0.30 4.80 1.35 1 1.60 0.35 2 -5.10z m461.30 -51 c0.55 -2.35 0.45 -2.70 -0.95 -5.50 -2.30 -4.55 -4.25 -7.65 -3.85 -6.20 0.15 0.70 0.85 4.20 1.50 7.75 0.70 3.60 1.50 7.50 1.85 8.75 l0.65 2.25 0.10 -2.25 c0.10 -1.25 0.40 -3.40 0.70 -4.80z m-20.60 -6.40 c0.10 -2.10 -0.95 0.05 -1.20 2.45 l-0.25 2.50 0.70 -2 c0.40 -1.10 0.75 -2.45 0.75 -2.95z m42 -7.45 c-0.30 -1.60 -0.80 -3 -1.10 -3.20 -0.30 -0.20 -0.40 0.15 -0.20 0.90 0.15 0.65 0.60 2.90 0.95 4.95 0.50 3 0.70 3.40 0.80 2 0.10 -0.95 -0.10 -3.05 -0.45 -4.65z m-36.95 -3.95 c0 -0.20 -0.20 -0.40 -0.45 -0.40 -0.55 0 -2.55 4.65 -2.50 5.85 0 0.85 2.95 -4.55 2.95 -5.45z m-475.75 0.10 c-1.30 -2.95 -1.70 -2.45 -0.80 1 0.65 2.55 0.85 2.90 1.25 2 0.30 -0.70 0.20 -1.60 -0.45 -3z m511.95 -6 c-0.10 -0.70 -1 -6.20 -2 -12.25 -0.95 -6.05 -1.85 -11.10 -2 -11.20 -0.50 -0.55 -0.45 0.65 0.35 7.20 2.45 19.55 2.55 19.95 3.25 18.70 0.35 -0.65 0.55 -1.75 0.40 -2.45z m-512.50 -14.50 c-4.60 -8.85 -4.60 -8.80 -4.95 -8.40 -0.30 0.25 4.25 9.75 7.15 14.90 1 1.80 1.90 2.90 2 2.50 0.05 -0.40 -1.80 -4.45 -4.20 -9z m-41.65 -71.05 c-0.45 -1.10 -0.50 -1.10 -0.50 -0.15 -0.05 0.55 0.10 1.20 0.30 1.35 0.60 0.60 0.70 0 0.20 -1.20z m-24.30 -63.80 c-0.15 -1.05 -0.55 -2.10 -0.85 -2.40 -0.40 -0.35 -0.45 -0.20 -0.20 0.50 0.20 0.55 0.50 1.60 0.65 2.40 0.15 0.75 0.40 1.35 0.50 1.35 0.15 0 0.10 -0.85 -0.10 -1.85z m-1.55 -6.55 c-0.10 -0.45 -0.85 -3.75 -1.65 -7.35 -0.85 -3.55 -2.30 -10.90 -3.30 -16.25 -1.45 -8 -3.95 -16.95 -4.55 -16.35 -0.80 0.75 8.50 41.60 9.35 41.10 0.20 -0.15 0.25 -0.65 0.15 -1.15z m560.85 -35.35 c-0.35 -1.65 -0.45 -1.15 -0.50 3.25 0 2.90 0.10 6.85 0.35 8.75 0.30 3.20 0.35 2.90 0.50 -3.25 0.05 -3.75 -0.10 -7.70 -0.35 -8.75z m-580.80 -87.60 c0.75 -1.90 1.25 -2.35 2.30 -2.25 0.65 0.10 0.95 -2.50 1.45 -11.75 0.50 -10 1.50 -21 2.85 -31.10 0.75 -5.85 0.75 -6.20 -0.05 -6.65 -0.90 -0.50 -6.25 -5.05 -8.90 -7.55 -0.80 -0.70 -1.40 -1.75 -1.40 -2.35 0 -1.20 -1.30 -1.90 -2.15 -1.05 -0.85 0.85 -4.10 0.70 -4.90 -0.25 -0.40 -0.45 -1.60 -2.70 -2.70 -4.95 -1.85 -3.80 -2.55 -4.60 -9.35 -10.95 -10.60 -9.85 -16.10 -16.40 -20.10 -23.95 -2.15 -4.15 -2.30 -5.90 -0.50 -7.70 1.10 -1.10 1.25 -1.50 0.75 -2.25 -1.65 -2.70 -5.70 -10.60 -7.05 -13.90 -1.60 -3.90 -3.15 -9.60 -3.75 -13.65 -0.65 -4.70 -0.30 -19.95 0.50 -23.60 0.40 -1.95 1.10 -5.55 1.50 -8 1.40 -8.90 4.20 -16.75 9.75 -27.75 4.95 -9.65 7.80 -13.75 14.30 -20.30 7.70 -7.80 8.20 -8.80 3.25 -6.70 -1.80 0.80 -2.60 1.50 -3.25 2.90 -0.55 1.25 -1.75 2.45 -3.70 3.70 -4.90 3.15 -16.70 12.15 -20.50 15.65 -2 1.85 -5.60 5.75 -8.05 8.70 -7.10 8.50 -18.35 21.20 -21.15 23.90 -3.60 3.45 -13.30 20.50 -17.45 30.75 l-2.70 6.65 -0.05 9 c-0.15 19.30 2.60 29.65 11.25 42.40 2.30 3.40 3.55 5.70 3.55 6.60 0 2.25 1.35 4.35 16 25 4.30 6.05 11.40 16.15 15.75 22.45 4.40 6.30 9.25 12.70 10.80 14.30 1.55 1.55 5.10 4.45 7.90 6.45 2.80 2 7.35 5.45 10.15 7.65 11.20 8.95 11.90 9.40 13.85 9.40 1 0 2.60 0.50 3.55 1.10 0.95 0.60 2.90 1.70 4.25 2.45 l2.50 1.40 0.30 -5.85 c0.20 -3.70 0.65 -6.65 1.20 -7.95z m-68.75 -34.50 c0 -0.85 -12.20 -18.60 -13.85 -20.15 -1.25 -1.20 1.55 3.55 7.50 12.65 3 4.60 5.65 8.35 5.90 8.35 0.25 0 0.45 -0.40 0.45 -0.85z m96.75 -37.05 c-0.25 -0.25 -0.75 0.95 -2.30 5.35 -1.60 4.55 -1 4.10 0.85 -0.65 0.95 -2.45 1.60 -4.55 1.45 -4.70z m3.60 -7.95 c2.55 -6.40 2 -6.25 -0.85 0.25 -2.15 5 -2.20 5.10 -1.60 5.10 0.20 0 1.30 -2.40 2.45 -5.35z m0.10 -19.55 c0.70 -1.20 2.80 -4.55 4.70 -7.50 1.85 -2.90 3.20 -5.45 3 -5.65 -0.25 -0.25 -1.80 -0.75 -3.50 -1.15 -2.35 -0.50 -3.20 -0.55 -3.55 -0.15 -1.15 1.45 -6.10 16.30 -6.10 18.20 0 1.30 4.05 -1.50 5.45 -3.75z m15.25 -22.35 c0.75 -0.95 1.30 -2 1.30 -2.40 0 -1.05 -5 -3.05 -11.30 -4.55 -8.95 -2.15 -9.40 -2.35 -11.15 -3.95 -0.90 -0.90 -2.35 -2.60 -3.10 -3.80 -1.30 -2.05 -1.45 -2.15 -1.45 -0.95 0 0.70 0.45 2.80 1.05 4.65 0.75 2.50 1.60 4 3.30 5.80 2.25 2.40 2.25 2.40 3.75 1.65 2.65 -1.35 5.85 0.50 5.90 3.40 0 1.20 0.15 1.30 2.15 1.35 1.15 0 3.25 0.20 4.60 0.45 3.10 0.50 3.40 0.40 4.95 -1.65z m-84.40 -7.90 c-1.30 -8.45 -0.95 -48.15 0.40 -55.10 0.25 -1.20 0.20 -1.30 -0.15 -0.50 -0.25 0.55 -0.50 1.65 -0.50 2.45 -0.05 0.90 -0.60 2.05 -1.40 2.90 -1.25 1.30 -1.30 1.50 -0.70 3.25 0.75 2.20 0.15 4.30 -1.40 5.10 -1.50 0.80 -2.20 3.60 -1.80 7.25 0.35 3.10 0.30 3.30 -1.05 4.55 -1.35 1.25 -1.40 1.45 -1.30 5.70 0.10 6.90 3 19.30 6.75 28.80 1.40 3.55 1.60 3.80 1.75 2.45 0.10 -0.90 -0.20 -3.95 -0.60 -6.85z m145.95 5.15 c7.15 -0.75 9.35 -1.15 19 -3.55 8.50 -2.15 11.50 -2.95 21 -5.70 3.30 -0.95 10.40 -2.75 15.75 -3.95 5.35 -1.25 11.35 -2.70 13.25 -3.30 4.20 -1.20 23 -5.10 30 -6.20 2.75 -0.40 9.70 -1.25 15.45 -1.80 20.60 -2.05 25.95 -3.10 39.55 -7.90 9.10 -3.20 17.10 -5.20 25.35 -6.30 5.75 -0.80 13.35 -2.75 27.90 -7.30 11.20 -3.45 19.55 -5.55 34 -8.50 5.65 -1.15 15.55 -3.30 22 -4.80 6.45 -1.50 15.35 -3.55 19.75 -4.50 4.40 -0.95 10.25 -2.50 13 -3.45 5.85 -1.90 12.75 -4.75 12.75 -5.20 0 -0.15 -0.80 -0.85 -1.70 -1.55 -6.80 -5.10 -11.70 -9.95 -13.30 -13.20 -0.75 -1.50 -0.85 -1.55 -7.95 -2.65 -8.90 -1.30 -10.10 -2.20 -8.90 -6.65 0.30 -1.05 0.15 -1.35 -1.25 -2 -3.35 -1.55 -3.75 -4.95 -0.80 -7.15 l1.40 -1.05 5.10 1.45 c2.85 0.80 7.20 2.05 9.65 2.85 7.25 2.30 8.05 2.40 9 1.40 0.45 -0.50 1.50 -1.20 2.30 -1.50 2.35 -1 5.25 0.15 13.40 5.25 6.85 4.25 7.80 4.70 14.10 6.45 3.70 1 7.05 2.05 7.40 2.25 1.55 1 11.80 -8.65 13.55 -12.70 0.90 -2.05 1.90 -7.30 3.05 -15.80 l0.60 -4.25 -2.55 -9.50 c-4.10 -15.30 -6 -21.10 -8.90 -27.05 -2.65 -5.50 -2.80 -5.70 -6.15 -7.95 l-3.45 -2.30 -6.95 -0.45 c-3.80 -0.25 -9.95 -0.95 -13.65 -1.50 -6.40 -0.95 -7.05 -0.95 -13 -0.25 -3.45 0.40 -8.90 0.80 -12.20 0.85 -5.40 0.10 -6.05 0.20 -7.30 1.30 -0.75 0.65 -2 1.15 -2.75 1.15 -1.30 0 -3.95 -1.45 -5.05 -2.85 -0.90 -1.05 -5.30 -0.90 -12.70 0.50 -3.70 0.70 -11.55 2.20 -17.45 3.30 -5.90 1.15 -10.80 2.10 -10.90 2.25 -0.20 0.20 2.90 8.10 4.80 12.30 0.85 1.95 1.20 2.25 2.60 2.30 2.30 0.10 3.45 1.70 3.45 4.65 0 3 0.80 4.35 6.25 10.75 3.10 3.65 4.90 5.35 5.90 5.60 3.10 0.65 3.65 4.50 0.85 6.10 -1.80 1.05 -1.85 1.30 -0.20 3.45 1.25 1.60 1.25 1.65 2.75 0.85 2.05 -1.05 3.90 -0.70 5.15 0.95 0.85 1.15 0.90 1.60 0.45 2.80 -0.50 1.35 -0.40 1.60 1.30 3.25 1 1 2.25 1.80 2.70 1.80 0.50 0 1.45 0.35 2.10 0.80 1 0.65 1.25 1.25 1.25 2.90 0 4.55 -3.45 8 -13.10 13 -3.10 1.65 -6.45 3.45 -7.40 4.05 -3.35 2.10 -7.75 4.15 -16.75 7.75 -10.30 4.15 -18.10 7.45 -26 11 -2.70 1.25 -16.70 7.05 -20.90 8.70 -5.25 2.05 -17.95 5.55 -27.50 7.55 -18.50 3.85 -36.90 7.30 -43.10 8.05 -7.10 0.85 -17.15 0.65 -23.50 -0.45 -2.85 -0.50 -4.50 -0.50 -8.75 0.05 -6.55 0.85 -20.10 0.50 -26 -0.65 -5.40 -1.05 -17.70 -5.05 -18.50 -6 -0.80 -0.95 -1.50 -0.95 -1.50 0 0 0.45 -0.60 1.35 -1.30 2 -1.10 1 -1.45 1.10 -2.75 0.65 -0.80 -0.25 -1.75 -1 -2.05 -1.60 -1.15 -2.05 -1.95 -8.80 -1.25 -10.30 0.25 -0.55 -0.20 -1 -1.60 -1.70 -1.25 -0.60 -2.05 -1.35 -2.20 -2.05 -0.65 -3.45 3.60 -6.70 5.80 -4.50 0.70 0.65 0.80 0.35 1.10 -2.55 0.50 -4.55 -0.10 -9.20 -1.30 -10.35 -1.15 -1.10 -1.20 -2.25 -0.15 -3.75 0.60 -0.90 0.70 -1.85 0.45 -4.80 -0.45 -4.75 -0.90 -5.45 -2 -3.25 -1.30 2.50 -5.45 7.60 -8.35 10.15 -2.75 2.50 -4.80 3 -6.50 1.45 -1.85 -1.65 -1.20 -3.40 2.90 -7.55 4.40 -4.45 7.30 -8.60 8.50 -12.20 0.70 -2.20 0.75 -3.20 0.25 -8.10 -0.85 -7.95 -0.65 -7.50 -3.70 -8.45 -1.50 -0.45 -3.15 -0.85 -3.70 -0.85 -0.55 0 -3.80 1.30 -7.20 2.90 -3.40 1.65 -10 4.50 -14.70 6.40 -9.45 3.80 -29.90 13.95 -40.15 19.90 -17.25 10 -23.65 14.45 -29.80 20.75 l-3 3 0.85 3.65 c0.50 2 0.85 4.05 0.85 4.55 0 2.25 -4.10 3.80 -5.50 2.10 -0.35 -0.45 -0.85 -0.60 -1.05 -0.40 -0.20 0.20 -1.55 4.80 -2.95 10.15 -3.85 14.55 -4.50 17.15 -4.50 18.30 0 0.95 4.45 9.10 7.55 13.80 1.40 2.20 1.70 2.30 10.05 4.30 3.50 0.80 7.95 2.25 9.90 3.15 l3.50 1.60 1.15 -1.05 c0.65 -0.60 1.40 -1.10 1.65 -1.10 0.65 0 2.70 -2.25 4.30 -4.80 3.70 -5.80 17.60 -22.85 19.30 -23.65 1.75 -0.85 2.90 -0.65 4.40 0.60 0.90 0.80 1.35 1.70 1.40 2.85 0.05 1.50 0.25 1.75 1.45 1.90 0.70 0.10 1.75 0.70 2.25 1.30 0.50 0.65 1.45 1.35 2.10 1.55 2.10 0.65 3 1.75 3 3.75 0 1.70 -0.50 2.30 -5.75 7.55 -5.80 5.70 -8.75 10 -8.75 12.75 0 0.60 -0.20 1.70 -0.50 2.40 -0.35 0.95 -0.30 1.30 0.15 1.30 4.15 0.10 11.70 0.60 13.85 0.90 3.35 0.50 8.90 0.35 16.25 -0.40z m-38.10 -2.25 c-0.05 -0.55 0.25 -2.55 0.60 -4.45 0.40 -1.90 0.65 -3.55 0.55 -3.65 -0.25 -0.25 -7.80 7.90 -7.80 8.40 0 0.60 1.50 0.85 4.25 0.80 2.20 -0.10 2.50 -0.25 2.40 -1.10z m103.10 -5.60 c8.75 -1.30 17.45 -3.20 24.40 -5.25 3 -0.90 5.20 -1.70 4.95 -1.80 -1.20 -0.40 -30.45 6.20 -32.85 7.40 -0.80 0.45 -0.70 0.45 0.50 0.20 0.85 -0.15 2.20 -0.40 3 -0.55z m68.15 -10.20 c9.75 -1.05 29.05 -4.50 37.35 -6.70 4.70 -1.25 17.40 -4.50 28.25 -7.30 10.85 -2.75 19.80 -5.10 19.95 -5.20 0.45 -0.45 -1.25 -0.25 -7.45 1 -3.45 0.70 -10.50 1.95 -15.75 2.80 -15.50 2.45 -26.45 4.75 -36.25 7.65 -5.10 1.45 -14.20 3.85 -20.25 5.30 -13.55 3.20 -13.90 3.35 -5.85 2.45z m92.60 -21 c0 -0.25 -0.60 -0.20 -1.35 0.05 -0.80 0.25 -2.25 0.55 -3.25 0.75 -1.05 0.15 -1.90 0.50 -1.90 0.70 0 0.25 1.45 0.05 3.25 -0.35 1.80 -0.45 3.25 -0.95 3.25 -1.15z m-427.25 -5.55 c5.80 -9.50 14.90 -20.90 24.95 -31.25 l6.25 -6.50 -0.85 -2.30 -0.90 -2.35 -9.10 9.15 c-5.85 5.90 -9.10 9.55 -9.10 10.20 0 0.55 -0.70 1.90 -1.55 2.95 -2.50 3.20 -6.80 10.70 -9.15 16 -3.50 8 -3.65 9.20 -0.55 4.10z m560.95 -3.75 c-1.60 -2.15 -5.85 -7.20 -9.20 -10.90 -1.25 -1.40 -4.15 -4.75 -6.50 -7.40 -6.05 -6.95 -5.85 -6.85 -9.40 -4.15 -3.50 2.65 -4.40 3.70 -3.80 4.25 0.90 0.75 8.50 6.40 12.70 9.35 4.30 3.05 16.60 10.60 17.45 10.70 0.10 0 -0.45 -0.85 -1.25 -1.85z m-293.70 -3.65 c0 -0.25 0.50 -0.50 1.15 -0.55 2.25 -0.10 -1.20 -0.75 -5.50 -1.10 -4.90 -0.40 -5.65 0.40 -0.90 0.90 1.80 0.20 3.40 0.55 3.55 0.80 0.35 0.60 1.70 0.55 1.70 -0.05z m209.30 -2.50 c6.55 -1.35 8.70 -1.95 8.70 -2.45 0 -0.35 -4.05 0.50 -11.75 2.45 -4.80 1.25 -2.95 1.20 3.05 0z m-137.55 -1.20 c17.15 -2.80 42.30 -9.05 48.45 -12.10 1.40 -0.65 2.15 -1.20 1.70 -1.20 -1.80 0 -18.50 4.05 -23.90 5.75 -3.15 1.05 -9.25 2.65 -13.50 3.55 -4.25 0.95 -10.20 2.35 -13.25 3.10 -3 0.70 -5.65 1.30 -5.85 1.35 -0.15 0 -0.50 0.20 -0.75 0.45 -0.20 0.25 0.15 0.30 0.85 0.15 0.70 -0.15 3.50 -0.60 6.25 -1.05z m231.45 -1.10 c0.15 -0.45 0.30 -1.10 0.30 -1.45 0 -0.75 -4.65 -4.20 -8.75 -6.50 -2.45 -1.40 -2.50 -1.40 -1.50 -0.20 1.35 1.65 8.90 8.90 9.30 8.95 0.20 0 0.50 -0.35 0.65 -0.80z m-257.15 -4.70 c4.50 -0.80 12.60 -2.40 17.95 -3.50 5.35 -1.15 15.70 -3.30 23 -4.80 15.90 -3.30 31.20 -6.80 37 -8.55 5.15 -1.55 7.85 -2.85 11.75 -5.80 3.90 -2.90 10.80 -6.85 20.30 -11.60 10.45 -5.25 22.65 -12.95 25.80 -16.30 0.75 -0.80 1.70 -1.45 2.10 -1.45 0.55 0 0.55 -0.15 0 -0.95 -0.40 -0.55 -2.05 -2.90 -3.65 -5.25 l-2.95 -4.25 -1.50 0.75 c-0.80 0.45 -4.55 1.80 -8.30 3.05 -3.75 1.25 -9.85 3.65 -13.55 5.40 -7.95 3.75 -9.05 4.10 -19.55 6.75 -4.90 1.25 -11.35 3.35 -16.60 5.45 -12.40 4.95 -18.05 6.80 -27.10 8.75 -4.40 1 -10.90 2.45 -14.50 3.25 -10.70 2.40 -33.75 7 -51.50 10.25 -20 3.65 -26.40 3.70 -48.60 0.45 l-1.60 -0.25 -0.15 6.60 c-0.15 6.60 -0.15 6.65 1.25 8.55 1.55 2.10 1.75 2.15 10.30 2.75 2.60 0.15 5.90 0.50 7.25 0.80 1.40 0.30 9.10 0.70 17.05 0.85 28.20 0.65 26.85 0.70 35.80 -0.95z m216.45 -13.90 c0 -0.10 -1.10 0.45 -2.50 1.25 -2.40 1.35 -2.95 2.05 -2.15 2.85 0.30 0.25 4.65 -3.55 4.65 -4.10z m-7.55 -3.50 c1.75 -1 3.30 -2.10 3.35 -2.35 0.20 -0.55 -4.55 -2.75 -5.80 -2.75 -0.40 0 -1.05 0.45 -1.40 1 -0.45 0.75 -1.15 1 -2.80 1 -2.05 0 -2.40 -0.20 -4.40 -2.45 -1.45 -1.65 -2.70 -2.50 -3.80 -2.70 -1.10 -0.25 -1.55 -0.15 -1.30 0.20 0.55 0.95 4.35 4.30 7.70 6.75 1.80 1.35 3.35 2.60 3.40 2.80 0.35 0.80 1.90 0.30 5.05 -1.50z m-98.95 -5.60 c4.45 -1.10 8.60 -2.25 9.20 -2.55 0.55 -0.30 2.95 -2.45 5.30 -4.70 2.35 -2.30 6.25 -5.65 8.75 -7.50 4 -2.95 5.70 -4.65 5.75 -5.90 0 -0.20 -2.40 1.30 -5.35 3.30 -7.75 5.30 -12.30 8 -21.65 12.65 -9.95 5 -12.70 6.65 -11.20 6.70 0.60 0 4.70 -0.90 9.20 -2z m-145 -3.25 c5.10 -0.40 9.70 -0.85 10.30 -1 0.55 -0.10 2.25 -0.35 3.75 -0.50 1.50 -0.20 3.40 -0.40 4.20 -0.50 0.85 -0.10 3.40 -0.35 5.75 -0.50 7 -0.55 16.10 -2.20 27.50 -5 5.90 -1.45 12 -2.90 13.50 -3.25 3.75 -0.80 10.65 -2.80 17.25 -4.90 3.05 -1 5.75 -1.85 6 -1.90 6.95 -1.75 20.05 -5.70 23.75 -7.20 12.15 -4.95 14.05 -5.60 25.30 -8.55 4.75 -1.20 6.40 -1.95 12.10 -5.40 6.95 -4.15 8.90 -4.95 9.75 -4.10 0.75 0.75 1.85 0.70 1.85 -0.05 0 -0.30 -0.40 -1.05 -0.95 -1.60 -0.50 -0.60 -1.60 -2.30 -2.45 -3.80 -3.20 -5.85 -3.25 -5.90 -5.05 -6.25 -3.50 -0.65 -7.30 -3.35 -8.75 -6.15 -0.45 -0.85 -0.90 -2.70 -1.10 -4.20 -0.30 -2.50 0.30 -5 2.05 -9 0.25 -0.65 0.10 -1 -0.55 -1.20 -0.55 -0.20 -1.70 -0.90 -2.55 -1.55 -1.40 -1 -1.65 -1.50 -1.65 -3.20 0 -1.50 0.30 -2.30 1.30 -3.20 1.20 -1.15 1.25 -1.35 0.75 -3.60 -0.25 -1.30 -1.15 -4.55 -1.95 -7.15 -1.85 -5.95 -3.75 -15.40 -5.10 -25.25 -1.30 -9.25 -1.65 -10.55 -3.90 -15.25 l-1.85 -3.70 -0.05 -10.55 c-0.05 -8.90 -0.30 -12.15 -1.65 -21.50 -2 -14.20 -1.95 -13.95 -2.55 -21.25 -0.70 -8.90 -0.65 -55.85 0.10 -68.90 0.70 -11.80 0.90 -42.80 0.25 -44.25 -0.35 -0.90 -0.40 -0.90 -1.50 0.10 -1.80 1.70 -10.90 8.20 -14.10 10.15 -4.35 2.60 -8 4.35 -16.75 8.05 -8.65 3.65 -12.35 4.95 -16.75 5.90 -1.65 0.35 -4 1.20 -5.25 1.90 -14 7.75 -21.50 11.05 -48.75 21.45 -16.35 6.25 -37.90 12.35 -59.50 16.80 -6.05 1.25 -14.05 3.10 -17.75 4.05 -11.45 3 -25.05 6.15 -31.30 7.30 -4.65 0.85 -7.05 1 -11.05 0.80 -3.40 -0.20 -5.15 -0.10 -5.15 0.25 0 0.80 4.80 11.95 8.55 19.75 1.85 3.90 3.50 7.60 3.70 8.25 0.20 0.65 1 2.40 1.80 3.90 0.75 1.50 4.10 8.25 7.40 15 3.25 6.75 7.30 14.30 9 16.75 3.20 4.75 3.55 5.85 2.30 7.60 -0.70 0.95 -0.60 1.35 0.70 4.25 0.80 1.75 1.60 3.75 1.80 4.45 1 3.25 5.05 10.65 8 14.45 4.80 6.20 5.25 7 4.90 8.45 -0.40 1.60 -1.20 2.45 -2.05 2.15 -0.95 -0.30 -0.75 0.60 1.20 5.30 5.90 14.15 7.80 19.20 11.95 31.85 2.60 7.70 4.85 14.85 5 15.85 0.55 2.85 0 4.20 -1.85 4.85 -2.70 0.95 -3.85 -0.35 -5.60 -6.40 -0.80 -2.80 -1.55 -5 -1.65 -4.85 -0.10 0.10 0.35 3.20 1.05 6.85 1.70 9.30 2.15 12.25 3.55 23.70 0.65 5.50 1.75 14.30 2.45 19.50 0.65 5.25 1.60 12.90 2.05 17 0.45 4.15 0.95 8 1.10 8.65 l0.25 1.10 13.85 0 c7.90 0 17.80 -0.30 23.05 -0.75z m181.95 -12.85 c3.45 -2.05 3.50 -2.10 2.80 -3.40 -0.80 -1.50 -2.15 -2.80 -2.55 -2.35 -0.40 0.40 -4.10 7.85 -3.90 7.85 0.10 0 1.75 -0.95 3.65 -2.10z m106.05 -13.30 c0 -1.65 -0.80 -0.90 -1.15 1 -0.15 0.90 -0.40 2.10 -0.60 2.65 -0.15 0.55 0.15 0.20 0.70 -0.75 0.55 -0.95 1 -2.25 1.05 -2.90z m-487.95 -1.15 c0.90 -1.75 -0.85 -1.60 -3.65 0.30 -1.45 1 -2.70 1.90 -2.80 2 -0.10 0.10 1.20 -0.20 2.90 -0.60 1.90 -0.50 3.20 -1.15 3.55 -1.70z m483.30 -19.50 c-1.05 -5.90 -1.65 -8.05 -3.50 -11.95 -1.85 -4.05 -3.85 -7 -3.85 -5.75 0 0.20 1 3.50 2.20 7.40 1.20 3.90 2.90 10.15 3.85 13.85 1.50 5.95 1.70 6.55 2.10 5.20 0.30 -1.05 0.05 -3.65 -0.80 -8.75z m82.65 -53.40 c0 -0.60 -5.65 -7.80 -6.55 -8.30 -0.80 -0.50 -0.55 0 2.05 4.70 1.75 3.15 2.50 4.05 3.40 4.05 0.60 0 1.10 -0.20 1.10 -0.45z m-44.15 -38.05 c-0.55 -0.40 -2.20 -1.65 -3.60 -2.80 -3.05 -2.50 -7.40 -5.35 -9.80 -6.35 -0.90 -0.40 -4.50 -2 -7.90 -3.55 -3.40 -1.55 -6.30 -2.70 -6.40 -2.60 -0.40 0.40 5.10 7.05 7.90 9.60 3.15 2.90 6.25 4.25 12.55 5.45 2.25 0.45 4.80 1.10 5.60 1.50 1.10 0.50 1.60 0.50 2.10 0.10 0.55 -0.50 0.45 -0.75 -0.45 -1.35z m-390.35 -101.25 c9.60 -2.65 20.80 -5.30 30.25 -7.25 12.10 -2.50 20.80 -4.65 33.40 -8.30 16.30 -4.70 27.95 -8.75 27.25 -9.50 -0.15 -0.10 -2.95 0.45 -6.20 1.25 -6.90 1.70 -17.85 3.90 -30.20 6.05 -6.35 1.10 -12.05 2.55 -20.75 5.25 -6.60 2.05 -15.60 4.75 -20 6 -6.45 1.90 -21.25 7.25 -22.25 8.10 -0.50 0.40 4.45 -0.50 8.50 -1.60z m-25.75 -2.95 c6.35 -1.50 12.75 -3.15 14.25 -3.55 1.50 -0.45 3.50 -1 4.40 -1.25 2.05 -0.50 2.65 -1 1.25 -1 -2 0 -25.95 5 -28.95 6.05 -1.70 0.60 -3.60 1.50 -4.25 2.05 l-1.20 0.95 1.50 -0.20 c0.85 -0.15 6.70 -1.50 13 -3.05z m-18.90 -1.80 c1.95 -1.75 6.50 -4.10 9.40 -4.95 1.10 -0.35 7.50 -1.70 14.20 -3.05 7.55 -1.55 12.55 -2.80 13.10 -3.30 0.85 -0.75 1.55 -0.85 4.45 -0.70 2.65 0.20 27.80 -5.60 34.25 -7.85 18.60 -6.55 28.15 -9.55 39.50 -12.40 6.90 -1.75 15.55 -3.95 19.25 -4.95 3.75 -0.95 8.80 -1.95 11.25 -2.25 9.85 -1.20 13.35 -1.75 22 -3.40 13.45 -2.60 18 -3.75 30 -7.70 16.75 -5.45 23.25 -8.85 31 -15.95 2.20 -2.05 4.10 -3.90 4.15 -4.10 0.40 -0.85 -4.70 -2.50 -10.55 -3.40 -3.35 -0.55 -7.45 -1.45 -9.10 -2 -4 -1.45 -9.25 -2.40 -11.60 -2.20 -10.60 1 -12.70 1.15 -13.30 0.95 -0.35 -0.15 -3.80 0.30 -7.60 1.05 -14.45 2.65 -21.05 3.65 -27.90 4.20 -13.35 1.05 -28.80 5.20 -45.60 12.25 -14.35 6 -23.65 9.75 -24.05 9.75 -0.25 0 -1.10 0.35 -1.95 0.80 -0.80 0.40 -4.65 2 -8.50 3.55 -3.85 1.50 -7.90 3.15 -9 3.65 -1.10 0.50 -4.80 2.10 -8.25 3.50 -10.55 4.40 -29.90 14.10 -36.90 18.45 -7.45 4.65 -18.95 12.45 -21.85 14.90 -1.85 1.55 -1.90 1.65 -1.10 2.55 0.45 0.50 0.85 1.30 0.85 1.75 0 0.75 1.25 2.35 1.85 2.35 0.15 0 1.05 -0.70 2 -1.50z m98.90 -19.80 c5.40 -0.75 25.10 -4.85 25.65 -5.30 0.30 -0.30 0.60 -0.95 0.60 -1.45 0 -0.55 0.25 -0.95 0.60 -0.95 0.30 0 0.45 -0.10 0.30 -0.25 -0.55 -0.55 -30.25 7.45 -31.15 8.40 -0.35 0.30 -0.10 0.40 0.75 0.15 0.70 -0.15 2.15 -0.45 3.25 -0.60z m41.75 -9.75 c9.10 -2.10 11.70 -2.95 11 -3.60 -0.60 -0.50 -8.85 0.80 -15.60 2.45 -6.50 1.60 -7.30 1.95 -6.50 2.50 1.05 0.85 2.60 0.65 11.10 -1.35z m-67.70 -23.50 c1.80 -0.80 3.50 -1.35 3.70 -1.20 0.25 0.15 0.50 0.05 0.60 -0.20 0.05 -0.25 3.35 -1.70 7.25 -3.25 3.95 -1.50 8.55 -3.40 10.25 -4.20 1.75 -0.80 3.50 -1.60 3.90 -1.80 1.55 -0.60 -2.85 0.35 -5.50 1.20 -4.50 1.50 -15.70 5.45 -16.75 5.95 -5.85 2.65 -13.75 6.70 -13.75 7.05 0 0.55 5.35 -1.30 10.30 -3.55z m176.50 -17.15 c0.20 -0.70 -0.55 -0.25 -2.30 1.55 l-2.65 2.55 0.65 6.45 0.65 6.40 1.65 -7.95 c0.95 -4.35 1.80 -8.40 2 -9z m-18.50 -9.60 c-0.15 -0.45 -0.30 -0.90 -0.30 -1 0 -0.10 -1.40 -0.20 -3.10 -0.20 -3.55 0 -3.50 0.40 0.20 1.30 3.50 0.80 3.55 0.80 3.20 -0.10z"/>
  <path d="M486.30 976.25 c-0.70 -0.65 -1.30 -1.55 -1.30 -1.95 0 -1.75 1.55 -8.50 2.70 -11.80 1.25 -3.60 1.25 -3.60 0.25 -4.65 -1.25 -1.35 -1.25 -4.10 0.05 -5.70 1.55 -2 4.30 -11.15 7.25 -24.45 0.25 -1.05 0.05 -1.05 -10.40 -1.35 -10.70 -0.35 -13.25 -0.65 -18.50 -2.20 -3.60 -1.05 -5.50 -3 -5 -5.05 0.90 -3.70 3.95 -6.50 6.45 -5.90 0.80 0.20 1.20 -0.05 1.60 -0.95 0.85 -1.90 2.75 -2.60 4.90 -1.80 0.95 0.35 2.40 0.50 3.20 0.30 1.25 -0.30 1.75 -0.05 3.10 1.30 2.05 2.10 5.70 3.80 8.85 4.25 2.95 0.40 11.10 -0.85 18.35 -2.80 5.75 -1.55 7 -1.45 8.40 0.55 0.75 1.05 0.90 1.10 3.30 0.55 1.45 -0.35 3.25 -0.60 4 -0.60 1.05 0 2.05 -0.60 3.35 -1.90 1.75 -1.80 2.20 -1.95 5.40 -2.25 3.85 -0.35 11.20 -1.70 19.25 -3.65 15.35 -3.65 20 -5.15 25.60 -8.05 2.70 -1.40 3.70 -1.70 5.10 -1.45 2.60 0.50 15.30 -4.40 15.30 -5.90 0 -0.35 0.45 -1.25 1.05 -2 0.75 -0.95 1.50 -1.30 2.80 -1.30 1.95 0 4.45 -1.70 7.95 -5.40 1.90 -1.95 2.30 -2.15 4.15 -2.05 1.75 0.15 2.50 -0.20 5.80 -2.45 2.05 -1.45 4 -3.10 4.30 -3.65 0.30 -0.55 1.50 -1.45 2.65 -1.95 2.80 -1.20 5.65 -4.55 6.60 -7.85 1.25 -4.25 4.50 -5.50 7.10 -2.75 0.75 0.80 1.90 1.55 2.60 1.75 1.70 0.40 3.40 2.10 3.80 3.65 0.50 1.95 -0.55 4.75 -2.65 7.20 -3.20 3.70 -14.15 13 -19.30 16.35 -3.65 2.35 -4.85 3.40 -4.65 4.05 0.70 2.60 0.80 4.80 0.25 6.30 -0.60 1.60 -0.45 1.90 2.65 7.35 8.25 14.50 11.40 21.30 11.40 24.70 0 1.80 -0.25 2.35 -1.60 3.50 -1.35 1.15 -1.90 1.30 -3.60 1 -2 -0.30 -6.35 -2.45 -8.70 -4.25 -0.90 -0.75 -1.40 -0.80 -2.50 -0.40 -2.50 0.95 -3.80 0.20 -6.75 -3.95 -1.50 -2.15 -4.55 -5.90 -6.75 -8.40 -2.25 -2.45 -5.65 -6.30 -7.55 -8.50 -1.90 -2.20 -4 -4.50 -4.70 -5.15 l-1.25 -1.20 -6.05 2.55 c-21 8.95 -43.55 14.95 -64.60 17.35 l-2.30 0.25 -1.35 6.20 c-0.75 3.40 -2.35 9.85 -3.55 14.35 -1.80 6.70 -2.45 8.35 -3.55 9.30 -0.75 0.65 -1.75 1.10 -2.20 0.95 -0.50 -0.10 -1.10 -0.10 -1.35 0.10 -1 0.65 -11.65 15.95 -12.45 17.80 -0.45 1.10 -1.15 2.25 -1.65 2.60 -1.35 1.05 -3.75 0.75 -5.25 -0.60z m19.25 -34.55 c1.05 -3.65 3.45 -14.05 3.45 -14.75 0 -0.25 -1.20 -0.45 -2.65 -0.45 l-2.70 0 -0.80 4.15 c-0.80 3.90 -0.80 4.15 0.05 5.35 1.60 2.20 1.60 2.95 0.10 7.60 l-1.45 4.60 1.50 -1.55 c1.05 -1 1.85 -2.65 2.50 -4.95z m114.95 -20.75 c-0.60 -1.15 -2.85 -5.20 -5 -8.95 -2.15 -3.75 -4.55 -8.10 -5.30 -9.65 -0.85 -1.65 -1.75 -2.85 -2.20 -2.85 -0.40 0.05 -2.50 0.80 -4.70 1.70 -3.80 1.60 -3.90 1.65 -2.85 2.40 0.60 0.45 2.70 2.75 4.60 5.20 3.85 4.85 4.85 5.80 5.55 5.40 1.15 -0.75 3.05 0.65 6.60 4.85 2.15 2.50 4 4.40 4.15 4.30 0.10 -0.15 -0.25 -1.20 -0.85 -2.40z"/>
  <path d="M514.50 824.45 c-4.55 -0.20 -10.15 -0.60 -12.50 -0.90 -5.40 -0.65 -16.85 -0.80 -18.50 -0.15 -0.70 0.25 -2.85 0.30 -5 0.05 -2.05 -0.20 -6.85 -0.40 -10.65 -0.40 -14.80 -0.10 -25.10 -2.30 -35.25 -7.55 -9.85 -5.15 -14.75 -9.90 -21.20 -20.75 -3.90 -6.60 -5.10 -8.40 -7.65 -11.75 -0.90 -1.25 -2.15 -3.55 -2.75 -5.15 -0.60 -1.60 -3.85 -7.80 -7.25 -13.80 -3.40 -6 -7.05 -12.70 -8.15 -14.85 -4.10 -8.15 -6.35 -16.30 -7.80 -28.05 -0.45 -3.75 -1.10 -6.80 -1.70 -8 -4.50 -8.75 -5.35 -27.40 -2.30 -50.15 0.40 -3.15 1.15 -9.55 1.65 -14.15 0.70 -6.20 1.15 -8.65 1.75 -9.30 0.50 -0.55 1.15 -2.05 1.50 -3.40 l0.65 -2.45 -1.55 0.20 c-1.05 0.10 -2 -0.15 -2.95 -0.90 -2.65 -2.10 -1.50 -6.30 5.05 -18.45 1.85 -3.45 3.40 -6.55 3.50 -6.90 0.10 -0.35 -0.30 -1.10 -0.85 -1.75 -2.10 -2.25 -0.80 -5.40 5.35 -13.15 4.60 -5.70 18.35 -20.35 28.40 -30.25 l9.45 -9.30 6.85 -3.45 c7.20 -3.55 9.20 -4.05 10.85 -2.55 0.95 0.85 1.25 0.85 7.40 -0.65 3.55 -0.85 6.80 -1.55 7.25 -1.55 0.45 0 0.90 -0.50 1.05 -1.10 0.75 -2.95 1.30 -3.15 7.95 -3.20 14.15 -0.20 28.55 -0.65 34.65 -1.15 3.60 -0.30 12 -0.45 18.75 -0.35 10.45 0.15 12.80 0.30 16.10 1.20 4.90 1.35 8 2.90 11.70 6 2.45 2 3.50 2.55 6.15 3.05 7.75 1.50 15.05 5 26.80 12.80 4.70 3.10 11.20 7.35 14.50 9.50 4.30 2.75 7.80 5.60 12.30 9.95 3.45 3.30 7.40 6.85 8.70 7.80 1.35 0.95 4.55 3.70 7.10 6.10 2.60 2.45 5 4.40 5.40 4.40 0.45 0 0.75 -0.50 0.75 -1.25 0 -1.65 2.10 -3.75 3.75 -3.75 2.30 0 4.50 2.85 9.30 12 2.55 4.80 6.05 11.05 7.75 13.90 5.85 9.45 7.85 14.45 9.65 24.50 0.55 2.95 1.45 6.70 2.05 8.35 2.90 8.30 6.15 28.50 6.15 38.25 -0.05 6.15 -1.65 18.70 -3.50 26.50 -0.40 1.80 -0.95 4.40 -1.20 5.75 -0.20 1.40 -0.75 4.05 -1.20 6 -0.90 4.10 -0.95 6.15 -0.20 8.10 0.35 1 0.35 2.60 -0.05 5.60 -0.70 5.25 -3.60 12.55 -8.25 20.65 -1.80 3.15 -4.70 8.90 -6.45 12.80 -1.75 3.85 -3.65 7.70 -4.25 8.55 -2.45 3.40 -7.70 6.75 -13.80 8.80 -2.20 0.75 -7.70 3.15 -12.25 5.35 -9.90 4.80 -13 6 -20.25 7.90 -3 0.80 -8.10 2.35 -11.25 3.45 -5.15 1.75 -16.95 4.40 -27.50 6.15 -3.50 0.60 -3.80 0.75 -4.45 2.25 -0.85 1.95 -2.65 2.85 -7.15 3.60 -3.35 0.55 -19.10 1.60 -22.40 1.45 -0.95 -0.05 -5.45 -0.25 -10 -0.45z m13.65 -10.05 l4.35 -0.60 0 -1.90 c0 -3.80 3.75 -5.65 6.70 -3.35 1.25 0.95 1.60 1 5.25 0.50 5.40 -0.70 10.25 -2.40 21.05 -7.45 7.95 -3.65 15.45 -6.80 20.75 -8.60 3.05 -1.05 6.80 -2.40 8.40 -2.95 2.50 -0.95 3.10 -1 4.25 -0.45 1.95 0.95 2.90 3.20 2.20 5.10 -0.35 0.80 -0.50 1.55 -0.45 1.60 0.05 0.10 1.15 -0.30 2.35 -0.90 1.25 -0.55 3.25 -1.30 4.50 -1.70 6.45 -1.95 12.65 -4.25 15.80 -5.90 3.45 -1.75 3.60 -1.90 3.85 -3.95 0.15 -1.15 0.25 -2.15 0.15 -2.20 -0.05 -0.05 -1.30 0.20 -2.80 0.60 -3.80 1 -4.85 0.95 -6.25 -0.50 -2.60 -2.55 -1 -6.30 3.15 -7.20 6.40 -1.35 13.65 -6.10 22.70 -15 4.15 -4.05 4.60 -4.90 6.20 -12 0.70 -3.10 0.70 -4 0.15 -5.65 -0.55 -1.80 -0.45 -2.70 1.75 -11.80 4.15 -17.50 4 -16.40 4 -28.10 0.05 -14.75 -0.60 -30.85 -1.55 -39.40 l-0.80 -7.10 -2.15 -0.95 c-2.35 -1.05 -3.15 -2.45 -9.05 -16.05 -5.20 -11.85 -8.05 -17.10 -12.80 -23.50 -7 -9.30 -18.35 -19.95 -24.85 -23.25 -9.35 -4.80 -23.50 -14 -28.50 -18.60 -2.65 -2.45 -8.15 -5.70 -18.35 -10.85 -8.25 -4.20 -10.95 -5.35 -12.25 -5.20 l-1.65 0.15 2.50 2.75 c4.70 5.05 5.25 5.95 5.25 8 0 2.30 -1.35 3.50 -3.90 3.50 -1.50 0 -2.20 -0.55 -5.55 -4.10 -7.60 -8.15 -7.85 -8.35 -8.95 -8.05 -0.55 0.15 -1.75 -0.15 -2.60 -0.65 -1.45 -0.90 -1.75 -1.40 -2.10 -3.95 -0.20 -1.15 0.25 -1.05 -16.15 -3.70 -23.45 -3.80 -29.70 -3.90 -43.50 -0.55 -4.65 1.15 -12.65 3.05 -17.70 4.30 -5.05 1.20 -10.20 2.65 -11.40 3.20 l-2.20 0.95 0.80 1.50 c1.70 3.35 0.15 5.70 -4.20 6.20 -1.70 0.20 -3.50 0.85 -5 1.85 -1.30 0.80 -2.85 1.50 -3.45 1.50 -0.55 0 -2.75 1.35 -4.80 3 -3.15 2.50 -3.80 3.25 -3.80 4.45 0 1.90 -1.25 3.35 -4 4.75 -1.70 0.85 -3.40 2.60 -7.15 7.35 -8.20 10.40 -8.75 11.50 -11.35 21.95 -1.50 5.85 -3.80 20.05 -4.50 27.35 l-0.60 6.15 1.30 1.55 c1.55 1.85 1.60 2.65 0.30 5.60 -0.55 1.30 -1.10 3.40 -1.20 4.75 -0.10 1.35 -0.40 2.90 -0.70 3.45 -1.75 3.25 -3.05 14.95 -3.10 27.20 0 15.65 1.25 27.90 4 38.75 1.80 7.05 3.75 11.25 7.35 15.45 2.90 3.40 3.35 4.80 2.15 7.05 -0.55 1 -0.45 1.60 0.85 4.55 1.45 3.35 1.50 3.40 3.65 3.70 3.40 0.45 4.15 1.75 3.75 6.55 l-0.35 3.90 3.75 5.65 c2.10 3.05 5.30 7.40 7.15 9.60 1.80 2.20 3.55 4.55 3.80 5.25 0.35 1.10 1.50 2 7.60 6 8.75 5.70 17.30 10.25 23.40 12.40 l4.35 1.55 1.50 -1.45 c1.90 -1.95 3.70 -1.95 5.65 0 0.80 0.85 1.95 1.75 2.45 2.05 1.45 0.75 7.55 1.85 14 2.45 4.25 0.45 5.95 0.80 6.70 1.50 0.55 0.50 2.45 1.20 4.25 1.50 7.50 1.40 26.75 1.60 35.65 0.40z m-83.20 -2.60 c-0.10 -0.10 -2.40 -1.35 -5.05 -2.75 -2.70 -1.40 -6.65 -3.60 -8.75 -4.95 -5.60 -3.50 -5.65 -3.50 -2.65 -0.60 2.85 2.75 5.30 4.15 11.75 6.80 3.65 1.50 5.25 2 4.70 1.50z m136.60 -7.35 c0.30 -0.60 0.30 -0.95 0 -0.95 -0.55 0 -5.05 1.90 -5.05 2.10 0 0.10 1 0.10 2.25 0 1.60 -0.15 2.40 -0.50 2.80 -1.15z m10.75 -4.25 c1.10 -0.45 1.70 -0.95 1.35 -1.05 -0.35 -0.10 -1.10 0.05 -1.75 0.40 -0.65 0.40 -1.30 0.60 -1.50 0.55 -0.25 -0.05 -0.40 0.15 -0.40 0.40 0 0.65 0.05 0.65 2.30 -0.30z m-209.40 -170.10 c0.35 -0.25 0.75 -1.65 0.90 -3.15 l0.25 -2.70 -0.95 2.05 c-1.85 3.85 -1.90 4.85 -0.20 3.80z"/>
  <path d="M527.75 766.45 c-1.35 -0.25 -5.10 -0.30 -8.25 -0.15 -5.40 0.30 -11.30 -0.05 -36.50 -2.25 -6.35 -0.55 -9.30 -1.40 -13.35 -3.90 -10.05 -6.10 -20.05 -17.85 -29.05 -33.95 -4 -7.15 -5.20 -10.20 -7.65 -19.15 -4.25 -15.60 -3.10 -26.30 4.50 -41.50 4.90 -9.70 7.50 -13.65 12.75 -18.95 6.35 -6.55 10.60 -9.15 18.35 -11.40 2.60 -0.70 7.30 -2.40 10.45 -3.70 9.70 -4.05 10.50 -4.15 24 -3.80 16.65 0.50 20.85 1.25 24.25 4.30 0.60 0.55 3.10 1.35 6.20 2 6.45 1.30 12 3.45 15.35 5.90 4.55 3.30 13.85 10.45 17.15 13.20 3.85 3.20 6.80 7.30 9 12.70 0.90 2.15 2.60 6.10 3.80 8.70 1.20 2.60 2.65 6.90 3.25 9.50 0.60 2.60 1.55 6.55 2.10 8.75 1.50 5.90 1.85 22.90 0.65 30.50 -1.40 9.10 -3.90 15.85 -7.95 21.50 -2.95 4.05 -7.15 8.05 -10.45 9.80 -1.70 0.90 -4.75 2.70 -6.70 4.05 -4.65 3.10 -9.45 5.50 -13.90 6.90 -3.95 1.30 -13.65 1.80 -18 0.95z m-48.25 -11.45 c-3.10 -1.10 -3.95 -1.25 -3.20 -0.55 0.55 0.55 3.55 1.45 4.95 1.45 0.55 0.05 -0.25 -0.40 -1.75 -0.90z"/>
  <path d="M730.10 531.35 c-1.35 -1.40 -1.45 -3.85 -0.20 -5.25 0.45 -0.60 2.35 -2.25 4.20 -3.75 2.50 -2 3.20 -2.85 2.85 -3.40 -1.50 -2.40 0.55 -6.20 10 -18.45 11.10 -14.25 14.85 -21.20 18.80 -34.25 1.55 -5.15 2.30 -6.70 3.95 -8.45 0.65 -0.70 1.85 -2.70 2.70 -4.40 1.25 -2.60 1.60 -4.15 2.05 -8.90 0.70 -7.55 0.70 -8.80 -0.20 -9.65 -1.30 -1.35 -1.40 -3.20 -0.35 -5.30 0.60 -1.10 1.30 -3.40 1.60 -5.15 0.70 -3.80 1.60 -6 3.20 -7.90 2.05 -2.45 3 -9.05 3.05 -21.25 0.05 -5.75 0.25 -11 0.45 -11.55 0.40 -1.35 2.85 -2.40 4.55 -2 2.55 0.65 3 2.25 3.15 11.20 0.20 9 -0.40 15.95 -1.95 22.70 -0.75 3.25 -0.90 4.60 -0.50 5.35 0.70 1.25 0.70 9.05 0 13.70 -0.70 4.90 -2.20 10.30 -4.20 15.15 -0.95 2.25 -2.20 6.15 -2.80 8.75 -1.30 5.60 -3.20 11.40 -5.75 17.30 -2.30 5.50 -3.85 7.65 -5.45 7.65 -0.95 0 -1.50 0.50 -2.25 2 -0.85 1.65 -0.90 2 -0.30 2 0.40 0 1.35 0.55 2.10 1.20 2.30 1.95 1.95 3.75 -2.05 9.80 -6.30 9.50 -8.85 12.70 -15.45 19.25 -8.90 8.85 -16.35 14.75 -18.50 14.75 -1.05 0 -2 -0.40 -2.70 -1.15z"/>
 </g>
</svg>