<svg preserveAspectRatio="xMidYMid meet" viewBox="45.590909090909086 85.888 807.2272727272727 1140.7" xmlns="http://www.w3.org/2000/svg" version="1.0" style="max-height: 500px" width="807.2272727272727" height="1140.7">
 <g fill="#b8da8d">
  <path d="M418.25 1199.45 c-22.20 -2.25 -40.10 -14.65 -49.55 -34.30 -1.50 -3.05 -2.95 -5.75 -3.25 -5.95 -0.40 -0.20 -0.35 -0.45 0.10 -0.80 0.55 -0.40 0.55 -0.45 -0.05 -0.25 -0.40 0.10 -0.70 0.60 -0.70 1.05 0.15 1.20 -1 0.65 -1.20 -0.60 -0.10 -0.70 0.55 -1.70 1.95 -3.10 l2.10 -2.05 -0.35 -7.25 c-0.65 -13.80 -2.35 -28.80 -5.05 -44.95 -1.55 -9.20 -1.70 -10.80 -1.65 -20 0.10 -13.75 -0.70 -22.15 -3.45 -36.25 -2.30 -12 -4.20 -19.70 -5.15 -21.25 -0.90 -1.45 -5.05 -16.95 -5.75 -21.70 -0.45 -2.70 -2.15 -4.55 -4.15 -4.55 -1.35 0 -1.60 -0.30 -2.60 -2.85 -0.65 -1.60 -2 -4.70 -3 -6.90 -2.25 -4.90 -3.55 -8.75 -5.50 -16.50 -0.85 -3.30 -1.90 -6.35 -2.35 -6.85 -0.65 -0.70 -1.30 -0.85 -3.35 -0.65 l-2.55 0.30 -3.80 -5.65 c-2.10 -3.10 -4.20 -5.75 -4.65 -5.80 -0.50 -0.10 -1.40 0.30 -2.05 0.90 -1 0.95 -1.60 1.10 -3.55 0.85 -3.20 -0.35 -4.45 0.85 -4 3.80 1.15 8 1 10.35 -0.75 10.35 -0.60 0 -0.95 -0.25 -0.85 -0.60 0.15 -0.35 -1.65 -1.45 -4.30 -2.65 -2.50 -1.15 -5.80 -2.85 -7.30 -3.80 -3.50 -2.25 -4.70 -2.70 -4.30 -1.70 0.20 0.50 -0.05 0.75 -0.70 0.75 -1.25 0 -1.25 -0.60 -0.25 -9 0.80 -7.05 2 -22.35 2.70 -34.25 0.45 -7.50 0.40 -8.10 -0.50 -9.35 -0.65 -0.90 -0.95 -2.20 -0.95 -3.95 0 -2.15 0.20 -2.80 1.30 -3.80 0.90 -0.80 1.20 -1.45 0.95 -2.05 -0.20 -0.45 -0.70 -1.75 -1.10 -2.85 -0.40 -1.10 -3.25 -7.10 -6.40 -13.35 -5.35 -10.55 -6.75 -14.40 -5.25 -14.40 0.30 0 0.50 0.25 0.50 0.50 0 1 1.05 0.45 3.60 -1.85 1.45 -1.35 3.45 -3 4.35 -3.75 l1.75 -1.30 -1.25 -1.75 c-0.65 -0.95 -3.90 -4.65 -7.20 -8.25 -9.60 -10.30 -15 -18.65 -20.80 -31.85 -2.55 -5.75 -5.55 -11.10 -11.40 -20.25 -0.35 -0.55 -0.40 -0.45 -0.20 0.45 0.25 0.95 0.10 1.10 -0.65 1 -1.25 -0.25 -4.15 -6.10 -4.15 -8.50 -0.05 -1.40 0.20 -1.90 1.20 -2.45 2.15 -1.15 2 -2.40 -0.65 -6.80 -2.90 -4.85 -6.80 -13.45 -12.15 -26.70 -3.95 -9.80 -4.45 -11.85 -3.35 -14.25 0.50 -1.05 0.40 -1.45 -0.45 -2.40 -3.40 -3.70 -6.40 -10.35 -4.65 -10.35 0.30 0 0.50 0.25 0.50 0.50 0 0.30 0.20 0.50 0.40 0.50 0.45 0 -3.20 -18.40 -5.85 -29.50 -1.40 -6 -3.70 -19 -4.30 -24.25 -1.05 -10 -1.30 -11.95 -1.60 -12.45 -0.20 -0.30 -0.40 -0.75 -0.45 -1.05 -0.05 -0.25 -1.10 -3.85 -2.35 -8 -1.25 -4.10 -2.85 -10.75 -3.65 -14.75 -1.20 -6.50 -2.20 -9.70 -2.20 -7.35 0 0.45 -0.35 0.85 -0.75 0.85 -0.95 0 -0.95 -2.30 0 -7.75 1.85 -10.45 4.35 -33.10 5 -45.25 0.60 -11.55 1.95 -17.35 8.25 -36.50 2.50 -7.50 11.75 -30.40 12.75 -31.50 0.40 -0.45 1.20 -2.25 1.75 -4 1.20 -3.80 6.15 -13.30 10.75 -20.75 4.10 -6.65 5.80 -10 7.55 -15 1.70 -4.90 2.95 -6.75 8.20 -12.40 3.60 -3.80 4.30 -4.35 5.80 -4.35 1.50 0 1.70 0.15 1.70 1.30 0 0.70 -0.50 2.85 -1.05 4.80 -1.05 3.50 -1.05 3.50 -0.10 4.80 2.15 2.90 4.20 1.55 5.15 -3.35 1.05 -5.65 5.30 -10.75 17.60 -21.15 12.35 -10.45 15.65 -12.90 17.40 -12.90 1.30 0 1.50 0.15 1.05 0.70 -1 1.15 2.25 1.35 3.75 0.20 1.35 -1.10 1.60 -2.05 0.45 -1.60 -0.50 0.20 -0.75 0 -0.75 -0.75 0 -0.80 0.55 -1.20 2.75 -1.80 2.85 -0.85 4.75 -2.60 4.75 -4.30 0 -0.55 0.25 -0.95 0.50 -0.95 0.30 0 0.50 0.25 0.50 0.50 0 0.30 0.25 0.50 0.60 0.50 1 0 10.40 -6.20 10.40 -6.85 0 -0.35 0.35 -0.65 0.75 -0.65 0.45 0 0.75 0.50 0.75 1.30 0 1.45 2.90 4.70 4.15 4.70 1.30 0 2.85 -2.45 2.85 -4.55 0 -2.35 1.85 -4.25 7.55 -7.65 4.85 -2.90 9.75 -5 19.95 -8.45 6.40 -2.20 9.35 -2.95 13.25 -3.35 7.85 -0.80 15.20 -1.85 33.25 -4.75 9.20 -1.50 19.85 -3.20 23.65 -3.75 6.45 -1 19.85 -4.05 28.10 -6.50 1.90 -0.55 4.15 -1 4.90 -1 0.75 0 2.10 -0.35 3 -0.80 0.85 -0.45 5.10 -1.80 9.45 -3 4.35 -1.15 10.35 -2.95 13.40 -3.90 6.60 -2.15 10.25 -2.45 7.70 -0.60 -0.60 0.45 5.35 0.60 24.90 0.60 28.65 0 35.90 0.50 46.45 3.15 9.10 2.35 21.55 7.05 26.05 9.85 1.05 0.70 7.05 2.65 13.75 4.50 15.10 4.15 19.40 5.60 27.40 9.30 8.65 4 16.90 7.35 17.40 7.05 0.20 -0.15 0.15 -0.55 -0.20 -0.95 -0.45 -0.55 -0.35 -0.70 0.75 -0.70 1.30 0 3.70 1.50 9.30 5.75 6.40 4.85 15.40 10.50 24.75 15.50 2.50 1.35 5.35 2.95 6.35 3.60 1.05 0.65 2.65 1.15 3.65 1.15 1.20 0 1.75 0.25 1.75 0.70 0 0.45 0.60 0.80 1.40 0.90 1.10 0.10 2.15 1.25 5.50 5.90 8.75 12 14.25 27 17.10 46.50 1.95 12.95 2.65 15.50 4.50 16.50 0.80 0.45 1.25 0.30 2.20 -0.65 l1.20 -1.20 -0.90 -5.20 c-1.65 -9.30 -3 -18.15 -3 -19.30 0 -0.95 0.25 -1.15 1.65 -1.15 1.40 0 1.80 0.30 3 2.30 1.05 1.75 1.35 2.85 1.30 4.65 -0.10 3.05 2.50 8.90 10.95 24.40 8.55 15.80 11.60 21.60 15.20 29.40 5.05 10.95 4.70 10.05 7.85 21.75 7.50 27.95 9.05 34.80 11.30 49.75 0.90 6.05 1.85 12 2.05 13.20 0.30 2 0.30 2.15 -0.65 1.85 -0.95 -0.30 -1 0 -1.35 7.55 -0.40 8.65 -1.50 22.90 -2.25 28.40 -0.30 1.95 -0.65 6.45 -0.80 10 -0.40 8.80 -1.05 14.50 -2.75 24.25 -1.25 7.35 -1.45 9.80 -1.70 22.50 l-0.25 14.25 1.80 4.45 c0.95 2.50 3.15 10 4.80 16.75 2.95 11.85 3.15 12.50 6.25 18.05 4.75 8.55 5.70 9.90 7.30 10.60 1.70 0.70 10.85 6.75 11.45 7.60 0.30 0.40 0.50 0.40 0.70 -0.05 0.10 -0.35 0.45 -0.65 0.70 -0.65 0.60 0 0.55 4 -0.10 7.85 -0.50 2.70 -0.45 3.35 0.25 4.40 0.75 1.15 1 1.25 3.65 0.95 l2.80 -0.35 -0.35 3.70 c-0.20 2.05 -0.65 4.95 -1.05 6.45 -1.20 5.10 -1.25 6.85 -0.15 8.25 0.90 1.20 0.95 1.75 0.65 6.25 l-0.35 4.95 3.50 5.90 c5.80 9.65 7.60 14.25 8.40 21.15 0.35 3.25 0.10 3.60 -1.30 1.90 -0.50 -0.65 -1 -1.05 -1.15 -0.90 -0.10 0.15 -1.25 2.30 -2.50 4.75 -4.65 9 -12.55 17.85 -21.05 23.50 -2.30 1.50 -4.40 2.75 -4.65 2.75 -0.30 0 -0.80 0.35 -1.15 0.75 -0.45 0.50 -0.45 0.75 -0.05 0.75 0.30 0 0.55 0.25 0.55 0.55 0 0.40 -0.75 0.50 -2.40 0.25 -2.60 -0.35 -3.80 0.35 -4.20 2.45 -0.20 1.25 -1.90 1.65 -1.90 0.50 0 -0.65 -0.30 -0.80 -1.35 -0.60 -0.80 0.10 -3.55 0.60 -6.15 1.10 -5.90 1.10 -16.95 0.85 -22.15 -0.50 -1.85 -0.50 -3.50 -0.80 -3.60 -0.65 -0.15 0.10 0.40 1.90 1.20 3.95 3.10 8.05 4.50 18.25 3.60 26.70 -0.40 4.10 -0.35 6.15 0.40 11.60 l0.90 6.60 4.45 4.65 c3.90 4.10 6.45 7.40 10 13.15 0.75 1.20 0.95 1.30 1.10 0.65 0.10 -0.50 0.45 -0.90 0.75 -0.90 0.45 0 0.60 4.70 0.60 18.60 0 10.25 0.20 23.45 0.45 29.30 0.40 9.50 0.35 10.60 -0.35 10.60 -0.40 0 -0.85 -0.40 -0.95 -0.85 -0.10 -0.45 -1.10 1.50 -2.25 4.40 l-2.05 5.25 2.20 12.70 c1.20 7 2.35 13.65 2.50 14.75 0.15 1.10 1.50 4.05 2.95 6.50 1.45 2.50 3.10 5.40 3.70 6.50 0.55 1.15 1 1.60 1.05 1.15 0 -0.50 0.35 -0.90 0.80 -0.90 0.65 0 0.75 0.50 0.50 3.65 -0.20 1.95 -0.10 4.95 0.15 6.60 1.05 6.20 1.50 15 1.70 31.15 0.10 13.35 0 16.60 -0.50 16.60 -0.35 0 -0.65 -0.35 -0.65 -0.80 0 -1.50 -0.95 -0.15 -3.50 4.95 -6.15 12.50 -17.40 23.95 -29.15 29.95 -14.35 7.25 -30.90 8.80 -46.10 4.35 -4.50 -1.30 -10.70 -3.85 -11.60 -4.75 -1 -0.95 -2.85 -0.95 -2.45 0.05 0.20 0.55 -0.05 0.75 -0.85 0.75 -0.85 0 -1.40 -0.60 -2.30 -2.50 -1.70 -3.60 -3.90 -5.95 -9.95 -10.55 -9 -6.90 -10.60 -8.40 -10.60 -9.80 0 -1.15 0.10 -1.20 0.85 -0.60 1 0.85 1.25 1.40 -3.95 -9.05 -4.80 -9.65 -7.30 -16.45 -8.65 -23.20 -0.45 -2.50 -1.70 -6.65 -2.75 -9.25 -1 -2.65 -1.95 -5.10 -2.10 -5.50 -0.10 -0.45 -1.80 -1.05 -4.45 -1.60 -3.80 -0.80 -4.30 -0.80 -5.05 -0.10 -0.85 0.75 -0.90 0.70 -0.90 -1.05 0 -3.65 -1.75 -4.80 -7.40 -4.80 -2.70 0 -3.45 -0.20 -4.70 -1.25 -1.30 -1.10 -1.95 -1.25 -5.20 -1.25 -2.95 0 -3.70 -0.15 -3.70 -0.75 0 -0.40 0.35 -0.75 0.80 -0.75 1.20 0 0.70 -0.70 -2.05 -2.85 -2.15 -1.70 -3.35 -2.20 -7.50 -3.10 -2.75 -0.60 -7.50 -1.95 -10.55 -3 l-5.55 -1.90 -4.45 0.95 c-2.45 0.50 -7.05 1.05 -10.20 1.25 l-5.75 0.30 -6.75 3.40 c-11.35 5.70 -23.30 9.05 -34.65 9.75 -3.95 0.25 -5.85 0.65 -8.35 1.70 -4.85 2.05 -10.70 3.85 -15.75 4.85 -7.95 1.55 -23.60 0.90 -29.05 -1.20 -0.75 -0.25 -0.80 0.05 -0.50 2.65 0.45 3.85 2.05 14.20 3.55 22.95 3.25 18.95 3.40 20.55 3.10 28.75 -0.35 8.70 -1.55 14.40 -4.50 21.70 -2.10 5.15 -5.80 11.45 -8.40 14.30 -1.10 1.15 -1.95 2.30 -1.95 2.50 0 0.55 -6 6.10 -9.15 8.45 -4.50 3.40 -13.30 7.85 -18.80 9.55 -4.35 1.30 -16.05 3.20 -18.30 2.95 -0.25 -0.05 -2.30 -0.25 -4.50 -0.50z m69.85 -245.80 c0.45 -0.50 0.95 -1.45 1.15 -2.15 0.45 -1.50 2.95 -5.25 9.15 -13.60 4.35 -5.95 4.80 -6.40 6.30 -6.40 2.45 0 3.25 -1.30 5.15 -8.10 2.05 -7.35 5.65 -22.55 5.65 -23.80 0 -0.80 0.90 -1 7.15 -1.80 20.20 -2.50 44.15 -9.05 63.50 -17.25 5.40 -2.30 9.05 -3.55 10.25 -3.55 1.75 0 2.25 0.45 10.60 9.80 7.60 8.50 9.95 11.35 14.95 18.20 0.80 1.10 1.20 1.25 3.70 1.10 2.45 -0.15 3.05 0.05 5.60 1.65 4.45 2.85 6.70 3.75 8 3.15 1.60 -0.70 2.45 -2.55 2.05 -4.40 -0.45 -2.40 -5.60 -12.80 -10.95 -22.20 -5 -8.70 -5.50 -10.30 -4.10 -12.45 0.55 -0.90 0.60 -1.55 0.25 -2.85 -0.30 -0.95 -0.50 -2.55 -0.50 -3.50 0 -1.60 0.25 -1.85 3 -3.40 4.70 -2.60 10.45 -7.15 17.50 -13.95 7.25 -7 9 -9.50 7.95 -11.50 -0.75 -1.35 -2.85 -2.65 -4.40 -2.65 -0.55 0 -1.10 -0.45 -1.30 -1 -0.90 -2.75 -4.35 -2 -5 1.10 -0.85 3.95 -4.55 8.65 -7.30 9.40 -1.15 0.30 -2.35 1.15 -3.15 2.20 -0.70 0.95 -2.90 2.85 -4.90 4.25 -3.15 2.25 -3.90 2.55 -6.05 2.55 -2.35 0 -2.55 0.15 -5.65 3.30 -3.20 3.25 -5.60 4.70 -7.85 4.70 -1.30 0 -2.85 1.50 -3.70 3.55 -0.85 1.95 -12.30 6.45 -16.35 6.45 -2.30 0 -3.55 0.40 -6.90 2.05 -4.40 2.20 -11.90 4.80 -17.90 6.20 -2.05 0.45 -6.90 1.60 -10.75 2.50 -3.85 0.95 -10.15 2.20 -14 2.75 -10.25 1.60 -9.25 1.25 -10.90 3.65 -0.70 1 -7 2.35 -10.90 2.35 -2.05 0 -2.70 -0.25 -3.60 -1.25 l-1.10 -1.25 -5.80 1.45 c-8.40 2.15 -16 3.20 -20.15 2.80 -4.55 -0.45 -9.40 -2.40 -10.50 -4.30 -0.90 -1.50 -1.50 -1.75 -5.35 -2.10 -2.45 -0.20 -3.45 0.25 -4.40 2.05 -0.45 0.90 -1 1.10 -2.80 1.10 -2.15 0 -4.25 1.30 -4.25 2.70 0 0.25 -0.35 0.90 -0.80 1.35 -0.75 0.85 -0.75 1 0 2.15 0.60 0.95 1.90 1.60 4.95 2.50 5.50 1.70 11.30 2.30 22.25 2.30 l9.10 0 0 1.15 c0 2.50 -3.50 17.20 -5.75 24.05 -0.70 2.15 -1.75 4.55 -2.25 5.35 -1.20 1.65 -1.25 2.60 -0.25 3.45 1.15 0.95 0.90 4.15 -0.70 9.25 -2.05 6.40 -2.45 9.50 -1.30 10.75 1.10 1.25 2.35 1.25 3.35 0.15z m58.40 -165.15 c5 -0.75 8.10 -2.25 8.65 -4.30 l0.45 -1.55 9.45 -1.60 c11.60 -1.95 22.05 -4.50 27.85 -6.75 2.40 -0.90 6.05 -2.05 8.10 -2.50 6.50 -1.50 12.25 -3.65 22.40 -8.50 5.40 -2.60 11.10 -5.10 12.60 -5.55 3.40 -1.10 7.80 -3.20 10.65 -5.20 4.55 -3.15 6.15 -5.55 11.65 -18.05 1 -2.35 3.30 -6.65 5 -9.55 4.25 -7.15 8.10 -16.25 9 -21.15 0.60 -3.45 0.60 -4.15 -0.05 -5.45 -0.90 -1.75 -0.95 -4 -0.25 -7.25 0.30 -1.30 0.75 -3.40 1 -4.70 0.30 -1.35 0.70 -3.45 1 -4.75 3.40 -16.30 5.10 -27.45 5.10 -34.15 0.05 -8.70 -3.70 -31.90 -6.30 -39.35 -1.20 -3.45 -1.60 -5.15 -3.05 -12.50 -0.90 -4.70 -3.85 -13.55 -5.40 -16.15 -0.55 -0.95 -2.55 -4.25 -4.45 -7.30 -1.85 -3.05 -3.40 -5.85 -3.40 -6.30 0 -0.45 -0.35 -1.05 -0.75 -1.40 -0.40 -0.35 -0.75 -1.40 -0.75 -2.40 l0 -1.75 1.10 0.95 c0.75 0.70 1 0.75 0.80 0.20 -0.20 -0.40 -1.40 -3.45 -2.65 -6.75 -2.35 -5.95 -4.95 -9.75 -6.65 -9.75 -0.60 0 -0.60 0.15 -0.10 0.75 1 1.20 -1.65 0.95 -2.75 -0.25 -0.50 -0.55 -1.30 -1.10 -1.80 -1.25 -1.15 -0.35 -1.25 -1.75 -0.20 -1.75 0.40 0 0.75 -0.20 0.75 -0.50 0 -0.55 -5.30 -4.35 -12 -8.55 -2.60 -1.65 -7 -4.55 -9.75 -6.50 -6.70 -4.65 -14.30 -8.55 -18.95 -9.65 l-1.50 -0.35 1.25 1 1.20 1 -1.15 0.05 c-0.65 0 -2.20 -0.45 -3.45 -1.05 -2.25 -1 -4.45 -2.40 -17.15 -11 -9.75 -6.55 -19.90 -11.10 -27.15 -12.20 -1.95 -0.30 -3.15 -0.95 -6 -3.30 -5.75 -4.75 -10.30 -6.50 -19.40 -7.45 -6.55 -0.70 -21.15 -0.60 -27.70 0.10 -3 0.35 -8.85 0.60 -13 0.50 -4.10 -0.05 -11.65 0.25 -16.75 0.70 -5.10 0.45 -10.40 0.65 -11.80 0.45 -2.75 -0.35 -3.65 0.20 -4.60 2.75 -0.45 1.15 -1.20 1.45 -8.40 3.15 -9.15 2.15 -9.85 2.20 -11.55 0.85 l-1.25 -1 -7.40 3.75 c-8.50 4.30 -11.75 6.95 -22.05 17.70 -5.15 5.35 -6.55 6.55 -7.70 6.55 l-1.40 0 1.20 -1.35 c0.65 -0.75 0.85 -1.10 0.45 -0.80 -0.40 0.30 -1.70 0.70 -2.90 0.90 -1.80 0.30 -2.35 0.70 -3.40 2.30 -0.65 1.10 -1.60 2.80 -2 3.85 -0.45 1 -1.05 2.30 -1.35 2.85 -0.40 0.85 -0.30 0.80 0.85 -0.20 l1.30 -1.20 0 1.25 c0 0.95 -1.30 2.75 -4.40 6.25 -7.95 8.90 -13.60 16.45 -13.60 18.15 0 0.45 0.45 1.25 1 1.75 1.70 1.55 1.25 3.75 -1.85 9.35 -3.15 5.75 -6.70 13.15 -7.65 16.05 -0.55 1.75 -0.50 2.05 0.50 3.05 0.90 1 1.40 1.15 3.30 0.90 l2.20 -0.25 0 1.70 c0 2.30 -1.25 6.15 -2.50 7.95 -0.80 1.10 -1.15 2.70 -1.50 6.60 -0.25 2.85 -0.80 7.85 -1.25 11.15 -2 14.70 -2.30 18.70 -2.60 29.75 -0.30 14.05 0.30 19.40 3.15 26.60 1.90 4.95 2.20 6.25 3.45 15.60 1.90 13.80 4.45 20.50 15.05 39.40 4.50 8 8.65 15.80 9.25 17.35 1.10 3 3.20 6.55 5 8.45 0.60 0.65 2.65 3.90 4.55 7.25 8.25 14.30 14.10 20.25 25.75 26.05 5.80 2.90 12.25 5.15 17.60 6.10 2.35 0.40 10.05 0.95 17.05 1.20 13.85 0.50 13.40 0.50 22.50 0.15 5.25 -0.20 14.80 0.35 27.25 1.55 3.95 0.40 30.60 -0.15 34.25 -0.70z m156 -354.15 c0 -0.10 -0.55 -0.70 -1.25 -1.35 -1.05 -1 -1.25 -1.05 -1.25 -0.30 0 0.45 0.50 1.05 1.15 1.30 1.35 0.55 1.35 0.55 1.35 0.35z"/>
  <path d="M498.50 924.10 c0 -0.80 0.55 -3.10 1.25 -5.10 1.50 -4.45 1.55 -5.10 0.25 -6.25 -1.25 -1.10 -1.25 -3 -0.15 -8.85 l0.85 -4.40 4.40 0 4.40 0 0 1.75 c0 2.10 -2.05 11.90 -3.70 17.60 -1.35 4.70 -3 6.60 -5.65 6.65 -1.50 0 -1.65 -0.15 -1.65 -1.40z"/>
  <path d="M625.95 897.10 c-1.50 -1.60 -3.65 -3.95 -4.75 -5.25 -1.75 -1.95 -2.35 -2.35 -3.80 -2.35 -1.90 0 -3.05 -1 -8.10 -7.45 -1.35 -1.75 -3 -3.50 -3.65 -3.90 -0.85 -0.55 -1.15 -1.20 -1.15 -2.60 l0 -1.80 4.40 -1.70 c2.40 -0.90 5.25 -1.70 6.35 -1.75 1.95 -0.05 2.05 0.05 3.45 2.70 0.80 1.50 4.10 7.50 7.35 13.30 6.65 11.80 7.25 13.70 4.30 13.70 -1.40 0 -2.15 -0.50 -4.40 -2.90z"/>
  <path d="M493.75 781.65 c-5 -0.40 -8.55 -1.25 -9.65 -2.30 -0.85 -0.80 -1.95 -1.10 -4.35 -1.25 -2.80 -0.20 -3.25 -0.35 -3.25 -1.15 0 -0.70 0.35 -0.95 1.40 -0.95 0.75 0 5 -1.55 9.35 -3.45 19.95 -8.60 32.75 -11.50 72.25 -16.50 18.40 -2.30 18.90 -2.35 31 -3.30 13.05 -1 20.60 -2.85 27.90 -6.75 3 -1.65 6.10 -4.15 6.10 -5 0 -1.15 1.45 -0.40 2.45 1.25 1.20 2.10 2.70 2.25 6.65 0.75 1.45 -0.55 3.25 -1 4.05 -1 1.20 0 1.35 0.20 1.35 1.55 0 0.85 -0.45 2.10 -1 2.80 -0.55 0.70 -1 1.90 -1 2.65 0 0.75 -0.30 1.60 -0.60 1.85 -1.90 1.50 -7.65 3.95 -15.55 6.65 -4.90 1.65 -12.20 4.50 -16.25 6.30 -4.85 2.20 -8.25 3.40 -10 3.55 l-2.65 0.30 0.15 -1.90 0.15 -1.85 5.50 -1.95 c7.70 -2.70 9.70 -4.50 7.35 -6.65 -0.95 -0.80 -1.30 -0.75 -9 1.90 -7.75 2.70 -16.90 6.45 -26.35 10.80 -12.70 5.90 -19.60 8 -26.05 8 -2.50 0 -3.60 -0.25 -4.55 -1 -0.95 -0.75 -1.50 -0.85 -2.20 -0.50 -1.30 0.70 -1.65 1.45 -1.95 4 l-0.25 2.25 -4 0.60 c-3.65 0.55 -31.60 0.75 -37 0.30z"/>
  <path d="M433.65 777.55 c-5.75 -2.40 -11.25 -5.50 -14.30 -8.10 -1.95 -1.70 -2.35 -2.30 -2.35 -3.75 0 -1.55 0.15 -1.70 1.45 -1.70 0.90 0 3.35 1.20 6.60 3.25 2.85 1.80 7.85 4.55 11.05 6.15 5.65 2.75 5.85 2.90 5.85 4.50 0.05 1.55 -0.05 1.60 -1.80 1.60 -1.05 0 -3.95 -0.90 -6.50 -1.95z"/>
  <path d="M580.50 770.30 c0 -1.70 0.15 -1.90 2.30 -2.80 1.25 -0.55 2.95 -1 3.75 -1 1.35 0 1.45 0.15 1.45 2 0 2.35 -0.85 2.95 -4.80 3.35 l-2.70 0.30 0 -1.85z"/>
  <path d="M627.50 738.25 c0 -0.25 0.35 -0.75 0.75 -1.20 0.40 -0.45 3.50 -4.15 6.90 -8.30 3.45 -4.10 8.45 -9.75 11.20 -12.50 l5.05 -5 0.30 -10.75 c0.35 -10.50 1.55 -21.75 3.05 -28.75 0.45 -1.95 1 -7.10 1.25 -11.50 0.30 -4.40 0.95 -12.25 1.55 -17.50 0.55 -5.20 0.95 -10.25 0.85 -11.10 -0.10 -0.90 0 -1.70 0.20 -1.75 0.65 -0.25 1.05 -24.50 0.45 -26.05 -0.50 -1.20 -0.40 -1.35 0.65 -1.35 0.70 0 1.40 0.45 1.80 1.25 0.40 0.75 1.45 1.50 2.55 1.85 1.45 0.40 1.95 0.85 2.15 1.85 0.80 3.85 1.80 14.45 1.80 19.15 0 3 0.35 11.40 0.80 18.70 1.10 19.25 0.60 24.40 -4.50 44.95 -2 8.10 -2.15 9.10 -1.50 10.10 0.40 0.60 0.70 1.75 0.70 2.50 0 2.45 -3 13.30 -4.25 15.40 -2.35 4.05 -15.70 14.90 -22.40 18.20 -3.30 1.60 -9.35 2.75 -9.35 1.80z"/>
  <path d="M379.85 691.15 c-2.60 -7.50 -4.80 -20.65 -3.45 -20.65 0.70 0 1.55 1.55 1.25 2.35 -0.10 0.30 0 0.70 0.30 0.85 0.25 0.15 0.35 0.75 0.20 1.30 -0.15 0.55 -0.05 1 0.25 1 0.30 0 0.85 1.40 1.30 3.15 0.40 1.70 1.05 4.35 1.50 5.85 0.40 1.50 0.85 3.55 1 4.50 0.15 0.95 0.50 2.60 0.75 3.65 0.40 1.70 0.35 1.85 -0.65 1.85 -0.95 0 -1.35 -0.60 -2.45 -3.85z"/>
  <path d="M369 579.75 c0 -3.30 0.85 -4.75 2.70 -4.75 0.85 0 1.30 0.20 1.05 0.40 -0.55 0.40 -1.75 3.55 -1.75 4.55 0 0.55 0.15 0.55 0.75 0.05 0.65 -0.55 0.75 -0.40 0.75 0.70 0 1.15 -0.20 1.30 -1.75 1.30 -1.75 0 -1.75 0 -1.75 -2.25z"/>
  <path d="M431 508.55 c0 -1.15 -0.30 -2.20 -0.80 -2.55 -0.45 -0.45 -0.70 -1.30 -0.60 -2.40 0.15 -1.70 0.30 -1.80 3.45 -2.85 1.80 -0.65 7.75 -2.20 13.25 -3.50 5.45 -1.30 13.55 -3.30 17.95 -4.45 l8 -2.05 11.50 0 c13.70 0 21.25 0.80 21.25 2.30 0 0.60 -0.40 1 -1 1.05 -0.55 0.05 -1.60 0.10 -2.35 0.20 -0.80 0.05 -5.45 0.80 -10.40 1.65 -4.95 0.85 -12.60 2.10 -17 2.80 -4.40 0.70 -15.30 3.10 -24.25 5.30 -13.65 3.40 -16.45 4.20 -17.35 5.25 -0.60 0.65 -1.25 1.20 -1.40 1.20 -0.15 0 -0.25 -0.85 -0.25 -1.95z"/>
  <path d="M548.90 501.60 c-1.70 -0.35 -1 -1.60 0.85 -1.60 1.40 0 1.75 0.20 1.75 0.95 0 0.95 -0.50 1.10 -2.60 0.65z"/>
  <path d="M274.50 945.95 c0 -0.30 -0.60 -1.25 -1.30 -2.10 -1.70 -2 -6.30 -11.25 -7.60 -15.35 -2.25 -6.85 -2.75 -10.40 -2.80 -19.60 -0.05 -8.75 -0.05 -8.90 1 -8.90 0.90 0 1.55 1 3.60 5.65 3.20 7.05 4.05 10.25 6.85 25 2.55 13.65 2.75 15.85 1.25 15.85 -0.55 0 -1 -0.25 -1 -0.55z"/>
  <path d="M276.80 916.90 c-0.05 -0.35 -0.60 -2.15 -1.20 -4 -0.60 -1.85 -1.10 -4.15 -1.10 -5.10 0 -1.70 0.10 -1.80 1.65 -1.80 1.45 0 1.75 0.30 3 2.65 1.05 2.05 1.35 3.30 1.35 5.75 l0 3.10 -1.75 0 c-1 0 -1.85 -0.25 -1.95 -0.60z"/>
  <path d="M275.50 891.50 c-3.50 -6.95 -5 -10.50 -5 -11.75 0 -1.65 0.10 -1.75 1.70 -1.75 l1.70 0 5.30 9.95 c3.85 7.30 5.30 10.45 5.30 11.75 0 1.75 -0.05 1.80 -2 1.80 l-2 0 -5 -10z"/>
  <path d="M823.10 832.40 c-0.70 -3.75 -2.05 -5.40 -4.50 -5.40 l-1.75 0 0.35 -11.10 c0.20 -6.15 0.45 -11.65 0.65 -12.25 0.35 -1.60 2.15 -1.55 2.15 0.05 0 0.65 0.65 2.75 1.45 4.70 2.10 5.05 3.45 10.95 4.05 17.60 0.65 6.65 0.35 9.50 -0.95 9.50 -0.65 0 -1 -0.70 -1.45 -3.10z"/>
  <path d="M209.50 532.75 c0 -1.85 2.25 -8.35 5.35 -15.50 1.90 -4.40 2 -4.50 3.80 -4.65 1.70 -0.15 1.85 -0.05 1.85 1.15 0 0.70 -1.75 5.65 -3.85 11 l-3.90 9.75 -1.60 0 c-1.55 0 -1.65 -0.10 -1.65 -1.75z"/>
  <path d="M769.70 521.90 c-0.50 -1.20 -1.05 -2.25 -1.20 -2.40 -0.30 -0.25 -2.20 -3.70 -6.80 -12.25 -2.30 -4.30 -5.20 -13.50 -5.20 -16.45 0 -1 0.10 -1.80 0.25 -1.80 1.45 0 5.25 7.35 8.50 16.25 1 2.75 2 5.40 2.30 5.85 0.25 0.50 0.45 1.20 0.45 1.65 0 0.40 0.45 1.45 1 2.35 0.55 0.90 1 2.05 1 2.55 0 0.45 0.20 0.85 0.45 0.85 0.25 0 0.55 0.40 0.70 0.90 0.15 0.45 0.60 1.70 1.05 2.75 0.80 1.85 0.80 1.85 -0.35 1.85 -0.95 0 -1.40 -0.50 -2.15 -2.10z"/>
  <path d="M210 501.30 c0 -1.25 0.80 -5 1.75 -8.40 2.05 -7.10 8.20 -21.90 9.15 -21.90 0.30 0 0.60 0.35 0.60 0.75 0 1.10 1.10 0.40 2.30 -1.40 1.90 -2.90 10.55 -12.15 15.80 -16.85 6.55 -5.90 14.45 -11.85 18.65 -14 1.80 -0.90 3.25 -1.85 3.25 -2.10 0 -0.20 0.25 -0.40 0.50 -0.40 0.30 0 0.50 0.60 0.50 1.30 0 0.85 -1.20 2.85 -3.65 5.90 -4.50 5.55 -9.10 11.75 -11.05 14.85 -0.80 1.25 -2.25 2.70 -3.25 3.25 -1.10 0.55 -2.60 2.15 -3.75 3.95 -1.10 1.65 -4.15 5.95 -6.80 9.50 -5.45 7.30 -9.60 13.40 -13.50 19.90 -1.80 3 -3.25 4.80 -4.50 5.60 -1.05 0.65 -2.05 1.45 -2.25 1.75 -0.15 0.25 -1.10 0.50 -2.05 0.50 -1.70 0 -1.70 0 -1.70 -2.20z"/>
  <path d="M742.65 474.80 c-3.40 -5.80 -5.15 -9.35 -5.15 -10.30 0 -0.85 0.15 -1.45 0.40 -1.45 0.20 0.05 2.10 1.95 4.25 4.20 2.10 2.30 3.85 3.85 3.85 3.45 0 -0.40 0.35 -0.70 0.75 -0.70 0.40 0 0.75 0.35 0.75 0.75 0 0.40 0.70 1.20 1.50 1.85 1.65 1.20 1.95 2.40 0.65 2.45 -0.55 0 -0.65 0.15 -0.25 0.30 0.30 0.10 0.60 0.45 0.60 0.70 0 0.75 2.60 4.60 3.70 5.55 0.60 0.45 0.90 0.95 0.80 1.10 -0.15 0.15 -1.75 0.40 -3.50 0.55 l-3.25 0.35 -5.10 -8.80z"/>
  <path d="M275 433.85 c0 -2.05 1.30 -3.35 3.25 -3.35 1.20 0 1.30 0.10 0.70 0.85 -0.65 0.75 -0.60 0.80 0.45 0.55 0.90 -0.25 1.10 -0.10 1.10 0.85 0 1.40 -1.95 2.75 -4 2.75 -1.35 0 -1.50 -0.15 -1.50 -1.65z"/>
 </g>
 <g fill="#000000">
  <path d="M406 1223.25 c-4.95 -0.80 -11.40 -2.75 -15.95 -4.80 -1.75 -0.80 -3.85 -1.45 -4.60 -1.45 -3.35 0 -10.90 -4.20 -16 -8.90 -3.80 -3.55 -6.75 -7.75 -10.20 -14.65 -1.30 -2.55 -3.45 -6.20 -4.80 -8 -3.05 -4.10 -4 -6.20 -6.15 -13.80 -2 -7 -3.85 -17.65 -5.35 -30.90 -0.90 -8.20 -1.05 -11.35 -0.80 -23 0.15 -7.40 0.55 -15.65 0.85 -18.25 0.75 -5.80 0.35 -20.95 -0.75 -28.50 -0.40 -2.90 -1.65 -9.75 -2.75 -15.25 -1.05 -5.50 -2.30 -12.80 -2.70 -16.25 -1.90 -15.45 -4.10 -24.25 -8.60 -34.60 -1.85 -4.20 -4.40 -10.25 -5.75 -13.40 -1.30 -3.15 -2.50 -5.40 -2.65 -5 -0.10 0.40 -0.35 2.20 -0.55 4 -0.70 7.10 -4.80 36.50 -5.25 37.75 -0.50 1.35 -3.45 2.95 -4.60 2.50 -0.55 -0.20 -1.10 2.80 -2.55 14.35 -1.20 9.30 -2.15 15 -2.60 15.75 -0.45 0.60 -1.40 1.25 -2.15 1.40 -0.75 0.15 -2.25 0.50 -3.35 0.80 -5.70 1.60 -7.35 0.35 -8.20 -6.05 -0.50 -4 -1.25 -7.40 -3.30 -15.50 -2.20 -8.75 -6.40 -21.35 -7.50 -22.50 -3.05 -3.20 -5.10 -10.85 -5.90 -22 -0.80 -11.65 -0.65 -36.75 0.30 -46 l0.75 -7.25 -2.20 -11.85 c-1.25 -6.55 -2.75 -13.75 -3.45 -16.05 -1.25 -4.35 -5.85 -14.50 -13.10 -29.10 -5.35 -10.70 -6.70 -13.70 -15.15 -34.25 -8.40 -20.35 -9.15 -22 -13 -29 -7.90 -14.30 -16.95 -33.80 -20.60 -44.50 -1.90 -5.60 -13.85 -47.30 -16.10 -56.25 -4.05 -16.25 -8.30 -43.90 -8.30 -54.40 0 -2.30 -0.55 -4.20 -2.75 -9.70 -1.50 -3.80 -2.75 -7.60 -2.75 -8.45 0 -2.15 2.55 -4.40 4.55 -4 1.35 0.25 1.40 0.20 1.75 -2.55 0.35 -2.90 -0.55 -12.20 -1.35 -13.75 -0.65 -1.20 -3.35 -2.70 -6.20 -3.35 -7.55 -1.85 -17.50 -8 -33.50 -20.85 -2.45 -1.95 -4.95 -3.70 -5.50 -3.90 -0.55 -0.15 -1.80 -1.10 -2.85 -2.05 -1 -0.95 -3.70 -3 -6 -4.55 -2.25 -1.60 -5 -3.60 -6.10 -4.50 -1.60 -1.35 -2.10 -1.55 -3.15 -1.15 -3.90 1.45 -9.70 -4.60 -22 -23.05 -10.85 -16.30 -14.35 -22.60 -20.30 -36.25 -1.80 -4.10 -4.15 -9.50 -5.30 -11.90 -11.60 -24.90 -14.70 -36.70 -14.80 -55.85 0 -7.40 0.10 -8.50 1.10 -10.60 1.25 -2.75 2.60 -3.60 5.15 -3.25 l1.90 0.25 0.55 -3.85 c2.05 -13.10 5.70 -26.65 7.50 -27.75 0.30 -0.20 0.55 -1.20 0.55 -2.30 0 -4.45 3.20 -11.40 8.30 -18.10 2.90 -3.80 15.95 -17.15 27.30 -27.95 7.60 -7.25 8.50 -7.95 10.10 -7.95 1 0 2.25 0.25 2.75 0.60 0.85 0.50 1.35 0.25 3.85 -2.05 3.70 -3.40 7.90 -6.20 19.50 -13.10 5.15 -3.10 11.70 -7.10 14.55 -9 2.85 -1.90 5.95 -3.55 6.95 -3.75 2.10 -0.40 4.35 0.50 5.45 2.10 0.55 0.90 1.25 1.20 2.50 1.20 2.65 0 4.45 1.85 4.50 4.55 0 1.70 0.30 2.50 1.40 3.55 1.70 1.70 1.70 3.10 -0.10 6.70 -1.15 2.25 -2.20 3.45 -4.45 5.10 -4.50 3.25 -5.35 4.30 -5.20 6.50 0.15 2.05 -0.20 2.60 -4.30 5.85 -2.75 2.20 -4.35 5.15 -7.80 14.40 -1.40 3.75 -1.70 5.10 -1.30 5.85 1 1.85 0.60 4 -1.05 5.60 -2.05 2.05 -2.95 6.25 -1.75 7.95 1.20 1.75 1 4.25 -0.45 5.70 -0.65 0.70 -1.55 1.25 -1.95 1.25 -0.45 0 -0.90 0.70 -1.10 1.85 -0.20 1 -0.35 12.20 -0.40 24.85 -0.05 23 -0.05 23.05 1.30 30.70 1.25 7 1.30 7.85 0.65 9.45 -0.65 1.60 -0.65 1.95 0.45 4.55 1.55 3.85 12.10 23.05 13.50 24.60 0.60 0.70 2.10 2.70 3.30 4.50 5.10 7.55 14 18 18.30 21.60 2.90 2.40 5.20 3.65 5.65 3.05 0.20 -0.20 0.75 -1.75 1.25 -3.40 0.50 -1.65 1.75 -5.25 2.80 -8 1.55 -3.95 2.15 -6.65 3 -12.75 1.80 -13.35 4.40 -22.70 9.60 -34.65 3.15 -7.15 4.15 -8.35 6.90 -8.35 1.45 0 4 2.65 4 4.10 0 0.60 -1.45 4.50 -3.25 8.65 -2.85 6.70 -6.75 18.55 -6.75 20.65 0 0.65 0.20 0.60 1.10 -0.20 0.65 -0.55 1.75 -1.40 2.45 -1.85 0.75 -0.45 2.50 -2.80 3.95 -5.20 3.90 -6.50 8.05 -12.60 13.50 -19.90 2.65 -3.55 5.70 -7.85 6.80 -9.50 1.15 -1.80 2.65 -3.40 3.75 -3.95 1 -0.55 2.45 -2 3.25 -3.25 4.50 -7.15 18.20 -24.10 24.95 -30.80 8.10 -8.05 14.80 -13 30.25 -22.25 9.40 -5.65 9.85 -6 7.45 -6 -0.95 0 -2.95 -0.30 -4.45 -0.70 -3.80 -1 -14.95 -5.55 -16.70 -6.85 -0.95 -0.70 -2.60 -1.20 -4.75 -1.45 -3.50 -0.40 -4.95 -0.90 -6.05 -2.20 -0.40 -0.50 -1.45 -0.80 -2.75 -0.80 -2.25 0 -4.75 -1.45 -4.75 -2.80 0 -0.35 -0.75 -1 -1.70 -1.40 -4.15 -1.70 -4.30 -4.55 -0.60 -11.15 1.50 -2.70 2.55 -5 2.30 -5.15 -0.20 -0.15 -0.50 -0.60 -0.55 -1 -0.10 -0.40 3.25 -7.10 7.50 -14.90 5.45 -10.05 8 -14.35 8.85 -14.70 0.65 -0.30 1.30 -0.95 1.45 -1.50 0.20 -0.50 0.65 -0.90 1 -0.90 0.70 0 1.40 -2 2 -5.95 0.40 -2.40 2.10 -7.90 4.95 -15.80 1.25 -3.55 1.80 -5.85 1.80 -7.90 0 -3.25 0.35 -2.95 -5.75 -4.80 -7.05 -2.10 -13.20 -7 -15.95 -12.70 -2.70 -5.55 -5.80 -15.75 -6.60 -22 -1.05 -8.10 -0.80 -11.80 1.20 -15.90 0.85 -1.75 1.80 -4.30 2.10 -5.70 1.05 -4.75 4.65 -8.30 10.25 -10.05 3.75 -1.20 15.75 -1.50 22 -0.55 12.45 1.90 19.85 6.20 25.85 15 4.70 6.90 6.25 12.50 5.75 21.15 -0.45 8.15 -2.85 15.10 -6.80 20.05 l-1.60 2 2.60 6.95 2.60 7 2.60 -0.05 c3.40 0 4.25 0.80 6 5.55 1.20 3.25 5.45 11.10 6.75 12.40 0.25 0.25 1 0 1.80 -0.65 1.85 -1.45 4.25 -1.35 6.15 0.25 0.85 0.70 1.55 1.60 1.55 2 0 0.40 0.45 0.70 1 0.70 0.65 0 1 0.35 1 1 0 1.15 0.35 1.20 2.30 0.45 1 -0.35 1.70 -0.35 2.50 0.05 0.85 0.50 1.40 0.40 2.75 -0.25 5.20 -2.70 12.75 -9.55 16.20 -14.75 3.35 -5.05 7.35 -15.70 8.75 -23.25 3.05 -16.70 3.65 -18.50 6.65 -19.90 1 -0.45 1.85 -1.15 1.85 -1.55 0 -0.60 0.75 -2.40 3.95 -9.55 1.35 -2.95 1.85 -4.90 3 -11 1 -5.40 2.25 -9.70 4.80 -16.40 0.80 -2.25 1.25 -4.45 1.30 -6.50 0 -1.70 0.20 -4.65 0.45 -6.60 0.25 -1.90 0.80 -7 1.25 -11.25 0.50 -4.80 1.20 -8.80 1.85 -10.50 0.95 -2.55 1.05 -3.90 1.10 -17.35 0.05 -10.95 0.20 -14.75 0.70 -15.20 0.30 -0.35 0.60 -1.15 0.60 -1.80 0 -1.90 1.30 -4.55 2.45 -4.90 0.60 -0.15 1.05 -0.45 1.05 -0.65 0 -0.20 -1.15 -1.10 -2.50 -2.05 -3.65 -2.45 -7.60 -6.95 -9.40 -10.65 -3.60 -7.45 -5.10 -13.95 -5.10 -21.90 0 -8.25 2.20 -15.25 6.20 -19.85 2.45 -2.80 7.35 -5.95 11.05 -7.10 1.65 -0.55 4.05 -1.55 5.40 -2.30 3.10 -1.75 7.05 -2.10 11.20 -1.05 1.75 0.45 5.35 1.05 8.05 1.30 2.75 0.25 6.20 0.90 7.65 1.50 3.40 1.25 8.60 5.15 13.45 10 6.35 6.30 8.50 12.50 8.50 24.15 0 10.80 -2.60 18.05 -8.70 24.15 -3.95 3.90 -8.65 6.55 -14.30 8.05 -3.40 0.85 -14.75 1.25 -17.85 0.55 l-1.55 -0.35 -0.20 14.85 c-0.15 14.65 -0.05 16.40 1.20 22.35 l0.65 3 0.25 -7.40 0.25 -7.45 1.65 -1.45 c2.25 -2 4.65 -2 6.70 0.10 l1.55 1.50 -0.30 4.60 c-0.30 4.90 0.30 19 1.35 30.70 0.65 6.95 0.70 7.15 3.10 11.85 2.15 4.25 2.60 4.75 4.05 5.05 0.90 0.15 2.25 0.80 3 1.45 1.20 1.05 1.35 1.55 1.65 5.85 0.25 3.85 0.65 5.45 2.10 8.95 1 2.35 2.55 6 3.40 8.15 1.80 4.40 5.10 9.15 7.50 10.85 2.10 1.50 8.15 3.50 19.25 6.35 8 2.05 9.65 2.30 14.75 2.35 5.65 0.05 5.85 0 9.25 -1.70 3.10 -1.55 3.65 -2.05 4.90 -4.50 0.90 -1.80 1.65 -4.40 2.15 -7.50 0.50 -3.25 1.05 -5.05 1.70 -5.75 0.55 -0.60 1.45 -2.35 2 -4 2 -5.80 4.45 -8.75 8.15 -9.80 1 -0.25 2 -1.05 2.50 -1.95 1.25 -2.05 4.15 -2.90 6.30 -1.85 0.85 0.40 1.65 0.60 1.75 0.45 0.30 -0.45 1.80 -6.35 1.80 -7 0 -0.25 -1.30 -0.95 -2.90 -1.55 -5.95 -2.25 -10.90 -7.50 -13.45 -14.35 -1.25 -3.25 -1.30 -4.15 -1.50 -14.15 -0.20 -11.05 0 -13.30 1.90 -18.25 1.55 -4.15 6 -8.80 10.75 -11.15 3.50 -1.70 4 -1.80 9.90 -2.05 6.80 -0.25 8.35 0 16.95 2.75 6.95 2.20 10.55 4.65 14.95 10.15 7.10 8.80 9.55 14.20 9.60 21.25 0.05 4.15 -0.10 4.80 -1.65 8 -1.30 2.75 -2.85 4.65 -7 8.80 -4.35 4.35 -6.05 5.65 -9.50 7.35 -2.30 1.15 -4.45 2.10 -4.80 2.10 -0.50 0 -4.75 2.10 -5.70 2.80 -0.05 0.10 0.45 2 1.20 4.30 1.40 4.25 3 6.80 3.40 5.35 1.60 -5.50 2 -6.45 3 -7.10 2.25 -1.45 4.80 -1.25 6.60 0.55 1.30 1.25 1.35 1.50 0.95 4.10 -0.20 1.50 -0.40 4.65 -0.40 7 -0.05 3.65 0.10 4.50 1.10 5.85 0.60 0.85 1.25 2.25 1.40 3.10 0.20 0.85 0.55 1.70 0.75 1.85 0.25 0.15 0.45 0.60 0.45 1.05 0 0.40 0.95 2.05 2.05 3.70 1.95 2.75 2.25 2.95 4.05 2.95 2.50 0 3.70 0.65 4.65 2.55 0.60 1.05 0.70 2.15 0.45 3.75 -0.30 2.05 -0.20 2.40 1.05 3.70 0.75 0.80 1.65 1.30 2 1.15 1.10 -0.40 4.05 1.30 4.70 2.65 0.80 1.80 0.70 4.60 -0.30 6.25 -1.05 1.70 -3.80 3.15 -5.50 2.80 -1.10 -0.20 -1.20 -0.10 -0.90 1.10 0.65 2.75 4.05 8.80 6.30 11.25 l2.35 2.55 1.10 -1 c0.70 -0.65 1.80 -1 3.10 -1 1.60 0 2.25 0.35 3.40 1.55 0.75 0.90 1.50 1.90 1.60 2.25 0.15 0.50 1.30 -0.15 3.70 -2.10 1.90 -1.55 3.95 -3.05 4.55 -3.35 4.55 -2.45 9.30 3.05 6.10 7.10 -0.55 0.70 -2.85 2.75 -5.15 4.50 -4.05 3.20 -4.10 3.25 -3.90 5.25 0.20 1.75 0 2.25 -1.40 3.60 -1.45 1.50 -1.70 1.55 -4.30 1.30 -1.75 -0.20 -3.75 -0.85 -5.45 -1.80 -1.50 -0.85 -2.95 -1.55 -3.25 -1.55 -0.60 0 -7.60 5.85 -13.60 11.35 -2.30 2.10 -5.30 4.65 -6.70 5.70 -2.95 2.25 -9.70 5.50 -14.05 6.80 -1.75 0.50 -3.15 1.05 -3.15 1.30 0 0.20 0.95 0.35 2.15 0.35 1.15 0 5.05 0.45 8.60 1 13.50 2.10 23.70 4.45 37.90 8.75 l8.95 2.75 1.70 -1.50 c3.25 -2.85 5.70 -2.10 17.45 5.20 3.80 2.35 7.85 4.55 9 4.85 5.45 1.40 14.65 4.15 15.85 4.75 1.65 0.85 2.40 2.15 2.40 4.05 0 1.35 0.45 1.60 10.35 6.15 5.70 2.60 12.35 5.95 14.80 7.35 7.65 4.55 14.30 10.20 19.10 16.30 l1.50 1.90 6.40 -9.25 c13.05 -18.85 16.20 -24.70 16.90 -31.25 1.05 -10.05 0.25 -20.60 -1.85 -23.60 -1.55 -2.30 -1.55 -4.60 0.05 -6.20 0.65 -0.70 1.50 -1.25 1.90 -1.25 0.40 0 1.05 -0.40 1.50 -0.90 1.15 -1.25 1.20 -10.50 0.05 -13.65 -1.15 -3.30 -2 -7.75 -3.20 -17.20 -0.85 -6.70 -1.60 -10.10 -3.50 -16 -1.30 -4.10 -2.75 -9 -3.25 -10.80 -1.05 -4 -3.70 -7.20 -12.30 -14.70 -3 -2.65 -5.90 -5.60 -6.30 -6.55 -0.80 -1.55 -0.75 -1.85 0 -3.45 0.45 -1 1.30 -1.95 1.80 -2.15 0.90 -0.30 0.55 -0.90 -3 -5.10 -5.80 -6.85 -8.30 -10.15 -8.50 -11.25 -0.10 -0.55 -1 -1.45 -1.95 -2.10 -3.95 -2.50 -4.50 -3.15 -4.50 -5.05 0.05 -2.95 2.35 -4.95 5.05 -4.40 l1.45 0.25 -1.35 -2.10 c-5.75 -9.15 -10.65 -13.80 -19.10 -18.05 -3.80 -1.95 -5.05 -3.35 -5.05 -5.70 0 -1.30 0.35 -2.25 1 -2.85 0.55 -0.50 1 -1.45 1 -2.10 0 -3.15 2.85 -4.90 6.55 -4.10 1.20 0.30 2.65 0.90 3.20 1.40 0.55 0.50 5.30 2.90 10.50 5.30 14.60 6.75 13.70 6.40 15.85 5.70 2.65 -0.85 3.80 -0.35 7.50 3.15 1.80 1.75 4.70 4 6.45 5 7.15 4.15 13.65 8.25 15.30 9.65 1.20 1.05 1.80 2.05 2 3.50 0.35 2.25 1.25 3 3.25 2.80 1.70 -0.15 4.75 1.40 6.65 3.45 0.85 0.90 3.85 3.65 6.75 6.15 9.95 8.65 15.30 13.80 18.75 18.05 2.50 3.10 3.75 4.30 4.55 4.30 1.60 0 3.40 0.90 4.10 2.05 0.85 1.35 5.65 14.20 7.55 20.10 2.80 8.75 6.65 24.40 6.35 25.65 -0.50 2 -2.10 3.20 -4.20 3.20 -3.20 0 -3.80 -1.10 -6.60 -12.05 -1.40 -5.35 -3.70 -13.25 -5.10 -17.60 -2.40 -7.30 -2.75 -7.95 -4.30 -8.90 l-1.70 -1 0.30 1.40 c3.15 13.45 7.60 28.15 13.45 44.70 2.95 8.30 4.55 14.80 4 16.30 -1.05 3.05 -4.85 4.20 -7 2.15 -1.20 -1.05 -1.30 -1.45 -2.20 -5.75 -0.30 -1.65 -2.45 -8.20 -4.75 -14.55 -2.25 -6.40 -5.30 -15.75 -6.70 -20.75 -3.05 -11.05 -3.25 -11.45 -4.40 -11.45 -1.50 0 -3 -2.10 -3.70 -5 -1.65 -7.40 -13.15 -26.30 -21.85 -36.05 -2.55 -2.85 -3.55 -3.55 -5.70 -4.20 -2.95 -0.90 -19.45 -3.80 -19.80 -3.50 -0.10 0.15 0.05 0.50 0.35 0.85 0.25 0.35 1.35 3.35 2.35 6.65 1 3.30 2.50 7 3.25 8.25 0.80 1.25 1.95 3.40 2.55 4.75 0.60 1.40 1.45 2.90 1.85 3.40 0.50 0.55 0.95 2.30 1.15 4.25 0.35 4 2.95 10.55 5 12.65 0.80 0.80 1.55 2 1.75 2.70 0.15 0.65 1 1.75 1.90 2.40 2.65 2.05 3.75 5.10 5.85 16.25 3.25 17.30 3.60 20.60 3.25 35.35 -0.65 30.35 -1 33.75 -4.50 43.50 -0.70 1.95 -1.60 5.65 -2.05 8.25 -0.95 5.55 -2.75 11.25 -4.45 13.90 -1.05 1.70 -4.20 4.85 -5.85 5.90 -0.95 0.60 -3.45 4.50 -3.45 5.40 0 0.40 -3.25 4.40 -7.25 8.85 -4 4.45 -7.25 8.35 -7.25 8.60 0 0.75 5.35 11.70 9.55 19.50 3.40 6.30 11.75 21.05 19.15 33.75 1.25 2.15 1.70 2.55 2.55 2.25 0.55 -0.20 1.55 -0.35 2.20 -0.30 2.35 0.10 3.35 1.95 6.05 11.40 2.60 9.15 3 9.95 10 22.75 6.80 12.40 12.55 25.60 16.95 39.15 2.85 8.65 2.90 10.10 0.70 11.85 l-1.30 1 5.45 13.35 c2.95 7.40 5.45 13.50 5.50 13.60 0.10 0.10 0.75 -0.20 1.40 -0.65 1.85 -1.20 4.15 -1 5.55 0.45 1.20 1.15 1.25 1.40 1.25 8.85 0 9.75 0.65 15.50 2.55 23.80 0.80 3.70 2.05 9.75 2.70 13.50 0.60 3.80 1.85 9.90 2.70 13.60 0.85 3.70 2.30 11.25 3.30 16.75 2.75 15.20 4.65 25.60 6.60 35.50 l1.75 9 0.25 18.25 c0.25 16.55 0.15 18.60 -0.65 21.95 -0.75 2.95 -0.80 3.75 -0.30 3.95 0.35 0.10 1.30 0.75 2.10 1.45 1.35 1.10 1.50 1.55 1.50 4.05 0 1.60 -0.70 7.15 -1.55 12.35 -0.85 5.25 -1.65 10.60 -1.75 11.95 -0.10 1.30 -1.10 5.70 -2.15 9.75 -1.85 6.80 -2 7.95 -2.30 16.95 l-0.40 9.60 1.75 0 c2.70 0 3.70 1.50 4.90 7.25 1.55 7.65 2.30 9.85 6.30 18.90 5.70 12.80 9.70 24.05 9.70 27.15 0 0.75 -0.45 1.85 -1 2.45 -0.80 0.85 -0.90 1.35 -0.50 2.75 0.70 2.85 2.95 15.45 3.45 19.75 1 8.30 1.15 13.15 0.50 15.70 -0.50 1.95 -0.50 3.75 0 8.85 0.30 3.55 0.70 12.65 0.85 20.20 0.30 16.90 0.65 20 3.50 32.95 3.20 14.75 3.70 17.40 3.70 20.90 0 2.55 -0.20 3.30 -1.25 4.55 -0.70 0.85 -1.95 1.65 -2.70 1.85 -0.80 0.15 -2.25 1.10 -3.25 2.05 -0.95 0.95 -2.20 1.70 -2.80 1.70 -1.25 0 -3.85 -1.25 -4.10 -2 -0.10 -0.35 -0.70 -0.35 -1.80 -0.05 -2.05 0.60 -4.25 -0.10 -5.05 -1.60 -1 -1.90 -1.55 -6.35 -1.25 -9.80 0.45 -4.85 -0.85 -11.90 -3.25 -17.60 -5.45 -13.05 -8.30 -17.80 -17.45 -29.10 -2.85 -3.55 -5.85 -7.45 -6.60 -8.70 -1.55 -2.45 -3.10 -7.85 -4.05 -13.90 -0.30 -2.20 -0.75 -4.20 -0.95 -4.40 -0.60 -0.70 -2.95 7.55 -4.30 14.90 -0.65 3.85 -1.85 9.95 -2.60 13.50 l-1.35 6.50 0 45 c0 50.45 -0.10 48.85 3.75 64.10 2.15 8.60 2.10 10.05 -0.60 11.45 -1.40 0.75 -1.45 0.80 -1.15 3.85 0.15 1.70 0.50 4.10 0.75 5.35 0.25 1.25 0.70 3.70 1 5.50 0.30 1.80 0.80 4.25 1.05 5.50 1.35 6.50 1.90 30.70 0.95 39.90 -0.95 8.90 -2.70 14.05 -8.40 24.60 -0.50 0.95 -1.40 2.65 -1.95 3.75 -2.25 4.50 -4.80 8.60 -6.30 10.15 -1.90 2 -7.45 4.20 -15 5.95 -4.55 1.05 -5.80 1.20 -7.10 0.70 -1.30 -0.45 -2.40 -0.35 -6.55 0.75 -2.95 0.75 -7.05 1.40 -10.20 1.55 -4.90 0.25 -5.35 0.40 -6.95 1.75 l-1.65 1.45 -17.60 -0.15 -17.55 -0.15 -3.25 -1.55 c-1.80 -0.85 -4.75 -2.05 -6.60 -2.65 -3.15 -1.05 -8.90 -4.30 -9.60 -5.50 -0.20 -0.30 -1.65 -0.55 -3.20 -0.55 -3.45 0 -5.40 -1.05 -7.65 -4.10 -2.10 -2.85 -8.05 -15.15 -9.70 -20 -1.35 -4.05 -2.75 -12.40 -2.75 -16.55 0 -2.40 0 -2.40 -1.10 -1.65 -1.55 1.10 -4 1 -5.30 -0.20 -0.60 -0.55 -1.30 -1.95 -1.60 -3.15 -0.60 -2.40 -5.80 -16.40 -6.90 -18.55 -0.95 -1.95 -7.50 -10.15 -11.90 -14.95 -3.30 -3.55 -5.70 -7.35 -5.70 -9 0 -0.35 -1.80 -1.75 -4.05 -3.10 l-4 -2.40 -9.10 0.60 c-21.40 1.45 -36.45 4.65 -48.65 10.30 -4.85 2.20 -6.35 2.25 -8.30 0.15 l-1.45 -1.55 -4.10 1.60 c-2.25 0.95 -5.30 2.30 -6.70 3.10 -1.45 0.80 -3.35 1.45 -4.20 1.45 -1.70 0 -5.55 2.15 -7.25 4.10 -0.60 0.65 -1.55 2.05 -2.20 3.15 l-1.15 2 1.70 -1.60 c2.15 -2 3.90 -2.45 5.85 -1.45 1.70 0.85 2.10 1.65 2.10 4.10 0 1.30 -0.50 2.25 -1.90 3.85 -3.05 3.30 -5.05 6.55 -5.55 9 -0.80 3.55 -1.55 14.85 -1.55 23.75 0 20.10 -2.40 34.90 -6.35 39.65 -2.70 3.20 -12.45 8.70 -23.90 13.45 -2.75 1.10 -5.45 2.50 -6.05 3.05 -2.80 2.65 -28 9.25 -39.90 10.50 -6.20 0.65 -9.30 1.45 -13.20 3.40 -6.80 3.45 -15.85 4.70 -24.10 3.30z m3.40 -15.25 c1.70 -1.70 4.15 -2 5.80 -0.75 1.25 0.95 5.75 0.95 9.05 0.05 1.40 -0.40 5.65 -1.85 9.50 -3.30 9.50 -3.50 15.80 -5.20 25.95 -7 14.40 -2.60 17.90 -3.45 19.40 -4.90 0.90 -0.80 2.25 -1.40 3.95 -1.65 1.45 -0.25 3.90 -1.05 5.40 -1.80 l2.80 -1.40 2.65 -10.25 2.65 -10.25 -0.80 -2.60 c-1.90 -6.25 -2.35 -10 -2.60 -22.05 l-0.25 -12.10 1.70 -1.65 c1.75 -1.60 1.75 -1.60 2.05 -7.15 0.55 -9.60 1.90 -12.90 7.40 -17.90 1.55 -1.40 3.20 -3.35 3.70 -4.30 2.40 -4.85 5.20 -6.95 7.95 -6 1.55 0.50 2.10 0.30 7.35 -2.45 6.45 -3.40 12.95 -6.05 14.60 -6.05 0.60 0.05 1.65 0.35 2.30 0.70 1.10 0.60 1.55 0.50 4.75 -1.35 4.60 -2.60 11.05 -5.40 16.25 -7.05 3.45 -1.10 5.70 -1.40 13.45 -1.80 14.90 -0.80 30.60 -0.65 33.35 0.30 1.90 0.60 2.60 0.65 4 0.15 1.40 -0.50 2.10 -0.50 3.40 -0.05 0.90 0.35 3.85 0.60 6.45 0.60 4.40 0 4.95 0.10 6.30 1.25 1.25 1.05 2 1.25 4.70 1.25 4.15 0 6.25 0.75 7.15 2.55 1.10 2.10 0.90 3.35 -0.70 5 -1.35 1.30 -1.80 1.45 -4.80 1.45 l-3.35 0 0.70 1.10 c0.60 0.90 1.15 1.10 2.60 1 2.45 -0.25 4.10 0.95 4.85 3.40 0.50 1.60 0.85 2 1.80 2 3.80 0 13.25 15.10 18.15 29 2.15 6.10 4 8.10 16.60 17.90 8.35 6.45 10.05 8.20 12.30 12.85 1.15 2.25 1.90 3.25 2.55 3.25 0.50 0 1.50 0.45 2.25 1.05 1 0.75 1.30 1.45 1.30 2.90 0 2.20 -1.15 4.05 -2.55 4.05 -0.55 0 -0.90 0.20 -0.75 0.45 0.30 0.45 1.35 0.75 11.05 3.05 3.60 0.85 7.30 1.75 8.25 2 3.80 0.95 16.15 1.60 26 1.40 11.60 -0.30 16.30 -1.20 20.45 -3.95 1.75 -1.15 2.65 -1.45 3.80 -1.25 1.60 0.30 3.75 2.35 3.75 3.60 0 1.05 0.65 0.90 4.40 -1 4.75 -2.40 6.35 -5.05 7.70 -12.55 1 -5.65 3 -14.10 3.95 -16.60 0.30 -0.75 0.90 -1.85 1.40 -2.40 1.45 -1.60 1.55 -3.60 0.80 -13.10 -0.40 -4.90 -0.75 -14.95 -0.80 -22.40 0 -14 -0.25 -18.10 -1.65 -27.65 -0.65 -4.45 -0.75 -6.05 -0.30 -7.40 0.80 -2.35 0.30 -9.55 -0.95 -14.45 -2.60 -10.35 -4.65 -22 -5.75 -32.75 -2 -20.25 -2.40 -60.35 -0.60 -66.75 0.80 -2.90 0.80 -3 -0.15 -3.75 -2 -1.50 -2.05 -2.95 -0.60 -9.05 0.80 -3.15 1.65 -7.35 2 -9.35 0.50 -3.45 1.85 -6.95 3.30 -8.60 0.35 -0.40 0.90 -1.70 1.25 -2.90 0.70 -2.65 3.15 -16.45 4.50 -25.35 0.85 -5.70 1.15 -6.65 2.25 -7.60 1.65 -1.45 3.50 -1.45 6 0.10 1.10 0.70 2.50 1.25 3.15 1.25 1.75 0 3.85 1.25 4.50 2.70 0.75 1.70 5.50 7.80 6.90 8.95 0.65 0.45 1.40 1.65 1.70 2.65 0.35 1 1.95 4 3.55 6.75 6.75 11.40 12.95 25.20 16.85 37.70 4.50 14.55 4.60 15.15 2.60 17 -0.90 0.80 -0.85 1 1.60 5.55 1.35 2.60 3 6.35 3.65 8.30 1.05 3.20 1.15 3.35 0.90 1.40 -0.45 -3.85 -3.10 -17.20 -6.15 -31 -5.50 -24.90 -7.55 -36.30 -9.70 -54.25 -1.90 -16.05 -2.10 -19.25 -1.05 -21.40 1 -2.10 3.10 -3.05 5.05 -2.35 0.70 0.30 1.35 0.50 1.40 0.50 0.40 0 -1.95 -7.85 -2.55 -8.60 -0.40 -0.45 -0.90 -2.15 -1.10 -3.75 -0.20 -1.60 -0.50 -3.15 -0.65 -3.40 -0.20 -0.30 -0.45 -1.55 -0.65 -2.75 -0.70 -5.05 -2.65 -9.50 -8.15 -18.65 l-3.25 -5.40 0.25 -5.15 c0.25 -4.55 0.20 -5.20 -0.70 -6.30 -0.90 -1.10 -0.95 -1.70 -0.65 -4.75 0.15 -1.90 0.60 -4.75 1 -6.25 0.35 -1.50 0.75 -3.70 0.90 -4.85 0.25 -2.05 0.20 -2.05 -0.95 -1.55 -1.95 0.90 -4.30 -0.05 -5.30 -2.10 -0.75 -1.65 -0.75 -2.10 0.10 -7.25 1.20 -7.10 2.20 -24.60 1.80 -30.90 -0.25 -3.65 -0.55 -5.25 -1.25 -6.25 -0.85 -1.20 -1 -2.65 -1.25 -12.35 -0.40 -12.60 -1.95 -38.85 -3.05 -50.25 -0.95 -10.15 -0.95 -12.45 0.15 -14.10 0.95 -1.50 0.90 -4.75 -0.65 -22.40 -1.20 -13.40 -1.55 -15.45 -5.25 -27 -1.90 -5.90 -4.25 -13.35 -5.20 -16.50 -1.90 -6.30 -2.15 -6.10 -1.05 0.75 1.10 6.80 1.05 7.95 -0.80 9.45 -0.85 0.70 -1.95 1.30 -2.50 1.30 -1.50 0 -3.85 -1.35 -4.20 -2.45 -0.15 -0.55 -1.05 -6 -2 -12.15 -2.25 -15.10 -3.80 -21.80 -11.30 -49.90 -3.15 -11.70 -2.80 -10.80 -7.85 -21.75 -3.60 -7.80 -6.65 -13.60 -15.20 -29.35 -8.50 -15.65 -11.55 -22.50 -11.25 -25.10 0.20 -1.55 0 -2.35 -1.20 -4.25 -0.85 -1.25 -1.40 -1.85 -1.25 -1.30 0.15 0.55 0.75 4.05 1.30 7.75 0.55 3.70 1.35 8.50 1.75 10.70 1 5.30 0.95 6.15 -0.50 7.55 -1.60 1.65 -4.35 1.70 -5.95 0.10 -1.40 -1.40 -1.80 -3.20 -3.80 -15.85 -3.25 -20.80 -7.95 -33.60 -17.15 -46.55 -5.20 -7.30 -6.05 -8.30 -6.60 -7.45 -0.60 0.95 -2.85 0.50 -5.70 -1.20 -1.55 -0.90 -4.60 -2.60 -6.80 -3.80 -11.45 -6.15 -16.55 -9.55 -34.35 -22.75 -25.65 -19 -31.25 -23.75 -34 -28.60 -0.80 -1.45 -1.55 -2.65 -1.65 -2.65 -0.05 0 -5.60 -0.80 -12.30 -1.75 -15.50 -2.25 -27.50 -4.30 -37.95 -6.60 l-8.25 -1.80 -12.50 0.55 c-6.85 0.35 -16.30 0.95 -21 1.40 l-8.50 0.75 -14 4.75 c-7.70 2.60 -17.95 5.85 -22.75 7.15 -4.85 1.35 -9.50 2.80 -10.35 3.25 -0.90 0.45 -2.25 0.80 -3 0.80 -0.75 0 -3 0.45 -4.90 1 -8.25 2.45 -21.65 5.50 -28.10 6.50 -3.80 0.55 -14.45 2.25 -23.65 3.75 -18.05 2.90 -25.40 3.95 -33.25 4.75 -7.80 0.80 -25 6.90 -33.20 11.80 -5.70 3.40 -7.55 5.25 -7.55 7.70 0 4.60 -4.85 6.25 -8.30 2.80 -1.80 -1.80 -2.25 -4.30 -1.20 -6.35 0.30 -0.50 0.35 -0.95 0.15 -0.90 -0.20 0 -2.85 1.75 -5.90 3.90 -5.45 3.85 -5.50 3.95 -5.35 5.75 0.15 1.45 -0.10 2.10 -1.30 3.30 -0.85 0.80 -1.90 1.50 -2.30 1.50 -2.40 0 -8.80 2.85 -12.15 5.35 -6.70 5.05 -18.95 15.50 -23.50 20.10 -4.65 4.60 -7.65 9.30 -7.65 11.90 0 1.80 -1.30 4.50 -2.40 5.10 -1.80 0.95 -3.60 0.65 -5.15 -0.90 -1.75 -1.80 -1.90 -4 -0.50 -8.65 l1 -3.15 -4.30 4.50 c-5.40 5.70 -6.65 7.55 -8.35 12.50 -1.75 5 -3.45 8.35 -7.55 15 -4.60 7.45 -9.55 16.95 -10.75 20.75 -0.55 1.75 -1.35 3.55 -1.75 4 -1 1.10 -10.25 24 -12.75 31.50 -6.25 19 -7.60 24.95 -8.25 36.25 -0.70 13.15 -3.05 33.95 -5.25 47.25 -0.70 4 -0.95 7.10 -0.75 8.65 0.30 1.90 0.15 2.70 -0.75 4.25 -1.05 1.75 -1.10 2.20 -0.80 8.10 0.30 5.60 1.20 15.40 2.10 22.95 0.25 2 0.70 3.10 1.75 4.20 1.60 1.65 1.50 1.45 2.95 7.60 0.55 2.45 1.35 4.85 1.80 5.30 0.40 0.45 1.30 3.15 2 6 1.40 5.85 8.45 27.35 10.25 31.20 1.25 2.80 5 8.80 6.75 10.90 1.40 1.65 1.50 2.85 0.40 4.90 -0.75 1.50 -0.70 1.75 3.10 11.10 5.20 13 9.70 22.75 12.70 27.70 1.40 2.25 2.50 4.55 2.50 5.10 0 1.10 -1 3.55 -1.45 3.55 -0.15 0 -0.70 0.35 -1.15 0.70 -0.80 0.60 -0.60 1.30 2.80 9.15 3.65 8.45 10.30 25.55 10.30 26.55 0 0.30 1.30 1.80 2.95 3.45 2.45 2.40 3 3.30 3.25 5.15 0.75 4.65 2.60 8.90 14.55 32.90 6.75 13.50 12.25 24.80 12.25 25.05 0 0.20 0.45 1.45 1 2.65 0.80 1.90 0.90 2.55 0.45 3.85 -0.30 0.85 -1 1.80 -1.50 2.10 -1.25 0.65 -1.20 2.65 0.10 4.40 1.15 1.55 1.20 2 0.75 7.55 -0.20 2.05 -0.65 9.05 -1.10 15.50 -0.40 6.45 -1.10 14.90 -1.50 18.75 -1.60 15.05 -1.80 40.65 -0.45 50.05 1.75 11.90 4.35 22.45 5.90 23.95 0.35 0.35 0.40 0.20 0.15 -0.50 -0.70 -1.80 -0.95 -30.75 -0.35 -34 0.75 -4.05 2.65 -7.70 5.60 -11 2.25 -2.40 2.65 -3.25 3.80 -7.55 1.25 -4.75 1.25 -4.90 0.45 -8.20 -1 -4.15 -1 -4.70 -0.05 -6.45 0.90 -1.75 3.25 -2.70 5.05 -2.05 1.05 0.45 1.55 0.30 2.80 -0.75 3.05 -2.60 4.90 -1.55 9.60 5.35 2.80 4.10 3.80 5.20 4.35 4.85 1.25 -0.80 3.35 -0.50 4.65 0.70 1 0.85 1.65 2.45 2.80 7.10 1.95 7.70 3.25 11.55 5.50 16.50 1 2.20 2.35 5.30 3 6.90 1 2.55 1.25 2.85 2.60 2.85 2 0 3.70 1.85 4.15 4.55 0.70 4.75 4.85 20.25 5.75 21.70 0.95 1.55 2.85 9.25 5.15 21.25 2.75 13.95 3.45 21.55 3.60 37.25 0.10 10.30 0.25 12.40 1.65 20.25 2.65 15.30 4.40 31.25 4.95 45.35 l0.30 8.55 -1.45 1.45 c-0.85 0.75 -1.85 1.65 -2.30 1.90 -0.70 0.45 -0.75 1.05 -0.35 4.50 0.55 4.85 2.50 12.75 4.30 17.45 0.90 2.45 2.10 4.35 4 6.40 2.85 3.10 3.40 5.10 1.95 7.20 -0.65 0.95 -0.50 1.30 2.50 4.85 1.80 2.10 3.90 4.15 4.65 4.55 2.35 1.25 21.70 6.10 24.90 6.25 0.30 0.05 1.25 -0.60 2.05 -1.45z m310.10 -25.40 c0 -0.25 -2.10 -0.70 -4.60 -1.05 -4.85 -0.65 -7.75 -1.25 -16.15 -3.30 -2.75 -0.70 -7.25 -1.55 -10 -1.95 -2.75 -0.40 -5.40 -0.90 -5.90 -1.05 -1.45 -0.60 -0.95 0.15 1 1.50 1.10 0.70 2.60 1.25 3.55 1.25 0.90 0 3 0.70 4.70 1.55 5.35 2.70 9.10 3.40 18.80 3.40 4.70 0.05 8.60 -0.15 8.60 -0.35z m-212.80 -16.25 c0.45 -2.10 0.95 -7.35 1.10 -11.70 0.30 -7.85 0.30 -7.90 -1 -10.50 -0.70 -1.40 -1.45 -3.30 -1.60 -4.25 -0.50 -2.90 -0.60 -2.95 -2.25 -1.45 -1.55 1.45 -1.55 1.45 -1.20 5 0.20 1.95 0.50 3.50 0.65 3.45 1.30 -0.15 2.30 0.30 3.40 1.45 1.25 1.35 1.30 1.45 0.95 7.15 -0.25 4.75 -1.90 14.95 -3 18.80 -0.15 0.50 0.30 -0.20 0.95 -1.65 0.70 -1.40 1.60 -4.25 2 -6.30z m174.05 -6.20 c-2.10 -4.75 -1.90 -4.55 -13 -13.25 -2.70 -2.15 -5 -3.80 -5.15 -3.70 -0.45 0.50 1.55 6.70 2.70 8.40 1.50 2.15 7.75 6.90 12.55 9.50 1.85 1 3.55 1.85 3.75 1.85 0.20 0.05 -0.20 -1.25 -0.85 -2.80z m-369.40 -179.45 c-0.10 -0.10 -0.60 -0.05 -1.15 0.10 -0.85 0.25 -1.15 0.95 -1.60 4.10 -0.85 5.60 -0.80 6.55 0.55 7.05 1.10 0.40 1.10 0.30 1.70 -5.35 0.35 -3.15 0.60 -5.85 0.50 -5.90z m498.05 -42.75 c-0.60 -1.70 -0.20 -6.20 0.65 -8.15 0.50 -1.05 0.15 -1.95 -2.55 -7.25 -1.75 -3.35 -3.20 -6 -3.25 -5.95 -0.10 0.10 0.25 1.75 0.75 3.65 0.50 1.95 1.35 6.30 1.95 9.65 1 5.65 2.10 9.60 2.75 9.60 0.15 0 0 -0.70 -0.30 -1.55z m-21.95 -13.65 c0.10 -1.85 -0.85 -0.10 -1.15 2.20 l-0.30 2.25 0.70 -1.75 c0.40 -0.95 0.75 -2.20 0.75 -2.70z m45.75 -6.05 c-0.35 -2.75 -0.65 -5.05 -0.70 -5.10 0 -0.10 -0.20 -0.15 -0.40 -0.15 -0.25 0 -0.05 2.30 0.45 5.15 0.50 2.80 0.90 5.20 0.95 5.30 0 0.10 0.10 0.10 0.20 0 0.10 -0.10 -0.15 -2.45 -0.50 -5.20z m-40.35 -7.15 c-0.10 -0.55 -0.70 0.30 -1.50 2.10 -1.85 4 -1.65 5.25 0.20 1.65 0.85 -1.60 1.40 -3.30 1.30 -3.75z m-515.35 -1.10 c-1.70 -3 -1.70 -2.80 -0.30 1.75 1.40 4.50 1.50 4.65 1.70 2.75 0.10 -1.25 -0.30 -2.55 -1.40 -4.50z m554.65 -4.70 c-1 -6.65 -3.75 -22.05 -3.90 -22.25 -0.15 -0.10 -0.25 0.40 -0.25 1.20 0 1.55 2.35 20.65 2.80 22.95 l0.30 1.50 0.65 -1.15 c0.30 -0.65 0.50 -1.65 0.40 -2.25z m-549.15 -5.60 c0 -0.60 -10.60 -20.25 -10.85 -20.05 -0.35 0.40 9.80 20.35 10.35 20.35 0.30 0 0.50 -0.15 0.50 -0.30z m-78.20 -163 c-1.75 -7.65 -4.55 -21.25 -6 -29.20 -1.45 -7.60 -1.75 -8.80 -3.25 -12 l-1.10 -2.25 0.35 2 c1.45 9.30 4.20 22.25 6.55 31 1.50 5.80 3.10 11.80 3.55 13.40 1.25 4.95 1.20 2.75 -0.10 -2.95z m606.65 -37.45 c-0.20 -0.80 -0.35 1.55 -0.30 5.25 l0 6.75 0.35 -5.25 c0.15 -2.90 0.15 -5.90 -0.05 -6.75z m-629.35 -87.15 c0.25 -6.95 1.15 -9.90 3.25 -10.80 1.25 -0.60 1.65 -2.40 1.65 -7.80 0 -6.30 2.30 -32 3.50 -39.25 0.85 -5.25 0.75 -5.95 -1.40 -7.40 -1.05 -0.70 -3.55 -2.65 -5.50 -4.35 -2.75 -2.35 -3.70 -3.55 -4.10 -5.05 -0.60 -2.20 -0.75 -2.25 -2.95 -1.15 -1 0.50 -2.10 0.65 -2.95 0.45 -1.45 -0.35 -3.10 -1.60 -3.10 -2.35 0 -0.25 -0.80 -2.20 -1.80 -4.40 -1.40 -3.05 -2.40 -4.40 -4.40 -6.10 -4.40 -3.65 -16.30 -15.50 -19.30 -19.15 -3.45 -4.20 -7.10 -9.75 -8.75 -13.35 -1.65 -3.50 -1.60 -5.60 0.05 -7.25 1.05 -1.05 1.20 -1.50 0.80 -2.15 -4.15 -6.65 -9.40 -18.85 -10.90 -25.35 -1.20 -5.20 -1.55 -23.70 -0.50 -28.90 0.40 -2.20 1.30 -7.10 2 -10.85 1.80 -9.50 4.10 -16.10 9.55 -27.15 5.85 -11.85 8.85 -16.40 14.05 -21.50 4.85 -4.75 9.80 -10.30 9.50 -10.65 -0.15 -0.10 -1.70 0.40 -3.50 1.15 -2.70 1.15 -3.25 1.60 -3.50 2.80 -0.20 1.05 -1.15 2.10 -3.60 3.85 -17.60 12.55 -23.95 17.85 -30.20 25.35 -6.75 8 -22.35 25.55 -23.75 26.65 -2.65 2.10 -12.75 19.05 -17.25 29 -5.15 11.50 -5.95 16.30 -5 30.35 1.10 16.45 4.20 25.75 12.80 38.40 2.95 4.35 3.65 5.70 3.40 6.65 -0.40 1.45 1.90 5.05 14.80 23.20 4.60 6.45 10.45 14.80 13 18.50 15.70 22.75 18.40 25.95 26.75 31.75 2.70 1.90 8.20 6.05 12.25 9.25 11 8.75 10.80 8.65 13.65 9.05 1.80 0.25 3.75 1.05 6.35 2.65 2.05 1.25 3.95 2.30 4.30 2.30 0.40 0 0.65 -2 0.80 -6.40z m-73.20 -45.85 c-0.20 -1 -13 -19.20 -13.50 -19.25 -0.40 0 5.50 9.40 10.20 16.40 2.30 3.35 3.70 4.60 3.30 2.85z m106.30 -43.15 c3.70 -9.30 4.35 -11.80 1.05 -4.10 -2.05 4.65 -5.25 13.35 -5.20 13.90 0.05 0.45 -0.25 1.10 4.15 -9.80z m-72.05 -56.05 c-1.70 -9.85 -1.80 -15.80 -0.90 -50.80 0.10 -4.95 0.10 -8.65 -0.10 -8.25 -0.15 0.40 -0.80 1.35 -1.45 2.05 -1.15 1.20 -1.20 1.40 -0.50 2.95 0.90 2.20 0.30 4.25 -1.80 6 l-1.65 1.40 0 5.10 c0 5 -0.05 5.10 -1.45 6.35 l-1.45 1.25 0.30 5.10 c0.45 7.85 3.30 19.75 7.20 29.80 2.10 5.50 2.85 5.10 1.80 -0.95z m142.10 -38.45 c2.50 -1.35 6.30 -3.25 8.50 -4.15 2.90 -1.15 6.35 -3.35 12.45 -7.85 8.05 -5.90 18.65 -13.10 23.15 -15.65 2.55 -1.40 2.70 -1.95 0.65 -1.95 -2.05 0 -4.55 1.35 -19.25 10.15 -18.15 10.90 -24.20 15.10 -31.50 22.05 -2.95 2.80 -2.95 2.85 -0.75 1.40 1.25 -0.80 4.30 -2.60 6.75 -4z m-201.25 -9.35 c6.65 -10.55 17 -23.20 27.65 -33.70 l5.30 -5.20 -1 -1.25 c-0.50 -0.70 -0.95 -1.80 -0.95 -2.55 0 -1.10 -1.45 0.15 -10 8.70 -5.50 5.50 -10 10.35 -10 10.75 0 0.45 -1.70 3.35 -3.80 6.50 -4.15 6.25 -6.85 11.30 -9.50 17.85 -2.55 6.40 -2.40 6.30 2.30 -1.10z m604.45 -3.35 c-8.25 -9.60 -17.45 -20.05 -20.30 -23 -3.80 -3.95 -9.50 -7.85 -16.40 -11.30 -6.90 -3.40 -7.05 -3.45 -8.50 -1.90 -0.90 1 -1.70 1.30 -3.20 1.30 -1.75 0 -2.25 -0.30 -4.40 -2.70 -1.95 -2.20 -2.80 -2.80 -4.40 -3.05 l-2 -0.30 2.75 2.55 c4.70 4.35 36.35 28.10 45.05 33.80 5.95 3.90 13.55 8.25 13.85 7.95 0.10 -0.10 -1 -1.60 -2.45 -3.35z m8.55 -12.05 c-2.95 -2.20 -8.75 -5.85 -9.25 -5.85 -0.15 0 2.40 2.55 5.65 5.70 l5.85 5.70 0.50 -1.60 c0.55 -1.50 0.50 -1.60 -2.75 -3.95z m-411.70 -24.20 c-0.55 -0.15 -1.30 -0.55 -1.70 -0.95 -0.75 -0.75 -2.20 -0.95 -2.80 -0.30 -0.45 0.40 2.90 1.55 4.45 1.50 0.95 0 0.95 -0.05 0.05 -0.25z m2.65 -3.65 c1.85 -1.90 2.15 -2 5 -2 3.50 0 5.20 0.65 6.05 2.30 0.45 0.80 1 1.10 1.70 0.95 0.60 -0.10 2.50 -0.30 4.30 -0.45 1.80 -0.20 9.65 -0.95 17.50 -1.80 7.85 -0.80 19.75 -1.95 26.50 -2.50 9.25 -0.80 13.25 -1.35 16.25 -2.25 11.20 -3.40 21.45 -4.95 42.25 -6.50 5.65 -0.45 14.65 -1.20 20 -1.75 5.35 -0.50 11.80 -1.10 14.25 -1.30 2.50 -0.15 7.40 -0.90 10.95 -1.65 l6.40 -1.30 0.60 -1.75 c1 -3.20 5.50 -4.40 9.85 -2.70 3.10 1.25 11.75 0.45 19.45 -1.80 2.45 -0.70 3.50 -0.65 3.50 0.30 0 0.50 0.30 0.70 0.90 0.55 0.45 -0.15 2.95 -0.75 5.55 -1.40 3.95 -0.90 4.55 -1.20 3.90 -1.70 -1.05 -0.75 -1.10 -1.25 -0.10 -1.25 1.45 0 13.40 -4.10 17.05 -5.80 4 -1.90 6.80 -2.15 9.50 -0.90 1.85 0.90 2.05 1.30 1 2.15 -0.55 0.45 -0.60 0.90 -0.15 2.05 0.30 0.85 0.80 1.50 1.10 1.50 0.70 0 11.15 -3.20 16.50 -5.05 5.05 -1.75 5.85 -2.25 4.75 -2.95 -0.95 -0.55 -1.10 -0.50 4.50 -2.75 10.45 -4.20 21.70 -10.45 30.90 -17.10 l5.10 -3.70 -3.60 -4.35 c-4 -4.85 -8.40 -11.35 -8.40 -12.40 0 -0.40 0.35 -0.70 0.75 -0.70 0.95 0 0.95 -0.70 0 -1.50 -0.60 -0.50 -0.95 -0.50 -1.35 -0.10 -0.45 0.45 -1.85 -1.95 -5.75 -10 -2.85 -5.85 -5.55 -10.80 -5.95 -11.05 -0.40 -0.25 -1.35 -1.70 -2.10 -3.25 -0.70 -1.55 -2.30 -4.65 -3.55 -6.85 -1.20 -2.20 -3.10 -5.85 -4.25 -8.10 l-2.10 -4.05 -5.60 6.95 c-5.60 6.95 -5.60 6.95 -5.60 9.65 0 3.75 -1.55 5.65 -5.05 6.10 -1.90 0.25 -2.75 0.70 -3.70 1.80 -0.70 0.80 -1.25 1.85 -1.25 2.30 0 0.90 -2.40 3.60 -3.20 3.60 -0.30 0 -1.20 1.35 -1.95 3 -1.65 3.50 -4.15 5.65 -8.05 6.75 -3.35 0.95 -17.50 2.75 -21.45 2.70 l-3.10 -0.05 1.75 -0.65 1.75 -0.65 -1.60 0.05 c-0.90 0 -2.15 -0.35 -2.80 -0.80 -0.90 -0.55 -2.85 -0.80 -7.65 -0.95 -6.20 -0.15 -6.60 -0.20 -9.85 -1.85 -1.85 -0.95 -4.75 -2.85 -6.50 -4.25 -2.65 -2.15 -3.35 -2.45 -5.10 -2.35 -1.65 0.05 -2.55 -0.30 -4.90 -1.90 -1.55 -1.10 -2.80 -1.85 -2.80 -1.65 0.35 2.25 -0.60 2.05 -3.55 -0.70 -2.90 -2.70 -4.65 -6.15 -5.90 -11.45 -0.65 -2.75 -1.20 -4 -2.05 -4.55 -2 -1.40 -7.80 -14.05 -9.25 -20.15 -1.50 -6.20 -1.60 -8.05 -0.55 -8.05 0.60 0 0.65 -0.50 0.45 -2.35 -0.40 -3.40 -1.10 -5.40 -3.10 -9.40 -2.20 -4.30 -6.30 -10 -6.55 -9.10 -0.10 0.30 -1.05 2.45 -2.10 4.65 -1.80 3.80 -1.90 4.30 -1.60 7.35 0.25 3 0.20 3.35 -0.95 4.45 -0.65 0.60 -1.60 1.40 -2.05 1.65 -0.50 0.30 -0.95 1.50 -1.15 3.15 -0.30 2.20 -0.20 2.60 0.50 2.60 0.95 0 0.95 -0.40 0.10 5.65 -0.65 4.65 -1.20 6.05 -2.70 7 -1.05 0.70 -1.50 2.40 -3.10 12 -1.90 11.20 -6.80 31.30 -9.05 36.95 -0.70 1.75 -2.35 2.80 -4.75 3 l-1.90 0.15 -1.40 7.95 c-0.75 4.40 -1.55 8.50 -1.75 9.10 -0.25 0.60 -3 3.50 -6.15 6.50 -3.15 2.95 -6.05 6 -6.45 6.70 -0.95 1.80 -3.50 4.45 -5.70 5.80 -2.60 1.70 -6.45 2.60 -14.95 3.50 -8.40 0.85 -10.85 0.55 -12.25 -1.65 -0.45 -0.70 -1.85 -1.70 -3.05 -2.20 -1.20 -0.55 -2.85 -1.45 -3.70 -2 -0.80 -0.60 -3.95 -1.90 -7.05 -3 -3.05 -1.05 -5.65 -2.15 -5.75 -2.45 -0.10 -0.25 -0.60 -0.50 -1.15 -0.50 -0.50 0 -0.95 -0.35 -0.95 -0.75 0 -0.40 0.40 -0.75 0.90 -0.75 0.45 0 -0.50 -0.80 -2.15 -1.80 -3.85 -2.30 -10.35 -7.45 -13.20 -10.40 l-2.25 -2.25 -0.85 1.45 c-0.50 0.80 -1.55 1.80 -2.40 2.20 -1.10 0.60 -1.70 1.50 -2.55 3.90 -1.95 5.65 -2 5.90 -1.20 5.90 0.85 0 0.90 1.15 0.15 2.60 -0.30 0.60 -0.75 2.50 -0.95 4.25 -0.35 2.85 -0.95 4.10 -4.80 10.55 -2.45 4.05 -4.80 8.35 -5.25 9.60 -2.45 6.85 -6.55 14.80 -10 19.40 -1.75 2.25 -1.85 2.60 -1 2.60 0.55 0 1.90 -0.90 3 -2z m-124.70 -28.80 c3.55 -1.05 4.25 -1.50 4.25 -2.75 0 -1.40 -0.60 -1.20 -4.85 1.60 -2.15 1.45 -3.55 2.50 -3.15 2.35 0.40 -0.15 2.10 -0.70 3.75 -1.20z m161.55 -35.80 c-0.40 -0.90 -1.80 -4.35 -3.10 -7.65 -1.35 -3.30 -2.45 -6.05 -2.50 -6.15 -0.05 -0.10 -0.95 0.25 -2 0.75 -2.80 1.30 -2.80 2.60 0.10 6.05 2.30 2.75 7.75 8.60 8.05 8.60 0.10 0 -0.15 -0.75 -0.55 -1.60z m-16.10 -32.60 c0.65 -0.85 2 -2.40 2.95 -3.40 1.65 -1.85 1.85 -1.90 5.10 -1.90 1.80 0 3.75 0.20 4.25 0.50 0.85 0.45 1 0.15 1.75 -3.05 0.80 -3.60 0.80 -3.60 -0.35 -4.85 -2.75 -2.95 -6.65 -5.45 -9.05 -5.80 -1.35 -0.20 -3.35 -0.70 -4.45 -1.10 -2.10 -0.75 -6.65 -0.90 -9.35 -0.40 -1.40 0.30 -1.55 0.50 -1.55 2.30 0 1.50 -0.35 2.30 -1.45 3.45 -1.35 1.35 -1.75 1.45 -5.15 1.45 -2.75 0 -4.05 -0.25 -5.30 -1 -0.90 -0.55 -1.70 -1 -1.85 -1 -0.50 0 -1.25 3.95 -1.25 6.45 0 3.50 1.25 6.10 4.55 9.40 3.90 3.95 6.15 5.35 7.40 4.70 1.65 -0.90 7.10 -0.65 8.80 0.35 l1.50 0.95 1.10 -2.75 c0.65 -1.50 1.70 -3.45 2.35 -4.30z m470.55 -13.15 c-2.10 -2.85 -4.45 -5.65 -6.50 -7.90 l-1.80 -2 1.30 2.25 c0.70 1.25 2.10 3.75 3.05 5.60 1.55 2.90 2 3.35 3.35 3.55 0.90 0.10 1.70 0.25 1.80 0.25 0.10 0.05 -0.45 -0.75 -1.20 -1.75z m-46.30 -39.35 c-0.10 -0.10 -2.50 -2 -5.35 -4.25 -5.50 -4.40 -7.85 -5.70 -18.85 -10.55 -3.85 -1.70 -7.20 -3.25 -7.50 -3.40 -0.25 -0.15 -0.05 0.25 0.50 0.95 0.55 0.70 2 2.65 3.25 4.25 4.50 5.95 8.95 9.20 14.60 10.75 3.60 0.95 13.85 2.70 13.35 2.25z m-182.90 -7.80 c0.40 0 1.55 -0.45 2.60 -1 1 -0.55 2.80 -1 3.90 -1 1.65 0 2.45 -0.35 4 -1.75 1.85 -1.65 2.15 -1.75 5.35 -1.75 2.20 0 3.75 0.25 4.45 0.75 1.05 0.70 1.10 0.65 2.65 -3.05 1.75 -4.30 3.30 -10.70 2.85 -11.90 -0.35 -0.85 -3.25 -2.80 -4.20 -2.80 -0.40 0 -0.65 0.75 -0.65 2 0 2.60 -1.05 5.15 -2.55 6.20 -1.55 1.10 -7.05 1.10 -8.70 0 -1.35 -0.90 -2.25 -3.10 -2.25 -5.50 0 -1.35 -0.25 -1.75 -1.20 -2 -2.55 -0.60 -7.10 1.55 -10.95 5.25 -2.50 2.35 -3.85 4.40 -3.85 5.75 0 1.55 2.10 6.35 4.10 9.30 1.85 2.80 2.10 3 2.85 2.25 0.50 -0.40 1.20 -0.75 1.60 -0.75z m-0.80 -32.75 c0.70 -0.25 0.80 -0.45 0.35 -0.60 -0.95 -0.35 -4.80 1.20 -5.90 2.40 -0.80 0.90 -0.65 0.90 1.85 -0.20 1.50 -0.70 3.15 -1.40 3.70 -1.60z m-92.50 -48.80 c2.50 -2.75 6.75 -10.20 7.45 -13.10 0.25 -1 0 -2.10 -0.65 -3.50 -1.45 -2.95 -8.15 -10.55 -10.60 -12.05 l-2.10 -1.20 -1.35 1 c-2.55 1.90 -5.50 1.80 -10.80 -0.35 l-4.75 -1.95 -2.15 1.10 c-3.45 1.65 -5.50 3.80 -7.25 7.55 -3.15 6.85 -3.75 14.10 -1.35 16.85 l1.05 1.25 1.45 -3.05 c2.10 -4.40 3.60 -5.50 7.55 -5.50 2.70 0 3.40 0.20 4.75 1.30 1.55 1.30 1.55 1.40 1.40 5.15 l-0.15 3.80 3.90 0 c3.70 0 4 0.10 5.15 1.40 1 1.15 1.20 1.95 1.20 4.40 l0 3 2.30 -1.65 c1.30 -0.90 3.50 -2.90 4.95 -4.45z"/>
  <path d="M484.50 955.85 c-3 -1.55 -2.95 -4.75 0.10 -14.70 l1.55 -5.05 -1.10 -1.35 c-1.40 -1.80 -1.35 -3.60 0.20 -5.85 1.90 -2.80 4.75 -12.25 7.20 -23.75 l0.90 -4.15 -9.05 0 c-5 0 -11.05 -0.25 -13.55 -0.50 -5.95 -0.70 -12.45 -2.70 -13.50 -4.10 -0.85 -1.25 -1 -4.65 -0.25 -5.15 0.25 -0.15 0.85 -1.05 1.25 -2 0.95 -1.90 3.10 -3 4.95 -2.55 1 0.25 1.40 0.05 1.85 -0.80 1.15 -2.20 1.90 -2.45 6.45 -2.10 4.80 0.35 5.50 0.60 6.45 2.35 0.75 1.35 5.85 3.60 9.35 4.05 2.65 0.35 10.50 -0.85 18.20 -2.75 3.45 -0.90 6.80 -1.55 7.50 -1.55 0.70 0.05 1.80 0.70 2.45 1.45 l1.20 1.35 4.75 -0.80 c3.45 -0.60 5 -1.10 5.45 -1.75 1.65 -2.40 0.65 -2.05 10.90 -3.65 3.85 -0.55 10.15 -1.80 14 -2.75 3.85 -0.90 8.70 -2.05 10.75 -2.50 6.25 -1.45 13.55 -4 18.45 -6.45 4.10 -2.05 4.90 -2.30 6.75 -2.05 1.85 0.30 3.10 -0.05 8.80 -2.25 5.90 -2.35 6.65 -2.80 7.25 -4.20 0.95 -2.20 2.30 -3.30 4.55 -3.60 2.35 -0.30 5.20 -2.20 7.30 -4.85 1.80 -2.30 4.05 -3.40 6.05 -3 1.10 0.20 2.15 -0.25 4.95 -2.15 1.95 -1.35 4.25 -3.30 5.05 -4.35 0.95 -1.15 2.20 -2.05 3.30 -2.35 2.75 -0.75 6 -4.85 7.25 -9.20 0.45 -1.55 1 -2.30 2.40 -3.05 1.75 -0.90 1.90 -0.95 3.55 -0.15 1 0.45 1.90 1.30 2.10 1.85 0.20 0.60 0.75 1.05 1.30 1.05 1.80 0 3.80 1.40 4.70 3.30 0.80 1.70 0.80 1.95 0 4.15 -1.60 4.45 -17.85 19.35 -25.80 23.65 -2.45 1.35 -2.95 1.85 -2.70 2.65 0.80 3 0.85 5.75 0.10 6.95 -0.80 1.20 -0.70 1.45 4 9.65 4.90 8.55 10.05 18.90 11.15 22.30 1.10 3.45 -0.40 6.95 -3.25 7.65 -2.15 0.55 -4.45 -0.20 -8.80 -2.80 -3.65 -2.20 -4.35 -2.45 -5.55 -2.05 -2.35 0.85 -4.10 -0.20 -6.70 -3.85 -1.30 -1.85 -3.40 -4.60 -4.65 -6.10 -3.60 -4.30 -17.10 -19.25 -17.55 -19.40 -0.20 -0.05 -4.15 1.50 -8.80 3.45 -19.40 8.25 -43.30 14.75 -63.55 17.25 -6.25 0.80 -7.15 1 -7.15 1.80 0 1.30 -3.60 16.45 -5.65 23.85 -1.90 6.70 -2.80 8.15 -5.35 8.25 -1.45 0.05 -2.05 0.65 -6.20 6.30 -6.35 8.60 -8.70 12.15 -9.05 13.65 -0.65 2.60 -3.85 3.95 -6.25 2.70z m18.45 -34.20 c0.45 -0.25 5.05 -18.70 5.05 -20.40 0 -0.15 -1.30 -0.25 -2.90 -0.25 l-2.90 0 -0.85 4.55 -0.90 4.50 1.30 1.50 c1.60 1.90 1.55 2.45 -0.20 8 l-1.50 4.55 1.35 -1.15 c0.75 -0.65 1.45 -1.25 1.55 -1.30z m127.40 -23.50 c-0.10 -0.25 -2.80 -5 -5.95 -10.65 -3.20 -5.65 -6.45 -11.50 -7.25 -13 -0.80 -1.50 -1.65 -2.70 -1.95 -2.65 -0.45 0.10 -8.80 3.25 -9.10 3.45 -0.10 0.05 0.95 1.20 2.25 2.50 1.35 1.35 3.35 3.70 4.50 5.20 2.50 3.40 4.35 5.10 5.20 4.95 1.55 -0.35 3.35 0.65 4.95 2.65 2.90 3.65 8.20 9.10 7.35 7.55z"/>
  <path d="M510.75 790.70 c-12.80 -1.25 -21.70 -1.75 -25.75 -1.50 -6.80 0.45 -8.75 0.45 -23.50 -0.15 -14.55 -0.55 -19.65 -1.25 -26.30 -3.60 -9.55 -3.35 -17.30 -7.95 -23 -13.65 -4.20 -4.20 -6.85 -7.95 -11.60 -16.15 -1.90 -3.35 -3.95 -6.60 -4.55 -7.25 -1.80 -1.90 -3.90 -5.45 -5 -8.45 -0.60 -1.55 -4.75 -9.35 -9.25 -17.35 -10.60 -18.90 -13.15 -25.60 -15.05 -39.40 -1.25 -9.35 -1.55 -10.65 -3.45 -15.60 -2.90 -7.35 -3.45 -12.45 -3.15 -28.10 0.25 -12.45 0.55 -16.15 2.60 -31.25 0.45 -3.30 1 -8.30 1.25 -11.15 0.35 -3.90 0.70 -5.50 1.50 -6.60 0.55 -0.80 1.35 -2.55 1.75 -3.85 0.40 -1.30 0.75 -2.40 0.75 -2.40 0 0 -0.95 0.05 -2.10 0.15 -1.80 0.15 -2.35 -0.05 -3.35 -1.10 -0.80 -0.85 -1.25 -1.90 -1.25 -2.95 0.05 -2.35 2.80 -8.85 7.30 -17.20 l3.90 -7.30 -1 -1.10 c-1.95 -2.10 -1.80 -4.15 0.50 -7.75 4.40 -6.80 7.15 -10 24.95 -28.70 17 -17.90 19.25 -19.85 28.55 -24.55 7.85 -3.95 9.55 -4.35 11.55 -2.80 1.20 0.95 1.30 0.95 8.90 -0.85 7.45 -1.80 7.65 -1.90 8.30 -3.45 0.35 -0.85 1.25 -1.95 2 -2.45 1.15 -0.75 1.65 -0.80 3.80 -0.30 1.90 0.45 4.35 0.40 11.05 -0.20 4.75 -0.40 12.05 -0.70 16.15 -0.65 4.15 0.10 10 -0.15 13 -0.45 6.65 -0.70 24.20 -0.75 30.70 -0.10 9.10 0.95 13.65 2.70 19.40 7.45 2.85 2.35 4.05 3 6 3.30 7.25 1.10 17.40 5.65 27.15 12.20 9.65 6.50 14.35 9.60 19.20 12.55 3.05 1.90 6.65 4.85 11.25 9.25 3.75 3.60 8.05 7.45 9.55 8.55 1.50 1.15 5.45 4.45 8.75 7.40 3.25 2.90 6.10 5.30 6.30 5.30 0.20 0 0.25 -0.40 0.10 -0.90 -0.65 -2.60 2.55 -5.45 5.40 -4.85 2.10 0.45 4.05 3.30 9.65 14.10 2.60 5 5.90 10.95 7.35 13.25 4.85 7.70 5.85 9.65 7.65 14.80 0.95 2.80 2.15 6.95 2.55 9.25 1.45 7.35 1.85 9.05 3.05 12.50 2.80 7.95 6.35 30.65 6.35 40.60 0 8.60 -1.80 20.60 -6.15 40.50 -1.55 7.05 -1.55 7.50 -0.65 9.25 0.75 1.50 0.75 2.20 0.25 6.40 -0.75 5.75 -4.35 14.70 -9.25 23 -1.75 2.95 -4.05 7.25 -5.05 9.60 -5.50 12.50 -7.10 14.90 -11.65 18.05 -2.85 2 -7.25 4.10 -10.65 5.20 -1.50 0.45 -7.20 2.95 -12.60 5.55 -10.15 4.85 -15.90 7 -22.40 8.50 -2.05 0.45 -5.70 1.60 -8.10 2.50 -5.80 2.25 -16.25 4.80 -27.85 6.75 l-9.45 1.60 -0.45 1.55 c-0.55 2.05 -3.60 3.55 -8.65 4.30 -3.60 0.55 -33.15 1.10 -37.25 0.70z m18.50 -10.85 l4 -0.60 0.30 -2.45 c0.20 -1.70 0.60 -2.70 1.40 -3.35 1.50 -1.25 4.10 -1.20 5.70 0.05 3.10 2.45 12.15 0.15 27.60 -7 9.60 -4.45 18.55 -8.10 26.90 -11 9.40 -3.25 10.35 -3.30 12.05 -0.90 1.10 1.55 1 3.50 -0.25 5.10 l-1 1.30 2.40 -1.05 c1.30 -0.55 6.35 -2.35 11.15 -4 7.75 -2.65 13.50 -5.10 15.40 -6.60 0.30 -0.25 0.60 -1.10 0.60 -1.85 0 -0.75 0.45 -1.95 1 -2.65 l1 -1.25 -2.40 0.90 c-5.40 2.05 -8.45 1.75 -9.85 -1 -1.70 -3.25 0.35 -6 4.90 -6.70 2.80 -0.45 7.80 -3 12.40 -6.30 5.85 -4.15 13.85 -11.40 15.20 -13.75 0.70 -1.10 1.90 -4.70 2.70 -7.95 1.35 -5.30 1.45 -6.05 0.80 -7 -1.10 -1.55 -0.95 -2.95 1.50 -12.90 5.05 -20.30 5.55 -25 4.50 -42.60 -0.40 -6.60 -0.75 -14.65 -0.75 -17.80 0 -5.05 -0.95 -15.65 -1.80 -19.55 -0.20 -1 -0.70 -1.45 -2.15 -1.90 -2.30 -0.65 -3.25 -2.35 -9.50 -16.40 -2.20 -5.05 -5.15 -11.35 -6.50 -14 -6.95 -13.90 -22.70 -30.90 -34.70 -37.50 -12 -6.55 -21.95 -12.80 -26.35 -16.45 -8.45 -7.05 -10.25 -8.20 -23.05 -14.75 -10.95 -5.60 -16.45 -7.80 -16.45 -6.70 0 0.20 1.10 1.50 2.45 2.90 6.40 6.85 7.20 8.35 5.70 10.95 -1 1.70 -3.05 2.65 -4.85 2.20 -0.60 -0.15 -3.75 -3.20 -7 -6.80 -5.65 -6.30 -5.90 -6.50 -7.85 -6.50 -2.55 0 -4.95 -2.15 -4.95 -4.40 0 -1.80 1.90 -1.35 -18.50 -4.70 -15.35 -2.50 -16 -2.55 -26.50 -2.60 l-10.75 -0.05 -8 2.05 c-4.40 1.15 -11.60 2.95 -16 3.95 -8 1.85 -14.75 3.70 -17.45 4.75 -1.30 0.50 -1.35 0.60 -0.65 1.40 1.25 1.40 1.50 3.35 0.65 5 -0.85 1.60 -2.35 2.35 -5.80 2.85 -1.25 0.15 -3.15 0.90 -4.25 1.70 -1.10 0.80 -2.80 1.60 -3.75 1.80 -2.25 0.45 -3.65 1.35 -6.85 4.40 -1.90 1.80 -2.65 2.85 -2.65 3.80 0 1.90 -1.30 3.50 -3.75 4.55 -1.20 0.50 -2.90 1.70 -3.75 2.70 -3.75 4.10 -12.10 15.25 -13.20 17.55 -3.10 6.70 -7.65 29.25 -8.60 43.15 -0.35 4.40 -0.30 4.60 1 6.10 1.55 1.90 1.65 3.15 0.25 6.20 -0.55 1.30 -1.15 3.65 -1.30 5.20 -0.20 1.55 -0.60 3.30 -0.95 3.85 -0.35 0.55 -1.20 3.95 -1.80 7.50 -1 5.85 -1.15 8.10 -1.10 22.75 0 16.55 0.25 20.65 2.25 32.45 2.05 12.25 4.85 19.50 9.85 25.50 3.30 3.90 3.60 4.80 2.25 7.05 -0.80 1.40 -0.80 1.55 0.90 5.35 1.55 3.40 1.95 3.90 3 3.75 1.75 -0.20 3.90 0.85 4.65 2.35 0.45 0.90 0.60 2.55 0.40 5.40 l-0.25 4.15 3.80 5.60 c2.05 3.10 5.35 7.55 7.35 9.90 1.95 2.35 3.95 5.05 4.40 6 1.90 3.90 24.50 17.45 34.35 20.60 l4 1.25 1.30 -1.40 c1.95 -2.10 4.35 -2 6.85 0.30 2.95 2.65 5.60 3.35 17 4.45 5.45 0.55 6.85 0.85 7.75 1.70 1.05 1 4.70 1.85 9.60 2.25 5.30 0.45 30.35 0.25 34 -0.30z m-94.80 -5 c-3.40 -1.70 -8.45 -4.55 -11.20 -6.25 -4.95 -3.05 -4.95 -3.05 -2.60 -0.90 1.35 1.20 4.10 3.10 6.15 4.30 3.40 1.95 12.35 5.95 13.40 6 0.20 0 -2.35 -1.40 -5.75 -3.15z m151.20 -5.45 c0.45 -0.25 0.85 -0.65 0.85 -0.90 0 -0.50 -3.45 0.80 -4.25 1.60 -0.55 0.55 1.95 0.05 3.40 -0.70z m12.75 -5 c1.45 -0.55 2.55 -1.10 2.45 -1.20 -0.25 -0.30 -6.55 1.85 -7.10 2.40 -0.65 0.65 1.10 0.20 4.65 -1.20z m-226.50 -184.50 c0.55 -0.75 1.05 -4.40 0.60 -4.40 -0.45 0 -2 3.35 -2 4.25 0 0.90 0.70 0.95 1.40 0.15z"/>
  <path d="M527.75 728 c-1.10 -0.25 -5.35 -0.30 -9.50 -0.15 -5.50 0.20 -10.60 0 -19 -0.75 -6.30 -0.60 -14 -1.15 -17.05 -1.35 -6.55 -0.30 -10.25 -1.15 -14.95 -3.50 -4.70 -2.30 -13 -9.40 -18.15 -15.50 -4.40 -5.25 -11.25 -15.25 -14.20 -20.75 -0.95 -1.80 -2.45 -4.50 -3.30 -6 -1.90 -3.50 -4.20 -9.95 -6.45 -18.50 -1.70 -6.30 -1.85 -7.25 -1.85 -14.25 0 -11.35 1.25 -16.15 7.50 -28.65 5.20 -10.40 8.85 -15.85 14.20 -21.15 6.25 -6.20 12.40 -9.60 21.50 -11.95 1.25 -0.35 5.95 -2.10 10.50 -3.95 l8.25 -3.30 10 -0.15 c11.40 -0.20 23.30 0.55 27.05 1.65 1.40 0.40 3.55 1.45 4.75 2.35 1.75 1.30 3.30 1.85 7.45 2.70 9.90 2 13.35 3.75 25.30 12.85 7.40 5.65 7.75 5.95 12 10 3.85 3.65 5.45 6.25 8.65 13.90 1.05 2.60 2.75 6.50 3.75 8.70 0.95 2.20 2.25 6.15 2.85 8.75 0.55 2.60 1.45 6.50 2 8.65 0.55 2.10 1.25 7.40 1.55 11.65 0.95 13.55 -0.70 27.30 -4.35 36.25 -3.25 8 -11.15 17.45 -17 20.25 -1.65 0.75 -4.75 2.60 -6.90 4.05 -4.90 3.30 -8.70 5.25 -13.70 7 -3.45 1.15 -4.80 1.35 -11.40 1.45 -4.10 0.10 -8.40 -0.05 -9.50 -0.30z m-52.50 -12.50 c-3.30 -1.20 -4.65 -1.20 -1.75 0 1.25 0.50 2.70 0.95 3.25 0.95 0.55 0 -0.10 -0.45 -1.50 -0.95z"/>
  <path d="M747.30 473.95 c-0.95 -0.75 -1.30 -1.50 -1.30 -2.75 0 -2.50 0.40 -3.05 4.95 -6.70 3.90 -3.10 4.60 -4.10 3.55 -4.75 -0.25 -0.15 -0.50 -1.05 -0.50 -1.95 0 -1.90 4.10 -8.35 10.15 -16.05 6.85 -8.70 9.60 -12.50 12.70 -17.65 3.10 -5.20 7.10 -14.60 9.15 -21.60 1.30 -4.50 2.20 -6.65 3.25 -7.50 1.50 -1.25 4.65 -7.25 5.20 -9.95 0.30 -1.50 0.70 -5.50 0.90 -8.85 0.30 -5.75 0.25 -6.20 -0.80 -7.45 -1.35 -1.75 -1.35 -2.75 0.15 -5.65 0.65 -1.30 1.35 -3.60 1.55 -5.10 0.50 -3.80 1.50 -6.35 3.20 -8.25 2.35 -2.70 3.15 -8.20 3.40 -23.10 0.25 -12.55 0.25 -12.55 1.45 -13.70 1.70 -1.60 4.35 -1.55 6 0.15 1.25 1.25 1.30 1.50 1.55 9.45 0.30 9.20 -0.35 17.50 -1.95 25 -0.90 4.35 -0.95 5.25 -0.40 6.95 1.60 4.80 -0.55 19.55 -4.25 29 -1 2.60 -2.70 8 -3.75 12.05 -3.10 11.65 -8.40 24.80 -10.40 25.90 -0.55 0.30 -1.50 0.55 -2.05 0.55 -0.70 0 -1.35 0.65 -2.05 2.05 -0.60 1.15 -1 2.10 -0.90 2.15 0.10 0.05 0.85 0.30 1.65 0.55 1 0.35 1.80 1.15 2.40 2.40 0.90 1.80 0.90 1.90 0 3.60 -1.30 2.45 -9.05 13.90 -11.85 17.50 -4.55 5.80 -13.65 14.50 -23.45 22.40 -3.30 2.70 -5.35 3.05 -7.55 1.30z"/>
 </g>
 <g fill="#f7e698">
  <path d="M285.15 379.60 c-0.65 -0.10 -1.15 -0.35 -1.15 -0.60 0 -0.25 -0.55 -0.60 -1.25 -0.85 l-1.25 -0.40 2.65 -3.50 c3.85 -5.15 7.70 -12.55 10.30 -19.75 0.45 -1.25 2.85 -5.60 5.30 -9.70 3.60 -6.05 4.45 -7.75 4.35 -9.25 -0.10 -2.15 1.75 -6.55 2.80 -6.55 0.95 0 5.60 -1.65 5.60 -2 0 -0.35 7.55 -0.15 8.50 0.20 0.40 0.15 1.20 0.35 1.75 0.45 1.50 0.30 2.85 0.90 4.15 1.90 0.90 0.70 1.70 0.85 3.70 0.60 1.85 -0.25 2.45 -0.15 2.20 0.25 -0.20 0.40 0 0.60 0.55 0.60 1.75 0.05 11.95 3.85 14.35 5.40 1.40 0.90 2.80 1.60 3.20 1.60 0.40 0 1.45 0.80 2.35 1.75 0.85 1 2.25 1.95 3.05 2.15 1.75 0.50 12.60 -0.55 16.70 -1.60 4.50 -1.15 8.65 -4.25 10.55 -7.80 0.40 -0.70 3.30 -3.75 6.45 -6.70 3.15 -3 5.90 -5.80 6.10 -6.30 0.20 -0.50 0.90 -4.25 1.65 -8.35 1.80 -10.40 1.45 -9.50 3.45 -9.25 2.05 0.25 4 -0.90 4.75 -2.80 2.25 -5.65 7.15 -25.75 9.05 -36.95 1.65 -9.80 2.10 -11.50 3.20 -11.95 1.10 -0.40 2.15 -3.10 2.50 -6.45 0.45 -3.95 0.75 -4.75 1.60 -4.75 0.40 0 0.85 -0.35 1.05 -0.80 0.15 -0.45 0.65 -0.70 1.20 -0.55 0.55 0.15 0.95 0.05 0.95 -0.25 0 -0.30 0.55 -0.35 1.25 -0.20 1.20 0.30 5.20 -0.55 5.75 -1.20 0.15 -0.20 1.70 -0.25 3.50 -0.10 l3.30 0.20 1.35 5.85 c1.05 4.50 2.15 7.40 4.80 12.85 1.95 3.95 3.95 7.40 4.60 7.90 0.85 0.55 1.40 1.80 2 4.40 1.30 5.45 2.65 8.15 5.65 11.30 1.45 1.55 2.55 3.10 2.45 3.45 -0.10 0.30 0.35 1.70 1.05 3.05 1.45 2.85 2.45 8.20 2 10.55 -0.30 1.45 -0.25 1.55 1.25 1.55 0.85 0 1.55 -0.25 1.55 -0.55 0 -0.30 0.55 -0.40 1.40 -0.25 0.75 0.15 2.95 0.30 4.85 0.40 3.80 0.15 8.35 1.90 10.75 4.20 l1.30 1.15 4.65 -1.90 c2.55 -1.05 4.80 -2.15 5 -2.45 0.15 -0.25 0.95 -0.50 1.75 -0.50 0.80 0 1.75 -0.35 2.05 -0.80 0.35 -0.45 0.90 -0.80 1.20 -0.80 0.35 0 0.50 -0.15 0.40 -0.35 -0.15 -0.25 0.35 -0.45 1.05 -0.45 3.50 -0.20 18.35 -2.35 20.50 -2.95 3.85 -1.15 6.35 -3.30 7.95 -6.75 0.75 -1.65 1.65 -3 1.95 -3 0.80 0 3.20 -2.70 3.20 -3.65 0 -0.45 0.65 -1.60 1.50 -2.50 1.25 -1.45 1.80 -1.70 3.60 -1.70 1.70 0 2.35 -0.30 3.50 -1.60 1.15 -1.30 1.40 -2 1.40 -4.30 l0 -2.75 5.45 -6.80 c3.20 -3.95 5.80 -7.65 6.20 -8.85 l0.70 -2.10 3.35 6.75 c1.85 3.70 3.55 7 3.80 7.25 0.20 0.30 1.70 3.05 3.25 6.10 1.55 3.10 3.15 5.80 3.50 6.05 0.40 0.20 3.05 5.20 5.95 11.10 4.50 9.30 5.10 10.80 4.40 11.30 -0.95 0.70 -0.35 1.70 1.05 1.70 0.80 0.05 1.65 0.95 3.20 3.40 1.15 1.85 4.10 5.80 6.60 8.80 l4.50 5.45 -1.85 1.50 c-9.85 7.80 -22.30 15.10 -35.05 20.40 l-5.70 2.35 -1.30 -1.20 c-1.55 -1.45 -2.75 -1.50 -4 -0.25 -2.15 2.15 -12.85 4.60 -13.75 3.15 -0.35 -0.60 -2.80 0.45 -3.80 1.65 -0.50 0.60 -0.85 0.55 -2.40 -0.25 -2.40 -1.30 -2.65 -1.30 -6.85 0.70 -1.95 0.95 -6.55 2.65 -10.25 3.85 -6.45 2.10 -6.65 2.15 -8.70 1.40 -2.05 -0.75 -2.20 -0.70 -5.10 0.65 -1.60 0.75 -3.35 1.40 -3.80 1.40 -0.50 0 -0.90 0.30 -0.90 0.65 0 1.40 -8.75 3.35 -16.55 3.70 -4.80 0.25 -6.20 0.15 -8.10 -0.60 -2.20 -0.85 -2.35 -0.80 -4.20 0.05 -1.35 0.70 -2.05 1.45 -2.45 2.70 l-0.60 1.75 -6.40 1.30 c-3.55 0.75 -8.45 1.50 -10.95 1.65 -2.45 0.20 -8.90 0.80 -14.25 1.30 -5.35 0.55 -14.35 1.30 -20 1.75 -20.80 1.55 -31.05 3.10 -42.25 6.50 -3 0.90 -7 1.45 -16.25 2.25 -6.75 0.55 -16.40 1.45 -21.50 2 -13.55 1.45 -29.05 3 -30 3 -0.45 0 -1.10 -0.55 -1.45 -1.20 -0.80 -1.45 -2.55 -2.30 -4.65 -2.30 -1.10 0 -2 0.50 -3.10 1.70 -1.95 2 -3.20 2.65 -4.65 2.40z"/>
  <path d="M269 365.30 c0 -0.45 -0.20 -0.80 -0.45 -0.80 -0.25 0 -0.35 -0.45 -0.20 -1 0.15 -0.55 0.05 -1 -0.20 -1 -0.25 0 -0.25 -1.95 0 -4.60 0.25 -2.55 0.45 -5.25 0.50 -6 0.05 -0.80 0.25 -1.40 0.50 -1.40 0.20 0 0.55 -0.50 0.80 -1.10 0.25 -0.65 1.05 -2 1.75 -3.05 0.70 -1.05 1.30 -2.20 1.30 -2.60 0 -0.40 0.25 -0.75 0.60 -0.75 0.80 0 3.40 -2.55 3.40 -3.35 0 -0.35 0.40 -0.65 0.90 -0.65 0.95 0 3.15 -1.95 2.30 -2.05 -0.25 0 0.35 -0.30 1.30 -0.65 0.95 -0.30 1.70 -0.85 1.60 -1.20 -0.05 -0.35 0.45 -0.60 1.15 -0.60 0.70 0 1.40 -0.35 1.55 -0.75 0.20 -0.40 0.85 -0.75 1.45 -0.75 0.65 0 1.30 -0.30 1.45 -0.60 0.25 -0.65 -0.10 1.60 -0.50 3.10 -0.10 0.40 -0.75 1.10 -1.50 1.50 -0.90 0.50 -3.60 5 -8.85 14.70 -7 12.85 -8.85 15.70 -8.85 13.60z"/>
  <path d="M357.05 326.05 c0.15 -1.75 0.30 -2 1.55 -2.15 0.80 -0.15 1.55 -0.05 1.70 0.15 0.10 0.20 0.85 0.50 1.65 0.70 0.80 0.15 1.75 0.60 2.05 1 0.40 0.50 0.05 0.80 -1.80 1.45 -1.30 0.45 -3 0.80 -3.80 0.80 -1.35 0 -1.45 -0.10 -1.35 -1.95z"/>
  <path d="M581.30 261.75 c-0.70 -1.55 -1.30 -3.05 -1.30 -3.35 0 -1 1.40 1.30 1.80 2.90 0.20 0.80 0.55 1.75 0.85 2.10 0.25 0.35 0.40 0.75 0.25 0.90 -0.15 0.10 -0.85 -1 -1.60 -2.55z"/>
 </g>
 <g fill="#f8d4c8">
  <path d="M304.20 287.95 c-2.30 -2.55 -6.10 -3.20 -8.35 -1.45 -1.25 1 -1.40 1 -2.95 0.20 -3.80 -1.90 -8.85 -6.80 -10.45 -10.10 -1.50 -3 -1.20 -11.25 0.45 -14.45 0.60 -1.20 1.30 -2.15 1.50 -2.15 0.20 0 0.80 0.70 1.25 1.50 1.15 1.95 3.25 3 5.85 3 1.65 0 2.40 -0.30 3.60 -1.50 1.25 -1.30 1.45 -1.85 1.30 -3.50 l-0.15 -1.95 2.60 -0.30 c1.45 -0.15 3.85 -0.35 5.30 -0.50 1.85 -0.20 3.40 0 5.45 0.70 1.60 0.55 3.95 1.15 5.25 1.35 1.70 0.25 3.20 0.95 5.15 2.45 4.90 3.80 5.20 4.30 4.85 7.70 -0.20 1.60 -0.80 4.40 -1.40 6.20 l-1.05 3.30 -1.65 -1.75 c-1.35 -1.40 -1.95 -1.70 -3.75 -1.70 -1.85 0 -2.35 0.25 -4.35 2.40 -2.70 2.90 -4.30 5.55 -5.40 9 -0.95 2.85 -1.60 3.15 -3.05 1.55z"/>
  <path d="M283.25 247.25 c1.70 -1.40 5.30 -2.75 7.20 -2.70 0.80 0 0.25 0.30 -1.45 0.75 -1.50 0.40 -3.75 1.30 -5 1.95 l-2.25 1.25 1.50 -1.25z"/>
  <path d="M315.50 247.20 c-0.95 -0.35 -2.15 -0.65 -2.60 -0.65 -0.75 -0.05 -3.55 -3.05 -3.15 -3.45 0.25 -0.25 5.80 2.70 7.25 3.85 1.40 1.15 1.05 1.25 -1.50 0.25z"/>
  <path d="M545.45 220.40 c-2.50 -3.15 -4.70 -7.65 -5.50 -11.15 -0.50 -2.25 -0.45 -2.80 0.45 -4.55 1.35 -2.60 5.75 -6.70 8.85 -8.20 2.85 -1.40 7.55 -1.90 9.25 -1 0.90 0.45 1.05 0.90 0.80 2 -0.60 3.25 1.60 6 4.85 6 3.55 0 5.75 -3.45 5.15 -8.05 -0.20 -1.35 -0.20 -2.45 -0.05 -2.45 0.80 0 6.55 2.60 7.35 3.35 2 1.80 0.55 10.20 -3.10 18 l-2.05 4.35 -0.95 -1.55 c-1.20 -1.95 -2.40 -2.65 -4.80 -2.65 -1.45 0 -2.20 0.40 -3.80 2 -1.80 1.80 -2.20 1.95 -3.85 1.70 -1.35 -0.20 -2.40 0 -3.85 0.75 -1.05 0.60 -2.30 1.05 -2.75 1.05 -0.50 0 -1.45 0.70 -2.10 1.50 -0.70 0.85 -1.40 1.50 -1.55 1.50 -0.15 0 -1.20 -1.20 -2.35 -2.60z"/>
  <path d="M445.75 145.65 c0.50 -0.75 1.20 -1.85 1.60 -2.40 0.35 -0.55 0.65 -1.80 0.65 -2.85 0 -2.60 -1.65 -4.40 -4.35 -4.75 -1.95 -0.25 -2.25 -0.15 -3.75 1.45 -0.90 0.95 -2.30 2.70 -3.10 3.85 -1.45 2.15 -2.10 2.35 -2.95 0.95 -0.40 -0.55 0.10 -1.95 1.80 -5.40 2.90 -5.70 3.05 -7.80 0.80 -9.70 -2 -1.70 -4.40 -1.70 -6.30 -0.10 -1.35 1.15 -4.15 6.05 -4.15 7.25 0 0.95 -2.40 0.60 -3.75 -0.55 -3.25 -2.85 -2.85 -12.45 0.80 -20.45 1.70 -3.70 3.65 -5.75 7 -7.50 2.90 -1.45 5.10 -1.30 10.10 0.75 3.95 1.65 4.60 1.80 6.10 1.30 0.95 -0.30 2.15 -1.15 2.65 -1.85 l0.95 -1.30 3.15 1.70 c2.40 1.25 4.15 2.80 7.10 6.20 6.95 7.95 7.35 10.55 3.10 18.80 -3.70 7.15 -9.35 12.60 -15.65 15 l-2.70 1 0.90 -1.40z"/>
 </g>
</svg>