<svg preserveAspectRatio="xMidYMid meet" viewBox="51.092896174863384 46.480000000000004 722.2677595628415 1029.532" xmlns="http://www.w3.org/2000/svg" version="1.0" style="max-height: 500px" width="722.2677595628415" height="1029.532">
 <g fill="#bedce7">
  <path d="M379.10 1056.70 c-1.25 -0.65 -1.80 -0.70 -2.25 -0.25 -0.30 0.30 -1.20 0.55 -2 0.55 -1.25 0 -1.35 -0.10 -0.85 -0.70 0.50 -0.65 -0.25 -1.15 -4.60 -3.25 -7.45 -3.60 -13.75 -8.60 -19.25 -15.20 -0.65 -0.75 -1 -1.35 -0.90 -1.35 0.15 0 -0.20 -0.50 -0.75 -1.10 -1.45 -1.55 -4.50 -7.05 -4.50 -8.05 0 -0.50 -0.25 -0.85 -0.55 -0.85 -0.25 0 -0.35 -0.20 -0.20 -0.50 0.15 -0.25 0.10 -0.50 -0.10 -0.50 -0.25 0 -0.50 -0.50 -0.50 -1.10 -0.05 -0.65 -0.35 -1.20 -0.60 -1.30 -0.25 -0.10 -0.35 -0.50 -0.20 -0.90 0.15 -0.40 0 -0.70 -0.30 -0.70 -0.30 0 -0.40 -0.35 -0.25 -0.75 0.20 -0.40 0.10 -0.75 -0.20 -0.75 -0.25 0 -0.45 -0.30 -0.45 -0.60 0.10 -1.25 -0.75 -5.40 -1.10 -5.40 -0.20 0 -0.30 -0.65 -0.15 -1.50 0.15 -0.95 0 -1.50 -0.40 -1.50 -0.35 0 -0.45 -0.40 -0.25 -1 0.15 -0.55 0.10 -1.40 -0.20 -1.85 -0.30 -0.50 -0.55 -0.60 -0.55 -0.25 0 0.30 -0.20 0.60 -0.50 0.60 -0.30 0 -0.50 -1.95 -0.50 -4.85 0 -9.70 -2.25 -30.85 -4.80 -45.15 -1.15 -6.20 -1.35 -8.95 -1.45 -19 -0.10 -6.55 -0.50 -14.50 -0.90 -18 -1.40 -11.25 -4.75 -27.35 -6.60 -31.50 -1.30 -2.85 -3.60 -11.40 -5 -18.25 -0.90 -4.50 -1.75 -5.75 -3.85 -5.75 -0.90 0 -1.55 -0.30 -1.75 -0.85 -0.15 -0.50 -1.65 -3.90 -3.25 -7.55 -1.75 -3.95 -3.60 -9.40 -4.70 -13.50 -0.95 -3.75 -2.10 -7.20 -2.50 -7.65 -0.55 -0.60 -1.30 -0.75 -2.90 -0.60 l-2.20 0.25 -3 -4.40 c-3.75 -5.60 -4.65 -6.45 -6.05 -5.70 -0.60 0.30 -1.05 0.80 -1.05 1.10 0 0.35 -0.80 0.45 -2.45 0.25 -2.05 -0.25 -2.60 -0.10 -3.35 0.70 -0.80 0.90 -0.80 1.25 -0.30 3.25 0.85 3.25 0.75 5.90 -0.50 10.70 -1.15 4.65 -2.15 6 -4.25 6 -1.05 0 -1.20 -0.15 -0.75 -0.60 1.05 -1.05 0.65 -2.30 -1.25 -3.45 -1 -0.60 -3.45 -2.45 -5.50 -4.05 -2.30 -1.85 -3.65 -2.65 -3.65 -2.15 0 0.40 -0.35 0.75 -0.80 0.75 -0.75 0 -0.80 -0.80 -0.55 -7.85 0.15 -4.35 0.65 -11.15 1.05 -15.15 0.40 -4 1.05 -12.25 1.35 -18.35 0.60 -10.25 0.55 -11.20 -0.20 -12.05 -0.55 -0.60 -0.85 -1.80 -0.85 -3.55 0 -2.15 0.20 -2.80 1.10 -3.55 l1.15 -0.90 -0.95 -2.65 c-0.55 -1.50 -1.95 -4.70 -3.15 -7.15 -2.05 -4.25 -2.75 -7.30 -1.65 -7.30 0.30 0 0.50 0.20 0.50 0.50 0 0.25 0.95 -0.55 2.05 -1.75 1.15 -1.25 2.35 -2.25 2.65 -2.25 0.30 0 1.15 -0.75 1.85 -1.65 1.70 -2.10 1.80 -1.95 -5.45 -9.85 -5.70 -6.25 -10.10 -11.90 -10.10 -12.95 0 -0.30 -0.20 -0.55 -0.40 -0.55 -0.50 0 -4.90 -7.60 -4.70 -8.10 0.05 -0.25 -0.10 -0.40 -0.35 -0.40 -0.50 0 -1.35 -1.95 -1.15 -2.60 0.05 -0.25 -0.15 -0.40 -0.50 -0.40 -0.30 0 -0.40 -0.15 -0.25 -0.30 0.15 -0.20 0.05 -0.80 -0.25 -1.40 -0.35 -0.55 -0.55 -1.20 -0.50 -1.40 0.05 -0.25 -0.15 -0.40 -0.45 -0.40 -0.25 0 -0.35 -0.20 -0.20 -0.50 0.15 -0.25 0.05 -0.50 -0.30 -0.50 -0.35 0 -0.45 -0.15 -0.30 -0.30 0.15 -0.20 0.05 -0.80 -0.25 -1.40 -0.35 -0.55 -0.55 -1.20 -0.50 -1.40 0.05 -0.25 -0.15 -0.40 -0.45 -0.40 -0.25 0 -0.35 -0.20 -0.20 -0.50 0.15 -0.25 0.05 -0.50 -0.25 -0.50 -0.30 0 -0.45 -0.20 -0.25 -0.45 0.15 -0.25 -0.05 -0.75 -0.40 -1.15 -0.90 -0.95 -5.30 -8.05 -5.30 -8.60 0.05 -0.25 -0.20 -0.60 -0.45 -0.75 -1.30 -0.80 -7.10 -13.50 -6.70 -14.65 0.05 -0.25 -0.15 -0.40 -0.45 -0.40 -0.30 0 -0.45 -0.35 -0.25 -0.75 0.15 -0.40 0.05 -0.75 -0.25 -0.75 -0.30 0 -0.35 -0.20 -0.20 -0.50 0.35 -0.55 -1.15 -3 -1.80 -3 -0.60 0 -0.55 1.85 0.05 2.25 0.95 0.60 0.55 2.25 -0.55 2.25 -1 0 -1.05 -0.15 -0.75 -3.10 0.20 -1.75 0.70 -3.55 1.15 -4 0.70 -0.75 0.60 -1.10 -1 -3.75 -2.55 -4.25 -4.65 -8.65 -5.10 -10.60 -0.20 -0.95 -0.70 -2.05 -1.05 -2.45 -0.40 -0.35 -0.70 -1.10 -0.70 -1.65 0 -0.50 -0.20 -0.95 -0.50 -0.95 -0.25 0 -0.50 -0.45 -0.50 -1 0 -0.55 -0.20 -1 -0.50 -1 -0.25 0 -0.50 -0.90 -0.50 -2 0 -1.10 0.20 -2 0.45 -2 0.40 0 2.05 3.45 2.35 4.90 0.20 1.15 0.70 1.35 0.70 0.30 0 -0.55 -0.45 -1.80 -1 -2.85 -0.60 -1.05 -1.05 -2.70 -1.10 -3.65 -0.05 -0.95 -0.25 -1.70 -0.50 -1.70 -0.25 0 -0.35 -0.20 -0.15 -0.45 0.15 -0.25 0.05 -0.60 -0.25 -0.80 -0.30 -0.20 -0.40 -0.50 -0.25 -0.75 0.15 -0.25 0.05 -0.55 -0.25 -0.75 -0.30 -0.20 -0.40 -0.55 -0.25 -0.80 0.20 -0.25 0.10 -0.45 -0.15 -0.45 -0.30 0 -0.40 -0.45 -0.25 -1 0.15 -0.55 0 -1 -0.30 -1 -0.25 0 -0.40 -0.35 -0.25 -0.75 0.20 -0.40 0.05 -0.75 -0.25 -0.75 -0.30 0 -0.40 -0.35 -0.25 -0.75 0.20 -0.40 0.10 -0.75 -0.10 -0.75 -0.25 0 -0.50 -0.70 -0.55 -1.50 -0.10 -1.40 -1.65 -3.75 -1.65 -2.55 0 0.30 -0.20 0.55 -0.50 0.55 -0.25 0 -0.75 -1 -1.05 -2.25 -0.35 -1.30 -0.85 -2.25 -1.25 -2.25 -0.45 0 -0.70 -0.55 -0.70 -1.50 0 -1.35 0.10 -1.45 0.95 -0.90 0.55 0.35 0.90 0.75 0.80 0.95 -0.15 0.15 0.25 0.75 0.85 1.25 1.05 0.95 1.05 0.95 0.50 -0.15 -0.35 -0.60 -0.45 -1.75 -0.30 -2.60 0.20 -0.90 0.10 -1.55 -0.15 -1.55 -0.30 0 -0.40 -0.55 -0.25 -1.25 0.10 -0.70 0 -1.25 -0.25 -1.25 -0.30 0 -0.40 -0.55 -0.25 -1.25 0.10 -0.70 0 -1.25 -0.25 -1.25 -0.30 0 -0.40 -0.55 -0.25 -1.25 0.10 -0.70 0 -1.25 -0.25 -1.25 -0.30 0 -0.40 -0.55 -0.25 -1.25 0.10 -0.70 0 -1.25 -0.30 -1.25 -0.30 0 -0.40 -0.45 -0.25 -1 0.15 -0.55 0.05 -1 -0.20 -1 -0.30 0 -0.40 -0.55 -0.25 -1.25 0.10 -0.70 0 -1.25 -0.20 -1.25 -0.25 0 -0.50 -0.85 -0.60 -1.90 -0.05 -1 -0.30 -1.90 -0.55 -2 -0.25 -0.10 -0.35 -0.60 -0.20 -1.10 0.15 -0.55 0.05 -1 -0.20 -1 -0.30 0 -0.40 -0.55 -0.25 -1.25 0.10 -0.70 0 -1.25 -0.25 -1.25 -0.30 0 -0.40 -0.55 -0.25 -1.25 0.10 -0.70 0 -1.25 -0.25 -1.25 -0.30 0 -0.40 -0.55 -0.25 -1.25 0.10 -0.70 0 -1.25 -0.25 -1.25 -0.25 0 -0.40 -0.70 -0.25 -1.50 0.10 -0.80 0 -1.50 -0.25 -1.50 -0.25 0 -0.40 -0.70 -0.25 -1.50 0.10 -0.80 0 -1.50 -0.25 -1.50 -0.25 0 -0.35 -0.80 -0.25 -1.75 0.10 -1 0 -1.75 -0.30 -1.75 -0.30 0 -0.40 -0.80 -0.25 -2 0.15 -1.20 0.10 -2 -0.20 -2 -0.30 0 -0.45 -0.90 -0.25 -2.25 0.15 -1.35 0.05 -2.25 -0.25 -2.25 -0.30 0 -0.45 -0.90 -0.25 -2.25 0.15 -1.55 0.05 -2.25 -0.35 -2.25 -0.35 0 -0.55 -0.30 -0.50 -0.60 0.20 -1.15 -0.65 -4.40 -1.15 -4.40 -0.25 0 -0.35 -0.20 -0.15 -0.45 0.15 -0.25 0.05 -0.60 -0.20 -0.80 -0.30 -0.15 -0.40 -0.60 -0.20 -1 0.15 -0.40 0 -0.75 -0.30 -0.75 -0.30 0 -0.40 -0.35 -0.25 -0.75 0.20 -0.40 0.05 -0.75 -0.25 -0.75 -0.30 0 -0.40 -0.30 -0.25 -0.70 0.15 -0.40 0 -0.85 -0.25 -1.05 -0.30 -0.15 -0.45 -0.50 -0.35 -0.70 0.15 -0.20 -0.20 -2.05 -0.70 -4.10 -0.55 -2.05 -1 -4.20 -1 -4.80 0 -0.65 -0.20 -1.15 -0.45 -1.15 -0.25 0 -0.35 -0.45 -0.20 -1 0.15 -0.55 0.05 -1 -0.20 -1 -0.25 0 -0.40 -0.70 -0.25 -1.50 0.15 -0.95 0 -1.50 -0.35 -1.50 -0.35 0 -0.45 -0.20 -0.30 -0.50 0.40 -0.60 -0.80 -8.50 -1.25 -8.50 -0.20 0 -0.25 -0.55 -0.10 -1.25 0.10 -0.70 0 -1.25 -0.25 -1.25 -0.30 0 -0.40 -0.55 -0.25 -1.25 0.10 -0.70 0 -1.25 -0.25 -1.25 -0.25 0 -0.40 -0.65 -0.25 -1.50 0.10 -0.85 0 -1.50 -0.20 -1.50 -0.25 0 -0.50 -1.50 -0.60 -3.40 -0.05 -1.85 -0.35 -3.40 -0.60 -3.50 -0.30 -0.10 -0.55 -0.90 -0.55 -1.75 -0.05 -0.90 -0.15 -1.20 -0.30 -0.70 -0.40 1.45 -1.15 0.40 -1.15 -1.55 0 -1 0.45 -5.80 1 -10.60 0.55 -4.80 1.30 -13.70 1.75 -19.75 0.40 -6.05 1 -12.10 1.30 -13.50 0.60 -2.85 3.15 -11.35 5.80 -19.50 2.25 -6.90 10.35 -27.30 11.90 -30 0.65 -1.10 1.55 -3.10 2 -4.50 1.05 -3.10 4.60 -9.85 10.05 -18.90 2.25 -3.80 4.80 -8.80 5.65 -11.15 2.20 -6.10 2.70 -6.85 7.15 -11.50 3.50 -3.65 4.25 -4.20 5.70 -4.20 1.55 0 1.70 0.10 1.70 1.60 0 0.85 -0.35 2.75 -0.80 4.15 -0.80 2.40 -0.80 2.65 0.05 3.90 0.45 0.75 1.15 1.35 1.50 1.35 1.15 0 2.25 -1.80 2.75 -4.50 0.75 -3.95 2.55 -6.70 8 -12.05 5 -4.95 8.85 -7.95 10.20 -7.95 0.45 0 0.80 -0.40 0.80 -1 0 -0.80 0.35 -1 1.50 -1 2.05 0 1.90 0.75 -0.45 2.20 -1.10 0.70 -2.15 1.55 -2.35 1.90 -0.25 0.45 -0.10 0.40 0.50 -0.10 0.70 -0.55 3.10 -0.75 11.70 -0.80 l10.85 -0.15 3.25 -2.95 c6.65 -6 15.25 -11.35 26.10 -16.25 11.35 -5.05 10.75 -4.85 73.65 -20.80 17.10 -4.35 21.90 -5.35 37.75 -7.85 4.25 -0.65 10 -1.65 12.75 -2.20 8.65 -1.65 19.25 -2.20 43.50 -2.20 25.75 0 32.35 0.50 42.65 3.25 6.35 1.65 16.80 5.65 21.35 8.15 1.65 0.90 4.15 1.95 5.50 2.25 5.40 1.30 20.20 5.65 24.25 7.15 2.35 0.85 6.30 2.55 8.75 3.75 2.50 1.25 7.10 3.25 10.25 4.50 12.15 4.80 25.85 12 34.50 18.25 5.20 3.75 13.45 8.90 14.30 8.90 0.40 0 0.55 -0.30 0.35 -0.80 -0.20 -0.60 0 -0.75 0.90 -0.60 0.95 0.10 1.65 1.05 3.25 4.40 4.35 8.95 6.95 18.45 9.95 36.70 1 6.20 1.40 7.65 2.35 8.65 l1.20 1.20 1.05 -1.15 1.10 -1.15 -1.45 -9 c-0.85 -4.95 -1.50 -9.95 -1.50 -11.10 0 -2.10 0.05 -2.15 1.65 -2.15 2.10 0 3.35 1.95 3.35 5.25 0 2.75 3.15 9.70 10.10 22.25 4.85 8.75 13.55 26 16.35 32.45 1.85 4.15 5 15.30 9.85 34.55 2 8.10 4.95 23.80 5.95 32 0.45 3.70 1.25 4.70 3.65 4.60 l1.85 -0.15 -0.35 7.40 c-0.80 16.15 -1.45 25.70 -2.35 35.60 -0.55 5.65 -1.25 13.55 -1.55 17.55 -0.30 4 -1 9.75 -1.55 12.75 -1.50 8.10 -1.90 13.80 -1.95 25.40 0 8.35 0.15 10.70 0.75 11.85 0.45 0.85 0.75 1.55 0.75 1.60 -0.05 0.10 0.30 1.05 0.75 2.10 0.45 1.10 0.90 2.45 0.95 3.05 0.05 0.55 0.25 1.25 0.40 1.50 0.35 0.65 4.40 17 4.40 17.90 0 0.85 2.75 6.15 5.80 11.35 1.90 3.20 2.65 4 5 5.25 2.35 1.25 2.80 1.40 3.20 0.75 0.25 -0.40 0.50 -1.05 0.50 -1.35 0 -0.35 0.35 -0.65 0.80 -0.65 0.70 0 0.75 0.50 0.50 3.40 -0.20 1.85 -0.10 3.65 0.15 4.05 0.25 0.40 1.40 0.70 2.85 0.75 l2.45 0.05 0.15 2.10 c0.10 1.15 -0.30 4.05 -0.85 6.40 -1.25 5.20 -1.30 6.20 -0.30 7.65 0.60 0.80 0.75 2.30 0.70 6.05 -0.05 4.75 0 5.05 1.50 7.20 2.20 3.25 6.80 12.25 7.40 14.60 1.40 5.20 2.15 8.80 2.15 9.95 0 0.75 0.30 1.85 0.70 2.45 0.95 1.40 2.80 8.10 2.80 10 0 1.35 -0.05 1.40 -2.55 1.30 -3.45 -0.15 -3.95 0.55 -3.95 5.65 0 3.80 -0.45 4.80 -1.40 3.05 -0.40 -0.70 -1.20 -0.10 -5 3.65 -2.45 2.45 -5 4.75 -5.65 5.10 -0.65 0.35 -1.95 1.30 -2.90 2.05 -1.70 1.40 -1.75 1.45 -0.90 2.75 0.85 1.30 0.85 1.30 -0.50 1.30 -1 0 -1.65 -0.40 -2.25 -1.40 -2.55 -4 -4.25 -5.80 -5.90 -6.25 -0.95 -0.20 -2.45 -0.75 -3.35 -1.15 -2.10 -0.95 -2.50 -0.90 -3.35 0.45 -0.55 0.85 -2.80 13.35 -2.80 15.50 0 0.20 -0.45 0.35 -1 0.35 -0.75 0 -1 -0.35 -1 -1.35 l0 -1.40 -7.10 -0.05 c-4.75 0 -8.40 -0.30 -10.85 -0.90 -2.05 -0.45 -3.80 -0.75 -3.90 -0.65 -0.10 0.10 0.20 1 0.60 2 0.40 1.05 0.65 1.85 0.50 1.85 -0.15 0 0.10 0.55 0.55 1.25 0.40 0.65 0.65 1.45 0.50 1.70 -0.20 0.25 -0.10 0.60 0.15 0.75 0.25 0.20 0.85 1.95 1.35 3.95 0.65 2.80 0.90 6.30 1.05 15.60 0.15 12.75 0.30 15.25 0.85 16.15 0.20 0.35 0.20 0.60 -0.05 0.60 -0.20 0 1.20 1.60 3.10 3.50 1.90 1.95 3.75 3.50 4.10 3.50 0.35 0 0.65 0.40 0.70 0.90 0 0.70 0.10 0.70 0.45 -0.15 0.30 -0.80 0.45 -0.85 0.65 -0.25 0.15 0.40 0.40 9.65 0.55 20.50 0.35 26.35 1.25 36.60 4.60 53.20 1.80 8.95 2 10.80 1.20 10.80 -0.65 0 -1.55 -1.80 -1.10 -2.20 0.15 -0.20 -0.05 -0.20 -0.50 -0.05 -0.60 0.25 -0.70 0.70 -0.40 2.15 0.20 1 0.55 2.70 0.70 3.75 0.35 1.80 1.30 2.65 1.30 1.10 0 -0.40 0.35 -0.75 0.75 -0.75 1 0 1.45 2.85 1.15 7.75 -0.20 2.45 0 6.15 0.45 9.10 0.45 2.90 0.90 11.95 1.15 22.40 0.25 9.65 0.60 21.10 0.80 25.50 0.30 7.70 0.25 8.05 -0.75 9.20 -1.05 1.20 -2.25 4.70 -3.70 10.55 -0.45 1.95 -0.95 2.80 -1.60 2.90 -0.70 0.15 -0.85 -0.05 -0.65 -0.80 0.45 -1.70 -1 -0.75 -5.65 3.65 -2.35 2.30 -5.20 4.75 -6.35 5.50 -2.45 1.60 -2.90 2.55 -1.60 3.25 1.50 0.80 1.20 1.50 -0.70 1.50 -0.90 0 -1.95 0.35 -2.30 0.75 -1 1.20 -5.65 2.70 -10.20 3.25 -5.85 0.70 -22.30 0.55 -29.55 -0.30 -3.30 -0.35 -8.60 -1.35 -11.75 -2.15 -3.15 -0.80 -6.70 -1.60 -7.85 -1.80 -2.15 -0.35 -2.15 -0.35 -2.15 -2.45 0 -1.45 0.30 -2.35 1 -2.95 0.55 -0.45 1 -1.05 1 -1.25 0 -0.70 -1.65 -2 -2.75 -2.20 -0.60 -0.10 -1.70 -1.45 -2.90 -3.65 -2.20 -4.15 -6.20 -8 -12.65 -12.30 -2.75 -1.85 -6.70 -5.90 -6.70 -6.90 0 -0.95 0.15 -1 1 -0.55 0.90 0.50 0.95 0.40 0.50 -0.75 -0.25 -0.70 -0.35 -1.25 -0.20 -1.25 0.20 0 0.05 -0.30 -0.25 -0.65 -0.30 -0.40 -0.40 -0.85 -0.20 -1 0.15 -0.20 0.05 -0.35 -0.30 -0.35 -0.35 0 -0.45 -0.20 -0.30 -0.50 0.15 -0.25 0.10 -0.50 -0.10 -0.50 -0.25 0 -0.45 -0.50 -0.50 -1.10 -0.05 -0.55 -0.35 -1.20 -0.70 -1.40 -0.30 -0.20 -0.55 -0.95 -0.55 -1.70 0 -0.70 -0.15 -1.30 -0.35 -1.30 -0.15 0 -0.35 -0.70 -0.40 -1.60 -0.05 -0.85 -0.30 -1.70 -0.50 -1.85 -0.25 -0.15 -0.45 -1.20 -0.55 -2.30 -0.05 -1.10 -0.30 -2.05 -0.55 -2.15 -0.20 -0.05 -0.30 -0.70 -0.15 -1.35 0.10 -0.70 0 -1.25 -0.20 -1.25 -0.25 0 -0.50 -0.60 -0.55 -1.30 0 -0.75 -0.25 -1.45 -0.50 -1.65 -0.20 -0.15 -0.50 -0.75 -0.55 -1.30 -0.10 -0.55 -0.40 -1.10 -0.65 -1.15 -0.25 -0.10 -0.35 -0.40 -0.15 -0.65 0.15 -0.25 0.05 -0.45 -0.25 -0.45 -0.30 0 -0.40 -0.35 -0.25 -0.75 0.20 -0.40 0.05 -0.75 -0.30 -0.75 -0.30 0 -0.40 -0.20 -0.25 -0.50 0.65 -1.05 -1.55 -2.45 -5 -3.10 -4.50 -0.80 -4.55 -0.80 -4.35 0.25 0.20 1.20 -1.90 1.15 -3.55 -0.15 -0.70 -0.55 -1.70 -1 -2.25 -1 -0.65 0 -1.05 -0.45 -1.25 -1.35 -0.50 -2.40 -2.10 -3.65 -4.60 -3.65 -1.95 0 -2.25 -0.15 -2.55 -1.20 -0.15 -0.65 -0.20 -1.75 -0.10 -2.35 0.15 -1.10 0.40 -1.20 3.45 -1.35 2.90 -0.10 3.40 -0.30 3.95 -1.35 0.50 -0.95 0.50 -1.40 0.05 -1.95 -0.75 -0.90 -4.35 -1.80 -7.30 -1.80 -1.75 0 -2.55 -0.25 -3.15 -1 -0.80 -0.95 -1.45 -1 -8.85 -1.05 -4.50 0 -8.25 -0.25 -8.60 -0.55 -1.05 -0.85 -11.75 -1.05 -24 -0.40 -13.90 0.70 -16.25 1.30 -27.45 6.80 -6.35 3.10 -8.90 3.80 -10 2.70 -0.80 -0.80 -10.45 3.30 -16.10 6.85 -0.70 0.45 -2.15 0.70 -3.50 0.65 -1.30 -0.10 -2.65 -0.10 -3 -0.05 -0.35 0 -1.65 1.65 -2.90 3.55 -1.95 3.05 -2.45 3.50 -3.75 3.50 -1.35 0 -1.40 -0.10 -0.85 -1 0.95 -1.50 -0.10 -1.95 -4.30 -1.80 -1.95 0.10 -5.90 -0.25 -8.80 -0.75 -2.90 -0.50 -5.45 -0.95 -5.70 -0.95 -0.80 0 0.85 12.05 4.30 31.50 0.90 5.05 1.10 8.05 1.05 15.50 0 8.35 -0.15 9.75 -1.35 14.25 -1.45 5.50 -5.45 14.20 -7.60 16.50 -0.75 0.85 -1.30 1.50 -1.20 1.50 0.65 0 -0.80 2.20 -1.90 2.85 -1.60 0.95 -3.05 4.40 -1.80 4.40 0.40 0 0.70 0.40 0.70 0.95 0 0.80 -0.90 1.05 -6.60 2.05 -10.50 1.75 -18.75 3.75 -25.20 6 -3.25 1.15 -7.75 2.70 -9.95 3.50 -5.25 1.80 -11.35 2.35 -13.65 1.20z m66.45 -230.55 c0.40 -0.50 1.10 -1.75 1.60 -2.75 0.80 -1.80 5.05 -7.90 9.70 -14 1.65 -2.15 2.55 -2.90 3.45 -2.90 2.45 0 3.35 -1.75 5.80 -11 1.30 -4.80 2.85 -11.05 3.45 -13.85 0.85 -3.85 1.30 -5.15 1.90 -5.20 1.10 -0.05 7.95 -0.80 12.80 -1.40 2.20 -0.30 8.30 -1.50 13.50 -2.75 15.10 -3.55 25.25 -6.90 39.25 -13 7.10 -3.10 7.55 -3.05 11.25 1.30 1.65 1.95 4.70 5.35 6.75 7.60 4.10 4.40 8.55 9.85 10.70 13.15 l1.40 2.05 2.60 -0.25 c2.25 -0.25 2.80 -0.10 4.05 0.95 2.30 1.90 5.95 3.90 7.15 3.90 1.50 0 3.25 -2.40 2.85 -3.95 -0.60 -2.30 -5.05 -11.25 -9.70 -19.45 -4.35 -7.70 -4.65 -8.30 -4.30 -10.25 0.15 -1.15 0.30 -3.65 0.25 -5.60 l-0.05 -3.50 3.05 -1.65 c5.60 -3.10 20.35 -16.40 22.20 -20 0.80 -1.50 0.80 -1.80 0.10 -2.85 -0.40 -0.65 -1.50 -1.30 -2.40 -1.50 -0.90 -0.20 -2.20 -1.05 -2.90 -1.85 -1.70 -2 -2.75 -1.50 -4 2.05 -1.25 3.30 -4.60 7.55 -6.05 7.55 -0.55 0 -2.15 1.25 -3.60 2.75 -1.40 1.50 -2.80 2.75 -3.10 2.75 -0.25 0.05 -1.30 0.70 -2.25 1.50 -1.35 1.20 -2.20 1.50 -4.05 1.50 -2.20 0 -2.50 0.15 -5.85 3.50 -3.15 3.15 -3.75 3.50 -5.45 3.50 -2.10 0 -3.45 1.05 -4.50 3.50 -0.35 0.85 -1.40 1.60 -3.20 2.35 -8.75 3.45 -9.65 3.75 -11.60 3.50 -1.60 -0.20 -2.75 0.15 -6.75 2.15 -7.35 3.60 -29.75 9.40 -39.85 10.30 -4.65 0.40 -7.05 1.20 -7.45 2.60 -0.25 0.70 -1.25 1.15 -4.05 1.80 -5.50 1.20 -7.65 1.05 -9.30 -0.50 -1.10 -1.05 -1.55 -1.20 -2.35 -0.75 -0.55 0.30 -3.90 1.10 -7.40 1.85 -8.20 1.65 -17.30 1.90 -19.35 0.55 -0.70 -0.45 -1.65 -0.85 -2.10 -0.85 -0.45 0 -1.50 -0.75 -2.40 -1.70 -1.35 -1.40 -2.05 -1.75 -4.35 -2 -3 -0.30 -3.55 -0.10 -4.45 1.55 -0.45 0.85 -1.10 1.15 -2.90 1.25 -2.25 0.15 -2.45 0.30 -3.55 2.30 -1.15 2.05 -1.15 2.20 -0.30 3.15 2.20 2.40 13.95 4.20 25.70 3.85 l6.25 -0.15 -0.05 2.75 c-0.10 5.05 -5.35 24.15 -7 25.50 -0.90 0.80 -0.90 1.70 0.05 2.50 1.10 0.90 0.90 3.80 -0.45 7.90 -1.30 3.70 -2.10 7.80 -1.85 9.10 0.40 2 1.95 2.55 3.10 1.15z m-8.05 -146.70 c0.65 -0.50 0.65 -0.50 0 -0.30 -0.75 0.20 -2.95 -0.95 -2.45 -1.30 2 -1.40 9.70 -1.70 19.45 -0.85 10.75 1 25.90 1.40 34.75 1 13.55 -0.65 15.30 -1.10 16.90 -4.45 0.50 -1.05 1.15 -1.35 4.60 -1.90 12.55 -2 23.80 -4.55 28.40 -6.45 1.70 -0.65 5.80 -1.90 9.10 -2.75 6.70 -1.70 11.20 -3.45 20.05 -7.85 3.35 -1.65 7.85 -3.65 10 -4.35 8.25 -2.85 14.30 -7.55 16.85 -13.20 4 -8.75 6.45 -13.80 8.75 -17.75 5.70 -9.90 8.80 -19.50 7.50 -23.10 -0.75 -2.10 -0.20 -6.40 2.30 -18.45 1.90 -9.30 2.95 -15.40 3.80 -22.85 0.50 -4.20 0.40 -5.85 -0.50 -12.75 -1.55 -12.10 -2.85 -18.95 -4.55 -24.70 -0.85 -2.85 -2.05 -7.80 -2.70 -10.95 -1.90 -9.45 -3.25 -12.95 -8 -21.45 -0.65 -1.20 -1.45 -2.45 -1.75 -2.75 -0.25 -0.25 -0.50 -1.25 -0.50 -2.15 0 -1.20 -0.25 -1.65 -0.80 -1.65 -0.45 0 -1.15 -0.40 -1.50 -0.85 -0.70 -0.90 -0.95 -4.15 -0.40 -4.15 0.55 0 1.70 1.65 2.70 3.80 0.50 1.15 1.15 2.25 1.45 2.40 0.70 0.45 0.70 0.25 -0.20 -1.90 -0.45 -1 -0.65 -2.05 -0.50 -2.30 0.20 -0.30 0.05 -0.50 -0.25 -0.50 -0.30 0 -0.45 -0.20 -0.25 -0.50 0.15 -0.25 -0.10 -0.95 -0.60 -1.55 -2.20 -2.65 -3.95 -3.80 -3.35 -2.20 0.20 0.50 0 0.75 -0.70 0.75 -0.80 0 -1.60 -1.05 -3.35 -4.35 -2.50 -4.85 -5.45 -9.15 -6.30 -9.15 -0.25 0 -1 0.55 -1.65 1.25 -1.30 1.40 -2.30 1.65 -2.30 0.55 0 -0.40 -1.20 -1.35 -2.60 -2.20 -2.65 -1.50 -3.95 -1.65 -2.85 -0.30 0.45 0.60 0.30 0.70 -0.95 0.70 -0.85 0 -1.75 -0.30 -1.95 -0.65 -0.35 -0.60 -3.60 -3.20 -7.80 -6.25 -0.90 -0.65 -4.20 -3.70 -7.40 -6.75 -6.10 -5.95 -6.45 -6.20 -14.20 -11 -2.75 -1.70 -6.45 -4.10 -8.20 -5.35 -11.60 -8.20 -22.30 -13.45 -30.10 -14.75 -1.60 -0.30 -2.90 -1 -4.70 -2.65 -3 -2.70 -7.05 -4.65 -12.50 -6.10 -5.45 -1.40 -20.90 -1.95 -28 -0.95 -3 0.40 -8.60 0.60 -13.90 0.55 -5.55 -0.05 -11 0.20 -14.50 0.65 -3.25 0.45 -6.90 0.60 -8.70 0.45 -4.25 -0.45 -5.45 -0.05 -6.20 2 -0.60 1.70 -0.70 1.75 -6.75 3.25 -6.55 1.65 -10.60 1.95 -12.20 0.95 -0.85 -0.55 -1.65 -0.30 -5.85 1.80 -8.70 4.30 -10.80 6 -24.05 19.70 -17.30 17.85 -23.80 25.30 -26 29.95 -0.70 1.50 -0.70 1.70 0.05 2.55 1.65 1.80 1.05 3.90 -3.90 13.75 -2.60 5.15 -4.75 9.90 -4.75 10.45 0 1.70 1.30 2.75 3 2.50 1.35 -0.20 1.50 -0.40 1.50 -1.95 0 -0.95 0.50 -2.85 1.05 -4.20 1 -2.25 1.20 -2.45 2.75 -2.45 l1.70 0 -0.05 2.90 c-0.10 4.55 -0.45 5.30 -2.60 5.50 -1.80 0.15 -1.85 0.25 -1.85 2.05 0 2.20 -1.20 5.85 -2.30 7.10 -0.45 0.50 -0.90 2.60 -1.20 5.75 -0.20 2.75 -1.05 9.55 -1.80 15.20 -1.20 8.95 -1.40 11.90 -1.40 23.50 -0.05 14.50 0.25 16.75 3.15 23.45 0.80 1.85 1.60 4.75 1.80 6.55 0.50 5.20 2.20 14.45 3.30 18.20 1.70 5.65 4.20 10.90 11.35 23.55 3.70 6.60 7.40 13.60 8.20 15.50 0.80 1.95 2.40 4.75 3.60 6.25 1.15 1.55 3.55 5.25 5.25 8.25 5.75 10 10.15 15.05 17.05 19.60 9.45 6.25 18.05 8.95 29.95 9.50 5.60 0.20 7.55 0.45 7.55 0.95 0 0.35 -0.40 0.70 -0.85 0.80 -0.50 0.15 0.10 0.40 1.25 0.60 1.45 0.25 2.40 0.20 2.75 -0.15 0.40 -0.40 0.30 -0.55 -0.35 -0.55 -0.45 0 -0.70 -0.20 -0.55 -0.50 0.15 -0.25 2.20 -0.50 4.55 -0.50 3.40 0 4.20 0.15 4.20 0.75 0 0.80 -0.45 0.90 -4.15 0.80 -3.15 -0.10 -4.25 0.60 -1.60 1 3.40 0.50 7.95 0.45 8.75 -0.10z m-216.50 -18.70 c-0.30 -0.75 -0.65 -1.25 -0.80 -1.15 -0.10 0.15 0.05 0.85 0.35 1.60 0.80 1.70 1.15 1.35 0.45 -0.45z"/>
  <path d="M455.50 798.40 c0 -1.20 0.45 -3.30 1 -4.75 0.95 -2.55 0.95 -2.55 0 -3.80 -1.20 -1.50 -1.25 -3.30 -0.25 -8.50 0.40 -2.15 0.75 -4.05 0.75 -4.15 0 -0.10 1.80 -0.20 4 -0.20 3.25 0 4.10 0.15 4.35 0.80 0.35 1 -0.40 5.15 -2.70 14.20 -1.85 7.40 -2.55 8.45 -5.50 8.50 -1.60 0 -1.65 -0.05 -1.65 -2.10z"/>
  <path d="M569.20 774.85 c-1.35 -1.45 -3.20 -3.45 -4.10 -4.50 -1.25 -1.45 -2 -1.85 -3.30 -1.85 -1.80 0 -2.25 -0.40 -6.75 -6.15 -1.20 -1.55 -2.70 -3.15 -3.35 -3.60 -1.65 -1.10 -1.70 -4.10 -0.05 -4.70 0.60 -0.25 2.35 -0.95 3.85 -1.55 1.50 -0.65 3.65 -1.25 4.75 -1.35 l2 -0.20 2.85 5.40 c1.60 2.95 4.45 8.20 6.40 11.65 2.35 4.20 3.50 6.75 3.50 7.85 0 1.55 -0.10 1.65 -1.70 1.65 -1.35 0 -2.10 -0.45 -4.10 -2.65z"/>
  <path d="M451 671 c0 -0.70 0.45 -1.05 1.85 -1.30 1.25 -0.25 1.90 -0.15 2.05 0.25 0.10 0.30 0.50 0.55 0.90 0.55 0.40 0 0.70 0.35 0.70 0.75 0 0.60 -0.65 0.75 -2.75 0.75 -2.40 0 -2.75 -0.15 -2.75 -1z"/>
  <path d="M458.50 671.30 c0 -0.45 0.35 -0.80 0.75 -0.80 0.40 0 0.75 -0.20 0.75 -0.45 0 -0.45 9.60 -3.35 17.75 -5.35 3.05 -0.75 7.40 -1.40 9.70 -1.50 2.35 -0.05 4.35 -0.35 4.55 -0.70 0.45 -0.75 12.25 -2.55 17.90 -2.70 4.10 -0.15 4.60 -0.05 4.60 0.70 0 0.50 -0.30 1.10 -0.60 1.35 -1.20 0.90 -8.15 3.55 -10.80 4.10 -3.95 0.85 -10.35 0.70 -11.30 -0.20 -0.40 -0.40 -1.10 -0.75 -1.50 -0.75 -1 0 -2.30 2.50 -2.30 4.40 0 2 -0.60 2.10 -16.35 2.45 -11.85 0.25 -13.15 0.20 -13.15 -0.55z"/>
  <path d="M396 667.85 c-3.55 -1.40 -9.85 -4.95 -11.60 -6.55 -0.95 -0.85 -1.40 -1.75 -1.40 -2.80 0 -1.35 0.15 -1.50 1.65 -1.50 0.90 0 2.10 0.35 2.65 0.75 0.50 0.40 1.25 0.75 1.65 0.75 1.35 0 5.05 2.10 5.05 2.80 0 0.40 0.45 0.70 1 0.70 0.55 0 1 0.20 1 0.40 0 0.25 1.35 1.10 2.95 1.90 2.75 1.30 3 1.60 3 3.10 0.05 1.50 -0.05 1.60 -1.55 1.55 -0.90 0 -2.90 -0.50 -4.40 -1.10z"/>
  <path d="M532.15 661.65 c-0.35 -0.10 -0.65 -1 -0.65 -1.95 0 -1.75 0 -1.75 2.15 -1.60 2.05 0.15 2.10 0.20 2.25 2.05 0.15 1.80 0.10 1.85 -1.50 1.80 -0.90 0 -1.95 -0.15 -2.25 -0.30z"/>
  <path d="M599.15 611.65 c0 -0.80 -0.15 -3.35 -0.35 -5.75 -0.30 -3.30 -0.25 -4.40 0.20 -4.40 0.40 0 0.55 -0.80 0.40 -2.50 -0.05 -1.40 0.05 -2.50 0.30 -2.50 0.20 0 0.30 -1 0.20 -2.25 -0.10 -1.25 0.05 -2.25 0.30 -2.25 0.20 0 0.30 -0.65 0.20 -1.50 -0.15 -0.80 0 -1.50 0.25 -1.50 0.25 0 0.35 -0.65 0.25 -1.50 -0.15 -0.80 0 -1.50 0.25 -1.50 0.25 0 0.35 -0.65 0.25 -1.50 -0.15 -0.80 0 -1.50 0.25 -1.50 0.25 0 0.35 -0.45 0.20 -1 -0.15 -0.55 -0.05 -1 0.25 -1 0.30 0 0.40 -0.75 0.30 -1.75 -0.10 -0.95 0 -1.75 0.25 -1.75 0.25 0 0.35 -1.70 0.25 -3.75 -0.10 -2.05 0 -3.75 0.25 -3.75 0.25 0 0.35 -1.70 0.25 -3.75 -0.10 -2.05 0.05 -3.75 0.30 -3.75 0.25 0 0.30 -1 0.20 -2.25 -0.20 -1.35 -0.05 -2.25 0.25 -2.25 0.30 0 0.40 -0.90 0.25 -2.25 -0.15 -1.30 -0.05 -2.25 0.20 -2.25 0.30 0 0.45 -1.30 0.40 -2.85 -0.25 -6.05 -0.05 -8.15 0.75 -8.15 0.40 0 0.75 -0.35 0.75 -0.75 0 -0.40 0.35 -0.75 0.75 -0.75 1.20 0 1.45 3.10 1.45 17.25 0.05 14.85 0.15 13.80 -4.35 32.15 -0.90 3.65 -1.45 6.90 -1.25 7.25 0.55 0.85 0.50 5.75 -0.15 8.10 -1.70 6.60 -2 7.25 -2.90 7.25 -0.70 0 -0.90 -0.35 -0.90 -1.35z"/>
  <path d="M353.05 599.50 c-3.75 -4.65 -6.70 -13.45 -8.30 -24.35 -1.75 -12.50 -2.30 -24.65 -1.10 -24.65 1 0 4.75 12.95 4.10 14.05 -0.20 0.25 -0.10 0.45 0.10 0.45 0.35 0 1.60 6.20 1.95 9.75 0.05 0.55 0.20 1.35 0.40 1.75 0.85 2.20 3.25 10.70 3.05 10.90 -0.15 0.15 -0.05 0.50 0.20 0.80 0.60 0.75 2.05 6.40 1.75 6.85 -0.10 0.20 0 0.50 0.30 0.70 0.25 0.15 0.50 0.90 0.50 1.65 0 0.75 0.35 1.95 0.70 2.75 0.70 1.30 0.70 1.35 -0.65 1.35 -1 0 -1.80 -0.55 -3 -2z"/>
  <path d="M350 477.50 c0 -1.65 0.15 -2 1 -2 0.80 0 0.95 0.30 0.80 1.45 -0.35 3.05 -1.80 3.55 -1.80 0.55z"/>
  <path d="M351 473.50 c0 -2.55 1.15 -6 2 -6 0.45 0 0.80 0.50 0.80 1.25 0.05 0.70 -0.10 1.25 -0.40 1.25 -0.25 0 -0.30 0.45 -0.15 1 0.20 0.55 0.10 1 -0.20 1 -0.30 0 -0.40 0.35 -0.25 0.75 0.25 0.65 -0.80 2.25 -1.50 2.25 -0.15 0 -0.30 -0.65 -0.30 -1.50z"/>
  <path d="M353.15 464.55 c0.50 -4 2.35 -7.05 4.40 -7.05 0.85 0 0.95 0.15 0.50 0.65 -0.30 0.40 -0.40 0.85 -0.20 1 0.15 0.20 0.05 0.35 -0.25 0.35 -0.35 0 -0.60 0.30 -0.60 0.70 0 1.15 -3 6.80 -3.60 6.80 -0.35 0 -0.45 -0.80 -0.25 -2.45z"/>
  <path d="M369.50 443.20 c0 -0.70 0.30 -1.20 0.75 -1.20 1.20 0 2.75 -2.10 2.75 -3.65 0 -1.15 0.60 -2.05 2.40 -3.75 2.80 -2.65 5 -4.10 6.30 -4.10 0.55 0 1.70 -0.60 2.65 -1.30 1 -0.75 2.85 -1.50 4.80 -1.80 1.70 -0.30 3.50 -0.90 4 -1.30 0.95 -0.85 1.15 -2.35 0.35 -2.85 -0.25 -0.15 -0.50 -1.10 -0.50 -2 0 -1.70 0 -1.70 4.15 -2.95 2.25 -0.70 8.05 -2.20 12.85 -3.30 17.10 -3.95 19.25 -4.50 20.85 -5.30 1.40 -0.75 3 -0.80 12 -0.55 5.70 0.15 12.45 0.65 14.90 1.05 2.50 0.40 8.65 1.45 13.75 2.25 5.10 0.85 10.10 1.70 11.15 1.85 1.40 0.20 1.85 0.50 1.85 1.30 0 2.45 1.95 4.35 4.50 4.40 1.50 0 2.25 0.45 4.40 2.65 2.10 2.10 2.60 2.95 2.60 4.30 0 1.30 -0.15 1.55 -0.60 1.15 -0.35 -0.25 -2.40 -1.10 -4.55 -1.80 -2.15 -0.75 -4.85 -1.80 -6 -2.40 -2 -1 -2.50 -1 -12.60 -0.70 -9.20 0.35 -12.40 0.70 -25.75 2.85 -15.40 2.50 -22.45 4.15 -58.25 13.45 -7.40 1.95 -13.90 3.40 -14.35 3.30 -0.50 -0.10 -0.90 0 -0.90 0.30 0 0.25 -0.20 0.30 -0.50 0.15 -0.25 -0.15 -0.50 -0.10 -0.50 0.15 0 0.25 -0.55 0.60 -1.25 0.70 -1.05 0.20 -1.25 0.05 -1.25 -0.90z"/>
  <path d="M528.35 434.15 c-0.25 -0.20 -0.60 -0.40 -0.75 -0.45 -0.20 0 -0.70 -0.15 -1.10 -0.30 -0.40 -0.15 -3.10 -0.55 -6 -0.90 -2.90 -0.30 -7.25 -1 -9.75 -1.50 -4.15 -0.85 -4.55 -0.90 -5.10 -0.15 -0.70 0.90 -0.75 0.90 -1.50 -0.85 -0.30 -0.70 -2 -3 -3.85 -5.10 -2.70 -3.20 -3.30 -4.20 -3.30 -5.65 l0 -1.75 2.90 0 c1.75 0 3.30 0.30 3.95 0.75 0.60 0.40 6 3.25 12.05 6.25 6 3.05 11.45 6.05 12.05 6.70 1.05 1.10 1.40 4 0.40 2.95z"/>
  <path d="M648.50 1033.55 c0 -0.75 0.30 -0.90 1.75 -0.70 0.95 0.10 1.75 -0.05 1.75 -0.30 0 -0.25 -0.80 -0.60 -1.75 -0.75 -1.05 -0.20 -1.75 -0.65 -1.75 -1.10 0 -1.10 1.20 -1.35 4.25 -0.95 l2.75 0.30 0 2.25 0 2.20 -3.50 0 c-3.10 0 -3.50 -0.10 -3.50 -0.95z"/>
  <path d="M620.65 1029.15 c-1.35 -0.70 -1.65 -1.15 -1.65 -2.40 0 -2 0.80 -2.75 3 -2.75 2.70 0 4 0.50 4 1.55 0 0.90 -0.75 1.20 -2.35 1 -1.25 -0.15 -0.60 1.05 0.85 1.60 0.85 0.30 1.50 0.85 1.50 1.20 0 0.90 -3.35 0.75 -5.35 -0.20z"/>
  <path d="M253.45 820.65 c-0.05 -0.50 -0.05 -1.30 0 -1.75 0.10 -0.55 -0.25 -0.90 -0.70 -0.90 -0.45 0 -0.65 -0.20 -0.50 -0.50 0.15 -0.25 0.05 -0.50 -0.20 -0.50 -0.30 0 -0.50 -0.15 -0.50 -0.35 0.05 -0.25 0.05 -0.50 0 -0.65 -0.10 -0.15 -0.20 -0.95 -0.30 -1.80 -0.15 -0.85 -0.50 -2.20 -0.80 -3 -0.35 -0.80 -0.55 -1.85 -0.50 -2.30 0.05 -0.50 -0.10 -0.90 -0.35 -0.90 -0.25 0 -0.35 -0.65 -0.20 -1.50 0.10 -0.80 0 -1.50 -0.25 -1.50 -0.30 0 -0.40 -1.05 -0.25 -2.50 0.15 -1.60 0.05 -2.50 -0.30 -2.50 -0.30 0 -0.50 -0.95 -0.45 -2.25 0.05 -1.45 0.30 -2.25 0.70 -2.25 0.45 0 0.55 -0.45 0.35 -1.50 -0.30 -1.25 -0.15 -1.50 0.70 -1.50 0.90 0 1.20 1 3.05 10.65 2.25 11.50 2.70 18.35 1.30 18.35 -0.40 0 -0.80 -0.40 -0.80 -0.85z"/>
  <path d="M254.85 791.35 c-0.45 -1.50 -0.85 -3.40 -0.85 -4.25 0 -1.50 0.10 -1.60 1.90 -1.60 2.40 0 3.10 1.25 3.10 5.50 l0 3 -1.65 0 c-1.55 0 -1.70 -0.15 -2.50 -2.65z"/>
  <path d="M256.75 775.50 c-1.25 -2.45 -2.25 -5.15 -2.25 -6 0 -1.40 0.10 -1.50 2 -1.50 2 0 2 0 4 4 1.35 2.65 2 4.65 2 6 0 1.95 -0.05 2 -1.75 2 -1.70 0 -1.80 -0.15 -4 -4.50z"/>
  <path d="M751.65 732.35 c-1.65 -3.85 -3.20 -9.10 -4.20 -14.25 -0.70 -3.75 -1.65 -5.05 -3.95 -5.55 l-1.75 -0.35 0.15 -8.95 c0.10 -4.95 0.30 -9.40 0.40 -9.85 0.30 -0.95 1.70 -1.25 1.70 -0.40 0 0.30 0.85 1.65 1.90 3 2.20 2.90 4.65 6.80 4.80 7.65 0.05 0.30 0.50 1.30 0.95 2.20 0.45 0.85 1.45 3.55 2.20 6 1.25 4.15 1.35 5 1.35 14.25 0.05 9.60 0 9.90 -0.95 9.90 -0.75 0 -1.40 -0.90 -2.60 -3.65z"/>
  <path d="M242 722.15 c0 -0.80 -0.35 -2.05 -0.75 -2.85 -1.10 -2.05 -1 -3.25 0.25 -2.95 1.35 0.35 1.80 1.30 2.20 4.55 0.30 2.40 0.25 2.60 -0.70 2.60 -0.75 0 -1 -0.35 -1 -1.35z"/>
  <path d="M231.50 699.70 c0 -2.20 0.90 -2.10 1.85 0.20 0.65 1.55 0.60 1.60 -0.60 1.60 -1.10 0 -1.25 -0.20 -1.25 -1.80z"/>
  <path d="M229.50 694.70 c0 -2.20 0.90 -2.10 1.85 0.20 0.65 1.55 0.60 1.60 -0.60 1.60 -1.10 0 -1.25 -0.20 -1.25 -1.80z"/>
  <path d="M228 690.75 c0 -1.85 0.65 -2.30 1.25 -0.85 0.85 1.85 0.75 2.60 -0.25 2.60 -0.80 0 -1 -0.35 -1 -1.75z"/>
  <path d="M212.60 646.85 c-0.35 -0.90 -0.60 -2.05 -0.60 -2.45 0 -0.45 -0.25 -0.90 -0.55 -1 -0.70 -0.25 -1.25 -4.90 -0.60 -4.90 0.65 0 1.95 2.75 3.90 8.15 0.70 1.80 0.65 1.85 -0.40 1.85 -0.85 0 -1.30 -0.45 -1.75 -1.65z"/>
  <path d="M706.50 453.45 c0 -0.90 -8.95 -19.05 -12.65 -25.65 -2 -3.55 -3.95 -7.85 -4.85 -10.70 -1.45 -4.70 -1.90 -8.10 -1.10 -8.10 0.95 0 9.20 13.55 10.35 17 0.10 0.30 0.70 1.75 2.20 5.15 0.55 1.30 1.05 2.45 1.05 2.60 0 0.25 0.05 0.45 0.25 1.15 0.05 0.20 0.25 1.05 0.50 1.85 0.20 0.85 1.30 3.55 2.40 6 3.75 8.55 3.95 8.95 4.10 10.40 0.05 0.60 -0.25 0.85 -1.10 0.85 -0.65 0 -1.15 -0.25 -1.15 -0.55z"/>
  <path d="M678.80 401.90 c-0.45 -0.60 -0.80 -1.40 -0.80 -1.75 0 -0.35 -0.20 -0.65 -0.50 -0.65 -0.25 0 -0.50 -0.80 -0.50 -1.75 0 -0.95 0.25 -1.75 0.50 -1.75 0.30 0 0.50 0.20 0.50 0.45 0 0.85 3.80 4.55 4.65 4.55 0.50 0 0.85 0.40 0.85 1 0 1.50 -3.65 1.45 -4.70 -0.10z"/>
  <path d="M256.35 357.65 c-0.20 -0.15 -0.35 -1.10 -0.35 -2.05 0 -1.65 1.45 -3.55 2.80 -3.60 0.35 0 0.70 -0.35 0.90 -0.75 0.15 -0.50 0.95 -0.75 2.15 -0.75 l1.90 0.05 -1.65 1.45 c-1.30 1.20 -1.55 1.70 -1.15 2.40 0.30 0.45 0.55 0.60 0.55 0.25 0 -0.30 0.70 -0.80 1.50 -1.10 1.40 -0.45 1.50 -0.40 1.50 0.70 0 0.70 -0.35 1.30 -0.95 1.50 -0.50 0.15 -1.45 0.70 -2.05 1.25 -1.10 0.95 -4.45 1.40 -5.15 0.65z"/>
  <path d="M280.50 330.65 c0 -0.25 0.80 -0.95 1.75 -1.60 0.95 -0.65 1.75 -1.35 1.75 -1.60 0 -0.20 -0.90 -0.70 -2 -1 -2.90 -0.90 -2.60 -1.95 0.55 -1.95 3.40 0 4.45 0.65 4.45 2.65 0 1.25 -0.35 1.85 -1.65 2.75 -1.55 1.05 -4.85 1.55 -4.85 0.75z"/>
  <path d="M301.75 329.15 c0.35 -0.70 1 -1.50 1.35 -1.70 0.45 -0.30 0.30 -0.45 -0.45 -0.45 -0.65 0 -1.15 0.25 -1.15 0.60 0 0.30 -0.15 0.40 -0.30 0.25 -0.20 -0.15 -0.75 -0.10 -1.25 0.20 -0.85 0.40 -0.95 0.30 -0.95 -1.05 l0 -1.50 3.25 0 3.25 0 0 1.90 c0 2.30 -0.70 3.10 -2.80 3.10 -1.60 0 -1.65 0 -0.95 -1.35z"/>
  <path d="M517.65 283.65 c-0.95 -0.20 -1.15 -0.55 -1.15 -2 0 -2.25 1.10 -3.10 3.90 -3.15 2.45 0 2.70 0.65 0.65 1.55 -1.80 0.80 -1.50 1.75 0.75 2.15 2.70 0.55 2.25 1.80 -0.65 1.75 -1.35 -0.05 -2.90 -0.20 -3.50 -0.30z"/>
  <path d="M150 280.25 c0 -1.55 0.20 -2.25 0.65 -2.25 0.40 0 1.35 -0.55 2.15 -1.25 0.85 -0.75 2.05 -1.25 3 -1.25 1.40 0 1.60 0.20 1.90 1.90 0.50 3.30 0.45 3.45 -2.05 4.30 -1.30 0.45 -3.10 0.80 -4 0.80 -1.60 0 -1.65 -0.05 -1.65 -2.25z m6.65 -1.20 c0.20 -0.05 0.35 -0.60 0.35 -1.30 l0 -1.20 -1.70 1.10 c-1.60 1.05 -1.55 1.90 0.15 1.60 0.45 -0.10 0.95 -0.20 1.20 -0.20z"/>
  <path d="M496.50 135.25 l0 -2.25 1.90 0 c2.35 0 3.10 0.70 3.10 2.85 0 1.65 0 1.65 -2.50 1.65 l-2.50 0 0 -2.25z"/>
 </g>
 <g fill="#000000">
  <path d="M367.25 1068.30 c-2.45 -0.65 -6.45 -2 -8.90 -3 -2.40 -1 -4.90 -1.80 -5.55 -1.80 -3.05 0 -9.80 -4.05 -14.30 -8.55 -3.25 -3.20 -6.90 -8.65 -9.40 -14 -1.20 -2.50 -1.55 -3 -4.40 -7 -4.50 -6.25 -7.70 -20.30 -10 -43.45 -0.80 -8 -0.80 -9.80 -0.15 -20.75 0.85 -15.15 0.90 -31.65 0.05 -37.25 -0.40 -2.35 -1.45 -8.30 -2.40 -13.25 -0.95 -4.95 -2.20 -12.35 -2.75 -16.45 -2.20 -16.50 -3.30 -20.50 -9.50 -34.65 -2.40 -5.55 -4.55 -10.65 -4.75 -11.35 -0.15 -0.70 -0.45 -1.30 -0.65 -1.30 -0.15 0 -0.70 3.30 -1.20 7.40 -0.45 4.05 -1.55 12.50 -2.45 18.80 -1.70 12.55 -2.15 13.75 -5.15 13.95 l-1.50 0.10 -1.55 12 c-0.85 6.60 -1.70 12.70 -1.90 13.50 -0.50 2 -1.70 3.25 -3.10 3.25 -0.65 0 -2.15 0.25 -3.35 0.60 -4.15 1.10 -6.35 -0.70 -6.35 -5.25 0 -4.45 -8.15 -33.60 -9.65 -34.45 -0.90 -0.50 -3.10 -5.40 -4.10 -9.15 -1.90 -7.25 -2.55 -32.75 -1.30 -50.20 l0.75 -9.70 -1.65 -8.80 c-3.20 -17.05 -3.20 -17.05 -14.15 -39.55 -6.40 -13.15 -9.40 -19.90 -16.55 -37.50 -2.50 -6.20 -5.70 -13.50 -7.15 -16.25 -12.70 -24.75 -16.65 -32.95 -20.05 -42 -1.65 -4.45 -12.15 -40.55 -15.10 -51.90 -3.30 -12.80 -6.75 -33.50 -7.60 -45.60 -0.55 -7.80 -0.60 -8.15 -3 -14.30 -1.35 -3.45 -2.45 -6.80 -2.45 -7.35 0 -1.60 2.10 -3.60 3.85 -3.60 1.30 0 1.55 -0.25 1.85 -1.55 0.45 -2.35 0.35 -4.75 -0.30 -9.15 -0.55 -3.45 -0.85 -4.10 -2.15 -5.10 -0.85 -0.60 -2.65 -1.40 -4 -1.70 -3.05 -0.70 -9.70 -3.65 -12.25 -5.45 -1.05 -0.70 -3.30 -2.30 -5.05 -3.50 -1.75 -1.20 -5.50 -4.05 -8.35 -6.25 -2.80 -2.25 -6.20 -4.75 -7.50 -5.65 -1.30 -0.85 -3.25 -2.35 -4.35 -3.30 -1.10 -0.90 -3.45 -2.65 -5.25 -3.85 -1.80 -1.20 -4.30 -3.05 -5.60 -4.10 -2 -1.70 -2.45 -1.85 -3.65 -1.40 -1.75 0.65 -3.30 -0.20 -6.80 -3.85 -3.75 -3.90 -6.15 -7.15 -13.80 -18.70 -7.50 -11.30 -11.70 -18.70 -15 -26 -1.25 -2.85 -4.75 -10.70 -7.80 -17.45 -3 -6.75 -6.20 -14.30 -7.10 -16.75 -2.85 -7.90 -4.70 -17.75 -5.55 -29.60 -0.65 -9.55 1.45 -14.95 5.65 -14.55 l1.85 0.15 0.85 -5 c1.90 -11.35 3.60 -18.05 5.75 -22.35 0.65 -1.30 1.20 -3.05 1.20 -3.85 0 -2.50 2.35 -7.95 5.35 -12.50 2.95 -4.45 18.20 -20.40 29.25 -30.60 5.65 -5.20 7.05 -5.85 8.95 -4.15 0.85 0.75 1.05 0.70 3.10 -1.40 2.70 -2.80 5.75 -4.85 17.60 -11.90 5.25 -3.10 10.30 -6.25 11.25 -7 0.95 -0.75 3.25 -2.20 5.10 -3.25 2.90 -1.60 3.70 -1.80 5.40 -1.50 1.30 0.20 2.30 0.75 2.90 1.60 0.65 0.85 1.50 1.35 2.65 1.40 2.25 0.20 4.10 2.30 3.70 4.25 -0.25 1.10 0 1.70 0.95 2.70 0.70 0.70 1.30 1.80 1.30 2.45 0 2.15 -1.95 5.75 -4.05 7.45 -5.10 4.05 -6 5.05 -5.75 6.05 0.40 1.55 -0.95 4.20 -2.55 5 -3.15 1.65 -4.65 4.05 -7.70 12.20 -1.70 4.50 -1.90 5.55 -1.65 7.85 0.30 2.35 0.20 2.75 -1 4.05 -1.80 1.95 -2.95 6.30 -1.85 7 0.25 0.15 0.60 0.90 0.80 1.70 0.40 1.95 -0.85 4.45 -2.35 4.65 -1.05 0.15 -1.20 0.50 -1.55 4.90 -0.20 2.60 -0.30 13.20 -0.20 23.50 0.15 16.70 0.30 19.40 1.30 24.65 0.80 4.25 0.95 6.15 0.55 6.80 -0.90 1.75 -0.55 3.30 1.90 8.10 4.25 8.30 9.20 17.15 10.35 18.45 0.60 0.70 2.55 3.40 4.35 6 4.10 5.95 9.90 12.80 14.30 16.90 4.60 4.30 6.20 4.65 6.85 1.45 0.20 -0.85 1.25 -3.85 2.35 -6.60 1.55 -3.95 2.20 -6.80 3.20 -13.50 0.70 -4.65 1.95 -11.05 2.75 -14.25 2.35 -9.05 8 -22.50 9.70 -23.20 1.85 -0.70 4.20 -0.30 4.95 0.80 1.15 1.65 1 3.40 -0.75 7.25 -2.50 5.55 -4.40 10.60 -5.70 15.40 -1.50 5.40 -1.50 5.80 -0.40 5.40 1.90 -0.70 3.40 -2.30 5.65 -6.10 3.45 -5.70 8.20 -12.70 11.90 -17.50 1.75 -2.30 4.20 -5.75 5.40 -7.60 1.30 -2.05 2.95 -3.90 4.15 -4.70 1.10 -0.65 2.30 -1.75 2.60 -2.35 1.15 -2.20 9.15 -12.70 15.05 -19.75 5.50 -6.60 13.75 -14.65 17.90 -17.50 0.95 -0.65 2.65 -1.85 3.75 -2.65 1.10 -0.80 4.50 -3 7.50 -4.85 3.05 -1.85 5.60 -3.45 5.75 -3.65 0.15 -0.15 1.50 -0.90 3 -1.70 1.50 -0.80 3.25 -1.85 3.90 -2.35 1.10 -0.85 1.10 -0.90 0.25 -1.35 -0.50 -0.25 -2.20 -0.60 -3.75 -0.75 -1.65 -0.15 -4.50 -1 -6.75 -2 -2.15 -0.95 -4.45 -1.90 -5.15 -2.10 -0.70 -0.20 -2.10 -1 -3.10 -1.80 -1.30 -1 -2.40 -1.45 -3.75 -1.45 -2.75 0 -5.50 -0.90 -6.35 -2.05 -0.40 -0.60 -1.15 -0.95 -1.85 -0.90 -2.70 0.25 -3.50 -0.05 -4.50 -1.80 -0.60 -1 -1.45 -1.75 -1.95 -1.75 -1.30 0 -3 -2.35 -3 -4.20 0 -0.85 1 -3.35 2.25 -5.75 2.25 -4.15 2.70 -5.55 1.75 -5.55 -0.25 0 -0.50 -0.20 -0.50 -0.45 0 -1.20 13.70 -25.45 15 -26.55 0.85 -0.70 1.50 -1.55 1.50 -1.85 0 -0.35 0.45 -0.65 0.95 -0.65 0.75 0 1 -0.50 1.30 -2.60 0.40 -2.90 2.25 -9.15 4.70 -16 1.15 -3.20 1.55 -5.30 1.55 -7.65 l0 -3.25 -1.50 0 c-3.75 0 -10.80 -3.75 -14.35 -7.65 -2.70 -2.90 -4.20 -6 -6.60 -13.25 -2.20 -6.60 -3.15 -11.90 -3.25 -18.15 -0.05 -3.90 0.10 -4.55 1.60 -7.45 0.85 -1.70 1.60 -3.50 1.60 -3.90 0 -1.85 1.30 -4.75 2.85 -6.35 1.95 -2.05 4.60 -3.25 9.60 -4.50 7.60 -1.85 21.25 -0.10 29.40 3.80 4.80 2.30 10.25 7.95 13.10 13.55 4.75 9.40 3.75 22.65 -2.40 31.90 -2.40 3.60 -2.45 3.15 0.50 10.70 l2 5.20 1.95 -0.25 c2.85 -0.40 4.10 0.65 5.45 4.45 1.55 4.20 5.95 11.90 6.85 11.90 0.40 0 0.70 -0.20 0.70 -0.45 0 -0.80 2.90 -1.65 4.15 -1.25 1.65 0.60 4.85 3.50 4.85 4.45 0 0.90 1.15 1 2.60 0.20 0.75 -0.40 1.10 -0.40 1.40 0 0.75 1.25 2.45 0.65 6.35 -2.10 4.35 -3.05 8.75 -7.50 11.45 -11.55 3 -4.55 6.90 -16.10 8.20 -24.30 1.50 -9.45 2.80 -13.20 4.80 -13.70 0.90 -0.25 1.55 -1.05 2.30 -2.70 0.55 -1.30 1.60 -3.60 2.25 -5.10 2.05 -4.45 2.65 -6.40 3.95 -12.90 0.65 -3.35 2.10 -8.55 3.15 -11.50 1.65 -4.45 2.05 -6.40 2.45 -11.35 0.95 -11.75 2.15 -20.55 3.15 -23.80 0.95 -3 1 -4.35 0.90 -14.75 -0.15 -10.55 -0.10 -11.75 0.90 -15.10 0.70 -2.25 1.55 -4 2.25 -4.60 0.65 -0.50 1.05 -1 0.90 -1.10 -0.15 -0.10 -1.35 -0.95 -2.75 -1.85 -4.65 -3.10 -8.90 -9.90 -11.10 -17.80 -1.15 -4.05 -1.40 -14.85 -0.45 -18.90 1.85 -7.75 5.75 -12.50 12.80 -15.35 1.50 -0.60 4.45 -1.85 6.50 -2.80 4 -1.80 6.80 -2.15 10 -1.20 0.95 0.30 3.90 0.75 6.55 1 6 0.60 9.60 1.90 13.85 5.10 5.55 4.20 9.05 7.90 10.80 11.40 2.50 4.90 3.05 7.85 3 15.75 0 6.20 -0.15 7.45 -1.35 11.05 -4.40 13.30 -15.85 20.20 -31.25 18.85 -2.95 -0.25 -5.40 -0.45 -5.45 -0.40 -0.05 0 -0.10 6.45 -0.15 14.25 0 10.15 0.15 15.10 0.65 17.25 l0.65 3 0.35 -5.65 c0.20 -3.10 0.55 -6.05 0.85 -6.60 1.20 -2.25 5.05 -2.95 6.85 -1.30 1.20 1.10 1.20 1.30 1.40 11.60 0.10 5.75 0.50 14.45 0.95 19.30 l0.80 8.90 2.25 4.50 c2.20 4.40 2.70 4.85 4.80 4.60 0.20 -0.05 0.85 0.50 1.50 1.20 1 1.05 1.25 2 1.50 5.35 0.25 3.55 0.75 5.15 3.40 11.60 4.80 11.40 6.90 13.80 14.35 16.15 12.50 4 25.55 6.25 29.30 5.10 4.60 -1.35 6.45 -2.55 7.40 -4.75 0.50 -1.20 1.15 -2.30 1.40 -2.45 0.30 -0.15 0.75 -2.25 1.10 -4.65 0.40 -3 0.95 -4.95 1.75 -6.15 0.65 -0.95 1.30 -2.30 1.50 -3 0.65 -2.20 2.60 -5.70 3.85 -6.80 0.60 -0.60 2 -1.40 3.05 -1.75 1 -0.35 2.20 -1.15 2.60 -1.80 1.50 -2.25 4.70 -3.05 6.60 -1.55 0.40 0.30 0.80 -0.30 1.30 -1.95 1.15 -3.45 1.30 -5.95 0.30 -5.40 -1 0.65 -5.80 -2.25 -8.55 -5.15 -2.95 -3.10 -4.90 -6.45 -5.90 -10.10 -0.80 -3 -1.15 -18.90 -0.50 -22.45 1 -5.45 3.50 -9.35 8.95 -13.70 1.70 -1.35 9.25 -3.35 12.75 -3.35 3 0 9.60 1.50 15.55 3.55 5.95 2.10 10.20 5.75 14.95 12.90 3.70 5.55 4.90 8.55 5.15 13.25 0.35 5.25 -0.50 7.90 -3.80 12.30 -4.60 6.10 -9.70 10.15 -15.85 12.50 -5.80 2.25 -6.05 2.50 -5.30 5.30 0.35 1.25 1.15 3.55 1.80 5.10 1.20 2.80 1.20 2.85 1.55 1.35 1.10 -4.85 1.80 -6.25 3.60 -7 2.45 -1.05 3.30 -0.95 4.90 0.55 1.30 1.20 1.35 1.40 0.95 4.10 -0.20 1.55 -0.40 4.45 -0.40 6.40 0.05 2.90 0.25 3.85 1.10 4.95 0.60 0.75 1.10 1.80 1.10 2.30 0 0.50 0.25 1.05 0.50 1.20 0.30 0.20 0.45 0.60 0.40 0.90 -0.15 0.80 0.90 2.70 2.90 5.15 1.40 1.75 1.85 2 3.15 1.80 1.20 -0.15 1.85 0.10 3.10 1.35 1.45 1.45 1.55 1.80 1.30 3.95 -0.40 2.85 0.75 4.60 3 4.60 2.85 0.05 4.95 2.90 4.40 6 -0.45 2.70 -2.35 4.50 -4.80 4.50 -1.10 0 -1.95 0.20 -1.95 0.50 0 1.75 3.80 8.40 6.65 11.60 l1.20 1.40 1.95 -1.05 c2.45 -1.35 4.25 -0.75 5.75 1.80 0.95 1.60 1.15 1.70 1.90 1.10 6.85 -5.90 8.85 -6.70 11.10 -4.55 1.10 1.05 1.45 1.85 1.45 3.35 0 1.70 -0.30 2.30 -2.10 3.95 -1.20 1.10 -3.20 2.80 -4.50 3.80 -2.10 1.55 -2.40 2.05 -2.40 3.65 0 1.10 -0.40 2.35 -1.05 3.15 -0.85 1.05 -1.40 1.30 -3.35 1.30 -2.25 0 -5.15 -1.10 -7.40 -2.75 -1 -0.75 -1.20 -0.65 -3.50 1.40 -1.35 1.15 -3.10 2.65 -3.95 3.30 -0.80 0.60 -2.95 2.50 -4.75 4.20 -7.30 6.85 -11.10 9.40 -17 11.35 -3.30 1.10 -4.40 1.75 -3.90 2.25 0.15 0.15 2.50 0.55 5.20 0.80 9.15 0.95 22.10 3.85 36.45 8.20 4.10 1.25 7.65 2.25 7.85 2.25 0.20 0 1.20 -0.55 2.20 -1.25 1 -0.70 2.45 -1.25 3.15 -1.25 1.75 0 6.45 2.25 12.10 5.90 6 3.80 7.10 4.35 10.45 5.10 5.25 1.25 13.25 4.05 13.90 4.85 0.30 0.45 0.60 1.45 0.60 2.20 0 1.65 0.20 1.75 5.50 4.20 15.35 7 19.70 9.35 25.45 14 3.35 2.65 8.20 7.55 9.55 9.65 0.75 1.05 0.90 0.85 6.50 -7.40 8.15 -12 10.75 -16.15 13.10 -21 l2.10 -4.25 0.20 -8.50 c0.25 -9.25 -0.30 -13.50 -1.90 -15.75 -1.85 -2.60 -1.25 -5.20 1.50 -6.30 1.15 -0.45 2 -1.20 2.20 -1.85 0.65 -2.50 0.25 -8.30 -0.95 -13.10 -0.65 -2.75 -1.70 -8.60 -2.25 -13 -0.75 -5.50 -1.70 -9.95 -3 -14.25 -1.10 -3.45 -2.40 -7.90 -2.95 -9.95 -1.25 -4.50 -2.70 -6.40 -10.25 -13.10 -3.10 -2.75 -6 -5.65 -6.50 -6.50 -1.05 -1.80 -0.70 -4.20 0.75 -4.95 0.50 -0.30 0.95 -0.75 0.95 -1.05 0 -0.25 -2.10 -2.95 -4.60 -5.95 -2.55 -3.05 -5.15 -6.45 -5.80 -7.65 -0.70 -1.30 -1.85 -2.45 -3 -3.05 -1 -0.50 -2.15 -1.25 -2.45 -1.70 -0.70 -0.85 -0.85 -3 -0.35 -4.35 0.40 -1 3.10 -2.40 4 -2.05 1.25 0.50 0.75 -0.95 -1.40 -4 -5.10 -7.25 -7.40 -9.35 -14.15 -12.95 -6.35 -3.35 -7.30 -5.20 -4.80 -9.25 0.30 -0.40 0.60 -1.35 0.80 -2.10 0.30 -1.50 2.40 -2.90 4.35 -2.90 0.65 0 1.95 0.45 2.90 0.95 6.55 3.55 22.65 11.05 23.75 11.05 0.40 0 0.85 -0.25 1 -0.55 0.20 -0.30 1.15 -0.45 2.20 -0.40 1.45 0.10 2.40 0.70 5.05 3.25 2.05 1.95 5.80 4.60 10.25 7.25 9.25 5.45 10.50 6.50 11.20 9.25 0.55 2.10 0.85 2.40 2.60 2.25 0.95 -0.10 4.10 1.20 5.05 2.05 0.40 0.35 2.15 2 3.90 3.65 1.80 1.65 4.70 4.25 6.50 5.75 5.50 4.60 11.45 10.60 14.15 14.15 2.05 2.65 2.85 3.35 3.90 3.35 2.65 0 3.70 1.55 6.85 10.10 3.85 10.50 9.10 28.90 9.10 32.05 0 1.70 -1.45 3.30 -3.30 3.65 -1.20 0.20 -1.85 0 -2.85 -0.90 -1.05 -0.95 -1.75 -2.90 -3.85 -10.85 -3.75 -14.20 -6.50 -22.15 -8 -22.90 -0.65 -0.35 -1.30 -0.55 -1.40 -0.45 -0.20 0.25 2.90 12.50 5.10 20.05 0.95 3.30 3.40 10.75 5.45 16.55 5.55 15.60 6.15 19.10 3.60 21.20 -0.95 0.75 -4.10 0.75 -5.05 -0.05 -0.35 -0.25 -1 -2.20 -1.45 -4.30 -0.45 -2.10 -2.05 -7.10 -3.50 -11.10 -3.60 -10.05 -6.35 -18.65 -8.30 -25.90 -1.45 -5.50 -1.70 -6.15 -2.70 -6.15 -1.60 0 -2.50 -1.30 -3.70 -5.40 -1.85 -6.10 -8.10 -17.15 -14.85 -26.10 -5.35 -7.15 -7.30 -8.70 -11.75 -9.75 -4.15 -0.95 -15.05 -2.80 -15.25 -2.60 -0.40 0.40 3.95 12.75 5 14.30 0.70 1 1.70 2.90 2.25 4.20 0.60 1.35 1.40 2.75 1.80 3.15 0.45 0.45 0.75 1.70 0.75 3 0 2.85 2.65 9.75 4.55 11.95 0.80 0.90 1.45 1.90 1.45 2.15 0 0.30 1 1.70 2.20 3.05 2.70 3.05 3.25 4.75 5.65 17.55 l1.90 10.25 -0.05 21 c-0.10 22.25 -0.35 25.30 -2.50 32.30 -1.35 4.35 -2.55 9.05 -4 15.45 -1.45 6.60 -4.30 11.50 -7.70 13.25 -0.80 0.40 -2 2 -3 3.85 -0.95 1.80 -4.25 6 -7.60 9.80 -3.60 4.05 -5.90 7.05 -5.90 7.70 0 1.50 9.10 19 17.50 33.65 10 17.45 8.85 15.95 11.70 16 2.75 0.05 3.50 0.75 4.35 4 2.45 9.60 4.60 15.40 7.65 20.85 7.90 14.15 13.60 26.60 17.65 38.65 2.90 8.70 3.20 10.95 1.65 12.65 -0.55 0.60 -1 1.35 -1 1.75 0 0.60 6.40 16.85 8.85 22.50 0.80 1.85 0.80 1.85 1.75 0.85 1.05 -1.10 3.25 -1.30 4.45 -0.35 1.55 1.15 1.90 2.60 1.60 6.15 -0.40 4.85 0.70 16.45 2.10 22.40 0.65 2.80 1.75 8.30 2.45 12.30 0.75 4 2 10.20 2.80 13.75 0.80 3.60 2.60 12.90 3.95 20.75 1.40 7.85 3.35 18.30 4.35 23.25 1.75 8.70 1.80 9.55 2.25 25.25 0.35 12 0.35 17.05 -0.10 19.25 -1.10 5.65 -1.10 6.25 -0.35 6.25 0.40 0 1.25 0.55 1.90 1.25 1.05 1.10 1.10 1.55 0.90 4.85 -0.40 5.55 -2.75 20.45 -4.25 26.65 -2.35 9.85 -2.55 11.20 -2.70 18.90 -0.15 7.40 -0.10 7.60 0.90 7.45 1.90 -0.25 3.90 2.30 4.60 5.90 1.10 5.80 2.95 11.65 5.30 16.75 4.60 9.90 9.25 22.55 9.25 25.30 0 0.80 -0.35 2 -0.75 2.60 -0.60 0.95 -0.60 1.60 0 5.10 0.40 2.20 1.20 6.60 1.80 9.75 1.25 7.05 1.85 18.35 1.05 19.85 -0.45 0.75 -0.45 2.15 -0.05 5 0.25 2.15 0.70 11.35 0.95 20.40 0.45 17.75 0.40 17.10 4.30 35.35 1.25 5.90 2.20 11.65 2.20 13.40 0 2.85 -0.15 3.25 -1.70 4.80 -0.95 0.95 -2.15 1.70 -2.65 1.70 -0.55 0 -1.45 0.55 -2.05 1.25 -1.40 1.60 -4.75 1.80 -5.65 0.35 -0.45 -0.75 -1.05 -0.90 -3.15 -0.70 -2.35 0.20 -2.70 0.10 -3.40 -1 -1 -1.55 -1.85 -6.90 -1.30 -8.35 0.20 -0.65 0.10 -3.45 -0.35 -6.55 -0.55 -4.50 -1.15 -6.60 -3.30 -11.60 -4.50 -10.80 -7 -14.80 -15.75 -25.65 -5.45 -6.80 -6.95 -9.55 -8 -15.10 -0.40 -2.15 -1 -5.15 -1.30 -6.65 l-0.55 -2.75 -1.35 4.25 c-0.75 2.35 -1.75 6.40 -2.20 9 -0.50 2.60 -1.55 8.30 -2.35 12.60 l-1.50 7.85 0.20 41.65 c0.20 45.50 0 42.30 3.35 55.80 1.45 5.75 1.55 6.75 1 8.10 -0.35 0.85 -1 1.50 -1.50 1.50 -1.80 0 -1.70 1.90 0.55 14.10 1.45 7.85 2.05 15.85 2.05 27.65 -0.05 15.85 -1.50 23.30 -6.20 31.40 -1.10 1.85 -2.30 4.15 -2.70 5.10 -1.25 3.05 -5.55 9.95 -7.05 11.30 -2.90 2.70 -14.95 6.30 -18.95 5.70 -1.50 -0.20 -3.55 0.10 -7 1 -3.40 0.85 -6.20 1.25 -9.20 1.25 -4 0 -4.40 0.10 -5.40 1.25 l-1.10 1.25 -15.65 0 c-14.90 0 -18.85 -0.30 -18.85 -1.50 0 -0.25 -0.95 -0.55 -2.10 -0.75 -2.65 -0.45 -10.65 -4.25 -12.50 -6 -1.10 -1 -1.85 -1.25 -4.15 -1.25 -2.55 0 -2.90 -0.15 -4.65 -1.90 -2.15 -2.15 -7.70 -12.60 -9.80 -18.50 -1.55 -4.35 -2.80 -11.10 -2.80 -15.10 0 -3.15 -0.35 -3.90 -1.25 -2.65 -1 1.35 -3.70 1.05 -5.10 -0.55 -0.60 -0.75 -1.15 -1.80 -1.15 -2.30 0 -1.10 -4.90 -14.35 -6.25 -17.05 -0.95 -1.75 -7.25 -9.70 -10.50 -13.20 -2.85 -3.05 -4.05 -4.85 -4.70 -6.80 -0.45 -1.40 -1.30 -2.25 -3.95 -3.95 -3.30 -2.15 -3.40 -2.15 -7.35 -2.05 -3.25 0.10 -14.45 1.20 -22.50 2.25 -6.90 0.90 -21.35 5.10 -26.80 7.85 -3.20 1.60 -5.25 1.40 -6.90 -0.60 l-0.85 -1.10 -3.50 1.40 c-1.90 0.75 -4.75 2.05 -6.35 2.85 -1.75 0.95 -3.30 1.40 -3.95 1.25 -1.40 -0.40 -6.45 3.05 -7.85 5.30 -1.45 2.35 -1.30 2.65 0.50 1.15 2.85 -2.40 6.65 -1.10 6.65 2.25 0 1.30 -0.60 2.45 -2.65 4.95 -1.45 1.80 -2.90 3.80 -3.30 4.50 -1.20 2.30 -1.75 8.60 -2.25 25 -0.85 28.80 -2.45 34.10 -11.95 39.65 -5.30 3.15 -17.85 8.85 -19.40 8.85 -0.35 0 -0.80 0.35 -1 0.75 -0.60 1.65 -5.65 3.45 -18.15 6.45 -5.10 1.25 -10.70 2.50 -12.50 2.75 -1.80 0.30 -5.60 0.90 -8.50 1.30 -3.35 0.55 -6.35 1.30 -8.25 2.20 -6.20 2.95 -7.55 3.25 -15.25 3.40 -6.25 0.10 -7.85 -0.05 -11.75 -1.05z m7.85 -13.05 c1.70 -1.45 3.65 -1.60 5 -0.45 1.40 1.30 6.10 0.95 11.05 -0.75 2.25 -0.80 6.80 -2.40 10.05 -3.55 5.70 -2 16.75 -4.80 21.05 -5.30 2.15 -0.30 7.25 -1.25 12.80 -2.45 0.75 -0.20 1.75 -0.75 2.20 -1.25 0.85 -0.95 2.70 -1.70 5.25 -2.20 2.55 -0.50 5.25 -1.70 5.85 -2.60 0.70 -1.10 4.65 -16.60 4.65 -18.35 0 -0.65 -0.45 -2.90 -1 -5 -1.15 -4.70 -2 -13.50 -2 -21.75 l0 -6.20 1.50 -1.40 c1.50 -1.40 1.55 -1.70 2 -7.25 0.75 -9.05 1.05 -9.85 6 -15 1.80 -1.90 4.05 -4.70 4.95 -6.15 2.25 -3.50 5.35 -5.10 6.95 -3.50 0.55 0.55 1.25 0.30 7.55 -3.20 0.90 -0.55 3.80 -1.80 6.35 -2.90 4.45 -1.80 6.10 -2 7.45 -0.95 0.30 0.20 3.30 -1 6.75 -2.70 3.45 -1.70 8.55 -3.85 11.30 -4.75 6.05 -2 9.30 -2.25 28.75 -2.30 11 -0.05 13.95 0.10 14.60 0.65 0.70 0.55 1.30 0.55 3.15 0.10 1.65 -0.45 2.50 -0.45 2.85 -0.10 0.30 0.30 2.75 0.55 5.65 0.55 4.45 0 5.25 0.15 5.80 0.95 0.50 0.70 1.50 0.95 4.20 1.15 6.15 0.45 8.40 2.60 6.45 6.15 -0.90 1.70 -1 1.75 -4 1.75 -3.30 0 -3.85 0.20 -3.40 1.30 0.15 0.45 1.05 0.70 2.45 0.70 2.45 0 4.05 1.30 4.55 3.65 0.20 0.90 0.60 1.35 1.25 1.35 1.65 0 3.90 2.10 6.65 6.25 3.10 4.65 8.20 14.65 9.65 19 1.70 5.05 3.40 7.50 7.70 11.10 2.20 1.85 4.65 3.85 5.40 4.40 8.25 6 10.55 8.25 12.85 12.50 1.35 2.45 2.25 3.55 3.10 3.75 2.90 0.70 3.80 4.40 1.55 6.40 -1.55 1.30 -1.20 2 1.15 2.35 1.15 0.20 4.75 1 8.05 1.85 3.25 0.80 6.85 1.55 8 1.65 1.10 0.15 3.40 0.40 5.05 0.60 1.65 0.25 8.30 0.40 14.75 0.35 12.20 -0.10 15.50 -0.55 19.10 -2.60 3.90 -2.20 3.85 -2.20 5.60 -1.60 1.20 0.40 1.90 1 2.25 2.05 0.25 0.80 0.65 1.45 0.85 1.45 0.15 0 1.65 -0.60 3.30 -1.35 2.60 -1.15 3.10 -1.65 4.65 -4.35 1.20 -2.20 1.90 -4.40 2.50 -7.80 1.50 -8.90 3.40 -15.20 5.05 -16.85 0.70 -0.75 0.80 -1.65 0.50 -7.10 -0.20 -3.50 -0.55 -14.30 -0.80 -24.05 -0.25 -9.75 -0.70 -19.20 -1 -21 -0.30 -1.80 -0.65 -7.30 -0.70 -12.25 -0.15 -7.05 -0.40 -9.85 -1.20 -13 -4.70 -18.40 -6.20 -33.35 -6.30 -63.50 -0.05 -15.85 0.10 -21.80 0.60 -24.35 0.65 -3.15 0.65 -3.35 -0.35 -4.35 -1.30 -1.30 -1.35 -3.10 -0.10 -8 0.55 -2.10 1.35 -5.70 1.75 -8 0.50 -2.95 1.25 -5 2.35 -6.75 1.35 -2.20 1.85 -3.95 3.45 -12.80 1.05 -5.65 2.15 -12.25 2.50 -14.70 0.50 -3.50 0.90 -4.75 1.80 -5.65 1.40 -1.40 3.10 -1.45 5.40 -0.20 0.95 0.55 2.55 1.15 3.50 1.35 1.10 0.20 2.20 0.85 2.80 1.65 0.50 0.70 1.60 2.15 2.35 3.25 0.75 1.05 2.45 3.10 3.80 4.50 1.30 1.45 2.35 2.95 2.35 3.35 0 0.40 1.15 2.60 2.55 4.95 7.45 12.35 14.50 29.25 18.75 44.85 0.80 3 0.80 3.10 -0.20 4.75 l-1.10 1.75 1.85 3.45 c1.05 1.90 2.35 4.80 3 6.45 0.65 1.80 1.10 2.55 1.10 1.85 0.05 -1.50 -2.50 -14.55 -5.20 -26.60 -3.20 -14.20 -6 -28.70 -7.20 -37 -1.75 -12.10 -3.05 -24.05 -3.05 -27.90 0 -3.30 0.10 -3.75 1.30 -4.85 1.35 -1.30 3.40 -1.65 3.95 -0.75 0.15 0.30 0.50 0.50 0.75 0.50 0.55 0 -1.30 -6.90 -2.30 -8.35 -0.40 -0.60 -0.70 -1.70 -0.70 -2.45 0 -1.15 -0.75 -4.75 -2.15 -9.95 -0.60 -2.40 -5.25 -11.40 -7.50 -14.70 -1.55 -2.25 -1.60 -2.40 -1.45 -7.15 0.10 -4.10 0 -5.05 -0.85 -6.50 -1.15 -1.85 -1.10 -2.80 0.55 -10.30 0.80 -3.50 0.90 -4.80 0.45 -5.25 -0.40 -0.40 -0.55 -0.40 -0.55 0.05 0 0.75 -1.55 0.75 -3.20 0.05 -2.15 -1 -2.50 -2.75 -1.60 -8.05 1 -5.75 1.80 -17.10 1.80 -25.45 0 -5.80 -0.10 -6.45 -1.10 -7.75 -1.10 -1.35 -1.15 -1.95 -1.50 -15.45 -0.20 -7.70 -0.50 -14.55 -0.60 -15.25 -0.15 -0.70 -0.50 -5.25 -0.80 -10.10 -0.25 -4.90 -0.85 -12.95 -1.30 -17.85 -0.80 -8.85 -0.80 -9 0.15 -10.65 0.95 -1.60 1 -1.95 0.35 -10.40 -1.45 -19.95 -2 -23.50 -5.05 -32.75 -1.50 -4.65 -3.65 -11.30 -4.70 -14.75 -2.15 -7.05 -2.25 -7.05 -1.20 0.05 0.80 5.15 0.65 5.95 -1.05 7.65 -1.10 1.15 -3.95 1 -5.15 -0.25 -0.55 -0.60 -1.10 -2.15 -1.30 -3.85 -1 -8.30 -3.95 -23.95 -5.95 -32.10 -4.85 -19.25 -8 -30.40 -9.85 -34.55 -2.80 -6.45 -11.50 -23.70 -16.35 -32.45 -7.05 -12.75 -10.25 -19.85 -10.20 -22.55 0 -1.45 -0.30 -2.80 -0.95 -3.75 -1.25 -1.90 -1.20 -1.75 0.55 9.15 0.80 5.05 1.50 9.80 1.50 10.55 0 3.20 -4.20 4.80 -6.45 2.40 -0.90 -0.95 -1.35 -2.65 -2.35 -8.60 -4.05 -24.90 -7.85 -35.70 -16.85 -48.20 l-4.15 -5.75 -2.10 0.15 c-1.45 0.15 -2.50 -0.10 -3.45 -0.75 -0.80 -0.55 -3.40 -2.05 -5.90 -3.40 -11.95 -6.40 -21.45 -12.70 -32.50 -21.65 -0.25 -0.20 -1.60 -1.15 -3 -2.10 -1.35 -0.95 -2.70 -1.95 -3 -2.15 -0.25 -0.20 -2.20 -1.65 -4.25 -3.15 -4.20 -3.10 -5.35 -3.95 -11.80 -9.35 -4.60 -3.85 -7.70 -7.20 -8.75 -9.50 -0.45 -1.05 -1.05 -1.40 -2.90 -1.65 -1.25 -0.20 -2.75 -0.40 -3.30 -0.50 -0.55 -0.10 -2.80 -0.40 -5 -0.65 -8.70 -1 -27.90 -4.35 -37.25 -6.50 -5.40 -1.20 -6.25 -1.30 -13.75 -0.95 -10.75 0.45 -22.85 1.35 -26.50 2 -1.65 0.25 -8.60 2.40 -15.50 4.70 -11.20 3.80 -24.85 7.90 -27.50 8.35 -0.55 0.05 -1.30 0.35 -1.70 0.55 -0.40 0.25 -1.55 0.65 -2.50 0.80 -1 0.20 -4.85 1.20 -8.55 2.25 -10.30 2.85 -16.75 4.20 -22.25 4.75 -2.75 0.30 -5.65 0.70 -6.50 1 -0.80 0.25 -2.40 0.55 -3.50 0.70 -1.10 0.15 -4 0.60 -6.50 1.05 -6.10 1.05 -16.80 2.70 -19.65 3.05 -3.55 0.45 -4.20 0.55 -6.10 0.90 -0.95 0.15 -2.85 0.40 -4.25 0.50 -5.75 0.50 -10.40 1.55 -17.25 3.90 -11.20 3.85 -16.80 6.55 -21.35 10.25 -1.75 1.40 -2.15 2 -2.15 3.40 0 1.05 -0.45 2.20 -1.25 3.15 -1.10 1.35 -1.40 1.40 -3.45 1.10 -3.25 -0.50 -4.40 -2 -4.15 -5.40 0.20 -2.55 0.15 -2.60 -0.85 -1.85 -0.60 0.45 -2.55 1.80 -4.40 3 -4.25 2.90 -5 3.65 -4.65 4.80 0.35 1 -0.50 2.90 -1.70 3.80 -0.45 0.35 -2.35 1.10 -4.30 1.70 -3.35 1 -7.25 2.75 -7.75 3.40 -0.15 0.20 -1.80 1.60 -3.75 3.15 -1.90 1.50 -4.05 3.20 -4.75 3.80 -15.85 13.35 -18.90 16.75 -20 22.60 -0.65 3.50 -1.60 4.50 -4.25 4.50 -1.70 0 -2.30 -0.25 -2.95 -1.25 -1 -1.55 -1.05 -4.50 -0.05 -7.25 0.40 -1.20 0.70 -2.25 0.60 -2.35 -0.35 -0.30 -8.25 8.20 -9.05 9.75 -0.45 0.85 -1.50 3.45 -2.35 5.80 -0.85 2.35 -3.40 7.35 -5.65 11.15 -5.45 9.05 -9 15.80 -10.05 18.90 -0.45 1.40 -1.35 3.40 -2 4.50 -1.55 2.70 -9.65 23.10 -11.90 30 -2.65 8.15 -5.20 16.65 -5.80 19.50 -0.30 1.40 -0.90 7.45 -1.30 13.50 -1.10 15.20 -2.75 29.95 -4.50 39.75 -0.40 2.35 -0.75 5.95 -0.75 8 0 2.70 -0.25 4.10 -0.80 4.95 -0.75 1 -0.80 2.10 -0.50 7.75 0.30 6.40 1.50 18.65 2.10 21.45 0.15 0.75 0.80 1.90 1.45 2.50 0.80 0.75 1.50 2.45 2.20 5.50 0.55 2.40 1.40 4.90 1.80 5.55 0.45 0.65 1.30 3.40 2 6.10 1.80 7.40 7.80 24.90 10.15 29.50 1.10 2.20 2.85 5.10 3.90 6.45 1.85 2.45 2.10 3.50 1.45 6.50 -0.50 2.50 9.45 26.35 14.65 34.95 2.15 3.60 2.25 5.55 0.30 7.25 -1.60 1.35 -1.85 0.40 3.10 12.05 1.55 3.70 4.15 10.20 5.75 14.45 2.60 6.90 3.15 7.95 5.15 9.80 2 1.85 2.30 2.40 3 5.75 0.65 3.05 2.75 7.75 11.35 25 11.15 22.40 13.95 28.45 13.95 30.40 0 0.60 -0.55 1.70 -1.25 2.40 -1.50 1.50 -1.60 2.80 -0.25 4.60 0.95 1.30 0.95 1.60 0.25 13.10 -0.40 6.45 -1.10 15.35 -1.50 19.75 -1.95 19.90 -2.15 42.50 -0.55 51.75 1.65 9.70 3.90 18.70 4.75 19.20 0.15 0.10 0.15 -2.55 -0.05 -5.85 -0.50 -9.70 -0.45 -21.40 0.15 -24.55 0.75 -4.20 2.15 -7 4.85 -9.95 2.20 -2.30 2.55 -3.10 3.60 -7.20 1 -3.95 1.10 -4.90 0.60 -6.55 -0.95 -3.10 -0.75 -6.30 0.40 -7.35 0.90 -0.80 4.20 -1.20 4.85 -0.55 0.10 0.10 0.80 -0.35 1.50 -1 2.75 -2.55 4.75 -1.30 9.65 6 1.90 2.85 2.75 3.75 3.15 3.35 0.90 -0.90 3.10 -0.60 4.25 0.60 0.70 0.70 1.65 3.50 2.80 7.95 1.10 4.10 2.95 9.55 4.70 13.50 1.60 3.65 3.05 7 3.25 7.45 0.15 0.50 0.80 0.85 1.60 0.85 1.75 0 3.15 1.40 3.55 3.55 0.75 4.50 4.40 18.50 5.35 20.30 1 2 3 10.20 4.90 20.25 1.80 9.25 2.55 17.45 2.70 29.40 0.15 9.65 0.40 12.90 1.45 19 3.65 21 5.85 47.75 4.25 51.25 -0.30 0.65 -1.15 1.55 -1.90 2 -1.15 0.70 -1.35 1.05 -1.20 2.70 0.60 6.40 2.60 14.55 4.80 19.30 0.65 1.45 2.15 3.60 3.30 4.85 2.15 2.30 2.25 2.80 1.30 5.80 -0.25 0.80 0.30 1.80 2.40 4.30 1.55 1.75 3.30 3.60 3.95 4 1.85 1.25 18 5.25 21.60 5.35 0.85 0.05 2 -0.45 2.90 -1.20z m278.90 -23 c0 -0.75 -1.40 -1 -3.90 -0.80 -0.60 0.05 -2.85 -0.25 -5 -0.65 -4.40 -0.85 -21.25 -4.70 -22.35 -5.15 -0.45 -0.15 -1.10 0.05 -1.55 0.40 -0.70 0.55 -0.55 0.75 0.90 1.50 0.90 0.50 2.60 0.90 3.70 0.95 1.20 0 2.35 0.30 2.70 0.75 0.30 0.40 1.85 1.20 3.40 1.85 2.85 1.10 3.60 1.15 19.75 1.80 1.80 0.10 2.35 -0.10 2.35 -0.65z m-191.20 -15.75 c0.35 -2.05 0.65 -6.60 0.70 -10.10 0 -5.60 -0.15 -6.75 -1.20 -9.50 -0.70 -1.75 -1.40 -3.75 -1.55 -4.55 l-0.30 -1.35 -1.25 1.35 c-1.10 1.20 -1.25 1.70 -1.10 4.60 0.15 3.15 0.20 3.30 1.45 3.45 2.55 0.30 3.20 1.70 3.05 6.50 -0.15 4.45 -1.20 12 -2.10 15.10 -0.85 2.95 -0.50 3.40 0.60 0.75 0.55 -1.35 1.30 -4.20 1.70 -6.25z m155.70 -5.80 c-1.55 -3.20 -1.75 -3.40 -8.50 -8.30 -1.25 -0.90 -3.35 -2.65 -4.70 -3.90 l-2.45 -2.25 0.30 2.40 c0.45 3.15 1.80 5.65 4.45 8.10 3.90 3.70 11.95 8.65 12.35 7.65 0.10 -0.25 -0.55 -1.90 -1.45 -3.70z m-332.20 -155.70 c0.30 -3.85 0.25 -4.50 -0.40 -4.50 -1 0 -1.20 0.55 -1.95 5.50 -0.55 3.75 -0.50 4.10 0.35 4.75 0.85 0.60 1 0.55 1.30 -0.30 0.20 -0.50 0.50 -2.95 0.70 -5.45z m449.40 -50.35 c0.25 -0.80 -0.35 -2.45 -2.20 -6.15 -1.40 -2.80 -2.65 -5 -2.75 -4.90 -0.10 0.10 0.10 1.40 0.50 2.90 0.40 1.50 1.05 4.90 1.50 7.50 0.45 2.60 1.05 5.65 1.40 6.75 l0.60 2 0.30 -3.50 c0.15 -1.90 0.45 -4 0.65 -4.60z m-20.45 -5.10 c-0.45 -0.40 -0.70 0.25 -1 2.45 l-0.25 2.25 0.70 -2.25 c0.40 -1.20 0.65 -2.30 0.55 -2.45z m41.25 -5.55 c-0.35 -2.20 -0.80 -4 -1 -4 -0.20 0 -0.20 0.85 0 1.90 0.20 1 0.55 2.95 0.75 4.25 0.15 1.35 0.45 2.30 0.60 2.15 0.15 -0.15 0 -2.05 -0.35 -4.30z m-36.50 -4.60 c0 -0.25 -0.20 -0.40 -0.45 -0.40 -0.50 0 -2.05 3.60 -2.05 4.65 0.05 0.60 2.45 -3.55 2.50 -4.25z m-463 -0.95 c-0.60 -1.40 -1.85 -2.15 -1.35 -0.75 0.15 0.40 0.60 1.70 0.95 2.85 0.60 2.05 0.65 2.10 0.80 0.75 0.10 -0.75 -0.10 -2.05 -0.40 -2.85z m498.45 -5.30 c0.05 -1.70 -2.85 -19.20 -3.25 -19.60 -0.45 -0.45 -0.15 3.05 1.05 12.45 0.70 5.35 1.25 10 1.30 10.25 0.05 1.10 0.90 -1.60 0.90 -3.10z m-496.45 -9.60 c-1.10 -2.25 -2.25 -4.05 -2.50 -4.05 -0.30 0 0.55 2.10 1.80 4.65 1.30 2.50 2.45 4.35 2.55 4 0.10 -0.30 -0.70 -2.40 -1.85 -4.60z m-68.90 -145.65 c-1.95 -8.60 -3.30 -15.05 -4.85 -23.45 -0.70 -3.80 -1.85 -8.15 -2.50 -9.75 l-1.25 -2.95 0.30 2.50 c1.15 8.60 8.85 41.25 9.60 40.55 0.10 -0.15 -0.50 -3.20 -1.30 -6.90z m546.85 -27.60 c0.05 -2.45 -0.05 -4.35 -0.15 -4.25 -0.10 0.10 -0.30 2.55 -0.45 5.45 -0.15 3.15 -0.10 4.85 0.15 4.25 0.25 -0.55 0.45 -3 0.45 -5.45z m-566.80 -81.15 c0.40 -6.65 1 -9 2.60 -9.75 0.65 -0.30 1.35 -0.90 1.50 -1.30 0.15 -0.40 0.50 -5.15 0.75 -10.55 0.45 -9.50 2 -25.95 3.05 -32.55 0.50 -3.20 0.50 -3.25 -0.85 -4.25 -4.50 -3.30 -8.40 -7.20 -9.25 -9.15 -0.90 -2.10 -1 -2.15 -2.05 -1.40 -1.40 1 -3.35 1 -4.75 0.05 -0.60 -0.40 -1.70 -2.40 -2.45 -4.35 -1.20 -3.05 -1.95 -4.10 -4.70 -6.65 -13.50 -12.35 -21.35 -21.55 -25 -29.35 -1.30 -2.75 -1.45 -3.45 -1 -4.65 0.30 -0.80 0.90 -1.70 1.40 -2.05 0.75 -0.55 0.50 -1.25 -2.75 -7.55 -6.45 -12.60 -7.70 -17.65 -7.70 -31.65 0 -6.45 0.25 -10.30 0.80 -12.75 0.40 -1.90 1.20 -5.95 1.70 -9 1.25 -7 3.75 -14.20 7.85 -22.70 4.65 -9.65 7.90 -14.85 11.65 -18.50 4 -3.95 10.05 -10.60 10.05 -11.10 0 -0.20 -1.25 0.15 -2.80 0.75 -2.15 0.90 -3 1.55 -3.45 2.65 -0.35 0.85 -1.20 1.90 -1.85 2.35 -0.60 0.50 -2.40 1.75 -3.90 2.80 -14.50 10.30 -19.45 14.60 -26.25 22.75 -6.15 7.35 -18.60 21.30 -19.75 22.10 -2.15 1.50 -11.65 17.50 -15.45 26.05 -4.60 10.35 -4.80 11.15 -4.70 21.35 0.15 18.10 2.85 27.75 11.10 39.90 2.50 3.65 3.55 5.65 3.55 6.75 0 1.70 3.30 6.90 13.10 20.65 3.40 4.80 10.35 14.65 15.40 21.95 10 14.35 14.50 19.45 21.50 24.40 4.20 2.95 6.50 4.70 13.15 9.95 2.55 1.95 5.15 4 5.85 4.55 0.70 0.50 2.20 1.05 3.35 1.20 1.25 0.20 3.60 1.20 5.75 2.55 2 1.20 3.80 2.15 3.95 2.05 0.15 -0.10 0.45 -2.60 0.60 -5.55z m-65.95 -42.30 c-0.30 -0.45 -5.35 -7.90 -6 -8.80 -0.10 -0.05 -0.40 -0.05 -0.65 0 -0.30 0.10 0.90 2.40 2.70 5.10 1.80 2.70 3.50 4.75 3.80 4.60 0.25 -0.20 0.30 -0.60 0.15 -0.90z m30.95 -88.75 c-0.90 -4.75 -1.40 -33.55 -0.80 -45.45 l0.40 -8.05 -1.35 1.55 c-1.60 1.75 -1.55 1.55 -0.80 3.65 0.45 1.25 0.40 1.95 -0.10 3.15 -0.35 0.85 -0.80 1.55 -1.05 1.55 -0.25 0 -0.90 0.70 -1.45 1.60 -0.80 1.35 -0.90 2.15 -0.65 5.30 0.30 3.55 0.25 3.70 -1.10 5 -1.40 1.25 -1.40 1.30 -1.10 6.05 0.50 7.60 2.90 17.45 6.45 26.75 1.85 4.75 2.50 4.25 1.55 -1.10z m125.90 -33.15 c1.30 -0.85 5 -2.75 8.25 -4.20 5.40 -2.50 6.80 -3.35 10.15 -6.05 0.70 -0.55 2.30 -1.70 3.55 -2.55 1.25 -0.85 2.75 -1.95 3.35 -2.45 0.60 -0.55 4.80 -3.40 9.35 -6.35 4.55 -2.95 8.30 -5.65 8.30 -5.90 0 -0.55 -3.05 -0.45 -3.50 0.05 -0.15 0.15 -2.70 1.70 -5.75 3.45 -13.20 7.65 -26.50 16.20 -33.75 21.75 -1.80 1.40 -3.35 2.55 -3.45 2.60 -0.20 0.20 0.45 1.20 0.80 1.20 0.20 0 1.40 -0.70 2.70 -1.55z m-177.75 -11.90 c6.40 -9.65 13.10 -17.75 23.35 -28.35 l4.40 -4.55 -0.65 -2.10 c-0.35 -1.10 -0.75 -2.05 -0.90 -2.05 -0.70 0 -17.45 17.45 -17.75 18.50 -0.20 0.70 -1.35 2.60 -2.50 4.25 -4.10 5.80 -9.25 15.85 -10.45 20.25 -0.40 1.45 -0.75 1.95 4.50 -5.95z m544.70 1.55 c0 -0.20 -2.80 -3.65 -6.25 -7.60 -3.45 -4 -7.85 -9.10 -9.75 -11.30 -5.65 -6.70 -10.50 -10.30 -20 -14.90 l-5.40 -2.65 -0.95 1.15 c-0.50 0.65 -1.65 1.30 -2.60 1.45 -1.55 0.25 -1.90 0.05 -4.25 -2.50 -1.65 -1.75 -2.95 -2.75 -3.70 -2.75 -0.60 0 -1.10 0.20 -1.10 0.40 0 0.95 6.45 6.40 14 11.85 7.55 5.45 11.75 8.55 14.50 10.70 5.70 4.50 14.45 10.50 19.65 13.55 5.10 3 5.85 3.35 5.85 2.60z m8.50 -10.70 c0 -1 -7.50 -6.55 -9.05 -6.65 -0.70 -0.05 0.45 1.25 3.65 4.25 4.50 4.25 5.35 4.60 5.40 2.40z m-371.60 -27.35 c2.20 -2.95 8.25 -3.40 10.50 -0.80 1.10 1.35 1.30 1.35 4.50 1.05 1.85 -0.15 7.20 -0.65 11.85 -1.05 4.70 -0.45 8.85 -0.90 9.30 -1 0.45 -0.15 3.30 -0.50 6.25 -0.75 22 -1.80 24.70 -2.10 28.70 -3.20 11.75 -3.30 19.55 -4.40 48.25 -6.85 16.95 -1.40 25.35 -2.30 30.25 -3.15 2.35 -0.45 4.30 -0.80 4.35 -0.80 0.10 0 0.60 -0.90 1.10 -1.95 1.50 -2.90 6.10 -4.05 9.35 -2.30 1.95 1.05 7.45 0.60 16.10 -1.30 7.80 -1.70 7.10 -1.65 7.10 -0.70 0 0.90 -0.05 0.90 3.70 -0.05 3.15 -0.80 4.75 -1.70 3.05 -1.70 -1.85 0 0.05 -0.90 5.25 -2.50 2.90 -0.90 7.05 -2.50 9.25 -3.55 2.50 -1.25 4.65 -1.95 5.90 -1.95 1.95 0 5.60 1.50 4.50 1.85 -0.75 0.25 -0.85 1.60 -0.20 3.30 l0.50 1.25 3.40 -0.95 c6.40 -1.80 15.60 -5 16.15 -5.70 0.40 -0.50 0.40 -0.75 0 -1 -0.35 -0.20 1.60 -1.30 4.35 -2.45 8.85 -3.80 19.55 -9.75 26.15 -14.60 6.10 -4.50 5.90 -3.75 2.40 -7.85 -3.45 -4.10 -7.90 -10.65 -7.90 -11.65 0 -0.40 0.30 -0.70 0.70 -0.70 0.45 0 0.60 -0.35 0.45 -1 -0.25 -0.95 -0.35 -0.95 -1.10 -0.30 -0.80 0.75 -1.20 0.05 -5.55 -8.70 -2.55 -5.20 -4.95 -9.75 -5.30 -10.05 -0.60 -0.50 -6.40 -11.05 -9.20 -16.80 -0.70 -1.45 -1.35 -2.60 -1.50 -2.60 -0.15 0 -0.95 0.95 -1.85 2.10 -0.85 1.15 -3.05 3.90 -4.85 6.05 -3.15 3.75 -3.30 4.05 -3.30 6.55 0 3.65 -1.30 5.25 -4.25 5.25 -1.75 0 -2.40 0.25 -3.20 1.30 -0.55 0.70 -1.15 1.75 -1.35 2.35 -0.40 1.35 -2.15 3.35 -2.95 3.35 -0.35 0 -1 1 -1.45 2.25 -1.05 2.65 -4.65 6.05 -7.25 6.75 -4.80 1.30 -24 3.05 -22.60 2.10 0.80 -0.55 0.30 -1.60 -0.75 -1.60 -0.40 0 -0.70 -0.20 -0.70 -0.50 0 -0.30 -2.25 -0.50 -5.75 -0.50 -3.85 0 -6.35 -0.25 -7.50 -0.70 -2.25 -0.95 -8.25 -4.90 -9.45 -6.20 -0.70 -0.85 -1.30 -1 -2.75 -0.80 -1.50 0.20 -2.20 -0.05 -4 -1.30 -2.05 -1.50 -2.15 -1.50 -2.80 -0.65 -0.65 0.85 -0.90 0.70 -3.45 -1.80 -2.95 -2.95 -4.55 -5.95 -5.50 -10.60 -0.40 -2 -1 -3.25 -1.95 -4.15 -3.20 -2.95 -8.35 -15.95 -9.20 -23.15 -0.25 -2.25 -0.15 -2.65 0.55 -2.65 0.45 0 0.80 -0.05 0.80 -0.15 0 -2.25 -1.55 -6.85 -3.60 -10.55 -2.65 -4.80 -4.50 -7.75 -4.90 -7.80 -0.15 0 -1.10 1.90 -2.15 4.15 -1.70 3.75 -1.85 4.45 -1.55 6.75 0.35 2.95 -0.50 4.80 -2.60 5.60 -1 0.40 -1.20 0.80 -1.20 2.50 0 1.45 0.20 2 0.75 2 0.90 0 0.90 -0.55 0 5.50 -0.70 4.75 -1.50 7 -2.40 7 -0.75 0 -1.75 3.30 -2.60 8.75 -1.85 12.30 -7.45 34.10 -9.30 36.50 -0.70 0.85 -1.55 1.25 -3.05 1.35 l-2.10 0.15 -1.35 7.75 c-0.75 4.25 -1.40 7.80 -1.40 7.90 -0.05 0.05 -2.60 2.70 -5.65 5.80 -3.10 3.15 -6.65 6.85 -7.90 8.30 -3.80 4.50 -9.45 6.15 -20.75 6.15 -5.45 0 -5.45 0 -6.75 -1.50 -0.70 -0.85 -1.80 -1.70 -2.45 -1.90 -0.70 -0.20 -2.30 -1.05 -3.60 -1.85 -1.30 -0.75 -3.55 -1.80 -5 -2.20 -4.20 -1.25 -9.45 -3.75 -9.45 -4.50 0 -0.40 0.15 -0.65 0.40 -0.65 1.35 0.25 0.85 -0.30 -1.95 -2.10 -3.35 -2.15 -5.30 -3.80 -10 -8.25 l-2.85 -2.70 -0.60 1.55 c-0.35 0.85 -1.20 1.75 -1.85 2 -0.65 0.25 -1.35 0.95 -1.65 1.55 -2.30 5.60 -2.85 7.45 -2.20 7.20 0.95 -0.35 0.90 1.55 -0.05 3.85 -0.40 1 -0.75 2.70 -0.75 3.75 0 1.50 -0.80 3.30 -3.90 8.40 -2.15 3.55 -4.65 8.35 -5.55 10.70 -2.25 5.75 -3.70 8.50 -6.85 13.40 -1.50 2.30 -2.40 4.10 -2.05 4.10 0.35 0 1.15 -0.65 1.75 -1.45z m-109.50 -26.85 c1.20 -0.50 1.60 -0.95 1.60 -1.95 l0 -1.30 -1.55 0.90 c-0.85 0.50 -1.95 1.30 -2.45 1.75 -0.50 0.45 -1.05 0.70 -1.20 0.55 -0.15 -0.20 -0.30 0.05 -0.30 0.55 0 0.95 0.60 0.85 3.90 -0.50z m140.95 -37.45 c-1.40 -3.60 -2.60 -6.55 -2.65 -6.65 0 -0.05 -0.85 0.25 -1.85 0.65 -2.20 0.90 -2.40 2.10 -0.75 4.40 1.25 1.80 7.50 8.45 7.70 8.20 0.10 -0.05 -1 -3.05 -2.45 -6.60z m-14.45 -19.65 c0.75 -2.40 4.75 -7.65 6.50 -8.45 0.75 -0.40 2.75 -0.60 4.60 -0.50 l3.20 0.10 0.60 -2.70 c0.70 -3 0.75 -2.95 -3.80 -6.65 -1.60 -1.30 -2.95 -1.90 -4.75 -2.15 -1.35 -0.25 -3.35 -0.70 -4.45 -1.05 -2.05 -0.75 -7.20 -0.95 -8.10 -0.30 -0.30 0.20 -0.70 1.20 -0.90 2.30 -0.20 1.05 -0.90 2.45 -1.55 3.10 -1.05 1.05 -1.70 1.20 -4.65 1.20 -2.75 0 -3.75 -0.20 -4.75 -1 l-1.30 -1.05 -0.60 1.10 c-0.30 0.60 -0.60 2.50 -0.65 4.15 -0.05 3.65 1.25 6.25 5.05 9.85 3.15 3 4.35 3.65 5.60 2.95 1.50 -0.80 6.50 -0.65 7.35 0.25 1.25 1.20 2 0.85 2.60 -1.15z m426.10 -15.20 c0 -0.75 -6.05 -8.50 -6.35 -8.20 -0.10 0.10 0.85 2.15 2.10 4.50 1.70 3.10 2.60 4.30 3.30 4.30 0.50 0 0.95 -0.30 0.95 -0.60z m-43.55 -37.20 c-2.80 -3 -8.80 -6.95 -14.60 -9.55 -3.35 -1.50 -7.30 -3.30 -8.75 -4 -1.50 -0.65 -2.75 -1.15 -2.85 -1.05 -0.25 0.25 4.20 6 6.65 8.55 3.65 3.75 7.30 5.20 16.60 6.75 4.25 0.75 4.30 0.75 2.95 -0.70z m-160.80 -6.75 c1.05 -0.50 2.75 -0.95 3.80 -0.95 1.35 0 2.20 -0.35 3.05 -1.25 1.80 -1.90 7.90 -3.10 8.75 -1.75 0.15 0.30 0.60 0.50 0.95 0.50 1.25 0 4.30 -8.60 4.30 -12.05 0 -1.60 -0.20 -1.95 -1.70 -2.65 -2.30 -1.05 -2.30 -1.05 -2.30 0.95 0 2.30 -1.15 5.05 -2.40 5.70 -0.60 0.30 -2.20 0.55 -3.60 0.55 -4.20 0 -5.95 -1.40 -6 -4.85 0 -2.85 -0.90 -3.30 -4.40 -2.10 -4.75 1.65 -10.10 6.55 -10.10 9.30 0 1.15 2.60 6.65 4.10 8.65 1.25 1.75 2.10 1.75 5.55 -0.05z m-4.15 -28.20 c-0.35 -0.40 -0.80 -0.75 -1.05 -0.75 -0.25 0 -0.45 0.35 -0.45 0.75 0 0.45 0.45 0.75 1.05 0.75 0.90 0 0.95 -0.10 0.45 -0.75z m-82.45 -44.15 c2.70 -2.90 5.35 -7.30 6.65 -11 0.65 -1.75 0.60 -2.15 -0.20 -3.90 -1.30 -2.90 -7.50 -9.80 -9.70 -10.85 -1.80 -0.85 -1.95 -0.85 -2.85 -0.05 -1.75 1.55 -5.25 1.45 -9.65 -0.25 -4.40 -1.80 -4.90 -1.75 -8.60 0.75 -2.20 1.50 -2.80 2.25 -4.10 5.35 -2.75 6.60 -3.15 11.20 -1.20 14.45 l0.75 1.30 1.35 -2.80 c1.90 -3.95 2.85 -4.65 6.70 -4.95 2.95 -0.25 3.30 -0.20 4.65 1.05 1.25 1.20 1.40 1.60 1.40 4.70 l0 3.35 2.40 -0.15 c4.50 -0.35 6.85 1.65 6.85 5.90 l0 2.05 1.45 -1 c0.75 -0.55 2.65 -2.35 4.10 -3.95z"/>
  <path d="M443.50 828.55 c-3.55 -0.60 -3.75 -4.90 -0.70 -14.15 l1.30 -3.90 -1.05 -1.30 c-1.35 -1.70 -1.35 -3.20 0 -4.85 0.55 -0.75 1.65 -3.20 2.40 -5.45 1.45 -4.25 4.40 -16.05 4.65 -18.55 l0.15 -1.40 -8.25 0 c-12.10 -0.05 -21.05 -1.45 -23.55 -3.75 -1.50 -1.35 -1.55 -3 -0.20 -5.70 1.35 -2.70 3.05 -3.80 5.10 -3.25 0.90 0.20 1.30 0 1.75 -0.95 0.60 -1.35 3.45 -2.65 4.45 -2 0.30 0.15 1.65 0.30 2.95 0.25 2.15 0 2.50 0.15 4.15 1.95 0.95 1.10 2.15 2 2.60 2 0.40 0 1.35 0.35 2 0.80 1.35 0.85 6.50 1.10 10.75 0.45 4.45 -0.65 12.20 -2.30 13.20 -2.85 1.70 -0.90 3.85 -0.55 5.35 0.90 l1.40 1.35 4.25 -0.90 c3.35 -0.70 4.35 -1.10 4.60 -1.85 0.45 -1.40 2.95 -2.30 7.50 -2.65 4.15 -0.35 7.50 -0.95 16.45 -3.05 12.40 -2.90 18.55 -4.85 24 -7.55 4.90 -2.45 5.65 -2.70 7.05 -2.25 1.65 0.50 1.95 0.40 10.65 -3.05 1.80 -0.75 2.85 -1.50 3.20 -2.35 1.05 -2.45 2.40 -3.50 4.50 -3.50 1.75 0 2.30 -0.35 5.20 -3.25 3.90 -3.90 4.80 -4.45 6.80 -4.05 1.25 0.25 1.90 0 3.40 -1.20 1.05 -0.80 2.10 -1.50 2.30 -1.50 0.25 0 1.60 -1.25 3 -2.75 1.45 -1.50 3.05 -2.75 3.60 -2.75 1.40 0 4.90 -4.30 5.85 -7.15 1.05 -3.10 1.85 -3.85 4.20 -3.85 1.60 0 2.20 0.30 3.05 1.45 0.65 0.90 1.70 1.60 2.75 1.80 3.50 0.65 4.25 4.50 1.65 8.45 -2.75 4.10 -16.25 16.05 -21.45 18.85 l-2.95 1.65 0.30 3.05 c0.15 1.95 0.05 3.50 -0.30 4.15 -0.50 1 0 2.15 4.45 10 9.25 16.35 10.95 21.40 8.30 24.45 -1 1.20 -1.50 1.35 -3.55 1.25 -2.30 -0.10 -5.65 -1.65 -8.90 -4.20 -1.05 -0.85 -1.50 -0.95 -1.95 -0.50 -1 1 -3.40 0.70 -4.40 -0.50 -0.55 -0.65 -2.40 -3.05 -4.10 -5.35 -1.75 -2.35 -4.85 -6.05 -6.90 -8.25 -2.10 -2.25 -4.55 -4.95 -5.45 -6.05 -0.95 -1.10 -2.55 -2.95 -3.60 -4.10 l-1.90 -2.05 -5.15 2.25 c-13.55 5.90 -24.10 9.40 -38.15 12.75 -9.10 2.10 -16.25 3.45 -16.85 3.10 -0.20 -0.15 -0.80 -0.05 -1.25 0.20 -0.50 0.25 -2.90 0.65 -5.40 0.80 -2.45 0.20 -4.50 0.40 -4.55 0.45 -0.05 0.05 -0.55 2.35 -1.20 5.10 -0.60 2.75 -2.10 8.95 -3.40 13.75 -2.45 9.25 -3.35 11 -5.80 11 -0.90 0 -1.80 0.75 -3.45 2.90 -4.80 6.25 -8.90 12.25 -10 14.45 -1.35 2.80 -2.55 3.55 -4.85 3.20z m17.20 -36.20 c2.05 -7.90 3.20 -13.30 2.90 -13.60 -0.30 -0.30 -5.10 -0.35 -5.10 -0.05 0 0.10 -0.35 2 -0.75 4.25 -0.75 3.95 -0.75 4.10 0.25 5.40 1.25 1.60 1.25 3.45 0 6.75 -1.35 3.55 -1.30 4.15 0.20 3.15 0.90 -0.60 1.45 -1.95 2.50 -5.90z m110.90 -19.95 c-1.10 -2 -3.90 -7.10 -6.25 -11.35 -2.40 -4.20 -4.40 -7.90 -4.45 -8.15 -0.10 -0.25 -1.40 0.10 -2.90 0.80 -1.50 0.70 -3.10 1.30 -3.55 1.30 -0.40 0 -1.20 0.30 -1.70 0.70 -0.90 0.65 -0.85 0.70 0.35 1.50 0.70 0.45 2.25 2.10 3.45 3.65 4.50 5.75 4.95 6.15 6.75 6.15 1.30 0 2.05 0.40 3.30 1.85 3.10 3.50 6.55 7.15 6.75 7.15 0.15 0 -0.65 -1.65 -1.75 -3.60z"/>
  <path d="M464.50 679.45 c-2.60 -0.20 -7.45 -0.60 -10.75 -0.85 -3.30 -0.30 -8.05 -0.45 -10.50 -0.30 -6.90 0.30 -8.50 0.30 -22.85 -0.25 -10.65 -0.40 -14.20 -0.75 -17.40 -1.55 -6.85 -1.75 -12.75 -4.35 -18.50 -8.15 -6.90 -4.55 -11.30 -9.60 -17.05 -19.60 -1.70 -3 -4.10 -6.70 -5.25 -8.25 -1.20 -1.50 -2.80 -4.30 -3.60 -6.25 -0.80 -1.90 -4.50 -8.90 -8.20 -15.50 -7.15 -12.65 -9.65 -17.90 -11.35 -23.55 -1.10 -3.75 -2.80 -13 -3.30 -18.20 -0.20 -1.80 -1 -4.70 -1.80 -6.55 -2.95 -6.85 -3.20 -8.80 -3.20 -24.95 0.05 -13.25 0.20 -15.80 1.45 -25 0.75 -5.65 1.60 -12.45 1.80 -15.20 0.30 -3.15 0.75 -5.25 1.20 -5.75 0.70 -0.75 2.30 -4.65 2.30 -5.50 0 -0.20 -0.85 -0.25 -1.95 -0.15 -1.60 0.15 -2.05 0 -3 -1.25 -1.75 -2.15 -1.15 -4.25 4.25 -15 l4.80 -9.65 -1.05 -1.30 c-1.45 -1.85 -1.30 -3.05 0.70 -6.45 3.60 -5.90 7.90 -10.85 25.35 -28.85 13.35 -13.80 15.45 -15.50 24.35 -19.85 5.40 -2.65 7.50 -3.10 8.55 -1.80 0.85 1 2.50 0.95 7 -0.30 3.65 -0.95 4.30 -1.10 7.05 -1.70 0.85 -0.20 1.45 -0.80 1.85 -2 0.80 -2.15 2.35 -2.65 7.05 -2.25 2.05 0.15 5.85 0 8.50 -0.35 2.65 -0.40 8.30 -0.65 12.55 -0.55 4.25 0.05 9.80 -0.15 12.25 -0.40 2.50 -0.25 10.15 -0.45 17 -0.40 11.20 0.05 12.95 0.15 16.75 1.15 5.70 1.50 9.75 3.45 12.75 6.15 1.80 1.65 3.10 2.35 4.70 2.65 7.80 1.30 18.50 6.55 30.10 14.75 1.75 1.25 5.45 3.65 8.20 5.35 7.70 4.75 8 5 14.75 11.40 3.50 3.30 7.55 6.90 9 8 1.45 1.10 4.65 3.85 7.10 6.15 2.40 2.25 4.65 4.10 4.90 4.10 0.30 0 0.50 -0.65 0.50 -1.50 0 -2.15 1.55 -3.50 4 -3.50 1.80 0 2.15 0.25 3.75 2.40 0.95 1.30 3.35 5.50 5.30 9.35 2 3.85 5.20 9.70 7.20 13 6.20 10.25 7.35 13.15 9.50 23.75 0.65 3.15 1.85 8.10 2.70 10.95 2.85 9.60 5.85 30.25 5.35 37.10 -0.45 6.10 -2 15.95 -4.05 26 -2.70 13.20 -2.90 14.40 -2.20 16.05 1.60 3.95 -1.10 13.80 -6.60 23.65 -2.40 4.40 -6.85 13.35 -9.65 19.55 -2.70 5.90 -8.60 10.55 -17 13.45 -2.15 0.70 -6.65 2.70 -10 4.35 -8.85 4.40 -13.35 6.15 -20.05 7.85 -3.30 0.85 -7.40 2.10 -9.10 2.75 -4.60 1.90 -15.75 4.45 -28.40 6.45 -3.55 0.60 -4.05 0.80 -4.75 2.10 -1.20 2.10 -2.95 3.25 -5.65 3.50 -1.35 0.15 -2.60 0.35 -2.85 0.50 -0.65 0.40 -29.45 0.60 -34.50 0.20z m20.40 -9.75 c1.35 -0.25 1.60 -0.55 1.60 -1.80 0 -1.15 1.15 -4.35 1.65 -4.40 3.10 -0.55 3.70 -0.50 4.85 0.50 1.10 0.95 1.70 1.05 4.80 0.85 4.30 -0.35 6.65 -0.95 10.55 -2.70 1.60 -0.75 3 -1.35 3.15 -1.40 0.65 -0.20 2.65 -1.05 6.75 -2.90 14.60 -6.45 27.75 -11.55 31.55 -12.20 2.45 -0.40 3.85 1.40 3.55 4.50 -0.15 2.05 -0.05 2.35 0.60 2.05 0.45 -0.20 4.30 -1.55 8.55 -3 10.55 -3.65 15.45 -6.05 15.80 -7.70 0.15 -0.70 0.50 -1.80 0.75 -2.45 0.40 -1 0.35 -1.10 -0.40 -0.80 -0.50 0.25 -2.50 0.50 -4.45 0.65 -3.30 0.20 -3.65 0.10 -4.40 -0.95 -0.95 -1.40 -1.05 -3.95 -0.15 -5.10 0.30 -0.45 1.75 -1.05 3.20 -1.35 5.45 -1 13.25 -6.10 22.20 -14.45 3.75 -3.50 4.60 -5.15 6.20 -12.15 0.80 -3.35 0.85 -4.15 0.25 -5.85 -0.60 -1.90 -0.50 -2.70 1.70 -11.65 3.95 -16.40 4 -16.80 4 -26.90 0.05 -11.30 -1 -35.10 -1.85 -41.25 -0.60 -4.35 -0.65 -4.50 -1.95 -4.65 -1.95 -0.25 -3.25 -2.20 -7.15 -10.85 -6.70 -15 -7.45 -16.55 -9.40 -20 -3.70 -6.45 -10.15 -14.45 -16.15 -20.10 -3.15 -2.95 -6.15 -5.60 -6.60 -5.85 -0.45 -0.25 -1.40 -0.95 -2.10 -1.55 -0.70 -0.60 -2.60 -1.85 -4.25 -2.75 -2.70 -1.40 -7.85 -4.45 -17 -9.90 -3.10 -1.85 -6.25 -4.20 -9.25 -6.95 -4.05 -3.65 -7.80 -6 -17.60 -10.90 -5.75 -2.85 -10.90 -5.55 -11.50 -5.95 -1.05 -0.75 -3.90 -1.10 -3.90 -0.50 0 0.15 1.35 1.80 3 3.70 1.65 1.95 3.35 4.05 3.80 4.75 1.60 2.40 -0.45 5.75 -3.50 5.75 -1.45 0 -2.05 -0.45 -4.60 -3.35 -6.15 -7.20 -7.75 -8.65 -9.70 -8.65 -2.55 -0.05 -4.50 -1.95 -4.50 -4.40 0 -0.80 -0.45 -1.10 -1.85 -1.30 -1.05 -0.15 -6.05 -1 -11.15 -1.85 -5.10 -0.80 -11.40 -1.85 -14 -2.30 -6.60 -1.05 -22.20 -1.35 -23.65 -0.45 -0.60 0.40 -3.25 1.20 -5.85 1.80 -18.25 4.20 -24.15 5.65 -27.85 6.75 -4.10 1.25 -4.15 1.30 -3.40 2.40 2.10 3 0.10 5.95 -4.60 6.75 -1.95 0.35 -3.75 1 -4.80 1.80 -0.95 0.70 -2.10 1.30 -2.65 1.30 -2.20 0 -8.70 5.55 -8.70 7.45 0 1.85 -0.90 3 -3.45 4.30 -1.35 0.65 -3.45 2.40 -4.70 3.85 -3.40 4.05 -9.35 11.95 -10.25 13.65 -2.65 5.15 -7.05 26.80 -7.90 39.15 -0.30 4.10 -0.25 4.55 0.75 5.55 1.30 1.30 1.35 3.05 0.05 6.45 -0.55 1.45 -1 3.40 -1 4.40 0 0.95 -0.30 2.35 -0.70 3.10 -2.25 4.45 -3.55 28.05 -2.35 42.20 1.70 19.50 4.65 29.95 10.40 36.75 2.75 3.20 3.30 5.05 2.15 7.15 -0.35 0.70 -0.15 1.75 0.95 4.35 1.45 3.30 1.50 3.40 3.35 3.45 1.35 0.05 2.20 0.40 3 1.40 1.05 1.20 1.15 1.65 0.85 5.20 l-0.30 3.90 4.05 5.95 c2.25 3.30 5.25 7.35 6.75 9.05 1.45 1.70 2.95 3.75 3.35 4.65 0.45 1.15 2.05 2.55 5.85 5.05 2.85 1.95 5.30 3.50 5.40 3.50 0.05 0 1.35 0.80 2.80 1.80 3.70 2.50 12.80 6.95 17.05 8.30 l3.50 1.10 0.80 -1.05 c1.15 -1.40 2.85 -2.20 3.95 -1.80 0.50 0.15 1.80 1.15 2.95 2.15 1.50 1.35 2.65 1.95 4.40 2.20 1.30 0.20 2.90 0.50 3.45 0.60 0.60 0.10 3.50 0.45 6.45 0.70 5.20 0.50 6.30 0.75 8.90 2.25 0.70 0.40 2.05 0.75 3 0.80 0.95 0.05 2.45 0.25 3.25 0.50 1.75 0.45 31.20 0.20 33.65 -0.35z m-88.65 -4.45 c-0.55 -0.40 -1.25 -0.95 -1.60 -1.25 -0.35 -0.25 -0.95 -0.50 -1.40 -0.50 -0.40 0 -0.75 -0.35 -0.75 -0.75 0 -0.75 -2.95 -2.35 -4.60 -2.50 -0.50 -0.05 -1.30 -0.40 -1.75 -0.80 -0.75 -0.55 -0.70 -0.45 0.05 0.45 0.90 1.05 3.20 2.50 8.05 5.05 2.25 1.20 3.50 1.40 2 0.30z m-55.05 -175.20 c0.20 -0.25 0.45 -1.55 0.60 -2.90 l0.25 -2.40 -0.95 1.75 c-1.50 2.75 -1.80 4 -0.90 4 0.40 0 0.85 -0.20 1 -0.45z"/>
  <path d="M485.75 623.35 c-3 -0.20 -9.10 -0.40 -13.50 -0.35 -4.40 0 -10.45 -0.25 -13.50 -0.50 -3 -0.30 -9.10 -0.70 -13.50 -1 -12.75 -0.70 -15.75 -1.50 -22 -5.70 -12.10 -8.25 -27.80 -30.70 -32.45 -46.55 -3.35 -11.35 -4.10 -16.90 -3.30 -23.50 1.15 -9.55 2.15 -12.40 8.40 -24.55 7.45 -14.45 15.45 -21.55 29.10 -25.75 2.90 -0.90 7.30 -2.45 9.75 -3.45 9.95 -4.15 10.35 -4.20 23.90 -3.85 13.30 0.35 17.50 1 21.30 3.15 1.25 0.75 2.40 1.55 2.55 1.75 0.15 0.20 1.70 0.60 3.50 0.95 3.95 0.70 10.55 2.75 13.25 4.10 2.15 1.10 5.85 3.65 8.85 6.10 4.35 3.55 5.30 4.30 5.65 4.30 0.20 0 1.35 0.85 2.50 1.90 1.15 1 2.90 2.50 3.90 3.25 2.95 2.20 5.75 6.35 8.10 11.95 1.20 2.85 2.95 6.95 3.95 9.15 2.55 5.85 5.25 17.95 5.85 26.50 0.90 12.95 -0.75 25.70 -4.45 33.80 -3.35 7.40 -9.05 14 -15.05 17.30 -1.80 1.05 -4.75 2.85 -6.55 4.10 -5.75 3.90 -13.10 6.75 -18.50 7.15 -1.25 0.10 -4.70 0 -7.75 -0.25z"/>
  <path d="M679.05 394.20 c-0.60 -0.75 -1.05 -2 -1.05 -2.80 0 -1.45 0.65 -2.20 6.40 -7.20 1.55 -1.35 1.60 -1.60 1.10 -2.90 -0.30 -0.80 -0.40 -1.90 -0.20 -2.50 0.50 -1.65 4.85 -7.90 10.20 -14.85 10.20 -13.10 13.65 -19.25 17.75 -31.75 1.70 -5.10 2.85 -7.80 4.20 -9.60 3.70 -4.85 4.70 -8.50 5.10 -17.90 0.15 -2.70 -0.05 -3.85 -0.70 -4.85 -1.10 -1.70 -1.10 -3.60 0.10 -5.55 0.50 -0.85 1.10 -2.80 1.30 -4.30 0.45 -3.40 1.40 -5.80 2.90 -7.30 2 -2 3.05 -8.75 3.20 -21.10 0.05 -6.25 0.35 -11 0.65 -11.60 0.95 -1.80 4.50 -1.95 6.15 -0.25 1.90 1.90 1.65 19.35 -0.45 29.70 -0.95 4.75 -1.10 6.30 -0.65 6.85 0.40 0.50 0.50 2.65 0.30 7.35 -0.30 7.20 -2.10 15.50 -4.50 21 -0.70 1.55 -2.10 5.95 -3.10 9.75 -1.95 7.35 -6.10 18.45 -7.90 21.20 -0.75 1.10 -1.60 1.70 -2.50 1.80 -0.95 0.10 -1.75 0.70 -2.40 1.75 -1.20 2 -1.20 2.35 -0.05 2.35 1.45 0 3.10 2.10 3.10 3.95 0 1.15 -1.05 3.20 -3.85 7.45 -8.10 12.40 -13.75 18.55 -27.90 30.25 -3.45 2.85 -5.55 3.15 -7.20 1.05z"/>
 </g>
 <g fill="#f7e698">
  <path d="M259.65 308.70 c-0.15 -0.45 0.25 -1.30 1 -2.10 3 -3.20 7.05 -10.45 9.90 -17.60 0.90 -2.35 3.40 -7.15 5.55 -10.70 3.05 -5.05 3.90 -6.90 3.90 -8.40 0 -3.30 1.30 -5.70 3.75 -6.90 4.60 -2.20 10.55 -2.15 15.20 0.20 1.45 0.70 3.55 1.35 4.70 1.50 1.15 0.10 4 1 6.35 1.95 2.35 1 4.80 1.85 5.50 1.95 0.70 0.10 1.35 0.30 1.50 0.45 0.50 0.65 4.30 2.80 5.50 3.20 0.70 0.20 1.80 1.05 2.50 1.85 1.20 1.40 1.40 1.45 5.75 1.45 5.50 0 11.90 -1.10 14.55 -2.45 1.10 -0.55 2.95 -2.15 4.20 -3.60 1.25 -1.45 4.80 -5.15 7.90 -8.30 3.05 -3.10 5.60 -5.75 5.65 -5.80 0 -0.10 0.65 -3.65 1.40 -7.90 l1.35 -7.75 2.10 -0.15 c1.50 -0.10 2.35 -0.50 3.05 -1.35 1.85 -2.40 7.45 -24.20 9.30 -36.50 0.85 -5.45 1.85 -8.75 2.60 -8.75 0.80 0 1.65 -2.05 2.15 -5.35 0.85 -5.60 0.80 -5.45 3.10 -6.05 6.15 -1.60 8.95 -2.10 11.25 -2.10 l2.50 0 0.90 4.35 c0.45 2.40 1.40 5.80 2.05 7.55 1.85 4.90 5.65 11.95 6.90 12.80 0.80 0.50 1.25 1.40 1.45 2.95 0.60 4.20 2.35 7.95 5.25 10.95 1.85 1.95 2.60 3.15 2.40 3.65 -0.15 0.45 0.30 1.80 1.05 3.10 1.10 1.85 1.35 3 1.45 6.10 0.10 2.90 0.30 3.75 0.80 3.60 0.35 -0.10 2.45 -0.30 4.65 -0.40 4.45 -0.25 8.50 0.85 11.20 3.15 1.80 1.50 2.25 1.50 5.60 0 1.50 -0.65 4.15 -1.65 5.95 -2.30 1.80 -0.65 3.35 -1.30 3.50 -1.50 0.15 -0.25 2.60 -0.65 5.50 -0.95 2.90 -0.35 6.25 -0.70 7.50 -0.85 4.75 -0.50 8.30 -1.30 9.85 -2.25 2.20 -1.35 4.45 -4.05 5.15 -6.15 0.30 -1 0.85 -1.80 1.20 -1.80 0.80 0 2.60 -1.95 3 -3.35 0.20 -0.60 0.80 -1.65 1.35 -2.35 0.80 -1.05 1.45 -1.30 3.20 -1.30 3 0 4.25 -1.60 4.25 -5.30 0 -2.35 0.20 -2.95 1.65 -4.55 4.25 -4.80 7.95 -9.80 8.80 -11.75 l0.90 -2.15 2.20 4.50 c4 8.05 9.10 17.50 10 18.55 0.95 1 9 16.95 9.65 19.05 0.20 0.60 0.10 1.20 -0.20 1.40 -0.70 0.45 -0.15 1.25 0.90 1.25 0.50 0 1.55 1.20 2.45 2.70 0.90 1.50 3.15 4.55 5 6.80 3.40 4.15 5.15 6.50 5.15 7.05 0 0.55 -9.90 7.65 -14.35 10.35 -5.80 3.45 -13.85 7.60 -19.25 9.80 -4.65 1.90 -5.10 2.05 -4.70 1.35 0.20 -0.25 -0.45 -0.90 -1.35 -1.45 l-1.60 -1.05 -3.60 1.80 c-3 1.50 -4.30 1.85 -7.50 2 -4.30 0.25 -6.65 0.90 -6.65 1.95 0 0.50 -0.35 0.45 -1.65 -0.20 -2.10 -1.15 -2.45 -1.15 -6.95 1 -2.10 1.05 -6.10 2.55 -8.90 3.40 -5.05 1.60 -5.05 1.60 -7.60 0.75 -2.40 -0.75 -2.70 -0.75 -4.40 0 -1.50 0.70 -1.85 1.05 -1.60 1.90 0.15 0.60 0.05 0.95 -0.15 0.70 -0.25 -0.20 -0.90 -0.05 -1.50 0.35 -1.75 1.15 -10.65 2.90 -16.10 3.15 -4.10 0.15 -5.45 0.05 -6.85 -0.60 -2.55 -1.20 -5 -0.35 -6.30 2.25 -0.80 1.60 -1.35 2 -2.85 2.25 -1.05 0.20 -2.65 0.55 -3.55 0.85 -0.90 0.25 -1.80 0.40 -1.95 0.25 -0.10 -0.15 -1.20 0.05 -2.30 0.45 -1.15 0.40 -2.55 0.65 -3.10 0.50 -0.50 -0.15 -5.25 0.15 -10.50 0.70 -5.20 0.50 -12.85 1.20 -17 1.50 -20.55 1.55 -33 3.40 -43.50 6.50 -1.90 0.55 -4.85 1.15 -6.50 1.25 -1.65 0.10 -4.90 0.40 -7.25 0.60 -2.35 0.20 -4.60 0.35 -5 0.30 -0.40 -0.05 -1.85 0.10 -3.25 0.35 -1.35 0.25 -4.60 0.60 -7.20 0.75 -2.60 0.15 -4.85 0.40 -5.05 0.50 -0.15 0.10 -3.10 0.40 -6.50 0.70 -6.50 0.60 -15.25 1.40 -18.80 1.85 -1.80 0.20 -2.20 0.05 -2.90 -1.05 -1.80 -2.75 -5.75 -2.60 -7.90 0.30 -0.95 1.30 -1.40 1.45 -3.75 1.45 -1.95 0 -2.75 -0.20 -3 -0.80z"/>
  <path d="M248.65 296.70 c-0.35 -0.35 -0.65 -1.25 -0.65 -1.95 0 -0.70 -0.25 -1.25 -0.55 -1.25 -0.30 0 -0.45 -1.20 -0.35 -3.25 0.05 -1.80 0.35 -3.25 0.55 -3.25 0.25 0 0.35 -0.55 0.25 -1.25 -0.15 -0.70 -0.05 -1.25 0.20 -1.25 0.30 0 0.40 -0.35 0.20 -0.75 -0.15 -0.40 -0.10 -0.75 0.15 -0.75 0.45 0 1.70 -2.70 1.55 -3.30 -0.05 -0.20 0.20 -0.50 0.60 -0.75 0.35 -0.25 0.65 -0.60 0.65 -0.85 0 -0.70 5.45 -6.10 6.15 -6.10 0.35 0 0.75 -0.35 0.90 -0.75 0.40 -1.05 5.70 -4.25 7 -4.25 0.90 0 1 0.25 0.85 1.40 -0.15 0.75 -0.90 1.90 -1.70 2.60 -0.80 0.70 -4.45 6.80 -8.20 13.75 -3.75 6.85 -6.85 12.50 -6.90 12.55 -0.05 0.05 -0.40 -0.20 -0.70 -0.60z"/>
  <path d="M327.95 262.70 c-0.30 -2.25 -0.10 -4.55 0.30 -4.15 0.25 0.25 0.95 0.45 1.60 0.45 1.35 0 3.65 1 3.65 1.60 0 0.20 0.40 0.40 0.90 0.40 0.60 0.05 0.45 0.25 -0.55 0.80 -1.65 0.90 -5.85 1.50 -5.90 0.90z"/>
  <path d="M529.45 202.80 c-0.55 -1.30 -0.90 -2.50 -0.75 -2.65 0.15 -0.15 0.50 0.35 0.85 1.15 0.30 0.80 0.75 1.85 1.05 2.35 0.25 0.55 0.35 1.05 0.20 1.25 -0.15 0.15 -0.75 -0.80 -1.35 -2.10z"/>
 </g>
 <g fill="#f8d4c8">
  <path d="M279.95 226.75 c-0.90 -0.65 -1.90 -1.40 -2.20 -1.60 -1.05 -0.90 -3.60 -0.65 -5 0.45 -1.35 1.05 -1.35 1.05 -3.15 0.10 -2.65 -1.40 -7 -5.60 -8.50 -8.20 -1.20 -2 -1.35 -2.75 -1.30 -6.75 0.05 -3.40 0.30 -5.10 1.10 -6.90 l1.10 -2.40 2.15 2.30 c1.90 1.95 2.45 2.25 4.30 2.25 3.20 0 4.85 -1.90 4.55 -5.35 -0.05 -0.90 0.25 -1.15 1.60 -1.35 4 -0.60 8.55 -0.80 9.10 -0.40 0.85 0.70 3.75 1.55 6.20 1.80 1.65 0.15 2.85 0.80 5.40 2.85 1.75 1.45 3.35 3.20 3.55 3.80 0.30 1.40 -0.65 6.65 -1.70 9.15 l-0.70 1.75 -1.10 -1.30 c-1.30 -1.60 -3.60 -2.15 -5.45 -1.30 -1.90 0.85 -5.70 6 -6.70 9.05 -0.45 1.40 -1 2.70 -1.15 2.95 -0.20 0.20 -1.15 -0.20 -2.10 -0.90z"/>
  <path d="M289.50 190.15 c-2.25 -0.75 -4 -1.95 -4 -2.75 0 -1.25 5.10 0.95 6 2.60 0.30 0.55 0.45 1 0.40 1 -0.10 -0.05 -1.15 -0.40 -2.40 -0.85z"/>
  <path d="M497.75 166.40 c-2.55 -2.95 -5.40 -8.95 -5.45 -11.55 -0.05 -4.05 4.60 -8.85 10.50 -10.85 5.20 -1.80 7.20 -1.20 7.20 2.15 0 2.45 1.20 4.15 3.35 4.65 3.40 0.85 5.85 -2.10 5.50 -6.65 -0.10 -1.45 -0.15 -2.65 -0.10 -2.65 0.30 0 5.70 2.35 6.50 2.85 2.15 1.25 0.45 10.60 -3.20 17.65 -1.25 2.35 -1.45 2.55 -1.75 1.60 -0.20 -0.60 -1 -1.55 -1.80 -2.10 -1.30 -0.90 -1.75 -1 -3.45 -0.50 -1.10 0.30 -2.50 1.15 -3.20 2 -1.05 1.25 -1.50 1.40 -2.95 1.20 -1.20 -0.20 -2.30 0 -3.70 0.75 -1.05 0.60 -2.25 1.05 -2.60 1.05 -0.35 0 -1.20 0.55 -1.80 1.25 l-1.20 1.30 -1.85 -2.15z"/>
  <path d="M407.60 99.15 c2.35 -4.60 2.50 -5.30 1.75 -6.90 -0.85 -1.85 -3.25 -3 -5.10 -2.55 -0.80 0.20 -2.15 1.55 -3.60 3.55 -1.95 2.75 -2.45 3.15 -3.20 2.70 -0.55 -0.25 -0.95 -0.60 -0.95 -0.80 0 -0.15 1.05 -2.40 2.30 -5 2.55 -5.20 2.60 -6.70 0.40 -8.60 -1.05 -0.90 -1.65 -1.05 -3.20 -0.80 -2.30 0.40 -3.55 1.65 -5.25 5.30 -1.10 2.45 -1.40 2.80 -2.55 2.65 -4.55 -0.50 -4.95 -10.60 -0.80 -19.70 1.20 -2.65 1.95 -3.55 3.90 -4.85 4.45 -2.85 5.45 -2.95 10.70 -0.95 5.20 2.05 6.40 2 8.25 -0.35 1.10 -1.45 1.25 -1.50 2.10 -0.75 0.50 0.45 1.80 1.20 2.90 1.70 2.45 1.20 8.95 8.60 10.05 11.55 1.10 2.85 0.70 4.90 -1.80 10.05 -2.45 4.90 -6.80 9.80 -11 12.35 -2.60 1.55 -5.40 2.35 -4.90 1.40z"/>
 </g>
</svg>