<?xml version="1.0" encoding="utf-8"?>
<!DOCTYPE svg PUBLIC "-//W3C//DTD SVG 1.0//EN" "http://www.w3.org/TR/2001/REC-SVG-20010904/DTD/svg10.dtd">
<svg version="1.0" xmlns="http://www.w3.org/2000/svg" width="1163px" height="1759px" viewBox="0 0 1163 1759" preserveAspectRatio="xMidYMid meet">
 <g fill="#000000">
  <path d="M497 1758.1 c-1.4 -0.5 -5.4 -2 -9 -3.4 -3.6 -1.4 -8.1 -2.8 -10.2 -3.1 -2 -0.4 -5.8 -1.8 -8.5 -3.2 -12.2 -6.5 -20.5 -15.5 -27.9 -30.4 -2 -4.1 -5.4 -9.8 -7.6 -12.7 -6.7 -8.8 -11.6 -26.1 -15.5 -54.8 -2 -14.6 -2.4 -49.4 -0.9 -77 1 -18.8 0.1 -29.7 -4.9 -55.5 -1.8 -9.6 -3.6 -20 -4 -23 -1.2 -10.6 -3.7 -24.6 -5.6 -32.5 -1.8 -6.9 -16.9 -44.6 -18.8 -46.8 -0.4 -0.4 -1.3 4.4 -1.9 10.5 -0.7 6.2 -2.6 20.3 -4.1 31.2 -3 21.1 -3.6 22.6 -8.7 22.6 -2 0 -2.3 0.6 -2.9 6.8 -0.4 3.7 -1.7 13.4 -2.9 21.6 -2.5 17.4 -3 18.2 -13.2 19.2 -5.6 0.6 -6.2 0.5 -7.8 -1.7 -0.9 -1.3 -1.6 -3.8 -1.6 -5.7 0 -8.8 -12.7 -54 -16.2 -57.9 -4.2 -4.5 -6.9 -15 -8.1 -30.8 -1.5 -18.6 -1.4 -50 0.2 -66.2 1.2 -12 1.2 -12.6 -1.9 -28.5 -4.7 -25 -6.2 -29.2 -18.6 -54.6 -12.4 -25.4 -17.4 -36.5 -28.9 -64.7 -9.8 -24 -12.2 -29.2 -19.8 -43.1 -7.5 -13.7 -19.7 -39.6 -25.2 -53.4 -3.9 -9.8 -22.9 -74.9 -27 -92.5 -5.2 -22.1 -9.9 -52.3 -11.1 -71 -0.6 -9.5 -1.2 -12.2 -4.6 -20.4 -2.1 -5.2 -3.8 -10.4 -3.8 -11.6 0 -2.9 3 -5.5 6.2 -5.5 2.2 0 2.6 -0.5 3.2 -4.2 0.9 -5.3 -1.2 -18.7 -3.2 -21.1 -0.8 -0.9 -4.7 -2.7 -8.6 -3.8 -3.9 -1.2 -8.9 -3 -11.1 -4.2 -6 -3 -19.8 -12.5 -31 -21.2 -5.5 -4.3 -11.1 -8.5 -12.5 -9.4 -1.4 -0.9 -4.4 -3.1 -6.6 -4.8 -10.8 -8.9 -19.5 -14.3 -23.2 -14.3 -5.7 0 -14.3 -9.6 -31 -34.8 -14.4 -21.7 -21.6 -34.7 -29.5 -53.2 -2.5 -5.8 -6.6 -15 -9.2 -20.5 -6.9 -14.7 -12.1 -28.3 -14.5 -37.4 -4.8 -19.1 -6.6 -46.1 -3.4 -53.9 1.7 -4.4 5.1 -6.7 8.2 -5.7 2.4 0.7 2.4 0.8 4.2 -11 1.8 -11.5 5.8 -27.2 8.1 -31.8 1.2 -2.3 2.4 -6 2.6 -8.1 1.2 -13 15.9 -31.5 51.5 -64.7 10.4 -9.7 13.3 -11.9 15.7 -11.9 1.6 0 3.3 0.5 3.6 1 0.4 0.6 3 -1 6 -3.7 2.9 -2.7 10 -7.6 15.7 -11.1 11.4 -7 29.2 -18 37.1 -22.9 6.3 -4 9.9 -4.2 13.3 -0.8 1.4 1.4 3.6 2.5 4.9 2.5 3.6 0 6.8 3.8 6.1 7.3 -0.4 1.9 -0.1 3 0.8 3.3 0.8 0.3 1.9 1.8 2.6 3.3 0.9 2.3 0.7 3.5 -1.5 7.9 -1.4 2.9 -2.9 5.2 -3.3 5.2 -0.4 0 -3 1.8 -5.7 4.1 -4.2 3.5 -5 4.6 -5 7.6 0 2.8 -0.6 4 -3 5.7 -6.2 4.4 -8.2 7.3 -12.4 18 -4.4 11.2 -4.6 12.4 -3.6 16.7 0.5 1.9 0 3.3 -2 5.7 -2.9 3.5 -4.5 10.5 -2.6 11.6 1.5 1 1.4 6.3 -0.2 7.6 -0.6 0.6 -2.1 1.7 -3.2 2.5 -1.9 1.3 -2 2.7 -2.4 34.9 -0.3 30.6 -0.1 34.8 1.9 47 1.6 10.5 1.9 14 1 15.7 -0.9 1.6 -0.9 2.8 0.1 5.2 1.8 4.8 15.9 30.8 18.5 34.4 1.3 1.7 4.5 6.2 7 10 14.2 20.7 35.4 41 35.4 33.7 0 -0.8 1.8 -6.2 3.9 -11.9 2.5 -6.7 4.3 -13.6 5.1 -19.7 1.8 -14.1 4.8 -27.1 9.2 -39.7 2.7 -7.6 3.7 -11.6 2.9 -11.9 -3.1 -1 -13.1 -9.4 -15.1 -12.6 -1.4 -2.3 -3.3 -9 -5.1 -17.8 -3.9 -19.2 -5 -30 -3.7 -36.8 0.6 -3 0.9 -8.9 0.9 -13.2 -0.4 -16.5 5.6 -30.4 19.8 -46.4 4.8 -5.4 11.5 -12.2 14.7 -15 3.3 -2.8 10.9 -9.7 16.9 -15.4 16.5 -15.3 33.2 -25.8 42 -26.5 2.5 -0.2 8.4 -1.9 13.2 -3.8 4.9 -1.9 18 -6.7 29.3 -10.5 11.3 -3.9 24.3 -8.8 29 -11 10 -4.7 23.9 -9.2 28.1 -9.2 3.7 0 3.7 -0.1 0.3 -26.3 -1.4 -11.1 -2.3 -21 -2 -22 0.6 -2.3 -5.9 -34.7 -10.9 -54.9 -6 -23.8 -14.1 -47 -18.5 -52.5 -1.1 -1.4 -2 -3.2 -2 -3.9 0 -2.4 -14.1 -34.6 -19.5 -44.4 -16.6 -30.4 -18.6 -33.4 -26.9 -42 -4.5 -4.7 -10.7 -11.6 -13.8 -15.5 -3 -3.8 -6.7 -8.1 -8.2 -9.4 -3 -2.9 -3.3 -6.1 -0.8 -8.4 2.8 -2.5 4.8 -2.1 9.4 2 l4.2 3.8 -2.8 -5 c-8 -14.1 -8.4 -14.5 -13.5 -14.5 -8.5 0 -12.1 -3.5 -14.7 -14.2 -2 -7.9 -1.3 -10.4 4.5 -17.4 2 -2.3 5.1 -6 6.8 -8.2 3.3 -4.1 21.2 -20 26.8 -23.9 1.7 -1.1 13.6 -7.8 26.5 -14.8 33.7 -18.3 49 -28.2 49 -31.6 0 -1.6 8.5 -6 12.8 -6.5 2.6 -0.4 10.1 -2.8 16.7 -5.4 31.8 -12.6 72.9 -22.4 100.5 -24 7.4 -0.4 18.7 -1.7 25 -2.8 6.3 -1.1 18.5 -2.8 27 -3.7 8.5 -0.8 20.5 -2.2 26.5 -3.1 13.7 -1.8 42.2 -4.3 58 -5.1 11.9 -0.5 12.1 -0.5 15.2 2.1 1.7 1.5 4.1 4.7 5.3 7.2 1.7 3.4 2.6 4.4 3.9 3.8 3.8 -1.5 5.2 -1.6 7.4 -0.1 1.6 1 2.8 1.2 4 0.5 2.3 -1.2 5.4 -0.2 6.8 2.3 0.5 1.1 1.4 1.7 2 1.3 0.5 -0.3 2.1 0.2 3.5 1.1 3 1.9 3 2.1 -0.6 18.7 l-2.3 10.7 2.3 1.9 c4.4 3.6 3.9 11.2 -2.9 50.7 -9.2 53.6 -8.8 47 -6.3 86 3.5 54.5 3.5 55.6 2.2 78.3 -1.2 20.8 -1.2 22.2 0.9 34.2 1.2 6.8 3.2 15.7 4.6 19.6 1.3 3.9 3 10.4 3.6 14.5 3.7 25.4 7.4 44 9.4 48.6 1.3 2.9 2.7 5.3 3 5.3 0.3 0 7.2 -1.2 15.3 -2.6 11 -1.9 19.1 -2.7 32.2 -3 12.6 -0.2 22 -1.1 33.5 -3 19.4 -3.1 44 -4.2 55.3 -2.5 4.2 0.7 12 2.3 17.2 3.6 5.2 1.3 13.3 2.9 17.8 3.5 13.6 1.9 18.5 4.2 27.5 13.4 9.3 9.6 13.4 15.4 15.1 22.1 3.5 13.5 5.7 23.8 6.6 31.3 0.5 4.6 1.9 11.3 3 14.9 1.1 3.6 2.3 9.5 2.6 13.2 0.6 6.2 0.4 7 -3 13.5 -7.8 14.9 -23.3 34.3 -33 41.2 l-2.9 2.1 3.9 1.5 c9.1 3.7 23.6 11.1 30.5 15.6 8.4 5.5 20.1 16 22.6 20.3 1 1.6 2 2.9 2.4 2.9 1.2 0 26.7 -38.6 30.4 -46 3.5 -6.9 3.7 -7.9 4.2 -19.9 0.6 -13.6 -0.8 -25.3 -3.3 -27.8 -3.2 -3.2 -1.4 -8.1 4 -10.8 1.9 -1 2.1 -1.8 2.1 -10 -0.1 -5.3 -0.8 -11.5 -1.8 -15 -0.9 -3.3 -2.6 -12.6 -3.7 -20.6 -1.1 -8.1 -3.1 -17.9 -4.5 -21.9 -1.4 -4 -3.4 -10.8 -4.6 -15.2 l-2.1 -7.9 -12.8 -12.1 c-7.1 -6.7 -13.1 -13 -13.4 -14.1 -0.5 -2.1 0.9 -5.5 3 -7.2 0.9 -0.8 -0.8 -3.4 -7.2 -11 -4.6 -5.5 -8.7 -11 -9 -12.3 -0.4 -1.3 -2.3 -3.1 -4.6 -4.3 -7.7 -4 -6.9 -12.9 1.3 -12.9 2.6 0 2.4 -0.7 -1.5 -6.6 -6.4 -9.4 -13 -15.7 -21.8 -20.6 -4.7 -2.6 -9.1 -5.4 -9.8 -6.3 -1.7 -2.1 -1.6 -6.2 0.4 -8.4 0.9 -0.9 1.6 -2.7 1.6 -3.8 0 -4.9 8.4 -7.1 13.1 -3.4 4.3 3.3 37.3 18 38.3 17 2.4 -2.3 6.8 -0.9 11.9 4 2.9 2.7 10.3 7.9 16.5 11.6 13.2 7.8 18.2 11.9 18.2 14.9 0 3.1 1.9 4.6 5.7 4.6 2.6 0 4.6 1.1 9.1 5.2 3.2 2.9 11 9.9 17.4 15.5 6.4 5.6 14.4 13.5 17.9 17.5 3.4 4 6.5 7.4 6.8 7.5 0.3 0.1 1.9 0.4 3.4 0.8 2.3 0.5 3.4 1.8 5.7 6.8 7.8 17.4 19.9 60.1 18 63.7 -1.7 3.2 -4.7 4.4 -8 3 -3.2 -1.3 -3.7 -2.5 -7 -16 -1.1 -4.7 -4.1 -15.1 -6.7 -23.2 -3.6 -11.3 -5.2 -15.2 -7 -16.3 -1.8 -1.2 -2.3 -1.3 -2.3 -0.2 0 3.8 10.9 41.4 17 58.3 9.8 27.5 10.5 33.1 4.3 35.5 -4.4 1.6 -7.3 -1.3 -9.4 -9.7 -1 -3.8 -4.5 -14.7 -7.8 -24.2 -5.5 -15.5 -9 -26.9 -12.1 -38.8 -0.7 -3.1 -1.7 -4.5 -3.9 -5.3 -2.3 -1 -3.3 -2.5 -5.4 -9 -5.5 -16.8 -29.9 -53.3 -37.5 -56.2 -1.9 -0.7 -29.1 -5.9 -31 -5.9 -0.3 0 0 0.6 0.5 1.2 0.6 0.7 2.5 5.9 4.2 11.5 1.7 5.6 3.6 10.5 4.2 10.9 0.6 0.4 2.2 3 3.5 5.9 1.2 2.9 2.8 5.6 3.3 6 0.6 0.3 1.1 2.4 1.1 4.6 0 5 4.4 16.5 7.6 20 1.3 1.4 2.4 3 2.4 3.5 0 0.6 1.2 2.1 2.6 3.5 4.4 4 6.2 9.6 9.9 30.4 3.3 18.4 3.5 21.2 3.4 39.9 0 11 -0.4 27.8 -0.8 37.1 -0.8 15.1 -1.2 18.1 -4 26.5 -1.7 5.2 -4 13.9 -5.1 19.2 -1.1 5.3 -2.9 11.7 -3.9 14.2 -1.8 4.1 -9.3 12.6 -11.1 12.6 -0.5 0 -1.9 2.3 -3.3 5 -1.4 2.8 -7.1 10.2 -12.6 16.4 l-10.2 11.5 7.7 15.3 c8.2 16.5 17.2 32.8 29.1 53.1 7.2 12.2 7.7 12.8 10.3 12.2 4.8 -1.1 6.6 1.7 11 17 3 10.2 5.6 16.6 9.4 23.5 13.4 23.8 23.4 46.1 30.2 67.3 l3.7 11.8 -2.1 2.9 c-1.2 1.6 -2.2 3.3 -2.2 3.8 0 0.5 3.5 9.4 7.8 19.9 l7.7 18.9 2.8 -1.6 c2.4 -1.3 3 -1.3 5.5 0 l2.7 1.6 0.7 17 c0.5 12.6 1.3 19.7 3.2 27.9 1.4 6.1 3.4 16 4.5 22 1.1 6.1 2.9 14.8 4 19.5 1.1 4.7 3.6 17.7 5.6 29 1.9 11.3 5.2 28.6 7.1 38.5 3.4 16.7 3.7 19.9 4.4 45 0.5 16.4 0.5 28.7 -0.1 31.5 -0.5 2.5 -1.2 5.6 -1.5 7 -0.4 2 0.1 2.8 2.6 4.2 2.7 1.5 3 2.2 3 6.5 0 6.9 -4.6 35.7 -8 49.8 -2.2 9 -3 15.4 -3.4 25.3 -0.5 13.1 -0.4 13.2 1.8 13.2 4.3 0 5.6 2.1 8.2 13.7 1.7 7.6 4.5 15.7 8.8 25.5 7.5 16.8 13.6 33.8 13.6 37.9 0 1.6 -0.5 3.8 -1.2 4.8 -0.9 1.5 -0.7 4.3 1 13.2 3.6 18.7 4.4 26.7 4.1 39.9 -0.1 6.9 0.3 26.2 0.9 43 1.1 29 1.3 31.3 4.6 46.5 7.9 35.9 8 39 0.9 42.3 -2.1 0.9 -4.5 2.5 -5.4 3.6 -1.8 2.2 -6.5 2.4 -8.6 0.3 -1 -1 -2.7 -1.3 -5.2 -1 -6.1 0.8 -7.4 -1.6 -7.8 -15 -0.4 -14.5 -1.5 -19.8 -7.1 -32.7 -5.4 -12.5 -13.9 -25.8 -25.1 -39.5 -8.8 -10.9 -11.1 -15.7 -13.1 -27.5 -0.7 -4.1 -1.6 -8.1 -1.9 -8.8 -1.1 -2 -4.7 11.1 -7.5 27.3 -1.4 7.7 -2.9 16 -3.5 18.5 -0.7 2.9 -1.1 27.7 -1.1 69.3 0 69.8 0.3 74.7 5.5 94.5 3.1 11.6 3.1 12.7 0 15.6 -3.2 3 -3.2 5.2 0.2 23.5 2.5 13.5 2.7 16.7 2.7 41.6 0.1 30.8 -0.8 37.1 -7.4 49.9 -2.1 3.9 -4.5 8.7 -5.5 10.6 -1 1.9 -2.2 4.2 -2.7 5 -0.4 0.8 -1.9 3.6 -3.2 6.1 -4.2 7.8 -7.5 10.3 -18.3 13.9 -7.2 2.4 -11.9 3.3 -17.8 3.5 -4.4 0.2 -10.9 1 -14.5 1.9 -3.6 0.9 -9.4 1.6 -12.8 1.6 -5.4 0 -6.7 0.3 -8.2 2.3 -1.8 2.1 -2.4 2.2 -22.3 2.5 -11.3 0.2 -23.3 -0.1 -26.8 -0.7 -7.9 -1.1 -25.8 -8.1 -30.7 -11.7 -2.4 -1.9 -5 -2.9 -7.8 -3 -7.7 -0.5 -9.7 -2.7 -18.3 -20.1 -6.1 -12.2 -8.6 -20.2 -10.2 -32.4 l-1.2 -9.6 -2.8 1 c-3.9 1.5 -7.4 -1 -8.4 -6 -0.4 -2 -2.8 -9.2 -5.4 -15.8 -4.9 -12.6 -9.1 -18.8 -21.9 -32.8 -2.9 -3.2 -6.1 -7.7 -7.2 -10.1 -1.3 -3.2 -3.1 -5.1 -7.1 -7.6 l-5.3 -3.3 -11.1 0.7 c-28.4 1.7 -51.5 6.2 -68.1 13.1 -11.6 4.8 -14.7 5.3 -17 2.6 -1 -1.2 -2.5 -2.1 -3.3 -2.1 -0.7 0 -5.6 2 -10.7 4.4 -5.2 2.5 -10.2 4.4 -11.2 4.3 -2.6 -0.1 -10.1 5.3 -11.9 8.6 l-1.5 2.9 2.3 -1.6 c4.9 -3.4 10.9 -0.9 10.9 4.6 0 1.4 -0.8 3.2 -1.8 4.2 -1.1 0.9 -3.5 4 -5.5 6.9 -4.4 6.3 -5.6 13.3 -5.7 31.2 -0.1 29.5 -2.6 53.4 -6.6 63.4 -3.2 7.9 -15.9 16.4 -38.2 25.4 -3.4 1.4 -7.4 3.5 -8.8 4.6 -1.5 1.2 -6.1 3.2 -10.3 4.5 -11.7 3.7 -38.2 9.6 -47.9 10.7 -10.2 1.1 -11 1.3 -18.2 4.8 -5.3 2.5 -6.2 2.6 -25.5 2.8 -11 0.1 -21.1 -0.2 -22.5 -0.6z m17.4 -19.6 c2.9 -2.9 4 -3 8 -1 1.5 0.8 4.2 1.5 5.8 1.5 1.6 0 12.3 -3.1 23.6 -6.9 14.9 -5 24.9 -7.7 35.7 -9.6 19.3 -3.4 26.6 -5.3 28 -7.2 0.6 -0.8 3.3 -1.9 6 -2.4 2.7 -0.5 6.4 -1.7 8.4 -2.7 3.4 -1.7 3.6 -2 7.3 -16.2 l3.9 -14.5 -2.2 -8.5 c-1.8 -6.9 -2.3 -12.2 -2.7 -27.6 l-0.4 -19.1 2.6 -2 c2.2 -1.7 2.6 -2.9 2.6 -6.9 0 -6.8 1.8 -17.1 3.6 -20.5 0.8 -1.6 3.8 -5.2 6.8 -8.1 2.9 -2.9 6 -6.6 6.9 -8.3 2.9 -5.6 5.6 -7.7 9.6 -7.3 2.8 0.2 6.2 -1 15.6 -5.7 10.7 -5.3 12.7 -6 18 -6 5.1 0 7.3 -0.7 15.5 -4.7 5.2 -2.6 12.2 -5.7 15.5 -6.8 11.2 -3.9 38.6 -4.7 84 -2.6 11.9 0.6 14.3 1 16.1 2.7 1.5 1.4 3.5 1.9 7.8 1.9 4.7 0 6.1 0.4 8.1 2.5 3 2.9 3.1 4.5 0.4 7.9 -1.7 2.2 -2.8 2.6 -6.9 2.6 -4 0 -4.8 0.3 -4.4 1.5 0.4 1 2 1.5 4.4 1.5 3.9 0 6.5 2 7.2 5.5 0.2 1.1 1.2 2.1 2.3 2.3 1.1 0.2 3.1 1.4 4.4 2.5 5.4 4.9 16.5 24.6 21.2 37.7 4 11.3 5.5 12.9 27.6 30.2 9.1 7.2 11.5 9.6 14.1 14.7 1.8 3.3 4.1 6.3 5.2 6.6 5.4 1.7 6.8 8 2.5 11.3 l-2.6 2 3.3 0.7 c1.8 0.4 8.7 2 15.3 3.6 27.4 6.6 62.4 6.4 75.8 -0.5 6.6 -3.5 9.4 -3.4 11.5 0.4 0.9 1.6 2.1 3 2.5 3 0.4 0 2.9 -1.1 5.6 -2.4 6.1 -3.1 9.3 -9.3 11.6 -22.3 1.9 -11.5 5 -21.7 7.2 -23.8 1.4 -1.4 1.5 -3.3 0.9 -14.3 -0.4 -7 -1.1 -26 -1.6 -42.2 -0.5 -16.2 -1.3 -31.7 -1.9 -34.5 -0.5 -2.7 -0.7 -9.3 -0.4 -14.5 0.5 -8.5 0.2 -11.1 -3 -25 -4.5 -19.4 -6.3 -31.4 -7.8 -51 -1.7 -21.1 -1.8 -81.1 -0.2 -87 1.1 -4 1 -4.7 -0.8 -6.6 -2.4 -2.5 -2.4 -2.9 0.1 -13.4 1.1 -4.7 2.4 -11.1 3 -14.2 0.6 -3.1 2.2 -7.3 3.6 -9.3 1.9 -2.8 3.2 -7.8 5.8 -22.3 1.9 -10.3 3.7 -21.1 4.1 -24.1 1.1 -8.6 5.7 -11.3 12 -7.1 1.7 1.1 4 2 5.2 2 2.4 0 3.6 1.1 7.3 6.5 1.4 2 4.4 5.9 6.8 8.6 2.3 2.7 4.2 5.4 4.2 5.9 0 0.6 2.8 5.8 6.2 11.7 3.4 5.9 8.4 15.5 11.1 21.3 5.1 10.7 17.7 47.3 17.7 51.3 0 1.3 -0.7 3.2 -1.5 4.4 -1.4 2.1 -1.3 2.6 1.5 7.7 1.7 3 3.9 7.8 5 10.8 3.8 10.6 1.6 -2.7 -7.5 -44.2 -3 -13.5 -6.6 -30.8 -8 -38.4 -3.4 -18.7 -7.5 -52.1 -7.5 -61.7 0 -7.3 0.2 -8 2.5 -9.5 1.6 -1 3.4 -1.4 5 -1 1.4 0.4 2.5 0.5 2.5 0.4 -0.1 -1.7 -3.1 -11.2 -3.8 -12.1 -0.5 -0.7 -1.2 -3 -1.5 -5.2 -1.6 -13 -5.9 -24 -14.9 -38.3 -4 -6.2 -4 -6.4 -3.4 -13.2 0.6 -5.6 0.4 -7.4 -1 -9.5 -1.5 -2.2 -1.5 -3.3 -0.4 -10.3 2.6 -15.8 2.6 -15.1 -1.1 -15 -4.7 0.2 -7.3 -3.3 -6.4 -8.7 2.2 -13 2.6 -17.9 3.2 -36.1 0.6 -19.6 0.5 -20.3 -1.5 -22.9 -2 -2.5 -2.2 -4 -2.2 -16.7 0 -14.9 -2.2 -52.7 -4.5 -77.3 -1.3 -13.5 -1.2 -15.2 0.2 -17.4 1.8 -2.8 1.5 -10.7 -1.3 -39.6 -1.4 -14.6 -2.1 -17.6 -8.1 -36.5 -7.2 -22.8 -9.6 -29.7 -8.8 -26 0.2 1.4 0.8 6 1.1 10.3 0.6 6.6 0.4 8 -1.1 9.7 -2.2 2.5 -6.7 2.6 -8.8 0.2 -1.1 -1.2 -2.5 -7.3 -4.1 -18.4 -3 -20 -5.6 -31.7 -14.2 -64.4 -8.1 -30.7 -11.8 -39.4 -34.2 -80.4 -13.1 -23.9 -18.2 -35.1 -18.2 -39.8 0 -2.1 -0.7 -4.7 -1.5 -5.8 -2 -2.6 -1.9 -1.7 1.1 16.5 2.8 16.9 2.5 19.5 -2.1 20.7 -6.3 1.6 -7.8 -1.5 -11.5 -23.9 -3.2 -19.6 -6.8 -33.1 -12 -45.7 -3.9 -9.4 -6.8 -14.3 -14.7 -25.2 -5.9 -8 -6.6 -8.7 -9.2 -8.2 -2 0.4 -4.2 -0.2 -7.7 -2.4 -2.7 -1.6 -8.8 -5 -13.5 -7.5 -11.3 -6.1 -24.4 -14.7 -39.2 -25.9 l-12.1 -9.1 -5 1.7 c-2.8 1 -12.7 5.2 -21.9 9.3 -9.5 4.2 -22.3 8.9 -29.5 10.9 -7 1.9 -20.8 6.2 -30.7 9.4 -9.9 3.3 -30.4 8.9 -45.5 12.5 -34.7 8.3 -65.3 16 -94 23.5 -12.4 3.3 -26.1 6.6 -30.5 7.5 -12.5 2.4 -41.7 6.3 -58.9 8 -17.8 1.7 -23 2.8 -40.6 8.3 -14.8 4.7 -26.2 6.7 -46.5 8.2 -21.1 1.5 -31.9 2.6 -56.5 6 -11.8 1.7 -26.4 3.4 -32.5 3.9 -6 0.6 -19.4 2.6 -29.6 4.5 -26.1 4.9 -39.9 6.6 -55.3 6.6 l-13.3 0 -5 8.3 c-7.3 12 -12.8 22.6 -14.3 27.2 -0.7 2.2 -1.9 5.1 -2.8 6.5 -3.3 5.1 -17.5 42.1 -22.7 59 -7.3 23.9 -7.2 23.3 -8.5 43 -1.2 20.2 -4.1 46.1 -7.1 63.9 -1.1 6.9 -1.8 13.8 -1.5 15.4 0.4 1.8 -0.1 4.3 -1 6.4 -1.9 3.8 -1.5 15.6 1 37.7 1.1 9.4 1.8 12.1 3.4 13.6 2.2 2.1 2.4 2.6 4.2 11 0.7 3 1.8 6.2 2.5 7 0.7 0.8 2 4.9 3 9 2.1 9 11.8 38.4 15.1 45.7 2.2 5.1 7.4 13.4 10.1 16.1 1.6 1.6 1.7 4.6 0.3 7.2 -1.4 2.5 10.2 31.8 20.1 50.8 3.8 7.3 6.9 13.7 6.9 14.3 0 0.5 -1.1 2.1 -2.6 3.5 l-2.5 2.6 6 14.3 c3.3 7.8 8.1 19.8 10.6 26.6 3.9 10.4 5.3 12.9 8.6 15.8 2.7 2.4 3.9 4.2 3.9 6.1 0 5 3.7 13.4 20.9 47.8 15.1 30.1 18.7 37.8 20.7 44.3 0.3 0.9 -0.5 2.9 -1.8 4.5 -2.8 3.4 -2.8 4 -0.6 7.4 1.5 2.3 1.6 4.2 0.2 24 -0.7 11.8 -2 28.5 -2.9 37 -2.2 23.7 -2.9 48.8 -1.6 63.5 1.3 15.2 5.1 34.6 8 40.7 1.4 3 1.8 3.5 1.4 1.5 -0.3 -1.5 -0.6 -13.2 -0.7 -26 l-0.1 -23.2 3.3 -6.7 c1.8 -3.7 4.6 -7.8 6.1 -9.1 2.1 -1.7 3.4 -4.3 4.7 -8.8 1.8 -6.9 1.9 -7.4 0.8 -16.2 -0.8 -7.1 1.1 -10 6.2 -9.5 1.7 0.1 3.8 -0.2 4.5 -0.8 5 -3.9 8.3 -2.3 14.4 6.9 4.8 7.3 5.1 7.5 8.8 7.4 2.1 -0.1 4.3 0.5 5.1 1.3 0.8 0.8 2.8 6.7 4.5 13.2 1.6 6.4 5.2 16.7 7.9 22.9 4.5 10.3 5.2 11.4 8.3 12.4 3.9 1.3 3.5 0.4 8.5 21 1.9 8.3 4.2 16 5 17.2 1.7 2.7 7.6 29.4 9.8 44.3 2 13.4 3.5 37.7 2.9 45.5 -0.3 4 0.5 12.5 2.6 25.5 4.2 26.1 6 43.2 6.8 62.6 0.6 17 0.7 16.4 -4.1 19.8 -1.8 1.2 -1.9 1.8 -0.7 10 1.9 13.6 6.3 26 11.7 32.5 2.5 3.1 4.2 6.1 3.9 6.9 -1.8 4.8 -1.6 5.7 3.4 11.3 4.8 5.3 5.4 5.7 14.6 8.3 5.3 1.5 13.7 3.6 18.8 4.6 5.1 1 9.3 1.9 9.4 1.9 0.1 0.1 1.3 -1 2.7 -2.4z m449.1 -37.5 c-3.4 -1 -26.4 -5.7 -37.5 -7.7 -4.1 -0.7 -9.3 -1.8 -11.5 -2.3 l-4 -0.8 2.4 1.9 c1.3 1.1 3.5 2.2 5 2.4 2.8 0.6 5.5 1.5 14.6 5.1 5.3 2 7.6 2.3 20 2.2 9.1 0 13 -0.3 11 -0.8z m-308.1 -21.5 c0.8 -3.3 1.8 -11.2 2.2 -17.6 0.6 -10.7 0.5 -12.1 -1.4 -16.1 -1.2 -2.4 -2.4 -5.8 -2.8 -7.5 -0.6 -2.9 -0.7 -3 -2.5 -1.5 -1.4 1.2 -1.9 3 -1.9 6.7 0 4.7 0.3 5.1 3.3 6.5 3.2 1.5 3.2 1.5 3.5 9.8 0.2 7.2 -1.5 20.7 -3.4 27 -0.5 1.4 -0.4 1.4 0.4 0.2 0.6 -0.8 1.7 -4.2 2.6 -7.5z m253 -13 c-2.3 -4.4 -5 -7.1 -13.8 -14 -6 -4.7 -11.1 -8.3 -11.4 -8.1 -1.2 1.3 3 11.4 6 14.2 6.3 5.9 20.5 15 21.7 13.8 0.2 -0.2 -0.9 -2.9 -2.5 -5.9z m-537.9 -250.6 c0.4 -4.4 0.4 -8.3 0.1 -8.6 -1.3 -1.4 -2.7 1.7 -3.7 8.2 -0.9 5.5 -0.8 6.9 0.3 7.6 2.3 1.5 2.6 1 3.3 -7.2z m727.8 -83.5 c0.3 -0.4 -1.4 -4.6 -3.9 -9.5 -4.3 -8.6 -6.4 -11.6 -4.4 -6.3 0.6 1.4 1.9 7.6 3 13.7 2.8 15.3 3.3 16.5 4.1 8.9 0.3 -3.4 0.9 -6.5 1.2 -6.8z m-25.4 -26.4 c0 -0.8 -0.8 0.3 -1.9 2.5 -2.5 5.2 -2.5 7.1 0 2.5 1.1 -1.9 1.9 -4.2 1.9 -5z m-749.9 0 c-1.7 -3.2 -2 -2 -0.7 3 1 3.8 1.2 4.1 1.5 1.8 0.2 -1.5 -0.2 -3.7 -0.8 -4.8z m807 -8.2 c-0.1 -3.7 -4.7 -29.2 -4.9 -26.8 -0.3 3.4 3.4 30 4.1 30 0.4 0 0.8 -1.5 0.8 -3.2z m-807 -21.8 c-3.4 -6.7 -6.4 -11.9 -6.7 -11.6 -0.3 0.3 2.3 5.9 5.8 12.5 3.4 6.6 6.4 11.9 6.7 11.7 0.2 -0.3 -2.4 -5.9 -5.8 -12.6z m-109.4 -234.1 c-1.4 -5.7 -3.6 -16.9 -5.1 -24.9 -2.8 -15.6 -5.5 -26.3 -6.2 -24.2 -1 2.8 12.1 61.2 13.4 59.9 0.2 -0.2 -0.8 -5.1 -2.1 -10.8z m886.5 -37.8 c0.1 -4.5 -0.2 -8.5 -0.5 -8.8 -0.3 -0.4 -0.6 3.6 -0.6 8.7 0 5.1 0.2 9.1 0.5 8.8 0.3 -0.2 0.5 -4.2 0.6 -8.7z m-917.4 -135.8 c1.1 -9.9 1.4 -11 3.9 -13.2 2.8 -2.3 2.8 -2.7 3.6 -17 0.7 -13.8 4.1 -49.4 5.4 -57.2 0.5 -3.2 0.3 -3.8 -3.3 -6.4 -6.3 -4.7 -13.3 -11.8 -13.3 -13.7 0 -2.2 -1.9 -3.3 -3.3 -1.9 -1.4 1.4 -5.2 1.4 -7.6 0.1 -1 -0.5 -2.8 -3.5 -4 -6.7 -1.9 -5.2 -3.8 -7.4 -17.3 -20.3 -15.5 -14.9 -24.8 -26 -29.9 -36.2 -3.4 -6.7 -3.6 -9.8 -1 -12.2 1.8 -1.6 1.7 -2 -4 -13.2 -10.8 -21.3 -14 -37.7 -11.9 -61.3 0.5 -6.8 1.3 -12.7 1.6 -13.2 0.2 -0.5 1.2 -5 2 -10.1 1.9 -12.1 6.2 -24.6 13.4 -39.3 6.9 -14.3 14.2 -25.7 19.6 -30.6 6.3 -5.8 15.7 -16 15.1 -16.5 -1.1 -1.1 -8.8 3 -9.9 5.4 -0.7 1.4 -7.2 6.8 -14.4 12.1 -19.7 14.4 -26.8 20.6 -35.2 30.5 -11.2 13.4 -30 34.6 -34.2 38.6 -7.3 7 -25.4 39.6 -30.5 54.9 -2.2 6.6 -2.5 9.4 -2.5 20.6 0 28.9 4.7 46.1 17.7 65.3 3.7 5.5 6.3 10.4 6.3 11.9 0 2.7 6.5 12.8 23 35.8 4.7 6.6 15.3 21.6 23.5 33.3 18 25.8 21.1 29.4 33.4 38.1 5.3 3.8 15 11.2 21.6 16.5 9.1 7.3 12.7 9.6 15 9.6 1.7 0 4 0.6 5.1 1.3 6.1 3.5 10 5.6 10.5 5.7 0.3 0 1 -4.8 1.6 -10.7z m-106.7 -65.2 c0 -0.9 -15.5 -23 -17.3 -24.6 -1.3 -1.2 0.1 1.2 8.9 14.7 6.3 9.8 8.4 12.3 8.4 9.9z m158.4 -101.3 c1.1 -1.8 4.3 -7 7.3 -11.6 2.9 -4.5 5.3 -8.4 5.3 -8.7 0 -0.5 -11.1 -3.7 -11.5 -3.3 -1.6 2 -9.5 26.5 -9.5 29.7 0 1.9 6.5 -2.8 8.4 -6.1z m22.7 -34.5 c1.2 -1.5 1.2 -1.6 -0.7 -1.1 -1.7 0.4 -2 0.2 -1.7 -1.3 0.4 -1.5 -0.6 -2.1 -5.3 -3.5 -3.3 -0.9 -6.1 -1.8 -6.4 -2 -0.3 -0.1 -0.4 1.3 -0.2 3.2 0.3 2.1 0 3.4 -0.7 3.4 -2 0 -1.1 1.9 1.2 2.3 5.8 1.1 12.5 0.7 13.8 -1z m-130.1 -2.1 c0 -0.5 -0.7 -5.5 -1.6 -11.3 -1.3 -8.6 -1.5 -16.5 -1.1 -45.6 0.5 -34.8 0.5 -35.2 -1.5 -33.4 -1.5 1.4 -1.7 2.5 -1.1 4.7 1 4 0.6 5.3 -2.9 9.2 -2.8 3.3 -2.9 3.7 -2.3 9.7 0.6 5.6 0.5 6.5 -1.4 8.4 -2.8 2.8 -2.8 10.8 0 24.4 2.2 11.2 9.7 34.7 11.1 34.7 0.4 0 0.8 -0.4 0.8 -0.8z m231.5 -3.2 c10.5 -1 20.8 -3.4 43.5 -9.8 11 -3.2 12 -3.9 3 -2.2 -7 1.3 -7.6 0.6 -0.8 -1 2.9 -0.7 5.5 -1.6 5.8 -2 0.7 -0.9 17.1 -5.5 29 -8.1 5.2 -1.1 14.5 -3.3 20.5 -4.9 23.7 -6.4 45.7 -10.3 73.3 -13 32.5 -3.3 43 -5.5 64.2 -13.2 11.1 -4.1 23.4 -7.1 37.6 -9.2 5.6 -0.9 17.1 -3.6 25.5 -6.1 8.5 -2.4 22.2 -6.5 30.4 -8.9 8.3 -2.4 26.3 -6.7 40 -9.6 46.7 -9.6 83.3 -18.4 95.9 -23 l8.8 -3.3 -4.8 -4 c-7.3 -6.1 -14.4 -13.7 -15 -16.1 -0.5 -2 -1.7 -2.4 -12.1 -3.8 -6.9 -1 -12.1 -2.2 -13 -3.1 -0.8 -0.8 -1.7 -3.3 -2 -5.6 -0.4 -2.9 -1.3 -4.7 -2.8 -5.7 -2.2 -1.4 -2.6 -1.3 -7.3 2.3 -8.4 6.3 -38.6 21.7 -57.7 29.4 -9.9 3.9 -21.8 8.9 -26.4 11 -9 4.2 -12.4 4.9 -11.5 2.4 0.8 -2 0.7 -2 -6.7 1.4 -6.2 2.9 -6.3 3 -2.4 2.5 3.5 -0.4 3.7 -0.3 1.5 0.6 -1.3 0.6 -2.7 1.5 -3 2.1 -0.9 1.3 -17.6 8 -29.6 11.9 -13.8 4.4 -29.4 8 -62.4 14.4 -39.2 7.5 -43.2 8 -64 7.1 -9.6 -0.4 -19.4 -0.7 -21.7 -0.7 -2.4 0.1 -12.7 0.2 -23 0.3 -21.1 0.2 -27.2 -0.6 -42.8 -5.5 -7.5 -2.4 -11.3 -3.2 -12.1 -2.5 -0.7 0.6 -3.9 0.9 -7.1 0.7 -5.1 -0.3 -5.9 -0.6 -6.9 -2.8 -1.8 -3.9 -2.4 -12.2 -0.9 -11.7 0.8 0.4 1 -0.2 0.7 -1.8 -0.2 -1.2 0.1 -3.2 0.7 -4.3 0.9 -1.6 0.7 -2.1 -0.9 -2.5 -1.2 -0.3 -2.4 0.1 -2.9 1.1 -0.8 1.3 -1.2 1.4 -2.5 0.3 -1.2 -1 -1.6 -3.1 -1.6 -7.7 0 -5.4 0.3 -6.5 2.2 -7.8 2.8 -2 4.8 -2 4.8 -0.1 0 0.8 0.4 1.5 1 1.5 0.5 0 0.7 -0.7 0.4 -1.5 -0.4 -0.8 -0.1 -1.5 0.5 -1.5 0.6 0 1.1 -1.8 1.1 -4.1 0 -2.2 0.8 -5.4 1.7 -7 1.9 -3.1 1.2 -4.9 -1.1 -3 -2.4 2 -3.6 0.3 -3.6 -5.2 l0 -5.1 -6.3 6.2 c-6.2 6.1 -6.3 6.2 -11.8 6.2 -3 0 -6 -0.5 -6.7 -1.2 -0.7 -0.7 -1.2 -3.6 -1.2 -6.6 0 -5.4 0.1 -5.5 7.3 -13.1 9 -9.5 12.7 -16.4 12.7 -24 0 -4.2 0.3 -5.2 1.1 -4.1 0.7 1.1 0.9 -0.1 0.6 -4.3 -0.3 -3.2 -0.8 -6.1 -1.1 -6.5 -0.8 -0.7 -7.7 -3.2 -9.2 -3.2 -0.7 0 -4.2 1.4 -8 3.2 -5 2.3 -6.3 3.3 -5 3.8 3.4 1.1 -0.5 3.4 -19.1 11.1 -26.6 11 -60.6 28.7 -84.4 44 -5.8 3.7 -11.9 7.1 -13.5 7.5 l-2.9 0.7 2 -2.3 c1.9 -2.2 1.8 -2.2 -1.9 0.3 -8.8 5.9 -21.6 20.4 -14.7 16.8 1.6 -0.9 1.9 -0.6 2.5 2.7 0.9 5.4 0.7 12.5 -0.3 14.1 -0.5 0.8 -3.1 1.7 -5.7 2 l-4.8 0.6 -3.8 14.5 c-7 26.3 -6.9 23.4 -1.3 33.4 7.5 13.2 8.6 14.3 17.9 16.1 4.3 0.9 10.9 2.7 14.6 4.1 8.5 3.1 10.1 2.5 15.7 -5.9 4.6 -6.8 23.2 -30.3 28 -35.4 2.7 -2.9 3.7 -3.3 8.4 -3.3 5.9 0 9.9 2.6 9.9 6.6 0 1.5 0.8 2.4 2.5 2.8 1.3 0.3 2.9 1.5 3.5 2.6 0.6 1.1 1.8 2 2.7 2 3.4 0 5.3 3.1 5.3 8.7 l0 5.4 -9.8 9.7 c-10.4 10.3 -14.9 17.5 -12.1 19.3 0.8 0.5 4.8 0.9 8.9 1 6.3 0.1 15.1 1.5 11.3 1.8 -0.7 0.1 -1.3 0.6 -1.3 1.1 0 1.3 12.5 1.3 26.5 0z m113.6 -14.5 c13.8 -2.8 36.2 -8.6 35.6 -9.2 -0.6 -0.6 -38.7 7.5 -45.2 9.6 -8.2 2.7 -5.1 2.6 9.6 -0.4z m96.9 -14 c24.6 -2.8 54.5 -9.5 124 -27.9 8 -2.1 2.7 -1.9 -8.1 0.3 -9.2 1.9 -33.4 5.9 -39.4 6.6 -1.6 0.2 -3.9 0.6 -5 0.8 -1.1 0.3 -5.6 1.3 -9.9 2.2 -4.4 0.9 -13.2 3.2 -19.5 5.1 -6.4 1.9 -19 5.2 -28.1 7.4 -17 4.1 -28 7.3 -22.5 6.5 1.7 -0.2 5.5 -0.7 8.5 -1z m-526.2 -49 c9 -13.5 20.9 -27.9 34.8 -42.4 9.3 -9.7 9.3 -9.8 8.2 -12.9 -0.7 -1.8 -1.5 -3.2 -1.8 -3.2 -1.4 0 -27.9 27.8 -28.5 30 -0.4 1.4 -2 4.1 -3.5 6 -5.5 7.1 -12.3 20.2 -17.2 33 -1.2 3.3 -1.2 3.2 8 -10.5z m875.1 -3.8 c-22.6 -26.3 -28.2 -32.6 -29.4 -33 -0.6 -0.3 -3.8 1.5 -7 4 l-5.8 4.6 2.5 2.2 c10.1 8.7 44.4 31.3 45.6 30 0.3 -0.2 -2.4 -3.8 -5.9 -7.8z m-326.9 -9.8 c8.5 -1.7 21.8 -4.6 29.5 -6.6 13.5 -3.4 34 -10.2 33.2 -10.9 -0.7 -0.7 -27.1 5.5 -38.9 9.1 -6.4 1.9 -17.7 4.9 -25 6.5 -7.3 1.7 -15.5 3.7 -18.3 4.5 l-5 1.5 4.5 -0.6 c2.5 -0.3 11.5 -1.9 20 -3.5z m345.8 -1.6 c-1.3 -1.6 -7.2 -5.7 -13.3 -9.3 -3.4 -1.9 -2.7 -1 4.5 6.4 7.7 7.8 8.5 8.4 9.2 6.5 0.5 -1.3 0.4 -2.7 -0.4 -3.6z m-424.3 -2.3 c-2.8 -1.1 -0.8 -1.7 9 -2.5 4.4 -0.3 8.2 -1 8.3 -1.6 0.2 -0.5 1 -0.9 1.9 -0.9 2.5 0 77.2 -15.7 98.3 -20.6 28 -6.6 28.9 -7 43 -16.4 4.7 -3.2 16.5 -9.9 26.2 -14.8 17.3 -8.8 34.6 -19.4 41.3 -25.4 l3.4 -2.9 -3.2 -4.8 -3.2 -4.8 -11.4 3.9 c-6.3 2.1 -16.6 6.2 -23 9.2 -7.9 3.7 -16.2 6.6 -26.1 9.1 -8 2 -22.4 6.7 -32 10.4 -9.6 3.8 -19.7 7.6 -22.5 8.5 -13.2 4.2 -110.8 24.2 -136.6 28 -15.7 2.3 -53.6 1.7 -62.1 -1 -1.6 -0.5 -1.8 0.2 -1.8 7 0 6.3 0.3 7.9 2.3 10.1 2 2.3 3.2 2.6 13.7 3.5 6.3 0.6 12.4 1.3 13.5 1.6 1.1 0.4 13.9 0.9 28.5 1.3 25.2 0.6 32 1.4 27.4 3.2 -1.3 0.5 -0.5 0.8 2.6 0.8 3.3 0 4 -0.3 2.5 -0.9z m19.1 -1.7 c-0.7 -0.7 -15.6 0.9 -15.1 1.6 0.2 0.4 3.8 0.3 7.9 -0.3 4.2 -0.5 7.4 -1.1 7.2 -1.3z m338.5 -18.9 l2.4 -2.7 -3.2 1.7 c-3.6 1.8 -5.1 3.6 -3 3.6 0.7 0 2.4 -1.2 3.8 -2.6z m-165.8 -17 l15.1 -3.7 8.6 -8.1 c4.7 -4.4 11.1 -9.9 14.2 -12.1 3.1 -2.2 6.4 -5.3 7.4 -7 1.7 -2.8 1.4 -2.7 -5.2 1.9 -3.8 2.7 -8.2 6.1 -9.9 7.6 -6.9 6.4 -22.8 15.2 -39.5 21.9 -4.1 1.7 -7.1 3.1 -6.7 3.1 0.5 0 7.6 -1.6 16 -3.6z m-297.8 -11.9 c-0.5 -3.9 -1.1 -5.3 -1.8 -4.6 -0.7 0.7 -0.7 1.8 0.1 3.6 0.7 1.4 1.2 3.8 1.2 5.2 0 1.5 0.3 2.4 0.6 2.1 0.3 -0.4 0.2 -3.2 -0.1 -6.3z m69 3.5 c6.6 -0.5 14.7 -1.2 18 -1.4 l6 -0.5 -4 1.4 -4 1.4 5 -0.5 c2.8 -0.2 7 -0.6 9.5 -0.9 2.5 -0.2 8.5 -0.7 13.5 -1 4.9 -0.4 9.2 -0.8 9.5 -1 0.3 -0.2 2.6 -0.6 5 -1 13.6 -1.9 78 -18.8 76.7 -20.1 -0.2 -0.3 -1.6 0 -3.1 0.6 -1.5 0.5 -3.9 1 -5.4 1 -1.6 -0.1 1 -1.3 6.3 -3 10.2 -3.4 12.8 -3.8 7 -1.1 -4.9 2.4 -3.7 2.6 3 0.6 2.8 -0.9 9.3 -2.7 14.5 -4.1 5.2 -1.4 14.5 -4.5 20.5 -6.9 17.8 -7.1 23.5 -8.9 40.9 -13.5 4.3 -1.2 8.8 -2.6 10 -3.2 2 -1.1 2 -1.1 0.1 -1.8 -1.8 -0.6 -1.8 -0.8 0.7 -3.1 1.4 -1.3 5.9 -4.2 10.1 -6.4 l7.5 -4 -2.3 -4.6 c-2.1 -4 -2.9 -4.7 -6.2 -5.2 -4.4 -0.7 -11.5 -6.3 -13.9 -10.9 -1.9 -3.7 -2.9 -15.2 -1.7 -19.7 0.8 -3 0.5 -3.7 -1.9 -6.2 -2.4 -2.3 -2.8 -3.6 -2.8 -8.2 0 -3.6 0.5 -5.9 1.5 -6.7 2 -1.7 1.9 -3.5 -0.9 -11.6 -2.9 -8.2 -5.8 -22.6 -8.6 -42.1 -1.6 -11.1 -2.7 -15.6 -5.3 -21 -3.2 -6.8 -3.2 -6.9 -3.8 -26.8 -0.5 -13.3 -1.5 -26 -3.3 -38 -4.6 -31.8 -5.4 -78 -2.5 -149 0.6 -14.3 0.9 -32 0.7 -39.3 l-0.3 -13.3 -8 6.1 c-4.4 3.3 -11.8 8 -16.5 10.4 -17 8.7 -41.6 18.6 -46.5 18.6 -2.3 0 -4.9 1.3 -23.5 11.3 -9.2 4.9 -39.5 17.4 -68 28 -19.6 7.3 -57.1 17.8 -83 23.2 -9.6 2.1 -29 6.6 -43 10.1 -32.3 8 -45.1 10.4 -55 10.4 l-7.9 0 3.3 7.7 c1.9 4.3 5.5 12.2 8 17.6 4.9 10.6 5.4 12.4 3.2 12.9 -1.2 0.2 -1.1 0.9 0.4 3.8 1.7 3.1 1.9 3.2 2 1.2 0 -4.2 2.4 -0.4 12.8 21 5.5 11.4 12.5 24.6 15.6 29.3 5.4 8.2 5.7 9.1 5.5 14.4 -0.3 9.3 7.9 26.7 19.2 40.3 3.5 4.2 3.9 5.3 3.9 10.1 0 3.6 -0.5 5.9 -1.5 6.7 -1.8 1.5 -1.9 2.5 -0.2 4.2 4.2 4.2 26.5 67.6 27.4 77.8 0.8 8 -0.5 10 -6.3 10 l-4.6 0 0.6 3.3 c0.3 1.7 1.5 10.6 2.6 19.7 1.1 9.1 2.4 19.7 3 23.5 0.5 3.9 1.6 13.1 2.5 20.5 0.8 7.4 2 17.2 2.6 21.8 l1.1 8.2 21.2 0 c11.6 0 26.5 -0.5 33.1 -1z m422 -11.3 c7.3 -7.3 9.5 -10.1 9.9 -12.8 1.5 -10.4 3.1 -24.7 2.8 -26.4 -1 -7.9 -12.1 -43.5 -16.2 -52.2 -4.4 -9.4 -5.2 -10.4 -10.5 -13.9 -5.3 -3.5 -6.3 -3.8 -16.3 -4.6 -5.9 -0.5 -15 -1.5 -20.2 -2.2 -6 -0.8 -11.5 -1 -15 -0.5 -3 0.4 -10.9 0.8 -17.6 0.8 -10.8 0.1 -12.3 0.3 -13.9 2.1 -1.4 1.6 -3.1 2 -7.5 2 -4.8 0 -6.3 -0.5 -9.4 -2.9 l-3.6 -2.9 -7.2 1.4 c-4 0.8 -16.4 3.1 -27.4 5.1 l-20.2 3.8 3.5 8.8 c3.2 7.9 3.7 8.7 6.2 8.7 3.6 0 5.1 1.7 5.1 5.7 0 1.9 0.6 4.9 1.4 6.7 1.9 4.5 15.7 20.6 17.7 20.6 3.3 0 5.1 3.5 4.7 9.4 l-0.3 5.6 3 0 c4.8 0 7.5 2.5 7.5 6.9 0 4.1 2.2 6.7 7.3 8.9 1.5 0.7 3 1.9 3.3 2.7 0.5 1.1 2.2 1.5 6.8 1.5 4.3 0 10.1 1.2 19.6 4.1 13 3.9 13.6 4 16.8 2.5 4.3 -2.1 10.8 -2 15.8 0.3 2.2 1 8.5 4.7 14 8.1 7.6 4.8 12 6.8 18.9 8.7 4.9 1.3 9.1 2.6 9.4 2.8 1.1 1.2 2.8 -0.1 11.6 -8.8z m11.4 -8.8 c1.8 -5.3 1.2 -6.7 -0.9 -2 -2.3 4.9 -2.3 5.1 -1.1 5.1 0.5 0 1.4 -1.4 2 -3.1z m-751.7 -17.6 c3.2 -0.6 5.5 -3 4.2 -4.2 -0.5 -0.5 -3 0.6 -5.9 2.6 -2.7 2 -4.1 3.2 -3 2.8 1.1 -0.3 3.2 -0.9 4.7 -1.2z m766.4 -31.6 c-1.9 -11.6 -6 -22.9 -10.1 -28.1 -2.2 -2.7 -2.1 -2.1 1.4 9.5 2 6.8 4.8 16.8 6.1 22.1 3.4 13.6 5 11.5 2.6 -3.5z m128.9 -87.4 c-0.9 -1.6 -3.7 -5 -6.2 -7.8 l-4.5 -5 3.7 7 c2.1 3.9 4 7.3 4.2 7.8 0.2 0.4 1.3 0.7 2.4 0.7 1.9 0 1.9 -0.1 0.4 -2.7z m-662.1 -26.9 c-0.9 -2.7 -2.1 -5.3 -2.7 -5.9 -0.7 -0.7 -0.7 -0.3 -0.2 1 0.4 1.1 1.4 3.9 2.2 6.3 0.8 2.4 1.7 4.1 1.9 3.9 0.2 -0.2 -0.3 -2.6 -1.2 -5.3z m594.6 -29.8 c0 -1.1 -16 -13.1 -19.5 -14.6 -2.2 -1 -9.1 -4.1 -15.3 -6.9 l-11.3 -5 4.8 6.1 c9.9 12.7 14.4 15.6 29.3 18.7 10.1 2.1 12 2.4 12 1.7z m-674.9 -161.6 c0.5 0 0.9 -0.4 0.9 -1 0 -1.4 -1.3 -1.2 -3.6 0.6 -1.7 1.4 -1.7 1.5 -0.1 1 1 -0.3 2.3 -0.6 2.8 -0.6z m-9.9 -8.3 c2.5 -1.8 6.4 -4.1 8.7 -5.1 2.2 -1.1 4.3 -2.7 4.6 -3.7 0.6 -1.9 0.9 -2 24 -6.5 7.7 -1.5 14.7 -3.3 15.6 -4 0.8 -0.8 3.6 -1.4 6.2 -1.4 2.5 0 14.2 -2.1 25.9 -4.6 16.3 -3.5 25.6 -6.2 39.8 -11.4 19.7 -7.2 33.7 -11.4 59.5 -17.9 8.8 -2.2 19.4 -4.9 23.5 -6.1 4.1 -1.1 13.3 -2.7 20.5 -3.6 28.3 -3.3 52.8 -8.7 79.5 -17.6 25 -8.2 38.5 -15.3 47.4 -24.6 l2.9 -3.1 -2.4 -0.6 c-1.3 -0.3 -6.9 -1.4 -12.4 -2.4 -8.7 -1.5 -25.1 -5.8 -26.5 -6.9 -0.2 -0.2 0.2 -0.7 1 -1.2 1.1 -0.7 0.5 -1 -2.2 -1 -2.1 0 -3.8 0.5 -3.8 1 0 0.6 0.6 1 1.3 1.1 0.6 0 0.3 0.4 -0.8 0.9 -2.9 1.2 -23.4 1.2 -21.5 0 1.1 -0.7 0.7 -1 -1.9 -1 -2.8 0 -3.2 0.2 -2.1 1.4 0.9 1.2 0.5 1.7 -2.7 2.5 -7.9 2.1 -33.7 6.1 -45.5 7.1 -13 1 -32.6 5.4 -48.7 11 -4.9 1.6 -9.7 3 -10.8 3 -1.1 0 -3.5 1 -5.4 2.3 -4.6 3.1 -22.4 10.3 -27.4 11.1 l-4 0.6 2.8 -1.5 c6.2 -3.5 0.4 -2 -9.3 2.3 -5.3 2.4 -4 2.9 1.5 0.6 2 -0.8 4 -1.3 4.3 -1 0.3 0.3 -1.2 1.3 -3.4 2.2 -2.1 0.9 -4.1 1.9 -4.4 2.3 -0.3 0.4 -11.7 5.3 -25.5 11 -39 16.2 -67.6 30 -81.8 39.6 -5 3.4 -10.6 4.8 -9.1 2.3 0.5 -0.7 0.2 -0.9 -0.8 -0.6 -2 0.8 -16.9 11 -22.9 15.8 l-4.6 3.6 1.8 2.3 c1.1 1.3 1.9 2.9 1.9 3.7 0 2.2 2.2 1.6 7.2 -1.9z m141.6 -11.9 c4.7 -1.2 8.1 -2.3 7.5 -2.5 -1.2 -0.4 -17.3 3.6 -17.3 4.3 0 0.6 0.6 0.5 9.8 -1.8z m246.7 -84.7 c1.4 -6.8 2.4 -12.5 2.2 -12.7 -0.2 -0.2 -1.8 1.2 -3.6 3 l-3.3 3.4 0.7 9.6 c0.4 5.3 0.9 9.5 1.1 9.4 0.2 -0.2 1.5 -5.9 2.9 -12.7z m-250.3 4.1 c9.2 -3.7 16.3 -6.8 15.8 -7 -1.1 -0.4 -24.9 7.5 -32.3 10.7 -2.9 1.2 -4.6 2.5 -4.2 3.2 0.8 1.2 -0.4 1.6 20.7 -6.9z m235.8 0.6 c0 -2.1 -0.3 -2.9 -1 -2.2 -0.5 0.5 -0.7 1.9 -0.4 3.2 0.9 3.1 1.4 2.7 1.4 -1z m-199 -2.8 c1.9 -1.1 2.9 -1.9 2.2 -2 -1.4 0 -7.2 2.8 -7.2 3.5 0 0.9 1.5 0.4 5 -1.5z m187 -30.5 c-0.8 -1 -3 -1.5 -6.3 -1.5 -5.6 0 -5.6 0.9 0 2 6.6 1.3 7.7 1.2 6.3 -0.5z"/>
  <path d="M622.4 1369.5 c-2.2 -2.2 -2.4 -3.1 -1.8 -7.3 0.3 -2.6 1.7 -8.2 3.1 -12.5 2.2 -7 2.3 -7.9 0.9 -9.3 -2 -2 -2.1 -6.8 -0.1 -8.4 2.3 -1.9 11.5 -33.3 11.5 -39.1 0 -1.5 -2.3 -1.7 -18.7 -2.2 -15.1 -0.4 -20 -0.9 -25.1 -2.5 -7.7 -2.5 -9.2 -3.7 -9.2 -7.2 0 -5.8 4.2 -11 9 -11 1.2 0 2.9 -0.9 3.9 -2.1 0.9 -1.1 2.8 -2.1 4.1 -2 1.4 0 4.2 0.1 6.4 0.1 2.9 0 4.5 0.8 6.6 3 1.6 1.7 5.3 3.7 8.9 5 5.7 1.9 7 2 14.3 1 4.4 -0.6 12.4 -2.2 17.7 -3.6 11.6 -2.9 11.9 -2.9 14.8 -0.2 2.2 2 2.5 2.1 9.3 0.8 5.1 -1 7.1 -1.8 7.5 -3.1 0.7 -2.2 4 -3.1 19 -5.4 18.6 -2.9 48.9 -11 58.2 -15.6 5.9 -2.9 9 -3.9 10.7 -3.5 1.7 0.4 5.9 -0.7 12.8 -3.4 9 -3.5 10.5 -4.4 11.8 -7.3 1.2 -2.5 2.3 -3.3 5.1 -3.8 4.1 -0.6 7.9 -3.1 12.7 -8.3 2.6 -2.8 4.1 -3.6 6.9 -3.6 3.8 0 9.7 -3.6 15.2 -9.4 1.9 -2 4.3 -3.6 5.2 -3.6 2.5 0 8.5 -7.4 10.1 -12.3 0.8 -2.6 2.3 -4.7 3.9 -5.6 2.4 -1.3 2.9 -1.3 5.4 0.5 1.6 1 4.4 2.8 6.4 3.9 9.3 5.2 7.3 11.5 -8.3 26 -9 8.4 -15.9 13.8 -26.9 21 -1.2 0.8 -1.4 1.9 -0.8 5 0.4 2.2 0.3 5.2 -0.2 6.8 -0.8 2.4 0.2 4.7 8.1 19 16.3 29.2 17.8 36.3 8.5 39.1 -2.6 0.8 -10 -2.1 -15 -6 -2.7 -2 -3.6 -2.3 -5.3 -1.4 -3.4 1.8 -5.7 0.3 -11.3 -7.3 -3 -4 -11.1 -13.6 -18.1 -21.4 -11.3 -12.7 -12.9 -14.1 -14.9 -13.4 -1.2 0.5 -5.8 2.5 -10.2 4.4 -26.1 11.2 -60.4 20.8 -87 24.3 -6.6 0.9 -13 1.7 -14.1 2 -1.8 0.3 -2.5 1.9 -4.4 11.1 -3.5 16.5 -8.9 34.7 -10.7 36.1 -0.9 0.6 -2.6 1.2 -3.7 1.2 -1.5 0 -4.5 3.4 -10.6 11.7 -4.6 6.4 -9.4 13.7 -10.6 16.1 -3.3 6.9 -6.7 8 -11 3.7z m31.5 -60.5 c1.6 -6.3 3.1 -13 3.4 -14.7 l0.7 -3.3 -4.4 0 -4.3 0 -1.2 6.6 c-1 5.7 -1 6.9 0.4 8.3 2 2.4 1.9 6.6 -0.5 13.7 l-2.1 5.9 2.6 -2.5 c1.9 -1.9 3.3 -5.5 5.4 -14z m181 -24.2 c-0.7 -1.3 -3.8 -6.8 -6.9 -12.3 -3.1 -5.5 -7.4 -13.2 -9.4 -17.1 l-3.7 -7.2 -6.7 2.6 c-3.7 1.4 -6.9 2.7 -7 2.8 -0.2 0.1 1.4 2.2 3.6 4.6 2.2 2.4 5.6 6.3 7.4 8.8 2.5 3.4 4.2 4.6 6.5 4.8 2.4 0.2 4.6 2 9.8 7.8 7 7.8 8.3 8.9 6.4 5.2z"/>
  <path d="M657.5 1129.8 c-4.9 -0.4 -24.3 -1 -43 -1.3 -38.9 -0.5 -49.5 -1.5 -61.7 -5.6 -24.4 -8.1 -38.3 -19.8 -51.4 -43.4 -2.1 -3.8 -5.7 -9.5 -8 -12.5 -2.3 -3 -4.9 -7.5 -5.8 -10 -1 -2.5 -6.4 -12.8 -12.1 -23 -17.3 -30.8 -20.9 -40.3 -23.9 -63 -0.9 -6.9 -2.5 -14.3 -3.6 -16.6 -3.8 -8.4 -5.1 -15.7 -5.7 -32.4 -0.6 -16.9 0.6 -35.6 3.2 -53 0.8 -5.2 1.9 -13.9 2.4 -19.3 0.5 -6.2 1.4 -10.4 2.4 -11.5 0.8 -0.9 1.8 -3.2 2.2 -4.9 0.6 -3.1 0.5 -3.3 -2.3 -3.3 -4.3 0 -6.6 -3.1 -5.9 -7.7 0.3 -2.1 4 -10.7 8.3 -19.1 7.1 -14.2 7.5 -15.4 6 -17.1 -5.3 -5.9 1.7 -15.6 41.6 -57.3 20.6 -21.5 24.6 -24.8 38.3 -31.7 10.6 -5.4 13.4 -6 15.8 -3.6 1.4 1.3 2.8 1.2 12.9 -1.3 10.5 -2.5 11.5 -2.9 12.8 -5.7 1.5 -3 1.6 -3 10 -3.1 18.2 -0.3 48 -1.5 62.4 -2.5 15.5 -1.1 35.6 -0.6 46 1.2 7.9 1.4 15.6 4.9 20.8 9.6 3.5 3.2 5.8 4.3 12.9 6 11.6 2.8 22 7.8 36.9 17.7 6.9 4.6 17.7 11.7 24 15.8 7.2 4.6 14.1 10.1 18.5 14.7 3.9 3.9 9.2 8.9 12 10.9 2.7 2 9.2 7.5 14.5 12.1 l9.4 8.4 0.8 -2.9 c0.9 -3.6 3.3 -5.4 7 -5.4 3.6 0 6.7 4.2 14.4 19.4 3.1 6.1 8.8 16.3 12.7 22.6 8.3 13.7 10.8 19.9 14.1 35.6 1.4 6.6 3.7 15.7 5.1 20.3 2.6 8.6 8.5 46 8.5 53.8 0 7.4 -3 27.4 -7.4 49.3 -3.1 15.2 -4.1 21.9 -3.4 22.8 0.7 0.7 0.9 4.3 0.6 9 -0.6 8.7 -5.9 22.5 -13.1 34.2 -2.2 3.6 -6.6 12.3 -9.9 19.5 -8.1 18.1 -13.5 23.1 -32.5 29.8 -3.9 1.4 -11.7 4.9 -17.3 7.7 -13.1 6.6 -18.5 8.7 -29.5 11.5 -4.9 1.3 -13 3.8 -17.9 5.5 -7.7 2.6 -18.4 5 -45.1 10.1 -3.7 0.7 -5.3 1.5 -6 3.2 -0.6 1.2 -2.6 3 -4.5 3.9 -6.7 3.3 -43.8 4.8 -66.5 2.6z m32.8 -15.5 c4.4 -0.5 4.7 -0.7 4.7 -3.6 0 -5.9 5.8 -8.7 10.8 -5.1 4.7 3.3 15.7 0.2 42.4 -11.7 19.1 -8.5 46.6 -18.9 50 -18.9 3.6 0 6.2 5.7 4.3 9.4 -1.3 2.4 -1.3 2.5 0.4 1.6 1 -0.5 8.5 -3.2 16.5 -5.9 18.4 -6.3 24.6 -9.6 24.6 -13.1 0 -1.5 0.5 -3.1 1.1 -3.7 0.8 -0.8 -0.5 -0.7 -3.6 0.3 -2.7 0.7 -5.9 1.4 -7.2 1.4 -3 0 -6.3 -3.4 -6.3 -6.5 0 -3.4 2.8 -5.6 9.2 -7.2 6.9 -1.8 13.9 -6.1 25.2 -15.4 13.7 -11.4 14.2 -12.1 17.2 -23.3 2.2 -8.4 2.4 -10.3 1.3 -12.2 -1.1 -2.1 -0.6 -5.2 3.4 -22.2 6 -25.5 7.2 -36.5 5.8 -56.2 -0.6 -8.3 -1.1 -20 -1.1 -25.8 0 -5.9 -0.7 -15.4 -1.5 -21.2 -0.8 -5.8 -1.5 -10.8 -1.5 -11.2 0 -0.5 -0.8 -0.8 -1.8 -0.8 -3.3 0 -5.9 -4.3 -15.3 -25 -10.5 -23.1 -14.2 -29.8 -23.3 -41.4 -10.3 -13 -26.9 -28.2 -36 -32.8 -11.4 -5.8 -33.5 -19.7 -39.9 -25 -10 -8.4 -18.8 -14 -33 -20.9 -6.7 -3.2 -13.8 -6.8 -15.7 -7.9 -1.9 -1.1 -4.5 -2 -5.8 -2 -2.1 0 -1.6 0.8 4.2 7.7 4 4.7 6.6 8.6 6.6 10 0 4.4 -6.2 8 -9.5 5.5 -0.5 -0.4 -4.7 -4.8 -9.3 -9.9 -7 -7.7 -8.8 -9.2 -11.2 -9.1 -3.7 0.1 -5.8 -1.6 -6.8 -5.6 l-0.8 -3.1 -23 -3.8 c-20.2 -3.4 -25 -3.9 -40.9 -4 l-18 -0.2 -24.8 6.2 c-34.3 8.6 -37.9 9.8 -34.7 11.8 0.6 0.3 1 2.2 1 4 0 4.2 -2.4 6 -9.1 6.9 -2.7 0.4 -5.4 1.5 -6.4 2.6 -1 1.1 -2.8 2 -3.9 2 -4.2 0 -15.6 9.9 -15.6 13.6 0 2.3 -2.1 4.4 -6.2 6.2 -2.5 1 -15.8 16.7 -21.5 25.4 -4.8 7.1 -10.7 32.8 -13.8 59.2 -1.6 13.7 -1.6 13.9 0.5 16.1 2.3 2.5 2.5 6 0.5 9.5 -0.8 1.4 -1.4 4 -1.5 5.8 0 1.8 -0.6 4.6 -1.4 6.1 -3.4 6.5 -4.9 24.3 -4.3 51.6 0.8 42.4 6 65.2 17.8 78 3.9 4.3 4.7 7.1 2.9 10.5 -0.7 1.3 -0.3 3.3 1.5 7.4 2.1 4.8 2.9 5.6 5.2 5.6 4.8 0 6.3 2.5 6.3 10.5 0 7.1 0 7.2 6.1 16.1 3.3 4.9 8.1 11.2 10.5 14 2.4 2.8 4.9 6.3 5.5 7.7 2.4 5.3 36.9 25.9 50.2 30.1 5.8 1.8 5.8 1.8 8.1 -0.3 3.1 -2.9 6.5 -2.6 10.1 0.8 3.3 3.3 12.1 5.4 26.7 6.6 4.5 0.4 8.1 1.2 8.8 2 2.6 3.1 17.8 4.5 42 3.9 10.2 -0.3 20.6 -0.7 23.3 -1.1z m-140.3 -6.8 c0 -0.2 -2.4 -1.7 -5.2 -3.1 -2.9 -1.5 -7.7 -4.2 -10.5 -6 -6.6 -4.2 -7 -3.6 -0.5 0.8 8.2 5.7 16.2 9.8 16.2 8.3z m-90.2 -287.1 l0.2 -2.9 -1.4 2.5 c-1.9 3.1 -2 4.3 -0.3 3.8 0.6 -0.3 1.3 -1.8 1.5 -3.4z"/>
  <path d="M687 1039 c-2.5 -0.4 -9 -0.6 -14.5 -0.3 -5.5 0.3 -15 0 -21.1 -0.6 -6.1 -0.6 -17.8 -1.6 -26 -2.1 -8.2 -0.5 -17.2 -1.6 -20 -2.5 -23.5 -7 -56.1 -49 -67.1 -86.5 -3.5 -11.7 -3.7 -13.3 -3.6 -26 0 -16.9 1.8 -24.1 10.3 -41.1 14.6 -29 26 -40.1 49.7 -47.8 6.5 -2.2 14.7 -5.2 18.3 -6.7 13.7 -5.7 22 -6.4 50.6 -4.4 13.1 0.9 18.9 2.4 22.7 5.8 1 0.9 6.3 2.6 11.7 3.8 11.8 2.7 20.6 6.7 27.6 12.6 2.9 2.4 8.1 6.4 11.7 9.1 8.8 6.4 17.2 14.1 19.7 18.2 1.9 3.2 6.5 13.2 12.5 27.5 8.9 21.2 11.5 60.1 5.5 83.5 -4.1 16.5 -15.4 32.7 -27.1 38.9 -3 1.6 -7.4 4.4 -9.9 6.1 -5.5 4 -13.7 8.1 -21 10.7 -6.2 2.2 -22.7 3.2 -30 1.8z"/>
  <path d="M1006.3 668.8 c-3.5 -4.5 -2.5 -7.2 5.4 -13.7 5.8 -4.9 6.1 -5.2 5 -8 -1.3 -3.5 0 -5.7 12.2 -21.9 21.1 -27.9 25.6 -35.6 32.5 -56.2 2.5 -7.3 5.4 -14.2 6.4 -15.4 5.4 -6 7.4 -11.4 8.5 -23.2 1 -10.2 0.9 -11.8 -0.6 -14.4 -2.2 -3.6 -2.1 -5.2 0.3 -9.7 1.1 -2.1 2 -5 2 -6.5 0 -3.4 1.5 -7.4 4.5 -11.8 3.5 -5.3 4.7 -12.6 5.4 -34 l0.6 -19.4 2.8 -1.6 c2.4 -1.3 3 -1.3 5.4 0 2.1 1.2 3 2.7 3.6 6 1.4 7.3 0 34.4 -2.3 44.4 -1.5 6.8 -1.7 9.3 -0.8 10.9 2.7 5.2 -1.3 32.1 -6.7 44.3 -1.4 3.3 -3.5 9.5 -4.5 13.9 -3.2 13.6 -11.3 34.9 -14.7 38.7 -0.9 1 -2.4 1.8 -3.4 1.8 -1 0 -2.5 1.2 -3.3 2.7 -1.3 2.6 -1.3 2.8 1.5 4.5 5.4 3.3 5 5.7 -3.6 18.6 -13.1 19.7 -20.1 27.3 -41.8 45.5 -5.3 4.4 -7.6 5.7 -10.1 5.7 -1.9 0 -3.8 -0.6 -4.3 -1.2z"/>
 </g>
 <g fill="#7a7974">
  <path d="M430.6 1564.2 c-0.4 -1.3 -0.5 -2.6 -0.2 -2.9 1 -1.1 1.8 0.4 1.4 2.9 l-0.4 2.3 -0.8 -2.3z"/>
  <path d="M1132.1 1324 c-0.1 -0.8 -0.4 -2.6 -0.7 -4 -0.5 -2.2 -0.4 -2.3 0.6 -0.7 0.6 1 0.9 2.8 0.7 4 -0.2 1.2 -0.5 1.5 -0.6 0.7z"/>
  <path d="M1124 1270.3 c0 -1.3 0.5 -2.3 1 -2.3 1.3 0 1.3 1.1 0 3 -0.8 1.2 -1 1.1 -1 -0.7z"/>
  <path d="M216.2 1057 c-0.5 -2.2 -0.6 -4 -0.2 -4 0.7 0 2.2 7.1 1.6 7.7 -0.2 0.2 -0.8 -1.4 -1.4 -3.7z"/>
  <path d="M609.5 1021.6 c-2.3 -0.7 -5 -1.8 -6 -2.5 -1.8 -1.1 -1.8 -1.1 0.5 -0.5 1.4 0.4 4.8 1.5 7.5 2.5 5.7 2 4.1 2.4 -2 0.5z"/>
  <path d="M1099.3 1016.5 c0 -2.2 0.2 -3 0.4 -1.7 0.2 1.2 0.2 3 0 4 -0.3 0.9 -0.5 -0.1 -0.4 -2.3z"/>
  <path d="M225.3 752.7 c0.4 -1.1 1 -3 1.3 -4.3 0.3 -1.3 1 -2.4 1.5 -2.4 0.4 0 0.1 1.7 -0.8 3.8 -1.6 3.8 -3.1 6.1 -2 2.9z"/>
  <path d="M234.5 729.3 c2.2 -4.8 4.6 -9 3.4 -5.8 -0.2 0.6 -1.3 3.4 -2.3 6.3 -1.1 2.9 -2.4 5.2 -2.8 5.2 -0.4 0 0.4 -2.6 1.7 -5.7z"/>
  <path d="M240 665.8 c0 -1.8 -0.9 -3.3 -2.6 -4.4 -2.2 -1.5 -3 -1.6 -6.2 -0.4 -3.5 1.2 -3.7 1.2 -6.4 -2.1 -3 -3.6 -6.8 -12.6 -6.8 -16.1 0 -1.7 0.5 -1.4 2.9 1.8 4.7 6.6 6.4 7.5 20.6 11 13.3 3.3 19.5 5.6 19.5 7.3 0 2.4 -3.7 3.6 -11.4 3.5 -4.5 0 -8.4 0.5 -8.8 1.1 -0.4 0.5 -0.8 -0.2 -0.8 -1.7z"/>
  <path d="M321 662.3 c-3.6 -0.2 -8 -0.5 -9.9 -0.9 -3.3 -0.5 -3.3 -0.6 -2.7 -4.6 1.1 -6.8 4.5 -12 14.2 -21.5 6.8 -6.6 9.4 -9.8 9.4 -11.6 0 -2.7 -2.8 -5.7 -5.3 -5.7 -0.9 0 -2.1 -0.9 -2.7 -2 -0.6 -1.1 -2.2 -2.3 -3.5 -2.6 -1.7 -0.4 -2.5 -1.3 -2.5 -2.8 0 -2.9 -3.9 -6.6 -6.9 -6.6 -1.3 0 -3.6 1.4 -5.4 3.3 -4.7 4.9 -23.3 28.5 -27.9 35.2 -2.2 3.3 -5.5 7 -7.3 8.1 l-3.3 2.2 -8.9 -3.3 c-4.8 -1.8 -12.4 -4.1 -16.8 -4.9 -9.5 -1.9 -10.6 -3 -18.5 -17.3 l-5.3 -9.5 1.6 -7.1 c2 -8.7 9.7 -38 10.2 -38.5 0.2 -0.2 1.2 0.2 2.3 0.9 2.8 1.7 7 0.4 7.8 -2.5 0.3 -1.3 0.2 -4.3 -0.3 -6.6 l-0.8 -4.1 8.8 -9 c4.8 -5 8.5 -9.4 8.2 -9.9 -0.3 -0.5 0 -1.2 0.6 -1.6 0.8 -0.5 1 -0.2 0.5 0.7 -0.4 0.8 0.1 0.5 1.1 -0.7 4.2 -4.8 40.1 -25.7 65.8 -38.4 6.6 -3.3 20.1 -9.4 30 -13.6 16.9 -7.1 18.5 -7.6 25.5 -7.7 8.1 -0.1 12.6 1.5 16.6 5.9 1.2 1.2 2.5 2 2.8 1.7 0.3 -0.4 0.6 2.3 0.6 5.8 0 8.7 -3.3 15.1 -12.7 25 -7.4 7.7 -8.8 11 -6.1 13.7 2.8 2.8 6.2 1.3 12.9 -5.5 3.6 -3.8 7.5 -8.1 8.7 -9.6 2 -2.7 2.1 -2.7 2.7 -0.6 0.4 1.3 1 1.7 1.4 1.1 0.4 -0.6 0.6 0.9 0.5 3.4 -0.1 2.5 -0.5 4.8 -0.8 5.1 -1 1 -0.7 4.8 0.5 6 0.8 0.8 0.8 1.3 0 1.7 -0.6 0.4 -1.1 1.9 -1.1 3.4 0 2.1 0.3 2.3 1 1.2 1.8 -2.9 2.4 0.2 1.1 6.3 -1.5 7.4 -1.8 7.8 -3.7 5.3 -1.4 -2 -1.4 -2 -1.4 0 0 1 -0.9 2.5 -2 3.2 -2.2 1.3 -2.8 7 -1 8.8 0.6 0.6 0.6 2.3 -0.2 4.7 -1.3 4.1 -0.9 5 2.4 5.2 1.9 0.1 2.4 0.9 3 4.9 0.8 6 2.3 7.8 6.1 7.4 2.5 -0.2 4 -1.6 5.3 -4.6 0.1 -0.2 1.7 0.6 3.5 1.7 1.9 1.1 8.7 3.6 15.1 5.5 15.2 4.6 31.5 6.1 49.3 4.5 9 -0.8 14.6 -0.8 20.6 0 11.4 1.5 27.6 1.4 39.4 -0.4 16.4 -2.5 66 -12.4 80 -16 13.2 -3.4 30.5 -9.3 40.5 -13.7 3 -1.4 6.1 -2.3 6.9 -2 0.9 0.3 1.1 0 0.6 -0.8 -0.6 -0.9 -0.4 -1.1 0.4 -0.6 0.7 0.5 3.2 0.5 5.6 0.1 3.2 -0.4 4.6 -1.2 5.1 -2.7 0.7 -2.4 9 -6.3 34.9 -16.7 18.7 -7.5 49.2 -23 57.3 -29.1 4.7 -3.6 6.4 -6.1 7.6 -11.1 0.7 -3 -1.8 -6.8 -4.5 -7.2 -0.9 -0.2 -3 -1.4 -4.7 -2.9 -2.7 -2.2 -3 -3.1 -2.5 -6.1 0.4 -3 0.1 -3.8 -2 -5.1 -2.2 -1.5 -2.9 -1.5 -5.8 -0.3 -3.2 1.3 -3.5 1.2 -5.7 -1.5 -1.4 -1.6 -2.3 -3 -2.1 -3.1 0.2 -0.2 1.6 -1.1 3.2 -2 4.4 -2.8 2.9 -8.7 -2.5 -9.8 -2.2 -0.5 -15.6 -16.2 -17.4 -20.4 -0.8 -1.9 -1.4 -4.9 -1.4 -6.8 0 -4 -1.5 -5.7 -5.1 -5.7 -2.4 0 -3 -0.9 -7.2 -11.2 -2.6 -6.2 -4.4 -11.4 -4.2 -11.6 0.6 -0.6 57.4 -11.2 60 -11.2 1.2 0 3.9 1.4 6 3 4.4 3.5 8.4 3.8 11 1 1.6 -1.8 3.1 -2 13.1 -2 6.2 0 14.8 -0.5 19.1 -1.1 6.2 -0.9 10 -0.8 18.8 0.5 6 0.8 15.8 1.9 21.7 2.4 10 0.8 11 1.1 16.2 4.5 4.7 3.2 6.2 4.9 9.5 11.5 4.7 9.3 6.5 14.7 13.2 39.1 l5.1 18.5 -1.8 12.8 c-1 7 -2 12.5 -2.2 12.3 -0.3 -0.3 -1.4 1.4 -2.4 3.7 -1.3 2.9 -1.5 4.3 -0.7 4.8 1.3 0.9 -9.2 12.4 -14.8 16.3 l-3.8 2.7 -10.4 -3 c-5.7 -1.7 -10.8 -3 -11.4 -3 -0.5 0 -5.7 -3 -11.5 -6.6 -11.2 -7.1 -17.7 -10.3 -20.3 -10.4 -0.9 0 -3.1 1 -5 2.3 l-3.4 2.3 -16 -4.8 c-8.8 -2.6 -17.2 -4.8 -18.7 -4.8 -3.8 0 -6 2.6 -5.6 6.8 0.2 2.7 1 3.8 3.4 5.1 2.6 1.4 3 2.1 2.3 3.9 -1.1 3 0.5 7 3.3 8.1 1.3 0.5 6.9 1.4 12.6 2.1 5.6 0.7 10.2 1.8 10.2 2.4 0 2.5 6.1 9.3 14.4 16.3 5 4.2 9.2 7.9 9.4 8.3 0.2 0.4 -3 2.1 -7 3.8 -14.3 5.8 -15.5 6.1 -72.8 19.1 -7.4 1.7 -23.3 5.1 -35.3 7.6 -12.1 2.5 -29.4 6.9 -38.5 9.7 -29.3 8.9 -40.5 11.8 -50.7 13.4 -14.1 2.1 -26.5 5.1 -37.5 9.2 -21.2 7.7 -31.7 9.9 -64.2 13.2 -27.5 2.7 -49.4 6.6 -73.3 12.9 -6 1.6 -16.4 4.2 -23 5.6 -6.5 1.5 -14.9 3.6 -18.5 4.7 -3.6 1.2 -8.1 2 -10 2 -2.7 -0.1 -3.2 0.1 -2 0.9 1.2 0.8 1 0.9 -0.6 0.4 -2.9 -0.8 -28.1 2.6 -52.3 7 -10.7 1.9 -20.5 3.5 -21.8 3.5 -1.2 0 -2.3 0.5 -2.3 1 0 0.6 -1 0.9 -2.2 0.8 -1.3 -0.1 -5.2 -0.3 -8.8 -0.5z"/>
  <path d="M286.8 660.3 c-1 -0.2 -1.8 -0.7 -1.8 -1 0 -0.8 7.9 -9.4 10.7 -11.6 l2.2 -1.8 -1 3.1 c-0.6 1.6 -0.9 5 -0.7 7.5 l0.3 4.5 -4 -0.1 c-2.2 -0.1 -4.8 -0.3 -5.7 -0.6z"/>
  <path d="M449 651 c3.4 -1.1 6 -1.1 3.5 0 -1.1 0.5 -2.9 0.8 -4 0.8 -1.6 0 -1.5 -0.2 0.5 -0.8z"/>
  <path d="M706.5 602.2 c0.6 -0.6 3 -1.3 5.5 -1.6 3 -0.4 3.7 -0.3 2 0.3 -5.3 1.7 -8.5 2.2 -7.5 1.3z"/>
  <path d="M453 579.9 c-11.3 -1.7 -12.9 -2.7 -3.5 -2.1 4.9 0.3 11 1.1 13.5 1.8 l4.5 1.2 -4.5 0 c-2.5 0 -7 -0.4 -10 -0.9z"/>
  <path d="M774.6 579.1 c1 -1 8 -2.4 7.2 -1.5 -0.4 0.3 -2.3 1 -4.3 1.4 -2.1 0.5 -3.4 0.5 -2.9 0.1z"/>
  <path d="M802 573 c0 -0.8 6 -2.3 6.7 -1.7 0.1 0.2 -1.3 0.8 -3.2 1.4 -1.9 0.6 -3.5 0.8 -3.5 0.3z"/>
  <path d="M515 567.1 c0 -1.6 1.2 -1.9 8.5 -2.4 3.9 -0.2 5.7 -0.2 4 0 -2.6 0.5 -2.8 0.6 -1 1.3 1.1 0.4 -0.9 0.5 -4.4 0.2 -4.7 -0.4 -6.2 -0.2 -5.7 0.6 0.4 0.7 0.2 1.2 -0.3 1.2 -0.6 0 -1.1 -0.4 -1.1 -0.9z"/>
  <path d="M534 562.8 c0 -1.4 0.8 -1.8 4 -1.8 2.9 0 4 0.4 4 1.5 0 1.5 -0.3 1.6 -5.2 1.9 -2.1 0.1 -2.8 -0.3 -2.8 -1.6z"/>
  <path d="M869.8 546.9 c0.6 -0.9 0.8 -2 0.4 -2.4 -0.4 -0.5 -0.2 -0.5 0.5 -0.2 0.6 0.4 1.3 0.1 1.6 -0.5 0.2 -0.7 0.7 -1 1.1 -0.7 0.3 0.3 -0.6 1.6 -2.1 3 -1.5 1.3 -2.2 1.7 -1.5 0.8z"/>
  <path d="M848.3 536.3 c-3.2 -2.6 -7.5 -6.2 -9.6 -8 -3.7 -3.3 -3.7 -3.3 -1.1 -3.3 1.8 0 3.8 1.3 6.3 4.1 4.2 4.8 8.4 5.5 11.1 2.1 l1.7 -2.1 5.3 2.5 5.4 2.5 -5.8 3.4 c-3.1 1.9 -6.1 3.5 -6.6 3.5 -0.4 0 -3.4 -2.1 -6.7 -4.7z"/>
  <path d="M417.1 516.9 c-0.6 -4.6 -1.8 -14.5 -2.6 -21.9 -0.9 -7.4 -2 -16.6 -2.5 -20.5 -0.6 -3.8 -1.9 -14.4 -3 -23.5 -1.1 -9.1 -2.9 -21.7 -4 -28 -3.1 -18.1 -3.1 -18.9 -0.6 -11.2 3 8.8 4 10.2 7.7 10.2 4.8 0 5.5 -3.2 2.9 -12.6 -3.3 -11.7 -14.6 -44.5 -19 -55 -2.1 -5.1 -3.6 -9.5 -3.3 -9.8 0.4 -0.3 0.2 -0.6 -0.4 -0.6 -0.6 0 -1.1 -0.6 -1 -1.2 0.1 -3.3 -0.4 -4.9 -1.3 -4.3 -0.5 0.3 -0.7 0 -0.4 -0.8 0.2 -0.7 0 -2.5 -0.5 -4 -0.8 -1.9 -0.6 -2.8 0.5 -3.7 2.5 -2.1 1.5 -5.9 -2.9 -11.3 -7.1 -8.7 -10.9 -15.4 -16.3 -28.1 -4.4 -10.4 -4.9 -12.3 -3.8 -13.7 2.1 -2.4 1.8 -3.2 -4.2 -12.4 -3.1 -4.8 -10.1 -18 -15.7 -29.3 -8.4 -17.4 -10 -21.4 -9.8 -24.9 0.2 -3.8 -0.1 -4.3 -1.9 -4.3 -1.6 0 -3 -2 -6.6 -9.7 -5.3 -11.2 -13.4 -30.1 -13.4 -31.2 0 -0.4 3.7 -0.5 8.3 -0.3 10.2 0.5 21.6 -1.5 56.7 -10.2 14 -3.5 33.4 -8 43 -10.1 25.9 -5.4 63.4 -15.9 83 -23.2 28.5 -10.6 58.8 -23.1 68 -28 18.6 -10.1 21.2 -11.3 23.6 -11.3 3.4 0 18.3 -5.5 33.5 -12.4 16.7 -7.6 20.4 -9.8 31.4 -18.2 8.3 -6.3 10.5 -7.1 10.5 -3.6 0 1.4 0.2 1.5 1 0.2 1.2 -1.9 1.7 19.4 0.8 38.5 -1.9 43.4 -2.7 92.7 -1.8 117.5 0.5 14.6 1.1 27.9 1.4 29.5 3.2 17.9 5.8 43.1 6 57 0.1 15.8 0.1 16.1 3.3 22.8 2.6 5.4 3.7 9.9 5.3 21 2.8 19.4 5.7 33.9 8.5 41.9 3.7 10.6 4.1 15 1.6 17.2 -3.7 3.4 -1.8 9.6 3.6 11.7 1.9 0.7 2.3 1.4 1.8 2.7 -3.9 9.1 -4.1 15.1 -0.9 21.3 1.8 3.6 9.5 10.1 11.1 9.5 0.7 -0.3 1.3 -0.1 1.3 0.4 0 0.6 1.1 1 2.5 1 1.9 0 3 1 4.6 4.3 1.2 2.3 2.9 5.3 3.9 6.7 0.9 1.4 1.5 3.1 1.2 3.9 -0.3 0.9 0 1.1 0.8 0.6 0.8 -0.5 1.1 -0.4 0.7 0.3 -0.4 0.5 -1.5 0.8 -2.6 0.5 -2 -0.5 -5.3 0.9 -14.5 6.5 -4.8 2.9 -6.8 3.5 -10.5 3.3 -6.8 -0.3 -14.1 1.4 -22.3 5.3 -4 1.8 -8.9 3.9 -10.8 4.5 -19.1 6.2 -25.9 8.2 -30.3 9 -5.9 1.1 -27.1 11.4 -25.9 12.6 0.4 0.4 -0.4 0.4 -1.7 0 -1.5 -0.5 -2.1 -0.3 -1.7 0.3 0.4 0.6 -0.2 0.8 -1.6 0.4 -1.6 -0.4 -1.9 -0.2 -1.3 0.8 0.5 0.8 0.4 1.1 -0.2 0.7 -3 -1.9 -17.2 -0.8 -29.1 2.2 -6.8 1.8 -17.6 4.3 -24 5.7 -6.4 1.3 -13.7 3.1 -16.2 3.9 -2.5 0.8 -9.7 2.4 -16 3.5 -16.6 3 -29.1 6 -28.5 7 0.8 1.3 -8.3 1.9 -42.1 2.6 l-32.2 0.7 -1.1 -8.4z m241.2 -132.1 l-1.1 -3.3 -0.1 4.5 c-0.1 3.3 0.2 4.1 1.1 3.2 0.8 -0.8 0.8 -2 0.1 -4.4z"/>
  <path d="M759.9 501.7 c1.6 -3 3.1 -6 3.4 -6.8 0.4 -1 1.2 -0.6 3.1 1.6 1.4 1.7 2.6 3.2 2.6 3.5 0 0.6 -10.4 7 -11.4 7 -0.3 0 0.8 -2.4 2.3 -5.3z"/>
  <path d="M354 149.7 c1.4 -1.4 27 -10.9 37 -13.7 6.3 -1.8 20 -5.9 30.3 -9.1 10.3 -3.2 22.9 -6.6 28 -7.4 20 -3.4 45.8 -8.6 56.6 -11.5 6.3 -1.7 11.6 -2.9 11.7 -2.7 0.2 0.2 -5.9 2.6 -13.5 5.5 -19.3 7.2 -59.2 18.3 -84.9 23.7 -11.9 2.5 -30.2 6.8 -40.7 9.4 -22.5 5.8 -25.2 6.4 -24.5 5.8z"/>
  <path d="M310.7 144.7 c-0.7 -2 3 -3.1 28.1 -8.2 33.4 -6.7 33 -5.7 -0.8 2.9 -28.2 7.1 -26.7 6.8 -27.3 5.3z"/>
  <path d="M312.3 130.6 c0.9 -0.9 1.7 -2.8 1.7 -4 0 -1.3 0.5 -3.8 1.1 -5.7 0.6 -1.9 1.3 -4.1 1.6 -4.9 0.2 -0.8 0.5 -1.7 0.6 -2 0.7 -2.2 26.7 -16.7 47.2 -26.2 21.5 -10.1 64.5 -27.9 68 -28.2 4.6 -0.5 4.7 -0.5 3.9 -1.8 -0.5 -0.7 -0.3 -0.8 0.5 -0.3 1.5 0.8 9.7 -2.1 10.8 -3.9 0.5 -0.6 5.1 -2.9 10.3 -5.1 5.2 -2.1 9.9 -4.2 10.5 -4.7 1.3 -1.1 2.7 -1 2 0.2 -0.9 1.4 -0.1 1.3 3.9 -0.7 1.9 -0.9 3.3 -1.9 3.1 -2.3 -0.6 -1 16.5 -6.6 32.3 -10.6 8.7 -2.2 18.1 -3.8 26 -4.4 11.8 -1 37.6 -5 45.5 -7.1 2.8 -0.7 4.2 -0.7 5.2 0.1 0.8 0.7 2.4 0.9 3.6 0.5 1.5 -0.5 1.8 -0.9 0.9 -1.5 -0.7 -0.4 3.7 -1 9.6 -1.2 6 -0.2 11.1 0 11.2 0.4 0.5 1.1 3 1 6.8 -0.4 2.7 -0.9 4.4 -0.7 11.5 1.5 4.6 1.4 12.9 3.3 18.4 4.3 5.5 0.9 11.5 2.3 13.4 3 l3.5 1.5 -5 5 c-11.4 11.8 -22.9 18 -49.4 26.7 -26.7 8.9 -51.2 14.3 -79.5 17.6 -7.2 0.9 -16.4 2.5 -20.5 3.6 -4.1 1.2 -14.7 3.9 -23.5 6.1 -25.8 6.5 -39.8 10.7 -59.5 17.9 -14.1 5.2 -23.7 8 -40 11.5 -11.8 2.6 -23.5 4.6 -25.9 4.6 -2.5 0 -5.1 0.5 -5.9 1.2 -0.8 0.7 -10.5 3.1 -21.6 5.3 -11 2.3 -21 4.5 -22.1 5 -1.9 0.7 -1.9 0.7 -0.2 -1z"/>
  <path d="M455.5 105.8 c7.3 -2.4 39 -10.8 40.8 -10.8 0.3 0 0 1.1 -0.6 2.5 -1 1.9 -2.5 2.7 -7.7 3.9 -9.1 2.1 -38.9 7.6 -40.3 7.5 -0.7 -0.1 2.9 -1.4 7.8 -3.1z"/>
  <path d="M503 95 c-0.8 -0.5 -1.2 -1.1 -1 -1.4 0.3 -0.2 5 -1.6 10.5 -2.9 9.5 -2.4 12.7 -3 24 -4.1 l5 -0.6 -5.5 2.1 c-5.1 1.8 -21.4 6 -28.5 7.2 -1.7 0.3 -3.7 0.2 -4.5 -0.3z"/>
  <path d="M394 62.5 c0 -0.3 5.4 -3.2 11.9 -6.5 9.2 -4.6 11.9 -5.5 11.7 -4.2 -0.2 1.1 -4 3.3 -11.2 6.4 -11.1 4.7 -12.4 5.2 -12.4 4.3z"/>
  <path d="M385.2 53.5 c1.6 -3.6 8.1 -7.5 13.6 -8.1 l4.7 -0.6 -5 2.7 c-2.7 1.5 -7.1 4 -9.7 5.6 l-4.7 2.8 1.1 -2.4z"/>
 </g>
 <g fill="#f7bdb2">
  <path d="M475 566.9 c-13.5 -0.3 -25.4 -0.9 -26.5 -1.2 -1.1 -0.4 -7.2 -1.1 -13.5 -1.7 -10.5 -0.9 -11.7 -1.2 -13.7 -3.5 -2.1 -2.4 -2.3 -3.6 -2.3 -13.6 0 -6 0.3 -10.9 0.8 -10.9 0.4 0 3.9 0.7 7.7 1.5 11.6 2.5 40.9 3.1 54.5 1.1 26.5 -3.9 124 -23.9 137.5 -28.2 2.8 -0.9 12.9 -4.7 22.5 -8.5 9.6 -3.7 24 -8.4 32 -10.4 10 -2.6 18.4 -5.5 27 -9.5 6.9 -3.2 17 -7.2 22.5 -9 5.5 -1.8 11.2 -3.9 12.7 -4.6 2.7 -1.4 2.7 -1.3 7.4 5.6 2.6 3.9 5.1 7.3 5.5 7.6 1.3 0.8 -8.1 8.6 -19.1 15.9 -5.6 3.7 -18.1 10.7 -27.8 15.7 -9.7 4.9 -21.5 11.6 -26.2 14.8 -9.9 6.6 -12.8 8.2 -19 10.3 -7.2 2.4 -40.8 10.1 -77.5 17.7 -39 8.1 -44.4 9.1 -50.3 9 -2.4 -0.1 -4.2 0.3 -3.9 0.7 0.3 0.4 -1.8 0.6 -4.5 0.4 -2.8 -0.2 -4.8 0.1 -4.5 0.5 0.6 1.1 -8.5 1.1 -41.3 0.3z"/>
  <path d="M405.2 551.2 c-1.9 -1.5 -2.1 -2.3 -1.6 -6.3 0.3 -2.5 1.5 -5.6 2.5 -7 1.9 -2.4 1.9 -2.4 1.9 6.4 0 4.8 -0.1 8.7 -0.2 8.7 -0.2 0 -1.3 -0.8 -2.6 -1.8z"/>
  <path d="M692 530.5 c0 -0.3 6.9 -3.9 15.3 -8.1 8.3 -4.2 17.5 -9.1 20.2 -10.8 7.3 -4.7 8.4 -5.1 4.8 -1.9 -4.8 4.3 -18 11.9 -29.4 16.8 -10.7 4.7 -10.9 4.8 -10.9 4z"/>
 </g>
</svg>