<svg preserveAspectRatio="xMidYMid meet" viewBox="60.870466321243526 74.736 854.9533678756476 1206.848" xmlns="http://www.w3.org/2000/svg" version="1.0" style="max-height: 500px" width="854.9533678756476" height="1206.848">
 <g fill="#f7c98d">
  <path d="M447.5 1263.8 c-3 -1.6 -3 -1.7 -0.9 -3.3 1.8 -1.3 1.7 -1.4 -1.5 -2.6 -8.7 -3.1 -21.4 -11.8 -27.1 -18.7 -3.4 -4.1 -11.2 -18.6 -11.7 -21.7 -0.2 -1.1 -0.8 -3.6 -1.3 -5.5 -0.4 -1.9 -1.2 -6 -1.6 -9 -0.4 -3 -0.9 -4.7 -1.2 -3.7 -0.2 0.9 -0.9 1.7 -1.7 1.7 -0.9 0 -1.5 -2.4 -2 -8.2 -1 -12.4 -3.4 -32.2 -5 -41.8 -0.8 -4.7 -1.5 -13 -1.5 -18.6 0 -18.8 -4.3 -49.3 -8.7 -60.9 -0.8 -2.2 -2.8 -9.4 -4.5 -16 -3.2 -12.6 -4 -14.5 -6.7 -14.5 -2 -0.1 -8.3 -14.3 -11.1 -25.4 -2.3 -9.2 -3.3 -10.6 -7 -10.6 -2.2 0 -3.4 -1 -6 -4.9 -3 -4.7 -3.3 -4.9 -6.8 -4.4 -6.2 0.8 -6.2 0.8 -5 4.7 1.6 5 -0.7 14.6 -3.4 14.6 -1 0 -1.8 -0.7 -1.8 -1.5 0 -0.8 -0.9 -1.9 -2 -2.5 -1.1 -0.6 -4.5 -3.1 -7.5 -5.6 -3.6 -2.9 -5.5 -3.9 -5.5 -2.9 0 0.8 -0.7 1.5 -1.6 1.5 -1.9 0 -1.8 -3.9 0.7 -38.3 1 -13.9 1 -18.3 0.1 -19.8 -1.5 -2.4 -1.5 -7.4 0 -9.8 0.9 -1.5 0.5 -3.2 -2.5 -9.6 -3.5 -7.3 -4.8 -13.5 -2.8 -13.5 0.5 0 1.1 0.5 1.3 1.1 0.4 1.2 11.8 -8.8 11.8 -10.3 0 -0.4 -3 -4 -6.7 -8.1 -8.4 -9.1 -10.1 -11.2 -13.5 -16.3 -3.1 -4.8 -12.3 -22.6 -12 -23.5 0 -0.3 -1.9 -3.7 -4.3 -7.5 -4.8 -7.6 -10.6 -18.9 -11.2 -21.7 -0.7 -3.6 -2.4 -5.8 -4.1 -5.2 -1.4 0.4 -2.1 -0.5 -3.1 -4 -0.7 -2.5 -1.6 -4.5 -2 -4.5 -1.1 0 -3.1 -5.3 -3.1 -8.2 0 -1.5 0.5 -2.8 1 -2.8 0.6 0 1 0.5 1 1 0 0.6 0.7 1 1.5 1 1.6 0 1.4 -2.3 -0.7 -8 -0.5 -1.4 -1 -2.7 -1 -3 0 -0.3 -0.5 -1.4 -1.1 -2.5 -0.6 -1.1 -1.2 -2.5 -1.3 -3.1 -0.5 -3 -6 -18.9 -6.6 -19.2 -0.4 -0.2 -0.5 -0.9 -0.2 -1.7 0.3 -0.7 0 -1.6 -0.5 -2 -0.6 -0.3 -0.9 -1 -0.6 -1.5 0.5 -0.8 -1.9 -14 -3.1 -17 -0.4 -0.8 -0.8 -3 -1 -4.8 -0.2 -1.8 -0.6 -3.8 -1 -4.4 -0.4 -0.6 -0.8 -2.6 -1 -4.5 -0.2 -1.8 -0.6 -3.9 -1 -4.5 -0.4 -0.6 -0.8 -2.3 -0.9 -3.7 -0.3 -4.7 -2.7 -22.6 -3.3 -24.1 -0.3 -0.8 -0.4 -1.8 -0.4 -2.3 0.1 -0.4 -1.1 -5.3 -2.8 -10.8 -1.6 -5.6 -3 -11 -3 -12 0 -1.1 -0.5 -1.9 -1.1 -1.9 -0.5 0 -0.8 -0.4 -0.4 -1 0.7 -1.2 -1.4 -14.1 -2.6 -15.6 -0.5 -0.6 -0.6 -1.4 -0.3 -1.7 0.4 -0.3 0.3 -1.4 -0.1 -2.4 -0.4 -1 -0.8 -2.9 -1 -4.3 -0.1 -1.4 -0.6 -6.5 -1.1 -11.5 -0.4 -4.9 -1 -8.2 -1.2 -7.2 -0.2 0.9 -1.1 1.7 -1.9 1.7 -1.3 0 -1.5 -1 -0.9 -6.2 0.4 -3.5 1.3 -14.2 2.1 -23.8 1.2 -15.3 2 -19.2 5.5 -30.9 8 -26 18.9 -51.2 31 -71.6 2.6 -4.4 5.7 -10.7 6.9 -14 1.4 -3.8 4.1 -8.2 7.2 -11.8 4.4 -4.9 5.5 -5.7 8.6 -5.7 l3.6 0 -0.6 6 c-0.8 7.4 0.7 7.9 2.3 0.8 1.1 -4.8 2.2 -6.2 11.3 -15.1 5.5 -5.3 11 -10 12.3 -10.3 1.3 -0.3 2.4 -1.2 2.4 -2 0 -0.9 1.2 -1.4 3.7 -1.4 3.5 0 3.6 0.1 1.9 1.9 -1.7 1.9 -1.6 2 2.8 2.6 2.5 0.4 7.2 0.5 10.6 0.2 5 -0.4 6.8 -1 9.8 -3.6 2 -1.7 6.9 -5.3 10.9 -8 3.9 -2.7 6.9 -5.2 6.6 -5.5 -0.4 -0.3 0.3 -0.6 1.4 -0.6 1.1 0 6.5 -2.1 11.9 -4.7 9.9 -4.8 10.5 -5 13.6 -5.2 0.9 0 2.3 -0.7 3 -1.5 0.8 -0.7 2.7 -1.3 4.2 -1.3 1.6 0 3.2 -0.6 3.6 -1.3 0.4 -0.7 1.5 -1 2.4 -0.7 0.9 0.4 1.6 0.1 1.6 -0.4 0 -0.6 0.9 -0.9 2 -0.6 1.1 0.3 2 0.1 2 -0.5 0 -0.5 0.9 -0.6 2 -0.3 1.2 0.4 2 0.2 2 -0.5 0 -0.7 0.8 -1 2 -0.7 1.1 0.3 2 0.1 2 -0.5 0 -0.6 0.9 -0.8 2 -0.5 2.1 0.5 17.2 -3 18 -4.2 0.3 -0.5 1.9 -0.8 3.5 -0.8 1.7 0 4.4 -0.6 6 -1.3 1.7 -0.7 4.3 -1.4 5.9 -1.6 1.6 -0.1 3.2 -0.7 3.6 -1.4 0.4 -0.7 1.5 -1 2.4 -0.7 0.9 0.4 1.6 0.2 1.6 -0.2 0 -0.5 1.6 -0.9 3.6 -0.8 2 0.1 3.9 -0.5 4.4 -1.2 0.4 -0.8 1.5 -1.1 2.4 -0.8 0.9 0.4 2.9 0.1 4.4 -0.5 1.5 -0.6 4.2 -1.2 6.1 -1.4 1.9 -0.2 3.7 -0.7 4 -1.1 0.3 -0.5 3 -0.9 6 -1 3 -0.1 5.7 -0.7 6.1 -1.3 0.4 -0.7 1.8 -0.8 3.3 -0.4 1.8 0.4 2.7 0.2 2.7 -0.6 0 -0.8 0.8 -1 2.3 -0.6 2.2 0.6 20.8 -2.3 21.7 -3.3 1.5 -1.7 79.5 -1.5 85 0.2 0.8 0.3 4.2 1 7.5 1.7 7.6 1.6 18.1 5.3 26.6 9.5 5.5 2.7 14.3 5.6 18.4 6.1 0.6 0 1.7 0.4 2.5 0.7 0.8 0.3 4.7 1.5 8.5 2.7 3.9 1.2 12 4.4 18 7 28.1 12.2 28.3 12.3 25 9.4 l-3 -2.5 4.3 0.6 c2.4 0.3 5.1 1.2 5.9 2 0.8 0.8 1.8 1.5 2.3 1.5 1.3 0 15.2 8.2 17.4 10.2 1.1 1 2.3 1.8 2.8 1.8 0.4 0 0.8 0.7 0.8 1.5 0 1.9 -2.1 1.9 -4.6 0 -1 -0.8 -2.3 -1.5 -2.8 -1.5 -1 0 10.4 8.3 13.9 10.2 2 1.1 2 1.1 0.1 -1.1 -1.9 -2.1 -1.9 -2.1 0.7 -2.1 3.3 0 6.5 4.1 11.1 14.1 4.6 10.1 7.1 18.8 10 35.8 1.3 7.9 2.9 14.8 3.5 15.4 1.5 1.5 1.4 -1 -0.4 -11.3 -0.8 -4.7 -1.5 -10 -1.5 -11.7 0 -3.1 0.2 -3.3 3.5 -3.3 3.9 0 5.5 2 5.5 6.9 0 1.7 2.3 7.5 5.4 13.3 18.2 35 25 48.6 26.7 53.4 4 11.3 13 48.8 15.2 63.1 l2.3 14.8 3 0.3 2.9 0.3 -0.7 13.7 c-1 20.3 -3.6 51.1 -5.4 64.2 -2.6 18.1 -3.7 45.7 -2 50 0.8 1.9 1.4 3.7 1.4 4 0 0.3 0.5 1.7 1.1 3.2 0.6 1.5 2.3 8 3.8 14.5 1.5 6.7 3.7 13.3 5 15.2 1.3 1.9 2.3 4 2.3 4.7 0 0.7 2.4 3.7 5.2 6.6 4 3.9 5.4 4.8 5.6 3.5 0.2 -0.9 1 -1.7 1.9 -1.7 1.2 0 1.4 1.1 1.1 5.3 l-0.3 5.2 3.4 0.3 3.4 0.3 -0.8 6.7 c-0.4 3.7 -0.6 10.7 -0.5 15.6 0.1 7.6 0.5 9.5 2.7 12.9 4.9 7.8 9.1 17.7 9.8 23.2 0.3 3.1 1.5 7.5 2.6 9.8 1 2.3 1.9 6.1 1.9 8.5 0 3.7 -0.3 4.2 -2.3 4.2 -3.2 0 -4.7 1.8 -4.7 5.7 0 2.3 -0.5 3.3 -1.5 3.3 -0.8 0 -1.5 -0.7 -1.5 -1.7 0 -1.1 -1.2 -0.5 -3.9 2.3 -5.3 5.3 -8 7.7 -11.9 10.4 -2 1.3 -3.1 2.8 -2.8 3.6 1 2.6 -4.2 1.6 -6 -1.1 -1.9 -2.9 -8.4 -5.1 -9.5 -3.3 -0.4 0.6 -1.1 3.8 -1.4 7 -0.6 4.9 -1 5.8 -2.7 5.8 -1.4 0 -1.8 -0.5 -1.4 -1.5 0.4 -1.3 -0.8 -1.5 -7.7 -1.5 -4.5 0 -10.2 -0.5 -12.6 -1.1 -2.4 -0.5 -4.5 -0.8 -4.7 -0.6 -0.2 0.2 0.5 2.9 1.6 6 2.6 7.2 4.2 18.7 3.4 23.7 -0.4 2.2 -0.3 7.8 0.1 12.6 0.7 8.3 0.9 8.8 4.8 13.1 3.6 3.9 4.3 4.3 5.3 2.9 2.3 -3.2 2.7 -1.3 2.1 10.2 -0.8 12.9 0.7 51.2 2.3 63.7 0.6 4.4 2.5 14.1 4.1 21.5 1.9 8.6 3 16.2 3 21 -0.1 8.8 1.5 50.4 2.5 67.3 0.6 9.9 0.5 12 -0.9 13.5 -0.8 0.9 -2.3 4.7 -3.3 8.5 -1.4 5.3 -2.2 6.7 -3.7 6.7 -1.2 0 -1.7 -0.5 -1.4 -1.3 0.3 -0.8 0.1 -2 -0.4 -2.8 -0.7 -1.1 -1.8 -0.4 -5.1 3.2 -5.2 5.7 -13.3 11 -21 14 -5.6 2.1 -7.5 3.9 -4.2 3.9 0.9 0 1.4 0.7 1.2 1.8 -0.3 1.6 -2.1 1.7 -20.8 1.6 -11.3 -0.1 -21.8 -0.6 -23.5 -1.1 -3.5 -1.1 -5.1 -4.9 -1.7 -4.1 4.1 1.1 1 -1.7 -5.3 -4.9 -5 -2.5 -6.5 -2.8 -6.9 -1.7 -0.8 2.1 -2.3 1.7 -2.9 -0.7 -0.3 -1.1 -1.5 -2.3 -2.6 -2.6 -1.1 -0.3 -3 -2.5 -4.2 -4.9 -1.4 -2.9 -4.2 -6 -8.2 -9.1 -7.2 -5.5 -7.7 -6 -7.7 -9.2 0 -2.4 0 -2.4 2.1 -0.5 1.7 1.5 1.2 0 -1.9 -6.1 -2.2 -4.4 -4.8 -10.7 -5.8 -14 -1 -3.3 -2.1 -6.2 -2.4 -6.5 -0.3 -0.3 -0.6 -2 -0.8 -3.8 -0.1 -1.8 -1 -5 -1.9 -7 -0.9 -2 -1.7 -4.3 -1.9 -5 -0.6 -3.2 -1.5 -4.2 -3.6 -4.2 -1.3 0 -5.2 -0.9 -8.8 -2 -7.8 -2.4 -8.1 -2.4 -7.4 -0.5 0.7 1.6 -1.3 1.9 -5.3 0.9 -2.7 -0.7 -3.1 -3.4 -0.6 -3.4 1.4 0 1.5 -0.2 0.4 -1.2 -1.1 -1 -1.4 -1 -1.8 0 -0.9 2.3 -2.3 1.2 -2.3 -1.8 0 -2.8 0.3 -3 3.5 -3 1.9 0 3.5 -0.4 3.5 -0.9 0 -1.1 -3.5 -2.1 -7.6 -2.1 -1.6 0 -3.4 -0.4 -4 -0.9 -1.3 -1.4 -19 -2.4 -40.9 -2.4 -21.1 0 -25.2 0.9 -38.5 7.9 -4.6 2.4 -7.7 3.4 -11 3.4 -3.3 0 -6.6 1.1 -12.4 4 -4.6 2.4 -9.2 4 -11.2 4 -2.2 0 -3.7 0.6 -4 1.5 -0.4 0.8 -1.7 1.5 -3.1 1.5 -1.7 0 -2.3 -0.4 -2 -1.4 0.4 -1.1 -1.5 -1.5 -10.1 -1.9 -5.9 -0.3 -11.8 -0.8 -13.1 -1.2 -2.2 -0.7 -2.3 -0.6 -1.7 2.1 0.3 1.6 0.8 5.4 1 8.4 0.2 3 0.7 6.2 1 7 0.3 0.8 1.6 8 3 16 1.6 9.7 2.7 13.8 3.2 12.3 0.3 -1.3 1.3 -2.3 2 -2.3 1.1 0 1.4 2.1 1.4 9.5 0 7.8 -0.3 9.5 -1.5 9.5 -0.8 0 -1.5 -0.7 -1.5 -1.6 0 -0.8 -0.4 -1.2 -1 -0.9 -0.5 0.3 -1 1.7 -1 3 0 9.3 -7.6 25.7 -16.1 34.8 -6.2 6.6 -6.8 7.7 -4.3 7.7 0.9 0 1.4 0.7 1.2 1.7 -0.2 1.3 -2.7 2.1 -10.8 3.5 -5.8 1 -17.1 4.1 -25.1 6.8 -15.2 5.2 -23.9 6.3 -28.4 3.8z m350.5 -39.8 c0 -0.5 -0.7 -1 -1.5 -1 -0.8 0 -1.5 0.5 -1.5 1 0 0.6 0.7 1 1.5 1 0.8 0 1.5 -0.4 1.5 -1z m-269.8 -235.2 c3.1 -6.5 13.5 -19.5 16.2 -20.2 2.9 -0.7 4.8 -6.1 8.9 -24.3 2.4 -10.9 2.6 -11.3 9.1 -11.3 5.5 0 32.5 -6.1 45.3 -10.1 7 -2.3 16.9 -5.9 22 -8 14.2 -6 13.9 -6.1 26.6 8.4 6 6.8 11.8 13.8 12.9 15.5 1.6 2.6 2.6 3.2 5.6 3.2 2.1 0 4.8 0.9 6.2 2 2.5 2 7 2.7 7 1.1 0 -1.7 -4.2 -10.3 -10.1 -20.6 l-5.9 -10.5 0 -8.4 0 -8.3 6.3 -4.1 c6.7 -4.5 21.1 -17.2 22.7 -20.3 0.9 -1.6 0.5 -2.2 -2.2 -3.9 -1.8 -1.1 -3.6 -2 -3.9 -2 -0.3 0 -1.3 1.8 -2.3 4 -1 2.2 -2.9 4.8 -4.2 5.8 -1.3 0.9 -5.2 3.8 -8.5 6.5 -3.9 3 -7 4.7 -8.8 4.7 -1.8 0 -3.9 1.2 -6.1 3.5 -1.9 2 -5.2 4 -7.3 4.6 -2.6 0.7 -4.1 1.8 -4.7 3.5 -0.5 1.3 -1.1 2.4 -1.2 2.4 -0.2 0 -2.8 1 -5.8 2.1 -3 1.2 -7.5 2.5 -10 2.9 -2.5 0.4 -7.4 2 -10.9 3.5 -9.6 4.1 -40.3 11.5 -47.4 11.5 -1.8 0 -4 0.9 -5.3 2.1 -3.5 3.3 -17.7 5.4 -18.6 2.7 -0.3 -0.9 -2.6 -0.7 -8.9 0.7 -15.3 3.4 -26 2.5 -31.2 -2.7 -2.2 -2.2 -6.3 -2.4 -7.1 -0.3 -0.3 0.8 -1.6 1.5 -2.9 1.5 -2.7 0 -5.1 2.2 -4.5 4.1 0.8 2.3 9.3 4 23.1 4.6 l13.7 0.6 0 4.1 c0 5 -5.4 26.1 -7.5 29.3 -0.9 1.3 -1.1 2.3 -0.5 2.3 1.6 0 1.1 6.3 -1 12.5 -1.1 3.2 -2 6.4 -2 7.2 0 2.3 1.6 1.4 3.2 -1.9z m53.4 -170.8 c10.8 -0.9 15 -2.3 15.7 -4.9 0.3 -1.2 3.9 -2.3 15.3 -4.4 8.2 -1.5 18.7 -4.1 23.4 -5.6 4.7 -1.6 11.2 -3.6 14.5 -4.5 3.3 -1 11.6 -4.4 18.5 -7.5 6.9 -3.2 14.7 -6.6 17.3 -7.6 7.5 -2.7 13.9 -9.5 18.1 -19.2 1.9 -4.5 4.7 -10.1 6.1 -12.3 1.4 -2.3 4.2 -7.6 6.2 -11.8 3.3 -6.9 3.6 -8.5 3.5 -15.5 -0.1 -5.2 0.8 -12.5 2.8 -22.1 5.4 -26.1 5.7 -31.3 3.2 -48.5 -1.2 -8.2 -3.1 -17.8 -4.2 -21.3 -1 -3.5 -2.6 -9.7 -3.5 -13.9 -0.8 -4.2 -2.6 -10.8 -4 -14.7 -2.6 -7.4 -3.1 -11.2 -1.7 -11.2 0.5 0 1.4 1 2 2.3 1 1.9 1 1.8 0.5 -1.3 -0.6 -4.2 -5.5 -17.4 -6.5 -17.8 -0.5 -0.2 -0.6 -0.7 -0.3 -1.1 0.4 -0.8 -6.7 -7.1 -8 -7.1 -0.4 0 -0.5 0.7 -0.1 1.5 0.4 1.1 -0.1 1.5 -1.8 1.5 -1.5 0 -3 -1.2 -4.7 -3.7 -1.4 -2.2 -3.4 -3.9 -4.7 -4.1 -1.7 -0.3 -2.1 -0.8 -1.7 -2.2 0.5 -1.4 -1.2 -3 -7.7 -7.5 -11.8 -8.1 -20.3 -12.2 -16.8 -8 1.1 1.3 0.8 1.5 -1.7 1.5 -1.9 0 -3.8 -0.9 -5.4 -2.6 -3.4 -3.7 -35.9 -25 -44.2 -29 -3.9 -1.8 -9.5 -3.9 -12.6 -4.5 -3.6 -0.8 -6.7 -2.2 -8.6 -4 -7.7 -7.2 -23 -9.9 -45 -8 -7.1 0.6 -16.8 1.1 -21.5 1.1 -4.7 0 -12.9 0.3 -18.4 0.7 -8.3 0.5 -9.9 0.9 -10.3 2.4 -0.6 2.2 -17.1 6.4 -22.2 5.5 -3.8 -0.6 -10.4 2.3 -18.3 8 -5.8 4.3 -36.6 36.8 -42.9 45.4 -3.1 4.1 -4.5 6.8 -3.9 7.4 2.1 2.1 0.8 6.6 -4.5 16.7 -5.3 10.1 -6.5 13.9 -4.5 13.9 0.6 0 1 -0.9 1 -1.9 0 -4 1.1 -5.1 5.1 -5.1 3.6 0 3.9 0.2 3.9 2.9 0 4.2 -1 6.1 -3.1 6.1 -1.4 0 -1.9 0.7 -1.9 2.7 0 1.5 -0.9 4.5 -1.9 6.7 -2.7 5.8 -6.5 37.8 -6.4 54.1 0 12.8 0.3 14.4 4.6 27.5 0.8 2.5 2 8.4 2.6 13.1 1.6 12.5 5 21.4 15.1 39.5 5 8.9 9.7 17.9 10.6 20 0.9 2.2 2.8 5.5 4.3 7.4 1.5 1.9 4.7 6.9 7.1 11 6.8 11.6 14.7 19.3 25.5 24.6 14.3 7 17.3 7.5 48 8 14.9 0.3 31.3 0.8 36.5 1.3 13.3 1.1 20 1.2 31.6 0.1z"/>
  <path d="M538 960.6 c0 -1.9 0.4 -4.6 1 -6 0.6 -1.7 0.6 -2.7 -0.2 -3.2 -1.1 -0.7 -0.5 -13.4 0.7 -15.4 0.3 -0.6 3.3 -1 6.6 -1 l5.9 0 0 3.3 c0 4.2 -4.6 22.5 -6.1 24.3 -0.6 0.8 -2.7 1.4 -4.5 1.4 -3.2 0 -3.4 -0.2 -3.4 -3.4z"/>
  <path d="M669 932 c-2.6 -3.1 -5 -5 -6.3 -5 -3.4 -0.1 -12.7 -12 -12.7 -16.3 0 -3 0.4 -3.4 4.8 -5 9.5 -3.4 9.8 -3.3 18 11.5 4.9 8.9 7.2 14.1 7.2 16.4 0 3.2 -0.2 3.4 -3.4 3.4 -2.9 0 -4.1 -0.8 -7.6 -5z"/>
  <path d="M537 812.4 c0 -1.8 5.4 -4.9 11.8 -6.9 1.2 -0.3 2.2 -1.1 2.2 -1.7 0 -0.5 0.7 -0.8 1.5 -0.4 0.8 0.3 1.5 0.1 1.5 -0.4 0 -0.5 1.2 -0.9 2.8 -0.9 1.5 0.1 8.1 -1.1 14.7 -2.5 6.6 -1.4 13 -2.6 14.3 -2.6 1.2 0 2.2 -0.4 2.2 -0.9 0 -0.6 1.6 -0.7 3.5 -0.4 1.9 0.3 3.5 0.2 3.5 -0.3 0 -0.5 3.4 -1 7.6 -1.1 4.7 -0.1 8 -0.6 8.4 -1.3 0.5 -0.8 1.6 -0.9 3.1 -0.4 1.3 0.4 3 0.7 3.7 0.6 0.6 -0.2 1.2 0.7 1.2 1.8 0 1.7 -1.6 2.9 -7.5 5.5 -10.9 5 -17.5 6.7 -25.2 6.4 -6.6 -0.3 -6.8 -0.2 -7.1 2.3 -0.2 1.7 -1.1 2.8 -2.5 3.2 -1.2 0.4 -10.6 0.9 -20.9 1.3 -18.1 0.6 -18.8 0.5 -18.8 -1.3z"/>
  <path d="M676 782.2 c0 -0.4 1.4 -1.6 3.1 -2.6 1.6 -1 2.8 -2.3 2.6 -2.9 -0.2 -0.7 0.3 -1.7 1.2 -2.4 1.4 -1.1 1.4 -1.2 -0.2 -1.3 -2.8 0 -0.9 -2 1.9 -2 2 0 2.4 0.5 2.4 2.8 0 4.2 -1.1 7.2 -2.6 7.2 -0.8 0 -1.4 0.5 -1.4 1 0 0.6 -1.6 1 -3.5 1 -1.9 0 -3.5 -0.4 -3.5 -0.8z"/>
  <path d="M422.4 743.5 c-0.7 -1.9 -1.4 -5.1 -1.4 -7 0 -2.6 -1 -4.9 -3.5 -8.2 -6.9 -9 -11.5 -31.3 -11.5 -55.4 0 -9.3 0.3 -11.9 1.4 -11.9 1.4 0 5.4 13.6 8.1 27.9 0.8 4.6 2.4 11.3 3.5 14.8 1.1 3.5 1.9 6.7 1.8 7.1 -0.1 0.4 0.4 2 1.1 3.7 0.7 1.6 1.4 4.4 1.5 6.1 0.2 1.7 0.5 3.5 0.8 4 0.3 0.5 1.3 5.1 2.3 10.2 1.2 6.3 2.2 9.2 3.1 9.2 0.8 0 1.4 0.7 1.4 1.5 0 1.1 -1.1 1.5 -3.6 1.5 -3.1 0 -3.7 -0.4 -5 -3.5z"/>
  <path d="M709 731.8 c0 -9.4 1 -17.9 2.1 -17.3 0.4 0.3 0.5 -1.1 0.2 -3.1 -0.4 -2.1 -0.2 -3.5 0.3 -3.2 0.5 0.4 0.9 -4 0.9 -10.3 0 -6 0.3 -10.9 0.8 -10.9 0.4 0 0.7 -1.7 0.7 -3.9 0 -5.9 1.2 -13.1 2.1 -12.6 0.4 0.3 0.5 -2 0.2 -5 -0.5 -5.2 -0.5 -5.5 1.6 -5.5 l2.3 0 -0.4 20.3 c-0.4 18.1 -0.7 21.3 -3.3 31.2 -1.5 6.1 -2.7 13 -2.6 15.5 0.3 7.4 -0.8 12 -3 12 -1.7 0 -1.9 -0.8 -1.9 -7.2z"/>
  <path d="M414 585 c0 -1.7 1 -6.9 2.1 -11.5 1.9 -7.5 2.4 -8.5 4.4 -8.5 l2.3 0 -2.9 10.8 c-1.6 5.9 -2.9 11 -2.9 11.5 0 0.4 -0.7 0.7 -1.5 0.7 -1 0 -1.5 -1 -1.5 -3z"/>
  <path d="M441 539.8 c0 -4.2 0.4 -5 4.2 -8.2 2.3 -2 4.8 -3.6 5.5 -3.6 0.8 0 3.1 -0.9 5.1 -2 2 -1 4.9 -2.2 6.5 -2.5 2.4 -0.5 2.7 -1 2.7 -4.5 0 -5 -1 -4.6 26 -11.2 l20.5 -5 16 0.5 c10.9 0.4 20.8 1.4 31 3.2 8.2 1.4 15.1 2.8 15.3 3 0.2 0.2 0.6 2.1 0.9 4.2 l0.5 3.8 -12 -0.3 c-9.9 -0.3 -15.5 0.2 -31.4 2.8 -10.6 1.8 -25.5 4.8 -33.1 6.7 -7.7 1.9 -14.9 3.6 -16 3.7 -1.2 0.1 -3.4 0.7 -4.8 1.3 -1.4 0.6 -9.3 2.8 -17.5 4.8 -10.1 2.4 -15.6 4.3 -17.1 5.7 l-2.3 2.1 0 -4.5z"/>
  <path d="M590.2 523.7 c-3.2 -3.2 -4.2 -5.1 -4.2 -7.5 0 -3.1 0.1 -3.2 4.6 -3.2 6.7 0 26.4 9.5 26.4 12.7 0 2.1 -0.4 2.2 -4.2 1.7 -2.4 -0.3 -6.1 -1 -8.3 -1.5 -5.9 -1.3 -7.5 -1.1 -6.9 0.6 1.2 3.1 -3.3 1.4 -7.4 -2.8z"/>
  <path d="M845.6 1142.4 c-1 -7.3 -0.8 -9.4 0.9 -9.4 1.5 0 2 1.6 1.7 5.3 -0.1 0.9 0.3 1.7 0.8 1.7 0.5 0 0.9 1.6 0.8 3.5 -0.1 2.6 -0.6 3.5 -1.8 3.5 -1.3 0 -1.9 -1.2 -2.4 -4.6z"/>
  <path d="M300.4 971.8 c-0.7 -1.1 -1 -2.4 -2 -9 -0.5 -3.3 -0.4 -3.8 1.4 -3.8 1.5 0 2.1 0.9 2.6 4.6 0.3 2.6 0.6 5.7 0.6 7 0 2.5 -1.4 3.2 -2.6 1.2z"/>
  <path d="M302.6 953.9 c-1.4 -7 -1 -7.9 3.4 -7.9 l4 0 0 5.5 0 5.5 -3.4 0 c-3 0 -3.4 -0.4 -4 -3.1z"/>
  <path d="M885.9 886.3 c-0.6 -2.1 -1.6 -4.3 -2 -4.9 -0.5 -0.6 -1.8 -5.1 -2.8 -9.9 -2 -8.7 -3 -10.5 -6.4 -10.5 -1.6 0 -1.7 -1 -1.2 -11.7 0.8 -16.5 1.2 -18.3 3.6 -18.3 1.1 0 1.9 0.6 1.7 1.3 -0.2 0.6 0.9 2.8 2.3 4.7 3.9 5.1 7.7 13.1 9.4 19.7 1.7 6.4 2 23.4 0.5 24.9 -0.5 0.5 -0.6 2.4 -0.1 4.7 0.8 3.4 0.7 3.7 -1.4 3.7 -1.8 0 -2.6 -0.8 -3.6 -3.7z"/>
  <path d="M269 830.5 c0 -5.3 1.3 -4.6 4.8 2.8 0.2 0.4 -0.8 0.7 -2.2 0.7 -2.3 0 -2.6 -0.4 -2.6 -3.5z"/>
  <path d="M255 787.4 c0 -4.4 1.8 -4.2 3.7 0.4 1.3 3.1 1.2 3.2 -1.2 3.2 -2.2 0 -2.5 -0.4 -2.5 -3.6z"/>
  <path d="M839.6 592.4 c-0.3 -0.9 -0.6 -3.1 -0.6 -5 0 -2.9 0.4 -3.4 2.3 -3.4 1.8 0 1.9 0.2 0.7 1 -1.3 0.9 -0.7 1.4 1.3 1.1 0.4 0 0.7 1.7 0.7 3.9 0 3.3 -0.4 4 -1.9 4 -1 0 -2.2 -0.7 -2.5 -1.6z"/>
  <path d="M837.3 571.3 c-1.4 -5.8 -8.5 -22 -14.9 -34.2 -3.7 -6.9 -7.3 -13.8 -8.1 -15.3 -0.8 -1.5 -2.5 -6.6 -3.9 -11.5 -3.3 -11.4 -3.9 -12.3 -7.3 -12.3 -2.5 0 -3.4 -0.9 -7 -6.9 -2.4 -4.1 -4.1 -8.2 -4.1 -10 0 -1.7 0.2 -3.1 0.5 -3.1 0.3 0 2 1.4 3.8 3.1 2.5 2.4 3.3 2.8 3.5 1.5 0.5 -2.2 1.7 -2 4.7 0.9 2.8 2.9 3.2 4.5 1 4.5 -1.3 0 -1.3 0.4 0.2 2.7 1 1.5 2.7 3.7 3.8 4.9 5.8 6.2 16.9 25 17.8 30.1 0.2 1 0.9 2.9 1.5 4.3 9.4 20.9 13.1 32.6 13.2 40.8 0 2.5 -0.4 3.2 -2 3.2 -1.3 0 -2.2 -0.9 -2.7 -2.7z"/>
  <path d="M361.8 432.2 c-2.2 -0.4 -2.4 -3.2 -0.3 -3.2 0.8 0 1.5 -0.4 1.5 -1 0 -0.5 0.9 -1 2 -1 1.2 0 2 0.7 2 1.8 0 2.1 -2.8 3.9 -5.2 3.4z"/>
  <path d="M447.8 401.3 c-3.4 -0.8 -2 -3.3 1.7 -3.3 1.9 0 3.5 0.4 3.5 1 0 1.3 -3.2 2.7 -5.2 2.3z"/>
  <path d="M457 398 c0 -1.3 1.7 -1.9 7.8 -2.8 9.3 -1.5 13.2 -1.5 13.2 -0.3 0 1.3 -1.6 2.2 -4.8 2.7 -1.5 0.2 -4.3 0.6 -6.2 0.9 -7.4 1.4 -10 1.2 -10 -0.5z"/>
  <path d="M484 393.1 c0 -2 2.6 -3.1 7.8 -3.1 1.7 0 3.2 -0.4 3.2 -0.9 0 -0.9 9.7 -3.1 13.7 -3.1 1.3 0 2.3 0.4 2.3 0.9 0 1.1 -6.5 4.3 -8.2 4 -1.5 -0.3 -6.4 0.9 -9.8 2.2 -1.3 0.6 -3.9 1.2 -5.7 1.5 -2.7 0.3 -3.3 0.1 -3.3 -1.5z"/>
 </g>
 <g fill="#000000">
  <path d="M438.5 1277.5 c-3.3 -0.7 -8.5 -2.2 -11.5 -3.4 -3 -1.2 -6.2 -2.1 -7.1 -2.1 -0.9 0 -4.3 -1.4 -7.7 -3 -7.4 -3.8 -15.5 -12.3 -19.6 -20.5 -1.6 -3.3 -4.4 -8 -6.2 -10.5 -5.7 -8 -9 -21.1 -11.9 -47.6 -1.5 -13.1 -1.6 -17.4 -0.5 -35.2 1.5 -23.8 1.1 -31.5 -3 -52.7 -1.6 -8.6 -3 -16.8 -3 -18.2 0 -1.4 -1.1 -8.1 -2.5 -14.9 -1.9 -9.4 -4 -15.7 -8.9 -26.9 -7.3 -16.9 -6.2 -18 -9.7 9.5 -1.2 9.6 -2.5 18.5 -3 19.7 -0.5 1.2 -2 2.5 -3.4 2.9 -1.4 0.3 -2.5 1.3 -2.5 2.3 -0.1 3.7 -3.8 28.9 -4.4 30 -0.4 0.6 -1.6 1.1 -2.6 1.1 -1.1 0 -3 0.5 -4.3 1.1 -3.1 1.4 -6.5 -0.2 -7.1 -3.4 -0.2 -1.2 -1 -5.3 -1.6 -9.2 -1.6 -9.1 -8.8 -32.6 -10.5 -34.5 -5.3 -5.9 -7.7 -30 -6.2 -61.6 0.8 -18.4 0.7 -20.6 -1.3 -30.8 -3.3 -17.1 -4.4 -20.4 -14.6 -41.4 -5.3 -10.9 -13.1 -28.4 -17.5 -39 -4.4 -10.5 -12.9 -29 -18.9 -41 -14.4 -28.7 -16.7 -34.7 -26.1 -67.7 -11.1 -38.8 -14.9 -57.2 -16.8 -80.7 -0.7 -8.4 -1.7 -13.2 -3.5 -17.8 -3.7 -8.9 -3.2 -13 1.5 -13 1.1 0 2 -1.1 2.4 -2.9 0.7 -3.2 -1 -14 -2.3 -15.3 -0.5 -0.5 -4.2 -2.1 -8.3 -3.7 -7.9 -2.9 -17.7 -9.1 -30.2 -19 -4.2 -3.4 -7.9 -6.1 -8.3 -6.1 -0.3 0 -2.2 -1.3 -4.2 -3 -9.3 -7.4 -13.4 -10 -16.1 -10 -2.2 0 -4.1 -1.3 -8.3 -5.8 -9 -9.8 -25.9 -36 -32.5 -50.7 -2.3 -4.9 -6.7 -14.6 -9.8 -21.5 -10.7 -23.6 -15.1 -41.6 -14.3 -58.7 0.5 -9 2.2 -12.3 6.4 -12.3 1.9 0 2.3 -0.7 2.9 -4.2 1.4 -8.9 4.8 -22.4 6.6 -26.2 1.1 -2.2 1.9 -5 1.9 -6.2 0 -1.2 1.7 -5.5 3.7 -9.5 3.1 -6.4 6.3 -10.1 22.6 -26.6 10.5 -10.6 19.9 -19.5 20.9 -19.9 1 -0.3 2.6 0 3.4 0.6 1.1 1 2.2 0.5 5.7 -2.7 2.3 -2.1 10.3 -7.6 17.7 -12 7.4 -4.5 15.5 -9.6 18 -11.3 4.9 -3.3 10 -3.9 12 -1.5 0.7 0.8 1.9 1.5 2.6 1.5 2.3 0 5.6 3.9 4.9 5.9 -0.3 1.2 0 2.1 1 2.5 1.8 0.6 2 4.5 0.4 8 -0.6 1.3 -3.1 3.9 -5.5 5.6 -3.1 2.2 -4.4 3.8 -4.4 5.5 0 1.5 -1.6 4 -4.3 6.7 -5.1 5 -10.9 18.4 -10 23 0.3 1.8 -0.2 3.6 -1.6 5.4 -2.3 2.9 -2.6 5.5 -1.1 8.5 1.2 2.2 -0.3 5.9 -2.4 5.9 -2.7 0 -3.5 41.3 -1 57.8 0.8 5.9 1.3 12 1 13.7 -0.5 2.4 0.7 5.4 6.3 15.7 10.1 18.6 26.4 39.7 34 44.1 3.1 1.8 3.1 1.8 3.9 -0.5 3.9 -10.5 6.3 -19.9 7.6 -28.5 1.6 -10.8 5.9 -25 10.4 -34.3 2.8 -5.8 5.8 -7.4 8.8 -5 2.1 1.8 1.8 4 -1.6 11.4 -2.8 6.4 -7 19.1 -7 21.5 0 2.8 5.1 -2.5 9.8 -10.2 6.1 -10 17.5 -25.6 23.1 -31.7 2.3 -2.5 7.6 -9 11.8 -14.5 16.7 -21.9 26.1 -30.6 46.7 -43 6.4 -3.8 11.6 -7.3 11.6 -7.6 0 -0.4 -1.7 -0.9 -3.7 -1.3 -3.6 -0.5 -15.6 -5.1 -19.9 -7.4 -1 -0.6 -3.5 -1.4 -5.5 -1.7 -2.1 -0.3 -4.2 -1.2 -4.8 -1.9 -0.7 -0.8 -2 -1.2 -3 -0.9 -1.3 0.3 -3.4 -1 -6.5 -4 -5.1 -5.1 -5.1 -5.9 -0.4 -13.6 1.7 -2.7 1.9 -3.9 1.2 -6 -0.9 -2.3 -0.1 -4.3 6.2 -15.9 7.2 -13.5 10 -17.2 12.8 -17.2 0.9 0 1.8 -1.2 2.1 -2.7 0.4 -1.6 2.2 -7.8 4.1 -13.9 1.8 -6.1 3.4 -12.7 3.4 -14.7 0 -3.2 -0.3 -3.6 -3.2 -4.2 -5.6 -1.3 -12.4 -5.3 -16 -9.4 -4.9 -5.8 -9.9 -20.6 -10.6 -31.7 -0.4 -7.1 -0.2 -9.3 1.5 -13.2 1.1 -2.6 2.5 -6 2.9 -7.6 2.5 -8.1 14.4 -11.9 31.3 -9.8 15.6 2 24.5 7.4 31.5 19.4 6.7 11.4 5.2 28.7 -3.6 40.9 -0.9 1.3 -0.6 3.1 1.4 8.5 2.2 6.2 2.8 6.9 5.4 7.2 3.9 0.5 4.8 1.4 6.9 7 2.9 7.7 6.4 12.5 8.3 11.7 3.9 -1.6 5.1 -1.6 6.8 0.3 2.5 2.7 10.5 4.7 13.1 3.3 3.9 -2 10.9 -8.4 14.5 -13.2 4.8 -6.4 8.4 -16.2 11.3 -30.8 2.6 -12.9 3.5 -15.5 5.9 -16.4 2.4 -1 7.5 -13.4 9.7 -23.7 1.2 -5.2 2.9 -11.5 4 -14 1.2 -2.9 2.4 -10.3 3.4 -20.5 0.9 -8.8 2.1 -17.6 2.8 -19.5 0.7 -2.1 1 -8.5 0.8 -16.6 -0.3 -13.3 1.3 -22.8 4.2 -24.6 0.9 -0.5 0.5 -1.2 -1.3 -2.5 -5.2 -3.6 -9.1 -9 -12.1 -16.7 -5.8 -15.1 -4 -31.6 4.5 -40 5.2 -5.2 16.2 -9.9 23.1 -10 7.2 0 20.1 2.1 23.3 3.8 4.2 2.3 12.9 9.8 15.7 13.6 7.6 10.3 7.3 32.1 -0.5 43.5 -6 8.7 -15 12.7 -29.2 12.9 l-9.8 0.1 0.1 17.5 c0.1 9.6 0.5 18.6 0.9 20 0.6 1.9 0.8 0.9 0.9 -3.8 0.1 -5.2 0.5 -6.7 2.5 -8.7 2.6 -2.6 6 -2.4 7.5 0.4 0.5 0.9 0.9 7.2 1 14.1 0.2 20 1.5 30.9 4.5 36.9 1.8 3.4 3.3 5.1 4.5 5.1 2.7 0 3.8 1.8 4.6 7.8 0.8 6.1 6.6 21 9.8 25.4 3 4.1 7.2 6.1 20.7 9.6 16.9 4.5 21.6 4.9 27.7 2.2 5.6 -2.4 7.6 -5.6 8.9 -14 0.3 -2.5 1 -5 1.6 -5.6 0.5 -0.7 2.1 -3.6 3.6 -6.5 1.7 -3.4 3.8 -5.9 5.7 -6.9 1.6 -0.8 3.6 -2.3 4.4 -3.3 1 -1.4 2.3 -1.8 4.7 -1.5 3 0.3 3.5 0 4.4 -2.6 1.5 -4.3 1.4 -4.5 -3 -6.2 -5.4 -2.2 -11.6 -9.5 -13.5 -15.7 -2.1 -7.1 -2 -25.8 0.1 -32.1 1.8 -5.2 6.5 -10.6 11.7 -13.2 5.3 -2.8 15.1 -3 24.2 -0.5 10.9 3 15.8 6.1 21.2 13.4 8.8 12.1 11 19.9 7.9 28.1 -2.1 5.6 -12.4 15.9 -18.5 18.6 -8.6 3.9 -9.6 4.6 -9.8 6.5 -0.2 1.1 0.6 3.8 1.6 6 1.6 3.5 2 3.7 2.5 2 1.8 -5.3 3.3 -7 6.1 -7.3 4.3 -0.5 5.6 1.8 4.8 8.9 -0.6 5.7 1.2 14.9 2.9 14.9 0.4 0 0.7 0.4 0.6 0.8 -0.2 0.4 0.8 2.5 2.2 4.5 1.7 2.5 3 3.5 4.2 3.1 2.5 -0.8 5.9 3.1 5.6 6.4 -0.3 3.7 0.6 4.9 4.1 5.7 5.9 1.3 6 9.6 0.1 11.8 -1.7 0.6 -3 1.6 -3 2.2 0 1.5 5.6 10.9 7.3 12.3 1.1 1 2.1 1 4 0.1 2.9 -1.3 6.7 0.2 6.7 2.6 0 2.2 0.7 1.9 5.4 -2 4.7 -3.8 7.6 -4.4 10 -1.9 3.3 3.2 2 6 -5.7 11.8 -2.8 2.1 -3.7 3.6 -3.7 5.7 0 4.7 -3.8 5.8 -10.2 3.1 l-5.1 -2.2 -4.1 3.4 c-2.3 1.9 -7.2 6.2 -11.1 9.6 -6 5.4 -12.9 9.5 -21 12.5 -1.3 0.5 2.4 1.5 11.6 3.1 15 2.5 21.6 4.1 36.2 8.5 9 2.8 10 2.9 11.6 1.5 3 -2.7 6.4 -1.8 16.1 4.1 6.3 3.8 12.2 6.4 18 8.1 9.8 2.7 12.7 4.3 13.2 7.2 0.2 1.6 3.2 3.4 12.2 7.6 14.9 6.8 23.8 12.7 30.9 20.3 l5.5 6 9 -13.2 c4.9 -7.3 10.5 -16.1 12.3 -19.7 3.1 -6.2 3.3 -6.9 3.3 -18.5 0 -9.5 -0.4 -12.8 -1.8 -15.7 -2.1 -4.4 -1.5 -7.1 1.9 -8.6 2.2 -1 2.5 -1.8 2.5 -6.6 0 -3 -0.5 -6.7 -1.1 -8.3 -0.6 -1.5 -1.9 -8.6 -3 -15.8 -1.1 -7.1 -3.4 -17.9 -5.3 -24 l-3.3 -11 -9.9 -9.8 -9.9 -9.7 1.7 -3.1 1.8 -3.1 -5.6 -6.6 c-3.1 -3.6 -6 -7.5 -6.6 -8.6 -0.5 -1.2 -2.2 -2.9 -3.9 -3.8 -4.5 -2.6 -3.6 -8.8 1.4 -8.8 1.7 0 1.7 -0.2 -0.4 -3.9 -3.4 -6.1 -10.2 -12.6 -17 -16.2 -7 -3.8 -8.4 -6 -6.1 -10.4 0.8 -1.6 1.8 -3.7 2.2 -4.5 1.2 -2.5 5.6 -2.3 10.2 0.4 2.4 1.3 8.9 4.5 14.5 7 7.9 3.5 10.9 4.4 13.3 3.9 2.7 -0.5 3.7 0 7.3 3.4 2.3 2.2 7.4 5.9 11.4 8.2 9.1 5.2 13.1 8.6 13.5 11.4 0.2 1.7 1.1 2.3 3.5 2.5 2.5 0.2 6.2 3 16.1 12 7.1 6.4 14.9 14.1 17.3 16.9 2.4 2.9 5.2 5.3 6.1 5.3 1 0 2.4 1 3.2 2.3 4.1 6.2 15 42.2 14.4 47.5 -0.2 2.2 -0.9 2.8 -3.4 3 -1.7 0.2 -3.6 -0.3 -4.2 -1 -0.6 -0.7 -2.2 -6 -3.7 -11.8 -4.2 -16.6 -7.6 -26 -9.7 -27.1 -1.7 -0.9 -1.9 -0.8 -1.4 0.8 0.3 1 1.9 7 3.6 13.3 1.7 6.3 5.8 19.6 9.2 29.5 6.6 19.6 7 22.9 2.3 24.1 -3.3 0.8 -5.3 -0.9 -6.1 -5.5 -0.4 -2 -3.1 -10.3 -5.9 -18.6 -2.9 -8.2 -6.3 -18.8 -7.5 -23.4 -1.6 -5.9 -2.8 -8.5 -4 -8.8 -1.1 -0.3 -2.7 -2.9 -4 -6.6 -4.3 -12.1 -21.2 -37.6 -26.8 -40.6 -2.1 -1.1 -21.1 -4.5 -21.7 -3.9 -0.5 0.5 3.4 14 4.5 15.3 2.2 2.7 7 12.7 6.5 13.5 -0.3 0.5 0.4 3.3 1.5 6.2 1.9 5.1 2.6 6.4 7.6 12.6 3.5 4.4 4.1 6.2 6.3 18 2.7 14.1 4.3 30.9 3.6 38.2 -0.3 3 -0.7 11.8 -0.9 19.6 -0.4 11.5 -0.9 15.4 -2.9 21.5 -1.3 4.1 -3 10.3 -3.7 13.9 -1.6 8.5 -4.5 14.5 -8.5 17.6 -1.8 1.4 -4 4 -4.9 5.7 -0.8 1.8 -4.7 6.9 -8.5 11.2 -3.9 4.4 -7.1 8.6 -7.1 9.4 0 1.9 12.9 26.6 22.9 43.9 7.6 13.1 8.5 14.2 11.1 14.2 3.5 0 4 0.9 7.4 12.4 1.4 5 3.9 11.5 5.6 14.5 11.5 21.4 17.7 34.8 22.6 49.9 2.7 8.3 3 11.8 1 12.9 -1.1 0.6 -0.3 3.5 4.1 14.9 l5.5 14.2 3.8 -0.5 c4.7 -0.7 4.6 -0.8 5.4 15.2 0.4 7.3 2.1 18.4 5.1 33 2.5 12.1 6.6 33 9 46.5 2.5 13.5 4.8 25.2 5.1 26 1.3 3.2 2.3 42.5 1.2 48.3 -1 5.4 -0.9 5.9 1.1 7.3 1.5 1.1 2.1 2.6 2.1 5 0 5.1 -2.8 22.3 -5.5 34.4 -3 12.9 -3.8 29 -1.5 29 3.1 0 4.2 1.9 6 10.1 1 4.6 3.9 13.1 6.5 18.9 7.4 16.7 10.5 26.6 9.2 29.9 -0.8 2.2 -0.6 4.9 0.8 11.7 1.1 5.2 2 14 2.2 21.4 1 51 1.2 53.4 5.5 75.3 3.8 19.7 3.9 20.8 2.4 23.3 -1 1.3 -2.8 2.9 -4.1 3.4 -1.2 0.5 -2.6 1.4 -3 1.9 -0.8 1.4 -5.2 1.4 -6 0.1 -0.3 -0.6 -1.6 -0.8 -2.8 -0.5 -1.2 0.3 -3.1 0 -4.1 -0.8 -1.6 -1.2 -2.1 -3.2 -2.7 -12.4 -0.6 -9.7 -1.2 -12.1 -4.8 -20.7 -4.2 -10.1 -9.3 -18.4 -16.6 -27.1 -7 -8.3 -9.3 -12.7 -10.9 -20.3 -0.8 -4.1 -1.7 -7.6 -1.9 -7.8 -0.9 -1 -2.7 6.1 -5.7 22.2 l-3 16.4 0 45.2 c0 46.2 0.3 51 4.2 67.7 l2.2 9.3 -2.3 1.9 -2.3 1.9 2.3 13.3 c1.8 10.5 2.3 17 2.3 32.2 0.1 20.1 -0.7 26 -4.8 34.5 -4.2 8.8 -10.9 20.5 -12.8 22.6 -2.6 2.9 -13.9 6.6 -21.3 7 -8.9 0.5 -24.6 3.3 -27.7 5 -3 1.6 -30.8 2 -36.8 0.4 -6.4 -1.6 -17.3 -6 -20.4 -8.3 -1.7 -1.2 -3.8 -2 -4.8 -1.9 -4.4 0.8 -7.7 -2.6 -13.3 -14.1 -4.6 -9.2 -5.9 -13 -7.2 -21 -1.4 -8.5 -1.9 -9.7 -3.4 -9.2 -2.2 0.7 -5.9 -1.1 -5.9 -2.8 0 -0.7 -1.7 -5.9 -3.7 -11.6 -3.4 -9.3 -4.7 -11.4 -12.6 -20.9 -4.8 -5.8 -9 -11.5 -9.3 -12.7 -0.3 -1.2 -2.5 -3.2 -4.8 -4.5 -4.1 -2.2 -5 -2.3 -15 -1.7 -19.7 1.2 -36 4.6 -47.4 9.8 -7.3 3.3 -9.4 3.6 -11.2 1.4 -1.7 -2.1 -2.6 -1.9 -9.8 1.5 -3.5 1.7 -7.2 3 -8.3 3 -1.1 0 -3.6 1.6 -5.7 3.5 l-3.7 3.5 3.2 -0.6 c2.6 -0.5 3.4 -0.2 4.8 1.9 1.8 2.9 1.7 3.3 -3.2 9.4 -4.2 5.1 -5.2 11.1 -5.3 29.8 -0.1 27.1 -2.7 40.4 -9.2 45.9 -3.8 3.3 -6.4 4.7 -26.2 14.1 -10.6 5.1 -31 10.7 -45.3 12.5 -4.5 0.6 -10.5 2.1 -13.5 3.5 -9.7 4.4 -17.9 5.3 -28.3 3z m7 -16.1 c1.8 -1.2 2.8 -1.3 4.4 -0.5 3.6 2 8.1 1.2 23 -3.9 8.9 -3 20.2 -5.9 29.1 -7.5 8 -1.5 15.2 -3.2 16 -4 0.8 -0.7 3.6 -1.9 6.2 -2.5 2.6 -0.7 5.3 -1.9 6.1 -2.9 0.8 -0.9 2.5 -6.1 3.9 -11.6 2.2 -9.2 2.3 -10.3 1 -14.5 -0.8 -2.6 -1.6 -10.8 -1.9 -19.3 -0.5 -13.1 -0.4 -15 1.2 -16.7 1.2 -1.3 2 -4.6 2.6 -10.1 0.8 -8.4 3.8 -14.7 8 -16.9 0.9 -0.5 2.9 -3 4.3 -5.4 2.6 -4.4 5.6 -6.4 7.7 -5 0.6 0.3 5 -1.3 9.7 -3.7 6.2 -3.1 10 -4.4 13.2 -4.5 2.9 0 6.7 -1.2 10.6 -3.2 13.7 -6.9 16.7 -7.5 40.9 -7.6 27.9 -0.1 42.1 0.6 43.7 2.2 0.7 0.7 2.7 1.2 4.4 1.2 4.7 0 8 1.5 8.7 4 0.8 2.9 -2.6 6.2 -6 5.8 -1.5 -0.2 -2.8 0.2 -3 0.9 -0.3 0.7 0.9 1.3 2.9 1.5 2.4 0.2 3.6 1 4.6 3.1 0.7 1.5 1.9 2.7 2.7 2.7 3.4 0 14.2 17.4 18.2 29 2.1 6.4 7.6 12.4 19.9 21.7 5.6 4.3 8.8 7.5 10.2 10.4 1.1 2.3 3.1 4.7 4.4 5.3 2.6 1.3 3.5 5 1.7 7.2 -0.6 0.8 -1 1.6 -0.7 1.9 0.2 0.2 5.1 1.6 10.9 3.1 8 2 13.9 2.7 25.6 3.1 16.7 0.6 25.5 -0.5 31 -3.8 3.5 -2.2 6.3 -1.5 8.1 1.7 0.8 1.4 1.3 1.4 4.8 -0.4 4.9 -2.5 6.9 -5.9 8.4 -14.2 1.7 -9.4 4 -17.2 5.8 -19.2 1.2 -1.5 1.4 -3.3 0.8 -10 -1.1 -12 -2.9 -56 -2.7 -65 0.1 -5.2 -0.7 -11.4 -2.4 -18.9 -4.2 -18 -5.4 -28.9 -6.6 -57 -0.8 -19.6 -0.8 -29.3 0 -36.9 0.8 -7.7 0.8 -10.6 0 -11.6 -0.7 -0.9 -0.9 -2.9 -0.6 -5.2 1.7 -10.6 3.8 -18.7 5.6 -21.6 1.3 -2.1 2.9 -8.7 4.6 -18.7 3.4 -20.3 3.2 -19.7 5.6 -20.9 1.5 -0.9 2.6 -0.8 4.2 0.3 1.2 0.7 3.3 1.7 4.7 2 7.4 1.9 26.7 36.2 34.9 62.1 4.4 13.8 4.7 15.6 3 17.3 -0.8 0.8 -0.1 3.1 2.5 8.4 4.5 9 4.5 9.4 -2.9 -25.6 -6.2 -28.6 -7.8 -37.9 -10 -55.7 -2.6 -21.4 -2 -25.8 3.2 -25.8 2.8 0 2.8 -1.2 0.4 -6.7 -1.1 -2.3 -2.3 -6.7 -2.6 -9.8 -0.7 -5.5 -4.9 -15.4 -9.9 -23.3 -2 -3.2 -2.6 -5.4 -2.6 -9.7 0 -3.1 -0.5 -6.5 -1 -7.5 -0.7 -1.4 -0.6 -4.1 0.5 -9.2 1.9 -9.2 1.9 -9.1 -0.4 -8.3 -2.6 0.8 -6.4 -2.9 -5.6 -5.3 2.2 -7.1 3.5 -41.7 1.6 -43.7 -0.5 -0.6 -1.4 -11.6 -2.1 -24.5 -0.6 -12.9 -1.7 -30.5 -2.5 -39 -0.8 -9.5 -1 -16.1 -0.4 -17.2 1.2 -2.3 1.1 -9.8 -0.5 -26.3 -1.1 -11.6 -2.2 -16.6 -6.1 -29 -2.6 -8.2 -5.1 -15.3 -5.5 -15.8 -0.3 -0.4 -0.3 1.6 0 4.4 0.6 4.3 0.4 5.5 -1.2 7.1 -2.2 2.2 -3.1 2.3 -5.6 0.1 -1.5 -1.4 -2.3 -4.5 -3.7 -14.3 -1.7 -12.4 -11.4 -53.2 -15.3 -64.2 -1.1 -3.2 -6.7 -14.7 -12.3 -25.5 -18.9 -36.3 -21 -40.7 -20.5 -42.9 0.3 -1.1 -0.1 -2.9 -1 -4 -1.4 -1.8 -1.5 -1.7 -1 1.1 3.4 19.2 3.8 22.6 2.6 24 -1.6 1.9 -5.4 1.9 -7 0 -0.6 -0.8 -2.3 -7.9 -3.6 -15.7 -4.1 -23.8 -8.6 -36.1 -18.5 -50.3 -4 -5.8 -5.7 -7.4 -7.1 -6.9 -4.2 1.3 -41.1 -22.7 -70.8 -46.2 -6.6 -5.2 -14.4 -13.1 -15.1 -15.3 -0.3 -0.7 -7 -2.1 -17.4 -3.7 -9.4 -1.4 -22.6 -3.7 -29.5 -5.2 -10.7 -2.3 -14.4 -2.7 -26 -2.4 -25.5 0.5 -32.3 1.6 -52.3 8.1 -44.6 14.6 -60 18.1 -114.7 25.6 -20.1 2.8 -31.1 5.7 -43.5 11.4 -9.6 4.5 -14.3 8.2 -14.7 11.8 -0.4 3.3 -2.7 4.8 -6.1 3.9 -2.7 -0.6 -4.3 -3.7 -3.8 -7 0.3 -1.9 0.2 -1.9 -2.6 -0.1 -6.9 4.4 -9.2 6.6 -9.5 9.2 -0.3 2.4 -1.1 3.1 -6.7 5.1 -7.4 2.6 -20.8 12.8 -33.2 25.1 -6.3 6.3 -7.8 8.4 -8.8 12.6 -1.3 5.3 -2.3 6.5 -5.8 6.5 -2.8 0 -4.7 -3.3 -3.8 -6.8 0.3 -1.5 0.8 -3.6 1.1 -4.7 0.3 -1.2 -1.7 0.4 -5 3.9 -3.7 4.1 -6.1 7.9 -7.6 12 -1.3 3.4 -4.4 9.7 -7 14.1 -12.1 20.4 -23 45.6 -31 71.6 -3.6 11.7 -4.2 15.6 -5.5 30.9 -1.5 18.8 -3.8 38.1 -5.5 47 -0.6 3 -0.9 6.8 -0.8 8.5 0.1 1.7 -0.2 3.7 -0.7 4.5 -2 3.2 0.7 34.4 3.2 37.2 0.8 0.9 2.1 4.2 3 7.5 0.8 3.2 1.8 6.3 2.3 6.8 0.4 0.6 1.3 3.5 2 6.5 1.6 6.8 9.5 30.1 11.7 34.4 0.9 1.7 2.9 5 4.5 7.3 2.4 3.2 2.9 4.7 2.3 7.1 -0.7 3.5 5.9 20.8 14.2 37 4.1 8.1 5.1 10.8 4.3 12.2 -0.5 1 -1.5 2 -2 2.2 -0.7 0.2 0.3 3.7 2.5 8.8 2.1 4.7 5.5 13.2 7.7 19 2.2 5.9 5.2 11.8 6.7 13.5 1.6 1.7 3.3 5.1 4 7.7 0.6 2.6 7.4 17.4 15.1 32.9 7.7 15.5 14 29.3 14 30.7 0 1.4 -0.7 3.3 -1.6 4.3 -1.4 1.5 -1.4 2 -0.1 4.1 1.4 2 1.4 4.5 0.2 21.3 -3.3 44.3 -3.7 53.6 -3.2 64.5 0.5 11 3.8 30.7 5.7 33.9 0.6 1 1 -5.1 1 -16.4 0 -19.5 0.9 -23.5 6.2 -28.8 2.8 -2.8 5.8 -12.5 4.7 -15.3 -1.3 -3.2 -1 -8.1 0.5 -9.4 0.8 -0.6 2.6 -1 3.9 -0.8 1.3 0.1 3.1 -0.3 4 -1 2.6 -2.2 5.5 -0.5 9.4 5.4 2.9 4.3 4.1 5.4 6.3 5.4 3.7 0 4.7 1.4 7 10.6 2.8 11.1 9.1 25.3 11.1 25.4 2.7 0 3.5 1.9 6.7 14.5 1.7 6.6 3.7 13.8 4.5 16 4.4 11.7 8.7 42.1 8.7 61 0 5.6 0.5 12.7 1 15.6 2 10.4 5 35.7 5.6 48.2 0.7 12.5 0.7 12.6 -1.8 14.8 -2.3 2 -2.4 2.5 -1.6 8.2 1.3 9.7 4.5 18.9 7.9 22.7 2.4 2.7 3 4.1 2.6 6.5 -0.4 2.5 0.2 3.9 3.2 7.4 3.4 4 4.4 4.5 14.6 7.2 12.7 3.3 15.7 3.5 19 1.3z m323.5 -26.4 c0 -0.5 -0.8 -1 -1.7 -1 -1 0 -6.7 -1.1 -12.7 -2.5 -14.5 -3.3 -21.1 -4.2 -20.2 -2.6 0.4 0.6 1.5 1.1 2.5 1.1 1 0 4 1 6.7 2.2 6.5 2.8 25.4 5 25.4 2.8z m-222.1 -14.7 c1.9 -7.9 1.8 -23.2 -0.1 -27.8 -2.1 -5.3 -4.2 -5.2 -4.6 0.2 -0.3 3.4 0 4.2 1.7 4.8 3.5 1.1 4.1 3.5 3.1 13.1 -0.5 4.9 -1.4 10.4 -1.9 12.2 -0.5 1.8 -0.6 3 -0.1 2.7 0.4 -0.3 1.3 -2.6 1.9 -5.2z m184 -9 c-0.5 -1.6 -1.5 -3.5 -2.2 -4.3 -2 -2.6 -15.8 -13.2 -16.4 -12.7 -1.1 1.2 1.9 7.5 5 10.4 3.2 3.1 12.5 9.3 13.8 9.3 0.5 0 0.4 -1.2 -0.2 -2.7z m-390.4 -182.8 c0.7 -5.3 0.3 -7.6 -1.2 -6.2 -0.8 0.9 -2.2 10 -1.6 11 1.2 1.9 2.2 0.2 2.8 -4.8z m524.5 -67.4 c-3.2 -6.1 -3.5 -6.1 -2 0.2 0.5 2.3 1.5 6.9 2.2 10.2 l1.2 6 0.7 -5.4 c0.6 -4.9 0.4 -6.1 -2.1 -11z m-558 -9.6 c0 -1.4 -0.4 -2.5 -0.9 -2.5 -0.4 0 -0.6 1.1 -0.3 2.5 0.2 1.4 0.6 2.5 0.8 2.5 0.2 0 0.4 -1.1 0.4 -2.5z m582.5 -18.3 c-1.5 -9 -2.5 -12.6 -2.5 -9 0 2.6 2.1 18.2 2.7 19.8 1.4 3.9 1.3 -1.9 -0.2 -10.8z m-666 -193.1 c-3.4 -16.9 -4 -19 -5 -18 -0.5 0.6 3.9 22.7 6.2 31.2 3 10.5 2.4 4.7 -1.2 -13.2z m-18.9 -108.9 c0.8 -5.8 1.6 -8.4 3.2 -10 1.9 -1.9 2.2 -3.4 2.2 -9.9 0 -6.9 1.8 -27.6 3.6 -41.2 l0.5 -4.6 -5.6 -4.4 c-3.1 -2.4 -6 -5.3 -6.4 -6.5 -0.7 -1.6 -1.7 -2.1 -4.7 -2.1 -3.7 0 -4 -0.3 -6.4 -5 -1.6 -3.3 -7 -9.6 -15.5 -18 -16.8 -16.8 -23.6 -28 -19.4 -32.2 0.9 -0.9 0.2 -3.1 -2.9 -9 -6.8 -13.2 -8.6 -20.8 -8.7 -35.8 0 -7.2 0.6 -15.7 1.3 -19 0.8 -3.3 2 -9.1 2.9 -13 3.5 -16.1 13.7 -34.9 25.6 -47.3 4.4 -4.6 7.7 -8.5 7.4 -8.8 -0.8 -0.9 -5.6 1.9 -7.1 4.1 -0.8 1.2 -4.5 4.4 -8.3 7.1 -13.6 9.6 -21.5 16.8 -32.7 29.7 -6.3 7.3 -14 15.9 -17 19.2 -8.6 9.2 -20.1 29.4 -25.1 44 -1.4 4.1 -1.6 7.2 -1.1 17.9 1 20.1 3.9 29.8 13 43.1 2.5 3.7 4.6 7.6 4.6 8.7 0 1.1 4 7.7 8.9 14.7 4.8 6.9 14.3 20.5 21.1 30.1 16.1 23 18 25.2 26.9 31.8 4.2 3 11.5 8.6 16.2 12.4 5.3 4.1 9.6 6.8 11.1 6.8 1.3 0 3.9 1.1 5.8 2.5 1.9 1.3 4 2.4 4.5 2.5 0.6 0 1.5 -3.5 2.1 -7.8z m-80.7 -52.2 c-1.9 -2.7 -3.7 -5 -4.2 -5 -0.4 0 0.9 2.5 2.9 5.5 2.1 3 3.9 5.3 4.2 5 0.3 -0.3 -1 -2.7 -2.9 -5.5z m39 -103.5 c-0.7 -5.4 -1 -18 -0.7 -33.1 0.3 -19.9 0.1 -24.1 -1 -23.2 -0.8 0.7 -1.1 2.2 -0.7 4 0.5 2.2 0.1 3.5 -1.9 5.9 -2.2 2.6 -2.5 3.7 -2 7 0.5 3 0.2 4.4 -1.1 5.9 -1.5 1.7 -1.7 3.1 -1.2 9.2 0.8 10 7.8 35 9.4 33.5 0.2 -0.3 -0.1 -4.4 -0.8 -9.2z m172.7 -49.2 c3.8 -2.8 11.4 -8.1 16.9 -11.7 14.4 -9.6 8.7 -8.5 -8.3 1.6 -15.1 9 -28.6 18 -34.7 23.3 -3.8 3.3 -3.4 3.2 7.6 -2.3 6.3 -3.1 14.6 -8 18.5 -10.9z m-222.9 -13.3 c3.3 -4.1 9.8 -11.6 14.4 -16.5 7.8 -8.2 8.4 -9.2 7.4 -11.2 -1.1 -2.2 -1.6 -1.8 -11.6 8.5 -5.7 6 -12.2 13.7 -14.3 17.3 -3.8 6.2 -11.6 21.9 -11.6 23.4 0 0.4 2.2 -2.6 4.8 -6.6 2.7 -4.1 7.6 -10.8 10.9 -14.9z m627.6 13.8 c-1.1 -1.3 -6.6 -7.7 -12.4 -14.2 -12 -13.8 -17.2 -18.1 -27.4 -23.2 -6.8 -3.4 -7.5 -3.5 -9 -2 -2.4 2.4 -5 2 -7.8 -1.4 -1.4 -1.6 -3.3 -3 -4.3 -3 -1.4 0 -1.5 0.2 -0.3 1.6 0.8 0.9 11.1 8.9 22.9 17.8 27.6 20.6 44.7 31.5 38.3 24.4z m8.9 -13.3 c-1.4 -1.1 -4.4 -3.1 -6.6 -4.4 -4 -2.3 -4 -2.2 1.9 3.8 5 5.1 6.1 5.8 6.6 4.4 0.5 -1.3 -0.1 -2.4 -1.9 -3.8z m-406.7 -31.5 c5 -0.6 18.2 -1.9 29.5 -3 13 -1.2 24 -2.8 30 -4.4 9.8 -2.6 19.6 -4.1 33.5 -5.1 39 -2.9 60.5 -5.8 60.5 -8 0 -3.8 7 -5.5 13.9 -3.4 3 0.9 5.6 0.6 15.1 -1.5 13.7 -3.1 13.3 -3.1 12.1 -0.7 -0.9 1.6 -0.7 1.7 1.5 1.3 2.9 -0.5 4.1 -2.1 2.5 -3.2 -1.7 -1 19.3 -8.1 25.8 -8.7 5.9 -0.6 8.2 0.6 6.1 3.1 -0.7 0.9 -1 2.2 -0.7 3 0.7 1.7 4.1 0.9 17.4 -3.6 6 -2.1 6.2 -2.3 4.6 -4 -1.3 -1.4 -1.3 -1.8 -0.2 -1.8 4.2 0 40.9 -20.4 40.9 -22.7 0 -0.3 -2.1 -3.3 -4.6 -6.7 -2.6 -3.3 -8 -12.6 -12.1 -20.6 -8 -15.6 -14.9 -28.3 -17.4 -32 l-1.5 -2.3 -4.7 5.9 c-2.8 3.5 -4.7 6.9 -4.7 8.4 0 3.6 -2.7 7 -5.5 7 -1.6 0 -3.1 1 -4.2 2.8 -0.9 1.5 -2.5 3.6 -3.6 4.7 -1 1.1 -2.7 3.5 -3.8 5.3 -1.1 1.8 -3.5 4 -5.4 4.7 -5.1 2.2 -28.4 5 -29.8 3.6 -0.8 -0.8 -0.6 -1.1 0.8 -1.1 1.4 0 1.6 -0.3 0.8 -1.1 -0.6 -0.6 -4.8 -1.4 -9.4 -1.8 -8.7 -0.8 -10.6 -1.5 -17.6 -6.2 -2.3 -1.6 -4.9 -2.9 -5.8 -2.9 -0.9 0 -2.9 -0.7 -4.5 -1.5 -2.7 -1.4 -3 -1.4 -3 0 0 5.8 -10.2 -4.8 -12 -12.6 -0.7 -3 -1.9 -5.8 -2.6 -6.4 -2.4 -1.9 -8.5 -15.6 -9.9 -22.3 -1.9 -8.6 -1.9 -9.5 0 -8.8 3.8 1.4 -0.8 -12.8 -6.5 -20.1 l-1.7 -2.2 -2.1 4.5 c-1.2 2.5 -2.2 6.4 -2.2 8.8 0 3.1 -0.5 4.7 -1.9 5.7 -1 0.8 -2.2 2.6 -2.5 4.1 -0.5 2.3 -0.3 2.6 1 2.1 1.5 -0.6 1.7 0.1 1.1 6.1 -0.4 4.4 -1.3 7.6 -2.6 9.2 -1.1 1.3 -2.2 4.4 -2.6 6.7 -2.5 16.8 -9.2 43.4 -11.6 46.3 -0.6 0.8 -2.2 1.4 -3.4 1.4 -2.5 0 -2.5 0 -4.5 12 -1.1 6.5 -1.2 6.7 -11.3 17.2 -11.5 11.8 -12.1 12.1 -29.3 13.4 -7.6 0.6 -8.7 0.5 -10.7 -1.3 -2.7 -2.5 -10 -6.3 -18.9 -9.8 -3.8 -1.5 -6.8 -3.3 -6.8 -4.1 0 -1.7 1.4 -1.8 4.1 -0.4 3.8 2.1 1.8 0.1 -2.6 -2.4 -2.4 -1.5 -6.9 -4.8 -10 -7.5 l-5.6 -4.9 -2.9 2.6 c-1.7 1.5 -3 3.3 -3 4.2 0 0.8 -0.6 2.7 -1.4 4.1 -1.3 2.5 -1.2 2.6 0.7 2.1 1.7 -0.4 1.9 -0.2 1.3 1.9 -0.3 1.3 -1.1 4.5 -1.6 7.2 -0.5 2.6 -2.6 7.3 -4.6 10.5 -2.1 3.1 -5.8 10.5 -8.5 16.5 l-4.7 10.7 4.3 0 c2.6 0 4.7 0.6 5.5 1.5 1.5 1.8 1.9 1.8 13.5 0.5z m-154.6 -29.9 c0.7 -0.5 1.2 -1.4 0.9 -2.1 -0.2 -0.8 -1.1 -0.5 -2.8 0.9 -1.7 1.4 -2 2 -1 2.1 0.8 0 2.1 -0.4 2.9 -0.9z m164.5 -43.7 c-1.5 -3.8 -2.8 -7.1 -3 -7.2 -0.6 -0.9 -4.4 1.1 -4.4 2.3 0 1.5 9 12.9 9.6 12.2 0.3 -0.3 -0.7 -3.5 -2.2 -7.3z m-17.7 -25.1 c0.4 -1 2 -3.5 3.7 -5.5 2.6 -3.4 3.4 -3.8 7.7 -3.8 4 0 4.9 -0.3 5.5 -2.2 1.4 -4.7 -10 -10.8 -20.2 -10.8 -3.1 0 -3.4 0.3 -3.4 3 0 3.9 -2.7 5.3 -9.5 4.8 -4.9 -0.3 -5.4 -0.1 -5.8 1.9 -0.6 3 1.9 7.8 6 11.3 2.9 2.6 4.1 3 9.4 3 4.8 0 6.1 -0.4 6.6 -1.7z m500.3 -15.9 c0 -1.1 -4.1 -6.4 -5.1 -6.4 -0.5 0 -0.1 1.6 0.8 3.5 0.9 1.9 2.3 3.5 3 3.5 0.7 0 1.3 -0.3 1.3 -0.6z m-53.5 -45.9 c-4.1 -3.6 -26.3 -15.1 -27.2 -14.1 -0.7 0.7 5 7.8 8.7 11 3.9 3.2 12.8 6.1 20 6.4 2.4 0.2 2.3 0 -1.5 -3.3z m-183.1 -7.5 c1.3 0 3.1 -0.9 4.1 -2 1.2 -1.4 3.3 -2 7.3 -2.2 l5.6 -0.3 1.8 -5.4 c1.1 -3 1.6 -6.1 1.2 -7 -0.5 -1.2 -0.9 -0.9 -1.7 1.4 -1.6 4.9 -2.6 5.5 -8.6 5.5 -6.4 0 -8.1 -1.1 -8.1 -5.2 0 -2.1 -0.5 -2.8 -1.9 -2.8 -2.4 0 -7.9 3.8 -10.4 7.2 -1.8 2.4 -1.9 3.1 -0.8 5.5 2.8 6.3 3.9 7.3 6.7 6.3 1.4 -0.6 3.6 -1 4.8 -1z m-99.9 -92.2 c3.2 -5.9 3 -6.9 -3.8 -14.4 l-4.6 -5 -6 0.4 c-4 0.3 -7.3 -0.1 -9.9 -1.1 -3.6 -1.4 -4 -1.4 -6.9 0.4 -3.4 2.1 -7.2 9.8 -8.1 16.1 -0.6 4.6 0.7 4.9 3 0.8 1.6 -2.8 2.1 -3 7.2 -3 6.5 0 8.6 1.6 8.6 6.6 0 3.1 0.3 3.4 2.8 3.4 3.9 0 7.2 2.6 7.2 5.8 l0 2.6 3.9 -3.8 c2.1 -2.1 5.1 -6.1 6.6 -8.8z"/>
  <path d="M522.4 994.8 c-1.2 -1.9 -0.5 -8.1 1.6 -14.2 1.7 -5.1 1.8 -6 0.5 -7.3 -2 -1.9 -1.9 -2.9 0.5 -6.8 1.7 -2.8 8 -24 8 -27.1 0 -0.7 -4.8 -1.3 -13.7 -1.7 -14.3 -0.6 -21.1 -2.1 -24 -5 -1.7 -1.7 -1.7 -1.9 0.2 -5.5 1.3 -2.5 2.8 -3.8 4.5 -4 1.4 -0.2 3.3 -1.3 4.4 -2.4 1.2 -1.3 2.6 -1.8 4 -1.4 1.1 0.3 3.1 0.6 4.3 0.6 1.2 0 2.9 0.8 3.9 1.7 5.1 5.1 12.5 5.8 26.7 2.4 10.5 -2.5 12.3 -2.6 13.4 -0.6 1.2 2.1 9.6 0.5 12.7 -2.4 1.3 -1.2 3.5 -2.1 5.3 -2.1 7.1 0 37.8 -7.4 47.4 -11.5 3.5 -1.5 8.4 -3.1 10.9 -3.5 2.5 -0.4 7 -1.7 10 -2.9 3 -1.1 5.6 -2.1 5.8 -2.1 0.1 0 0.7 -1.1 1.2 -2.4 0.6 -1.7 2.1 -2.8 4.7 -3.5 2.1 -0.6 5.4 -2.6 7.3 -4.6 2.2 -2.3 4.3 -3.5 6.1 -3.5 1.7 0 4.7 -1.6 8.1 -4.2 2.9 -2.4 6.6 -5.2 8.2 -6.3 1.6 -1.1 4.1 -4.2 5.5 -7 1.5 -2.7 3.4 -5.1 4.2 -5.3 2.2 -0.4 10.6 5.4 11.4 7.8 0.3 1 -0.1 3.2 -0.9 4.9 -1.9 3.7 -15.8 16.3 -23.4 21.3 l-5.6 3.8 -0.2 5.7 c-0.1 5.3 0.4 6.7 5.8 16.3 7.7 13.5 11.1 21.6 10.4 24.6 -1.1 4.2 -8 4.4 -13.7 0.3 -1.5 -1 -4.3 -1.9 -6.2 -1.9 -2.9 0 -3.8 -0.6 -5.9 -3.7 -1.9 -2.9 -15.6 -18.9 -22.8 -26.6 -0.4 -0.5 -5 0.9 -10.1 3.1 -5.2 2.2 -15.2 5.8 -22.2 8.1 -12.8 4 -39.8 10.1 -45.3 10.1 -6.5 0 -6.7 0.4 -9.1 11.3 -4.1 18.2 -6 23.6 -8.9 24.3 -2.7 0.7 -12.8 13.3 -16.5 20.6 -1.6 3.1 -2.5 3.8 -4.9 3.8 -1.6 0 -3.2 -0.5 -3.6 -1.2z m23.4 -43.8 c3.7 -14.6 3.7 -13.2 0 -12.8 -2.9 0.3 -3.3 0.7 -4 4.3 -0.6 2.7 -0.5 4.7 0.3 6.2 1.1 2.1 0.9 6.6 -0.7 10.8 -0.6 1.8 -0.5 1.9 0.9 0.5 0.9 -0.9 2.5 -4.9 3.5 -9z m124 -30.6 c-3.9 -7.1 -7.2 -13 -7.4 -13.2 -0.1 -0.3 -8.4 2.8 -9.2 3.4 -0.2 0.1 2 3.2 5 6.8 3.5 4.4 6 6.6 7.5 6.6 1.3 0 3.7 1.9 6.3 5 2.4 2.8 4.4 4.9 4.6 4.7 0.3 -0.2 -2.8 -6.2 -6.8 -13.3z"/>
  <path d="M547.5 821 c-9.5 -0.8 -20 -1.1 -37.8 -1.1 -15.5 0 -30.3 -1.5 -37 -3.8 -16.2 -5.6 -27.3 -14.7 -35.7 -29.1 -2.4 -4.1 -5.6 -9.1 -7.1 -11 -1.5 -1.9 -3.4 -5.2 -4.3 -7.4 -0.9 -2.1 -5.6 -11.1 -10.6 -20 -10.1 -18.1 -13.5 -27 -15.1 -39.5 -0.6 -4.7 -1.8 -10.6 -2.6 -13.1 -4.5 -13.8 -4.6 -14.5 -4.6 -30.5 -0.1 -19.3 3.5 -50.8 6.4 -57 l1.9 -3.9 -3.3 -1.1 c-5.2 -1.7 -4.8 -5.2 2.1 -18.9 4.9 -9.5 5.7 -11.8 4.6 -12.7 -2.3 -1.9 -1.6 -4.3 3.5 -11.5 5.9 -8.5 37.5 -42.1 43.9 -46.8 2.6 -1.8 7.7 -4.9 11.5 -6.7 5.7 -2.8 7.1 -3.2 9.5 -2.3 4.2 1.6 18.4 -1.9 19.7 -4.8 1 -2.1 1.7 -2.2 16 -2.4 8.3 -0.2 23.1 -0.9 33.1 -1.5 28.8 -1.9 43.7 0.4 51.9 8 1.9 1.8 5 3.2 8.6 4 3.1 0.6 8.8 2.7 12.6 4.5 11.1 5.4 39.1 24.3 47.4 32 8.6 8.2 22.4 19.9 23.9 20.4 0.6 0.2 1 -0.6 1 -1.7 0 -1.1 0.9 -2.5 2.1 -3.1 3.1 -1.7 6.3 1 10.6 9.1 2.1 3.9 5.8 10.5 8.2 14.7 8.5 14.7 10.9 20.1 12.6 27.9 1 4.3 2.8 11.6 4.1 16.3 3.1 11.2 6.4 32.6 6.4 42 0 8.1 -1.8 20.9 -5.1 36 -1.2 5.2 -2.2 14 -2.3 19.5 -0.2 9.2 -0.6 10.6 -3.9 17.7 -2 4.2 -4.8 9.5 -6.2 11.8 -1.4 2.2 -4.2 7.8 -6.1 12.3 -4.2 9.7 -10.6 16.5 -18.1 19.2 -2.6 1 -10.4 4.4 -17.3 7.6 -6.9 3.1 -15.2 6.5 -18.5 7.5 -3.3 0.9 -9.8 2.9 -14.5 4.5 -4.7 1.5 -15.2 4.1 -23.4 5.6 -11.4 2.1 -15 3.2 -15.3 4.4 -0.7 2.6 -4.9 4 -15.7 4.9 -11.5 1.1 -24.1 1 -37.1 0z m26.3 -11.6 c1.4 -0.4 2.2 -1.4 2.2 -2.9 0 -3.8 2.4 -5 7.1 -3.5 5.9 2 12 0.4 31.2 -8.1 22.9 -10.1 35.2 -14.3 37.8 -12.8 1.6 0.8 2 1.8 1.7 4 -0.3 1.6 -0.3 2.9 0 2.9 0.2 0 5.6 -1.8 12 -4.1 11.6 -4.1 17.2 -6.7 17.2 -8 0 -0.4 0.3 -1.5 0.6 -2.4 0.6 -1.5 0.1 -1.6 -4 -1 -5.3 0.8 -7.6 -0.4 -7.6 -4 0 -2.8 1.3 -3.8 6.6 -5.3 5.6 -1.6 14.7 -7.7 22.6 -15.1 5.9 -5.5 6.7 -6.7 8.1 -12.4 0.9 -3.5 1.4 -7.9 1.1 -9.8 -0.4 -2.3 0.6 -7.9 2.8 -16.4 l3.3 -13 -0.2 -27.5 c-0.2 -28.4 -1.3 -41.2 -3.5 -41.9 -2.6 -0.9 -5.2 -5.1 -11.8 -19.9 -8.5 -18.9 -14 -27.3 -25 -38.2 -9.3 -9.3 -11.3 -10.7 -27.8 -20.1 -6.3 -3.5 -15.1 -9.4 -19.7 -13.2 -5.5 -4.4 -13 -9.1 -22.1 -13.7 -16.9 -8.6 -19.5 -9 -13 -2 5 5.4 6 9.2 2.7 11 -3.2 1.6 -3.8 1.3 -10.6 -5.9 -4.3 -4.5 -7.6 -7.1 -9.6 -7.5 -2.5 -0.5 -3.7 -1.8 -5.4 -6.3 -0.4 -1 -33 -5.5 -43 -5.9 l-13 -0.6 -20.5 5 c-26.8 6.6 -25.5 6.1 -25.5 10.8 0 3.4 -0.3 3.9 -3 4.7 -1.6 0.5 -4.7 1.7 -6.7 2.8 -2 1 -4.3 1.9 -5.1 1.9 -2.2 0 -9.7 7 -9.7 9.1 0 1.2 -1.4 2.8 -3.5 4.1 -3.6 2.1 -14.9 15.7 -17.9 21.5 -2.2 4.3 -6.1 21.2 -8.1 34.4 -1.9 13.3 -1.9 15.4 0 18.3 1.3 1.9 1.3 2.9 0.4 5.2 -3.5 8.7 -5.8 25.4 -5.9 42.1 0 29.2 4.2 50.3 12.1 60.3 3.4 4.3 4 5.7 3.5 8.2 -0.8 4 1.7 9.8 4.3 9.8 3.6 0 5.4 2.9 4.7 7.6 -0.5 3.7 -0.1 4.9 3.3 10 2 3.3 5.8 8.5 8.4 11.6 2.6 3.2 4.7 6.2 4.7 6.7 0 2.2 24.7 17.1 34.3 20.7 4.6 1.7 5 1.7 7.8 0 3 -1.7 3.1 -1.7 6.7 0.7 4 2.7 11.8 4.7 18.5 4.7 2.3 0 5.6 0.7 7.2 1.6 1.7 0.9 5.9 2 9.5 2.4 6.8 0.9 35.9 0.5 39.8 -0.6z"/>
  <path d="M556 754.9 c-26.4 -1.2 -42.2 -2.6 -46.9 -4.3 -17.7 -6.4 -40.7 -37.8 -47.6 -65 -4.4 -17.5 -2.8 -29.2 6.6 -47.7 9.4 -18.4 19.1 -27.6 34.2 -32.4 3.9 -1.3 10.8 -3.8 15.1 -5.5 l8 -3.2 18.5 0.4 c17.9 0.3 18.8 0.4 23.6 3 2.8 1.5 7.9 3.4 11.5 4.3 7.7 1.9 14.1 4.8 18.4 8.4 1.7 1.5 6.7 5.3 11 8.6 9.6 7.2 12.3 10.9 18.2 24.6 6.4 14.7 9.4 28.7 9.4 43.8 0 20.6 -4 34.1 -13 44.4 -5.3 5.9 -25.4 18.1 -33.5 20.2 -6.2 1.6 -7.3 1.6 -33.5 0.4z"/>
  <path d="M801.2 486.8 c-2.4 -2.4 -1.3 -5.5 3.4 -9.3 3.6 -3 4.4 -4.2 4 -6 -0.6 -2.5 4.5 -10.9 15.8 -25.5 8.1 -10.4 12.6 -18.8 16.7 -31 1.7 -5.2 4.2 -10.9 5.6 -12.7 1.4 -1.8 3.1 -5 3.9 -7 1.6 -4.5 1.8 -17.6 0.4 -20.4 -0.8 -1.4 -0.7 -2.6 0.3 -4.6 0.8 -1.6 1.7 -4.6 2 -6.8 0.4 -2.1 1.5 -5.1 2.5 -6.5 2.9 -3.9 4.2 -11.7 4.2 -25.1 0 -13.6 0.7 -15.9 5 -15.9 2.4 0 3.1 0.5 3.7 2.8 1.3 4.5 0.6 26.2 -1 33.7 -1 4.8 -1.2 7.6 -0.5 8.9 1.5 2.8 -0.8 19.8 -3.8 28 -1.4 3.9 -3.6 10.9 -4.9 15.6 -2.2 7.9 -5.4 16.6 -8.5 23.3 -0.8 1.5 -2.4 3 -3.6 3.3 -3.3 0.8 -4.1 4.2 -1.5 6 3.2 2.3 2.6 4.7 -3.6 14.2 -6.4 9.7 -18 22.3 -28.3 30.7 -6.7 5.5 -9.6 6.5 -11.8 4.3z"/>
 </g>
 <g fill="#f7e698">
  <path d="M309.7 386.4 c-0.3 -0.3 1.2 -2.9 3.4 -5.7 2.1 -2.9 5.7 -9.5 8 -14.7 2.2 -5.2 5.9 -12.4 8.1 -15.9 2.2 -3.5 4.1 -7.8 4.2 -9.5 0.4 -4.1 2.3 -7.6 4.1 -7.6 0.8 0 1.5 -0.5 1.5 -1.1 0 -0.7 1 -0.9 2.4 -0.5 1.4 0.3 2.7 0.2 3 -0.3 0.6 -0.9 7.1 0.2 11.1 1.9 1.1 0.5 3.4 1.2 5 1.6 4.5 1.1 4.6 1.1 10.6 3.3 6.4 2.3 12.4 5.5 15.6 8.4 2 1.8 2.7 1.8 10.8 0.8 4.7 -0.7 9.8 -1.6 11.3 -2.2 1.4 -0.6 7 -5.6 12.3 -11.2 9.6 -10 9.8 -10.3 10.9 -16.7 2 -12 2 -12 4.5 -12 1.2 0 2.8 -0.6 3.4 -1.4 2.4 -2.9 9.1 -29.5 11.6 -46.3 0.4 -2.3 1.5 -5.3 2.5 -6.6 1 -1.2 2.1 -4.5 2.5 -7.1 0.6 -3.5 1.3 -5 2.6 -5.3 1.1 -0.3 1.9 -1 1.9 -1.5 0 -0.6 0.9 -0.8 2 -0.5 1.1 0.3 2 0.2 2 -0.2 0 -1 9.3 -1.2 10.6 -0.3 0.5 0.4 1.5 3.3 2.1 6.4 1.2 5.9 7.4 19.5 9.7 21.3 0.7 0.6 1.9 3.4 2.6 6.4 0.9 3.7 2.5 6.7 5 9.5 2.8 3 4.2 5.8 5.4 10.7 0.9 3.6 1.6 7.3 1.6 8.2 0 0.9 0.7 1.7 1.5 1.7 0.8 0 1.5 -0.5 1.5 -1.1 0 -1 2.9 -0.8 8.7 0.5 2.8 0.6 6.3 2.4 8.5 4.4 1.2 1 1.8 1.1 1.8 0.4 0 -0.7 1.3 -1.2 2.9 -1.2 1.5 0 3.9 -0.8 5.2 -1.9 2.6 -2 3.1 -2.1 18.9 -4.6 13 -2.1 16.4 -3.5 18.9 -7.7 1.1 -1.8 2.8 -4.2 3.8 -5.3 1.1 -1.1 2.7 -3.2 3.6 -4.8 1.1 -1.7 2.6 -2.7 4.2 -2.7 2.8 0 5.5 -3.4 5.5 -7 0 -1.5 1.9 -4.9 4.8 -8.5 2.7 -3.3 5.6 -7.3 6.4 -8.9 l1.5 -2.9 5.9 10.9 c3.2 6 6.3 11.6 6.9 12.5 0.5 0.9 4 7.5 7.7 14.7 4.5 8.8 6.3 13.2 5.5 13.5 -0.8 0.4 -0.6 0.6 0.3 0.6 0.9 0.1 2.4 1.5 3.4 3.2 1 1.6 4 5.7 6.7 8.9 2.7 3.3 4.9 6.3 4.9 6.7 0 1.5 -15 11.5 -25.2 16.8 -15.1 7.9 -18.4 9 -21.2 7.5 -2 -1 -3 -0.9 -6.4 0.9 -2.3 1.2 -6 2.1 -8.4 2.1 -2.4 0 -5.3 0.7 -6.5 1.5 -1.4 1 -2.4 1.2 -2.8 0.5 -1 -1.6 -3.7 -1.2 -10.3 1.5 -7.6 3.1 -18.2 5.7 -18.2 4.4 0 -1.7 -3.8 -0.9 -5.1 1.1 -1 1.4 -4 2.6 -10.4 4 -10.1 2.2 -16.1 2.5 -20.1 1 -3 -1.2 -7.4 0.9 -7.4 3.4 0 2.4 -21.3 5.2 -60.5 8.1 -13.9 1 -23.7 2.5 -33.5 5.1 -6 1.6 -17.2 3.2 -30.5 4.5 -11.5 1.1 -26.8 2.6 -34 3.3 -12.3 1.2 -13.1 1.2 -14.3 -0.6 -1.7 -2.4 -5.7 -2.3 -8.2 0.2 -1.9 1.9 -6.9 2.7 -8.3 1.4z"/>
  <path d="M296.5 371.1 c-0.3 -1.2 -1 -2.1 -1.3 -2.1 -0.4 0 -0.7 -2 -0.7 -4.5 0 -2.5 0.4 -4.5 0.8 -4.5 0.5 0 0.7 -0.8 0.5 -1.7 -0.2 -1 0.5 -2.7 1.4 -3.8 1 -1 1.6 -2.5 1.4 -3.2 -0.3 -0.7 -0.1 -1.3 0.4 -1.3 1.4 0 7 -5.5 7 -6.9 0 -0.6 0.9 -1.1 2 -1.1 1.1 0 2 -0.4 2 -1 0 -0.5 0.7 -1 1.5 -1 0.8 0 1.5 -0.4 1.5 -1 0 -0.5 0.9 -1 2 -1 2.6 0 2.6 2.2 0 4.5 -1.1 1 -4.8 7 -8.2 13.4 -3.4 6.4 -6.9 12.9 -7.9 14.5 -1.6 2.7 -1.7 2.7 -2.4 0.7z"/>
  <path d="M389.2 330.5 c0.3 -2.9 0.1 -2.8 5.3 -1.3 l4 1.1 -3 1.3 c-4.8 2.1 -6.5 1.8 -6.3 -1.1z"/>
 </g>
 <g fill="#f8d4c8">
  <path d="M769 1235 c0 -0.5 0.7 -1 1.5 -1 0.8 0 1.5 0.5 1.5 1 0 0.6 -0.7 1 -1.5 1 -0.8 0 -1.5 -0.4 -1.5 -1z"/>
  <path d="M333 290 c-2.8 -2.2 -7 -2.6 -8.8 -0.8 -1.5 1.5 -8 -2.7 -11.9 -7.8 -2.3 -3.1 -2.8 -4.7 -2.7 -9.3 0.1 -3.1 0.6 -6.9 1.3 -8.5 l1.2 -2.9 2.7 2.6 c4.5 4.3 10.2 3 10.2 -2.2 0 -2.8 0.2 -2.9 5.8 -3.3 7.2 -0.4 15.8 1.9 20.5 5.5 3.1 2.4 3.7 3.4 3.7 6.6 0 2.1 -0.5 5.2 -1.1 7 -1 2.9 -1.3 3.1 -2.8 1.7 -4.3 -3.9 -11.1 0.7 -14 9.7 -0.7 2 -1.3 3.7 -1.4 3.7 -0.1 0 -1.3 -0.9 -2.7 -2z"/>
  <path d="M341 245.5 c-1.7 -2 0.9 -2.1 3.6 0 1.9 1.4 1.9 1.4 -0.2 1.5 -1.2 0 -2.7 -0.7 -3.4 -1.5z"/>
  <path d="M587.6 218.2 c-3 -4.4 -5.6 -10.4 -5.6 -13 0 -3.1 6.7 -9.9 11.5 -11.7 5.9 -2.3 9.5 -1.4 9.5 2.3 0 3.5 1.6 5.2 5.1 5.2 3.6 0 5.4 -2.4 5.3 -7.1 -0.1 -3.6 0 -3.7 2.3 -2.8 6.4 2.4 6.6 2.7 6 8.8 -0.2 3.1 -1.7 8.3 -3.1 11.5 -2.6 5.8 -2.7 5.9 -4.2 3.8 -1.9 -2.7 -6.5 -2.9 -8.8 -0.3 -0.9 1 -3.5 2.1 -5.8 2.4 -2.3 0.3 -5.3 1.5 -6.8 2.6 l-2.8 2 -2.6 -3.7z"/>
  <path d="M484 139.1 c1.6 -3.1 1.2 -6.9 -1.1 -8.4 -2.8 -2 -5.5 -1.1 -8 2.9 -3.9 6.4 -6 3.6 -2.4 -3.2 2.9 -5.5 3.1 -7.6 0.9 -9.8 -2.6 -2.7 -6.3 -2 -8.2 1.5 -0.9 1.7 -2.4 4 -3.3 5.2 l-1.6 2 -2.1 -2.1 c-2.9 -2.9 -3 -11.1 -0.1 -18.8 3.6 -9.5 8.7 -12.8 16.3 -10.5 7.6 2.3 9.6 2.4 11.5 0.6 1.7 -1.5 2.2 -1.5 4.8 -0.2 2.8 1.6 7.2 5.9 11.1 11.1 4.2 5.5 2.2 13.9 -5.1 22.2 -6.1 7 -15.4 12.4 -12.7 7.5z"/>
 </g>
</svg>