<svg preserveAspectRatio="xMidYMid meet" viewBox="51.801526717557245 29.88 585.7557251908397 940.2239999999999" xmlns="http://www.w3.org/2000/svg" version="1.0" style="max-height: 500px" width="585.7557251908397" height="940.2239999999999">
 <g fill="#d5f3d6">
  <path d="M370.50 362.30 c0 -0.90 0.45 -1.25 1.95 -1.70 2.35 -0.75 4.55 -0.75 4.55 -0.10 0 0.60 -1.50 1.40 -4.30 2.25 -2.15 0.65 -2.20 0.60 -2.20 -0.45z"/>
  <path d="M359.50 360.25 c0 -0.40 0.40 -0.75 0.90 -0.75 0.75 -0.05 0.75 -0.10 -0.15 -0.80 -0.55 -0.40 -1.25 -0.60 -1.60 -0.50 -0.40 0.15 -0.65 -0.10 -0.65 -0.70 0 -0.55 0.05 -1 0.15 -1 0.05 0 2.40 -0.45 5.25 -1 2.80 -0.55 5.80 -1 6.60 -1 1.35 0 1.50 0.15 1.50 1.70 0 1.50 -0.20 1.75 -2.10 2.45 -6.15 2.35 -9.90 2.95 -9.90 1.60z"/>
  <path d="M328 357.20 c0 -0.45 -0.65 -1.40 -1.50 -2.20 -1.50 -1.40 -3.50 -7.15 -3.50 -10.10 0 -0.75 -0.45 -2.10 -0.95 -3 -0.55 -0.90 -1.75 -3.90 -2.70 -6.65 -1 -2.75 -2.45 -6.90 -3.25 -9.25 -0.85 -2.35 -2.40 -9.10 -3.55 -15.25 -1.10 -6.05 -2.70 -14.80 -3.55 -19.45 -2.10 -11.25 -2.30 -12.90 -4 -31.70 -0.65 -6.75 -0.15 -23.90 1 -35.10 0.30 -2.60 0.55 -7.75 0.65 -11.40 0.10 -5.65 0.25 -6.80 1 -7.35 0.45 -0.35 0.85 -1.10 0.85 -1.70 0 -1.65 0.90 -3.05 1.95 -3.05 1.10 0 1.05 1.40 -0.10 3.15 -0.45 0.75 -0.90 1.75 -1 2.30 -0.10 0.55 -0.30 1.20 -0.50 1.35 -0.20 0.20 -0.35 0.55 -0.35 0.80 0 0.25 0.70 -0.40 1.60 -1.40 1.70 -1.90 4.40 -3.30 7.50 -3.90 1.05 -0.20 1.90 -0.55 1.90 -0.80 0 -0.30 -0.20 -0.50 -0.45 -0.50 -0.25 0 -0.55 -0.45 -0.70 -1 -0.20 -0.80 0 -1 0.95 -1 0.70 0 1.20 0.30 1.20 0.70 0 0.40 0.20 0.80 0.45 0.90 0.45 0.15 10.80 20.50 13.55 26.65 3.10 6.85 6.60 16.75 6.85 19.45 0.30 2.85 0.25 3.05 -1.10 4.10 -1.40 1.10 -1.45 1.20 -0.85 3.55 2.15 8.75 3.60 15.20 3.60 16.10 0 0.60 -0.25 1.60 -0.55 2.20 -0.50 0.90 -0.40 1.20 0.70 2.05 1.05 0.85 1.50 2.05 2.50 6.55 0.70 3.05 1.50 7.10 1.85 9 0.35 1.95 0.85 4.20 1.10 5 0.25 0.85 0.60 4.95 0.75 9.15 0.25 6 0.15 7.90 -0.40 8.90 -0.65 1.20 -0.60 1.40 0.70 2.40 l1.40 1.15 -0.20 6.95 c-0.10 4.85 -0.50 8.40 -1.25 11.70 -1.95 8.35 -2.60 12.20 -2.60 15.35 0 1.70 -0.20 3.20 -0.45 3.35 -0.95 0.60 -13.50 2.80 -15.90 2.80 -2.10 0 -2.65 -0.15 -2.65 -0.80z"/>
  <path d="M355.80 336.15 c0.05 -10.90 0.25 -17.95 0.65 -19.90 1.75 -8.80 1.75 -9 -1.40 -26.25 -1.05 -5.65 -1.55 -8.75 -2.55 -16.75 -0.90 -6.60 -3.40 -18.75 -5.30 -25.45 -1.25 -4.35 -0.65 -7.55 0.85 -4.75 0.40 0.85 0.65 0.95 0.95 0.45 0.25 -0.40 1.20 -0.70 2.20 -0.70 1.25 -0.05 1.75 -0.25 1.55 -0.65 -0.40 -1.15 2 -0.70 2.70 0.50 4.75 7.45 6.40 10.40 12.55 22.10 1.75 3.30 6.25 10.95 10 17 6.50 10.50 13 21.70 13 22.40 0 0.20 0.45 1.30 0.95 2.50 3.10 6.90 7.05 20.40 7.05 24.05 0 2 -0.65 2.35 -1.50 0.80 -0.30 -0.55 -0.75 -1 -1 -1 -0.30 0 -0.50 0.45 -0.50 1 0 0.60 0.35 1 0.90 1 0.65 0 0.70 0.10 0.20 0.45 -0.50 0.30 -0.60 1.20 -0.35 3.60 0.40 4 1.15 6.10 2.05 5.75 0.45 -0.20 0.70 0.10 0.70 0.90 0 0.90 -0.35 1.25 -1.35 1.40 -0.80 0.15 -6.10 1.30 -11.90 2.60 -19 4.30 -26.45 5.80 -28.50 5.80 l-2 0 0.05 -16.85z"/>
  <path d="M384 286.55 c0 -0.25 -1.30 -2.45 -2.90 -4.90 -5.65 -8.55 -12.60 -20.95 -12.60 -22.50 0 -0.35 -0.20 -0.65 -0.45 -0.65 -0.55 0 -2.05 -3.95 -2.05 -5.40 0 -0.95 0.15 -1.05 0.95 -0.55 0.50 0.35 0.90 0.95 0.85 1.40 -0.05 0.45 0.35 0.80 0.85 0.80 0.45 0 1.25 0.60 1.75 1.30 0.45 0.70 1.35 1.80 1.95 2.45 0.65 0.65 1.75 2.10 2.50 3.20 0.75 1.15 2 2.90 2.80 3.90 2.95 3.85 7.40 13.95 7.60 17.15 0.05 0.85 0.35 2 0.70 2.60 0.80 1.50 0.70 1.65 -0.70 1.65 -0.70 0 -1.25 -0.20 -1.25 -0.45z"/>
 </g>
 <g fill="#f8d4c8">
  <path d="M226.80 816.40 c-0.50 -2.05 -0.35 -3.90 0.40 -3.90 0.35 0 0.80 0.45 0.95 1 0.45 1.80 1.70 1.20 1.60 -0.75 -0.05 -1.40 0.10 -1.75 0.85 -1.75 0.75 0 0.90 0.45 0.90 2.95 0 3.20 -0.30 3.55 -3 3.55 -1 0 -1.45 -0.30 -1.70 -1.10z"/>
  <path d="M216.55 740.15 c-0.30 -1.05 -0.55 -2.65 -0.55 -3.50 0 -1.45 0.15 -1.65 1.40 -1.65 3.35 0 3.65 0.35 3.50 3.70 l-0.15 3.05 -1.85 0.15 c-1.75 0.15 -1.85 0.05 -2.35 -1.75z"/>
  <path d="M161.30 605.10 c-0.45 -0.75 -1.80 -6.55 -1.80 -7.80 0 -1.70 1.15 -1.65 1.85 0.10 l0.50 1.35 0.40 -1.35 c0.55 -2.10 2.10 -1.85 2.75 0.50 1.05 3.70 1.20 6 0.35 6.80 -0.80 0.80 -3.60 1.10 -4.05 0.40z"/>
  <path d="M90.25 483.90 c-2.10 -3.20 -2.75 -4.55 -2.75 -6 0 -1.85 0.05 -1.90 1.90 -1.90 2.40 0 2.50 0.10 5.25 4.25 1.90 2.80 2.35 3.90 2.35 5.60 l0 2.15 -2 0 c-1.95 0 -2.05 -0.10 -4.75 -4.10z"/>
  <path d="M282.30 388.60 c-0.15 -0.30 0.10 -0.65 0.55 -0.75 0.85 -0.20 0.85 -0.25 0.05 -0.30 -0.50 0 -0.90 -0.30 -0.90 -0.55 0 -0.30 -0.80 -1.20 -1.75 -2.05 -0.95 -0.85 -1.65 -1.75 -1.50 -1.95 0.15 -0.25 -0.20 -0.30 -0.80 -0.15 -0.85 0.25 -1 0.10 -0.85 -0.65 0.15 -0.80 0.80 -1 4.15 -1.30 13.40 -1.25 23.10 -2.80 37.30 -5.95 9.80 -2.15 11.45 -2.35 11.45 -1.20 0 0.40 -0.30 0.75 -0.65 0.75 -0.30 0 -1.10 0.95 -1.75 2.15 -0.60 1.15 -2 3 -3.10 4.10 -2.15 2.20 -2.40 2.75 -1.25 2.75 1.20 0 0.90 1.35 -0.35 1.70 -0.65 0.15 -2.05 0.30 -3.15 0.30 -1.10 0 -7.85 0.70 -15 1.55 -15.90 1.85 -22 2.25 -22.45 1.55z"/>
  <path d="M270.50 370.75 c0 -0.15 0.40 -0.65 0.90 -1.15 1.10 -1.10 0.95 -5.10 -0.25 -5.10 -1.45 0 -0.35 -1.60 1.55 -2.25 1.05 -0.40 2.15 -1 2.35 -1.35 0.70 -1.05 0.25 -2.15 -0.80 -2 -3.60 0.50 -6.75 0.70 -6.75 0.40 0 -0.15 0.40 -0.70 0.95 -1.25 0.90 -0.90 0.85 -1.10 -1.75 -8.75 -2.60 -7.80 -3.20 -9.25 -3.20 -7.65 0 0.50 -0.35 0.85 -0.80 0.85 -0.75 0 -0.80 -1.35 -0.55 -14.10 0.40 -23.35 0.75 -26.45 5.55 -46.65 l0.60 -2.50 2.45 -0.15 2.40 -0.15 -0.30 5 c-0.20 4.50 -0.15 5.20 0.70 6.20 1.70 2 2.25 0.30 2.65 -8.05 0.35 -7.45 1.55 -15.85 3.35 -23.60 1.05 -4.45 1.45 -5.10 11.15 -19.15 l3.40 -4.90 2.05 0.15 2.10 0.15 0.30 7.50 c0.20 4.15 0.60 10 0.95 13 0.50 4.45 0.50 6.45 0 10.35 -0.50 3.65 -0.50 5.05 -0.10 5.55 0.35 0.40 0.70 3.70 0.90 8.15 0.55 14.60 1.85 26 4.50 39.20 2.20 10.85 3.65 15.25 7.20 22.25 2.75 5.35 8.40 14.35 9.50 15 0.45 0.30 0.75 4.75 0.30 4.75 -0.15 0 -10.95 2.35 -24 5.25 -21.30 4.70 -27.30 5.80 -27.30 5z"/>
  <path d="M322 368.30 c0 -2.30 2.30 -4.30 4.95 -4.30 2.30 0 3.55 1.20 3.55 3.40 0 1.35 -0.20 1.60 -1.85 2.05 -1.05 0.30 -2.95 0.55 -4.25 0.55 -2.40 0 -2.40 0 -2.40 -1.70z"/>
  <path d="M405 339.50 c0 -1.45 0.20 -2 0.75 -2 0.45 0 0.90 0.35 1.05 0.75 0.40 1 1.70 0.95 1.70 -0.05 0 -0.45 0.35 -0.70 0.90 -0.60 0.60 0.10 0.90 0.70 1 2.05 l0.15 1.85 -2.75 0 -2.80 0 0 -2z"/>
  <path d="M427 339.90 c0 -1.60 0.20 -1.75 4.50 -3.75 4.30 -2.05 8.50 -2.95 7.10 -1.55 -0.80 0.80 -0.75 1.40 0.15 1.40 0.40 0 0.75 0.20 0.75 0.50 0 0.25 0.35 0.35 0.80 0.15 0.60 -0.20 0.75 0 0.60 0.85 -0.10 0.75 -0.75 1.30 -2.15 1.80 -2.95 1 -8.50 2.20 -10.20 2.20 -1.40 0 -1.55 -0.15 -1.55 -1.60z"/>
  <path d="M415.35 338.15 c-0.45 -0.40 -0.45 -4.05 -0.05 -6.10 0.55 -2.65 1.95 -1.90 1.75 0.95 0 0.40 0.15 1.10 0.40 1.50 0.45 0.60 0.60 0.60 1.40 -0.10 0.50 -0.45 1.60 -0.95 2.45 -1.10 0.85 -0.15 2.20 -0.65 3 -1.05 0.80 -0.40 1.95 -0.75 2.60 -0.75 0.60 0 1.25 -0.30 1.40 -0.70 0.15 -0.40 1.60 -1.30 3.20 -2 1.65 -0.75 3.10 -1.55 3.25 -1.80 0.45 -0.70 2.75 -0.60 2.75 0.05 0 0.40 0.25 0.40 0.75 -0.05 0.65 -0.55 0.75 -0.40 0.75 0.70 0 1 -0.35 1.45 -1.35 1.85 -0.80 0.30 -1.85 0.90 -2.40 1.40 -0.55 0.50 -2.45 1.55 -4.25 2.30 -1.80 0.75 -4.50 1.95 -6 2.60 -5.40 2.45 -8.70 3.25 -9.65 2.30z"/>
  <path d="M450.50 328.60 c0 -0.30 0.40 -0.80 0.90 -1.10 0.80 -0.55 0.80 -0.55 0 -0.30 -0.70 0.20 -0.90 0 -0.90 -0.90 0 -1.05 0.60 -1.45 3.85 -2.80 5.65 -2.35 11.50 -4 14.25 -4 2.40 0 2.40 0 2.40 1.70 0 1.55 -0.20 1.75 -3.05 3 -3.55 1.55 -12.80 4.30 -15.55 4.65 -1.15 0.15 -1.90 0.05 -1.90 -0.25z"/>
  <path d="M443.50 324 c0 -0.25 0.20 -0.50 0.50 -0.50 0.25 0 0.30 -0.40 0.15 -0.85 -0.25 -0.60 -0.10 -0.75 0.50 -0.50 0.55 0.20 0.85 0 0.95 -0.70 0.10 -0.55 1.05 -1.50 2.15 -2.10 1.10 -0.60 2.15 -1.30 2.30 -1.50 0.15 -0.25 0.45 -0.40 0.65 -0.40 1.50 0.20 2.75 -0.10 3.60 -0.85 1.20 -1.05 4.20 -1.45 4.20 -0.55 0 0.40 0.35 0.20 0.75 -0.40 0.75 -1.10 4.85 -2.65 7 -2.65 1 0 1.30 -0.20 1.05 -0.75 -0.20 -0.55 0.05 -0.75 0.95 -0.75 1.10 0 1.25 0.20 1.25 2 0 1.90 -0.10 2 -2.10 2.55 -3.70 1 -8.60 2.50 -9.65 2.95 -0.55 0.25 -2.65 1.15 -4.70 2 -2 0.90 -4.40 2 -5.25 2.55 -1.65 1 -4.30 1.30 -4.30 0.45z"/>
  <path d="M411.35 310.65 c-1.10 -3.40 -1.50 -6 -1.10 -6.70 0.25 -0.35 0.65 0 1.10 1.05 0.35 0.90 0.80 1.50 1 1.30 0.20 -0.15 0.05 -0.60 -0.25 -0.90 -0.75 -0.75 -0.80 -1.40 -0.10 -1.40 0.25 0 0.65 0.90 0.80 2 0.20 1.10 0.55 2.15 0.75 2.30 0.25 0.15 0.45 1.25 0.45 2.50 0 1.80 -0.15 2.20 -0.95 2.20 -0.70 0 -1.15 -0.65 -1.70 -2.35z"/>
  <path d="M394 304.70 c-1 -2.35 -1.35 -5.70 -0.55 -5.70 0.25 0 0.80 0.80 1.25 1.75 0.45 0.95 1.05 1.75 1.30 1.75 0.60 0 0.60 0.10 0.05 -1.90 -0.45 -1.50 -0.40 -1.60 0.70 -1.60 1.75 0 2.80 3.65 1.95 6.90 -0.25 0.85 -0.70 1.10 -2 1.10 -1.50 0 -1.75 -0.25 -2.70 -2.30z"/>
  <path d="M400 280.75 c0 -0.45 -0.35 -0.90 -0.75 -1.05 -0.40 -0.20 -0.75 -0.65 -0.75 -1 0 -0.40 -0.35 -0.85 -0.75 -1 -0.40 -0.20 -0.75 -0.60 -0.75 -1 0 -0.65 -0.80 -1.85 -2.35 -3.45 -0.35 -0.40 -0.65 -1.45 -0.65 -2.35 l0 -1.65 1.55 1.65 c0.80 0.85 1.70 1.60 2 1.60 0.25 0 0.45 0.60 0.45 1.40 0 1 0.15 1.15 0.45 0.65 0.35 -0.55 0.50 -0.35 0.65 0.75 0.10 0.90 0.55 1.65 1.30 1.95 0.60 0.25 1.10 0.65 1.10 0.90 0 0.20 -0.20 0.25 -0.50 0.10 -0.30 -0.15 -0.35 0.05 -0.20 0.45 0.15 0.45 0.50 0.70 0.70 0.55 0.20 -0.10 0.40 0.35 0.40 1 0 0.90 -0.30 1.25 -0.95 1.25 -0.55 0 -0.95 -0.35 -0.95 -0.75z"/>
  <path d="M391.25 268.35 c-1.60 -1.85 -2.25 -3.25 -2.25 -4.85 l0.05 -1.75 1.30 1.50 c0.75 0.85 1.55 1.45 1.80 1.35 0.25 -0.10 0.35 0.20 0.20 0.65 -0.20 0.40 -0.10 0.75 0.20 0.75 0.30 0 0.35 0.25 0.20 0.50 -0.15 0.30 -0.05 0.50 0.30 0.50 0.35 0 0.45 0.15 0.30 0.35 -0.20 0.15 -0.10 0.60 0.20 1 0.45 0.50 0.30 0.65 -0.60 0.65 -0.65 -0.05 -1.45 -0.30 -1.70 -0.65z"/>
  <path d="M386.25 259.85 c-1.60 -1.85 -2.25 -3.25 -2.25 -4.85 l0 -1.75 1.50 1.60 c0.85 0.90 1.50 1.85 1.50 2.10 0 0.30 0.25 0.50 0.60 0.45 0.30 -0.10 0.65 0.30 0.75 0.85 0.15 0.80 0.10 0.85 -0.30 0.25 -0.70 -0.95 -0.70 -0.20 -0.05 1.05 0.45 0.75 0.35 0.95 -0.35 0.95 -0.50 -0.05 -1.15 -0.30 -1.40 -0.65z"/>
  <path d="M440.25 260 c-0.15 -0.25 -0.65 -0.30 -1.10 -0.15 -0.50 0.20 -0.70 0.10 -0.45 -0.25 0.15 -0.30 -0.40 -1.20 -1.30 -2.05 l-1.65 -1.55 1.90 0 c1.30 0 1.85 0.20 1.85 0.75 0 0.40 0.35 0.75 0.75 0.75 0.50 0 0.75 0.50 0.75 1.50 0 1.55 -0.20 1.85 -0.75 1z"/>
  <path d="M374 254.10 c0 -0.25 -0.45 -0.90 -1 -1.50 -0.60 -0.60 -0.90 -1.10 -0.70 -1.10 0.15 0 0.05 -0.35 -0.30 -0.75 -0.55 -0.65 -0.40 -0.75 0.70 -0.75 0.95 0 1.30 0.25 1.30 1 0 0.55 0.25 1 0.50 1 0.30 0 0.50 0.55 0.50 1.25 0 0.70 -0.20 1.25 -0.50 1.25 -0.25 0 -0.50 -0.20 -0.50 -0.40z"/>
  <path d="M432.75 253.10 c-0.55 -0.50 -1.30 -0.85 -1.65 -0.70 -0.35 0.10 -0.50 -0.10 -0.35 -0.50 0.20 -0.45 -0.40 -1.05 -1.65 -1.65 -1.05 -0.50 -2.15 -1.45 -2.45 -2.10 -0.50 -1.05 -0.45 -1.15 0.80 -1.15 1.60 0 3.55 1.25 3.55 2.30 0 0.40 0.35 0.70 0.80 0.70 1.25 0 2.30 1.40 2.10 2.80 -0.15 1.25 -0.15 1.25 -1.15 0.30z"/>
  <path d="M380.50 249.75 c0 -0.80 -0.30 -1.25 -0.75 -1.25 -0.55 0 -0.75 -0.55 -0.75 -1.85 0 -1.75 0 -1.80 1 -0.90 0.55 0.50 1 1.20 1 1.50 0 0.35 0.30 0.90 0.70 1.20 0.40 0.30 0.80 1.05 0.95 1.55 0.20 0.80 0 1 -0.95 1 -0.95 0 -1.20 -0.25 -1.20 -1.25z"/>
  <path d="M361 245.50 c0 -0.55 -0.35 -1 -0.75 -1 -0.45 0 -0.75 -0.45 -0.75 -1.15 0 -0.60 -0.55 -1.55 -1.25 -2.05 -0.70 -0.50 -1.25 -1.35 -1.25 -1.85 0 -0.55 -0.20 -0.95 -0.50 -0.95 -0.25 0 -0.50 -0.30 -0.50 -0.70 0 -0.40 -0.35 -0.80 -0.75 -1 -0.40 -0.15 -0.75 -0.50 -0.75 -0.80 0 -0.30 -0.55 -1.15 -1.25 -1.90 -0.70 -0.75 -1.25 -1.60 -1.25 -1.95 0 -0.35 -0.35 -1.05 -0.80 -1.50 -3.45 -3.95 -5.20 -6.65 -5.20 -8.10 0 -1.50 0.05 -1.55 2.15 -1.55 1.75 0 2.50 0.35 4.50 2.05 1.30 1.10 2.35 2.30 2.35 2.65 0 0.35 0.55 0.90 1.25 1.20 0.95 0.45 1.25 0.95 1.25 2.15 0 1.40 -0.10 1.50 -0.85 0.90 -0.50 -0.35 -1.40 -1.25 -2 -1.95 -0.60 -0.70 -1.15 -1.15 -1.20 -1 -0.30 1.10 -0.25 3.45 0.10 3.20 0.25 -0.15 0.45 0.10 0.45 0.50 0 0.40 0.45 1.05 1 1.45 0.65 0.45 0.90 1 0.70 1.55 -0.25 0.60 -0.10 0.75 0.55 0.50 0.60 -0.25 0.80 -0.10 0.75 0.60 -0.20 1.60 0 2 0.55 1.20 0.45 -0.60 0.50 -0.55 0.30 0.40 -0.15 0.65 0.05 1.25 0.50 1.50 0.40 0.25 0.80 0.85 0.90 1.40 0.10 0.50 0.20 1.05 0.20 1.20 0.05 0.15 0.30 -0.10 0.60 -0.50 0.40 -0.60 0.45 -0.55 0.20 0.30 -0.15 0.65 0.05 1.30 0.50 1.70 0.65 0.55 0.70 0.50 0.45 -0.25 -0.25 -0.65 -0.20 -0.80 0.20 -0.55 0.35 0.20 0.50 0.85 0.30 1.55 -0.15 0.60 -0.05 1.30 0.25 1.45 0.30 0.20 0.55 0.10 0.55 -0.25 0 -0.50 0.15 -0.50 0.65 0 0.50 0.55 0.45 0.70 -0.05 0.90 -0.50 0.20 -0.50 0.40 -0.05 0.95 0.45 0.55 0.35 0.70 -0.75 0.70 -0.95 0 -1.30 -0.25 -1.30 -1z"/>
  <path d="M416.30 243.45 c0.15 -0.25 0 -0.45 -0.25 -0.45 -0.30 0 -0.55 -0.20 -0.55 -0.50 0 -0.25 0.70 -0.50 1.50 -0.50 1.15 0 1.50 0.25 1.50 0.95 0 0.65 -0.35 0.95 -1.25 0.95 -0.65 0 -1.10 -0.20 -0.95 -0.45z"/>
  <path d="M370.55 237.15 c-0.85 -1.05 -1.55 -2.05 -1.55 -2.25 0 -0.25 -0.25 -0.40 -0.55 -0.40 -0.50 0 -1.95 -1.20 -1.95 -1.65 0 -0.15 -0.90 -1.25 -2 -2.40 -1.10 -1.20 -2 -2.45 -2 -2.80 0 -0.35 -0.20 -0.65 -0.50 -0.65 -0.25 0 -0.50 -0.70 -0.50 -1.50 0 -1.40 0.10 -1.45 1 -0.90 0.55 0.35 1 0.95 1 1.30 0 0.35 0.25 0.50 0.50 0.35 0.30 -0.15 0.50 -0.10 0.50 0.20 0 0.30 0.30 0.40 0.70 0.25 0.55 -0.20 0.65 0 0.45 0.75 -0.15 0.65 -0.05 1.05 0.30 1.05 0.35 0 0.45 0.25 0.25 0.60 -0.25 0.40 -0.10 0.45 0.45 0.25 0.60 -0.20 0.85 -0.05 0.85 0.55 0.05 1.05 1.25 2.70 1.65 2.25 0.20 -0.15 0.35 0 0.35 0.45 0 0.40 0.50 1.15 1.15 1.70 0.60 0.50 0.80 0.60 0.50 0.20 -0.85 -0.95 -0.80 -1.55 0.10 -1.20 0.60 0.25 3.25 4.70 3.25 5.50 0 0.10 -0.55 0.20 -1.20 0.20 -0.80 0 -1.75 -0.65 -2.75 -1.85z"/>
  <path d="M286.85 234.70 c-0.85 -0.90 -0.15 -4.20 2.85 -12.85 1.75 -5.10 3.35 -9.50 3.55 -9.80 0.15 -0.30 1.10 -0.55 2.05 -0.55 1.70 0 1.70 0 1.70 2.40 0 3.25 -2.10 11.65 -4.20 16.65 -1.70 4.15 -1.75 4.20 -3.65 4.35 -1.05 0.10 -2.10 0 -2.30 -0.20z"/>
  <path d="M342.30 232.45 c-0.15 -0.85 -0.30 -2.20 -0.30 -3 0 -1.35 0.15 -1.45 2 -1.45 1.65 0 2 0.15 2 1 0 0.65 0.35 1 1 1 0.80 0 1 0.35 1 1.75 0 0.95 -0.20 1.75 -0.40 1.75 -0.25 0 -0.85 -0.80 -1.40 -1.75 -1 -1.90 -2.20 -2.30 -2.20 -0.75 0 0.55 0.20 1 0.40 1 0.20 0 0.40 0.45 0.40 1 0 0.70 -0.35 1 -1.10 1 -0.80 0 -1.15 -0.40 -1.40 -1.55z"/>
  <path d="M359 222.75 c0 -0.40 -0.30 -0.75 -0.65 -0.75 -0.85 0 -2.85 -2.30 -2.85 -3.25 0 -0.40 -0.20 -0.75 -0.50 -0.75 -0.75 0 -4 -3.05 -4 -3.75 0 -0.35 -0.45 -0.75 -1 -0.90 -0.75 -0.20 -1 -0.70 -1 -1.85 0 -1.40 0.10 -1.55 0.75 -1 0.60 0.50 0.75 0.45 0.75 -0.20 0 -0.50 0.25 -0.70 0.55 -0.55 0.30 0.20 0.40 0.65 0.25 1.05 -0.15 0.40 -0.05 0.70 0.20 0.70 0.30 0 0.45 0.30 0.40 0.65 -0.10 0.30 0.25 0.55 0.70 0.45 0.50 -0.05 1.55 0.60 2.35 1.50 1.55 1.70 2 2.75 0.95 2.05 -0.35 -0.20 -0.10 0.35 0.60 1.20 0.70 0.90 1.60 1.55 2 1.50 0.45 -0.05 0.85 0.50 1 1.40 0.20 0.95 0.55 1.45 1.05 1.35 0.40 -0.10 0.55 0 0.35 0.20 -0.20 0.20 -0.15 0.65 0.15 1.05 0.45 0.50 0.30 0.65 -0.75 0.65 -0.80 0 -1.30 -0.25 -1.30 -0.75z"/>
  <path d="M397.75 221.05 c-2.30 -0.80 -6.05 -2.65 -8.10 -4.05 -1.20 -0.85 -2.85 -1.85 -3.70 -2.25 -0.85 -0.45 -1.45 -1.20 -1.45 -1.75 0 -1.15 0.50 -1.30 1.45 -0.35 0.50 0.50 0.55 0.40 0.25 -0.35 -0.25 -0.65 -0.20 -0.85 0.20 -0.60 0.35 0.20 0.60 0.75 0.60 1.20 0 0.65 0.10 0.70 0.45 0.20 0.30 -0.55 0.90 -0.45 2.85 0.50 1.35 0.65 2.55 1.30 2.70 1.45 0.15 0.20 1.65 1.05 3.40 1.90 1.90 0.95 3.10 1.90 3.10 2.40 0 0.45 0.15 0.70 0.30 0.50 0.30 -0.30 1.70 0.80 1.70 1.35 0 0.40 -2.50 0.30 -3.75 -0.15z"/>
  <path d="M342.35 206.05 c-2.40 -2.50 -2.85 -3.25 -2.85 -4.75 0 -1.65 0.10 -1.80 1.50 -1.80 1.60 0 4 0.95 4 1.55 0 0.20 0.70 0.50 1.50 0.65 0.85 0.15 2.20 0.45 3 0.60 1.15 0.20 1.50 0.55 1.50 1.40 0 1 -0.20 1.10 -1.35 0.90 -0.80 -0.10 -1.60 -0.40 -1.90 -0.60 -1.05 -0.85 -4.25 -1.90 -4.25 -1.45 0 0.25 0.30 0.45 0.70 0.45 0.45 0 0.65 0.45 0.60 1.20 -0.10 0.85 0.05 1.15 0.50 0.95 0.45 -0.15 0.70 0.10 0.70 0.65 0 0.80 0.10 0.85 0.50 0.20 0.40 -0.60 0.50 -0.45 0.50 0.65 0 0.75 0.25 1.35 0.50 1.35 0.30 0 0.50 0.25 0.50 0.50 0 0.30 -0.60 0.50 -1.40 0.50 -1 0 -2.10 -0.75 -4.25 -2.95z"/>
 </g>
 <g fill="#f7e698">
  <path d="M306.35 273.40 c-0.15 -0.65 -0.45 -3.45 -0.65 -6.25 -0.30 -4.60 -0.25 -5.15 0.50 -5.15 0.70 0 0.95 0.55 0.75 1.80 0 0.20 0.25 0.50 0.60 0.75 0.80 0.50 1.25 6.20 0.50 6.65 -0.30 0.20 -0.55 0.70 -0.55 1.10 0 0.40 0.20 0.65 0.45 0.50 0.25 -0.20 0.35 0.15 0.20 0.70 -0.35 1.35 -1.50 1.25 -1.80 -0.10z m1.50 -6.25 c-0.15 -0.50 -0.25 -0.10 -0.25 0.85 0 0.95 0.10 1.35 0.25 0.90 0.10 -0.50 0.10 -1.30 0 -1.75z"/>
  <path d="M305.65 231.75 c-0.15 -0.45 -0.15 -2.05 0.05 -3.65 0.15 -1.55 0.45 -5.40 0.60 -8.45 0.35 -5.85 0.95 -7.05 2.05 -4.20 0.40 1.10 0.40 1.60 -0.05 2.05 -0.40 0.45 -0.35 0.55 0.20 0.40 1.15 -0.25 1.35 7.50 0.25 9.60 -0.45 0.85 -1 1.40 -1.25 1.25 -0.30 -0.20 -0.35 0.15 -0.05 0.85 0.30 0.80 0.25 1.45 -0.20 2.05 -0.75 1.05 -1.20 1.10 -1.60 0.10z"/>
  <path d="M198.30 167.10 c-0.30 -0.50 -1.85 -0.65 -6.20 -0.55 -3.90 0.10 -5.85 -0.05 -6 -0.45 -0.10 -0.30 -0.50 -0.40 -0.90 -0.25 -0.45 0.15 -0.70 -0.05 -0.70 -0.70 0 -0.80 0.70 -1.05 5.15 -1.80 2.80 -0.50 5.95 -0.85 6.95 -0.85 1.70 0 1.90 0.15 2.15 1.70 0.45 2.15 0.15 3.85 -0.45 2.90z"/>
  <path d="M175.85 160.65 c-0.80 -0.75 -0.30 -5.05 0.80 -7.15 0.90 -1.90 1.35 -2.30 2.70 -2.40 1.15 -0.10 2.15 0.20 3.30 1.10 1.65 1.25 1.70 1.25 2.55 0.40 0.75 -0.90 0.75 -1 -0.20 -1.85 -2 -1.80 -1.15 -5.35 2 -8.10 3.10 -2.80 18 -9.50 26.75 -12.05 5.55 -1.65 13.70 -2.40 17.70 -1.60 1.80 0.35 3.65 0.95 4.10 1.35 0.65 0.55 1.45 0.60 4 0.20 3.05 -0.45 16.70 -1.30 24.20 -1.45 1.95 -0.05 5.85 -0.20 8.75 -0.35 3.55 -0.20 6.05 -0.05 7.75 0.40 l2.50 0.65 0.15 2.55 c0.15 2.25 -0.05 2.75 -1.85 5 -4.65 5.90 -8.55 7.65 -10.85 4.80 l-1.15 -1.40 -2.05 2.15 c-1.35 1.35 -2.45 2.10 -3.30 2.10 -1.60 0 -3.15 0.80 -4.50 2.30 -1.30 1.45 -4.15 2.70 -6.15 2.70 -0.95 0 -2.05 0.50 -2.90 1.30 -1.60 1.50 -4.10 2.70 -5.70 2.70 -0.60 0 -1.35 0.35 -1.65 0.75 -0.60 0.85 -16.60 3.10 -18.05 2.60 -0.45 -0.20 -0.75 -0.95 -0.75 -2 0 -2.80 -0.55 -2.90 -6.40 -1.30 -2.95 0.80 -6 1.45 -6.75 1.45 -0.75 0 -2.65 0.45 -4.25 0.95 -1.55 0.55 -4.65 1.25 -6.85 1.55 -4.55 0.70 -11.40 1.85 -14.75 2.50 -2.70 0.55 -8.70 0.65 -9.15 0.15z"/>
  <path d="M170.30 156.25 c-0.20 -0.70 -0.60 -1.25 -1 -1.25 -0.80 0 -1.30 -2.15 -1.30 -5.70 0 -3 1.85 -7.45 3.50 -8.30 0.60 -0.30 0.95 -0.70 0.80 -0.85 -0.40 -0.40 3.55 -3.40 6.45 -4.85 1.35 -0.70 3.60 -1.55 4.90 -1.90 2.05 -0.55 2.45 -0.50 2.85 0.10 0.30 0.40 0.50 0.55 0.50 0.25 0 -0.25 0.70 -0.90 1.50 -1.35 1.50 -0.85 1.50 -0.85 1.50 0.40 0 0.85 -1.15 2.45 -3.90 5.35 -8.65 9.05 -12.35 13.80 -13.60 17.65 -0.70 2 -1.75 2.25 -2.20 0.45z"/>
  <path d="M195.10 132.40 c-0.35 -0.35 -0.60 -1.05 -0.60 -1.65 0 -0.85 0.30 -1.05 1.80 -1.10 0.95 -0.05 2.15 -0.40 2.65 -0.85 1.35 -1.20 1.55 -1 1.55 1.40 0 1.55 -0.25 2.30 -0.80 2.50 -1.30 0.50 -3.95 0.35 -4.60 -0.30z"/>
  <path d="M314.25 130.35 c-0.20 -0.95 -0.25 -2.30 -0.15 -3.10 0.15 -1.25 0.50 -1.45 4.15 -2.55 4.30 -1.25 7.25 -1.55 7.25 -0.65 0 0.25 -0.85 0.85 -1.85 1.25 -3.75 1.45 -6.90 2.95 -7.50 3.55 -0.75 0.65 -0.90 1.85 -0.20 1.45 0.25 -0.20 0.35 0.15 0.20 0.70 -0.40 1.55 -1.55 1.15 -1.90 -0.65z"/>
  <path d="M256.25 124.75 c-2.75 -0.40 -6.05 -0.70 -7.35 -0.70 -2.85 -0.05 -3.35 -1.25 -0.75 -1.80 0.85 -0.20 1.70 -0.55 1.85 -0.80 0.65 -1 10.35 -2.60 15.75 -2.60 6.20 -0.05 9.35 0.90 11.95 3.65 0.75 0.85 1.65 1.50 2 1.45 0.85 -0.15 2.30 0.60 2.30 1.20 0 0.30 -1.35 0.35 -4.10 0.10 -5.30 -0.55 -6.15 -0.55 -11.90 -0.15 -3 0.20 -6.60 0.05 -9.75 -0.35z"/>
  <path d="M309.90 121.45 c-0.50 -0.50 -0.90 -1.15 -0.90 -1.45 0 -0.25 -0.45 -0.50 -1 -0.50 -0.80 0 -1 -0.35 -1 -1.80 l0 -1.75 2.75 0.10 c1.60 0.10 3 -0.10 3.35 -0.45 0.30 -0.30 0.75 -2.05 0.95 -3.90 0.65 -5.10 2.50 -8.35 6.70 -11.55 3.50 -2.70 23.20 -16 28.15 -19 2.40 -1.50 2.60 -1.75 2.60 -3.55 0 -2.25 0.15 -2.40 4.50 -4.75 1.80 -0.95 4.60 -2.50 6.25 -3.45 14.75 -8.60 35.45 -19.30 44.30 -22.85 3.95 -1.60 7.05 -2.55 8.30 -2.55 2 0 2.05 0.05 2.35 2.15 0.75 4.60 0.90 16.60 0.30 19.30 -0.70 3.15 -2.50 5.30 -9.25 10.95 -5.10 4.30 -11.45 8.50 -24.85 16.50 -7.20 4.35 -9.70 5.60 -11.10 5.60 -1.20 0 -2.70 0.60 -4.80 1.95 -1.65 1.10 -4.75 2.80 -6.90 3.85 -2.10 1.05 -4.90 2.40 -6.15 3.05 -1.75 0.85 -3.20 1.15 -5.75 1.15 l-3.45 0 -0.85 2 c-0.70 1.65 -1.30 2.20 -3.65 3.25 -1.60 0.70 -3.30 1.25 -3.80 1.25 -0.55 0 -0.95 0.25 -0.95 0.50 0 0.30 -0.50 0.50 -1.15 0.50 -0.65 0 -1.35 0.20 -1.65 0.45 -0.85 0.85 -14.05 5.05 -15.85 5.05 -1 0 -1.95 0.25 -2.10 0.50 -0.55 0.90 -4.40 0.50 -5.35 -0.55z"/>
  <path d="M302 108.50 c0.60 -0.80 0.95 -1.70 0.80 -1.95 -0.40 -0.60 1.55 -2.20 2.30 -1.90 0.40 0.10 1.20 -0.60 1.90 -1.70 0.65 -1.10 1.40 -1.95 1.60 -1.95 0.85 0 0.40 3.50 -0.60 4.50 -0.55 0.55 -1 1.20 -1 1.45 0 0.95 -3.10 3.05 -4.55 3.05 l-1.50 0 1.05 -1.50z"/>
  <path d="M349.15 66.15 c-1 -0.15 -1.65 -0.50 -1.65 -0.95 0 -0.40 0.25 -0.70 0.50 -0.70 0.30 0 1.10 -0.55 1.75 -1.20 2.70 -2.70 21.50 -12.75 30.80 -16.50 17.90 -7.15 31.40 -11 32.45 -9.30 0.25 0.40 0.65 0.45 1.05 0.20 1.40 -0.85 2.45 -0.70 2.45 0.30 0 0.65 -0.35 1 -1 1 -0.55 0 -1 0.20 -1 0.40 0 0.25 -1.65 1.05 -3.60 1.80 -2 0.75 -4.20 1.60 -4.90 1.90 -0.70 0.30 -1.70 0.70 -2.25 0.90 -1.50 0.55 -3.90 1.55 -4.85 2.05 -0.50 0.25 -1.45 0.45 -2.15 0.45 -0.70 0 -1.25 0.20 -1.25 0.50 0 0.50 -4 2.50 -4.95 2.50 -0.30 0 -1.25 0.45 -2.15 1 -0.90 0.55 -2.40 1 -3.25 1 -1 0 -2.05 0.40 -2.65 1 -0.55 0.55 -1.35 1 -1.75 1 -1.30 0 -4.15 1.65 -4.40 2.50 -0.10 0.50 -1.10 1.15 -2.15 1.50 -1.05 0.35 -2.20 0.90 -2.55 1.20 -3.05 2.70 -6.90 4.80 -8.75 4.80 -1 0 -3.40 0.70 -5.30 1.50 -3.35 1.40 -4.70 1.60 -8.45 1.15z"/>
  <path d="M421.80 58.65 c-0.15 -2.45 -0.50 -6.65 -0.80 -9.40 -0.80 -8 -0.80 -8.10 1.30 -9 2 -0.85 4.70 -1 4.70 -0.30 0 0.25 -0.35 0.60 -0.80 0.75 -0.75 0.30 -0.75 0.40 -0.10 1.20 3.90 4.60 3.65 12.45 -0.65 17.40 -1.55 1.80 -1.85 2.45 -1.40 3 0.45 0.55 0.35 0.70 -0.70 0.70 -1.25 0 -1.25 -0.10 -1.55 -4.35z"/>
 </g>
 <g fill="#f7c98d">
  <path d="M118 417.75 c-0.35 -0.45 -0.75 -1.90 -0.90 -3.25 -0.20 -2 -0.05 -2.50 0.50 -2.50 0.40 0 0.95 0.70 1.20 1.60 0.70 2.35 1.85 2.50 1.50 0.20 -0.25 -1.55 -0.15 -1.80 0.65 -1.80 1.20 0 1.55 0.95 1.55 4.05 l0 2.45 -1.95 0 c-1.10 0 -2.20 -0.30 -2.55 -0.75z"/>
  <path d="M210.70 395.30 c-2.20 -1 -3.70 -2.35 -3.70 -3.45 0 -0.90 0.05 -0.90 1.25 -0.15 1.45 0.95 2.35 1.10 1.10 0.20 -0.45 -0.35 -1.35 -1.65 -2 -2.90 -0.60 -1.25 -1.40 -2.20 -1.80 -2.10 -0.35 0.05 -0.95 -0.15 -1.35 -0.45 -0.55 -0.45 -0.70 -0.40 -0.70 0.25 0 0.45 -0.35 0.80 -0.75 0.80 -1.05 0 -0.95 -2.20 0.20 -5.25 0.85 -2.20 1.15 -2.50 2.55 -2.65 0.95 -0.10 4.05 0.70 7.65 1.95 7.75 2.70 11.40 2.90 25.10 1.50 11.60 -1.20 13.15 -1.25 18.40 -0.45 4.05 0.60 5.10 1.55 2.35 2.15 -0.80 0.20 -1.45 0.50 -1.40 0.65 0.05 0.20 -0.90 1.40 -2.15 2.70 -3.40 3.60 -3.65 3.90 -2.70 3.90 0.40 0 0.75 0.30 0.75 0.70 0 0.50 -0.80 0.80 -2.60 1 -1.45 0.15 -6.85 0.75 -11.95 1.30 -11.05 1.20 -25.80 1.35 -28.25 0.30z"/>
  <path d="M218 374.50 c0 -1.85 0.10 -2 1.40 -2 0.75 0 8.70 -1.35 17.75 -3 18.85 -3.45 20.15 -3.55 20.85 -1.70 0.30 0.70 0.50 2.35 0.50 3.70 0 1.90 -0.20 2.50 -0.85 2.70 -3.55 1 -13.35 1.75 -25.50 2.05 l-14.15 0.30 0 -2.05z"/>
  <path d="M197.20 369.15 l-4.60 -2.30 -2.90 -7.30 -2.95 -7.30 0.10 -6.25 c0.05 -5.80 1.35 -18.10 2 -19.15 0.15 -0.20 0.45 -2.50 0.65 -5 0.25 -2.55 0.70 -5.50 1.10 -6.60 0.65 -1.95 0.70 -2 3.30 -2.15 3.15 -0.20 3.25 -0.40 4.10 -6.35 0.80 -5.95 7.80 -25.65 9.65 -27.20 0.35 -0.25 1.50 -0.55 2.55 -0.65 l2 -0.15 3.25 -6.45 c2.90 -5.70 3.50 -6.55 4.90 -7 1.15 -0.40 2.20 -1.40 3.40 -3.20 3.40 -5.15 5.45 -7.15 11.45 -11.20 3.35 -2.20 8.05 -5.60 10.50 -7.55 3.25 -2.55 4.95 -3.55 6.40 -3.75 1.70 -0.20 2.10 -0.50 3.15 -2.55 1.20 -2.45 4.95 -5.65 15.25 -13.15 2.90 -2.10 6.50 -5.05 8 -6.60 2.05 -2.15 3.05 -2.80 4.15 -2.80 1.20 0 1.35 0.15 0.90 0.70 -0.45 0.50 -0.35 0.85 0.25 1.35 0.70 0.55 0.90 0.55 1.45 -0.20 2.05 -2.80 1.60 1.75 -0.80 7.75 -1.60 4.05 -2.35 5.35 -3.45 6 -1.95 1.10 -5.40 8.40 -7.70 16.15 -2.40 8.30 -2.60 8.75 -3.80 8.75 -0.90 0 -0.95 -0.15 -0.45 -1.10 0.45 -0.95 0.45 -1.05 -0.10 -0.50 -0.35 0.30 -1.05 0.60 -1.60 0.60 -0.50 0 -0.75 0.25 -0.60 0.50 0.15 0.30 -0.05 0.50 -0.45 0.50 -0.45 0 -0.75 0.20 -0.70 0.45 0.20 0.50 -3.90 4.55 -4.60 4.55 -0.40 0 -1.50 1.55 -1.50 2.15 0 0.45 4 2.85 4.75 2.85 0.45 0 0.90 -0.35 1.05 -0.75 0.20 -0.40 0.50 -0.75 0.75 -0.75 1.05 0 0.30 3.75 -2.05 10.20 -2.75 7.55 -3.40 10.80 -3.90 20.30 -0.20 3.45 -0.55 6.55 -0.75 6.90 -0.50 0.75 -3.45 0.80 -4.20 0.05 -0.85 -0.85 -2.45 0.30 -3.30 2.40 -1.30 3.30 -2 11.25 -1.65 18.60 0.30 6.45 0.25 6.90 -1.05 10.90 -1.55 4.70 -1.35 5.60 1.20 6.35 1.35 0.40 1.60 0.80 2.05 3 0.30 1.40 0.65 3.35 0.80 4.30 0.15 0.95 0.70 3.90 1.25 6.50 1.15 5.25 1.35 10 0.50 10 -0.30 0 -8.55 1.45 -18.30 3.25 -23.05 4.25 -29.35 5.25 -32.40 5.20 -1.95 0 -3.50 -0.50 -7.05 -2.30z m29.30 -62.70 c0 -0.55 -0.20 -0.85 -0.50 -0.70 -0.25 0.15 -0.50 0.65 -0.50 1.05 0 0.40 0.25 0.70 0.50 0.70 0.30 0 0.50 -0.45 0.50 -1.05z"/>
  <path d="M267 218.60 c0 -1.30 0.60 -2.80 2.15 -5.20 1.15 -1.85 2.40 -3.50 2.80 -3.65 0.40 -0.15 2.25 -0.15 4.15 0.05 3.35 0.30 3.40 0.35 3.40 1.75 0 1.80 -0.90 2.85 -5.20 6.25 -2.80 2.20 -3.75 2.70 -5.35 2.70 -1.90 0 -1.95 -0.05 -1.95 -1.90z"/>
  <path d="M178 160.25 c0 -0.40 0.35 -0.75 0.75 -0.75 0.40 0 0.75 -0.20 0.75 -0.50 0 -0.25 0.45 -0.50 1 -0.50 0.55 0 1 0.20 1 0.50 0 0.25 0.30 0.35 0.65 0.25 0.30 -0.10 1.35 -0.30 2.30 -0.45 0.95 -0.15 1.85 -0.45 2 -0.70 0.45 -0.65 2.05 -1.15 2.05 -0.60 0 0.30 0.35 0.50 0.75 0.50 0.40 0 0.75 -0.25 0.75 -0.55 0 -0.35 0.50 -0.45 1.25 -0.25 0.80 0.20 1.25 0.10 1.25 -0.25 0 -0.30 0.45 -0.45 1 -0.30 0.55 0.15 1 0.05 1 -0.20 0 -0.25 0.45 -0.45 1 -0.45 0.55 0 1 0.25 1 0.55 0 0.30 0.45 0.40 1.15 0.15 0.60 -0.20 1.40 -0.35 1.75 -0.35 0.30 0 0.60 -0.30 0.60 -0.70 0 -0.35 0.35 -0.65 0.75 -0.65 0.40 0 0.75 0.25 0.75 0.55 0 0.30 0.35 0.45 0.75 0.25 0.50 -0.15 0.75 0.05 0.75 0.65 0 0.75 -0.60 1.05 -2.85 1.50 -16.65 3.20 -22.15 3.75 -22.15 2.30z"/>
  <path d="M176 156.75 c0 -1.35 0.20 -1.75 0.90 -1.75 0.55 0 0.90 0.35 0.90 1 0 0.55 -0.20 1 -0.40 1 -0.20 0 -0.40 0.35 -0.40 0.75 0 0.40 -0.20 0.75 -0.50 0.75 -0.25 0 -0.50 -0.80 -0.50 -1.75z"/>
  <path d="M226.50 156.70 c0 -0.65 1.90 -2.20 2.65 -2.20 0.35 0 0.90 0.25 1.25 0.60 0.45 0.45 0.65 0.35 0.90 -0.25 0.35 -0.90 1.70 -1.20 1.70 -0.35 0 0.70 2.15 0.30 2.40 -0.40 0.25 -0.75 2.60 -0.80 2.60 -0.05 0 0.30 0.35 0.45 0.75 0.25 0.50 -0.15 0.75 0.05 0.75 0.65 0 1.05 -1.15 1.30 -8.35 1.85 -2.75 0.20 -4.65 0.15 -4.65 -0.10z"/>
  <path d="M204.50 155.75 c0 -0.40 0.30 -0.75 0.70 -0.75 0.40 0 1.10 -0.35 1.55 -0.80 0.40 -0.45 1.10 -0.65 1.50 -0.50 0.40 0.15 0.75 0.05 0.75 -0.20 0 -0.30 0.35 -0.50 0.75 -0.50 0.40 0 0.75 0.25 0.75 0.55 0 0.30 0.35 0.45 0.75 0.25 0.50 -0.15 0.75 0.05 0.75 0.65 0 0.70 -0.60 1.10 -2.20 1.50 -3.20 0.80 -5.30 0.70 -5.30 -0.20z"/>
  <path d="M240 154.75 c0 -0.15 0.70 -0.95 1.50 -1.75 1.55 -1.50 2.50 -1.90 2.50 -1 0 0.25 0.35 0.35 0.75 0.20 1.15 -0.45 0.95 1.65 -0.20 2.30 -1 0.50 -4.55 0.70 -4.55 0.25z"/>
  <path d="M246 152.10 c0 -0.25 0.55 -0.75 1.25 -1.10 0.70 -0.35 1.25 -0.85 1.25 -1.05 0 -0.70 2.15 -1.60 3.90 -1.70 1.30 -0.05 1.60 0.15 1.60 1 0 0.70 -0.75 1.35 -2.25 2.15 -2.20 1.05 -5.75 1.50 -5.75 0.70z"/>
  <path d="M257.10 146.35 c1.95 -2 4.55 -3.45 5.55 -3.10 0.35 0.15 1.25 -0.25 2 -0.95 l1.35 -1.25 0 1.70 c0 1.40 -0.20 1.75 -1 1.75 -0.55 0 -1 0.20 -1 0.50 0 0.85 -4.90 3 -6.80 3 l-1.80 0 1.70 -1.65z"/>
  <path d="M311.10 122.15 c-0.65 -0.15 -1.30 -0.55 -1.45 -0.95 -0.15 -0.40 -0.50 -0.70 -0.85 -0.70 -0.30 0 -1.05 -0.55 -1.70 -1.25 -0.90 -0.90 -1.15 -1.65 -1 -3.10 0.15 -1.80 0.25 -1.90 2 -2.05 1.40 -0.10 2.10 0.15 3.10 1.15 1.70 1.70 1.75 2.95 0.10 2.65 -1.40 -0.30 -1.25 0.65 0.30 2.20 1.10 1.10 1.70 1.15 2.25 0.20 0.50 -0.85 2.65 -1.55 2.65 -0.85 0 0.30 0.35 0.55 0.80 0.55 1.25 0 0.60 1.65 -0.80 2.05 -1.40 0.40 -3.65 0.45 -5.40 0.10z"/>
  <path d="M322.50 119 c0 -0.25 0.50 -0.75 1.15 -1.05 0.60 -0.35 1.35 -0.95 1.65 -1.40 0.45 -0.60 0.75 -0.65 1.30 -0.15 0.40 0.30 0.90 0.40 1.10 0.20 0.20 -0.20 0.55 -0.35 0.70 -0.35 1.20 -0.10 3 -1 3.75 -1.95 0.65 -0.70 1 -0.85 1.20 -0.40 0.35 0.90 1 0.75 1.30 -0.40 0.25 -1.05 1.35 -1.40 1.35 -0.45 0 0.30 0.35 0.45 0.75 0.25 0.50 -0.20 0.75 0.05 0.75 0.75 0 0.55 -0.40 1.10 -0.85 1.25 -0.50 0.15 -1.30 0.50 -1.80 0.75 -1.65 0.90 -9.90 3.45 -11.15 3.45 -0.65 0 -1.20 -0.20 -1.20 -0.50z"/>
  <path d="M343.25 108.40 c0.50 -1.65 0.85 -1.85 2.40 -1.55 0.85 0.15 1.35 0.60 1.35 1.15 0 1 -0.95 1.50 -2.80 1.50 -1.10 0 -1.20 -0.15 -0.95 -1.10z"/>
  <path d="M351.50 107 c0 -0.25 0.50 -0.70 1.15 -1.05 0.60 -0.30 1.50 -1.05 2 -1.65 0.60 -0.70 1 -0.85 1.15 -0.45 0.15 0.35 0.60 0.45 1 0.30 1.45 -0.55 0.75 1.80 -0.80 2.60 -1.60 0.85 -4.50 1 -4.50 0.25z"/>
  <path d="M349.65 66.40 c-1.45 -0.70 -1.45 -1.50 0 -2.20 0.90 -0.40 1.30 -0.35 1.80 0.15 0.60 0.65 1.25 0.60 3.45 -0.20 0.35 -0.15 0.60 0.20 0.60 1 0 0.85 -0.35 1.30 -1.10 1.55 -1.65 0.40 -3.50 0.30 -4.75 -0.30z"/>
  <path d="M368.20 58.75 c0.80 -0.70 1.65 -1.25 1.90 -1.25 0.20 0 0.40 -0.35 0.40 -0.80 0 -0.45 0.30 -0.70 0.65 -0.55 0.95 0.35 3.85 -1 3.85 -1.80 0 -0.75 4.35 -3 5.05 -2.60 0.25 0.20 0.45 0.10 0.45 -0.20 0 -0.80 4.15 -2.80 4.40 -2.10 0.25 0.70 2.05 -0.20 3.20 -1.65 0.65 -0.75 1 -0.90 1.30 -0.45 0.45 0.70 3.35 -0.55 5 -2.25 1.20 -1.20 2.10 -1.45 2.10 -0.45 0 0.30 0.50 0.05 1.05 -0.65 0.75 -0.95 1.10 -1.10 1.30 -0.55 0.20 0.55 0.50 0.40 1.25 -0.50 0.75 -0.90 1.05 -1.05 1.25 -0.50 0.20 0.55 0.50 0.40 1.20 -0.50 0.75 -0.95 1.05 -1.05 1.40 -0.50 0.30 0.45 0.55 0.50 0.75 0.10 0.20 -0.30 0.80 -0.55 1.35 -0.55 1.60 0 1.15 1.70 -0.65 2.45 -0.90 0.35 -2.80 1.20 -4.25 1.85 -1.40 0.65 -2.95 1.20 -3.35 1.20 -0.40 0 -0.90 0.20 -1.05 0.50 -0.15 0.25 -0.85 0.50 -1.55 0.50 -0.65 0 -1.20 0.25 -1.20 0.50 0 0.30 -0.55 0.50 -1.25 0.50 -0.70 0 -1.75 0.45 -2.35 1 -0.60 0.55 -1.70 1 -2.50 1 -0.75 0 -1.40 0.25 -1.40 0.50 0 0.70 -9.95 5.50 -11.35 5.50 -0.65 0 -1.15 0.30 -1.15 0.70 0 0.40 -0.50 0.90 -1.10 1.10 -0.60 0.15 -1.40 0.65 -1.80 1 -0.35 0.40 -1.50 0.70 -2.50 0.70 l-1.85 0 1.45 -1.25z"/>
 </g>
 <g fill="#000000">
  <path d="M309.90 964.25 c-1.85 -0.35 -5.35 -1.50 -7.80 -2.45 -2.45 -1 -4.90 -1.80 -5.50 -1.80 -2.55 0 -9.05 -4 -12.65 -7.85 -2.15 -2.20 -4.65 -6.05 -6.95 -10.60 -0.90 -1.80 -2.45 -4.40 -3.45 -5.75 -1 -1.40 -2.25 -3.90 -2.75 -5.55 -0.50 -1.65 -1.15 -3.55 -1.35 -4.25 -0.55 -1.70 -1.85 -7.80 -2.20 -10.25 -0.15 -1.10 -0.50 -3.55 -0.75 -5.50 -1.55 -10.65 -1.70 -24.40 -0.45 -36.75 0.90 -8.80 -0.35 -20.65 -4 -37.50 -0.30 -1.25 -0.65 -3.70 -0.80 -5.50 -0.35 -3.85 -2.05 -13.25 -3.05 -16.70 -0.80 -2.80 -2.50 -7.10 -4.70 -12.05 -0.90 -1.95 -2.05 -4.70 -2.60 -6.10 -1.10 -3 -2.40 -3.55 -2.40 -1.10 0 0.90 -0.35 3.75 -0.75 6.40 -0.40 2.65 -1.20 8.40 -1.75 12.80 -0.60 4.40 -1.40 8.50 -1.80 9.10 -0.35 0.60 -1.30 1.15 -2.05 1.25 l-1.40 0.15 -1.30 10.40 c-0.80 6.20 -1.65 10.80 -2.10 11.50 -0.95 1.45 -5.25 2.50 -7.30 1.80 -1.80 -0.65 -2.10 -1.30 -2.60 -5.45 -0.20 -1.80 -0.70 -4.40 -1.10 -5.85 -0.45 -1.45 -0.90 -3.25 -1 -4 -0.65 -3.80 -4.90 -16.35 -5.85 -17.40 -2.20 -2.35 -3.60 -8.25 -4.10 -17.75 -0.50 -9.50 -0.20 -29 0.60 -33.65 0.30 -1.90 0.30 -3.80 -0.05 -5.25 -0.25 -1.30 -1.25 -6.25 -2.25 -11.05 -1.55 -7.50 -2.15 -9.50 -4.50 -14.45 -1.50 -3.15 -2.70 -5.80 -2.70 -5.90 0 -0.10 -2 -4.15 -4.40 -9.05 -2.45 -4.90 -5.25 -10.90 -6.25 -13.40 -1 -2.45 -3.20 -7.75 -4.85 -11.75 -1.70 -4 -3.35 -8.05 -3.70 -9 -0.85 -2.25 -2.65 -5.90 -7.70 -15.50 -7.45 -14.35 -11.80 -24.65 -15 -35.75 -0.55 -1.90 -1.50 -5.05 -2.05 -7 -0.55 -1.90 -1.35 -4.75 -1.75 -6.25 -0.40 -1.50 -1.15 -4.20 -1.75 -6 -0.55 -1.80 -1.25 -4.15 -1.50 -5.25 -0.30 -1.10 -1.20 -4.70 -2.05 -8 -0.85 -3.30 -1.75 -7.10 -2 -8.50 -0.20 -1.35 -0.75 -4.30 -1.15 -6.50 -0.45 -2.20 -0.90 -5 -1.10 -6.25 -0.20 -1.20 -0.40 -2.35 -0.50 -2.55 -0.10 -0.15 -0.25 -1.25 -0.30 -2.50 -0.05 -1.20 -0.25 -3.10 -0.50 -4.20 -0.20 -1.10 -0.50 -4.30 -0.65 -7.05 -0.15 -4.35 -0.45 -5.70 -2 -9.60 -2.10 -5.25 -2.25 -7.20 -0.70 -8.30 0.60 -0.45 1.50 -0.80 2 -0.80 1.40 0 1.75 -2.55 1.15 -7.70 -0.45 -4.25 -1.40 -5.35 -5.45 -6.50 -6.35 -1.85 -12 -5.35 -23.05 -14.30 -1.90 -1.55 -4.05 -3.15 -4.75 -3.50 -0.70 -0.35 -1.80 -1.15 -2.50 -1.75 -0.70 -0.65 -3.15 -2.55 -5.50 -4.20 -3 -2.15 -4.70 -3.05 -5.80 -3.05 -3.45 0 -6.80 -3.50 -15.15 -16 -6.75 -10.05 -10.90 -16.90 -13.05 -21.80 -0.85 -1.85 -1.90 -4.20 -2.35 -5.15 -0.45 -1 -1.65 -3.65 -2.70 -5.95 -1.10 -2.30 -1.95 -4.25 -1.95 -4.35 0 -0.05 -0.85 -2.05 -1.90 -4.35 -3.90 -8.45 -6.30 -16 -7.40 -23.15 -0.15 -1.10 -0.40 -2.15 -0.50 -2.30 -0.10 -0.20 -0.20 -3.80 -0.30 -8.10 -0.10 -9.85 0.50 -11.45 4.60 -11.95 1.10 -0.15 1.25 -0.45 1.80 -3.95 0.95 -6.25 2.75 -13.50 4.05 -16.45 0.65 -1.50 1.40 -3.80 1.65 -5.10 0.60 -3.05 2.10 -6.35 4.65 -10.15 2.30 -3.40 25.15 -26.35 27.45 -27.55 1.20 -0.60 1.80 -0.70 2.75 -0.25 1.05 0.50 1.55 0.25 4.35 -2.10 1.75 -1.40 6.20 -4.40 9.85 -6.60 3.70 -2.15 9.10 -5.50 12.05 -7.40 6.10 -3.90 8.60 -4.65 10.30 -2.95 0.60 0.60 1.95 1.30 3 1.60 2.10 0.55 2.60 1.20 2.60 3.45 0 0.75 0.45 1.80 1 2.30 0.55 0.50 1 1.40 1 1.95 -0.05 1.80 -2.25 4.95 -5.05 7.25 -1.90 1.55 -2.80 2.65 -3 3.75 -0.30 1.80 -1.30 3.80 -1.90 3.80 -0.20 0 -1.20 0.80 -2.20 1.75 -2.55 2.45 -6.20 11.85 -5.40 13.95 0.55 1.55 0.20 2.65 -1.45 4.55 -1.25 1.45 -1.55 3.75 -0.60 5.35 0.65 1.10 0.65 1.55 0.15 2.85 -0.35 0.85 -1.05 1.65 -1.55 1.80 -0.50 0.15 -1.05 0.90 -1.20 1.65 -0.20 0.75 -0.35 8.80 -0.40 17.85 -0.10 14.15 0 17.20 0.80 21.45 0.60 3.25 0.80 5.85 0.55 7.60 -0.30 2.50 -0.20 2.85 2.90 8.80 6.45 12.35 12.20 20.65 20.35 29.05 4.05 4.25 6.35 5.85 6.75 4.75 0.10 -0.35 1.05 -2.90 2.05 -5.65 1 -2.75 2.15 -6.80 2.50 -9 0.40 -2.20 1.05 -6.15 1.45 -8.75 0.90 -5.35 3.75 -14.30 6.40 -20.10 1.90 -4.20 3.25 -5.30 5.60 -4.70 2.05 0.50 2.55 2.25 1.35 4.85 -2.75 6.20 -3.30 7.50 -4.60 11.45 -2.10 6.40 -2.20 7 -1.15 7 1.50 -0.05 2.40 -1.05 5.60 -6.25 1.70 -2.75 4.65 -7.15 6.55 -9.75 1.95 -2.60 4.35 -6 5.35 -7.50 2.10 -3.25 4.10 -5.50 4.90 -5.50 0.25 0 1.75 -1.85 3.25 -4.10 1.50 -2.30 3.75 -5.15 4.90 -6.35 1.20 -1.20 2 -2.35 1.75 -2.55 -0.20 -0.20 -3.50 -2.65 -7.25 -5.40 -3.75 -2.80 -7.70 -6 -8.75 -7.15 -2.55 -2.85 -4.25 -4.50 -6 -5.80 -2.05 -1.50 -2.65 -4.05 -2.75 -11.45 l-0.05 -6.35 -2.45 -4.80 c-3.40 -6.80 -3.15 -9.05 1.05 -9.05 2.05 0 2.35 -1.40 1.40 -6.10 -1.70 -8.30 -1.95 -10.80 -1.70 -17.20 0.25 -6.95 1.05 -10.55 3.80 -17.35 2.40 -6.05 5.80 -12.60 7.90 -15.30 4.85 -6.25 6.30 -8.25 11.05 -14.90 6.70 -9.45 15.25 -19.80 21.35 -25.90 4.85 -4.85 7.90 -7.15 14.15 -10.65 2.15 -1.20 5.80 -4.55 12.95 -11.75 15.35 -15.55 20.65 -21.55 24.75 -27.85 4 -6.15 4.95 -7.15 6.90 -7.75 1.20 -0.35 5 -3.60 5 -4.30 0 -0.15 -0.85 -0.65 -1.95 -1.05 -1.45 -0.60 -2 -1.10 -2.20 -2.20 -0.60 -3.20 2.55 -4.75 8.20 -4 3.90 0.55 3.45 -0.50 -3.65 -8.05 -3.25 -3.45 -3.80 -5.45 -1.80 -6.85 2.35 -1.65 3.55 -1.10 8.05 3.80 l4.25 4.55 1.60 -3.15 c1.30 -2.55 1.55 -3.55 1.30 -5.10 -0.20 -1.35 -0.05 -2.30 0.45 -3.10 0.75 -1.15 0.75 -1.35 -0.30 -3.35 -1.30 -2.60 -1.90 -8.05 -0.95 -9.15 0.95 -1.20 0.20 -1.70 -2.90 -2.05 -1.55 -0.20 -4.15 -0.80 -5.80 -1.35 -2.85 -0.95 -2.95 -0.95 -4 0 -2.50 2.20 -8.50 5.50 -12.05 6.60 -1.10 0.35 -4.20 1.60 -6.85 2.85 -5.75 2.60 -12.40 4.40 -19.30 5.15 -2.80 0.30 -7.25 1.10 -9.90 1.80 -7.55 1.90 -15.90 3.20 -20.65 3.20 -2.65 0 -6.50 0.45 -10 1.20 -6.45 1.40 -7.80 1.20 -8.70 -1.20 -0.30 -0.85 -0.80 -1.50 -1.10 -1.50 -0.25 0 -2.95 0.45 -6 0.95 -9.55 1.70 -11.50 1.80 -14.90 0.80 -4.60 -1.35 -5.10 -2 -5.05 -6.45 0.10 -6.10 2.60 -10.25 12.25 -20.55 8.25 -8.80 11.20 -10.60 13.70 -8.25 1.35 1.25 2.75 0.85 2.75 -0.75 0 -2.20 3.55 -3.40 16 -5.30 11.85 -1.85 33.25 -2.45 42.75 -1.30 3.50 0.45 6.60 0.50 10.30 0.20 5.20 -0.40 6.20 -0.35 15.50 1.50 1.15 0.20 1.50 -0.05 2.70 -2.10 1.65 -2.90 4.70 -5.90 7.70 -7.65 3.55 -2 11.15 -8.80 12.55 -11.10 6.70 -11.15 11.40 -17.35 18.60 -24.50 9.70 -9.65 22.30 -16.70 26.20 -14.60 0.75 0.40 1.80 0.10 4.70 -1.30 2.10 -1 4.60 -1.80 5.75 -1.85 1.45 -0.05 3 -0.70 5.75 -2.50 4.25 -2.75 22.05 -11.75 23.20 -11.75 0.15 0 1.45 -0.55 2.90 -1.20 6.60 -2.95 22.50 -9.30 24.50 -9.75 1.25 -0.30 3.75 -1.20 5.60 -2.05 3.90 -1.75 4.85 -1.85 5.90 -0.65 2.25 2.65 1.05 5 -3.50 6.90 -1.85 0.80 -3.55 1.55 -3.75 1.75 -0.25 0.20 -0.20 2.15 0.10 4.30 0.30 2.20 0.65 6.45 0.85 9.45 0.15 3.05 0.50 5.70 0.75 6 0.85 0.85 0.45 2.15 -2.85 8.75 -3.65 7.30 -7.35 11.75 -12.95 15.75 -3.65 2.60 -4.90 3 -6.75 2.25 -1.40 -0.60 -2.10 -0.20 -15.60 7.85 -19.45 11.65 -22.75 13.45 -28.05 15.20 -2.55 0.85 -8.30 3.10 -12.80 5.05 -9.85 4.20 -15.70 6.35 -23.45 8.60 l-5.85 1.70 -0.05 3.40 c0 1.90 -0.30 4.30 -0.65 5.35 -0.65 1.90 -4.20 6.70 -6.30 8.50 -1.40 1.20 -4.15 2.35 -5.65 2.35 l-1.25 0 0.95 1.15 c1.40 1.50 5.05 7.30 5.60 8.90 0.30 0.70 0.40 1.80 0.25 2.50 -0.20 1.15 1.15 3.60 3.85 6.95 l1 1.25 1.05 -1.35 c2.40 -3.20 6.75 -4.45 8.15 -2.25 0.60 0.90 0.60 1.60 0.15 3.75 -0.70 3.35 -0.35 3.95 3.30 5.80 2.45 1.25 3 1.35 4.40 0.85 3.70 -1.30 5.80 -0.45 6.80 2.65 0.35 1.10 1.05 1.65 3.35 2.60 3.90 1.60 4.20 1.90 4.40 4.55 l0.15 2.30 6.90 4.65 c6 4.05 7.25 4.70 9 4.70 2.90 0 4.50 0.95 5.15 3 0.50 1.45 1.35 2.25 5.55 4.75 2.70 1.65 6.05 3.75 7.45 4.70 3.15 2.20 14.10 8.50 17.70 10.15 1.50 0.75 5.35 2.25 8.50 3.40 9.40 3.45 14 6.05 20.50 11.50 6.50 5.45 10.50 9.05 18.10 16.35 4.10 3.95 7.95 7.50 8.60 7.90 0.65 0.45 2.50 2.50 4.15 4.60 1.60 2.10 4.65 5.90 6.80 8.50 4.45 5.45 4.50 5.50 7.50 13.15 3.20 8.05 5.60 15.55 6.65 20.80 0.65 3.25 1.25 4.75 2.10 5.60 1 0.95 1.15 1.45 0.90 3 -0.20 1 -0.40 3 -0.50 4.35 -0.40 6.05 -1.90 8.75 -4.85 8.75 -0.70 0 -3.20 0.90 -5.50 1.95 -2.30 1.10 -6.65 2.65 -9.60 3.50 -5.95 1.65 -5.55 1.40 -10.90 6.15 -2.10 1.85 -5.20 4.05 -6.95 4.85 -3.10 1.50 -4.90 1.95 -22.95 6.05 -11.30 2.55 -11.45 2.65 -12.15 4.50 -0.85 2.60 -3.30 3.25 -5.50 1.50 l-1.25 -0.95 -13.95 4.20 c-7.65 2.35 -15.85 4.90 -18.15 5.75 -7.95 2.90 -41.30 11.20 -59.05 14.70 -8.55 1.65 -29.25 4.30 -34.05 4.30 -0.45 0 -1.35 0.75 -1.90 1.70 -2.15 3.50 -1 4.45 4.50 3.75 13 -1.65 33.65 -3.95 42.35 -4.70 10.20 -0.85 17.10 -2.20 22.45 -4.30 2.15 -0.80 6.95 -2.25 10.65 -3.15 3.70 -0.95 10.25 -2.60 14.50 -3.70 4.25 -1.10 12.50 -3.15 18.30 -4.55 10.75 -2.60 39.75 -11 50.35 -14.55 7.20 -2.45 12.75 -5.20 16.30 -8.10 4.60 -3.65 6.05 -4.65 14.80 -10.20 4.70 -2.95 9.20 -6.10 10 -6.95 0.85 -0.90 2.20 -3 3 -4.65 1.75 -3.65 3.75 -5 6 -4 2.20 1 2.15 2.55 -0.30 7.55 -1.60 3.25 -2.90 5.10 -4.70 6.70 -1.95 1.75 -2.30 2.35 -1.75 2.65 0.40 0.25 2.35 1.45 4.25 2.70 4.60 3 5.50 3.35 12.25 5.25 6.90 1.95 8 2.55 8 4.55 0 1.10 0.30 1.65 1.15 1.95 1.35 0.55 7.65 3.45 13.10 6.05 7 3.35 13.45 8.25 17.20 13 l1.90 2.35 6.55 -9.80 c3.60 -5.40 7.40 -11.60 8.45 -13.80 l1.90 -4 0 -8.75 c0 -8.35 -0.05 -8.85 -1.10 -10.20 -1.75 -2.15 -1.50 -3.55 0.85 -5.10 l2 -1.35 0 -3.90 c0 -2.35 -0.40 -5.40 -1 -7.55 -0.50 -2 -1.30 -6.55 -1.75 -10.15 -0.50 -4.10 -1.45 -8.45 -2.55 -11.90 -0.95 -2.95 -1.95 -6.55 -2.25 -8 -0.50 -2.45 -0.95 -3 -7.25 -9.15 -7.20 -7.05 -7.80 -8.15 -5.65 -10.15 l1.10 -1 -2.45 -2.90 c-3.70 -4.35 -6 -7.25 -6.65 -8.55 -0.30 -0.60 -1.50 -1.70 -2.55 -2.35 -1.70 -1.10 -2 -1.50 -2 -3.05 0 -1.60 0.20 -1.85 2 -2.60 1.10 -0.45 2 -1 2 -1.20 0 -0.50 -5.70 -8 -7.10 -9.25 -0.60 -0.60 -2.85 -2 -4.90 -3.15 -2.05 -1.15 -4.25 -2.60 -4.85 -3.15 -1.30 -1.20 -1.55 -3.75 -0.40 -4.15 0.40 -0.20 0.75 -0.95 0.75 -1.75 0 -2.75 4.20 -3.95 6.90 -1.95 0.75 0.55 5.20 2.70 9.85 4.80 7.60 3.40 8.65 3.75 9.95 3.25 1.75 -0.65 3.30 0.05 5.80 2.70 0.95 1 4.40 3.40 7.65 5.35 7.10 4.20 8.85 5.60 8.85 7.15 0 1.45 0.75 2.05 3.20 2.45 1.40 0.25 2.75 1.15 4.75 3 1.55 1.40 5.45 4.95 8.75 7.80 3.25 2.85 7.30 6.80 8.95 8.85 2.05 2.50 3.35 3.65 4.10 3.65 2.10 0 3.20 2.05 6.90 13.05 1.25 3.70 3.10 9.90 4.15 13.85 1.80 6.80 1.85 7.25 1.10 8.50 -0.95 1.55 -2.55 1.95 -4.20 1.10 -1.25 -0.70 -1.20 -0.55 -3.20 -8.25 -2.65 -10.25 -4.90 -17 -6.15 -18.65 -3.10 -4 1.20 13.30 7.70 30.90 3.20 8.80 3.80 12.70 2.25 14.45 -1.65 1.85 -4.55 0.85 -5.05 -1.65 -0.40 -2 -2.65 -9.25 -3.25 -10.55 -0.85 -1.75 -5.85 -17.35 -6.80 -21.20 -0.80 -3.15 -1.20 -3.85 -2.55 -4.75 -1.25 -0.80 -1.85 -1.70 -2.45 -3.80 -1.65 -5.70 -8.40 -17.15 -14.30 -24.30 -2.75 -3.35 -3.80 -4.10 -6.75 -4.95 -2.15 -0.60 -12.35 -2.20 -12.55 -2 -0.50 0.45 3.05 10.40 4.45 12.65 0.80 1.25 1.45 2.50 1.45 2.75 0 0.25 0.45 1 1 1.70 0.65 0.80 1 2.05 1 3.35 0 2.65 1.65 6.95 3.55 9.25 0.80 0.95 1.45 2 1.45 2.20 0 0.25 0.55 0.90 1.25 1.45 2.10 1.65 2.55 3.20 5.45 19.65 1.05 5.85 1.35 10.45 1.10 18.25 -0.65 19.90 -1.25 25.10 -3.30 30.25 -0.30 0.85 -1.15 4.10 -1.80 7.25 -1.50 7.20 -3.45 11.35 -6.20 13.25 -1.25 0.85 -2.60 2.50 -3.55 4.20 -0.80 1.55 -3.50 5.05 -5.95 7.80 -2.45 2.75 -4.50 5.30 -4.50 5.65 0 0.85 6.65 14.05 9.95 19.75 1.40 2.45 2.55 4.50 2.55 4.55 0 0.10 1.50 2.75 3.35 5.85 1.80 3.15 3.85 6.65 4.50 7.85 1.10 1.90 1.40 2.10 3.20 2.10 2.70 0 2.85 0.20 6.15 12 0.45 1.50 1.55 4.20 2.50 6 4.35 8.10 9.45 18.30 11.35 22.55 2.10 4.85 6.45 17.60 6.45 19 0 0.45 -0.45 1.40 -1.05 2.15 l-1.05 1.35 3.80 9.35 3.75 9.35 2.15 -0.15 c3.80 -0.25 3.95 0.10 4.15 9.15 0.10 6.30 0.40 9.20 1.45 13.75 0.70 3.15 1.60 7.90 2.05 10.50 0.45 2.60 1.05 5.55 1.30 6.50 1.40 5.65 2.20 9.55 3.45 16.95 0.80 4.55 2 11.35 2.75 15.05 0.70 3.70 1.50 8.20 1.80 10 0.35 1.80 0.80 4.05 1.10 5 0.25 0.95 0.55 7.70 0.65 15 0.15 10.80 0.05 13.70 -0.55 15.70 -0.95 3.15 -0.95 3.05 0.50 3.70 2.50 1.15 2.55 2.70 0.10 16.35 -0.30 1.95 -0.55 3.95 -0.45 4.45 0.05 0.55 -0.30 2.35 -0.85 4 -1.80 5.70 -2.50 10.05 -2.60 16.30 l-0.10 6.20 1.55 0.40 c1.95 0.50 2.25 1.10 3.35 6.15 1.15 5.30 1.75 7.15 4.55 13.30 2.35 5.35 4.55 10.90 6.30 16.20 0.90 2.85 0.90 3.10 0.15 4.60 -0.80 1.50 -0.80 1.90 0.40 8.25 1.65 8.45 2.55 17.85 1.90 19.55 -0.50 1.25 -0.40 3.60 0.20 10.10 0.20 1.65 0.50 8.50 0.70 15.25 0.40 12 0.45 12.45 2.75 22.90 1.25 5.85 2.30 11.30 2.30 12.15 0 2.25 -1.30 4.35 -3.40 5.40 -1.05 0.55 -2.20 1.35 -2.55 1.75 -0.90 1.05 -2.15 1 -3.60 -0.15 -0.80 -0.60 -1.55 -0.80 -2.20 -0.55 -1.35 0.50 -3.60 -0.70 -4.05 -2.10 -0.20 -0.65 -0.40 -3.40 -0.50 -6.15 -0.15 -6.30 -0.60 -8.45 -2.90 -13.90 -3.10 -7.40 -5 -10.85 -9.10 -16.25 -2.20 -2.85 -5 -6.55 -6.30 -8.20 -2.20 -2.90 -4.35 -8.40 -4.40 -11.15 -0.05 -0.55 -0.35 -1.65 -0.70 -2.50 l-0.65 -1.50 -1.05 3.25 c-0.60 1.80 -1.40 5.40 -1.85 8 -0.45 2.60 -1.25 6.85 -1.75 9.35 -0.95 4.30 -1 6.75 -1 35.10 0 16.75 0.25 32.75 0.50 35.60 0.45 4.75 1.95 12.55 3.05 16.15 0.70 2.35 0.55 3.65 -0.75 5.15 -1 1.20 -1.15 1.85 -1 3.90 0.10 1.40 0.30 3 0.45 3.60 1.85 8.05 2.35 13.45 2.40 24.40 0 6.35 -0.10 12.05 -0.25 12.75 -0.20 0.70 -0.70 2.95 -1.15 5 -0.85 3.95 -6.30 15.45 -9.65 20.50 -2.20 3.30 -4.35 4.50 -11.25 6.25 -3.75 0.95 -5.15 1.10 -6.05 0.70 -0.85 -0.40 -1.70 -0.35 -3.35 0.20 -2.40 0.80 -8.85 1.80 -11.25 1.75 -0.85 -0.05 -2.15 0.40 -3 1.05 -1.50 1.10 -1.75 1.10 -14.25 0.95 l-12.70 -0.20 -5.30 -2.30 c-2.95 -1.25 -6.10 -2.85 -7.05 -3.55 -1.05 -0.85 -2.40 -1.35 -3.35 -1.35 -2.85 0 -4.90 -1.35 -6.80 -4.55 -1.95 -3.15 -5.60 -10.80 -6.35 -13.20 -0.85 -2.80 -1.90 -9 -1.90 -11.15 l0 -2.10 -1.85 0.25 c-1.20 0.15 -2.20 0 -2.75 -0.40 -0.45 -0.35 -1.50 -2.65 -2.30 -5.15 -3.55 -10.50 -5 -13.05 -12 -20.85 -1.75 -2 -3.70 -4.60 -4.30 -5.85 -0.75 -1.55 -1.75 -2.65 -3.45 -3.70 -2.20 -1.35 -2.75 -1.45 -6.50 -1.40 -14.50 0.35 -29.10 3.30 -39.65 8.15 -2.70 1.20 -2.80 1.20 -4.60 -0.30 l-1.50 -1.30 -4.70 2.10 c-2.55 1.15 -5.30 2.20 -6.15 2.30 -0.80 0.15 -2.15 0.75 -3 1.30 -3.75 2.55 -4.70 4.30 -1.75 3.30 1.70 -0.65 3.35 0.10 3.95 1.70 0.50 1.25 -0.30 3.10 -1.90 4.55 -1.60 1.45 -3.40 4.85 -3.75 7.05 -0.35 2.60 -0.75 10.30 -1 21.25 -0.25 8.65 -1 14.75 -2.55 19.95 -1.50 4.90 -7.15 9 -19 13.80 -1.90 0.80 -4.10 1.85 -4.85 2.35 -2.15 1.45 -4.45 2.30 -11.55 4.10 -8.35 2.20 -16.40 3.80 -18.85 3.80 -1.85 0 -4.15 0.70 -10.75 3.25 -4.30 1.70 -11.55 2.10 -16.85 1z m4.40 -10.80 c0.75 -0.80 1.30 -0.95 2.70 -0.70 5.10 0.90 6.75 0.85 10.50 -0.50 9.75 -3.50 15.80 -5.30 22.25 -6.50 11.20 -2.10 13.90 -2.70 14.75 -3.50 0.50 -0.45 2.35 -1.20 4.20 -1.70 1.85 -0.50 3.75 -1.30 4.25 -1.75 0.60 -0.55 1.60 -3.55 2.80 -8.35 l1.85 -7.50 -0.85 -3.10 c-0.80 -2.90 -1.65 -12.65 -1.75 -19.70 0 -2.55 0.20 -3.30 1.20 -4.50 1.25 -1.45 1.55 -2.90 2.05 -9.40 0.30 -3.85 0.85 -4.95 4.25 -8.25 1.25 -1.25 2.90 -3.30 3.60 -4.55 1.70 -2.90 3.50 -4.15 5.50 -3.75 1.10 0.20 2.60 -0.30 6.30 -2.15 6.05 -3 9.70 -4.20 11.50 -3.80 1.05 0.20 2.65 -0.30 6.60 -2.20 8.45 -4 10.55 -4.50 21 -5.10 5.10 -0.30 12.05 -0.40 15.50 -0.25 3.45 0.20 9.15 0.45 12.75 0.60 5.05 0.20 6.80 0.45 8 1.15 0.80 0.50 2.80 1.05 4.45 1.20 4.35 0.45 5.95 2.50 4.05 5.20 -0.55 0.80 -1.40 1.15 -3 1.25 -2.70 0.20 -3.20 1.10 -0.75 1.30 2 0.20 3.50 1.35 3.50 2.65 0 0.60 0.65 1.20 1.65 1.65 1.90 0.75 4.55 3.70 6.30 6.90 0.65 1.15 1.85 3.35 2.65 4.80 0.75 1.40 2.10 4.35 2.90 6.50 3.05 7.70 3.05 7.70 16.20 18.20 3.05 2.40 4.35 3.85 5.55 6.10 0.95 1.85 2 3.15 2.75 3.40 2.30 0.85 2.70 3.35 0.95 5.25 -1.30 1.35 -1.90 1.05 7.05 3.10 8.85 2 13.65 2.55 22.75 2.55 8.50 0 13 -0.75 16.75 -2.80 2.10 -1.15 2.70 -1.25 3.70 -0.80 0.65 0.30 1.35 1 1.55 1.55 0.40 1.30 1.25 1.30 3.75 0.05 2.80 -1.45 4.45 -4.55 5.50 -10.40 1.30 -7.10 2.30 -10.60 3.60 -12.30 0.85 -1.20 1.10 -2.15 1.05 -4.30 -0.30 -15.60 -1.20 -37.05 -1.65 -40.25 -0.35 -2.20 -0.60 -4.65 -0.55 -5.50 0.20 -6.50 0 -9.60 -1 -13.35 -0.60 -2.30 -1.30 -5.15 -1.50 -6.40 -0.20 -1.25 -0.75 -4.15 -1.15 -6.50 -1.20 -6.85 -1.75 -13.05 -2.15 -25 -0.55 -15.50 -0.40 -30.75 0.35 -33.40 0.45 -1.80 0.45 -2.35 -0.15 -3 -1.05 -1.25 -1.30 -2.85 -0.80 -4.95 0.25 -1.05 0.90 -4.10 1.45 -6.75 0.55 -2.90 1.50 -5.80 2.25 -7.10 1.30 -2.20 2.60 -8.05 4.55 -20.55 0.45 -2.80 1.15 -5.40 1.60 -5.85 0.90 -1.10 3.20 -1.15 5 -0.20 0.75 0.40 1.95 0.85 2.70 1 0.75 0.20 1.60 0.60 1.90 0.95 2.50 2.95 6.20 8 7.15 9.85 0.65 1.25 1.80 3.25 2.55 4.50 2.80 4.65 8.20 16.05 9.95 21.05 4.15 11.65 5.50 17.50 4.35 18.20 -0.80 0.50 -0.60 2.25 0.45 3.70 0.55 0.75 1.15 1.95 1.30 2.70 0.20 0.70 0.65 1.55 1.05 1.90 0.60 0.45 0.70 0.30 0.70 -1.10 -0.05 -0.95 -0.40 -3.05 -0.80 -4.70 -0.45 -1.65 -1.10 -4.55 -1.50 -6.50 -0.40 -1.90 -1.10 -4.90 -1.50 -6.65 -1.55 -6.65 -5.15 -25.65 -6.15 -32.35 -1.40 -9.70 -1.55 -11.25 -1.90 -17.50 -0.25 -5.10 -0.20 -5.55 0.75 -6.45 0.60 -0.50 1.60 -0.95 2.30 -1 1.55 -0.05 1.70 -1.45 0.50 -4.55 -0.45 -1.10 -0.95 -2.90 -1.20 -4 -1.15 -5.80 -1.55 -7.25 -2.55 -9.75 -0.65 -1.50 -2.35 -4.85 -3.80 -7.35 -2.55 -4.50 -2.65 -4.75 -2.65 -8.40 0 -2.40 -0.30 -4.35 -0.75 -5.25 -0.60 -1.20 -0.65 -2.10 -0.25 -4.95 0.25 -1.90 0.75 -4.05 1.05 -4.75 0.75 -1.65 0.30 -2.80 -1 -2.45 -0.60 0.15 -1.60 -0.10 -2.30 -0.55 -1.50 -1 -1.55 -2.15 -0.50 -10.05 1 -7.65 1 -22.40 0 -23.25 -0.55 -0.45 -0.75 -1.75 -0.75 -5.45 0 -2.65 -0.35 -10.40 -0.80 -17.30 -0.40 -6.85 -0.85 -14.40 -1 -16.75 -0.15 -2.35 -0.50 -5.45 -0.75 -6.95 -0.65 -3.75 -0.55 -8.75 0.10 -9.40 0.55 -0.55 0.60 -2.55 0.20 -9.40 -0.05 -1.10 -0.50 -5.70 -0.95 -10.25 -0.70 -6.60 -1.25 -9.45 -2.80 -14.25 -1.05 -3.30 -2.35 -7.55 -2.95 -9.50 -0.60 -1.90 -1.40 -4.05 -1.75 -4.75 -0.65 -1.15 -0.70 -0.85 -0.45 2.80 0.25 3.85 0.20 4.10 -0.90 4.90 -1.50 1.05 -2.10 1 -3.45 -0.10 -0.70 -0.60 -1.25 -1.80 -1.55 -3.40 -0.20 -1.35 -0.50 -3 -0.65 -3.70 -0.15 -0.70 -0.35 -2.05 -0.50 -3 -0.10 -0.95 -0.45 -3 -0.70 -4.50 -0.30 -1.50 -0.65 -3.55 -0.80 -4.50 -1.55 -9.10 -8.15 -33 -10.85 -39.35 -2.50 -5.90 -8.45 -17.80 -11.40 -22.90 -0.95 -1.65 -3.60 -6.70 -5.90 -11.25 l-4.20 -8.25 0.35 3.75 c0.20 2.05 0.55 4.25 0.75 4.90 0.70 1.85 0.50 4.45 -0.35 5.30 -0.95 1 -3.40 1.05 -4.35 0.05 -0.75 -0.70 -2.35 -6.90 -2.35 -8.95 0 -1.50 -2.30 -12.95 -3.25 -16.30 -2.35 -8.10 -4.95 -13.55 -10.05 -20.80 -3 -4.35 -3.45 -4.75 -4.65 -4.55 -1.35 0.25 -2.15 -0.15 -12.30 -5.80 -5.85 -3.30 -9.85 -6.10 -25.05 -17.40 -15.35 -11.45 -19.60 -15.10 -21.40 -18.45 l-1.35 -2.50 -2.10 1.45 c-1.15 0.80 -3.65 2.70 -5.55 4.30 -5.55 4.55 -13.50 8.10 -28.05 12.50 -19.20 5.85 -33.95 10.05 -42.35 12.05 -4.20 1 -12.05 2.95 -17.40 4.30 -5.35 1.40 -12 3.05 -14.75 3.70 -2.75 0.65 -7.55 2.05 -10.65 3.20 -6.85 2.45 -13.85 3.70 -26.10 4.75 -8.50 0.75 -31.55 3.35 -35.40 4 -1.25 0.25 -1.85 0.75 -2.65 2.35 -1.50 2.95 -2.35 3.65 -4.50 3.65 -1.45 0 -2.40 -0.45 -4.40 -2.15 l-2.50 -2.10 -5.15 0.75 c-2.85 0.40 -8.20 1.05 -11.90 1.45 -23.90 2.65 -27.40 2.90 -33.35 2.65 -4.50 -0.15 -6.35 -0.05 -6.95 0.40 -0.80 0.55 -0.80 0.65 0.25 1.20 1.95 1.05 2.20 2.80 0.80 5.55 -0.70 1.35 -1.25 2.90 -1.25 3.45 0 1.70 -1.10 3.55 -2.35 3.85 -1.55 0.40 -2.40 0 -3.40 -1.50 -0.65 -1 -0.75 -1.70 -0.30 -3.90 0.25 -1.45 0.65 -3.05 0.85 -3.60 0.30 -0.80 0.25 -0.85 -0.70 -0.35 -0.60 0.35 -1.10 0.80 -1.10 1.05 0 0.25 -1.40 2.15 -3.15 4.20 -2.25 2.70 -3.40 4.70 -4.25 7.15 -0.65 1.85 -3 6.55 -5.20 10.40 -2.25 3.85 -4.60 7.90 -5.20 9 -0.65 1.10 -1.75 3.55 -2.45 5.40 -0.70 1.85 -1.60 3.90 -2 4.50 -0.90 1.45 -6.65 15.70 -8.90 22.10 -1.95 5.60 -5.10 16.60 -5.55 19.25 -0.15 0.95 -0.40 5 -0.60 9 -0.15 4 -0.35 7.35 -0.45 7.50 -0.10 0.15 -0.55 3.65 -1 7.75 -0.45 4.15 -1.25 10.20 -1.80 13.50 -0.50 3.30 -0.95 7.55 -0.95 9.40 0 2.05 -0.30 3.80 -0.70 4.50 -0.60 0.90 -0.65 2.25 -0.30 7.35 0.80 11.60 1.60 17.15 2.60 18 0.55 0.40 1.40 2.45 1.95 4.65 0.55 2.20 1.45 4.75 1.95 5.75 0.55 1 1 2.30 1 2.85 0 1.20 2.30 8.90 4.80 16.25 2 5.80 4.30 10.50 6.90 14.15 1.55 2.10 1.70 2.55 1.20 3.90 -0.65 1.90 -0.50 2.45 2.50 9.70 4.10 9.85 6.55 15.25 8.65 18.80 2.20 3.80 2.40 5.35 0.95 6.70 -0.55 0.50 -1 1.15 -1 1.45 0 0.50 1.60 4.45 4.60 11.20 0.50 1.20 1.40 3.45 1.95 5 0.60 1.60 1.35 3.55 1.70 4.35 0.35 0.85 0.90 2.30 1.20 3.30 0.35 1 1.50 2.70 2.55 3.80 1.55 1.50 2.10 2.55 2.50 4.55 0.60 3.15 2.55 7.45 11.80 25.85 3.85 7.70 7.45 15.15 7.95 16.60 0.95 2.70 0.85 3.35 -0.85 5.75 -0.50 0.70 -0.45 1.15 0.25 2.35 1.05 1.80 0.90 7.50 -0.70 24.30 -0.70 6.85 -1.10 15.60 -1.20 25.25 -0.20 15.40 0 18.10 2.20 28 0.60 2.60 1.05 4.75 1.05 4.85 0 0.05 0.30 0 0.65 -0.10 0.45 -0.20 0.60 -3.15 0.60 -12.40 0 -11.70 0.05 -12.15 1.15 -14.30 0.65 -1.25 2 -3.20 3.05 -4.35 2.35 -2.70 4 -8.65 3.10 -11.20 -0.90 -2.70 -0.70 -4.30 0.80 -5.50 0.85 -0.65 1.75 -0.95 2.45 -0.80 0.60 0.15 1.75 -0.05 2.55 -0.55 2.45 -1.40 3.85 -0.60 6.55 3.60 2.20 3.50 2.45 3.75 4.15 3.75 1.15 0 2.10 0.35 2.65 0.95 0.85 0.95 3.40 8.30 3 8.65 -0.20 0.25 1.80 5.45 4.25 11.15 1.15 2.75 1.80 3.65 3 4.10 2.10 0.90 2.80 2.20 3.75 7.40 0.50 2.50 1.55 6.40 2.35 8.75 2.55 7.20 4.85 17.35 6.50 28.75 0.30 1.95 0.70 9.15 0.90 16 0.20 6.90 0.50 12.80 0.70 13.10 0.35 0.50 2 11.75 2.60 17.40 0.15 1.65 0.50 4.70 0.75 6.75 0.25 2.05 0.50 6 0.55 8.75 0.25 9.55 0.30 9.25 -1.20 10.55 -1.75 1.50 -1.80 3.70 -0.05 10.65 1.70 6.70 2.25 7.95 4.75 10.85 1.90 2.20 2 2.50 1.70 4.55 -0.30 2.20 -0.30 2.25 2.60 5.15 3.15 3.15 3.95 3.45 13.90 5.75 6.25 1.45 6.90 1.50 8.05 0.20z m223.70 -18.90 c-0.95 -0.25 -3.30 -0.70 -5.25 -1.05 -1.90 -0.35 -6.25 -1.25 -9.60 -2.05 -3.35 -0.80 -6.95 -1.45 -8 -1.45 -1.80 0.05 -1.85 0.10 -0.95 0.75 0.55 0.40 1.45 0.75 2 0.75 0.60 0 2.95 0.80 5.30 1.75 4.20 1.70 4.35 1.75 11.25 1.70 4.45 -0.05 6.35 -0.20 5.25 -0.40z m-25.55 -15.15 c-0.10 -1.95 -3.10 -5.35 -7.95 -9.05 -4.75 -3.60 -5.25 -3.90 -5.40 -2.90 -0.35 2.20 2 5.65 5.65 8.40 4.95 3.75 7.80 5.05 7.70 3.55z m-125.95 -8.85 c0 -0.85 -0.45 -2.25 -0.95 -3.15 -0.50 -0.90 -1.10 -2.40 -1.30 -3.25 -0.35 -1.70 -0.60 -1.85 -1.95 -1.35 -0.60 0.25 -0.80 1 -0.80 2.90 0 2.35 0.15 2.65 1.55 3.45 0.85 0.45 1.65 1.30 1.80 1.85 0.40 1.60 1.65 1.20 1.65 -0.45z m-144.35 -115.65 c0.15 -0.65 0.45 -2.45 0.60 -4 0.35 -2.70 0.30 -2.90 -0.65 -2.90 -1.10 0 -1.25 0.50 -1.75 5.35 -0.25 1.90 0.05 2.45 1.20 2.60 0.20 0.05 0.45 -0.45 0.60 -1.05z m364 -43.50 c0.20 -1.35 -0.05 -2.40 -1 -4.25 -0.70 -1.30 -1.60 -2.75 -2 -3.15 -0.70 -0.65 -0.75 -0.60 -0.45 0.50 0.20 0.70 0.55 2.90 0.80 4.90 0.25 2.05 0.60 4.15 0.80 4.70 0.30 0.95 0.30 0.95 0.90 0.05 0.35 -0.50 0.80 -1.70 0.95 -2.75z m-386.65 -12.85 c0 -1 -0.30 -1.50 -1 -1.70 -0.85 -0.20 -1 -0.10 -0.75 0.80 0.20 0.60 0.45 1.50 0.60 2 0.35 1.30 1.15 0.50 1.15 -1.10z m403 -7.05 c0 -0.95 -0.30 -2.35 -0.70 -3.10 -0.40 -0.75 -1 -2.60 -1.30 -4.15 -0.65 -3.10 -1.25 -3.75 -0.80 -0.85 0.15 1 0.40 3.10 0.55 4.60 0.35 3.20 0.75 5.55 1.10 6.20 0.45 0.70 1.15 -0.90 1.15 -2.70z m-458.85 -131.25 c-0.85 -2.95 -1.75 -7.10 -2.65 -12.25 -0.40 -2.05 -1.25 -4.65 -1.90 -5.75 l-1.15 -2 0.30 2.25 c0.80 5.70 3.90 20 4.55 21.10 0.15 0.20 0.55 0.10 0.90 -0.20 0.55 -0.50 0.50 -1.10 -0.05 -3.15z m-15.15 -80.40 c0 -4.45 0.60 -6.60 2.30 -8.40 1.30 -1.35 1.35 -1.55 1.75 -10.55 0.45 -10.35 1.15 -17.95 2.15 -23.70 l0.75 -3.95 -1.85 -1.50 c-2.55 -2.10 -6.75 -6.30 -7.35 -7.45 -0.45 -0.75 -0.75 -0.85 -1.50 -0.45 -0.60 0.30 -1.60 0.35 -2.55 0.10 -1.30 -0.35 -1.75 -0.95 -2.90 -3.55 -1.15 -2.75 -2.25 -4.05 -8.95 -10.45 -12.30 -11.80 -17.95 -20.80 -15 -24.05 0.75 -0.85 0.65 -1.20 -2 -6.25 -5.55 -10.75 -7.05 -18.75 -6 -31.45 1.05 -12.40 3.40 -21 8.60 -31.30 4.55 -8.95 5.75 -10.70 11.90 -16.95 2.90 -2.95 5.05 -5.45 4.85 -5.60 -0.80 -0.45 -4.15 1.20 -4.45 2.20 -0.30 0.95 -5.45 5.45 -6.25 5.45 -0.25 0 -0.75 0.30 -1.10 0.65 -0.35 0.30 -2 1.60 -3.65 2.80 -5.50 4.10 -11.15 9 -13.10 11.40 -5 6.25 -18.20 21.15 -18.65 21.15 -0.70 0 -6.45 9.35 -9.75 15.90 -6 11.90 -6.65 14.95 -5.80 27.60 0.75 11.05 2.75 17.15 8.60 26.05 1.65 2.50 3.10 5.25 3.30 6.10 0.30 1.75 3.35 6.45 14.10 21.60 3.85 5.50 9.55 13.55 12.60 17.90 5.55 7.80 8.35 10.75 13.70 14.35 1.40 0.95 4.55 3.30 7 5.25 8 6.35 9.30 7.25 10.40 7.25 1.05 0 2.30 0.55 6.35 2.85 0.95 0.55 1.90 0.90 2.15 0.80 0.20 -0.10 0.35 -1.85 0.35 -3.80z m-53 -33.95 c0 -0.90 -4.65 -7.85 -5.45 -8.15 -1.45 -0.55 -1.10 0.40 1.60 4.50 2.65 3.95 3.85 5.10 3.85 3.65z m454.65 -62.10 c0.30 -0.75 -0.90 -2.75 -1.30 -2.30 -0.40 0.35 0.20 3 0.65 3 0.20 0 0.50 -0.30 0.65 -0.70z m-429.30 -8.15 c-1.35 -7 -1.45 -9.25 -1.25 -25.95 0.15 -16.15 0.10 -17.70 -0.65 -17.70 -1.05 0 -1.50 1.10 -0.90 2.05 0.75 1.20 0.50 2.25 -1.10 4.25 -1.40 1.75 -1.55 2.20 -1.30 4.70 0.20 2.65 -0.35 5 -1.25 5 -0.65 0 -0.45 6.90 0.40 11.65 0.40 2.45 1.40 6.40 2.15 8.75 0.80 2.40 1.60 5 1.80 5.85 0.60 2.70 2.60 4 2.10 1.40z m116.85 -22.15 c16.50 -1.80 26.55 -3.05 26.95 -3.50 0.25 -0.20 -0.15 -1.55 -0.85 -2.95 l-1.30 -2.55 -2.60 0 c-1.40 0 -4 -0.25 -5.75 -0.55 -2.60 -0.45 -5.15 -0.35 -14.15 0.55 -7.15 0.70 -13 1.05 -16.65 0.90 -5 -0.20 -6.25 -0.45 -11.55 -2.30 -3.30 -1.15 -6.10 -2 -6.25 -1.85 -0.45 0.50 -2.05 4.95 -2.05 5.80 0 1.05 4.65 4.80 7.75 6.25 2.25 1.10 3.20 1.20 9.70 1.20 3.95 0 11.50 -0.45 16.75 -1z m-157.70 -19 c3.20 -4.95 9.65 -12.55 15.90 -18.80 5 -5 5.10 -5.10 4.55 -6.65 -0.30 -0.85 -0.80 -1.55 -1.10 -1.55 -0.75 0 -13.80 13 -14.15 14.15 -0.15 0.55 -1.45 2.65 -2.85 4.70 -3.05 4.55 -7.40 13.15 -7 13.80 0.35 0.60 1.30 -0.50 4.65 -5.65z m438.55 3.15 c-0.85 -1.60 -15.30 -17.85 -18 -20.25 -1.45 -1.30 -5.20 -3.70 -8.55 -5.40 l-6 -3.05 -1.45 1.10 c-1.90 1.40 -4.05 0.95 -5.25 -1.10 -1 -1.65 -2.75 -2.60 -3.55 -1.90 -0.65 0.65 1.20 2.15 22.80 18.20 8.40 6.25 19 13.25 20.05 13.25 0.25 0 0.20 -0.40 -0.05 -0.85z m-268.70 -4 c3.35 -0.45 6.35 -0.95 6.70 -1.15 0.75 -0.50 0.15 -3.95 -0.75 -4.30 -0.30 -0.10 -8 1.10 -17.10 2.80 -9.05 1.65 -17.05 3 -17.80 3 -0.80 0 -1.40 0.20 -1.40 0.50 0 0.75 23.25 0.10 30.35 -0.85z m44.25 -8.90 c14.35 -3.20 26.20 -5.90 26.35 -6.05 0.15 -0.15 0.05 -0.55 -0.20 -0.90 -6.20 -8.45 -11.65 -18.30 -13.85 -25.05 -1.35 -4.15 -4.45 -18.75 -5.35 -25.25 -0.90 -6.60 -1.95 -19 -2.25 -26.70 -0.20 -4.40 -0.55 -7.75 -0.90 -8.15 -0.40 -0.45 -0.45 -2.05 -0.15 -5.30 0.55 -6.55 0.55 -7.75 -0.15 -15.85 -0.35 -4 -0.70 -9.05 -0.75 -11.20 -0.05 -2.50 -0.30 -4.05 -0.70 -4.15 -0.55 -0.20 -3.10 3.30 -10.75 14.60 -2.85 4.25 -3.50 5.65 -4.35 9.25 -2 8.55 -3.10 16.60 -3.20 23.45 -0.10 5.55 -0.30 7.15 -1 8.25 -1.20 1.80 -3.40 1.75 -4.85 -0.05 -1.05 -1.30 -1.10 -1.75 -0.75 -6.30 0.30 -4.55 0.25 -4.95 -0.55 -4.75 -0.60 0.10 -1.10 0.95 -1.50 2.65 -3.65 15.40 -4.15 18 -4.45 22.75 -0.20 2.90 -0.45 6.25 -0.60 7.50 -0.40 3.45 -0.95 38.90 -0.65 41.85 0.40 3.85 0.70 4 5.70 2.70 6.75 -1.70 8.35 -1.30 8.30 2.05 -0.05 2.45 -1.55 3.40 -7.25 4.65 -2.20 0.50 -4.20 1.05 -4.40 1.25 -0.65 0.60 0.60 4.50 1.40 4.50 0.40 0 12.50 -2.60 26.85 -5.75z m232.10 5.35 c0.50 -0.80 -4.35 -4.65 -6.70 -5.35 -1 -0.30 -0.65 0.30 1.75 2.70 2.75 2.85 4.30 3.65 4.95 2.65z m-316.20 -0.85 c7.10 -1.15 43.70 -7.85 43.95 -8.05 0.20 -0.20 -0.35 -3.70 -1.70 -10.70 -1.80 -9.35 -1.85 -9.50 -2.75 -9.50 -0.50 0 -1.40 -0.40 -2 -0.90 -1.45 -1.15 -1.45 -4.35 0.05 -8.35 0.95 -2.70 1.10 -3.85 1 -11 -0.20 -13.60 1.20 -20.40 4.45 -21.75 1.45 -0.60 1.85 -0.60 3.05 0.15 1.05 0.60 1.50 0.65 1.80 0.20 0.20 -0.35 0.55 -3.40 0.75 -6.85 0.15 -3.45 0.55 -7.80 0.85 -9.75 0.40 -3 4.35 -15 8.80 -26.75 0.65 -1.80 2.15 -6.40 3.25 -10.25 2.60 -8.65 6 -16 8 -17.15 1.10 -0.65 1.85 -1.90 3.30 -5.60 1 -2.60 2.60 -6.60 3.60 -8.90 1.85 -4.45 1.90 -5.80 0.05 -2.75 -2 3.30 -9 10.10 -14.45 14.05 -10.25 7.45 -14.05 10.70 -15.25 13.15 -1.05 2.05 -1.45 2.35 -3.15 2.55 -1.45 0.20 -3.15 1.20 -6.40 3.75 -2.45 1.95 -7.15 5.35 -10.50 7.55 -6 4.05 -8.05 6.05 -11.45 11.20 -1.20 1.80 -2.25 2.80 -3.40 3.20 -1.40 0.45 -2 1.30 -4.85 6.85 -1.80 3.45 -3.45 6.50 -3.65 6.70 -0.25 0.20 -1.25 0.40 -2.25 0.40 -1.75 0 -1.90 0.15 -3.45 3.25 -3.65 7.35 -7.85 20.25 -8.40 25.75 -0.15 1.65 -0.65 3.50 -1.05 4.15 -0.65 1 -1.10 1.15 -3.10 1 -2.30 -0.15 -2.35 -0.15 -3 1.85 -0.40 1.10 -0.85 4.05 -1.10 6.60 -0.20 2.50 -0.50 4.80 -0.65 5 -0.55 0.90 -1.85 12.50 -2 17.45 l-0.10 4.95 2.95 7.30 2.90 7.30 4.60 2.30 c2.50 1.25 5 2.30 5.55 2.30 0.55 0.05 3.15 -0.30 5.75 -0.70z m117.15 -1.30 c1.90 -0.50 1.90 -0.55 1.05 -1.50 -1.15 -1.25 -1.40 -1.20 -3.30 0.55 -1.40 1.25 -1.50 1.45 -0.65 1.50 0.55 0 1.85 -0.25 2.90 -0.55z m10.25 -5.10 c0.10 -0.55 -0.15 -0.85 -0.80 -0.85 -1 0 -1.80 1.15 -1.20 1.70 0.55 0.60 1.85 0.05 2 -0.85z m10.85 -0.10 c1.20 -0.40 1.60 -0.65 1 -0.70 -0.55 -0.05 -1.45 -0.40 -2 -0.80 -0.65 -0.50 -1.55 -0.65 -2.75 -0.45 -3 0.50 -3.10 0.55 -2.40 1.70 0.75 1.20 3.05 1.30 6.15 0.25z m9.55 -2.50 c6.50 -1.75 12.40 -3.75 12.05 -4.05 -0.15 -0.20 -13.50 2.45 -16.05 3.20 -1.20 0.30 -3.55 2.60 -2.70 2.60 0.15 0 3.15 -0.80 6.70 -1.75z m-19.60 -5 c3.55 -0.70 6.65 -1.40 6.85 -1.55 0.25 -0.15 0.45 -1.65 0.45 -3.35 0 -3.15 0.65 -6.90 2.60 -15.35 0.60 -2.70 1.15 -7.05 1.25 -10.15 l0.20 -5.40 -1.50 -1.40 c-1.75 -1.65 -2.10 -4 -0.75 -5.10 0.75 -0.60 0.80 -1.55 0.55 -7.20 -0.15 -3.55 -0.50 -7.15 -0.75 -8 -0.25 -0.80 -0.75 -3.05 -1.10 -5 -1.75 -9.85 -3.05 -14.50 -4.25 -15.40 -1.30 -1 -1.70 -3.55 -0.80 -5.25 0.25 -0.50 0.20 -1.80 -0.20 -3.35 -3.75 -15.05 -4 -17.15 -1.95 -18.50 1.65 -1.10 1.50 -1.90 -2 -11.05 -3.30 -8.70 -3.65 -9.35 -10.80 -23.75 -6.90 -13.85 -10.35 -19.95 -11.25 -19.95 -0.95 0 -1.40 0.80 -3.95 7 -2.35 5.70 -2.35 5.85 -2.60 12.50 -0.10 3.70 -0.40 8.65 -0.65 11 -0.30 2.35 -0.50 4.60 -0.50 5 0 1.20 -0.55 13.95 -0.80 18 -0.25 3.95 0.95 20.55 1.75 24.65 0.30 1.35 0.50 3.05 0.50 3.80 0 0.75 0.80 5.65 1.75 10.85 0.95 5.20 2.65 14.50 3.75 20.70 1.15 6.35 2.75 13.10 3.60 15.50 0.80 2.35 2.25 6.45 3.25 9.20 0.95 2.70 2.25 6 2.90 7.25 0.65 1.25 1.20 3 1.15 3.80 -0.10 2.65 1.60 7.35 3.15 8.80 0.80 0.75 1.45 1.70 1.45 2.15 0 1.10 1.10 1.05 8.70 -0.45z m28.05 -5.45 c7.55 -1.65 26.35 -5.80 30.30 -6.75 2.60 -0.60 2.95 -0.90 2.95 -2.65 0 -1.55 -3.35 -16 -4.80 -20.65 -1.15 -3.70 -3.15 -9.20 -4.25 -11.60 -0.50 -1.20 -0.95 -2.30 -0.95 -2.50 0 -0.70 -6.50 -11.90 -13 -22.40 -3.75 -6.05 -8.25 -13.70 -10 -17 -7.20 -13.70 -8.85 -16.55 -17.45 -29.75 -0.95 -1.50 -2.20 -3.60 -2.70 -4.60 -0.80 -1.65 -2.15 -2.75 -2.70 -2.25 -0.10 0.15 0.20 1.20 0.60 2.40 3.65 9.80 8.35 28.70 9.50 38.20 0.65 5.45 2.80 19.05 3.55 22.25 0.35 1.60 1 5.65 1.70 10.60 0.60 3.85 0.30 8.10 -1.05 14.90 -0.70 3.60 -0.90 33.50 -0.20 33.50 0.30 0 4.10 -0.75 8.50 -1.70z m42.40 -11 c-0.15 -0.65 0.15 -1.80 0.70 -2.60 0.75 -1.20 0.90 -2.40 0.90 -7.70 -0.05 -5.75 -0.15 -6.65 -1.70 -11.25 -1.75 -5.25 -2.95 -8 -3.35 -7.60 -0.15 0.10 0 1.20 0.25 2.40 0.85 3.90 1.30 11.50 1.20 19.70 -0.05 5.25 0.10 8.10 0.45 8.30 0.95 0.60 1.75 -0.05 1.55 -1.25z m26.35 -0.35 c4.65 -1.25 6.65 -2.45 11.95 -7.15 4.40 -3.90 3.85 -3.65 14.30 -6.75 1.95 -0.55 4.65 -1.60 6 -2.30 l2.50 -1.25 -2 0.25 c-5.45 0.65 -15.35 4.90 -23.50 10.10 -2.50 1.55 -7.10 4.15 -10.25 5.75 -5.80 2.95 -5.75 3.10 1 1.35z m-9.25 -5.10 c3.80 -1.60 7.40 -3.30 8 -3.65 3.40 -2.40 15 -9 17.95 -10.25 1.95 -0.85 4 -1.70 4.55 -1.95 1.05 -0.45 5.95 -1.95 9.65 -2.95 1.75 -0.50 2.10 -0.80 1.85 -1.45 -1.30 -3.20 -1.35 -3.65 -0.55 -4.85 0.45 -0.65 0.80 -1.75 0.80 -2.35 0 -2.75 -2.65 -8.90 -6.20 -14.40 -2.05 -3.15 -6.05 -9.55 -8.85 -14.20 -6.60 -10.90 -8.95 -13.70 -19.80 -23.85 -5.25 -4.90 -7.50 -6.35 -13.80 -9 -7.05 -2.90 -11.90 -5.95 -20.10 -12.50 -15 -12 -19.10 -14.65 -28.75 -18.70 -1.80 -0.75 -6.05 -2.60 -9.50 -4.15 -7.60 -3.35 -20 -8.10 -20 -7.60 0 0.20 1.60 1.90 3.60 3.80 6.55 6.25 13.10 13.35 18.15 19.70 2.70 3.45 6.55 7.95 8.50 10 5.20 5.45 8.45 10.10 14.50 20.50 2.95 5.10 6.55 10.95 8 13 1.40 2.05 3.60 5.20 4.85 7 3.60 5.20 5.75 9.85 10 21.70 8.50 23.65 9.40 27.35 8.45 34.50 -0.35 2.35 -0.45 4.55 -0.30 4.80 0.35 0.55 0.35 0.55 9 -3.15z m-288.10 -7.95 c0.95 -0.50 0.95 -1.45 0.05 -1.75 -0.30 -0.10 -1.40 0.55 -2.50 1.40 l-1.95 1.55 1.75 -0.35 c0.95 -0.20 2.15 -0.60 2.65 -0.85z m258.85 -24.25 c-0.55 -1.25 -1 -2.65 -1 -3.10 0 -0.45 -0.90 -3.50 -2 -6.80 -3.95 -11.70 -11.75 -25.85 -28.15 -50.75 -2.90 -4.50 -5.20 -7.15 -10.05 -11.90 -3.45 -3.35 -6.65 -6.10 -7.10 -6.10 -0.60 0 -0.40 0.50 0.90 2.15 1.85 2.25 5.95 8.45 12 18.10 4 6.45 5.65 9.35 11 19.65 3.45 6.60 4.45 8.25 12.60 21.20 2.35 3.80 4.30 6.95 4.30 7.10 0 0.10 0.95 1.75 2.10 3.60 1.85 3.10 3.55 6.55 5 10.20 l0.50 1.25 0.45 -1.15 c0.35 -0.90 0.20 -1.80 -0.55 -3.45z m187.50 -33.70 c0 -0.75 -3.45 -5.45 -4.05 -5.45 -0.70 0 -0.55 0.85 0.55 3 1.20 2.35 3.50 3.95 3.50 2.45z m-35.20 -30.40 c-1.80 -2 -8.20 -5.90 -14.40 -8.75 -3.55 -1.65 -6.55 -2.85 -6.70 -2.65 -0.35 0.35 1.15 2.25 4.65 6 3.45 3.70 6 4.70 15.90 6.50 1.40 0.25 1.55 0 0.55 -1.10z m-257.50 -8 c2.55 -6.10 5.15 -17.20 3.70 -15.75 -0.80 0.80 -7.05 19.25 -6.70 19.80 0.60 0.95 1.35 0 3 -4.05z m-18.50 -12.75 c1.90 -1.50 3.85 -3.15 4.30 -3.75 0.85 -1 0.80 -1 -0.80 -0.95 -0.90 0.05 -1.85 -0.10 -2.10 -0.25 -0.75 -0.45 -1.40 0.15 -3.60 3.60 -3.25 5.05 -2.80 5.30 2.20 1.35z m22.40 -24.05 c1.45 -3.15 1.60 -3.75 0.65 -3.75 -1 0 -2.35 2.70 -2.35 4.70 0 1 0.10 1.80 0.20 1.80 0.10 0 0.75 -1.25 1.50 -2.75z m-105.85 -34 c8.70 -1.50 21.55 -4.30 27.90 -6 2.50 -0.70 5.10 -1.25 5.80 -1.25 1.75 0 3.15 1.60 2.85 3.25 -0.15 0.70 -0.15 1.35 0.05 1.45 0.15 0.10 3.45 -0.20 7.30 -0.70 6.75 -0.85 11.65 -2.35 17.25 -5.25 0.70 -0.35 3.90 -1.95 7.15 -3.50 4.25 -2 6.55 -3.45 8.10 -5.05 2.65 -2.70 4.15 -2.85 5.90 -0.60 l1.25 1.60 2.35 -1.95 c3.20 -2.60 6.35 -6.65 6.15 -7.90 -0.30 -2.05 -9.80 -3.20 -12.95 -1.60 -1.20 0.65 -2.25 0.70 -5.60 0.35 -4.40 -0.50 -14.85 0 -21.85 0.95 -5.10 0.75 -5.85 0.70 -6.95 -0.20 -0.45 -0.35 -2 -0.95 -3.50 -1.25 -6.95 -1.55 -21.40 2.40 -35.45 9.65 -5.60 2.90 -7.40 4.20 -8.85 6.45 -0.85 1.30 -0.85 1.35 0.20 2.50 0.55 0.60 1.05 1.75 1.05 2.55 0 3.20 -3.35 4.25 -6.30 2 l-1.70 -1.30 -1 1.65 c-1.10 1.85 -1.70 4.15 -1.25 4.90 0.50 0.80 4.20 0.60 12.10 -0.75z m112.40 -22.85 c0.70 -1.80 0.60 -2.40 -0.55 -2.40 -0.40 0 -1.75 -0.50 -3 -1.10 -2.70 -1.25 -3.35 -0.75 -2.90 2.10 0.40 2.20 1.40 3 3.80 3 1.70 0 2.05 -0.20 2.65 -1.60z m14.45 -15.15 c4.90 -1.25 12.05 -3.65 19 -6.40 5.45 -2.15 6.60 -2.80 7.40 -4.10 1.15 -2 2.80 -2.75 5.80 -2.75 1.90 0 3.60 -0.60 8.35 -2.95 3.30 -1.65 7.45 -3.90 9.25 -5.10 2.35 -1.50 3.75 -2.10 5 -2.10 2.95 0.10 27.40 -14.95 35.75 -21.95 6.75 -5.65 8.55 -7.80 9.25 -11 0.95 -4.15 0.05 -18.40 -1.15 -18.40 -0.25 0 -3.35 1.15 -6.80 2.55 -8.85 3.55 -29.55 14.25 -44.30 22.85 -1.65 0.95 -4.45 2.50 -6.25 3.45 -4.20 2.25 -4.40 2.45 -4.15 3.85 0.35 1.85 -0.60 3.05 -3.95 5.10 -4.75 2.85 -23.20 15.30 -27.15 18.35 -4.10 3.15 -6.15 6.60 -6.60 11.25 -0.15 1.55 -0.60 3.35 -0.95 4 -1 1.55 -3.35 1.45 -5.05 -0.20 -0.95 -0.95 -1.40 -1.15 -1.85 -0.70 -0.40 0.45 0.10 1.15 1.95 2.80 1.40 1.20 2.70 2.20 2.95 2.20 0.20 0 1.80 -0.35 3.50 -0.75z"/>
  <path d="M368.65 769.25 c-1.55 -1.10 -1.50 -4.35 0.10 -9.90 1.20 -4.10 1.20 -4.35 0.40 -5.80 -0.85 -1.40 -0.80 -1.55 0.50 -4.15 1.50 -2.95 2.85 -7.30 4.35 -14 1.40 -6.25 1.55 -5.90 -2.35 -5.55 -4.80 0.35 -15.90 -0.65 -19.15 -1.75 -3.15 -1.05 -4.35 -2.60 -3.80 -4.80 0.45 -1.90 2.50 -3.80 4 -3.80 0.70 0 1.85 -0.55 2.55 -1.25 1.15 -1.20 1.45 -1.30 4.40 -0.95 2.25 0.25 3.45 0.65 4.35 1.50 0.70 0.60 2.35 1.65 3.70 2.25 2.15 0.95 3 1.05 6.70 0.75 2.30 -0.20 6.40 -0.95 9.05 -1.60 5.95 -1.55 6.55 -1.60 8.35 -0.30 1.35 1 1.60 1 4.30 0.35 1.60 -0.35 3.55 -1.20 4.35 -1.90 1.10 -0.90 2.35 -1.30 4.90 -1.55 1.85 -0.20 6.35 -1.05 9.90 -1.85 3.60 -0.85 7.95 -1.85 9.75 -2.25 4.75 -1 10.80 -3.10 14.60 -5 2.40 -1.20 3.75 -1.60 4.75 -1.40 1.80 0.35 10.15 -2.80 10.90 -4.10 1.05 -1.85 2.75 -3.20 4 -3.20 0.90 0 2.15 -0.80 3.90 -2.45 3 -2.80 4.60 -3.75 5.70 -3.35 0.95 0.40 3.70 -1.25 6.65 -4 1.25 -1.15 2.75 -2.20 3.35 -2.40 1.25 -0.40 4.65 -4.75 4.65 -6 0 -1.20 2.25 -3.30 3.55 -3.30 0.55 0 1.70 0.50 2.45 1.15 0.75 0.60 2.05 1.50 2.90 1.95 3.65 1.95 2.15 5.85 -4.60 12.05 -6.10 5.60 -9.90 8.65 -12.40 9.90 -2 1 -2 1.05 -1.75 3.35 0.15 1.25 0 2.80 -0.25 3.40 -0.45 0.95 0.05 2.10 3.35 7.95 4.75 8.40 7.75 14.95 7.75 17.15 0 1.90 -1.85 4.10 -3.50 4.10 -1.15 0 -4.60 -1.65 -6.45 -3.10 -0.85 -0.65 -1.65 -0.85 -2.65 -0.65 -2.25 0.50 -3.20 -0.10 -5.75 -3.65 -1.30 -1.85 -3.60 -4.70 -5.15 -6.40 -1.50 -1.65 -4.40 -4.85 -6.45 -7.15 -3 -3.40 -3.85 -4.05 -4.75 -3.75 -0.55 0.20 -3.75 1.45 -7.05 2.85 -13.85 5.80 -33.50 10.90 -46.60 12.15 -3 0.25 -3.65 0.50 -3.65 1.20 0 1.65 -4.95 20.65 -5.70 21.75 -0.40 0.60 -1.40 1.25 -2.25 1.40 -1.20 0.25 -2.30 1.45 -5.80 6.30 -2.40 3.30 -4.80 6.95 -5.40 8.15 -1.25 2.45 -2.85 3 -4.70 1.65z m13.75 -24.35 c0.55 -0.70 3.65 -14.45 3.35 -14.90 -0.10 -0.15 -1.10 -0.20 -2.20 -0.10 l-2 0.20 -0.40 3.05 c-0.35 2.65 -0.30 3.30 0.50 4.40 0.95 1.30 0.95 1.40 -0.10 4.30 -0.60 1.65 -1.05 3.10 -1.05 3.30 0 0.60 1.35 0.40 1.90 -0.25z m87.30 -27.25 c-2.40 -4.35 -4.60 -8.15 -4.90 -8.50 -0.45 -0.50 -1.30 -0.30 -3.85 0.70 l-3.30 1.30 1.85 1.85 c1 1 2.55 2.90 3.45 4.15 1.15 1.70 2.05 2.45 3.45 2.85 2.35 0.65 2.40 0.70 5.10 3.95 1.20 1.45 2.30 2.45 2.40 2.15 0.05 -0.25 -1.80 -4.05 -4.20 -8.45z"/>
  <path d="M377.25 648.65 c-5.45 -0.40 -9.60 -0.50 -10.50 -0.25 -2.35 0.65 -25.80 -0.60 -30 -1.65 -4.45 -1.10 -11.95 -4.60 -16 -7.50 -4.15 -2.95 -7.95 -7.20 -10.95 -12.35 -3.15 -5.30 -4.70 -7.70 -6.40 -9.90 -0.75 -0.95 -1.80 -2.90 -2.35 -4.30 -0.55 -1.40 -3.45 -6.90 -6.45 -12.25 -5.30 -9.45 -9.10 -17.15 -9.10 -18.50 0 -0.40 -0.35 -1.65 -0.75 -2.85 -0.75 -2.15 -1.45 -5.90 -2.20 -12.10 -0.25 -1.80 -1.15 -5.25 -2.05 -7.75 -1.20 -3.25 -1.70 -5.80 -1.95 -9.25 -0.40 -5.05 -0.25 -16.95 0.25 -21.50 0.15 -1.50 0.35 -3.75 0.45 -5 0.35 -3.35 1.25 -9.90 1.80 -12.65 0.25 -1.35 0.45 -3.35 0.45 -4.45 0 -1.15 0.30 -2.45 0.70 -2.85 1.10 -1.30 1.85 -4.05 1.15 -4.25 -3.55 -0.95 -3.60 -1 -3.75 -3.35 -0.10 -1.85 0.25 -3.15 2.10 -7 1.20 -2.60 3 -6.05 3.95 -7.70 1.70 -3 1.70 -3.05 0.80 -4.20 -1.15 -1.40 -1.20 -2.15 -0.15 -4.20 3 -5.85 27.80 -32.35 34.30 -36.65 6.25 -4.20 12.75 -6.65 13.65 -5.20 0.45 0.75 2.05 0.60 7.20 -0.60 4.05 -1 4.85 -1.35 5.50 -2.50 0.70 -1.20 3.15 -2.65 3.65 -2.15 0.35 0.40 4.40 0.30 17.65 -0.35 7.45 -0.35 18.55 -0.65 24.75 -0.60 14.85 0.05 18.75 0.95 24.20 5.65 1.50 1.30 2.95 2.05 4.40 2.30 5.90 1 12.85 4.35 23.10 11.20 3.60 2.40 8.30 5.45 10.50 6.80 2.20 1.35 5.45 4.05 7.50 6.15 1.95 2 5.15 4.85 7.05 6.30 1.95 1.45 5.15 4.20 7.20 6.10 2.05 1.90 3.80 3.20 3.90 2.95 0.95 -2.70 2.65 -3.90 4.80 -3.35 1.20 0.30 3.10 3.20 6.40 9.60 1.45 2.90 4.10 7.60 5.85 10.50 4.80 7.90 6.40 12.10 7.85 20.75 0.15 1.10 1 4.15 1.80 6.75 0.80 2.60 1.80 7.10 2.20 10 0.40 2.90 1.10 7.50 1.50 10.20 0.40 2.75 0.75 6.35 0.75 8 0 3.30 -1.40 13.05 -3 21.05 -2.80 14 -2.90 14.95 -2 15.50 0.55 0.35 0.20 5.25 -0.60 7.75 -1.10 3.65 -3.10 7.95 -6.20 13.50 -1.75 3.15 -4 7.65 -5 10 -3.50 8.10 -6.30 10.80 -14.75 14.05 -2.70 1.05 -6.60 2.75 -8.55 3.75 -6.20 3.10 -11.05 5.05 -15.65 6.20 -2.45 0.60 -5.90 1.65 -7.70 2.35 -4 1.50 -11.40 3.30 -19.30 4.65 -7.45 1.30 -7.60 1.35 -7.90 2.45 -0.40 1.60 -2.40 2.45 -6.85 3 -5.75 0.75 -26.25 0.55 -37.25 -0.30z m26.40 -7.35 c0.50 -0.25 0.85 -0.95 0.85 -1.80 0 -0.95 0.45 -1.80 1.30 -2.45 1.60 -1.25 2.60 -1.30 4.15 -0.25 0.90 0.65 1.90 0.75 4.25 0.55 3.90 -0.30 6.15 -1.10 16.10 -5.60 4.40 -2 10.60 -4.60 13.75 -5.70 3.15 -1.15 6.85 -2.55 8.20 -3.10 1.40 -0.50 3.10 -0.95 3.85 -0.95 1.80 0 2.90 1.65 2.55 3.80 l-0.30 1.75 2.70 -1.10 c1.50 -0.60 4.95 -1.85 7.70 -2.75 7.15 -2.45 9.90 -4.05 10.30 -6.05 l0.30 -1.60 -3.30 0.30 c-3.60 0.30 -4.15 0.05 -4.75 -2.45 -0.40 -1.75 0.55 -2.65 3.65 -3.60 4.80 -1.40 8.80 -3.95 15.30 -9.75 4.35 -3.85 5.50 -5.60 6.80 -10.55 0.85 -3.30 0.95 -4.50 0.55 -6.10 -0.40 -1.60 -0.25 -3 0.95 -8.05 3.95 -16.30 4.25 -20.70 3.05 -42.10 -0.95 -17.05 -1.05 -17.65 -2.40 -17.95 -1.60 -0.40 -3.25 -2.75 -5.45 -7.80 -1 -2.35 -2.35 -5.35 -3 -6.75 -0.65 -1.35 -1.85 -4.05 -2.75 -6 -3.70 -8.30 -12.80 -19.50 -20.50 -25.25 -2.10 -1.50 -7.25 -4.80 -11.50 -7.25 -8.50 -4.85 -9.55 -5.60 -14.90 -10 -4.40 -3.60 -5.20 -4.10 -15.35 -9.35 -11.65 -6 -12.95 -6.30 -9.15 -1.80 3.85 4.55 4.10 5.05 3.15 6.85 -0.65 1.25 -1.10 1.55 -2.45 1.55 -1.50 0 -2.20 -0.55 -6.05 -4.75 -3.80 -4.15 -4.55 -4.75 -5.95 -4.75 -1.80 0 -3 -1.05 -3.45 -3.05 -0.35 -1.30 -0.50 -1.35 -11.45 -3.10 -14.60 -2.40 -21.60 -3.05 -26.40 -2.40 -4.20 0.50 -25.55 5.50 -30.40 7.10 -2.55 0.85 -3.10 1.20 -2.85 1.90 1.30 3.05 0.25 4.75 -3.40 5.55 -1.45 0.30 -3.30 0.95 -4.10 1.50 -0.85 0.55 -1.85 1 -2.30 1 -0.45 0 -2.10 0.95 -3.65 2.10 -2.15 1.60 -2.95 2.50 -3.35 4.05 -0.35 1.35 -0.95 2.20 -2.05 2.75 -0.80 0.45 -2 1.25 -2.65 1.75 -1.80 1.35 -9.75 11.75 -10.80 14.05 -1.80 4.15 -4 14.20 -5.20 24.05 -1 7.80 -0.95 10.45 0.05 11.30 1 0.85 0.55 4.15 -1.60 10.95 -1.75 5.60 -2.30 12.40 -2.05 25 0.25 11.85 0.70 15.95 2.80 26.10 0.95 4.55 3.45 10.10 5.75 12.70 2.45 2.80 2.60 3.20 2.10 5.70 -0.55 2.70 1.20 6.25 3.30 6.70 2.85 0.55 3.45 1.55 3.10 5 l-0.30 3.05 2.95 4.50 c1.65 2.50 4.25 6.05 5.80 7.90 1.55 1.90 2.95 3.85 3.10 4.35 0.65 2 17.55 11.95 24.15 14.30 l3.35 1.15 1.10 -1.05 c1.40 -1.35 3.60 -1.30 4.70 0.05 0.45 0.55 1.50 1.30 2.25 1.60 1.90 0.70 9.40 1.95 11.95 1.95 1.10 0 2.85 0.45 3.90 1 1 0.55 3.05 1.20 4.50 1.45 3.05 0.55 28.20 0.40 29.50 -0.15z"/>
  <path d="M401.75 603.90 c-1.65 -0.25 -4.80 -0.35 -7 -0.20 -2.20 0.10 -6.35 0.05 -9.25 -0.20 -2.90 -0.25 -8.85 -0.70 -13.25 -1 -12.45 -0.80 -14.90 -1.60 -21.30 -6.80 -6.65 -5.40 -11.65 -11.65 -17.65 -21.95 -4.35 -7.40 -5.30 -9.65 -7.35 -17.75 -2.35 -8.95 -2.15 -17.60 0.45 -25 1.20 -3.40 6.50 -13.35 8.85 -16.75 4.80 -6.80 10.55 -10.90 19.50 -13.95 3.60 -1.20 8.75 -3.05 11.50 -4.05 l5 -1.80 11 0.25 c11.90 0.25 14.70 0.70 17.60 2.65 1.05 0.75 3.65 1.70 5.90 2.20 5.35 1.15 9.30 2.70 11.95 4.60 8.70 6.30 15.35 11.75 16.65 13.55 3.05 4.20 9.10 18.50 9.80 23.05 0.15 0.85 0.65 3.10 1.15 5 1.30 4.80 1.30 19.45 0 25.95 -2.10 10.75 -8.10 19.90 -15.40 23.60 -1.35 0.70 -3.55 2 -4.85 2.95 -3.65 2.65 -8.60 4.75 -12.90 5.50 -4.40 0.80 -6.10 0.85 -10.40 0.15z"/>
  <path d="M560.60 418.50 c-2 -1.90 -1.50 -3.50 2.10 -6.40 3.10 -2.55 3.20 -2.65 2.95 -4.60 -0.35 -2.35 0.25 -3.45 5.45 -10.25 11.10 -14.65 13.45 -18.60 16.70 -28.75 1.15 -3.55 2.55 -6.65 3.60 -8.20 2.65 -3.65 3.90 -7.75 4.05 -13.10 0.10 -2.90 -0.05 -4.70 -0.40 -4.95 -0.75 -0.45 -0.70 -3.30 0.15 -5.30 0.35 -0.95 0.85 -2.75 1 -4.05 0.25 -1.45 0.85 -3 1.65 -3.95 2.05 -2.45 3.20 -9.05 3.20 -18.60 0 -7.40 0.05 -7.90 1.05 -8.85 1.50 -1.35 3.15 -1.25 4.35 0.30 0.90 1.15 1 2 1 9.35 -0.05 6.55 -0.25 9.10 -1.20 13.30 -0.90 4.05 -1 5.55 -0.60 6.70 0.70 2.10 0.10 10.80 -1.15 15.50 -0.55 2.15 -1.70 5.55 -2.50 7.60 -0.80 2 -1.80 5.20 -2.25 7.10 -1.15 5.10 -2.65 9.40 -5.05 14.50 -1.65 3.65 -2.35 4.65 -3.40 4.95 -0.70 0.15 -1.60 0.85 -2.05 1.50 -0.70 1.10 -0.70 1.20 0.75 1.95 3.10 1.60 3 2.45 -1.30 8.80 -2.10 3.15 -4.70 6.85 -5.75 8.20 -3.10 4.15 -15.85 16.15 -18.80 17.70 -1.55 0.80 -2.30 0.70 -3.55 -0.45z"/>
 </g>
</svg>