<svg preserveAspectRatio="xMidYMid meet" viewBox="90.73568281938326 31.619999999999997 675.2422907488988 994.976" xmlns="http://www.w3.org/2000/svg" version="1.0" style="max-height: 500px" width="675.2422907488988" height="994.976">
 <g fill="#000000">
  <path d="M387 1025.75 c-1.80 -0.35 -5.05 -1.35 -7.25 -2.15 -5.90 -2.20 -6.75 -2.45 -9.45 -3.10 -2.75 -0.60 -7.35 -3.15 -10.70 -5.90 -3.05 -2.50 -6.55 -7.25 -9.35 -12.70 -1.30 -2.50 -3.55 -6.25 -4.95 -8.35 -4.15 -6.10 -6.60 -15.65 -8.80 -34.60 -1.15 -9.65 -1.15 -12.45 -0.20 -42.30 0.35 -11.10 -0.05 -15.70 -2.60 -28.90 -0.95 -4.95 -2.20 -12.30 -2.70 -16.35 -2 -14.75 -3.25 -19.30 -8.75 -31.90 -2 -4.55 -3.90 -9.10 -4.25 -10.15 -0.30 -1.10 -0.75 -1.75 -0.95 -1.50 -0.20 0.20 -0.80 3.85 -1.25 8.05 -1.85 15.70 -3.65 27.15 -4.45 27.95 -0.45 0.45 -1.45 0.80 -2.30 0.85 -0.85 0.05 -1.55 0.15 -1.55 0.30 0 0.15 -0.70 5.55 -1.50 12 -1.70 13.15 -2 14 -5.30 14.65 -5.45 1.05 -5.55 1.05 -6.85 -0.25 -0.90 -0.90 -1.25 -1.95 -1.50 -4.40 -0.75 -7.25 -7.20 -29.85 -9.10 -32 -1.65 -1.90 -3.60 -7.30 -4.20 -11.80 -1.70 -12.85 -1.85 -27.05 -0.50 -44.70 0.60 -7.20 0.60 -7.30 -1 -15.75 -3.05 -16.20 -2.70 -15.20 -14.20 -39 -3.70 -7.70 -9.40 -20.50 -12.65 -28.50 -3.25 -7.95 -7.45 -17.40 -9.30 -21 -9 -17.15 -15.65 -31.40 -18.70 -40.35 -1.80 -5.15 -11.35 -38.45 -13.40 -46.65 -3.05 -12.15 -6 -30.20 -6.80 -41.90 -0.50 -6.70 -0.65 -7.45 -2.80 -12.90 -2.65 -6.70 -2.65 -8.10 -0.05 -9.20 0.85 -0.35 1.80 -0.55 2.05 -0.40 2 1.25 1.45 -12.15 -0.60 -14.45 -0.40 -0.50 -2.55 -1.45 -4.80 -2.15 -2.20 -0.65 -5.50 -2 -7.30 -2.90 -3.70 -1.85 -11.95 -7.65 -19 -13.30 -2.60 -2.10 -5.25 -4 -5.85 -4.30 -0.60 -0.25 -1.85 -1.20 -2.75 -2 -0.90 -0.85 -3.10 -2.55 -4.90 -3.75 -1.80 -1.20 -4 -2.80 -4.90 -3.55 -1.25 -1.10 -1.95 -1.35 -3.10 -1.15 -3.50 0.70 -7.95 -4 -17.85 -18.80 -9.20 -13.80 -12.40 -19.75 -19.90 -36.75 -0.40 -0.80 -1.70 -3.75 -3 -6.50 -8.30 -17.85 -11.25 -29.75 -11.25 -45 0 -4.80 0.20 -6.40 0.95 -8.10 1.10 -2.40 2.60 -3.35 4.60 -2.95 1.35 0.25 1.40 0.20 1.70 -2.10 1.05 -8.20 3.75 -19.15 5.50 -22.60 0.65 -1.25 1.30 -3.35 1.45 -4.75 0.40 -3.45 3.60 -9.70 7.50 -14.55 3.95 -4.90 28 -28.60 29.70 -29.25 0.85 -0.35 1.65 -0.25 2.65 0.25 1.35 0.70 1.50 0.65 4.20 -1.75 3.55 -3.10 6.75 -5.25 15.50 -10.45 3.85 -2.25 9.20 -5.60 11.90 -7.40 6.25 -4.10 8.60 -4.55 10.70 -2.15 1 1.10 1.80 1.55 2.95 1.55 2.05 0 3.30 1.45 3.15 3.60 -0.10 1.25 0.15 2 1.20 3 1.60 1.65 1.65 2.45 0.20 5.50 -0.80 1.65 -2.15 3.10 -4.70 5.10 -3.30 2.55 -3.55 2.90 -3.50 4.60 0.05 1.60 -0.30 2.10 -3 4.60 -3.35 3.10 -4.10 4.35 -6.85 11.75 -1.40 3.75 -1.70 5.10 -1.30 5.85 0.85 1.60 0.55 2.90 -1 4.65 -1.85 2.15 -2.45 5.20 -1.30 7 1.15 1.75 0.55 3.75 -1.45 4.90 l-1.65 1 -0.35 13.35 c-0.45 16.65 -0.10 26.60 1.25 34.55 0.85 5.05 0.95 6.50 0.45 7.65 -0.45 1.10 -0.45 1.75 0.05 3.05 0.90 2.30 10.10 19.25 11 20.25 0.45 0.45 1.30 1.65 1.90 2.70 1.95 3.20 8.25 11.20 12.25 15.55 3.65 4.05 8.05 7.55 9 7.20 0.25 -0.05 1.05 -2.05 1.85 -4.35 0.75 -2.35 1.80 -5.35 2.35 -6.75 0.60 -1.35 1.50 -5.85 2.10 -10 1.65 -11.55 4.55 -21.40 9.25 -31.30 1.30 -2.70 2.75 -3.95 4.60 -3.95 1.10 0 3.20 2.30 3.20 3.45 0 0.60 -1.25 3.90 -2.70 7.40 -2.35 5.50 -4.25 11.15 -5.50 16.25 l-0.30 1.35 2.15 -1.45 c1.60 -1.05 3 -2.80 5.30 -6.60 1.70 -2.85 5 -7.75 7.30 -10.90 2.30 -3.15 5.60 -7.80 7.30 -10.35 1.85 -2.75 3.60 -4.80 4.40 -5.15 0.75 -0.30 2.35 -2 3.55 -3.85 7.90 -11.80 22.05 -27.35 30.75 -33.75 5.30 -3.95 25.70 -16.35 35.85 -21.80 l7.20 -3.85 -1.05 -1.55 c-0.75 -1.20 -1.65 -1.80 -3.80 -2.40 -3.15 -0.85 -7.70 -4.50 -8.05 -6.45 -0.30 -1.65 0.35 -3.15 1.80 -4.10 1.60 -1.05 2.90 -0.65 4.90 1.50 0.80 0.95 2.15 1.90 2.95 2.20 1.35 0.45 1.45 0.40 1.45 -0.85 -0.05 -2.55 -1.35 -7.40 -1.70 -6.50 -0.50 1.10 -3.15 2 -4.25 1.40 -1.85 -0.95 -2.20 -2.10 -2.80 -8.90 -0.95 -10.45 -0.45 -45.20 0.80 -57.35 0.50 -5.20 1.15 -11.75 1.45 -14.50 0.25 -2.75 0.60 -11.65 0.70 -19.75 0.25 -14.50 1.05 -24.70 2.55 -32.90 0.45 -2.45 0.65 -5.10 0.45 -6.50 -0.25 -2.10 -0.15 -2.60 1 -3.95 0.75 -0.90 1.85 -3.40 2.55 -5.75 0.65 -2.30 1.90 -6 2.75 -8.30 1.60 -4.40 1.85 -5.90 0.95 -6.20 -0.65 -0.20 8.40 -28.30 12.85 -39.90 4 -10.45 5 -13.85 7.95 -27 1.45 -6.45 3.55 -14.65 4.65 -18.25 1.10 -3.60 2.50 -8.45 3.10 -10.85 0.90 -3.45 1.35 -4.40 2.05 -4.40 0.55 0 1.15 -0.75 1.75 -2.30 1 -2.60 2.65 -3.95 4.35 -3.50 0.65 0.15 2.35 1.50 3.75 3.05 1.40 1.50 2.80 2.75 3.05 2.75 0.25 0 0.80 0.90 1.25 2 0.50 1.30 1.45 2.40 2.80 3.25 1.10 0.70 2.10 1.25 2.25 1.25 0.15 0 0.25 -0.65 0.25 -1.50 0 -1.55 0.80 -2.05 1.30 -0.75 0.25 0.60 0.50 0.50 1.30 -0.50 0.70 -0.90 1.45 -1.25 2.60 -1.25 2.45 0 3.30 1.30 3.85 5.80 0.60 4.50 2.60 9.70 6.05 15.45 1.40 2.35 3.70 7.65 5.55 12.75 4.25 11.65 9.75 22.95 10.85 22.25 1.40 -0.85 7.45 6.95 7.70 9.95 0.15 1.50 1.30 3.30 5.90 9.20 9.45 12.15 15.75 21.45 22.85 33.95 1.45 2.55 2.90 4.65 3.25 4.65 1.15 0 2.70 2.20 6.25 9 3.20 6.15 3.65 6.80 5.10 7.05 0.85 0.20 1.95 0.75 2.45 1.25 0.45 0.55 2.15 5 3.70 9.95 1.60 4.95 3.55 10.45 4.40 12.25 0.80 1.80 2.60 5.65 3.95 8.55 1.35 2.90 2.45 5.70 2.45 6.25 0 0.55 0.20 1.20 0.50 1.50 0.25 0.25 0.55 1.10 0.60 1.85 0.05 0.75 0.30 1.35 0.55 1.35 0.25 0 0.35 0.30 0.20 0.65 -0.10 0.30 0 1.30 0.25 2.10 0.55 1.85 0.65 2.15 1.55 6.50 0.45 1.95 1.70 6.75 2.85 10.75 1.10 4 2.75 10.85 3.65 15.25 0.85 4.40 1.60 8.10 1.70 8.20 0.05 0.10 0.45 -0.20 0.90 -0.65 1.40 -1.35 3.05 -1.50 4.85 -0.40 8.65 5.40 1.15 21.45 -14.25 30.70 -1.85 1.10 -3.30 2.10 -3.20 2.20 0.35 0.35 12.15 -0.90 13.20 -1.40 0.60 -0.30 1.80 -0.35 2.75 -0.15 0.90 0.20 6.70 0.50 12.90 0.75 19.55 0.70 34.50 3.25 53.05 9.05 7.05 2.15 8.05 2.30 9 1.15 2.10 -2.55 4.90 -1.80 13.75 3.70 6 3.65 7.25 4.20 13.75 6.05 8.15 2.35 9.65 3.15 9.85 5.50 0.15 1.40 0.50 1.80 2.50 2.65 7.20 3.15 18.85 9.05 22 11.10 4.25 2.80 11.10 9.10 12.65 11.60 0.90 1.45 1.20 1.65 1.70 1.10 1.70 -1.75 15.25 -22.65 17 -26.15 l2 -4 0 -10.60 c0 -10.25 -0.05 -10.60 -1.15 -12.15 -0.85 -1.10 -1.10 -2.05 -1 -3.40 0.15 -1.60 0.45 -2 2.15 -2.90 l2 -1 0.15 -4.10 c0.10 -3 -0.20 -5.40 -1.10 -9.20 -0.70 -2.85 -1.70 -8.55 -2.25 -12.70 -0.65 -5.05 -1.55 -9.35 -2.75 -13 -0.95 -3 -2.10 -6.80 -2.60 -8.45 -1.05 -3.70 -1.65 -4.55 -6.50 -9.25 -2.15 -2.05 -5.20 -5 -6.80 -6.55 -3.30 -3.20 -3.70 -4.70 -1.65 -6.75 l1.30 -1.25 -4.55 -5.35 c-2.50 -2.95 -4.90 -6.15 -5.40 -7.15 -0.50 -1.05 -1.80 -2.40 -3.10 -3.25 -1.85 -1.20 -2.25 -1.75 -2.40 -3.20 -0.20 -2.25 0.80 -3.55 3.05 -3.95 l1.80 -0.30 -2.35 -3.50 c-3.60 -5.35 -7.65 -9.10 -13.20 -12.20 -5.70 -3.20 -6.45 -4.30 -4.85 -7.35 0.50 -1.05 0.95 -2.15 0.95 -2.50 0 -0.30 0.45 -1.15 1.05 -1.90 0.80 -1.05 1.45 -1.30 3.15 -1.30 1.35 0 2.65 0.35 3.35 0.90 1.20 0.95 11.60 5.90 18.15 8.70 2.95 1.25 3.60 1.40 4.80 0.90 2 -0.85 3.25 -0.30 6.35 2.80 1.50 1.45 4.20 3.50 6.05 4.50 5.55 3.05 12.60 7.75 13.10 8.75 0.30 0.50 0.50 1.45 0.50 2.15 0 1.55 0.60 1.90 3.10 2.05 1.30 0.10 2.50 0.60 3.65 1.55 11.80 10.10 20.80 18.60 23.85 22.60 1.40 1.80 2.35 2.60 3.20 2.60 2 0 3.50 2.05 5.60 7.50 4 10.55 9.10 28.35 9.10 31.80 0 2.40 -2.45 4.05 -4.75 3.20 -1.60 -0.60 -2.40 -2.45 -4 -9 -3 -12.15 -6.45 -22.30 -7.85 -23.05 -0.55 -0.30 -1.10 -0.45 -1.20 -0.30 -0.70 0.65 5.10 21.05 9.55 33.60 4.05 11.55 4.75 13.95 4.75 16.60 0 2.55 -1.30 4.15 -3.40 4.15 -2.05 0 -3.40 -1.75 -4.10 -5.25 -0.35 -1.65 -2.15 -7.35 -4.05 -12.65 -3.15 -8.85 -5.85 -17.40 -7.50 -24 -0.50 -2 -0.90 -2.70 -1.75 -2.90 -1.70 -0.45 -2.45 -1.60 -3.60 -5.45 -1.90 -6.25 -9.65 -19.15 -16.40 -27.30 -4.20 -5.05 -4.75 -5.30 -14.45 -6.95 -3.30 -0.55 -6.65 -1.15 -7.50 -1.30 -1.30 -0.30 -1.40 -0.25 -0.80 0.45 0.35 0.45 1.30 3 2.10 5.70 0.80 2.70 2.10 5.90 2.85 7.15 0.75 1.25 1.70 3.05 2.10 4 0.35 0.95 1 2.15 1.40 2.65 0.45 0.50 0.95 2.30 1.15 4.05 0.45 3.55 2.70 9.05 4.35 10.50 0.60 0.55 1.10 1.25 1.10 1.60 0 0.35 0.90 1.55 1.95 2.65 2.50 2.60 3.10 4.50 5.40 16.80 l1.90 10 -0.05 18 c-0.10 20.55 -0.50 25 -3 32.60 -0.95 2.95 -2.05 7.20 -2.45 9.40 -1.40 7.95 -3.70 12.70 -7.20 15.05 -1.30 0.80 -2.50 2.30 -3.55 4.35 -0.90 1.70 -2.80 4.35 -4.20 5.90 -1.40 1.50 -3.95 4.35 -5.70 6.35 l-3.15 3.55 5 9.90 c2.75 5.45 7.95 15.10 11.60 21.40 3.65 6.35 7.05 12.30 7.65 13.35 0.95 1.65 1.20 1.80 3.15 1.75 1.35 -0.05 2.40 0.20 2.90 0.65 0.40 0.45 1.65 4 2.80 7.90 2.40 8.45 2.85 9.65 6.90 16.85 6.85 12.10 12.45 24.80 16.05 36.30 2.15 6.75 2.20 8.05 0.40 9.50 -0.95 0.75 -0.90 1 3.40 11.75 2.40 6 4.50 11.10 4.70 11.35 0.15 0.20 1 0 1.90 -0.40 1.40 -0.70 1.70 -0.70 3 -0.05 0.80 0.40 1.60 1.15 1.80 1.55 0.15 0.45 0.30 4.15 0.35 8.15 0.05 8.65 0.20 10.05 2.60 21.60 1 4.80 2.15 10.55 2.55 12.75 0.45 2.20 1.35 6.70 2.05 10 0.70 3.25 2.05 10.35 3 15.75 0.95 5.35 2.65 14.50 3.80 20.25 2.05 10.40 2.10 10.65 2.40 24.90 0.30 13.45 0.20 16.80 -0.70 22.25 -0.30 1.70 -0.25 2.10 0.40 2.10 0.45 0 1.25 0.60 1.85 1.40 1.25 1.55 1.25 1 -0.80 15.10 -0.70 4.80 -2.05 11.80 -2.95 15.50 -1.40 5.65 -1.75 8.10 -2.05 14.90 l-0.35 8.10 1.50 0 c2.30 0 3.10 1.35 4.45 7.55 0.80 3.50 2.25 7.95 3.80 11.45 4 9.25 7.25 17.45 8.45 21.65 1.15 3.80 1.15 3.90 0.25 5.55 -0.90 1.65 -0.90 1.85 0.35 8.40 2.30 12.05 2.55 14.90 2.25 26.90 -0.05 1.80 0.20 10.70 0.50 19.75 0.65 17.20 0.85 19 3.85 32.50 2.65 12.10 3 14.70 2.05 16.90 -0.55 1.35 -1.30 2.10 -2.65 2.70 -1.05 0.40 -2.40 1.30 -3 1.95 -1.35 1.45 -3.75 1.60 -5.05 0.30 -0.65 -0.65 -1.45 -0.85 -2.70 -0.70 -1 0.10 -2.25 -0.05 -2.80 -0.35 -1.30 -0.70 -2.30 -4.85 -1.95 -7.95 0.30 -2.65 -0.40 -8.75 -1.40 -12.10 -0.75 -2.65 -3.70 -9.55 -5.85 -13.75 -1.90 -3.80 -5.50 -8.85 -11.55 -16.40 -5.20 -6.45 -6.25 -8.75 -7.40 -16.50 -0.35 -2.15 -0.75 -4 -0.95 -4.10 -0.65 -0.40 -2.55 6.60 -3.80 13.70 -0.65 3.75 -1.65 9.10 -2.25 11.90 -1 5 -1 6.30 -0.80 43.25 0.20 32.30 0.35 38.75 1 42.15 1.25 6.35 2.20 10.40 3.05 13.25 0.90 3.05 0.40 4.90 -1.60 5.75 -1.05 0.45 -1.15 0.75 -0.90 2.50 0.50 3.45 1.25 7.90 1.75 10.75 1.40 7.40 1.70 11.75 1.75 23.75 0.05 17.25 -0.95 22.80 -5.85 31.20 -1.20 2.10 -2.35 4.30 -2.55 4.95 -0.60 1.80 -4.25 7.70 -5.90 9.45 -2.50 2.65 -16.20 6.85 -18.40 5.65 -0.80 -0.45 -2 -0.30 -5.15 0.50 -2.25 0.60 -6.10 1.20 -8.60 1.35 -3.80 0.25 -4.75 0.50 -5.95 1.50 l-1.45 1.20 -14.80 -0.15 -14.80 -0.20 -6.25 -2.60 c-3.40 -1.40 -7.25 -3.30 -8.50 -4.15 -1.55 -1.15 -2.75 -1.60 -3.85 -1.50 -2.30 0.10 -4.80 -1.10 -6.30 -3 -1.75 -2.35 -6 -10.70 -7.85 -15.50 -1.50 -3.95 -3 -11.75 -3 -15.80 l0 -2.10 -1.40 0.80 c-2.70 1.55 -5 -0.05 -5.75 -4.15 -0.15 -0.85 -1.45 -4.50 -2.85 -8.10 -2.75 -7.05 -5.45 -11.15 -12.55 -18.85 -2.90 -3.15 -3.70 -4.45 -4.60 -7.35 -0.15 -0.45 -1.80 -1.65 -3.60 -2.70 l-3.35 -1.85 -5.80 0.35 c-18.25 1.05 -33.45 4.20 -42.70 8.85 -1.60 0.80 -3.45 1.45 -4.15 1.45 -1.25 0 -3.25 -1.55 -3.25 -2.50 0 -0.60 -3.90 0.90 -8.65 3.30 -1.85 0.95 -4.05 1.70 -4.85 1.70 -1.75 0 -6.15 3.35 -7.30 5.60 l-0.85 1.60 1.60 -1.35 c0.90 -0.75 1.95 -1.35 2.30 -1.35 1.40 0 3.15 1.15 3.70 2.35 0.75 1.65 0.30 2.95 -1.75 5.25 -4.70 5.25 -5 6.70 -5.70 28.40 -0.80 25 -2.15 30.35 -8.85 34.90 -3.50 2.35 -8.20 4.75 -14.90 7.60 -2.75 1.15 -5.80 2.60 -6.75 3.30 -2.35 1.60 -6.25 2.85 -15.50 5.15 -8.15 2.05 -14.20 3.20 -20.55 3.95 -2.50 0.30 -5.15 1.10 -7.75 2.25 -2.15 1 -5.35 2.15 -7 2.55 -3.70 0.95 -11.10 1 -15.70 0.05z m5.10 -12.50 c1.65 -1.40 3.25 -1.60 4.70 -0.50 1.75 1.30 5.10 0.85 11.95 -1.55 13.85 -4.90 15.75 -5.40 33.90 -8.75 4.45 -0.80 6.25 -1.35 7.35 -2.25 0.75 -0.65 2.55 -1.40 3.95 -1.70 4.15 -0.80 6.45 -2.20 7 -4.40 0.30 -1 1.25 -4.95 2.20 -8.75 l1.75 -6.85 -0.90 -2.95 c-1.45 -4.60 -2 -9.95 -2 -19.30 l0 -8.70 1.25 -1 c1.20 -0.90 1.35 -1.50 1.80 -6.40 0.25 -2.95 0.60 -6.05 0.80 -6.90 0.40 -1.90 2.50 -4.95 5.15 -7.50 1.15 -1.10 2.85 -3.10 3.70 -4.50 2.45 -3.70 3.40 -4.40 5.65 -4.10 1.60 0.20 3 -0.30 8.90 -3.25 7.45 -3.65 10.10 -4.40 11.95 -3.45 0.95 0.55 1.55 0.35 4.60 -1.40 4.65 -2.70 12.85 -5.90 16.75 -6.55 1.75 -0.30 9.95 -0.65 18.20 -0.80 12.80 -0.30 15.30 -0.20 17.20 0.45 1.65 0.60 2.45 0.65 3.35 0.25 0.90 -0.40 1.75 -0.40 3.20 0.05 1.30 0.40 3.30 0.50 5.40 0.30 3.05 -0.30 3.50 -0.25 4.85 0.80 1.10 0.90 2.35 1.25 5.15 1.50 4.25 0.35 5.30 1.10 5.30 3.75 0 2.70 -1.65 3.85 -5.05 3.60 -1.45 -0.15 -2.65 -0.20 -2.65 -0.10 0 1.10 0.85 1.70 2.60 1.70 2.20 0 4.40 1.70 4.40 3.45 0 0.65 0.45 1.05 1.50 1.30 0.85 0.20 2.30 1.25 3.35 2.45 2.55 2.90 7.80 12.15 9.95 17.60 4.05 10.10 4.65 10.80 16.85 20.15 5.75 4.40 7 5.80 9.05 9.95 0.90 1.75 1.60 2.60 2.25 2.60 1.15 0 3.05 2.25 3.05 3.60 0 0.55 -0.60 1.60 -1.40 2.35 l-1.35 1.40 2 0.55 c13.15 3.55 20.80 4.60 33.25 4.60 9.95 0 14.80 -0.80 19.10 -3.15 3.40 -1.85 5.15 -1.60 6.45 1 l0.75 1.55 3.25 -1.70 c2.55 -1.35 3.45 -2.15 4.50 -4.05 0.75 -1.35 1.50 -3.50 1.70 -4.90 0.75 -5.70 3.35 -15.25 4.60 -17.10 1.25 -1.80 1.25 -2.05 0.95 -7.40 -0.15 -3 -0.50 -13.35 -0.80 -23 -0.25 -10.15 -0.70 -18.45 -1.05 -19.75 -0.30 -1.25 -0.60 -5.95 -0.65 -10.50 -0.05 -7.60 -0.20 -8.90 -1.95 -16.70 -3.70 -16.50 -5 -31.55 -5 -58.30 0 -12.55 0.20 -16.35 0.80 -18.75 0.70 -2.80 0.70 -3 -0.15 -3.60 -1.45 -1 -1.60 -2.95 -0.55 -6.80 0.55 -2 1.20 -5.20 1.50 -7.20 0.50 -3.30 1.35 -5.60 3.40 -9.40 0.80 -1.50 2.75 -11.10 4.45 -22.25 0.70 -4.55 1.10 -5.95 2 -6.85 1.35 -1.35 3 -1.45 4.60 -0.35 0.60 0.40 2.15 1.10 3.45 1.50 1.85 0.55 2.80 1.25 4.05 3 0.85 1.20 1.60 2.40 1.60 2.60 0 0.20 1 1.40 2.25 2.60 1.25 1.20 2.50 2.95 2.75 3.80 0.30 0.90 1.70 3.50 3.05 5.80 5.75 9.50 10.70 20.90 14.75 33.85 2.55 8.20 2.80 10.05 1.50 11.50 -0.90 1 -0.85 1.10 0.70 3.90 0.90 1.60 2.30 4.60 3.05 6.65 1.30 3.40 1.40 3.55 1.15 1.50 -0.45 -3.15 -3.15 -16.50 -6.40 -31.50 -4.55 -20.95 -7.75 -42.10 -7.95 -52.30 -0.10 -3.95 0.05 -4.75 0.90 -5.70 0.75 -0.85 1.40 -1.05 2.85 -0.90 1.05 0.10 1.90 0.05 1.90 -0.10 0 -0.70 -1.60 -5.85 -2.25 -7.25 -0.35 -0.80 -1.05 -3.65 -1.50 -6.25 -0.95 -5.25 -3.05 -10.30 -7.25 -17.25 l-2.55 -4.20 0.10 -4.45 c0.05 -3.45 -0.10 -4.75 -0.75 -5.75 -0.95 -1.45 -0.85 -2.95 0.70 -10.25 l0.90 -4.15 -1.45 0.30 c-2 0.45 -3.35 -0.10 -4.15 -1.65 -0.60 -1.15 -0.60 -1.95 0 -5.25 0.90 -5.35 1.70 -16.30 1.70 -24 0 -5.50 -0.15 -6.60 -0.95 -7.75 -0.85 -1.15 -1 -2.65 -1.25 -10.85 -0.35 -11.10 -1.45 -28.45 -2.60 -42.20 -0.80 -9.25 -0.80 -9.80 0.05 -11.35 0.85 -1.55 0.85 -2.25 0.30 -10 -1.40 -18.95 -1.55 -19.95 -6.40 -35.45 -2.40 -7.80 -4.45 -14.10 -4.55 -14.05 -0.05 0.10 0.20 2.45 0.65 5.20 0.80 5.45 0.55 7.15 -1.20 8.05 -1.55 0.85 -3 0.65 -4.20 -0.55 -0.95 -0.95 -1.30 -2.45 -2.30 -9.15 -2.45 -17.20 -10.30 -48.60 -14.40 -57.85 -2.60 -5.85 -10.30 -20.90 -15.40 -30.15 -5.75 -10.40 -8.80 -17.30 -8.70 -19.65 0.10 -1.20 -0.30 -2.50 -1 -3.60 l-1.10 -1.75 0.30 1.75 c3.20 19.20 3.25 19.85 1.35 21.30 -1.30 1 -2.90 0.85 -4.35 -0.45 -1.15 -1 -1.40 -2 -2.95 -11.40 -2.55 -15.35 -5.30 -24.85 -9.55 -32.90 -2.50 -4.70 -9.70 -14.65 -10.35 -14.25 -1 0.65 -3.40 0.25 -4.80 -0.70 -0.75 -0.55 -3.95 -2.35 -7.10 -4.10 -8.35 -4.50 -14.90 -8.95 -31.55 -21.35 -17 -12.70 -22.75 -17.55 -24.50 -20.85 -1.35 -2.60 -0.95 -2.45 -9.45 -3.55 -10.10 -1.35 -26.75 -4.15 -34 -5.85 -6.50 -1.45 -7 -1.50 -14.50 -1.20 -17.80 0.75 -53.90 4.50 -57 5.85 -0.70 0.35 -3.15 0.65 -5.50 0.70 -2.35 0.05 -4.75 0.25 -5.35 0.45 -1.15 0.35 -1.15 0.35 0.35 1.65 1.85 1.50 2.05 4.10 0.50 5.65 -1.30 1.30 -3 1.25 -5.25 -0.05 -1.65 -1 -2.30 -1.05 -7.65 -0.80 -3.20 0.20 -6.55 0.45 -7.40 0.65 -1.20 0.20 -1.85 0 -3 -0.95 l-1.45 -1.25 -18.25 5.40 c-46.80 13.80 -59.90 18.50 -66.60 23.85 -2.05 1.65 -2.35 2.15 -2.40 3.80 -0.05 3.90 -4.15 5.25 -7.10 2.35 -1.35 -1.40 -1.50 -1.80 -1.25 -3.75 l0.25 -2.25 -4.60 3.20 c-3.95 2.75 -4.55 3.40 -4.65 4.70 -0.15 2.75 -0.90 3.45 -5.30 4.80 -2.30 0.70 -5.05 1.90 -6.15 2.60 -3.65 2.50 -14.90 11.95 -19.95 16.80 -5.30 5.10 -7.40 8.20 -8 11.85 -0.45 2.60 -1.75 4.05 -3.75 4.05 -3.25 0 -4.45 -3.85 -2.75 -8.75 0.65 -1.90 0.50 -1.80 -3.75 2.60 -3.50 3.65 -4.55 5.10 -5.25 7.25 -1.50 4.50 -3.45 8.40 -7.75 15.70 -4.30 7.15 -8.50 15.50 -8.50 16.80 0 0.40 -0.50 1.55 -1.15 2.45 -1.65 2.45 -9.80 23.25 -12.50 31.95 -4.65 14.90 -4.65 14.70 -5.35 25.75 -0.85 13.15 -2.55 28.30 -4.20 38 -0.45 2.50 -0.80 5.95 -0.80 7.65 0 2.10 -0.30 3.70 -0.85 4.65 -0.75 1.30 -0.80 2.15 -0.25 9.80 1 13.50 1.80 18.50 3.05 19.50 0.75 0.60 1.40 2.25 2.10 4.90 0.50 2.20 1.30 4.60 1.70 5.30 0.40 0.75 1.40 3.90 2.20 7 1.95 7.50 6.65 21.30 8.80 25.75 0.95 2 2.60 4.70 3.70 6.05 2.40 3.10 2.70 4.05 1.80 5.80 -0.70 1.35 -0.55 1.85 2.80 10.25 3.90 9.75 8.65 20.05 10.95 23.65 1.85 2.85 1.90 4.15 0.10 5.95 l-1.45 1.40 3.45 8.05 c1.85 4.45 4.55 11.25 6 15.10 2.25 6.10 2.95 7.35 5 9.45 1.55 1.55 2.40 2.90 2.40 3.70 0 2.60 2.05 7.30 11.40 26.05 9.20 18.40 12.60 25.75 12.60 27.10 0 0.30 -0.55 1.25 -1.25 2.05 -1.50 1.80 -1.55 2.70 -0.25 4.50 0.95 1.35 0.95 1.50 0 15.10 -0.55 7.55 -1.30 17.15 -1.70 21.25 -0.40 4.15 -0.70 8.30 -0.70 9.25 0.05 0.95 -0.10 5.60 -0.35 10.25 -0.25 5.50 -0.15 10.80 0.20 15 0.80 9.05 2.85 19.90 4.65 24.20 0.60 1.55 0.65 0.15 0.50 -12.05 -0.20 -13 -0.15 -14.05 0.85 -17.30 0.80 -2.75 1.60 -4.15 3.55 -6.25 2.15 -2.35 2.70 -3.40 3.60 -6.70 1.20 -4.40 1.20 -4.45 0.35 -7.95 -0.75 -3.10 -0.35 -4.95 1.35 -6.05 1.05 -0.65 1.60 -0.75 2.75 -0.30 1.10 0.45 1.55 0.40 2.05 -0.20 0.95 -1.15 2.75 -1.70 4.10 -1.15 0.70 0.25 2.40 2.30 4.10 4.90 l2.95 4.50 2 -0.25 c2.60 -0.30 3.80 0.95 4.90 5.10 0.45 1.65 1.25 4.75 1.85 6.85 0.55 2.15 1.70 5.40 2.55 7.25 0.90 1.85 2.10 4.65 2.70 6.15 0.90 2.10 1.45 2.80 2.50 3.10 2.05 0.55 3.15 1.80 3.50 4.05 0.70 4.40 3.85 16.20 4.80 18.05 1 1.90 2.35 7.50 4.50 18.30 1.70 8.45 2.60 18 2.70 28.75 0.15 8.95 0.35 11.85 1.65 19.75 2.65 15.85 4.30 33.05 4 41 -0.15 4.20 -0.15 4.25 -1.80 5.25 -1.65 1 -1.65 1 -1.35 4.20 0.35 3.90 1.40 8.55 3.10 13.65 0.95 2.95 1.90 4.60 3.75 6.75 2.55 2.90 2.65 3.30 1.65 6.45 -0.50 1.60 5.75 7.75 8.75 8.60 3.95 1.10 16.70 4.05 17.70 4.05 0.50 0.05 1.55 -0.50 2.40 -1.20z m259.40 -21.20 c0 -0.25 -1.40 -0.60 -3.10 -0.80 -1.75 -0.20 -4.60 -0.70 -6.40 -1.05 -1.80 -0.40 -4.25 -0.95 -5.50 -1.20 -1.25 -0.25 -3.15 -0.70 -4.25 -1 -1.10 -0.30 -4.05 -0.85 -6.50 -1.25 -2.50 -0.35 -4.95 -0.85 -5.50 -1.05 -0.55 -0.15 -0.15 0.25 0.85 1 1 0.70 2.35 1.30 3 1.30 0.60 0 3.05 0.85 5.40 1.85 2.35 1 5.60 2 7.25 2.15 4.55 0.55 14.75 0.55 14.75 0.05z m-179.05 -10.15 c1.15 -3.40 2.05 -10.55 2.05 -16.25 0 -2.75 -0.30 -4.15 -1.25 -6.25 -0.70 -1.45 -1.25 -3.25 -1.25 -4 0 -1.70 -0.15 -1.70 -1.75 -0.30 -1.15 1 -1.30 1.45 -1.15 3.80 0.15 2.45 0.30 2.75 1.65 3.30 2.75 1.15 2.95 1.75 2.55 7.95 -0.25 4.95 -0.85 8.85 -2.05 13.50 -0.65 2.55 0.15 1.35 1.20 -1.75z m146.70 -8.70 c-1.55 -3.45 -2.60 -4.55 -8 -8.80 -8.10 -6.30 -7.35 -5.90 -6.95 -3.60 0.70 3.75 2.20 6 5.95 8.90 3.50 2.65 9.30 6.05 9.70 5.60 0.10 -0.10 -0.20 -1.05 -0.70 -2.10z m-309.95 -144.05 c0.20 -1.90 0.45 -4 0.60 -4.75 0.25 -1.15 0.10 -1.40 -0.75 -1.40 -0.75 0 -1.05 0.40 -1.25 1.65 -0.15 0.85 -0.50 2.75 -0.70 4.20 -0.30 1.70 -0.30 2.75 0.05 3.10 1.20 1.20 1.75 0.50 2.05 -2.80z m417.60 -44.30 c0 -1.70 0.30 -3.60 0.60 -4.20 0.55 -0.95 0.40 -1.55 -0.85 -4 -1.85 -3.70 -4.25 -7.70 -3.80 -6.40 0.20 0.55 0.85 3.80 1.55 7.25 1 5.35 2.20 10.50 2.40 10.50 0 0 0.05 -1.40 0.10 -3.15z m-18.15 -9.80 c-0.35 -0.45 -0.70 0.40 -0.95 2.25 l-0.20 1.95 0.65 -2 c0.40 -1.10 0.60 -2.10 0.50 -2.20z m38.10 -5.30 c-0.15 -1.50 -0.50 -2.75 -0.70 -2.75 -0.20 0 -0.15 1.35 0.10 3 0.60 3.75 1.10 3.55 0.60 -0.25z m-33.80 -4.75 c-0.05 -0.80 -2.40 3.90 -2.40 4.75 0 0.30 0.55 -0.50 1.20 -1.75 0.65 -1.25 1.20 -2.60 1.20 -3z m-430.40 0.85 c-0.30 -0.85 -1 -2.15 -1.55 -2.85 -0.80 -1.05 -0.75 -0.70 0.40 2.75 0.90 2.70 1.40 3.60 1.50 2.85 0.10 -0.60 -0.05 -1.85 -0.35 -2.75z m461.95 -14.95 c-1.55 -9.40 -2 -11.35 -2 -8.85 0 1.55 1.90 17.15 2.30 19.20 0.35 1.45 0.35 1.45 0.85 0.40 0.35 -0.85 0.05 -3.65 -1.15 -10.75z m-462.80 -4.10 c-2.35 -4.60 -4.40 -8.25 -4.55 -8.15 -0.20 0.25 7.10 15.15 8 16.25 1.50 1.90 0.45 -0.65 -3.45 -8.10z m-61.15 -128.10 c-1 -4.10 -3.10 -14.20 -5.30 -25.60 -0.70 -3.65 -1.70 -7.50 -2.25 -8.50 l-1 -1.85 0.30 2 c1.05 6.90 4.10 20.80 6.30 28.85 2.55 9.30 3.85 12.65 1.95 5.10z m508.40 -28.55 c0.05 -1.45 -0.15 -2.65 -0.45 -2.65 -0.30 0 -0.50 1.85 -0.45 4.65 0.05 3.80 0.15 4.25 0.50 2.60 0.20 -1.10 0.40 -3.20 0.40 -4.60z m-527.65 -71.10 c-0.45 -0.65 0.60 -10.75 1.25 -12.15 0.30 -0.70 1.05 -1.50 1.70 -1.80 0.95 -0.45 1.15 -1 1.40 -4.40 0.20 -2.10 0.35 -5.45 0.35 -7.45 0 -3.85 1 -14.80 2.30 -25.65 0.45 -3.65 0.75 -6.70 0.65 -6.75 -5.50 -3.90 -9.95 -8.30 -9.95 -9.85 0 -1.20 -0.45 -1.25 -2.25 -0.30 -1.15 0.60 -1.70 0.65 -2.95 0.10 -1.20 -0.45 -1.75 -1.25 -2.80 -3.80 -1.35 -3.40 -1.55 -3.65 -12.95 -14.75 -6.85 -6.70 -11.70 -12.80 -14.30 -17.95 -2.05 -4.05 -2.20 -5.90 -0.60 -7.15 l1.20 -0.85 -2.90 -5.55 c-6.50 -12.45 -7.70 -17.30 -7.65 -30.75 0.05 -8.05 0.25 -10.50 1.10 -14 0.55 -2.35 1.15 -5.35 1.35 -6.75 0.45 -3.60 3.80 -13.35 6.65 -19.40 4.80 -10.15 7.65 -14.40 14.70 -21.75 3.60 -3.75 6.30 -6.90 6 -7 -1.05 -0.35 -5.50 2.35 -5.80 3.50 -0.15 0.75 -2.50 2.70 -6.50 5.55 -9.40 6.65 -16.60 12.70 -20.20 16.85 -9.45 10.95 -15.40 17.75 -19.45 22.10 -6.55 7.05 -14.75 21.10 -19.20 32.90 -1.60 4.20 -1.60 4.35 -1.60 13 0.05 10.05 0.95 16.50 3.15 23.10 1.90 5.70 3.40 8.60 7.30 14.25 2.25 3.25 3.20 5.10 3.20 6.20 0 1.65 2.90 6.05 17.30 26.45 3.95 5.65 9.75 13.85 12.85 18.20 6.85 9.80 9.05 12.20 14.40 16.05 2.30 1.60 7.25 5.35 10.95 8.25 9.05 7.10 9.85 7.65 11.75 7.80 0.90 0.05 3.20 1.05 5.05 2.15 3.15 1.90 5.10 2.60 4.50 1.60z m-61.15 -43.70 c-1.20 -2 -11.25 -15.85 -11.45 -15.85 -0.35 0 -0.25 0.15 5.65 9.15 2.85 4.35 5.40 7.75 5.65 7.60 0.30 -0.20 0.35 -0.60 0.15 -0.90z m88.55 -34.30 c1.25 -3.15 2.10 -5.55 1.85 -5.25 -0.50 0.45 -4.55 10.35 -4.55 11.05 0 0.75 0.50 -0.35 2.70 -5.80z m-59.20 -44.55 c0 -0.30 -0.40 -2.70 -0.85 -5.40 -0.75 -4.05 -0.90 -7.60 -0.80 -21.85 0.05 -9.35 0.20 -19.35 0.35 -22.25 0.15 -2.90 0.10 -4.80 -0.05 -4.25 -0.15 0.55 -0.70 1.50 -1.25 2.10 -0.90 1 -0.95 1.30 -0.40 2.65 0.70 1.65 0 4.20 -1.30 4.70 -1.30 0.50 -2.15 3.50 -1.65 6 0.45 2.50 0.05 4.20 -1.25 5.25 -1.75 1.45 -0.65 11.90 2.25 21.75 1.75 5.80 4 11.80 4.50 11.80 0.25 0 0.45 -0.25 0.45 -0.50z m114.85 -33.85 c1.60 -1 5.65 -3.15 9.05 -4.80 4.05 -1.90 8.05 -4.35 11.50 -6.95 7.20 -5.45 18.45 -12.80 25.25 -16.55 4.60 -2.55 5.35 -3.15 4.25 -3.25 -1.55 -0.20 -5.50 1.75 -16.60 8.15 -11.60 6.65 -22.45 13.40 -26.80 16.65 -3.45 2.60 -10.25 8.60 -9.75 8.60 0.15 0 1.55 -0.85 3.10 -1.85z m-166.10 -8.25 c5.10 -8.40 14.15 -19.70 23.45 -29.30 4.50 -4.65 4.90 -5.20 4.40 -6.25 -0.30 -0.60 -0.60 -1.50 -0.70 -2 -0.20 -1.30 -16.60 14.85 -17.10 16.90 -0.20 0.80 -1 2.25 -1.75 3.20 -1.70 2.20 -4.45 6.80 -6.45 10.80 -1.30 2.65 -4.10 9.15 -4.10 9.60 0 0.55 0.60 -0.20 2.25 -2.95z m507.40 -4.30 c-1.30 -1.60 -5.85 -6.85 -10.05 -11.70 -8.80 -10.10 -12.30 -12.95 -20.85 -17.25 l-5.70 -2.80 -1.55 1.35 c-2.25 1.85 -3.35 1.65 -5.95 -1.15 -1.60 -1.70 -2.85 -2.50 -4.05 -2.70 l-1.75 -0.30 2.25 2 c4.45 3.95 28.55 22.05 36.55 27.45 3.80 2.60 12.85 8 13.35 8 0.10 0 -0.90 -1.30 -2.25 -2.90z m9.50 -7.15 c0.30 -1.20 0 -1.55 -3.30 -3.80 -7.45 -5.10 -7.90 -5.05 -2.35 0.25 2.90 2.75 5.25 4.95 5.30 4.90 0.05 0 0.20 -0.65 0.35 -1.35z m-289 -16.20 c2.30 -0.60 3.85 0.10 4.65 2.05 0.55 1.35 0.95 1.70 1.60 1.45 0.45 -0.15 5.90 -1.90 12.10 -3.80 6.20 -1.95 11.70 -3.75 12.25 -4 0.80 -0.40 0.80 -0.40 0.10 -0.20 -0.85 0.25 -13.85 0.95 -25.10 1.40 -4.05 0.15 -4.90 0.35 -8.25 2.10 -2.05 1 -4.50 2.60 -5.35 3.50 l-1.60 1.65 4.10 -1.90 c2.25 -1.05 4.70 -2.10 5.50 -2.25z m23.65 -19 c0.90 -0.20 1.85 -0.85 2.20 -1.50 0.35 -0.65 1.30 -1.45 2.10 -1.80 2 -0.85 5.85 -0.30 6.85 0.95 0.80 1 0.80 1 6.30 0.10 7 -1.25 8.45 -1.25 8.05 -0.20 -0.20 0.55 -0.05 0.70 0.60 0.50 0.45 -0.15 1.95 -0.40 3.25 -0.60 2.20 -0.30 2.40 -0.45 2.15 -1.40 -0.20 -0.55 -0.60 -2.80 -0.90 -4.90 -0.50 -3.35 -0.70 -3.80 -1.45 -3.35 -0.75 0.40 -0.90 -0.05 -1.20 -4.70 -0.55 -8.10 0.95 -13.40 4.25 -15.10 1.40 -0.75 3 -0.55 3 0.30 0 0.25 0.60 0.20 1.35 -0.10 0.70 -0.25 3.80 -0.85 6.85 -1.25 8.75 -1.20 8.80 -1.20 8.80 -1.95 0 -0.60 0.90 -0.75 4.65 -0.75 6.70 0 11.70 1.65 15.70 5.15 3.75 3.25 9.35 11.90 7.30 11.25 -0.25 -0.10 -0.45 -0.05 -0.55 0.10 -0.15 0.20 1.80 4.95 2.20 5.45 0.10 0.10 1.20 -0.10 2.40 -0.45 1.95 -0.55 2.20 -0.75 1.80 -1.50 -0.40 -0.75 -0.10 -1 1.90 -1.75 3.15 -1.20 20.35 -11.95 28.20 -17.60 2.35 -1.70 2.35 -1.70 1.40 -2.65 -0.55 -0.55 -1 -1.40 -1 -1.85 0 -0.45 -0.55 -1.65 -1.25 -2.65 -0.85 -1.20 -2.05 -5.20 -4 -13 -3.75 -15.05 -5.15 -19.80 -9.75 -32.75 -5.20 -14.70 -5.50 -15.50 -9.40 -23.10 l-3.35 -6.65 -2.55 0 c-1.35 0 -2.85 -0.30 -3.30 -0.60 -0.45 -0.35 -4.10 -6.40 -8.05 -13.40 -3.95 -7 -9.40 -16.35 -12.05 -20.75 -2.65 -4.40 -4.80 -8.30 -4.80 -8.70 0 -0.40 0.35 -0.55 1 -0.40 1 0.25 0.65 -0.45 -4.25 -7.85 l-1.85 -2.75 -1.35 0.95 c-0.70 0.55 -3.10 1.45 -5.30 2.05 -4.80 1.25 -4.55 1.20 -6.85 0.75 -1.80 -0.35 -2.70 0.30 -1.25 0.85 1.55 0.65 -5.10 0.25 -7.80 -0.45 -8.15 -2.10 -14.15 -7.75 -17.25 -16.20 -1.80 -4.85 -2.15 -14.05 -0.70 -18.85 0.60 -1.90 1.60 -4.25 2.25 -5.20 l1.15 -1.70 -2.70 -6.75 c-1.50 -3.70 -3.90 -9.90 -5.35 -13.75 -1.45 -3.85 -3.55 -8.55 -4.70 -10.50 -1.15 -1.90 -2.05 -3.80 -2.05 -4.20 0 -0.45 -0.15 -0.55 -0.45 -0.30 -0.40 0.45 -2.10 8 -4.30 19 -1.90 9.50 -4.55 21.55 -8 36 -4 16.90 -8.35 36.85 -9.30 42.70 l-0.60 3.70 1.45 1.20 c7.35 6.05 9.55 9.20 11.20 16.15 2.75 11.95 -0.45 31.95 -7.15 44.10 -0.85 1.60 -1.75 2.90 -1.95 2.90 -0.25 0 -0.40 0.35 -0.40 0.75 0 0.45 -0.45 0.75 -1.10 0.75 -0.95 0 -1 -0.10 -0.40 -0.50 0.40 -0.25 0.55 -0.50 0.30 -0.50 -0.25 0 -0.15 -0.40 0.20 -0.85 0.35 -0.50 -0.10 -0.10 -0.95 0.85 -0.90 0.95 -2.20 2.40 -2.95 3.20 -0.75 0.80 -3 2.25 -5 3.15 -3.40 1.60 -4 1.70 -7.85 1.55 l-4.20 -0.15 -0.15 3.35 c-0.10 2.65 0 3.20 0.50 2.80 0.50 -0.45 0.55 1.05 0.30 7.65 -0.20 5.15 -0.10 10.25 0.25 13.70 0.75 7.05 3.85 29.70 4.80 35.25 0.40 2.35 0.75 4.40 0.75 4.55 0 0.15 0.65 0.20 1.50 0.05 3.15 -0.45 6 1.25 6 3.60 0 1.15 0.20 1.25 2.65 1.40 3.80 0.20 22.35 -0.45 24.15 -0.85z m62.70 -9.80 c4 -1.15 7.35 -2.20 7.50 -2.30 0.55 -0.50 -2.35 -4.85 -4.20 -6.40 -2.45 -1.95 -10.85 -6.25 -12.30 -6.25 -1.20 0 -11.25 3.75 -12.85 4.75 -0.60 0.40 -1.35 1.65 -1.65 2.75 -0.45 1.75 -0.35 2.55 0.85 6.15 l1.40 4.10 3.35 0.25 c1.80 0.15 3.45 0.40 3.65 0.60 0.20 0.15 1.85 -0.10 3.65 -0.65 1.85 -0.50 6.60 -1.90 10.60 -3z m-243.10 -7.55 c0.30 -1.55 -0.75 -1.35 -3.70 0.65 -1.60 1.10 -3.05 2.10 -3.15 2.25 -0.10 0.10 1.35 -0.35 3.25 -1 2.05 -0.70 3.50 -1.45 3.60 -1.90z m304.35 -18.50 c0.75 -3.15 1.05 -5.85 0.70 -5.60 -0.25 0.15 -0.45 0.60 -0.45 1 0 0.40 -0.45 1.10 -1 1.55 -1.40 1.20 -1.35 4.15 0.05 4.15 0.25 0 0.55 -0.50 0.70 -1.10z m-154.15 -47.80 c4.45 -4.35 6.80 -9.45 8.15 -17.85 0.95 -5.75 0.95 -8.25 -0.05 -14.20 -0.90 -5.40 -1.20 -5.95 -5.05 -10.15 -2.70 -2.90 -3.15 -4.25 -1.40 -4.05 0.75 0.05 0.75 -0.05 0.20 -0.60 -0.75 -0.70 -1.50 -0.90 -3.30 -0.80 -1.30 0.05 -1.60 1.55 -0.35 1.55 0.70 0 0.80 0.35 0.50 2.40 -2.35 16.30 -4.95 42.50 -4.50 45.20 0.30 1.75 0.45 1.85 1.65 1.60 0.70 -0.20 2.55 -1.55 4.15 -3.10z m362.60 0.80 c-0.70 -1.25 -5.10 -6.65 -6.15 -7.60 -0.65 -0.60 -0.15 0.60 1.35 3.35 1.85 3.35 2.65 4.35 3.60 4.50 0.70 0.10 1.30 0.25 1.40 0.30 0.10 0 0 -0.25 -0.20 -0.55z m-39.45 -33.85 c-0.30 -0.25 -2.40 -1.95 -4.75 -3.80 -4.20 -3.30 -7.50 -5.10 -17.40 -9.45 l-5.15 -2.25 2.15 2.50 c5.15 6.10 7.70 8.50 10.10 9.70 2.10 1 7.20 2.25 13.80 3.40 0.70 0.10 1.35 0.25 1.50 0.30 0.10 0 0 -0.15 -0.25 -0.40z m-247.25 -61.90 c0.10 -0.10 -0.20 -0.90 -0.65 -1.80 -0.90 -1.60 -11.80 -17.45 -12.50 -18.20 -0.40 -0.35 2.25 5.65 4.15 9.45 0.60 1.15 2.35 4.25 3.90 6.75 2.40 3.95 2.95 4.60 3.85 4.35 0.55 -0.20 1.10 -0.40 1.25 -0.55z m-18.25 -4.25 c-0.60 -1.20 -2.20 -4.55 -3.55 -7.50 -1.30 -2.95 -2.45 -5.30 -2.55 -5.20 -0.40 0.40 1 5.85 2.10 8.05 1.05 2.15 4.45 6.75 5 6.75 0.10 0 -0.35 -0.95 -1 -2.10z m-1.20 -28.25 c-0.30 -0.50 -1.10 -1.55 -1.80 -2.40 -0.90 -1.05 -1.15 -1.20 -0.80 -0.40 0.30 0.60 0.75 1.65 1.05 2.35 0.25 0.70 0.85 1.30 1.25 1.30 0.60 0 0.65 -0.20 0.30 -0.85z m-1.20 -16.30 c-1.50 -3.50 -2.35 -4.85 -2.95 -4.85 -1.55 0 -1 1.60 2 5.80 1.55 2.25 2.90 4.05 2.95 4 0.05 -0.05 -0.85 -2.30 -2 -4.95z"/>
  <path d="M453.95 801.45 c-0.95 -0.95 -1.05 -1.45 -0.80 -4.25 0.20 -1.75 0.95 -5.10 1.75 -7.45 1.35 -4.10 1.40 -4.30 0.50 -5.10 -1.20 -1.05 -1.15 -3.70 0.05 -5.25 1.40 -1.75 6.55 -19.50 6.55 -22.50 0 -0.50 -2.20 -0.65 -9.15 -0.75 -13 -0.10 -19.75 -1.65 -21.25 -4.80 -0.60 -1.20 -0.55 -1.65 0.40 -3.65 1.30 -2.60 3 -3.90 4.70 -3.60 0.95 0.20 1.50 -0.10 2.30 -1.20 1.10 -1.45 1.10 -1.50 4.90 -1.15 3.35 0.30 4 0.50 5.10 1.70 0.70 0.75 2.40 1.90 3.75 2.50 2.25 1.05 3 1.15 7.75 0.90 3.40 -0.20 7.40 -0.85 11.25 -1.80 3.30 -0.85 6.40 -1.55 6.90 -1.55 0.50 0 1.40 0.55 2.05 1.25 l1.15 1.25 3.75 -0.75 c3 -0.55 4.10 -1.05 5.30 -2.25 1 -1 2 -1.50 3 -1.50 2.10 0 12.15 -1.80 16.85 -3.05 2.20 -0.55 5.20 -1.25 6.60 -1.50 4.70 -0.85 14.15 -3.95 18.25 -6 3.15 -1.60 4.30 -1.95 5.50 -1.70 1.15 0.30 2.85 -0.15 7 -1.80 4.85 -1.90 5.60 -2.35 6.80 -4.15 0.75 -1.15 1.85 -2.10 2.35 -2.20 2.75 -0.40 3.60 -0.90 6.80 -3.90 3.20 -3 3.65 -3.25 5.15 -3 1.85 0.35 4.10 -1 8.65 -5.25 1.40 -1.35 2.95 -2.45 3.35 -2.45 1.25 0 4.25 -3.60 5.35 -6.45 1.65 -4.40 3.65 -5.15 6.60 -2.55 0.95 0.85 2.10 1.50 2.55 1.50 1.35 0 3.30 2.45 3.30 4.15 0 2.55 -2.25 5.55 -8.35 11.15 -6.05 5.50 -9.75 8.40 -13.80 10.80 l-2.25 1.30 0.50 2.20 c0.35 1.50 0.30 2.70 -0.10 3.95 -0.60 1.75 -0.50 2 4.05 10 8.30 14.65 10.15 20 7.65 22.50 -1.95 1.90 -5.75 1.20 -10.40 -2 -1.85 -1.30 -2.45 -1.45 -3.50 -1.05 -2 0.75 -3.45 -0.10 -5.95 -3.65 -2.55 -3.55 -4 -5.30 -12.25 -14.50 -3.15 -3.50 -5.90 -6.35 -6.20 -6.35 -0.25 0 -3.45 1.25 -7.10 2.80 -16.95 7.25 -36.95 12.50 -56.85 14.95 l-2.25 0.30 -0.90 4.35 c-1.55 7.80 -5.35 21.35 -6.20 22.20 -0.45 0.45 -1.50 0.95 -2.30 1.05 -1.20 0.15 -2.30 1.30 -6.35 6.90 -2.75 3.70 -5.50 7.85 -6.20 9.25 -0.65 1.45 -1.60 2.70 -2.05 2.90 -1.55 0.60 -3.20 0.30 -4.25 -0.75z m18.25 -35.05 c0.95 -3.65 1.85 -7.50 2 -8.50 l0.35 -1.90 -2.40 0 -2.45 0 -0.80 3.90 c-0.75 3.70 -0.75 3.90 0.15 4.90 1.20 1.30 1.20 3.30 -0.05 6.95 -1.30 3.75 -1.25 3.95 0.30 2.50 1 -0.90 1.60 -2.60 2.90 -7.85z m99.50 -22 c-2.65 -4.75 -5.35 -9.60 -6 -10.70 l-1.15 -2.05 -3.95 1.55 -3.90 1.55 1.85 2 c1.05 1.10 2.85 3.20 4.05 4.70 2.30 2.90 2.85 3.35 5.10 3.80 0.80 0.15 2.05 1 2.75 1.85 2.75 3.30 5.70 6.40 5.90 6.20 0.15 -0.10 -1.95 -4.10 -4.65 -8.90z"/>
  <path d="M472.25 663.45 c-2.20 -0.25 -12.20 -0.55 -22.25 -0.70 -27 -0.35 -32.55 -1.10 -42.95 -6 -10.30 -4.90 -15.70 -10.30 -22.80 -22.75 -1.30 -2.35 -3.05 -5 -3.80 -5.90 -1.50 -1.70 -3.15 -4.65 -4.15 -7.35 -0.30 -0.85 -3.65 -7.05 -7.40 -13.75 -9.45 -16.95 -11.45 -22.35 -13.10 -35.60 -0.40 -3.50 -1.10 -7 -1.45 -7.75 -1.30 -2.60 -2.80 -7.90 -3.40 -12.10 -0.95 -6.95 -0.30 -24.15 1.50 -38.30 0.85 -6.60 1.55 -12.80 1.55 -13.80 0 -1 0.40 -2.35 0.95 -3 0.50 -0.65 1.05 -1.70 1.25 -2.30 0.15 -0.65 0.40 -1.55 0.55 -2.05 0.20 -0.75 -0.05 -0.90 -1.55 -0.90 -2.55 0 -3.90 -1.70 -3.50 -4.45 0.15 -1.10 2.30 -6 4.75 -10.90 4.45 -8.80 4.50 -8.90 3.50 -9.90 -2.15 -2.15 -0.55 -5.65 6.65 -14.20 4.70 -5.65 26.35 -28.25 29.75 -31.10 3.20 -2.70 14.50 -8.65 16.40 -8.65 0.80 0 1.80 0.35 2.30 0.80 0.80 0.75 1.35 0.70 6.55 -0.50 6.60 -1.55 7.90 -2.05 7.90 -2.95 0 -0.40 0.45 -1.10 0.95 -1.55 0.80 -0.70 2.35 -0.90 9.60 -1.10 4.80 -0.15 12.85 -0.40 17.95 -0.55 17.45 -0.60 38 -0.45 41 0.30 4.30 1.10 7.45 2.65 10.90 5.40 2.35 1.90 3.70 2.65 5.45 2.90 6.25 0.95 14.35 4.80 25.90 12.45 4.70 3.10 10.55 6.95 13 8.60 2.50 1.60 6.40 4.80 8.75 7.15 2.35 2.30 5.70 5.35 7.50 6.75 1.80 1.40 5.50 4.55 8.25 7 l5 4.45 0.25 -1.65 c0.30 -2.10 2.40 -3.75 4.20 -3.30 2.05 0.50 3.40 2.40 8.25 11.65 2.55 4.80 5.60 10.25 6.80 12.15 4.45 6.95 6.65 12.40 8.05 19.85 0.45 2.40 1.45 6.55 2.20 9.15 2.45 8.05 3.95 16.50 5.50 29.95 0.80 6.95 -0.65 17.95 -5.25 40 -0.75 3.50 -0.80 4.65 -0.35 6.40 1.35 5 -1.30 13.65 -7.35 24.15 -1.50 2.60 -4.15 7.90 -5.90 11.75 -4.55 10 -7.35 12.65 -17.40 16.25 -2.45 0.90 -7.30 3.05 -10.75 4.75 -7.45 3.70 -11.80 5.35 -17.50 6.75 -2.35 0.60 -6.05 1.75 -8.25 2.60 -4.30 1.65 -12.95 3.70 -22.50 5.35 -8.40 1.50 -8.10 1.40 -8.45 2.80 -0.35 1.45 -1.60 2.20 -5.30 3.15 -3.30 0.85 -31.50 1.25 -37.75 0.55z m21.25 -8.85 c2.20 -0.35 2.25 -0.40 2.30 -2.30 0.05 -1.40 0.40 -2.25 1.20 -2.90 1.40 -1.10 3.65 -1.15 4.55 -0.10 0.55 0.70 1.35 0.80 4.70 0.55 4.90 -0.35 6.50 -0.90 21 -7.30 10.75 -4.75 26.05 -10.55 27.90 -10.55 2.40 0 3.75 4.15 2 6.10 -0.80 0.90 -0.65 0.85 1.60 -0.10 1.40 -0.60 5.75 -2.20 9.70 -3.60 7.55 -2.60 11.70 -4.45 12.35 -5.50 0.20 -0.35 0.45 -1.20 0.50 -1.85 0.10 -0.70 0.55 -1.60 1.05 -2 0.85 -0.65 0.85 -0.65 -0.10 -0.30 -2.75 1.05 -6.45 1.65 -7.55 1.25 -1.70 -0.65 -2.80 -2.60 -2.40 -4.25 0.40 -1.60 1.65 -2.45 4.90 -3.20 4.80 -1.15 11.20 -5.40 18.70 -12.30 4.30 -4 4.65 -4.60 6.30 -10.95 1.10 -4.50 1.15 -4.95 0.45 -6.25 -0.75 -1.25 -0.65 -1.90 1.50 -10.80 4.35 -18 4.50 -19.80 3.45 -43.65 -0.60 -13.50 -1.30 -21.50 -2.10 -23.45 -0.25 -0.65 -0.90 -1.15 -1.40 -1.15 -0.55 0 -1.30 -0.40 -1.70 -0.85 -1.05 -1.15 -3.70 -6.55 -6.65 -13.40 -6.20 -14.30 -12.50 -24.05 -20.80 -32 -6.15 -5.90 -9.15 -8 -20.85 -14.85 -5.80 -3.40 -11.90 -7.25 -13.60 -8.65 -8.35 -6.75 -10.30 -8 -20.45 -13.25 -7.35 -3.75 -11.20 -5.50 -12.15 -5.40 -1.25 0.15 -1.20 0.25 2.15 4.10 4 4.55 4.45 6.45 2.15 8.25 -2.30 1.80 -3.05 1.40 -8.90 -4.70 -3 -3.20 -5.80 -5.75 -6.25 -5.70 -2.60 0.25 -4.55 -1.15 -4.55 -3.25 0 -0.70 -0.20 -1.35 -0.45 -1.50 -0.65 -0.40 -24.25 -4.20 -29.65 -4.80 -5.70 -0.60 -13.45 -0.60 -16.15 -0.05 -1.10 0.25 -7.75 1.85 -14.75 3.50 -13.60 3.25 -21.50 5.50 -21.50 6.05 0 0.20 0.35 0.65 0.75 1 1 0.85 0.95 3.15 -0.10 4.45 -0.60 0.70 -1.85 1.20 -3.80 1.55 -1.60 0.25 -3.45 0.90 -4.20 1.45 -0.70 0.60 -2.15 1.30 -3.20 1.55 -1.05 0.30 -3.30 1.65 -4.95 3.05 -2.35 1.95 -3 2.80 -3 3.85 0 1.80 -0.80 2.80 -3.15 3.85 -1.05 0.50 -2.75 1.90 -3.85 3.15 -3.80 4.30 -9.55 12.10 -10.50 14.25 -2.30 5.15 -5.40 20.50 -6.70 32.90 l-0.70 6.65 1.20 1.45 c1.45 1.75 1.45 1.90 0.20 5.25 -0.55 1.45 -1 3.40 -1 4.35 0 1 -0.30 2.30 -0.70 2.90 -3.20 5.05 -3.65 35.50 -0.80 52.05 2 11.30 4.25 17.15 8.45 21.95 2.75 3.15 2.90 3.70 1.85 5.75 -0.65 1.25 -0.55 1.65 0.80 4.65 1.40 3.15 1.50 3.25 3.25 3.25 2.90 0 3.75 1.50 3.35 5.90 l-0.30 3.60 3.35 4.95 c1.85 2.75 4.80 6.70 6.50 8.75 1.70 2.05 3.20 4.20 3.30 4.70 0.45 2.25 20.35 14.15 28.10 16.85 l4.05 1.40 1.10 -1.25 c1.65 -1.75 3.95 -1.60 6 0.35 1.95 1.90 4.80 2.65 12.75 3.45 4.35 0.40 6.60 0.85 7.45 1.50 1.65 1.15 3.70 1.60 9.50 2.05 5.20 0.40 24.90 0.10 28.50 -0.45z m-81.20 -4.35 c-2.90 -1.50 -6.95 -3.75 -8.95 -5 l-3.60 -2.30 2.10 1.95 c2.20 2 7.10 4.80 12.10 6.90 4.60 1.90 4 1.35 -1.65 -1.55z m127.90 -4.75 c0.75 -0.75 -0.50 -0.60 -2.20 0.25 -0.85 0.45 -1.50 0.85 -1.50 1 0 0.35 3.15 -0.70 3.70 -1.25z m9.55 -3.55 c1.55 -0.60 2.75 -1.15 2.60 -1.25 -0.20 -0.20 -6.35 1.80 -6.35 2.10 0 0.40 1 0.20 3.75 -0.85z m-189.25 -154.90 c0.25 -0.55 0.50 -1.60 0.45 -2.40 0 -1.35 -0.05 -1.30 -0.95 0.60 -0.50 1.10 -0.95 2.15 -0.95 2.40 -0.10 0.75 0.95 0.30 1.45 -0.60z"/>
  <path d="M494.35 611.70 c-0.20 -0.20 -5.15 -0.45 -11 -0.50 -5.85 -0.05 -13 -0.35 -16 -0.65 -2.95 -0.35 -8.70 -0.80 -12.75 -1.05 -11.40 -0.70 -15.65 -2.50 -23.95 -10.20 -9.05 -8.40 -19.95 -25.25 -23.40 -36.20 -3.15 -9.80 -3.50 -11.90 -3.45 -20.10 0.05 -9.65 0.90 -13.05 5.55 -22.50 4.30 -8.80 6.80 -12.60 11.20 -17.25 5.25 -5.50 9.75 -8.35 16.85 -10.60 3.20 -1 8 -2.70 10.60 -3.75 6.95 -2.85 9.65 -3.40 16.05 -3.40 7.50 0 19.75 0.85 21.95 1.50 0.95 0.25 3 1.30 4.55 2.25 1.55 0.95 3.40 1.75 4.10 1.75 2 0 9.85 2.40 13.10 4 1.65 0.85 4.25 2.60 5.80 3.90 1.55 1.30 4.35 3.45 6.20 4.80 9.40 6.85 11.55 9.40 15.75 19.05 4.95 11.40 7.25 20 8.10 30.65 1 11.65 -0.65 24.25 -4.15 32 -2.85 6.30 -8.15 12.45 -13.20 15.35 -1.40 0.75 -4 2.35 -5.80 3.50 -7.70 5 -13.65 7.15 -20.95 7.60 -2.60 0.15 -4.95 0.10 -5.15 -0.15z"/>
  <path d="M408.40 237.20 c-7.90 -1.90 -12.80 -7.25 -15.20 -16.65 -0.65 -2.60 -0.75 -5 -0.60 -12.25 0.20 -7.95 0.35 -9.40 1.40 -12.05 1.80 -4.65 6.45 -8.80 7.30 -6.55 0.20 0.55 0.60 0.65 1.55 0.25 0.65 -0.25 1.95 -0.45 2.80 -0.45 1.35 -0.05 1.45 -0.10 0.75 -0.55 -0.50 -0.25 -0.90 -0.75 -0.90 -1.05 0 -0.90 10.20 -0.10 14.50 1.10 7.85 2.20 13.70 6.85 15.25 12.10 1.05 3.60 1.05 13.90 0 13.90 -0.40 0 -0.75 -0.40 -0.80 -0.85 0 -0.50 -0.35 0.70 -0.70 2.60 -0.35 1.95 -1.05 4.80 -1.60 6.40 -0.80 2.25 -0.85 2.85 -0.30 2.85 2.70 0 -2.35 7.90 -6.35 10 -3.85 1.95 -11.70 2.55 -17.10 1.20z m12 -13.05 c2.70 -1.95 4.60 -7.85 3.85 -12.05 l-0.30 -1.95 -2.45 0.25 c-3.45 0.30 -4.90 -0.20 -6.05 -2.10 -1.05 -1.85 -5.40 -5.05 -7.45 -5.55 -1.60 -0.40 -3.65 1.60 -4.65 4.50 -0.90 2.45 -0.30 7.30 1.25 10.65 1.25 2.60 4.75 5.80 7.55 6.80 2.70 1 6.50 0.75 8.25 -0.55z"/>
  <path d="M674.55 398.20 c-0.60 -0.75 -1.05 -1.80 -1.05 -2.35 0 -1 2.60 -3.80 6.25 -6.75 1.55 -1.25 1.85 -1.70 1.35 -2.20 -1.75 -1.75 0.45 -5.70 9.80 -17.80 8.75 -11.20 11.90 -16.90 15.35 -27.60 2.35 -7.15 2.65 -7.85 4.35 -9.90 3 -3.50 4.05 -7 4.65 -15.25 0.30 -3.55 0.20 -4.60 -0.40 -5.25 -1.35 -1.55 -1.50 -3.05 -0.40 -5.10 0.55 -1.10 1.25 -3.40 1.55 -5.15 0.55 -3 0.90 -3.80 3.10 -6.90 1.45 -2.10 2.40 -9.90 2.40 -19.80 0 -9.10 0 -9.20 1.25 -10.40 1.35 -1.40 2.10 -1.50 3.95 -0.70 2.20 1 2.45 2.60 2.20 13.60 -0.20 7.95 -0.50 11.15 -1.40 15.10 -0.90 4.05 -1 5.30 -0.55 6.55 1.55 4.25 -0.45 17.20 -4.05 26.10 -0.80 2.10 -2.15 6.35 -2.95 9.40 -1.70 6.85 -6.25 18.55 -7.80 20.10 -0.60 0.60 -1.55 1.10 -2.10 1.10 -0.65 0 -1.35 0.60 -1.80 1.50 -0.80 1.60 -0.65 2.50 0.45 2.50 1.10 0 2.30 1.75 2.30 3.35 0 1.10 -1.20 3.35 -4.10 7.75 -6.90 10.40 -11.75 15.75 -22.60 24.85 -6.15 5.15 -7.85 5.70 -9.75 3.25z"/>
 </g>
 <g fill="#d6f6c5">
  <path d="M344.15 310.10 c-2.20 -0.10 -2.65 -0.30 -2.65 -1.10 0 -1.60 -0.55 -2.50 -2.05 -3.25 -1.45 -0.80 -2.65 -0.60 -4.10 0.65 -0.45 0.40 -0.95 0.65 -1 0.55 -0.45 -0.60 -4.90 -32.40 -5.90 -41.85 -0.35 -3.50 -0.45 -8.80 -0.25 -13.75 0.35 -9.40 0.35 -9.40 0.85 -9.05 0.20 0.10 0.70 -0.15 1.10 -0.55 0.45 -0.40 1.10 -0.75 1.45 -0.75 0.40 0 1.20 -0.55 1.80 -1.25 0.65 -0.70 1.65 -1.25 2.35 -1.25 0.70 0 1.25 -0.25 1.25 -0.55 0 -0.30 0.45 -0.45 1 -0.30 0.55 0.15 1 0.05 1 -0.25 0 -0.30 0.45 -0.40 1 -0.25 0.55 0.15 1.15 0.05 1.30 -0.20 0.15 -0.25 1.45 -0.40 2.85 -0.35 2.20 0.15 2.60 0 2.55 -0.70 -0.05 -0.50 0.15 -0.90 0.40 -0.90 0.30 0 0.40 -0.35 0.20 -0.75 -0.15 -0.40 -0.05 -0.75 0.25 -0.75 0.30 0 0.35 -0.20 0.20 -0.50 -0.15 -0.25 -0.05 -0.50 0.30 -0.50 0.35 0 0.50 -0.15 0.30 -0.30 -0.15 -0.20 0.05 -0.65 0.45 -1.05 0.40 -0.45 0.65 -1.10 0.50 -1.45 -0.15 -0.40 0 -0.70 0.30 -0.70 0.30 0 0.40 -0.15 0.25 -0.35 -0.20 -0.15 -0.05 -0.65 0.30 -1.05 0.50 -0.65 0.45 -0.70 -0.15 -0.35 -0.65 0.35 -0.65 0.30 0 -0.55 4.70 -5.80 10 -24.40 10 -35.05 0 -10.80 -3.20 -18.15 -10.25 -23.70 -3.20 -2.50 -3.25 -2.60 -3.25 -4.95 0 -3.90 3.55 -21.20 9.75 -47.25 4 -16.95 4.70 -20 8 -36 2.75 -13.30 5.20 -24.35 5.50 -24.65 0.05 -0.10 0.65 1.35 1.20 3.25 0.60 1.85 2.05 5.10 3.25 7.15 1.20 2.05 2.65 5.10 3.25 6.75 0.60 1.65 3.15 8.20 5.65 14.60 l4.55 11.60 -1.30 1.50 c-0.70 0.85 -1.80 2.85 -2.45 4.40 -0.95 2.45 -1.15 3.75 -1.10 8.65 0.05 4.85 0.25 6.25 1.25 9 2.40 6.30 6.90 11.70 12 14.25 2.40 1.25 7.60 2.75 9.40 2.75 0.60 0 1.60 0.45 2.20 1.05 0.65 0.60 1.50 0.90 2.05 0.75 0.55 -0.15 1.30 0 1.65 0.30 0.40 0.30 0.80 0.40 1 0.25 0.15 -0.20 0.75 -0.05 1.35 0.25 0.55 0.35 1.35 0.65 1.65 0.70 0.35 0.05 1.80 0.85 3.25 1.70 1.90 1.15 2.95 1.50 3.95 1.30 0.80 -0.15 1.55 -0.10 1.65 0.15 0.15 0.25 1.20 0.45 2.30 0.45 1.10 0 2.20 0.15 2.50 0.35 0.65 0.40 10.30 16.60 17.75 29.75 3.45 6.20 6.70 11.55 7.15 11.90 1.10 0.85 3.10 0.75 4.15 -0.20 0.85 -0.75 1 -0.55 2.90 3.25 1.15 2.20 2.70 5.20 3.45 6.65 1.90 3.50 3.45 7.50 8.10 20.65 4.60 13 6 17.70 9.75 32.75 1.95 7.80 3.15 11.80 4 13 0.70 1 1.25 2.20 1.25 2.65 0 1.25 1.80 2.85 3.25 2.85 1.05 0 1.25 0.25 1.25 1.40 0 1.05 -0.25 1.35 -1.15 1.40 -0.60 0.05 -4.25 2.20 -8.10 4.80 -10.80 7.30 -21.25 13.70 -24.05 14.70 -2.50 0.85 -2.55 0.85 -3.60 -0.20 -0.90 -0.90 -5.05 -3.30 -6.45 -3.75 -0.25 -0.05 -1.65 -1.80 -3.20 -3.85 -1.50 -2.05 -3.60 -4.50 -4.60 -5.35 -3.80 -3.35 -9.05 -5.15 -14.80 -5.15 -3.45 0 -3.85 -0.10 -4.30 -1.10 -0.95 -2.10 -7.40 -3.55 -12 -2.70 -4.20 0.75 -4.25 0.80 -4.25 1.95 0 0.60 -0.30 1.70 -0.70 2.45 -0.55 1 -0.55 1.40 -0.15 1.60 0.40 0.15 0.25 0.45 -0.40 0.85 -1.90 1.20 -3.75 3.55 -4.35 5.60 -0.35 1.25 -0.60 4.30 -0.50 7.55 0.10 4.25 -0.05 5.55 -0.65 6 -0.40 0.30 -0.80 1.50 -0.95 2.70 -0.15 1.20 -0.80 3.35 -1.45 4.80 -1.20 2.60 -1.25 2.65 -4.15 3.20 -1.65 0.30 -4.95 0.85 -7.35 1.20 -4.30 0.60 -4.45 0.60 -5.25 -0.45 -1.70 -2.10 -4.80 -1.80 -6.10 0.60 -0.35 0.65 -1.20 1.30 -1.95 1.45 -2.40 0.55 -22.80 1.20 -27.40 0.90z m75.10 -74.15 c5.15 -0.95 8.45 -3.35 10.75 -7.80 0.60 -1.20 1.30 -2.15 1.60 -2.15 0.25 0 1.65 0.55 3.05 1.20 3.50 1.60 4.35 1.85 4.35 1.30 0 -0.25 -0.20 -0.55 -0.50 -0.75 -0.25 -0.15 -0.35 -0.60 -0.15 -1 0.15 -0.40 0 -0.75 -0.30 -0.75 -0.30 0 -0.40 -0.35 -0.25 -0.75 0.20 -0.40 0.05 -0.75 -0.30 -0.75 -0.35 0 -0.45 -0.40 -0.25 -1 0.20 -0.55 0.10 -1 -0.20 -1 -0.30 0 -0.40 -0.35 -0.25 -0.75 0.20 -0.40 0.05 -0.75 -0.25 -0.75 -0.30 0 -0.40 -0.35 -0.25 -0.75 0.20 -0.40 0.05 -0.75 -0.30 -0.75 -0.40 0 -0.50 -0.45 -0.30 -1.25 0.20 -0.75 0.10 -1.25 -0.20 -1.25 -0.30 0 -0.45 -0.20 -0.25 -0.45 0.15 -0.25 0.05 -0.60 -0.25 -0.80 -0.30 -0.15 -0.50 -2.50 -0.50 -5.45 0 -6.80 -0.85 -9.50 -4 -12.95 -4.20 -4.55 -11.35 -7.55 -19.75 -8.15 -2.40 -0.15 -4.95 -0.70 -6.35 -1.30 -2.65 -1.20 -2.95 -1.10 -3.10 0.95 -0.05 0.95 -0.85 2.15 -2.35 3.65 -3.60 3.55 -4.55 6.65 -4.85 15.75 -0.15 5.95 -0.05 8.20 0.60 10.75 2.40 9.45 7.25 14.80 15.20 16.70 3.60 0.90 5.65 0.95 9.35 0.25z"/>
  <path d="M410.80 226.20 c-1.10 -0.40 -2.75 -1.30 -3.70 -2 -1.50 -1.15 -1.60 -1.40 -0.90 -1.80 1.05 -0.60 17.55 -0.80 18.10 -0.25 0.60 0.60 -1.45 3 -3.35 3.95 -2.10 1.10 -7.35 1.15 -10.15 0.10z"/>
  <path d="M483.75 223.15 c-1.75 -5.20 -3.75 -10.10 -6.85 -16.65 -3.90 -8.20 -4.25 -9.05 -7.15 -18.25 -1.60 -4.95 -3.30 -9.40 -3.75 -9.95 -0.50 -0.50 -1.60 -1.05 -2.45 -1.25 -1.50 -0.30 -1.95 -0.95 -6.10 -8.95 -2.95 -5.60 -4.25 -8.60 -3.80 -8.60 0.40 0 2.65 1.95 5.05 4.40 5.15 5.15 9.50 11.40 13.20 18.85 0.65 1.40 1.65 3.35 2.20 4.35 0.50 1.05 0.95 2 0.95 2.15 0 0.10 0.45 1.30 1 2.55 0.55 1.30 1.05 2.70 1.15 3.15 0.10 0.45 0.30 1.15 0.45 1.55 0.60 1.45 2.35 9.25 2.35 10.60 0 0.75 0.20 1.45 0.45 1.65 0.25 0.15 0.75 1.55 1.10 3.15 0.35 1.55 0.80 3.10 1.05 3.40 0.20 0.30 0.45 1.15 0.50 1.90 0.05 0.70 0.30 1.30 0.55 1.30 0.25 0 0.35 0.30 0.20 0.65 -0.10 0.30 0 1.30 0.25 2.10 0.90 3.05 1.60 6.25 1.35 6.25 -0.15 0 -0.90 -1.95 -1.70 -4.35z"/>
  <path d="M332.65 143.75 c-0.80 -0.90 -0.85 -4.75 -0.10 -4.75 0.40 0 0.50 -0.80 0.30 -2.50 -0.15 -1.35 -0.10 -2.50 0.10 -2.50 0.25 0 0.40 -0.80 0.35 -1.75 -0.05 -0.95 0.15 -1.75 0.35 -1.75 0.25 0 0.35 -0.65 0.25 -1.50 -0.10 -0.80 -0.05 -1.55 0.20 -1.60 0.25 -0.10 0.50 -1.45 0.55 -3.05 0.05 -1.55 0.30 -2.85 0.55 -2.85 0.25 0 0.30 -1 0.15 -2.20 -0.20 -1.40 -0.10 -2.30 0.20 -2.40 0.30 -0.10 0.60 -1.35 0.60 -2.80 0 -1.45 0.25 -2.60 0.50 -2.60 0.25 0 0.35 -0.50 0.20 -1.05 -0.15 -0.65 0.05 -1.40 0.45 -1.85 0.45 -0.40 0.65 -1.15 0.55 -1.65 -0.15 -0.55 -0.05 -0.95 0.20 -0.95 0.20 0 0.30 -0.35 0.15 -0.75 -0.20 -0.40 -0.05 -0.75 0.30 -0.75 0.35 0 0.50 -0.35 0.30 -0.75 -0.15 -0.40 0 -0.75 0.25 -0.75 0.30 0 0.45 -0.45 0.30 -1 -0.15 -0.55 -0.05 -1 0.25 -1 0.30 0 0.40 -0.45 0.25 -1 -0.15 -0.55 -0.05 -1 0.25 -1 0.30 0 0.40 -0.40 0.30 -0.90 -0.15 -0.50 0.10 -1.20 0.45 -1.55 0.40 -0.40 0.65 -1.20 0.50 -1.85 -0.10 -0.65 0 -1.20 0.30 -1.20 0.25 0 0.35 -0.45 0.20 -1 -0.15 -0.55 0 -1 0.25 -1 0.35 0 0.45 -0.85 0.30 -2.25 -0.15 -1.35 -0.05 -2.25 0.20 -2.25 0.30 0 0.40 -0.65 0.25 -1.50 -0.20 -0.80 -0.15 -1.50 0.10 -1.50 0.25 0 0.35 -0.45 0.20 -1 -0.15 -0.55 -0.05 -1 0.25 -1 0.30 0 0.40 -0.45 0.25 -1 -0.15 -0.55 -0.05 -1 0.25 -1 0.30 0 0.40 -1.05 0.30 -2.50 -0.10 -1.55 0.05 -2.50 0.35 -2.50 0.35 0 0.50 -0.70 0.35 -1.75 -0.10 -0.95 0 -1.75 0.25 -1.75 0.25 0 0.35 -0.55 0.25 -1.25 -0.15 -0.70 -0.05 -1.25 0.20 -1.25 0.25 0 0.35 -0.40 0.15 -0.95 -0.20 -0.60 0 -1.05 0.55 -1.25 0.65 -0.25 0.75 -0.70 0.50 -2.30 -0.20 -1.35 -0.15 -2 0.25 -2 0.35 0 0.45 -0.55 0.30 -1.50 -0.20 -0.95 -0.10 -1.50 0.20 -1.50 0.30 0 0.45 -0.35 0.25 -0.75 -0.15 -0.40 -0.05 -0.75 0.25 -0.75 0.30 0 0.45 -0.35 0.25 -0.75 -0.15 -0.40 -0.05 -0.75 0.25 -0.75 0.30 0 0.45 -0.30 0.30 -0.70 -0.15 -0.40 0.05 -0.85 0.45 -1 0.45 -0.15 0.60 -0.50 0.45 -0.80 -0.15 -0.25 -0.05 -0.50 0.25 -0.50 0.30 0 0.40 -0.20 0.25 -0.50 -0.15 -0.30 -0.05 -0.50 0.25 -0.50 0.30 0 0.40 -0.25 0.25 -0.55 -0.20 -0.30 0.05 -0.65 0.55 -0.75 0.55 -0.15 1.75 -1.25 2.70 -2.50 0.95 -1.20 2.15 -2.20 2.65 -2.20 0.50 0 0.75 -0.20 0.60 -0.50 -0.15 -0.25 -0.05 -0.50 0.25 -0.50 0.30 0 0.85 -0.30 1.20 -0.65 0.80 -0.80 4.70 -2.10 5.05 -1.75 0.30 0.30 -1.90 8.60 -4.55 17.30 -1 3.15 -2.95 11 -4.45 17.55 -2.95 13.20 -3.95 16.55 -7.95 27.05 -1.55 4 -5.15 14.50 -8.10 23.40 -2.90 8.85 -5.30 16.10 -5.35 16.10 -0.05 -0.05 -0.40 -0.35 -0.70 -0.75z"/>
  <path d="M400.85 130.50 c-1.35 -0.50 -3.20 -1.50 -4.15 -2.25 -1.60 -1.20 -5.20 -6 -5.20 -6.85 0 -0.25 0.55 -0.40 1.25 -0.40 0.70 0 1.25 0.30 1.25 0.65 0 0.30 1.15 1.15 2.55 1.85 1.40 0.65 2.75 1.50 3.05 1.85 0.50 0.65 3.90 6.15 3.75 6.15 -0.05 -0.05 -1.20 -0.45 -2.50 -1z"/>
  <path d="M389.35 74.90 c-5.90 -8.35 -10.15 -15.90 -8.90 -15.90 1.05 0 5.20 3.20 6.60 5.10 1.55 2.10 5.45 9.90 5.45 10.90 0 0.30 -0.30 0.50 -0.70 0.50 -0.40 0 -0.80 0.30 -0.90 0.70 -0.10 0.40 -0.70 -0.10 -1.55 -1.30z"/>
  <path d="M380.70 51 c-4.15 -2.30 -4.25 -2.40 -5.60 -6.10 l-1.05 -2.85 1.85 0.80 c1 0.40 2.05 0.95 2.35 1.20 0.25 0.25 0.75 0.45 1.10 0.45 0.35 0 1.55 0.60 2.60 1.30 1.75 1.15 2 1.55 2.30 4 0.20 1.55 0.25 2.85 0.15 2.95 -0.10 0.10 -1.75 -0.65 -3.70 -1.75z"/>
 </g>
 <g fill="#d4efe8">
  <path d="M445.75 601 c-1.25 -0.55 0.05 -0.55 1.75 0 1 0.30 1.05 0.40 0.25 0.40 -0.55 0 -1.45 -0.15 -2 -0.40z"/>
  <path d="M417.05 303.40 c-0.35 -0.40 -1.90 -0.65 -3.70 -0.65 l-3.10 0 -0.90 -1.90 c-2.65 -5.60 -2.95 -11.80 -0.70 -14.05 1.55 -1.55 12 -5.35 14.80 -5.40 1.80 -0.05 3.35 0.45 7.05 2.35 2.60 1.30 5.60 3.05 6.65 3.85 1.65 1.35 5.85 7.60 5.85 8.80 0 0.30 -13.20 4.30 -24.50 7.40 -0.45 0.10 -1.10 -0.10 -1.45 -0.40z"/>
  <path d="M332.25 226.30 c-0.40 -2.90 1.40 -23.75 3.30 -38.30 1.35 -10.45 1.15 -9.85 3.60 -10.15 1.95 -0.20 2.30 -0.05 4.50 2.10 3.85 3.70 4.65 5.25 5.55 10.60 1 6 1 11.35 0.05 17.20 -1.35 8.40 -3.70 13.50 -8.20 17.95 -2.65 2.65 -3.10 2.90 -5.65 3.15 l-2.80 0.30 -0.35 -2.85z"/>
  <path d="M405.85 223.05 c-2.40 -2.10 -3.70 -5.10 -4.40 -10.15 -0.50 -3.70 -0.45 -4.60 0.25 -6.75 0.45 -1.35 1.50 -3.10 2.30 -3.90 1.30 -1.25 1.70 -1.35 4 -1.15 3 0.30 7.60 3.20 8.80 5.50 1.40 2.75 4.90 3.10 6.45 0.70 1.05 -1.55 0.60 -3.25 -1.60 -6.20 l-1.70 -2.35 1.95 2.10 c2.75 2.95 3.85 6.95 3.80 13.65 0 4.35 -0.20 5.70 -1.15 7.75 -0.85 1.90 -1.20 2.30 -1.55 1.75 -0.40 -0.60 -1.80 -0.75 -7.55 -0.65 -4.60 0.10 -7.25 0.30 -7.45 0.70 -0.25 0.35 -0.95 0 -2.15 -1z"/>
  <path d="M409.35 127.60 c-3.10 -5.05 -5.05 -8.80 -8.85 -17.25 l-2.65 -5.90 1.05 -1.10 c0.70 -0.65 1.25 -0.90 1.50 -0.60 0.65 0.70 10.40 14.70 14.05 20.15 2.70 4.05 3.05 4.80 2.75 6.30 -0.25 1.50 -0.55 1.75 -2.45 2.25 -1.20 0.30 -2.30 0.55 -2.45 0.55 -0.15 0 -1.45 -2 -2.95 -4.40z"/>
  <path d="M402.35 130.95 c-0.55 -0.30 -1.75 -1.40 -2.70 -2.45 -0.95 -1.10 -2.90 -2.60 -4.35 -3.45 -2 -1.10 -2.95 -2.05 -3.75 -3.65 -1.15 -2.40 -2.05 -6.55 -2.05 -9.35 0 -2.40 0.95 -5.80 1.50 -5.25 0.25 0.25 1.20 2.25 2.15 4.45 2.60 6.05 6.55 14.15 8.55 17.40 0.95 1.55 1.70 2.85 1.65 2.85 -0.05 0 -0.50 -0.25 -1 -0.55z"/>
  <path d="M417.60 107.75 c-2.05 -2.90 -3.60 -5.50 -3.50 -5.85 0.30 -0.85 5.30 3.90 6.40 6.10 1.05 2.10 1.75 5 1.15 5 -0.20 0 -2.05 -2.35 -4.05 -5.25z"/>
 </g>
</svg>