<?xml version="1.0" encoding="utf-8"?>
<!DOCTYPE svg PUBLIC "-//W3C//DTD SVG 1.0//EN" "http://www.w3.org/TR/2001/REC-SVG-20010904/DTD/svg10.dtd">
<svg version="1.0" xmlns="http://www.w3.org/2000/svg" width="742px" height="935px" viewBox="0 0 742 935" preserveAspectRatio="xMidYMid meet">
 <g fill="#000000">
  <path d="M320.50 873.55 c-3.15 -0.45 -7.40 -1.65 -11.75 -3.25 -1.65 -0.65 -4.10 -1.40 -5.50 -1.75 -6.25 -1.55 -13.05 -7.55 -16.95 -15.05 -1.35 -2.60 -3.55 -6.25 -4.80 -8.10 -3.95 -5.60 -6.50 -16.25 -8.30 -34.40 -0.80 -7.75 -0.80 -10.05 -0.30 -20 1.10 -20.65 0.90 -24.70 -2.35 -41.95 -0.85 -4.30 -1.85 -10.40 -2.25 -13.60 -1.20 -8.65 -3.05 -15.40 -6.40 -22.95 -1.65 -3.70 -3.50 -8.10 -4.15 -9.70 l-1.10 -2.95 -0.60 4.95 c-0.35 2.70 -1.30 9.75 -2.10 15.65 -1.50 11.30 -1.95 12.55 -4.25 12.55 -1.40 0 -1.25 -0.65 -2.85 11.90 -1.30 10.35 -1.60 11.15 -4.20 11.45 -0.80 0.10 -2.25 0.30 -3.30 0.45 -2.65 0.45 -3.70 -0.65 -4.10 -4.25 -0.75 -6.35 -6.25 -26.15 -7.80 -27.80 -1.15 -1.30 -2.65 -4.80 -3.40 -8 -1.50 -6.60 -1.95 -25.15 -0.95 -39.50 0.55 -8.40 0.55 -8.60 -0.80 -15.75 -2.50 -13.55 -2.70 -14 -12.65 -34.50 -2.65 -5.35 -7.10 -15.50 -10 -22.50 -5.50 -13.45 -7.50 -17.75 -13.05 -28.25 -4.20 -8 -9.50 -19.60 -11.60 -25.55 -1.75 -4.95 -9.70 -32.65 -12 -41.65 -2.75 -10.95 -5.20 -26.15 -5.95 -36.55 -0.40 -5.60 -0.65 -6.80 -2.50 -11.35 -1.75 -4.45 -1.95 -5.30 -1.45 -6.40 0.30 -0.70 1.15 -1.40 1.85 -1.55 0.70 -0.15 1.55 -0.35 1.90 -0.45 0.75 -0.25 1 -3.30 0.55 -6.25 -0.80 -4.90 -0.95 -5.50 -1.70 -6.25 -0.40 -0.40 -2.05 -1.10 -3.60 -1.55 -5.85 -1.70 -14.25 -6.85 -23.95 -14.75 -1.95 -1.65 -3.75 -2.95 -4 -2.95 -0.25 0 -1.60 -0.95 -3 -2.10 -5.75 -4.85 -9.35 -7.15 -11.25 -7.20 -3.55 -0.10 -7.35 -4.30 -16.70 -18.55 -6.15 -9.30 -9 -14.35 -12.20 -21.50 -1.50 -3.25 -3.45 -7.60 -4.40 -9.65 -8.45 -18.35 -10.40 -24.80 -11.60 -37.95 -1 -11.10 0.70 -16.30 4.95 -15.20 0.85 0.20 1.05 0.05 1.05 -0.90 0 -3.30 3.65 -18.55 5 -20.85 0.55 -0.90 1 -2.15 1 -2.80 0 -1.70 1.50 -5.75 3.15 -8.55 2.70 -4.55 6.25 -8.55 17.65 -19.70 9.10 -8.90 11.55 -11.05 12.65 -11.05 0.75 0 1.60 0.25 1.90 0.55 0.45 0.45 1.30 -0.05 3.35 -1.85 1.50 -1.35 5.10 -3.90 8 -5.70 2.95 -1.80 7.65 -4.70 10.45 -6.45 12.05 -7.55 11.75 -7.45 14.25 -5.30 0.85 0.70 1.90 1.25 2.45 1.25 1.80 0 3.15 1.45 3.15 3.40 0 1.30 0.30 2.05 1 2.50 2.35 1.45 0.45 5.90 -4 9.40 -2.60 2.05 -3 2.55 -3 4.05 0 1.10 -0.35 1.95 -1.10 2.55 -3.25 2.50 -4.75 4.60 -6.60 9.40 -1.55 3.85 -1.95 5.55 -1.90 7.65 0.10 2.20 -0.15 2.90 -1.15 4.15 -1.30 1.55 -1.75 5.05 -0.75 5.65 1 0.60 0.45 2.40 -1.25 3.95 l-1.70 1.60 -0.15 17.45 c-0.15 15.35 -0.05 18.10 0.80 22.50 0.55 2.95 0.80 5.95 0.65 7.35 -0.20 1.55 -0.05 3 0.40 4.15 1.15 2.65 8.75 16.35 9.70 17.50 0.50 0.55 2.15 2.80 3.70 5 3.85 5.60 10.65 13.10 13.55 15.10 l2.50 1.70 1.95 -5.40 c1.05 -3 2.35 -7.95 2.90 -11.15 2 -12 4.30 -20.05 8.15 -28.60 1.55 -3.45 3.25 -4.80 5.10 -4 2.50 1.20 2.50 2.45 -0.05 8.40 -2.05 4.75 -5.25 14.45 -5.25 15.80 0 1.35 4.15 -3.10 6.70 -7.20 1.60 -2.60 4.45 -6.85 6.35 -9.45 1.90 -2.60 4.65 -6.55 6.20 -8.80 1.50 -2.25 3.20 -4.20 3.70 -4.40 0.55 -0.15 2.40 -2.25 4.10 -4.65 5.10 -7.15 12.60 -16.10 17.30 -20.65 5.65 -5.50 10 -8.70 20.10 -14.90 7.10 -4.35 8 -5.05 6.60 -5.05 -2.15 0 -8.35 -2.10 -13.30 -4.50 -2.20 -1.05 -5.05 -2.05 -6.30 -2.25 -1.30 -0.15 -2.70 -0.70 -3.15 -1.20 -0.55 -0.60 -1.50 -0.95 -2.65 -0.90 -1.40 0.05 -2.05 -0.30 -3.10 -1.50 -0.70 -0.85 -1.70 -1.65 -2.20 -1.80 -1.10 -0.40 -2 -2.65 -1.55 -4.05 0.20 -0.55 1.20 -2.60 2.25 -4.45 1.55 -2.70 1.80 -3.45 1.20 -3.65 -0.40 -0.20 -0.75 -0.55 -0.75 -0.90 0.05 -0.30 2.55 -5.15 5.65 -10.75 4.90 -8.90 5.85 -10.35 7.45 -11.15 1.65 -0.90 1.85 -1.20 2.35 -4.20 0.35 -1.75 1.60 -6.10 2.85 -9.60 1.65 -4.65 2.20 -6.95 2.10 -8.55 l-0.15 -2.25 -2.75 -0.80 c-5.60 -1.70 -9.95 -4.75 -12.25 -8.70 -1.70 -3 -4.55 -11.50 -5.20 -15.65 -0.90 -5.80 -0.70 -9.40 0.65 -12.60 0.65 -1.55 1.45 -3.75 1.75 -4.90 0.80 -2.90 2.55 -4.80 5.65 -6.20 2.45 -1.10 3.30 -1.20 10.65 -1.20 8.75 0 12.10 0.60 17.25 3.10 5.20 2.55 10.65 9.40 12.25 15.40 1.80 7.05 0.15 16.25 -4.05 22.35 -1.45 2.05 -1.45 1.80 0.95 8.05 1.35 3.70 1.55 3.95 2.75 3.70 2.15 -0.40 3.45 0.60 4.65 3.60 1.15 2.90 4.80 9.55 5.25 9.55 0.15 0 0.90 -0.35 1.70 -0.75 1.70 -0.90 3.50 -0.40 4.65 1.30 0.50 0.65 1.10 0.95 1.55 0.80 0.50 -0.20 0.80 -0.05 0.80 0.45 0 0.50 0.35 0.65 1.20 0.40 0.70 -0.15 1.45 0 1.90 0.50 0.70 0.65 1.15 0.50 4.20 -1.55 9.50 -6.35 13.75 -14.15 16.70 -30.55 1.25 -6.85 2.15 -9.30 3.80 -10.05 0.65 -0.30 1.45 -1.10 1.70 -1.80 0.25 -0.70 0.90 -2.20 1.45 -3.40 2 -4.45 2.50 -5.90 3.30 -9.95 1.05 -5.15 2.10 -9 3.35 -11.85 0.55 -1.25 1.10 -4.40 1.40 -7.75 1.05 -12.15 2.15 -19.45 3.15 -20.70 0.30 -0.40 0.40 -3.70 0.20 -9.25 -0.20 -5.30 -0.10 -9.45 0.20 -10.85 0.30 -1.25 0.65 -3 0.80 -3.90 0.15 -0.90 0.80 -2 1.40 -2.50 l1.15 -0.95 -1.30 -0.75 c-5.05 -3 -9.20 -10 -10.60 -17.75 -0.85 -4.85 -0.40 -12.10 0.95 -15.70 1.85 -4.85 6.10 -8.75 11.30 -10.45 1.10 -0.35 2.65 -1.05 3.45 -1.55 2.05 -1.25 5.10 -1.65 7.80 -0.95 1.25 0.25 4.10 0.75 6.35 1 5.15 0.55 7.45 1.55 12.15 5.40 4.55 3.65 6.30 5.85 7.95 9.80 1.20 2.80 1.30 3.65 1.30 10.55 0 7.40 -0.05 7.55 -1.65 11.35 -2.75 6.35 -7.60 10.40 -14.65 12.20 -3.40 0.90 -10.80 1.20 -13.05 0.55 l-1.40 -0.35 0 11.60 c0.05 7.90 0.25 12.60 0.70 14.65 l0.70 3 0.05 -5.15 c0.05 -4.75 0.15 -5.25 1.30 -6.35 1.45 -1.45 3.20 -1.60 4.75 -0.35 1.05 0.85 1.10 1.30 1.25 9.35 0.10 4.70 0.40 11.55 0.70 15.25 0.50 6.15 0.75 7.10 2.40 10.60 1.50 3.15 2.10 3.90 3.20 4.15 2.15 0.50 2.95 1.80 3.40 5.80 0.50 4.05 3.95 13.05 6.35 16.55 2.60 3.70 4.60 4.70 16.10 7.70 12.45 3.30 19.25 2.45 21.95 -2.80 0.65 -1.20 1.40 -3.65 1.65 -5.35 0.25 -1.75 0.90 -3.80 1.45 -4.60 0.60 -0.80 1.05 -1.75 1.05 -2.15 0 -0.35 0.65 -1.75 1.40 -3.15 1 -1.80 1.95 -2.80 3.50 -3.60 1.20 -0.60 2.75 -1.70 3.40 -2.45 1.10 -1.15 1.55 -1.30 3.45 -1.05 l2.15 0.30 0.55 -2.20 c0.75 -3.10 0.80 -3 -1.70 -3.95 -3.35 -1.30 -6.95 -4.85 -8.85 -8.70 l-1.65 -3.35 0 -9.75 c0 -9.15 0.05 -9.90 1.20 -12.35 1.40 -3.10 5.15 -6.80 8.40 -8.25 1.55 -0.70 3.85 -1.10 6.65 -1.30 3.55 -0.20 5.05 0 9.25 1.15 8.30 2.25 11.20 4.20 15.90 10.85 3.65 5.10 5 8.45 5.05 12.60 0.05 2.95 -0.20 4.05 -1.35 6.35 -1.85 3.80 -8.40 10.10 -12.25 11.75 -6.50 2.85 -7.20 3.35 -6.90 4.85 0.40 2.10 2.35 6.35 2.80 6.10 0.20 -0.10 0.50 -1.15 0.70 -2.25 0.40 -2.60 1.80 -4 3.95 -4 2.90 0 3.45 1.15 3.05 6.25 -0.35 4.40 0.20 7.55 1.65 9.30 0.35 0.40 0.65 1.10 0.65 1.50 0 0.35 0.75 1.75 1.65 3.05 1.35 2.05 1.85 2.40 3.25 2.40 2.40 0 3.80 1.60 3.45 4 -0.30 2.45 0.60 3.80 2.85 4.20 4.80 0.90 4.15 8.30 -0.70 8.30 -1.40 0 -1.55 0.15 -1.25 1.15 0.70 2.15 3.35 6.75 4.85 8.30 1.40 1.45 1.60 1.50 2.40 0.80 0.45 -0.40 1.30 -0.75 1.85 -0.75 1.30 0 3.65 1.85 3.65 2.85 0 0.50 1.15 -0.15 3.25 -1.80 3.65 -2.90 5.55 -3.25 7.25 -1.45 2 2.20 0.80 4.60 -4 8.15 -2.10 1.55 -2.50 2.10 -2.50 3.40 -0.05 3.95 -3.45 4.80 -8.40 2.10 l-2.15 -1.20 -5.25 4.60 c-11.40 9.95 -11.90 10.30 -18.45 12.60 -3.40 1.15 -3.70 1.75 -0.90 1.75 4.55 0 20.90 3.35 30.45 6.30 3.25 1 6.55 2 7.30 2.20 1 0.30 1.65 0.20 2.50 -0.45 2.80 -2.20 4.95 -1.60 13.05 3.60 2.40 1.55 5.40 3.15 6.75 3.55 1.30 0.40 4.40 1.30 6.85 2.05 5 1.50 6.25 2.30 6.25 4.10 0 1.05 0.70 1.55 4.90 3.50 10.05 4.70 12.95 6.15 16.05 8.20 3.70 2.45 9.10 7.35 11.05 10.05 l1.35 1.85 1.75 -2.60 c0.90 -1.40 3.90 -5.85 6.55 -9.80 2.70 -3.95 5.70 -8.90 6.75 -11 l1.85 -3.80 0 -9 c0 -8.55 -0.05 -9.10 -1.10 -10.60 -1.85 -2.50 -1.30 -4.65 1.35 -5.55 l1.50 -0.55 0 -4.40 c0 -2.50 -0.35 -5.45 -0.80 -6.90 -0.40 -1.35 -1.20 -5.75 -1.75 -9.75 -0.55 -4 -1.65 -9.40 -2.45 -12 -0.75 -2.60 -1.90 -6.40 -2.50 -8.35 -1.10 -3.90 -0.80 -3.50 -11.80 -13.95 -2.55 -2.40 -2.95 -4.60 -1.10 -5.90 l1.05 -0.75 -1.95 -2.35 c-5.05 -6.05 -7.20 -8.90 -7.20 -9.50 0 -0.35 -0.65 -1 -1.45 -1.45 -2.20 -1.10 -3.05 -2.15 -3.05 -3.70 0 -1.65 1.25 -2.90 3.10 -3.15 l1.30 -0.15 -1.80 -2.70 c-3.15 -4.75 -6.75 -8.15 -10.90 -10.50 -2.20 -1.20 -4.35 -2.50 -4.80 -2.95 -1.10 -0.95 -1.15 -3.25 -0.15 -4.30 0.40 -0.40 0.75 -1.20 0.75 -1.75 0 -1.80 2 -3.15 4.15 -2.90 1.05 0.15 2.30 0.60 2.75 1 0.45 0.45 4.85 2.60 9.80 4.85 6.40 2.90 9.05 3.95 9.45 3.55 1.15 -1.15 2.95 -0.55 5.50 1.90 1.45 1.30 5.30 4.05 8.65 6.05 6.95 4.10 8.70 5.60 8.70 7.15 0 1.60 0.90 2.35 2.85 2.35 1.75 0 2.50 0.55 12.25 9.30 5.80 5.20 10.40 9.90 12.15 12.35 0.60 0.80 1.65 1.50 2.50 1.65 0.85 0.15 1.75 0.50 2.10 0.85 1.90 1.90 10.65 29.50 10.65 33.55 0 1.20 -1.85 2.80 -3.20 2.80 -1.95 0 -3.05 -2.05 -4.75 -8.85 -2.80 -11.05 -5.40 -18.45 -6.85 -19.40 -1.25 -0.80 -1.30 -0.80 -1.05 0.10 0.15 0.50 1.30 4.85 2.50 9.65 1.25 4.80 3.85 13.25 5.80 18.75 1.95 5.50 3.85 11.45 4.15 13.20 0.60 3.15 0.60 3.20 -0.80 4.35 -0.75 0.65 -1.70 1.20 -2.10 1.20 -1.15 0 -3.20 -2.30 -3.20 -3.60 0 -0.65 -1.50 -5.45 -3.30 -10.65 -3.35 -9.65 -7.20 -22.25 -7.20 -23.55 0 -0.40 -0.50 -0.90 -1.15 -1.15 -1.65 -0.65 -2.20 -1.50 -3.30 -5.10 -2.50 -7.95 -14.75 -26.05 -18.80 -27.75 -1.45 -0.60 -14.85 -3.30 -15.05 -3.05 -0.20 0.20 3.30 10.50 3.75 11.05 1.45 1.85 4.55 8.60 4.55 10.05 0 3.05 4 10.80 6.95 13.45 1.35 1.25 2.25 4.25 3.75 12.55 2.10 11.45 2.45 16.55 2.05 26.50 -0.20 4.95 -0.45 11.55 -0.55 14.65 -0.15 5.25 -1.45 12.10 -2.80 14.75 -0.25 0.50 -1 3.40 -1.60 6.50 -1.50 7.10 -2.70 9.65 -6.10 12.75 -1.50 1.35 -3.05 3.30 -3.50 4.35 -0.40 1 -2.05 3.20 -3.60 4.95 -5.05 5.50 -7.10 8 -7.10 8.60 0 1.10 7.15 14.80 14.50 27.60 6.95 12.25 7.25 12.65 8.55 12.35 2.40 -0.55 3.60 1.25 5.65 8.50 1.50 5.30 2.65 7.95 6.10 14.35 2.35 4.35 5.65 10.85 7.30 14.50 3.20 7.15 7.90 20.30 7.90 22.20 0 0.65 -0.45 1.65 -1.05 2.25 l-1.05 1.05 3.65 9.05 c4.75 11.95 4.20 11 5.70 10.05 2.55 -1.70 5.10 0.80 4.55 4.45 -0.45 2.90 0.45 13.75 1.50 18.15 0.45 1.90 1.45 6.70 2.20 10.70 0.80 4 2.20 11.30 3.20 16.25 0.95 4.95 3.05 15.85 4.60 24.25 l2.85 15.25 0.25 12.20 c0.15 8.75 0.05 13.20 -0.40 15.60 l-0.65 3.40 1.60 1.50 c1.85 1.70 1.85 0.85 -0.05 12.80 -0.60 3.60 -1.05 6.95 -1.05 7.50 0 0.55 -0.75 3.95 -1.65 7.50 -1.35 5.35 -1.70 7.65 -1.80 12.90 l-0.15 6.35 1.30 0 c1.35 0 2.95 1.35 2.95 2.55 0.05 2.40 2.85 11.30 5.50 17.25 1.70 3.80 4 9.65 5.10 12.95 1.95 5.75 2 6 1.20 7.50 -0.80 1.40 -0.75 1.90 0.45 8.20 1.60 8.60 2.50 18.10 1.85 19.95 -0.25 0.80 -0.30 3.20 -0.05 5.85 0.20 2.50 0.40 7.90 0.45 12 0.05 11.95 0.75 18.65 3 28.75 3.30 14.95 3.20 17.05 -0.65 18.65 -0.85 0.40 -1.90 1.05 -2.30 1.50 -0.85 1.05 -3.70 1.10 -4.55 0.10 -0.35 -0.45 -1.10 -0.60 -2 -0.45 -2.30 0.50 -3.35 -0.50 -4 -3.55 -0.30 -1.55 -0.45 -3.45 -0.25 -4.25 0.65 -3.05 -0.75 -9.50 -3.55 -16 -3 -6.95 -5.95 -11.65 -12.30 -19.60 -4.85 -6 -5.60 -7.60 -6.85 -14.65 l-0.90 -5 -1.05 3.30 c-0.55 1.80 -1.35 5.15 -1.80 7.50 -0.45 2.30 -1.35 7.20 -2.05 10.85 -1.25 6.60 -1.25 6.65 -1.25 37.25 0 33.10 0.15 35.50 2.85 46.55 1.55 6.60 1.55 7.25 -0.05 8.55 -1.15 0.95 -1.20 1.15 -0.80 4.75 0.25 2.05 0.80 5.55 1.25 7.75 2 10.45 2.05 30 0 38 -0.85 3.40 -7.45 16.80 -10 20.30 -1.40 1.95 -2.20 2.50 -5.25 3.60 -4.60 1.75 -9.65 2.85 -12.50 2.70 -1.25 -0.05 -4 0.30 -6.10 0.80 -2.10 0.45 -5.05 0.85 -6.45 0.85 -2.05 0 -2.90 0.25 -3.85 1.15 -1.15 1.10 -1.40 1.10 -13.75 1.05 -12.35 0 -12.65 -0.05 -15.60 -1.25 -1.65 -0.70 -4.05 -1.70 -5.40 -2.15 -1.30 -0.50 -3.50 -1.65 -4.85 -2.60 -1.80 -1.25 -3 -1.70 -4.45 -1.70 -3.05 0 -4.95 -2 -8.20 -8.60 -4.15 -8.40 -5.85 -14.30 -5.85 -20.50 l0 -2.35 -1.45 0.85 c-1.45 0.80 -1.55 0.80 -2.85 -0.15 -0.90 -0.70 -1.55 -1.85 -2 -3.55 -0.35 -1.35 -1.55 -4.85 -2.70 -7.70 -2.10 -5.30 -5.10 -9.70 -10.95 -16.10 -1.40 -1.55 -2.95 -3.75 -3.50 -4.95 -0.75 -1.75 -1.45 -2.50 -3.70 -3.70 l-2.75 -1.45 -8.40 0.65 c-13.80 1 -25.60 3.60 -33.40 7.30 -3.25 1.55 -5 1.60 -6 0.20 -0.90 -1.35 -2 -1.10 -7.65 1.60 -2.30 1.05 -4.65 1.95 -5.30 1.95 -1.45 0 -4.75 2.80 -6.05 5.05 l-0.95 1.70 1.50 -1.35 c1.65 -1.55 3.65 -1.80 4.85 -0.60 1.35 1.35 0.95 3.40 -1.20 6 -1.10 1.35 -2.35 3.15 -2.75 4.05 -1 2.10 -1.70 9.95 -1.75 19.40 0 13.05 -1.45 23.25 -3.85 27.35 -1.45 2.50 -6.90 5.95 -14.80 9.45 -3.90 1.70 -7.60 3.50 -8.25 4 -0.65 0.50 -2.55 1.35 -4.25 1.90 -5.35 1.75 -19.40 4.95 -24.35 5.55 -4.90 0.55 -7.55 1.20 -9.25 2.30 -3.25 2.05 -11.70 3.45 -16.75 2.75z m1.50 -11.55 c1.20 -1.20 2.60 -1.25 4.30 -0.20 1.70 1.15 3.75 0.75 14.95 -3.05 6.65 -2.25 11.65 -3.60 16.75 -4.50 10.45 -1.85 13.80 -2.70 14.80 -3.80 0.45 -0.50 1.35 -0.95 1.95 -0.95 1.95 0 5.80 -1.60 6.45 -2.70 0.40 -0.55 1.45 -4.15 2.35 -7.90 l1.65 -6.90 -0.85 -3.30 c-1.15 -4.25 -2 -13.55 -1.75 -19.25 0.15 -3.95 0.30 -4.60 1.25 -5.35 0.95 -0.75 1.20 -1.60 1.60 -6.15 0.30 -2.90 0.75 -5.90 1.05 -6.65 0.30 -0.80 1.85 -2.80 3.45 -4.50 1.60 -1.65 3.50 -4 4.25 -5.15 1.80 -2.90 3.25 -3.85 5.05 -3.15 0.85 0.30 1.60 0.35 1.95 0.05 1.10 -0.90 8.90 -4.65 11.60 -5.55 2.05 -0.75 3 -0.85 3.85 -0.45 0.95 0.40 2 0.10 6.10 -2 10 -4.95 14.95 -5.75 33.05 -5.40 19.20 0.45 23.80 0.75 25.30 1.85 0.95 0.70 2.15 1 4 1 3.30 0 4.90 1 4.90 3.05 0 2.30 -1.65 3.60 -4.30 3.35 -1.20 -0.10 -2.20 -0.05 -2.20 0.10 0.05 0.80 1 1.60 1.70 1.35 1.35 -0.55 3.25 0.70 3.90 2.50 0.40 1.10 0.95 1.65 1.55 1.65 2 0 5.95 5.55 10.20 14.25 1.05 2.20 2.25 5 2.65 6.25 0.40 1.25 1.20 3.05 1.85 4.10 1.05 1.75 6.15 6.25 12.45 11.05 3.60 2.75 5.45 4.75 6.85 7.70 0.60 1.20 1.30 2.15 1.65 2.15 0.90 0 2.55 1.60 2.90 2.80 0.25 0.75 -0.05 1.55 -0.95 2.60 l-1.30 1.55 1.90 0.30 c1.70 0.30 6.30 1.40 11.65 2.75 2.95 0.75 17.50 1.65 21.80 1.35 4.80 -0.35 9.80 -1.55 12 -2.90 2.60 -1.60 5.70 -0.85 5.70 1.35 0 1 0.65 0.90 3.45 -0.55 3.25 -1.65 4.30 -3.60 5.85 -10.90 1.70 -8.10 2.40 -10.50 3.75 -12.30 0.95 -1.30 1.05 -1.85 0.75 -4.40 -0.15 -1.60 -0.55 -9.70 -0.80 -18.05 -0.25 -8.30 -0.75 -17.55 -1.10 -20.50 -0.35 -2.95 -0.55 -6.15 -0.50 -7.10 0.30 -4.65 -0.05 -9.20 -1.15 -13.90 -2.70 -11.35 -3.65 -18.70 -4.70 -36.35 -0.55 -10 -0.30 -29.80 0.45 -33.15 0.50 -2.35 0.50 -2.80 -0.25 -3.60 -0.45 -0.50 -0.85 -1.45 -0.90 -2.10 -0.05 -2.70 2.80 -14.20 4.15 -16.85 1.40 -2.75 3 -9.95 4.50 -20.30 0.30 -2.20 0.80 -4.60 1.10 -5.40 0.75 -1.90 2.55 -2.25 5.10 -0.95 1.15 0.60 2.65 1.15 3.35 1.30 0.85 0.20 2 1.25 3.30 3.15 1.15 1.60 2.60 3.50 3.35 4.20 0.70 0.70 1.70 2.25 2.20 3.50 0.55 1.20 1.80 3.55 2.85 5.20 4.35 7.05 9.10 18.25 12.55 29.50 1.80 5.90 2.05 7.70 1.10 9.20 -0.50 0.80 -0.30 1.45 0.95 3.90 0.85 1.60 1.95 4.10 2.40 5.55 0.50 1.45 0.95 2.55 1.05 2.50 0.20 -0.25 -2.50 -14.05 -5.55 -28.05 -4.15 -19.05 -7.25 -39.50 -7.25 -47.55 0 -3.40 1.20 -5.05 3.55 -4.70 0.90 0.15 1.45 0 1.45 -0.35 0 -0.80 -0.90 -3.60 -1.75 -5.50 -0.40 -0.80 -1.10 -3.50 -1.55 -6 -0.90 -5.05 -2.40 -8.65 -5.95 -14.50 -2.40 -3.90 -2.45 -4.05 -2.35 -7.60 0.10 -2.55 -0.10 -4.10 -0.65 -5.15 -0.70 -1.40 -0.75 -1.95 -0.05 -5.90 0.45 -2.40 0.95 -4.90 1.10 -5.55 0.30 -1.05 0.25 -1.15 -0.75 -0.90 -1.60 0.40 -3.50 -0.45 -4 -1.75 -0.25 -0.70 -0.15 -2.60 0.30 -4.90 0.35 -2.05 0.80 -8.75 1 -14.90 0.25 -9.55 0.20 -11.25 -0.45 -12 -0.60 -0.65 -0.85 -2.90 -1.10 -10.10 -0.20 -5.10 -0.55 -12.05 -0.80 -15.50 -0.25 -3.45 -0.85 -11.45 -1.30 -17.85 -0.75 -10.35 -0.75 -11.70 -0.10 -12.75 0.65 -0.95 0.70 -2.15 0.30 -7.40 -1 -14.80 -1.85 -20.45 -4.15 -27.50 -1.20 -3.70 -2.80 -8.75 -3.50 -11.25 -0.75 -2.45 -1.45 -4.70 -1.55 -5 -0.25 -0.60 0.10 3.50 0.60 6.80 0.25 1.95 0.15 2.50 -0.75 3.40 -1.40 1.40 -3.80 1.40 -4.75 -0.05 -0.35 -0.65 -1.15 -4.50 -1.75 -8.65 -0.60 -4.10 -1.70 -10.10 -2.35 -13.25 -1.80 -8.15 -7.75 -30.65 -8.25 -31.20 -0.25 -0.30 -0.45 -0.80 -0.45 -1.15 0 -1.55 -6.30 -14.30 -14.95 -30.40 -5.70 -10.60 -7.70 -15.10 -7.35 -16.75 0.15 -0.85 -0.10 -1.85 -0.75 -2.80 -1.20 -1.80 -1.20 -2.15 0.30 7.10 0.70 4.25 1.25 8.20 1.25 8.80 0 2.60 -3.45 3.85 -5.25 1.90 -0.60 -0.65 -1.35 -3.90 -2.55 -10.85 -2.95 -17.70 -6 -25.70 -13.80 -36.25 -2.50 -3.35 -2.95 -3.70 -4.20 -3.55 -2.85 0.45 -17.90 -8.85 -35.30 -21.75 -14.50 -10.75 -21.10 -16.35 -23.15 -19.60 l-1.15 -1.85 -6.45 -0.85 c-9.75 -1.35 -23.75 -3.75 -29.70 -5.10 -6 -1.35 -9.25 -1.45 -21.20 -0.70 -13.45 0.85 -16.10 1.30 -25.45 4.60 -4.70 1.65 -11.35 3.75 -14.80 4.70 -3.45 0.95 -7.60 2.20 -9.25 2.70 -4.10 1.30 -15.65 4.25 -20.50 5.20 -6.15 1.25 -34.10 5.65 -42.75 6.80 -8.70 1.10 -11.15 1.65 -18.15 4.20 -9.60 3.50 -16.35 7.70 -16.35 10.25 0 3.50 -3.75 4.85 -6.35 2.25 -1.05 -1.05 -1.25 -1.60 -1 -3.20 l0.25 -1.95 -3.05 2.05 c-4.20 2.80 -5.30 3.80 -5 4.85 0.30 1.25 -1.60 3.40 -3.45 3.75 -4.30 0.80 -7.90 3.25 -19.45 13.10 -7.90 6.80 -10.65 10.25 -11.35 14.30 -0.50 2.75 -2.50 4.35 -4.35 3.50 -2.40 -1.10 -2.70 -3.55 -1.05 -8.35 0.20 -0.55 -1.35 0.80 -3.40 3 -2.50 2.60 -4.10 4.80 -4.60 6.25 -1.55 4.25 -3.70 8.60 -6.90 13.90 -3.70 6.15 -6.40 11.50 -7.30 14.35 -0.35 1.10 -0.90 2.35 -1.25 2.75 -1.20 1.35 -8.60 20.60 -11.25 29 -3.25 10.50 -3.40 11.25 -4.30 23.25 -0.70 9.60 -2.75 27.10 -3.70 31.75 -0.25 1.25 -0.45 3.70 -0.50 5.50 0 2 -0.30 3.60 -0.75 4.20 -0.80 1.05 -0.80 1.90 0.55 16.05 0.70 7.05 0.90 8.15 1.95 9.25 0.60 0.70 1.40 2.50 1.75 4 0.35 1.50 1 3.65 1.50 4.75 0.50 1.10 1.40 3.90 2 6.25 2.80 11.15 7.85 24.05 10.95 28 2.10 2.65 2.15 2.90 1.50 4.65 -0.55 1.55 -0.35 2.20 2.30 8.90 3.45 8.55 7.15 16.60 9.25 20 0.80 1.35 1.50 2.95 1.50 3.50 0 1.45 -0.90 2.95 -1.75 2.95 -0.95 0 -1 -0.15 0.80 3.85 2 4.45 7.10 17.20 8.15 20.50 0.55 1.65 1.50 3.15 2.55 4.05 2 1.80 2.50 2.75 2.95 5.50 0.15 1.20 0.55 2.55 0.80 3 0.25 0.45 1.15 2.30 1.95 4.10 0.80 1.80 5.05 10.55 9.50 19.45 8.40 16.90 9.10 18.90 7.05 20.15 -1.20 0.75 -1.30 2.25 -0.20 3.45 0.70 0.80 0.75 1.90 0.25 10.55 -0.30 5.30 -0.95 13.35 -1.40 17.90 -1.05 10.60 -1.20 35.15 -0.25 40.25 3.35 17.75 3.85 18.05 3.85 2.55 0 -12.55 0.05 -13.15 1.15 -15.55 0.65 -1.35 2 -3.40 3.05 -4.50 2.50 -2.65 4.05 -8.10 3.15 -11.15 -0.80 -2.65 -0.75 -4.15 0.20 -5.55 0.65 -0.95 1.15 -1.10 2.65 -0.95 1.25 0.15 2.20 -0.05 3.15 -0.75 2 -1.45 3.35 -0.65 6.40 3.90 2.40 3.55 2.65 3.80 4 3.50 2.45 -0.55 3.75 1.25 5.20 7.10 1.60 6.45 6.20 17.65 7.30 17.65 1.75 0 2.95 1.50 3.50 4.40 1.20 5.95 3.10 12.90 3.95 14.60 0.80 1.55 1.95 6.10 3.55 14 0.25 1.25 0.70 3.30 1 4.60 0.95 4.35 2.05 18.15 1.95 24.90 -0.05 4.90 0.20 8.40 1 12.75 1.60 9.40 2.95 20.70 3.60 30.65 0.65 9.90 0.45 11.25 -1.70 12.05 -1.15 0.45 -1.15 0.55 -0.75 4.10 0.90 7.70 3.45 14.80 6.20 17.50 1.75 1.70 2.25 3.70 1.15 4.80 -0.45 0.45 -0.20 1.05 0.95 2.50 3.50 4.40 5.30 5.25 15.80 7.65 5.40 1.20 7.10 1.20 8.30 0z m226 -18.50 c0 -0.25 -1 -0.50 -2.20 -0.50 -2.35 0 -4.60 -0.40 -12.55 -2.30 -2.75 -0.65 -6.65 -1.40 -8.70 -1.70 -2 -0.30 -3.85 -0.65 -4.10 -0.80 -0.25 -0.15 -0.45 -0.15 -0.45 0 0 0.45 2.90 1.80 3.80 1.80 0.45 0 2.10 0.60 3.65 1.35 1.55 0.70 3.80 1.60 5.05 1.95 2.75 0.75 15.50 0.90 15.50 0.20z m-155 -13.30 c0.75 -5.25 0.65 -12.50 -0.25 -14.15 -0.40 -0.80 -0.85 -2.35 -1.05 -3.45 -0.30 -2 -0.35 -2.05 -1.50 -1.25 -1 0.65 -1.20 1.15 -1.20 3.45 0 2.10 0.15 2.70 0.75 2.70 0.45 0 1.35 0.55 2.05 1.25 1.20 1.20 1.25 1.45 0.95 5.40 -0.25 3.45 -1.30 9.95 -2.05 12.80 -0.10 0.45 0.25 -0.15 0.80 -1.25 0.55 -1.15 1.20 -3.65 1.50 -5.50z m126.65 -2.55 c-1.45 -3.25 -2.85 -4.80 -8.15 -8.85 l-5.15 -3.95 0.30 1.80 c0.50 3.30 1.85 5.25 5.30 7.80 2.55 1.90 7.65 4.95 8.40 5.05 0.10 0 -0.25 -0.85 -0.70 -1.85z m-269.65 -126.60 c0.30 -2.30 0.45 -4.30 0.30 -4.40 -1.35 -1.35 -3.10 6.55 -1.80 8.10 0.35 0.45 0.70 0.70 0.80 0.65 0.05 -0.10 0.40 -2.05 0.70 -4.35z m363.15 -36.75 c-0.15 -1.20 0 -3 0.35 -3.95 0.55 -1.70 0.45 -2.10 -1.55 -5.85 -2.20 -4.25 -2.75 -4.80 -1.95 -1.95 0.30 0.95 0.85 3.75 1.25 6.20 1.10 6.40 2.40 10.30 1.90 5.55z m-16.20 -7.50 c0.25 -1.10 0.30 -1.75 0.10 -1.50 -0.45 0.45 -1.35 4.15 -0.90 3.70 0.15 -0.15 0.50 -1.15 0.80 -2.20z m33.55 -6.25 c-0.30 -1.95 -0.70 -3.55 -0.85 -3.55 -0.15 0 -0.15 0.75 0 1.65 0.15 0.85 0.45 2.55 0.60 3.75 0.20 1.20 0.45 2.05 0.60 1.90 0.15 -0.10 0 -1.80 -0.35 -3.75z m-29.95 -2.55 c0.50 -1.10 0.70 -2 0.50 -2 -0.40 0 -2.05 3.55 -2.05 4.35 0 0.65 0.65 -0.40 1.55 -2.35z m-374.35 -2.10 c-1.25 -2.75 -1.45 -2 -0.35 1.45 0.65 2.15 0.95 2.60 1.05 1.70 0.10 -0.65 -0.20 -2.05 -0.70 -3.15z m402.55 -10.95 c-1.85 -11.10 -2.35 -10.85 -1 0.55 1.05 8.20 1.20 8.95 1.80 7.95 0.25 -0.55 0 -3.55 -0.80 -8.50z m-402.80 -4.70 c-2.05 -3.95 -3.85 -7.25 -4.10 -7.25 -0.20 0 1.35 3.40 3.45 7.55 2.05 4.15 3.90 7.45 4.05 7.25 0.15 -0.15 -1.40 -3.55 -3.40 -7.55z m-54.40 -116.80 c-0.80 -3.70 -2.05 -9.90 -2.75 -13.85 -1.20 -6.30 -3.20 -13.20 -3.25 -11.05 -0.10 1.60 2.50 14.35 4.25 21.20 2.75 10.55 2.80 10.80 3.05 10.60 0.10 -0.10 -0.50 -3.25 -1.30 -6.90z m-14.80 -91 c0.20 -0.65 0.90 -1.65 1.60 -2.25 1.20 -1 1.25 -1.35 1.65 -9.50 0.50 -9 1.70 -21.70 2.50 -26.20 0.50 -2.60 0.45 -2.80 -0.60 -3.50 -3.20 -2.10 -7.10 -5.80 -7.70 -7.30 -0.65 -1.60 -0.75 -1.60 -2 -0.95 -2.30 1.20 -4 0 -5.45 -3.80 -0.75 -1.90 -1.90 -3.45 -4.25 -5.65 -9.10 -8.60 -10.80 -10.35 -13.65 -13.95 -2.95 -3.75 -6.40 -9.40 -7.05 -11.70 -0.25 -0.70 0.05 -1.50 0.85 -2.45 l1.20 -1.35 -2.15 -3.80 c-4.85 -8.60 -6.65 -14.85 -7.05 -24.30 -0.50 -13.60 2.50 -27 8.90 -39.90 4.20 -8.40 5.95 -10.95 11.75 -17 2.85 -2.95 5.20 -5.55 5.20 -5.85 0 -0.30 -0.45 -0.30 -1.30 0 -2.35 0.90 -3.25 1.55 -3.70 2.70 -0.20 0.60 -2.50 2.60 -5.10 4.45 -9.30 6.60 -15.20 11.65 -19.65 16.90 -6.95 8.15 -15.90 18.10 -17.10 19.10 -2.75 2.25 -12.50 19.95 -14.85 26.90 -1.65 5.10 -1.95 8.55 -1.35 16.75 0.85 11.35 3.20 18.60 8.60 26.50 1.80 2.65 3.10 5.05 3.15 6 0.15 1.65 1.30 3.45 11.05 17.20 3.60 5.10 9.35 13.30 12.80 18.20 6.95 10.05 10.80 14.45 15.05 17.40 1.60 1.05 5.70 4.15 9.05 6.80 8.15 6.50 9.05 7.10 10.60 7.10 0.70 0 2.80 0.90 4.65 2 l3.35 2.05 0.30 -4.70 c0.20 -2.55 0.50 -5.20 0.70 -5.90z m-53.75 -27.75 c0 -0.45 -9.50 -13.70 -9.80 -13.70 -0.10 0 0.55 1.20 1.45 2.65 6.10 9.50 8.35 12.50 8.35 11.05z m76.20 -28.65 c1 -2.60 1.75 -4.80 1.65 -4.90 -0.20 -0.15 -3.85 9 -3.85 9.70 0 0.75 0.50 -0.30 2.20 -4.80z m-51.50 -44.55 c-0.70 -3.85 -1.05 -32.10 -0.45 -39.75 0.20 -2.30 0.10 -3.15 -0.20 -2.50 -0.25 0.60 -0.80 1.35 -1.25 1.70 -0.55 0.50 -0.65 0.90 -0.30 1.55 0.85 1.60 0.55 3.05 -1.05 4.90 -1.50 1.65 -1.55 1.95 -1.30 4.65 0.30 2.45 0.15 3.05 -0.80 4.25 -1.35 1.75 -1.40 5.85 -0.10 12.20 1.45 7.15 5.05 17.90 5.75 17.15 0.20 -0.20 0.05 -2.10 -0.30 -4.15z m108.55 -29.55 c2.75 -1.30 7.05 -3.90 9.50 -5.75 2.50 -1.85 7.85 -5.60 12 -8.30 5.90 -3.85 7.20 -4.90 6.10 -4.90 -1.80 0 -3.50 0.90 -15.80 8.30 -10.45 6.35 -17.90 11.65 -21.05 14.95 l-1.75 1.85 3 -1.90 c1.65 -1.05 5.25 -2.95 8 -4.25z m-143.40 -15.70 c2.25 -2.80 6.70 -7.80 9.90 -11.15 4.45 -4.65 5.75 -6.30 5.30 -6.75 -0.30 -0.30 -0.55 -1.10 -0.55 -1.80 0 -1.10 -1.05 -0.25 -7.25 5.95 -4 4 -7.40 7.70 -7.55 8.25 -0.20 0.55 -1.55 2.85 -3 5.05 -2.55 3.85 -6.60 11.90 -7.45 14.70 -0.20 0.70 1.20 -1.10 3.10 -4 1.90 -2.90 5.30 -7.50 7.50 -10.25z m433.85 11.15 c-0.60 -1 -3.95 -5.05 -10.35 -12.40 -7.05 -8.05 -10.55 -11 -17.25 -14.40 -4.85 -2.50 -6.60 -3.10 -6.60 -2.15 0 0.25 -0.65 0.70 -1.45 1.05 -1.80 0.75 -2.95 0.20 -4.85 -2.25 -1 -1.30 -1.70 -1.75 -2.80 -1.75 -1.45 0 -1.40 0.10 1.90 2.85 3.85 3.15 25.40 19.25 29.75 22.25 2.55 1.70 11.45 7.25 11.85 7.35 0.10 0.05 0 -0.25 -0.20 -0.55z m6.80 -8.80 c0 -0.55 -1.55 -1.90 -3.85 -3.45 -5.70 -3.75 -5.85 -3.65 -1.15 0.75 4.15 3.95 5 4.40 5 2.70z m-276.45 -23.55 c7.80 -0.80 17.35 -1.75 21.20 -2.05 4.65 -0.40 9.20 -1.15 13.55 -2.25 7.70 -2 14.50 -3 27.45 -4 18.55 -1.45 26.55 -2.30 32.45 -3.35 5.15 -0.95 5.95 -1.25 6.35 -2.20 0.70 -1.90 2.65 -2.85 5.05 -2.55 8.25 1.05 8.85 1.05 16.90 -0.95 3.45 -0.90 4.05 -0.90 3.70 0.05 -0.35 0.90 0.15 0.95 3.10 0.20 1.25 -0.35 2.20 -0.85 2.20 -1.25 0 -0.40 -0.30 -0.70 -0.60 -0.70 -0.35 -0.05 2.30 -1 5.90 -2.20 3.60 -1.20 7.25 -2.55 8.10 -3 1.95 -1 6.55 -1.05 7.90 -0.10 0.90 0.70 0.90 0.80 0.10 1.40 -1.15 0.85 -0.65 3.10 0.55 2.75 0.45 -0.15 2.70 -0.80 5.05 -1.50 5.90 -1.75 10 -3.35 10 -3.85 0 -0.25 -0.25 -0.60 -0.55 -0.75 -0.25 -0.20 2 -1.40 5 -2.75 3.05 -1.30 7.85 -3.65 10.70 -5.25 4.90 -2.75 12.55 -7.85 13.10 -8.75 0.15 -0.20 -0.55 -1.40 -1.60 -2.60 -3.30 -3.90 -6.65 -9.55 -10.45 -17.40 -2.05 -4.25 -4.15 -8.20 -4.65 -8.75 -0.50 -0.55 -2.55 -4.20 -4.60 -8.10 -2.05 -3.95 -3.85 -7.15 -4 -7.15 -0.15 0 -1.90 2 -3.85 4.50 -3.15 3.90 -3.60 4.75 -3.60 6.50 0 2.55 -1.70 4.50 -3.95 4.50 -1.50 0 -3.55 1.90 -3.55 3.30 0 0.35 -0.65 1.15 -1.45 1.75 -0.85 0.60 -1.75 1.70 -2.05 2.45 -0.95 2.30 -3.55 4.35 -6.50 5.20 -2.35 0.65 -14.75 2.30 -17.30 2.30 -0.65 0 -0.70 -0.15 -0.25 -0.70 0.45 -0.50 0.30 -0.85 -0.65 -1.50 -0.95 -0.60 -2.45 -0.80 -5.65 -0.80 -5 0 -7.45 -0.90 -12.05 -4.35 -1.70 -1.30 -3 -1.95 -3.60 -1.80 -0.55 0.15 -2 -0.35 -3.25 -1.05 -1.80 -1.05 -2.25 -1.20 -2.25 -0.55 0 1.25 -1.25 0.85 -3.25 -1.10 -2.10 -2.05 -4 -5.80 -4.50 -9.05 -0.20 -1.20 -0.65 -2.30 -1.05 -2.45 -1.75 -0.65 -6.15 -10.55 -7.45 -16.75 -0.95 -4.30 -0.95 -4.40 0.05 -4.40 0.70 0 0.80 -0.40 0.50 -2.55 -0.35 -2.50 -3.05 -8.65 -4.45 -10.05 -0.40 -0.35 -1 -1.25 -1.35 -1.90 -0.65 -1.25 -0.70 -1.20 -2.35 2.25 -1.40 2.95 -1.60 3.85 -1.35 5.80 0.25 1.95 0.15 2.50 -0.70 3.35 -0.55 0.55 -1.20 1.05 -1.45 1.15 -0.30 0.10 -0.65 1.05 -0.80 2.10 -0.20 1.40 -0.10 1.85 0.45 1.85 1.50 0 0.30 8.05 -1.50 9.95 -1 1.05 -1.40 2.45 -2.30 7.80 -1.10 6.95 -3.70 17.95 -5.75 24.60 -1.35 4.30 -2.10 5.15 -4.45 5.15 -1.35 0 -1.25 -0.35 -2.55 7.25 -1.10 6.20 -0.95 5.85 -4.35 9.10 -3.65 3.40 -5.05 4.90 -7.35 7.65 -3 3.55 -6.50 4.70 -16.30 5.35 l-5 0.30 -2.15 -1.85 c-1.20 -1 -2.40 -1.80 -2.70 -1.80 -0.25 0 -1.10 -0.40 -1.80 -0.95 -0.75 -0.50 -2.60 -1.30 -4.10 -1.80 -5.05 -1.65 -7.35 -3.20 -5.60 -3.80 0.65 -0.25 0.50 -0.50 -0.90 -1.20 -2.50 -1.25 -7.95 -5.35 -10.20 -7.65 l-1.90 -2 -1.95 1.85 c-2.35 2.30 -4.95 8.60 -3.35 8.15 1.10 -0.25 1.15 0.35 0.15 2.75 -0.40 0.95 -0.75 2.50 -0.75 3.35 0 1.05 -1 3.20 -2.90 6.35 -1.60 2.60 -3.20 5.50 -3.55 6.45 -1.50 3.80 -5.10 11.15 -6.15 12.60 -1 1.45 -1 1.55 -0.10 1.10 0.50 -0.25 2.25 -0.45 3.90 -0.45 2.45 0 3.05 0.20 3.75 1.10 0.45 0.60 0.95 1.10 1.10 1.15 0.15 0 6.65 -0.65 14.50 -1.45z m-111.65 -21.75 c0.10 -0.45 0 -0.80 -0.20 -0.80 -0.35 0 -5.20 3 -5.20 3.25 0 0.05 1.20 -0.30 2.65 -0.75 1.55 -0.50 2.65 -1.20 2.75 -1.70z m112.95 -28.80 c-1.15 -2.90 -2.15 -5.35 -2.20 -5.45 -0.35 -0.50 -3.15 1.20 -3.15 1.90 0 1.05 6.85 9.35 7.30 8.90 0.10 -0.10 -0.80 -2.50 -1.95 -5.35z m-8.70 -21.60 c1.65 -1.80 1.85 -1.90 5 -1.90 l3.25 0 0.35 -2.10 c0.35 -1.95 0.25 -2.20 -1.30 -3.55 -2.85 -2.40 -3.80 -2.90 -6.80 -3.55 -1.60 -0.35 -3.10 -0.70 -3.40 -0.80 -0.25 -0.05 -1.70 -0.10 -3.10 -0.05 l-2.65 0.05 0 1.70 c0 2.65 -1.95 3.95 -5.50 3.65 -1.50 -0.10 -3.25 -0.35 -3.80 -0.55 -0.95 -0.35 -1.10 -0.15 -1.40 1.40 -0.65 3.40 0.10 5.30 3.45 8.65 l3.05 3.05 3.25 -0.25 c1.75 -0.15 3.75 -0.05 4.45 0.25 1.10 0.40 1.30 0.25 2.30 -1.85 0.60 -1.25 1.85 -3.15 2.85 -4.15z m342.35 -6.10 c0 -0.40 -6 -7.80 -6.30 -7.80 -0.15 0 0.15 0.75 0.70 1.65 0.50 0.85 1.50 2.55 2.10 3.70 0.65 1.20 1.60 2.20 2.20 2.30 0.60 0.10 1.10 0.25 1.20 0.30 0.05 0 0.10 -0.05 0.10 -0.15z m-34.75 -30.20 c-0.30 -0.25 -2.20 -1.65 -4.25 -3.20 -4 -3 -6.05 -4.10 -13.90 -7.60 l-5.05 -2.20 2.45 3.15 c3.15 3.95 6.10 6.65 8.45 7.60 3.35 1.45 13.50 3.25 12.30 2.25z m-128.55 -7.10 c1.10 0 2 -0.40 2.85 -1.30 1.05 -1.15 1.50 -1.25 4.70 -1.15 l3.50 0.15 1.15 -2.90 c0.65 -1.60 1.30 -3.95 1.45 -5.25 0.25 -2.15 0.15 -2.40 -1.05 -2.95 -1.20 -0.55 -1.30 -0.50 -1.30 0.60 0 1.85 -1 4.30 -2 4.80 -0.50 0.30 -2.10 0.50 -3.55 0.50 -3.35 0 -4.95 -1.30 -4.95 -4.05 0 -2.25 -0.60 -2.55 -3.20 -1.60 -2.45 0.85 -4.85 2.65 -6.60 4.95 -1.25 1.60 -1.30 1.90 -0.80 3.60 0.30 1 1.25 2.90 2.05 4.20 l1.50 2.40 2.30 -1 c1.30 -0.55 3.05 -1 3.95 -1z m-4.70 -22.15 c0.45 -0.15 0.20 -0.30 -0.55 -0.30 -0.75 -0.05 -1.85 0.40 -2.50 0.95 l-1.20 1 1.75 -0.70 c0.95 -0.35 2.10 -0.80 2.50 -0.95z m-68.70 -35.45 c2.45 -2.55 4.50 -5.75 5.50 -8.55 0.65 -1.90 0.65 -2.10 -0.50 -4.05 -0.65 -1.15 -2.60 -3.50 -4.25 -5.25 -2.55 -2.65 -3.25 -3.10 -4.20 -2.80 -2.70 0.95 -6.60 0.85 -9 -0.20 -3.20 -1.40 -3.70 -1.35 -6.40 0.65 -2 1.50 -2.50 2.25 -3.75 5.60 -2.30 6.30 -1.70 13.05 0.75 8.30 1.40 -2.75 2.75 -3.60 5.85 -3.60 3.65 0 4.80 1.05 5.10 4.65 l0.20 2.85 2.45 0 c3.05 0 4.45 1.20 4.45 3.75 0 1.55 0.10 1.70 0.90 1.30 0.45 -0.25 1.80 -1.45 2.90 -2.65z"/>
  <path d="M376.10 678.20 c-1.50 -1.05 -1.45 -3.85 0.20 -9.50 1.20 -4.15 1.20 -4.55 0.50 -5.80 -1.05 -1.70 -1 -2.50 0.15 -4 1.05 -1.30 4.05 -10.65 5.05 -15.65 0.30 -1.65 0.65 -3.35 0.80 -3.80 0.20 -0.75 -0.85 -0.85 -9.40 -1.10 -7 -0.20 -10.40 -0.50 -12.40 -1.10 -3.10 -0.95 -5 -2.45 -5 -3.85 0 -2.25 2.60 -5.40 4.40 -5.40 0.65 0 1.90 -0.60 2.75 -1.30 1 -0.85 1.85 -1.20 2.55 -1 0.60 0.15 1.80 0.30 2.70 0.30 1.25 0 2.10 0.40 3.05 1.45 0.80 0.85 2.65 1.90 4.45 2.50 3.55 1.20 6.35 1 15.50 -1.20 6.25 -1.50 6.35 -1.50 7.60 -0.25 0.95 0.95 1.25 1 4.40 0.45 2.45 -0.40 3.60 -0.90 4.35 -1.75 0.85 -1 1.90 -1.30 6.50 -2 3.05 -0.40 7.30 -1.25 9.50 -1.80 2.20 -0.55 5 -1.15 6.25 -1.40 4.60 -0.85 11.85 -3.15 15.95 -5.05 2.70 -1.25 4.80 -1.90 6 -1.85 1 0 2.80 -0.40 4.05 -0.95 1.25 -0.55 2.90 -1.15 3.75 -1.35 0.80 -0.20 2.40 -1.35 3.50 -2.55 1.10 -1.20 2.60 -2.30 3.35 -2.45 1.95 -0.35 2.90 -0.95 5.40 -3.50 1.80 -1.90 2.55 -2.30 4 -2.30 1.35 0 2.60 -0.55 4.85 -2.20 1.65 -1.20 3.15 -2.55 3.30 -2.95 0.15 -0.40 1.05 -1 1.95 -1.30 1.85 -0.65 4.45 -3.85 5.35 -6.60 0.70 -2.15 2.45 -3.15 4.25 -2.45 0.65 0.25 1.40 0.75 1.65 1.10 0.20 0.35 1.25 1.05 2.25 1.50 2.05 0.95 2.75 2.50 2.15 4.75 -0.65 2.75 -12.90 14.10 -18.40 17.10 l-2.40 1.30 0.30 2.35 c0.15 1.25 0.05 2.85 -0.30 3.50 -0.45 1.05 -0.05 2.05 3.55 8.40 4.95 8.65 7.65 14.65 7.70 16.90 0 2.10 -1.60 3.75 -3.60 3.70 -1.45 -0.05 -5.35 -1.75 -7.35 -3.25 -0.65 -0.50 -1.30 -0.60 -2.10 -0.30 -1.80 0.65 -2.90 -0.05 -5.50 -3.65 -1.35 -1.85 -5.20 -6.45 -8.65 -10.25 -3.40 -3.80 -6.35 -7.05 -6.50 -7.30 -0.15 -0.20 -3.45 0.95 -7.30 2.60 -14.25 6 -29.95 10.25 -46.70 12.55 l-4.25 0.55 -0.90 4.60 c-1.30 6.85 -4.35 17.50 -5.25 18.50 -0.40 0.45 -1.25 0.85 -1.90 0.85 -0.85 0 -2.10 1.35 -5.30 5.65 -2.25 3.05 -4.65 6.60 -5.30 7.85 -1.75 3.50 -3.30 4.25 -5.50 2.70z m14.70 -27.20 c0.90 -3.05 2.65 -10.90 2.70 -11.85 0 -0.40 -0.75 -0.65 -2 -0.65 -2.15 0 -1.95 -0.30 -2.95 4.45 -0.40 1.90 -0.35 2.40 0.60 3.60 1 1.45 1.05 1.45 0.15 4.30 -0.50 1.60 -1.05 3.20 -1.20 3.55 -0.20 0.60 -0.05 0.60 0.85 0.05 0.60 -0.40 1.35 -1.80 1.85 -3.45z m88.35 -21.10 c-1.95 -3.40 -4.30 -7.65 -5.30 -9.45 l-1.85 -3.35 -2.85 1.20 c-1.60 0.65 -3.20 1.20 -3.60 1.20 -0.40 0 0.15 0.90 1.25 2.15 1.10 1.20 2.90 3.35 4.10 4.75 1.55 1.90 2.50 2.60 3.45 2.60 1.25 0 2.55 1.15 6.05 5.40 0.95 1.15 1.85 2 1.95 1.90 0.15 -0.15 -1.30 -3 -3.20 -6.40z"/>
  <path d="M393 557.95 c-2.60 -0.25 -11.70 -0.55 -20.25 -0.65 -8.50 -0.15 -17.40 -0.35 -19.75 -0.55 -6.20 -0.45 -12.05 -2 -17.40 -4.50 -9.05 -4.30 -13.85 -8.75 -18.90 -17.50 -1.35 -2.35 -3.40 -5.60 -4.50 -7.15 -2.05 -2.85 -4.20 -6.65 -4.20 -7.50 0 -0.25 -1.60 -3.25 -3.55 -6.65 -10.60 -18.50 -12.35 -22.90 -14.15 -36.20 -0.40 -2.75 -1.40 -6.90 -2.25 -9.25 -2.80 -7.85 -3.10 -21.40 -0.85 -38.35 0.40 -2.95 1 -7.85 1.30 -10.90 0.35 -3 0.90 -5.85 1.25 -6.25 0.60 -0.75 1.75 -3.70 1.75 -4.55 0 -0.25 -0.35 -0.30 -0.75 -0.15 -1.30 0.50 -3.05 -0.25 -3.65 -1.55 -0.80 -1.70 0.25 -4.65 4.60 -13.05 2.70 -5.30 3.15 -6.45 2.55 -6.90 -0.40 -0.30 -0.85 -1.15 -1 -1.85 -0.70 -2.80 7.10 -12.30 24.25 -29.50 10.15 -10.20 10.30 -10.30 15.80 -13.10 5.95 -3.05 6.90 -3.25 8.55 -2.10 0.95 0.65 1.60 0.60 6.65 -0.60 4.70 -1.10 5.65 -1.50 6 -2.45 0.65 -1.70 1.40 -1.95 5.75 -2 2.20 -0.05 8.30 -0.25 13.50 -0.45 19 -0.75 35.60 -0.90 39 -0.30 4.85 0.85 8.40 2.35 11.40 4.75 2.05 1.70 3.50 2.40 6.75 3.20 5.75 1.45 11.70 4.40 19.30 9.50 3.60 2.45 8.70 5.75 11.30 7.35 2.75 1.75 6.80 4.95 9.75 7.75 2.75 2.65 6 5.55 7.25 6.50 1.25 0.95 4.05 3.40 6.25 5.40 3.95 3.65 4 3.70 4.15 2.25 0.25 -1.90 1.45 -3.15 3.15 -3.15 1.90 0 3.55 2.15 7.70 10.10 1.90 3.60 4.85 8.90 6.55 11.75 3.50 5.75 4.70 8.60 5.95 14.15 1.25 5.75 2.05 8.85 3.45 14 1.60 5.95 3.80 21 3.80 26.10 0 3.75 -1.45 14.95 -2.55 19.75 -0.30 1.30 -0.70 3.40 -0.95 4.65 -0.20 1.25 -0.75 4.05 -1.25 6.25 -0.70 3.25 -0.75 4.30 -0.25 5.80 1.30 3.90 -0.85 10.85 -6.45 20.95 -1.65 2.90 -3.95 7.50 -5.15 10.30 -1.25 2.80 -2.85 5.85 -3.60 6.85 -1.95 2.55 -5.90 5.10 -10.55 6.80 -2.20 0.80 -7.05 2.90 -10.75 4.70 -7.75 3.65 -9.75 4.40 -15.25 5.80 -2.20 0.55 -5.15 1.45 -6.55 2 -3.80 1.50 -10.05 3 -18.70 4.55 -4.25 0.80 -7.80 1.65 -7.90 1.95 -0.55 1.70 -2.15 2.75 -5.15 3.35 -4 0.90 -24.75 1.30 -31.45 0.65z m17.60 -7.90 c1.35 -0.30 1.60 -0.55 1.50 -1.50 -0.10 -0.60 0.20 -1.65 0.60 -2.35 0.95 -1.40 3.45 -1.60 5.05 -0.40 2.25 1.70 7.90 0.05 22.75 -6.55 8.85 -3.95 21.55 -8.75 23.20 -8.75 2.15 0 3.65 3.70 2.05 5 -1.20 1 -0.50 1.15 1.15 0.30 0.80 -0.40 4.45 -1.80 8.10 -3.05 7.95 -2.70 11.50 -4.50 11.50 -5.85 0 -0.55 0.25 -1.40 0.50 -1.90 0.50 -0.90 0.40 -0.90 -1.70 -0.20 -3 1.05 -4.75 0.75 -6 -0.95 -0.95 -1.30 -0.95 -1.50 -0.25 -2.75 0.40 -0.75 1.40 -1.55 2.20 -1.80 6.30 -1.85 11 -4.75 17.25 -10.65 4.60 -4.35 5 -5 6.25 -10.10 0.75 -3 0.80 -4 0.30 -5.30 -0.50 -1.40 -0.30 -2.80 1.70 -10.80 3.25 -13.10 3.55 -16.50 2.80 -32.70 -0.30 -7.45 -0.85 -16.10 -1.20 -19.25 -0.55 -5.45 -0.65 -5.70 -1.85 -6 -1.70 -0.40 -2.85 -2.30 -6.50 -10.60 -6.65 -15.25 -11.05 -22.05 -19.55 -30.15 -5.70 -5.40 -7.75 -6.85 -18.45 -13.05 -4.55 -2.65 -9.80 -6.05 -11.65 -7.60 -6.20 -5.15 -8.50 -6.65 -17.95 -11.40 -8.50 -4.25 -10.90 -5.25 -10.90 -4.40 0 0.15 1.40 1.85 3.05 3.75 3.30 3.65 3.75 5.20 2.20 6.95 -1.85 2.05 -3.20 1.35 -8.20 -4.05 -2.90 -3.10 -4.95 -4.90 -5.35 -4.75 -1.40 0.55 -3.20 -0.65 -3.55 -2.25 -0.15 -0.90 -0.75 -1.75 -1.35 -2 -2.35 -1 -23.35 -4 -30.15 -4.30 -7.05 -0.30 -7.10 -0.30 -16 1.85 -12.85 3.05 -21.70 5.35 -23.30 5.95 -1.35 0.50 -1.35 0.55 -0.55 1.80 0.70 1.05 0.70 1.50 0.20 2.75 -0.65 1.55 -1 1.70 -4.20 2.30 -1.10 0.20 -2.75 0.85 -3.70 1.50 -0.95 0.65 -2.15 1.20 -2.60 1.20 -1.30 0 -6.50 4.40 -6.50 5.50 0 1.65 -0.60 2.55 -2.45 3.50 -2.20 1.15 -3.85 2.85 -8.75 9.20 -4.20 5.50 -5.35 8.30 -7.30 17.90 -1.25 6.15 -3 17.95 -3 20.50 0 1 0.45 2.60 1 3.55 l1.05 1.75 -1.05 2.55 c-0.55 1.45 -1 3.30 -1 4.20 0 0.90 -0.20 1.85 -0.50 2.15 -1.80 1.80 -3 20.75 -2.05 33.05 1.25 16.30 3.75 25.30 8.75 31.45 2.55 3.10 2.55 3.10 1.75 4.90 -0.50 1.05 -0.40 1.75 0.55 4 1 2.50 1.30 2.80 2.55 2.80 0.80 0 1.90 0.45 2.50 1.05 0.90 0.90 1 1.40 0.70 4.10 -0.30 3 -0.25 3.20 1.75 6.35 1.15 1.80 3.75 5.30 5.70 7.75 2 2.50 3.80 4.90 3.95 5.40 0.80 2.10 18.80 12.70 25 14.65 2.65 0.80 2.75 0.80 3.80 -0.25 1.45 -1.45 3.20 -1.30 5.15 0.35 2.05 1.75 4.20 2.35 11.10 3.10 3.30 0.40 6.20 1 7.25 1.55 1.05 0.55 3.75 1.10 6.55 1.40 4.90 0.50 23.15 0.20 26.10 -0.40z m-68.60 -2.20 c0 -0.10 -1.65 -1.05 -3.60 -2.10 -2 -1.05 -4.85 -2.65 -6.25 -3.55 -1.45 -0.95 -2.65 -1.50 -2.65 -1.30 0 0.55 6.05 4.45 9.10 5.85 2.60 1.15 3.40 1.40 3.40 1.10z m109 -5.90 c0 -0.25 -0.65 -0.15 -1.50 0.30 -0.80 0.45 -1.50 0.85 -1.50 1 0 0.10 0.70 -0.05 1.50 -0.30 0.85 -0.30 1.50 -0.75 1.50 -1z m7.25 -2.45 c0.95 -0.40 0.95 -0.45 -0.10 -0.45 -0.60 -0.05 -1.25 0.20 -1.40 0.45 -0.35 0.60 0.10 0.60 1.50 0z m-163.55 -135.30 c0.15 -0.45 0.30 -1.40 0.25 -2.10 l-0.05 -1.35 -0.65 1.50 c-0.40 0.85 -0.70 1.80 -0.75 2.15 0 0.85 0.85 0.75 1.20 -0.20z"/>
  <path d="M408 512.50 c-1.25 -0.25 -4.10 -0.30 -6.40 -0.15 -2.25 0.15 -9 -0.10 -15 -0.55 -17.65 -1.35 -18.65 -1.50 -22.55 -3.55 -8.30 -4.35 -16.30 -13.35 -24 -26.95 -5.15 -9.15 -8.25 -19.60 -8.20 -27.80 0.05 -7.30 1.20 -11.75 4.95 -19.50 4.25 -8.70 6.80 -12.55 11.35 -16.85 4.40 -4.20 7.70 -6.15 13.35 -7.90 2.35 -0.75 6.85 -2.40 10 -3.65 l5.75 -2.35 10.50 0.10 c12.55 0.10 16.10 0.60 19.40 2.65 1.45 0.90 3.95 1.80 6.25 2.30 4.95 1 10.45 3.30 12.90 5.35 1.10 0.90 3.85 3.10 6.20 4.85 5.80 4.35 8.40 6.65 10.10 9 1.85 2.50 7.55 15.75 8.55 19.75 2.60 10.55 2.60 10.75 2.60 21 -0.05 8.65 -0.20 10.60 -1.15 14.50 -2.20 8.65 -7.20 16.45 -12.85 19.85 -1.50 0.90 -4.30 2.65 -6.15 3.85 -8.75 5.70 -16.80 7.60 -25.60 6.05z"/>
  <path d="M568.75 327.90 c-1.35 -0.75 -1.75 -1.40 -1.75 -3 0 -1.05 0.70 -1.90 3.25 -4 3.15 -2.60 3.20 -2.70 2.90 -4.55 -0.25 -1.65 0 -2.30 2.10 -5.50 1.35 -1.95 4.25 -5.95 6.50 -8.85 5.05 -6.45 7.65 -10.35 9.60 -14.25 1.65 -3.30 4.35 -10.35 5.15 -13.55 0.25 -1.15 1.05 -2.80 1.70 -3.75 2.65 -3.65 3.80 -6.20 4.30 -9.15 0.75 -4.70 0.65 -9.65 -0.30 -11.05 -0.70 -1.10 -0.70 -1.35 0 -2.85 0.45 -0.90 1.15 -3.15 1.55 -5.05 0.45 -2.10 1.25 -4.15 2.05 -5.20 1.85 -2.45 2.65 -7.75 2.70 -17.75 l0 -8.35 1.30 -1 c1.70 -1.35 2.50 -1.30 3.95 0.20 1.20 1.20 1.25 1.40 1.25 9.15 0 5.15 -0.30 9.55 -0.80 12.40 -0.50 2.60 -0.85 7.80 -0.95 12.45 -0.10 8.40 -0.85 12.35 -3.30 18.05 -0.55 1.35 -1.70 4.95 -2.50 7.95 -1.50 5.55 -4.30 13.45 -6.05 16.85 -0.55 1.15 -1.40 2 -2.15 2.20 -0.70 0.15 -1.70 0.95 -2.30 1.75 l-1 1.45 1.15 0.45 c1.30 0.50 2.05 1.30 2.55 2.65 0.20 0.60 -1.20 3.15 -4.25 7.75 -3.55 5.40 -5.90 8.25 -10.60 12.90 -6.35 6.35 -12.35 11.45 -14.05 11.90 -0.55 0.20 -1.45 0.05 -2 -0.25z"/>
 </g>
 <g fill="#f6e597">
  <path d="M229.90 258.60 c-1.05 -0.10 -1.90 -0.25 -1.90 -0.35 0 -0.10 1.15 -1.70 2.55 -3.60 2.55 -3.35 5.15 -8.20 7.45 -13.85 0.65 -1.65 2.50 -5.15 4.10 -7.75 2.05 -3.40 2.90 -5.30 2.90 -6.55 0.05 -0.95 0.30 -2.25 0.65 -2.85 0.75 -1.30 5.15 -3.70 6.15 -3.30 0.40 0.15 0.70 0 0.70 -0.30 0 -0.65 2.30 -0.75 2.70 -0.10 0.15 0.20 1.25 0.55 2.50 0.70 1.20 0.20 2.95 0.80 3.95 1.35 1 0.60 2.45 1 3.40 0.95 0.95 -0.10 2.40 0.20 3.20 0.65 0.85 0.40 2.75 1.15 4.25 1.65 1.50 0.50 3.35 1.30 4.10 1.80 0.70 0.55 1.55 0.95 1.80 0.95 0.30 0 1.50 0.80 2.65 1.80 2.15 1.80 2.20 1.80 5.70 1.50 8.95 -0.85 12 -1.95 14.80 -5.30 2.30 -2.75 3.70 -4.25 7.35 -7.65 3.40 -3.25 3.25 -2.90 4.35 -9.10 1.30 -7.60 1.20 -7.25 2.55 -7.25 2.35 0 3.10 -0.85 4.45 -5.15 2.05 -6.65 4.65 -17.65 5.75 -24.60 0.90 -5.35 1.30 -6.75 2.30 -7.80 1.05 -1.10 2.10 -4.90 2.20 -8 0 -0.20 1.65 -0.70 3.70 -1.20 2.05 -0.45 3.80 -1 3.90 -1.25 0.10 -0.25 1.40 -0.30 2.90 -0.10 l2.70 0.35 0.60 3 c1.15 5.70 5.70 15.75 7.40 16.40 0.40 0.15 0.85 1.25 1.05 2.45 0.50 3.15 2.35 6.95 4.35 8.95 0.95 0.95 1.90 2.25 2.05 2.95 0.15 0.70 0.60 2.15 1.05 3.25 0.40 1.10 0.75 3.30 0.80 4.95 0 2.55 0.10 2.85 0.90 2.55 1.40 -0.60 6.40 -1.05 7.15 -0.70 0.40 0.20 1.70 0.75 2.95 1.25 1.25 0.50 2.70 1.25 3.25 1.75 0.90 0.75 1.10 0.80 1.70 0.10 0.35 -0.40 1.10 -0.60 1.65 -0.50 0.55 0.15 1.05 0 1.20 -0.40 0.15 -0.40 0.95 -0.65 1.80 -0.65 0.95 0.05 1.80 -0.30 2.20 -0.85 0.35 -0.45 1 -0.75 1.40 -0.60 0.70 0.25 2.05 -0.75 1.60 -1.20 -0.10 -0.10 0.60 -0.20 1.60 -0.25 3.20 -0.05 11.25 -1.20 14.10 -2 2.95 -0.85 5.55 -2.90 6.50 -5.20 0.30 -0.75 1.20 -1.85 2.05 -2.45 0.80 -0.60 1.45 -1.40 1.45 -1.75 0 -1.40 2.05 -3.30 3.55 -3.30 2.25 0 3.95 -1.95 3.95 -4.50 0 -1.80 0.45 -2.60 3.75 -6.70 2.05 -2.55 4.05 -5.40 4.45 -6.30 l0.70 -1.70 1.10 2.25 c4.20 8.25 8.30 15.85 9.05 16.70 0.50 0.55 2.45 4.25 4.40 8.25 2.50 5.15 3.30 7.35 2.90 7.60 -0.40 0.25 -0.30 0.40 0.30 0.40 0.50 0 1.05 0.40 1.20 0.85 0.50 1.25 4.90 7.40 7.60 10.55 l2.25 2.70 -1.20 0.95 c-6.90 5.45 -15.90 10.75 -24.55 14.50 -5.60 2.40 -5.60 2.40 -6.40 1.35 l-0.85 -1 -2.75 1.35 c-1.95 1.05 -3.60 1.45 -6.10 1.60 -1.90 0.10 -4.05 0.50 -4.80 0.90 -1.15 0.55 -1.75 0.60 -3 0.10 -1.25 -0.45 -1.90 -0.45 -3.15 0.10 -0.90 0.40 -4.80 1.75 -8.65 3.10 -5.55 1.90 -7.05 2.25 -7.15 1.65 -0.10 -0.35 -0.70 -0.70 -1.30 -0.70 -1.55 0 -4.30 1.40 -4.30 2.20 0 0.40 -0.75 0.80 -1.60 0.95 -0.90 0.20 -3.20 0.65 -5.15 1.10 -4.10 0.90 -10.40 1 -12.70 0.20 -1.25 -0.45 -1.80 -0.40 -2.85 0.25 -0.70 0.50 -1.45 1.35 -1.65 2 -0.75 1.95 -10.35 3.30 -38.80 5.55 -12.95 1 -19.75 2 -27.45 4 -4.35 1.10 -8.90 1.85 -13.55 2.25 -3.85 0.30 -13.40 1.25 -21.20 2.05 -16.95 1.75 -17.60 1.75 -18.40 0.50 -0.85 -1.35 -2.90 -1.70 -4.65 -0.80 -0.85 0.45 -1.50 0.95 -1.50 1.20 0 0.70 -2.20 1.30 -4.10 1.15z"/>
  <path d="M219.40 247.95 c-0.45 -0.25 -0.70 -0.85 -0.55 -1.40 0.15 -0.50 0 -1.05 -0.25 -1.25 -0.75 -0.45 0.55 -6.30 2.15 -9.60 0.80 -1.65 1.40 -3.10 1.35 -3.30 -0.05 -0.25 0.20 -0.40 0.60 -0.40 0.40 0 1.15 -0.65 1.65 -1.50 0.45 -0.80 1.15 -1.50 1.55 -1.50 0.95 0 3.60 -2.10 3.30 -2.60 -0.15 -0.20 0.20 -0.40 0.80 -0.40 0.60 0 0.95 -0.20 0.80 -0.45 -0.15 -0.25 0.50 -0.55 1.45 -0.65 1.55 -0.20 1.70 -0.10 1.45 0.85 -0.20 0.55 -0.85 1.45 -1.45 2 -0.65 0.55 -3.45 5.30 -6.25 10.50 -2.80 5.25 -5.25 9.65 -5.45 9.85 -0.15 0.20 -0.65 0.15 -1.15 -0.15z"/>
  <path d="M283.60 219.65 c0.15 -1.60 1.30 -2.30 2.35 -1.45 0.40 0.30 0.85 0.50 1 0.45 0.55 -0.25 2.05 0.40 2.05 0.85 0 0.50 -2.80 1.50 -4.35 1.50 -1 0 -1.15 -0.20 -1.05 -1.35z"/>
 </g>
 <g fill="#f7d3c7">
  <path d="M244.75 191.50 c-1.30 -1.45 -3.95 -1.80 -5.55 -0.80 -1.20 0.85 -1.35 0.80 -3.40 -0.40 -3.50 -2.05 -6.70 -5.95 -7.10 -8.60 -0.45 -2.95 0.05 -6.75 1.05 -8.75 l0.85 -1.60 1.05 1.30 c2.15 2.50 4.40 2.95 6.55 1.30 0.95 -0.75 1.30 -1.50 1.30 -2.65 l0 -1.65 3.90 -0.30 c2.75 -0.25 4.40 -0.15 5.85 0.40 1.10 0.40 2.50 0.70 3.15 0.75 1.50 0 2.80 0.70 5.55 2.95 l2.15 1.75 -0.25 3.30 c-0.10 1.80 -0.50 3.90 -0.80 4.70 l-0.60 1.45 -1.10 -1.10 c-1.85 -1.70 -4.15 -1.40 -6.20 0.85 -1.70 1.80 -4.15 6.20 -4.15 7.50 0 0.90 -1.25 0.70 -2.25 -0.40z"/>
  <path d="M252.30 162 c-0.80 -0.25 -1.90 -0.95 -2.45 -1.55 l-1.05 -1.10 1.40 0.35 c1.65 0.40 5.40 2.80 4.30 2.75 -0.40 0 -1.40 -0.25 -2.20 -0.45z"/>
  <path d="M231.70 161.30 c0.55 -0.45 1.45 -0.80 2 -0.75 0.85 0.05 0.80 0.10 -0.30 0.45 -0.70 0.20 -1.60 0.55 -2 0.75 -0.35 0.15 -0.20 -0.05 0.30 -0.45z"/>
  <path d="M421 142.65 c-2.15 -2.40 -4.10 -6.75 -4.20 -9.20 -0.10 -4.45 8.15 -10.45 12.85 -9.25 1.15 0.25 1.35 0.55 1.35 2.20 0 3.15 2.85 5 5.50 3.60 1.25 -0.65 2.15 -3.70 1.80 -5.80 l-0.35 -1.70 2.85 1.25 c1.55 0.70 2.90 1.25 2.95 1.25 0.10 0 0.30 0.65 0.50 1.45 0.40 1.95 -0.95 7.55 -2.85 11.70 -1.30 2.85 -1.65 3.25 -2.05 2.50 -1.35 -2.60 -4.40 -2.90 -6.60 -0.65 -1.05 1.10 -1.70 1.40 -2.60 1.20 -1.35 -0.35 -4.95 0.95 -6.45 2.35 -1.05 1 -1.05 1 -2.70 -0.90z"/>
  <path d="M348.90 87.30 c0.60 -1.05 1.10 -2.40 1.10 -3.10 0 -3.05 -4.60 -4.45 -6.35 -1.90 -2.35 3.30 -3.05 3.95 -3.70 3.30 -0.70 -0.65 -0.80 -0.40 2.05 -6.15 1.05 -2.05 1.10 -2.40 0.45 -3.70 -0.40 -0.80 -1.35 -1.70 -2.10 -1.95 -2.10 -0.75 -3.85 0.45 -5.35 3.55 -1.40 2.90 -2.70 3.40 -4.30 1.60 -1.55 -1.75 -1.35 -8.15 0.50 -13.10 1.25 -3.40 1.75 -4.15 3.75 -5.65 3.25 -2.35 4.75 -2.55 8.55 -1 3.95 1.60 5.25 1.65 6.70 0.10 l1.10 -1.25 2.50 1.45 c2.50 1.45 6.35 5.50 8.25 8.75 1.40 2.30 1.10 5.20 -0.85 9.10 -2.45 4.85 -8.15 10.20 -12.15 11.40 l-1.20 0.35 1.05 -1.80z"/>
 </g>
</svg>