<?xml version="1.0" encoding="utf-8"?>
<!DOCTYPE svg PUBLIC "-//W3C//DTD SVG 1.0//EN" "http://www.w3.org/TR/2001/REC-SVG-20010904/DTD/svg10.dtd">
<svg version="1.0" xmlns="http://www.w3.org/2000/svg" width="737px" height="972px" viewBox="0 0 737 972" preserveAspectRatio="xMidYMid meet">
 <g fill="#010101">
  <path d="M324.50 917.15 c-3.35 -0.50 -8.60 -1.90 -11.80 -3.20 -2 -0.80 -4.10 -1.45 -4.65 -1.45 -0.60 0 -2.35 -0.65 -3.95 -1.45 -6.50 -3.35 -10.65 -7.75 -14.80 -15.65 -1.35 -2.55 -3.10 -5.45 -3.85 -6.45 -2.60 -3.35 -4.65 -9.35 -6.45 -19.25 -2.20 -11.85 -2.40 -16.45 -1.95 -47.20 0.20 -15.10 0.30 -14.25 -2.55 -29.25 -0.50 -2.75 -1.40 -8.25 -2 -12.25 -1.65 -11.25 -2.95 -16.40 -5.50 -22.25 -0.50 -1.10 -1.70 -3.90 -2.70 -6.25 -1.05 -2.35 -2.25 -5.10 -2.70 -6.20 l-0.85 -1.90 -0.35 1.65 c-0.60 2.90 -3.40 23.45 -3.40 25.15 0 2.45 -1.35 4.70 -3.20 5.50 l-1.65 0.70 -0.85 6.40 c-0.45 3.55 -1 8.05 -1.20 10 -0.45 4.30 -1.45 6 -3.70 6.35 -0.90 0.15 -2.35 0.45 -3.20 0.60 -1.25 0.30 -1.80 0.10 -2.65 -0.80 -0.55 -0.60 -1.05 -1.65 -1.05 -2.35 0 -3.85 -6.40 -26.80 -8.30 -29.60 -2.25 -3.40 -3.55 -7.95 -4 -14 -0.60 -7.55 -0.55 -30.90 0 -37.15 0.30 -3.45 0.25 -5.70 -0.15 -7.50 -0.30 -1.45 -1.25 -6.05 -2.10 -10.30 -0.80 -4.25 -1.65 -7.95 -1.90 -8.25 -0.20 -0.30 -0.70 -1.35 -1.05 -2.30 -0.40 -0.95 -3.15 -6.80 -6.15 -13 -4.50 -9.35 -7.35 -15.65 -11.90 -26.35 -0.55 -1.35 -1.25 -3.20 -1.90 -4.75 -0.20 -0.65 -0.65 -1.70 -0.95 -2.40 -3.75 -8.85 -5.25 -12 -7.80 -16.70 -2.75 -5.10 -10.30 -20.55 -10.30 -21.05 0 -0.10 -0.60 -1.50 -1.30 -3.10 -1.45 -3.25 -1.75 -4 -2.90 -7 -0.90 -2.40 -10.10 -34.60 -11.75 -41.10 -2.25 -8.80 -5 -24.50 -5.60 -31.80 -0.20 -3 -0.50 -6.75 -0.65 -8.30 -0.10 -1.55 -1.05 -4.90 -2.05 -7.50 -1 -2.60 -1.85 -5.25 -1.85 -5.90 -0.05 -1.40 1.70 -3.05 3.15 -3.05 1.30 0 1.65 -1.85 1.30 -6.70 -0.45 -5.30 -1.05 -6.05 -6.10 -7.75 -6.05 -2.05 -7.90 -3.05 -15.95 -9.15 -4.10 -3.10 -8.45 -6.40 -9.75 -7.30 -1.25 -0.90 -3.30 -2.40 -4.55 -3.40 -7 -5.50 -9.25 -6.90 -11.10 -7 -3.75 -0.20 -6.90 -3.65 -16.65 -18.45 -6.45 -9.75 -9.45 -14.95 -11.75 -20.25 -0.90 -2.05 -2.55 -5.65 -3.60 -8 -1.80 -3.85 -2.70 -5.85 -4.65 -10.25 -4.70 -10.50 -7.15 -18.75 -8.10 -27 -0.50 -4.45 -0.50 -13.60 0 -15.35 0.55 -2.10 2.25 -3.40 4.40 -3.40 l1.90 0 0 -2.70 c0 -5.55 3.30 -18.60 5.05 -19.80 0.20 -0.15 0.50 -1.50 0.65 -3.05 0.30 -3.30 2.35 -7.55 5.40 -11.50 2.80 -3.55 13.15 -14.15 20.60 -21.05 l5.95 -5.50 2.15 0.25 c1.85 0.20 2.35 0.05 3.35 -1 1.45 -1.60 8.15 -6.10 14.65 -9.90 2.75 -1.60 6.60 -4 8.50 -5.25 1.95 -1.30 4.20 -2.70 5.10 -3.20 2.15 -1.10 4.80 -1.05 5.85 0.15 0.45 0.50 1.50 1.05 2.25 1.20 1.95 0.40 3.05 1.65 3.05 3.40 0 0.80 0.45 1.90 1 2.45 0.55 0.55 1 1.40 1 1.85 0 1.75 -2.20 5.25 -4.40 7.05 -3.05 2.40 -3.55 3.10 -3.60 4.60 0 0.80 -0.90 2.05 -2.75 3.75 -3.80 3.60 -7.55 12 -6.95 15.80 0.25 1.60 0.10 2.15 -1.05 3.50 -1.15 1.40 -1.30 1.95 -1.10 3.90 0.10 1.25 0.40 2.80 0.60 3.40 0.30 0.90 0 1.50 -1.40 2.90 l-1.80 1.80 -0.10 17.60 c-0.10 15.10 0 18.30 0.75 22.35 0.55 3.10 0.75 5.65 0.55 7.40 -0.30 2.50 -0.20 2.85 2.65 8.25 4.35 8.15 6.20 11.30 8.15 13.95 0.95 1.30 3.05 4.20 4.70 6.45 5.25 7.30 13.45 15.15 14.45 13.90 0.20 -0.35 3.35 -9.55 4.05 -11.95 0.35 -1.25 0.90 -4.40 1.25 -7 0.70 -5.80 2.05 -11.35 4.10 -17 2.15 -6 2.20 -6.20 0.80 -6.85 -2.15 -1 -6.50 -5.35 -7.40 -7.40 -0.45 -1.10 -1.10 -3.35 -1.40 -5 -2.55 -13.20 -2.70 -14.30 -2.40 -18.35 0.15 -2.30 0.50 -6.95 0.70 -10.40 0.45 -6.60 1.20 -9.55 3.65 -13.75 2 -3.65 7.05 -9.35 12.70 -14.50 2.70 -2.50 7.05 -6.50 9.65 -8.90 7.90 -7.30 17.05 -12.85 21.30 -12.85 0.90 0 2.90 -0.55 4.40 -1.20 1.45 -0.65 7.60 -2.90 13.65 -4.95 6.05 -2.05 13.30 -4.80 16.15 -6.05 2.85 -1.30 7.60 -3.05 10.60 -3.95 3.95 -1.15 5.50 -1.85 5.70 -2.50 0.20 -0.90 0.10 -1.80 -1.45 -12.60 -0.40 -3 -0.80 -7.05 -0.80 -9 -0.05 -1.90 -0.45 -5.50 -1 -8 -3.50 -16.95 -4.55 -21.55 -5.90 -26 -2.65 -8.75 -5.05 -15.25 -7.05 -19.25 -1.10 -2.10 -2 -4.05 -2 -4.30 0 -0.55 -4.65 -11.55 -7.05 -16.70 -0.85 -1.80 -3.80 -7.30 -6.55 -12.25 -4.10 -7.30 -5.70 -9.70 -8.60 -12.75 -2 -2.05 -4.75 -5.10 -6.10 -6.75 -1.30 -1.65 -3.40 -4.05 -4.55 -5.35 -2.35 -2.60 -2.80 -4.55 -1.20 -5.40 1.40 -0.70 2.85 -0.60 3.55 0.25 0.35 0.40 0.85 0.75 1.10 0.75 0.70 0 0 -1.70 -1.90 -4.65 -1.70 -2.65 -1.80 -2.70 -4.55 -3 -1.60 -0.15 -3.40 -0.70 -4.10 -1.25 -2.70 -1.95 -4.45 -9.25 -2.90 -11.90 2.05 -3.55 10.90 -12.60 16.50 -16.85 1.95 -1.50 9.40 -5.95 16.55 -9.80 12.85 -7.05 22.30 -12.80 22.30 -13.55 0 -0.25 0.45 -0.60 1 -0.75 0.75 -0.25 0.95 -0.60 0.75 -1.30 -0.20 -0.65 -0.10 -0.95 0.45 -0.95 0.40 0 1.50 -0.40 2.40 -0.90 0.90 -0.50 2.40 -0.95 3.35 -1.05 0.90 -0.05 4.75 -1.35 8.50 -2.80 3.75 -1.45 9.30 -3.45 12.40 -4.45 10.25 -3.30 28.90 -7 37.90 -7.55 6.20 -0.35 16.75 -2.10 16.75 -2.80 0 -0.25 0.55 -0.45 1.25 -0.45 0.70 0 1.25 0.20 1.25 0.40 0 0.50 6.90 -0.10 18.20 -1.65 5 -0.65 11.10 -1.35 13.55 -1.50 2.50 -0.15 7.95 -0.65 12.15 -1.10 4.20 -0.40 8.40 -0.60 9.35 -0.45 2.25 0.45 4.20 2.10 5.30 4.50 1 2.20 0.90 2.20 8 2.25 1.15 0.05 2.10 0.40 2.70 1.05 0.50 0.55 1.40 1 2 1 2.60 0 2.70 1.55 0.75 10.15 l-1.10 4.85 1.05 0.90 c1.35 1.05 2.10 4.10 1.75 7.10 -0.15 1.25 -1.15 7.30 -2.25 13.50 -4.35 24.35 -4.55 25.85 -4.55 33.85 0 4.15 0.10 7.75 0.25 8 0.15 0.25 0.40 3.25 0.60 6.65 0.20 3.45 0.55 9.05 0.75 12.50 0.50 8.55 0.45 23.60 -0.15 30.25 -0.45 4.90 -0.35 6.30 0.60 12.20 0.65 3.65 1.65 8.15 2.30 10 0.60 1.80 1.35 4.75 1.65 6.55 0.30 1.80 0.90 5.50 1.35 8.25 1.70 10.35 2.80 15.40 3.85 17.80 0.90 2.15 1.20 2.50 2.20 2.25 5.45 -1.40 14.30 -2.45 23.45 -2.80 7.20 -0.25 13 -0.80 18.45 -1.70 14.75 -2.40 20.55 -2.25 34.05 0.70 3.60 0.80 8.40 1.75 10.70 2.20 6.35 1.15 8.95 2.65 13.40 7.70 4.20 4.80 6.35 8.85 6.90 13.05 0.20 1.50 0.65 3.40 1 4.25 0.35 0.85 0.90 3.60 1.25 6.05 0.65 4.95 1 6.90 2.25 11.75 1.25 4.95 0.85 8.15 -1.50 12 -1.10 1.80 -2.20 3.60 -2.50 4.05 -2.80 4.65 -8.35 11.35 -11.80 14.30 l-2.50 2.15 7.15 3.45 c3.95 1.90 8.60 4.40 10.35 5.55 3.25 2.10 9.95 8.40 10.95 10.25 0.50 0.90 0.65 0.90 1.25 0.25 2 -2.05 12.80 -18.85 14.70 -22.80 l2.15 -4.55 0 -7.35 c0 -6.75 -0.10 -7.65 -1.30 -10.60 -0.70 -1.80 -1.15 -3.60 -1 -4 0.15 -0.40 1.05 -1.20 2.05 -1.75 l1.75 -1.05 0 -4.10 c0 -2.25 -0.35 -5.25 -0.75 -6.65 -0.40 -1.40 -1.30 -6.20 -2 -10.70 -0.65 -4.50 -1.75 -9.90 -2.45 -11.95 -0.65 -2.05 -1.70 -5.45 -2.30 -7.50 -1.10 -3.75 -1.15 -3.80 -7.55 -10.05 -5.45 -5.40 -6.45 -6.60 -6.45 -7.85 0 -1 0.40 -1.80 1.10 -2.30 1 -0.70 1 -0.85 0.30 -1.65 -5.15 -6.05 -8.40 -10.20 -8.40 -10.85 0 -0.40 -0.65 -1.10 -1.45 -1.55 -2.20 -1.10 -3.05 -2.15 -3.05 -3.75 0 -1.45 1.70 -3 3.25 -3 1.25 0 0.90 -0.90 -2 -4.75 -3.50 -4.65 -5.95 -6.85 -9.80 -8.75 -5.10 -2.60 -6.55 -4.85 -4.70 -7.30 0.40 -0.50 0.75 -1.30 0.75 -1.75 0.05 -2.45 4.20 -3.40 6.85 -1.60 0.75 0.55 5.20 2.70 9.85 4.85 7.50 3.45 8.55 3.80 9.85 3.35 1.95 -0.65 3.25 -0.10 5.70 2.45 1.10 1.15 4.70 3.65 8 5.60 7.15 4.20 8.75 5.55 8.75 7.50 0 1.05 0.30 1.45 1.25 1.65 0.70 0.15 1.80 0.35 2.50 0.50 2.15 0.45 19.25 15.90 22.60 20.40 1.15 1.55 2.25 2.50 3.20 2.70 0.75 0.15 1.80 0.75 2.35 1.35 1.40 1.50 5.25 12.35 8.15 23.20 2.20 8.05 2.45 9.40 1.90 10.65 -0.60 1.50 -2.30 2.30 -3.65 1.80 -1.45 -0.55 -2.40 -2.90 -4.55 -11.20 -1.95 -7.45 -2.70 -9.80 -4.80 -15.30 -0.30 -0.75 -0.95 -1.35 -1.45 -1.35 -1.05 0 -1.10 -0.50 1.70 10 1.85 7.05 4.65 15.75 7.30 23 2.30 6.10 2.50 6.95 2.50 9.80 0 2.75 -0.95 4.20 -2.85 4.20 -1.55 0 -2.65 -1.60 -3.65 -5.35 -1.30 -4.95 -2.55 -8.85 -2.95 -9.40 -0.25 -0.25 -1.30 -3.30 -2.45 -6.75 -1.80 -5.50 -2.75 -8.70 -4.60 -15.50 -0.30 -1.20 -0.90 -1.95 -1.95 -2.40 -1.15 -0.50 -1.60 -1.15 -2.05 -3.10 -1.70 -7 -14.35 -26.60 -18.65 -28.85 -1.30 -0.65 -12.70 -3.10 -14.80 -3.15 -0.75 0 -0.70 0.35 0.95 6 0.60 2.05 1.50 4.30 2 5 1.85 2.65 4.40 8.45 4.15 9.40 -0.35 1.50 2.60 8 5.10 11.10 3.60 4.45 4.20 6 5.80 14.65 2 10.85 2.25 13.90 2.20 23.45 -0.20 16.35 -0.70 23.80 -2.10 28.65 -0.70 2.50 -1.50 4.90 -1.75 5.40 -0.25 0.50 -0.80 2.80 -1.20 5.15 -1.20 6.95 -2.35 9.40 -6.25 13.30 -1.90 1.90 -3.45 3.75 -3.45 4.15 0 0.75 -6.30 8.50 -8.95 10.95 -0.85 0.85 -1.55 1.90 -1.55 2.45 0 1.05 6.05 13.20 10.30 20.65 1.55 2.75 3.25 5.75 3.80 6.70 0.55 0.95 2.45 4.30 4.25 7.40 3.15 5.35 3.35 5.60 4.95 5.60 0.95 0 2.10 0.40 2.60 0.90 0.50 0.50 1.75 3.95 2.80 7.65 1.40 5.10 2.50 7.90 4.70 11.70 6.55 11.60 11.40 22.35 14.65 32.50 2.25 6.95 2.30 7.40 0.95 8.75 -0.55 0.55 -1 1.15 -1 1.35 0 0.15 1.15 3.15 2.60 6.60 1.40 3.45 3.05 7.65 3.70 9.30 l1.10 3 2.65 0 c3.65 0 3.90 0.65 3.95 9.25 0 7.40 0.25 9.35 2.25 18.25 0.70 3.30 1.40 6.70 1.50 7.50 0.10 0.85 1.10 5.90 2.20 11.25 1.10 5.35 2.70 13.80 3.55 18.75 0.90 4.95 1.65 9.10 1.75 9.25 0.10 0.15 0.75 3.65 1.50 7.75 1.25 6.80 1.35 8.70 1.45 20.75 0 7.30 -0.15 14.25 -0.40 15.40 -0.40 2.05 -0.35 2.25 0.95 3.30 1.70 1.35 1.75 3 0.25 11.70 -0.60 3.35 -1.15 7.05 -1.25 8.20 -0.05 1.20 -0.85 4.80 -1.70 8.10 -1.35 5.15 -1.55 6.75 -1.55 12.35 l0 6.45 1.70 0.70 c1.90 0.80 1.80 0.65 3.30 7.30 0.70 2.90 2.45 7.80 4.50 12.50 5.90 13.45 7.50 18.95 6.05 20.65 -0.55 0.70 -0.20 3.70 1.10 10.35 1.55 7.65 2.20 16.25 1.30 17.30 -0.40 0.50 -0.45 2.10 -0.05 6.05 0.30 3 0.60 9.10 0.60 13.65 0.05 9.20 0.65 16.60 1.75 21.50 2.95 13.40 3.75 17.35 3.75 18.95 0 2.20 -1.55 4.85 -3.10 5.30 -0.65 0.20 -1.65 0.80 -2.25 1.35 -0.85 0.80 -1.50 0.95 -2.75 0.70 -0.90 -0.20 -2.30 -0.45 -3.15 -0.60 -3.40 -0.60 -3.80 -0.80 -4.30 -2.10 -0.30 -0.75 -0.65 -3.85 -0.70 -6.90 -0.20 -6.95 -0.70 -8.60 -5.80 -20.05 -1.30 -2.90 -5.85 -9.50 -10.05 -14.60 -4.40 -5.35 -5.65 -7.80 -6.55 -13.25 -0.45 -2.45 -1 -4.65 -1.30 -4.95 -0.65 -0.65 -2.25 4.85 -3.55 12.40 -0.55 3.30 -1.40 7.55 -1.80 9.50 -0.65 2.95 -0.75 8.45 -0.65 36.35 0.10 30 0.15 33.40 1.05 38.30 0.55 2.95 1.40 6.85 1.95 8.65 1.30 4.45 1.20 5.75 -0.35 7.20 -1.25 1.15 -1.30 1.40 -1 4.60 0.20 1.90 0.60 4.15 0.90 5.05 0.25 0.95 0.55 2.40 0.65 3.25 0.05 0.90 0.35 2.70 0.65 4.10 0.75 3.50 0.50 28.25 -0.35 31.75 -0.80 3.65 -2.40 7.70 -4.20 10.75 -0.80 1.40 -1.75 3.20 -2.05 4 -1.70 4.45 -5.30 9.30 -7.85 10.55 -3.15 1.60 -10.65 3.40 -12.75 3.05 -1 -0.20 -3.30 0.10 -5.35 0.60 -2 0.55 -5.40 1.10 -7.60 1.30 -2.70 0.25 -4.40 0.70 -5.20 1.30 -1.10 0.85 -2.20 0.95 -12.80 0.95 -8.60 0 -12.15 -0.20 -13.80 -0.70 -5.35 -1.75 -10.10 -3.85 -12.45 -5.50 -1.80 -1.30 -3 -1.80 -4.40 -1.80 -1.85 0 -3.75 -0.95 -5 -2.50 -1.15 -1.40 -6.40 -12.25 -7.30 -15 -0.45 -1.50 -1.10 -4.55 -1.35 -6.75 -0.80 -6.45 -0.60 -6 -2.45 -5.85 -1.85 0.15 -4 -1.45 -4 -3 0 -0.80 -1.75 -5.95 -3 -8.75 -0.30 -0.65 -0.70 -1.70 -1 -2.40 -0.25 -0.70 -0.75 -1.80 -1.05 -2.40 -0.65 -1.40 -7.30 -9.85 -9.75 -12.40 -1 -1 -2.05 -2.70 -2.45 -3.75 -0.50 -1.50 -1.25 -2.30 -3.30 -3.60 -2.70 -1.60 -2.70 -1.60 -7.70 -1.30 -14.45 0.85 -25.80 3 -34.75 6.55 -3.15 1.30 -6.15 2.30 -6.70 2.25 -0.50 0 -1.45 -0.55 -2.10 -1.15 l-1.20 -1.15 -4.65 2.15 c-2.50 1.20 -5.40 2.35 -6.40 2.55 -2.70 0.50 -6.75 3.60 -6.15 4.60 0.15 0.25 0.70 0.20 1.20 -0.10 1.40 -0.75 2.75 -0.60 3.65 0.40 1.40 1.55 1 3.35 -1.15 5.85 -1.10 1.30 -2.40 3.05 -2.80 3.90 -1 1.85 -1.65 9.15 -1.70 18.20 0 7.40 -0.80 18.45 -1.50 21.15 -1.15 4.50 -2.20 7.35 -3.10 8.65 -1.60 2.20 -7 5.50 -14.70 8.90 -3.85 1.65 -7.30 3.35 -7.75 3.75 -1.95 1.75 -20.30 6.40 -30 7.65 -2.80 0.35 -5.55 1.10 -7.75 2.10 -5.35 2.45 -11.55 3.40 -16.70 2.60z m1.30 -11.20 c0.75 -0.85 1.30 -1 2.95 -0.75 6.50 1 5 1.30 18.50 -3.35 3.60 -1.20 9.65 -2.80 13.50 -3.55 12.20 -2.35 14.15 -2.85 15.35 -3.75 0.65 -0.50 2.60 -1.30 4.40 -1.75 1.80 -0.45 3.60 -1.20 4.05 -1.70 0.65 -0.65 2.15 -5.75 4.55 -15.55 0.05 -0.15 -0.30 -1.55 -0.75 -3.10 -1.10 -3.70 -1.70 -9.20 -1.80 -16.90 -0.10 -6.10 -0.10 -6.20 1.25 -7.60 1.15 -1.20 1.35 -1.85 1.55 -5.80 0.30 -6 1.15 -8.45 3.95 -11.20 1.25 -1.20 3.20 -3.50 4.25 -5.05 2.30 -3.35 3.50 -4.10 5.60 -3.70 1.15 0.25 2.15 -0.05 4.15 -1.20 1.50 -0.80 4.60 -2.30 7 -3.30 3.35 -1.40 4.70 -1.70 6.15 -1.45 1.50 0.25 2.55 -0.05 6.30 -2 7 -3.55 11.15 -4.65 19.85 -5.30 6.90 -0.50 18.55 -0.35 27.15 0.35 1.95 0.15 4.80 0.25 6.40 0.20 2 0 3.45 0.25 4.75 0.95 1 0.55 3.05 1.10 4.50 1.20 4.10 0.30 5.60 2.35 3.80 5.10 -0.70 1.05 -1.20 1.25 -3.30 1.25 -2.90 0 -3.20 1.15 -0.35 1.40 1.95 0.20 3.25 1.20 3.65 2.80 0.20 0.80 0.75 1.25 1.75 1.45 1.10 0.25 2.05 1.15 3.70 3.45 3 4.15 6.85 11.60 8.85 17.05 1.85 5 3.25 6.50 12.70 13.80 5.55 4.30 7.25 6.15 8.50 9.15 0.50 1.15 1.30 2 2.30 2.40 2.25 0.95 2.85 2.80 1.50 4.65 -0.60 0.80 -0.95 1.55 -0.85 1.70 0.15 0.10 3.40 1 7.20 1.95 5.55 1.40 8.55 1.85 15.40 2.25 13 0.80 20.05 0.10 24.25 -2.45 0.95 -0.60 2.20 -1.10 2.70 -1.10 1.15 0 2.80 1.40 2.80 2.35 0 2 5.20 -0.75 6.80 -3.65 0.65 -1.15 1.80 -5.20 2.65 -9.40 1.05 -5.30 1.95 -8.15 3 -10.05 0.80 -1.45 1.40 -2.70 1.35 -2.80 -0.25 -0.25 -0.75 -13.25 -1.05 -25.85 -0.15 -5.55 -0.50 -11.65 -0.80 -13.50 -0.30 -1.85 -0.55 -6.60 -0.55 -10.60 0 -4.55 -0.25 -8.15 -0.70 -9.75 -0.40 -1.35 -1.25 -5.65 -1.95 -9.50 -0.75 -3.85 -1.50 -7.95 -1.80 -9.15 -0.25 -1.15 -0.45 -3.65 -0.45 -5.50 -0.05 -1.85 -0.25 -4.90 -0.50 -6.85 -0.70 -5.30 -0.65 -39.65 0.05 -41.65 0.45 -1.35 0.45 -1.80 -0.20 -2.50 -1.15 -1.35 -1.45 -2.95 -0.90 -4.75 0.30 -0.85 0.85 -3.60 1.30 -6.10 0.45 -2.65 1.35 -5.75 2.25 -7.50 1.90 -3.90 2.65 -7.25 5.10 -22.75 0.55 -3.55 1 -4.40 2.80 -5.05 0.85 -0.30 1.65 -0.20 3 0.50 1 0.50 2.60 1.10 3.50 1.30 0.90 0.20 1.85 0.80 2.15 1.40 0.35 0.60 1.80 2.60 3.25 4.45 1.50 1.85 2.95 3.95 3.20 4.65 0.25 0.70 1.30 2.50 2.25 4.05 4 6.25 9.85 19.15 12.30 27.20 3.10 10.15 3.25 10.90 2.35 12.50 -0.80 1.40 -0.80 1.60 0 3 0.45 0.80 1 1.50 1.25 1.50 0.20 0 0.35 0.30 0.35 0.70 0 0.40 0.35 0.85 0.80 1 0.75 0.30 0.80 -0.05 0.50 -2.75 -0.20 -1.65 -0.60 -3.65 -0.90 -4.35 -0.30 -0.75 -0.90 -3.50 -1.40 -6.10 -0.50 -2.60 -1.85 -8.90 -2.95 -14 -1.90 -8.45 -3.70 -18.75 -4.35 -24.50 -0.15 -1.25 -0.35 -2.80 -0.50 -3.50 -0.10 -0.70 -0.50 -4.80 -0.80 -9.15 -0.55 -7.55 -0.55 -7.90 0.40 -8.60 0.50 -0.40 1.55 -0.90 2.35 -1.05 1.70 -0.40 1.80 -1.95 0.35 -5.15 -0.55 -1.20 -1 -2.70 -1 -3.35 0 -0.65 -0.20 -1.65 -0.45 -2.30 -0.25 -0.65 -0.70 -2.40 -1.05 -3.90 -0.70 -3 -3.70 -9.40 -6.05 -12.90 -1.30 -1.95 -1.45 -2.55 -1.45 -6.15 0 -2.70 -0.25 -4.50 -0.80 -5.55 -0.80 -1.55 -0.75 -2.75 0.65 -10.50 0.25 -1.20 0.10 -1.40 -1 -1.40 -0.70 0 -1.75 -0.40 -2.40 -0.90 -1.35 -1.10 -1.45 -2.70 -0.50 -8.10 0.35 -2.05 0.75 -8.30 0.90 -13.90 0.25 -8.55 0.15 -10.30 -0.50 -11 -0.55 -0.65 -0.85 -3.70 -1.35 -13.85 -0.95 -20.40 -1.80 -33.25 -2.50 -37.75 -0.35 -2.35 -0.30 -2.95 0.50 -4.10 1 -1.40 1.05 -0.80 0 -12.15 -1.40 -15.65 -1.55 -16.35 -4.55 -25.25 -0.75 -2.35 -1.65 -5.20 -1.95 -6.35 -0.30 -1.20 -0.70 -2.15 -0.90 -2.15 -0.20 0 -0.40 -0.50 -0.45 -1.05 -0.05 -0.60 -0.30 -1.30 -0.55 -1.55 -0.25 -0.25 -0.25 0.80 0 2.55 0.55 3.65 -0.35 5.55 -2.55 5.55 -3.05 0 -3.30 -0.65 -5.35 -13.70 -1.30 -8.30 -5.75 -27.10 -8.90 -37.35 -2 -6.60 -7.75 -18.85 -15.20 -32.50 -2.75 -5.05 -5.40 -10.10 -5.95 -11.20 -0.50 -1.10 -1.15 -2.25 -1.45 -2.60 -0.85 -0.90 -1.25 1.65 -0.65 4.15 0.80 3.15 0.40 5.20 -1.15 6.35 l-1.40 1.05 -1.35 -1 c-1.60 -1.20 -1.95 -2.45 -4.35 -16.55 -1.95 -11.25 -5.25 -19.75 -11 -28.30 -4.05 -6.05 -4.05 -6.10 -6.30 -6.40 -3.85 -0.50 -17.95 -8.95 -29.45 -17.65 -3.15 -2.35 -6.20 -4.30 -6.80 -4.30 -0.55 0 -4.50 1.50 -8.75 3.30 -12.55 5.35 -14.65 6.15 -22.15 8.20 -3.90 1.10 -10.15 3 -13.85 4.25 -3.70 1.25 -12.80 3.75 -20.25 5.55 -18.20 4.40 -37.35 9.15 -49.75 12.45 -5.65 1.50 -12.85 3.15 -16 3.70 -6.25 1.10 -22.95 3.30 -29 3.80 -5.40 0.45 -11 1.60 -17 3.60 -7.85 2.55 -13.60 3.60 -24.70 4.40 -8.95 0.70 -18.15 1.75 -34.80 3.95 -2.90 0.40 -7.25 0.85 -9.75 1.05 -2.45 0.15 -8.55 1.10 -13.50 2.05 -12.35 2.40 -17.75 3.10 -26.50 3.45 -4.10 0.20 -8 0.40 -8.55 0.55 -0.70 0.10 -1.80 1.40 -3.05 3.55 -3.40 5.80 -6.50 11.80 -7.15 13.90 -0.35 1.10 -1 2.55 -1.50 3.25 -1.50 2.25 -8.35 20.05 -11.20 29.25 -2.20 6.95 -2.95 10.20 -3.30 14.25 -0.30 2.90 -0.70 7.60 -1 10.50 -0.25 2.90 -0.60 6.95 -0.80 9 -0.50 5.40 -1.70 14.20 -2.70 19.75 -0.25 1.40 -0.45 4.10 -0.50 6 0 1.95 -0.30 4 -0.65 4.60 -0.45 0.80 -0.50 3 -0.30 8 0.50 10.55 1.25 15.60 2.70 17.65 0.65 0.95 1.45 3 1.80 4.50 0.30 1.50 0.90 3.40 1.35 4.25 0.40 0.80 1.40 3.95 2.20 7 1.75 6.70 5.90 18.75 7.55 22.10 0.70 1.30 2.15 3.65 3.30 5.15 1.35 1.80 1.95 3 1.70 3.50 -0.70 1.45 -0.35 4.75 0.80 7.20 0.65 1.40 1.45 3.30 1.80 4.25 1.30 3.75 6.25 14.50 8.20 17.90 2.30 3.95 2.50 5.20 1 6.70 -1.20 1.20 -1.10 2 1 6.60 2.65 5.90 7.55 18.45 7.55 19.40 0 0.35 1 1.70 2.25 2.95 1.75 1.75 2.35 2.80 2.70 4.75 0.60 3.20 1.35 4.85 10.75 23.75 7.85 15.70 9.80 20.05 9.80 21.55 0 0.45 -0.45 1.40 -1 2.10 -1.20 1.50 -1.25 2.50 -0.20 3.40 0.65 0.55 0.75 1.50 0.45 6.40 -0.40 7.15 -1.60 21.95 -2.20 27.30 -0.25 2.20 -0.40 10.75 -0.35 19 0.10 15.65 0.20 16.45 2.80 26.45 0.55 2.20 1.10 4.10 1.25 4.20 0.30 0.30 0.30 0.90 0.40 -13.65 0.10 -13.65 0.25 -14.15 4.10 -18.30 1.25 -1.35 2.25 -2.85 2.25 -3.35 0 -0.50 0.35 -2 0.80 -3.30 0.70 -2.10 0.75 -2.80 0.20 -5.05 -0.35 -1.45 -0.50 -3.20 -0.30 -3.90 0.30 -1.30 2.85 -2.70 3.80 -2.10 0.35 0.20 1.30 -0.05 2.20 -0.50 2.70 -1.45 4 -0.75 6.70 3.50 2.30 3.65 2.40 3.70 4.45 3.70 2.75 0.05 3.20 0.80 4.90 7.55 0.70 2.90 2.45 7.90 3.90 11.10 2.25 5.15 2.75 5.90 3.95 6.15 1.65 0.40 2.60 2.05 3.10 5.25 0.45 3.20 2.70 11.45 3.60 13.30 0.80 1.60 2.10 6.85 3.50 13.95 0.40 2.20 0.95 4.95 1.25 6.15 0.25 1.20 0.60 3.10 0.70 4.25 0.90 8.20 1.15 12.55 1.20 19.35 0 4.75 0.35 9.50 0.85 12.25 1.05 6.05 1.65 10 1.95 13 0.15 1.40 0.40 3.05 0.50 3.75 0.45 2.15 1.75 18.55 1.75 21.85 0 2.90 -0.10 3.20 -1.55 4.25 l-1.55 1.15 0.30 4 c0.15 2.25 0.95 6.15 1.80 8.90 1.25 3.90 1.95 5.35 3.75 7.35 2.35 2.65 2.60 3.40 1.70 5.05 -0.45 0.85 -0.15 1.45 1.85 3.75 1.25 1.55 2.80 3.10 3.40 3.45 1.60 1.05 12.20 3.80 18.35 4.70 0.15 0.05 0.70 -0.40 1.25 -1z m225.65 -18.65 c-0.15 -0.15 -2.35 -0.60 -4.95 -1 -2.60 -0.40 -6.65 -1.20 -9 -1.80 -5.40 -1.30 -9.35 -2 -11.25 -2 l-1.50 0.05 1.25 0.70 c0.70 0.40 1.75 0.70 2.40 0.75 0.65 0 1.85 0.40 2.75 0.85 3.85 2 6.95 2.60 13.80 2.60 3.70 0.05 6.60 -0.05 6.50 -0.15z m-28.85 -18.10 c-0.95 -1.70 -2.95 -3.65 -6.40 -6.30 -2.70 -2.15 -5.10 -3.90 -5.30 -3.90 -0.70 0 -0.40 2.20 0.55 4.30 1 2.20 5.20 5.80 9.75 8.25 3.10 1.75 3.45 1.15 1.40 -2.35z m-125.10 -7.40 c0 -0.60 -0.45 -2.05 -1 -3.20 -0.55 -1.10 -1 -2.40 -1 -2.85 0 -1.25 -1.95 -0.90 -2.30 0.45 -0.60 2.45 -0.05 4.50 1.45 5.20 0.80 0.40 1.55 1 1.70 1.40 0.35 1 1.15 0.35 1.15 -1z m-143.50 -115.80 c0 -0.45 0.15 -1.90 0.30 -3.20 0.30 -2.10 0.25 -2.30 -0.75 -2.30 -0.65 0 -1.05 0.35 -1.10 0.90 0 0.45 -0.20 2 -0.40 3.40 -0.35 2.45 -0.30 2.50 0.80 2.30 0.70 -0.15 1.15 -0.60 1.15 -1.10z m363.45 -42.25 c0.55 -1.55 0.50 -2 -0.15 -3 -0.45 -0.65 -0.80 -1.55 -0.80 -1.90 0 -0.75 -1.85 -2.65 -2.25 -2.30 -0.20 0.20 0.15 1.90 1.50 7.85 0.40 1.60 0.95 1.35 1.70 -0.65z m-457.40 -230.85 c0.05 -1.75 0.10 -3.50 0.15 -3.90 0.10 -0.40 0.15 -1.35 0.20 -2.15 0.05 -0.75 0.65 -1.85 1.35 -2.45 1.80 -1.55 2.10 -3.45 2.50 -13.90 0.20 -5.10 0.40 -9.35 0.50 -9.50 0.10 -0.15 0.35 -2.20 0.50 -4.50 0.20 -2.35 0.55 -5.15 0.80 -6.25 0.85 -4.05 0.65 -5.05 -1.65 -6.80 -3.05 -2.30 -5.90 -5.05 -5.90 -5.70 0 -0.25 -0.20 -0.80 -0.45 -1.20 -0.40 -0.60 -0.70 -0.60 -2 -0.05 -2.20 0.90 -3.65 -0.20 -5.35 -4 -1.10 -2.50 -2.45 -4 -8.10 -9.35 -12.50 -11.80 -18.75 -21.45 -15.85 -24.65 0.85 -0.95 0.75 -1.20 -2.10 -6.85 -2.95 -5.90 -4.60 -10.40 -5.65 -15.65 -0.70 -3.30 -0.40 -18.20 0.40 -21.50 0.35 -1.25 0.80 -3.75 1.10 -5.55 0.70 -4.85 2.75 -10.95 5.75 -17.30 4.40 -9.25 7.15 -13.40 12.70 -18.90 4.35 -4.30 5.85 -6.25 4.80 -6.25 -1.05 0 -4.15 2.15 -4.60 3.15 -0.30 0.65 -2.75 2.75 -5.40 4.60 -10.85 7.55 -14.90 11.20 -22.50 20.25 -3.95 4.75 -7.95 9.20 -12.50 14.05 -7.15 7.60 -16.30 25.10 -17.30 33.10 -0.65 5 0.20 18.25 1.50 23.10 1.20 4.75 3.80 10.20 7.50 15.75 1.65 2.55 3.05 5.15 3.05 5.85 0 1.30 2.50 5.05 17.30 26.15 16.10 22.95 14.40 21.05 26.95 30.50 3.30 2.45 7.40 5.60 9.10 6.95 1.95 1.50 3.85 2.55 5 2.75 1.05 0.15 2.90 0.95 4.15 1.75 3.50 2.30 4 2.15 4.05 -1.55z m24.30 -83.50 c1 -1.15 7.65 -11.60 7.65 -12.05 0 -0.25 -4.05 -1.35 -4.95 -1.35 -0.80 0 -2.30 3.25 -4 8.75 -0.85 2.70 -1.55 5.15 -1.55 5.35 0 0.85 1.85 0.35 2.85 -0.70z m12.65 -18.75 c-0.05 -1.35 -2.30 -2.80 -5.95 -3.90 -1.15 -0.35 -1.15 -0.30 -0.85 1.45 0.25 1.30 0.15 1.80 -0.30 1.85 -0.35 0.05 -0.10 0.25 0.60 0.45 1.60 0.50 6.50 0.60 6.50 0.15z m-65.05 -3.85 c-0.90 -3.30 -1.25 -14.90 -0.90 -28.15 0.25 -7.60 0.30 -14 0.15 -14.25 -0.70 -1.15 -1.45 0.10 -1.45 2.50 0 2.10 -0.25 2.80 -1.40 4 -1.25 1.30 -1.35 1.70 -1.25 4.70 0.10 2.60 -0.05 3.50 -0.75 4.30 -1.30 1.45 -1.25 8.10 0.15 13.85 1 4.30 3.55 12.15 4.65 14.60 0.75 1.65 1.35 0.45 0.80 -1.55z m124.10 -0.30 c2.85 -0.60 5.40 -1.25 5.70 -1.45 0.25 -0.25 1.40 -0.60 2.50 -0.80 1.10 -0.25 2.30 -0.45 2.65 -0.55 1.60 -0.30 2.20 -0.75 1.90 -1.45 -0.20 -0.50 0.35 -0.90 1.85 -1.30 1.15 -0.30 4.25 -1.15 6.85 -1.95 2.60 -0.75 7 -1.85 9.75 -2.50 2.75 -0.60 7.95 -1.85 11.50 -2.75 8.80 -2.30 22.85 -5.05 29.25 -5.70 24.40 -2.60 26.35 -2.95 37 -6.55 9.25 -3.15 15.35 -4.75 20.25 -5.25 4.15 -0.45 9.25 -1.80 21.50 -5.50 12.80 -3.90 13.95 -4.20 26.50 -6.75 8.95 -1.80 29.15 -6.35 40.10 -9 2.25 -0.55 6 -1.70 8.40 -2.55 l4.30 -1.55 -4.70 -4.45 c-2.60 -2.45 -4.85 -5 -5.05 -5.65 -0.35 -1.35 -0.45 -1.40 -7.45 -2.35 -4.90 -0.70 -6.35 -1.75 -6.35 -4.55 0 -0.95 -0.40 -1.85 -1.10 -2.40 -1.10 -0.85 -1.15 -0.85 -3.15 0.85 -3.50 3.05 -17.10 10.10 -28.25 14.65 -5.90 2.40 -12.10 5 -13.75 5.75 -3.55 1.65 -7.55 2.50 -6.70 1.40 0.80 -0.95 -0.05 -0.80 -2.45 0.35 -2.40 1.15 -2.75 1.75 -0.75 1.25 l1.40 -0.35 -1.45 1.15 c-1.80 1.40 -10.40 5 -16.70 6.90 -7.40 2.25 -11.75 3.30 -25.60 6 -25.50 5 -23.40 4.70 -33.75 4.65 -5.20 0 -10.50 -0.20 -11.75 -0.45 -1.30 -0.25 -3.40 -0.25 -5 0 -3.95 0.65 -20.60 0.05 -24.50 -0.85 -1.80 -0.40 -5.20 -1.40 -7.60 -2.20 -3.45 -1.15 -4.40 -1.30 -4.60 -0.80 -0.20 0.45 -1.10 0.70 -2.75 0.70 -3.45 0 -4.45 -0.95 -5.10 -4.95 -0.25 -1.75 -0.30 -3.35 -0.10 -3.50 0.20 -0.15 0.70 -0.85 1.05 -1.50 0.60 -1 0.55 -1.30 -0.10 -2 -0.70 -0.65 -0.90 -0.70 -1.25 -0.15 -0.25 0.40 -0.85 0.60 -1.35 0.50 -0.80 -0.15 -1 -0.70 -1.10 -3.10 -0.20 -3.65 0.65 -4.80 3.50 -4.80 l1.90 0 0 -3.20 c0 -1.80 0.25 -3.30 0.55 -3.40 0.30 -0.10 0.35 -0.55 0.15 -1.10 -0.35 -0.90 -0.40 -0.90 -1 -0.05 -0.35 0.45 -0.85 0.70 -1.15 0.50 -0.85 -0.50 -0.65 -4.35 0.25 -5.75 0.45 -0.70 0.10 -0.50 -0.80 0.50 -6.05 6.70 -5.80 6.50 -8.75 6.50 -3.25 0 -4.25 -1.05 -4.25 -4.35 0 -1.95 0.30 -2.50 3.40 -5.80 4.35 -4.70 6.10 -8 6.50 -12 0.15 -1.90 0.55 -3.30 1 -3.65 0.45 -0.35 0.60 -0.80 0.35 -1.20 -0.20 -0.35 -0.40 -1.25 -0.45 -1.95 -0.05 -1.10 -0.45 -1.45 -2.55 -2.15 -2.65 -0.85 -4.10 -0.60 -7.25 1.45 -1.10 0.75 -1.10 0.85 -0.30 1.15 0.75 0.25 0.75 0.40 0.20 0.85 -1.05 0.85 -4.50 2.50 -8.75 4.20 -16.10 6.40 -37.80 18 -51.60 27.60 -1.45 1 -2.30 1.35 -2.45 0.95 -0.35 -1.15 -1.60 -0.60 -4 1.80 -2.75 2.65 -3.55 4.10 -2.15 3.75 1.05 -0.25 1.55 1.50 1.55 5.50 0 3.30 -0.95 4.35 -3.85 4.35 -1.40 0 -2.15 0.20 -2.15 0.65 0 0.30 -1.05 4.60 -2.35 9.55 -2.35 8.90 -2.35 8.90 -1.45 10.50 0.50 0.85 1.40 2.45 1.95 3.55 0.60 1.10 1.35 2.30 1.70 2.65 0.35 0.35 0.65 0.85 0.65 1.05 0 0.20 0.50 1 1.15 1.75 0.90 1.05 2.20 1.55 6.15 2.50 2.75 0.70 6.15 1.70 7.55 2.25 3.05 1.20 3.65 0.90 6.35 -3.15 2.65 -4.05 13.60 -17.60 14.90 -18.50 1.40 -1 6.30 -1.05 7.55 -0.10 0.45 0.35 0.85 1.15 0.85 1.75 0 0.65 0.60 1.40 1.65 2.05 0.85 0.50 1.85 1.10 2.10 1.35 0.30 0.20 1.10 0.80 1.90 1.30 1.25 0.80 1.35 1.15 1.35 3.95 l0 3.10 -5.05 4.95 c-4.45 4.35 -6.45 7.10 -6.45 8.85 0 0.30 1.45 0.50 3.65 0.50 5.25 0 8.85 0.55 8.85 1.25 0 1.05 12.75 0.55 19.05 -0.75z m54.05 -7.10 c1.60 -0.35 2.90 -0.80 2.90 -1.05 0 -0.65 -5.15 0.05 -5.55 0.75 -0.15 0.25 -0.45 0.45 -0.65 0.40 -0.20 -0.05 -0.60 0.05 -0.95 0.15 -1.20 0.50 1.40 0.35 4.25 -0.25z m55.40 -7.70 c4.65 -0.75 15.70 -3.30 27.75 -6.40 11 -2.85 20.75 -5.35 21.65 -5.55 0.90 -0.20 1.55 -0.45 1.45 -0.55 -0.10 -0.15 -4.15 0.45 -8.90 1.30 -4.75 0.80 -10.60 1.75 -12.95 2 -4.85 0.60 -13.50 2.65 -23.40 5.45 -3.75 1.10 -8.75 2.40 -11.05 2.85 -2.30 0.50 -4.50 1.20 -4.85 1.60 -0.50 0.50 -0.70 0.50 -0.70 0.05 0 -0.35 -0.15 -0.50 -0.30 -0.30 -0.15 0.15 -0.20 0.50 0 0.75 0.30 0.50 0.95 0.45 11.30 -1.20z m-275 -23.45 c2.15 -3.75 8.30 -11.20 15.55 -18.85 l6.50 -6.85 -0.85 -1.30 c-0.45 -0.70 -0.95 -1.25 -1.15 -1.25 -0.55 0 -14.05 13.75 -14.05 14.30 0 0.35 -1 2 -2.15 3.75 -2.80 4.10 -6.10 10.10 -7.10 12.95 l-0.80 2.20 1.30 -1.20 c0.75 -0.70 1.95 -2.35 2.75 -3.75z m439.50 2.10 c0 -0.40 -3.50 -4.70 -7.80 -9.65 -7.60 -8.75 -9 -10.20 -9.75 -10.20 -0.60 0 -5.45 4 -5.45 4.45 0 0.55 9.35 7.55 14.25 10.65 5.20 3.35 8.50 5.40 8.65 5.40 0.05 0 0.10 -0.30 0.10 -0.65z m7.50 -7.75 c0 -1.05 -1.95 -3 -4.50 -4.55 -3.25 -1.95 -3.25 -1.05 0 2.20 3.30 3.30 4.50 3.95 4.50 2.35z m-158.90 -3.55 c7 -1.75 16.70 -4.95 16.30 -5.30 -0.40 -0.40 -12.25 2.30 -18.55 4.20 -3.75 1.10 -7 2.05 -7.10 2.05 -0.15 0 -0.25 0.25 -0.25 0.50 0 0.85 1.55 0.60 9.60 -1.45z m-45.85 -0.85 c5.70 -1 43.85 -8.95 47.65 -9.90 1.55 -0.45 4.55 -1.10 6.60 -1.55 8.15 -1.70 11.60 -3.10 17.35 -6.95 3.05 -2 8.40 -5.15 11.95 -6.90 3.55 -1.80 7.80 -4 9.45 -4.90 3.70 -2 12.75 -8.15 13.95 -9.45 0.85 -0.90 0.80 -1.05 -0.50 -3.15 -0.80 -1.15 -1.45 -2.20 -1.50 -2.30 -0.25 -0.45 -11.65 3.80 -16.70 6.15 -4.05 1.90 -8.25 3.35 -14.25 4.95 -4.65 1.20 -10.20 2.95 -12.25 3.85 -11.30 4.85 -19.75 7.10 -48.25 12.95 -35.05 7.20 -41.60 8 -54.95 7.05 -4.70 -0.30 -9.15 -0.70 -9.90 -0.85 l-1.40 -0.30 0 3.65 c0.05 5.60 0.45 5.95 7.80 6.85 5.35 0.60 20.25 1.25 34.95 1.50 3.20 0.05 7.40 -0.25 10 -0.70z m90.50 -17.30 c5 -1.25 5.45 -1.45 8.60 -4.70 1.45 -1.45 4.40 -4 6.50 -5.60 4.70 -3.55 6.20 -5.10 5 -5.10 -0.40 0 -1.40 0.55 -2.20 1.15 -0.75 0.65 -3.40 2.50 -5.90 4.10 -2.45 1.60 -4.75 3.15 -5.10 3.45 -1.30 1.15 -2.05 1.60 -5.20 3.15 -1.80 0.90 -4 1.80 -4.85 1.95 -1.05 0.20 -1.60 0.60 -1.60 1.20 0 0.45 -0.50 1.10 -1.10 1.40 -1.05 0.55 -1 0.55 0.35 0.30 0.85 -0.20 3.30 -0.75 5.50 -1.30z m-108.60 -4.40 c3.40 -0.60 3.95 -0.60 4.65 0.10 0.60 0.55 1.30 0.65 3.10 0.35 1.30 -0.20 3.40 -0.40 4.75 -0.40 1.30 -0.05 2.35 -0.30 2.35 -0.55 0 -0.35 0.65 -0.40 1.80 -0.20 1.95 0.35 4.45 -0.05 15.45 -2.65 4.20 -1 7.75 -2.10 8.10 -2.50 0.35 -0.45 0.95 -0.65 1.40 -0.50 0.40 0.20 0.75 0.05 0.75 -0.20 0 -0.35 0.55 -0.45 1.25 -0.30 2.15 0.40 10.75 -1.80 10.75 -2.70 0 -0.20 -0.25 -0.55 -0.55 -0.75 -0.30 -0.15 1.55 -1 4.10 -1.80 3.65 -1.20 4.85 -1.40 5.55 -0.95 1.20 0.75 1.80 0.70 5.45 -0.45 1.75 -0.60 3.55 -1.10 3.95 -1.20 0.40 -0.10 1.10 -0.30 1.50 -0.45 0.40 -0.15 1.90 -0.65 3.35 -1.05 1.40 -0.40 3.15 -1.10 3.85 -1.55 0.70 -0.50 1.30 -0.70 1.30 -0.50 0 0.20 0.30 0.15 0.65 -0.10 0.30 -0.30 1.50 -0.80 2.60 -1.15 1.10 -0.35 2.25 -0.75 2.50 -0.95 0.30 -0.15 0.75 -0.30 1 -0.40 0.30 -0.05 2.55 -0.65 5 -1.35 2.50 -0.75 5.85 -1.70 7.50 -2.15 3.55 -0.95 4.90 -1.95 3.75 -2.65 -0.40 -0.25 -0.60 -0.55 -0.50 -0.65 0.30 -0.25 6.30 -3.75 8.45 -4.95 1.55 -0.85 1.55 -0.90 0.85 -2.35 -1.15 -2.20 -3.30 -4.30 -5.55 -5.45 -4.30 -2.15 -5.95 -5.35 -5.65 -11.05 0.15 -3.60 0.05 -3.90 -1.25 -5.15 -1.15 -1.15 -1.35 -1.75 -1.35 -4.05 0 -1.80 0.25 -2.95 0.75 -3.35 1 -0.85 0.95 -1.30 -0.50 -5.95 -1.70 -5.30 -3 -11.70 -4.25 -20.80 -0.80 -5.90 -1.35 -8.20 -2.55 -10.65 -1.95 -4.10 -2.50 -7.60 -2.15 -13.80 0.25 -3.95 0.05 -7 -1 -14.05 -0.70 -5 -1.50 -11.60 -1.80 -14.75 -0.95 -10.05 -0.60 -60.70 0.50 -73.10 0.55 -6.20 0.60 -14.55 0.10 -16.25 -0.35 -1.05 -0.55 -0.95 -4.20 1.85 -2.15 1.60 -5.50 3.80 -7.50 4.90 -5.25 2.90 -18.55 8.35 -22.65 9.25 -2.40 0.55 -5.45 1.90 -9.75 4.30 -6.65 3.75 -29.65 13.15 -43 17.60 -10.20 3.40 -26.05 7.60 -37.50 10 -5.35 1.10 -14 3.10 -19.25 4.45 -12.70 3.30 -24.05 5.50 -28.30 5.50 -3.40 0 -3.50 0.05 -3.15 1.15 0.40 1.25 2.35 5.60 5.55 12.25 2.15 4.50 2.20 4.70 1.30 5.40 -0.85 0.70 -0.80 0.75 0.50 0.55 1.15 -0.20 1.35 -0.05 1.35 0.90 0 0.60 0.35 1.40 0.75 1.75 0.40 0.35 0.75 0.95 0.75 1.35 0 0.40 1.50 3.70 3.30 7.30 5.15 10.25 5.80 11.55 6.50 12.40 0.40 0.40 0.70 1 0.70 1.30 0 0.30 0.90 1.75 2 3.20 1.85 2.45 2 2.95 2 5.75 0 2.45 0.40 4.05 1.70 7.20 0.95 2.25 2.15 4.70 2.65 5.40 0.45 0.75 1.25 2.15 1.75 3.10 0.50 0.95 1.55 2.45 2.30 3.30 3.85 4.20 4.45 6.15 2.85 9.15 -0.70 1.35 -0.60 1.75 1.60 7.10 1.25 3.15 2.55 6.40 2.90 7.20 1.30 3.05 9.25 27.25 9.25 28.20 0 0.50 -0.35 1.75 -0.75 2.75 -0.70 1.70 -0.90 1.80 -3 1.80 l-2.20 0 0.25 1.90 c0.15 1 0.45 2.85 0.75 4.10 0.25 1.25 0.65 4.85 0.90 8 0.30 3.15 0.85 6.55 1.25 7.55 0.40 1 0.75 3.30 0.75 5.50 -0.05 2.05 0.20 4.70 0.50 5.95 0.30 1.25 0.55 3.35 0.55 4.70 0 2.95 1 8.80 1.60 9.65 0.65 0.85 29.75 0.55 35.05 -0.35z m200.05 -2.35 c1.10 -1 2.20 -2.25 2.40 -2.75 0.20 -0.50 0.55 -0.90 0.80 -0.90 0.25 0 1.30 -0.95 2.25 -2.15 1.70 -2.10 1.80 -2.45 2.65 -9.15 l0.85 -6.95 -2.30 -8.50 c-3.10 -11.45 -4.05 -14.30 -6.50 -19.10 -2 -4 -2.75 -4.80 -7.25 -7.35 -0.35 -0.20 -3.75 -0.60 -7.50 -0.85 -3.75 -0.25 -8.15 -0.70 -9.70 -1 -2.15 -0.45 -3.85 -0.45 -6.65 0 -2.10 0.30 -6 0.55 -8.65 0.55 -4.05 0 -5.05 0.20 -6.10 1 -2 1.55 -5.80 1.35 -8.55 -0.45 l-2.20 -1.50 -13 2.45 c-7.15 1.35 -13.25 2.45 -13.60 2.50 -0.40 0 -0.05 1.40 1 3.90 1.45 3.40 1.85 3.95 3.60 4.80 2.45 1.15 2.75 1.55 2.75 3.95 0 1.95 0.60 3.45 1.80 4.85 0.35 0.40 1.95 2.20 3.45 4 1.55 1.80 3.35 3.50 3.95 3.75 2.20 0.95 2.80 1.80 2.80 4 0 1.45 -0.25 2.25 -0.75 2.45 -1.50 0.55 -0.70 1.30 1.50 1.30 2.85 0 4.25 1.25 4.25 3.80 0 1.90 1.45 3.65 3.10 3.70 0.45 0 1.25 0.50 1.75 1.15 0.75 0.95 1.25 1.15 2.80 0.95 1.70 -0.20 5.50 0.60 9.35 1.90 7 2.35 8.50 2.65 9.45 1.80 0.60 -0.55 1.80 -0.80 3.75 -0.80 3.10 0 5.80 1.15 10.80 4.50 1.50 1 3.55 2.25 4.50 2.75 1.70 0.90 9.05 3.15 10.45 3.20 0.35 0.05 1.60 -0.80 2.75 -1.80z m-366.05 -16.25 c1 -0.50 1.15 -1.90 0.25 -1.90 -0.35 0.05 -1.45 0.70 -2.40 1.55 l-1.75 1.50 1.50 -0.35 c0.85 -0.20 1.90 -0.55 2.40 -0.80z m382.10 -14.25 c-0.70 -4.20 -1.90 -8.50 -2.80 -10.05 -0.55 -0.95 -0.85 -1.90 -0.70 -2.15 0.20 -0.25 0.05 -0.45 -0.25 -0.45 -0.30 0 -0.45 -0.20 -0.30 -0.40 0.10 -0.20 -0.15 -0.40 -0.65 -0.40 -0.60 0 -0.85 0.30 -0.65 0.90 0.10 0.50 0.40 0.90 0.65 0.90 0.25 0 0.30 0.30 0.15 0.65 -0.10 0.35 0.20 1.90 0.75 3.45 0.55 1.60 1.15 3.90 1.30 5.15 0.20 1.25 0.55 2.40 0.80 2.55 0.25 0.15 0.30 0.50 0.15 0.80 -0.25 0.35 -0.05 0.45 0.45 0.25 0.50 -0.15 0.85 -0.10 0.85 0.15 0 0.30 0.10 0.50 0.25 0.50 0.15 0 0.15 -0.85 0 -1.85z m64.75 -43.75 c0 -0.35 -0.55 -1.25 -1.20 -2.05 -1.10 -1.25 -1.20 -1.30 -1.45 -0.40 -0.35 1.35 0.50 2.40 2.55 3 0.05 0.05 0.10 -0.25 0.10 -0.55z m-35.25 -30.40 c-2.60 -2.85 -14.25 -9.35 -20.25 -11.25 l-1.15 -0.35 1.20 1.65 c2.50 3.60 6.55 7.35 9.05 8.45 2.60 1.10 8 2.35 10.60 2.45 1.40 0.05 1.45 0 0.55 -0.95z m-342.20 -83.45 c0.65 -0.50 2.60 -1.60 4.35 -2.50 1.70 -0.85 3.10 -1.90 3.10 -2.30 0 -0.40 0.05 -0.75 0.15 -0.75 1.45 0 19.05 -4.10 20.20 -4.65 0.90 -0.50 2.65 -0.85 3.95 -0.85 2.40 0 17.05 -2.90 22.20 -4.35 1.50 -0.45 5.70 -1.90 9.25 -3.25 12.75 -4.80 43.25 -12.95 52.25 -13.90 5.90 -0.65 18.50 -2.85 25.25 -4.45 7.95 -1.90 22.85 -7.05 27.90 -9.70 5.15 -2.65 11.25 -7.65 10.45 -8.45 -0.25 -0.25 -3 -0.90 -6.10 -1.45 -3.15 -0.50 -7.05 -1.35 -8.70 -1.90 -1.70 -0.55 -3.70 -1.10 -4.50 -1.30 -1.15 -0.25 -1.35 -0.40 -0.75 -0.80 0.50 -0.30 0.20 -0.45 -1.05 -0.45 -1.25 0 -1.55 0.15 -1 0.50 1.25 0.80 0.25 1.05 -6.05 1.50 -3.40 0.20 -7.90 0.75 -9.95 1.20 -6.05 1.35 -15.40 2.75 -20.50 3.05 -8.60 0.60 -23.90 4.85 -35.75 10 -3 1.30 -6.60 2.80 -8 3.30 -1.35 0.50 -4.65 1.80 -7.25 2.85 -2.60 1.10 -9.35 3.90 -15 6.25 -17.40 7.20 -33.15 14.80 -39.75 19.15 -1.35 0.90 -3.35 2 -4.45 2.45 -1.75 0.75 -1.90 0.75 -1.65 0.05 0.20 -0.45 0.20 -0.80 0.10 -0.80 -0.70 0 -10.75 6.65 -12.95 8.55 -0.30 0.25 -0.15 0.80 0.30 1.30 0.40 0.50 0.90 1.30 1.05 1.80 0.40 1.10 1.40 1.10 2.90 -0.10z m72.20 -6.55 c1.95 -0.55 2.70 -0.90 1.70 -0.75 -1.95 0.30 -6.50 1.65 -5.70 1.70 0.30 0 2.10 -0.40 4 -0.95z m-7.95 -37.70 c6.40 -2.60 12.40 -5.25 11.80 -5.30 -1.80 -0.05 -17.10 5.50 -17.10 6.20 0 0.65 2.50 0.20 5.30 -0.90z m130.90 -5.50 c0.45 -2.45 0.70 -4.55 0.55 -4.70 -0.15 -0.15 -0.95 0.40 -1.80 1.20 -1.50 1.40 -1.55 1.55 -1.30 4.70 0.15 1.80 0.45 3.70 0.65 4.20 0.35 0.95 0.40 0.95 0.75 0 0.20 -0.50 0.75 -2.95 1.15 -5.40z"/>
  <path d="M380.05 721.65 c-1.10 -0.75 -1.15 -1 -0.90 -4.45 0.20 -1.95 0.80 -4.90 1.40 -6.45 1.05 -2.75 1.05 -2.90 0.15 -4.50 -0.90 -1.65 -0.90 -1.70 0.40 -4.35 1.75 -3.50 5.40 -16.50 5.40 -19.15 0 -0.65 -1.35 -0.75 -8.35 -0.75 -8.55 0 -13.05 -0.65 -16.15 -2.25 -3.40 -1.75 -1.80 -7.25 2.35 -8.05 0.95 -0.20 2.20 -0.75 2.75 -1.30 1.40 -1.40 7.20 -0.85 8.65 0.85 3.20 3.70 10.80 3.95 21.80 0.70 4.10 -1.20 4.20 -1.20 5.45 0.15 0.95 1.05 1.20 1.05 4.30 0.55 2.40 -0.45 3.55 -0.90 4.45 -1.85 0.75 -0.80 1.75 -1.30 2.60 -1.30 2.30 0 9.90 -1.45 18.65 -3.55 9.85 -2.35 13.75 -3.60 17.70 -5.55 1.75 -0.90 3.95 -1.55 5.50 -1.65 3.75 -0.25 10.25 -3.15 11.30 -5 0.55 -1 1.60 -1.75 3.25 -2.35 1.45 -0.50 3.40 -1.80 4.80 -3.20 1.90 -1.90 2.75 -2.35 4.35 -2.45 1.40 -0.05 2.75 -0.70 4.75 -2.15 1.50 -1.15 2.95 -2.30 3.10 -2.60 0.20 -0.30 1.20 -1.10 2.30 -1.80 2.15 -1.35 4.80 -4.70 5.30 -6.65 0.15 -0.70 0.65 -1.55 1.10 -1.90 1.15 -0.85 3.30 -0.80 4.10 0.15 0.35 0.45 1.45 1.15 2.40 1.60 0.95 0.45 2.10 1.45 2.55 2.25 0.70 1.25 0.65 1.50 -0.65 4 -1.65 3.15 -10.20 11.15 -16.15 15.10 l-3.80 2.50 0.30 2.35 c0.20 1.45 0.10 2.70 -0.25 3.30 -0.60 1 -0.50 1.30 3.80 8.55 3.15 5.35 7.30 14.40 7.35 16.05 0.05 0.85 -0.40 2.15 -0.95 2.90 -1.45 1.95 -3.85 1.75 -7.65 -0.60 -2.35 -1.45 -3.30 -1.80 -4.60 -1.55 -2.05 0.30 -2.40 0.05 -6.30 -5.10 -1.75 -2.30 -3.30 -4.15 -3.50 -4.15 -0.20 0 -1.20 -1.05 -2.15 -2.35 -2.45 -3.25 -8.45 -9.65 -9.05 -9.65 -0.25 0 -3.30 1.20 -6.80 2.70 -14 5.95 -30.25 10.25 -47.85 12.65 l-2.95 0.40 -0.70 3 c-2.45 10.20 -4.75 18.65 -5.40 19.60 -0.40 0.60 -1.45 1.30 -2.30 1.55 -1.30 0.30 -2.45 1.55 -5.80 6.15 -2.30 3.10 -4.60 6.60 -5.10 7.75 -1.25 2.80 -2.80 3.40 -4.95 1.85z m13.30 -24.05 c0.30 -0.20 0.80 -0.95 1.10 -1.70 0.40 -1.10 3.05 -12.90 3.05 -13.65 0 -0.15 -0.90 -0.25 -2 -0.25 -1.85 0 -2 0.10 -2.45 1.90 -1 4 -1 4.45 -0.30 5.40 0.95 1.25 0.95 3.80 0 6.05 -1.10 2.60 -0.90 3.20 0.60 2.25z m87.60 -27.95 c-2.55 -4.65 -4.70 -8.50 -4.80 -8.60 -0.20 -0.30 -6.65 2.30 -6.65 2.70 0 0.20 1.50 1.90 3.70 4.25 0.65 0.70 1.55 1.85 2.05 2.65 0.60 0.90 1.60 1.55 2.95 1.90 1.65 0.40 2.55 1.10 4.55 3.60 1.35 1.65 2.50 2.80 2.65 2.45 0.10 -0.30 -1.90 -4.35 -4.45 -8.95z"/>
  <path d="M395 601.45 c-4.95 -0.40 -14.40 -0.65 -20 -0.55 -1.80 0.05 -7.75 -0.15 -13.25 -0.40 -11.65 -0.50 -15.50 -1.30 -22.40 -4.75 -8.85 -4.30 -14.30 -9.55 -19.20 -18.25 -1.30 -2.35 -3.40 -5.60 -4.65 -7.25 -1.25 -1.65 -2.70 -4.15 -3.20 -5.50 -1.05 -2.65 -1.15 -2.95 -7.50 -14.25 -4.35 -7.70 -4.60 -8.15 -6.50 -12.65 -1.65 -3.80 -3.65 -12.15 -4.05 -17.10 -0.20 -2.25 -0.85 -5.30 -1.55 -7 -2.35 -6 -2.85 -8.70 -3 -16.75 -0.20 -8.50 0.35 -17.10 1.85 -27.65 0.50 -3.80 0.95 -7.85 0.95 -9 0 -1.20 0.55 -3.15 1.25 -4.60 1.60 -3.25 1.55 -3.60 -0.25 -4 -1 -0.20 -1.80 -0.85 -2.30 -1.85 -1.10 -2.10 -0.50 -3.90 3.85 -12.30 l3.50 -6.70 -0.80 -1.75 c-0.45 -0.95 -0.70 -2.20 -0.55 -2.80 0.80 -3.05 14.50 -18.60 27.60 -31.40 6.10 -5.95 6.80 -6.40 12.75 -9.40 l6.25 -3.15 1.65 0.85 c1.60 0.80 1.90 0.80 6.50 -0.25 6.40 -1.45 6.60 -1.50 6.30 -2.05 -0.20 -0.25 0.25 -1 0.95 -1.65 1.20 -1.05 1.65 -1.15 4.80 -0.90 2.40 0.15 3.50 0.05 3.50 -0.35 0 -0.30 0.35 -0.55 0.75 -0.55 0.40 0 0.75 0.25 0.75 0.55 0 0.30 0.45 0.40 1.10 0.15 0.60 -0.15 4.90 -0.40 9.60 -0.50 4.70 -0.10 13.95 -0.35 20.55 -0.50 9.50 -0.25 12.90 -0.15 16.35 0.45 5.15 0.90 9.50 2.75 11.90 5.10 1.45 1.40 2.65 1.95 6.55 2.95 6.15 1.55 10.95 3.95 20.80 10.45 4.35 2.85 9.50 6.20 11.40 7.45 1.95 1.20 5.25 3.90 7.30 5.95 2.10 2.05 5.45 5.05 7.50 6.70 2.05 1.65 5.10 4.30 6.85 5.85 3.15 2.90 4.10 3.20 4.10 1.40 0 -0.55 0.55 -1.35 1.25 -1.80 2.70 -1.75 4.65 0.10 8.75 8.30 1.15 2.35 4 7.45 6.30 11.35 4.60 7.65 6.15 11.65 7.75 19.40 0.55 2.75 1.55 6.80 2.20 8.95 0.65 2.15 1.55 6.45 2 9.50 0.45 3.05 1.15 7.25 1.50 9.30 0.65 3.45 0.65 13.55 0.05 17 -0.15 0.70 -0.60 3.30 -1 5.75 -0.45 2.50 -1 5.50 -1.25 6.75 -2.60 12.50 -2.65 12.90 -2.20 14.80 1.10 4.80 -1.55 13.55 -6.85 22.45 -1.30 2.20 -3.35 6.25 -4.50 9 -3.90 9.10 -6.25 11.35 -15.80 15 -3.30 1.25 -6.85 2.85 -7.95 3.45 -3.60 2.10 -9.90 4.60 -15 6 -2.75 0.75 -6.10 1.80 -7.45 2.35 -4.15 1.65 -23.60 5.95 -26.90 5.95 -0.20 0 -0.70 0.60 -1 1.30 -0.85 1.85 -2.80 2.65 -8 3.20 -5.40 0.55 -22.95 0.55 -29.90 -0.05z m20.15 -7.90 c1.05 -0.40 1.35 -0.85 1.35 -2.10 0 -2.70 2.05 -3.60 4.95 -2.15 3.45 1.70 8.40 0.35 24.05 -6.70 4.25 -1.95 11 -4.65 15 -6.05 7.25 -2.55 7.25 -2.55 8.50 -1.60 1 0.75 1.25 1.35 1.15 2.75 -0.05 1 0 1.80 0.15 1.80 0.90 0 15.40 -5.35 17.45 -6.40 2 -1.10 2.55 -1.65 2.80 -3 l0.35 -1.65 -2.65 0.30 c-3.35 0.45 -4.50 0.05 -5.25 -1.70 -0.90 -2.30 -0.05 -3.30 3.95 -4.50 4.70 -1.45 10.30 -5.25 15.80 -10.75 l4.55 -4.55 1.15 -4.60 c0.95 -3.90 1.05 -4.90 0.55 -6.40 -0.50 -1.50 -0.30 -2.75 1.45 -9.85 3.20 -13.15 3.30 -13.75 3.20 -25.15 -0.05 -10 -0.85 -24.95 -1.55 -30.05 -0.30 -1.95 -0.60 -2.50 -1.85 -3.20 -1.90 -1.05 -2.55 -2.15 -7.60 -13.40 -2.30 -5.10 -4.75 -10.35 -5.50 -11.60 -5.40 -9.25 -16.25 -20.35 -24.15 -24.60 -1.25 -0.70 -4.85 -2.75 -8 -4.60 -5.25 -3.10 -7.25 -4.50 -15.50 -11.05 -3.20 -2.50 -21.20 -11.75 -22.90 -11.75 -1 0 -0.80 0.35 1.90 3.50 1.65 1.95 3 3.95 3 4.50 0 1.45 -1.05 3.40 -1.95 3.65 -1.55 0.40 -2.80 -0.50 -6.95 -5.10 -3.30 -3.60 -4.45 -4.55 -5.50 -4.55 -1.90 0 -3.60 -1.30 -3.60 -2.75 0 -0.65 -0.20 -1.30 -0.45 -1.45 -0.85 -0.55 -21.95 -3.85 -28.15 -4.40 -7.65 -0.70 -9.05 -0.55 -24.90 3.25 -12.70 3.05 -17.05 4.25 -17.65 4.80 -0.20 0.20 -0.20 0.95 0.10 1.60 0.30 0.85 0.25 1.75 -0.20 2.75 -0.55 1.35 -1 1.60 -3.65 2.15 -1.65 0.30 -3.25 0.90 -3.60 1.30 -0.30 0.35 -1.60 1.05 -2.85 1.45 -3.35 1.15 -6.35 3.80 -7.10 6.25 -0.45 1.55 -1.05 2.30 -2.45 3 -1 0.55 -2.55 1.70 -3.40 2.65 -2.30 2.50 -7.95 9.95 -8.85 11.65 -1.75 3.50 -3.95 12.75 -5.35 22.95 -1.25 8.65 -1.30 12.45 -0.20 13.35 0.55 0.45 0.70 1.15 0.50 2.15 -0.60 3.55 -1.45 7.15 -2.10 8.80 -1.55 4.05 -1.90 8.30 -1.85 22.50 0 12 0.20 15.30 1.10 20.75 1.75 10.90 3.90 16.70 7.70 21.05 1.95 2.25 2.15 2.90 1.55 5.35 -0.25 1 0 2.15 0.80 3.90 0.95 2 1.40 2.45 2.45 2.45 0.65 0 1.75 0.50 2.40 1.05 1 0.95 1.10 1.40 0.80 3.95 -0.35 3.50 0.10 4.40 5.80 11.90 2.35 3.10 4.65 6.30 5.05 7.10 1.55 3 19.90 13.95 26.05 15.55 2.15 0.55 2.45 0.55 3.70 -0.45 1.80 -1.45 2.40 -1.40 4.40 0.40 2 1.70 5.90 2.75 12.35 3.25 2.85 0.25 4.85 0.70 6 1.35 1.15 0.70 3.25 1.15 6.25 1.40 6.15 0.55 25.65 0.25 27.40 -0.45z"/>
  <path d="M402.50 556 c-5.65 -0.20 -14.75 -0.75 -20.25 -1.20 -9.70 -0.75 -10.10 -0.85 -13.50 -2.50 -7.70 -3.85 -16.80 -13.55 -23.30 -24.85 -5.65 -9.90 -5.70 -10 -8 -18.95 -3.20 -12.20 -2.35 -20.20 3.40 -31.75 4.55 -9.15 8.60 -14.40 14.40 -18.70 3.50 -2.65 4.20 -2.95 11.75 -5.60 3.70 -1.30 8.80 -3.10 11.25 -4 l4.50 -1.70 8.75 0.15 c11.70 0.15 16.05 0.75 19.45 2.70 1.50 0.80 4.95 2.05 7.65 2.70 5.25 1.25 9.85 3.35 12.50 5.60 0.90 0.80 3.80 3 6.40 5 5.95 4.45 9.10 7.65 10.65 10.85 6.10 12.50 9.20 23.25 9.70 33.90 0.35 7.20 -0.45 15.35 -1.90 20.35 -2.35 7.85 -7.05 14.85 -12.30 18.25 -8.95 5.75 -11.20 7.10 -14.65 8.45 -3.40 1.35 -4.35 1.50 -10 1.60 -3.45 0.05 -10.85 -0.10 -16.50 -0.30z"/>
  <path d="M572.05 370.70 c-1.85 -2.35 -1.20 -3.65 3.80 -7.55 1.50 -1.15 1.60 -1.45 1.35 -3.15 -0.40 -2.45 0.20 -3.55 6.75 -12.15 10.25 -13.55 13.25 -19 16.30 -29.85 0.40 -1.55 1.65 -3.95 2.70 -5.40 1.10 -1.40 2.30 -3.65 2.75 -4.95 0.95 -3.05 1.90 -12.25 1.30 -12.65 -0.25 -0.15 -0.70 -0.90 -0.95 -1.70 -0.45 -1.15 -0.40 -1.75 0.40 -3.20 0.55 -1.05 1.10 -2.95 1.20 -4.30 0.15 -1.60 0.75 -3.10 1.75 -4.55 2 -2.90 2.70 -6.80 3.05 -17.75 l0.30 -9.20 1.30 -0.75 c1.75 -1 3.70 -0.40 4.40 1.40 0.90 2.15 0.45 16.65 -0.70 22.30 -0.50 2.50 -0.80 4.95 -0.70 5.50 0.10 0.55 0.15 3.25 0.15 6 -0.05 5.85 -1.15 11.30 -3.45 17.05 -0.90 2.25 -1.90 5.30 -2.25 6.75 -0.95 4.40 -2.95 10.40 -5.10 15.30 -1.70 4 -2.25 4.75 -3.80 5.50 -2.40 1.15 -2.65 2.60 -0.60 3.75 1.80 1 2.05 3.10 0.55 4.95 -0.50 0.65 -2.60 3.70 -4.60 6.70 -4.05 6.05 -9.35 11.85 -16.20 17.70 -7.25 6.20 -7.90 6.50 -9.70 4.25z"/>
 </g>
 <g fill="#7c7c76">
  <path d="M63.20 893.75 c-2.15 -1.10 -3.65 -2.75 -4.20 -4.65 -0.40 -1.60 -0.40 -1.60 1.30 -1.60 1.35 0 2.15 0.40 3.40 1.75 2.65 2.80 6.20 2.30 7.60 -1.10 0.60 -1.40 0.65 -2.10 0.15 -3.50 -1 -3.05 -5.55 -4.05 -7.75 -1.60 -0.55 0.65 -1.50 0.95 -2.85 0.95 -1.95 0 -1.95 0 -1.70 -1.60 0.15 -0.90 0.45 -4.05 0.65 -7 l0.30 -5.40 7.20 0 7.20 0 0 1.75 0 1.75 -5.45 0 -5.45 0 -0.35 3.30 c-0.35 3.15 -0.05 4.50 0.65 3.40 0.65 -1.05 2.55 -1.70 4.85 -1.70 1.95 0 2.55 0.25 4.50 2.05 1.75 1.60 2.25 2.50 2.55 4.25 0.45 3.05 -0.85 6.30 -3.15 8.05 -2.25 1.70 -7 2.15 -9.45 0.90z"/>
  <path d="M92.50 893.95 c-5.85 -1.75 -7.90 -11.15 -3.40 -15.80 2.75 -2.85 7.65 -3.35 11.20 -1.20 4.85 2.95 4.90 12.70 0.10 15.90 -2 1.30 -5.50 1.80 -7.90 1.10z m5.55 -4.35 c1.40 -1.25 1.55 -1.70 1.60 -4.40 0 -3.70 -1.05 -5.55 -3.40 -6 -3.50 -0.65 -5.50 1.80 -5.15 6.40 0.20 2.55 0.45 3.25 1.60 4.25 1.80 1.55 3.45 1.45 5.35 -0.25z"/>
  <path d="M150 893.95 c-2.85 -1.15 -4.70 -4.10 -5.45 -8.90 -0.60 -3.75 0.05 -8.50 1.60 -11.25 2.35 -4.20 8.30 -5.50 12.10 -2.60 6.15 4.70 5.15 19.80 -1.50 22.60 -1.95 0.80 -4.90 0.85 -6.75 0.15z m6.15 -4.45 c2.20 -2.60 2.50 -11.75 0.45 -14.50 -2.30 -3.05 -5.50 -2.45 -7.20 1.35 -0.90 2 -1 2.95 -0.75 6.50 0.40 5.75 1.75 8.15 4.65 8.15 1.20 0 1.95 -0.40 2.85 -1.50z"/>
  <path d="M109 886.50 l0 -7.50 -1.50 0 c-1.35 0 -1.50 -0.15 -1.50 -1.50 0 -1.35 0.15 -1.50 1.50 -1.50 1.40 0 1.50 -0.10 1.50 -1.95 0 -2.70 1.80 -4.80 4.45 -5.25 2.55 -0.40 3.55 0 3.55 1.50 0 0.90 -0.25 1.20 -1.10 1.20 -1.75 0 -2.40 0.65 -2.75 2.65 l-0.30 1.85 2.10 0 c1.95 0 2.05 0.10 2.05 1.50 0 1.40 -0.10 1.50 -2 1.50 l-2 0 0 7.50 0 7.50 -2 0 -2 0 0 -7.50z"/>
  <path d="M134.50 884.25 c0 -5.35 -0.15 -9.75 -0.40 -9.75 -0.20 0 -1.45 0.80 -2.80 1.75 -1.35 0.95 -2.65 1.75 -2.90 1.75 -0.20 0 -0.40 -0.75 -0.40 -1.70 0 -1.55 0.35 -1.95 3.25 -4 2.55 -1.80 3.75 -2.30 5.25 -2.30 l2 0 0 12 0 12 -2 0 -2 0 0 -9.75z"/>
  <path d="M394.50 880.10 c0 -0.30 0.35 -2.20 0.75 -4.20 0.40 -2 0.85 -5.15 1.05 -7 0.15 -1.90 0.50 -3.40 0.75 -3.40 0.50 0 0.50 0 0.60 4.50 0.05 4.85 -0.55 7.85 -1.95 9.35 -0.65 0.70 -1.20 1.05 -1.20 0.75z"/>
  <path d="M252.30 747.70 c-0.45 -0.40 -0.80 -1.05 -0.75 -1.35 0 -0.45 0.10 -0.40 0.30 0.05 0.10 0.30 0.65 0.60 1.20 0.60 1 0 1.30 0.75 0.50 1.25 -0.25 0.15 -0.85 -0.10 -1.25 -0.55z"/>
  <path d="M635.45 738 c-0.05 -0.40 -0.15 -0.95 -0.15 -1.25 -0.05 -0.25 -0.40 -1.05 -0.75 -1.70 -0.60 -1.05 -0.55 -1.15 0.15 -0.90 0.45 0.20 0.80 0.05 0.85 -0.30 0 -0.35 0.20 -0.05 0.50 0.55 0.25 0.75 0.30 1.80 0 2.75 -0.25 0.90 -0.50 1.25 -0.60 0.85z"/>
  <path d="M616.05 707.65 c-0.55 -1.95 -0.70 -3.95 -0.20 -2.75 0.35 0.85 1.05 0.75 1.30 -0.25 0.15 -0.50 0.25 0.25 0.30 1.70 0.05 3.15 -0.70 3.85 -1.40 1.30z"/>
  <path d="M600.35 700.15 c-0.15 -0.25 -0.10 -0.75 0.10 -1.10 0.35 -0.50 0.50 -0.50 0.80 -0.05 0.20 0.30 0.15 0.80 -0.15 1.10 -0.25 0.25 -0.60 0.30 -0.75 0.05z"/>
  <path d="M614 696 c-0.55 -0.55 -1 -1.25 -1 -1.50 0 -0.70 2.35 0.85 2.70 1.80 0.40 1 -0.55 0.85 -1.70 -0.30z"/>
  <path d="M603 692.70 c0 -1.05 1.45 -3.70 2 -3.70 0.65 0 0.65 1.80 0 2.95 -0.65 1.25 -2 1.75 -2 0.75z"/>
  <path d="M633.55 692.40 c-0.05 -0.80 0.20 -1.40 0.45 -1.40 0.60 0 0.60 0.40 0 1.75 -0.40 0.90 -0.45 0.85 -0.45 -0.35z"/>
  <path d="M229.45 690.65 c-0.35 -0.90 -0.30 -1.50 0.05 -1.85 0.65 -0.65 1.35 0.05 1.75 1.85 0.50 1.85 -1.05 1.90 -1.80 0z"/>
  <path d="M631.75 681.10 c-0.45 -3.75 -1.05 -7.85 -1.25 -9.10 -0.25 -1.30 -0.25 -2.45 0.05 -2.70 0.25 -0.30 0.45 0.15 0.50 1.25 0 1.85 0.80 4.30 0.95 2.95 0.15 -1.30 0.95 2.10 1.50 6.10 0.25 2.10 0.60 4.35 0.75 5 0.20 0.80 0 1.55 -0.65 2.30 -0.95 1.10 -0.95 1.10 -1.85 -5.80z"/>
  <path d="M229.05 674.55 c-3.65 -7.15 -4.30 -9 -2.60 -7.25 0.50 0.50 0.85 1.05 0.75 1.15 -0.10 0.10 0.25 0.55 0.75 1 1.30 1.10 6.20 10.90 5.80 11.55 -0.15 0.25 -0.50 0.50 -0.75 0.50 -0.25 0 -2.05 -3.15 -3.95 -6.95z"/>
  <path d="M343.30 590.75 c-3.75 -1.65 -9.30 -4.95 -9.30 -5.55 0 -0.45 2.15 0.35 3.50 1.30 0.70 0.50 3.40 2.05 6 3.45 5.50 2.95 5.45 3.25 -0.20 0.80z"/>
  <path d="M451.30 587.05 c0.70 -0.65 4 -1.65 3.40 -1.05 -0.30 0.30 -1.25 0.75 -2.20 1 -0.95 0.25 -1.45 0.30 -1.20 0.05z"/>
  <path d="M460.25 583.50 c0.35 -0.55 3.60 -1.65 4.30 -1.40 0.30 0.10 -0.60 0.55 -2 1 -1.40 0.45 -2.45 0.60 -2.30 0.40z"/>
  <path d="M174.35 556.55 c-0.45 -1.45 -1.55 -5.95 -2.40 -10 -0.85 -4 -1.80 -8.70 -2.20 -10.40 -0.35 -1.70 -0.55 -3.20 -0.40 -3.35 0.65 -0.60 2.15 1.75 2.40 3.75 0.35 2.80 2.10 11.10 3.25 15.75 0.60 2.30 0.80 4.10 0.55 5.25 l-0.40 1.70 -0.80 -2.70z"/>
  <path d="M618 536.25 c0 -1.20 0.25 -1.75 0.75 -1.75 0.50 0 0.75 0.55 0.75 1.75 0 1.20 -0.25 1.75 -0.75 1.75 -0.50 0 -0.75 -0.55 -0.75 -1.75z"/>
  <path d="M602.80 472.80 c0.15 -0.40 -0.20 -1.20 -0.75 -1.75 -1.20 -1.20 -1.40 -3.05 -0.30 -3.05 0.40 0 0.95 0.85 1.25 2.15 0.30 1.15 0.65 2.40 0.75 2.75 0.10 0.30 -0.10 0.60 -0.50 0.60 -0.40 0 -0.60 -0.30 -0.45 -0.70z"/>
  <path d="M297 448 c0 -0.95 1.70 -3.95 2.10 -3.70 0.45 0.30 0.55 2.25 0.10 3.40 -0.35 0.85 -2.20 1.10 -2.20 0.30z"/>
  <path d="M101.60 432.35 c-3.90 -5.80 -4.80 -7.65 -3.50 -7.25 0.30 0.10 2.35 2.80 4.50 5.95 5.15 7.50 5.15 7.45 4.05 7.45 -0.60 0 -2.35 -2.15 -5.05 -6.15z"/>
  <path d="M561.40 382.25 c-0.60 -1.70 -1.50 -7.70 -1.30 -8.30 0.15 -0.45 0.60 -0.25 1.30 0.45 0.90 0.90 1 1.30 0.55 2.15 -0.40 0.80 -0.35 1.40 0.25 2.70 0.90 1.85 1.15 3.55 0.35 2.30 -0.35 -0.55 -0.50 -0.45 -0.65 0.50 -0.15 1.10 -0.20 1.10 -0.50 0.20z"/>
  <path d="M367.50 378 c0 -0.25 0.35 -0.50 0.75 -0.50 0.40 0 0.75 0.25 0.75 0.50 0 0.30 -0.35 0.50 -0.75 0.50 -0.40 0 -0.75 -0.20 -0.75 -0.50z"/>
  <path d="M189.10 370.40 c-0.35 -0.35 -0.60 -1 -0.60 -1.50 0 -1.30 -1.80 -2.05 -4.20 -1.70 -1.75 0.30 -2.25 0.15 -3.15 -0.80 -1.50 -1.55 -3.15 -5.35 -3.15 -7.15 l0 -1.50 2.25 2.55 c2.15 2.50 2.35 2.60 7.10 3.70 6.35 1.45 11.65 3.40 11.65 4.30 0 0.40 -0.20 0.70 -0.45 0.70 -0.25 0 -0.65 0.50 -0.85 1.10 -0.30 0.95 -0.35 0.95 -0.80 0.25 -0.35 -0.65 -1.15 -0.85 -3.15 -0.85 -1.45 0 -3.10 0.15 -3.60 0.35 -0.80 0.30 -0.75 0.40 0.35 0.70 1.05 0.30 1.10 0.35 0.25 0.40 -0.60 0.05 -1.30 -0.20 -1.65 -0.55z"/>
  <path d="M227.75 367.65 c-4.75 -0.20 -5.40 -0.55 -4.95 -2.65 0.85 -3.75 1.50 -4.75 6.50 -9.70 4.40 -4.35 5.20 -5.35 5.20 -6.70 0 -1.15 -0.35 -1.80 -1.35 -2.45 -0.80 -0.50 -1.60 -1.10 -1.90 -1.30 -0.25 -0.25 -1.25 -0.85 -2.10 -1.35 -1.05 -0.65 -1.65 -1.40 -1.65 -2.05 0 -2.20 -3.20 -3.20 -5.40 -1.65 -1.30 0.90 -12.25 14.45 -14.90 18.45 -1.70 2.60 -4 4.75 -5.05 4.75 -0.25 0 -1.90 -0.55 -3.60 -1.25 -1.70 -0.70 -5.40 -1.85 -8.20 -2.50 -5.15 -1.25 -6.85 -2.30 -7.60 -4.80 -0.20 -0.55 -0.50 -0.95 -0.75 -0.95 -0.25 0 -0.60 -0.45 -0.75 -1.05 -0.20 -0.55 -1.15 -2.40 -2.15 -4.05 l-1.80 -3 1.35 -5.35 c4.10 -16.35 4.85 -18.60 5.75 -17.25 0.70 1.15 2.40 1.25 3.35 0.20 0.70 -0.80 0.80 -1.45 0.55 -3.35 -0.60 -3.70 -0.75 -5.45 -0.45 -4.75 0.45 1.10 1.40 0.60 4.15 -2.15 2.05 -2.10 2.60 -2.90 2.10 -3.20 -0.75 -0.45 0.15 -1.15 5.90 -4.90 14.40 -9.35 32.70 -18.90 47.15 -24.60 2.15 -0.85 5.25 -2.25 6.90 -3.10 1.70 -0.85 2.90 -1.25 2.70 -1 -0.20 0.35 0.50 0.55 2.10 0.55 1.60 0 3.35 0.45 5.15 1.35 1.50 0.75 3.10 1.35 3.50 1.35 0.95 0.05 1.10 3.05 0.25 6.60 -0.80 3.50 -2.80 6.75 -6.60 10.80 -1.75 1.85 -3.15 3.65 -3.15 4 0 0.40 0.35 1.15 0.75 1.80 1.20 1.70 3.30 1.15 5.70 -1.45 2.40 -2.65 5.10 -6 5.85 -7.25 0.30 -0.55 0.80 -0.75 1.35 -0.55 0.65 0.25 0.85 0.95 0.85 3 0 1.45 -0.25 2.90 -0.60 3.25 -0.30 0.30 -0.65 1.60 -0.70 2.85 -0.10 1.75 0 2.25 0.65 2.25 0.65 0 0.75 0.40 0.45 2.30 -0.15 1.30 -0.30 3.10 -0.30 4 0 1.55 -0.15 1.70 -1.40 1.70 -0.80 0 -1.80 0.40 -2.25 0.90 -1.05 1.15 -1.10 3.55 -0.15 3.90 0.60 0.25 0.60 0.50 0 1.95 -0.95 2.30 -0.90 2.75 0.30 2.75 0.55 0 1 -0.30 1 -0.70 0 -0.40 0.25 -0.90 0.60 -1.10 0.35 -0.20 0.40 -0.15 0.20 0.20 -0.65 1.10 0.60 6.80 1.75 7.75 1.55 1.25 2.80 1.05 3.70 -0.65 l0.80 -1.50 1.35 1 c1.55 1.10 7.75 3.20 12.85 4.35 4.80 1.05 16.65 1.45 21.65 0.70 3.15 -0.45 4.80 -0.45 7.20 0 5.30 1 17.75 0.70 24.40 -0.55 15.55 -2.90 31.65 -6.15 35.25 -7.05 8.95 -2.25 19 -5.75 24.35 -8.50 1.10 -0.55 1.85 -0.75 1.65 -0.45 -0.55 0.90 3.40 0 4.10 -0.95 0.30 -0.45 0.45 -0.95 0.35 -1.15 -0.15 -0.25 0.05 -0.40 0.45 -0.40 0.40 0 2.25 -0.70 4.15 -1.55 1.90 -0.85 8.30 -3.55 14.20 -5.95 11.25 -4.60 24.75 -11.60 28.30 -14.70 1.60 -1.35 2.25 -2.35 2.70 -4.30 0.55 -2.25 0.50 -2.65 -0.25 -3.50 -0.50 -0.55 -1.25 -1 -1.70 -1 -0.45 0 -1.55 -0.65 -2.50 -1.45 -1.50 -1.20 -1.60 -1.50 -1.10 -2.45 1.15 -2.20 -1.55 -4.40 -3.85 -3.15 -1.35 0.75 -1.40 0.70 -2.60 -0.55 -1.20 -1.30 -1.30 -2.40 -0.25 -2.40 0.40 0 0.75 -0.35 0.75 -0.75 0 -0.45 0.30 -0.90 0.70 -1.05 1.35 -0.55 0.40 -2.45 -1.70 -3.35 -0.80 -0.35 -2.70 -2.05 -4.25 -3.85 -1.50 -1.80 -3.10 -3.60 -3.50 -4.05 -1.15 -1.20 -2.35 -4.50 -2.05 -5.65 0.35 -1.45 -0.10 -2 -2.45 -3.10 -1.85 -0.90 -2.15 -1.35 -3.95 -5.85 -1.25 -3 -1.80 -5 -1.50 -5.30 0.50 -0.50 27.05 -5.55 29.15 -5.55 0.70 0 2.30 0.70 3.50 1.50 2.55 1.75 3.65 1.85 5.45 0.55 1.10 -0.75 2.65 -1 8.10 -1.25 3.70 -0.15 8.30 -0.45 10.15 -0.60 1.90 -0.20 4.65 -0.05 6.25 0.25 1.55 0.30 5.95 0.75 9.70 1 3.75 0.25 7.15 0.65 7.50 0.85 4.50 2.55 5.25 3.35 7.30 7.35 2.35 4.70 3.70 8.80 6.80 20.40 l2.20 8.35 -0.70 5.65 c-0.45 3.10 -0.65 6.05 -0.55 6.55 0.15 0.50 0.10 0.90 -0.05 0.90 -0.20 0 -0.40 0.55 -0.40 1.20 -0.10 1.25 -3.45 5.80 -4.30 5.80 -0.25 0 -0.60 0.40 -0.80 0.90 -0.55 1.40 -4.85 5.10 -5.90 5.10 -1.50 -0.05 -10.80 -2.75 -12.70 -3.75 -0.95 -0.50 -3 -1.75 -4.50 -2.75 -6.45 -4.35 -10 -5.40 -11.75 -3.50 -1.10 1.20 -2.65 1.25 -5.10 0.25 -0.95 -0.40 -2.95 -1.05 -4.35 -1.45 -1.40 -0.40 -4.20 -1.20 -6.25 -1.80 -3.70 -1.05 -3.75 -1.05 -5 -0.10 -2.30 1.70 -1.85 4.60 0.85 5.65 0.80 0.30 1.10 0.70 0.90 1.20 -0.15 0.40 -0.40 1.05 -0.55 1.40 -0.15 0.35 0.15 1.25 0.70 1.90 0.85 1.10 1.70 1.40 5.40 1.90 6.95 0.95 7.10 1 7.45 2.30 0.30 1.15 5.65 6.65 9.35 9.50 2.60 2.05 2.15 2.85 -2.80 4.80 -5.80 2.20 -27.30 7.40 -49.60 11.95 -12.55 2.55 -13.70 2.85 -26.50 6.75 -12.25 3.70 -17.35 5.05 -21.50 5.50 -4.90 0.50 -11 2.10 -20.25 5.25 -10.65 3.60 -12.60 3.95 -37 6.55 -10.35 1.10 -29.85 5.45 -56.80 12.70 -3.55 0.95 -4.05 1 -4 0.30 0.05 -1 -2.30 -1.15 -4.15 -0.25 -0.70 0.35 -3.75 1 -6.80 1.40 -3 0.45 -7.80 1.25 -10.65 1.80 -2.85 0.55 -6.25 1 -7.65 1 -1.85 0 -2.45 0.20 -2.45 0.75 0 0.60 -0.55 0.75 -2.35 0.65 -1.35 -0.05 -4.40 -0.20 -6.90 -0.25z"/>
  <path d="M211.80 366.60 c-0.50 -0.80 4.30 -6.70 4.90 -6.05 0.10 0.10 0.05 1.55 -0.10 3.20 l-0.35 3 -2.10 0.15 c-1.10 0.10 -2.20 -0.05 -2.35 -0.30z"/>
  <path d="M295.85 362 c0.55 -0.50 10.30 -3 10.60 -2.75 0.10 0.15 -0.05 0.25 -0.40 0.25 -0.35 0 -0.45 0.25 -0.25 0.55 0.25 0.40 -0.05 0.50 -1 0.35 -0.70 -0.15 -1.30 -0.05 -1.30 0.25 0 0.25 -0.45 0.35 -1 0.20 -0.55 -0.15 -1 -0.10 -1 0.15 0 0.20 -1.35 0.60 -3 0.85 -1.70 0.25 -2.85 0.30 -2.65 0.15z"/>
  <path d="M312.50 358 c-0.60 -0.40 -0.45 -0.50 0.60 -0.50 0.75 0 1.50 0.25 1.65 0.50 0.40 0.65 -1.25 0.65 -2.25 0z"/>
  <path d="M315.20 357.40 c-0.25 -0.35 0 -0.45 0.70 -0.30 0.60 0.15 1.10 0.10 1.20 -0.10 0.10 -0.20 1.40 -0.50 2.90 -0.70 l2.75 -0.25 -3 0.95 c-3.50 1.15 -4.05 1.20 -4.55 0.40z"/>
  <path d="M349.80 353.40 c0.35 -0.55 1.70 -0.50 1.70 0.05 0 0.30 -0.45 0.45 -0.95 0.40 -0.55 0 -0.85 -0.25 -0.75 -0.45z"/>
  <path d="M352.50 352.95 c0 -0.30 0.45 -0.45 1 -0.30 0.50 0.15 1.05 0 1.15 -0.30 0.10 -0.30 0.30 -0.25 0.45 0.20 0.20 0.55 -0.10 0.80 -1.15 0.85 -0.80 0.05 -1.45 -0.15 -1.45 -0.45z"/>
  <path d="M416.50 339.15 c0 -0.45 8.50 -2.30 8.85 -1.95 0.10 0.10 -1.55 0.60 -3.70 1.05 -2.15 0.50 -4.15 1 -4.50 1.10 -0.35 0.15 -0.65 0.05 -0.65 -0.20z"/>
  <path d="M294.65 326.65 c-0.90 -0.10 -1.65 -0.40 -1.65 -0.65 0 -0.45 4.35 -0.10 6.50 0.55 0.95 0.30 0.75 0.35 -1 0.35 -1.25 -0.05 -3 -0.15 -3.85 -0.25z"/>
  <path d="M463.75 324.45 c1.95 -0.50 3.95 -0.90 4.50 -0.90 1.20 0.05 -5.60 1.85 -7 1.85 -0.55 0 0.60 -0.40 2.50 -0.95z"/>
  <path d="M353.25 323.75 c8.80 -2.30 15.75 -3.65 15.75 -3.05 0 0.35 -3.65 1.30 -9.35 2.45 -10.60 2.10 -13.05 2.35 -6.40 0.60z"/>
  <path d="M328.50 319.50 c0 -0.65 0.35 -1 1 -1 0.55 0 1 -0.20 1 -0.50 0 -0.25 0.65 -0.50 1.50 -0.50 0.80 0 2.75 -0.35 4.35 -0.75 3.75 -1 6.60 -1 7 0 0.15 0.45 0.15 0.90 0 1.05 -0.30 0.30 -12.60 2.65 -13.95 2.70 -0.55 0 -0.90 -0.40 -0.90 -1z"/>
  <path d="M501.30 311.05 c-0.30 -0.45 1.80 -2.05 2.70 -2.05 0.80 0 0.60 0.50 -0.60 1.55 -1.30 1.05 -1.70 1.15 -2.10 0.50z"/>
  <path d="M491 303.50 c-4.50 -3.70 -5.15 -4.50 -3.65 -4.50 1.25 0 3.15 1.40 3.15 2.25 0 0.85 2.50 2.25 3.90 2.25 0.50 0 1.35 -0.45 1.85 -1 0.80 -0.90 1 -0.90 2.30 -0.25 0.75 0.40 1.75 0.75 2.20 0.75 0.80 0 0.95 0.45 0.35 1.30 -0.60 0.95 -3.80 2.70 -4.85 2.70 -0.55 0 -2.90 -1.60 -5.25 -3.50z"/>
  <path d="M278.10 298.35 c-0.35 -0.40 -0.70 -1.40 -0.80 -2.15 -0.85 -6.40 -1.20 -9.55 -1.20 -10.20 0 -0.40 -0.25 -2.75 -0.60 -5.15 -0.35 -2.45 -0.50 -4.90 -0.35 -5.45 0.15 -0.60 0 -1.80 -0.35 -2.65 -0.80 -1.85 -1.20 -4.20 -1.60 -8.75 -0.45 -5.30 -0.50 -6 -1.40 -11.65 -1.05 -6.85 -1 -7.35 0.85 -5.65 1.90 1.75 3.20 1.70 4 -0.30 0.60 -1.45 0.35 -2.40 -3.70 -14.60 -2.40 -7.15 -4.60 -13.45 -4.85 -14 -0.25 -0.60 -1.75 -4.20 -3.35 -8.05 -2.35 -5.80 -2.70 -7.05 -2.10 -7.50 0.35 -0.25 0.95 -1 1.30 -1.65 0.70 -1.35 0.40 -2 -2.60 -5.30 -1 -1.10 -2.20 -2.80 -2.70 -3.75 -0.50 -1 -1.30 -2.30 -1.75 -2.95 -0.45 -0.60 -1.55 -2.85 -2.40 -5 -0.90 -2.10 -1.95 -4.60 -2.40 -5.55 -0.60 -1.30 -0.65 -1.85 -0.20 -2.60 0.90 -1.45 0.70 -2.75 -0.70 -4.40 -0.70 -0.85 -1.75 -2.40 -2.35 -3.45 -2.95 -5.30 -4.60 -8.35 -4.65 -8.60 0 -0.15 -1.40 -3 -3.10 -6.35 -1.70 -3.40 -3.10 -6.40 -3.10 -6.75 0 -0.30 -0.35 -0.95 -0.80 -1.45 -0.40 -0.45 -0.80 -1.30 -0.85 -1.90 -0.05 -0.55 -0.25 -1.05 -0.45 -1.05 -0.20 0 -0.40 -0.20 -0.40 -0.50 0 -0.25 0.45 -0.50 1.05 -0.50 0.55 0 0.85 -0.20 0.70 -0.50 -0.20 -0.30 -0.70 -0.45 -1.15 -0.30 -0.90 0.25 -1.85 -1.50 -5.80 -10.20 -5 -11.15 -5 -10.65 -0.15 -10.20 4.45 0.40 12.55 -1.05 28.35 -5.10 5.90 -1.50 15.05 -3.65 20.25 -4.75 11.20 -2.30 27.10 -6.55 37.25 -9.90 13.35 -4.45 36.35 -13.85 43 -17.60 4.30 -2.40 7.35 -3.75 9.75 -4.30 4.30 -0.95 17.60 -6.45 23 -9.45 2.20 -1.25 6.15 -3.90 8.75 -5.95 3.65 -2.85 4.85 -3.55 5.40 -3.15 0.55 0.45 0.60 2.95 0.45 12.40 -0.10 6.50 -0.30 12.05 -0.50 12.30 -0.35 0.65 -0.95 33.45 -0.90 49.45 0.10 13.70 0.45 19.10 2.35 32.25 0.90 6.40 1.20 10.70 1.15 16 -0.05 7.45 0.05 8.05 2.30 12.75 0.85 1.75 1.50 4.80 2.25 10 1.25 9.05 2.55 15.50 4.25 20.80 1.90 6.05 2.05 7.55 0.80 8.65 -1.90 1.75 -1 4.20 2.25 6.10 0.80 0.50 0.85 0.75 0.30 1.65 -0.95 1.65 -1.30 5.25 -0.60 7.25 0.80 2.45 2.70 4.65 5.20 5.90 2.65 1.35 3.70 2.40 6.25 6.45 2.35 3.80 2.55 4.60 0.95 4 -1.05 -0.40 -4.35 1.15 -9.75 4.60 -1.55 1 -2.05 1.10 -1.80 0.55 0.25 -0.75 -0.05 -0.80 -2.65 -0.45 -1.60 0.25 -3.55 0.45 -4.25 0.45 -0.70 0.05 -1.65 0.35 -2.10 0.70 -0.45 0.40 -1.05 0.55 -1.40 0.35 -0.30 -0.20 -1.15 0.10 -1.90 0.65 -0.80 0.55 -2.40 1.30 -3.60 1.60 -1.20 0.35 -3.60 1.25 -5.35 2.10 -1.75 0.80 -5.70 2.10 -8.75 2.90 -3.10 0.80 -6.60 1.90 -7.85 2.45 -1.25 0.50 -2.90 1.20 -3.70 1.50 -1.15 0.45 -1.30 0.75 -0.85 1.20 0.45 0.45 -0.45 0.95 -4.30 2.20 -4.10 1.30 -4.95 1.45 -5.30 0.85 -0.60 -1.10 -3.60 -0.85 -10.15 0.75 -3.30 0.80 -8.65 2.10 -11.95 2.80 -3.30 0.75 -7.50 1.75 -9.35 2.30 -3.80 1.10 -10.45 2.30 -14.20 2.60 -3 0.25 -4.70 1 -3.65 1.65 1.70 1.05 -6.65 1.75 -23.60 2 -14.80 0.25 -17.35 0.20 -17.85 -0.45z"/>
  <path d="M329.50 296 c0 -0.25 0.30 -0.50 0.70 -0.50 0.40 0 0.90 0.25 1.05 0.50 0.15 0.30 -0.15 0.50 -0.70 0.50 -0.60 0 -1.05 -0.20 -1.05 -0.50z"/>
  <path d="M355 290.45 c0 -0.30 0.45 -0.45 1 -0.30 0.55 0.15 1 0.05 1 -0.20 0 -0.25 0.45 -0.45 1 -0.45 1.55 0 1.15 0.85 -0.55 1.20 -2.15 0.40 -2.45 0.40 -2.45 -0.25z"/>
  <path d="M448.60 289.05 c-0.35 -0.20 -0.20 -1 0.45 -2.40 1.20 -2.65 1.65 -2.90 2.90 -1.60 0.90 0.95 0.90 1.20 0.25 2.20 -0.85 1.30 -2.80 2.30 -3.60 1.80z"/>
  <path d="M529.60 266.90 c-0.25 -1.05 -0.25 -1.75 0.05 -2 0.75 -0.50 1.85 0.85 1.85 2.30 0 1.90 -1.40 1.65 -1.90 -0.30z"/>
  <path d="M525.30 250.45 c0.10 -0.20 0 -0.50 -0.30 -0.70 -0.25 -0.15 -0.50 -0.65 -0.50 -1 0 -1.05 1.25 -0.40 1.85 0.90 0.45 0.95 0.40 1.15 -0.35 1.15 -0.50 0 -0.85 -0.20 -0.70 -0.35z"/>
  <path d="M592.25 217.30 c-2.45 -2.65 -3 -5.05 -0.70 -2.85 0.90 0.90 1.45 1.85 1.35 2.45 -0.10 0.75 -0.30 0.85 -0.65 0.40z"/>
  <path d="M248.10 110.80 c3.05 -1.60 9.75 -3.95 19.40 -6.80 5.65 -1.70 12.65 -3.85 15.55 -4.75 2.90 -0.95 10.35 -2.60 16.50 -3.75 6.15 -1.10 13.95 -2.65 17.35 -3.50 6.60 -1.60 7.60 -1.75 6.85 -1.05 -2.30 2.10 -30 10.05 -47.25 13.60 -4.25 0.85 -12.50 2.75 -18.30 4.25 -11.45 2.90 -12.15 3.05 -10.10 2z"/>
  <path d="M222.05 109.60 c1.80 -1.35 5.50 -2.45 12.95 -3.85 3.70 -0.70 7.85 -1.55 9.15 -1.80 2.05 -0.50 3.50 -0.35 2.80 0.25 -0.25 0.20 -25.05 6.30 -25.65 6.30 -0.25 0 0.10 -0.40 0.75 -0.90z"/>
  <path d="M225.55 99.80 c0.25 -1.50 0.65 -3.30 0.95 -4.05 0.55 -1.45 0.40 -1.55 -1.25 -0.45 -0.70 0.45 -1.25 0.70 -1.25 0.55 0 -0.20 1.05 -0.90 2.40 -1.65 1.30 -0.75 3.50 -2.05 4.85 -2.95 7.10 -4.55 22.65 -12 39.75 -19.10 5.65 -2.35 12.40 -5.15 15 -6.25 2.60 -1.05 5.90 -2.35 7.25 -2.85 1.40 -0.50 5 -2 8 -3.30 11.85 -5.15 27.15 -9.40 35.75 -10 5.25 -0.35 11.60 -1.25 19.45 -2.80 2.80 -0.55 5.70 -0.90 6.40 -0.70 0.80 0.20 1.10 0.10 0.90 -0.25 -0.20 -0.30 0.50 -0.50 1.85 -0.55 1.20 -0.05 3.60 -0.15 5.30 -0.25 1.75 -0.10 3.60 0.05 4.10 0.30 0.50 0.30 1.35 0.35 1.85 0.15 0.80 -0.30 0.75 -0.40 -0.35 -0.75 -0.80 -0.25 -0.20 -0.30 1.55 -0.15 1.50 0.15 4.10 0.70 5.75 1.25 1.60 0.55 5.10 1.35 7.70 1.80 4.80 0.75 9.50 2.10 9.50 2.75 0 0.20 -1.75 2 -3.90 4 -5.20 4.90 -11.15 7.95 -23.15 11.90 -13.05 4.25 -26.40 7.20 -38.95 8.55 -9 0.95 -39.50 9.10 -52.25 13.90 -3.55 1.35 -7.75 2.80 -9.25 3.25 -5.25 1.50 -22.60 4.95 -23.65 4.65 -0.55 -0.15 -1.70 0.10 -2.55 0.55 -0.85 0.45 -5.60 1.65 -10.55 2.70 -4.95 1 -9.60 2 -10.30 2.20 l-1.30 0.30 0.40 -2.75z"/>
  <path d="M294.25 90.65 c0.60 -0.60 4.55 -1.75 13.25 -3.95 3.70 -0.90 7.25 -1.80 7.90 -1.95 0.85 -0.20 1.10 -0.05 1.10 0.70 0 0.55 -0.20 1.10 -0.45 1.30 -0.50 0.25 -15.75 3.35 -20.05 4 -1.40 0.20 -2.05 0.20 -1.75 -0.10z"/>
  <path d="M320.25 84 c-0.40 -0.60 -0.15 -0.70 5.50 -2 2.50 -0.55 5.30 -1.25 6.30 -1.50 2.30 -0.65 4.45 -0.65 4.45 0 0 0.75 -11.80 3.95 -14.85 4 -0.60 0 -1.25 -0.25 -1.40 -0.50z"/>
  <path d="M268.80 66.55 c-0.15 -0.20 1.25 -1.10 3.10 -1.90 4.40 -2 4.70 -2.10 5.85 -1.60 1 0.40 1 0.40 0 0.40 -0.60 0.05 -1.25 0.25 -1.50 0.50 -0.40 0.40 -6.60 3.05 -7.05 3.05 -0.10 0 -0.25 -0.20 -0.40 -0.45z"/>
  <path d="M261.90 63.60 c0.35 -0.25 0.50 -0.80 0.30 -1.25 -0.20 -0.55 -0.05 -0.85 0.40 -0.85 0.40 0 1.50 -0.40 2.45 -0.85 0.95 -0.50 2.25 -0.95 2.90 -1.05 1.05 -0.15 1.10 -0.05 0.45 0.60 -0.85 0.80 -6.20 3.80 -6.80 3.80 -0.20 0 -0.05 -0.20 0.30 -0.40z"/>
  <path d="M396.65 43.40 c-2.70 -0.60 -2.75 -1.40 -0.10 -1.40 2.25 0 4.15 0.80 3.70 1.55 -0.35 0.50 -0.75 0.50 -3.60 -0.15z"/>
  <path d="M344 42 c0 -0.25 0.55 -0.50 1.25 -0.50 0.70 0 1.25 0.25 1.25 0.50 0 0.30 -0.55 0.50 -1.25 0.50 -0.70 0 -1.25 -0.20 -1.25 -0.50z"/>
 </g>
 <g fill="#f7bdb2">
  <path d="M323.95 320.80 c-0.15 -0.20 -7.45 -0.55 -16.25 -0.80 -8.75 -0.30 -18.50 -0.80 -21.60 -1.15 -5.25 -0.60 -5.70 -0.75 -6.80 -2.10 -1.05 -1.30 -1.10 -1.75 -0.90 -6.45 0.10 -2.80 0.30 -5.15 0.40 -5.25 0.10 -0.10 1.50 0.05 3.05 0.40 1.60 0.30 6.20 0.80 10.30 1.10 11.45 0.90 18.40 -0.05 52.60 -7.05 28.50 -5.85 36.95 -8.10 48.25 -12.95 2.05 -0.90 7.60 -2.65 12.25 -3.85 6 -1.60 10.20 -3.05 14.25 -4.95 3.15 -1.50 8.35 -3.60 11.50 -4.65 3.15 -1.10 6.10 -2.10 6.55 -2.30 0.60 -0.25 1.45 0.55 3.35 3.40 l2.55 3.75 -2.15 1.95 c-4.40 4.05 -11.45 8.40 -23.50 14.50 -3.55 1.75 -8.90 4.90 -11.95 6.90 -5.75 3.85 -9.20 5.25 -17.30 6.95 -2.05 0.40 -5.40 1.20 -7.50 1.70 -10 2.50 -38.25 8.10 -39.55 7.80 -1.05 -0.25 -1.45 -0.10 -1.70 0.60 -0.30 0.70 -0.45 0.75 -0.80 0.20 -0.25 -0.45 -0.70 -0.55 -1.30 -0.30 -0.55 0.20 -1.50 0.50 -2.20 0.60 -0.65 0.10 -1.40 0.50 -1.60 0.80 -0.30 0.45 -0.40 0.45 -0.40 0 0 -0.35 -0.35 -0.65 -0.75 -0.65 -0.40 0 -0.75 0.20 -0.75 0.45 0 0.25 -0.75 0.55 -1.60 0.70 -3.90 0.70 -6.20 0.90 -6.45 0.65z"/>
  <path d="M270 311.75 c-0.45 -0.55 -0.50 -1.10 -0.10 -2.10 0.30 -0.80 0.65 -2.25 0.85 -3.25 0.20 -1.25 0.55 -1.90 1.10 -1.90 0.50 0 0.65 -0.30 0.45 -0.80 -0.15 -0.40 -0.10 -0.60 0.20 -0.45 0.30 0.15 0.50 2.30 0.50 4.80 0 4.35 -0.05 4.45 -1.20 4.45 -0.65 0 -1.45 -0.35 -1.80 -0.75z"/>
  <path d="M415.60 301.50 c2.70 -1.70 2.90 -1.75 2.90 -0.85 0 0.75 -3.05 2.35 -4.40 2.35 -0.45 0 0.20 -0.65 1.50 -1.50z"/>
  <path d="M425.40 296.45 c2.60 -1.40 4.80 -2.40 4.95 -2.25 0.20 0.15 0.05 0.30 -0.25 0.30 -0.30 0 -0.85 0.30 -1.20 0.65 -0.75 0.70 -7.05 3.85 -7.70 3.85 -0.25 0 1.65 -1.15 4.20 -2.55z"/>
 </g>
</svg>