<?xml version="1.0" encoding="utf-8"?>
<!DOCTYPE svg PUBLIC "-//W3C//DTD SVG 1.0//EN" "http://www.w3.org/TR/2001/REC-SVG-20010904/DTD/svg10.dtd">
<svg version="1.0" xmlns="http://www.w3.org/2000/svg" width="986px" height="1418px" viewBox="0 0 986 1418" preserveAspectRatio="xMidYMid meet">
 <g fill="#e1bce8">
  <path d="M414.15 1364.15 c-0.95 -0.35 -0.80 -1.65 0.15 -1.65 0.50 0 0 -0.55 -1.10 -1.30 -10.35 -7 -18.15 -15.55 -23.20 -25.45 -3.80 -7.45 -5.75 -13.55 -7.20 -23.10 -0.45 -2.80 -1.25 -7.20 -1.75 -9.75 -0.55 -2.55 -1.55 -8.90 -2.30 -14.15 -2.05 -14.90 -2.70 -18.75 -4.30 -25.10 -0.80 -3.25 -1.60 -6.25 -1.80 -6.65 -0.20 -0.40 -0.35 -0.95 -0.40 -1.25 -0.25 -1.90 -0.90 -3.70 -1.25 -3.50 -0.25 0.15 -0.35 0.60 -0.15 1 0.15 0.50 -0.05 0.75 -0.70 0.75 -0.85 0 -1.10 -1.15 -2.65 -10.10 -1.60 -9.60 -1.70 -10.90 -1.75 -23.40 -0.05 -8.20 -0.40 -15.95 -0.90 -20.25 -1.40 -12.50 -6.60 -37.65 -8.35 -40.50 -1.05 -1.70 -4.50 -14.45 -6 -22.15 -1.05 -5.50 -2.25 -7.10 -5.20 -7.10 -1.50 0 -1.70 -0.20 -2.35 -2.10 -0.35 -1.20 -1.20 -3.20 -1.80 -4.45 -3.05 -6.40 -5.25 -12.30 -6.65 -17.95 -3 -12.10 -3.60 -13.05 -7.90 -12.60 l-2.50 0.20 -3.90 -5.85 c-4.50 -6.70 -5.55 -7.45 -7.55 -5.45 -1.20 1.20 -1.60 1.30 -3.85 1 -4.40 -0.50 -5.80 2.05 -4 7.35 0.45 1.30 0.70 3.20 0.55 4.25 -0.40 3.45 -3.05 12.35 -3.85 12.95 -0.40 0.35 -1.40 0.65 -2.20 0.65 -1.25 0 -1.35 -0.10 -0.75 -0.80 0.60 -0.75 0.40 -1.05 -1.55 -2.65 -2.80 -2.20 -6.15 -5.55 -8.90 -8.80 -1.95 -2.30 -2.20 -2.45 -2.80 -1.60 -0.35 0.45 -0.80 0.85 -0.95 0.85 -0.15 0 -0.40 -1.75 -0.55 -3.85 -0.25 -2.65 -0.05 -6.70 0.65 -12.65 1 -8.75 2.25 -25.05 2.80 -37.25 0.20 -3.55 0.40 -6.85 0.55 -7.30 0.10 -0.45 -0.35 -1.35 -1.05 -2 -1.05 -1.05 -1.25 -1.65 -1.25 -4.25 0 -2.25 0.20 -3.15 0.70 -3.35 0.40 -0.15 1.10 -0.85 1.55 -1.55 0.75 -1.10 0.75 -1.35 0.05 -2.70 -1.95 -3.75 -2.95 -8.60 -1.80 -8.60 0.30 0 0.50 0.25 0.50 0.55 0 0.30 1.10 -0.85 2.40 -2.50 1.35 -1.65 4.10 -4.40 6.15 -6.10 2.05 -1.70 3.90 -3.25 4.15 -3.50 0.55 -0.45 -1.70 -3.35 -6.50 -8.45 -13.10 -13.95 -18.15 -21.55 -25.95 -39.25 -1.55 -3.55 -3.45 -7.40 -4.20 -8.50 -0.70 -1.10 -1.55 -2.45 -1.90 -3 -0.35 -0.55 -1.55 -2.55 -2.70 -4.50 -6.05 -9.90 -10.50 -21.25 -15.50 -39.25 -2.25 -8.15 -3.25 -11.25 -6.95 -21.25 -3.80 -10.40 -6.60 -20.55 -9.45 -34.25 -1.40 -6.75 -3.40 -16.20 -4.50 -21 -2.10 -9.30 -3.60 -18.45 -4.80 -29.50 -0.50 -4.90 -1.25 -8.50 -2.70 -13 -1.05 -3.45 -2.45 -8.15 -3.05 -10.50 -0.60 -2.35 -1.20 -4.60 -1.35 -5 -0.15 -0.40 -0.35 -1.30 -0.45 -2 -0.10 -0.70 -0.40 -2.25 -0.65 -3.50 -0.30 -1.25 -1 -5.15 -1.60 -8.75 -0.60 -3.55 -1.25 -7.40 -1.45 -8.50 -2.65 -14.05 -3.35 -20.45 -3.95 -36.25 -0.35 -9.10 -0.65 -11.70 -1.85 -16.90 -1.15 -4.95 -1.55 -6 -2 -5.40 -0.30 0.45 -0.70 0.80 -0.90 0.80 -0.95 0 0.25 -19.25 1.50 -24.25 0.40 -1.65 2.55 -8.75 4.70 -15.75 3.95 -12.75 14.50 -40.35 16.55 -43.15 0.55 -0.80 1.50 -2.80 2.05 -4.50 1.30 -4 5.30 -11.80 10.55 -20.60 l4.20 -7 8.70 -0.10 c14.15 -0.15 21.15 -1 45.95 -5.65 7.85 -1.45 16.20 -2.70 20.45 -3 6.80 -0.55 17.55 -1.85 25 -3.05 3.25 -0.50 4.50 -0.65 17.05 -2.15 3.45 -0.40 11 -1.10 16.75 -1.55 24.25 -1.85 30.70 -2.90 43.25 -7.05 11.70 -3.85 16.30 -4.85 27.35 -5.70 9 -0.75 28 -3.25 40.10 -5.25 7.20 -1.20 17.05 -3.50 33.25 -7.75 23.85 -6.20 44.05 -11.20 71.55 -17.75 11.15 -2.65 19.35 -4.95 27 -7.55 6.05 -2.05 14.75 -4.75 19.35 -6 11.80 -3.10 15.90 -4.45 22.05 -7.25 5.15 -2.30 8.35 -3.05 8.35 -1.95 0 0.30 -0.20 0.50 -0.50 0.50 -0.25 0 -0.50 0.25 -0.50 0.50 0 0.30 0.35 0.50 0.75 0.50 1.80 0 14.60 4.65 21.25 7.75 4 1.85 11.10 4.90 15.75 6.80 15.90 6.55 27.75 13.15 45.75 25.45 4.85 3.30 6.70 4.25 6.30 3.25 -0.20 -0.55 0.10 -0.75 0.90 -0.75 0.95 0 1.40 0.55 2.45 2.90 4.85 10.80 7.75 21.15 10.10 36 2.35 14.90 2.80 16.70 4.35 18.30 1.30 1.30 1.50 1.35 2.50 0.70 2.20 -1.45 2.20 -1.75 0.25 -14 -1.05 -6.40 -1.85 -12.50 -1.85 -13.50 0 -1.80 0.05 -1.90 1.70 -1.90 1.50 0 1.85 0.30 3.05 2.30 1.15 1.95 1.30 2.70 1.05 4.55 -0.25 1.95 0.05 2.90 2.85 9.05 1.75 3.75 5.50 11 8.35 16.10 7.25 13 18.05 34.35 22.05 43.75 1.20 2.90 9.05 32.10 11.90 44.50 2.20 9.40 3.45 16.30 5.05 27.50 0.60 4.15 1.30 8.20 1.55 9.05 1 3.30 3.55 4 5.25 1.45 0.75 -1.10 0.70 -1.75 0 -7.05 -0.45 -3.15 -0.80 -6.55 -0.80 -7.50 0 -1.60 0.10 -1.70 1.65 -1.70 l1.60 0 1.75 5.65 c0.95 3.05 2.65 8.65 3.85 12.35 2.30 7.25 2.65 9.50 1.40 9.50 -0.40 0 -0.75 -0.40 -0.75 -0.85 0 -0.45 -0.10 -0.70 -0.25 -0.55 -0.25 0.20 -0.40 2.85 -1 15.15 -0.55 11.40 -1.80 28 -2.50 34 -0.40 3.30 -0.95 10.15 -1.25 15.25 -0.30 5.10 -0.65 10.25 -0.80 11.50 -0.40 3.05 -1.65 10.55 -1.95 11.50 -1 3.25 -1.75 12.85 -2.05 26.05 l-0.35 15.30 1.30 2.75 c2.25 4.80 3.80 9.95 7.10 24.05 2.20 9.30 2.50 10.25 5.35 15.25 3.85 6.90 5.30 9.10 5.90 9.10 0.30 0 0.50 -0.35 0.50 -0.75 0 -0.40 0.35 -0.75 0.80 -0.75 0.70 0 0.80 0.40 0.55 2.95 -0.30 2.50 -0.15 3.15 0.65 4.20 0.95 1.15 1.25 1.25 3.75 1 l2.75 -0.30 0 2.70 c0 1.50 -0.40 4.30 -0.80 6.20 -0.45 1.95 -1 4.85 -1.25 6.50 -0.35 2.65 -0.30 3.15 0.65 4.45 0.95 1.35 1 1.85 0.70 7 l-0.30 5.55 3.30 5.25 c4.50 7.20 7.55 13.60 8.50 17.75 0.45 1.95 1 4.20 1.25 5.05 0.25 0.90 0.65 3.05 0.85 4.90 0.25 1.80 0.80 3.65 1.20 4.15 0.95 1.05 2.90 8.30 2.90 10.85 0 1.70 -0.10 1.80 -1.60 1.80 -0.90 0 -2 -0.20 -2.35 -0.45 -1.10 -0.70 -2.50 0.25 -3.35 2.20 -0.60 1.45 -0.60 2.90 0.15 10.95 0.70 7.30 0.75 9.40 0.25 9.90 -0.45 0.45 -0.60 0.40 -0.60 -0.25 0 -0.70 -0.40 -0.50 -1.85 0.85 -2.80 2.55 -7.90 6.55 -10.45 8.15 -1.20 0.75 -2.20 1.70 -2.20 2.05 0 1.10 -1.10 0.60 -3.20 -1.50 -2.60 -2.60 -7.10 -8.40 -7.90 -10.20 -0.70 -1.50 -2.80 -2.70 -4.80 -2.70 -0.80 0 -2.30 -0.55 -3.30 -1.25 -1 -0.70 -2.15 -1.25 -2.55 -1.25 -1 0 -2.70 2.35 -2.95 4.20 -3.15 20.45 -3.45 21.80 -4.35 21.80 -0.55 0 -0.95 -0.30 -0.95 -0.70 0 -0.50 -1.20 -0.75 -4.60 -1.05 -4.25 -0.30 -9.55 -1.15 -13 -2 l-1.35 -0.35 1.70 4.25 c3.50 9 4 12.20 4 26.10 0 14.65 0.80 22.90 2.40 24.65 1.20 1.30 1.85 1.40 1.85 0.35 0 -0.40 0.35 -0.75 0.80 -0.75 0.75 0 0.80 0.50 0.50 3.95 -1.10 12.20 0.30 54.60 2.25 69.80 1.10 8.45 5.45 30.55 6.35 31.95 0.60 1 1.05 14.05 0.50 15.85 -0.40 1.40 -0.30 2.95 0.35 6.75 0.60 3.60 0.95 10.25 1.25 24.45 0.25 10.75 0.80 23.75 1.25 28.90 1.10 13.75 1.05 15.15 -0.75 17.80 -1.95 2.85 -3.20 7 -5.05 16.55 -1.95 10.20 -2.15 10.85 -4.05 13.75 -1.35 2 -2.35 2.85 -5.35 4.40 -2.35 1.20 -4.40 1.85 -5.60 1.85 -1.75 0 -2 -0.20 -2.65 -1.70 -1.20 -2.85 -2.20 -3.05 -6.10 -1 -6.05 3.05 -11.45 3.85 -25.70 3.85 -17.30 -0.05 -22.50 -0.60 -35.50 -3.70 -10.20 -2.45 -10 -2.40 -10 -3.45 0 -0.65 0.25 -0.90 0.75 -0.70 0.55 0.25 0.65 0.10 0.45 -0.55 -0.20 -0.50 -0.70 -0.75 -1.25 -0.60 -1.30 0.35 -1.25 -1.30 0.10 -3.10 0.90 -1.20 0.95 -1.55 0.40 -2.45 -0.70 -1.15 -2.50 -2.10 -3.90 -2.10 -0.60 0 -1.10 -0.60 -1.45 -1.85 -1.20 -4 -4.35 -7.80 -10.35 -12.55 -4.70 -3.80 -5.75 -4.85 -5.75 -5.95 0 -1.30 0 -1.30 1.05 -0.40 1 0.95 1 0.95 0.50 -0.25 -0.25 -0.70 -1.15 -2.75 -1.95 -4.60 -2.05 -4.50 -4.80 -13.20 -5.85 -18.40 -0.70 -3.55 -3.80 -12.65 -5.20 -15.50 -0.25 -0.40 -1.30 -0.95 -2.35 -1.15 -2.15 -0.50 -10.75 -2.60 -12.70 -3.15 -1.10 -0.35 -1.20 -0.30 -0.55 0.45 0.60 0.75 0.55 0.85 -0.55 0.85 -0.80 0 -1.80 -0.75 -3.10 -2.30 -2.20 -2.60 -4.50 -4.20 -6.15 -4.20 -0.95 0 -1.15 -0.30 -1.15 -1.45 0 -0.95 -0.50 -2 -1.50 -2.95 -1.30 -1.30 -1.75 -1.45 -3.50 -1.25 -2.80 0.40 -4 -0.75 -4 -3.70 l0 -2.20 3.55 0.10 c2.85 0.10 3.75 -0.10 4.85 -0.90 1.70 -1.25 1.90 -2.20 0.75 -3.60 -1.10 -1.30 -3.80 -2 -7.95 -2.05 -2.55 0 -3.25 -0.20 -4.40 -1.25 -0.75 -0.70 -1.60 -1.25 -1.95 -1.30 -0.35 -0.05 -2.95 -0.15 -5.85 -0.20 -2.90 -0.10 -5.80 -0.20 -6.50 -0.20 -0.70 -0.05 -2.10 0.05 -3.15 0.25 -1.35 0.20 -2.60 0.05 -4.25 -0.60 -2.15 -0.85 -3.75 -0.95 -18.10 -0.85 -26.85 0.25 -30.35 0.85 -45 8.25 -7.80 3.95 -10 4.55 -11.95 3.30 -1.30 -0.80 -5.35 0.70 -14.65 5.45 -6.95 3.60 -7.50 3.80 -9.80 3.50 -3.15 -0.35 -3.90 0.15 -6.85 4.85 -2.45 4 -7 8.30 -8.70 8.30 -0.65 0 -0.90 -0.25 -0.75 -0.65 0.15 -0.50 -1.05 -0.90 -4.65 -1.50 -2.70 -0.50 -5.50 -1 -6.25 -1.15 -1.55 -0.35 -1.60 -1.35 0.65 14.30 1.90 13.10 1.75 12.65 2.95 12.35 1.25 -0.30 1.30 0.80 0.25 3.30 -1.65 4 -0.40 24.35 2.05 32.70 1.70 5.85 1.50 8.65 -1.55 18.55 -0.50 1.70 -1.05 2.60 -1.55 2.60 -0.60 0 -0.75 -0.35 -0.50 -1.35 0.15 -0.80 -0.25 -0.30 -0.95 1.20 -0.65 1.40 -1.45 2.70 -1.70 2.90 -0.30 0.15 -0.55 0.65 -0.55 1.10 0 0.40 -0.40 1.35 -0.90 2.05 -0.55 0.75 -1.05 1.85 -1.20 2.45 -0.25 1 -0.20 1.05 0.65 0.60 0.80 -0.40 0.95 -0.30 0.95 0.50 0 1.45 -1.75 2.40 -5.70 3.10 -2.60 0.45 -3.80 0.95 -4.90 2 -1.70 1.60 -5.65 2.65 -18 4.70 -14.10 2.40 -19.20 3.75 -33.40 9 -8.90 3.25 -9.45 3.40 -14.80 3.65 -4.65 0.20 -5.75 0.10 -6.85 -0.65 -1.45 -0.95 -2.95 -0.45 -3.85 1.25 -0.40 0.80 -1.05 1 -2.90 0.95 -1.30 0 -2.65 -0.15 -2.95 -0.30z m91.40 -281.60 c0.80 -0.80 1.45 -1.85 1.45 -2.30 0 -1.80 14.30 -21.25 15.60 -21.25 1.75 0 4.30 -1.55 4.85 -2.90 1.10 -2.75 5.50 -19.55 6.85 -26.35 0.80 -3.85 1.40 -7.05 1.45 -7.10 0 0 3.70 -0.55 8.25 -1.10 22.05 -2.85 49.15 -10.30 70 -19.20 5.80 -2.50 8.30 -3.35 10 -3.30 l2.25 0 9.95 11.20 c5.45 6.15 11.45 13.25 13.30 15.85 l3.35 4.65 3 -0.15 c2.80 -0.15 3.20 -0.05 6.45 2 1.90 1.20 4.40 2.60 5.50 3.10 1.90 0.80 2.20 0.85 3.55 0.10 0.85 -0.40 1.80 -1.45 2.15 -2.30 0.55 -1.35 0.50 -1.90 -0.75 -4.90 -2.25 -5.30 -5.75 -12.15 -11.25 -21.85 -5 -8.85 -5.10 -9 -4.75 -11.50 0.15 -1.35 0.25 -4.45 0.25 -6.80 l-0.05 -4.25 4 -2.35 c5.20 -3 12.35 -8.85 19.60 -15.95 5.85 -5.70 8.25 -9.10 7.70 -10.90 -0.45 -1.35 -2.55 -2.90 -4.80 -3.50 -1.10 -0.30 -1.95 -0.85 -1.95 -1.25 0 -0.40 -0.55 -1.10 -1.25 -1.55 -1.90 -1.25 -3.40 0 -4.70 3.95 -1.30 3.90 -5.20 8.55 -7.55 9.05 -0.95 0.15 -2.35 1.15 -3.55 2.45 -1.10 1.20 -3.80 3.50 -6 5.10 -3.80 2.75 -4.10 2.85 -6.30 2.60 -2.30 -0.25 -2.35 -0.20 -5.20 2.70 -3.65 3.90 -5.85 5.45 -7.45 5.45 -2.75 0 -4.30 0.95 -5.55 3.40 -1.05 2.05 -1.60 2.50 -4.45 3.70 -7.75 3.25 -10.45 4.10 -14 4.40 -3 0.25 -4.70 0.80 -8.50 2.65 -5.40 2.60 -10.30 4.25 -18.25 6.10 -3 0.70 -7.05 1.75 -9 2.25 -5.35 1.45 -18.10 3.90 -22 4.25 -5.45 0.55 -7.10 1.10 -8.10 2.75 -1 1.75 -1 1.70 -6.85 2.75 -6 1 -8.15 1 -8.50 -0.15 -0.65 -2 -2.05 -2.20 -6.70 -0.85 -7.70 2.20 -18.80 3.85 -23.35 3.50 -5.10 -0.45 -9.45 -2.15 -11.60 -4.65 -1.45 -1.70 -1.80 -1.85 -5.25 -2.15 -4.30 -0.40 -4.45 -0.35 -5.60 1.55 -0.75 1.35 -1.15 1.50 -3.25 1.50 -1.65 0 -2.60 0.25 -3.15 0.90 -1.10 1.30 -2.90 4.55 -2.90 5.30 0 2.20 7.15 4.80 15.65 5.75 2.65 0.30 9.25 0.55 14.65 0.55 l9.85 0 -0.30 3.30 c-0.40 3.95 -3.75 17.70 -5.85 23.95 -0.80 2.45 -2.10 5.30 -2.85 6.35 l-1.30 1.95 1.30 1.35 c1.75 1.80 1.70 3.20 -0.10 8.35 -0.85 2.30 -1.85 6.05 -2.30 8.30 -0.80 4.25 -0.70 4.70 1.25 6.30 1.10 0.90 1.40 0.80 3.05 -0.80z m3.90 -175 c7.70 -3.45 9.55 -4.55 7.90 -4.55 -0.45 0 -0.85 -0.35 -0.85 -0.80 0 -0.75 0.50 -0.80 4.15 -0.50 17 1.45 27.80 1.65 40.60 0.80 13.20 -0.90 17.65 -2.30 17.75 -5.60 0 -0.45 0.25 -1 0.50 -1.15 0.30 -0.20 5.45 -1.20 11.40 -2.25 12.35 -2.20 24.85 -5.25 29.60 -7.25 1.80 -0.75 6.20 -2.10 9.75 -3 3.60 -0.90 8.65 -2.45 11.20 -3.50 5 -1.95 8.55 -2.75 8.55 -1.85 0 0.30 -0.30 0.65 -0.60 0.75 -0.40 0.15 -0.25 0.30 0.25 0.30 1.40 0.05 8 -2.25 11.75 -4.15 3.70 -1.90 7.70 -5 5.75 -4.45 -0.80 0.20 -1.15 0.05 -1.15 -0.50 0 -1 0.85 -1.60 3.25 -2.35 3.65 -1.15 9.80 -4.65 12.50 -7.10 3.25 -2.95 5.30 -6.05 7.55 -11.50 3.15 -7.60 6.35 -13.90 7.05 -13.90 0.35 0 0.65 -0.35 0.65 -0.80 0 -0.45 0.90 -2.45 2 -4.45 6.80 -12.30 10.20 -23.45 8.30 -27.15 -0.45 -0.85 -0.80 -2.20 -0.80 -3 0 -1.40 1.40 -8.75 3.75 -19.85 2.70 -12.70 4.75 -26.80 4.75 -32.95 0 -4.35 -2.30 -22.20 -4.05 -31.30 -0.60 -2.90 -1.80 -7.65 -2.75 -10.65 -2.10 -6.35 -3.20 -11.30 -3.20 -14.20 0 -2.20 0.60 -2.75 1.40 -1.35 1 1.80 1.10 -0.50 0.30 -7.40 -0.45 -3.95 -1.15 -8.05 -1.55 -9.15 -5.30 -13.90 -5.55 -14.45 -8.30 -17 -2.65 -2.50 -3.05 -2.85 -6.40 -5.40 -2 -1.50 -3.05 -1.75 -2.65 -0.60 0.20 0.50 0 0.75 -0.70 0.75 -0.75 0 -1.55 -1.10 -3.40 -4.60 -2.95 -5.80 -5.85 -10.15 -7.45 -11.20 -1.15 -0.75 -1.35 -0.75 -2.50 0 -0.70 0.45 -1.40 1.50 -1.60 2.30 -0.30 1.50 -1.65 2.15 -1.65 0.75 0 -0.35 -1.65 -1.80 -3.60 -3.10 -5.10 -3.35 -5.30 -3.45 -4.20 -2.25 0.95 1.10 0.95 1.10 -0.35 1.10 -0.80 0 -2.20 -0.80 -3.60 -2 -1.30 -1.10 -4.15 -3.40 -6.40 -5.10 -2.25 -1.70 -7.15 -6 -10.85 -9.65 -5.80 -5.60 -7.90 -7.30 -14.75 -11.60 -4.40 -2.80 -10.90 -7.10 -14.50 -9.55 -13.60 -9.35 -23.30 -14 -33.15 -15.90 -3.35 -0.65 -3.95 -0.95 -6.75 -3.50 -4.95 -4.45 -10.90 -6.95 -19.60 -8.20 -4.90 -0.70 -29.05 -0.60 -34.50 0.10 -2.50 0.35 -8.40 0.55 -13.25 0.50 -5.15 -0.10 -12.55 0.20 -18 0.65 -5.10 0.45 -10.60 0.70 -12.25 0.50 -3.40 -0.35 -4.35 0.20 -5 2.90 -0.20 0.80 -0.80 1.45 -1.45 1.60 -0.55 0.15 -4.25 1.05 -8.20 2 -8.30 2 -10.65 2.15 -12.45 0.75 l-1.25 -1 -8.60 4.35 -8.55 4.30 -14.45 14.50 c-13.25 13.35 -24 24.80 -29.15 31.10 -3.05 3.75 -7.65 10.80 -7.65 11.75 0 0.45 0.55 1.35 1.25 2 1.70 1.60 1.60 3.30 -0.55 7.10 -3 5.25 -8.25 15.95 -9.55 19.35 -1.20 3.20 -1.20 3.25 -0.25 4.50 0.75 1.05 1.45 1.35 3.55 1.45 2.50 0.15 2.55 0.20 2.55 1.75 0 2.45 -1.25 6.55 -2.50 8.25 -0.95 1.30 -1.25 2.65 -1.80 8.70 -0.35 3.95 -1.10 10.40 -1.65 14.40 -4.20 30.10 -3.60 48.55 2.05 61 1 2.20 1.60 4.60 1.90 7.50 2.20 20.65 4.80 27.80 19.55 53.75 3.90 6.90 7.45 13.65 7.95 15.05 1.25 3.65 2.10 5.05 5.10 8.95 1.50 1.95 4.25 6.20 6.10 9.50 4.70 8.25 7.25 11.80 12.25 16.80 6.60 6.65 14.65 11.35 25.50 14.95 5.45 1.85 14.20 3.50 18.25 3.50 1.25 0 1.80 0.20 1.80 0.75 0 0.40 -0.40 0.75 -0.85 0.75 -1.10 0 6.45 4.20 10.45 5.85 3.30 1.30 13.35 2.90 19.90 3.05 2.45 0.10 3.70 -0.30 10.45 -3.35z m189.20 -71.60 c0.35 -1.35 -0.40 -1.20 -1.05 0.30 -0.45 0.95 -0.45 1.15 0.10 0.95 0.40 -0.15 0.80 -0.70 0.95 -1.25z"/>
  <path d="M517 1050.10 c0 -0.75 0.65 -3.35 1.45 -5.85 1.50 -4.55 1.50 -5.35 -0.15 -6.75 -1.05 -0.80 -1 -3.50 0.15 -9.25 l0.85 -4.50 4.85 -0.15 c4.75 -0.15 4.85 -0.10 4.85 1 0 1.65 -2.65 13.75 -4.25 19.40 -1.50 5.40 -3.20 7.45 -6.10 7.50 -1.45 0 -1.65 -0.15 -1.65 -1.40z"/>
  <path d="M655.65 1019.65 c-6.35 -7.25 -6.85 -7.65 -8.95 -7.70 -1.75 0 -2.20 -0.30 -4.05 -2.60 -1.20 -1.45 -3.15 -3.80 -4.40 -5.30 -1.25 -1.50 -2.25 -2.85 -2.25 -3.05 0 -0.15 -0.70 -0.70 -1.55 -1.20 -1.30 -0.75 -1.50 -1.15 -1.35 -2.65 0.15 -1.70 0.25 -1.80 5.10 -3.70 2.70 -1.05 5.75 -1.95 6.75 -1.95 l1.85 0 4.05 7.40 c2.20 4.05 5.70 10.40 7.85 14.15 2.80 5 3.80 7.30 3.80 8.65 0 1.70 -0.10 1.80 -1.70 1.80 -1.55 0 -2.15 -0.45 -5.15 -3.85z"/>
  <path d="M406.50 838.70 c-0.80 -2.10 -0.65 -6.20 0.25 -6.20 0.40 0 0.75 0.30 0.75 0.70 0 0.40 0.20 0.80 0.50 0.90 0.25 0.10 0.65 1.45 0.90 3.05 0.45 2.80 0.45 2.85 -0.75 2.85 -0.80 0 -1.35 -0.40 -1.65 -1.30z"/>
  <path d="M402.20 826.15 l-2.60 -0.20 -2.05 -4.60 c-2.20 -4.90 -2.50 -6.60 -1.30 -8.15 1.10 -1.50 0.95 -1.90 -2.05 -5.30 -6.85 -7.75 -11.05 -21.95 -12.95 -43.90 -1.85 -21.45 -0.35 -50.05 3 -56.50 0.40 -0.80 0.75 -2.40 0.75 -3.60 0 -1.20 0.55 -3.50 1.25 -5.10 l1.20 -2.95 -1.50 -1.35 c-1.75 -1.70 -1.80 -2.15 -0.45 -14 2.10 -18.90 6.55 -39.35 9.65 -44.50 1.95 -3.25 13.35 -17.60 15.10 -19.10 0.55 -0.45 2.05 -1.30 3.30 -1.95 2.45 -1.10 3.45 -2.55 3.45 -4.90 0 -1.10 0.80 -2.05 3.90 -4.70 2.45 -2.15 4.55 -3.55 5.85 -3.85 2.50 -0.65 3.65 -1.20 5.25 -2.50 0.70 -0.55 2.90 -1.30 4.90 -1.70 2.45 -0.45 4.10 -1.10 4.90 -1.85 1.45 -1.40 1.50 -2.15 0.15 -3.50 -0.70 -0.70 -0.95 -1.50 -0.85 -2.55 0.15 -1.40 0.45 -1.65 3.15 -2.65 1.65 -0.65 7.40 -2.20 12.75 -3.50 5.35 -1.30 14.80 -3.55 20.95 -5.05 13.05 -3.20 19.20 -3.75 31.55 -2.75 6 0.50 39.20 5.50 42.15 6.35 0.60 0.20 0.85 0.80 0.85 1.90 0 0.95 0.45 2.25 1.05 3 0.85 1.05 1.45 1.30 3.35 1.30 2.20 0 2.45 0.15 5.60 3.40 6.20 6.35 9 9.90 9 11.25 l0 1.30 -1.85 -0.90 c-4.70 -2.30 -11.55 -5 -13.15 -5.15 -0.95 -0.10 -6.70 0.05 -12.75 0.25 -8.65 0.35 -13.20 0.80 -21.35 2.10 -5.65 0.95 -14 2.30 -18.50 3 -4.85 0.75 -15.20 3.10 -25.65 5.75 -9.60 2.50 -27.90 7.15 -40.65 10.35 l-23.10 5.80 -0.85 1.80 c-0.50 1 -2.10 3.95 -3.55 6.55 -6.30 11.05 -7.40 13.85 -10.35 25.30 -9.45 36.75 -14.15 59.35 -14.60 70.20 -0.25 7.40 0.45 11.70 4 23.70 3 10.10 4.20 15.10 5.80 24.55 0.60 3.30 1.60 7.90 2.25 10.25 0.65 2.35 2.10 7.40 3.20 11.25 2.40 8.30 4.90 19 5.40 22.80 0.15 1.50 0.65 3.20 1 3.85 0.80 1.25 1.30 1.15 -4.60 0.75z"/>
  <path d="M374.50 673.80 c0 -0.95 0.60 -3.10 1.30 -4.75 1.25 -2.90 1.40 -3.05 3.10 -3.05 l1.75 0 -0.30 4.15 c-0.40 4.65 -0.90 5.35 -3.95 5.35 -1.85 0 -1.90 -0.05 -1.90 -1.70z"/>
  <path d="M613.25 611.60 c-0.70 -0.65 -4.40 -1.50 -8 -1.85 -4.80 -0.50 -14.45 -2.20 -21.75 -3.85 -3.70 -0.80 -7.25 -1.50 -7.85 -1.50 -1.50 -0.05 -1.45 -1.15 0.10 -3 l1.25 -1.50 -1.60 -2.15 c-0.90 -1.20 -3.15 -3.85 -5 -5.90 -2.70 -2.95 -3.40 -4.05 -3.40 -5.30 l0 -1.65 3.90 0.35 c3 0.30 4.35 0.65 6.10 1.80 1.25 0.75 5.95 3.20 10.50 5.35 11.95 5.75 18 9.45 24.20 14.95 1.90 1.65 2.35 2.35 2.20 3.40 -0.10 0.85 -0.35 1.15 -0.65 0.85z"/>
  <path d="M840.20 1278.15 c0.55 -10.65 -0.60 -26.75 -2.75 -38.65 -0.20 -1.25 -0.75 -4.15 -1.15 -6.50 -0.45 -2.35 -0.80 -6 -0.80 -8.10 l0 -3.90 1.75 0 c1.80 0 2.35 0.65 1 1.20 -0.65 0.25 -0.50 0.85 0.95 3.65 4.50 9 7.30 21.30 7.30 32.15 0 10.55 -3.60 26.45 -5.95 26.50 -0.60 0 -0.65 -1.05 -0.35 -6.35z"/>
  <path d="M568.80 1241.60 c-0.30 -0.50 -1.30 -0.60 -3.35 -0.50 -2.75 0.20 -2.95 0.10 -2.95 -0.85 0 -0.85 0.45 -1.25 1.95 -1.65 4.05 -1.25 5.30 -0.65 4.95 2.25 -0.10 1 -0.30 1.20 -0.60 0.75z"/>
  <path d="M833 1137.75 c0 -13.20 0.10 -15.25 0.75 -15.25 0.40 0 0.75 0.35 0.75 0.75 0 0.40 0.20 0.75 0.50 0.75 1.10 0 1.70 4.55 1.75 13.50 0 10.20 -0.40 14 -1.55 14 -0.40 0 -0.70 0.35 -0.70 0.75 0 0.40 -0.35 0.75 -0.75 0.75 -0.65 0 -0.75 -2.05 -0.75 -15.25z"/>
  <path d="M311.50 1114.80 c0 -0.35 -0.55 -0.80 -1.25 -0.90 -0.85 -0.20 -1.25 -0.05 -1.25 0.40 0 0.40 -0.35 0.70 -0.75 0.70 -0.50 0 -0.75 -0.55 -0.75 -1.75 0 -1.45 0.25 -1.85 1.35 -2.30 0.75 -0.25 2.05 -0.45 2.85 -0.35 1.65 0.15 2.15 1.35 1.60 3.70 -0.35 1.25 -1.80 1.70 -1.80 0.50z"/>
  <path d="M273.55 1040.30 c-1 -4 -0.45 -6.20 0.95 -3.90 0.45 0.70 0.50 0.60 0.25 -0.50 -0.25 -1.25 -0.10 -1.40 0.95 -1.40 1.60 0 2.55 2.65 2.05 5.80 -0.30 2.10 -0.40 2.20 -1.95 2.20 -1.55 0 -1.70 -0.15 -2.25 -2.20z"/>
  <path d="M883.75 980.90 c-1.05 -2.55 -3 -7 -4.40 -9.90 -3.30 -7.05 -4.05 -9.30 -5.85 -17.65 -1.35 -6.25 -1.70 -7.25 -3 -8.45 -0.95 -0.90 -2.10 -1.40 -3 -1.40 l-1.50 0 0.05 -8.10 c0.05 -4.50 0.20 -10.05 0.35 -12.40 0.35 -4 0.45 -4.25 1.55 -4.40 0.65 -0.10 1.05 0 0.90 0.25 -0.20 0.25 1.20 2.05 3.05 3.95 5.05 5.20 8.30 9.80 11.65 16.45 4.30 8.65 5.50 13.70 5.80 24.50 0.20 5.45 0.05 9.75 -0.35 12 -0.30 1.95 -0.70 4.55 -0.85 5.90 -0.15 1.30 -0.45 2.35 -0.70 2.35 -0.25 0 -0.30 0.35 -0.15 0.75 0.20 0.50 0 0.75 -0.70 0.75 -0.75 0 -1.35 -1 -2.85 -4.60z"/>
  <path d="M833.65 672 c-2.55 -6.30 -4.65 -12.10 -4.65 -12.90 0 -1.05 0.35 -1.60 1.25 -2 2 -0.95 2 -2.55 0 -8.95 -4.50 -14.40 -11 -29.35 -19.50 -44.90 -7.70 -14.15 -7.50 -13.70 -10 -22.35 -2.10 -7.30 -2.75 -11.45 -1.85 -11.40 0.65 0.05 6.80 8 11.25 14.60 4.90 7.20 9.10 15.15 11.95 22.40 2.85 7.30 6 15.10 9.10 22.50 3.95 9.35 5.65 16.35 6.55 27 0.15 2.05 0.75 7.90 1.25 13 1.45 13.95 1.45 14.50 0.25 14.50 -0.85 0 -1.75 -1.90 -5.60 -11.50z"/>
  <path d="M787.90 563.55 c-1.10 -2 -1.90 -4.15 -1.90 -5.10 l0 -1.60 3.30 3.20 c4.95 4.75 5.15 4.95 5.70 4.95 0.30 0 0.50 0.30 0.50 0.70 0 0.80 -1.50 1.30 -4 1.30 -1.65 0 -1.85 -0.20 -3.60 -3.45z"/>
  <path d="M284.15 554.15 l-4.65 -0.20 0 -1.95 c0 -1.85 0.10 -2 1.45 -2 0.80 0 7.70 -1.15 15.40 -2.55 12.55 -2.30 37.05 -5.95 45.05 -6.80 l3.10 -0.30 0 1.75 c0 1.75 0 1.75 -3.60 2.80 -11.95 3.40 -27.25 7.30 -30.90 7.80 -4.50 0.70 -17.30 1.80 -19.25 1.70 -1.10 -0.05 -4.10 -0.20 -6.60 -0.25z"/>
  <path d="M369 543.80 c0 -1.55 0.15 -1.70 1.85 -2.05 1.05 -0.20 5.15 -1.25 9.15 -2.30 7.50 -2.05 33.40 -7.45 35.70 -7.45 1.15 0 1.30 0.20 1.30 1.75 0 1.70 -0.05 1.70 -3.45 2.75 -12.90 3.85 -37.35 9 -42.65 9 -1.80 0 -1.90 -0.05 -1.90 -1.70z"/>
  <path d="M450 531.30 l0 -1.65 8.40 -2.05 c4.60 -1.15 11.30 -2.75 14.85 -3.60 3.60 -0.85 9.85 -2.55 13.95 -3.80 9.60 -2.90 16.30 -4.60 19.95 -5 1.60 -0.20 3.20 -0.65 3.55 -1 0.35 -0.35 3 -0.90 5.85 -1.25 7.85 -0.85 22.20 -3.25 34.85 -5.70 6.25 -1.25 12.30 -2.25 13.50 -2.25 2.05 0 2.10 0.05 2.10 1.65 l0 1.60 -17.85 4.45 c-9.85 2.45 -26.35 6.65 -36.65 9.35 -10.30 2.70 -21.85 5.50 -25.65 6.20 -8.85 1.60 -31.65 4.75 -34.60 4.75 -2.20 0 -2.25 0 -2.25 -1.70z"/>
  <path d="M619 488.40 c0 -1.45 0.20 -1.85 1.15 -2.05 0.60 -0.10 3.65 -0.80 6.80 -1.55 3.10 -0.70 6.80 -1.30 8.10 -1.30 2.45 0 2.45 0 2.45 1.65 l0 1.70 -6.10 1.40 c-3.35 0.75 -7.50 1.50 -9.25 1.65 l-3.15 0.25 0 -1.75z"/>
  <path d="M451 487.75 c0 -0.95 0.10 -1.75 0.25 -1.75 0.10 0 4.25 -1 9.10 -2.20 4.90 -1.25 12.15 -2.90 16.15 -3.75 4 -0.85 10.50 -2.55 14.50 -3.80 4 -1.25 8.95 -2.70 11 -3.25 6.10 -1.55 22.65 -5 24.15 -5 1.20 0 1.35 0.20 1.35 1.65 l0 1.65 -6.85 2.55 c-7.85 2.90 -14.80 5 -23.75 7.10 -9.85 2.35 -41.70 8.55 -43.90 8.55 -1.95 0 -2 -0.05 -2 -1.75z"/>
  <path d="M534.50 474.35 c0 -1.50 0.25 -1.80 2.15 -2.60 1.15 -0.50 3.10 -1.35 4.35 -1.90 1.25 -0.55 3.25 -1.10 4.45 -1.25 l2.20 -0.25 -0.25 2.65 c-0.15 1.40 -0.55 2.80 -0.95 3 -0.80 0.55 -8.70 2 -10.55 2 -1.25 0 -1.40 -0.20 -1.40 -1.65z"/>
 </g>
 <g fill="#f7bdb2">
  <path d="M388.25 482 c-9.25 -0.20 -17.70 -0.60 -19.25 -0.90 -1.50 -0.30 -6.55 -0.90 -11.15 -1.30 l-8.45 -0.75 -1.65 -1.90 -1.70 -1.90 -0.05 -9.60 0 -9.65 2.65 0 c1.40 0 4.30 0.30 6.35 0.70 2.05 0.40 8.05 1.10 13.25 1.60 14.40 1.30 19.95 0.70 52.25 -5.50 21.25 -4.10 43.20 -8.55 52.75 -10.80 4.70 -1.05 11.20 -2.55 14.45 -3.30 7.15 -1.55 17.25 -4.95 29.65 -10 6.50 -2.65 11.50 -4.30 17.45 -5.70 11.80 -2.90 17.10 -4.70 24.20 -8.30 3.85 -1.95 9.80 -4.35 15.50 -6.25 5.10 -1.65 9.85 -3.35 10.60 -3.75 2.15 -1.10 4.75 -0.90 5.45 0.45 0.35 0.60 2.15 3.25 4.05 5.90 2.45 3.50 3.40 5.25 3.40 6.40 0 0.95 -0.25 1.55 -0.65 1.55 -0.35 0 -1.55 0.90 -2.60 2.05 -2.20 2.20 -12.40 9.25 -19.45 13.40 -2.45 1.45 -8.95 4.85 -14.45 7.60 -10.40 5.25 -15.90 8.40 -21.35 12.45 -5.70 4.15 -10.80 6.20 -22.15 8.75 -3.10 0.70 -9.85 2.30 -15.10 3.50 -8.80 2.05 -35.70 7.75 -53.50 11.30 -17.10 3.40 -17.75 3.50 -17.75 2.20 0 -0.40 0.30 -0.75 0.70 -0.75 0.40 0 0.90 -0.25 1.10 -0.55 0.20 -0.35 0 -0.45 -0.60 -0.30 -0.85 0.25 -3.15 0.55 -14.70 1.85 -1.80 0.20 -2.85 0.40 -2.35 0.45 0.45 0 0.85 0.40 0.85 0.80 0 0.65 -0.90 0.75 -5.60 0.65 -3.10 -0.05 -13.05 -0.25 -22.15 -0.40z"/>
  <path d="M336.15 470.55 c-1.70 -0.85 -2.20 -2.05 -0.90 -2.05 0.55 0 0.75 -0.55 0.70 -2.10 -0.05 -1.20 -0.15 -1.75 -0.30 -1.25 -0.10 0.45 -0.45 0.75 -0.70 0.60 -0.50 -0.35 -0.50 -3.65 0 -6 0.35 -1.65 1.85 -2.30 2.15 -0.90 0.10 0.65 0.45 0.35 1.25 -1.15 0.80 -1.55 0.90 -2.25 0.50 -2.65 -0.40 -0.40 -0.20 -0.55 0.80 -0.55 l1.35 0 0 8.50 0 8.50 -1.60 -0.05 c-0.90 -0.05 -2.40 -0.45 -3.25 -0.90z"/>
  <path d="M547 455.45 c0 -2.05 -0.80 -1.55 14.75 -9.40 6.35 -3.25 13.80 -7.25 16.55 -8.95 3.35 -2.05 5.65 -3.10 6.65 -3.10 1.35 0 1.50 0.10 1 0.90 -2.10 3.25 -15.70 11.35 -27.50 16.35 -2.10 0.90 -4.35 2 -5 2.45 l-1.20 0.85 1.40 -0.35 c1 -0.20 1.35 -0.10 1.35 0.40 0 1 -2 1.85 -5.25 2.20 l-2.75 0.35 0 -1.70z"/>
 </g>
 <g fill="#787374">
  <path d="M12.25 1415.65 l0.35 -2.40 -1.50 1.45 c-2.60 2.45 -7.40 2.60 -9.90 0.25 -1.10 -1.05 -1.20 -1.45 -1.20 -6.20 0 -4.65 0.10 -5.15 1.15 -6.15 3.90 -3.65 11.70 -1.85 14.10 3.20 1 2.15 1.55 7.65 1.05 10.40 -0.35 1.70 -0.45 1.80 -2.40 1.80 l-2 0 0.35 -2.35z m-2.30 -3.45 c1.30 -1.05 1.55 -1.65 1.55 -3.40 0 -2.80 -1.70 -4.55 -4.50 -4.55 -4.25 0 -6.10 4.70 -3.05 7.80 1.85 1.85 3.95 1.90 6 0.15z"/>
  <path d="M27.80 1417.15 c-0.95 -2.45 1 -7.25 3.85 -9.35 1.95 -1.45 6.90 -1.45 9.30 -0.05 2.30 1.35 4.05 4.75 4.05 7.85 l0 2.40 -2.30 0 c-1.90 0 -2.25 -0.15 -2 -0.80 0.45 -1.20 -0.20 -4.35 -1.15 -5.60 -0.45 -0.65 -1.60 -1.25 -2.65 -1.40 -1.60 -0.30 -2.05 -0.10 -3.40 1.20 -1.25 1.30 -1.50 1.90 -1.50 4.05 l0 2.55 -1.95 0 c-1.35 0 -2.05 -0.25 -2.25 -0.85z"/>
  <path d="M50 1414 l0 -4 -1.50 0 c-1.35 0 -1.50 -0.15 -1.50 -1.50 0 -1.30 0.15 -1.50 1.45 -1.50 1.30 0 1.45 -0.15 1.70 -2.30 0.35 -3.20 1.85 -4.60 5.10 -4.80 2.45 -0.15 2.50 -0.15 2.50 1.30 0 1.20 -0.20 1.45 -1.45 1.60 -1.75 0.20 -1.80 0.20 -2.15 2.40 l-0.30 1.80 2.10 0 c1.95 0 2.05 0.10 2.05 1.50 0 1.40 -0.10 1.50 -2 1.50 l-2 0 0 4 0 4 -2 0 -2 0 0 -4z"/>
  <path d="M74.50 1411.75 c0 -3.45 -0.15 -6.25 -0.40 -6.25 -0.20 0 -1.45 0.80 -2.80 1.75 -1.35 0.95 -2.65 1.60 -2.85 1.45 -0.25 -0.15 -0.45 -0.90 -0.45 -1.70 0 -1.20 0.55 -1.80 3.25 -3.70 2.55 -1.80 3.75 -2.30 5.25 -2.30 l2 0 0 8.50 0 8.50 -2 0 -2 0 0 -6.25z"/>
  <path d="M84.35 1415.40 c-0.90 -9.10 3.40 -15.45 9.85 -14.65 4.45 0.55 6.95 3.40 7.85 8.85 0.30 1.75 0.40 4.35 0.20 5.80 l-0.30 2.60 -2.10 0 -2.10 0 0 -5.20 c0 -4.55 -0.15 -5.40 -1.05 -6.65 -2.15 -2.90 -5.35 -2.70 -7.05 0.45 -0.70 1.30 -0.90 2.75 -0.90 6.55 l0.05 4.85 -2.10 0 -2.05 0 -0.30 -2.60z"/>
  <path d="M453.50 1370.05 c0 -0.85 0.30 -1.05 1.70 -1.05 0.90 0 3.05 -0.15 4.75 -0.30 2.55 -0.30 3.05 -0.20 3.05 0.40 0 0.95 -1.20 1.30 -5.85 1.75 -3.50 0.30 -3.65 0.25 -3.65 -0.80z"/>
  <path d="M520.50 1325.60 c0 -0.80 0.45 -3.20 1 -5.35 0.55 -2.10 1.25 -5.75 1.60 -8.05 0.50 -3.60 0.75 -4.20 1.55 -4.20 0.90 0 0.95 0.25 0.65 3.15 -0.15 1.70 -0.75 4.90 -1.30 7.10 -1.15 4.75 -1.25 6 -0.20 4.15 0.40 -0.80 0.95 -1.40 1.20 -1.40 0.75 0 0.60 2.90 -0.25 4.50 -0.65 1.25 -1.10 1.50 -2.50 1.50 -1.60 0 -1.75 -0.15 -1.75 -1.40z"/>
  <path d="M525.60 1316.15 c0.50 -2.45 0.90 -5.30 0.90 -6.40 0 -2.80 0.50 -4.25 1.40 -4.25 0.65 0 0.70 0.65 0.40 4.40 -0.15 2.40 -0.60 5.75 -0.90 7.50 -0.50 2.65 -0.75 3.10 -1.65 3.10 l-1.05 0 0.90 -4.35z"/>
  <path d="M514 1318.40 c0 -1.50 0.65 -2.90 1.30 -2.90 0.45 0 0.70 0.60 0.70 1.75 0 1.40 -0.20 1.75 -1 1.75 -0.55 0 -1 -0.30 -1 -0.60z"/>
  <path d="M701.50 1315.75 c0 -1.70 0.05 -1.75 2 -1.75 1.95 0 2 0.05 2 1.75 0 1.70 -0.05 1.75 -2 1.75 -1.95 0 -2 -0.05 -2 -1.75z"/>
  <path d="M361.50 1275.75 l0 -4.25 1.75 0 1.75 0 0 4.25 0 4.25 -1.75 0 -1.75 0 0 -4.25z"/>
  <path d="M588.50 1235.70 c0 -1.05 0.20 -1.20 2 -1.20 1.35 0 2 0.20 2 0.70 0 0.40 -0.90 0.90 -2 1.20 -1.90 0.45 -2 0.45 -2 -0.70z"/>
  <path d="M354.50 1229.50 l0 -5.50 1.70 0 c1.55 0 1.70 0.15 2 1.90 0.40 2.40 0.40 5.55 0 7.55 -0.30 1.35 -0.50 1.55 -2 1.55 l-1.70 0 0 -5.50z"/>
  <path d="M830.50 1052.80 c0 -4.60 0.15 -4.80 3.30 -4.80 1.60 0 1.70 0.10 1.70 1.65 0 0.85 -0.40 2.90 -0.85 4.45 -0.85 2.75 -1 2.90 -2.50 2.90 l-1.65 0 0 -4.20z"/>
  <path d="M881.35 1045.15 c-0.50 -2.70 -0.85 -5.40 -0.85 -6 0 -1.30 1.10 -1.50 3.10 -0.55 1.45 0.70 1.90 2.60 1.90 8.20 l0 3.20 -1.65 0 -1.70 0 -0.80 -4.85z m1.90 -3.60 c-0.20 -1.40 -0.50 -2.55 -0.75 -2.55 -0.20 0 -0.20 0.95 0.05 2.15 0.20 1.15 0.40 2.40 0.45 2.80 0 0.40 0.15 0.60 0.30 0.40 0.15 -0.15 0.15 -1.45 -0.05 -2.80z"/>
  <path d="M834.60 1041.75 c0.10 -1.85 0.45 -3.45 0.75 -3.65 0.30 -0.20 0.70 -0.90 0.90 -1.60 0.60 -1.95 1.25 -2.50 3.05 -2.50 1.60 0 1.70 0.10 1.70 1.70 0 1.25 -0.25 1.75 -0.95 1.95 -0.70 0.15 -0.90 0.05 -0.70 -0.45 0.15 -0.40 0 -0.70 -0.30 -0.70 -0.65 0 -2.55 4.10 -2.15 4.70 0.15 0.30 0.35 0.25 0.50 -0.10 0.45 -1.45 1.15 -0.40 1 1.55 -0.15 2.05 -0.20 2.10 -2.10 2.25 l-1.90 0.15 0.20 -3.30z"/>
  <path d="M272 1036.40 c-0.60 -1.75 -1.25 -4.10 -1.35 -5.25 l-0.25 -2.15 1.70 0 c1.55 0 1.90 0.25 3.05 2.45 0.95 1.70 1.35 3.20 1.35 4.85 l0 2.45 -1.05 -2.15 c-1.20 -2.45 -1.85 -2.45 -1 -0.05 0.80 2.25 0.70 2.95 -0.40 2.95 -0.65 0 -1.20 -0.80 -2.05 -3.10z"/>
  <path d="M277.50 1023.75 c0 -1.75 0.80 -2.35 1.30 -1 0.45 1.10 1.35 0.90 1.05 -0.25 -0.20 -0.80 0 -1 0.95 -1 1.05 0 1.20 0.20 1.20 2 l0 2 -2.25 0 c-2.25 0 -2.25 0 -2.25 -1.75z"/>
  <path d="M272.60 1015.25 c-1.95 -4 -3.10 -6.90 -3.10 -7.95 0 -2.35 -0.45 -3.30 -1.55 -3.30 -0.80 0 -0.95 -0.40 -0.95 -2.30 l0 -2.25 1.90 0.15 c1.50 0.10 1.90 0.35 2 1.30 0.10 0.60 0.40 1.10 0.65 1.10 0.25 0 0.45 0.80 0.45 1.75 0 2.35 1.75 5.75 2.95 5.75 1.10 0 2.10 2 2.55 5.25 0.20 1.40 0.50 2.95 0.70 3.50 0.60 1.60 -2.55 -4.05 -5.85 -10.50 -1.65 -3.25 -3.10 -5.75 -3.20 -5.45 -0.10 0.30 1.70 4.25 4.05 8.75 5.10 10 5.25 10.45 3.70 10.45 -1 0 -1.65 -0.90 -4.30 -6.25z"/>
  <path d="M878.60 1007.65 l-0.50 -1.90 -0.10 1.75 c-0.05 0.95 -0.20 1.45 -0.35 1.15 -0.10 -0.35 -0.55 -0.65 -0.95 -0.65 -0.50 0 -0.70 -0.70 -0.70 -2.50 l0 -2.50 1.95 0 c1.85 0 1.95 0.10 2.25 1.90 0.15 1 0.30 2.45 0.30 3.25 0 2.05 -1.30 1.70 -1.90 -0.50z"/>
  <path d="M224.50 932 c0 -0.55 -0.20 -1 -0.50 -1 -0.25 0 -0.50 -1.10 -0.50 -2.50 l0 -2.50 1.75 0 c1.60 0 1.75 0.10 1.75 1.50 0 0.85 0.25 1.50 0.50 1.50 0.30 0 0.50 0.90 0.50 2 0 1.95 -0.05 2 -1.75 2 -1.40 0 -1.75 -0.20 -1.75 -1z"/>
  <path d="M450.15 891.35 c-1.20 -0.40 -1.65 -0.85 -1.65 -1.70 0 -0.85 0.20 -1.05 0.90 -0.85 0.80 0.25 0.80 0.25 0 -0.45 -1.30 -1.05 -1.10 -1.35 0.85 -1.35 0.95 0 1.75 0.25 1.75 0.50 0 0.30 0.45 0.50 0.95 0.50 1.90 0 2.55 0.55 2.55 2.30 0 1.65 -0.05 1.70 -1.85 1.65 -1.05 -0.05 -2.65 -0.35 -3.50 -0.60z"/>
  <path d="M604 882.30 c0 -1.80 0.75 -2.30 3.65 -2.30 0.85 0 1.35 -0.25 1.35 -0.75 0 -0.50 0.55 -0.75 1.75 -0.75 2.40 0 2.20 0.85 -0.55 2.05 -2.65 1.10 -2.75 1.70 -0.20 0.95 0.95 -0.25 1.80 -0.35 1.95 -0.25 0.10 0.15 -0.05 0.25 -0.35 0.25 -0.35 0 -0.60 0.40 -0.60 0.95 0 1 -1.70 1.55 -5.05 1.55 -1.90 0 -1.95 -0.05 -1.95 -1.70z"/>
  <path d="M432.20 882.25 c-0.20 -0.40 -0.65 -0.75 -1.05 -0.75 -0.40 0 -0.85 -0.40 -1 -0.90 -0.10 -0.50 -0.70 -1.10 -1.30 -1.35 -0.80 -0.35 -1.15 -1 -1.25 -2.35 -0.15 -1.80 -0.10 -1.90 1.35 -1.90 2.25 0 3.05 0.50 3.05 1.80 0 0.65 0.15 1.20 0.40 1.20 0.20 0 1.15 0.70 2.10 1.55 1.95 1.70 1.30 1.50 -1.85 -0.65 -3.15 -2.15 -2.60 -0.90 0.60 1.40 1.50 1.05 2.75 2.10 2.75 2.35 0 0.70 -3.55 0.35 -3.80 -0.40z"/>
  <path d="M618.60 876.65 l0.15 -1.90 3.50 -0.05 3.45 0 -2.45 0.85 c-1.45 0.50 -2.05 0.90 -1.45 0.90 0.60 0.05 2 -0.30 3.15 -0.70 2 -0.70 2.05 -0.70 2.05 0.45 0 0.90 -0.40 1.25 -1.95 1.70 -1.05 0.35 -2.95 0.60 -4.25 0.60 l-2.35 0 0.15 -1.85z"/>
  <path d="M628.10 873.55 l-0.10 -2.05 2.05 0 2 0 -0.15 1.90 c-0.15 1.75 -0.25 1.85 -1.95 2 -1.75 0.15 -1.80 0.15 -1.85 -1.85z"/>
  <path d="M193.10 848 c-1.15 -4.10 -2.10 -8.20 -2.10 -9.05 0 -2.25 1.10 -1.60 2.10 1.35 l0.90 2.45 -0.15 -2.25 c-0.10 -1.25 -0.10 -1.85 0 -1.35 0.15 0.45 0.60 0.85 1.05 0.85 0.70 0 1.15 1.25 2.25 6.15 0.75 3.35 1.35 6.85 1.35 7.75 0 1.50 -0.10 1.60 -1.65 1.60 l-1.70 0 -2.05 -7.50z m1.45 -3.80 c-0.25 -0.80 -0.50 -1.05 -0.50 -0.60 -0.05 0.90 0.50 2.55 0.75 2.25 0.10 -0.05 -0.05 -0.80 -0.25 -1.65z"/>
  <path d="M696 835.95 c0 -2.20 0.85 -3.45 2.25 -3.45 1.55 0 1.55 0.15 -0.10 2.80 -1.65 2.60 -2.15 2.75 -2.15 0.65z"/>
  <path d="M857.50 821.25 c0 -2.90 0.15 -3.75 0.70 -3.75 0.40 0 0.85 0.40 0.95 0.90 0.20 0.80 0.25 0.80 0.30 0 0 -0.50 0.40 -0.90 0.80 -0.90 0.60 0 0.75 0.75 0.75 3.75 l0 3.75 -1.75 0 -1.75 0 0 -3.75z"/>
  <path d="M489.25 823.80 c-1.10 -0.35 -2.85 -1.05 -3.85 -1.50 -1.65 -0.80 -1.90 -1.15 -1.90 -2.60 0 -1.50 0.15 -1.70 1.40 -1.70 0.75 0 3.65 0.75 6.45 1.60 5.15 1.65 5.15 1.65 5.15 3.30 l0 1.60 -2.60 -0.05 c-1.45 0 -3.55 -0.30 -4.65 -0.65z m1.75 -2.10 c-2.80 -0.85 -3.20 -0.85 -1.25 0.05 0.85 0.40 1.95 0.70 2.50 0.70 0.55 0 0 -0.35 -1.25 -0.75z"/>
  <path d="M858.65 810.50 c0 -2.35 0.10 -3.30 0.20 -2.10 0.10 1.15 0.10 3.05 0 4.25 -0.10 1.15 -0.20 0.20 -0.20 -2.15z"/>
  <path d="M859.50 811.40 c0 -3.85 0.40 -5.40 1.30 -5.40 0.55 0 0.70 0.95 0.70 4.25 0 3.90 -0.10 4.25 -1 4.25 -0.90 0 -1 -0.35 -1 -3.10z"/>
  <path d="M859.70 803.90 l-0.40 -1.65 -0.35 1.50 c-0.20 0.85 -0.35 1.10 -0.40 0.65 0 -0.50 -0.25 -0.90 -0.55 -0.90 -0.25 0 -0.50 -1.10 -0.50 -2.50 l0 -2.50 1.70 0 c1.60 0 1.70 0.10 2 2.30 0.45 3.60 0.40 4.70 -0.40 4.70 -0.40 0 -0.90 -0.75 -1.10 -1.60z"/>
  <path d="M74 639.80 c0 -0.40 -0.20 -0.80 -0.40 -0.90 -0.90 -0.35 -2.60 -3.85 -2.60 -5.35 0 -1.45 0.15 -1.55 1.75 -1.55 1.45 0 1.90 0.30 3.25 2.20 1.05 1.60 1.50 2.80 1.45 4.15 0 1.05 -0.15 1.60 -0.30 1.30 -0.10 -0.35 -0.45 -0.65 -0.70 -0.65 -0.20 0 -0.30 0.35 -0.15 0.75 0.25 0.55 -0.05 0.75 -1 0.75 -0.80 0 -1.30 -0.30 -1.30 -0.70z"/>
  <path d="M199.50 623.40 c0 -1.90 1.50 -6.90 2.10 -6.90 0.20 0 0.40 -0.50 0.40 -1.10 0 -1.70 2.55 -7.90 3.25 -7.90 0.35 0 0.75 -0.95 0.85 -2.10 0.15 -1.20 1.25 -4.25 2.45 -6.75 2.10 -4.45 2.25 -4.65 3.85 -4.65 1.45 0 1.60 0.15 1.60 1.45 0 0.85 -0.95 3.85 -2.10 6.75 -1.70 4.35 -2.25 5.30 -3.10 5.30 -1.55 0 -2 0.50 -2.95 2.90 -1.25 3.10 -1 3.25 0.40 0.25 2.35 -5.20 3.15 -2.20 0.90 3.45 -0.70 1.90 -1.50 3.40 -1.75 3.40 -0.20 0 -0.40 0.45 -0.40 0.95 0 0.55 -0.50 2.20 -1.05 3.75 -1 2.65 -1.20 2.80 -2.75 2.80 -1.55 0 -1.70 -0.10 -1.70 -1.60z"/>
  <path d="M220.50 558 c0 -0.85 0.35 -1 2.45 -1 1.55 0 2.65 -0.25 3.05 -0.75 0.35 -0.40 0.55 -0.75 0.45 -0.80 -0.10 0 -3.10 -0.10 -6.60 -0.10 -6.20 -0.10 -8.40 0.30 -5.50 0.95 2.80 0.60 3.15 0.80 3.15 1.55 0 0.65 -0.45 0.75 -2.80 0.45 -3.55 -0.40 -3.70 -0.50 -3.70 -2.50 0 -1 -0.40 -2 -1 -2.55 -0.90 -0.80 -1.25 -0.85 -2.70 -0.35 -0.90 0.35 -2.40 0.60 -3.40 0.60 -1.50 0 -2.05 -0.35 -3.50 -2.10 -0.90 -1.20 -2.05 -2.75 -2.50 -3.45 -1.20 -1.95 -2.85 -7.55 -3.20 -11.20 l-0.35 -3.25 1.75 0 c1.50 0 1.85 0.25 2.85 2 0.60 1.10 2.20 3.20 3.55 4.65 2.70 2.95 2.85 3 14.25 5.75 3.30 0.80 7.70 2.15 9.75 2.95 3.65 1.45 3.75 1.55 3.90 3.40 0.15 1.40 -0.10 2.10 -0.85 2.85 -0.60 0.50 -1.05 1.15 -1.05 1.40 0 0.30 -0.55 0.50 -1.25 0.50 -0.90 0 -1.25 0.25 -1.25 1 0 0.90 -0.35 1 -2.75 1 -2.40 0 -2.75 -0.10 -2.75 -1z"/>
  <path d="M285 553.75 c0 -0.90 -2.30 -1.05 -2.60 -0.15 -0.15 0.40 -2.70 0.40 -10.35 -0.10 l-10.15 -0.70 0.25 -1.75 c0.70 -4.65 1.45 -7.80 2.40 -9.80 1.35 -2.90 6.40 -8.70 11.10 -12.75 4.75 -4.15 5.30 -5.10 3.60 -6.80 -0.65 -0.65 -1.90 -1.35 -2.70 -1.50 -0.85 -0.20 -1.65 -0.70 -1.80 -1.20 -0.25 -0.85 -3.05 -2.50 -4.20 -2.50 -0.30 0 -0.55 -0.75 -0.55 -1.65 0 -1.80 -1 -3.55 -2.50 -4.35 -0.75 -0.40 -1.30 -0.20 -2.75 1.10 -3.30 2.85 -18.90 22.60 -23.15 29.25 -1.05 1.60 -2.20 2.75 -3.10 3.05 -0.80 0.30 -1.95 1.10 -2.55 1.80 -1.45 1.65 -3.25 1.65 -6.45 0.05 -3.75 -1.90 -10.60 -4.10 -17.30 -5.50 -7.15 -1.50 -6.80 -1.20 -12.90 -11.90 -5.75 -10.10 -5.80 -7.75 0.50 -31.35 1.55 -5.90 3.05 -11.70 3.35 -12.85 0.45 -1.95 0.65 -2.15 2.10 -2.15 0.95 0 1.95 0.40 2.50 1 1.10 1.25 1.50 1.25 2.70 0.05 0.85 -0.85 0.85 -1.10 0.15 -4.10 -1.20 -5.25 -1.30 -7.40 -0.45 -8.35 3.30 -3.65 6.05 -6.10 6.90 -6.10 0.60 0 0.95 -0.35 0.95 -0.90 0 -0.85 2.45 -3.10 3.35 -3.10 0.25 0 0.70 -0.45 1.05 -1 0.35 -0.55 0.95 -1 1.30 -1 0.40 0 0.80 -0.20 0.90 -0.45 0.25 -0.65 13.25 -8.85 21.65 -13.65 22.05 -12.55 32.45 -17.65 56 -27.40 4.15 -1.70 7.70 -3.30 8 -3.55 0.25 -0.25 0.85 -0.45 1.40 -0.45 0.50 0 1.25 -0.35 1.65 -0.75 0.85 -0.80 4.20 -1.05 4.20 -0.30 0 0.25 -0.90 0.90 -2 1.40 -1.10 0.50 -2 1 -2 1.15 0 0.15 2.10 0.25 4.65 0.25 5.45 0.05 8 1 11.55 4.25 l2.30 2.10 -0.30 -2.80 c-0.30 -2.55 -0.25 -2.80 0.65 -2.80 0.90 0 1.05 0.60 1.65 5.95 0.70 6.95 0.35 9.40 -2.05 14.20 -1.90 3.80 -5.25 8.05 -9.65 12.30 -1.85 1.75 -3.25 3.45 -3.15 3.70 0.10 0.30 0.65 0.85 1.30 1.30 1.10 0.70 1.30 0.60 6.75 -5.05 3.10 -3.15 6.05 -6.65 6.60 -7.80 0.70 -1.55 1.25 -2.10 2.15 -2.10 0.90 0 1.10 0.20 0.80 0.90 -0.90 2.10 -0.85 3 0.25 3.60 1.05 0.55 1.05 0.50 0.75 -1.70 -0.35 -2.10 -0.25 -2.30 0.65 -2.30 1.05 0 1.25 0.70 1.90 8 0.25 2.65 0.15 3.40 -0.50 3.95 -0.60 0.50 -0.70 1.20 -0.45 2.95 0.30 2.15 0.25 2.30 -0.50 1.65 -1.05 -0.85 -1 -0.95 -2.35 5.85 -0.55 2.85 -1.40 5.75 -1.85 6.40 -0.75 1.15 -0.70 1.20 0.55 1.20 1.55 0 1.85 1.75 0.35 2.25 -1.45 0.45 -2.50 2.30 -2 3.65 0.25 0.60 0.65 1.10 0.95 1.10 0.25 0 0.50 0.55 0.50 1.25 0 0.80 -0.20 1.15 -0.70 0.95 -0.40 -0.15 -1 0.60 -1.75 2.25 -0.55 1.35 -1.05 2.60 -1.05 2.75 0 0.25 3.70 2.30 4.20 2.30 0.15 0 -0.05 -0.75 -0.45 -1.60 -0.45 -1.10 -0.50 -1.95 -0.20 -2.50 0.80 -1.45 1.45 -1.05 1.45 0.85 0 1.15 0.25 1.75 0.70 1.75 0.50 0 0.75 0.90 0.90 3 0.35 5 2.95 6.55 4.80 2.85 0.50 -1.05 1 -1.35 2.30 -1.35 0.95 0 1.95 0.30 2.25 0.70 1.25 1.50 16.80 6.40 24 7.60 7.85 1.25 16.15 1.40 25.45 0.45 8.10 -0.90 8.85 -0.90 14.20 -0.10 16.35 2.45 22.40 1.80 69.15 -7.65 15.95 -3.25 20.70 -4.40 31 -7.60 6.75 -2.10 19.80 -7.05 21.50 -8.25 0.55 -0.35 1.50 -0.65 2.10 -0.65 0.65 0 1.15 -0.20 1.15 -0.50 0 -0.25 0.45 -0.50 1.05 -0.50 0.55 0 1.35 -0.35 1.75 -0.75 0.45 -0.40 1.55 -0.75 2.50 -0.75 1 0 1.70 -0.25 1.70 -0.60 0.05 -0.70 9.25 -4.75 30.15 -13.20 10.90 -4.40 16.20 -6.90 25 -11.70 17.15 -9.45 20.80 -12.40 20.85 -16.85 0 -1.80 -1.45 -3.15 -3.50 -3.15 -0.75 -0.05 -2.15 -0.90 -3.60 -2.25 -2.55 -2.30 -3 -3.80 -1.80 -5.75 0.55 -0.85 0.45 -1.15 -0.45 -2.10 -0.95 -0.95 -1.30 -1 -2.40 -0.50 -0.70 0.35 -2.25 0.60 -3.40 0.55 -1.90 0 -2.25 -0.20 -3.95 -2.45 -2.30 -3.05 -2.60 -5.50 -0.70 -5.50 0.70 0 1.85 -0.55 2.65 -1.20 1.35 -1.15 1.35 -1.25 0.50 -2.20 -0.45 -0.50 -1.75 -1.20 -2.85 -1.55 -1.10 -0.30 -2 -0.75 -2 -0.95 0 -0.20 -2.05 -2.75 -4.55 -5.60 -6.10 -6.95 -6.90 -8.30 -7.25 -11.55 -0.55 -5.50 -1.15 -6.45 -4.15 -6.45 -2.15 0 -1.65 0.85 -6.60 -11.20 -2.65 -6.50 -3.15 -9.80 -1.55 -9.80 0.55 0 9.35 -1.60 19.65 -3.55 13.90 -2.65 20.20 -3.65 24.55 -3.80 l5.80 -0.25 1.20 1.35 c1.15 1.35 3.40 2.75 4.40 2.75 0.25 0 1 -0.55 1.60 -1.25 1.05 -1.20 1.30 -1.25 7.35 -1.30 3.45 0 8.35 -0.25 10.80 -0.50 10.80 -1.10 17.20 -1.10 23.75 -0.05 3.45 0.55 9.40 1.20 13.25 1.35 8.80 0.40 10.70 0.85 14.85 3.60 4.20 2.75 4.90 3.65 7.90 9.90 2.90 6.10 4.55 11.05 8.70 26.40 4.90 17.90 4.70 16.15 3.10 27.35 -1.45 10.15 -2.55 15.15 -3.30 15.40 -0.30 0.10 -0.50 0.55 -0.50 0.95 0 1.90 -7.60 9.90 -12.85 13.55 -2.10 1.50 -3.25 1.40 -11.40 -0.90 -3.85 -1.05 -7.90 -2.20 -9 -2.45 -1.10 -0.30 -5.25 -2.60 -9.25 -5.10 -7 -4.45 -12.60 -7.45 -13.85 -7.45 -0.35 0 -1.40 0.65 -2.30 1.50 -2.50 2.20 -4.85 2 -14.05 -0.95 -4.15 -1.30 -9.55 -2.95 -12 -3.60 l-4.45 -1.15 -1.15 1.40 c-0.65 0.75 -1.20 1.65 -1.20 2 0 0.85 1.95 2.50 3.90 3.30 1.35 0.50 1.60 0.85 1.60 2.30 0 0.90 -0.20 1.80 -0.50 1.95 -0.90 0.55 -0.55 2.05 0.75 3.25 1 0.90 2.25 1.30 6.35 1.85 12 1.55 11.65 1.45 12.70 3.80 1.05 2.45 8.15 9.65 13.85 14.10 3.40 2.65 3.85 3.20 3.85 4.60 0 1.95 -0.70 2.35 -9.75 5.80 -6.70 2.55 -14.05 4.60 -24.50 6.80 -3.85 0.85 -12.75 2.85 -19.75 4.50 -7 1.65 -18.95 4.25 -26.50 5.80 -19.30 3.95 -25.80 5.55 -41.70 10.50 -16.70 5.10 -28.60 8.25 -31.45 8.25 -2.90 0 -15.60 2.65 -21.35 4.45 -2.60 0.80 -8.35 2.75 -12.75 4.30 -11.75 4.15 -20.20 5.80 -40 7.75 -5.75 0.55 -13.30 1.35 -16.75 1.80 -8.70 1.10 -29.40 5.25 -40.75 8.20 -5.20 1.35 -13.10 3.25 -17.50 4.25 -4.40 0.95 -11.55 2.80 -15.90 4.05 -6.45 1.85 -8.35 2.25 -10.15 1.95 -1.95 -0.25 -2.20 -0.20 -2.20 0.65 0 0.70 -0.60 1.05 -2.55 1.50 -3.35 0.80 -4.95 0.75 -4.95 -0.10 0 -0.45 1.75 -1.10 5.15 -1.95 5.45 -1.40 10.35 -3.05 7.60 -2.60 -0.80 0.15 -7.35 1.05 -14.50 2 -7.15 1 -19.85 3 -28.20 4.50 -8.35 1.50 -15.85 2.75 -16.60 2.75 -0.80 0 -1.45 0.25 -1.45 0.50 0 0.30 1.70 0.50 4.15 0.50 4.75 0 6.35 0.35 6.35 1.30 0 0.55 -0.80 0.70 -3.25 0.70 -2.55 0 -3.25 -0.15 -3.25 -0.75z m-68.25 -83.75 c1.95 -2 4.20 -4.35 5 -5.25 0.85 -0.90 2.40 -2.60 3.50 -3.75 2.45 -2.60 1.65 -2.20 -3.25 1.65 -5.15 4.10 -10.50 9.60 -10.50 10.85 0 1.50 1.15 0.75 5.25 -3.50z m324.30 3.50 c3.80 -0.70 4.20 -0.85 4.65 -2.40 0.35 -1.05 0.30 -1.05 -1.05 -0.60 -3.90 1.50 -9.40 4.10 -7.90 3.80 0.55 -0.10 2.50 -0.45 4.30 -0.80z m175 -43.05 c1 -3.05 1.15 -3.95 0.55 -3.95 -0.55 0 -3.10 6.05 -2.80 6.60 0.60 0.95 1.40 0 2.25 -2.65z"/>
  <path d="M245.65 552.15 c-1.85 -0.35 -1.50 -2.80 0.75 -5.30 6.75 -7.55 8.75 -9.35 10.45 -9.35 1.50 0 1.65 0.15 1.65 1.50 0 0.85 -0.35 2.35 -0.85 3.40 -0.55 1.25 -0.80 3.15 -0.80 6 l0.05 4.10 -5.05 -0.05 c-2.80 -0.05 -5.60 -0.20 -6.20 -0.30z"/>
  <path d="M511 515.15 c0 -1.45 1.20 -1.95 5.95 -2.45 3.45 -0.30 3.55 -0.30 3.55 0.80 0 0.75 -0.25 1 -0.70 0.85 -0.35 -0.15 -1.10 0 -1.65 0.40 -0.50 0.35 -2.30 0.85 -4.05 1.10 -3.05 0.50 -3.10 0.45 -3.10 -0.70z"/>
  <path d="M375.25 492 c-2.45 -0.20 -6.15 -0.65 -8.10 -1 l-3.65 -0.65 0 -1.95 0 -1.95 5.40 0.30 c6.85 0.35 8.55 0.60 13 1.60 3.60 0.85 3.60 0.85 3.60 2.50 l0 1.65 -2.85 -0.10 c-1.60 0 -4.90 -0.20 -7.40 -0.40z"/>
  <path d="M402.50 488.75 l0 -1.75 3.75 0 3.75 0 0 1.75 0 1.75 -3.75 0 -3.75 0 0 -1.75z"/>
  <path d="M125 482.40 c0 -0.90 0.15 -2.50 0.30 -3.50 0.30 -1.75 0.45 -1.90 2.05 -1.90 l1.70 0 -0.15 3.40 -0.15 3.35 -1.85 0.15 c-1.85 0.15 -1.90 0.10 -1.90 -1.50z"/>
  <path d="M413.50 482 c0 -0.90 0.35 -1 3 -1 2.65 0 3 0.10 3 1 0 0.90 -0.35 1 -3 1 -2.65 0 -3 -0.10 -3 -1z"/>
  <path d="M434 479.80 c0 -0.70 0.55 -0.90 4.65 -1.60 1.60 -0.25 1.85 -0.20 1.85 0.70 0 0.70 -0.45 1.05 -1.55 1.30 -2.75 0.55 -4.95 0.35 -4.95 -0.40z"/>
  <path d="M668.50 473.35 c0 -2 1.40 -2.85 4.50 -2.85 1.95 0 2 0.05 2 1.70 0 1.45 -0.20 1.80 -1.55 2.25 -0.90 0.30 -2.35 0.55 -3.25 0.55 -1.60 0 -1.70 -0.10 -1.70 -1.65z"/>
  <path d="M669.75 459.65 c-9.85 -7.80 -11.25 -9.20 -11.25 -11.05 l0 -1.75 3.65 0.30 c3.85 0.35 3.45 0.05 7.45 4.80 1.60 1.90 2.55 1.95 4.20 0.30 1.75 -1.75 4.50 -1.65 8.80 0.30 3.20 1.50 3.40 1.70 3.40 3.25 0 1.55 -0.30 1.80 -4.25 4.20 -5.90 3.45 -7.30 3.40 -12 -0.35z"/>
  <path d="M345.30 449.40 c-0.25 -1.30 -2.10 -17.55 -2.60 -22.40 -0.45 -5.25 -2.20 -18.60 -2.45 -18.95 -0.10 -0.20 -0.90 -6.40 -1.75 -13.75 -0.85 -7.35 -1.95 -15.75 -2.50 -18.70 -3.70 -20.65 -3.60 -19.60 -1.35 -19.60 l1.70 0 1.35 4.65 c2.75 9.30 3.15 10 5.25 8.85 0.65 -0.35 1.05 -1.05 1.05 -1.90 0 -2.70 -11.75 -38.05 -15.25 -45.85 -3 -6.65 -4.25 -9.85 -4.25 -10.75 0 -0.55 -0.20 -1 -0.50 -1 -0.25 0 -0.50 -0.55 -0.50 -1.20 0 -0.65 -0.25 -1.30 -0.55 -1.40 -0.75 -0.25 -1.25 -4.90 -0.50 -4.90 0.30 0 0.55 -0.20 0.55 -0.50 0 -0.25 0.45 -0.95 1 -1.50 1 -1 1 -1.10 0.15 -2.20 -9.20 -11.90 -9.90 -13.05 -14.95 -25.05 -3.35 -7.80 -3.95 -11 -2.45 -12.25 0.65 -0.55 0.55 -0.90 -0.90 -2.95 -3.20 -4.45 -6.80 -10.90 -11.70 -20.80 -7.80 -15.85 -10.65 -22 -10.65 -22.90 0 -0.45 -0.20 -0.85 -0.45 -0.85 -0.25 0 -0.70 -0.75 -1.05 -1.60 -0.35 -0.90 -2.10 -4.70 -3.90 -8.40 -6.35 -13.30 -10.10 -22.70 -10.10 -25.25 l0 -2.35 4.65 0.40 c2.50 0.25 5.75 0.40 7.15 0.35 3.70 -0.15 18.90 -3.25 30.45 -6.20 5.50 -1.40 12.60 -3.20 15.75 -4 3.15 -0.80 11.70 -2.70 19 -4.25 16.20 -3.40 23.65 -5.25 39.50 -9.75 16.95 -4.85 21.45 -6.35 35.50 -11.80 32 -12.40 36.85 -14.50 49.85 -21.70 5.65 -3.15 7.80 -4.10 10.80 -4.65 4.95 -0.95 9.95 -2.70 19.60 -6.90 16.55 -7.20 19.60 -8.95 30.25 -17.10 3.10 -2.35 5.90 -4.30 6.30 -4.30 0.40 0 0.70 -0.20 0.70 -0.50 0 -0.25 0.75 -0.50 1.70 -0.50 l1.70 0 0.45 3.90 c0.70 6.40 0.45 32.35 -0.45 49.35 -1.75 32.70 -1.60 71 0.35 88.75 0.45 4 1.45 12 2.25 17.75 2.50 18.05 2.65 19.65 2 26.10 -0.80 8.10 -0.15 11.80 3.30 18.65 1.85 3.70 2.20 5.25 3.95 17.95 1.65 11.80 3.85 22.45 6 28.80 3.20 9.70 3.50 12.80 1.25 14.90 -0.80 0.80 -1.50 1.85 -1.50 2.30 0 1.30 2.25 3.40 4 3.75 1.40 0.25 1.50 0.40 1.50 2.55 0 1.40 -0.45 3.10 -1.10 4.40 -0.85 1.55 -1.10 2.95 -1.10 5.35 0.05 5.35 2.60 9.05 8.20 11.85 1.50 0.80 2.85 1.55 3 1.75 0.15 0.15 0.90 0.40 1.70 0.50 1.25 0.15 1.80 0.80 4.05 4.80 1.45 2.55 2.85 4.90 3.20 5.25 0.30 0.30 0.55 0.95 0.55 1.45 0 0.50 0.25 0.90 0.50 0.90 0.30 0 0.50 0.80 0.50 1.75 0 1.65 -0.10 1.75 -1.70 1.75 -0.95 0 -1.80 -0.25 -1.90 -0.60 -0.25 -0.75 -4.25 1.10 -10.30 4.75 -3 1.85 -5.20 2.85 -6.20 2.85 -1.50 0 -1.55 0 -0.65 -1 0.90 -1 0.85 -1 -2.40 -1 -5.30 0 -10.45 1.25 -16.45 4 -7.15 3.25 -22.05 8.25 -29.40 9.85 -4.85 1 -6.70 1.70 -11.75 4.40 -3.35 1.75 -7.95 3.95 -10.30 4.80 -3.90 1.50 -4.70 1.65 -10.95 1.75 -6.20 0.10 -7.45 0.30 -15.50 2.35 -4.80 1.25 -13.05 3.20 -18.30 4.35 -5.30 1.10 -10.80 2.45 -12.30 3 -1.50 0.50 -5.50 1.40 -8.95 2 -8.45 1.45 -21.55 4.35 -23.55 5.30 l-1.65 0.75 2.40 -0.30 c2.10 -0.30 2.35 -0.20 2.35 0.65 0 0.85 -0.60 1.05 -5.35 1.60 -8.15 0.90 -22.70 1.45 -39.75 1.50 l-15.40 0 -0.20 -1.10z m235.70 -52.90 c-0.50 -0.90 -0.70 -1 -1.05 -0.45 -0.30 0.45 -0.15 0.90 0.40 1.30 1.10 0.85 1.35 0.50 0.65 -0.85z m-52.75 -50 c0.45 -0.70 -0.75 -4.20 -1.25 -3.65 -0.20 0.20 -0.50 1.25 -0.65 2.30 -0.25 1.60 -0.15 1.85 0.65 1.85 0.50 0 1.10 -0.25 1.25 -0.50z m-201.80 -37.55 c-1.10 -3.10 -2.10 -5.80 -2.25 -5.90 -0.50 -0.55 -0.70 0.45 -0.25 1.50 2.50 6.35 4.25 10.45 4.35 10.30 0.10 -0.10 -0.70 -2.75 -1.85 -5.90z m-40.85 -97.30 c-0.20 -2.40 -0.30 -2.65 -1.40 -2.65 -1 0 -1.15 0.15 -0.75 0.90 0.25 0.45 0.80 1.75 1.25 2.80 0.45 1.10 0.90 1.85 0.95 1.75 0.10 -0.10 0.05 -1.40 -0.05 -2.80z m254.20 -120.55 c-0.15 -0.25 -0.30 -1.25 -0.40 -2.25 -0.15 -2.55 -1.40 -2.50 -1.40 0.05 0 1.05 0.15 2.10 0.35 2.25 0.45 0.50 1.75 0.45 1.45 -0.05z"/>
  <path d="M409.50 446.75 c0 -0.75 1.50 -1.10 5.90 -1.40 2.15 -0.15 2.60 -0.05 2.60 0.65 0 0.65 -0.60 0.95 -2.60 1.20 -4.30 0.50 -5.90 0.40 -5.90 -0.45z"/>
  <path d="M600.50 435.50 c0 -0.85 1.05 -3.75 2.40 -6.50 2.25 -4.75 2.45 -4.95 3.95 -5 1.80 0 4.45 2.25 4.95 4.25 0.75 2.95 0.15 3.90 -4 6.40 -2.60 1.55 -4.55 2.35 -5.65 2.35 -1.50 0 -1.65 -0.15 -1.65 -1.50z"/>
  <path d="M481.50 432.35 c0 -0.45 2.80 -1.55 7.65 -3.10 14.85 -4.65 15.85 -4.85 15.85 -3.35 0 0.65 -0.85 1.05 -3.65 1.75 -1.95 0.45 -3.95 0.85 -4.45 0.85 -0.45 0 -0.90 0.20 -1 0.45 -0.20 0.60 -11.25 4.05 -13 4.05 -0.85 0 -1.40 -0.25 -1.40 -0.65z"/>
  <path d="M728.50 422 c0 -0.80 0.25 -2.50 0.60 -3.75 0.55 -2.05 0.75 -2.25 2.20 -2.25 2.35 0 2.90 2.20 1.45 5.70 -0.65 1.60 -1 1.80 -2.50 1.80 -1.60 0 -1.75 -0.10 -1.75 -1.50z"/>
  <path d="M525.50 418.55 c0 -0.25 0.85 -0.80 1.90 -1.25 1 -0.45 2.25 -1.05 2.70 -1.30 1.40 -0.80 2.40 -0.60 2.40 0.50 0 0.80 -0.35 1 -1.75 1 -1.20 0 -1.75 0.25 -1.75 0.75 0 0.50 -0.55 0.75 -1.75 0.75 -0.95 0 -1.75 -0.20 -1.75 -0.45z"/>
  <path d="M534 415.05 c0 -0.55 2.60 -1.75 5.25 -2.50 2.75 -0.75 3.25 -0.70 3.25 0.35 0 0.70 -0.70 1.15 -3 1.75 -3.30 0.95 -5.50 1.10 -5.50 0.40z"/>
  <path d="M295 167.45 l0 -1.70 10.65 -4.10 c5.80 -2.30 13.75 -5.05 17.60 -6.20 7.15 -2.10 22.20 -6.65 33.05 -9.95 3.45 -1.05 11.30 -2.80 18 -4 17.05 -3 27.65 -5.20 37.70 -7.85 4.80 -1.25 9.80 -2.40 11.15 -2.55 l2.35 -0.20 0 1.70 0 1.65 -8.40 3.20 c-19.90 7.55 -45.30 14.70 -70.90 20 -6.60 1.35 -19.60 4.40 -28.90 6.75 -9.35 2.40 -18.15 4.45 -19.65 4.60 l-2.65 0.35 0 -1.70z"/>
  <path d="M263 165.30 c0 -0.40 0.70 -0.85 1.55 -1.05 0.85 -0.20 1.65 -0.65 1.80 -1.05 0.35 -1 -0.15 -1.45 -0.95 -0.85 -0.35 0.25 -1.05 0.65 -1.50 0.80 -0.70 0.25 -0.90 0.05 -0.90 -0.90 0 -0.75 0.30 -1.25 0.70 -1.25 0.40 0 1.50 -0.45 2.40 -0.95 1.90 -1.10 4.15 -1.60 22.60 -5.35 7.45 -1.50 14.70 -2.70 16.15 -2.70 l2.65 0 0 1.70 c0 1.20 -0.25 1.80 -0.85 2 -4.05 1.30 -40.95 10.30 -42.10 10.30 -1 0 -1.55 -0.25 -1.55 -0.70z"/>
  <path d="M265 154.30 c0 -0.35 0.75 -0.85 1.60 -1.10 1.30 -0.40 1.65 -0.75 1.75 -1.90 0.15 -2.25 1.60 -8.90 2.10 -9.50 0.20 -0.30 0.55 -0.95 0.75 -1.50 0.25 -0.70 0.10 -0.85 -0.45 -0.60 -0.55 0.20 -0.75 -0.05 -0.75 -0.90 0 -2.25 19.50 -13.15 40.30 -22.55 14.95 -6.80 43.85 -18.75 45.25 -18.75 0.55 0 0.95 -0.20 0.95 -0.50 0 -0.25 0.45 -0.50 1.05 -0.50 0.55 0 1.35 -0.35 1.75 -0.75 0.45 -0.40 1.30 -0.75 1.95 -0.75 0.65 0 1.25 -0.15 1.35 -0.40 0.10 -0.20 3.75 -1.80 8.15 -3.55 4.40 -1.75 8.85 -3.60 9.85 -4.15 1.05 -0.50 2.55 -0.90 3.40 -0.90 0.90 0 1.50 -0.25 1.50 -0.65 0 -0.65 2.65 -1.85 4.10 -1.85 0.45 0 0.90 -0.20 1 -0.40 0.40 -1 13.85 -5.15 27 -8.30 7.35 -1.80 10.65 -2.35 16.90 -2.75 6.95 -0.50 22.05 -2.65 28.40 -4.10 9.80 -2.20 28.90 -3.90 37.10 -3.25 2.20 0.15 6.05 1.05 9.25 2.05 3.05 1 8.45 2.25 12 2.80 7.20 1.05 7.50 1.15 10.90 2.55 2.05 0.90 2.35 1.20 2.35 2.50 0 1.25 -0.85 2.30 -4.80 6.10 -9 8.60 -16.25 12.50 -34.30 18.60 -6.95 2.35 -15.10 4.90 -18.15 5.70 -11.15 2.95 -33.10 7.05 -42.85 8 -7.05 0.70 -11 1.50 -21.40 4.25 -4.55 1.20 -12.50 3.25 -17.75 4.50 -13.15 3.20 -28.65 8 -40.40 12.45 -11 4.15 -15.95 5.50 -35.30 9.60 -8.55 1.80 -13.85 2.70 -14.95 2.50 -1.20 -0.15 -2.10 0 -3.05 0.70 -0.85 0.60 -6.50 1.95 -17.05 4.10 -8.65 1.70 -15.80 3.30 -15.90 3.50 -0.30 0.70 -3.60 0.45 -3.60 -0.30z m99.10 -57.15 c2.40 -0.95 4.65 -2.10 5 -2.55 0.75 -0.90 1.30 -1.10 -6.60 2 -2.90 1.15 -5.45 2.30 -5.75 2.55 -0.90 0.80 2.80 -0.20 7.35 -2z m26.05 -10.85 c2.95 -1.75 2.70 -2.30 -0.35 -0.90 -1.20 0.60 -2.80 1.20 -3.50 1.40 -1.90 0.45 -2 1 -0.15 0.95 0.90 -0.05 2.70 -0.70 4 -1.45z m86.85 -18.10 c1.15 -0.70 1.05 -0.70 -2 -0.40 -4.70 0.45 -5.95 1.15 -2.25 1.15 1.80 0 3.50 -0.30 4.25 -0.75z m18.85 -0.80 c2.40 -0.85 2 -1.45 -0.70 -1.05 -2.80 0.35 -3.15 0.55 -2.15 1.15 0.95 0.60 0.85 0.60 2.85 -0.10z"/>
  <path d="M365.50 136.30 c0 -1.65 0.10 -1.75 3.15 -2.75 9.85 -3.20 34.45 -9.55 37.05 -9.55 0.65 0 1.30 -0.20 1.40 -0.45 0.30 -0.80 18.60 -5.05 24.15 -5.55 3.05 -0.30 6.70 -0.65 8.15 -0.85 l2.60 -0.30 0 1.75 0 1.75 -6.60 2.05 c-13.60 4.20 -24.10 6.05 -26.35 4.65 -0.90 -0.60 -2.35 0.75 -2.80 2.50 -0.30 1.25 -0.70 1.40 -7.90 2.90 -11.30 2.35 -29.25 5.55 -31.15 5.55 -1.60 0 -1.70 -0.10 -1.70 -1.70z"/>
  <path d="M325 102.35 c0 -1.15 0.35 -1.80 1.15 -2.30 3.05 -1.95 17.55 -9.05 18.40 -9.05 0.50 0 0.95 -0.20 0.95 -0.50 0 -0.25 0.80 -0.50 1.75 -0.50 2.25 0 2.25 0.85 -0.05 1.80 -1.70 0.70 -1.75 0.80 -0.90 1.45 0.55 0.40 1.25 0.75 1.60 0.75 0.30 0 0.60 0.40 0.60 0.90 0 0.65 -2.40 1.85 -10.15 5 -5.55 2.25 -10.85 4.10 -11.70 4.10 -1.55 0 -1.65 -0.15 -1.65 -1.65z"/>
  <path d="M320.60 96.15 c0.70 -0.80 1.40 -1.80 1.55 -2.25 0.40 -1.05 3.95 -3.75 6.60 -4.90 1.10 -0.50 3.65 -1.10 5.65 -1.30 3.30 -0.30 3.60 -0.25 3.60 0.60 0 0.55 -0.40 1.20 -0.95 1.45 -6.90 3.70 -10.15 5.45 -11.95 6.50 -1.20 0.70 -2.90 1.25 -3.95 1.25 l-1.85 0 1.30 -1.35z"/>
 </g>
 <g fill="#000000">
  <path d="M418.50 1378.70 c-6.55 -0.85 -14.40 -3 -20.55 -5.75 -1.85 -0.80 -4.10 -1.45 -5.05 -1.45 -3.85 -0.05 -13.25 -5.35 -18.20 -10.35 -3.40 -3.40 -7 -8.70 -10.25 -15.20 -1.45 -2.85 -3.90 -7 -5.45 -9.20 -3.70 -5.15 -4.05 -5.85 -6.20 -12.90 -3.15 -10.35 -5.75 -26.30 -7.35 -44.85 -0.60 -7.20 -0.30 -24.20 0.60 -32.25 0.65 -5.95 0.60 -26.80 -0.10 -32.25 -0.60 -4.95 -2.40 -15.25 -4.15 -23.75 -0.65 -3.30 -1.70 -9.80 -2.30 -14.50 -1.40 -10.80 -3.65 -22.30 -5.50 -27.80 -0.80 -2.35 -3.55 -9.10 -6.15 -15 -2.60 -5.90 -5.10 -11.80 -5.65 -13.15 -0.80 -2.20 -0.95 -2.35 -1.25 -1.25 -0.20 0.65 -0.60 3.70 -0.95 6.70 -1.30 11.85 -4.95 37.60 -5.50 38.80 -0.70 1.50 -2.40 2.45 -4.45 2.45 l-1.35 0 -0.65 5.40 c-1.20 10.90 -3.05 24.40 -3.55 26.20 -0.65 2.35 -2.15 3.40 -4.85 3.40 -1.15 0 -2.20 0.20 -2.35 0.45 -0.50 0.80 -3.90 1.15 -5.35 0.55 -1.75 -0.75 -2.95 -3.25 -2.95 -6.20 0 -2.85 -3.75 -19.10 -6.15 -26.55 -1 -3 -2.40 -7.50 -3.10 -10 -0.90 -3 -1.85 -5 -2.75 -6 -3.35 -3.55 -5.75 -12.50 -6.20 -23.50 -0.15 -3.30 -0.50 -7.70 -0.80 -9.75 -0.70 -5.50 -0.60 -20.30 0.25 -31.75 1.45 -19.15 1.45 -18.05 0.30 -24.25 -2.75 -14.65 -4.65 -23.15 -5.85 -26.55 -1.30 -3.60 -11.55 -25.50 -17.65 -37.70 -2.80 -5.65 -8.35 -18.65 -16.60 -39 -2 -4.95 -5.60 -12.80 -8.05 -17.50 -13.05 -25.15 -21.05 -42.40 -24.80 -53.50 -2 -5.90 -12.05 -40.75 -16.05 -55.50 -5.05 -18.80 -9.60 -45.85 -10.35 -62 -0.30 -6.40 -0.35 -6.60 -3.05 -13.40 -3.60 -9.10 -3.65 -9.35 -2.85 -11.30 0.75 -1.75 3.35 -3.20 5.05 -2.75 0.90 0.25 1.05 -0.10 1.55 -3.15 0.45 -2.85 0.40 -4.30 -0.40 -9.15 -1.20 -6.95 -1.45 -7.30 -8.65 -9.55 -2.75 -0.80 -6.45 -2.25 -8.25 -3.15 -5.30 -2.55 -14.90 -9.25 -26.35 -18.30 -3 -2.40 -6.30 -4.75 -7.25 -5.25 -0.95 -0.50 -2.80 -1.85 -4.05 -3 -1.25 -1.15 -3.25 -2.75 -4.50 -3.50 -1.20 -0.75 -4 -2.80 -6.25 -4.50 -3.40 -2.65 -4.20 -3.05 -5.20 -2.65 -2.05 0.75 -3.95 -0.10 -7.35 -3.25 -3.70 -3.50 -9.30 -10.80 -16.50 -21.60 -11.40 -17.15 -15.45 -24.20 -21.30 -37.50 -4.95 -11.15 -5.95 -13.40 -7.95 -17.75 -3.20 -6.85 -7.05 -15.90 -8.45 -19.75 -4.35 -11.85 -6.95 -26.80 -6.95 -40.05 0 -7.35 0.70 -10.70 2.85 -13.25 1.25 -1.50 1.50 -1.55 4 -1.30 l2.65 0.30 0 -1.60 c0.05 -2.75 2.80 -17.30 4.50 -23.35 1.20 -4.30 2.80 -8.40 3.65 -9.45 0.40 -0.45 0.85 -2.20 1 -3.90 0.30 -3.80 2.75 -9.60 6.15 -14.65 5 -7.45 18.15 -21.30 35.55 -37.40 5.70 -5.20 6.90 -6.10 8.30 -6.10 0.90 0 2.15 0.35 2.75 0.80 1.10 0.75 1.25 0.70 3.50 -1.40 5.25 -4.85 10 -8.10 22.85 -15.55 3.30 -1.95 9.25 -5.60 13.20 -8.20 9.95 -6.45 12.05 -6.90 15.35 -3.35 1.30 1.35 2.05 1.70 3.45 1.70 3.30 0 5.90 3.90 4.30 6.50 -0.35 0.50 -0.10 0.95 0.95 1.55 0.80 0.50 1.70 1.40 2 2 0.65 1.20 0.35 3.70 -0.65 4.85 -0.30 0.40 -0.80 1.40 -1.10 2.25 -0.35 0.95 -2.15 2.80 -5.25 5.35 -4.20 3.40 -4.75 4 -4.65 5.30 0.20 2.10 -0.70 4.35 -1.95 5.15 -5.45 3.40 -7.70 7.15 -12.20 20.20 -1.05 3.10 -1.10 3.50 -0.40 5.10 0.60 1.50 0.60 2 0 3.45 -0.40 0.90 -1.20 2 -1.75 2.40 -2 1.40 -2.70 6.45 -1.25 8.70 0.55 0.80 0.75 1.80 0.55 3 -0.35 2.20 -1.05 3.05 -3.15 3.95 l-1.60 0.65 -0.35 11.20 c-0.20 6.10 -0.25 18.35 -0.15 27.15 0.15 14.90 0.30 16.55 1.65 24.40 1.40 8.30 1.45 8.45 0.50 10.15 l-0.90 1.70 2.60 5.35 c3.90 8 12 22.65 13.65 24.65 0.80 0.95 3.35 4.40 5.60 7.65 9.15 13.05 22.45 26.50 24.30 24.50 0.20 -0.20 0.75 -1.70 1.20 -3.35 0.50 -1.60 1.90 -5.55 3.10 -8.75 1.70 -4.35 2.45 -7.15 3 -11.30 1.85 -14.30 4.10 -23.95 7.95 -33.85 1 -2.55 1.90 -5 2.05 -5.40 0.15 -0.50 -0.80 -1.30 -2.90 -2.50 -3.70 -2.10 -8.35 -6.50 -9.75 -9.25 -1.20 -2.35 -3.10 -10.50 -4.85 -20.95 -1.90 -11.05 -2.10 -15.30 -1.05 -20.35 0.50 -2.30 0.90 -4.55 0.85 -4.95 -0.40 -5.85 -0.10 -11.70 0.85 -15.25 1.45 -5.40 4.90 -12.30 8.55 -17.20 5 -6.55 20.30 -21.60 35.40 -34.75 4.40 -3.85 13.40 -9.80 18.20 -12.05 2.70 -1.30 4.80 -1.90 7 -2.10 2.05 -0.15 5.05 -1 8.65 -2.40 6.05 -2.40 18.45 -6.75 28.50 -10 3.60 -1.15 10.55 -3.90 15.50 -6.10 9.85 -4.45 15.65 -6.40 21 -7.30 l3.50 -0.55 -0.30 -4.25 c-0.20 -2.35 -0.85 -8 -1.45 -12.55 -1.95 -15.10 -2.10 -16.70 -1.85 -19 0.25 -2.25 -1.60 -12.15 -6.20 -32.75 -4.55 -20.50 -12.45 -44.20 -16 -48.05 -0.55 -0.60 -1.35 -2.40 -1.75 -4 -0.45 -1.60 -1.20 -3.70 -1.70 -4.70 -0.45 -0.95 -2.25 -5.10 -4 -9.25 -1.70 -4.10 -3.65 -8.75 -4.40 -10.25 -1.80 -3.70 -8.80 -16.65 -12.20 -22.50 -1.50 -2.60 -3.40 -6 -4.15 -7.50 -0.90 -1.80 -3.60 -5 -7.70 -9.25 -3.45 -3.55 -8.30 -9 -10.70 -12.10 -2.45 -3.05 -5 -5.95 -5.70 -6.40 -3 -2 -3.05 -6.55 -0.10 -7.75 1.90 -0.80 3.15 -0.25 6.55 2.85 l2.60 2.40 -1.95 -3.50 c-1.65 -3.05 -6 -10.10 -6.60 -10.75 -0.10 -0.10 -1.95 -0.35 -4.10 -0.55 -6.35 -0.55 -8.05 -2 -10.10 -8.45 -2.25 -7.15 -1.70 -9.90 2.85 -15.15 1.35 -1.55 3.25 -3.95 4.20 -5.35 2.30 -3.35 16.90 -16.35 22.05 -19.65 1.50 -0.95 9.70 -5.50 18.20 -10.10 16.15 -8.70 23.60 -13.05 30.70 -17.70 4.85 -3.20 8.05 -5.10 14.05 -8.30 2.35 -1.25 4.60 -2.45 5 -2.75 2.60 -1.65 23.35 -9.55 32.10 -12.20 6.30 -1.90 14.95 -3.90 29.40 -6.75 14.45 -2.85 19.60 -3.55 26.75 -3.55 3.30 0 7.10 -0.45 11.25 -1.25 6.35 -1.30 12.20 -2.05 26.90 -3.50 4.50 -0.45 10.05 -1.10 12.25 -1.50 5.45 -0.90 20.80 -2.55 32.85 -3.50 5.35 -0.45 12.70 -1.05 16.30 -1.40 8.30 -0.70 10.35 -0.20 13.20 3 1.05 1.25 2.45 3.55 3.05 5.15 l1.15 2.85 1.50 -0.90 c2.10 -1.30 4.10 -1.20 5.50 0.20 1 1 1.30 1.10 2.10 0.50 1.55 -1.10 3.65 -0.80 5.30 0.85 0.80 0.85 1.95 1.50 2.60 1.50 1.40 0 3.25 1.30 3.75 2.70 0.30 0.70 -0.30 4.25 -1.75 10.80 -1.40 6.20 -2 9.80 -1.65 9.95 1.85 0.60 3 2.45 3.50 5.50 0.65 4.15 0.55 4.70 -3.85 30.55 -4.95 29.05 -6.15 36.90 -6.50 41.15 -0.15 2.05 0.25 11.25 1 21.35 2.20 30.55 2.45 36.75 2.10 53.25 -0.20 8.55 -0.50 17.10 -0.70 19 -0.25 1.95 -0.25 5.55 0 8 0.60 6.90 2.80 18.95 3.95 21.90 2 4.90 3.60 11.95 4.20 18.10 0.55 5.80 4.20 25.25 5.50 29.50 0.70 2.20 1.65 4.50 2.15 5.15 l0.90 1.15 6.70 -1.25 c13.35 -2.45 17.95 -2.90 30 -3.10 10.10 -0.15 13.05 -0.35 21 -1.65 18.80 -3.05 20.90 -3.25 30.75 -3.25 10.25 0 17.45 0.95 27.25 3.55 2.60 0.70 7 1.60 9.75 1.95 14.40 1.95 18.15 3.85 27.10 13.75 6.35 7 8.05 10.50 9.85 20.05 0.45 2.35 1.15 5.10 1.55 6.05 0.40 1 1.20 5.35 1.75 9.70 0.55 4.45 1.65 10.20 2.50 13.15 2 6.80 2.45 12.45 1.30 16.10 -1 3 -11.60 19.20 -16.15 24.60 -2.65 3.20 -6.05 6.35 -10.60 9.90 l-1.75 1.30 3.75 1.65 c8.25 3.70 18.45 9 22.70 11.85 6.20 4.15 12.65 9.90 15.60 13.85 l2.40 3.30 1.15 -1.40 c2.55 -3.20 18.10 -26.75 20.35 -30.80 4.20 -7.80 4.20 -7.80 4.30 -20.70 0.05 -12.25 -0.30 -15.05 -2.40 -18.05 -2.15 -3.20 -1.20 -6 2.65 -7.60 l2.20 -0.95 0 -6.25 c0 -5.20 -0.20 -7 -1.25 -10.60 -0.70 -2.40 -1.95 -9.40 -2.80 -15.65 -1.20 -9 -1.90 -12.45 -3.45 -17.05 -1.05 -3.15 -2.65 -8.45 -3.55 -11.70 l-1.60 -5.95 -5.05 -5.05 c-2.80 -2.80 -6.80 -6.60 -9 -8.50 -6.25 -5.50 -7.25 -8.10 -4.15 -11 l1.70 -1.55 -5.10 -6 c-6.90 -8.25 -8.15 -9.85 -8.55 -11.45 -0.20 -0.95 -1 -1.70 -2.65 -2.50 -3.25 -1.65 -4.30 -3 -4.30 -5.40 0 -2.65 1.90 -4.40 4.80 -4.40 2.25 0 2.25 -0.05 1.10 -1.90 -4.85 -7.65 -10.45 -13.80 -15.15 -16.55 -1.80 -1.05 -4.90 -2.85 -6.90 -4 -4.40 -2.55 -5.55 -4.45 -4.55 -7.40 0.30 -0.95 0.85 -1.85 1.25 -2 0.40 -0.15 0.70 -0.65 0.70 -1.15 0 -1.90 1.15 -4.05 2.60 -4.80 2.05 -1.05 5.95 -0.50 7.90 1.10 1.55 1.35 26.05 12.75 27.40 12.80 0.45 0 1.55 -0.30 2.40 -0.60 2.35 -1 3.75 -0.35 7.95 3.75 2.75 2.65 5.45 4.60 9.20 6.70 7.30 4.05 14.15 8.65 15.45 10.30 0.60 0.75 1.10 2.10 1.10 2.95 0 2.20 0.80 2.80 3.55 2.80 2.85 0 4.75 1.20 9.95 6.20 2.05 2 6.10 5.60 9 8.05 6.70 5.70 14.15 13.10 17.40 17.30 2.30 2.95 2.85 3.35 4.65 3.60 1.10 0.15 2.45 0.65 3 1.15 1.05 0.95 4.70 10.10 8.15 20.35 2.80 8.35 7.80 27.50 7.80 29.80 0 2.20 -2.30 4.55 -4.50 4.55 -3.20 0 -4.30 -1.40 -5.75 -7.25 -2.25 -9.20 -4.55 -17.25 -7.15 -25.20 -2.65 -8.10 -2.95 -8.75 -4.60 -9.80 -0.95 -0.65 -1.80 -1.10 -1.85 -1.05 -0.20 0.15 4.60 18.45 6.80 26.15 1.10 3.85 3.95 12.40 6.35 19 4.45 12.35 6.20 18.55 6.20 21.80 0 4.75 -6.60 6.60 -8.65 2.50 -0.40 -0.75 -1 -2.85 -1.30 -4.60 -0.35 -1.80 -2.30 -7.95 -4.40 -13.75 -5.05 -14.25 -6.80 -19.70 -9.20 -28.55 -1.10 -4.10 -2.10 -7.90 -2.25 -8.35 -0.15 -0.50 -0.70 -0.90 -1.25 -0.90 -1.80 0 -3.75 -2.55 -4.70 -6.20 -2.25 -8.70 -14.05 -28.25 -23.45 -38.80 -3.15 -3.55 -4.05 -4.20 -7.05 -5.05 -2.35 -0.70 -20.95 -3.95 -21.15 -3.70 -0.10 0.10 0.15 0.80 0.55 1.60 0.40 0.75 1.55 4.10 2.55 7.40 1.20 3.90 2.50 7 3.80 9 1.05 1.65 2.30 3.95 2.70 5.10 0.40 1.20 1.20 2.65 1.80 3.25 0.75 0.80 1 1.75 1 3.65 0 2.55 0.45 4.55 1.75 7.50 0.35 0.85 1 2.35 1.45 3.45 0.45 1.05 1.60 2.80 2.55 3.85 0.95 1.05 1.85 2.50 2.05 3.15 0.15 0.70 1.05 1.85 1.95 2.50 2.80 2.15 4.05 5.55 6.20 17.10 3.65 19.40 3.70 20 3.40 40.55 -0.55 34.35 -0.55 34.40 -4.50 45.90 -1 2.75 -2.05 6.80 -2.35 9 -0.70 4.80 -2.65 11.55 -4.05 14.30 -1.30 2.55 -4.20 5.75 -6.50 7.25 -1.80 1.10 -2.20 1.70 -4.70 6.70 -0.65 1.25 -2.80 4.10 -4.80 6.30 -9.35 10.30 -10.95 12.15 -10.95 12.80 0 0.95 7.75 16.55 12.35 24.90 6.95 12.60 10.65 19.10 13.85 24.50 1.75 2.90 3.90 6.65 4.85 8.35 1.70 3.10 1.70 3.10 3.55 2.80 2.20 -0.35 4.40 0.45 5.30 1.90 0.35 0.55 1.90 5.35 3.35 10.60 3 10.45 2.65 9.65 10.70 24.50 6.25 11.45 11.55 22.95 15.45 33.35 2.75 7.40 6.10 18.05 6.10 19.40 -0.05 1.25 -1.25 3.15 -2.40 3.80 -1 0.55 -0.80 1.05 5.05 15.60 l6.10 15.10 1.20 -0.95 c2.05 -1.60 5.65 -1 7 1.15 0.45 0.70 0.60 3.30 0.60 8.85 -0.05 9.05 0.95 18.55 2.65 25.45 0.70 2.65 1.95 8.80 2.75 13.60 0.85 4.80 2.30 12.15 3.25 16.25 1 4.15 3.10 15.05 4.75 24.25 1.65 9.20 4 22.05 5.25 28.50 3.15 16.50 3.30 18.10 3.30 38.05 0 14.30 -0.15 18.25 -0.75 20.25 -1.15 3.85 -1 4.90 0.90 5.80 2.60 1.25 3.10 3.05 2.45 8.55 -1.45 11.75 -3.80 25.35 -5.70 32.85 -2.25 9 -2.80 13.30 -2.85 23.40 l-0.05 6.60 1.50 0 c0.90 0 2.05 0.50 3 1.40 1.30 1.20 1.65 2.20 3 8.45 1.80 8.40 2.55 10.65 5.95 17.75 4.35 9.25 11.55 28.60 11.55 31.05 0 0.40 -0.55 1.50 -1.20 2.45 -1 1.50 -1.15 2.05 -0.75 3.70 2.10 9.35 3.80 19.95 4.45 28.35 0.55 6.75 0.40 9.45 -0.60 10.70 -0.35 0.40 -0.30 2.30 0.05 5.50 0.80 7.30 1.05 12.25 1.55 30.40 0.45 16.10 0.50 16.70 2.20 24.75 6.40 30.30 6.30 29.55 5.05 32.80 -0.65 1.70 -1.30 2.45 -2.80 3.20 -1.05 0.55 -2.15 1 -2.45 1 -0.30 0 -1.30 0.80 -2.20 1.75 -2.10 2.20 -4.45 2.40 -6.70 0.50 -1.25 -1.05 -1.70 -1.20 -2.80 -0.75 -1.80 0.65 -4.15 0.10 -5.25 -1.30 -1.15 -1.50 -2.35 -8.90 -1.70 -10.60 0.50 -1.30 -0.05 -7.60 -1.10 -12.75 -0.40 -1.85 -2.45 -7.35 -4.60 -12.25 -4.50 -10.15 -8.75 -16.85 -16.95 -26.85 -9.10 -11.05 -9.65 -12.30 -11.75 -25.25 -0.35 -2.05 -0.75 -3.95 -0.95 -4.15 -0.95 -1.10 -3.60 8.80 -5.75 21.40 -0.70 4.15 -1.70 9.65 -2.25 12.25 -1 4.50 -1.05 6.95 -1.35 48.25 -0.35 54.10 -0.20 56.95 4.40 76 2.30 9.45 2.25 10.55 -0.55 12.15 -1.30 0.75 -1.50 1.10 -1.50 3.10 0 1.25 0.35 4.15 0.80 6.50 2.85 15.95 3.10 17.70 3.70 29.75 0.45 8.55 0.45 13.90 0.05 20.75 -0.85 13.85 -2.50 20.05 -8 30 -1.65 2.90 -3.10 5.80 -3.30 6.50 -0.25 0.70 -0.90 1.95 -1.50 2.75 -0.65 0.85 -1.75 2.70 -2.45 4.15 -2.90 5.75 -7.10 8.15 -19.60 11.15 -5.35 1.25 -6.50 1.40 -8.15 0.90 -1.60 -0.45 -2.65 -0.35 -7.05 0.75 -2.85 0.70 -7.90 1.55 -11.20 1.85 -5.45 0.50 -6.20 0.70 -7.45 1.90 l-1.40 1.30 -19.10 0 c-18.90 0 -19.15 0 -21.85 -1.20 -1.50 -0.65 -5.10 -2.05 -8 -3.10 -3.05 -1.15 -6.80 -3 -8.95 -4.45 -3.20 -2.20 -4 -2.50 -6.15 -2.50 -3.10 0 -5.50 -1.10 -7.45 -3.45 -1.80 -2.15 -9.35 -17.40 -11.10 -22.30 -1.45 -4.15 -2.80 -11.30 -3.20 -17.40 -0.30 -4.10 -0.35 -4.30 -1.15 -3.60 -0.50 0.45 -1.65 0.90 -2.60 1.05 -2.50 0.45 -4.65 -1.50 -5.35 -4.90 -0.75 -3.35 -6.30 -18.10 -7.80 -20.75 -1.55 -2.65 -9.40 -12.35 -13.65 -16.85 -3.05 -3.25 -5.05 -6.55 -5.10 -8.35 0 -0.50 -1.80 -1.90 -4.30 -3.45 l-4.30 -2.65 -7.10 0.35 c-24 1.15 -44.50 5.40 -57.40 11.85 -4.05 2.05 -6.40 1.95 -8.25 -0.25 l-1.40 -1.75 -5.30 2.15 c-2.90 1.20 -6.30 2.75 -7.50 3.45 -1.30 0.80 -3.05 1.35 -4.05 1.35 -2.80 0 -7.80 3.65 -9.60 7.05 l-1.45 2.70 1.70 -1.60 c2.10 -1.95 4 -2.45 6 -1.65 3.15 1.30 3.75 5.60 1.15 8.05 -2.25 2.10 -5.80 7.45 -6.50 9.80 -0.95 3.15 -1.60 12.75 -1.95 28.85 -0.40 19.15 -1.30 27.35 -3.85 35.30 -1.40 4.35 -3 6.60 -6.50 9.25 -3.50 2.65 -14.60 8.35 -22.45 11.55 -3.15 1.25 -6.15 2.70 -6.70 3.25 -1.50 1.35 -5.90 3.15 -12 4.90 -7.85 2.20 -24.40 5.90 -28.25 6.30 -8.10 0.80 -12.75 1.85 -17.50 4.05 -2.65 1.20 -6.55 2.65 -8.75 3.20 -3.90 1 -11.80 1.65 -15.25 1.20z m0 -16.75 c0.35 -0.55 1.35 -1.35 2.35 -1.75 1.60 -0.70 1.90 -0.65 4 0.35 3.85 1.85 8.05 1.25 19.15 -2.85 14.30 -5.20 19.35 -6.55 33.40 -8.95 12.35 -2.05 16.30 -3.10 18 -4.70 1.10 -1.05 2.30 -1.55 4.85 -2 3.75 -0.65 7.95 -2.55 8.65 -3.90 0.25 -0.50 1.65 -5.65 3.10 -11.45 l2.65 -10.60 -1.35 -4.65 c-1.65 -5.95 -2.80 -16.50 -2.80 -26.35 0 -8.35 0.45 -10.35 2.60 -11.50 1.20 -0.65 1.25 -0.95 1.60 -6.75 0.45 -8.55 1.55 -12.40 4.40 -16.15 1.30 -1.65 3.15 -3.65 4.15 -4.40 1 -0.75 3 -3.25 4.50 -5.55 3.20 -5 4.90 -6.15 7.75 -5.30 1.75 0.50 2.15 0.35 9.55 -3.40 4.25 -2.15 9.35 -4.45 11.35 -5.10 3.50 -1.10 3.70 -1.15 5.25 -0.30 l1.60 0.85 7.75 -3.90 c14.85 -7.50 18.20 -8.05 46.85 -8.25 15.75 -0.10 17.60 0 19.30 0.80 1.45 0.70 2.10 0.75 2.90 0.30 0.65 -0.35 1.95 -0.40 3.40 -0.20 1.25 0.20 4.65 0.40 7.55 0.45 6.50 0.10 6.25 0.05 7.60 1.40 0.95 0.95 1.90 1.20 5.80 1.50 5.15 0.35 6.60 1 7.55 3.35 0.90 2.05 0.15 4 -2 5.45 -1.50 1.05 -2.05 1.15 -4.80 0.85 -2.60 -0.25 -3.15 -0.20 -3.15 0.40 0 1.30 1.50 2.05 3.70 1.90 1.85 -0.10 2.40 0.10 3.75 1.45 1 1.05 1.55 2.05 1.55 3.05 0 1.15 0.25 1.45 1 1.45 3.05 0 6.10 3.15 11 11.40 4.25 7.25 7.45 13.90 9.25 19.35 2.55 7.60 4.80 10.10 19.25 21.30 3.70 2.85 7.55 6 8.55 7 1.95 1.95 4.70 6.40 5.20 8.60 0.25 0.90 0.70 1.35 1.35 1.35 2.40 0 4.35 1.95 4.40 4.40 0 2.15 -0.70 3.45 -2.50 4.55 l-1.45 0.85 3.85 0.90 c2.10 0.55 6 1.45 8.60 2.15 11.80 2.95 18.95 3.75 34.50 3.75 12.80 0.05 18.35 -0.85 24.45 -3.95 5.05 -2.55 7.45 -2.20 8.85 1.15 0.85 2.05 1.20 2 5.95 -0.50 2.25 -1.15 3.40 -2.20 4.65 -4.05 1.90 -2.90 2.10 -3.55 4.05 -13.75 1.85 -9.65 3.10 -13.60 5.10 -16.70 l1.60 -2.40 -0.85 -11.45 c-0.50 -6.30 -1.05 -19.95 -1.30 -30.35 -0.30 -13.70 -0.65 -20.15 -1.25 -23.60 -0.50 -2.90 -0.75 -5.90 -0.55 -7.75 0.55 -5.90 0.25 -12.40 -0.70 -16.25 -2.80 -11.05 -5.60 -26.35 -6.45 -35.50 -1.20 -12.35 -2.75 -50.60 -2.25 -54.75 0.10 -0.80 0.25 -4.75 0.40 -8.75 0.10 -4.30 0.55 -8.70 1.05 -10.90 l0.85 -3.65 -1.25 -0.95 c-1.90 -1.50 -2.05 -3.25 -0.65 -8.50 0.70 -2.60 1.60 -6.95 2.05 -9.65 0.85 -5.35 1.55 -7.40 3.75 -10.85 1.15 -1.85 1.75 -3.95 3.20 -11.50 0.95 -5.10 2.20 -12.40 2.80 -16.25 0.55 -3.85 1.15 -7.75 1.30 -8.70 0.15 -0.95 0.95 -2.35 1.75 -3.20 1.80 -1.75 3.70 -1.70 6.70 0.35 1.05 0.70 2.55 1.30 3.35 1.30 2 0 4.10 1.20 4.80 2.70 0.80 1.80 5.35 7.65 7.65 9.95 1.10 1.05 1.95 2.30 1.95 2.75 0 0.50 1.25 3 2.75 5.60 7.85 13.50 12.80 24 17.10 36 2.65 7.55 6.65 21.15 6.65 22.75 0 0.65 -0.55 1.85 -1.25 2.65 l-1.25 1.50 1.80 3.10 c2.15 3.65 4 7.75 5.25 11.50 0.85 2.50 0.90 2.60 0.65 0.75 -0.80 -6.60 -2.50 -15.25 -6.70 -34.25 -5.45 -24.50 -8.05 -38.60 -9.70 -52.25 -0.45 -3.55 -1.05 -8.20 -1.30 -10.25 -1 -7.85 -1.60 -16.50 -1.30 -18.30 0.65 -3.40 3.95 -5.20 6.85 -3.70 0.50 0.30 0.95 0.40 0.95 0.25 0 -1.40 -2.25 -8.70 -2.90 -9.40 -0.40 -0.50 -0.95 -2.35 -1.20 -4.15 -0.20 -1.85 -0.60 -4 -0.85 -4.90 -0.25 -0.85 -0.80 -3.10 -1.25 -5.05 -0.95 -4.20 -4.05 -10.65 -8.55 -17.75 l-3.35 -5.25 0.30 -5.65 c0.30 -5.25 0.25 -5.80 -0.75 -7 -0.95 -1.20 -1 -1.75 -0.70 -5.35 0.15 -2.20 0.60 -5.05 1 -6.30 0.35 -1.30 0.85 -3.65 1 -5.20 0.40 -2.85 0.40 -2.85 -0.80 -2.45 -1.60 0.55 -3.90 0.35 -4.80 -0.35 -1.85 -1.60 -2.15 -3.10 -1.35 -7.50 1.40 -7.75 2.20 -18.65 2.20 -29.80 0 -10.90 0 -11.15 -1.20 -12.85 -1.15 -1.70 -1.20 -2.25 -1.50 -13.15 -0.15 -6.30 -0.55 -14.90 -0.80 -19.15 -0.30 -4.25 -0.75 -11.70 -1 -16.50 -0.30 -4.80 -0.85 -12.55 -1.25 -17.25 -1.55 -17.20 -1.50 -16.15 -0.35 -17.75 1.25 -1.70 1.35 -3.50 0.60 -12.65 -2.05 -25.05 -2.70 -29.85 -4.75 -35.80 -0.90 -2.65 -2.70 -8.15 -4 -12.30 -3.80 -12.20 -5.70 -18.05 -5.70 -17.50 -0.05 0.30 0.30 2.75 0.70 5.50 1.10 7.55 1 9.55 -0.50 11.05 -1.05 1.05 -1.65 1.25 -3.60 1.10 -3.60 -0.25 -3.95 -1.10 -5.65 -12.20 -2.05 -13.60 -2.85 -17.90 -5.05 -27.45 -2.90 -12.50 -10.70 -41.60 -11.90 -44.50 -3.95 -9.25 -14.95 -31.05 -22.90 -45.35 -3.05 -5.40 -6.80 -12.80 -8.40 -16.45 -2.55 -5.80 -2.80 -6.80 -2.40 -8.20 0.45 -1.35 0.30 -1.95 -0.75 -3.75 -0.70 -1.20 -1.40 -1.90 -1.50 -1.60 -0.05 0.25 0.75 6.05 1.90 12.80 1.10 6.75 1.90 12.85 1.70 13.55 -0.80 3.20 -5.20 4.30 -7.65 1.85 -1.50 -1.50 -2 -3.45 -4.30 -18.20 -3.60 -23.05 -8.65 -36.35 -19.55 -51.50 -4.60 -6.50 -5.40 -7.35 -6.20 -6.90 -1.60 0.85 -3.60 0.55 -5.95 -0.95 -1.25 -0.80 -5.35 -3.05 -9.05 -5.05 -9.95 -5.35 -18.25 -10.80 -30.10 -19.60 -5.80 -4.35 -10.70 -7.90 -10.90 -7.90 -0.65 0 -15.35 6.20 -23.50 9.85 -8.50 3.90 -11.90 5.05 -24.40 8.35 -4.60 1.25 -13.30 3.95 -19.35 6 -7.65 2.60 -15.85 4.90 -27 7.55 -27.50 6.55 -47.70 11.55 -71.55 17.75 -16.20 4.25 -26.05 6.55 -33.25 7.75 -12.10 2 -31.10 4.50 -40.10 5.25 -11.05 0.85 -15.65 1.85 -27.35 5.70 -12.55 4.15 -19 5.20 -43.25 7.05 -5.75 0.45 -13.30 1.15 -16.75 1.55 -12.55 1.50 -13.80 1.65 -17.05 2.15 -7.45 1.20 -18.20 2.50 -25 3.05 -4.25 0.30 -12.60 1.55 -20.45 3 -24.70 4.65 -31.80 5.50 -45.80 5.65 l-8.85 0.10 -4.20 7 c-5.25 8.80 -9.25 16.60 -10.55 20.60 -0.55 1.70 -1.50 3.70 -2.05 4.50 -1.85 2.55 -12.55 30.25 -16.10 41.65 -5.40 17.35 -5.85 19.30 -6.45 28 -1.60 23.15 -3.35 39.60 -5.80 54.15 -0.70 4.15 -1.20 9.10 -1.15 11.35 0.05 3.35 -0.10 4.15 -1.05 5.55 l-1.15 1.60 0.60 8.55 c0.70 9.65 1.30 16.10 2.10 22.30 0.50 3.75 0.75 4.45 2.15 5.80 1.35 1.30 1.80 2.35 2.75 6.75 0.60 2.85 1.65 6 2.25 6.95 0.60 0.95 1.70 4.35 2.50 7.50 1.60 6.70 9.10 29.50 11.10 33.80 1.70 3.55 4.25 7.70 6.50 10.50 2.25 2.75 2.55 4.30 1.35 6.35 l-1 1.65 4.10 10.25 c5.85 14.60 9.80 23.25 13.50 29.70 3.90 6.75 4.10 8.10 1.45 10.55 l-1.80 1.70 4.05 9.40 c4 9.40 8.15 19.95 10.35 26.20 1.20 3.55 3.70 7.20 5.30 7.70 1.25 0.40 2.20 2.40 2.60 5.60 0.20 1.50 0.70 3.65 1.10 4.75 0.45 1.15 6.80 14.35 14.20 29.35 7.40 15 14 28.65 14.70 30.35 1.25 2.90 1.30 3.20 0.60 4.85 -0.40 0.95 -1.20 2.05 -1.75 2.40 -1.50 0.90 -1.35 3.35 0.25 4.90 1.20 1.15 1.30 1.40 1 4.50 -0.15 1.80 -0.40 5.60 -0.55 8.50 -0.75 13.25 -1.90 28.50 -2.80 36.65 -0.55 4.85 -0.90 9.05 -0.75 9.30 0.15 0.20 0 5.65 -0.30 12.10 -0.40 8.85 -0.40 13.70 0.05 20.10 0.90 13 4.15 29.85 6.55 34.25 l1.05 1.85 -0.30 -1.75 c-0.15 -0.95 -0.40 -8.85 -0.55 -17.50 -0.25 -13.25 -0.20 -16.35 0.50 -19.40 0.95 -4.50 3.50 -9.25 6.45 -11.95 1.90 -1.80 2.35 -2.55 3.10 -5.70 0.50 -2.05 1.20 -4.60 1.60 -5.65 0.60 -1.75 0.55 -2.30 -0.15 -4.45 -1.20 -3.65 -1.20 -7.45 0.05 -8.85 1.45 -1.60 3.05 -2.10 5.05 -1.55 1.50 0.40 1.90 0.30 2.95 -0.75 1.25 -1.25 3.25 -1.55 5.35 -0.75 0.70 0.25 2.75 2.75 5 6.20 l3.85 5.75 2.25 -0.25 c2.75 -0.35 4.55 0.65 5.55 3.05 0.40 0.90 1.50 4.90 2.50 8.85 1.65 6.50 3.75 12.30 6.90 18.90 0.60 1.25 1.45 3.25 1.80 4.45 0.65 1.90 0.85 2.10 2.35 2.10 2.95 0 4.15 1.60 5.20 7.10 1.50 7.70 4.95 20.45 6 22.15 1.75 2.80 6.95 27.95 8.35 40.25 0.40 3.85 0.80 12.65 0.90 20.50 0.15 13.05 0.25 14.30 1.95 24.50 2.20 13 3.50 23.30 4.50 35.25 1.10 13.60 1.45 22.80 0.85 24.35 -0.65 1.70 -2.50 3.40 -3.70 3.40 -0.85 0 -0.90 0.25 -0.60 3.15 0.95 8.75 3.20 17.70 5.70 23.10 0.75 1.70 2.55 4.25 3.95 5.75 2.10 2.25 2.60 3.05 2.60 4.50 0 1 -0.35 2.25 -0.75 2.80 -0.65 0.95 -0.60 1.20 0.40 2.55 2.50 3.30 6.20 7.30 7.35 7.90 2.85 1.45 23.85 6.65 27.35 6.70 0.65 0.05 1.35 -0.40 1.65 -1z m340.50 -28.40 c0 -0.20 -2.10 -0.70 -4.60 -1 -5.45 -0.75 -6.95 -1.05 -19.40 -4 -3.45 -0.80 -7.70 -1.60 -9.50 -1.80 -1.80 -0.20 -4.45 -0.65 -5.85 -1 -1.45 -0.35 -2.65 -0.60 -2.65 -0.50 0 0.65 5.15 3.25 6.45 3.25 0.85 0 3.20 0.80 5.20 1.70 6.80 3.25 9.45 3.70 20.50 3.75 5.40 0.05 9.85 -0.15 9.85 -0.40z m-234.95 -11.45 c1.95 -5.15 2.50 -8.65 2.80 -18.40 0.30 -9.55 0.30 -9.60 -1 -12.25 -0.70 -1.50 -1.55 -3.75 -1.90 -5.05 l-0.55 -2.30 -1.75 1 -1.70 1.05 0.30 3.80 c0.20 2.10 0.45 3.90 0.60 4.05 0.10 0.10 0.90 0.45 1.75 0.75 0.85 0.25 2 1.10 2.60 1.90 0.95 1.30 1 1.60 0.40 8.50 -0.55 6.40 -2.40 17.10 -3.40 19.55 -0.25 0.65 -0.20 0.85 0.20 0.60 0.30 -0.15 1.05 -1.60 1.65 -3.20z m193.15 -11.20 c-0.90 -2.85 -2.25 -5.40 -3.70 -7.05 -1.80 -2.10 -16.45 -13.55 -16.80 -13.20 -0.50 0.45 1.40 6.65 2.55 8.40 1.95 3 8.25 7.95 14.50 11.30 3.60 1.95 3.95 2 3.45 0.55z m-353.85 -36.50 c-0.10 -0.90 -0.20 -0.30 -0.20 1.35 0 1.65 0.10 2.40 0.20 1.65 0.10 -0.75 0.10 -2.10 0 -3z m-6.75 -46.80 c-0.45 -2.25 -0.50 -2.15 -0.50 1.90 0 3.75 0.05 4.05 0.50 2.35 0.35 -1.25 0.35 -2.65 0 -4.25z m-45.70 -106.95 c0.80 -6.05 0.90 -8.40 0.45 -8.35 -2.10 0.40 -2.20 0.55 -2.80 5.05 -0.90 7.05 -0.85 7.15 1.50 7.60 0.15 0 0.55 -1.90 0.85 -4.30z m546.40 -57.25 c-0.05 -1.75 0.25 -4.40 0.65 -5.95 l0.65 -2.80 -2.85 -5.45 c-2.90 -5.50 -4.10 -7.35 -3.60 -5.45 0.90 3.25 1.40 5.65 2.35 11 0.90 5.25 2.45 11.75 2.75 11.75 0.05 0 0.05 -1.40 0.05 -3.10z m-23.45 -13.70 c-0.10 -0.15 -0.60 -0.10 -1.05 0.10 -0.60 0.25 -0.80 0.95 -0.80 3.15 l0.05 2.80 1 -2.95 c0.55 -1.60 0.90 -3 0.80 -3.10z m49.70 -7.50 c-0.30 -1.60 -0.65 -3 -0.80 -3.10 -0.65 -0.70 -0.65 0.60 0.15 4.90 0.65 3.65 0.90 4.35 1 2.90 0.10 -1.05 -0.10 -3.15 -0.35 -4.70z m-45.80 -1.55 c1.40 -2.95 2 -5.35 1.25 -4.90 -1.20 0.75 -3.70 7.75 -2.80 7.75 0.15 0 0.85 -1.30 1.55 -2.85z m-561.65 -1.50 c0.05 -0.80 -0.80 -3.10 -1.85 -5.10 -2.05 -3.90 -2.80 -4.45 -1.35 -1 0.50 1.20 1.35 3.50 1.85 5.05 1 3.10 1.30 3.30 1.35 1.05z m606.40 -8.60 c0 -0.70 -0.55 -4.55 -1.25 -8.55 -0.70 -4 -1.65 -9.55 -2.10 -12.35 -0.45 -2.85 -1 -5.15 -1.25 -5.15 -0.30 0 -0.35 0.80 -0.20 1.90 0.20 1 0.75 5.80 1.30 10.60 0.55 4.80 1.25 10.50 1.60 12.70 0.50 3.40 0.65 3.80 1.25 3 0.35 -0.50 0.65 -1.45 0.65 -2.15z m-602 -6.90 c0 -0.45 -11 -21.80 -11.55 -22.35 -1.35 -1.50 0.10 2.05 4.95 11.80 2.95 6 5.65 10.90 6 10.90 0.30 0 0.60 -0.15 0.60 -0.35z m-85 -176.45 c-1.75 -7.25 -6.40 -29.85 -7.75 -37.45 -0.85 -4.70 -3.70 -12.70 -3.75 -10.45 0 1.70 3.45 20 4.95 26.20 2.05 8.35 7.70 28.55 7.90 28.35 0.10 -0.10 -0.50 -3.10 -1.35 -6.65z m664.05 -44.35 c-0.40 -0.40 -0.55 2.25 -0.45 10.20 l0.05 10.70 0.50 -10.15 c0.35 -7.45 0.30 -10.35 -0.10 -10.75z m-690.05 -89.95 c0 -6.45 1.75 -15.85 2.90 -15.90 0.20 0 0.90 -0.45 1.55 -0.95 1.15 -0.85 1.20 -1.20 1.60 -10.35 0.45 -10.55 2 -28.20 3.50 -39.20 0.50 -4 0.95 -7.40 0.95 -7.60 0 -0.15 -1.45 -1.35 -3.15 -2.55 -4.95 -3.55 -9.65 -8.35 -10 -10.20 -0.35 -1.85 -1.25 -2.10 -3.10 -0.85 -1.45 0.95 -3.90 0.65 -5.30 -0.60 -0.50 -0.45 -1.50 -2.30 -2.20 -4.15 -1.90 -5 -3.10 -6.60 -8 -10.90 -7.60 -6.60 -16.80 -16.15 -21 -21.75 -4 -5.30 -7.90 -12 -8.75 -14.95 -0.55 -1.90 0.40 -4.60 1.95 -5.40 1 -0.55 1 -0.65 -0.75 -3.70 -3.30 -5.75 -7.70 -15.20 -9.20 -19.75 -1.55 -4.80 -2.80 -12.40 -3.25 -19.60 -0.30 -5.65 0.60 -17.30 1.75 -22.25 0.50 -2.20 1.30 -6.30 1.75 -9.10 1.45 -9.20 5.50 -20.10 12 -32.50 5.45 -10.30 8.30 -14.30 15.60 -21.65 6 -6.05 9.70 -10.50 8.35 -9.95 -5.90 2.35 -7.10 3.10 -7.80 4.90 -0.60 1.50 -1.90 2.70 -6.70 6.05 -15.60 10.90 -23.95 18.10 -31.10 26.75 -7.25 8.70 -22 25.30 -24.80 28 -2.65 2.45 -3.65 3.85 -8.40 11.75 -7.20 12 -12.60 23.05 -15.10 31 -1.65 5.15 -2.05 12.05 -1.35 22 1.35 18.65 4.70 28.80 14.15 42.55 3.50 5.10 3.95 6.05 3.65 7.35 -0.35 1.70 1.85 5.20 16.30 25.40 4.35 6.10 10.75 15.25 14.25 20.25 10.95 15.85 16.85 24.05 19.50 26.90 1.45 1.55 5.70 5.05 9.50 7.75 3.85 2.75 10.65 7.95 15.20 11.55 11.75 9.35 10.85 8.75 13.35 8.75 1.75 0 3.05 0.55 6.75 2.75 2.50 1.50 4.75 2.75 5 2.75 0.20 0 0.40 -1.20 0.40 -2.60z m-79.50 -54.75 c0 -0.25 -1.90 -3 -4.15 -6.20 -2.25 -3.20 -5.20 -7.40 -6.60 -9.35 -1.35 -1.95 -2.75 -3.65 -3.10 -3.80 -0.55 -0.25 0.90 2.10 9.65 15.80 1.50 2.35 2.80 3.85 3.35 3.85 0.45 0.05 0.85 -0.10 0.85 -0.30z m-15.50 -22.40 c-0.85 -1.25 -1.65 -2.25 -1.80 -2.25 -0.40 0 1.90 3.65 2.50 4.10 0.95 0.65 0.85 0.45 -0.70 -1.85z m127.65 -14.35 c0.45 -1.05 0.60 -1.90 0.40 -1.90 -0.25 0 -0.60 0.55 -0.75 1.20 -0.15 0.65 -0.45 1.60 -0.65 2.15 -0.55 1.60 0.20 0.45 1 -1.45z m3.35 -8.15 c0 -0.10 0.45 -1.35 1 -2.75 0.55 -1.35 0.80 -2.50 0.55 -2.50 -0.40 0 -0.85 0.95 -2.40 4.90 -0.15 0.30 0 0.60 0.30 0.60 0.30 0 0.55 -0.10 0.55 -0.25z m4.15 -10.60 c1.40 -3.45 1.50 -5.10 0.15 -1.95 -0.45 1 -1.15 2.60 -1.55 3.55 -0.40 0.95 -0.55 1.75 -0.35 1.75 0.25 0 1.05 -1.50 1.75 -3.35z m-4.20 -17.35 c1.20 -0.80 2.75 -2.45 3.50 -3.65 0.70 -1.25 3.15 -5.15 5.40 -8.70 2.25 -3.55 3.95 -6.50 3.75 -6.65 -0.60 -0.35 -8.20 -2.35 -8.35 -2.20 -0.10 0.10 -1.10 2.45 -2.20 5.30 -2.40 5.95 -5.80 18.30 -4.90 17.75 0.35 -0.20 1.60 -1 2.80 -1.85z m20.90 -29.60 c0.65 -0.80 1.55 -1.85 2 -2.35 0.50 -0.50 0.65 -1.05 0.35 -1.30 -1 -0.95 -7.75 -3.25 -13.45 -4.65 -10.75 -2.60 -11.50 -2.85 -13.65 -5.10 -1.10 -1.10 -2.85 -3.30 -3.80 -4.80 -1.80 -2.70 -1.80 -2.70 -1.50 -1 1 5.95 2.85 10.20 6.10 14 l1.45 1.70 2.05 -0.90 c1.35 -0.60 2.50 -0.80 3.55 -0.55 1.90 0.40 3.70 2.55 3.40 4.15 -0.10 0.60 -0.05 1.25 0.20 1.40 0.25 0.15 2.30 0.40 4.55 0.55 2.30 0.15 4.20 0.35 4.30 0.40 0.10 0.10 0.85 0.10 1.70 0.05 1 -0.10 1.95 -0.60 2.75 -1.60z m-98.35 -1.55 c0 -0.50 -0.35 -2.90 -0.75 -5.40 -1.90 -11.75 -2.05 -21.20 -0.95 -54.40 l0.35 -9.40 -1.70 1.50 c-1.55 1.45 -1.65 1.60 -1.05 3.20 1.05 2.95 0.75 4.15 -1.70 6.90 l-2.30 2.60 0.35 4.90 0.35 4.95 -1.55 1.45 c-1.50 1.40 -1.55 1.60 -1.55 5.55 0 8.65 3.10 22.05 8.10 35.15 1.40 3.65 2.40 4.90 2.40 3z m170.75 -1.90 c4.40 -0.40 9.35 -0.95 11 -1.25 3.50 -0.55 29.35 -7.25 37.95 -9.85 3.30 -0.95 10.30 -2.70 15.50 -3.90 5.25 -1.20 13.50 -3.20 18.30 -4.45 10.60 -2.75 31.45 -6.95 40 -8 3.45 -0.45 11 -1.25 16.75 -1.80 19.80 -1.95 28.25 -3.60 40 -7.75 4.40 -1.55 10.15 -3.50 12.75 -4.30 5.75 -1.80 18.45 -4.45 21.35 -4.45 2.85 0 14.75 -3.15 31.45 -8.25 15.90 -4.95 22.40 -6.55 41.70 -10.50 7.55 -1.55 19.50 -4.15 26.50 -5.80 7 -1.65 16.40 -3.80 20.85 -4.75 10.95 -2.35 17.35 -4.20 25 -7.20 9.15 -3.55 8.90 -3.15 4.30 -6.75 -5.65 -4.45 -12.80 -11.65 -13.85 -14.10 -1.05 -2.35 -0.70 -2.25 -12.70 -3.80 -4.10 -0.55 -5.35 -0.95 -6.35 -1.85 -1.60 -1.50 -2.10 -4.10 -1.10 -5.70 0.80 -1.20 0.75 -1.20 -1.05 -1.95 -1 -0.40 -2.25 -1.20 -2.75 -1.70 -1.15 -1.30 -1.25 -4.25 -0.15 -5.90 1.60 -2.45 2.75 -2.50 10.75 -0.30 4 1.10 9.65 2.80 12.50 3.80 2.90 0.95 5.70 1.75 6.20 1.75 0.55 0 1.75 -0.65 2.70 -1.50 3.40 -3 6.65 -2 19.15 5.95 4 2.50 8.15 4.80 9.25 5.10 1.10 0.25 5.10 1.35 8.95 2.45 l6.95 1.95 2.05 -1.40 c3.30 -2.30 10.55 -9.60 11.95 -12.05 1.70 -3 2.55 -6.45 4.10 -16.90 l1.25 -8.70 -1.05 -4.05 c-4.90 -19.40 -8.70 -31.75 -11.95 -38.60 -3 -6.25 -3.70 -7.15 -7.90 -9.90 -4.15 -2.75 -6.05 -3.20 -14.85 -3.60 -3.85 -0.15 -9.80 -0.80 -13.25 -1.35 -6.50 -1.05 -9.35 -1.05 -20.75 0.05 -2.75 0.30 -7.70 0.50 -11.05 0.55 -5.75 0 -6.05 0.05 -7.10 1.25 -0.60 0.65 -1.65 1.35 -2.35 1.55 -1.70 0.40 -4.80 -0.95 -6.55 -2.95 -1.30 -1.50 -1.35 -1.50 -5.65 -1.20 -2.35 0.15 -12.70 1.85 -23 3.80 -10.30 1.95 -19.10 3.55 -19.65 3.55 -0.50 0 -0.90 0.20 -0.90 0.40 0 0.25 1.10 3.10 2.45 6.40 4.60 11.20 4.55 11.10 5.60 10.85 1.50 -0.40 3.80 0.80 4.35 2.25 0.30 0.75 0.65 2.65 0.80 4.30 0.30 3.50 1 4.70 7.25 11.80 2.50 2.85 4.55 5.35 4.55 5.55 0 0.20 0.85 0.65 1.90 0.95 2.75 0.90 3.60 1.85 3.60 4.05 0 2.15 -1.75 3.95 -3.85 3.95 -1.15 0 -1.10 0.05 0.70 2.45 2.05 2.65 2.70 2.90 4.65 1.80 1.95 -1.10 3.45 -0.90 5.05 0.70 1.55 1.60 1.85 3.30 0.75 4.80 -0.60 0.85 -0.45 1.15 1.65 3.10 1.55 1.40 2.75 2.10 3.70 2.15 0.80 0 1.95 0.55 2.70 1.30 1.15 1.15 1.25 1.50 0.95 3.80 -0.55 4.15 -1.90 6.10 -6.10 9.05 -7.25 5.05 -26.25 15.05 -35.35 18.60 -7.75 3.10 -29.50 12.20 -35.05 14.75 -1.25 0.55 -2.35 1 -2.50 1 -0.25 0 -3.40 1.35 -8.05 3.50 -7.95 3.65 -21.10 8.20 -32.25 11.20 -11.55 3.05 -58.05 11.95 -67.20 12.85 -7.40 0.70 -17.15 0.35 -24.30 -0.80 -4.35 -0.75 -5.35 -0.75 -12.25 0.05 -8.45 0.95 -20.35 0.75 -27.75 -0.50 -7.30 -1.20 -22.20 -5.90 -24.10 -7.65 -0.80 -0.70 -0.90 -0.70 -1.35 0.50 -0.60 1.55 -2.40 2.85 -3.90 2.85 -0.60 0 -1.70 -0.50 -2.45 -1.15 -1.10 -0.95 -1.40 -1.70 -1.60 -4.15 -0.15 -1.60 -0.55 -3.40 -0.90 -3.95 -0.90 -1.25 -0.90 -3.30 0.05 -4.55 1 -1.35 0.95 -1.55 -0.60 -1.85 -2.30 -0.50 -3.25 -1.50 -3.50 -3.90 -0.20 -1.85 -0.05 -2.40 1 -3.55 1.70 -1.80 3.65 -2.25 5.45 -1.25 l1.40 0.80 0 -7.15 c0 -6.50 -0.10 -7.25 -1 -8.05 -0.55 -0.50 -1.10 -1.65 -1.30 -2.60 -0.25 -1.35 -0.10 -1.95 0.80 -2.90 1.15 -1.20 1.15 -1.35 0.50 -4.85 -1.25 -7.15 -1.05 -6.95 -2.75 -3.60 -1 1.95 -3.35 4.80 -7 8.60 -4.95 5.05 -5.65 5.60 -7.25 5.60 -2.65 0 -4 -1.15 -4 -3.45 0 -1.70 0.35 -2.30 3.30 -5.10 4.40 -4.25 7.75 -8.55 9.65 -12.30 2.40 -4.80 2.55 -6.25 1.65 -14.65 l-0.85 -7.45 -3.30 -1.05 c-1.85 -0.55 -3.95 -1 -4.65 -1 -0.70 0 -3.95 1.30 -7.15 2.90 -3.25 1.60 -9.05 4.25 -12.90 5.80 -14.90 6.20 -20.25 8.55 -27.50 12.20 -15.30 7.65 -31.45 16.65 -43.10 24.15 -9.70 6.25 -13.30 9.05 -18.80 14.70 -2.20 2.30 -2.85 3.25 -2.60 4 0.95 3.10 1.80 8.40 1.55 9.50 -0.65 2.65 -4.95 3.25 -6.80 1 -0.65 -0.80 -0.75 -0.65 -1.30 1.30 -6.60 24.60 -8.20 31 -8.20 32.50 0 1.35 7.75 15.40 9.95 17.90 1.15 1.35 2 1.70 7.25 2.80 6.65 1.40 13.55 3.60 17.25 5.45 l2.40 1.25 1.10 -1.25 c0.60 -0.70 1.75 -1.50 2.55 -1.80 0.90 -0.30 2.05 -1.45 3.10 -3.05 4.25 -6.65 19.85 -26.40 23.15 -29.25 2.40 -2.15 4.75 -2.20 6.80 -0.15 1.05 1.10 1.45 1.95 1.45 3.25 0 1 0.25 1.80 0.55 1.80 1.15 0 3.95 1.65 4.20 2.50 0.15 0.50 0.95 1 1.80 1.20 2.05 0.40 3.95 2.40 3.95 4.25 0 2.35 -0.85 3.55 -4.85 7.05 -4.70 4.10 -9.75 9.85 -11.10 12.80 -0.60 1.25 -1.20 3.30 -1.40 4.60 -0.15 1.30 -0.45 2.70 -0.70 3.15 -0.35 0.70 0.75 0.85 9.95 1.40 5.70 0.35 10.90 0.65 11.60 0.70 0.70 0.05 2.15 0.15 3.25 0.25 1.15 0.05 5.65 -0.20 10 -0.65z m-43.70 -2.40 c-0.50 -1.30 0.15 -6.25 1.25 -9.10 0.75 -1.95 0.70 -1.95 -2.90 1.75 -2 2.05 -4.50 4.70 -5.50 5.85 -1.80 2 -1.85 2.10 -0.75 2.30 0.60 0.10 2.75 0.25 4.70 0.30 3.55 0.05 3.60 0.05 3.20 -1.10z m123.40 -7.10 c13 -2.30 37.15 -8.15 35.65 -8.65 -1.40 -0.45 -26.60 5.15 -42.10 9.35 -3.05 0.80 -0.95 0.60 6.45 -0.70z m87.30 -13 c18.65 -2.55 24.50 -3.75 45.25 -9.20 10.30 -2.70 26.80 -6.90 36.65 -9.35 9.85 -2.45 17.65 -4.50 17.40 -4.60 -0.25 -0.10 -5.15 0.75 -10.90 1.90 -14.25 2.80 -33.75 6.05 -34.50 5.80 -1 -0.40 -6.70 0.70 -7.40 1.40 -0.40 0.35 -2 0.80 -3.60 1 -3.65 0.40 -10.15 2.05 -20.65 5.20 -4.55 1.35 -13.20 3.65 -19.25 5.05 -11.70 2.70 -18.05 4.45 -16.60 4.50 0.45 0.05 6.60 -0.75 13.60 -1.70z m-401.65 -35.20 c7.90 -11.75 16 -21.60 27.20 -33.05 l7.15 -7.25 -0.95 -1.25 c-0.55 -0.70 -1 -1.90 -1 -2.70 0 -1.35 -0.95 -0.60 -10.95 9.40 -8 7.95 -11.05 11.30 -11.25 12.40 -0.15 0.85 -0.95 2.30 -1.75 3.30 -4.05 5.20 -9.90 15.95 -12.85 23.75 -2.05 5.30 -2.10 5.85 -0.40 2.90 0.65 -1.25 2.85 -4.60 4.80 -7.50z m663.40 2.15 c0 -0.35 -5.45 -6.80 -14.70 -17.45 -10.05 -11.50 -11.75 -13.25 -12.75 -13.25 -1.15 0 -9.25 6.50 -8.75 7 2.15 1.95 19.95 14.70 24.35 17.40 9.30 5.75 11.85 7.10 11.85 6.30z m-346.75 -6.75 c-1.90 -0.55 -5.40 -1.10 -7.75 -1.20 -2.35 -0.15 -5.10 -0.35 -6.10 -0.45 -3.30 -0.35 -2.05 0.50 1.75 1.20 3.30 0.60 10.50 1.30 14.10 1.40 0.90 0 0.10 -0.35 -2 -0.95z m26.90 -1.30 c-0.65 -0.10 -1.75 -0.10 -2.50 0 -0.80 0.10 -0.25 0.20 1.10 0.20 1.40 0 2 -0.10 1.40 -0.20z m222.95 -2.15 c3.10 -0.75 5.15 -1.40 4.60 -1.45 -1.10 -0.05 -10.75 2.05 -13.45 2.95 -2.95 0.95 3 -0.05 8.85 -1.50z m-159.20 -2.05 c19.35 -3.80 27.25 -5.60 35.50 -8 6.05 -1.75 17.75 -5.95 17.45 -6.25 -0.25 -0.25 -15.10 2.80 -20.75 4.30 -2.10 0.55 -7.10 2 -11.10 3.25 -4 1.25 -10.50 2.95 -14.50 3.80 -8 1.65 -25.10 5.85 -25.45 6.20 -0.45 0.50 1.45 0.15 18.85 -3.30z m265.95 0 c0.55 -1.40 0.50 -1.65 -0.50 -2.50 -1.60 -1.40 -7.20 -5.10 -10.10 -6.70 -2.35 -1.30 -2.10 -1 3.50 4.65 3.30 3.35 6.10 6.10 6.25 6.10 0.15 0 0.55 -0.70 0.85 -1.55z m-609.85 -4.30 c0 -2.20 -0.25 -2.05 -0.70 0.50 -0.25 1.35 -0.20 1.85 0.15 1.60 0.30 -0.15 0.55 -1.10 0.55 -2.10z m303 -0.40 c4 -0.65 12.65 -2.30 19.25 -3.70 6.60 -1.35 18.65 -3.85 26.75 -5.50 8.10 -1.70 19.05 -4.05 24.25 -5.30 5.25 -1.20 12 -2.80 15.10 -3.50 11.35 -2.55 16.45 -4.60 22.15 -8.75 5.45 -4.05 10.95 -7.20 21.35 -12.45 14.85 -7.40 28 -15.50 33.40 -20.55 1.40 -1.30 2.75 -2.45 3.10 -2.55 0.35 -0.10 -0.90 -2.30 -3 -5.25 -2 -2.80 -3.85 -5.50 -4.10 -5.95 -0.50 -0.80 -0.65 -0.80 -2 -0.10 -0.85 0.40 -5.65 2.15 -10.75 3.80 -5.70 1.90 -11.65 4.30 -15.50 6.25 -7.10 3.60 -12.40 5.40 -24.20 8.30 -5.95 1.40 -10.95 3.05 -17.45 5.70 -12.40 5.05 -22.50 8.45 -29.65 10 -3.25 0.75 -9.75 2.25 -14.45 3.30 -9.55 2.25 -31.50 6.70 -52.75 10.80 -31.50 6.05 -38.55 6.80 -52.30 5.70 -4.65 -0.35 -9.35 -0.70 -10.45 -0.75 -1.10 0 -2.35 -0.20 -2.75 -0.35 -1.10 -0.45 -6.45 -1.40 -7.85 -1.40 l-1.15 0 0 8.15 0.05 8.10 1.70 1.90 1.65 1.90 8.45 0.75 c4.60 0.40 10.45 1.05 12.90 1.45 3.10 0.50 8.90 0.75 18.50 0.80 7.70 0.05 16.35 0.25 19.25 0.45 6.85 0.45 11.65 0.15 20.50 -1.25z m242.50 -7.30 c0.65 -0.35 0.65 -0.40 0 -0.40 -0.40 0 -1.30 0.30 -2 0.75 l-1.25 0.75 1.25 -0.35 c0.70 -0.15 1.60 -0.50 2 -0.75z m14.25 -7.75 c2.85 -2.55 2.70 -2.60 -1.65 -0.25 -3.25 1.80 -3.85 2.55 -1.95 2.55 0.65 0 2.20 -0.95 3.60 -2.30z m-6.90 -6.30 l4.40 -2.60 -3.50 -1.65 c-3.85 -1.85 -5 -2 -5.45 -0.90 -0.15 0.45 -1.10 1.15 -2.10 1.55 -2.60 1.10 -4.50 0.30 -7 -3 -1.75 -2.25 -2.40 -2.70 -4.20 -3 -1.20 -0.20 -2.20 -0.25 -2.30 -0.15 -0.40 0.40 14.20 12.30 15.15 12.35 0.35 0 2.60 -1.15 5 -2.60z m-120.60 -5.65 c14.70 -3.45 13.70 -3 19.45 -8.70 2.80 -2.75 7.40 -6.75 10.30 -8.90 4.60 -3.45 7.95 -6.90 7.30 -7.55 -0.15 -0.10 -2.45 1.40 -5.15 3.30 -7.70 5.50 -15.95 10.30 -28.60 16.70 -11.40 5.80 -14.30 7.40 -13.25 7.40 0.25 0 4.75 -1 9.95 -2.25z m-175.50 -4.30 c6.05 -0.25 13.35 -0.80 16.25 -1.20 2.90 -0.40 8.75 -1.05 13 -1.50 15.10 -1.45 17.30 -1.75 23.50 -2.95 3.45 -0.70 9.85 -2.15 14.25 -3.25 4.40 -1.10 11.40 -2.80 15.50 -3.80 7.75 -1.85 13.85 -3.55 27.25 -7.75 4.25 -1.30 11.45 -3.45 16 -4.75 4.55 -1.25 12.20 -3.90 17 -5.85 9.40 -3.80 14.05 -5.30 25.75 -8.45 7 -1.85 7.95 -2.25 14.05 -5.95 9.75 -5.95 11.35 -6.50 14.30 -5.25 1 0.40 1.10 0.55 -3.60 -7.50 -2.60 -4.50 -3.05 -5 -4.45 -5.15 -0.85 -0.10 -1.55 -0.35 -1.55 -0.60 0 -0.25 -0.35 -0.35 -0.75 -0.20 -0.40 0.20 -0.75 0.05 -0.75 -0.20 0 -0.50 -2.15 -1.45 -2.35 -1.05 -0.05 0.10 -0.45 -0.25 -0.85 -0.80 -0.45 -0.55 -0.80 -0.85 -0.80 -0.65 0 0.70 -3.65 -3.45 -4.65 -5.35 -1.60 -3 -1.55 -10.65 0.05 -13.60 1.50 -2.85 1.40 -3.60 -0.40 -3.95 -0.80 -0.20 -2.05 -0.85 -2.70 -1.55 -2.30 -2.30 -2.15 -5.35 0.45 -7.75 1.25 -1.15 1.25 -1.30 0.70 -3.95 -0.30 -1.50 -1.30 -4.95 -2.20 -7.70 -2.15 -6.35 -4.35 -17 -6 -28.80 -1.75 -12.60 -2.10 -14.25 -3.85 -17.70 -3.55 -6.95 -4.45 -12.45 -3.50 -21.25 0.55 -5.15 0.30 -8.55 -2.10 -25.35 -2 -14 -2.85 -23.10 -3.30 -34.15 -0.60 -14.75 -0.10 -56.20 0.85 -74 0.90 -16.50 1.15 -36.75 0.50 -44.70 -0.20 -2.75 -0.45 -5.05 -0.55 -5.15 -0.10 -0.15 -3.10 1.95 -6.65 4.65 -11.70 8.90 -14.20 10.30 -30.90 17.60 -9.65 4.20 -14.65 5.95 -19.60 6.90 -3 0.55 -5.15 1.50 -10.80 4.65 -13 7.20 -17.85 9.30 -49.85 21.70 -22.55 8.70 -46.20 15.50 -75 21.55 -7.30 1.55 -15.85 3.45 -19 4.25 -3.15 0.80 -10.25 2.60 -15.75 4 -16.50 4.20 -27.20 6.20 -33.25 6.25 -2.90 0 -6.10 -0.20 -7.10 -0.40 -1.60 -0.30 -1.90 -0.20 -1.90 0.50 0 1.05 6.05 15.15 10.20 23.80 1.80 3.75 3.30 7 3.30 7.15 0 0.30 2.90 6.40 11.30 23.60 5.90 12.15 9.60 18.85 13.05 23.70 1.80 2.50 2.15 4.90 0.90 5.95 -0.40 0.35 -0.75 0.90 -0.75 1.20 0 0.70 5.90 14.65 7.75 18.30 1.55 3.05 4.30 7.05 8.45 12.25 2.10 2.65 2.80 3.90 2.80 5.15 0 1.55 -1.15 3.25 -2.55 3.70 -0.50 0.15 -0.45 0.70 0.25 2.70 1.20 3.15 4.55 11.20 6.05 14.45 2.40 5.40 10.30 28.25 14.30 41.65 1.90 6.30 1.75 8.25 -0.75 9.45 -1.25 0.55 -2.05 0.65 -3.10 0.30 -1.55 -0.50 -2.10 -1.60 -4.40 -8.90 -1.55 -4.85 -1.40 -3.40 0.70 8.55 0.80 4.40 2.15 14.05 3 21.45 0.85 7.40 1.65 13.60 1.75 13.80 0.25 0.35 2 13.70 2.45 18.95 0.45 4.80 2.35 21.10 2.60 22.35 l0.20 1.15 13.15 -0.05 c7.20 0 18.05 -0.20 24.10 -0.50z m225.10 -17.25 c1.35 -1.05 1.35 -1.05 0.45 -2.50 -0.50 -0.80 -1.40 -1.80 -1.95 -2.30 -1.10 -0.85 -1.25 -0.65 -5.75 8.80 -0.30 0.55 5.55 -2.65 7.25 -4z m121.80 -10.70 c0.15 -0.55 0.05 -1 -0.20 -1 -0.25 0 -0.45 0.20 -0.45 0.45 0 0.25 -0.15 0.85 -0.35 1.35 -0.20 0.55 -0.15 0.75 0.20 0.55 0.30 -0.20 0.65 -0.80 0.80 -1.35z m-577 -5.05 c0.50 -1.90 -1.15 -1.55 -5.15 1.05 -2.20 1.45 -4 2.70 -4 2.80 0 0.05 2 -0.55 4.45 -1.35 3.30 -1.10 4.50 -1.75 4.70 -2.50z m573.80 -14.95 c0 -0.95 -0.65 -5.25 -1.45 -9.50 -1.10 -5.90 -1.90 -8.60 -3.25 -11.25 -0.95 -1.90 -1.75 -3.70 -1.75 -4 0 -0.60 -3.50 -5.05 -3.50 -4.50 0 0.20 1.10 4 2.45 8.45 1.35 4.40 3.30 11.30 4.30 15.30 1 4 1.95 7.70 2.10 8.25 l0.30 1 0.40 -1 c0.20 -0.55 0.40 -1.80 0.40 -2.75z m94.40 -74.60 c-1.80 -2.30 -3.95 -4.80 -4.80 -5.65 -1.40 -1.30 -1.30 -0.90 1.40 4 2.75 5 3.15 5.50 4.65 5.75 0.90 0.15 1.75 0.25 1.85 0.15 0.10 -0.05 -1.30 -1.95 -3.10 -4.25z m-49.80 -41.30 c-0.65 -0.45 -3.15 -2.40 -5.50 -4.25 -2.35 -1.90 -5.25 -4 -6.40 -4.70 -1.70 -1 -13.80 -6.55 -20.65 -9.50 l-1.70 -0.75 2.25 2.70 c1.20 1.45 2.85 3.50 3.60 4.50 2.10 2.85 6.70 7 9.05 8.25 3.55 1.80 14.75 4.50 19.05 4.60 l1.50 0 -1.20 -0.85z m-456.75 -121.90 c9.35 -2.35 22.30 -5.40 28.90 -6.75 26.60 -5.50 53.80 -13.25 72.55 -20.75 3.85 -1.50 6.45 -2.65 5.75 -2.45 -0.70 0.15 -5.05 1.30 -9.75 2.50 -9.90 2.55 -20.75 4.85 -37.45 7.75 -6.95 1.25 -14.55 2.90 -18.25 4.05 -5.55 1.70 -18 5.50 -35.35 10.70 -5 1.50 -21.85 7.75 -23.70 8.80 -1.55 0.85 0.75 0.35 17.30 -3.85z m-32.20 -3 c11.65 -2.90 21.50 -5.50 21.90 -5.75 1.65 -0.95 -2.25 -0.35 -15.30 2.25 -18.30 3.70 -20.40 4.20 -23.90 5.80 -3.25 1.50 -5.45 2.95 -4.45 3 0.35 0 10.15 -2.40 21.75 -5.30z m-26.25 -1.50 c5.50 -4.20 8.55 -5.20 27.15 -8.95 11.55 -2.30 14.60 -3.10 16.15 -4.10 1.65 -1.15 2.10 -1.25 3.55 -0.80 1.40 0.45 3.80 0.10 14.35 -2.15 18.85 -4 23.85 -5.35 34.80 -9.50 11.75 -4.45 27.25 -9.25 40.40 -12.45 5.25 -1.25 13.20 -3.30 17.75 -4.50 10.40 -2.75 14.35 -3.55 21.40 -4.25 9.75 -0.95 31.70 -5.05 42.85 -8 3.05 -0.80 11.20 -3.35 18.15 -5.70 18.05 -6.10 25.30 -10 34.30 -18.60 l4.80 -4.60 -2.40 -1 c-3.35 -1.40 -3.65 -1.50 -10.85 -2.55 -3.55 -0.55 -9.10 -1.85 -12.25 -2.85 -4.50 -1.45 -6.65 -1.85 -10 -1.95 -4.50 -0.10 -17.90 0.50 -20 0.95 -0.70 0.15 -2.15 0.35 -3.25 0.55 -4.05 0.55 -5.55 0.85 -8.80 1.55 -8.05 1.70 -22.35 3.75 -29.45 4.25 -6 0.40 -9.60 0.95 -16 2.50 -13.40 3.20 -25.90 7.10 -32.60 10.15 -3.50 1.55 -8.90 3.85 -15.65 6.50 -3.85 1.55 -7.45 3 -8 3.25 -0.55 0.25 -6.40 2.65 -13 5.35 -46.45 18.80 -64.80 27.85 -86.50 42.85 -4.40 3.05 -9.40 6.65 -11.15 8 l-3.15 2.45 1.30 1.20 c0.70 0.60 1.25 1.70 1.25 2.35 0 2.45 1.65 2.50 4.85 0.05z m120.95 -23.70 c6 -1.10 14.35 -2.70 18.55 -3.55 7.45 -1.55 7.60 -1.60 7.90 -3 0.20 -0.80 0.70 -1.65 1.15 -1.95 1.35 -0.75 0.55 -0.60 -9.20 1.75 -13.60 3.30 -31.70 8.65 -29.65 8.75 0.15 0 5.25 -0.90 11.25 -2z m39.85 -9.55 c6.50 -1.30 13.15 -3.10 17.60 -4.70 l3.50 -1.25 -2.50 0.25 c-1.35 0.10 -4.05 0.35 -6 0.50 -1.90 0.15 -7.70 1.35 -12.85 2.60 -8.65 2.15 -9.30 2.40 -8 2.95 1.90 0.85 2.55 0.85 8.25 -0.35z m-81.15 -26.60 c5.10 -2.05 15.45 -6.30 23 -9.35 7.55 -3.10 14.10 -5.80 14.50 -6.10 2 -1.30 -7.90 1.75 -20.75 6.40 -7.10 2.60 -21.10 9.15 -25.50 12 -2.55 1.65 -2.30 1.55 8.75 -2.95z m212 -6.95 c0.35 -2 1.25 -6.55 2.05 -10.10 0.80 -3.50 1.45 -6.45 1.45 -6.50 0 -0.05 -1.35 1.20 -3.05 2.80 l-3 2.90 0.75 6.70 c0.45 3.70 0.80 7 0.80 7.30 0 0.25 0.10 0.50 0.20 0.50 0.10 0 0.50 -1.65 0.80 -3.60z m-18 -26.75 c0 -0.25 -0.35 -0.80 -0.70 -1.25 -0.50 -0.70 -1.40 -0.90 -3.85 -0.90 -3.45 0 -6.15 0.95 -2.95 1.05 0.95 0 2.75 0.30 4 0.65 2.80 0.80 3.50 0.90 3.50 0.45z"/>
  <path d="M500.30 1084.20 c-0.85 -0.90 -1.30 -1.85 -1.30 -2.95 0 -2.75 1.50 -9.60 3 -13.90 l1.45 -4.10 -1.25 -1.30 c-1.60 -1.70 -1.60 -4.20 0.05 -6.45 2 -2.70 6.85 -19.10 8.45 -28.60 l0.35 -1.90 -9.80 0 c-11.55 0 -17.80 -0.60 -23.70 -2.30 -6.95 -2.05 -8.35 -4.40 -5.55 -9.35 2 -3.60 2.70 -4.10 5.30 -4 1.95 0.05 2.30 -0.10 3.05 -1.40 1.15 -1.90 3.65 -2.75 5.70 -1.95 0.80 0.35 2.05 0.50 2.80 0.35 1.85 -0.35 4.25 0.70 5.30 2.35 1.15 1.70 5.70 3.75 9.70 4.35 2.55 0.35 4.50 0.20 10.50 -0.80 4.05 -0.70 9.35 -1.80 11.75 -2.50 2.40 -0.70 5.10 -1.25 6 -1.25 1.65 0 3.55 1.20 4 2.50 0.15 0.45 1.45 0.40 4.90 -0.20 6.20 -1.05 6.15 -1.05 7.15 -2.80 1 -1.65 2.65 -2.20 8.10 -2.75 3.90 -0.35 16.65 -2.80 22 -4.25 1.95 -0.50 6 -1.55 9 -2.25 8.20 -1.90 12.90 -3.55 18.75 -6.40 4.55 -2.20 5.65 -2.55 8.50 -2.60 3.25 -0.05 5.05 -0.60 13.50 -4.15 2.85 -1.20 3.40 -1.65 4.45 -3.70 1.25 -2.45 2.80 -3.40 5.55 -3.40 1.65 0 3.80 -1.55 7.55 -5.55 2.90 -3 2.95 -3.05 5.30 -2.85 2.25 0.20 2.65 0.05 6.25 -2.50 2.15 -1.50 4.75 -3.75 5.85 -4.95 1.20 -1.30 2.60 -2.30 3.55 -2.45 2.35 -0.50 6.25 -5.15 7.55 -9.05 0.55 -1.75 1.50 -3.50 2.10 -3.90 2.15 -1.50 6.85 -0.45 6.85 1.50 0 0.40 0.90 0.95 2.10 1.25 3.05 0.85 4.90 2.90 4.90 5.50 0 3.25 -1.75 5.85 -7.95 11.90 -7.25 7.10 -14.40 12.95 -19.65 15.95 l-4 2.35 0.40 2.75 c0.50 3.65 0.45 4.50 -0.30 6.30 -0.60 1.45 -0.40 1.90 4.50 10.50 8.60 15.15 12.50 23.50 12.50 26.75 0 7.30 -6.45 7.90 -15.75 1.50 -2.10 -1.45 -2.40 -1.50 -3.90 -0.95 -2.85 1 -4.20 0.15 -7.90 -5.05 -1.85 -2.55 -7.80 -9.60 -13.25 -15.70 -8.25 -9.20 -10.15 -11.05 -11.20 -11 -0.70 0.05 -5.05 1.70 -9.75 3.70 -20.05 8.55 -46.45 15.70 -68.25 18.55 -4.55 0.55 -8.25 1.10 -8.25 1.10 -0.05 0.05 -0.65 3.25 -1.45 7.10 -1.35 6.80 -5.75 23.60 -6.85 26.35 -0.55 1.35 -3.10 2.90 -4.85 2.90 -1.30 0 -15.60 19.45 -15.60 21.25 0 0.45 -0.65 1.50 -1.45 2.30 -2 1.95 -4.85 2.05 -6.75 0.15z m22.95 -41.65 c0.75 -2.65 1.95 -7.70 2.70 -11.20 l1.40 -6.40 -3.25 0.15 -3.30 0.15 -0.90 4.90 -0.95 4.90 1.30 1.55 c1.60 1.90 1.55 3.75 -0.35 9.50 l-1.30 3.85 1.65 -1.30 c1.40 -1.10 1.90 -2.10 3 -6.10z m134 -27.90 c-2.15 -3.80 -5.65 -10.15 -7.85 -14.15 -2.15 -3.95 -4.05 -7.30 -4.15 -7.40 -0.25 -0.25 -9.75 3.35 -10.40 3.90 -0.25 0.20 0.25 0.80 1.10 1.30 0.85 0.50 1.55 1.05 1.55 1.20 0 0.20 1 1.55 2.25 3.05 1.25 1.50 3.20 3.85 4.40 5.30 1.85 2.30 2.30 2.60 4.05 2.60 2.10 0.05 2.60 0.45 9 7.70 1.85 2.15 3.50 3.80 3.65 3.65 0.15 -0.10 -1.50 -3.35 -3.60 -7.15z"/>
  <path d="M531.50 904.15 c-1.25 -0.05 -4.95 -0.35 -8.30 -0.65 -3.30 -0.30 -10.20 -0.75 -15.35 -1 -7.95 -0.40 -9.60 -0.35 -11.15 0.30 -1 0.40 -2.15 0.65 -2.60 0.45 -0.45 -0.15 -7.20 -0.50 -15.05 -0.80 -17.15 -0.55 -23.35 -1.35 -31.10 -3.95 -10.85 -3.60 -18.90 -8.30 -25.50 -14.95 -5 -5 -7.55 -8.55 -12.25 -16.80 -1.85 -3.30 -4.60 -7.55 -6.10 -9.50 -3 -3.90 -3.85 -5.30 -5.10 -8.95 -0.50 -1.40 -4.05 -8.15 -7.95 -15.05 -14.80 -25.95 -17.40 -33.20 -19.55 -53.85 -0.25 -2.50 -0.85 -5.10 -1.45 -6.25 -6.10 -12 -6.95 -33.45 -2.50 -65.15 0.55 -4 1.30 -10.45 1.65 -14.35 0.55 -6.20 0.80 -7.35 1.90 -9 0.70 -1.05 1.45 -2.55 1.60 -3.40 0.20 -0.80 0.45 -1.90 0.60 -2.35 0.20 -0.70 -0.10 -0.80 -2.05 -0.75 -2 0.10 -2.50 -0.10 -3.55 -1.30 -1.55 -1.80 -1.55 -3.90 0 -7.95 1.25 -3.35 6.55 -14.10 9.40 -19.20 l1.75 -3.05 -1.45 -1.55 c-1.85 -2.15 -1.80 -3.70 0.40 -7.30 4.85 -8.10 14.55 -19 35.50 -40.10 l14.45 -14.55 8.60 -4.35 c5 -2.50 9.15 -4.30 10.05 -4.30 0.80 0 2.10 0.50 2.85 1.10 l1.40 1.10 6.80 -1.65 c3.75 -0.90 7.60 -1.85 8.60 -2.10 1.45 -0.35 1.90 -0.80 2.25 -2 0.25 -0.90 1.10 -2.05 1.85 -2.60 1.25 -0.95 1.60 -1 4.25 -0.45 2.25 0.45 4.55 0.45 11.35 -0.20 4.70 -0.40 12.55 -0.70 17.50 -0.65 4.95 0.05 11.05 -0.15 13.50 -0.50 5.55 -0.65 32.70 -0.70 37.50 -0.05 8.70 1.25 14.65 3.75 19.60 8.20 2.80 2.55 3.40 2.85 6.75 3.50 9.85 1.90 19.55 6.55 33.15 15.90 3.60 2.45 10.10 6.75 14.50 9.55 6.85 4.30 8.95 6 14.75 11.60 3.70 3.65 8.65 8 11 9.75 2.35 1.75 6.05 4.90 8.25 7 4 3.80 7.30 6.50 7.90 6.50 0.20 0 0.35 -0.70 0.35 -1.55 0 -2.15 0.85 -3.45 2.80 -4.25 1.45 -0.60 1.95 -0.60 3.40 0 2.45 1 4.55 4.10 10.20 15.05 2.70 5.25 6.65 12.25 8.75 15.60 2.10 3.35 4.40 7.25 5.10 8.70 2.10 4.05 4.65 12.45 5.80 18.85 0.55 3.20 1.90 8.55 2.95 11.90 2.30 7.25 3.45 12.85 5.50 27.70 1.05 7.25 1.60 13.10 1.55 16.50 -0.05 7.25 -1.95 20.95 -4.80 34.25 -3.60 16.90 -3.80 18.20 -2.90 19.90 1 2 0.65 8.80 -0.75 13.10 -1.45 4.35 -5.80 13.95 -7.80 17.20 -2.70 4.35 -6.20 11.25 -8.85 17.45 -1.30 3.10 -3.10 6.75 -3.95 8.15 -3.40 5.30 -9.30 9.30 -18.25 12.50 -2.50 0.85 -9.10 3.75 -14.75 6.45 -11.70 5.55 -15.60 7.05 -23 8.80 -2.90 0.70 -6.90 1.90 -8.90 2.75 -5.20 2.15 -17.55 5.20 -30.20 7.45 -5.95 1.05 -11.10 2.05 -11.40 2.25 -0.25 0.15 -0.50 0.70 -0.50 1.15 -0.05 2.05 -2.70 3.75 -7.25 4.55 -6.85 1.20 -31.35 1.95 -41.75 1.20z m18.25 -11.90 c3.05 -0.40 5.50 -0.75 5.50 -0.75 0 0 0 -1.15 0 -2.55 0 -2.20 0.20 -2.70 1.45 -3.80 1.20 -1 1.85 -1.20 3.35 -1 1.05 0.15 2.50 0.70 3.25 1.30 1.10 0.90 1.75 1 4.15 0.75 7.40 -0.75 10.70 -1.85 27.30 -9.35 16.55 -7.40 32.55 -13.60 36.80 -14.20 4 -0.55 6.50 4.25 3.90 7.55 l-1.05 1.35 1.90 -0.85 c1.10 -0.45 6.75 -2.50 12.65 -4.55 5.90 -2 12.35 -4.60 14.35 -5.65 3.40 -1.90 3.60 -2.10 3.55 -3.75 -0.05 -1.20 0.35 -2.15 1.20 -3.05 l1.20 -1.30 -2.60 1.05 c-3.30 1.30 -7.05 1.75 -8.75 1.10 -2.85 -1.10 -3.70 -5.75 -1.40 -7.80 0.55 -0.50 2.40 -1.20 4.10 -1.60 7.25 -1.65 18.25 -9.15 28.45 -19.25 2.90 -2.85 3.25 -3.65 5.15 -11.10 1.50 -5.90 1.70 -7.10 1.10 -7.75 -1.35 -1.65 -1.20 -3.35 1.20 -13.10 3.75 -15.20 4.90 -21.10 5.50 -28.75 0.50 -6.50 0.45 -8.65 -0.25 -18.45 -0.15 -1.90 -0.50 -9.55 -0.75 -17 -0.40 -11.45 -1.45 -23.85 -2.25 -26.10 -0.10 -0.35 -0.85 -0.65 -1.65 -0.65 -2.55 0 -3.50 -1.55 -10.80 -17.85 -6.70 -15.05 -7.15 -16 -9.35 -19.80 -7.80 -13.40 -25.40 -31.60 -35.45 -36.60 -0.95 -0.45 -6.95 -3.90 -13.30 -7.65 -8.80 -5.15 -12.75 -7.80 -16.75 -11.20 -7.40 -6.40 -12.80 -9.80 -24.45 -15.50 -5.60 -2.75 -10.90 -5.45 -11.70 -6.05 -0.85 -0.60 -2.65 -1.20 -4.10 -1.35 l-2.60 -0.30 3.05 3.45 c5.50 6.05 6.85 7.95 6.85 9.75 0 2.45 -2.30 4.60 -4.90 4.60 -1.95 0 -2.25 -0.20 -8 -6.65 -7.30 -8.10 -7.30 -8.10 -9.45 -7.95 -1 0.10 -2.30 -0.20 -3 -0.65 -1.40 -0.95 -2.80 -3.80 -2.35 -4.95 0.15 -0.40 -0.10 -0.80 -0.65 -1 -0.50 -0.15 -8.55 -1.50 -17.90 -3 -26.90 -4.35 -36.60 -4.75 -47.90 -1.80 -3.05 0.80 -10.90 2.70 -17.40 4.20 -12.95 3 -19.60 4.80 -22.70 6.05 -1.60 0.70 -1.80 0.95 -1.15 1.30 1.20 0.65 2.05 3.55 1.45 5 -0.75 2.05 -2.35 3.05 -6.15 3.75 -2 0.40 -4.20 1.15 -4.90 1.70 -1.60 1.30 -2.75 1.85 -5.25 2.50 -1.30 0.30 -3.40 1.70 -5.85 3.85 -3.10 2.65 -3.90 3.60 -3.90 4.70 0 2.35 -1 3.80 -3.45 4.90 -1.25 0.65 -2.75 1.50 -3.30 1.95 -1.75 1.50 -13.10 15.85 -15.10 19.10 -3.20 5.25 -7.85 27.05 -9.90 46.65 l-0.80 7.40 1.50 1.40 c1.90 1.80 1.95 3.25 0.30 7.30 -0.65 1.65 -1.25 3.95 -1.25 5.15 0 1.20 -0.35 2.80 -0.75 3.60 -3.30 6.35 -4.75 32.90 -3 53.50 1.90 21.95 6.10 36.15 12.95 43.90 3.35 3.80 3.75 4.95 2.45 7.45 l-1 1.90 1.95 4.25 1.95 4.25 2.25 0 c1.90 0 2.50 0.25 3.50 1.40 1.10 1.30 1.20 1.75 1.05 6.50 l-0.10 5.10 3.40 5.15 c1.90 2.85 5.25 7.40 7.50 10.15 5.50 6.70 6.35 7.95 6.35 8.90 0 1.10 14.60 10.80 23.25 15.45 5.75 3.10 13.50 6.40 17.35 7.35 1.05 0.25 1.45 0.10 1.90 -0.75 0.75 -1.35 3.70 -2.65 5.15 -2.20 0.60 0.15 2 1.15 3.10 2.20 2.85 2.70 6.65 3.70 18.10 4.70 6.25 0.55 7.35 0.80 9 1.95 3.10 2.10 9.05 2.75 26.40 2.80 10.65 0 16.60 -0.20 20.50 -0.70z m-99.30 -3.40 c-0.10 -0.10 -2.55 -1.35 -5.45 -2.85 -4.50 -2.30 -10.45 -5.80 -15 -8.85 -1.10 -0.75 -1.10 -0.65 0.25 0.80 1.60 1.75 6.60 5.15 10.25 7.05 3.30 1.70 9.70 4.40 9.95 4.20 0.10 -0.10 0.10 -0.25 0 -0.35z m161.25 -7.80 c1.40 -0.55 2.20 -1.55 1.20 -1.55 -0.90 0.05 -4.90 1.90 -4.90 2.30 0 0.35 1.70 0 3.70 -0.75z m14.25 -5.60 c1.40 -0.60 2.50 -1.20 2.35 -1.30 -0.30 -0.30 -7.40 1.90 -8.05 2.50 -0.85 0.80 2.90 0 5.70 -1.20z m-248.35 -202.05 c0.50 -0.40 0.95 -1.75 1.10 -3.40 l0.30 -2.75 -1.50 3 c-0.80 1.65 -1.45 3.15 -1.50 3.40 0 0.55 0.70 0.45 1.60 -0.25z"/>
  <path d="M551.35 835.70 c-0.25 -0.25 -6.30 -0.45 -13.50 -0.50 -8.45 0 -15.85 -0.30 -20.85 -0.85 -4.25 -0.45 -11.70 -1.05 -16.55 -1.35 -15.30 -0.85 -21.25 -3.75 -33.50 -16.30 -7.95 -8.20 -13.65 -16.25 -21.45 -30.20 -4.45 -8 -7.30 -15.90 -10.10 -28 -2.10 -9.05 -1.20 -22.70 2.10 -32.15 1.25 -3.65 8.70 -18.40 11.40 -22.60 4.65 -7.25 9.50 -12.45 15.90 -17.05 4.35 -3.10 8.05 -4.80 15.65 -7.20 3.65 -1.15 9.65 -3.30 13.25 -4.75 9.80 -3.95 9.85 -3.95 26.50 -3.60 8 0.20 16.25 0.55 18.30 0.85 4 0.60 7.95 2.15 10.65 4.20 1.20 0.90 2.95 1.50 5.90 2.05 8.70 1.50 16.95 4.95 22.20 9.25 1.65 1.35 4.45 3.55 6.25 4.85 14 10.15 19.05 15.75 22.25 24.40 0.70 1.95 2.10 5.20 3.10 7.25 2.80 5.85 4.15 9.80 5.45 15.75 0.70 3.05 1.70 7.65 2.30 10.25 0.95 4.20 1.10 6.25 1.10 18.25 0 12.75 -0.10 13.85 -1.35 19.85 -2.70 12.65 -6.65 20.35 -14.55 28.15 -2.85 2.80 -5.10 4.50 -7.55 5.70 -1.95 0.95 -5.20 2.95 -7.35 4.40 -4.40 3.10 -12.80 7.20 -17.15 8.40 -3.30 0.95 -17.70 1.65 -18.40 0.95z m-57.85 -13.05 c0 -0.25 -1.25 -0.75 -2.75 -1.20 -1.50 -0.45 -2.75 -0.65 -2.75 -0.40 0 0.25 1.05 0.75 2.40 1.15 2.80 0.85 3.10 0.90 3.10 0.45z"/>
  <path d="M790.50 557.85 c-0.70 -0.35 -1.65 -1.40 -2.15 -2.40 -1.35 -2.85 -0.55 -4.35 4.95 -8.75 2.60 -2.10 4.70 -3.85 4.70 -3.90 0 -0.10 -0.35 -0.85 -0.80 -1.75 -0.60 -1.20 -0.65 -1.90 -0.30 -3 0.80 -2.25 6.90 -11.10 12.80 -18.55 6.45 -8.10 12 -16.30 14.70 -21.75 2.50 -5 6.15 -14.40 7.60 -19.55 1.30 -4.65 2.10 -6.30 4.20 -8.75 0.85 -1.05 2.30 -3.25 3.20 -5 1.45 -2.70 1.75 -3.95 2.35 -9.90 0.95 -8.70 0.95 -11.25 0.05 -12.05 -0.40 -0.30 -1 -1.35 -1.30 -2.30 -0.50 -1.55 -0.45 -2 0.75 -4.30 0.75 -1.40 1.55 -3.90 1.80 -5.60 0.75 -4.65 1.85 -7.60 3.50 -9.20 2.55 -2.50 3.50 -8.60 3.90 -25.40 0.25 -12.75 0.40 -14.20 1.25 -15.10 2.05 -2.30 6.60 -1.50 7.75 1.30 0.70 1.75 1 17.95 0.45 24.35 -0.25 2.75 -1 7.90 -1.70 11.40 -1.20 5.65 -1.25 6.65 -0.70 8.35 0.95 2.95 0.35 14.40 -1.20 21.25 -0.65 3.05 -2.30 8.30 -3.65 11.75 -1.40 3.45 -2.90 8.05 -3.40 10.25 -2.30 10.50 -9.15 28.15 -11.65 30.05 -0.45 0.35 -1.45 0.70 -2.20 0.70 -1.05 0 -1.60 0.45 -2.55 2.20 -1.30 2.35 -1.25 2.80 0.25 2.80 0.55 0 1.65 0.65 2.45 1.45 1.70 1.75 1.90 4.05 0.55 6.15 -5.30 8.20 -10.35 15.40 -13.15 18.90 -7.70 9.65 -27.30 27 -30.40 27 -0.45 0 -1.35 -0.30 -2.05 -0.65z"/>
 </g>
</svg>