<?xml version="1.0" encoding="utf-8"?>
<!DOCTYPE svg PUBLIC "-//W3C//DTD SVG 1.0//EN" "http://www.w3.org/TR/2001/REC-SVG-20010904/DTD/svg10.dtd">
<svg version="1.0" xmlns="http://www.w3.org/2000/svg" width="533px" height="575px" viewBox="0 0 533 575" preserveAspectRatio="xMidYMid meet">
 <g fill="#d5f6c5">
  <path d="M195.70 489.65 c-0.70 -2.10 -1.50 -3.30 -2.80 -3.95 -1.25 -0.65 -1.60 -0.65 -2.85 0.05 -0.85 0.40 -1.90 1.40 -2.40 2.25 -0.85 1.45 -1 1.50 -4.45 1.50 -6.05 0 -40.75 -5.25 -47.20 -7.15 l-2.25 -0.65 -0.25 -2.90 c-0.20 -2.40 -0.50 -3.10 -1.65 -4.10 -1.70 -1.45 -2.80 -1.50 -4.50 -0.20 -0.70 0.55 -2 1 -2.90 1 l-1.60 0 0.30 -15.85 c0.55 -26.45 1.85 -53.55 3.10 -64 0.90 -7.20 2.20 -14.05 4 -20.65 0.70 -2.60 1.40 -5.50 1.60 -6.35 0.20 -1.15 0.55 -1.65 1.20 -1.65 1.05 0 1.20 0.80 0.50 2.70 l-0.50 1.25 2.10 -1.40 c1.15 -0.80 2.75 -1.55 3.60 -1.75 0.80 -0.20 1.60 -0.55 1.75 -0.70 0.45 -0.65 5.45 -2.20 5.95 -1.90 0.25 0.20 0.65 0.05 0.80 -0.20 0.20 -0.35 0.95 -0.40 1.80 -0.25 0.85 0.20 1.75 0.10 2.10 -0.15 0.70 -0.55 5.80 -0.35 8.60 0.35 2.10 0.55 4.45 0.25 3.95 -0.50 -0.15 -0.25 0.05 -0.45 0.45 -0.45 0.50 0 2.05 -2.25 1.90 -2.85 0 -0.05 0.65 -0.80 1.45 -1.70 0.85 -0.85 1.35 -1.75 1.20 -2 -0.15 -0.25 0.10 -0.45 0.55 -0.45 0.55 0 0.75 -0.25 0.55 -0.75 -0.15 -0.45 0.05 -0.90 0.45 -1.05 0.40 -0.20 0.65 -0.50 0.50 -0.70 -0.15 -0.20 0.10 -0.55 0.55 -0.70 0.40 -0.15 0.60 -0.50 0.45 -0.80 -0.15 -0.25 -0.10 -0.50 0.20 -0.50 0.30 0 0.40 -0.35 0.25 -0.75 -0.20 -0.40 -0.10 -0.75 0.15 -0.75 0.25 0 0.50 -0.35 0.50 -0.85 0 -0.60 -0.35 -0.45 -1.35 0.65 -0.70 0.80 -1.70 1.75 -2.15 2.15 -0.75 0.60 -0.85 0.50 -0.85 -0.90 0 -1.30 0.20 -1.55 1.25 -1.55 0.90 0 1.25 -0.25 1.25 -0.95 0 -0.50 1.55 -2.85 3.45 -5.20 6.70 -8.35 11 -16.15 16.55 -30.30 5.75 -14.75 7.65 -24.40 6.50 -33.05 -1.05 -7.50 -1.15 -9.35 -0.55 -9.70 0.30 -0.20 0.55 0 0.60 0.55 0 0.80 0.05 0.80 0.40 -0.10 0.50 -1.30 0.10 -2.75 -0.75 -2.75 -0.40 0 -0.55 0.30 -0.40 0.75 0.20 0.50 0 0.75 -0.65 0.75 -0.70 0 -1.30 -0.65 -1.90 -2.10 -1.55 -3.60 -5.15 -8.75 -8.35 -11.95 l-3.05 -3 0.30 -4.85 c0.30 -5.30 0.55 -6 6.50 -21.10 6.20 -15.70 13.80 -33.85 22.35 -53.50 10.90 -25.05 13.35 -30.80 22.95 -55 4.35 -10.85 9.65 -23.95 11.85 -29.10 l3.95 -9.40 1.90 0 c1.70 0 1.85 0.10 1.85 1.45 0 0.75 0.35 3.40 0.75 5.85 0.70 3.95 1.40 6.25 4.10 13.45 0.40 1.10 1.95 8.55 3.45 16.50 1.50 8 3.75 19.25 5 25.10 2.95 14 2.95 13.95 -0.65 17.55 -6 5.95 -9.10 13.60 -9.50 23.35 -0.30 6.75 0.30 10 2.85 16.70 4.25 11 13.15 19.40 24.75 23.35 3.30 1.10 4.25 1.65 4.25 2.35 0 0.65 -0.25 0.85 -0.75 0.70 -0.90 -0.40 -1.20 0.15 -0.80 1.35 0.20 0.55 0.90 1.05 1.55 1.15 0.65 0.10 1.45 0.40 1.85 0.70 0.35 0.30 0.65 0.40 0.65 0.20 0 -0.20 0.35 -0.10 0.75 0.25 0.40 0.35 0.75 0.50 0.75 0.30 0 -0.80 7.10 3.40 10.25 6.05 3.55 3 4.65 3.65 6.60 3.95 0.60 0.05 1.85 0.45 2.75 0.85 1.45 0.65 3.05 1.30 3.90 1.60 0.15 0.05 0.60 0.20 1 0.35 0.40 0.20 1.50 0.55 2.40 0.85 1.50 0.45 1.60 0.45 1.10 -0.45 -0.45 -0.85 -0.35 -1 0.50 -1 0.75 0 1.30 0.60 1.95 2.15 2.10 4.90 14.75 38.90 17.95 48.35 6.80 19.75 7.65 21.95 8.95 23 1.50 1.20 2.60 1.25 3.95 0.25 0.50 -0.40 1.65 -0.75 2.45 -0.75 l1.55 0 3.70 12.10 c4.50 14.85 3.95 12.40 7.20 31.65 5.50 32.30 6.10 37.25 8.05 65.70 1.10 17 1.30 18.35 2.45 20.75 0.65 1.40 1.35 3.75 1.45 5.25 0.20 2.30 0.50 2.95 1.80 4.15 1.10 0.95 2.10 1.40 3.30 1.40 2.10 0 2.15 0.20 0.50 1.70 -1.50 1.40 -1.70 4 -0.40 5.40 0.75 0.85 0.70 0.90 -0.90 0.90 -0.95 0 -2 -0.20 -2.40 -0.45 -0.50 -0.35 -2.05 0.20 -5.05 1.70 -7.45 3.75 -42.40 18.20 -47.25 19.55 -2.90 0.80 -7.55 0.90 -8 0.20 -0.15 -0.25 0.05 -0.50 0.50 -0.50 0.50 0 -1.35 -1.80 -4.05 -4 -2.75 -2.20 -5.85 -4.70 -6.90 -5.60 -1.60 -1.30 -1.85 -1.40 -1.35 -0.50 0.50 0.95 0.45 1.10 -0.40 1.10 -0.75 0 -1.75 -1.50 -4.40 -6.60 -4.35 -8.45 -7.90 -13 -12.70 -16.20 -4.40 -2.90 -11.05 -5.50 -16.20 -6.30 -3.05 -0.45 -3.75 -0.75 -3.75 -1.45 0 -0.65 0.25 -0.80 0.80 -0.60 0.70 0.25 0.75 0.15 0.20 -0.85 -1.15 -2.15 -4.75 -5.25 -8 -6.85 -3 -1.50 -3.75 -1.65 -9.50 -1.95 -3.45 -0.15 -6.40 -0.40 -6.55 -0.50 -0.95 -0.60 -2.20 0.85 -4.05 4.60 -1.15 2.30 -2.25 4.20 -2.50 4.20 -0.20 0 -0.40 0.35 -0.40 0.75 0 0.45 0.30 0.60 0.75 0.45 0.50 -0.20 0.75 0 0.75 0.60 0 0.60 -0.90 1.45 -2.50 2.30 -4.60 2.55 -7.50 8.70 -8.55 17.90 -0.45 3.60 -0.80 5 -1.25 5 -0.40 0 -0.70 -0.35 -0.70 -0.75 0 -0.40 -0.35 -0.75 -0.75 -0.75 -0.45 0 -0.75 0.45 -0.75 1.25 0 0.70 -0.20 1.25 -0.50 1.25 -0.25 0 -0.50 0.55 -0.50 1.25 0 0.70 -0.20 1.25 -0.50 1.25 -0.25 0 -0.35 0.30 -0.20 0.70 0.35 0.85 -4.55 10.20 -6.10 11.65 -1.35 1.25 -1.55 2.15 -0.45 2.15 0.40 0 0.75 0.35 0.75 0.75 0 0.65 -1.85 0.75 -13.75 0.75 -12.70 0 -13.80 -0.05 -14.05 -0.85z m88.85 -107.15 c1.45 -0.30 3.70 -1 4.95 -1.60 2.55 -1.25 7.25 -5.50 9.25 -8.45 0.95 -1.30 1.75 -1.95 2.55 -1.95 0.80 0 1.10 0.20 0.90 0.70 -0.15 0.45 0.95 1.50 3.15 2.95 5.80 3.80 8.15 4.70 8.15 3.10 0 -0.40 -0.20 -0.75 -0.45 -0.75 -0.25 0 -0.30 -1 -0.15 -2.25 0.15 -1.45 0.05 -2.25 -0.30 -2.25 -0.40 0 -0.45 -1.05 -0.25 -3.25 0.15 -1.90 0.10 -3.25 -0.20 -3.25 -0.25 0 -0.35 -0.80 -0.25 -1.80 0.15 -1.20 0 -1.95 -0.45 -2.25 -0.60 -0.40 -0.60 -0.55 0.05 -0.95 0.40 -0.25 0.50 -0.50 0.20 -0.50 -0.35 0 -0.60 -1.15 -0.65 -2.85 -0.05 -3.35 -0.80 -4.50 -1.30 -2.10 -0.40 1.85 -1.30 3.45 -1.85 3.45 -0.25 0 -0.40 -0.80 -0.40 -1.75 0 -1.35 0.20 -1.75 0.90 -1.75 0.75 0 0.85 -0.30 0.70 -1.80 -0.10 -0.95 0.15 -3.05 0.60 -4.60 2.30 -8.30 2.10 -13 -0.80 -19 -5 -10.20 -21.80 -20.30 -35.75 -21.45 -2.45 -0.20 -3.65 -0.50 -3.65 -0.90 0 -0.80 2.10 -1.35 3.30 -0.90 1.80 0.70 -0.95 -1.60 -3.90 -3.30 l-2.85 -1.60 -1 2.35 c-1.25 2.75 -1.30 3.40 -0.30 3 0.50 -0.15 0.75 0.05 0.75 0.65 0 0.65 -0.75 1.35 -2.20 2 -2.55 1.25 -7.05 5.80 -8.95 9.05 -2.10 3.60 -3.65 8.20 -5.25 15.75 -1.95 9 -2.35 13 -1.65 18.25 1.10 8.15 3.40 13.80 7.80 19.10 6.55 7.95 19.45 12.75 29.30 10.90z"/>
  <path d="M275.20 370.75 c-3.40 -0.75 -8.25 -3 -10.65 -5 -1.25 -1.10 -1.55 -1.70 -1.55 -3.30 l0 -1.95 2.45 0 c4.85 0 16.65 1.75 24.20 3.60 1.75 0.40 1.85 0.55 1.85 2.40 0 1.55 -0.30 2.15 -1.40 2.95 -2.90 2.05 -9.05 2.60 -14.90 1.30z"/>
  <path d="M386.30 392.65 c-0.15 -0.80 -0.60 -3.85 -1.05 -6.90 -1.50 -11 -3.35 -19.30 -7.75 -34.75 -2.80 -9.85 -3.40 -13.35 -6.25 -35.95 -1.10 -8.35 -1.95 -9.80 -6.20 -10.50 -1.65 -0.30 -1.70 -0.35 -3.40 -6.05 -0.95 -3.15 -3.05 -10.10 -4.65 -15.45 -2.85 -9.15 -3.55 -12.55 -2.60 -12.55 0.65 0 8.10 8.05 8.10 8.75 0 0.40 0.15 0.75 0.40 0.85 0.50 0.20 7.15 10.30 7.30 11.05 0.10 0.35 0.75 1.90 1.50 3.50 0.80 1.60 1.45 3.15 1.50 3.50 0.20 0.90 0.75 2.25 2.40 6.10 1.90 4.25 3.95 10.75 3.65 11.30 -0.15 0.20 -0.05 0.50 0.25 0.70 0.25 0.15 0.50 0.85 0.50 1.45 0 0.65 0.35 1.95 0.75 2.90 0.40 1 0.80 2.55 0.90 3.50 0.10 0.90 0.30 1.90 0.45 2.15 0.55 0.95 1.95 8.75 1.65 9.25 -0.15 0.25 -0.10 0.50 0.15 0.50 0.45 0 1.10 9.50 1.30 19.25 0.05 2.20 0.20 4.25 0.40 4.50 0.20 0.30 0.40 2.20 0.45 4.25 0.05 2.05 0.30 4.30 0.55 4.95 0.25 0.65 0.50 2.55 0.65 4.25 0.10 1.65 0.35 5.10 0.55 7.55 0.15 2.50 0.50 4.90 0.75 5.35 0.60 1.15 0.55 6.40 -0.05 6.40 -0.25 0 -0.50 0.35 -0.50 0.75 0 1.30 -1.40 0.80 -1.70 -0.60z"/>
  <path d="M168 215.55 c0.20 -0.75 0.20 -1.70 0 -2.10 -0.50 -0.80 -0.05 -3.55 0.65 -4 0.25 -0.20 0.35 -0.70 0.20 -1.15 -0.20 -0.45 -0.05 -0.80 0.20 -0.80 0.30 0 0.45 -0.45 0.30 -1 -0.15 -0.55 -0.05 -1 0.25 -1 0.30 0 0.35 -0.55 0.20 -1.25 -0.20 -0.80 -0.10 -1.25 0.25 -1.25 0.30 0 0.45 -0.35 0.25 -0.75 -0.15 -0.40 0 -0.75 0.25 -0.75 0.30 0 0.45 -0.45 0.30 -1 -0.15 -0.55 -0.05 -1 0.25 -1 0.30 0 0.40 -0.35 0.20 -0.75 -0.15 -0.40 -0.05 -0.75 0.25 -0.75 0.30 0 0.45 -0.35 0.25 -0.75 -0.15 -0.40 -0.05 -0.75 0.25 -0.75 0.30 0 0.45 -0.35 0.25 -0.75 -0.15 -0.40 -0.05 -0.75 0.25 -0.75 0.30 0 0.45 -0.35 0.25 -0.75 -0.15 -0.40 -0.05 -0.75 0.25 -0.75 0.30 0 0.45 -0.35 0.25 -0.75 -0.15 -0.40 -0.05 -0.75 0.25 -0.75 0.30 0 0.45 -0.35 0.25 -0.75 -0.15 -0.40 -0.05 -0.75 0.25 -0.75 0.30 0 0.45 -0.35 0.25 -0.75 -0.15 -0.40 -0.05 -0.75 0.25 -0.75 0.30 0 0.40 -0.20 0.25 -0.45 -0.20 -0.25 -0.10 -0.55 0.20 -0.65 0.25 -0.05 0.55 -0.70 0.60 -1.40 0.10 -0.70 0.45 -1.55 0.80 -1.95 0.40 -0.40 0.55 -1.10 0.45 -1.60 -0.15 -0.55 -0.05 -0.95 0.25 -0.95 0.25 0 0.30 -0.20 0.15 -0.50 -0.15 -0.25 -0.05 -0.50 0.25 -0.50 0.35 0 0.50 -0.35 0.30 -0.75 -0.15 -0.40 -0.05 -0.75 0.25 -0.75 0.30 0 0.45 -0.35 0.25 -0.75 -0.15 -0.40 -0.05 -0.75 0.25 -0.75 0.30 0 0.40 -0.45 0.20 -1 -0.20 -0.60 -0.10 -1 0.25 -1 0.35 0 0.50 -0.30 0.35 -0.70 -0.15 -0.40 -0.05 -0.80 0.20 -0.90 0.30 -0.10 0.60 -0.80 0.60 -1.55 0.05 -0.75 0.30 -1.35 0.55 -1.35 0.20 0 0.30 -0.40 0.20 -0.90 -0.15 -0.50 0.05 -1.20 0.45 -1.55 0.40 -0.35 0.60 -0.95 0.45 -1.35 -0.15 -0.40 -0.05 -0.70 0.25 -0.70 0.30 0 0.45 -0.30 0.35 -0.60 -0.15 -0.35 0.10 -0.95 0.45 -1.35 0.40 -0.35 0.60 -1 0.45 -1.35 -0.15 -0.40 -0.05 -0.70 0.25 -0.70 0.30 0 0.35 -0.20 0.20 -0.50 -0.15 -0.25 -0.05 -0.50 0.30 -0.50 0.35 0 0.50 -0.15 0.30 -0.30 -0.15 -0.20 0.05 -0.65 0.45 -1.05 0.40 -0.45 0.65 -1.10 0.50 -1.45 -0.15 -0.40 0 -0.70 0.30 -0.70 0.30 0 0.45 -0.15 0.30 -0.30 -0.20 -0.15 0.10 -0.70 0.65 -1.25 0.55 -0.55 0.85 -1.20 0.70 -1.40 -0.10 -0.25 0.10 -0.60 0.55 -0.75 0.45 -0.20 0.70 -0.65 0.50 -1.05 -0.15 -0.40 -0.05 -0.75 0.25 -0.75 0.30 0 0.35 -0.25 0.20 -0.50 -0.15 -0.30 0.05 -0.50 0.55 -0.50 0.55 0 0.75 -0.30 0.55 -1 -0.15 -0.55 -0.05 -1 0.25 -1 0.30 0 0.40 -0.30 0.25 -0.70 -0.15 -0.40 0.05 -0.85 0.50 -1 0.40 -0.20 0.65 -0.65 0.45 -1.05 -0.15 -0.40 -0.10 -0.75 0.15 -0.75 0.65 0 2.15 -3.40 1.80 -4 -0.15 -0.30 -0.05 -0.50 0.25 -0.50 0.30 0 0.40 -0.20 0.25 -0.50 -0.15 -0.25 -0.05 -0.50 0.25 -0.50 0.30 0 0.40 -0.20 0.25 -0.50 -0.15 -0.25 -0.05 -0.50 0.25 -0.50 0.30 0 0.40 -0.20 0.25 -0.50 -0.15 -0.25 -0.05 -0.50 0.25 -0.50 0.30 0 0.40 -0.20 0.25 -0.50 -0.15 -0.25 -0.05 -0.50 0.25 -0.50 0.30 0 0.40 -0.20 0.25 -0.50 -0.15 -0.25 -0.05 -0.50 0.25 -0.50 0.30 0 0.40 -0.20 0.25 -0.50 -0.15 -0.25 -0.05 -0.50 0.25 -0.50 0.35 0 0.50 -0.35 0.30 -0.75 -0.15 -0.40 -0.05 -0.75 0.25 -0.75 0.30 0 0.35 -0.20 0.20 -0.50 -0.15 -0.25 -0.05 -0.50 0.25 -0.50 0.35 0 0.50 -0.35 0.30 -0.75 -0.15 -0.40 -0.05 -0.75 0.25 -0.75 0.30 0 0.45 -0.35 0.25 -0.75 -0.15 -0.40 -0.10 -0.75 0.10 -0.75 0.60 0 1.70 -3.40 1.35 -4 -0.15 -0.25 -0.05 -0.50 0.25 -0.50 0.35 0 0.50 -0.35 0.30 -0.75 -0.15 -0.40 -0.05 -0.75 0.25 -0.75 0.30 0 0.45 -0.30 0.30 -0.70 -0.15 -0.40 0.05 -0.85 0.50 -1 0.45 -0.20 0.65 -0.70 0.50 -1.30 -0.15 -0.55 -0.05 -1 0.25 -1 0.25 0 0.30 -0.20 0.15 -0.50 -0.15 -0.25 -0.05 -0.50 0.25 -0.50 0.35 0 0.50 -0.35 0.30 -0.75 -0.15 -0.40 -0.05 -0.75 0.25 -0.75 0.30 0 0.35 -0.20 0.20 -0.50 -0.15 -0.25 -0.05 -0.50 0.25 -0.50 0.30 0 0.40 -0.20 0.25 -0.50 -0.15 -0.25 0.05 -0.50 0.55 -0.50 0.55 0 0.75 -0.30 0.55 -1 -0.15 -0.55 -0.05 -1 0.25 -1 0.30 0 0.40 -0.35 0.20 -0.75 -0.15 -0.40 -0.05 -0.75 0.25 -0.75 0.30 0 0.40 -0.45 0.20 -1 -0.20 -0.60 -0.10 -1 0.25 -1 0.40 0 0.50 -0.45 0.30 -1.25 -0.20 -0.80 -0.10 -1.25 0.25 -1.25 0.35 0 0.45 -0.45 0.25 -1.25 -0.20 -0.75 -0.10 -1.25 0.20 -1.25 0.30 0 0.40 -0.20 0.25 -0.50 -0.15 -0.30 -0.05 -0.50 0.30 -0.50 0.30 0 0.45 -0.40 0.35 -0.90 -0.15 -0.50 0.05 -1.20 0.45 -1.55 0.40 -0.35 0.60 -0.95 0.45 -1.35 -0.15 -0.40 -0.05 -0.70 0.25 -0.70 0.30 0 0.35 -0.20 0.20 -0.50 -0.15 -0.25 -0.05 -0.50 0.25 -0.50 0.35 0 0.50 -0.25 0.40 -0.60 -0.10 -0.30 0.20 -1 0.75 -1.55 0.50 -0.50 0.80 -1.25 0.65 -1.65 -0.15 -0.40 0.05 -0.70 0.50 -0.70 0.50 0 0.70 -0.30 0.50 -0.75 -0.15 -0.40 -0.05 -0.75 0.25 -0.75 0.30 0 0.35 -0.20 0.20 -0.50 -0.15 -0.25 -0.05 -0.50 0.25 -0.50 0.30 0 0.40 -0.20 0.25 -0.50 -0.15 -0.30 -0.05 -0.50 0.30 -0.50 0.30 0 0.45 -0.40 0.30 -1 -0.15 -0.50 0 -1.05 0.30 -1.15 0.30 -0.10 0.50 -0.85 0.50 -1.75 0 -0.90 0.25 -1.60 0.50 -1.60 0.25 0 0.35 -0.35 0.15 -0.75 -0.15 -0.40 -0.05 -0.75 0.25 -0.75 0.30 0 0.35 -0.20 0.20 -0.50 -0.15 -0.25 -0.05 -0.50 0.25 -0.50 0.30 0 0.40 -0.20 0.25 -0.50 -0.15 -0.25 -0.10 -0.50 0.20 -0.50 0.40 0 1.35 -1.95 1.15 -2.35 -0.05 -0.10 0.50 -0.70 1.15 -1.45 0.70 -0.75 1.10 -1.50 0.95 -1.75 -0.15 -0.25 0.10 -0.45 0.50 -0.45 0.40 0 0.90 -0.45 1.05 -1 0.15 -0.55 0.55 -1 0.80 -1 0.25 0 0.40 -0.25 0.35 -0.60 -0.10 -0.30 0.30 -0.80 0.85 -1.10 1.90 -1.05 5.20 -3.95 4.95 -4.35 -0.15 -0.25 0.15 -0.45 0.70 -0.45 0.50 0 1.60 -0.55 2.40 -1.25 0.80 -0.70 1.95 -1.25 2.55 -1.25 0.60 0 1.30 -0.30 1.50 -0.70 0.50 -0.80 3.40 -1.75 5.40 -1.70 0.80 0 1.55 -0.25 1.65 -0.55 0.10 -0.35 0.90 -0.45 2.15 -0.25 1.50 0.25 2 0.15 2.25 -0.50 0.65 -1.65 1.35 -0.80 1.10 1.35 -0.15 1.40 -2.95 7.55 -8.15 18.10 -10.20 20.75 -11 22.45 -15.55 33.60 -7.55 18.55 -11.60 26.90 -19.45 39.90 -3.65 6.10 -8.95 15.15 -12.60 21.50 -1.15 1.95 -4.45 8.10 -7.40 13.75 -2.95 5.65 -7.50 14.15 -10.15 18.90 -4 7.15 -4.95 8.60 -5.90 8.60 -1 0 -1.10 -0.15 -0.70 -1.45z"/>
  <path d="M277.15 211.30 c-4.55 -3.30 -9.15 -10.30 -9.15 -13.80 0 -1.40 0.15 -1.50 1.75 -1.50 1.50 0 2.25 0.55 6.30 4.70 5.85 6.05 7 7.70 7.30 10.50 l0.30 2.30 -1.80 0 c-1.25 0 -2.55 -0.60 -4.70 -2.20z"/>
  <path d="M276.20 119.65 c-7.15 -15.40 -8.15 -17.95 -8.90 -22.40 -0.45 -2.45 -0.80 -5.25 -0.80 -6.10 0 -1.55 0.10 -1.65 1.90 -1.65 1.55 0 2.35 0.45 4.95 2.80 4.55 4.05 7.35 9.45 9.50 18.20 1.60 6.65 2.10 11 1.20 11 -0.25 0 -0.55 -0.35 -0.75 -0.75 -0.15 -0.40 -0.65 -0.75 -1.10 -0.75 -0.50 0 -0.70 0.15 -0.55 0.30 0.15 0.20 -0.10 0.90 -0.65 1.55 -0.50 0.65 -0.80 1.55 -0.65 1.95 0.15 0.45 -0.10 0.70 -0.80 0.70 -0.90 0 -1.50 -0.95 -3.35 -4.85z"/>
  <path d="M269.65 80.05 c-2.75 -2.15 -5.25 -4.30 -5.60 -4.70 -0.60 -0.75 -2.05 -8.35 -2.05 -10.70 0 -1.35 1.50 -1.60 1.55 -0.25 0 0.50 0.15 0.60 0.30 0.25 0.45 -1.20 7 2.80 11.50 7 2.35 2.20 2.75 2.40 3.45 1.80 0.80 -0.65 0.85 -0.50 0.50 1.80 -0.20 1.40 -0.55 3.85 -0.70 5.50 l-0.35 3 -1.80 0.15 c-1.65 0.15 -2.40 -0.25 -6.80 -3.85z"/>
 </g>
 <g fill="#000000">
  <path d="M251 513.50 c-2.35 -0.90 -17.95 -1.85 -49.25 -3 -21.25 -0.80 -25.60 -1.25 -50.50 -5.20 -8.25 -1.35 -17.80 -2.30 -22.95 -2.30 l-2.90 0 0.30 1.80 c0.75 3.95 -1.70 7.20 -5.50 7.20 -3.30 0 -4.95 -1.65 -5.90 -6 -0.45 -1.90 -0.80 -3.95 -0.80 -4.55 0 -0.65 -0.45 -1.65 -1.05 -2.25 -0.55 -0.60 -1.35 -1.95 -1.70 -3 -0.35 -1.10 -0.95 -2.10 -1.35 -2.30 -0.35 -0.15 -1.90 -0.90 -3.45 -1.60 -5.20 -2.40 -9.85 -7.45 -10.95 -11.95 -0.75 -2.80 0.20 -5.15 2.55 -6.55 2.85 -1.70 7.35 -0.10 8.25 2.90 0.60 2.05 4.95 5.80 6.70 5.80 0.30 0 0.50 -2.45 0.50 -7.05 l0 -7.05 -1.45 1.55 c-1.15 1.25 -1.85 1.55 -3.55 1.55 -4.05 0 -6 -2 -6 -6.20 0 -6.30 2.20 -23.80 4.25 -33.55 3.35 -15.95 3.95 -19.05 6.75 -35.75 2.40 -14 3.45 -18.40 8.25 -34.50 6 -20.05 6.60 -22.35 8.50 -32.25 4.65 -24.45 6.05 -31.25 8.50 -41 3.15 -12.55 5.45 -20.15 8.80 -29.25 2.05 -5.55 2.55 -7.40 2.60 -10.40 0.10 -3.55 0.15 -3.75 1.90 -5.30 1 -0.90 2 -1.75 2.30 -1.85 0.30 -0.10 1.50 -2.10 2.65 -4.45 1.15 -2.35 4.25 -8 6.80 -12.65 2.60 -4.60 6.85 -12.15 9.45 -16.80 2.60 -4.65 7.25 -13.25 10.30 -19.15 3.05 -5.85 6.45 -12.20 7.60 -14.15 3.60 -6.35 8.95 -15.40 12.60 -21.50 7.80 -12.90 11.25 -19.90 18.35 -37.25 5.80 -14.15 6.35 -15.45 13.60 -30 3.60 -7.30 8.40 -17.15 10.70 -21.90 3.35 -7.05 4.40 -8.80 5.70 -9.60 3.10 -1.90 6.65 -0.90 8.40 2.40 0.55 1 1.45 2.40 2 3.10 0.75 0.90 1.30 3.05 1.95 7.40 0.55 3.35 1.25 6.50 1.60 6.90 1.40 1.70 10.55 8.70 11 8.45 0.25 -0.20 0.45 -1.45 0.45 -2.80 0 -5 2.15 -7.70 6.10 -7.70 2.20 0 2.65 0.20 4 1.70 l1.55 1.75 -0.30 6.25 c-0.30 5.70 -0.20 6.90 1.15 13.75 0.85 4.10 1.75 7.75 1.95 8 0.75 0.95 3.95 9.90 5 14.05 0.55 2.20 1.60 7.75 2.25 12.35 0.70 4.60 1.85 10.90 2.50 14 2.15 9.80 7.35 25.75 8.25 25.15 0.85 -0.50 2.60 2.30 5.85 9.25 1.80 4 3.50 7.50 3.70 7.75 0.20 0.30 0.50 1.75 0.60 3.25 0.20 2.35 1.10 4.45 6.35 14.25 15.80 29.60 24.25 50.45 34.95 86.25 l4 13.25 1.65 0.30 c4.25 0.70 5.10 2.15 6.20 10.50 2.85 22.60 3.45 26.10 6.25 35.95 4.35 15.35 6.15 23.55 8.20 37.75 2.60 17.75 4.30 39.10 4.30 54.20 l0 6.20 1.30 -1.20 c1 -0.90 1.85 -1.20 3.65 -1.20 3.10 0 5.50 1.80 7.30 5.50 1.25 2.45 1.35 3.20 1.15 6.65 -0.55 9.50 -8.90 20.05 -22.25 28.15 -4.40 2.65 -11.10 5.90 -14.40 6.95 -1.10 0.35 -5.70 2.30 -10.25 4.40 -22.40 10.20 -30.90 13.35 -39.55 14.80 -6.15 1.05 -21.70 1.75 -30.70 1.45 -5.75 -0.25 -7.35 -0.15 -8.95 0.55 -2.90 1.20 -24.55 1.10 -27.80 -0.20z m23.30 -24.20 c21.55 -2.20 23.45 -2.45 23.85 -2.80 0.45 -0.40 -1.25 -5.65 -2.90 -9 -1.80 -3.55 -5.05 -6.85 -11.45 -11.60 -7.50 -5.60 -9.05 -6.40 -12.50 -6.40 -2.90 0 -14.85 2.05 -19.15 3.30 -2.30 0.65 -2.80 1 -3.70 2.80 -2.30 4.50 -2.80 6.90 -2.40 10.90 0.50 4.65 1.85 10.30 2.60 10.95 0.35 0.25 2.45 0.55 4.70 0.65 3.45 0.15 4.30 0.35 5.25 1.30 1.40 1.35 1.15 1.35 15.70 -0.10z m-42 -10.45 c0.10 -15.90 1.40 -23.10 5.15 -28.50 2.25 -3.15 5.75 -5.10 10.75 -5.85 4.15 -0.65 22.25 0.10 29.90 1.25 9.80 1.45 18.65 6 23.65 12.20 4.70 5.85 10.30 17.45 12.05 25.05 l0.80 3.55 1.55 -0.25 c0.90 -0.15 3.75 -0.50 6.35 -0.80 6.80 -0.80 7.15 -0.95 24 -7.75 18.80 -7.60 24.95 -10.20 30.60 -13.05 4.90 -2.45 6.40 -2.65 8.80 -1.20 0.90 0.55 1.85 0.90 2.10 0.75 0.25 -0.15 0.90 -1.80 1.55 -3.65 0.60 -1.85 1.40 -4 1.80 -4.75 0.40 -0.80 0.60 -1.70 0.50 -2 -0.10 -0.35 -0.55 0.25 -1 1.25 -1.50 3.50 -6.05 4.55 -8.90 2 -1.30 -1.20 -1.60 -1.85 -1.80 -4.15 -0.10 -1.50 -0.80 -3.85 -1.45 -5.25 -1.15 -2.40 -1.35 -3.75 -2.45 -20.75 -1.95 -28.45 -2.55 -33.40 -8.05 -65.70 -3.25 -19.25 -2.70 -16.80 -7.20 -31.55 l-3.65 -12 -1.95 0.95 c-1.65 0.85 -2.25 0.90 -3.85 0.40 -1.05 -0.30 -2.25 -0.95 -2.75 -1.50 -0.45 -0.50 -2.65 -6.10 -4.85 -12.35 -2.20 -6.30 -5.10 -14.70 -6.50 -18.70 -3.40 -9.60 -17.10 -45.80 -19.05 -50.25 -1.60 -3.70 -1.65 -3.85 -3.40 -8.40 -1.05 -2.75 -1.20 -2.85 -2.20 -2.20 -2.20 1.45 -4.75 1.95 -11.80 2.40 -7.95 0.45 -7.35 0.55 -17.80 -3 -13.70 -4.70 -23 -15.35 -26.50 -30.45 -1.25 -5.35 -0.75 -17.10 0.95 -22.35 1.75 -5.30 4.45 -9.85 8 -13.35 1.55 -1.60 2.85 -3.15 2.85 -3.45 0 -0.30 -1 -5.30 -2.20 -11.10 -1.25 -5.85 -3.50 -17.10 -5 -25.10 -1.50 -7.95 -3.05 -15.40 -3.45 -16.50 -2.70 -7.20 -3.40 -9.50 -4.10 -13.45 -0.40 -2.45 -0.75 -5.10 -0.75 -5.85 0 -0.80 -0.15 -1.45 -0.35 -1.45 -0.55 0.05 -6.85 15.10 -16.20 38.50 -9.60 24.20 -12.05 29.95 -22.95 55 -10.70 24.55 -21.75 51.30 -27 65.55 -0.80 2.10 -1.60 5.40 -1.80 7.35 l-0.30 3.55 3 3.05 c9.25 9.25 13.25 21.80 11.65 36.65 -0.85 7.55 -2.40 13.20 -6.55 23.90 -6.70 17.10 -12.25 26.25 -21.45 35.45 -3.35 3.35 -6.85 6.35 -8.30 7.10 -4.05 2.15 -10.35 3.55 -14.75 3.25 -4.75 -0.30 -10 -1.25 -10.85 -1.95 -0.85 -0.70 -0.85 -0.70 -1.80 3.10 -0.45 1.80 -1.75 6.75 -2.85 11 -4.70 18 -5.55 25.40 -7 59.75 -0.30 6.60 -0.65 18.50 -0.85 26.45 l-0.30 14.50 1.35 -1.10 c4.20 -3.30 9.50 -0.60 9.55 4.85 0 2.25 0 2.25 2.25 2.90 5.50 1.60 40.90 7.15 45.70 7.15 1.80 0 2.20 -0.20 2.95 -1.50 1.65 -2.75 5.35 -3.80 8.25 -2.30 1.30 0.65 2.10 1.85 2.80 3.95 0.25 0.80 1.55 0.85 17.65 0.85 l17.40 0 0.05 -10.15z m-76.45 -133.80 c9.90 -6.65 15.20 -14.55 20.30 -30.35 2.75 -8.55 3.35 -12.30 3.50 -21.85 l0.10 -8.65 -4.10 -6.65 c-2.30 -3.65 -4.15 -6.85 -4.15 -7.10 0 -0.25 0.35 -0.45 0.75 -0.45 1 0 0.95 -0.45 -0.20 -2.15 -0.80 -1.25 -1.30 -1.45 -3.50 -1.55 -1.40 -0.05 -2.55 0.05 -2.55 0.20 0 0.15 -0.15 0.75 -0.30 1.40 -0.25 0.80 -0.10 1.10 0.50 1.10 0.45 0 0.80 0.05 0.80 0.15 0 0.10 -1.20 3.85 -2.70 8.40 -5.20 15.65 -16 53.35 -17.85 62.20 -1.60 7.75 -1.50 8.05 2.90 8.20 1.75 0.05 2.75 -0.40 6.50 -2.90z m148.45 -130.45 c0.25 -0.20 0.80 -1.05 1.15 -1.90 0.55 -1.45 0.30 -2.15 -4.60 -13.25 -5.20 -11.55 -13.75 -30 -14.15 -30.40 -0.10 -0.15 -0.45 0 -0.75 0.30 -0.35 0.35 0.25 3.60 2.05 10.60 3 11.75 5.35 19.25 9 28.45 l2.65 6.60 2.05 0 c1.15 0 2.30 -0.20 2.60 -0.40z m-23.35 -5.20 c-1.95 -4.75 -3.95 -11.45 -6.90 -23.10 -3.15 -12.15 -3.30 -12.45 -4.50 -6.90 -1.30 6.10 -0.40 12.70 2.45 18.75 l1.45 3.10 -1.65 -1.85 c-0.90 -1.05 -1.80 -1.90 -1.95 -1.90 -0.60 0 1.30 3.70 3.55 6.90 1.25 1.85 3.50 4.10 5.20 5.40 1.65 1.20 3.10 2.20 3.20 2.20 0.10 0 -0.30 -1.20 -0.85 -2.60z m0.25 -56.75 c-1.90 -4.20 -2.50 -5.10 -2.05 -3.15 0.15 0.70 0.55 2.55 0.90 4.15 0.55 2.45 0.75 2.85 1.75 2.85 l1.15 0 -1.75 -3.85z m5.35 -18.45 c-0.55 -2.20 -2.25 -9.45 -3.80 -16.20 -3.45 -14.85 -5.15 -18.75 -10.60 -23.85 -1.85 -1.75 -3.55 -3.15 -3.75 -3.15 -0.25 0 -0.30 0.85 -0.10 1.90 1.15 6.85 1.95 9.10 7.05 20.10 10.40 22.40 11.85 25.45 12.05 25.30 0.10 -0.10 -0.30 -1.95 -0.85 -4.10z"/>
  <path d="M272.25 383.65 c-10.45 -2.20 -18.55 -8.30 -22.70 -16.95 -4.55 -9.50 -5.10 -20 -1.85 -34.45 2.60 -11.65 4.90 -16.45 10.30 -21.45 3.85 -3.55 6.65 -4.50 12.85 -4.40 5.85 0.15 10.60 1.15 16.35 3.45 6.10 2.40 7.90 3.35 12.20 6.30 8.60 5.90 13.60 14.20 13.60 22.55 0 8.90 -5.95 25.75 -12.25 34.55 -2.75 3.90 -6.90 7.75 -9.75 9.15 -4.55 2.20 -12.10 2.70 -18.75 1.25z m12.60 -14.15 c1.35 -0.30 3.10 -1.10 3.90 -1.75 1.40 -1.15 1.45 -1.30 0.60 -1.80 -0.90 -0.50 -0.90 -0.60 0.25 -1.90 3.45 -3.75 6.40 -12.65 6.40 -19.30 l0 -2.70 -1.85 0.80 c-1.25 0.50 -2.85 0.70 -4.75 0.55 -3.45 -0.25 -5.40 -1.80 -6.35 -4.95 -0.85 -2.80 -6.85 -9.05 -10.35 -10.75 -3.20 -1.55 -4.45 -1.40 -7.15 1.05 -3.15 2.85 -5.05 7 -5.65 12.50 -0.95 7.70 0.75 14.15 4.85 18.70 1.65 1.85 1.75 2.05 0.80 2.05 -4.10 0 5 5.90 11.15 7.25 3.85 0.85 5.15 0.90 8.15 0.25z"/>
 </g>
 <g fill="#d4efe8">
  <path d="M262.45 516.30 c-0.10 -0.10 -1.45 -0.30 -2.95 -0.45 -1.50 -0.15 -4.55 -0.95 -6.75 -1.80 -2.25 -0.90 -3.25 -1.45 -2.30 -1.30 0.90 0.15 8 0.25 15.75 0.25 15.10 0.05 15.65 0.20 7.70 2.20 -3.05 0.75 -11 1.55 -11.45 1.10z"/>
  <path d="M257.35 491.15 c-1.25 -1.25 -1.75 -1.40 -5.60 -1.60 -2.35 -0.05 -4.40 -0.40 -4.70 -0.75 -0.80 -0.95 -2 -6.45 -2.60 -11.70 -0.60 -5.55 -0.20 -7.55 2.35 -12.70 1.10 -2.15 1.45 -2.45 3.85 -3.10 5.15 -1.50 16.50 -3.30 20.65 -3.30 5.15 0 5.90 0.35 14 6.40 6.40 4.75 9.65 8.05 11.45 11.60 1.30 2.60 4.35 11.55 4.05 11.90 -0.30 0.25 -9.05 1.30 -24.80 2.85 -7 0.65 -13.75 1.35 -15 1.50 -2 0.20 -2.45 0.10 -3.65 -1.10z"/>
  <path d="M289.50 366 c-2.05 -1.10 -15.65 -3.30 -23.15 -3.75 -2.80 -0.15 -3.70 -0.85 -5.50 -4.20 -3.50 -6.40 -3.80 -19.20 -0.60 -25.55 4.85 -9.60 11.85 -10.05 20.15 -1.30 2.10 2.25 3.70 4.45 4.10 5.60 1.30 4.15 4.65 6 8.15 4.55 4.35 -1.85 4.40 -7.45 0.05 -13.45 -0.95 -1.40 -1.50 -2.40 -1.15 -2.30 1.20 0.40 3.45 3.70 4.55 6.65 1.50 4.15 1.85 14.40 0.70 20.05 -1.65 7.95 -5.25 14.80 -7.30 13.70z"/>
  <path d="M144.65 349.15 c-1 -0.20 -1.05 -0.45 -0.85 -2.80 0.60 -6.25 1.60 -10.60 6.05 -26.60 5.65 -20.45 7.70 -27.30 11.95 -40.65 l3.25 -10.20 2.85 0.35 c5.80 0.65 5.05 0.05 9.95 8 l3.40 5.50 -0.10 10 c-0.10 11.15 -0.60 14.50 -3.50 23.45 -5.10 15.80 -10.40 23.70 -20.30 30.35 l-4.40 2.95 -3.60 -0.05 c-2 -0.05 -4.10 -0.20 -4.70 -0.30z"/>
  <path d="M295.50 209.90 c-3.80 -9.60 -6.15 -17.10 -9.40 -30.10 -2.15 -8.65 -2.70 -11.50 -2.20 -11.70 0.35 -0.10 1.25 -0.75 2.05 -1.40 l1.40 -1.15 5.90 12.60 c6.05 12.85 13.85 30.25 14.50 32.30 0.35 1.20 -0.95 4.95 -2 5.65 -0.25 0.20 -2.10 0.40 -4.05 0.40 l-3.55 0 -2.65 -6.60z"/>
  <path d="M282.60 212.25 c-0.60 -0.45 -1.10 -1.10 -1.10 -1.45 0 -1 -2.25 -3.80 -7.50 -9.10 -4.60 -4.70 -5 -5.25 -5.75 -8.25 -0.65 -2.45 -0.80 -4.65 -0.65 -9.45 0.25 -6.45 0.90 -9.25 3 -12.80 l1.05 -1.80 3.10 12.40 c3.30 13.20 5.35 20.10 7.80 26.45 0.80 2.15 1.40 4.10 1.35 4.35 -0.10 0.20 -0.65 0.05 -1.30 -0.35z"/>
  <path d="M316.50 185.20 c-4.30 -8.75 -7.45 -16.15 -7 -16.45 1.10 -0.70 8.05 8.70 8.80 11.90 0.05 0.20 0.10 0.40 0.20 0.50 0.40 0.50 1.30 9.35 0.90 9.35 -0.15 0 -1.45 -2.40 -2.90 -5.30z"/>
 </g>
</svg>