<?xml version="1.0" encoding="utf-8"?>
<!DOCTYPE svg PUBLIC "-//W3C//DTD SVG 1.0//EN" "http://www.w3.org/TR/2001/REC-SVG-20010904/DTD/svg10.dtd">
<svg version="1.0" xmlns="http://www.w3.org/2000/svg" width="160px" height="160px" viewBox="0 0 160 160" preserveAspectRatio="xMidYMid meet">
 <g fill="#f5ebe4">
  <path d="M79.50 120.05 c0 -0.20 -2.10 -0.55 -4.60 -0.70 -6.05 -0.35 -6.40 -0.50 -6.40 -2.85 0 -1.85 0.05 -1.85 2.30 -2.20 3.80 -0.50 5.70 -0.40 5.70 0.40 0 0.70 -1.45 1.30 -3.35 1.30 -0.80 0 -1.05 0.20 -0.85 0.75 0.25 0.55 1.20 0.75 4 0.75 2.15 0 3.70 0.20 3.70 0.50 0 0.30 1.25 0.50 2.75 0.50 2 0 2.75 0.20 2.75 0.70 0 0.35 -0.50 0.80 -1.10 1 -1.70 0.45 -4.90 0.35 -4.90 -0.15z"/>
  <path d="M53.05 119.30 c-0.35 -0.40 -1.20 -0.85 -1.95 -1.05 -1.50 -0.30 -2.60 -2.15 -2.60 -4.35 0 -1.30 0.15 -1.40 2.05 -1.40 l2.05 0 -0.20 2 c-0.10 1.30 0.05 2.05 0.45 2.20 0.45 0.20 0.65 -0.25 0.65 -1.45 0 -1.65 0.10 -1.75 1.75 -1.75 1.65 0 1.75 0.10 1.75 1.75 0 1.55 -0.15 1.75 -1.25 1.75 -1.05 0 -1.25 0.25 -1.25 1.50 0 1.65 -0.55 1.90 -1.45 0.80z"/>
  <path d="M64.50 119.75 c-0.40 -0.10 -1.60 -0.30 -2.60 -0.50 -1.30 -0.20 -1.90 -0.55 -1.90 -1.10 0 -0.65 0.40 -0.75 2.65 -0.45 1.40 0.15 3.20 0.30 4 0.30 1 0 1.35 0.25 1.35 1 0 1 -1.15 1.20 -3.50 0.75z"/>
  <path d="M97.50 119 c0 -0.90 0.35 -1 3 -1 2.20 0 3 0.20 3 0.70 0 0.80 -1.50 1.30 -4.10 1.30 -1.55 0 -1.90 -0.20 -1.90 -1z"/>
  <path d="M105.50 118.55 c0 -0.85 0.30 -1.05 1.50 -1.05 0.85 0 1.50 -0.20 1.50 -0.45 0 -0.50 3.85 -1.55 5.70 -1.55 0.65 0 2.90 -0.70 5 -1.50 2.95 -1.20 4.20 -1.45 5.80 -1.20 1.10 0.20 2 0.50 2 0.75 0 0.70 -1.70 1.40 -3.30 1.35 -1.65 -0.05 -3.30 0.70 -4.80 2.20 -0.75 0.75 -1.35 0.90 -2.70 0.65 -1 -0.15 -1.70 -0.10 -1.70 0.20 0 0.70 -3.15 1.30 -3.40 0.60 -0.25 -0.70 -1.95 -0.75 -2.20 -0.05 -0.05 0.25 -0.90 0.60 -1.75 0.80 -1.45 0.30 -1.65 0.20 -1.65 -0.75z"/>
  <path d="M44.40 117.65 c-0.50 -0.10 -0.90 -0.55 -0.90 -0.95 0 -0.50 0.65 -0.70 2.25 -0.70 1.90 0 2.25 0.15 2.25 1 0 0.75 -0.30 1 -1.35 0.95 -0.80 -0.05 -1.80 -0.15 -2.25 -0.30z"/>
  <path d="M35.65 116.40 c-2.30 -0.50 -3.05 -1.90 -1 -1.90 2.90 0 4.85 0.65 4.85 1.55 0 1.05 -0.60 1.10 -3.85 0.35z"/>
  <path d="M83.50 114.50 c0 -0.85 0.35 -1 2 -1 2.25 0 2.85 1.15 0.90 1.70 -2.10 0.55 -2.90 0.35 -2.90 -0.70z"/>
  <path d="M89 114 c0 -0.85 0.35 -1 2 -1 2.25 0 2.85 1.15 0.90 1.70 -2.10 0.55 -2.90 0.35 -2.90 -0.70z"/>
  <path d="M98.65 114.65 c-1.75 -0.15 -2.15 -0.40 -2.15 -1.20 0 -0.80 0.35 -0.95 2.50 -0.95 2.35 0 2.50 0.10 2.50 1.25 0 0.70 -0.15 1.20 -0.35 1.15 -0.25 -0.05 -1.35 -0.15 -2.50 -0.25z"/>
  <path d="M111.50 113.05 c0 -0.70 0.30 -1.05 1 -1.05 0.65 0 1 -0.35 1 -1 0 -0.95 -0.25 -0.95 -3.80 -0.65 -3 0.25 -3.90 0.15 -4.25 -0.40 -0.35 -0.55 -0.45 -0.55 -0.45 0.20 0 0.65 -0.40 0.85 -1.75 0.85 -1.50 0 -1.75 -0.15 -1.75 -1.20 0 -2.70 0.60 -4.30 1.65 -4.30 0.85 0 0.95 0.25 0.70 1.90 -0.25 1.55 -0.20 1.70 0.25 0.85 0.30 -0.55 0.85 -1.20 1.25 -1.40 0.75 -0.45 0.90 -2.35 0.20 -2.35 -0.25 0 -0.60 -0.40 -0.70 -0.85 -0.20 -0.85 -0.25 -0.85 -0.30 0 0 0.45 -0.40 0.85 -0.80 0.85 -0.55 0 -0.75 -0.55 -0.75 -2 0 -1.90 0.10 -2 1.55 -2 1.20 0 1.45 -0.20 1.25 -0.85 -0.10 -0.50 -0.40 -2.35 -0.55 -4.15 -0.20 -1.80 -1.10 -5.15 -2 -7.50 -0.90 -2.35 -1.90 -5.15 -2.25 -6.25 -1.10 -3.60 -3.65 -8.75 -4.30 -8.75 -0.40 0 -1.05 -0.70 -1.45 -1.55 -1 -1.90 -1.55 -1.55 -0.85 0.50 0.50 1.45 0.45 1.55 -0.55 1.55 -0.90 0 -1.30 -0.50 -2 -2.45 -1.20 -3.45 -1.15 -5.55 0.20 -5.55 l1.05 0 -1.05 -1.70 c-0.60 -0.90 -1.05 -2.35 -1.05 -3.25 0 -1.45 0.10 -1.55 1.75 -1.55 1.75 0 4.50 1.05 4.85 1.90 0.05 0.20 1 0.90 2 1.50 1.60 1 1.85 1.05 2 0.35 0.10 -0.60 0.90 -0.15 3.10 1.80 2.15 1.95 2.70 2.70 2.15 2.90 -0.60 0.25 -0.45 0.70 0.95 2.15 1.40 1.55 1.70 1.70 1.70 0.90 0 -1.40 0.45 -1.25 3.65 1 1.70 1.25 4.05 3.75 6.05 6.40 2.85 3.80 3.15 4.40 2.30 4.60 -0.90 0.25 -0.90 0.40 0.50 2.75 1.35 2.25 1.50 2.35 1.50 1.15 0 -2.45 0.90 -1.50 3.25 3.25 2.50 5.20 2.75 6.35 1.25 6.35 -0.80 0 -1 -0.35 -1 -1.75 0 -1.20 -0.25 -1.75 -0.75 -1.75 -0.40 0 -0.75 -0.45 -0.75 -1 0 -0.55 -0.25 -1 -0.55 -1 -0.30 0 -0.45 0.30 -0.35 0.65 0.15 0.30 0.80 2.20 1.45 4.10 0.80 2.40 1.25 3.15 1.35 2.40 0.35 -2.25 2.05 -0.85 2.10 1.75 0 0.30 -0.45 0.60 -1 0.60 -0.85 0 -1 0.35 -1 2.15 0 3.70 -0.80 4.70 -4 5 -3.95 0.45 -6 1.25 -6 2.40 0 0.50 0.35 0.95 0.75 0.95 0.40 0 0.75 -0.20 0.75 -0.50 0 -0.25 0.80 -0.50 1.75 -0.50 2.30 0 2.35 1.30 0.15 1.75 -0.90 0.20 -2.45 0.75 -3.40 1.25 -0.95 0.50 -2.70 1.05 -3.85 1.25 -1.95 0.30 -2.15 0.25 -2.15 -0.70z m5 -35.80 c0 -0.40 -0.25 -0.75 -0.60 -0.75 -0.80 0 -2.90 -2.05 -2.90 -2.85 0 -0.35 -0.45 -0.65 -1 -0.65 -0.55 0 -1 -0.20 -1 -0.50 0 -0.25 -0.25 -0.50 -0.50 -0.50 -0.90 0 1.10 2.55 3.40 4.30 2.55 1.95 2.60 1.95 2.60 0.95z m-21.30 -14.20 c0.15 -0.25 -0.05 -0.70 -0.40 -1 -0.60 -0.50 -0.70 -0.45 -0.55 0.30 0.10 0.50 0.20 0.95 0.20 1.05 0.10 0.25 0.50 0.10 0.75 -0.35z"/>
  <path d="M27.50 109.95 c-2.35 -2.95 -2.45 -3.45 -0.75 -3.45 0.90 0 1.25 0.25 1.25 0.95 0 0.50 0.45 1.05 1 1.20 0.75 0.20 1 0.70 1 2.05 0 1 -0.10 1.80 -0.25 1.80 -0.10 0 -1.15 -1.15 -2.25 -2.55z"/>
  <path d="M126 112.20 c0 -0.20 0.40 -0.65 0.90 -1 0.75 -0.60 0.60 -0.65 -1.25 -0.40 -1.95 0.30 -2.15 0.25 -2.15 -0.75 0 -0.90 0.30 -1.05 2.25 -1.05 2.25 0 2.25 0 2.25 -1.75 0 -1.45 0.20 -1.75 1.05 -1.75 0.95 0 1.05 0.20 0.80 1.50 -0.30 1.25 -0.15 1.50 0.70 1.50 1.40 0 1.75 1.35 0.65 2.55 -0.85 0.95 -0.95 0.95 -1.25 0.10 -0.35 -0.80 -0.40 -0.75 -0.40 0.25 -0.05 0.90 -0.35 1.10 -1.80 1.10 -0.95 0 -1.75 -0.15 -1.75 -0.30z"/>
  <path d="M53.15 108.75 c0.20 -1.40 0.15 -2.25 -0.20 -2.25 -0.30 0 -0.45 -1.15 -0.35 -2.85 l0.15 -2.90 1.90 -0.15 1.85 -0.15 0 3 c0 1.70 0.20 3.05 0.50 3.05 0.30 0 0.50 0.90 0.50 1.95 0 2.10 -0.50 2.55 -3.10 2.55 -1.55 0 -1.55 0 -1.25 -2.25z"/>
  <path d="M24.30 97.90 c-0.55 -2.05 -0.35 -3.40 0.50 -3.40 0.45 0 0.90 -0.45 1.05 -1 0.45 -1.75 1.65 -1.20 1.65 0.75 0 1.20 -0.25 1.75 -0.75 1.75 -0.50 0 -0.75 0.50 -0.75 1.50 0 1.80 -1.25 2.05 -1.70 0.40z"/>
  <path d="M100.50 95.75 c0 -2.25 0 -2.25 1.75 -2.25 1.75 0 1.75 0 1.75 2.25 0 2.25 0 2.25 -1.75 2.25 -1.75 0 -1.75 0 -1.75 -2.25z"/>
  <path d="M40.90 70.55 c0.90 -0.80 2.65 -2.15 3.90 -3 l2.20 -1.60 0 1.50 c0 1.20 -0.20 1.55 -1 1.55 -0.55 0 -1 0.35 -1 0.75 0 0.40 -0.45 0.75 -1 0.75 -0.55 0 -1 0.35 -1 0.75 0 0.55 -0.55 0.75 -1.85 0.75 l-1.90 -0.05 1.65 -1.40z"/>
  <path d="M51 64.35 c0 -0.40 0.80 -0.90 1.75 -1.20 1.65 -0.55 1.75 -0.50 1.75 0.65 0 1.05 -0.25 1.20 -1.75 1.20 -1.10 0 -1.75 -0.25 -1.75 -0.65z"/>
  <path d="M55 62.70 c0 -0.20 0.40 -0.65 0.90 -1 0.90 -0.75 6.45 -3.70 6.85 -3.70 0.15 0 0.25 0.55 0.25 1.25 0 0.90 -0.35 1.30 -1.35 1.55 -0.75 0.20 -1.80 0.80 -2.35 1.30 -0.90 0.85 -4.30 1.30 -4.30 0.60z"/>
  <path d="M98 60 c0 -0.65 0.35 -1 0.95 -1 0.50 0 1.05 0.45 1.20 1 0.20 0.80 0 1 -0.95 1 -0.85 0 -1.20 -0.30 -1.20 -1z"/>
  <path d="M66.50 58.75 c0 -1.05 -0.25 -1.25 -1.35 -1.25 l-1.40 -0.05 1.75 -1.50 c1.65 -1.40 1.75 -1.45 1.90 -0.45 0.10 0.70 0.55 1 1.40 1 1.05 0 1.20 0.25 1.20 1.75 0 1.65 -0.10 1.75 -1.75 1.75 -1.55 0 -1.75 -0.15 -1.75 -1.25z"/>
  <path d="M69.40 52.50 c0.90 -0.85 2.05 -1.50 2.60 -1.50 1.10 0 1.25 -0.35 0.50 -1.50 -0.25 -0.45 -0.25 -0.95 0.10 -1.35 0.70 -0.85 1.40 -0.80 1.40 0.10 0 0.40 0.25 0.75 0.50 0.75 0.30 0 0.50 0.80 0.50 1.75 0 1.65 -0.10 1.75 -1.75 1.75 -1.20 0 -1.75 0.25 -1.75 0.75 0 0.55 -0.55 0.75 -1.85 0.75 l-1.90 -0.05 1.65 -1.45z"/>
  <path d="M75 44 c0 -1.80 0.65 -1.90 1.70 -0.40 1.10 1.55 1 1.90 -0.45 1.90 -1.05 0 -1.25 -0.25 -1.25 -1.50z"/>
  <path d="M79.65 43.90 c0.95 -2.30 1.85 -2.40 1.85 -0.20 0 1.60 -0.15 1.80 -1.25 1.80 -1.20 0 -1.25 -0.05 -0.60 -1.60z"/>
  <path d="M61.40 38.65 c-0.50 -0.10 -0.90 -0.55 -0.90 -0.95 0 -0.50 0.65 -0.70 2.25 -0.70 1.90 0 2.25 0.15 2.25 1 0 0.75 -0.30 1 -1.35 0.95 -0.80 -0.05 -1.80 -0.15 -2.25 -0.30z"/>
  <path d="M66 38 c0 -0.80 0.35 -1 1.75 -1 2 0 2.45 1.20 0.65 1.70 -1.90 0.50 -2.40 0.35 -2.40 -0.70z"/>
  <path d="M45.95 36.90 c-0.45 -0.80 -0.20 -0.90 2.80 -0.90 2.90 0 3.25 0.10 3.25 1 0 0.90 -0.30 1 -2.80 0.85 -2.05 -0.05 -2.90 -0.35 -3.25 -0.95z"/>
  <path d="M72 37.05 c0 -0.75 0.55 -1.10 2.50 -1.50 1.40 -0.30 3.10 -0.55 3.75 -0.55 1.10 0 1.25 -0.25 1.25 -1.75 0 -1.65 0.10 -1.75 1.75 -1.75 1.40 0 1.75 0.20 1.75 1 0 0.65 -0.25 0.90 -0.75 0.70 -0.45 -0.20 -0.75 0 -0.75 0.50 0 0.45 0.25 0.80 0.50 0.80 0.30 0 0.50 0.25 0.50 0.50 0 0.30 -0.65 0.50 -1.50 0.50 -1.15 0 -1.50 0.20 -1.50 1 0 1.15 -0.20 1.20 -1.50 0.50 -0.65 -0.35 -1.45 -0.25 -2.70 0.25 -2.35 1 -3.30 0.95 -3.30 -0.20z"/>
  <path d="M85 36.50 c0 -0.90 0.30 -1.65 0.75 -1.80 0.40 -0.20 0.75 -0.75 0.75 -1.25 0 -0.50 0.35 -0.95 0.75 -0.95 0.40 0 0.75 -0.35 0.75 -0.75 0 -0.50 0.55 -0.75 1.75 -0.75 2.15 0 2.40 1.30 0.35 1.75 -1 0.20 -1.60 0.75 -2 1.95 -0.35 0.95 -1.20 2.05 -1.85 2.50 -1.25 0.80 -1.25 0.80 -1.25 -0.70z"/>
  <path d="M39 35.30 c-2.15 -0.80 -2.70 -2.30 -0.80 -2.30 0.70 0 1.30 0.25 1.30 0.50 0 0.30 0.70 0.50 1.50 0.50 1.15 0 1.50 0.20 1.50 1 0 1.15 -0.90 1.25 -3.50 0.30z"/>
  <path d="M105 29.50 c0 -0.80 0.45 -1.05 2.50 -1.30 1.40 -0.20 2.50 -0.50 2.50 -0.75 0 -0.25 0.70 -0.45 1.50 -0.45 0.85 0 1.50 -0.20 1.50 -0.50 0 -0.25 0.80 -0.50 1.80 -0.50 3.05 0 1.70 1.15 -3.35 2.85 -5.60 1.90 -6.45 2 -6.45 0.65z"/>
  <path d="M80.60 27.90 c0.15 -0.35 0.95 -0.90 1.80 -1.25 1.55 -0.65 1.60 -0.60 1.60 0.60 0 1.10 -0.20 1.25 -1.80 1.25 -1.15 0 -1.70 -0.20 -1.60 -0.60z"/>
  <path d="M62 26 c0 -1.05 0.50 -1.20 2.40 -0.70 1.80 0.50 1.35 1.70 -0.65 1.70 -1.40 0 -1.75 -0.20 -1.75 -1z"/>
  <path d="M119.85 26.25 c-1.25 -0.90 -1.05 -1.25 0.90 -1.25 1.15 0 1.75 0.25 1.75 0.70 0 0.95 -1.65 1.30 -2.65 0.55z"/>
  <path d="M47.50 25.15 c0 -0.65 0.45 -0.95 1.75 -1 1.45 -0.15 1.75 0 1.75 0.85 0 0.80 -0.35 1 -1.75 1 -1.35 0 -1.75 -0.20 -1.75 -0.85z"/>
  <path d="M127.50 20.90 c0 -1.70 0.15 -1.90 1.25 -1.90 1.55 0 1.60 0.55 0 2.35 l-1.20 1.40 -0.05 -1.85z"/>
  <path d="M90.75 20.50 c0.15 -0.25 0.95 -0.95 1.75 -1.50 l1.50 -1.05 0 1.50 c0 1.45 -0.15 1.55 -1.80 1.55 -1 0 -1.65 -0.20 -1.45 -0.50z"/>
  <path d="M96 17.05 c0 -0.25 0.95 -0.90 2.15 -1.50 l2.10 -1.05 0.15 1.05 c0.10 0.60 -0.10 1.30 -0.50 1.50 -0.85 0.60 -3.90 0.55 -3.90 0z"/>
  <path d="M104 15 c0 -0.80 0.35 -1 1.75 -1 1.40 0 1.75 0.20 1.75 1 0 0.80 -0.35 1 -1.75 1 -1.40 0 -1.75 -0.20 -1.75 -1z"/>
 </g>
 <g fill="#d9eee9">
  <path d="M53.55 119.55 c-0.50 -0.50 -1.40 -1.10 -2 -1.30 -0.60 -0.15 -1.05 -0.65 -1.05 -1.05 0 -1.15 3.15 -0.90 4 0.30 0.40 0.55 1.15 1 1.70 1 0.90 0 0.95 0.05 0.05 1 -1.10 1.25 -1.50 1.25 -2.70 0.05z"/>
  <path d="M69.40 120.15 c-1.80 -0.45 -1 -1.65 1.10 -1.65 1.65 0 2 0.15 2 1 0 1 -1 1.20 -3.10 0.65z"/>
  <path d="M78.50 119.50 c0 -0.80 0.35 -1 1.75 -1 1.85 0 2.45 1.10 0.95 1.70 -1.60 0.60 -2.70 0.30 -2.70 -0.70z"/>
  <path d="M105 119.15 c0 -0.25 -3.50 -0.35 -8.75 -0.25 -7.55 0.20 -8.75 0.10 -8.75 -0.55 0 -1.25 3.95 -1.85 12.45 -1.85 7.65 0 8 0.05 8.30 1.05 0.20 0.55 0.25 1.10 0.15 1.25 -0.50 0.45 -3.40 0.80 -3.40 0.35z"/>
  <path d="M100.20 114.25 c-0.15 -0.40 0.05 -1.05 0.45 -1.50 1.10 -1.05 13.85 -1.10 13.85 -0.05 0 1 -1.60 1.30 -7.10 1.30 -2.70 0 -5 0.20 -5.15 0.50 -0.45 0.75 -1.75 0.60 -2.05 -0.25z"/>
  <path d="M78 112.25 l0 -1.75 3 0 c2.65 0 3 -0.10 3 -0.95 0 -0.55 0.45 -2.85 1 -5.15 0.55 -2.30 1 -4.30 1 -4.50 0 -0.25 -0.65 -0.40 -1.50 -0.40 -1.40 0 -1.50 -0.15 -1.50 -1.75 0 -1.65 0.10 -1.75 1.75 -1.75 1.30 0 1.75 0.20 1.80 0.90 0 0.50 0.35 0.10 0.80 -0.90 1.10 -2.50 2.10 -18.05 1.50 -23.95 -0.20 -2.55 -0.35 -4.75 -0.25 -4.80 0.10 -0.10 1.55 -0.35 3.30 -0.55 2.95 -0.30 3.20 -0.25 3.45 0.75 0.15 0.55 0.45 1.05 0.70 1.05 0.25 0 0.45 0.35 0.45 0.80 0 0.40 0.30 1.10 0.70 1.45 1.75 1.80 6.15 16.20 6.60 21.75 0.30 3.50 0.25 4 -0.50 4 -0.45 0 -0.80 -0.35 -0.80 -0.85 0 -0.45 -0.15 -0.65 -0.30 -0.50 -0.20 0.20 -0.35 3.90 -0.40 8.20 l-0.05 7.90 -5.10 0.15 c-5.10 0.15 -5.15 0.15 -5.15 1.35 l0 1.25 -6.75 0 -6.75 0 0 -1.75z m23.25 -22.10 c-0.20 -0.50 -0.35 -1.25 -0.35 -1.65 0.10 -1.55 -1.10 -4.50 -1.75 -4.50 -0.50 0 -0.60 0.35 -0.40 1.15 1.30 4.30 1.95 5.85 2.35 5.85 0.30 0 0.35 -0.40 0.15 -0.85z m-5.50 -17.50 c-0.30 -1.25 -2.05 -4.15 -2.55 -4.15 -0.10 0 0.25 1.20 0.80 2.65 0.55 1.40 1 2.65 1 2.75 0 0.05 0.25 0.10 0.55 0.10 0.35 0 0.45 -0.50 0.20 -1.35z"/>
  <path d="M115 112.25 c0 -0.90 0.25 -1.25 1 -1.25 0.55 0 1 -0.20 1 -0.50 0 -0.25 0.80 -0.50 1.75 -0.50 1.20 0 1.75 0.25 1.75 0.75 0 0.40 -0.30 0.75 -0.60 0.75 -0.35 0 -1.20 0.30 -1.90 0.65 -2.65 1.40 -3 1.40 -3 0.10z"/>
  <path d="M127.20 111.25 c0.85 -0.65 0.90 -0.75 0.15 -0.75 -0.55 0 -0.85 -0.40 -0.85 -1.05 0 -0.85 0.25 -1 1.65 -0.85 1.40 0.15 1.60 0.35 1.75 1.80 0.15 1.55 0.10 1.60 -1.75 1.60 -1.80 -0.05 -1.85 -0.10 -0.95 -0.75z"/>
  <path d="M52 108.75 c0 -1.60 0.10 -1.75 1.50 -1.75 0.85 0 1.50 0.25 1.50 0.50 0 0.30 -0.25 0.50 -0.55 0.50 -0.30 0 -0.45 0.30 -0.30 0.65 0.10 0.30 0.50 0.55 0.80 0.50 0.30 -0.10 0.55 0.20 0.55 0.60 0 0.50 -0.55 0.75 -1.75 0.75 -1.65 0 -1.75 -0.10 -1.75 -1.75z"/>
  <path d="M104.05 108.25 c0.60 -0.95 1.25 -1.75 1.50 -1.75 0.25 0 0.45 0.80 0.45 1.75 0 1.60 -0.10 1.75 -1.50 1.75 l-1.45 0 1 -1.75z"/>
  <path d="M102.50 107.75 c0 -0.70 0.30 -1.25 0.70 -1.25 0.45 0 0.60 0.40 0.40 1.25 -0.10 0.70 -0.40 1.25 -0.65 1.25 -0.25 0 -0.45 -0.55 -0.45 -1.25z"/>
  <path d="M73.50 105.25 c0 -1.65 0.10 -1.75 1.75 -1.75 1.65 0 1.75 0.10 1.75 1.75 0 1.65 -0.10 1.75 -1.75 1.75 -1.65 0 -1.75 -0.10 -1.75 -1.75z"/>
  <path d="M72.50 97.25 c0 -1.65 0.10 -1.75 1.75 -1.75 1.65 0 1.75 0.10 1.75 1.75 0 1.65 -0.10 1.75 -1.75 1.75 -1.65 0 -1.75 -0.10 -1.75 -1.75z"/>
  <path d="M24 95.50 c0 -0.65 0.35 -1 0.95 -1 0.70 0 1.05 -0.50 1.25 -1.75 0.20 -1.05 0.65 -1.75 1.05 -1.75 0.50 0 0.75 0.55 0.75 1.75 0 1.40 -0.20 1.75 -1 1.75 -0.65 0 -1 0.35 -1 1 0 0.65 -0.35 1 -1 1 -0.65 0 -1 -0.35 -1 -1z"/>
  <path d="M72.50 93.25 c0 -1.65 0.10 -1.75 1.75 -1.75 1.65 0 1.75 0.10 1.75 1.75 0 1.65 -0.10 1.75 -1.75 1.75 -1.65 0 -1.75 -0.10 -1.75 -1.75z"/>
  <path d="M26.70 88.45 c0.40 -2.35 1.10 -3.95 1.80 -3.95 0.55 0 0.65 1.40 0.20 4.15 -0.25 1.40 -0.55 1.85 -1.35 1.85 -0.85 0 -0.95 -0.20 -0.65 -2.05z"/>
  <path d="M84.50 87.65 c0 -0.80 -0.15 -2.60 -0.30 -4 l-0.35 -2.65 1.75 0 c1.65 0 1.80 0.10 2.10 1.90 0.15 1 0.30 2.80 0.30 4 0 2.05 0 2.10 -1.75 2.10 -1.55 0 -1.75 -0.15 -1.75 -1.35z"/>
  <path d="M122.50 85.50 c0 -1.15 -0.20 -1.50 -1 -1.50 -0.80 0 -1 -0.35 -1 -1.80 0 -1 0.20 -1.65 0.50 -1.45 0.55 0.35 4 5.45 4 5.95 0 0.15 -0.55 0.30 -1.25 0.30 -1.05 0 -1.25 -0.25 -1.25 -1.50z"/>
  <path d="M28.50 83.55 c0 -0.80 4.30 -6.30 5.65 -7.20 l1.35 -0.85 0 1.35 c0 1.65 -1.90 3.65 -3.45 3.65 -0.85 0 -1.05 0.30 -1.05 1.75 0 1.55 -0.15 1.75 -1.25 1.75 -0.70 0 -1.25 -0.20 -1.25 -0.45z"/>
  <path d="M84.50 75.75 c0 -1.65 0.10 -1.75 1.75 -1.75 1.65 0 1.75 0.10 1.75 1.75 0 1.65 -0.10 1.75 -1.75 1.75 -1.65 0 -1.75 -0.10 -1.75 -1.75z"/>
  <path d="M75 71.25 c0 -1.65 0.10 -1.75 1.75 -1.75 1.65 0 1.75 0.10 1.75 1.75 0 1.65 -0.10 1.75 -1.75 1.75 -1.65 0 -1.75 -0.10 -1.75 -1.75z"/>
  <path d="M84.50 66.75 c0 -1.65 0.10 -1.75 1.75 -1.75 1.65 0 1.75 0.10 1.75 1.75 0 1.65 -0.10 1.75 -1.75 1.75 -1.65 0 -1.75 -0.10 -1.75 -1.75z"/>
  <path d="M77 64.25 c0 -1.65 0.10 -1.75 1.75 -1.75 1.65 0 1.75 0.10 1.75 1.75 0 1.65 -0.10 1.75 -1.75 1.75 -1.65 0 -1.75 -0.10 -1.75 -1.75z"/>
  <path d="M49.50 65 c0 -0.60 1.65 -1.50 2.70 -1.50 0.45 0 0.80 0.45 0.80 1 0 0.80 -0.35 1 -1.75 1 -0.95 0 -1.75 -0.20 -1.75 -0.50z"/>
  <path d="M79 58.25 c0 -1.60 0.10 -1.75 1.50 -1.75 0.85 0 1.50 -0.20 1.50 -0.50 0 -0.25 0.80 -0.50 1.75 -0.50 1.65 0 1.75 0.10 1.75 1.75 0 1.60 -0.10 1.75 -1.50 1.75 -0.80 0 -1.50 0.25 -1.50 0.50 0 0.30 -0.80 0.50 -1.75 0.50 -1.65 0 -1.75 -0.10 -1.75 -1.75z"/>
  <path d="M69.70 52.25 c1.85 -1.55 2.30 -1.55 2.30 0 0 1.10 -0.20 1.25 -1.85 1.25 l-1.90 0 1.45 -1.25z"/>
  <path d="M72.60 48.65 c0.15 -0.65 0.60 -0.85 1.80 -0.75 1.45 0.10 1.55 0 1.10 -1.10 -0.35 -1.05 -0.25 -1.25 0.75 -1.40 0.65 -0.15 1.40 -0.05 1.65 0.20 0.50 0.50 2.10 -1.35 2.10 -2.45 0 -0.35 0.35 -0.65 0.75 -0.65 0.50 0 0.75 0.50 0.75 1.55 0 2.30 -0.80 3.45 -2.50 3.45 -0.95 0 -1.50 0.25 -1.50 0.70 0 0.40 -0.75 0.80 -1.85 1 -2.85 0.45 -3.25 0.40 -3.05 -0.55z"/>
  <path d="M65.50 38.10 c0 -0.75 0.45 -1.05 2.30 -1.30 3.45 -0.45 4.20 -0.40 4.20 0.40 0 0.70 -0.55 0.90 -4.60 1.60 -1.65 0.25 -1.90 0.20 -1.90 -0.70z"/>
  <path d="M52.40 38.15 c-1.65 -0.40 -1 -1.65 0.85 -1.65 1.40 0 1.75 0.20 1.75 1 0 1 -0.70 1.15 -2.60 0.65z"/>
  <path d="M37.65 34.65 c-1.05 -0.40 -0.75 -2.15 0.35 -2.15 0.75 0 1 0.35 1 1.25 0 1.25 -0.20 1.40 -1.35 0.90z"/>
  <path d="M79.50 32.75 c0 -1.70 0.05 -1.75 2 -1.75 1.80 0 2 0.10 2 1.25 0 1.10 -0.15 1.25 -1.35 0.95 -1.10 -0.30 -1.25 -0.20 -1 0.50 0.25 0.55 0.05 0.80 -0.65 0.80 -0.80 0 -1 -0.35 -1 -1.75z"/>
  <path d="M98.60 15.90 c0.15 -0.35 0.95 -0.90 1.80 -1.25 1.55 -0.65 1.60 -0.60 1.60 0.60 0 1.10 -0.20 1.25 -1.80 1.25 -1.15 0 -1.70 -0.20 -1.60 -0.60z"/>
 </g>
 <g fill="#dcf6cc">
  <path d="M74.10 109.75 c-0.35 -0.70 -0.60 -2.30 -0.60 -3.50 0 -1.20 -0.25 -3.85 -0.50 -5.90 -0.90 -6.15 0.70 -28.55 2.05 -30.10 0.25 -0.25 0.45 -0.90 0.45 -1.50 0 -0.55 0.35 -2 0.80 -3.25 0.45 -1.25 1.10 -3.45 1.50 -4.90 0.40 -1.40 1.30 -3.50 2 -4.60 1.10 -1.65 1.60 -2 2.95 -2 1.75 0 1.85 0.15 3.40 5 1.25 3.75 2.85 12.30 2.85 14.90 0 1.70 -0.25 2.60 -0.70 2.75 -0.60 0.25 -0.80 2.20 -1 10.20 -0.30 12.50 -0.45 13.90 -2.65 19.55 l-1.80 4.60 -4.10 0 c-3.90 0 -4.10 -0.05 -4.65 -1.25z"/>
  <path d="M73 28.05 c0 -0.65 0.30 -0.95 0.95 -0.90 0.55 0 0.85 0.25 0.75 0.45 -0.15 0.20 0.10 0.40 0.55 0.40 0.45 0 0.65 0.25 0.50 0.50 -0.15 0.30 -0.85 0.50 -1.55 0.50 -0.85 0 -1.20 -0.25 -1.20 -0.95z"/>
 </g>
 <g fill="#f0d6c8">
  <path d="M64.35 119.60 c-5.40 -0.60 -7.15 -0.65 -7.90 -0.20 -1.35 0.85 -2.50 0.75 -3.25 -0.25 -0.35 -0.50 -0.85 -0.95 -1.15 -0.95 -0.30 -0.05 -0.85 -0.10 -1.25 -0.15 -0.40 0 -0.85 -0.45 -0.95 -0.90 -0.20 -0.85 -0.25 -0.85 -0.30 0 -0.10 1.35 -4.55 0.95 -4.55 -0.45 0 -0.50 0.65 -0.70 2.25 -0.70 2.20 0 2.25 -0.05 2.25 -1.55 l0 -1.55 9.15 0.30 c5 0.15 10.15 0.40 11.50 0.60 l2.35 0.35 0 -1.60 0 -1.55 -9.95 0 c-8.60 0 -10 -0.10 -10.25 -0.80 -0.55 -1.45 0.30 -9.40 1.55 -14.20 1.85 -7.20 2.60 -9.40 4.55 -13.60 1.55 -3.40 1.90 -3.90 3.05 -3.90 1.15 0 1.50 -0.45 2.80 -3.35 0.90 -2.05 2.35 -4.30 3.70 -5.65 1.95 -1.95 2.25 -2.45 2.10 -4.10 -0.10 -1.35 0.10 -2 0.65 -2.20 1.15 -0.45 1 -1.70 -0.20 -1.70 -0.55 0 -1 -0.20 -1 -0.45 0 -0.25 -1 -0.30 -2.25 -0.15 -2.05 0.20 -2.25 0.15 -2.25 -0.85 0 -0.55 -0.20 -1.05 -0.50 -1.05 -0.25 0 -0.50 0.25 -0.50 0.50 0 0.30 -0.55 0.50 -1.25 0.50 -0.75 0 -1.25 0.30 -1.25 0.70 0 0.75 -1.05 1.30 -2.55 1.30 -0.50 0 -0.95 0.30 -0.95 0.70 0 0.65 -1.20 1.25 -7.10 3.60 -1.35 0.50 -2.40 1.10 -2.40 1.35 0 0.20 -0.45 0.35 -1 0.35 -0.55 0 -1 0.35 -1 0.75 0 0.40 -0.45 0.75 -1 0.75 -0.55 0 -1 0.35 -1 0.75 0 0.40 -0.40 0.75 -0.90 0.75 -0.45 0 -1.10 0.50 -1.35 1.15 -0.30 0.60 -1 1.15 -1.60 1.25 -0.65 0.10 -1.15 0.45 -1.15 0.80 0 1.10 -1.75 2.30 -3.40 2.30 -1.45 0 -1.60 0.15 -1.60 1.50 0 1.25 -0.20 1.50 -1.25 1.50 -1.05 0 -1.25 0.25 -1.25 1.50 0 1.25 -0.20 1.50 -1.25 1.50 -0.70 0 -1.25 -0.20 -1.25 -0.45 0 -2.35 16.95 -16.65 21.35 -18.05 2.25 -0.70 9.45 -4.50 12.65 -6.65 1.25 -0.85 3.50 -2.60 4.95 -3.95 1.75 -1.50 3.20 -2.40 4 -2.40 0.95 0 1.10 -0.15 0.65 -0.60 -1.45 -1.45 -0.25 -3.10 1.85 -2.55 1.30 0.35 1.30 -0.05 0 -2.20 -1.10 -1.75 -1 -3.15 0.25 -3.15 0.40 0 1.20 0.80 1.80 1.75 0.60 0.95 1.30 1.75 1.50 1.75 0.85 0 1.50 -1.85 1.70 -4.85 0.20 -2.95 0.15 -3 -1.50 -3.90 -2.35 -1.25 -2.15 -1.95 0.45 -1.50 1.15 0.15 3.45 0.30 5.10 0.30 l3 -0.05 -1.40 1.25 c-0.75 0.70 -1.85 1.25 -2.40 1.25 -0.85 0 -0.90 0.15 -0.40 1.05 0.30 0.60 0.70 2.10 0.90 3.40 0.20 1.50 0.55 2.30 1.05 2.35 0.40 0.05 1.25 0.10 1.90 0.15 0.90 0.05 1.10 0.35 1.10 1.55 0 0.95 0.35 1.70 1 2.10 1.45 0.95 1.25 1.40 -0.70 1.40 -1.75 0 -2.30 -0.65 -2.30 -2.55 0 -0.75 -0.35 -0.95 -1.75 -0.95 -1.60 0 -1.75 -0.15 -1.75 -1.45 0 -1.25 -0.15 -1.40 -1.25 -1.15 -1.05 0.20 -1.25 0.50 -1.25 1.90 0 1.50 -0.15 1.70 -1.25 1.70 -0.90 0 -1.25 0.25 -1.25 1 0 0.80 -0.35 1 -1.50 1 -0.80 0 -1.50 0.15 -1.50 0.40 0 0.20 0.90 0.30 2 0.20 l2 -0.20 0 2.05 c0 1.15 -0.20 2.05 -0.50 2.05 -0.25 0 -0.50 0.35 -0.50 0.75 0 0.55 -0.55 0.75 -1.80 0.75 l-1.85 0 0.25 -2.25 c0.20 -1.70 0.10 -2.25 -0.40 -2.25 -0.40 0 -0.70 0.35 -0.70 0.75 0 0.40 -0.45 0.75 -1 0.75 -0.55 0 -1 0.30 -1 0.65 0 0.95 -1.50 2.20 -3 2.50 -1.25 0.20 -1.20 0.20 0.15 0.30 0.85 0 1.35 0.35 1.35 0.80 0 0.55 0.55 0.75 2 0.75 1.65 0 2 0.15 2 1 0 0.75 0.35 1 1.25 1 1.10 0 1.25 0.20 1.25 1.65 0 1 -0.40 2.10 -1 2.75 -0.85 0.90 -0.90 1.10 -0.25 1.10 1.20 0 1.05 2.55 -0.85 11 -1.05 4.85 -1.90 11.50 -2.20 17.25 -0.30 5.55 -0.20 6.30 1 10 0.70 2.20 1.30 4.60 1.30 5.40 0 1 0.25 1.35 1 1.35 0.80 0 1 0.35 1 1.75 0 1.20 -0.25 1.75 -0.75 1.75 -0.40 0 -0.75 0.30 -0.75 0.70 0 0.70 -1.45 1.30 -3.35 1.30 -0.65 0 -1.15 0.20 -1.15 0.45 0 0.55 0.80 0.80 3.65 1.30 1.95 0.30 2.65 1.75 0.85 1.75 -0.55 0 -1 0.25 -1 0.50 0 0.60 -0.25 0.60 -9.15 -0.40z m-8.35 -11.15 c0 -0.60 -1.85 -0.60 -2.20 0 -0.35 0.55 0.70 1 1.60 0.65 0.30 -0.10 0.60 -0.40 0.60 -0.65z m-1 -5 c0 -0.85 -0.20 -1.40 -0.50 -1.20 -0.25 0.15 -0.50 0.85 -0.50 1.55 0 0.65 0.25 1.20 0.50 1.20 0.30 0 0.50 -0.70 0.50 -1.55z"/>
  <path d="M77.25 119.50 c-0.20 -0.60 -0.20 -1.25 0 -1.40 0.20 -0.20 2.10 -0.45 4.30 -0.55 3.65 -0.15 3.95 -0.10 3.95 0.85 0 1 -0.25 1.05 -6.10 1.90 -1.55 0.25 -1.85 0.10 -2.15 -0.80z"/>
  <path d="M87.50 119 c0 -0.95 0.35 -1 6.50 -1 5.20 0 6.50 0.15 6.50 0.70 0 1 -1.65 1.30 -7.60 1.30 -5.05 0 -5.40 -0.05 -5.40 -1z"/>
  <path d="M103 118.60 c0 -1.45 0.75 -1.75 4.45 -1.90 4.20 -0.15 8.75 -1.05 11.05 -2.20 0.95 -0.45 3.25 -1.35 5.05 -1.95 1.80 -0.60 3.70 -1.40 4.25 -1.75 0.75 -0.60 0.45 -0.60 -2 -0.20 -2.35 0.40 -3 0.40 -3.35 -0.15 -0.25 -0.40 -0.45 -0.45 -0.45 -0.15 0 0.35 -1.05 0.85 -2.30 1.15 -1.25 0.35 -2.80 0.90 -3.35 1.30 -0.80 0.50 -2 0.60 -4.20 0.40 -2.65 -0.25 -3.15 -0.45 -3.15 -1.20 0 -0.85 -0.40 -0.95 -3.50 -0.95 -4.20 0 -4.45 -0.35 -3.55 -4.45 0.35 -1.55 0.75 -3.75 0.90 -4.90 0.25 -2.05 0.20 -2.15 -1 -2.15 -1.15 0 -1.30 -0.25 -1.60 -2.60 -0.20 -1.45 -0.10 -3.20 0.20 -3.90 0.30 -0.75 0.50 -0.95 0.50 -0.45 0.05 0.45 0.40 1.60 0.80 2.50 0.80 1.70 0.80 1.70 0.50 -1.55 -0.20 -1.80 -0.55 -4.25 -0.85 -5.45 -0.40 -1.60 -0.40 -2.25 0.05 -2.50 0.40 -0.30 0.15 -1.55 -0.95 -4.65 -0.80 -2.40 -1.50 -4.80 -1.50 -5.35 0 -0.60 -0.30 -1.05 -0.75 -1.05 -0.40 0 -0.75 -0.25 -0.75 -0.55 0 -0.25 -0.25 -0.35 -0.60 -0.15 -0.35 0.25 -0.45 0.10 -0.30 -0.35 0.15 -0.40 0 -1.30 -0.40 -2 -0.35 -0.65 -0.65 -1.95 -0.70 -2.80 0 -1.25 -0.20 -1.65 -0.85 -1.65 -0.70 0 -0.75 0.10 -0.25 0.45 0.40 0.20 0.60 0.95 0.50 1.60 -0.15 1.15 -0.20 1.10 -1.25 -0.55 -1.35 -2.05 -1.45 -1.85 -0.40 0.70 0.45 1.05 0.55 1.80 0.25 1.80 -0.25 0 -0.50 0.35 -0.50 0.75 0 1.30 -1 0.80 -1.75 -0.85 l-0.70 -1.65 -0.05 1.65 c0 0.85 -0.20 1.60 -0.50 1.60 -0.25 0 -0.50 -0.35 -0.50 -0.75 0 -0.40 -0.20 -0.75 -0.50 -0.75 -0.25 0 -0.50 -0.80 -0.50 -1.75 0 -1.40 0.20 -1.75 1 -1.75 0.75 0 1 -0.35 1 -1.25 0 -1 0.25 -1.25 1.40 -1.30 0.75 0 1.05 -0.15 0.75 -0.30 -0.35 -0.10 -0.65 -0.45 -0.65 -0.70 0 -0.30 -0.65 -1.20 -1.50 -2.10 -1 -1.10 -1.50 -2.10 -1.50 -3.20 0 -1.55 0.10 -1.65 1.70 -1.65 0.90 0 1.95 0.35 2.30 0.75 1 1.20 1.50 0.90 1.50 -0.85 l0 -1.60 1.90 1.80 c1 0.95 2.10 1.85 2.35 1.95 0.30 0.10 1.60 1.40 2.95 2.85 1.95 2.05 2.25 2.60 1.50 2.65 -0.90 0 -0.90 0.05 0.05 0.40 0.55 0.25 1.15 0.35 1.30 0.25 0.20 -0.10 1.45 0.80 2.75 1.95 1.35 1.20 3.50 2.90 4.80 3.75 3.10 2.15 3.35 2.60 1.20 2.60 -1.45 0 -1.80 -0.20 -1.80 -1 0 -0.55 -0.35 -1 -0.75 -1 -0.45 0 -0.60 0.30 -0.45 0.75 0.40 0.95 3.65 4.25 4.25 4.25 0.20 0 0.65 0.40 0.90 0.90 0.40 0.70 0.55 0.45 0.55 -1.15 l0.05 -2 1.50 1.75 c2.20 2.55 7.30 10.10 8.90 13.10 2.15 4.20 2.20 4.40 0.80 4.40 -0.90 0 -1.25 -0.25 -1.25 -1 0 -0.55 -0.25 -1 -0.55 -1 -0.55 0 -0.35 0.95 1.10 4.50 0.50 1.25 0.90 1.95 0.90 1.65 0.10 -1.45 1.50 -0.55 1.85 1.10 0.35 2.10 0.40 2.05 -1.60 2.45 l-1.50 0.35 -2.15 -6.15 c-2.70 -7.80 -5.25 -12.15 -8.90 -15.25 -3.55 -3 -5.10 -4.55 -9.05 -9.10 -3.75 -4.20 -12.65 -11.15 -13.40 -10.45 -0.10 0.10 0.35 1 1 1.95 2.55 3.75 7.40 13.60 9.05 18.25 0.90 2.75 2.10 6.10 2.65 7.45 1.15 2.95 2.85 15.60 2.40 17.60 -0.20 0.75 -0.45 1.80 -0.65 2.35 -0.25 0.85 -0.05 0.90 2.15 0.55 1.35 -0.15 4.15 -0.90 6.20 -1.55 2.05 -0.65 5 -1.35 6.50 -1.55 1.50 -0.15 2.90 -0.55 3.10 -0.85 0.25 -0.30 0.40 -0.05 0.40 0.60 0 0.60 0.20 1.10 0.45 1.10 0.25 0 0.60 0.50 0.70 1.15 l0.20 1.10 0.40 -1.10 c0.25 -0.75 0.75 -1.15 1.50 -1.15 0.90 0 1.05 0.20 0.90 1.15 -0.20 0.95 -0.05 1.20 0.90 1.15 0.60 -0.05 1.20 0.20 1.30 0.55 0.35 0.95 -2.80 4.05 -4.75 4.70 -1 0.30 -4.05 1.45 -6.70 2.55 -3.75 1.45 -5.85 2 -8.75 2.20 -2.15 0.10 -4.95 0.35 -6.25 0.55 -2.20 0.25 -2.40 0.20 -2.40 -0.75z m1.80 -13.70 c0.10 -1.75 0 -2.60 -0.10 -1.90 -0.15 0.70 -0.60 2.45 -0.95 3.95 -0.65 2.50 -0.65 2.65 0.10 1.90 0.55 -0.55 0.90 -1.85 0.95 -3.95z m0.40 -9 c-0.20 -1.45 -0.60 -3.55 -0.95 -4.65 l-0.55 -2 0.10 3 c0.10 1.65 0.15 3.75 0.20 4.65 0 1.10 0.25 1.60 0.75 1.60 0.65 0 0.75 -0.45 0.45 -2.60z"/>
  <path d="M41.25 117.25 c-0.25 -0.05 -2.15 -0.40 -4.20 -0.75 -4.30 -0.70 -6 -2 -10.20 -7.65 l-2.60 -3.50 0 -5.20 c0 -4.40 0.10 -5.20 0.85 -5.45 0.45 -0.15 1 -0.90 1.15 -1.70 0.45 -2.15 1.75 -1.95 1.75 0.25 0 1.35 -0.20 1.75 -0.90 1.75 -0.80 0 -0.90 0.50 -0.85 5.10 0.05 3.40 0.25 5.15 0.65 5.30 0.35 0.10 0.60 0.50 0.60 0.90 0 0.40 0.25 0.70 0.50 0.70 0.30 0 0.50 0.55 0.50 1.25 0 0.85 0.25 1.25 0.90 1.25 1.30 0 2.10 1 2.10 2.60 0 1.10 0.25 1.40 1.15 1.40 0.60 0 2 0.35 3.10 0.70 1.10 0.40 3.50 0.85 5.40 1.05 2.80 0.30 3.35 0.50 3.35 1.30 0 0.70 -0.35 0.95 -1.35 0.90 -0.80 0 -1.60 -0.10 -1.90 -0.20z"/>
  <path d="M78 114.50 c0 -0.90 0.35 -1 4.25 -1 3.30 0 4.25 0.15 4.25 0.70 0 0.90 -1.55 1.30 -5.35 1.30 -2.80 0 -3.15 -0.10 -3.15 -1z"/>
  <path d="M87.50 114 c0 -0.85 0.35 -1 2.25 -1 2.45 0 3.20 1.15 1.15 1.70 -2.25 0.60 -3.40 0.35 -3.40 -0.70z"/>
  <path d="M100.25 114.55 c-0.15 -0.30 -1.80 -0.35 -3.75 -0.20 -3.35 0.30 -3.50 0.25 -3.50 -0.80 0 -1.05 0.20 -1.10 3.90 -1.05 2.10 0 4.90 -0.10 6.25 -0.30 2 -0.30 2.35 -0.20 2.35 0.50 0 0.70 -0.90 1.05 -2.15 0.85 -0.20 -0.05 -0.75 0.25 -1.15 0.70 -0.90 0.85 -1.50 0.95 -1.95 0.30z"/>
  <path d="M37 107.25 c0 -1.65 0.10 -1.75 1.75 -1.75 1.65 0 1.75 0.10 1.75 1.75 0 1.65 -0.10 1.75 -1.75 1.75 -1.65 0 -1.75 -0.10 -1.75 -1.75z"/>
  <path d="M97.60 89.05 c-0.35 -1.05 -0.60 -2.40 -0.60 -2.95 0 -0.55 -0.25 -1.10 -0.50 -1.20 -0.30 -0.10 -0.65 -1.35 -0.85 -2.80 -0.25 -2.15 -0.15 -2.60 0.50 -2.60 0.45 0 0.90 0.65 1.10 1.65 0.20 0.85 1 3.45 1.80 5.75 l1.40 4.10 -1.15 0 c-0.90 0 -1.25 -0.40 -1.70 -1.95z"/>
  <path d="M93.50 74.75 c0 -1.95 0.70 -2.30 1.50 -0.80 0.80 1.55 0.60 2.55 -0.50 2.55 -0.80 0 -1 -0.35 -1 -1.75z"/>
  <path d="M60.50 74.70 c0 -0.15 0.35 -0.60 0.75 -1 1 -1 0.95 -1.75 -0.10 -1.35 -0.55 0.20 -0.70 0.15 -0.45 -0.25 0.20 -0.35 0.90 -0.60 1.60 -0.60 1.05 0 1.20 0.25 1.20 1.75 0 1.60 -0.10 1.75 -1.50 1.75 -0.80 0 -1.50 -0.15 -1.50 -0.30z"/>
  <path d="M91.50 52.50 c0 -1.50 0 -1.50 1.25 -0.70 0.70 0.45 1.25 1.15 1.25 1.50 0 0.40 -0.50 0.70 -1.25 0.70 -1.05 0 -1.25 -0.25 -1.25 -1.50z"/>
  <path d="M62.90 38.65 c-0.50 -0.10 -0.90 -0.55 -0.90 -0.95 0 -0.55 0.75 -0.70 3.25 -0.70 2.45 0 3.25 0.15 3.25 0.70 0 1.10 -3.10 1.60 -5.60 0.95z"/>
  <path d="M49.90 37.65 c-1.65 -0.40 -1 -1.65 0.85 -1.65 1.40 0 1.75 0.20 1.75 1 0 1 -0.70 1.15 -2.60 0.65z"/>
  <path d="M71.50 37 c0 -0.80 0.35 -1 1.75 -1 2 0 2.45 1.20 0.65 1.70 -1.90 0.50 -2.40 0.35 -2.40 -0.70z"/>
  <path d="M86.50 33.95 c0 -1.95 1 -2.95 2.95 -2.95 1.90 0 2.10 1.25 0.30 1.70 -0.75 0.20 -1.35 0.80 -1.55 1.55 -0.45 1.80 -1.70 1.60 -1.70 -0.30z"/>
  <path d="M83.20 34.10 c0.15 -0.25 -0.30 -0.75 -0.95 -1.10 -1.75 -0.95 -1.55 -1.50 0.50 -1.50 1.60 0 1.75 0.10 1.75 1.50 0 1.05 -0.25 1.50 -0.80 1.50 -0.40 0 -0.65 -0.20 -0.50 -0.40z"/>
  <path d="M92.50 31.65 c0 -0.75 0.65 -1.05 3.90 -1.55 4.95 -0.75 5.60 -0.75 5.60 0.10 0 0.70 -1.90 1.25 -7.35 2.05 -1.90 0.30 -2.15 0.20 -2.15 -0.60z"/>
  <path d="M103 30 c0 -0.80 0.35 -1 1.75 -1 0.95 0 1.75 -0.20 1.75 -0.40 0 -0.50 6.40 -2.60 7.90 -2.60 0.60 0 1.10 -0.20 1.10 -0.50 0 -0.25 0.80 -0.50 1.75 -0.50 1.10 0 1.75 0.25 1.75 0.65 0 0.60 -13.70 5.35 -15.35 5.35 -0.35 0 -0.65 -0.45 -0.65 -1z"/>
  <path d="M79.65 28.25 c1.80 -1.60 2.35 -1.55 2.35 0 0 1.10 -0.20 1.25 -1.85 1.25 l-1.90 -0.05 1.40 -1.20z"/>
  <path d="M62.50 27 c-0.95 -0.20 -2.60 -0.55 -3.60 -0.70 -1.45 -0.25 -1.90 -0.60 -1.90 -1.30 0 -1.15 0.40 -1.20 2.95 -0.50 1 0.25 3.10 0.70 4.70 1 1.90 0.40 2.85 0.80 2.85 1.30 0 0.80 -2.05 0.85 -5 0.20z"/>
  <path d="M46.50 25.30 c0 -1.05 0.20 -1.15 2 -1.10 1.75 0.05 2 0.20 2 1.15 0 1 -0.25 1.15 -2 1.15 -1.75 0 -2 -0.15 -2 -1.20z"/>
  <path d="M84.50 26.15 c0 -0.25 0.80 -0.90 1.75 -1.55 l1.75 -1.10 0 1.50 c0 1.40 -0.15 1.50 -1.75 1.50 -0.95 0 -1.75 -0.15 -1.75 -0.35z"/>
  <path d="M120.50 25.50 c0 -0.80 0.35 -1 1.75 -1 1.40 0 1.75 -0.20 1.75 -1 0 -0.75 0.35 -1 1.25 -1 1 0 1.25 -0.25 1.25 -1.25 0 -0.70 0.35 -1.40 0.75 -1.55 0.40 -0.20 0.75 -0.60 0.75 -1 0 -0.40 0.45 -0.70 1 -0.70 2.45 0 -0.35 4.45 -4.45 7.05 -2.65 1.70 -4.05 1.85 -4.05 0.45z"/>
  <path d="M89.80 21.45 c0.45 -0.75 6.20 -4.95 6.75 -4.95 0.25 0 0.45 0.55 0.45 1.25 0 0.80 -0.30 1.25 -0.75 1.25 -0.40 0 -0.75 0.25 -0.75 0.50 0 0.30 -0.40 0.50 -0.95 0.50 -0.50 0 -1.05 0.45 -1.20 1 -0.20 0.75 -0.70 1 -2.10 1 -1.15 0 -1.70 -0.20 -1.45 -0.55z"/>
  <path d="M100 15.50 c0 -0.60 1.65 -1.50 2.70 -1.50 0.45 0 0.80 0.45 0.80 1 0 0.80 -0.35 1 -1.75 1 -0.95 0 -1.75 -0.20 -1.75 -0.50z"/>
 </g>
 <g fill="#f3e8a5">
  <path d="M58.50 73.75 c0 -1.65 0.10 -1.75 1.65 -1.70 0.85 0 1.30 0.15 1 0.30 -0.35 0.10 -0.65 0.60 -0.65 1 0 0.45 0.30 0.65 0.75 0.45 0.50 -0.20 0.75 0.05 0.75 0.70 0 0.80 -0.35 1 -1.75 1 -1.65 0 -1.75 -0.10 -1.75 -1.75z"/>
  <path d="M54.85 36.05 c-0.20 -0.85 -0.90 -0.95 -8.10 -1.10 -5.75 -0.15 -8 -0.40 -8.15 -0.85 -0.10 -0.30 -0.55 -0.60 -0.95 -0.60 -0.60 0 -0.70 -0.35 -0.45 -1.35 0.15 -0.80 0.40 -2.05 0.45 -2.85 0.20 -1.70 2.10 -3.25 3.95 -3.30 0.70 0 1.65 -0.15 2.10 -0.30 0.50 -0.20 0.80 -0.05 0.80 0.45 0 0.65 0.30 0.70 2.65 0.05 3.65 -0.95 12.45 -0.95 14.40 0.10 2.05 1.05 6.45 1.55 6.45 0.70 0 -0.45 0.70 -0.55 2.85 -0.25 4.30 0.55 7.15 2.55 7.15 5.15 0 2.15 -1.95 3.60 -4.95 3.60 -1.25 0.05 -3.65 0.35 -5.30 0.75 -1.65 0.40 -5.15 0.75 -7.80 0.75 -4.30 0 -4.85 -0.10 -5.10 -0.95z"/>
  <path d="M86 29.80 c0 -1.30 0.20 -1.80 0.75 -1.80 0.45 0 0.90 -0.40 1.10 -0.85 1.10 -3.05 2.60 -3.90 14.30 -8.25 0.75 -0.30 1.35 -0.85 1.35 -1.20 0 -0.40 0.60 -0.80 1.40 -1 0.75 -0.15 1.90 -0.50 2.60 -0.70 1.20 -0.40 1.20 -0.40 0.15 -0.45 -1.90 -0.10 -1.35 -1.45 0.75 -1.85 1 -0.20 2.20 -0.60 2.60 -0.95 0.40 -0.35 1.45 -0.75 2.25 -0.95 0.85 -0.20 2.40 -0.55 3.50 -0.80 2.70 -0.60 7.75 -0.60 7.75 0 0 0.30 1 0.50 2.20 0.50 1.25 0 2.40 -0.20 2.55 -0.50 0.50 -0.85 3.75 -0.60 3.75 0.25 0 0.40 -0.35 0.75 -0.75 0.75 -0.75 0 -2 2.40 -1.50 2.90 0.15 0.15 0.25 0 0.25 -0.30 0 -0.35 0.20 -0.60 0.45 -0.60 0.30 0 0.30 0.55 0.05 1.40 -0.65 2.10 -1.70 4.10 -2.20 4.10 -0.20 0 -0.90 0.60 -1.45 1.35 -0.55 0.70 -2.65 2.05 -4.55 2.90 -5.55 2.55 -16.95 5.75 -20.45 5.75 -0.90 0 -2.45 0.35 -3.35 0.80 -1.15 0.60 -3.50 0.90 -7.60 1.10 l-5.90 0.25 0 -1.85z"/>
 </g>
 <g fill="#f0cc96">
  <path d="M41.35 116.65 c-0.85 -0.30 -2.10 -0.60 -2.70 -0.60 -2.65 -0.10 -6.20 -1.20 -7.35 -2.30 -1 -0.90 -1.30 -1.70 -1.30 -3.20 0 -1.10 0.15 -2.30 0.30 -2.75 0.45 -1.15 3.60 -1 5.60 0.20 l1.60 1 0 -1.20 c0 -1.15 -0.25 -1.25 -3.30 -1.55 -2.25 -0.25 -3.70 -0.70 -4.50 -1.45 -2.30 -1.95 -2.90 -8.25 -1.20 -12.70 0.55 -1.40 1.45 -3.80 2 -5.20 0.55 -1.45 1 -2.70 1 -2.75 0 -0.10 0.55 -0.15 1.20 -0.15 0.90 0 1.35 -0.40 1.75 -1.55 0.30 -0.85 1.55 -3.10 2.85 -5 1.65 -2.50 2.55 -3.45 3.35 -3.45 0.65 0 1.50 -0.60 2.10 -1.50 0.55 -0.80 1.55 -1.75 2.25 -2.10 0.70 -0.35 2.05 -1.25 3 -1.95 0.95 -0.70 3.10 -1.85 4.75 -2.45 1.65 -0.65 3.20 -1.35 3.45 -1.60 0.30 -0.20 1 -0.40 1.60 -0.40 0.65 0 1.30 -0.25 1.45 -0.50 0.20 -0.30 1.45 -1.10 2.80 -1.75 2.10 -1.10 2.45 -1.45 2.45 -2.75 0 -1 0.25 -1.50 0.75 -1.50 0.45 0 1.45 -0.45 2.20 -1.05 1.25 -0.90 1.85 -1 4.50 -0.70 2.55 0.30 3.05 0.50 3.05 1.30 0 0.60 0.35 0.95 1 0.95 0.80 0 1 0.35 1 1.55 0 1.45 -1.35 4.50 -2.10 4.85 -0.25 0.10 -0.40 0.50 -0.40 0.90 0 0.40 -0.35 0.70 -0.75 0.70 -0.40 0 -0.75 0.35 -0.75 0.75 0 0.50 -0.50 0.75 -1.70 0.75 -1.40 0 -1.75 -0.20 -1.90 -1.10 -0.15 -0.90 -0.70 -0.25 -2.85 3.25 -1.50 2.40 -2.90 4.35 -3.15 4.35 -0.20 0 -0.40 0.35 -0.40 0.75 0 0.40 -0.75 1.90 -1.70 3.35 -0.90 1.45 -2.10 3.90 -2.60 5.40 -0.80 2.30 -1.20 2.80 -2.25 2.90 -1.50 0.20 -2.05 1.20 -3.20 5.70 -0.45 1.75 -0.95 3.50 -1.10 3.90 -0.15 0.40 -0.25 1.55 -0.15 2.50 0.05 0.95 -0.05 4.15 -0.25 7.10 l-0.35 5.40 -1.35 0.05 c-1.05 0 -0.95 0.15 0.70 0.65 1.95 0.55 2 0.60 2.15 3.15 l0.15 2.60 -5.05 -0.10 c-2.75 -0.05 -5.75 -0.35 -6.65 -0.70z m20.55 -43.80 c0.10 -0.60 -0.05 -0.75 -0.60 -0.55 -1.10 0.40 -1.50 1.80 -0.45 1.60 0.50 -0.10 0.95 -0.55 1.05 -1.05z"/>
  <path d="M72.50 112.75 c0 -1.65 0.10 -1.75 1.75 -1.75 1.65 0 1.75 0.10 1.75 1.75 0 1.65 -0.10 1.75 -1.75 1.75 -1.65 0 -1.75 -0.10 -1.75 -1.75z"/>
  <path d="M79 113.05 c0 -1.45 0.70 -2.05 2.55 -2.05 0.75 0 0.95 0.35 0.95 1.75 0 1.65 -0.10 1.75 -1.75 1.75 -1.60 0 -1.75 -0.15 -1.75 -1.45z"/>
  <path d="M52.50 107.75 l0 -1.75 3 0 c1.65 0 3 0.10 3 0.20 0 0.80 -1.85 1.80 -3.35 1.80 -1.35 0 -1.70 0.15 -1.45 0.75 0.15 0.45 0 0.75 -0.45 0.75 -0.50 0 -0.75 -0.55 -0.75 -1.75z"/>
  <path d="M73.50 104.75 c0 -1.85 1.20 -2.50 1.60 -0.85 0.30 1.35 -0.10 2.60 -0.90 2.60 -0.45 0 -0.70 -0.55 -0.70 -1.75z"/>
  <path d="M83.15 104.90 c0.95 -2.30 1.85 -2.40 1.85 -0.20 0 1.60 -0.15 1.80 -1.25 1.80 -1.20 0 -1.25 -0.05 -0.60 -1.60z"/>
  <path d="M103 99.75 c0 -1.65 0.10 -1.75 1.75 -1.75 1.65 0 1.75 0.10 1.75 1.75 0 1.90 -0.65 2.30 -1.45 0.90 -0.50 -0.85 -0.50 -0.85 -0.55 0 0 0.45 -0.35 0.85 -0.75 0.85 -0.50 0 -0.75 -0.55 -0.75 -1.75z"/>
  <path d="M72.50 92.75 c0 -1.40 0.20 -1.75 1 -1.75 1.05 0 1.20 0.50 0.70 2.40 -0.50 1.80 -1.70 1.35 -1.70 -0.65z"/>
  <path d="M86 88.90 c0 -1.50 0.65 -2.90 1.30 -2.90 0.45 0 0.70 0.60 0.70 1.75 0 1.40 -0.20 1.75 -1 1.75 -0.55 0 -1 -0.30 -1 -0.60z"/>
  <path d="M73 82.75 c0 -1.40 0.20 -1.75 1 -1.75 1.05 0 1.20 0.50 0.70 2.40 -0.50 1.80 -1.70 1.35 -1.70 -0.65z"/>
  <path d="M73.50 77.75 c0 -1.40 0.20 -1.75 1 -1.75 1.05 0 1.20 0.50 0.70 2.40 -0.50 1.80 -1.70 1.35 -1.70 -0.65z"/>
  <path d="M87.30 72.15 c-0.95 -4.90 -0.95 -5.15 0.10 -5.15 0.75 0 1.05 0.45 1.30 2.30 0.15 1.30 0.30 2.75 0.30 3.25 0 1.45 -1.40 1.10 -1.70 -0.40z"/>
  <path d="M69 69.55 c0 -1.45 0.15 -1.55 1.80 -1.55 1.95 0 1.90 0.45 -0.30 2 l-1.50 1.05 0 -1.50z"/>
  <path d="M76.15 66.40 c0.20 -1.45 0.55 -2.70 0.85 -2.80 0.25 -0.10 0.50 -0.95 0.50 -1.90 0 -1.45 0.15 -1.70 1.20 -1.70 l1.20 0 -1.20 4 c-1.30 4.45 -1.50 5 -2.30 5 -0.35 0 -0.45 -0.90 -0.25 -2.60z"/>
  <path d="M84.50 60.05 c-0.25 -0.55 -0.50 -1.35 -0.50 -1.75 0 -0.45 -0.25 -1.25 -0.60 -1.80 -0.60 -0.90 -0.65 -0.90 -2 0.65 l-1.35 1.60 -0.05 -1.80 c0 -1.95 0.70 -2.45 3.65 -2.45 1.15 0 1.35 0.20 1.35 1.50 0 0.85 0.25 1.50 0.50 1.50 0.30 0 0.50 0.80 0.50 1.75 0 1.95 -0.70 2.30 -1.50 0.80z"/>
  <path d="M87 49.15 l0 -1.85 1 1.10 c0.60 0.60 1.35 1.10 1.75 1.10 0.40 0 0.75 0.35 0.75 0.75 0 0.50 -0.55 0.75 -1.75 0.75 -1.70 0 -1.75 -0.05 -1.75 -1.85z"/>
  <path d="M74.50 48.95 c0 -0.75 0.20 -0.95 0.80 -0.75 0.65 0.25 0.75 0.10 0.55 -0.70 -0.20 -0.80 0 -1 0.95 -1 1.05 0 1.20 0.25 1.20 1.75 0 1.65 -0.10 1.75 -1.75 1.75 -1.45 0 -1.75 -0.20 -1.75 -1.05z"/>
  <path d="M81 38.25 c0 -1.65 0.10 -1.75 1.75 -1.75 1.25 0 1.75 0.20 1.75 0.80 0 0.45 -0.45 0.90 -0.95 1.05 -0.60 0.15 -0.85 0.55 -0.70 0.95 0.15 0.45 -0.10 0.70 -0.80 0.70 -0.85 0 -1.05 -0.30 -1.05 -1.75z"/>
  <path d="M52.90 38.15 c-1.40 -0.35 -1.10 -1.65 0.35 -1.65 1.05 0 1.25 -0.25 1.25 -1.50 0 -1.80 1.45 -2.10 1.85 -0.45 0.30 1.05 0.55 1.05 4.85 0.85 2.75 -0.15 5.80 -0.70 7.70 -1.35 2.40 -0.80 3.35 -0.95 3.85 -0.55 0.75 0.65 2.10 0.10 3.20 -1.20 0.50 -0.60 0.45 -0.85 -0.40 -1.25 -0.55 -0.30 -1.65 -0.55 -2.50 -0.55 -0.80 0 -2.80 -0.35 -4.40 -0.75 -1.60 -0.40 -3.80 -0.80 -4.90 -0.90 -2 -0.20 -5.45 -1.60 -6.60 -2.70 -0.35 -0.30 -0.65 -0.95 -0.65 -1.45 0 -0.65 0.30 -0.75 1.50 -0.50 1.40 0.25 1.95 0.55 3.75 2.20 0.85 0.75 4.10 0.80 4.35 0.05 0.20 -0.60 8.65 1.20 10.90 2.30 1.05 0.55 1.40 0.50 2.75 -0.50 2.45 -1.80 3.25 -1.90 3.25 -0.50 0 1 -0.25 1.25 -1.25 1.25 -0.90 0 -1.25 0.25 -1.25 1 0 0.70 -0.35 1 -1.20 1 -0.95 0 -1.25 0.35 -1.50 1.75 -0.20 0.95 -0.60 1.75 -0.85 1.75 -0.30 0 -0.85 0.35 -1.25 0.75 -0.55 0.50 -1.70 0.70 -3.70 0.65 -1.65 -0.05 -3.15 0.05 -3.35 0.25 -0.15 0.20 0.40 0.35 1.25 0.35 1.90 0 2.20 1.20 0.50 1.70 -1.90 0.50 -2.40 0.35 -2.40 -0.70 0 -0.95 -0.20 -1 -1.85 -0.65 -1.05 0.20 -3.85 0.40 -6.25 0.40 -3.30 -0.05 -4.40 0.10 -4.40 0.60 0 0.65 -0.90 0.75 -2.60 0.30z"/>
  <path d="M45.85 36.80 c-0.15 -0.40 -1.35 -0.75 -3.15 -0.90 -1.85 -0.15 -3.05 -0.55 -3.45 -1.05 -0.35 -0.50 -1 -0.85 -1.45 -0.85 -2.10 0 -0.20 -3.65 3.30 -6.35 3.70 -2.85 6.35 -4.05 6.85 -3.20 0.25 0.40 0.70 0.50 1 0.35 0.30 -0.20 0.55 -0.10 0.55 0.15 0 0.30 0.55 0.55 1.25 0.55 2.30 0 1.40 1.35 -1.35 2 -4.70 1.10 -5.80 1.75 -5.55 3.15 0.25 1.40 -1.05 2.20 -2.15 1.30 -0.35 -0.30 -0.90 -0.40 -1.20 -0.20 -1.05 0.65 -0.45 1.15 1.75 1.50 1.25 0.15 2.15 0.50 2 0.80 -0.20 0.25 0.45 0.45 1.40 0.45 1.70 0 2.35 0.65 2.35 2.30 0 0.90 -1.80 0.90 -2.15 0z"/>
  <path d="M81.50 35.30 c0 -0.35 0.50 -0.80 1.10 -0.95 0.90 -0.25 0.95 -0.40 0.40 -1.05 -0.55 -0.70 -0.45 -0.80 0.70 -0.80 1.15 0 1.30 0.20 1.30 1.75 0 1.65 -0.10 1.75 -1.75 1.75 -1.15 0 -1.75 -0.25 -1.75 -0.70z"/>
  <path d="M87 33.30 c0 -0.70 -0.35 -1.55 -0.75 -2 -0.40 -0.40 -0.75 -1.40 -0.75 -2.25 0 -1.40 0.15 -1.55 1.50 -1.55 1.25 0 1.50 -0.20 1.50 -1.25 0 -1.05 0.25 -1.25 1.55 -1.25 l1.50 0 -1 1.45 c-0.60 0.80 -1.05 1.70 -1.05 2 0 0.35 -0.50 0.80 -1.10 1.05 -0.95 0.35 -0.80 0.45 1 0.45 1.70 0.05 2.10 0.20 2.10 1 0 0.60 -0.55 1.15 -1.50 1.50 -0.85 0.25 -1.65 0.85 -1.80 1.30 -0.45 1.15 -1.20 0.90 -1.20 -0.45z"/>
  <path d="M92 31.50 c0 -1.10 1.65 -2 3.65 -2 0.60 0 1.75 -0.35 2.55 -0.75 2 -1.05 2.90 -0.95 2.70 0.35 -0.20 1.35 -2.85 2.70 -6.25 3.10 -2.45 0.30 -2.65 0.25 -2.65 -0.70z"/>
  <path d="M102.50 29.65 c0 -1.40 0.20 -1.55 3 -2.30 1.65 -0.50 3.40 -0.85 3.95 -0.85 1.30 0 10.65 -3.30 13.50 -4.75 3.15 -1.55 3.95 -2.60 4.55 -5.80 0.30 -1.50 0.75 -2.75 1 -2.85 0.30 -0.10 0.50 -0.85 0.50 -1.60 0 -1.25 0.25 -1.50 1.75 -1.80 0.95 -0.15 2.10 -0.20 2.50 0 1.30 0.50 0.80 1.75 -0.85 2.20 -1.55 0.40 -1.65 0.55 -2 3.40 -0.55 4.25 -0.85 5.20 -1.60 5.20 -0.40 0 -0.80 0.35 -1 0.75 -0.15 0.40 -0.50 0.75 -0.80 0.75 -0.30 0 -0.90 0.35 -1.30 0.75 -0.55 0.50 -0.60 0.75 -0.15 0.75 1 0 -1 1.90 -2.60 2.45 -1.15 0.40 -1.45 0.35 -1.45 -0.25 0 -0.35 -0.20 -0.70 -0.50 -0.70 -0.25 0 -0.50 0.35 -0.50 0.80 0 0.40 -0.20 0.65 -0.45 0.45 -0.25 -0.15 -1.45 0.05 -2.65 0.45 -1.20 0.40 -3.25 0.85 -4.65 1.05 -3.40 0.45 -5.90 1.20 -6.55 2.05 -0.30 0.40 -1.25 0.85 -2.15 1 -1.45 0.30 -1.55 0.25 -1.55 -1.15z"/>
  <path d="M93 23.30 c0 -1 0.65 -1.40 5.50 -3.30 3.20 -1.20 5.50 -2.35 5.50 -2.75 0 -0.40 0.60 -0.80 1.40 -0.90 0.75 -0.10 -0.05 -0.25 -1.75 -0.30 -2.40 -0.05 -3.15 -0.25 -3.15 -0.80 0 -0.75 2.55 -1.45 4.30 -1.20 1.90 0.30 6.70 -0.60 6.40 -1.15 -0.20 -0.30 -0.10 -0.40 0.20 -0.25 0.25 0.20 2.40 -0.05 4.70 -0.60 4.90 -1.10 9.95 -2.05 10.80 -2.05 0.80 0 0.75 1.40 -0.10 2.25 -0.40 0.40 -3.10 1.30 -6.05 2 -2.95 0.75 -7.10 1.85 -9.20 2.50 -2.10 0.60 -4.40 1.30 -5.15 1.45 -0.80 0.20 -1.40 0.65 -1.40 1.05 0 0.40 -0.05 0.75 -0.15 0.75 -0.20 0 -6.45 2.30 -9.20 3.45 l-2.65 1.05 0 -1.20z"/>
 </g>
 <g fill="#000000">
  <path d="M71.75 120.25 c-0.25 -0.10 -3.65 -0.55 -7.45 -1 -6.20 -0.70 -7.05 -0.70 -7.80 0 -1.10 1 -1.95 0.95 -3.20 -0.15 -0.80 -0.75 -2.85 -1.15 -8.90 -1.80 -4.35 -0.50 -8.70 -1.10 -9.75 -1.40 -2.15 -0.55 -5.55 -3.90 -8.80 -8.60 -2 -3 -2 -3 -1.45 -5.60 0.35 -1.80 0.40 -3.20 0.05 -4.45 -0.55 -1.90 -0.30 -2.75 0.80 -2.75 0.75 0 0.85 -0.25 1.65 -5.65 0.70 -4.60 2.85 -8.05 7.85 -12.65 8.50 -7.75 11.55 -9.90 19.25 -13.40 1.50 -0.70 3.10 -1.50 3.50 -1.75 0.40 -0.25 2.20 -1.30 3.95 -2.35 1.75 -1.05 4.80 -3.20 6.70 -4.80 1.90 -1.60 3.90 -2.90 4.45 -2.90 0.75 0 0.85 -0.15 0.40 -0.95 -0.95 -1.80 -0.65 -2.20 1.50 -1.90 l1.95 0.25 -1.20 -2.40 c-0.95 -1.90 -1.10 -2.50 -0.60 -2.90 0.80 -0.70 1.35 -0.30 2.70 1.85 l1.05 1.70 0.85 -1.35 c0.50 -0.75 0.95 -2.30 1 -3.45 0.05 -1.15 0.25 -2.45 0.45 -2.90 0.25 -0.55 -0.15 -1 -1.45 -1.60 -1.70 -0.80 -1.95 -0.80 -4.65 0 -5.10 1.55 -27.80 1.05 -28.45 -0.65 -0.10 -0.35 -1.65 -0.75 -3.70 -0.95 -2.10 -0.20 -3.90 -0.70 -4.55 -1.25 -0.95 -0.75 -1 -1 -0.45 -2.35 0.80 -1.95 3.05 -4.05 6.70 -6.40 2.40 -1.50 3.05 -1.70 3.65 -1.20 0.55 0.45 0.90 0.45 1.30 0.05 1.75 -1.75 17.65 0.75 27.35 4.25 1.70 0.60 2.30 0.65 2.45 0.20 0.10 -0.30 1.80 -1.40 3.75 -2.40 2 -0.95 4.90 -3 6.50 -4.45 6.40 -5.90 10.20 -7.75 16.55 -8.05 2.45 -0.10 5.40 -0.50 6.55 -0.85 3.25 -1.15 14.70 -3.25 18.25 -3.40 2.60 -0.10 3.25 0 3.25 0.60 0 0.40 -0.70 0.95 -1.60 1.20 -1.65 0.50 -1.90 1.20 -2.40 6.70 -0.10 0.90 -0.85 2.45 -1.70 3.50 -1.80 2.35 -6.20 4.80 -7.70 4.40 -0.65 -0.15 -3.85 0.60 -7.85 1.95 -6.40 2.10 -17.65 4.25 -22.30 4.25 -1.40 0 -1.75 0.20 -2 1.40 -0.20 0.75 -0.70 1.75 -1.15 2.30 -1.10 1.25 -3.45 2.40 -4.15 2 -0.40 -0.25 -0.45 -0.05 -0.20 0.60 0.25 0.50 0.65 2.25 0.95 3.80 l0.55 2.90 2 -0.35 c1.95 -0.30 1.95 -0.30 1.65 1.15 -0.35 2.05 0.40 3.20 2.20 3.20 1.10 0 1.60 0.30 1.95 1.25 0.25 0.70 0.85 1.40 1.25 1.55 0.40 0.20 0.75 0.75 0.75 1.30 0 1.35 2.80 4.70 4.55 5.40 0.80 0.35 1.45 0.90 1.45 1.20 0 0.75 7.60 7.65 11 10.05 1.50 1 3.30 2.35 3.95 2.95 2.75 2.50 9.25 11.75 11.90 17 1.60 3.15 1.90 4.30 2.45 9.95 0.55 5.40 0.50 6.65 -0.05 8.05 -0.85 2 -1.10 2.15 -5.80 2.60 -2.10 0.20 -4.75 0.85 -6.20 1.50 -2.20 1.05 -3.25 1.20 -8.55 1.20 -4.75 0 -6.20 0.15 -6.70 0.75 -0.45 0.55 -0.85 0.60 -1.65 0.15 -0.75 -0.40 -3 -0.35 -8.55 0.15 -6.50 0.60 -19.30 0.70 -33.75 0.30 -2.10 -0.05 -3.30 0.10 -3.40 0.50 -0.25 0.70 0.25 0.75 10.95 1.90 6.30 0.65 10.45 0.75 20.25 0.50 18.40 -0.50 29 -1.40 32 -2.75 1.30 -0.60 3.95 -1.65 5.90 -2.30 2 -0.70 4.15 -1.85 5.05 -2.75 1.65 -1.60 2.70 -1.60 2.70 0.05 0 1.30 -2.55 3.30 -5.60 4.25 -1.45 0.50 -4.15 1.55 -6.05 2.35 -4.25 1.80 -8.20 2.30 -23.85 2.90 -6.75 0.25 -14.85 0.60 -18 0.75 -3.15 0.10 -5.95 0.15 -6.25 0z m-20.35 -5.35 c-0.15 -0.95 -0.70 -1.30 -3.65 -1.95 -1.90 -0.45 -5.05 -1.05 -6.90 -1.35 -1.85 -0.30 -4.55 -1.10 -5.95 -1.85 -2.55 -1.35 -3.35 -1.20 -3.40 0.65 0 1 2.40 3 4.15 3.40 1.35 0.30 13.10 1.95 15.25 2.15 0.40 0.05 0.60 -0.40 0.50 -1.05z m37 -2.75 c-1.05 -0.10 -2.75 -0.10 -3.75 0 -1.05 0.10 -0.20 0.20 1.85 0.20 2.05 0 2.90 -0.10 1.90 -0.20z m26.10 -1.15 c1 -0.25 2.25 -0.85 2.75 -1.25 1 -0.70 -0.15 -0.45 -5.75 1.25 l-1.25 0.40 1.25 0.05 c0.70 0.05 2.05 -0.20 3 -0.45z m-14.30 -7.25 c0 -5.85 -0.10 -6.25 -2.65 -14 -1.40 -4.40 -3.50 -10.80 -4.60 -14.25 -1.90 -5.80 -3.40 -9.05 -2.75 -6 1.10 5.55 0.05 24.25 -1.65 29 -1.25 3.55 -3 10.90 -2.65 11.25 0.15 0.15 3.45 0.20 7.30 0.15 l7.05 -0.15 -0.05 -6z m-50.20 4.80 c0 -0.85 -0.55 -0.95 -5.60 -1.15 -3.10 -0.15 -5.70 -0.20 -5.80 -0.15 -0.10 0.10 1.50 0.50 3.50 0.90 3.20 0.70 4.60 0.95 7.30 1.30 0.30 0 0.60 -0.35 0.60 -0.90z m22.30 0.20 c-2.05 -5.45 -2.45 -7.90 -2.15 -14.95 0.25 -6.10 1.50 -16.85 2.10 -17.80 0.10 -0.20 0.40 -1.65 0.70 -3.30 0.25 -1.60 0.65 -3.60 0.85 -4.45 0.35 -1.45 0.30 -1.45 -2.65 1.10 -3.35 2.90 -5.65 6.75 -6.90 11.40 -0.80 3.25 -1.35 4.05 -2.25 3.50 -0.40 -0.25 -0.50 -1.10 -0.35 -2.45 l0.25 -2.05 -1.40 2.75 c-2.40 4.55 -6.50 18.15 -6.50 21.45 0 1.45 0.10 1.55 1.90 1.55 2.15 0 2.65 0.30 2.25 1.30 -0.15 0.45 -1 0.70 -2.15 0.70 -1.95 0 -2.80 0.60 -2.25 1.50 0.20 0.30 3.95 0.50 9.60 0.50 8.10 0 9.20 -0.10 8.95 -0.75z m10.90 -3.95 c1.05 -2.60 1.80 -5.35 1.75 -6.15 -0.10 -0.75 0.10 -2.20 0.45 -3.15 0.50 -1.60 0.95 -9.80 0.60 -11.50 -0.10 -0.40 -0.10 -2.35 -0.10 -4.35 0.10 -2.55 0.35 -3.80 0.90 -4.40 1.05 -1 0.75 -3.75 -1.40 -12 -1.85 -7.20 -2.20 -8.05 -3.15 -7.25 -0.85 0.70 -2.75 4.50 -3.30 6.65 -0.20 0.90 -0.90 3.30 -1.45 5.35 -1.85 6.45 -2.50 10.50 -3 19.50 -0.30 5.75 -0.35 9.75 0 11.75 0.25 1.65 0.50 4.05 0.50 5.35 0 1.30 0.25 2.95 0.60 3.65 0.50 1.10 0.85 1.25 3.15 1.25 l2.60 0 1.85 -4.70z m21.25 3.35 c0.90 -1.95 1.25 -6.15 0.65 -7.65 -0.50 -1.15 -0.55 -1.05 -0.55 1 -0.05 1.25 -0.40 3.50 -0.80 5 -0.90 3.25 -0.85 3 -0.35 3 0.25 0 0.70 -0.60 1.05 -1.35z m11 -0.70 c2.55 -0.80 5.50 -1.45 6.50 -1.45 2.10 0 2.70 -0.35 3.50 -1.85 0.95 -1.80 0.65 -3.65 -1.65 -10 -2.70 -7.60 -5.45 -12 -9.65 -15.30 -1.75 -1.35 -4.50 -4.10 -6.15 -6.10 -3.30 -4.05 -6.60 -6.95 -11.50 -10.25 -1.80 -1.20 -3.85 -2.60 -4.65 -3.10 -1.25 -0.85 -1.20 -0.75 0.55 1.55 2.85 3.80 7.95 13.65 9.80 19 0.95 2.65 2.20 6 2.80 7.50 2 5.15 3.10 18.10 1.75 21.20 -0.35 0.80 -0.15 0.85 1.80 0.55 1.20 -0.20 4.30 -1 6.90 -1.75z m8.45 0.70 c-0.80 -0.10 -2 -0.10 -2.75 0 -0.80 0.10 -0.15 0.20 1.35 0.20 1.50 0 2.15 -0.10 1.40 -0.20z m-73.70 -3.75 c0.50 -1.95 0.35 -5.35 -0.30 -6.40 -0.50 -0.80 -0.50 -1.30 0.20 -2.60 0.50 -0.90 1.20 -3.10 1.65 -4.90 1.15 -4.45 2 -6 3.35 -5.85 0.90 0.10 1.25 -0.35 2.05 -2.60 1.15 -3.25 9.50 -17 10.90 -18 0.55 -0.40 2.05 -2.10 3.30 -3.75 2.10 -2.80 2.15 -2.90 0.60 -1.50 -0.95 0.85 -3.65 2.35 -6.05 3.40 -2.40 1.05 -4.65 2.25 -4.95 2.60 -0.30 0.40 -1.05 0.70 -1.65 0.70 -0.60 0 -1.30 0.20 -1.55 0.40 -0.30 0.25 -1.85 0.95 -3.50 1.60 -1.65 0.60 -3.80 1.75 -4.75 2.45 -0.95 0.70 -2.30 1.60 -3 1.95 -0.70 0.35 -1.70 1.30 -2.25 2.10 -0.60 0.90 -1.45 1.50 -2.10 1.50 -0.75 0 -1.70 0.95 -3.30 3.40 -1.25 1.85 -2.60 4.20 -3 5.20 -0.60 1.40 -1 1.75 -1.75 1.60 -0.70 -0.20 -1.10 0.10 -1.55 1.40 -0.35 0.90 -0.95 2.45 -1.40 3.40 -1.80 4.15 -2.25 6.10 -1.90 8.65 0.40 2.85 2.35 5.30 4.35 5.40 2.30 0.15 13.20 0.80 14.70 0.85 1.25 0.10 1.65 -0.15 1.90 -1z m52.10 -10.70 c-0.50 -6.95 -5.85 -21.95 -9.30 -26.20 -0.90 -1.15 -0.90 -1 0.20 1.75 0.65 1.65 1.90 5.35 2.80 8.25 0.90 2.90 2.60 8.25 3.80 11.90 1.20 3.65 2.20 7.05 2.20 7.60 0 0.55 0.15 1 0.30 1 0.20 0 0.20 -1.95 0 -4.30z m-28.30 -31.25 c1.60 -2.95 0.55 -2.05 -1.45 1.15 -1 1.55 -1.25 2.30 -0.70 1.80 0.50 -0.50 1.50 -1.80 2.15 -2.95z m-4.70 -4.50 c0.20 -0.35 0.15 -0.50 -0.10 -0.40 -0.25 0.15 -1.05 0.55 -1.80 0.95 -0.80 0.35 -1.40 0.85 -1.40 1.10 0 0.55 2.80 -0.90 3.30 -1.65z m-3.45 -22.95 c2.30 -0.55 4.60 -1.25 5.15 -1.60 0.90 -0.55 1.15 -0.50 1.55 0.25 0.40 0.65 0.70 0.75 1.45 0.35 1.20 -0.65 2.50 -1.95 2.50 -2.50 0 -0.50 -3.45 -1.60 -4 -1.25 -0.20 0.15 -1.45 -0.10 -2.80 -0.45 -1.35 -0.40 -3.80 -0.90 -5.45 -1.10 -1.65 -0.20 -3.45 -0.65 -4 -1 -1.15 -0.85 -8.35 -0.95 -11.75 -0.20 -4.15 0.95 -5 1.45 -5 3.10 0 1.40 -0.05 1.45 -1.80 1.10 -1.60 -0.30 -1.80 -0.20 -1.60 0.60 0.15 0.85 0.85 0.95 8.15 1.20 6.65 0.20 8 0.40 8 1 0 0.75 1.70 1.30 4.25 1.45 0.70 0 3.10 -0.40 5.35 -0.95z m17.65 -1 c0 -0.55 -2 -1.70 -2.35 -1.30 -0.15 0.15 -0.15 0.60 0 1.05 0.35 0.80 2.35 1.05 2.35 0.25z m11.25 -4.25 c1.65 -0.20 3.45 -0.65 4.05 -1 0.55 -0.35 2.25 -0.75 3.75 -0.85 4.75 -0.40 14.45 -3.15 19.80 -5.70 4 -1.90 4.80 -2.95 5.40 -6.85 l0.35 -2.35 -1.50 0 c-1.60 0 -13.30 2.90 -17.05 4.20 -1.20 0.45 -2.55 0.80 -3.05 0.80 -0.50 0 -1.20 0.45 -1.55 0.95 -0.40 0.55 -3.05 1.90 -5.95 3 -6.70 2.60 -8.40 3.65 -9.30 5.85 -0.60 1.50 -0.90 1.70 -1.85 1.40 -1 -0.30 -1 -0.25 -0.40 0.50 0.55 0.65 1.20 0.80 2.50 0.60 1 -0.15 3.15 -0.40 4.80 -0.55z"/>
 </g>
</svg>