<?xml version="1.0" encoding="utf-8"?>
<!DOCTYPE svg PUBLIC "-//W3C//DTD SVG 1.0//EN" "http://www.w3.org/TR/2001/REC-SVG-20010904/DTD/svg10.dtd">
<svg version="1.0" xmlns="http://www.w3.org/2000/svg" width="803px" height="690px" viewBox="0 0 803 690" preserveAspectRatio="xMidYMid meet">
 <g fill="#f6bdb2">
  <path d="M341 572.30 c0 -0.35 0.50 -0.85 1.15 -1.05 1.60 -0.55 -4.70 -1.40 -10.50 -1.45 -2.55 -0.05 -4.65 -0.20 -4.65 -0.40 0 -0.55 -2.40 -0.50 -2.70 0.05 -0.15 0.25 0.60 0.55 1.70 0.75 1.40 0.20 2 0.55 2 1.10 0 0.70 -0.40 0.80 -2.60 0.50 -2.75 -0.30 -11.25 -2.25 -19.40 -4.45 -6 -1.60 -10.55 -2.55 -21.40 -4.40 -5.90 -1 -10.05 -2 -13 -3.15 -4.40 -1.70 -11.75 -4.05 -20.80 -6.65 l-5 -1.40 -1.60 -2.75 c-0.90 -1.50 -1.65 -3.45 -1.70 -4.35 0 -1.35 1.55 -8.85 3.65 -17.40 0.55 -2.40 0.70 -2.50 2.40 -2.65 1.75 -0.15 3 0.25 9.95 3.20 1.80 0.75 5.30 1.85 7.75 2.50 2.50 0.60 6.10 1.60 8 2.15 5.20 1.60 11.20 2.90 19 4.10 6.35 0.95 9.75 1.10 35.50 1.40 15.70 0.15 42.25 0.15 59 -0.05 31.50 -0.40 36.90 -0.70 50.15 -2.95 3.20 -0.55 7.20 -1.20 8.85 -1.45 1.65 -0.25 5.05 -0.90 7.50 -1.45 7.20 -1.55 11.30 -2 23 -2.55 13.15 -0.60 21.60 -1.85 28.95 -4.25 3 -0.95 6.15 -1.75 7 -1.75 0.85 0 3.30 -0.35 5.40 -0.75 2.10 -0.40 5.70 -0.85 8 -1.05 2.30 -0.15 5.85 -0.65 7.90 -1.10 2.05 -0.45 4.75 -0.80 5.95 -0.80 l2.20 -0.05 1.85 4.60 c1.05 2.50 2.60 5.85 3.45 7.45 0.85 1.60 1.55 3.60 1.55 4.55 0 1.40 -0.25 1.75 -1.70 2.35 -0.90 0.40 -1.85 0.95 -2 1.25 -1.40 2.25 -28.90 12.90 -41.30 16.05 -11.50 2.90 -22.40 6.40 -28.75 9.30 -11.70 5.30 -13.25 5.65 -29.75 6.25 -7 0.25 -18.80 0.65 -26.25 0.95 -7.40 0.25 -28.20 0.45 -46.10 0.50 -27.50 0 -32.65 -0.10 -32.65 -0.70z"/>
  <path d="M483.85 571.65 c-0.20 -0.15 -0.35 -1.05 -0.35 -1.90 0 -1.95 0.05 -2 10.75 -5 1.65 -0.45 4 -1.10 5.25 -1.50 1.25 -0.35 3.90 -1 5.90 -1.50 2 -0.45 3.75 -1.05 3.90 -1.30 0.15 -0.25 0.70 -0.45 1.20 -0.45 0.55 0 3.70 -0.90 7 -2 5.90 -1.95 9 -2.50 9 -1.50 0 0.25 -0.50 0.75 -1.10 1.05 -0.65 0.35 -1.40 0.90 -1.75 1.25 -0.90 0.85 -17.60 6.30 -21.65 7.05 -0.70 0.10 -3 0.65 -5.15 1.20 -2.15 0.55 -4.40 0.85 -4.95 0.65 -0.70 -0.20 -0.90 -0.10 -0.70 0.25 0.20 0.30 0.10 0.55 -0.15 0.55 -0.30 0 -0.55 0.35 -0.55 0.75 0 0.40 0.35 0.75 0.75 0.75 0.40 0 0.75 0.45 0.75 1 0 0.90 -0.35 1 -3.90 1 -2.15 0 -4.10 -0.15 -4.25 -0.35z"/>
  <path d="M232.75 539 c-0.50 -0.55 -1.20 -1 -1.60 -1 -0.35 0 -0.65 -0.45 -0.65 -1 0 -0.55 0.35 -1 0.75 -1 0.85 0 1.05 -1.75 0.25 -2.25 -0.25 -0.15 -0.50 -0.05 -0.50 0.20 0 0.30 -0.20 0.55 -0.50 0.55 -0.65 0 -0.65 -2.25 0 -3.40 0.25 -0.45 0.95 -1.95 1.60 -3.35 1.80 -3.85 2.10 -4.25 3 -4.25 0.60 0 0.80 0.25 0.55 0.90 -0.25 0.70 -0.15 0.75 0.40 0.25 0.35 -0.35 1.05 -0.65 1.50 -0.65 0.50 0 1.05 -0.45 1.20 -1 0.50 -1.55 1.75 -1.25 1.75 0.40 0 0.80 -0.65 4.80 -1.50 8.85 -0.80 4.05 -1.50 7.50 -1.50 7.60 0 0.05 -0.85 0.15 -1.90 0.15 -1.30 0 -2.25 -0.35 -2.85 -1z"/>
 </g>
 <g fill="#7b7a75">
  <path d="M350.35 638.65 c-0.20 -0.15 -0.35 -1.05 -0.35 -1.90 l0 -1.65 3.75 -0.55 c5.20 -0.75 6.75 -0.70 6.75 0.20 0 0.65 -0.90 1 -2.10 0.80 -0.90 -0.15 -0.30 1.55 0.60 1.80 0.55 0.15 1 0.60 1 0.95 0 0.55 -1.05 0.70 -4.65 0.70 -2.60 0 -4.85 -0.15 -5 -0.35z"/>
  <path d="M560.90 638.65 c-1.45 -0.35 -1 -1.50 0.65 -1.85 2.85 -0.55 4.95 -0.35 4.95 0.45 0 0.40 -0.35 0.75 -0.75 0.75 -0.40 0 -0.75 0.25 -0.75 0.50 0 0.50 -2.45 0.60 -4.10 0.15z"/>
  <path d="M469.50 636.25 c0 -0.40 0.70 -0.85 1.75 -1.05 1.70 -0.30 2.50 -1.70 1 -1.70 -0.40 0 -0.75 -0.30 -0.75 -0.70 0 -0.85 11.55 -1.30 24.90 -0.90 l9.60 0.25 0 1.60 0 1.65 -6.85 0.30 c-3.80 0.15 -10.70 0.55 -15.40 0.80 -11.85 0.70 -14.25 0.65 -14.25 -0.25z"/>
  <path d="M590 636.55 c0 -0.25 -0.55 -0.40 -1.25 -0.25 -0.95 0.15 -1.25 0 -1.25 -0.70 0 -0.75 0.50 -1.05 1.90 -1.30 3 -0.50 4.10 -0.35 4.10 0.45 0 0.40 -0.30 0.75 -0.70 0.75 -0.35 0 -0.95 0.35 -1.30 0.75 -0.70 0.85 -1.50 1 -1.50 0.30z"/>
  <path d="M255.30 634.20 c-0.15 -0.45 -0.30 -1.40 -0.30 -2.20 0 -1.35 0.15 -1.45 2.65 -1.70 1.40 -0.15 5.25 -0.40 8.50 -0.55 4.90 -0.25 5.85 -0.15 5.85 0.45 0 0.40 -0.80 0.90 -1.85 1.15 -2.60 0.60 -2.90 2.15 -0.45 1.95 1.45 -0.15 1.80 0 1.80 0.75 0 0.90 -0.55 0.95 -7.95 0.95 -6.80 0 -8 -0.10 -8.25 -0.80z"/>
  <path d="M297 633.25 c0 -0.65 0.65 -0.90 2.25 -0.90 0.30 0 0.55 -0.40 0.55 -0.90 0 -0.50 -0.35 -0.90 -0.80 -0.85 -1.70 0.15 -2.50 -0.15 -2.50 -0.85 0 -0.65 1.20 -0.75 7.75 -0.75 l7.75 0 0 1.65 0 1.60 -4.20 0.90 c-5.40 1.10 -10.80 1.15 -10.80 0.10z"/>
  <path d="M615 629.75 c0 -1.10 0.25 -1.20 3.75 -1.50 2.10 -0.20 3.90 -0.25 4.05 -0.10 0.15 0.15 -0.20 0.75 -0.85 1.40 -0.80 0.80 -1.80 1.10 -4 1.25 -2.80 0.10 -2.95 0.05 -2.95 -1.05z"/>
  <path d="M552.50 626.10 c0 -1.45 0.25 -2.10 0.90 -2.35 1.40 -0.55 26.15 -1.40 29.25 -1.05 2.85 0.35 2.85 0.40 2.85 2.05 0 1.55 -0.15 1.75 -1.60 1.95 -4.65 0.75 -7.15 0.90 -18.75 1.10 l-12.65 0.30 0 -2z"/>
  <path d="M210.50 626.25 c0 -0.65 2.05 -1.30 4.75 -1.50 2.80 -0.20 3.25 -0.30 3.25 -0.70 0 -0.20 -2.30 -0.55 -5.10 -0.75 -2.85 -0.20 -8.05 -0.60 -11.65 -0.85 -6.50 -0.50 -50.80 -1.45 -51.25 -1.10 -0.45 0.35 1.15 1.05 3.05 1.35 1.25 0.20 1.95 0.60 1.95 1.05 0 1.05 -2.65 0.95 -6.55 -0.20 -6.75 -2 -13.10 -3.65 -24.45 -6.30 -20.75 -4.90 -23.75 -6 -28 -10.05 -3.90 -3.75 -9.55 -8.20 -10.45 -8.20 -0.30 0 -0.55 -0.20 -0.55 -0.45 0 -0.55 -9.55 -5.45 -15.15 -7.75 -7.40 -3.05 -6.60 -1.90 -11.40 -16.40 -3.20 -9.55 -3.65 -12.95 -2.20 -16.20 0.40 -0.95 1.10 -2.45 1.45 -3.35 0.40 -0.90 4.15 -8.55 8.25 -17 l7.55 -15.35 1.85 0 c1.45 0 2.10 0.35 3.15 1.55 1.55 1.90 2.85 1.70 4.20 -0.60 0.80 -1.35 0.90 -2.20 0.60 -5.70 -0.40 -4.60 -0.05 -6.75 1 -6.75 0.40 0 0.70 -0.35 0.70 -0.75 0 -0.40 0.45 -0.75 1 -0.75 0.55 0 1 -0.35 1 -0.75 0 -0.40 0.35 -0.75 0.75 -0.75 0.40 0 0.75 -0.15 0.75 -0.40 0 -0.20 1 -0.80 2.25 -1.35 1.25 -0.55 2.25 -1.30 2.25 -1.60 0 -0.35 0.60 -0.75 1.35 -0.95 0.80 -0.20 1.65 -0.55 1.90 -0.90 1.70 -1.90 17.45 -8.65 31.25 -13.40 26.75 -9.20 48.60 -15.15 73.50 -19.95 5.90 -1.15 12.05 -2.50 13.70 -3 3.60 -1.15 5.80 -1.25 5.80 -0.20 0 0.40 -0.30 0.75 -0.70 0.75 -0.40 0 -0.65 0.40 -0.60 0.85 0.10 0.70 0.70 0.90 2.65 1 4.30 0.20 7.75 1.85 11.10 5.25 1.65 1.65 3.15 3.45 3.30 3.95 0.45 1.35 1.75 1.20 1.75 -0.15 0 -1.95 0.60 -3.40 1.30 -3.40 0.90 0 0.90 3.05 0 9.75 -0.70 5.55 -1.70 7.95 -5.10 12.25 -4.05 5.20 -6.80 7.50 -15.55 13 -3.40 2.15 -4 3.55 -2.25 5.15 1.15 1.05 2.45 1 4.20 -0.05 0.70 -0.45 2.40 -1.50 3.75 -2.30 2.80 -1.75 11.65 -9.20 11.65 -9.85 0 -0.25 0.70 -0.45 1.50 -0.45 1.55 0 1.85 0.45 1 1.30 -0.35 0.35 -0.35 1.35 -0.05 2.90 0.25 1.35 0.30 3.30 0.20 4.35 -0.20 1.25 -0.10 1.95 0.30 1.95 0.30 0 0.60 -0.85 0.60 -1.85 0.05 -1.05 0.15 -2.35 0.20 -2.90 0.10 -0.55 0.25 -1.95 0.40 -3.10 0.20 -1.35 0.10 -2.15 -0.30 -2.35 -0.35 -0.10 0 -0.25 0.80 -0.25 1.25 -0.05 1.35 0.10 1.35 2.10 0 1.15 -0.25 4.05 -0.50 6.35 -0.45 3.60 -0.75 4.40 -1.75 5.15 -1.50 1.15 -1.60 2.55 -0.25 3.70 1.55 1.35 1.15 5.65 -0.50 5.65 -0.70 0 -0.80 -0.35 -0.70 -1.70 0.15 -1 -0.05 -1.90 -0.50 -2.25 -0.80 -0.70 -1.30 -0.15 -2.30 2.45 -0.35 0.95 -1.85 4.15 -3.30 7.10 l-2.60 5.30 1.70 0.35 c1.95 0.35 2.35 1.75 0.50 1.75 -1.50 0 -4.35 1.95 -4.85 3.30 -0.20 0.65 -0.10 1.60 0.35 2.45 0.95 1.85 0.90 3.15 -0.10 3.05 -0.50 0 -1.60 1 -2.60 2.35 l-1.75 2.40 1.15 1.20 c1.10 1.20 3.40 1.80 2.75 0.75 -0.30 -0.50 0.75 -2.50 1.35 -2.50 0.65 0 1.50 5.70 1.20 8.20 -0.30 2.35 -0.20 2.70 1.10 4.20 0.80 0.85 1.70 1.60 2 1.60 0.30 0 1.20 -0.80 1.95 -1.75 1.95 -2.40 4 -2.40 6.50 0 1 0.95 3.25 2.55 5.10 3.55 6.80 3.80 14.90 7.90 17.30 8.80 12.85 4.90 23.80 7.35 37.55 8.35 5.50 0.45 7.70 0.80 10.25 1.85 4.75 1.90 8.55 3.10 14.95 4.70 12.20 3.05 19.25 3.50 56 3.50 43.75 -0.05 53.55 -0.80 77.50 -5.95 3.70 -0.80 8.35 -1.75 10.25 -2.05 1.95 -0.30 3.95 -0.75 4.50 -0.95 2.15 -0.90 27.95 -6.25 39.50 -8.30 7.15 -1.25 16.05 -3.20 19.25 -4.25 4.15 -1.35 19.80 -6.30 23.75 -7.50 1.95 -0.60 5.20 -1.90 7.25 -2.90 4.15 -2.05 6.50 -4.60 7.60 -8.15 0.55 -1.95 0.50 -2.10 -0.65 -3 -0.65 -0.55 -1.75 -1.10 -2.45 -1.25 -0.80 -0.20 -1.95 -1.35 -3.10 -3.05 -2.10 -3 -2.50 -5.75 -1.15 -7.80 0.65 -1 0.60 -1.25 -0.45 -2.55 -1.05 -1.35 -1.35 -1.45 -4.25 -1.35 -2.10 0.05 -3.50 -0.15 -4.25 -0.65 -1.60 -1.05 -2.80 -3.80 -2.80 -6.50 0 -2.05 0.10 -2.30 1.15 -2.30 2 0 3.30 -0.60 4.10 -1.80 1 -1.55 0.60 -2.25 -2.50 -4.60 -1.45 -1.10 -3 -3 -3.95 -4.65 -0.85 -1.60 -2.80 -5.05 -4.35 -7.75 -3.70 -6.45 -4.05 -7.75 -3.90 -13.40 0.15 -5.55 -0.50 -7.05 -3.30 -7.60 -1 -0.15 -2 -0.70 -2.25 -1.20 -0.85 -1.55 -4 -18 -4 -20.80 l0 -2.75 28.65 0.15 c27.30 0.15 28.70 0.20 30.75 1.15 1.15 0.55 2.10 1.25 2.10 1.55 0 0.90 4.85 5.20 5.90 5.20 0.50 0 1.35 -0.45 1.85 -1 1.30 -1.40 4.35 -1.30 14.25 0.50 4.55 0.85 11.30 1.75 15 2.05 8.85 0.70 12.15 1.40 19.30 4.20 3.30 1.30 10 3.35 14.95 4.60 10.50 2.60 12.70 3.70 17.35 8.55 3 3.10 3.45 3.80 4.60 7.65 2.55 8.40 3.80 15.65 4.75 27.45 0.30 3.70 0.80 9.80 1.10 13.50 0.30 3.70 0.65 9.55 0.80 13 0.25 6.15 0.25 6.35 -1.50 11.50 -0.95 2.90 -2.65 7.75 -3.80 10.75 -1.10 3.05 -2.05 6 -2.05 6.60 0 0.60 -0.35 1.40 -0.75 1.85 -0.40 0.40 -0.75 1.05 -0.75 1.45 0 1.10 -5.90 6.40 -10.50 9.45 -7.95 5.20 -11.80 6.75 -27 10.95 -3.15 0.85 -9.75 3 -14.65 4.75 -13.45 4.80 -24.45 7.45 -36.60 8.65 -2.75 0.30 -6.10 0.65 -7.50 0.80 -3.80 0.45 -35.75 1.20 -71.25 1.70 -17.45 0.20 -32.55 0.55 -33.50 0.70 -0.95 0.20 -4.35 0.55 -7.50 0.85 -3.15 0.30 -9.80 1 -14.75 1.50 -16.20 1.70 -24.25 2.05 -42 1.95 l-17.50 -0.15 -10 1.60 c-15.50 2.45 -20.25 2.75 -33.75 2.15 -6.45 -0.30 -14 -0.80 -16.75 -1.05 -2.75 -0.25 -9.70 -0.95 -15.45 -1.55 -9.65 -0.95 -12.60 -1 -36.25 -0.75 -14.20 0.15 -29.75 0.45 -34.55 0.75 -4.80 0.25 -14.05 0.75 -20.50 1 -6.45 0.30 -13.90 0.85 -16.50 1.30 -6.25 0.95 -9.50 1 -9.50 0z m259.50 -36.80 c0 -0.35 0.75 -0.45 2.20 -0.25 2.50 0.35 4.65 -0.85 3.85 -2.15 -0.40 -0.60 -0.55 -0.60 -1.25 0.05 -0.50 0.55 -1.75 0.80 -3.60 0.85 -2.90 0 -4.10 0.55 -3.50 1.50 0.45 0.70 2.30 0.70 2.30 0z m214.60 -9.85 c2.05 -3.60 1.50 -4.20 -1.05 -1.15 -1.35 1.60 -2.05 2.85 -1.85 3.35 0.50 1.25 1.35 0.60 2.90 -2.20z m-595.50 -67.15 c3.90 -2.25 13.35 -9.10 13.65 -9.85 0.20 -0.50 0 -0.50 -0.90 0 -0.60 0.35 -1.35 0.65 -1.70 0.65 -0.35 0 -1 0.45 -1.40 1 -0.45 0.55 -0.65 0.70 -0.50 0.35 0.50 -0.90 -1.30 0 -2.20 1.10 -0.40 0.45 -0.85 0.65 -1.10 0.50 -0.25 -0.15 -1.05 0.40 -1.80 1.15 -0.70 0.75 -1.15 1.05 -0.95 0.65 0.25 -0.45 0.10 -0.40 -0.35 0.15 -0.40 0.45 -0.95 0.85 -1.25 0.85 -0.25 0 -0.65 0.35 -0.80 0.80 -0.15 0.40 -0.50 0.65 -0.75 0.50 -0.20 -0.15 -1.05 0.30 -1.85 0.95 -0.80 0.70 -1.25 1.25 -1 1.25 0.25 0 0.15 0.35 -0.20 0.75 -1 1.20 0.20 0.90 3.10 -0.80z"/>
  <path d="M622.40 620.65 c-1.20 -0.20 -1.40 -0.45 -1.40 -1.90 0 -1.65 0.15 -1.75 2.60 -2.50 1.40 -0.40 3.35 -0.75 4.25 -0.75 2.30 0 2.15 1.25 -0.20 1.95 -1.80 0.50 -1.70 0.50 1.25 0.40 2.90 -0.15 3.10 -0.10 3.10 0.95 0 0.65 -0.40 1.25 -0.85 1.40 -1.45 0.40 -7.30 0.70 -8.75 0.45z"/>
  <path d="M73.95 614.25 c-5 -1.15 -7.95 -2.20 -7.95 -2.85 0 -0.25 -0.35 -0.40 -0.75 -0.40 -0.40 0 -0.75 -0.15 -0.75 -0.40 0 -0.20 -0.70 -0.65 -1.55 -1.05 -2.20 -0.95 -7.90 -6.90 -9 -9.35 -1.65 -3.60 -2.45 -7.80 -2.45 -12.50 0 -5.70 0.15 -6.20 2.20 -6.20 1.55 0 1.65 0.15 3.25 4.05 2.20 5.35 4.20 7.25 10.45 9.95 8.55 3.75 17.80 8.55 19.10 10 0.15 0.15 1.70 1.50 3.50 3 4.55 3.85 4.50 3.80 4.50 5.15 l0 1.20 -2 -0.95 c-1.10 -0.55 -3.60 -1.20 -5.60 -1.45 -5.30 -0.65 -14.25 -2.35 -17.10 -3.20 -1.35 -0.40 -2.95 -0.75 -3.50 -0.75 -0.95 0 -0.90 0.10 0.35 0.95 1.25 0.80 2.75 1.35 8.70 3.10 0.90 0.30 2.10 0.60 2.75 0.70 3.25 0.65 3.90 0.90 3.90 1.55 0 0.95 -2.20 0.85 -8.05 -0.55z"/>
  <path d="M360.90 587.65 c-0.65 -0.15 -0.90 -0.70 -0.90 -1.90 l0 -1.65 5.40 -0.30 c2.95 -0.20 7.10 -0.45 9.25 -0.60 3.25 -0.25 3.85 -0.15 3.85 0.50 0 0.55 -0.65 0.90 -2 1.10 -2.15 0.35 -2.75 1.20 -0.85 1.20 1.90 0 3.35 0.60 3.35 1.30 0 0.55 -1.60 0.70 -8.60 0.65 -4.75 -0.05 -9.05 -0.15 -9.50 -0.30z"/>
  <path d="M443.50 584.30 c0 -0.75 0.85 -1.05 2.40 -0.85 0.30 0.05 0.60 -0.15 0.60 -0.45 0 -0.30 0.20 -0.40 0.50 -0.25 0.25 0.15 0.35 0 0.20 -0.40 -0.15 -0.40 -0.65 -0.70 -1.10 -0.70 -2 0 -2.60 -0.20 -2.60 -0.80 0 -0.55 1.30 -0.80 5 -1 2.75 -0.15 5.35 -0.20 5.75 -0.05 0.45 0.20 0.75 0.95 0.75 2 0 1.60 -0.10 1.70 -1.65 1.70 -0.90 0 -1.85 0.20 -2.10 0.45 -0.30 0.25 -2.15 0.60 -4.10 0.80 -3.15 0.30 -3.65 0.25 -3.65 -0.45z"/>
  <path d="M275 573.50 c-0.70 -0.20 -3.15 -1 -5.50 -1.75 -5.05 -1.60 -6 -2.35 -6 -4.60 0 -1.60 0.10 -1.65 1.90 -1.65 2.75 0 9.95 1.85 13.25 3.40 2.60 1.20 2.85 1.50 2.85 2.90 0 1 -0.30 1.70 -0.80 1.90 -1.05 0.40 -4.20 0.30 -5.70 -0.20z"/>
  <path d="M702 571.95 c0 -0.85 0.50 -2.65 1.05 -4 0.95 -2.20 1.25 -2.45 2.70 -2.45 1.85 0 2.25 0.60 2.25 3.45 0 2.60 -1.80 4.55 -4.25 4.55 -1.60 0 -1.75 -0.10 -1.75 -1.55z"/>
  <path d="M549 558.25 c0 -0.95 0.20 -1.75 0.45 -1.75 0.25 0 1.85 -2.05 3.60 -4.50 3.20 -4.55 3.20 -4.55 5.20 -4.40 1.85 0.15 2.10 0.35 3.35 2.65 1.45 2.65 1.80 5.80 0.80 6.60 -1.60 1.25 -8.15 3.15 -10.70 3.15 l-2.70 0 0 -1.75z"/>
  <path d="M308.25 527.70 c-12.05 -1.40 -21.25 -2.80 -33.50 -5.25 -6.85 -1.35 -15.10 -2.90 -18.25 -3.45 -3.15 -0.55 -6.40 -1.15 -7.20 -1.30 l-1.45 -0.30 0.30 -8.35 c0.20 -4.55 0.65 -11.45 1.10 -15.30 0.95 -8.85 1.65 -18.85 2.25 -31 0.25 -5.20 0.80 -13.45 1.30 -18.25 0.45 -4.80 0.95 -14.25 1.15 -21 l0.30 -12.25 1.85 -0.15 c2.15 -0.20 2.30 0.15 2.85 5.60 0.20 2.10 0.70 4.20 1.20 4.95 1.20 1.80 3 1.75 4.30 -0.10 1 -1.35 1 -1.60 0.30 -8.10 -2.40 -22.80 -4.85 -39.40 -8.30 -56.70 -1.10 -5.50 -2.15 -11.75 -2.30 -13.85 -0.30 -3.70 -0.25 -3.90 0.75 -3.90 0.55 0 1.60 -0.70 2.30 -1.55 1.40 -1.65 1.55 -2 0.85 -2.70 -1.50 -1.55 -6.15 -11.60 -8.35 -18 -1.45 -4.10 -5.20 -22.40 -5.20 -25.25 0 -1.35 0.40 -2.40 1.30 -3.45 l1.30 -1.55 -1.85 -4.30 c-3.50 -8.10 -7.90 -22.70 -11.75 -38.95 -0.85 -3.55 -2.05 -8.50 -2.75 -11 -2.65 -9.85 -8.80 -35.90 -10.05 -42.55 -0.75 -4 -1.20 -7.65 -1 -8.40 0.30 -1.20 0.55 -1.30 2.80 -1.30 1.35 0 3.05 0.25 3.80 0.50 3 1.15 8.70 2.45 13.20 3 4.45 0.55 18.25 0.45 27.25 -0.25 13.45 -1 23.60 -1.40 37.75 -1.50 33.20 -0.30 70.95 -3.15 95.50 -7.30 38.80 -6.55 53.70 -9.70 66.30 -14 9.50 -3.20 12.90 -3.95 18.05 -3.95 5.80 0 10.80 -0.75 24.90 -3.80 16.80 -3.65 24.90 -6.25 35.40 -11.50 2.40 -1.25 5.45 -2.55 6.75 -3 1.30 -0.45 2.70 -1.10 3.15 -1.50 1.10 -1 4.25 -0.90 4.65 0.10 0.50 1.30 0.35 4.05 -0.40 7.60 -0.40 1.85 -1 5.40 -1.30 7.85 -1.05 7.85 -2.95 16.50 -7.35 34 -7.45 29.55 -10.30 42.45 -16.20 72.75 -5.70 29.05 -7.25 40.45 -8.45 62.75 -1.15 20.60 -1.90 27.65 -3.45 32.60 -3.20 9.95 -3.35 13.75 -1 22.15 1.05 3.55 1.05 4.35 0.65 15.75 -0.60 17.85 -0.50 38.95 0.20 42.45 0.30 1.60 0.75 5.35 0.90 8.30 0.35 5.90 0.60 5.35 -3.25 8.60 -2.40 2.05 -2.15 3.75 1 6.15 l2.55 1.95 -0.20 2.50 c-0.15 1.85 -0.65 3.15 -1.80 4.70 -2.15 3 -3.25 6.65 -3 9.80 0.45 5.30 4.65 11.40 9.50 13.75 1.30 0.60 2.60 1.45 3 1.90 1.10 1.35 5.50 14.25 5.75 17.05 l0.25 2.60 -1.75 0 c-0.90 0 -2.40 -0.35 -3.25 -0.75 -1.45 -0.75 -1.80 -0.70 -6.15 0.75 -6.25 2.10 -11.95 4.50 -11.95 5.05 0 0.25 -1.10 0.45 -2.50 0.45 -1.35 0 -2.50 -0.20 -2.50 -0.50 0 -0.25 1.05 -1 2.30 -1.65 l2.35 -1.20 -4.20 -0.80 c-6.95 -1.40 -12.80 -1.15 -20.60 0.90 -8.65 2.20 -33.25 5.30 -41.60 5.15 -3.45 -0.05 -5 0.25 -11.25 2.25 -4 1.25 -8.10 2.40 -9.10 2.60 -2.05 0.30 -2.55 1 -0.85 1.10 1.40 0.10 1.60 0.40 1.25 1.55 -0.35 1.10 -2.85 1.45 -10.90 1.60 -3.70 0.05 -4.40 -0.05 -4.40 -0.70 0 -0.85 0.60 -0.95 3.40 -0.80 0.90 0.05 1.60 -0.15 1.60 -0.50 0 -0.30 0.25 -0.40 0.50 -0.25 0.65 0.40 2.50 -0.20 2.50 -0.80 0 -0.25 -1.10 -0.45 -2.40 -0.45 -1.35 0 -4.20 -0.45 -6.40 -1.05 -3.65 -0.95 -4.75 -1.05 -15.45 -0.70 -6.30 0.15 -12.40 0.55 -13.50 0.80 -1.15 0.35 -6.45 0.50 -13 0.40 -6.05 -0.05 -12.50 0.05 -14.35 0.25 -1.80 0.25 -10.80 0.45 -20 0.55 -19.05 0.15 -17.70 0.05 -18.05 0.90 -0.15 0.45 0.45 0.60 2.10 0.55 3 -0.05 4.05 0.25 4.05 1.10 0 0.90 -5.75 0.85 -14.25 -0.10z m226.75 -18.05 c-0.05 -0.90 -0.90 -1.75 -1.20 -1.20 -0.20 0.30 -0.20 0.80 -0.05 1.05 0.35 0.60 1.25 0.65 1.25 0.15z m-50 -72.15 c0.40 -0.75 0.35 -1.40 -0.30 -2.60 -0.75 -1.45 -0.90 -1.55 -1.20 -0.65 -0.95 2.75 -1 3.70 -0.15 3.90 0.50 0.15 0.95 0.25 1 0.30 0.05 0 0.35 -0.40 0.65 -0.95z m-251.95 -213.90 c0.25 -1.30 0.15 -1.75 -0.60 -2.15 -1.30 -0.70 -1.90 -0.20 -1.75 1.45 0.10 0.75 0.20 1.65 0.25 2 0.10 1.35 1.75 0.35 2.10 -1.30z m324.05 -82 c0.10 -0.75 0.05 -1.90 -0.10 -2.60 -0.30 -1.15 -0.35 -1.15 -0.90 0.65 -0.55 1.90 -0.35 3.35 0.40 3.35 0.20 0 0.50 -0.60 0.60 -1.40z"/>
  <path d="M427.50 526.45 c0 -1 2.35 -1.85 5.50 -2 3.95 -0.10 4.50 -0.05 4.50 0.75 0 0.75 -1.30 1.05 -6.60 1.60 -2.70 0.25 -3.40 0.20 -3.40 -0.35z"/>
  <path d="M479 519.55 c0 -1.05 1.30 -1.55 4.15 -1.55 1.65 0 1.85 0.15 1.85 1.25 0 1.20 -0.15 1.25 -3 1.25 -2.60 0 -3 -0.10 -3 -0.95z"/>
  <path d="M261.40 176.45 c-0.60 -0.30 -0.90 -1.10 -0.90 -2.15 0 -1.55 0.15 -1.70 1.90 -1.95 1 -0.15 4.90 -0.85 8.60 -1.50 9.75 -1.80 9.40 -1.75 25.15 -3.10 7.90 -0.70 19.45 -1.80 25.60 -2.50 10.90 -1.25 12.35 -1.30 47.50 -1.40 l36.25 -0.10 0 1.50 c0 2.05 -1.35 2.60 -9.25 3.75 -25.35 3.60 -51.40 5.50 -83.25 6 -14.15 0.25 -27.75 0.70 -30.25 1.05 -6.15 0.80 -20.25 1.05 -21.35 0.40z"/>
  <path d="M214.35 166.65 c-0.60 -0.55 -0.40 -3.50 0.30 -4.05 0.35 -0.30 2.30 -1 4.35 -1.50 3.35 -0.90 6.20 -1.05 27.40 -1.35 l23.60 -0.35 0 1.75 0 1.75 -3.35 0.35 c-1.90 0.20 -3.55 0.60 -3.75 0.90 -0.35 0.60 -11.60 1.20 -29.75 1.60 -4.45 0.10 -9.80 0.45 -11.90 0.70 -4.40 0.65 -6.45 0.70 -6.90 0.20z m6.70 -2.50 c1 -1 0.05 -1.65 -1.55 -1.05 -1.55 0.50 -1.95 1.15 -0.85 1.55 0.90 0.30 1.80 0.10 2.40 -0.50z"/>
  <path d="M348.80 157.20 c-0.15 -0.45 -0.30 -1.50 -0.30 -2.40 l0 -1.60 6.40 -0.60 c10.30 -0.95 20.25 -1.55 29.60 -1.70 l8.75 -0.15 0.15 2.05 c0.10 1.65 -0.10 2.40 -1.15 3.65 l-1.35 1.55 -20.90 0 c-18.60 0 -20.95 -0.10 -21.20 -0.80z"/>
  <path d="M399.50 155.65 c-2 -0.40 -3 -1.60 -3 -3.65 l0 -1.85 3.90 -0.35 c9.65 -0.80 18.40 -0.95 24.60 -0.30 l6.50 0.65 0 1.60 c0 2.40 -1.20 3.20 -5 3.15 -1.80 0 -4.15 0.20 -5.25 0.50 -2 0.45 -19.40 0.70 -21.75 0.25z"/>
  <path d="M223.50 153.30 c0 -0.45 0.55 -0.90 1.20 -1.10 0.90 -0.20 1.35 -0.80 1.75 -2.55 0.80 -3.05 3.35 -8.65 4.60 -9.95 0.80 -0.85 0.85 -1.20 0.40 -1.50 -0.35 -0.20 -0.70 -0.15 -0.85 0.20 -0.10 0.30 -0.50 0.40 -0.95 0.25 -0.50 -0.20 -0.70 -0.10 -0.50 0.20 0.25 0.35 -0.05 0.45 -0.75 0.25 -0.60 -0.15 -0.95 -0.05 -0.75 0.20 0.15 0.25 -0.15 0.50 -0.70 0.50 -1.10 0 -1.25 -1.10 -0.30 -1.95 0.30 -0.35 1.85 -1.15 3.35 -1.80 1.50 -0.65 3.20 -1.40 3.75 -1.60 12.05 -5.25 39.10 -12.95 62.75 -17.90 2.60 -0.55 6.90 -1.45 9.50 -2 2.60 -0.55 7.90 -1.55 11.75 -2.30 3.85 -0.70 9.05 -1.75 11.50 -2.25 2.50 -0.55 7.10 -1.45 10.25 -2 9.45 -1.60 13.30 -2.35 22.50 -4.25 31.05 -6.40 36.30 -7.10 58 -7.70 11.20 -0.35 15.10 -0.30 18.25 0.25 4.95 0.80 14.50 1.70 18.60 1.70 1.70 0 3.25 0.25 3.40 0.50 0.20 0.35 6.50 0.50 17.65 0.45 14.70 -0.05 17.90 0.05 21.10 0.80 3.70 0.80 6.45 1.30 13.30 2.20 5.35 0.70 7.55 1.45 11.95 3.90 6.05 3.35 10.65 5.40 16.60 7.45 6.30 2.10 7.65 2.75 10.50 4.90 1.95 1.45 2.10 1.70 2.15 3.90 0 1.95 -0.20 2.45 -1.10 2.95 -0.65 0.35 -2.95 1.80 -5.15 3.20 -6.50 4.20 -8.55 5.20 -15.55 7.45 -7.10 2.25 -13.25 3.65 -19.45 4.50 -15.05 2 -27.10 3.40 -34 3.95 -10.10 0.80 -33.20 0.70 -42.75 -0.20 -9.65 -0.85 -32.15 -0.90 -42.25 -0.05 -4.10 0.35 -12.45 0.85 -18.50 1.10 -16.05 0.65 -25.90 1.70 -44.50 4.75 -5.75 0.95 -12.95 2 -16 2.35 -8.25 0.85 -42.50 1.10 -44.90 0.35 -1.40 -0.45 -2.10 -0.50 -3 -0.05 -0.75 0.40 -6.80 0.65 -19.35 0.80 -10.05 0.10 -19.45 0.35 -20.85 0.55 -2.25 0.30 -2.65 0.20 -2.65 -0.45z m127.25 -44.40 c0.75 0.35 1.25 0.40 1.25 0.10 0 -0.30 0.40 -0.50 0.95 -0.50 0.50 0 1.20 -0.35 1.55 -0.75 0.50 -0.60 0.40 -0.65 -0.60 -0.45 -2.35 0.50 -6.05 1.20 -6.25 1.20 -0.10 0 -0.05 0.25 0.10 0.50 0.25 0.40 0.55 0.35 1.05 -0.05 0.55 -0.45 1.05 -0.45 1.95 -0.05z m160.65 -4.55 c0.10 -0.50 0 -0.85 -0.25 -0.80 -0.20 0.05 -0.80 -0.05 -1.25 -0.25 -0.50 -0.25 -1.25 -0.25 -1.70 -0.10 -0.75 0.30 -0.75 0.40 0.10 1.35 1.05 1.20 2.85 1.10 3.10 -0.20z m-130.90 -0.75 c0 -0.20 0.75 -0.65 1.65 -1.05 2.05 -0.85 0.90 -1.30 -1.40 -0.55 -1.75 0.55 -2.45 2 -1 2 0.40 0 0.75 -0.20 0.75 -0.40z m108 -2.10 c0 -0.70 -0.35 -1 -1.20 -1 -0.65 0 -1.60 -0.15 -2.10 -0.35 -0.80 -0.30 -0.80 -0.20 0.10 1 1.15 1.60 3.20 1.85 3.20 0.35z"/>
  <path d="M543.15 108.15 c-0.40 -0.10 -0.65 -1.10 -0.65 -2.20 0 -2.20 0.20 -2.25 4.70 -1.65 1.80 0.25 2.30 0.55 2.30 1.25 0 0.70 -0.35 0.95 -1.35 0.95 -0.80 0 -1.75 0.25 -2.15 0.50 -0.65 0.40 -0.60 0.50 0.15 0.50 0.50 0 0.75 0.25 0.60 0.50 -0.30 0.50 -2.50 0.60 -3.60 0.15z"/>
  <path d="M310.40 106.65 c-1.20 -0.20 -1.40 -0.45 -1.40 -1.80 0 -1.55 0.10 -1.65 3.90 -2.80 8.75 -2.70 18.70 -5.05 21.45 -5.05 1.15 0 1.65 0.25 1.65 0.75 0 0.40 -0.30 0.75 -0.60 0.80 -0.35 0 -1.05 0.10 -1.50 0.25 -0.50 0.10 -1.25 0.25 -1.75 0.35 -0.45 0.10 -1 0.65 -1.20 1.25 -0.40 1 -0.25 1.10 1.55 1.10 1.60 0 2 0.20 2 0.90 0 0.75 -0.75 1 -4.60 1.50 -2.55 0.30 -6.95 1.15 -9.80 1.85 -4.95 1.20 -6.65 1.35 -9.70 0.90z"/>
  <path d="M297.10 100.40 c0.10 -0.30 0.95 -0.95 1.80 -1.35 0.85 -0.45 1.60 -1.10 1.60 -1.45 0 -0.95 5.85 -5.05 8.15 -5.65 2.65 -0.70 7.80 -1.10 8.85 -0.65 1.05 0.50 1.35 0.55 2.50 0.65 1.30 0.05 1.40 2.05 0.15 2.05 -1.40 -0.05 -18.30 5.65 -19.05 6.35 -0.85 0.85 -4.25 0.90 -4 0.05z"/>
  <path d="M346.50 99.80 c0 -0.65 2.25 -1.40 5.90 -2 1.40 -0.25 1.60 -0.15 1.60 0.90 0 0.95 -0.35 1.20 -1.85 1.50 -3.30 0.50 -5.65 0.35 -5.65 -0.40z"/>
  <path d="M354.50 98.30 c0 -0.45 0.30 -0.80 0.65 -0.85 0.30 0 0.95 -0.10 1.35 -0.25 0.40 -0.10 1.50 -0.35 2.45 -0.55 0.95 -0.25 1.80 -0.65 1.90 -0.90 0.20 -0.65 -2.70 -0.50 -4.50 0.20 -1.75 0.65 -3.50 0.70 -3.10 0.10 0.15 -0.30 -0.20 -0.40 -0.80 -0.30 -0.65 0.15 -1.30 0.45 -1.45 0.75 -0.60 0.95 -4 0.05 -4 -1 0 -0.75 0.65 -0.95 4.15 -1.25 2.25 -0.15 5.45 -0.55 7.10 -0.80 1.65 -0.25 5.10 -0.45 7.65 -0.45 l4.60 0 0 1.70 c0 1.90 -0.60 2.30 -3.35 2.30 -0.95 0 -2.05 0.35 -2.45 0.75 -0.45 0.45 -1.70 0.75 -2.85 0.75 -1.15 0 -3.30 0.15 -4.70 0.30 -2.25 0.30 -2.65 0.20 -2.65 -0.50z"/>
 </g>
 <g fill="#030303">
  <path d="M381 648.15 c-1.50 -0.10 -7.45 -0.50 -13.25 -0.90 -5.75 -0.45 -12.75 -0.90 -15.50 -1.05 -2.75 -0.15 -7.25 -0.60 -10 -1.05 -8.30 -1.30 -26.50 -1.25 -35.25 0.10 -6.80 1.05 -9.85 1.20 -21 1.05 -7 -0.10 -13.30 -0.35 -14 -0.50 -4.10 -1 -36.55 -4.65 -42.45 -4.80 -1.80 0 -3.40 -0.15 -3.55 -0.25 -0.15 -0.10 -5.45 -0.45 -11.80 -0.75 -18 -0.85 -31 -1.90 -37.25 -2.95 -1.55 -0.25 -11.80 -0.55 -22.75 -0.60 -25.10 -0.15 -34.35 -0.85 -49.45 -3.75 -16.15 -3.10 -26.10 -6.35 -39.15 -12.80 -13.15 -6.50 -19.75 -11.75 -23.80 -19.05 -2.60 -4.70 -2.85 -7 -2.55 -25.60 0.25 -18.65 0.80 -22.65 3.85 -29.35 1.30 -2.75 1.85 -4.75 2.10 -7.55 0.40 -4.75 1.80 -9.40 4.30 -14.45 5.50 -11.05 13 -18.45 29.75 -29.55 3.60 -2.35 6.90 -4.65 7.35 -5.05 0.50 -0.45 1 -0.80 1.10 -0.80 0.25 0 10.30 -5.90 14.20 -8.30 13.60 -8.45 19.55 -11.40 31.15 -15.40 5.65 -1.95 10.25 -2.55 13.25 -1.75 1.70 0.45 3.05 0.35 7.35 -0.55 2.90 -0.55 6.05 -1.10 6.95 -1.20 0.90 -0.10 2 -0.30 2.40 -0.45 0.70 -0.25 14.15 -2.15 18.75 -2.65 8.05 -0.85 18.90 -2.45 23.50 -3.50 17.70 -4.05 18.80 -4.25 27.25 -4.50 4.55 -0.15 8.50 -0.35 8.80 -0.45 0.50 -0.15 1.10 -6.60 2.90 -32.25 0.50 -6.90 0.85 -9.70 1.55 -10.95 0.80 -1.65 0.85 -3.20 0.55 -22.75 -0.20 -11.60 -0.40 -22.40 -0.55 -24.05 -1.60 -24.35 -4.70 -46.25 -7.30 -51.60 -0.60 -1.20 -1.15 -3.40 -1.20 -4.90 -0.10 -1.45 -0.85 -5.65 -1.70 -9.35 -0.85 -3.65 -2 -9.10 -2.55 -12.15 -2 -10.45 -3.60 -16.05 -11.10 -38.75 -4.50 -13.55 -4.55 -13.75 -8.60 -20 -4.55 -6.95 -7.30 -11.65 -11.40 -19.50 -1.50 -2.90 -3.70 -6.70 -4.85 -8.50 -1.70 -2.55 -2.05 -3.55 -1.85 -4.70 0.40 -1.90 0.95 -2.50 3.10 -3.55 2.50 -1.20 4.10 -0.40 6.75 3.40 1.20 1.65 2.20 2.80 2.30 2.50 0.25 -0.70 -2.30 -8.35 -4.40 -13.40 l-1.50 -3.60 -3.35 -0.90 c-6.40 -1.70 -8.95 -3.75 -10.30 -8.15 -0.80 -2.80 -1.05 -12.35 -0.35 -14.25 0.70 -1.80 3.80 -5.10 6.50 -7 1.25 -0.85 3.35 -2.60 4.60 -3.95 4.35 -4.40 24.20 -16.20 34.50 -20.45 6.45 -2.65 16.30 -6.35 17.85 -6.70 0.45 -0.10 1.65 -0.45 2.60 -0.75 0.95 -0.30 3.25 -0.75 5.10 -0.95 3.05 -0.40 7.95 -1.75 17.15 -4.80 5.10 -1.65 23.90 -8.80 24.50 -9.25 1.10 -0.90 16.10 -5.60 20.80 -6.55 2.75 -0.55 5.55 -1.20 6.25 -1.50 0.75 -0.25 1.45 -0.35 1.60 -0.25 0.10 0.15 0.65 0.05 1.10 -0.20 0.50 -0.25 1.90 -0.60 3.05 -0.75 1.20 -0.15 4.10 -0.60 6.45 -1 6.90 -1.20 19.15 -2.80 23.35 -3 2.15 -0.10 12.80 -0.35 23.65 -0.55 21.45 -0.35 31.40 0.05 40.75 1.80 3.95 0.70 8.70 1.05 16.75 1.30 11.10 0.25 14.15 0.50 26.50 1.90 3.45 0.40 9.40 0.85 13.25 1.05 12.20 0.50 28.25 1.80 35.25 2.75 6.70 0.90 11.35 1.45 22.50 2.50 11.05 1.05 15.10 2.15 17.30 4.60 2 2.15 4.15 7.60 4.20 10.40 0.05 2.25 0.55 2.55 2.95 1.70 2.70 -0.90 5.35 -0.25 6.15 1.60 0.55 1.15 0.75 1.25 3.20 0.90 2.50 -0.30 2.75 -0.20 4.20 1.20 0.80 0.85 1.50 1.85 1.50 2.30 0 0.45 0.75 0.95 1.90 1.30 2.20 0.55 3.30 1.65 3.80 3.65 0.25 1.10 -0.25 2.70 -2.25 7 -1.40 3.10 -3.55 7.95 -4.75 10.80 l-2.20 5.25 1.60 1.65 c1.55 1.60 1.65 1.90 1.60 5.30 -0.10 5.70 -1 8.35 -14.55 43.35 -4.05 10.55 -13 34.70 -14.05 38 -1 3.20 -1.60 7.15 -3.60 23.75 -0.90 7.15 -2.40 18.80 -5.05 38.25 -2.05 15.25 -6.40 35.35 -10.15 47.35 -1.35 4.30 -1.90 7.15 -2.30 11.95 -0.80 9.75 -0.65 23.15 0.30 28.15 0.65 3.40 0.75 5.90 0.45 12.55 -0.20 4.55 -0.40 16.80 -0.45 27.25 -0.05 18.05 0 19.10 0.95 21 l1 2 12.25 0.35 c17.05 0.45 24.80 1.30 38.50 4.40 5.70 1.30 7.70 1.45 22.25 1.95 24.80 0.90 34.05 2.20 47 6.65 5.20 1.80 13.55 5.30 18.30 7.70 2.55 1.25 6.85 3 9.65 3.90 14.35 4.70 19.20 8.20 25.75 18.85 8.90 14.40 9.10 15.10 9.05 35.70 -0.05 8.50 -0.10 17.20 -0.10 19.25 -0.05 2.05 0 7.70 0.10 12.50 0.25 10.25 -0.20 12.60 -3.10 17.10 -2.15 3.35 -17.35 18.70 -22.90 23.10 -5.60 4.45 -7.70 5.70 -22.40 13.15 -7.90 4 -16.60 8.45 -19.40 9.95 -4.55 2.35 -8.95 3.90 -16.45 5.70 -1.35 0.35 -2.85 0.60 -3.25 0.60 -0.40 0 -1.65 0.25 -2.75 0.55 -1.10 0.25 -2.35 0.55 -2.75 0.55 -2.70 0.25 -6.55 1 -6.80 1.35 -0.15 0.25 -0.85 0.45 -1.60 0.45 -0.75 0 -4.60 0.80 -8.60 1.75 -11.75 2.85 -20.70 4.20 -29.65 4.55 -4.45 0.15 -10.80 0.60 -14.10 1 -3.30 0.40 -7.10 0.80 -8.50 0.95 -1.35 0.15 -3.05 0.40 -3.75 0.55 -0.70 0.20 -1.70 0.40 -2.25 0.45 -3.50 0.30 -7.75 0.90 -9.25 1.25 -0.95 0.25 -6.90 0.55 -13.25 0.75 -6.30 0.15 -12.05 0.40 -12.75 0.50 -0.70 0.10 -5.50 0.35 -10.75 0.50 -15 0.45 -36.65 1.45 -49.75 2.25 -4 0.25 -10.05 0.60 -13.50 0.80 -3.45 0.15 -12.20 0.70 -19.50 1.20 -11.85 0.80 -30.50 1.10 -38 0.65z m33.75 -9.90 c1.40 -0.10 5.10 -0.30 8.25 -0.50 3.15 -0.20 7 -0.45 8.50 -0.50 1.50 -0.10 7.05 -0.45 12.25 -0.70 8.65 -0.50 13.05 -0.70 29.50 -1.30 19.35 -0.75 22.95 -0.90 27 -1.25 4.45 -0.35 4.40 -0.35 -3 -0.50 -4.10 -0.05 -16.50 -0.10 -27.50 -0.10 -11 0 -22.90 -0.20 -26.50 -0.45 -3.55 -0.25 -8.05 -0.55 -10 -0.65 -5.35 -0.35 -28.65 0.65 -33.50 1.45 -0.80 0.10 -3.85 0.35 -6.75 0.55 -2.90 0.15 -5.40 0.40 -5.55 0.50 -0.15 0.05 -6.45 0.30 -14 0.45 -13.40 0.30 -22.20 1 -21.70 1.70 0.10 0.20 4.20 0.55 9.10 0.75 20.50 0.75 23.90 0.90 24.15 1.15 0.25 0.25 24.85 -0.25 29.75 -0.60z m-127.25 -5.35 c11.10 -0.40 16.35 -0.75 19.25 -1.40 l4 -0.90 -14.75 -0.05 c-10.75 0 -37.20 0.95 -39.35 1.45 -0.05 0 0 0.35 0.20 0.75 0.35 0.95 7.80 1 30.65 0.15z m-86.50 -6.90 c3.45 -0.25 8.50 -0.55 11.25 -0.70 2.75 -0.15 6.35 -0.50 8 -0.80 3.15 -0.50 9.50 -0.95 18.50 -1.25 10.50 -0.35 19.55 -0.80 26.50 -1.30 3.85 -0.25 17.60 -0.50 30.50 -0.50 20.25 -0.05 24.90 0.10 33.50 1 16.95 1.75 20.65 2.05 31.50 2.55 12.05 0.55 16.55 0.25 31.50 -2.10 l10 -1.60 21.25 -0.10 c20.45 -0.05 26.15 -0.30 40.65 -1.90 3.60 -0.40 9.20 -1 12.35 -1.30 3.15 -0.30 6.55 -0.65 7.50 -0.85 0.95 -0.15 16.05 -0.50 33.50 -0.70 35.50 -0.50 67.45 -1.25 71.25 -1.70 1.40 -0.15 4.75 -0.50 7.50 -0.80 12.15 -1.20 23.15 -3.85 36.60 -8.65 4.90 -1.75 11.50 -3.90 14.65 -4.75 15.20 -4.20 19.05 -5.75 27 -10.95 4.90 -3.20 10.50 -8.35 10.50 -9.65 0 -0.45 0.25 -0.95 0.50 -1.05 0.30 -0.10 0.65 -0.80 0.75 -1.55 0.15 -0.75 1.20 -3.90 2.30 -7 5.35 -14.80 5.60 -15.65 5.25 -20.85 -1.95 -31.30 -3.20 -41.30 -6.60 -52.45 -1.15 -3.85 -1.60 -4.55 -4.60 -7.65 -4.65 -4.85 -6.85 -5.95 -17.35 -8.55 -4.95 -1.25 -11.65 -3.30 -14.95 -4.60 -7.15 -2.80 -10.45 -3.50 -19.30 -4.20 -3.70 -0.30 -10.45 -1.20 -15 -2.05 -4.55 -0.80 -8.70 -1.50 -9.25 -1.50 -0.55 0.05 -1.75 0.70 -2.65 1.45 -1.50 1.30 -1.85 1.40 -3.50 0.95 -1.80 -0.50 -6.60 -4.60 -6.60 -5.60 0 -0.30 -0.95 -1 -2.10 -1.55 -2.05 -0.95 -3.45 -1 -29.25 -1.15 l-27.15 -0.15 0 1.25 c0 1.70 3.45 18.25 4 19.30 0.25 0.50 1.25 1.05 2.20 1.20 1.15 0.20 2.15 0.85 2.80 1.80 0.95 1.30 1 1.90 0.70 5.90 -0.40 5.40 -0.05 6.65 3.75 13.30 1.55 2.70 3.50 6.15 4.35 7.75 0.95 1.65 2.50 3.55 3.95 4.60 2.90 2.25 3.25 2.75 3.25 4.95 0 2.75 -2.20 4.80 -4.85 4.55 -1.40 -0.15 -1.50 0.85 -0.35 3.30 1.40 2.85 3.30 3.60 6.30 2.40 1.10 -0.45 3.55 0.90 4.60 2.45 1 1.55 1.05 3.80 0.05 5.10 -1.05 1.40 -0.95 1.85 1.15 4.85 1.20 1.80 2.30 2.85 3.10 3 1.85 0.40 4 2.60 4 4.05 0 1.75 -2.05 6.20 -3.75 8.25 -1.80 2.10 -7.05 4.55 -15.25 7.05 -3.45 1.10 -9.15 2.90 -12.75 4.05 -12 3.85 -15.80 4.75 -32.50 7.70 -4.10 0.75 -19.95 4 -26.85 5.55 -2.20 0.50 -3.75 1.10 -3.55 1.35 0.20 0.30 -0.25 0.40 -1.10 0.25 -0.80 -0.15 -3.25 0.10 -5.45 0.65 -15.50 3.50 -29.85 6.10 -38.55 6.95 -3.30 0.30 -6.80 0.75 -7.75 1 -2.65 0.60 -75.10 0.65 -82.50 0 -13.55 -1.15 -23.75 -3.40 -34.45 -7.70 -2.55 -1.05 -4.75 -1.40 -10.25 -1.85 -13.75 -1 -24.70 -3.45 -37.55 -8.35 -2.40 -0.90 -10.50 -5 -17.30 -8.80 -1.85 -1 -4.15 -2.65 -5.15 -3.60 l-1.90 -1.85 -1.50 1.85 c-1.25 1.55 -1.80 1.80 -3.50 1.80 -1.70 0 -2.30 -0.30 -3.50 -1.60 -1.30 -1.50 -1.40 -1.85 -1.45 -6.10 0 -2.50 -0.05 -5.30 -0.05 -6.15 -0.05 -1.05 0.30 -2.05 1 -2.80 1.50 -1.60 1.40 -1.95 -0.80 -3.10 -2.20 -1.15 -3.05 -3.60 -2.30 -6.35 1 -3.40 6.10 -5.10 8.55 -2.80 0.65 0.60 1.25 0.95 1.40 0.80 0.15 -0.10 1 -3.95 1.90 -8.50 l1.70 -8.25 -1.25 -1.20 c-1 -0.95 -1.15 -1.50 -0.95 -3.15 0.20 -1.35 0.70 -2.40 1.50 -3.05 1.30 -1.05 1.60 -2.20 2.10 -8.30 0.35 -3.65 -0.25 -4.55 -1.85 -2.85 -0.50 0.50 -0.80 0.90 -0.65 0.90 0.15 0 -1.90 1.90 -4.60 4.15 -4.25 3.60 -6.25 5.05 -10.55 7.60 -0.45 0.30 -1.20 0.70 -1.60 1 -0.40 0.25 -1.70 0.50 -2.90 0.50 -1.80 0.05 -2.40 -0.20 -3.40 -1.40 -2.30 -2.75 -1.50 -5.40 2.50 -7.90 8.75 -5.50 11.45 -7.75 15.60 -13.05 3.45 -4.45 4.55 -7.30 5.15 -13.65 0.90 -9.75 1 -11.50 0.65 -12.05 -0.20 -0.30 -2.15 -1.50 -4.35 -2.65 l-4 -2.10 -5.50 1.35 c-3 0.70 -6.95 1.75 -8.75 2.25 -1.80 0.50 -7.95 1.85 -13.75 2.95 -16.60 3.20 -25.55 5.30 -39.30 9.30 -28.65 8.20 -50.70 16.15 -62.95 22.55 -5.55 2.95 -13.30 7.95 -14.50 9.40 -0.55 0.65 -0.70 2.10 -0.55 6.10 0.10 4.30 -0.05 5.45 -0.75 6.55 -2.05 3.15 -4.95 3.45 -7.10 0.75 -0.75 -0.90 -1.50 -1.65 -1.75 -1.65 -0.30 0 -13.75 26.95 -16.15 32.35 -0.35 0.90 -1.05 2.40 -1.45 3.35 -0.40 0.95 -0.75 2.30 -0.75 3 0 1.25 4.90 16.70 6.75 21.15 1 2.50 1.80 3.05 7.60 5.45 5.60 2.30 15.15 7.20 15.15 7.75 0 0.25 0.25 0.45 0.55 0.45 0.90 0 6.55 4.45 10.45 8.20 3.70 3.50 7.35 5 19.50 8 18.85 4.55 26 6.35 29.25 7.30 6.45 1.90 16.95 3.90 23.50 4.50 3.60 0.35 6.60 0.70 6.75 0.80 0.35 0.35 17.25 0.15 24 -0.30z m378.90 -0.40 c9.15 -1.15 1.80 -1.80 -12.65 -1.15 -11.55 0.50 -13.25 0.70 -13.25 1.65 0 0.60 20.30 0.20 25.90 -0.50z m45.60 -7.05 c0 -0.90 -0.15 -0.95 -1.60 -0.40 l-1.65 0.55 1.50 0.35 c0.85 0.20 1.55 0.35 1.65 0.40 0.05 0 0.10 -0.40 0.10 -0.90z m4.80 -0.25 c0.55 -0.40 1.65 -0.80 2.45 -0.95 3.95 -0.65 11.50 -3.95 12.25 -5.35 0.30 -0.55 0.45 -1 0.30 -1 -0.10 0 -3.95 1.35 -8.45 3 -4.55 1.65 -8.55 3 -8.95 3 -0.35 0 -1 0.25 -1.40 0.50 -0.65 0.45 -0.65 0.55 0 1 1.05 0.70 2.60 0.60 3.80 -0.20z m-533.80 -1.70 c0 -0.20 -0.60 -0.75 -1.35 -1.20 -0.80 -0.45 -1.85 -1.25 -2.40 -1.75 -0.55 -0.50 -2.45 -2.15 -4.25 -3.65 -1.80 -1.50 -3.35 -2.85 -3.50 -3 -1.30 -1.45 -10.55 -6.25 -19.10 -10 -6.25 -2.70 -8.25 -4.60 -10.45 -9.95 -1.85 -4.60 -2.45 -4.50 -2.45 0.45 0 3.55 0.95 7.95 2.45 11.20 1.90 4.10 9.75 10.90 14.55 12.55 0.15 0.05 0.60 0.20 1 0.40 0.40 0.15 4.35 1.10 8.75 2.10 4.40 1 9.25 2.10 10.75 2.45 3.15 0.80 6 1 6 0.40z m323.50 -30.60 c10.45 -0.75 11.60 -0.85 13 -1.20 0.70 -0.15 3.15 -0.40 5.45 -0.55 2.35 -0.20 5.25 -0.55 6.50 -0.80 1.25 -0.30 2.80 -0.55 3.40 -0.60 0.60 -0.05 1.25 -0.25 1.45 -0.45 0.20 -0.25 1.15 -0.40 2.15 -0.40 1 0 1.55 -0.20 1.25 -0.40 -1.50 -0.90 -41.05 1.15 -42.85 2.25 -0.25 0.15 -9.50 0.45 -20.55 0.70 -21.20 0.40 -29.20 0.85 -27.55 1.50 1.50 0.55 49.40 0.50 57.75 -0.05z m-140.80 -13.80 c1.35 -0.50 -3.25 -2.65 -8.55 -4 -5.75 -1.45 -6.05 -1.45 -5 -0.30 0.45 0.50 2.80 1.55 5.20 2.30 2.45 0.75 4.95 1.55 5.65 1.80 1.65 0.55 1.75 0.55 2.70 0.20z m426.55 -2 c0.50 -0.75 0.65 -1.65 0.45 -2.30 -0.30 -0.95 -0.35 -0.95 -0.80 -0.25 -0.25 0.50 -0.80 1.65 -1.20 2.60 -0.60 1.50 -0.60 1.70 0 1.45 0.40 -0.15 1.10 -0.85 1.55 -1.50z m-287.50 0.80 c7.15 -0.25 19 -0.70 26.35 -0.95 7.35 -0.25 13.65 -0.65 13.95 -0.85 0.35 -0.20 1.10 -0.40 1.65 -0.50 3.90 -0.45 5.60 -1.05 14.05 -4.90 4.70 -2.15 13.10 -5.05 21 -7.25 6.10 -1.70 9.45 -2.60 10.75 -2.85 3 -0.60 17.90 -5.90 25.15 -8.90 9.25 -3.85 11.60 -5 13.50 -6.60 0.80 -0.65 1.75 -1.20 2.10 -1.20 1.30 0 1.20 -0.85 -0.50 -4.05 -0.90 -1.75 -2.40 -5 -3.25 -7.20 -0.90 -2.20 -1.75 -4.20 -1.95 -4.40 -0.20 -0.20 -0.95 -0.15 -1.65 0.10 -0.70 0.25 -2.25 0.65 -3.45 0.80 -1.20 0.20 -2.30 0.40 -2.45 0.50 -0.15 0.10 -2.35 0.30 -4.90 0.45 -2.55 0.20 -6.50 0.70 -8.75 1.10 -2.25 0.45 -5 0.85 -6.10 0.95 -1.10 0.05 -4.45 0.95 -7.50 1.90 -3 1 -6.60 1.95 -8 2.10 -1.35 0.20 -3.95 0.55 -5.75 0.80 -4.55 0.70 -6.55 0.85 -16.50 1.20 -8.60 0.30 -14.30 0.95 -21.25 2.50 -1.90 0.45 -4.85 1 -6.50 1.25 -1.65 0.25 -5 0.85 -7.50 1.25 -4.35 0.80 -5.20 0.95 -9.50 1.55 -6 0.85 -12.40 1.15 -30 1.45 -21.25 0.40 -82.30 0.35 -94 0 -12.40 -0.45 -24.65 -2.30 -34.50 -5.30 -1.90 -0.55 -5.50 -1.55 -8 -2.20 -4.35 -1.10 -5.85 -1.60 -12.65 -4.50 -1.70 -0.70 -3.30 -1.15 -3.60 -1 -0.25 0.15 -0.70 1.55 -1.05 3.15 -0.30 1.55 -1.25 5.60 -2 9 l-1.45 6.15 1.65 2.85 1.65 2.85 5 1.40 c9 2.60 16.40 4.95 20.80 6.65 2.95 1.15 7.10 2.15 13 3.15 10.75 1.85 15.40 2.80 21.15 4.35 7.40 1.95 15 3.75 20.15 4.70 4.35 0.80 8.60 0.90 41.35 0.90 20.10 0.05 42.35 -0.15 49.50 -0.40z m81 -1.20 c6.35 -0.40 11.65 -0.60 11.80 -0.50 0.95 0.55 4.95 -1.40 10.45 -5.05 3.45 -2.35 9.85 -6 14.25 -8.15 7.50 -3.75 10.60 -5.85 10.20 -7 -0.15 -0.30 -0.90 -0.15 -1.95 0.35 -8.95 4.35 -29.40 12.05 -32 12.05 -0.50 0 -1.05 0.20 -1.20 0.45 -0.15 0.25 -1.90 0.85 -3.90 1.30 -2 0.50 -4.65 1.15 -5.90 1.50 -1.25 0.40 -3.60 1.05 -5.25 1.50 -9 2.55 -10.85 3.20 -10.45 3.80 0.30 0.55 0 0.55 13.95 -0.25z m57.35 -12.60 c5.20 -1.90 5.30 -2.05 3.60 -5.30 -0.80 -1.45 -1.70 -2.65 -2.05 -2.65 -0.70 0 -6.70 8.30 -6.35 8.85 0.40 0.60 0.80 0.50 4.80 -0.90z m148.60 -8.60 c1.10 -3.40 1.25 -21.10 0.20 -23.60 -0.40 -0.95 -1.05 -3.30 -1.40 -5.25 -0.50 -2.95 -2.85 -8.60 -3.30 -8.10 -0.10 0.10 0.20 3.95 0.60 8.60 0.75 8.55 2.10 27.30 2.15 29.90 0.05 1.95 0.85 1.30 1.75 -1.55z m-335.95 -19.10 c3.85 -0.25 12.95 -0.70 20.25 -1 7.30 -0.30 16.95 -0.85 21.50 -1.25 4.55 -0.35 9.45 -0.70 10.95 -0.70 1.50 0 2.85 -0.25 3 -0.45 0.15 -0.25 1.90 -0.60 3.90 -0.80 1.95 -0.20 4.10 -0.45 4.75 -0.55 0.65 -0.10 3.60 -0.30 6.55 -0.45 2.95 -0.15 5.90 -0.40 6.50 -0.55 0.60 -0.10 2.55 -0.35 4.35 -0.45 3.75 -0.30 11.10 -1.50 23.75 -4 3.45 -0.65 6.20 -1 6.45 -0.75 0.65 0.60 2.30 0.60 2.30 0 0 -0.50 3.90 -1 11 -1.30 12.20 -0.60 16.95 -1.15 17.85 -2.05 0.80 -0.80 10.20 -4.45 14.60 -5.65 3.30 -0.90 5.25 -0.75 6.95 0.60 1 0.80 1.35 -0.05 0.65 -1.80 -0.35 -0.90 -1.55 -4.30 -2.65 -7.60 -1.10 -3.30 -2.35 -6.40 -2.80 -6.85 -0.40 -0.50 -1.75 -1.35 -3 -2 -3.05 -1.45 -6.45 -5 -8.05 -8.40 -2.55 -5.50 -1.95 -13.25 1.45 -17.95 2.50 -3.40 2.45 -4.10 -0.45 -6.30 -2.90 -2.20 -3.25 -3 -2.80 -5.80 0.35 -2.05 0.70 -2.50 3.75 -5.10 l1.60 -1.35 -0.30 -3.90 c-0.20 -2.10 -0.65 -5.30 -0.95 -7.10 -0.70 -3.80 -0.80 -27.95 -0.15 -43.75 0.40 -10.40 0.40 -10.55 -0.85 -15.25 -0.75 -2.60 -1.45 -5.85 -1.65 -7.25 -0.40 -3.15 0.90 -10.75 2.85 -16.90 1.55 -4.95 2.30 -12 3.45 -32.60 1.20 -22.30 2.75 -33.70 8.45 -62.75 5.90 -30.30 8.75 -43.20 16.20 -72.75 4.40 -17.50 6.30 -26.15 7.35 -34 0.30 -2.45 0.90 -6 1.30 -7.85 0.80 -3.90 0.80 -3.95 0.20 -4.90 -0.40 -0.60 -0.55 -0.60 -1.35 0.10 -0.50 0.45 -1.95 1.15 -3.25 1.60 -1.30 0.45 -4.35 1.75 -6.75 3 -5.80 2.85 -14.80 6.40 -20.40 7.95 -5.45 1.55 -26.55 6.05 -31.75 6.85 -2.05 0.30 -6.20 0.60 -9.25 0.70 -5.65 0.20 -8.15 0.80 -16.95 3.75 -12.50 4.30 -21.60 6.25 -62.30 13.35 -11.90 2.05 -28.55 4.15 -39.40 4.95 -2.50 0.20 -4.75 0.55 -4.85 0.80 -0.15 0.20 -1.20 0.30 -2.35 0.15 -1.15 -0.20 -5.25 -0.05 -9.10 0.25 -14.15 1.20 -24.45 1.60 -43.95 1.80 -10.95 0.10 -20.30 0.30 -20.75 0.50 -0.45 0.15 -5 0.45 -10.10 0.60 -5.10 0.15 -9.60 0.45 -10 0.65 -1.20 0.65 -22.65 0.60 -27.25 0 -4.40 -0.60 -9.15 -1.65 -12.30 -2.80 -2.55 -0.85 -3.75 -0.90 -4.10 -0.05 -0.45 1.20 5.10 26.25 10.15 45.60 0.25 1.10 1.65 6.60 3.05 12.25 5.15 20.85 9.10 33.95 12.45 41.40 1.75 3.80 1.95 6.55 0.50 7.85 -0.55 0.50 -1.10 1.25 -1.25 1.75 -0.35 1.20 3.45 19.95 4.95 24.25 2.20 6.45 6.25 15.10 8.50 18.35 1.40 2 -1 6.90 -3.35 6.90 -0.90 0 -0.95 0.25 -0.65 2.65 0.20 1.40 1.25 7 2.30 12.35 3.15 15.75 4.45 24.45 7.20 47.25 1.95 15.95 2.10 18.35 1.05 19.90 -1.30 2.05 -3.20 2.80 -5.25 2.10 -2.35 -0.80 -3.30 -2.60 -3.65 -7 -0.30 -3.80 -1.05 -6.20 -1.55 -4.75 -0.10 0.40 -0.35 6.15 -0.50 12.75 -0.10 6.60 -0.70 17.05 -1.25 23.25 -0.55 6.20 -1 13.05 -1 15.25 0 2.15 -0.20 6.65 -0.50 9.95 -0.30 3.35 -0.80 9 -1.10 12.55 -0.25 3.60 -0.80 10 -1.20 14.25 -0.40 4.25 -0.75 9.35 -0.75 11.35 0 4.15 -1.05 3.50 8.50 5.15 3.15 0.55 11.40 2.10 18.25 3.45 17.40 3.45 33 5.50 47.75 6.30 3.15 0.20 8.10 0.65 11 1.05 10.85 1.55 22.80 2 34.25 1.20z m-88.50 -354.95 c2.50 -0.30 11.50 -0.65 20 -0.80 36.50 -0.65 38.10 -0.70 67.75 -3.25 15.55 -1.30 32.25 -3.65 34.25 -4.75 1.45 -0.80 1.25 -0.80 -4.65 -0.50 -3.40 0.15 -18.15 0.25 -32.75 0.20 -32.90 -0.15 -28.55 -0.30 -41.95 1.25 -6.25 0.70 -17.85 1.85 -25.75 2.55 -16.15 1.40 -19.40 1.85 -30.15 4 -0.40 0.10 -1.85 0.35 -3.20 0.55 -2.05 0.30 -2.35 0.45 -1.65 0.95 1 0.70 11.50 0.60 18.10 -0.20z m-59.75 -9.85 c1.25 -0.15 6.10 -0.35 10.75 -0.45 4.70 -0.05 9.20 -0.25 10 -0.45 0.85 -0.15 5.50 -0.35 10.40 -0.45 5.85 -0.05 9 -0.30 9.25 -0.65 0.20 -0.30 1.95 -0.80 3.85 -1.10 2.60 -0.35 -2.35 -0.45 -18.75 -0.25 -19.95 0.25 -22.65 0.35 -26 1.25 -2.05 0.55 -4 1.20 -4.35 1.50 -0.95 0.80 -0.20 1.50 1.25 1.20 0.75 -0.15 2.35 -0.40 3.60 -0.60z m169.75 -9.80 c1.30 -1.55 1.50 -2.20 0.85 -2.60 -0.95 -0.55 -40.65 1.75 -41.50 2.45 -0.05 0.05 0 0.50 0.20 0.95 0.30 0.70 2.15 0.80 19.75 0.75 l19.50 -0.10 1.20 -1.45z m-175.05 -0.65 c1.80 -0.70 3.30 -1.10 3.30 -1 0 0.15 0.45 0.05 1 -0.25 1.65 -0.85 6.35 -1.10 25.50 -1.30 17.30 -0.20 18.35 -0.25 20.30 -1.25 l2.05 -1.05 2.10 1.05 c2.05 1.05 2.50 1.10 19.70 0.90 19.55 -0.25 23.90 -0.55 39.10 -3.10 18.45 -3.05 34.80 -4.75 45.30 -4.75 3.30 0 8.10 -0.20 10.60 -0.50 13.55 -1.40 37.10 -2.10 43.10 -1.30 10.95 1.50 35.75 1.95 49 0.95 6.90 -0.55 18.95 -1.95 34 -3.95 6.20 -0.85 12.35 -2.25 19.45 -4.50 7 -2.25 9.05 -3.25 15.55 -7.45 2.20 -1.40 4.50 -2.85 5.15 -3.20 1.65 -0.90 1.30 -2.10 -1.05 -3.85 -2.85 -2.15 -4.20 -2.80 -10.50 -4.90 -6 -2.05 -10.55 -4.10 -16.80 -7.55 -4.40 -2.45 -8.90 -3.70 -17.30 -4.70 -2.20 -0.25 -5.70 -0.85 -7.75 -1.30 -3.10 -0.70 -6.65 -0.85 -21.10 -0.80 -11.25 0.05 -17.45 -0.10 -17.65 -0.45 -0.15 -0.25 -1.70 -0.50 -3.40 -0.50 -3.95 0 -13.70 -0.90 -17.60 -1.60 -5.50 -1 -36.70 -0.10 -37.15 1.05 -0.05 0.20 -0.90 0.25 -1.85 0.15 -0.95 -0.10 -4.05 0.20 -6.85 0.65 -6.45 1.10 -29.90 5.70 -30.90 6.10 -0.40 0.15 -1.30 0.35 -2 0.45 -2.50 0.35 -23.85 4.25 -28.25 5.20 -2.45 0.50 -7.65 1.55 -11.50 2.25 -3.85 0.75 -9.15 1.75 -11.75 2.30 -2.60 0.55 -6.90 1.45 -9.50 2 -23.65 4.95 -52.65 13.25 -62.75 17.90 -0.55 0.25 -4.60 2 -9 3.85 -4.40 1.80 -9.10 3.85 -10.40 4.55 -2.25 1.10 -8.35 6.75 -8.35 7.70 0 0.20 0.50 0.70 1.15 1 0.60 0.35 1.40 1 1.75 1.55 0.85 1.15 1.35 1.15 5.30 -0.35z m206.75 -0.75 c2 -0.35 4.20 -0.50 4.85 -0.35 0.70 0.10 1.50 -0.15 1.95 -0.65 0.70 -0.80 0.30 -0.90 -5.80 -1.50 -5.40 -0.55 -8.25 -0.55 -15.90 -0.05 -5.10 0.35 -9.40 0.70 -9.50 0.85 -0.45 0.45 1.60 2.15 2.90 2.35 2.40 0.40 17.75 -0.10 21.50 -0.65z m146.25 -10.15 c0.70 -1.85 2.55 -6.20 4.10 -9.65 1.50 -3.45 2.70 -6.40 2.60 -6.50 -0.40 -0.35 -7.65 4.80 -8 5.65 -0.15 0.50 -0.35 2.50 -0.40 4.40 -0.05 1.95 -0.25 5.15 -0.45 7.15 -0.40 4.30 0.15 4.05 2.15 -1.05z m-15.70 -34 c0 -1.55 -1.40 -2.45 -5 -3.15 -2 -0.35 -3.80 -0.55 -3.95 -0.45 -0.40 0.45 1.55 1.65 3.70 2.25 1.10 0.35 2.55 0.90 3.25 1.30 1.60 0.85 2 0.85 2 0.05z m-235.60 -4.85 c4.75 -1.20 11.65 -2.55 14.35 -2.80 1.10 -0.10 2.70 -0.25 3.50 -0.40 4.35 -0.75 6.80 -1.25 7.15 -1.50 0.20 -0.10 1.60 -0.40 3.10 -0.55 2.50 -0.35 3.80 -0.55 6 -0.95 0.40 -0.05 1.10 -0.25 1.50 -0.40 1.50 -0.55 8.50 -1.45 9 -1.15 0.25 0.15 0.50 0.05 0.50 -0.25 0 -0.30 0.20 -0.45 0.45 -0.30 0.25 0.20 0.55 0.05 0.65 -0.20 0.10 -0.30 1.25 -0.65 2.60 -0.75 3.45 -0.30 3.50 -0.75 0.10 -0.75 -4.55 0 -14.95 1.30 -28.80 3.55 -7.70 1.25 -16.15 3.30 -23.50 5.65 -3.25 1.05 -3.55 1.25 -2.25 1.45 0.85 0.10 1.60 0.25 1.65 0.30 0.10 0 1.90 -0.40 4 -0.95z"/>
 </g>
</svg>